<?xml version="1.0"?>
<svg xmlns="http://www.w3.org/2000/svg" xmlns:xlink="http://www.w3.org/1999/xlink" xmlns:svgjs="http://svgjs.com/svgjs" version="1.1" width="512" height="512" x="0" y="0" viewBox="0 0 24 24" style="enable-background:new 0 0 512 512" xml:space="preserve" class=""><g><g xmlns="http://www.w3.org/2000/svg"><path d="m21.915 15.129c-.646-.646-1.402-1.146-2.246-1.486-.125-.051-.26-.066-.394-.045-1.1.169-2.262.095-3.36-.214-.142-.041-.282-.085-.423-.136l.514-.515c.349-.349.489-.843.376-1.322-.113-.48-.46-.859-.928-1.016l-1.423-.438-.493-1.479c-.155-.468-.535-.814-1.015-.928-.48-.113-.975.028-1.323.376l-.515.515c-.05-.14-.095-.28-.135-.42-.31-1.102-.384-2.264-.215-3.363.021-.133.005-.27-.045-.395-.34-.843-.84-1.599-1.486-2.245-2.213-2.212-5.721-2.598-8.342-.914-.2.128-.327.343-.343.58-.016.236.081.467.261.621.117.1.234.2.341.307 1.822 1.822 2.05 4.651.542 6.726-.132.181-.176.412-.119.629s.208.398.411.492c.567.263 1.075.616 1.508 1.048.423.423.773.923 1.04 1.481.921 1.977.503 4.342-1.04 5.886-.293.293-.293.768 0 1.061s.768.293 1.061 0c1.83-1.83 4.666-2.052 6.753-.517.221.155.421.324.614.517.433.434.786.94 1.048 1.507.094.204.274.355.492.411.219.058.449.013.63-.119 2.075-1.508 4.904-1.28 6.726.542.402.402.733.86.984 1.36.118.235.351.392.613.412.019.001.038.002.057.002.242 0 .47-.117.612-.316 1.891-2.667 1.581-6.286-.738-8.605z" fill="#ffffff" data-original="#000000" class=""/></g></g></svg>
