<svg width="60px" height="45px" viewBox="0 0 60 45" version="1.1" xmlns="http://www.w3.org/2000/svg" xmlns:xlink="http://www.w3.org/1999/xlink"><title>Group 9</title><desc>Created with Sketch.</desc><defs><polygon id="path-1" points="0.33 0.219909215 51.862 0.219909215 51.862 36.94 0.33 36.94"></polygon><polygon id="path-3" points="0.33 0.159851309 51.862 0.159851309 51.862 14.94 0.33 14.94"></polygon></defs><g id="Page-1" stroke="none" stroke-width="1" fill="none" fill-rule="evenodd"><g id="10444" transform="translate(-353.000000, -352.000000)"><g id="Group-9" transform="translate(353.425293, 352.467000)"><path d="M10.8877068,26.253 L9.89970676,26.006 C10.7087068,22.78 10.0137068,19.256 8.04070676,16.579 C7.91170676,16.404 7.77670676,16.231 7.64170676,16.058 C7.20470676,15.499 6.75370676,14.921 6.46170676,14.227 C6.09470676,13.351 5.97470676,12.013 6.84970676,11.124 C7.57970676,10.382 8.85370676,10.239 9.88070676,10.783 C10.6587068,11.196 11.3047068,11.966 11.7497068,13.009 L10.8137068,13.409 C10.5677068,12.832 10.1237068,12.065 9.40370676,11.683 C8.77570676,11.349 7.98970676,11.416 7.57570676,11.837 C7.08470676,12.336 7.13470676,13.199 7.40070676,13.833 C7.63870676,14.401 8.02970676,14.902 8.44370676,15.431 C8.58470676,15.612 8.72570676,15.792 8.86070676,15.975 C11.0117068,18.894 11.7697068,22.736 10.8877068,26.253" id="Fill-541" fill="#355168"></path><path d="M21.9757068,1.115 L26.8237068,0.071 C28.5917068,-0.31 30.3137068,0.886 30.5667068,2.677 C31.0757068,6.286 32.3827068,12.185 35.7177068,17.147 C21.8487068,12.694 21.8487068,2.642 21.9757068,1.115" id="Fill-542" fill="#203342"></path><path d="M57.3487068,27.326 C57.3487068,27.326 57.2207068,24.781 51.4957068,24.018 C50.6607068,23.908 49.6987068,23.695 48.6557068,23.382 C48.1897068,23.247 47.7087068,23.089 47.2147068,22.913 C46.7647068,22.756 46.3037068,22.58 45.8357068,22.392 C45.1077068,22.099 44.3647068,21.771 43.6137068,21.414 C43.1767068,21.203 42.7337068,20.982 42.2937068,20.753 C41.6217068,20.399 40.9497068,20.023 40.2907068,19.628 C39.8557068,19.366 39.4227068,19.096 39.0007068,18.816 C38.3997068,18.419 37.8117068,18.005 37.2447068,17.574 C37.0337068,17.417 36.8247068,17.254 36.6207068,17.091 C36.2187068,16.773 35.8297068,16.442 35.4527068,16.106 C34.8067068,15.523 34.2037068,14.92 33.6587068,14.299 C33.3207068,13.912 33.0047068,13.515 32.7147068,13.113 C32.1067068,12.274 31.6157068,11.406 31.2717068,10.52 C31.2237068,10.396 31.1807068,10.273 31.1377068,10.149 C31.0197068,9.805 30.9157068,9.462 30.8167068,9.121 C30.5567068,8.227 30.3357068,7.342 30.0607068,6.497 C29.8957068,5.988 29.7117068,5.492 29.4887068,5.021 C28.8797068,3.733 27.9817068,2.624 26.3857068,1.845 C22.3297068,-0.132 16.4487068,1.563 12.9647068,4.067 C11.3667068,5.217 9.50670676,6.751 9.50670676,8.876 L9.50670676,18.674 L9.27070676,19.598 C9.78670676,23.93 11.2477068,28.364 13.5907068,32.058 C13.6837068,32.071 13.7767068,32.083 13.8707068,32.095 C17.0137068,32.504 20.6677068,32.907 22.7067068,32.876 C23.1367068,32.871 23.4927068,32.846 23.7577068,32.797 C24.0907068,32.736 24.4727068,32.688 24.8947068,32.652 L25.0547068,32.639 C26.3937068,32.54 28.0907068,32.563 29.8167068,32.706 C29.9357068,32.716 30.0557068,32.726 30.1727068,32.739 C30.2647068,32.749 30.3557068,32.756 30.4497068,32.767 L30.5267068,32.774 L30.7957068,32.805 L30.8857068,32.815 C32.8247068,33.034 34.7177068,33.41 36.0997068,33.942 C40.8077068,34.197 52.3857068,34.96 57.7297068,31.398 C57.7297068,30.634 57.3487068,27.326 57.3487068,27.326" id="Fill-543" fill="#EDB220"></path><path d="M7.85270676,25.163 L7.85770676,25.275 L8.10670676,31.27 C8.10670676,31.27 10.5787068,31.663 13.5907068,32.058 C11.2477068,28.364 9.78670676,23.93 9.27070676,19.598 L7.85270676,25.163" id="Fill-544" fill="#FECC3D"></path><path d="M49.2797068,27.175 L49.2047068,27.199 C45.8967068,28.217 36.7357068,27.835 31.6457068,25.926 C26.3177068,23.929 15.1787068,23.613 13.9527068,31.128 C13.9017068,31.449 13.8737068,31.772 13.8707068,32.095 C17.0137068,32.504 20.6677068,32.907 22.7067068,32.876 C23.4777068,32.767 24.2287068,32.703 24.8947068,32.652 L25.0547068,32.639 L25.2007068,32.629 C26.7297068,32.517 28.2817068,32.568 29.8167068,32.706 C29.9357068,32.716 30.0557068,32.726 30.1727068,32.739 C30.2667068,32.746 30.3587068,32.756 30.4497068,32.767 L30.5267068,32.774 L30.7677068,32.8 L30.7957068,32.805 L30.8857068,32.815 C32.6057068,33.034 34.4347068,33.853 36.0997068,33.942 C39.2837068,34.114 45.6077068,34.517 51.0227068,33.66 C51.1817068,31.399 50.6657068,29.143 49.2797068,27.175" id="Fill-545" fill="#355168"></path><path d="M57.3487068,27.326 C57.3487068,27.326 57.2207068,24.781 51.4957068,24.018 C50.6607068,23.908 49.6987068,23.695 48.6557068,23.382 C48.7477068,24.518 49.7477068,25.024 50.7067068,25.248 C51.3887068,25.408 51.4787068,26.342 50.8347068,26.615 C50.4247068,26.79 49.9147068,26.978 49.2797068,27.175 C50.6657068,29.143 51.1817068,31.399 51.0227068,33.66 C53.6157068,33.249 55.9997068,32.551 57.7297068,31.398 C57.7297068,30.634 57.3487068,27.326 57.3487068,27.326" id="Fill-546" fill="#203342"></path><path d="M37.2447068,17.575 C33.7927068,19.468 30.0407068,20.981 26.1227068,21.531 C23.5997068,21.885 16.9147068,22.521 16.5837068,18.67 C16.2887068,15.218 24.3507068,15.917 26.8107068,11.676 L24.7757068,5.314 C24.7757068,5.314 23.2487068,5.441 17.0137068,7.477 C13.4817068,8.68 10.9697068,12.101 9.50670676,14.701 L9.50670676,8.876 C9.50670676,6.751 11.3667068,5.217 12.9647068,4.067 C16.4487068,1.563 22.3297068,-0.132 26.3857068,1.845 C27.9817068,2.624 28.8797068,3.733 29.4887068,5.021 C29.7117068,5.492 29.8957068,5.988 30.0607068,6.497 C30.3357068,7.342 30.5567068,8.227 30.8167068,9.121 C30.9157068,9.462 31.0197068,9.805 31.1377068,10.149 C31.1807068,10.273 31.2237068,10.396 31.2717068,10.52 C31.6157068,11.406 32.1067068,12.274 32.7147068,13.113 C33.0047068,13.515 33.3207068,13.912 33.6587068,14.299 C34.2037068,14.92 34.8067068,15.523 35.4527068,16.106 C35.8297068,16.442 36.2187068,16.773 36.6207068,17.091 C36.8247068,17.254 37.0337068,17.417 37.2447068,17.575" id="Fill-547" fill="#355168"></path><path d="M58.6207068,33.815 L55.6937068,35.215 L55.1857068,34.451 L53.1497068,34.833 L53.2767068,35.978 L49.9687068,36.742 L49.8407068,35.851 L46.6607068,36.36 L46.6607068,37.378 L43.4797068,37.505 L43.4797068,36.742 L40.9347068,36.742 L40.2987068,37.378 L37.1177068,37.378 L36.7357068,36.487 L35.2087068,36.105 L34.8267068,36.869 L33.0457068,36.105 L33.0457068,35.596 L29.3557068,34.96 L28.8467068,35.469 L26.3017068,35.469 L26.3017068,34.833 L23.6297068,35.724 L22.8667068,37.632 L20.9577068,37.632 L20.9577068,36.869 L19.4317068,36.869 L19.4317068,37.76 L16.3777068,37.76 L16.3777068,36.742 L14.7237068,36.742 L14.7237068,37.76 L10.9067068,37.76 L10.9067068,36.614 L9.50670676,36.233 L8.87070676,36.869 L7.08870676,35.088 L7.20070676,33.937 L7.39670676,31.896 L7.41270676,31.746 C7.44570676,31.405 7.73570676,31.151 8.07670676,31.161 C10.9447068,31.25 23.4517068,31.693 33.3007068,32.924 C45.3877068,35.978 58.2387068,30.507 58.2387068,30.507 L58.4707068,32.51 L58.6207068,33.815" id="Fill-548" fill="#939598"></path><path d="M30.2317068,6.962 C30.0507068,6.962 29.8697068,6.944 29.6887068,6.903 C28.9627068,6.735 28.2657068,6.055 28.4037068,5.247 C28.5157068,4.594 29.1217068,4.192 29.6727068,4.082 C30.2057068,3.977 30.7407068,4.08 31.2887068,4.204 C31.4247068,4.236 31.5107068,4.372 31.4797068,4.509 C31.4487068,4.646 31.3127068,4.732 31.1757068,4.701 C30.6647068,4.585 30.2067068,4.495 29.7717068,4.582 C29.4037068,4.655 28.9757068,4.921 28.9057068,5.333 C28.8207068,5.824 29.3107068,6.293 29.8037068,6.407 C30.3807068,6.54 31.0127068,6.359 31.5707068,6.2 C31.7057068,6.161 31.8467068,6.24 31.8847068,6.375 C31.9237068,6.51 31.8457068,6.651 31.7097068,6.69 C31.2737068,6.814 30.7577068,6.962 30.2317068,6.962" id="Fill-549" fill="#F15A29"></path><path d="M31.0287068,11.513 L30.9297068,11.51 C30.3507068,11.484 29.6477068,11.145 29.4707068,10.466 C29.3087068,9.839 29.6837068,9.228 30.1277068,8.901 C30.5777068,8.57 31.1237068,8.436 31.6067068,8.319 C31.7417068,8.286 31.8807068,8.37 31.9137068,8.506 C31.9467068,8.643 31.8637068,8.78 31.7267068,8.814 C31.2697068,8.925 30.7967068,9.04 30.4297068,9.311 C30.1337068,9.529 29.8617068,9.943 29.9637068,10.338 C30.0707068,10.749 30.5417068,10.983 30.9527068,11.002 C31.4467068,11.025 31.9457068,10.823 32.3857068,10.644 C32.5167068,10.591 32.6647068,10.654 32.7167068,10.784 C32.7697068,10.915 32.7067068,11.063 32.5767068,11.116 C32.1377068,11.294 31.5977068,11.513 31.0287068,11.513" id="Fill-550" fill="#F15A29"></path><path d="M32.9047068,15.391 C32.6117068,15.391 32.3207068,15.324 32.0617068,15.185 C31.3707068,14.813 30.9787068,13.954 31.1497068,13.187 C31.3207068,12.421 32.0407068,11.81 32.8247068,11.767 C32.9637068,11.76 33.0847068,11.867 33.0927068,12.007 C33.1007068,12.147 32.9927068,12.267 32.8527068,12.275 C32.2877068,12.307 31.7697068,12.746 31.6467068,13.298 C31.5227068,13.85 31.8057068,14.469 32.3037068,14.737 C32.8017068,15.006 33.4737068,14.901 33.8667068,14.495 C33.9647068,14.394 34.1257068,14.391 34.2267068,14.489 C34.3277068,14.587 34.3297068,14.748 34.2327068,14.849 C33.8907068,15.202 33.3967068,15.391 32.9047068,15.391" id="Fill-551" fill="#F15A29"></path><path d="M35.5747068,18.499 L35.4597068,18.494 C34.8507068,18.438 34.3237068,17.94 34.2337068,17.335 C34.1437068,16.73 34.5037068,16.1 35.0707068,15.87 C35.2007068,15.817 35.3497068,15.881 35.4017068,16.011 C35.4547068,16.141 35.3927068,16.289 35.2617068,16.342 C34.9127068,16.484 34.6817068,16.887 34.7377068,17.26 C34.7927068,17.633 35.1297068,17.953 35.5057068,17.987 C35.8817068,18.022 36.2717068,17.768 36.3927068,17.411 C36.4387068,17.279 36.5837068,17.208 36.7167068,17.253 C36.8497068,17.299 36.9207068,17.443 36.8747068,17.576 C36.6897068,18.118 36.1437068,18.499 35.5747068,18.499" id="Fill-552" fill="#F15A29"></path><path d="M39.2767068,21.247 L39.1857068,21.245 C38.4447068,21.201 37.8087068,20.613 37.7367068,19.906 C37.6997068,19.537 37.8307068,19.155 38.0957068,18.86 C38.3437068,18.583 38.6827068,18.423 39.0227068,18.421 L39.0247068,18.421 C39.1647068,18.421 39.2787068,18.534 39.2787068,18.674 C39.2797068,18.814 39.1667068,18.929 39.0267068,18.93 C38.8287068,18.931 38.6277068,19.03 38.4737068,19.2 C38.3067068,19.387 38.2207068,19.631 38.2427068,19.855 C38.2887068,20.305 38.7337068,20.708 39.2147068,20.736 C39.6887068,20.767 40.1857068,20.462 40.4187068,20.002 C40.4827068,19.877 40.6357068,19.826 40.7607068,19.89 C40.8857068,19.954 40.9367068,20.107 40.8727068,20.232 C40.5607068,20.848 39.9277068,21.247 39.2767068,21.247" id="Fill-553" fill="#F15A29"></path><path d="M43.1617068,22.124 C42.8887068,22.124 42.6147068,22.046 42.3837068,21.889 C41.8837068,21.547 41.6587068,20.883 41.8477068,20.308 C41.8917068,20.175 42.0357068,20.102 42.1697068,20.146 C42.3027068,20.19 42.3757068,20.334 42.3317068,20.468 C42.2137068,20.826 42.3587068,21.256 42.6707068,21.468 C42.9817068,21.68 43.4347068,21.659 43.7257068,21.419 C43.8337068,21.329 43.9937068,21.344 44.0837068,21.453 C44.1737068,21.561 44.1587068,21.721 44.0497068,21.811 C43.7997068,22.019 43.4807068,22.124 43.1617068,22.124" id="Fill-554" fill="#F15A29"></path><path d="M46.9127068,23.52 C46.0237068,23.52 45.6237068,22.727 45.3627068,22.208 C45.2997068,22.083 45.3497068,21.93 45.4747068,21.866 C45.6007068,21.803 45.7537068,21.853 45.8167068,21.979 C46.2257068,22.789 46.5677068,23.287 47.5657068,22.849 C47.6947068,22.792 47.8447068,22.851 47.9017068,22.98 C47.9577068,23.109 47.8997068,23.259 47.7707068,23.315 C47.4427068,23.459 47.1587068,23.52 46.9127068,23.52" id="Fill-555" fill="#F15A29"></path><path d="M29.0177068,6.497 L27.1847068,6.497 L27.1847068,5.021 L29.0117068,5.021 C29.3097068,5.021 29.5767068,5.202 29.6907068,5.478 L29.6967068,5.492 C29.8927068,5.971 29.5347068,6.497 29.0177068,6.497" id="Fill-556" fill="#203342"></path><path d="M31.1387068,10.153 C31.2087068,10.354 31.0977068,10.573 30.8937068,10.634 L29.4397068,11.07 L28.2337068,11.431 L27.8107068,10.019 L29.0177068,9.658 L30.4597068,9.227 C30.6567068,9.168 30.8627068,9.28 30.9227068,9.477 C30.9897068,9.701 31.0607068,9.925 31.1377068,10.149 L31.1387068,10.153" id="Fill-557" fill="#203342"></path><path d="M33.0697068,13.587 C33.3597068,13.958 33.2387068,14.499 32.8137068,14.701 L31.7807068,15.192 L30.6437068,15.732 L30.0097068,14.398 L31.1477068,13.859 L32.1757068,13.37 C32.4827068,13.224 32.8517068,13.307 33.0607068,13.575 L33.0697068,13.587" id="Fill-558" fill="#203342"></path><path d="M35.8797068,16.479 C36.2457068,16.793 36.2187068,17.366 35.8217068,17.638 L34.9777068,18.216 L33.9367068,18.928 L33.1047068,17.712 L34.1397068,17.002 L34.9867068,16.424 C35.2577068,16.239 35.6197068,16.256 35.8687068,16.47 L35.8797068,16.479" id="Fill-559" fill="#203342"></path><path d="M39.3297068,19.166 C39.7937068,19.387 39.8947068,20.001 39.5207068,20.352 L37.8327068,21.939 L36.8217068,20.865 L37.7387068,20.005 L38.5147068,19.284 C38.7317068,19.083 39.0497068,19.031 39.3157068,19.159 L39.3297068,19.166" id="Fill-560" fill="#203342"></path><path d="M42.9107068,21.068 C43.2887068,21.258 43.4227068,21.732 43.2047068,22.095 L43.1207068,22.234 L42.4717068,23.31 L41.2097068,22.549 L41.8587068,21.47 L41.9417068,21.333 C42.1397068,21.006 42.5557068,20.89 42.8977068,21.062 L42.9107068,21.068" id="Fill-561" fill="#203342"></path><path d="M47.2147068,22.913 L47.1437068,23.137 L46.7647068,24.338 L45.3597068,23.893 L45.7387068,22.692 L45.8357068,22.392 C46.3037068,22.58 46.7647068,22.756 47.2147068,22.913" id="Fill-562" fill="#203342"></path><path d="M28.3847068,5.759 C28.3847068,6.364 27.8947068,6.854 27.2897068,6.854 C26.6847068,6.854 26.1937068,6.364 26.1937068,5.759 C26.1937068,5.154 26.6847068,4.664 27.2897068,4.664 C27.8947068,4.664 28.3847068,5.154 28.3847068,5.759" id="Fill-563" fill="#BCBEC0"></path><path d="M29.1727068,10.381 C29.3457068,10.961 29.0167068,11.571 28.4377068,11.744 C27.8577068,11.918 27.2477068,11.589 27.0747068,11.009 C26.9007068,10.43 27.2297068,9.82 27.8097068,9.646 C28.3887068,9.473 28.9997068,9.802 29.1727068,10.381" id="Fill-564" fill="#BCBEC0"></path><path d="M31.4117068,14.55 C31.6707068,15.096 31.4387068,15.749 30.8927068,16.009 C30.3457068,16.268 29.6927068,16.036 29.4337068,15.49 C29.1737068,14.943 29.4067068,14.29 29.9527068,14.031 C30.4987068,13.771 31.1517068,14.003 31.4117068,14.55" id="Fill-565" fill="#BCBEC0"></path><path d="M34.5107068,17.642 C34.8527068,18.141 34.7247068,18.823 34.2257068,19.164 C33.7267068,19.506 33.0447068,19.378 32.7037068,18.879 C32.3617068,18.379 32.4897068,17.698 32.9887068,17.356 C33.4877068,17.015 34.1697068,17.143 34.5107068,17.642" id="Fill-566" fill="#BCBEC0"></path><path d="M38.2027068,20.58 C38.6167068,21.02 38.5957068,21.713 38.1557068,22.128 C37.7147068,22.542 37.0217068,22.521 36.6077068,22.081 C36.1927068,21.64 36.2137068,20.947 36.6547068,20.533 C37.0947068,20.118 37.7877068,20.139 38.2027068,20.58" id="Fill-567" fill="#BCBEC0"></path><path d="M42.4597068,21.902 C42.9777068,22.214 43.1437068,22.887 42.8317068,23.405 C42.5187068,23.923 41.8457068,24.089 41.3277068,23.777 C40.8107068,23.464 40.6437068,22.791 40.9567068,22.273 C41.2687068,21.756 41.9417068,21.589 42.4597068,21.902" id="Fill-568" fill="#BCBEC0"></path><path d="M46.4247068,22.971 C47.0017068,23.153 47.3207068,23.769 47.1377068,24.346 C46.9557068,24.922 46.3397068,25.242 45.7637068,25.059 C45.1867068,24.876 44.8677068,24.261 45.0497068,23.684 C45.2327068,23.108 45.8487068,22.788 46.4247068,22.971" id="Fill-569" fill="#BCBEC0"></path><path d="M58.6207068,33.815 L55.6937068,35.215 L55.1857068,34.451 L53.1497068,34.833 L53.2767068,35.978 L49.9687068,36.742 L49.8407068,35.851 L46.6607068,36.36 L46.6607068,37.378 L43.4797068,37.505 L43.4797068,36.742 L40.9347068,36.742 L40.2987068,37.378 L37.1177068,37.378 L36.7357068,36.487 L35.2087068,36.105 L34.8267068,36.869 L33.0457068,36.105 L33.0457068,35.596 L29.3557068,34.96 L28.8467068,35.469 L26.3017068,35.469 L26.3017068,34.833 L23.6297068,35.724 L22.8667068,37.632 L20.9577068,37.632 L20.9577068,36.869 L19.4317068,36.869 L19.4317068,37.76 L16.3777068,37.76 L16.3777068,36.742 L14.7237068,36.742 L14.7237068,37.76 L10.9067068,37.76 L10.9067068,36.614 L9.50670676,36.233 L8.87070676,36.869 L7.08870676,35.088 L7.20070676,33.937 C9.90870676,34.897 15.4867068,36.52 20.1947068,35.596 C26.6837068,34.324 28.9737068,33.433 34.8267068,34.833 C39.6977068,35.998 51.0017068,35.225 58.4707068,32.51 L58.6207068,33.815" id="Fill-570" fill="#203342"></path><path d="M24.5207068,33.306 C19.8787068,36.736 12.1967068,34.886 7.31270676,32.769 L7.39670676,31.896 C10.2017068,32.591 18.6547068,34.459 24.5207068,33.306" id="Fill-571" fill="#BCBEC0"></path><path d="M13.2397068,20.412 C12.5117068,20.412 11.9247068,19.824 11.9247068,19.099 C11.9247068,18.371 12.5117068,17.783 13.2397068,17.783 C13.9647068,17.783 14.5527068,18.371 14.5527068,19.099 C14.5527068,19.824 13.9647068,20.412 13.2397068,20.412 M13.2397068,16.936 C12.0437068,16.936 11.0767068,17.903 11.0767068,19.099 C11.0767068,20.292 12.0437068,21.262 13.2397068,21.262 C14.4337068,21.262 15.4027068,20.292 15.4027068,19.099 C15.4027068,17.903 14.4337068,16.936 13.2397068,16.936" id="Fill-572" fill="#F15A29"></path><path d="M7.08870676,35.088 C7.24170676,33.516 7.29670676,32.555 7.38970676,31.977 L7.31270676,32.769 L7.20070676,33.937 L7.08870676,35.088 M58.6207068,33.815 L58.4707068,32.51 L58.3637068,31.588 C58.4937068,32.713 58.4677068,32.488 58.6207068,33.815 M7.56070676,31.392 C7.66470676,31.218 7.81170676,31.162 8.04070676,31.161 C7.84970676,31.165 7.67670676,31.253 7.56070676,31.392 M8.10270676,31.162 C8.09670676,31.162 8.08970676,31.161 8.08370676,31.161 C8.09070676,31.161 8.09670676,31.161 8.10270676,31.162 C8.10070676,31.106 8.07570676,30.518 8.04270676,29.73 L8.10270676,31.162 M57.6937068,30.724 L57.6937068,30.724 C58.0477068,30.588 58.2387068,30.507 58.2387068,30.507 C58.2337068,30.509 58.0447068,30.589 57.6937068,30.724 M7.96370676,27.82 C7.90770676,26.486 7.85670676,25.243 7.85270676,25.163 L7.85770676,25.275 L7.96370676,27.82 M7.85270676,25.163 C8.62570676,22.131 8.95770676,20.827 9.12770676,20.16 L7.85270676,25.163 M51.3007068,23.991 C50.7957068,23.916 50.2477068,23.806 49.6647068,23.66 C50.2127068,23.797 50.7647068,23.912 51.3007068,23.991 M48.2657068,23.264 C48.1487068,23.228 48.0317068,23.191 47.9127068,23.152 C48.0287068,23.19 48.1467068,23.227 48.2657068,23.264 M47.9017068,22.98 C47.8627068,22.892 47.7797068,22.836 47.6907068,22.828 C47.6947068,22.828 47.6987068,22.828 47.7027068,22.828 C47.7837068,22.828 47.8517068,22.866 47.9017068,22.98 M47.3077068,22.946 C47.2767068,22.935 47.2457068,22.924 47.2147068,22.913 C46.8527068,22.786 46.4847068,22.648 46.1107068,22.501 C46.0117068,22.353 45.9187068,22.18 45.8217068,21.988 C45.9177068,22.179 46.0107068,22.351 46.1097068,22.499 C46.7717068,22.759 47.0127068,22.841 47.3067068,22.945 C47.3807068,22.922 47.4507068,22.894 47.5157068,22.871 C47.4427068,22.901 47.3737068,22.926 47.3077068,22.946 M45.3557068,22.195 C44.9537068,22.026 44.5477068,21.847 44.1387068,21.659 C44.1387068,21.658 44.1387068,21.656 44.1387068,21.655 C44.5477068,21.842 44.9527068,22.02 45.3537068,22.188 C45.3547068,22.19 45.3557068,22.192 45.3557068,22.195 M45.3357068,22.084 C45.3357068,22.022 45.3597068,21.967 45.3987068,21.926 C45.3597068,21.97 45.3377068,22.026 45.3357068,22.084 M45.8167068,21.979 C45.7727068,21.89 45.6827068,21.839 45.5897068,21.839 C45.5857068,21.839 45.5817068,21.839 45.5777068,21.839 C45.5847068,21.839 45.5917068,21.838 45.5977068,21.838 C45.6827068,21.838 45.7677068,21.88 45.8167068,21.979 M44.1277068,21.53 C44.1177068,21.502 44.1037068,21.476 44.0837068,21.453 C44.0487068,21.411 44.0037068,21.383 43.9557068,21.37 C44.0407068,21.388 44.1027068,21.45 44.1277068,21.53 M43.6867068,21.449 C43.6627068,21.437 43.6387068,21.426 43.6137068,21.414 C43.3927068,21.308 43.1697068,21.198 42.9477068,21.087 C43.1977068,21.212 43.4697068,21.345 43.6847068,21.447 C43.6967068,21.438 43.7087068,21.43 43.7207068,21.423 C43.7097068,21.432 43.6977068,21.441 43.6867068,21.449 M42.2917068,20.752 C42.2907068,20.752 42.2907068,20.751 42.2907068,20.751 C42.2887068,20.675 42.2967068,20.599 42.3147068,20.525 C42.3017068,20.594 42.2887068,20.67 42.2917068,20.752 M41.8017068,20.49 C41.4797068,20.315 41.1577068,20.134 40.8377068,19.95 C40.8357068,19.947 40.8337068,19.945 40.8317068,19.943 C41.1217068,20.11 41.4437068,20.291 41.8027068,20.486 C41.8027068,20.487 41.8027068,20.489 41.8017068,20.49 M42.3397068,20.339 C42.3217068,20.252 42.2597068,20.176 42.1697068,20.146 C42.2987068,20.189 42.3367068,20.254 42.3397068,20.339 M40.7037068,19.869 C40.7017068,19.869 40.6987068,19.868 40.6957068,19.868 C40.5607068,19.788 40.4257068,19.709 40.2907068,19.628 C39.9017068,19.394 39.5147068,19.153 39.1347068,18.905 C39.1367068,18.904 39.1377068,18.904 39.1387068,18.903 C39.5057068,19.143 40.0047068,19.463 40.7037068,19.869 M9.40970676,19.055 C9.06570676,18.193 8.61870676,17.37 8.06770676,16.616 C8.61770676,17.369 9.06770676,18.188 9.41170676,19.048 L9.40970676,19.055 M39.2177068,18.841 C39.2567068,18.796 39.2797068,18.737 39.2787068,18.674 C39.2787068,18.594 39.2417068,18.524 39.1847068,18.477 C39.3147068,18.564 39.3167068,18.734 39.2177068,18.841 M38.5607068,18.521 C38.1127068,18.215 37.6727068,17.899 37.2447068,17.574 C37.1117068,17.475 36.9807068,17.374 36.8507068,17.273 C37.4107068,17.709 37.9837068,18.122 38.5657068,18.519 C38.5637068,18.52 38.5627068,18.52 38.5607068,18.521 M38.7857068,18.448 C38.8517068,18.432 38.9117068,18.424 38.9647068,18.423 C38.9047068,18.427 38.8447068,18.435 38.7857068,18.448 M8.05370676,16.596 C8.04970676,16.591 8.04470676,16.585 8.04070676,16.579 C7.91170676,16.404 7.77670676,16.231 7.64170676,16.058 C7.20470676,15.499 6.75370676,14.921 6.46170676,14.227 C6.08570676,13.332 6.09670676,12.509 6.36870676,11.86 C6.04970676,12.653 6.18570676,13.57 6.46170676,14.227 C6.75370676,14.921 7.20470676,15.499 7.64170676,16.058 C7.77670676,16.231 7.91170676,16.404 8.04070676,16.579 C8.04470676,16.585 8.04970676,16.591 8.05370676,16.596 M35.6307068,16.263 C35.5707068,16.211 35.5117068,16.158 35.4527068,16.106 C35.4417068,16.096 35.4307068,16.086 35.4187068,16.075 C35.4187068,16.075 35.4187068,16.075 35.4187068,16.074 C35.4887068,16.138 35.5597068,16.2 35.6307068,16.263 M35.1787068,15.852 C35.1777068,15.852 35.1767068,15.852 35.1757068,15.852 C34.9697068,15.661 34.7687068,15.467 34.5727068,15.272 C34.4767068,15.099 34.3827068,14.926 34.2917068,14.752 C34.2917068,14.749 34.2927068,14.747 34.2937068,14.744 C34.3857068,14.92 34.4757068,15.096 34.5727068,15.27 C34.7687068,15.466 34.9717068,15.66 35.1787068,15.852 M8.44370676,15.431 C8.02970676,14.902 7.63870676,14.401 7.40070676,13.833 C7.13470676,13.199 7.08470676,12.336 7.57570676,11.837 C7.58170676,11.831 7.58770676,11.825 7.59370676,11.819 C7.02570676,12.371 6.99170676,13.572 8.44370676,15.431 M34.1277068,14.43 C34.1267068,14.429 34.1247068,14.429 34.1237068,14.429 C33.7347068,13.667 33.3847068,12.897 33.0687068,12.129 C33.0697068,12.128 33.0697068,12.127 33.0707068,12.126 C33.3867068,12.895 33.7377068,13.666 34.1277068,14.43 M32.9347068,11.786 C32.9327068,11.785 32.9317068,11.785 32.9297068,11.784 C32.8347068,11.545 32.7427068,11.305 32.6537068,11.067 C32.6547068,11.066 32.6557068,11.065 32.6567068,11.065 C32.7457068,11.305 32.8387068,11.545 32.9347068,11.786 M9.50670676,11.747 C9.28270676,11.611 9.04070676,11.525 8.80070676,11.488 C9.00670676,11.517 9.21270676,11.581 9.40370676,11.683 C9.43870676,11.701 9.47270676,11.721 9.50670676,11.741 L9.50670676,11.747 M7.29170676,10.782 C7.64970676,10.566 8.07270676,10.445 8.53070676,10.445 C8.75570676,10.445 8.98970676,10.474 9.22770676,10.535 C9.00570676,10.481 8.78070676,10.454 8.55870676,10.454 C8.10470676,10.454 7.66370676,10.566 7.29170676,10.782 M32.4967068,10.626 C32.4957068,10.626 32.4937068,10.626 32.4927068,10.626 C32.2637068,9.981 32.0567068,9.343 31.8717068,8.717 C31.8727068,8.717 31.8727068,8.716 31.8737068,8.715 C32.0587068,9.341 32.2657068,9.98 32.4967068,10.626 M9.50670676,10.619 L9.50670676,10.619 C9.50670676,9.988 9.47870676,9.43 9.50670676,8.9 L9.50670676,10.619 M31.7607068,8.33 C31.7597068,8.33 31.7597068,8.329 31.7587068,8.329 C31.6087068,7.805 31.4747068,7.29 31.3527068,6.789 C31.3527068,6.789 31.3537068,6.789 31.3547068,6.789 C31.4757068,7.29 31.6107068,7.804 31.7607068,8.33 M9.82570676,7.382 C10.0197068,6.918 10.3227068,6.443 10.7947068,5.923 C10.3957068,6.368 10.0567068,6.853 9.82570676,7.382 M31.3977068,6.777 C31.4907068,6.752 31.5817068,6.726 31.6687068,6.701 C31.5877068,6.731 31.4927068,6.753 31.3977068,6.777 M31.8347068,6.609 C31.8877068,6.546 31.9087068,6.46 31.8847068,6.375 C31.9157068,6.481 31.8917068,6.555 31.8347068,6.609 M31.8847068,6.375 C31.8597068,6.288 31.7937068,6.225 31.7127068,6.201 C31.7917068,6.215 31.8527068,6.264 31.8847068,6.375 M31.2357068,6.294 C31.1037068,5.719 30.9887068,5.166 30.8897068,4.639 C30.9827068,4.658 31.0787068,4.679 31.1757068,4.701 C31.1947068,4.705 31.2137068,4.707 31.2327068,4.707 C31.3147068,4.707 31.3917068,4.667 31.4387068,4.601 C31.3967068,4.664 31.3287068,4.709 31.2407068,4.709 C31.2197068,4.709 31.1987068,4.706 31.1757068,4.701 C31.0787068,4.679 30.9847068,4.659 30.8917068,4.64 C30.9907068,5.167 31.1057068,5.719 31.2377068,6.292 C31.3357068,6.266 31.4337068,6.233 31.5227068,6.214 C31.4287068,6.24 31.3327068,6.268 31.2357068,6.294 M31.4827068,4.408 C31.4647068,4.31 31.3907068,4.228 31.2887068,4.204 C31.4087068,4.232 31.4697068,4.316 31.4827068,4.408 M30.7927068,4.102 L30.7917068,4.102 C30.7037068,3.597 30.6287068,3.12 30.5667068,2.677 C30.3457068,1.111 29.0017068,-1.77635684e-14 27.4847068,-1.77635684e-14 C27.2677068,-1.77635684e-14 27.0457068,0.023 26.8237068,0.071 C27.0457068,0.023 27.2677068,-1.77635684e-14 27.4857068,-1.77635684e-14 C29.0017068,-1.77635684e-14 30.3457068,1.111 30.5667068,2.677 C30.6287068,3.119 30.7037068,3.597 30.7927068,4.102 M22.5857068,0.984 L22.5857068,0.984 L26.8237068,0.071 L22.5857068,0.984" id="Fill-573" fill="#D3C7BA"></path><path d="M9.41170676,19.048 C9.06770676,18.188 8.61770676,17.369 8.06770676,16.616 C8.06770676,16.616 8.06770676,16.615 8.06670676,16.615 C8.06370676,16.61 8.05970676,16.605 8.05570676,16.6 C8.05470676,16.599 8.05470676,16.598 8.05370676,16.596 C8.04970676,16.591 8.04470676,16.585 8.04070676,16.579 C7.91170676,16.404 7.77670676,16.231 7.64170676,16.058 C7.20470676,15.499 6.75370676,14.921 6.46170676,14.227 C6.18570676,13.57 6.04970676,12.653 6.36870676,11.86 C6.56070676,11.401 6.88370676,11.029 7.29170676,10.782 C7.66370676,10.566 8.10470676,10.454 8.55870676,10.454 C8.78070676,10.454 9.00570676,10.481 9.22770676,10.535 C9.31970676,10.559 9.41270676,10.587 9.50670676,10.621 L9.50670676,11.741 C9.47270676,11.721 9.43870676,11.701 9.40370676,11.683 C9.21270676,11.581 9.00670676,11.517 8.80070676,11.488 C8.71170676,11.475 8.62270676,11.468 8.53470676,11.468 C8.17370676,11.468 7.83470676,11.585 7.59370676,11.819 C7.58770676,11.825 7.58170676,11.831 7.57570676,11.837 C7.08470676,12.336 7.13470676,13.199 7.40070676,13.833 C7.63870676,14.401 8.02970676,14.902 8.44370676,15.431 C8.58470676,15.612 8.72570676,15.792 8.86070676,15.975 C9.09370676,16.291 9.30670676,16.62 9.50670676,16.956 L9.50670676,18.674 L9.41170676,19.048" id="Fill-574" fill="#2C3F4C"></path><path d="M34.5727068,15.272 C34.4447068,15.144 34.3187068,15.015 34.1957068,14.886 C34.2077068,14.874 34.2207068,14.861 34.2327068,14.849 C34.2597068,14.82 34.2797068,14.787 34.2917068,14.752 C34.3827068,14.926 34.4767068,15.099 34.5727068,15.272 M33.8497068,14.513 C33.7847068,14.442 33.7217068,14.371 33.6587068,14.299 C33.3207068,13.912 33.0047068,13.515 32.7147068,13.113 C32.5587068,12.897 32.4097068,12.679 32.2687068,12.459 C32.4457068,12.353 32.6467068,12.287 32.8527068,12.275 C32.9497068,12.27 33.0307068,12.211 33.0687068,12.129 C33.3847068,12.897 33.7347068,13.667 34.1237068,14.429 C34.0997068,14.421 34.0747068,14.418 34.0497068,14.418 C33.9827068,14.418 33.9167068,14.443 33.8667068,14.495 C33.8607068,14.501 33.8557068,14.507 33.8497068,14.513 M32.0047068,12.027 C31.8887068,11.829 31.7797068,11.629 31.6777068,11.428 C32.0047068,11.348 32.3097068,11.224 32.5767068,11.116 C32.6057068,11.104 32.6317068,11.087 32.6537068,11.067 C32.7427068,11.305 32.8347068,11.545 32.9297068,11.784 C32.9007068,11.773 32.8687068,11.767 32.8367068,11.767 C32.8327068,11.767 32.8287068,11.767 32.8247068,11.767 C32.5347068,11.783 32.2527068,11.877 32.0047068,12.027 M31.4547068,10.958 C31.3897068,10.812 31.3287068,10.667 31.2717068,10.52 C31.2237068,10.396 31.1807068,10.273 31.1377068,10.149 C31.1347068,10.141 31.1317068,10.132 31.1287068,10.124 C31.1267068,10.118 31.1247068,10.113 31.1227068,10.107 C31.1227068,10.107 31.1227068,10.106 31.1227068,10.105 C31.0517068,9.896 30.9857068,9.686 30.9227068,9.477 C30.9217068,9.475 30.9207068,9.472 30.9197068,9.47 C30.8847068,9.353 30.8507068,9.237 30.8167068,9.121 C30.8137068,9.112 30.8117068,9.103 30.8087068,9.094 C31.0967068,8.967 31.4157068,8.889 31.7267068,8.814 C31.7877068,8.799 31.8377068,8.764 31.8717068,8.717 C32.0567068,9.343 32.2637068,9.981 32.4927068,10.626 C32.4897068,10.625 32.4857068,10.625 32.4817068,10.625 C32.4497068,10.625 32.4167068,10.631 32.3857068,10.644 C32.0947068,10.762 31.7777068,10.891 31.4547068,10.958 M30.6687068,8.601 C30.5137068,8.046 30.3667068,7.497 30.2057068,6.961 C30.2147068,6.961 30.2227068,6.962 30.2317068,6.962 C30.6207068,6.962 31.0037068,6.881 31.3527068,6.789 C31.4747068,7.29 31.6087068,7.805 31.7587068,8.329 C31.7297068,8.318 31.6987068,8.312 31.6667068,8.312 C31.6467068,8.312 31.6267068,8.314 31.6067068,8.319 C31.3057068,8.392 30.9807068,8.471 30.6687068,8.601 M30.2347068,6.453 C30.1707068,6.453 30.1067068,6.45 30.0437068,6.445 C29.9377068,6.121 29.8237068,5.802 29.6967068,5.493 C29.6967068,5.492 29.6967068,5.492 29.6967068,5.492 L29.6907068,5.478 C29.6897068,5.477 29.6897068,5.476 29.6897068,5.476 C29.6257068,5.322 29.5587068,5.17 29.4887068,5.021 C29.4447068,4.928 29.3987068,4.836 29.3517068,4.745 C29.4857068,4.664 29.6327068,4.609 29.7717068,4.582 C29.8927068,4.558 30.0157068,4.547 30.1417068,4.547 C30.3807068,4.547 30.6287068,4.585 30.8897068,4.639 C30.9887068,5.166 31.1037068,5.719 31.2357068,6.294 C30.9097068,6.38 30.5687068,6.453 30.2347068,6.453 M29.1027068,4.3 C28.5087068,3.319 27.6747068,2.474 26.3857068,1.845 C26.3737068,1.839 26.3627068,1.834 26.3507068,1.828 C25.2077068,1.278 23.9217068,1.018 22.5857068,0.984 L26.8237068,0.071 C27.0457068,0.023 27.2677068,2.30926389e-14 27.4847068,2.30926389e-14 C29.0017068,2.30926389e-14 30.3457068,1.111 30.5667068,2.677 C30.6287068,3.12 30.7037068,3.597 30.7917068,4.102 C30.5727068,4.064 30.3557068,4.039 30.1387068,4.039 C29.9827068,4.039 29.8277068,4.052 29.6727068,4.082 C29.4817068,4.12 29.2837068,4.193 29.1027068,4.3" id="Fill-575" fill="#1A2830"></path><path d="M13.9157068,31.394 C13.6597068,31.382 13.4077068,31.37 13.1627068,31.359 C11.0687068,27.811 9.75470676,23.66 9.27070676,19.598 C9.31770676,19.415 9.34870676,19.293 9.40970676,19.055 L9.41170676,19.048 L9.50670676,18.674 L9.50670676,16.956 C9.50670676,15.791 9.50670676,15.187 9.50670676,14.701 C10.9697068,12.101 13.4817068,8.68 17.0137068,7.477 C23.2487068,5.441 24.7757068,5.314 24.7757068,5.314 L26.8107068,11.676 C24.3507068,15.917 16.2887068,15.218 16.5837068,18.67 C16.8027068,21.22 19.8077068,21.803 22.5457068,21.803 C23.9427068,21.803 25.2697068,21.651 26.1227068,21.531 C28.7047068,21.169 31.2147068,20.388 33.6147068,19.356 C33.8257068,19.354 34.0387068,19.292 34.2257068,19.164 C34.2957068,19.116 34.3597068,19.061 34.4147068,19 C34.7717068,18.837 35.1267068,18.668 35.4787068,18.495 L35.5747068,18.499 C36.0447068,18.499 36.4987068,18.239 36.7467068,17.844 C36.9137068,17.755 37.0787068,17.665 37.2447068,17.575 C37.1107068,17.474 36.9777068,17.372 36.8457068,17.269 C36.8477068,17.27 36.8487068,17.271 36.8507068,17.273 C36.9807068,17.374 37.1117068,17.475 37.2447068,17.574 C37.6727068,17.899 38.1127068,18.215 38.5607068,18.521 C38.3887068,18.596 38.2297068,18.711 38.0957068,18.86 C37.8307068,19.155 37.6997068,19.537 37.7367068,19.906 C37.7397068,19.936 37.7437068,19.965 37.7487068,19.995 L37.7387068,20.005 L37.4897068,20.238 C37.4607068,20.236 37.4327068,20.235 37.4047068,20.235 C37.1357068,20.235 36.8657068,20.334 36.6547068,20.533 C36.2137068,20.947 36.1927068,21.64 36.6077068,22.081 C36.8227068,22.31 37.1137068,22.425 37.4047068,22.425 C37.6737068,22.425 37.9437068,22.327 38.1557068,22.128 C38.3887068,21.908 38.5047068,21.61 38.4997068,21.312 L38.6917068,21.132 C38.8467068,21.195 39.0137068,21.235 39.1857068,21.245 L39.2767068,21.247 C39.9277068,21.247 40.5607068,20.848 40.8727068,20.232 C40.9207068,20.137 40.9037068,20.025 40.8377068,19.95 C41.1577068,20.134 41.4797068,20.315 41.8017068,20.49 C41.7497068,20.784 41.7977068,21.09 41.9277068,21.356 L41.8587068,21.47 L41.6807068,21.765 C41.3897068,21.823 41.1217068,21.999 40.9567068,22.273 C40.6437068,22.791 40.8107068,23.464 41.3277068,23.777 C41.5047068,23.884 41.7007068,23.935 41.8927068,23.935 C42.2637068,23.935 42.6257068,23.746 42.8317068,23.405 C42.9977068,23.131 43.0287068,22.812 42.9437068,22.527 L43.1207068,22.234 L43.1867068,22.124 C43.4977068,22.118 43.8057068,22.013 44.0497068,21.811 C44.0987068,21.771 44.1287068,21.716 44.1387068,21.659 C44.5477068,21.847 44.9537068,22.026 45.3557068,22.195 C45.3577068,22.199 45.3607068,22.204 45.3627068,22.208 C45.4537068,22.39 45.5627068,22.605 45.7027068,22.807 L45.6357068,23.02 C45.3657068,23.145 45.1467068,23.378 45.0497068,23.684 C44.8677068,24.261 45.1867068,24.876 45.7637068,25.059 C45.8737068,25.094 45.9847068,25.11 46.0947068,25.11 C46.5587068,25.11 46.9907068,24.812 47.1377068,24.346 C47.2297068,24.058 47.1957068,23.761 47.0667068,23.512 C47.2757068,23.492 47.5087068,23.43 47.7707068,23.315 C47.8427068,23.283 47.8927068,23.222 47.9127068,23.152 C48.0317068,23.191 48.1487068,23.228 48.2657068,23.264 C48.3937068,23.305 48.5247068,23.345 48.6557068,23.383 C48.7487068,24.518 49.7487068,25.025 50.7067068,25.248 C51.3887068,25.408 51.4787068,26.342 50.8347068,26.615 C50.4247068,26.79 49.9147068,26.978 49.2797068,27.175 L49.2047068,27.199 C48.0217068,27.563 46.0877068,27.748 43.8607068,27.748 C39.8617068,27.748 34.9147068,27.152 31.6457068,25.926 C29.7347068,25.21 27.0757068,24.71 24.3957068,24.71 C19.6017068,24.71 14.7387068,26.308 13.9527068,31.128 C13.9387068,31.216 13.9257068,31.305 13.9157068,31.394 M13.2397068,16.936 C12.0437068,16.936 11.0767068,17.903 11.0767068,19.099 C11.0767068,20.292 12.0437068,21.262 13.2397068,21.262 C14.4337068,21.262 15.4027068,20.292 15.4027068,19.099 C15.4027068,17.903 14.4337068,16.936 13.2397068,16.936 M47.1947068,22.977 L47.2147068,22.913 C46.8527068,22.786 46.4847068,22.648 46.1107068,22.501 C46.4847068,22.648 46.8527068,22.786 47.2147068,22.913 C47.2457068,22.924 47.2767068,22.935 47.3077068,22.946 C47.2697068,22.958 47.2317068,22.968 47.1947068,22.977 M43.3007068,21.604 C43.2657068,21.383 43.1317068,21.181 42.9167068,21.071 C42.9267068,21.076 42.9367068,21.081 42.9477068,21.087 C43.1697068,21.198 43.3927068,21.308 43.6137068,21.414 C43.6387068,21.426 43.6627068,21.437 43.6867068,21.449 C43.5737068,21.531 43.4397068,21.583 43.3007068,21.604 M42.8907068,21.058 C42.7867068,21.007 42.6747068,20.983 42.5657068,20.983 C42.4877068,20.983 42.4117068,20.995 42.3387068,21.019 C42.3097068,20.932 42.2937068,20.842 42.2907068,20.751 C42.2907068,20.751 42.2907068,20.752 42.2917068,20.752 C42.3927068,20.806 42.6257068,20.925 42.8907068,21.058 M39.2807068,20.738 C39.2587068,20.738 39.2367068,20.738 39.2147068,20.736 C39.1837068,20.735 39.1537068,20.731 39.1227068,20.726 L39.5207068,20.352 C39.8947068,20.001 39.7937068,19.387 39.3297068,19.166 L39.3157068,19.159 C39.2177068,19.112 39.1137068,19.09 39.0087068,19.09 C38.8297068,19.09 38.6517068,19.157 38.5147068,19.284 L38.2977068,19.486 C38.3377068,19.383 38.3977068,19.286 38.4737068,19.2 C38.6277068,19.03 38.8287068,18.931 39.0267068,18.93 C39.0657068,18.93 39.1017068,18.921 39.1347068,18.905 C39.5147068,19.153 39.9017068,19.394 40.2907068,19.628 C40.4257068,19.709 40.5607068,19.788 40.6957068,19.868 C40.6797068,19.864 40.6627068,19.863 40.6467068,19.863 C40.5537068,19.863 40.4637068,19.914 40.4187068,20.002 C40.1967068,20.441 39.7337068,20.738 39.2807068,20.738 M29.1027068,4.3 C28.5087068,3.319 27.6747068,2.474 26.3857068,1.845 C26.3737068,1.839 26.3627068,1.834 26.3507068,1.828 C26.3627068,1.834 26.3737068,1.839 26.3857068,1.845 C27.6747068,2.474 28.5087068,3.319 29.1027068,4.3" id="Fill-576" fill="#C48B17"></path><path d="M13.1627068,31.359 C10.8067068,31.251 9.00170676,31.19 8.10270676,31.162 L8.04270676,29.73 C8.04270676,29.728 8.04270676,29.725 8.04270676,29.723 L8.04270676,29.714 C8.04270676,29.711 8.04170676,29.708 8.04170676,29.705 L8.04170676,29.704 C8.04170676,29.7 8.04170676,29.696 8.04170676,29.692 L8.04170676,29.688 C8.01770676,29.124 7.99070676,28.461 7.96370676,27.82 L7.85770676,25.275 L7.85270676,25.163 L9.12770676,20.16 C9.12770676,20.159 9.12870676,20.158 9.12870676,20.157 L9.13370676,20.136 C9.13370676,20.136 9.13370676,20.136 9.13370676,20.135 L9.13470676,20.132 C9.19770676,19.884 9.23870676,19.726 9.27070676,19.598 C9.75470676,23.66 11.0687068,27.811 13.1627068,31.359" id="Fill-577" fill="#D29F2C"></path><path d="M41.1797068,33.851 C38.6117068,33.851 35.9367068,33.591 33.3007068,32.924 C26.8227068,32.114 19.1947068,31.645 13.9157068,31.394 C13.9257068,31.305 13.9387068,31.216 13.9527068,31.128 C14.7387068,26.308 19.6017068,24.71 24.3957068,24.71 C27.0757068,24.71 29.7347068,25.21 31.6457068,25.926 C34.9147068,27.152 39.8617068,27.748 43.8607068,27.748 C46.0877068,27.748 48.0217068,27.563 49.2047068,27.199 L49.2797068,27.175 C50.4697068,28.864 51.0187068,30.765 51.0497068,32.699 C48.2367068,33.33 44.8137068,33.851 41.1797068,33.851" id="Fill-578" fill="#2C3F4C"></path><path d="M51.0497068,32.699 C51.0187068,30.765 50.4697068,28.864 49.2797068,27.175 C49.9147068,26.978 50.4247068,26.79 50.8347068,26.615 C51.4787068,26.342 51.3887068,25.408 50.7067068,25.248 C49.7487068,25.025 48.7487068,24.518 48.6557068,23.383 C48.9867068,23.482 49.3247068,23.575 49.6647068,23.66 C50.2477068,23.806 50.7957068,23.916 51.3007068,23.991 C51.3017068,23.991 51.3017068,23.991 51.3027068,23.991 C51.3097068,23.992 51.3177068,23.993 51.3257068,23.994 C51.3277068,23.995 51.3297068,23.995 51.3317068,23.995 C51.3387068,23.996 51.3467068,23.997 51.3537068,23.998 C51.3557068,23.999 51.3567068,23.999 51.3577068,23.999 C51.3657068,24 51.3727068,24.001 51.3807068,24.002 C51.3837068,24.003 51.3867068,24.003 51.3897068,24.003 C51.3957068,24.004 51.4007068,24.005 51.4067068,24.006 C51.4097068,24.006 51.4117068,24.006 51.4147068,24.007 C51.4227068,24.008 51.4297068,24.009 51.4377068,24.01 C51.4407068,24.01 51.4427068,24.011 51.4457068,24.011 C51.4517068,24.012 51.4577068,24.013 51.4627068,24.013 C51.4657068,24.014 51.4687068,24.014 51.4707068,24.014 C51.4787068,24.016 51.4867068,24.017 51.4957068,24.018 C57.2207068,24.781 57.3487068,27.326 57.3487068,27.326 L57.3487068,27.327 C57.3487068,27.327 57.3487068,27.327 57.3487068,27.328 L57.3487068,27.329 C57.3487068,27.33 57.3487068,27.33 57.3487068,27.33 C57.3487068,27.331 57.3487068,27.331 57.3487068,27.331 C57.3487068,27.331 57.3487068,27.331 57.3487068,27.332 C57.3487068,27.332 57.3487068,27.332 57.3487068,27.333 C57.3497068,27.336 57.3497068,27.342 57.3507068,27.348 C57.3507068,27.35 57.3517068,27.351 57.3517068,27.353 C57.3517068,27.354 57.3517068,27.355 57.3517068,27.356 C57.3517068,27.357 57.3517068,27.357 57.3517068,27.358 C57.3527068,27.363 57.3527068,27.368 57.3537068,27.373 C57.3537068,27.376 57.3547068,27.379 57.3547068,27.382 C57.3547068,27.383 57.3547068,27.385 57.3547068,27.386 C57.3557068,27.386 57.3557068,27.387 57.3557068,27.388 C57.3557068,27.389 57.3557068,27.391 57.3557068,27.392 C57.3557068,27.393 57.3557068,27.393 57.3557068,27.394 C57.3557068,27.395 57.3557068,27.395 57.3567068,27.396 C57.3567068,27.398 57.3567068,27.4 57.3567068,27.402 C57.3567068,27.402 57.3567068,27.402 57.3567068,27.403 C57.3577068,27.404 57.3577068,27.405 57.3577068,27.406 C57.3577068,27.409 57.3577068,27.412 57.3587068,27.416 C57.3587068,27.42 57.3597068,27.424 57.3597068,27.428 C57.3597068,27.43 57.3607068,27.431 57.3607068,27.433 C57.3637068,27.462 57.3677068,27.495 57.3717068,27.533 C57.3717068,27.534 57.3717068,27.535 57.3727068,27.536 C57.3727068,27.541 57.3737068,27.545 57.3737068,27.55 C57.3737068,27.551 57.3737068,27.551 57.3737068,27.552 C57.3747068,27.554 57.3747068,27.557 57.3747068,27.559 C57.3747068,27.56 57.3747068,27.561 57.3747068,27.562 C57.3757068,27.564 57.3757068,27.566 57.3757068,27.568 C57.3757068,27.568 57.3757068,27.569 57.3757068,27.57 C57.3767068,27.572 57.3767068,27.573 57.3767068,27.575 C57.3767068,27.577 57.3767068,27.579 57.3777068,27.581 C57.4457068,28.19 57.6187068,29.75 57.6937068,30.724 C56.6657068,31.119 54.2537068,31.98 51.0497068,32.699" id="Fill-579" fill="#1A2830"></path><path d="M22.5457068,21.803 C19.8077068,21.803 16.8027068,21.22 16.5837068,18.67 C16.2887068,15.218 24.3507068,15.917 26.8107068,11.676 L24.7757068,5.314 C24.7757068,5.314 23.2487068,5.441 17.0137068,7.477 C13.4817068,8.68 10.9697068,12.101 9.50670676,14.701 C9.50670676,13.962 9.50670676,13.497 9.50670676,11.747 L9.50670676,8.9 C9.53370676,8.381 9.61470676,7.889 9.82570676,7.382 C10.0567068,6.853 10.3957068,6.368 10.7947068,5.923 C11.3007068,5.368 11.9997068,4.762 12.9647068,4.067 C15.3837068,2.328 18.9587068,0.98 22.2757068,0.98 C22.3777068,0.98 22.4807068,0.981 22.5827068,0.984 L22.5857068,0.984 C23.9217068,1.018 25.2077068,1.278 26.3507068,1.828 C26.3627068,1.834 26.3737068,1.839 26.3857068,1.845 C27.6747068,2.474 28.5087068,3.319 29.1027068,4.3 C28.8237068,4.464 28.5837068,4.706 28.4647068,5.021 L28.0987068,5.021 C27.8987068,4.802 27.6097068,4.664 27.2897068,4.664 C26.6847068,4.664 26.1937068,5.154 26.1937068,5.759 C26.1937068,6.364 26.6847068,6.854 27.2897068,6.854 C27.6097068,6.854 27.8987068,6.717 28.0987068,6.497 L28.9017068,6.497 C29.1287068,6.695 29.4067068,6.838 29.6887068,6.903 C29.8607068,6.942 30.0337068,6.96 30.2057068,6.961 C30.3667068,7.497 30.5137068,8.046 30.6687068,8.601 C30.4807068,8.679 30.2967068,8.776 30.1277068,8.901 C29.9317068,9.045 29.7487068,9.245 29.6197068,9.478 L29.0177068,9.658 L28.6877068,9.756 C28.5197068,9.656 28.3247068,9.6 28.1237068,9.6 C28.0197068,9.6 27.9147068,9.615 27.8097068,9.646 C27.2297068,9.82 26.9007068,10.43 27.0747068,11.009 C27.2167068,11.484 27.6517068,11.791 28.1227068,11.791 C28.2267068,11.791 28.3327068,11.776 28.4377068,11.744 C28.7457068,11.652 28.9827068,11.437 29.1107068,11.168 L29.4397068,11.07 L29.7467068,10.978 C30.0507068,11.318 30.5207068,11.492 30.9297068,11.51 L31.0287068,11.513 C31.2507068,11.513 31.4687068,11.479 31.6777068,11.428 C31.7797068,11.629 31.8887068,11.829 32.0047068,12.027 C31.5827068,12.284 31.2567068,12.705 31.1497068,13.187 C31.0997068,13.41 31.0977068,13.64 31.1367068,13.864 L30.8367068,14.006 C30.7057068,13.953 30.5647068,13.924 30.4217068,13.924 C30.2647068,13.924 30.1047068,13.958 29.9527068,14.031 C29.4067068,14.29 29.1737068,14.943 29.4337068,15.49 C29.6207068,15.884 30.0137068,16.115 30.4237068,16.115 C30.5807068,16.115 30.7407068,16.081 30.8927068,16.009 C31.1817068,15.872 31.3827068,15.624 31.4697068,15.34 L31.7807068,15.192 L31.9437068,15.115 C31.9827068,15.14 32.0217068,15.163 32.0617068,15.185 C32.3207068,15.324 32.6117068,15.391 32.9047068,15.391 C33.3787068,15.391 33.8557068,15.216 34.1957068,14.886 C34.5077068,15.213 34.8347068,15.535 35.1757068,15.852 C35.1727068,15.852 35.1697068,15.852 35.1657068,15.852 C35.1347068,15.852 35.1017068,15.858 35.0707068,15.87 C34.6287068,16.05 34.3127068,16.471 34.2377068,16.935 L34.1397068,17.002 L33.8587068,17.195 C33.7757068,17.175 33.6917068,17.165 33.6057068,17.165 C33.3927068,17.165 33.1777068,17.227 32.9887068,17.356 C32.4897068,17.698 32.3617068,18.379 32.7037068,18.879 C32.9157068,19.189 33.2587068,19.356 33.6077068,19.356 C33.6107068,19.356 33.6127068,19.356 33.6147068,19.356 C31.2147068,20.388 28.7047068,21.169 26.1227068,21.531 C25.2697068,21.651 23.9427068,21.803 22.5457068,21.803 M34.4147068,19 C34.5677068,18.834 34.6617068,18.627 34.6917068,18.411 L34.8697068,18.29 C35.0467068,18.402 35.2477068,18.474 35.4597068,18.494 L35.4787068,18.495 C35.1267068,18.668 34.7717068,18.837 34.4147068,19 M35.5767068,17.99 C35.5527068,17.99 35.5297068,17.989 35.5057068,17.987 C35.4547068,17.982 35.4037068,17.972 35.3547068,17.957 L35.8217068,17.638 C36.2117068,17.371 36.2447068,16.814 35.8997068,16.497 C36.2097068,16.762 36.5257068,17.019 36.8457068,17.269 C36.9777068,17.372 37.1107068,17.474 37.2447068,17.575 C37.0787068,17.665 36.9137068,17.755 36.7467068,17.844 C36.7997068,17.76 36.8427068,17.671 36.8747068,17.576 C36.9207068,17.443 36.8497068,17.299 36.7167068,17.253 C36.6887068,17.244 36.6617068,17.239 36.6337068,17.239 C36.5277068,17.239 36.4297068,17.306 36.3927068,17.411 C36.2787068,17.746 35.9297068,17.99 35.5767068,17.99 M35.8507068,16.455 C35.7197068,16.35 35.5597068,16.296 35.3997068,16.296 C35.3767068,16.296 35.3547068,16.298 35.3317068,16.3 C35.3967068,16.245 35.4297068,16.16 35.4187068,16.075 C35.4307068,16.086 35.4417068,16.096 35.4527068,16.106 C35.5117068,16.158 35.5707068,16.211 35.6307068,16.263 C35.7037068,16.328 35.7767068,16.392 35.8507068,16.455 M32.9107068,14.886 C32.7837068,14.886 32.6577068,14.868 32.5377068,14.833 L32.8137068,14.701 C33.2387068,14.499 33.3597068,13.958 33.0697068,13.587 L33.0607068,13.575 C32.9207068,13.395 32.7087068,13.298 32.4917068,13.298 C32.3847068,13.298 32.2777068,13.322 32.1757068,13.37 L31.6197068,13.634 C31.6137068,13.522 31.6217068,13.409 31.6467068,13.298 C31.7247068,12.948 31.9617068,12.643 32.2687068,12.459 C32.4097068,12.679 32.5587068,12.897 32.7147068,13.113 C33.0047068,13.515 33.3207068,13.912 33.6587068,14.299 C33.7217068,14.371 33.7847068,14.442 33.8497068,14.513 C33.6037068,14.756 33.2557068,14.886 32.9107068,14.886 M31.0327068,11.004 C31.0057068,11.004 30.9797068,11.003 30.9527068,11.002 C30.7397068,10.992 30.5107068,10.925 30.3247068,10.805 L30.8937068,10.634 C31.0977068,10.573 31.2087068,10.354 31.1387068,10.153 L31.1377068,10.149 C31.1347068,10.141 31.1317068,10.132 31.1287068,10.124 C31.1317068,10.132 31.1347068,10.141 31.1377068,10.149 C31.1807068,10.273 31.2237068,10.396 31.2717068,10.52 C31.3287068,10.667 31.3897068,10.812 31.4547068,10.958 C31.3147068,10.986 31.1737068,11.004 31.0327068,11.004 M30.9197068,9.47 C30.8707068,9.317 30.7317068,9.217 30.5797068,9.212 C30.6527068,9.168 30.7297068,9.129 30.8087068,9.094 C30.8117068,9.103 30.8137068,9.112 30.8167068,9.121 C30.8507068,9.237 30.8847068,9.353 30.9197068,9.47 M30.0437068,6.445 C29.9627068,6.437 29.8827068,6.425 29.8037068,6.407 C29.7067068,6.384 29.6097068,6.348 29.5167068,6.301 C29.7267068,6.104 29.8177068,5.789 29.6967068,5.493 C29.8237068,5.802 29.9377068,6.121 30.0437068,6.445 M29.6897068,5.476 C29.5787068,5.21 29.3257068,5.033 29.0397068,5.022 C29.1217068,4.91 29.2307068,4.817 29.3517068,4.745 C29.3987068,4.836 29.4447068,4.928 29.4887068,5.021 C29.5587068,5.17 29.6257068,5.322 29.6897068,5.476" id="Fill-580" fill="#2C3F4C"></path><path d="M17.1657068,35.871 C13.2827068,35.871 9.34370676,34.696 7.20070676,33.937 L7.08870676,35.088 L7.20070676,33.937 L7.31270676,32.769 L7.38970676,31.977 L7.31270676,32.769 C10.2377068,34.037 14.1647068,35.209 17.8417068,35.209 C20.3057068,35.209 22.6587068,34.682 24.5207068,33.306 C23.1927068,33.567 21.7317068,33.673 20.2337068,33.673 C15.1217068,33.673 9.57570676,32.436 7.40270676,31.898 C7.44370676,31.668 7.49270676,31.505 7.56070676,31.392 C7.67670676,31.253 7.84970676,31.165 8.04070676,31.161 C8.04370676,31.161 8.04670676,31.161 8.04970676,31.161 C8.06070676,31.161 8.07270676,31.161 8.08370676,31.161 C8.08970676,31.161 8.09670676,31.162 8.10270676,31.162 C9.00170676,31.19 10.8067068,31.251 13.1627068,31.359 C13.4077068,31.37 13.6597068,31.382 13.9157068,31.394 C19.1947068,31.645 26.8227068,32.114 33.3007068,32.924 C35.9367068,33.591 38.6117068,33.851 41.1797068,33.851 C44.8137068,33.851 48.2367068,33.33 51.0497068,32.699 C54.2537068,31.98 56.6657068,31.119 57.6937068,30.724 C58.0447068,30.589 58.2337068,30.509 58.2387068,30.507 C58.2927068,30.971 58.3327068,31.318 58.3637068,31.588 L58.4707068,32.51 L58.6207068,33.815 L58.4707068,32.51 C53.2457068,34.409 46.1447068,35.358 40.6807068,35.358 C38.3347068,35.358 36.2907068,35.183 34.8267068,34.833 C32.7237068,34.33 31.0807068,34.123 29.5367068,34.123 C26.7857068,34.123 24.3517068,34.781 20.1947068,35.596 C19.2117068,35.789 18.1907068,35.871 17.1657068,35.871" id="Fill-581" fill="#7A746F"></path><path d="M30.2317068,6.962 C30.2227068,6.962 30.2147068,6.961 30.2057068,6.961 C30.0337068,6.96 29.8607068,6.942 29.6887068,6.903 C29.4067068,6.838 29.1287068,6.695 28.9017068,6.497 L29.0177068,6.497 C29.2137068,6.497 29.3877068,6.421 29.5167068,6.301 C29.6097068,6.348 29.7067068,6.384 29.8037068,6.407 C29.8827068,6.425 29.9627068,6.437 30.0437068,6.445 C30.1067068,6.45 30.1707068,6.453 30.2347068,6.453 C30.5687068,6.453 30.9097068,6.38 31.2357068,6.294 C31.3327068,6.268 31.4287068,6.24 31.5227068,6.214 C31.5707068,6.203 31.6167068,6.196 31.6587068,6.196 C31.6777068,6.196 31.6957068,6.198 31.7127068,6.201 C31.7937068,6.225 31.8597068,6.288 31.8847068,6.375 C31.9087068,6.46 31.8877068,6.546 31.8347068,6.609 C31.7937068,6.648 31.7357068,6.677 31.6687068,6.701 C31.5817068,6.726 31.4907068,6.752 31.3977068,6.777 C31.3837068,6.781 31.3687068,6.784 31.3537068,6.788 C31.3537068,6.788 31.3537068,6.788 31.3547068,6.789 C31.3537068,6.789 31.3527068,6.789 31.3527068,6.789 C31.0037068,6.881 30.6207068,6.962 30.2317068,6.962 M29.0397068,5.022 C29.0307068,5.021 29.0207068,5.021 29.0117068,5.021 L28.4647068,5.021 C28.5837068,4.706 28.8237068,4.464 29.1027068,4.3 C29.2837068,4.193 29.4817068,4.12 29.6727068,4.082 C29.8277068,4.052 29.9827068,4.039 30.1387068,4.039 C30.3557068,4.039 30.5727068,4.064 30.7917068,4.102 L30.7927068,4.102 L30.7927068,4.103 C30.9567068,4.132 31.1217068,4.167 31.2887068,4.204 C31.3907068,4.228 31.4647068,4.31 31.4827068,4.408 C31.4917068,4.475 31.4757068,4.545 31.4387068,4.601 C31.3917068,4.667 31.3147068,4.707 31.2327068,4.707 C31.2137068,4.707 31.1947068,4.705 31.1757068,4.701 C31.0787068,4.679 30.9827068,4.658 30.8897068,4.639 C30.6287068,4.585 30.3807068,4.547 30.1417068,4.547 C30.0157068,4.547 29.8927068,4.558 29.7717068,4.582 C29.6327068,4.609 29.4857068,4.664 29.3517068,4.745 C29.2307068,4.817 29.1217068,4.91 29.0397068,5.022" id="Fill-582" fill="#C7461E"></path><path d="M31.0287068,11.513 L30.9297068,11.51 C30.5207068,11.492 30.0507068,11.318 29.7467068,10.978 L30.3247068,10.805 C30.5107068,10.925 30.7397068,10.992 30.9527068,11.002 C30.9797068,11.003 31.0057068,11.004 31.0327068,11.004 C31.1737068,11.004 31.3147068,10.986 31.4547068,10.958 C31.7777068,10.891 32.0947068,10.762 32.3857068,10.644 C32.4167068,10.631 32.4497068,10.625 32.4817068,10.625 C32.4857068,10.625 32.4897068,10.625 32.4927068,10.626 C32.4937068,10.626 32.4957068,10.626 32.4967068,10.626 C32.4967068,10.626 32.4967068,10.627 32.4967068,10.628 C32.6357068,10.637 32.7247068,10.742 32.7347068,10.858 C32.7347068,10.859 32.7347068,10.86 32.7347068,10.861 C32.7377068,10.892 32.7337068,10.923 32.7257068,10.952 C32.7137068,10.992 32.6907068,11.03 32.6557068,11.063 C32.6557068,11.064 32.6557068,11.064 32.6567068,11.065 C32.6557068,11.065 32.6547068,11.066 32.6537068,11.067 C32.6317068,11.087 32.6057068,11.104 32.5767068,11.116 C32.3097068,11.224 32.0047068,11.348 31.6777068,11.428 C31.4687068,11.479 31.2507068,11.513 31.0287068,11.513 M29.6197068,9.478 C29.7487068,9.245 29.9317068,9.045 30.1277068,8.901 C30.2967068,8.776 30.4807068,8.679 30.6687068,8.601 C30.9807068,8.471 31.3057068,8.392 31.6067068,8.319 C31.6267068,8.314 31.6467068,8.312 31.6667068,8.312 C31.6987068,8.312 31.7297068,8.318 31.7587068,8.329 C31.7597068,8.329 31.7597068,8.33 31.7607068,8.33 C31.7607068,8.332 31.7617068,8.334 31.7617068,8.335 C31.8377068,8.367 31.8877068,8.423 31.9087068,8.488 C31.9107068,8.494 31.9127068,8.5 31.9137068,8.506 C31.9167068,8.517 31.9187068,8.527 31.9197068,8.538 C31.9257068,8.596 31.9107068,8.657 31.8727068,8.711 C31.8727068,8.713 31.8727068,8.714 31.8737068,8.715 C31.8727068,8.716 31.8727068,8.717 31.8717068,8.717 C31.8377068,8.764 31.7877068,8.799 31.7267068,8.814 C31.4157068,8.889 31.0967068,8.967 30.8087068,9.094 C30.7297068,9.129 30.6527068,9.168 30.5797068,9.212 C30.5747068,9.212 30.5707068,9.212 30.5657068,9.212 C30.5307068,9.212 30.4947068,9.217 30.4597068,9.227 L29.6197068,9.478" id="Fill-583" fill="#C7461E"></path><path d="M32.9047068,15.391 C32.6117068,15.391 32.3207068,15.324 32.0617068,15.185 C32.0217068,15.163 31.9827068,15.14 31.9437068,15.115 L32.5377068,14.833 C32.6577068,14.868 32.7837068,14.886 32.9107068,14.886 C33.2557068,14.886 33.6037068,14.756 33.8497068,14.513 C33.8557068,14.507 33.8607068,14.501 33.8667068,14.495 C33.9167068,14.443 33.9827068,14.418 34.0497068,14.418 C34.0747068,14.418 34.0997068,14.421 34.1237068,14.429 C34.1247068,14.429 34.1267068,14.429 34.1277068,14.43 C34.1277068,14.431 34.1287068,14.432 34.1287068,14.432 C34.1757068,14.448 34.2137068,14.473 34.2417068,14.505 C34.2477068,14.512 34.2537068,14.52 34.2597068,14.528 C34.3007068,14.588 34.3117068,14.666 34.2917068,14.74 C34.2917068,14.741 34.2927068,14.743 34.2937068,14.744 C34.2927068,14.747 34.2917068,14.749 34.2917068,14.752 C34.2797068,14.787 34.2597068,14.82 34.2327068,14.849 C34.2207068,14.861 34.2077068,14.874 34.1957068,14.886 C33.8557068,15.216 33.3787068,15.391 32.9047068,15.391 M31.1367068,13.864 C31.0977068,13.64 31.0997068,13.41 31.1497068,13.187 C31.2567068,12.705 31.5827068,12.284 32.0047068,12.027 C32.2527068,11.877 32.5347068,11.783 32.8247068,11.767 C32.8287068,11.767 32.8327068,11.767 32.8367068,11.767 C32.8687068,11.767 32.9007068,11.773 32.9297068,11.784 C32.9317068,11.785 32.9327068,11.785 32.9347068,11.786 C32.9347068,11.787 32.9357068,11.788 32.9357068,11.789 C32.9997068,11.816 33.0497068,11.865 33.0747068,11.926 C33.0807068,11.941 33.0857068,11.956 33.0887068,11.972 C33.0977068,12.019 33.0927068,12.07 33.0687068,12.122 C33.0697068,12.124 33.0697068,12.125 33.0707068,12.126 C33.0697068,12.127 33.0697068,12.128 33.0687068,12.129 C33.0307068,12.211 32.9497068,12.27 32.8527068,12.275 C32.6467068,12.287 32.4457068,12.353 32.2687068,12.459 C31.9617068,12.643 31.7247068,12.948 31.6467068,13.298 C31.6217068,13.409 31.6137068,13.522 31.6197068,13.634 L31.1477068,13.859 L31.1367068,13.864" id="Fill-584" fill="#C7461E"></path><path d="M35.5747068,18.499 L35.4787068,18.495 L35.4597068,18.494 C35.2477068,18.474 35.0467068,18.402 34.8697068,18.29 L34.9777068,18.216 L35.3547068,17.957 C35.4037068,17.972 35.4547068,17.982 35.5057068,17.987 C35.5297068,17.989 35.5527068,17.99 35.5767068,17.99 C35.9297068,17.99 36.2787068,17.746 36.3927068,17.411 C36.4297068,17.306 36.5277068,17.239 36.6337068,17.239 C36.6617068,17.239 36.6887068,17.244 36.7167068,17.253 C36.8497068,17.299 36.9207068,17.443 36.8747068,17.576 C36.8427068,17.671 36.7997068,17.76 36.7467068,17.844 C36.4987068,18.239 36.0447068,18.499 35.5747068,18.499 M34.2377068,16.935 C34.3127068,16.471 34.6287068,16.05 35.0707068,15.87 C35.1017068,15.858 35.1347068,15.852 35.1657068,15.852 C35.1697068,15.852 35.1727068,15.852 35.1757068,15.852 C35.1767068,15.852 35.1777068,15.852 35.1787068,15.852 C35.1797068,15.853 35.1797068,15.853 35.1807068,15.854 C35.2227068,15.856 35.2637068,15.868 35.2987068,15.889 C35.3137068,15.898 35.3277068,15.908 35.3397068,15.92 C35.3767068,15.955 35.4037068,16.005 35.4137068,16.069 C35.4147068,16.071 35.4167068,16.072 35.4187068,16.074 C35.4187068,16.075 35.4187068,16.075 35.4187068,16.075 C35.4297068,16.16 35.3967068,16.245 35.3317068,16.3 C35.2117068,16.311 35.0927068,16.352 34.9867068,16.424 L34.2377068,16.935" id="Fill-585" fill="#C7461E"></path><path d="M39.2767068,21.247 L39.1857068,21.245 C39.0137068,21.235 38.8467068,21.195 38.6917068,21.132 L38.7507068,21.076 L39.1227068,20.726 C39.1537068,20.731 39.1837068,20.735 39.2147068,20.736 C39.2367068,20.738 39.2587068,20.738 39.2807068,20.738 C39.7337068,20.738 40.1967068,20.441 40.4187068,20.002 C40.4637068,19.914 40.5537068,19.863 40.6467068,19.863 C40.6627068,19.863 40.6797068,19.864 40.6957068,19.868 C40.6987068,19.868 40.7017068,19.869 40.7037068,19.869 C40.7457068,19.894 40.7887068,19.918 40.8317068,19.943 C40.8337068,19.945 40.8357068,19.947 40.8377068,19.95 C40.9037068,20.025 40.9207068,20.137 40.8727068,20.232 C40.5607068,20.848 39.9277068,21.247 39.2767068,21.247 M37.7487068,19.995 C37.7437068,19.965 37.7397068,19.936 37.7367068,19.906 C37.6997068,19.537 37.8307068,19.155 38.0957068,18.86 C38.2297068,18.711 38.3887068,18.596 38.5607068,18.521 C38.5627068,18.52 38.5637068,18.52 38.5657068,18.519 C38.5667068,18.52 38.5687068,18.521 38.5697068,18.522 C38.6487068,18.488 38.7207068,18.464 38.7857068,18.448 C38.8447068,18.435 38.9047068,18.427 38.9647068,18.423 C38.9677068,18.423 38.9707068,18.423 38.9737068,18.423 C39.0647068,18.423 39.1337068,18.444 39.1847068,18.477 C39.2417068,18.524 39.2787068,18.594 39.2787068,18.674 C39.2797068,18.737 39.2567068,18.796 39.2177068,18.841 C39.1957068,18.865 39.1687068,18.886 39.1367068,18.902 C39.1367068,18.902 39.1377068,18.903 39.1387068,18.903 C39.1377068,18.904 39.1367068,18.904 39.1347068,18.905 C39.1017068,18.921 39.0657068,18.93 39.0267068,18.93 C38.8287068,18.931 38.6277068,19.03 38.4737068,19.2 C38.3977068,19.286 38.3377068,19.383 38.2977068,19.486 L37.7487068,19.995" id="Fill-586" fill="#C7461E"></path><path d="M43.1867068,22.124 L43.2047068,22.095 C43.2967068,21.941 43.3267068,21.767 43.3007068,21.604 C43.4397068,21.583 43.5737068,21.531 43.6867068,21.449 C43.6977068,21.441 43.7097068,21.432 43.7207068,21.423 C43.7867068,21.382 43.8497068,21.364 43.9047068,21.364 C43.9227068,21.364 43.9397068,21.366 43.9557068,21.37 C44.0037068,21.383 44.0487068,21.411 44.0837068,21.453 C44.1037068,21.476 44.1177068,21.502 44.1277068,21.53 C44.1397068,21.568 44.1437068,21.611 44.1367068,21.654 C44.1377068,21.654 44.1387068,21.654 44.1387068,21.655 C44.1387068,21.656 44.1387068,21.658 44.1387068,21.659 C44.1287068,21.716 44.0987068,21.771 44.0497068,21.811 C43.8057068,22.013 43.4977068,22.118 43.1867068,22.124 M41.9277068,21.356 C41.7977068,21.09 41.7497068,20.784 41.8017068,20.49 C41.8027068,20.489 41.8027068,20.487 41.8027068,20.486 C41.8037068,20.486 41.8047068,20.487 41.8057068,20.487 L41.8477068,20.308 C41.8837068,20.201 41.9827068,20.133 42.0887068,20.133 C42.1157068,20.133 42.1427068,20.137 42.1697068,20.146 C42.2597068,20.176 42.3217068,20.252 42.3397068,20.339 C42.3407068,20.393 42.3277068,20.456 42.3147068,20.525 C42.2967068,20.599 42.2887068,20.675 42.2907068,20.751 C42.2937068,20.842 42.3097068,20.932 42.3387068,21.019 C42.1777068,21.071 42.0357068,21.178 41.9417068,21.333 L41.9277068,21.356" id="Fill-587" fill="#C7461E"></path><path d="M47.0667068,23.512 C47.0587068,23.496 47.0497068,23.48 47.0407068,23.464 L47.1437068,23.137 L47.1947068,22.977 C47.2317068,22.968 47.2697068,22.958 47.3077068,22.946 C47.3737068,22.926 47.4427068,22.901 47.5157068,22.871 C47.5787068,22.848 47.6377068,22.831 47.6907068,22.828 C47.7797068,22.836 47.8627068,22.892 47.9017068,22.98 L47.9097068,23.151 C47.9107068,23.151 47.9117068,23.151 47.9127068,23.152 C47.8927068,23.222 47.8427068,23.283 47.7707068,23.315 C47.5087068,23.43 47.2757068,23.492 47.0667068,23.512 M45.7027068,22.807 C45.5627068,22.605 45.4537068,22.39 45.3627068,22.208 C45.3607068,22.204 45.3577068,22.199 45.3557068,22.195 C45.3557068,22.192 45.3547068,22.19 45.3537068,22.188 C45.3547068,22.189 45.3557068,22.189 45.3577068,22.19 C45.3427068,22.153 45.3357068,22.117 45.3357068,22.084 C45.3377068,22.026 45.3597068,21.97 45.3987068,21.926 C45.4447068,21.876 45.5097068,21.845 45.5777068,21.839 C45.5817068,21.839 45.5857068,21.839 45.5897068,21.839 C45.6827068,21.839 45.7727068,21.89 45.8167068,21.979 C45.8187068,21.982 45.8197068,21.985 45.8217068,21.988 C45.9187068,22.18 46.0117068,22.353 46.1107068,22.501 C46.0187068,22.465 45.9277068,22.429 45.8357068,22.392 L45.7387068,22.692 L45.7027068,22.807" id="Fill-588" fill="#C7461E"></path><path d="M29.0177068,6.497 L28.0987068,6.497 C28.2757068,6.302 28.3847068,6.043 28.3847068,5.759 C28.3847068,5.475 28.2767068,5.216 28.0987068,5.021 L29.0117068,5.021 C29.0207068,5.021 29.0307068,5.021 29.0397068,5.022 C29.3257068,5.033 29.5787068,5.21 29.6897068,5.476 C29.6897068,5.476 29.6897068,5.477 29.6907068,5.478 L29.6967068,5.492 C29.6967068,5.492 29.6967068,5.492 29.6967068,5.493 C29.8177068,5.789 29.7267068,6.104 29.5167068,6.301 C29.3877068,6.421 29.2137068,6.497 29.0177068,6.497" id="Fill-589" fill="#1A2830"></path><path d="M29.1107068,11.168 C29.2247068,10.931 29.2537068,10.653 29.1727068,10.381 C29.0907068,10.109 28.9137068,9.892 28.6877068,9.756 L29.0177068,9.658 L29.6197068,9.478 L30.4597068,9.227 C30.4947068,9.217 30.5307068,9.212 30.5657068,9.212 C30.5707068,9.212 30.5747068,9.212 30.5797068,9.212 C30.7317068,9.217 30.8707068,9.317 30.9197068,9.47 C30.9207068,9.472 30.9217068,9.475 30.9227068,9.477 C30.9857068,9.686 31.0517068,9.896 31.1227068,10.105 C31.1227068,10.106 31.1227068,10.107 31.1227068,10.107 C31.1247068,10.113 31.1267068,10.118 31.1287068,10.124 C31.1317068,10.132 31.1347068,10.141 31.1377068,10.149 L31.1387068,10.153 C31.2087068,10.354 31.0977068,10.573 30.8937068,10.634 L30.3247068,10.805 L29.7467068,10.978 L29.4397068,11.07 L29.1107068,11.168" id="Fill-590" fill="#1A2830"></path><path d="M31.4697068,15.34 C31.5467068,15.088 31.5337068,14.807 31.4117068,14.55 C31.2897068,14.293 31.0807068,14.106 30.8367068,14.006 L31.1367068,13.864 L31.1477068,13.859 L31.6197068,13.634 L32.1757068,13.37 C32.2777068,13.322 32.3847068,13.298 32.4917068,13.298 C32.7087068,13.298 32.9207068,13.395 33.0607068,13.575 L33.0697068,13.587 C33.3597068,13.958 33.2387068,14.499 32.8137068,14.701 L32.5377068,14.833 L31.9437068,15.115 L31.7807068,15.192 L31.4697068,15.34" id="Fill-591" fill="#1A2830"></path><path d="M34.6917068,18.411 C34.7277068,18.151 34.6707068,17.876 34.5107068,17.642 C34.3507068,17.408 34.1147068,17.255 33.8587068,17.195 L34.1397068,17.002 L34.2377068,16.935 L34.9867068,16.424 C35.0927068,16.352 35.2117068,16.311 35.3317068,16.3 C35.3547068,16.298 35.3767068,16.296 35.3997068,16.296 C35.5597068,16.296 35.7197068,16.35 35.8507068,16.455 C35.8667068,16.469 35.8837068,16.483 35.8997068,16.497 C36.2447068,16.814 36.2117068,17.371 35.8217068,17.638 L35.3547068,17.957 L34.9777068,18.216 L34.8697068,18.29 L34.6917068,18.411" id="Fill-592" fill="#1A2830"></path><path d="M38.4997068,21.312 C38.4957068,21.049 38.3967068,20.786 38.2027068,20.58 C38.0077068,20.373 37.7517068,20.259 37.4897068,20.238 L37.7387068,20.005 L37.7487068,19.995 L38.2977068,19.486 L38.5147068,19.284 C38.6517068,19.157 38.8297068,19.09 39.0087068,19.09 C39.1137068,19.09 39.2177068,19.112 39.3157068,19.159 L39.3297068,19.166 C39.7937068,19.387 39.8947068,20.001 39.5207068,20.352 L39.1227068,20.726 L38.7507068,21.076 L38.6917068,21.132 L38.4997068,21.312" id="Fill-593" fill="#1A2830"></path><path d="M42.9437068,22.527 C42.8687068,22.275 42.7027068,22.049 42.4597068,21.902 C42.2827068,21.795 42.0877068,21.744 41.8947068,21.744 C41.8227068,21.744 41.7517068,21.751 41.6807068,21.765 L41.8587068,21.47 L41.9277068,21.356 L41.9417068,21.333 C42.0357068,21.178 42.1777068,21.071 42.3387068,21.019 C42.4117068,20.995 42.4877068,20.983 42.5657068,20.983 C42.6747068,20.983 42.7867068,21.007 42.8907068,21.058 C42.8997068,21.063 42.9077068,21.067 42.9167068,21.071 C43.1317068,21.181 43.2657068,21.383 43.3007068,21.604 C43.3267068,21.767 43.2967068,21.941 43.2047068,22.095 L43.1867068,22.124 L43.1207068,22.234 L42.9437068,22.527" id="Fill-594" fill="#1A2830"></path><path d="M47.0407068,23.464 C46.9087068,23.237 46.6947068,23.056 46.4247068,22.971 C46.3147068,22.936 46.2037068,22.919 46.0937068,22.919 C45.9337068,22.919 45.7777068,22.955 45.6357068,23.02 L45.7027068,22.807 L45.7387068,22.692 L45.8357068,22.392 C45.9277068,22.429 46.0187068,22.465 46.1107068,22.501 C46.4847068,22.648 46.8527068,22.786 47.2147068,22.913 L47.1947068,22.977 L47.1437068,23.137 L47.0407068,23.464" id="Fill-595" fill="#1A2830"></path><path d="M27.2897068,6.854 C26.6847068,6.854 26.1937068,6.364 26.1937068,5.759 C26.1937068,5.154 26.6847068,4.664 27.2897068,4.664 C27.6097068,4.664 27.8987068,4.802 28.0987068,5.021 C28.2767068,5.216 28.3847068,5.475 28.3847068,5.759 C28.3847068,6.043 28.2757068,6.302 28.0987068,6.497 C27.8987068,6.717 27.6097068,6.854 27.2897068,6.854" id="Fill-596" fill="#9C948C"></path><path d="M28.1227068,11.791 C27.6517068,11.791 27.2167068,11.484 27.0747068,11.009 C26.9007068,10.43 27.2297068,9.82 27.8097068,9.646 C27.9147068,9.615 28.0197068,9.6 28.1237068,9.6 C28.3247068,9.6 28.5197068,9.656 28.6877068,9.756 C28.9137068,9.892 29.0907068,10.109 29.1727068,10.381 C29.2537068,10.653 29.2247068,10.931 29.1107068,11.168 C28.9827068,11.437 28.7457068,11.652 28.4377068,11.744 C28.3327068,11.776 28.2267068,11.791 28.1227068,11.791" id="Fill-597" fill="#9C948C"></path><path d="M30.4237068,16.115 C30.0137068,16.115 29.6207068,15.884 29.4337068,15.49 C29.1737068,14.943 29.4067068,14.29 29.9527068,14.031 C30.1047068,13.958 30.2647068,13.924 30.4217068,13.924 C30.5647068,13.924 30.7057068,13.953 30.8367068,14.006 C31.0807068,14.106 31.2897068,14.293 31.4117068,14.55 C31.5337068,14.807 31.5467068,15.088 31.4697068,15.34 C31.3827068,15.624 31.1817068,15.872 30.8927068,16.009 C30.7407068,16.081 30.5807068,16.115 30.4237068,16.115" id="Fill-598" fill="#9C948C"></path><path d="M33.6077068,19.356 C33.2587068,19.356 32.9157068,19.189 32.7037068,18.879 C32.3617068,18.379 32.4897068,17.698 32.9887068,17.356 C33.1777068,17.227 33.3927068,17.165 33.6057068,17.165 C33.6917068,17.165 33.7757068,17.175 33.8587068,17.195 C34.1147068,17.255 34.3507068,17.408 34.5107068,17.642 C34.6707068,17.876 34.7277068,18.151 34.6917068,18.411 C34.6617068,18.627 34.5677068,18.834 34.4147068,19 C34.3597068,19.061 34.2957068,19.116 34.2257068,19.164 C34.0387068,19.292 33.8257068,19.354 33.6147068,19.356 C33.6127068,19.356 33.6107068,19.356 33.6077068,19.356" id="Fill-599" fill="#9C948C"></path><path d="M37.4047068,22.425 C37.1137068,22.425 36.8227068,22.31 36.6077068,22.081 C36.1927068,21.64 36.2137068,20.947 36.6547068,20.533 C36.8657068,20.334 37.1357068,20.235 37.4047068,20.235 C37.4327068,20.235 37.4607068,20.236 37.4897068,20.238 C37.7517068,20.259 38.0077068,20.373 38.2027068,20.58 C38.3967068,20.786 38.4957068,21.049 38.4997068,21.312 C38.5047068,21.61 38.3887068,21.908 38.1557068,22.128 C37.9437068,22.327 37.6737068,22.425 37.4047068,22.425" id="Fill-600" fill="#9C948C"></path><path d="M41.8927068,23.935 C41.7007068,23.935 41.5047068,23.884 41.3277068,23.777 C40.8107068,23.464 40.6437068,22.791 40.9567068,22.273 C41.1217068,21.999 41.3897068,21.823 41.6807068,21.765 C41.7517068,21.751 41.8227068,21.744 41.8947068,21.744 C42.0877068,21.744 42.2827068,21.795 42.4597068,21.902 C42.7027068,22.049 42.8687068,22.275 42.9437068,22.527 C43.0287068,22.812 42.9977068,23.131 42.8317068,23.405 C42.6257068,23.746 42.2637068,23.935 41.8927068,23.935" id="Fill-601" fill="#9C948C"></path><path d="M46.0947068,25.11 C45.9847068,25.11 45.8737068,25.094 45.7637068,25.059 C45.1867068,24.876 44.8677068,24.261 45.0497068,23.684 C45.1467068,23.378 45.3657068,23.145 45.6357068,23.02 C45.7777068,22.955 45.9337068,22.919 46.0937068,22.919 C46.2037068,22.919 46.3147068,22.936 46.4247068,22.971 C46.6947068,23.056 46.9087068,23.237 47.0407068,23.464 C47.0497068,23.48 47.0587068,23.496 47.0667068,23.512 C47.1957068,23.761 47.2297068,24.058 47.1377068,24.346 C46.9907068,24.812 46.5587068,25.11 46.0947068,25.11" id="Fill-602" fill="#9C948C"></path><path d="M19.4317068,37.76 L16.3777068,37.76 L16.3777068,36.742 L14.7237068,36.742 L14.7237068,37.76 L10.9067068,37.76 L10.9067068,36.614 L9.50670676,36.233 L8.87070676,36.869 L7.08870676,35.088 L7.20070676,33.937 C9.34370676,34.696 13.2827068,35.871 17.1657068,35.871 C18.1907068,35.871 19.2117068,35.789 20.1947068,35.596 C24.3517068,34.781 26.7857068,34.123 29.5367068,34.123 C31.0807068,34.123 32.7237068,34.33 34.8267068,34.833 C36.2907068,35.183 38.3347068,35.358 40.6807068,35.358 C46.1447068,35.358 53.2457068,34.409 58.4707068,32.51 L58.6207068,33.815 L55.6937068,35.215 L55.1857068,34.451 L53.1497068,34.833 L53.2767068,35.978 L49.9687068,36.742 L49.8407068,35.851 L46.6607068,36.36 L46.6607068,37.378 L43.4797068,37.505 L43.4797068,36.742 L40.9347068,36.742 L40.2987068,37.378 L37.1177068,37.378 L36.7357068,36.487 L35.2087068,36.105 L34.8267068,36.869 L33.0457068,36.105 L33.0457068,35.596 L29.3557068,34.96 L28.8467068,35.469 L26.3017068,35.469 L26.3017068,34.833 L23.6297068,35.724 L22.8667068,37.632 L20.9577068,37.632 L20.9577068,36.869 L19.4317068,36.869 L19.4317068,37.76" id="Fill-603" fill="#1A2830"></path><path d="M13.2397068,20.412 C12.5117068,20.412 11.9247068,19.824 11.9247068,19.099 C11.9247068,18.371 12.5117068,17.783 13.2397068,17.783 C13.9647068,17.783 14.5527068,18.371 14.5527068,19.099 C14.5527068,19.824 13.9647068,20.412 13.2397068,20.412" id="Fill-604" fill="#C48B17"></path><path d="M17.8417068,35.209 C14.1647068,35.209 10.2377068,34.037 7.31270676,32.769 L7.38970676,31.977 C7.39370676,31.95 7.39770676,31.923 7.40270676,31.898 C9.57570676,32.436 15.1217068,33.673 20.2337068,33.673 C21.7317068,33.673 23.1927068,33.567 24.5207068,33.306 C22.6587068,34.682 20.3057068,35.209 17.8417068,35.209" id="Fill-605" fill="#9C948C"></path><path d="M13.2397068,21.262 C12.0437068,21.262 11.0767068,20.292 11.0767068,19.099 C11.0767068,17.903 12.0437068,16.936 13.2397068,16.936 C14.4337068,16.936 15.4027068,17.903 15.4027068,19.099 C15.4027068,20.292 14.4337068,21.262 13.2397068,21.262 M13.2397068,17.783 C12.5117068,17.783 11.9247068,18.371 11.9247068,19.099 C11.9247068,19.824 12.5117068,20.412 13.2397068,20.412 C13.9647068,20.412 14.5527068,19.824 14.5527068,19.099 C14.5527068,18.371 13.9647068,17.783 13.2397068,17.783" id="Fill-606" fill="#C7461E"></path><path d="M4.70270676,33.027 L3.71570676,32.779 C4.52470676,29.553 3.82970676,26.029 1.85670676,23.353 C1.72670676,23.177 1.59170676,23.004 1.45670676,22.831 C1.02070676,22.272 0.568706763,21.694 0.277706763,21.001 C-0.0902932375,20.125 -0.209293237,18.786 0.665706763,17.897 C1.39470676,17.156 2.66970676,17.012 3.69670676,17.557 C4.47470676,17.97 5.12070676,18.739 5.56570676,19.783 L4.62970676,20.182 C4.38370676,19.605 3.93970676,18.838 3.21970676,18.456 C2.59170676,18.123 1.80570676,18.19 1.39070676,18.611 C0.900706763,19.109 0.949706763,19.972 1.21570676,20.607 C1.45470676,21.175 1.84570676,21.675 2.25970676,22.205 C2.40070676,22.385 2.54070676,22.566 2.67570676,22.749 C4.82770676,25.667 5.58470676,29.51 4.70270676,33.027" id="Fill-607" fill="#355168"></path><path d="M15.7917068,7.888 L20.6387068,6.844 C22.4077068,6.463 24.1297068,7.66 24.3827068,9.451 C24.8917068,13.06 26.1987068,18.958 29.5337068,23.92 C15.6647068,19.467 15.6647068,9.415 15.7917068,7.888" id="Fill-608" fill="#203342"></path><path d="M51.1637068,34.099 C51.1637068,34.099 51.0367068,31.554 45.3107068,30.791 C44.4767068,30.682 43.5147068,30.468 42.4707068,30.155 C42.0057068,30.02 41.5247068,29.862 41.0307068,29.687 C40.5797068,29.529 40.1197068,29.353 39.6517068,29.165 C38.9237068,28.872 38.1807068,28.544 37.4297068,28.188 C36.9917068,27.977 36.5497068,27.755 36.1087068,27.526 C35.4377068,27.173 34.7657068,26.796 34.1067068,26.401 C33.6707068,26.139 33.2387068,25.869 32.8157068,25.59 C32.2157068,25.193 31.6277068,24.778 31.0607068,24.348 C30.8487068,24.19 30.6407068,24.027 30.4367068,23.864 C30.0347068,23.546 29.6457068,23.215 29.2687068,22.879 C28.6227068,22.297 28.0197068,21.694 27.4747068,21.073 C27.1357068,20.686 26.8207068,20.289 26.5307068,19.887 C25.9227068,19.047 25.4317068,18.179 25.0877068,17.294 C25.0397068,17.169 24.9957068,17.047 24.9527068,16.922 C24.8357068,16.579 24.7317068,16.235 24.6317068,15.894 C24.3727068,15.001 24.1507068,14.115 23.8767068,13.27 C23.7107068,12.761 23.5277068,12.265 23.3037068,11.794 C22.6957068,10.507 21.7977068,9.397 20.2017068,8.619 C16.1457068,6.641 10.2647068,8.336 6.78070676,10.84 C5.18270676,11.99 3.32270676,13.525 3.32270676,15.65 L3.32270676,25.447 L3.08670676,26.372 C3.60270676,30.703 5.06270676,35.137 7.40670676,38.832 C7.49970676,38.844 7.59270676,38.856 7.68670676,38.868 C10.8297068,39.278 14.4837068,39.68 16.5217068,39.649 C16.9517068,39.644 17.3087068,39.619 17.5727068,39.571 C17.9067068,39.51 18.2877068,39.461 18.7107068,39.425 L18.8707068,39.413 C20.2097068,39.313 21.9067068,39.336 23.6317068,39.479 C23.7517068,39.489 23.8717068,39.499 23.9887068,39.512 C24.0797068,39.522 24.1717068,39.53 24.2657068,39.54 L24.3417068,39.548 L24.6117068,39.578 L24.7007068,39.588 C26.6397068,39.807 28.5337068,40.184 29.9147068,40.716 C34.6227068,40.97 46.2017068,41.734 51.5457068,38.171 C51.5457068,37.407 51.1637068,34.099 51.1637068,34.099" id="Fill-609" fill="#EDB220"></path><path d="M1.66770676,31.936 L1.67370676,32.048 L1.92270676,38.044 C1.92270676,38.044 4.39470676,38.437 7.40670676,38.832 C5.06270676,35.137 3.60270676,30.703 3.08670676,26.372 L1.66770676,31.936" id="Fill-610" fill="#FECC3D"></path><path d="M43.0957068,33.949 L43.0207068,33.972 C39.7127068,34.99 30.5517068,34.608 25.4617068,32.7 C20.1327068,30.702 8.99470676,30.386 7.76770676,37.901 C7.71670676,38.222 7.68870676,38.545 7.68670676,38.868 C10.8297068,39.278 14.4837068,39.68 16.5217068,39.649 C17.2927068,39.54 18.0437068,39.476 18.7107068,39.425 L18.8707068,39.413 L19.0157068,39.403 C20.5457068,39.291 22.0977068,39.342 23.6317068,39.479 C23.7517068,39.489 23.8717068,39.499 23.9887068,39.512 C24.0827068,39.52 24.1737068,39.53 24.2657068,39.54 L24.3417068,39.548 L24.5837068,39.573 L24.6117068,39.578 L24.7007068,39.588 C26.4207068,39.807 28.2507068,40.627 29.9147068,40.716 C33.0987068,40.888 39.4237068,41.291 44.8387068,40.433 C44.9977068,38.172 44.4817068,35.916 43.0957068,33.949" id="Fill-611" fill="#355168"></path><path d="M51.1637068,34.099 C51.1637068,34.099 51.0367068,31.554 45.3107068,30.791 C44.4767068,30.682 43.5147068,30.468 42.4707068,30.155 C42.5627068,31.291 43.5637068,31.798 44.5217068,32.022 C45.2037068,32.181 45.2947068,33.115 44.6507068,33.389 C44.2407068,33.563 43.7297068,33.751 43.0957068,33.949 C44.4817068,35.916 44.9977068,38.172 44.8387068,40.433 C47.4307068,40.022 49.8157068,39.324 51.5457068,38.171 C51.5457068,37.407 51.1637068,34.099 51.1637068,34.099" id="Fill-612" fill="#203342"></path><g id="Group-616" transform="translate(0.574707, 7.533000)"><mask id="mask-2" fill="white"><use xlink:href="#path-1"></use></mask><g id="Clip-614"></g><path d="M30.485,16.815 C27.034,18.709 23.281,20.222 19.363,20.772 C16.841,21.126 10.155,21.762 9.825,17.91 C9.529,14.459 17.592,15.157 20.052,10.916 L18.016,4.554 C18.016,4.554 16.489,4.681 10.255,6.717 C6.723,7.921 4.211,11.341 2.748,13.942 L2.748,8.117 C2.748,5.992 4.608,4.457 6.206,3.307 C9.69,0.803 15.571,-0.892 19.627,1.086 C21.223,1.864 22.121,2.974 22.729,4.261 C22.953,4.732 23.136,5.228 23.302,5.737 C23.576,6.582 23.798,7.468 24.057,8.361 C24.157,8.702 24.261,9.046 24.378,9.389 C24.421,9.514 24.465,9.636 24.513,9.761 C24.857,10.646 25.348,11.514 25.956,12.354 C26.246,12.756 26.561,13.153 26.9,13.54 C27.445,14.161 28.048,14.764 28.694,15.346 C29.071,15.682 29.46,16.013 29.862,16.331 C30.066,16.494 30.274,16.657 30.485,16.815" id="Fill-613" fill="#355168" mask="url(#mask-2)"></path><path d="M51.862,33.055 L48.935,34.455 L48.426,33.692 L46.39,34.073 L46.518,35.219 L43.209,35.982 L43.082,35.091 L39.901,35.6 L39.901,36.618 L36.72,36.745 L36.72,35.982 L34.175,35.982 L33.539,36.618 L30.358,36.618 L29.977,35.727 L28.45,35.346 L28.068,36.109 L26.287,35.346 L26.287,34.837 L22.597,34.201 L22.088,34.71 L19.543,34.71 L19.543,34.073 L16.871,34.964 L16.108,36.873 L14.199,36.873 L14.199,36.109 L12.672,36.109 L12.672,37 L9.618,37 L9.618,35.982 L7.964,35.982 L7.964,37 L4.147,37 L4.147,35.855 L2.748,35.473 L2.111,36.109 L0.33,34.328 L0.442,33.178 L0.638,31.137 L0.653,30.987 C0.686,30.646 0.977,30.391 1.318,30.401 C4.185,30.49 16.693,30.933 26.541,32.165 C38.629,35.219 51.48,29.747 51.48,29.747 L51.862,33.055" id="Fill-615" fill="#939598" mask="url(#mask-2)"></path></g><path d="M24.0477068,13.735 C23.8667068,13.735 23.6847068,13.717 23.5047068,13.676 C22.7787068,13.509 22.0807068,12.828 22.2197068,12.02 C22.3317068,11.367 22.9377068,10.965 23.4887068,10.856 C24.0207068,10.75 24.5567068,10.853 25.1037068,10.978 C25.2407068,11.009 25.3267068,11.145 25.2957068,11.282 C25.2647068,11.42 25.1277068,11.506 24.9907068,11.474 C24.4807068,11.358 24.0227068,11.269 23.5877068,11.355 C23.2197068,11.428 22.7917068,11.694 22.7207068,12.106 C22.6367068,12.598 23.1267068,13.066 23.6187068,13.18 C24.1967068,13.313 24.8287068,13.133 25.3857068,12.973 C25.5217068,12.934 25.6617068,13.013 25.7007068,13.148 C25.7397068,13.283 25.6607068,13.424 25.5257068,13.463 C25.0897068,13.588 24.5737068,13.735 24.0477068,13.735" id="Fill-617" fill="#F15A29"></path><path d="M24.8447068,18.286 L24.7447068,18.284 C24.1667068,18.257 23.4627068,17.919 23.2867068,17.239 C23.1237068,16.612 23.4997068,16.001 23.9437068,15.674 C24.3927068,15.343 24.9397068,15.21 25.4227068,15.092 C25.5577068,15.059 25.6967068,15.143 25.7297068,15.28 C25.7627068,15.416 25.6787068,15.554 25.5427068,15.587 C25.0857068,15.698 24.6127068,15.813 24.2457068,16.084 C23.9487068,16.302 23.6767068,16.717 23.7797068,17.111 C23.8857068,17.522 24.3577068,17.756 24.7687068,17.775 C25.2627068,17.799 25.7607068,17.596 26.2017068,17.417 C26.3317068,17.364 26.4797068,17.427 26.5327068,17.558 C26.5857068,17.688 26.5227068,17.836 26.3927068,17.889 C25.9537068,18.067 25.4127068,18.286 24.8447068,18.286" id="Fill-618" fill="#F15A29"></path><path d="M26.7207068,22.165 C26.4277068,22.165 26.1357068,22.098 25.8777068,21.959 C25.1867068,21.586 24.7947068,20.727 24.9647068,19.961 C25.1357068,19.194 25.8567068,18.584 26.6407068,18.54 C26.7787068,18.534 26.9007068,18.64 26.9087068,18.78 C26.9157068,18.921 26.8087068,19.041 26.6687068,19.049 C26.1037068,19.08 25.5847068,19.52 25.4617068,20.071 C25.3387068,20.624 25.6217068,21.242 26.1187068,21.51 C26.6167068,21.779 27.2887068,21.675 27.6827068,21.269 C27.7797068,21.167 27.9407068,21.165 28.0417068,21.263 C28.1427068,21.36 28.1457068,21.522 28.0477068,21.622 C27.7057068,21.976 27.2117068,22.165 26.7207068,22.165" id="Fill-619" fill="#F15A29"></path><path d="M29.3897068,25.272 L29.2747068,25.267 C28.6657068,25.212 28.1387068,24.713 28.0497068,24.108 C27.9597068,23.503 28.3197068,22.874 28.8867068,22.644 C29.0167068,22.591 29.1647068,22.654 29.2177068,22.784 C29.2707068,22.914 29.2077068,23.063 29.0777068,23.115 C28.7277068,23.257 28.4977068,23.661 28.5527068,24.034 C28.6077068,24.407 28.9457068,24.726 29.3217068,24.76 C29.6977068,24.796 30.0867068,24.542 30.2087068,24.185 C30.2547068,24.052 30.3987068,23.981 30.5317068,24.026 C30.6647068,24.072 30.7357068,24.217 30.6907068,24.35 C30.5047068,24.892 29.9587068,25.272 29.3897068,25.272" id="Fill-620" fill="#F15A29"></path><path d="M33.0927068,28.021 L33.0017068,28.018 C32.2597068,27.975 31.6237068,27.387 31.5527068,26.679 C31.5147068,26.31 31.6457068,25.929 31.9107068,25.634 C32.1597068,25.357 32.4977068,25.197 32.8387068,25.194 L32.8407068,25.194 C32.9797068,25.194 33.0937068,25.307 33.0947068,25.447 C33.0957068,25.588 32.9827068,25.702 32.8417068,25.703 C32.6437068,25.705 32.4427068,25.803 32.2897068,25.974 C32.1227068,26.16 32.0357068,26.404 32.0587068,26.628 C32.1047068,27.078 32.5497068,27.482 33.0307068,27.51 C33.5047068,27.54 34.0017068,27.235 34.2347068,26.776 C34.2977068,26.65 34.4517068,26.6 34.5767068,26.663 C34.7017068,26.727 34.7517068,26.88 34.6887068,27.005 C34.3767068,27.622 33.7437068,28.021 33.0927068,28.021" id="Fill-621" fill="#F15A29"></path><path d="M36.9777068,28.897 C36.7037068,28.897 36.4297068,28.82 36.1987068,28.662 C35.6987068,28.321 35.4737068,27.656 35.6637068,27.082 C35.7077068,26.948 35.8507068,26.875 35.9847068,26.92 C36.1187068,26.964 36.1907068,27.108 36.1467068,27.241 C36.0287068,27.599 36.1747068,28.029 36.4857068,28.242 C36.7967068,28.454 37.2507068,28.433 37.5407068,28.192 C37.6497068,28.102 37.8097068,28.118 37.8997068,28.226 C37.9887068,28.334 37.9737068,28.494 37.8657068,28.584 C37.6147068,28.792 37.2967068,28.897 36.9777068,28.897" id="Fill-622" fill="#F15A29"></path><path d="M40.7287068,30.293 C39.8397068,30.293 39.4397068,29.501 39.1777068,28.982 C39.1147068,28.856 39.1657068,28.703 39.2907068,28.64 C39.4167068,28.576 39.5697068,28.627 39.6327068,28.752 C40.0407068,29.562 40.3837068,30.06 41.3817068,29.622 C41.5107068,29.566 41.6607068,29.625 41.7167068,29.753 C41.7737068,29.882 41.7147068,30.032 41.5867068,30.088 C41.2577068,30.233 40.9747068,30.293 40.7287068,30.293" id="Fill-623" fill="#F15A29"></path><path d="M22.8327068,13.27 L21.0007068,13.27 L21.0007068,11.794 L22.8267068,11.794 C23.1247068,11.794 23.3927068,11.976 23.5057068,12.251 L23.5117068,12.266 C23.7087068,12.745 23.3507068,13.27 22.8327068,13.27" id="Fill-624" fill="#203342"></path><path d="M24.9537068,16.926 C25.0237068,17.127 24.9137068,17.346 24.7097068,17.407 L23.2557068,17.843 L22.0497068,18.205 L21.6267068,16.792 L22.8327068,16.431 L24.2757068,16.001 C24.4727068,15.942 24.6787068,16.054 24.7377068,16.251 C24.8057068,16.474 24.8767068,16.698 24.9527068,16.922 L24.9537068,16.926" id="Fill-625" fill="#203342"></path><path d="M26.8857068,20.36 C27.1747068,20.731 27.0537068,21.273 26.6287068,21.475 L25.5967068,21.966 L24.4587068,22.505 L23.8257068,21.172 L24.9627068,20.632 L25.9917068,20.143 C26.2987068,19.997 26.6677068,20.08 26.8767068,20.348 L26.8857068,20.36" id="Fill-626" fill="#203342"></path><path d="M29.6957068,23.253 C30.0607068,23.566 30.0347068,24.139 29.6377068,24.411 L28.7927068,24.989 L27.7517068,25.702 L26.9197068,24.485 L27.9557068,23.775 L28.8027068,23.197 C29.0737068,23.013 29.4357068,23.029 29.6837068,23.243 L29.6957068,23.253" id="Fill-627" fill="#203342"></path><path d="M33.1457068,25.939 C33.6087068,26.16 33.7097068,26.774 33.3357068,27.126 L32.5667068,27.849 L31.6477068,28.712 L30.6377068,27.638 L31.5537068,26.778 L32.3307068,26.058 C32.5467068,25.857 32.8647068,25.805 33.1317068,25.933 L33.1457068,25.939" id="Fill-628" fill="#203342"></path><path d="M36.7267068,27.842 C37.1047068,28.032 37.2387068,28.506 37.0197068,28.868 L36.9357068,29.007 L36.2867068,30.084 L35.0247068,29.323 L35.6737068,28.244 L35.7577068,28.106 C35.9557068,27.779 36.3717068,27.663 36.7137068,27.835 L36.7267068,27.842" id="Fill-629" fill="#203342"></path><path d="M41.0307068,29.687 L40.9597068,29.911 L40.5797068,31.112 L39.1757068,30.666 L39.5547068,29.465 L39.6517068,29.165 C40.1197068,29.353 40.5797068,29.529 41.0307068,29.687" id="Fill-630" fill="#203342"></path><path d="M22.1997068,12.532 C22.1997068,13.137 21.7097068,13.627 21.1047068,13.627 C20.4997068,13.627 20.0097068,13.137 20.0097068,12.532 C20.0097068,11.928 20.4997068,11.437 21.1047068,11.437 C21.7097068,11.437 22.1997068,11.928 22.1997068,12.532" id="Fill-631" fill="#BCBEC0"></path><path d="M22.9887068,17.155 C23.1617068,17.734 22.8327068,18.345 22.2527068,18.518 C21.6737068,18.691 21.0637068,18.362 20.8897068,17.783 C20.7167068,17.203 21.0457068,16.593 21.6247068,16.42 C22.2047068,16.246 22.8147068,16.575 22.9887068,17.155" id="Fill-632" fill="#BCBEC0"></path><path d="M25.2277068,21.323 C25.4867068,21.869 25.2547068,22.523 24.7077068,22.782 C24.1617068,23.042 23.5087068,22.809 23.2487068,22.263 C22.9897068,21.717 23.2217068,21.063 23.7677068,20.804 C24.3147068,20.544 24.9677068,20.777 25.2277068,21.323" id="Fill-633" fill="#BCBEC0"></path><path d="M28.3267068,24.415 C28.6677068,24.915 28.5407068,25.596 28.0407068,25.938 C27.5417068,26.279 26.8607068,26.151 26.5187068,25.652 C26.1777068,25.153 26.3057068,24.471 26.8047068,24.13 C27.3037068,23.788 27.9847068,23.916 28.3267068,24.415" id="Fill-634" fill="#BCBEC0"></path><path d="M32.0177068,27.353 C32.4327068,27.794 32.4117068,28.487 31.9707068,28.901 C31.5307068,29.316 30.8377068,29.295 30.4227068,28.854 C30.0087068,28.414 30.0297068,27.721 30.4697068,27.306 C30.9107068,26.891 31.6037068,26.913 32.0177068,27.353" id="Fill-635" fill="#BCBEC0"></path><path d="M36.2757068,28.675 C36.7937068,28.988 36.9597068,29.661 36.6467068,30.179 C36.3347068,30.696 35.6617068,30.863 35.1437068,30.55 C34.6257068,30.238 34.4597068,29.565 34.7717068,29.047 C35.0847068,28.529 35.7577068,28.363 36.2757068,28.675" id="Fill-636" fill="#BCBEC0"></path><g id="Group-640" transform="translate(0.574707, 29.533000)"><mask id="mask-4" fill="white"><use xlink:href="#path-3"></use></mask><g id="Clip-638"></g><path d="M39.666,0.211 C40.242,0.394 40.562,1.009 40.379,1.586 C40.197,2.163 39.581,2.482 39.004,2.299 C38.428,2.117 38.108,1.501 38.291,0.925 C38.474,0.348 39.089,0.029 39.666,0.211" id="Fill-637" fill="#BCBEC0" mask="url(#mask-4)"></path><path d="M51.862,11.055 L48.935,12.455 L48.426,11.692 L46.39,12.073 L46.518,13.219 L43.209,13.982 L43.082,13.091 L39.901,13.6 L39.901,14.618 L36.72,14.745 L36.72,13.982 L34.175,13.982 L33.539,14.618 L30.358,14.618 L29.977,13.727 L28.45,13.346 L28.068,14.109 L26.287,13.346 L26.287,12.837 L22.597,12.201 L22.088,12.71 L19.543,12.71 L19.543,12.073 L16.871,12.964 L16.108,14.873 L14.199,14.873 L14.199,14.109 L12.672,14.109 L12.672,15 L9.618,15 L9.618,13.982 L7.964,13.982 L7.964,15 L4.147,15 L4.147,13.855 L2.748,13.473 L2.111,14.109 L0.33,12.328 L0.442,11.178 C3.15,12.137 8.728,13.761 13.436,12.837 C19.925,11.564 22.215,10.674 28.068,12.073 C32.939,13.239 44.243,12.465 51.711,9.75 L51.862,11.055" id="Fill-639" fill="#203342" mask="url(#mask-4)"></path></g><path d="M18.3367068,40.079 C13.6947068,43.51 6.01170676,41.66 1.12870676,39.543 L1.21270676,38.67 C4.01670676,39.364 12.4707068,41.232 18.3367068,40.079" id="Fill-641" fill="#BCBEC0"></path><path d="M7.05570676,27.185 C6.32770676,27.185 5.73970676,26.597 5.73970676,25.872 C5.73970676,25.144 6.32770676,24.556 7.05570676,24.556 C7.78070676,24.556 8.36870676,25.144 8.36870676,25.872 C8.36870676,26.597 7.78070676,27.185 7.05570676,27.185 Z M7.05570676,23.709 C5.85970676,23.709 4.89270676,24.676 4.89270676,25.872 C4.89270676,27.066 5.85970676,28.035 7.05570676,28.035 C8.24870676,28.035 9.21870676,27.066 9.21870676,25.872 C9.21870676,24.676 8.24870676,23.709 7.05570676,23.709 L7.05570676,23.709 Z" id="Fill-642" fill="#F15A29"></path></g></g></g></svg>