<svg width="187px" height="242px" viewBox="0 0 187 242" version="1.1" xmlns="http://www.w3.org/2000/svg" xmlns:xlink="http://www.w3.org/1999/xlink"><title>Group 2</title><desc>Created with Sketch.</desc><g id="Page-1" stroke="none" stroke-width="1" fill="none" fill-rule="evenodd"><g id="v660-mon-22-travelbadge" transform="translate(-474.000000, -79.000000)"><g id="Group-2" transform="translate(474.794420, 79.045554)"><path d="M92.4425796,4.00044589 C50.6955796,4.00044589 13.3685796,33.6364459 5.21757958,76.1214459 C-4.38442042,126.182446 44.5755796,209.395446 59.8095796,233.706446 C60.9415796,235.512446 62.7155796,236.727446 64.8025796,237.128446 C66.8855796,237.527446 68.9865796,237.055446 70.7065796,235.796446 C93.8555796,218.849446 170.13158,159.662446 179.73558,109.597446 C184.20658,86.2904459 179.33358,62.6364459 166.01358,42.9944459 C152.69458,23.3514459 132.52258,10.0714459 109.21558,5.60144589 C103.58658,4.52144589 97.9745796,4.00044589 92.4425796,4.00044589 Z M66.2135796,241.261446 C65.4905796,241.261446 64.7655796,241.194446 64.0495796,241.056446 C60.9045796,240.453446 58.1245796,238.548446 56.4215796,235.830446 C40.9905796,211.206446 -8.58742042,126.862446 1.29057958,75.3674459 C10.9355796,25.0874459 59.6865796,-7.97255411 109.96858,1.67244589 C134.32558,6.34444589 155.40558,20.2224459 169.32458,40.7494459 C183.24358,61.2754459 188.33658,85.9944459 183.66358,110.351446 C173.78558,161.848446 96.5155796,221.859446 73.0695796,239.024446 C71.0715796,240.486446 68.6565796,241.261446 66.2135796,241.261446 L66.2135796,241.261446 Z" id="Fill-41" fill="#4D4D4D"></path><path d="M65.8265796,230.581446 C65.6505796,230.503446 65.5105796,230.380446 65.4005796,230.203446 C50.4885796,206.408446 2.54757958,125.061446 11.6975796,77.3634459 C15.8365796,55.7864459 28.1305796,37.1124459 46.3145796,24.7824459 C64.4985796,12.4514459 86.3955796,7.94044589 107.97258,12.0794459 C114.12858,13.2604459 120.12758,15.1304459 125.80258,17.6384459 C142.52758,25.0284459 156.49558,38.0464459 165.13458,54.2954459 C174.02458,71.0174459 176.83358,89.7114459 173.25658,108.354446 C164.10758,156.053446 89.4675796,213.885446 66.8095796,230.474446 C66.3935796,230.779446 65.9835796,230.651446 65.8265796,230.581446" id="Fill-42" fill="#E7C579"></path><path d="M160.69558,105.945446 C153.46858,143.621446 117.06758,168.305446 79.3905796,161.078446 C41.7145796,153.850446 17.0305796,117.449446 24.2585796,79.7734459 C31.4855796,42.0974459 67.8875796,17.4134459 105.56358,24.6404459 C143.23958,31.8674459 167.92358,68.2694459 160.69558,105.945446" id="Fill-43" fill="#EFE9E6"></path></g></g></g></svg>