<svg width="146px" height="155px" viewBox="0 0 146 155" version="1.1" xmlns="http://www.w3.org/2000/svg" xmlns:xlink="http://www.w3.org/1999/xlink"><title>Group</title><desc>Created with Sketch.</desc><defs><path d="M1.79,1.61 C1.122,1.61 0.576,1.371 0.556,1.01 C0.536,0.641 1.108,0.279 1.835,0.264 C1.852,0.263 1.87,0.263 1.887,0.263 C2.589,0.263 3.141,0.593 3.13,0.954 C3.118,1.327 2.545,1.594 1.85,1.61 C1.83,1.61 1.81,1.61 1.79,1.61 L1.79,1.61 Z" id="path-1"></path><path d="M60.915,63.36 L67.428,63.396 C66.717,49.276 56.3,19.291 52.894,9.812 C51.368,1.779 42.417,1.779 42.417,1.779 L28.226,0.731 C28.226,0.731 23.494,0.182 5.904,9.927 C-4.809,15.863 5.23,40.812 5.23,40.812 L12.228,38.601 C12.228,38.601 8.692,28.716 9.824,19.777 C9.929,18.95 18.562,15.923 24.85,13.824 L26.908,22.118 C27.705,25.332 28.14,29.096 26.198,31.777 C21.969,37.617 28.485,36.955 28.485,36.955 L46.432,42.611 C46.432,42.611 49.131,44.8 48.904,39.357 L48.335,23.34 L48.381,21.229 C55.777,35.518 60.915,63.36 60.915,63.36" id="path-3"></path></defs><g id="Page-1" stroke="none" stroke-width="1" fill="none" fill-rule="evenodd"><g id="639" transform="translate(-54.000000, -62.000000)"><g id="Group" transform="translate(54.000000, 62.592394)"><path d="M26.81,27.1386059 C26.81,27.1386059 21.329,27.7546059 19.604,33.2776059 C17.879,38.8016059 13.174,72.7876059 18.35,76.3386059 C23.525,79.8906059 30.371,74.7546059 30.371,74.7546059 L27.949,27.8496059" id="Fill-3" fill="#26354D"></path><path d="M15.72,65.0406059 L0.95,70.4356059 L3.944,78.6316059 L18.713,73.2376059 C20.942,72.4236059 22.079,69.9286059 21.252,67.6656059 C20.425,65.4016059 17.948,64.2266059 15.72,65.0406059" id="Fill-4" fill="#72C4C2"></path><polyline id="Fill-5" fill="#283F7C" points="20.943 67.0026059 22.018 66.6096059 22.726 68.5496059 21.517 68.9916059 20.943 67.0026059"></polyline><polyline id="Fill-6" fill="#DACFB7" points="12.915 66.0656059 15.909 74.2616059 11.644 75.8196059 8.65 67.6226059 12.915 66.0656059"></polyline><polyline id="Fill-7" fill="#EFA78C" points="9.348 61.6976059 9.404 61.7506059 9.443 61.7426059 9.348 61.6976059"></polyline><path d="M11.916,66.6136059 L11.908,66.6096059 L11.942,66.5926059 L11.996,66.5666059 L13.882,65.6276059 L13.888,65.6286059 C13.483,65.4636059 13.102,65.2436059 12.764,64.9636059 C11.299,63.7526059 10.637,62.8996059 10.637,62.8996059 L9.404,61.7506059 L4.288,62.7756059 C4.288,62.7756059 5.423,70.2916059 6.272,72.9276059 C7.1,75.5016059 7.332,75.4306059 7.615,75.2836059 C8.376,74.8866059 6.329,70.6996059 7.291,71.3446059 C8.253,71.9896059 9.198,76.7566059 9.977,76.3096059 C10.991,75.7266059 8.768,71.3826059 8.608,71.0016059 C8.451,70.6306059 8.992,70.3746059 9.119,70.7266059 C9.302,71.2326059 11.349,76.5036059 12.35,75.9416059 C12.905,75.6296059 12.253,74.6836059 12.253,74.6836059 C12.253,74.6836059 9.975,69.8936059 10.456,69.6436059 C10.945,69.3896059 12.378,72.1576059 12.795,73.1256059 C13.207,74.0806059 13.829,74.2736059 14.101,73.7396059 C14.286,73.3756059 13.079,70.3816059 12.644,69.4356059 C12.305,68.6956059 11.482,66.9706059 11.916,66.6136059" id="Fill-8" fill="#EFA78C"></path><path d="M50.381,104.370606 C45.833,125.272606 17.316,146.258606 17.316,146.258606 L10.36,138.833606 C10.36,138.833606 33.168,114.712606 34.194,105.163606 C35.222,95.6126059 28.914,82.9216059 28.914,82.9216059 L37.192,79.3976059 L50.381,104.370606" id="Fill-9" fill="#2D345D"></path><path d="M35.777,93.911279 C35.81,93.9026059 35.884,94.0796059 35.997,94.4256059 C36.051,94.6026059 36.117,94.8176059 36.194,95.0696059 C36.274,95.3246059 36.354,95.6206059 36.416,95.9616059 C36.483,96.3026059 36.559,96.6796059 36.641,97.0926059 C36.706,97.5086059 36.753,97.9646059 36.815,98.4536059 C36.916,99.4336059 36.972,100.557606 36.937,101.799606 C36.934,101.954606 36.932,102.111606 36.929,102.271606 C36.918,102.429606 36.906,102.589606 36.894,102.752606 C36.87,103.076606 36.845,103.407606 36.82,103.746606 C36.751,104.420606 36.655,105.120606 36.543,105.841606 C36.402,106.558606 36.285,107.306606 36.084,108.059606 C35.987,108.435606 35.907,108.823606 35.793,109.206606 C35.678,109.590606 35.562,109.979606 35.445,110.372606 C34.937,111.933606 34.337,113.554606 33.562,115.164606 C32.794,116.777606 31.9,118.399606 30.877,119.994606 C28.81,123.165606 26.496,125.938606 24.253,128.307606 C22.009,130.679606 19.854,132.672606 18.011,134.301606 C16.167,135.929606 14.638,137.201606 13.567,138.063606 C12.496,138.924606 11.882,139.374606 11.838,139.324606 C11.794,139.273606 12.324,138.726606 13.318,137.778606 C14.324,136.830606 15.767,135.471606 17.546,133.795606 C19.323,132.108606 21.415,130.076606 23.598,127.697606 C25.78,125.321606 28.035,122.575606 30.062,119.466606 C31.061,117.907606 31.94,116.325606 32.702,114.755606 C33.472,113.187606 34.074,111.612606 34.593,110.097606 C34.714,109.714606 34.833,109.337606 34.951,108.965606 C35.069,108.593606 35.153,108.217606 35.255,107.851606 C35.466,107.121606 35.595,106.395606 35.75,105.699606 C35.876,104.998606 35.987,104.318606 36.075,103.663606 C36.109,103.334606 36.144,103.011606 36.177,102.696606 C36.194,102.538606 36.211,102.382606 36.227,102.228606 C36.235,102.073606 36.243,101.920606 36.25,101.768606 C36.329,100.558606 36.321,99.4586059 36.273,98.4956059 C36.238,98.0146059 36.219,97.5646059 36.181,97.1516059 C36.131,96.7416059 36.085,96.3666059 36.044,96.0276059 C36.011,95.6876059 35.961,95.3886059 35.912,95.1296059 C35.871,94.8736059 35.836,94.6536059 35.807,94.4716059 C35.756,94.1136059 35.745,93.9206059 35.777,93.911279" id="Fill-10" fill="#2D3059"></path><path d="M43.768,9.30660585 C45.322,9.48860585 45.914,11.4436059 45.897,13.0076059 C45.88,14.5726059 45.714,16.3896059 46.873,17.4406059 C47.586,18.0856059 48.708,18.3196059 49.116,19.1896059 C49.541,20.0946059 48.944,21.1716059 49.142,22.1506059 C49.383,23.3456059 50.661,23.9736059 51.48,24.8756059 C52.451,25.9466059 52.784,27.4766059 52.69,28.9196059 C52.596,30.3616059 52.12,31.7486059 51.649,33.1146059 L39.855,29.7106059 L40.414,9.30660585 L43.768,9.30660585" id="Fill-11" fill="#17152A"></path><path d="M61.604,86.7396059 L60.94,88.3736059 C60.94,88.3736059 60.698,89.4246059 59.88,91.1406059 C59.668,91.5866059 59.377,91.9896059 59.028,92.3376059 C58.605,92.7606059 58.019,93.2986059 57.608,93.4946059 C57.098,93.7356059 57.147,94.4716059 57.65,94.5676059 C58.153,94.6646059 59.574,94.0326059 60.74,92.6396059 C61.905,91.2456059 61.866,94.1046059 61.871,95.1466059 C61.875,96.1886059 62.04,99.4106059 62.361,99.6636059 C62.833,100.033606 63.316,99.5966059 63.288,98.5566059 C63.258,97.5036059 63.393,94.3896059 63.943,94.4136059 C64.485,94.4376059 64.435,99.7426059 64.435,99.7426059 C64.435,99.7426059 64.241,100.874606 64.876,100.923606 C66.022,101.012606 65.659,95.3696059 65.612,94.8336059 C65.579,94.4606059 66.177,94.4656059 66.192,94.8676059 C66.207,95.2816059 66.019,100.157606 67.184,100.258606 C68.078,100.336606 66.929,95.6146059 67.53,94.6246059 C68.131,93.6346059 68.038,98.2946059 68.895,98.3336059 C69.214,98.3476059 69.454,98.3146059 69.122,95.6306059 C68.781,92.8826059 66.647,85.5876059 66.647,85.5876059 L61.536,86.8206059" id="Fill-12" fill="#EFA78C"></path><path d="M60.915,89.7676059 L67.428,89.8036059 C66.717,75.6836059 56.3,45.6986059 52.894,36.2196059 C51.368,28.1866059 42.417,28.1866059 42.417,28.1866059 L28.226,27.1386059 C28.226,27.1386059 23.494,26.5896059 5.904,36.3356059 C-4.809,42.2706059 5.23,67.2196059 5.23,67.2196059 L12.228,65.0086059 C12.228,65.0086059 8.691,55.1236059 9.824,46.1846059 C9.929,45.3576059 18.562,42.3306059 24.85,40.2316059 L26.908,48.5256059 C27.705,51.7396059 28.14,55.5036059 26.198,58.1846059 C21.969,64.0246059 32.518,63.9126059 32.518,63.9126059 L49.078,69.8526059 C49.078,69.8526059 49.131,71.2076059 48.904,65.7646059 L48.335,49.7476059 L48.381,47.6366059 C55.777,61.9256059 60.915,89.7676059 60.915,89.7676059" id="Fill-13" fill="#F1AC4A"></path><path d="M29.98,2.79160585 C30.408,2.97860585 30.94,2.77460585 31.285,2.46060585 C31.63,2.14460585 31.804,1.65260585 31.734,1.18960585 C31.608,0.372605851 30.651,-0.209394149 29.873,0.0716058511 C29.095,0.352605851 28.734,1.42960585 29.198,2.11460585 C29.198,2.11460585 29.517,2.58960585 29.98,2.79160585" id="Fill-14" fill="#DA5348"></path><path d="M40.213,28.1866059 C40.065,27.3276059 40.414,23.7186059 40.414,23.7186059 C40.414,23.7186059 43.709,23.3696059 43.909,20.1026059 C44.109,16.8346059 43.909,9.30060585 43.909,9.30060585 L37.908,6.36660585 L31.306,11.3676059 L32.307,27.7036059 L40.213,28.1866059" id="Fill-15" fill="#EFA78C"></path><path d="M31.809,13.8876059 C31.809,13.8876059 37.197,13.3786059 38.15,8.48760585 L43.998,13.8876059 C43.998,13.8876059 45.773,10.2666059 42.533,6.89960585 C39.294,3.53360585 37.07,4.23160585 35.8,4.23160585 C34.615,4.23160585 28.627,5.50160585 26.844,12.3156059 C26.715,12.8106059 26.59,13.5036059 26.784,14.4406059 L31.809,13.8876059" id="Fill-16" fill="#17152A"></path><path d="M43.253,14.7926059 C43.253,15.0236059 43.066,15.2106059 42.835,15.2106059 C42.604,15.2106059 42.417,15.0236059 42.417,14.7926059 C42.417,14.5616059 42.604,14.3746059 42.835,14.3746059 C43.066,14.3746059 43.253,14.5616059 43.253,14.7926059" id="Fill-17" fill="#17152A"></path><path d="M43.658,14.3366059 C43.604,14.3906059 43.295,14.1276059 42.845,14.1036059 C42.395,14.0726059 42.057,14.2956059 42.01,14.2356059 C41.987,14.2096059 42.043,14.1096059 42.191,14.0076059 C42.336,13.9066059 42.581,13.8146059 42.862,13.8316059 C43.142,13.8486059 43.375,13.9706059 43.507,14.0876059 C43.641,14.2066059 43.684,14.3126059 43.658,14.3366059" id="Fill-18" fill="#17152A"></path><path d="M38.407,14.7926059 C38.407,15.0236059 38.22,15.2106059 37.989,15.2106059 C37.758,15.2106059 37.571,15.0236059 37.571,14.7926059 C37.571,14.5616059 37.758,14.3746059 37.989,14.3746059 C38.22,14.3746059 38.407,14.5616059 38.407,14.7926059" id="Fill-19" fill="#17152A"></path><path d="M38.667,14.3366059 C38.613,14.3906059 38.304,14.1276059 37.854,14.1036059 C37.404,14.0726059 37.066,14.2956059 37.019,14.2356059 C36.996,14.2096059 37.052,14.1096059 37.2,14.0076059 C37.345,13.9066059 37.59,13.8146059 37.871,13.8316059 C38.151,13.8486059 38.383,13.9706059 38.515,14.0876059 C38.65,14.2066059 38.693,14.3126059 38.667,14.3366059" id="Fill-20" fill="#17152A"></path><path d="M40.291,18.1396059 C40.29,18.1126059 40.572,18.0776059 41.028,18.0426059 C41.143,18.0366059 41.253,18.0186059 41.275,17.9386059 C41.305,17.8536059 41.261,17.7206059 41.21,17.5786059 C41.112,17.2816059 41.009,16.9706059 40.901,16.6456059 C40.473,15.3176059 40.167,14.2286059 40.218,14.2126059 C40.269,14.1956059 40.658,15.2576059 41.086,16.5856059 C41.189,16.9126059 41.287,17.2246059 41.38,17.5226059 C41.419,17.6626059 41.489,17.8206059 41.424,17.9976059 L41.229,18.1626059 L41.033,18.1796059 C40.576,18.1796059 40.292,18.1666059 40.291,18.1396059" id="Fill-21" fill="#17152A"></path><g id="Group-24" transform="translate(35.000000, 17.407606)"><mask id="mask-2" fill="white"><use xlink:href="#path-1"></use></mask><g id="Clip-23"></g><polygon id="Fill-22" fill="#ED9A83" mask="url(#mask-2)" points="0.536 1.61 3.142 1.61 3.142 0.263 0.536 0.263"></polygon></g><path d="M38.804,18.5656059 C38.349,18.2626059 40.062,19.3146059 40.981,19.3146059 C40.981,19.3146059 40.414,20.1286059 39.488,19.7386059 C38.527,19.3326059 38.804,18.5656059 38.804,18.5656059" id="Fill-25" fill="#EEE5D9"></path><path d="M40.414,23.7186059 C40.414,23.7186059 38.213,23.7426059 36.085,22.2566059 C36.085,22.2566059 37.066,24.6546059 40.343,24.5196059 L40.414,23.7186059" id="Fill-26" fill="#E88173"></path><path d="M24.33,62.0536059 C24.073,62.0676059 21.239,70.4096059 23.947,75.9536059 C24.22,76.5106059 26.345,79.5686059 26.345,79.5686059 C31.954,88.1776059 42.871,109.055606 43.295,112.018606 C43.807,115.606606 50.381,152.218606 50.381,152.218606 L61.698,151.666606 L57.033,106.492606 L46.432,69.0186059 L24.33,62.0536059" id="Fill-27" fill="#283F7C"></path><path d="M37.989,8.09660585 C37.989,8.09660585 39.186,10.4096059 38.674,12.1516059 L43.913,13.5036059 C43.913,13.5036059 45.107,6.86360585 37.989,8.09660585" id="Fill-28" fill="#17152A"></path><path d="M63.988,151.564606 C63.988,151.564606 71.315,153.376606 69.626,153.888606 C67.938,154.400606 56.173,153.132606 56.173,153.132606 L55.782,151.794606 L63.988,151.564606" id="Fill-29" fill="#DACFB7"></path><path d="M15.872,144.717606 C15.872,144.717606 19.254,151.465606 17.767,150.514606 C16.281,149.563606 9.332,139.515606 9.332,139.515606 L11.239,138.036606 L15.872,144.717606" id="Fill-30" fill="#DACFB7"></path><path d="M26.724,12.1966059 C27.316,9.96460585 28.223,7.83160585 29.127,5.70660585 C29.626,4.53160585 30.162,3.30760585 31.154,2.50360585 C32.326,1.55360585 33.968,1.35560585 35.452,1.63060585 C36.935,1.90560585 38.303,2.59860585 39.647,3.28260585 C40.845,3.89260585 42.066,4.51960585 43.007,5.47960585 C43.948,6.44160585 44.694,8.19660585 44.428,9.51460585 L26.724,12.1966059" id="Fill-31" fill="#E36B5B"></path><path d="M26.724,12.1966059 L27.117,10.8616059 L44.268,7.64860585 C44.268,7.64860585 44.738,8.55560585 44.428,9.51460585 L26.724,12.1966059" id="Fill-32" fill="#DA5348"></path><path d="M27.696,12.0696059 C27.695,12.0696059 27.694,12.0686059 27.693,12.0686059 C27.687,12.0676059 27.681,12.0626059 27.677,12.0526059 L27.725,12.0456059 C27.715,12.0606059 27.705,12.0696059 27.696,12.0696059" id="Fill-33" fill="#311925"></path><path d="M27.862,10.7216059 C27.867,10.7176059 27.872,10.7146059 27.877,10.7146059 C27.878,10.7146059 27.878,10.7146059 27.879,10.7146059 C27.881,10.7156059 27.883,10.7166059 27.886,10.7176059 L27.862,10.7216059" id="Fill-34" fill="#C84C45"></path><path d="M27.677,12.0526059 C27.641,11.9836059 27.645,11.7056059 27.69,11.3786059 C27.735,11.0436059 27.809,10.7686059 27.862,10.7216059 L27.886,10.7176059 C27.932,10.7476059 27.931,11.0456059 27.882,11.4046059 C27.84,11.7136059 27.776,11.9686059 27.725,12.0456059 L27.677,12.0526059" id="Fill-35" fill="#B63F3D"></path><path d="M28.876,11.8116059 L28.876,11.8116059 C28.822,11.8106059 28.781,11.5186059 28.814,11.1606059 C28.845,10.8076059 28.935,10.5316059 28.987,10.5316059 C28.988,10.5316059 28.989,10.5316059 28.99,10.5316059 C29.043,10.5406059 29.038,10.8286059 29.007,11.1776059 C28.976,11.5276059 28.93,11.8116059 28.876,11.8116059" id="Fill-36" fill="#B63F3D"></path><path d="M29.999,11.6646059 C29.998,11.6646059 29.998,11.6646059 29.997,11.6646059 C29.944,11.6596059 29.947,11.3506059 30.005,10.9746059 C30.061,10.6056059 30.149,10.3136059 30.202,10.3136059 C30.203,10.3136059 30.204,10.3136059 30.205,10.3146059 C30.257,10.3256059 30.254,10.6336059 30.197,11.0036059 C30.141,11.3716059 30.052,11.6646059 29.999,11.6646059" id="Fill-37" fill="#B63F3D"></path><path d="M31.293,11.5366059 L31.292,11.5366059 C31.283,11.5356059 31.275,11.5256059 31.269,11.5086059 L31.327,11.4996059 C31.315,11.5236059 31.304,11.5366059 31.293,11.5366059" id="Fill-38" fill="#311925"></path><path d="M31.269,11.5086059 C31.237,11.4196059 31.237,11.1286059 31.274,10.7866059 C31.317,10.3826059 31.394,10.0586059 31.447,10.0586059 C31.448,10.0586059 31.448,10.0586059 31.449,10.0586059 C31.502,10.0636059 31.51,10.3986059 31.467,10.8076059 C31.432,11.1316059 31.376,11.4036059 31.327,11.4996059 L31.269,11.5086059" id="Fill-39" fill="#B63F3D"></path><path d="M32.89,9.78060585 C32.897,9.76960585 32.904,9.76460585 32.91,9.76460585 C32.911,9.76460585 32.911,9.76460585 32.911,9.76460585 C32.916,9.76460585 32.921,9.76760585 32.925,9.77360585 L32.89,9.78060585" id="Fill-40" fill="#C84C45"></path><path d="M32.83,11.2626059 L32.83,11.2626059 C32.776,11.2596059 32.751,10.9226059 32.774,10.5086059 C32.793,10.1486059 32.842,9.84960585 32.89,9.78060585 L32.925,9.77360585 C32.969,9.82960585 32.988,10.1426059 32.967,10.5196059 C32.945,10.9306059 32.884,11.2626059 32.83,11.2626059" id="Fill-41" fill="#B63F3D"></path><path d="M34.088,11.1186059 L34.087,11.1186059 C34.077,11.1176059 34.069,11.1056059 34.063,11.0846059 L34.126,11.0756059 C34.112,11.1036059 34.099,11.1186059 34.088,11.1186059" id="Fill-42" fill="#311925"></path><path d="M34.063,11.0846059 C34.035,10.9866059 34.04,10.6896059 34.05,10.3396059 C34.064,9.91660585 34.079,9.56960585 34.133,9.56560585 C34.134,9.56460585 34.134,9.56460585 34.135,9.56460585 C34.187,9.56460585 34.258,9.91260585 34.245,10.3456059 C34.235,10.6856059 34.176,10.9706059 34.126,11.0756059 L34.063,11.0846059" id="Fill-43" fill="#B63F3D"></path><path d="M35.612,9.27060585 C35.621,9.24760585 35.631,9.23560585 35.641,9.23560585 C35.642,9.23560585 35.642,9.23560585 35.642,9.23560585 C35.651,9.23560585 35.659,9.24460585 35.666,9.26060585 L35.612,9.27060585" id="Fill-44" fill="#C84C45"></path><path d="M35.637,10.7336059 C35.584,10.7336059 35.542,10.3996059 35.543,9.98360585 C35.544,9.64860585 35.573,9.36560585 35.612,9.27060585 L35.666,9.26060585 C35.708,9.34460585 35.738,9.63760585 35.737,9.98560585 C35.735,10.3946059 35.691,10.7306059 35.637,10.7336059" id="Fill-45" fill="#B63F3D"></path><path d="M37.287,8.95660585 C37.294,8.94760585 37.3,8.94360585 37.306,8.94360585 C37.307,8.94360585 37.308,8.94360585 37.308,8.94360585 C37.312,8.94460585 37.315,8.94660585 37.319,8.95060585 L37.287,8.95660585" id="Fill-46" fill="#C84C45"></path><path d="M37.184,10.5686059 C37.131,10.5686059 37.083,10.2006059 37.118,9.74660585 C37.148,9.34860585 37.231,9.02460585 37.287,8.95660585 L37.319,8.95060585 C37.359,9.00460585 37.343,9.34760585 37.312,9.76160585 C37.277,10.2056059 37.238,10.5676059 37.184,10.5686059" id="Fill-47" fill="#B63F3D"></path><path d="M38.708,10.4046059 C38.701,10.4046059 38.693,10.3976059 38.685,10.3846059 L38.729,10.3776059 C38.724,10.3946059 38.717,10.4036059 38.71,10.4046059 C38.709,10.4046059 38.709,10.4046059 38.708,10.4046059" id="Fill-48" fill="#C76A5B"></path><path d="M38.56,8.71860585 C38.572,8.66360585 38.587,8.63260585 38.602,8.63260585 C38.615,8.63260585 38.628,8.65760585 38.64,8.70360585 L38.56,8.71860585" id="Fill-49" fill="#C84C45"></path><path d="M38.685,10.3846059 C38.631,10.2986059 38.554,9.95060585 38.528,9.52660585 C38.506,9.16960585 38.527,8.86160585 38.56,8.71860585 L38.64,8.70360585 C38.674,8.83860585 38.7,9.15160585 38.722,9.51460585 C38.747,9.92960585 38.76,10.2806059 38.729,10.3776059 L38.685,10.3846059" id="Fill-50" fill="#B63F3D"></path><path d="M40.164,10.1876059 C40.156,10.1876059 40.148,10.1796059 40.139,10.1646059 L40.187,10.1566059 C40.181,10.1766059 40.174,10.1866059 40.165,10.1876059 L40.164,10.1876059" id="Fill-51" fill="#311925"></path><path d="M40.139,10.1646059 C40.088,10.0756059 40.026,9.74460585 39.989,9.34660585 C39.945,8.87660585 39.953,8.49160585 40.006,8.48660585 L40.007,8.48660585 C40.061,8.48660585 40.139,8.86160585 40.182,9.32860585 C40.219,9.72260585 40.22,10.0566059 40.187,10.1566059 L40.139,10.1646059" id="Fill-52" fill="#B63F3D"></path><path d="M41.331,8.19960585 C41.339,8.17260585 41.348,8.15760585 41.358,8.15760585 C41.367,8.15760585 41.376,8.16860585 41.386,8.18860585 L41.331,8.19960585" id="Fill-53" fill="#C84C45"></path><path d="M41.453,9.91160585 C41.4,9.91160585 41.335,9.52360585 41.309,9.03960585 C41.288,8.64560585 41.298,8.31260585 41.331,8.19960585 L41.386,8.18860585 C41.432,8.29060585 41.481,8.62760585 41.503,9.02860585 C41.529,9.50960585 41.507,9.90460585 41.454,9.91160585 L41.453,9.91160585" id="Fill-54" fill="#B63F3D"></path><path d="M42.817,9.80060585 C42.808,9.80060585 42.797,9.78760585 42.787,9.76260585 L42.842,9.75460585 C42.836,9.78360585 42.828,9.79960585 42.818,9.80060585 L42.817,9.80060585" id="Fill-55" fill="#311925"></path><path d="M42.587,7.96360585 C42.593,7.89060585 42.605,7.84860585 42.621,7.84760585 L42.622,7.84760585 C42.637,7.84760585 42.656,7.88360585 42.675,7.94760585 L42.587,7.96360585" id="Fill-56" fill="#C84C45"></path><path d="M42.787,9.76260585 C42.734,9.64760585 42.668,9.27660585 42.623,8.83360585 C42.585,8.45860585 42.573,8.13060585 42.587,7.96360585 L42.675,7.94760585 C42.723,8.10460585 42.778,8.43260585 42.816,8.81460585 C42.861,9.25360585 42.869,9.62760585 42.842,9.75460585 L42.787,9.76260585" id="Fill-57" fill="#B63F3D"></path><polyline id="Fill-58" fill="#C8893B" points="4.889 67.3266059 12.228 65.0086059 11.337 62.0536059 4.288 64.6266059 4.889 67.3266059"></polyline><path d="M24.33,62.0536059 L49.078,69.8526059 L48.965,67.2196059 L25.477,59.3236059 C25.477,59.3236059 24.618,60.4786059 24.33,62.0536059" id="Fill-59" fill="#C8893B"></path><polyline id="Fill-60" fill="#C8893B" points="60.478 89.7646059 68.249 89.8076059 67.196 87.0816059 60.387 87.0816059 60.478 89.7646059"></polyline><g id="Group-68" transform="translate(0.000000, 26.407606)"><mask id="mask-4" fill="white"><use xlink:href="#path-3"></use></mask><g id="Clip-62"></g><path d="M67.0210741,42.527 C67.026,42.557 66.778,42.612 66.291,42.662 C65.806,42.667 65.068,42.62 64.19,42.304 C63.31,41.999 62.316,41.449 61.207,40.792 C60.65,40.467 60.062,40.112 59.422,39.791 C58.782,39.471 58.093,39.158 57.339,38.997 C57.154,38.938 56.96,38.934 56.767,38.9 C56.575,38.865 56.377,38.859 56.177,38.851 C55.776,38.849 55.36,38.879 54.932,38.934 C54.075,39.044 53.173,39.25 52.181,39.337 C51.686,39.377 51.166,39.389 50.634,39.307 C50.103,39.226 49.564,39.048 49.077,38.774 C48.093,38.223 47.362,37.356 46.7,36.502 C46.035,35.641 45.419,34.761 44.618,34.066 C43.823,33.356 42.872,32.786 41.834,32.392 C41.314,32.199 40.773,32.046 40.218,31.944 C39.662,31.848 39.095,31.801 38.524,31.807 C37.386,31.812 36.241,32.13 35.012,32.407 C34.398,32.544 33.765,32.663 33.111,32.701 C32.461,32.739 31.781,32.692 31.14,32.489 C29.844,32.084 28.889,31.24 27.97,30.567 C27.51,30.225 27.053,29.913 26.581,29.677 C26.112,29.437 25.613,29.293 25.103,29.22 C24.08,29.078 23.029,29.232 22.038,29.524 C20.044,30.095 18.29,31.177 16.453,31.857 C15.541,32.204 14.611,32.463 13.684,32.558 C13.22,32.603 12.76,32.604 12.312,32.563 C11.864,32.514 11.43,32.427 11.027,32.306 C10.223,32.065 9.509,31.762 8.831,31.544 C8.154,31.323 7.507,31.193 6.914,31.238 C6.322,31.284 5.807,31.509 5.353,31.798 C4.897,32.08 4.487,32.387 4.085,32.623 C3.275,33.112 2.494,33.226 1.999,33.122 C1.498,33.017 1.315,32.795 1.331,32.781 C1.352,32.742 1.568,32.896 2.024,32.928 C2.473,32.961 3.162,32.803 3.883,32.304 C4.249,32.056 4.632,31.734 5.1,31.41 C5.336,31.25 5.592,31.088 5.889,30.96 C6.184,30.83 6.515,30.742 6.861,30.698 C7.557,30.616 8.293,30.744 9.01,30.953 C9.732,31.159 10.454,31.44 11.212,31.645 C11.965,31.853 12.763,31.915 13.602,31.813 C14.438,31.708 15.296,31.454 16.161,31.106 C17.028,30.761 17.903,30.327 18.819,29.879 C19.741,29.43 20.719,28.988 21.785,28.666 C22.843,28.342 24.019,28.144 25.23,28.301 C25.831,28.381 26.441,28.554 26.996,28.832 C27.552,29.106 28.056,29.45 28.535,29.801 C29.487,30.501 30.385,31.253 31.421,31.564 C32.452,31.887 33.619,31.725 34.802,31.459 C35.983,31.195 37.222,30.846 38.51,30.841 C39.145,30.835 39.775,30.89 40.39,30.999 C41.004,31.114 41.6,31.286 42.173,31.502 C43.316,31.944 44.361,32.58 45.237,33.375 C46.131,34.169 46.775,35.119 47.411,35.959 C48.046,36.802 48.701,37.573 49.5,38.032 C49.897,38.262 50.321,38.41 50.764,38.487 C51.208,38.562 51.666,38.563 52.121,38.534 C53.034,38.472 53.942,38.286 54.844,38.19 C55.297,38.141 55.75,38.118 56.198,38.133 C56.423,38.146 56.645,38.159 56.862,38.203 C57.077,38.246 57.298,38.261 57.5,38.329 C58.333,38.533 59.056,38.89 59.71,39.244 C60.366,39.601 60.947,39.982 61.491,40.329 C62.573,41.03 63.506,41.607 64.327,41.951 C65.145,42.306 65.829,42.408 66.295,42.467 C66.762,42.479 67.016,42.492 67.0210741,42.527" id="Fill-61" fill="#C8893B" mask="url(#mask-4)"></path><path d="M66.91,33.942 C66.877,34 65.916,33.521 64.206,32.605 C63.352,32.14 62.311,31.574 61.104,30.917 C59.891,30.265 58.545,29.447 56.989,28.766 C56.212,28.428 55.374,28.139 54.48,27.98 C53.59,27.817 52.625,27.815 51.604,27.803 C50.587,27.788 49.488,27.776 48.365,27.467 C47.808,27.311 47.25,27.071 46.744,26.742 C46.243,26.41 45.788,26.011 45.379,25.579 C44.553,24.722 43.877,23.739 43.095,22.897 C42.316,22.062 41.384,21.301 40.31,21.073 C39.777,20.967 39.226,20.988 38.67,21.149 C38.114,21.304 37.559,21.561 36.991,21.846 C36.422,22.131 35.836,22.442 35.191,22.694 C34.554,22.954 33.82,23.114 33.091,23.106 C32.361,23.101 31.66,22.941 31.011,22.722 C30.36,22.502 29.756,22.223 29.169,21.952 C27.999,21.409 26.88,20.857 25.738,20.68 C24.602,20.492 23.442,20.68 22.36,21.064 C21.274,21.447 20.252,21.986 19.257,22.538 C17.293,23.668 15.259,24.765 13.112,25.008 C12.047,25.13 10.96,25.011 10.026,24.596 C9.082,24.188 8.396,23.568 7.658,23.267 C6.936,22.953 6.164,22.976 5.459,23.184 C4.754,23.395 4.114,23.735 3.527,24.075 C2.939,24.412 2.402,24.771 1.859,25.045 C1.32,25.318 0.802,25.52 0.318,25.646 C-0.651,25.909 -1.477,25.814 -1.961,25.602 C-2.451,25.392 -2.633,25.169 -2.618,25.155 C-2.593,25.117 -2.372,25.282 -1.898,25.417 C-1.428,25.555 -0.681,25.582 0.212,25.284 C0.658,25.138 1.139,24.921 1.64,24.638 C2.139,24.357 2.654,23.981 3.246,23.611 C3.835,23.24 4.492,22.856 5.278,22.594 C5.671,22.468 6.101,22.38 6.554,22.376 C7.004,22.373 7.482,22.452 7.918,22.632 C8.797,22.977 9.509,23.589 10.318,23.906 C11.126,24.244 12.061,24.332 13.016,24.208 C13.973,24.081 14.946,23.759 15.909,23.326 C16.876,22.895 17.815,22.333 18.818,21.758 C19.819,21.189 20.876,20.614 22.052,20.189 C23.218,19.763 24.553,19.526 25.888,19.74 C27.225,19.946 28.414,20.545 29.575,21.075 C30.73,21.609 31.904,22.129 33.1,22.135 C34.287,22.172 35.401,21.561 36.559,20.982 C37.142,20.692 37.751,20.406 38.419,20.222 C39.081,20.031 39.821,19.995 40.51,20.142 C41.198,20.295 41.817,20.61 42.354,20.988 C42.889,21.369 43.357,21.808 43.776,22.267 C44.618,23.194 45.27,24.162 46.028,24.963 C46.402,25.367 46.802,25.721 47.228,26.011 C47.655,26.296 48.116,26.502 48.601,26.646 C49.574,26.931 50.608,26.968 51.621,26.997 C52.635,27.028 53.648,27.046 54.619,27.244 C55.586,27.437 56.469,27.767 57.27,28.139 C58.873,28.891 60.188,29.751 61.374,30.446 C62.55,31.159 63.564,31.773 64.395,32.278 C66.046,33.294 66.943,33.884 66.91,33.942" id="Fill-63" fill="#C8893B" mask="url(#mask-4)"></path><path d="M65.803,18.67 C65.812,18.684 65.762,18.731 65.654,18.809 L65.448,18.95 C65.358,18.994 65.255,19.044 65.138,19.101 C64.897,19.205 64.583,19.299 64.2,19.354 C63.817,19.401 63.367,19.4 62.872,19.328 C61.881,19.178 60.726,18.723 59.548,17.953 C58.376,17.179 57.213,16.111 55.761,15.265 C55.039,14.845 54.23,14.513 53.357,14.412 C52.921,14.367 52.471,14.371 52.01,14.432 C51.549,14.497 51.08,14.606 50.604,14.742 C49.649,15.014 48.665,15.401 47.576,15.677 C46.493,15.964 45.259,16.032 44.081,15.813 C41.702,15.392 39.564,14.135 37.289,13.298 C36.153,12.882 34.962,12.579 33.774,12.645 C33.181,12.674 32.597,12.799 32.032,13.017 C31.464,13.237 30.91,13.535 30.359,13.873 C29.254,14.542 28.182,15.342 26.905,15.863 C26.268,16.118 25.572,16.285 24.867,16.287 C24.162,16.298 23.469,16.131 22.852,15.877 C21.61,15.362 20.627,14.58 19.634,13.966 C18.648,13.344 17.647,12.862 16.597,12.833 C15.548,12.785 14.507,13.077 13.562,13.502 C12.609,13.928 11.753,14.495 10.926,15.076 C10.1,15.658 9.302,16.248 8.481,16.755 C7.661,17.262 6.814,17.691 5.955,17.955 C4.237,18.493 2.599,18.524 1.214,18.403 C-0.178,18.278 -1.349,18.026 -2.293,17.791 C-3.236,17.553 -3.956,17.331 -4.443,17.174 C-4.928,17.013 -5.178,16.912 -5.16923468,16.88 C-5.151,16.807 -4.104,17.053 -2.212,17.422 C-1.266,17.598 -0.102,17.791 1.25,17.861 C2.597,17.929 4.154,17.845 5.737,17.304 C7.328,16.776 8.815,15.638 10.458,14.421 C11.283,13.819 12.181,13.201 13.206,12.726 C14.223,12.253 15.386,11.897 16.635,11.939 C17.255,11.955 17.89,12.096 18.472,12.327 C19.057,12.555 19.603,12.857 20.125,13.179 C21.168,13.819 22.135,14.562 23.209,14.995 C24.275,15.449 25.434,15.43 26.545,14.967 C27.659,14.513 28.706,13.743 29.854,13.043 C30.428,12.692 31.033,12.362 31.683,12.112 C32.331,11.861 33.033,11.711 33.721,11.68 C35.111,11.608 36.428,11.963 37.618,12.405 C38.815,12.851 39.921,13.39 41.009,13.858 C42.095,14.327 43.168,14.734 44.24,14.932 C45.315,15.138 46.357,15.097 47.375,14.847 C48.394,14.605 49.381,14.236 50.388,13.966 C50.892,13.831 51.402,13.722 51.915,13.66 C52.429,13.601 52.948,13.605 53.45,13.668 C54.458,13.806 55.352,14.207 56.11,14.673 C57.631,15.616 58.759,16.724 59.854,17.505 C60.95,18.281 62.024,18.761 62.94,18.956 C63.398,19.051 63.814,19.081 64.173,19.067 C64.532,19.044 64.834,18.986 65.071,18.917 C65.189,18.879 65.294,18.846 65.385,18.816 L65.606,18.722 C65.726,18.675 65.794,18.656 65.803,18.67" id="Fill-64" fill="#C8893B" mask="url(#mask-4)"></path><path d="M63.099,7.821 C63.06,7.903 62.356,7.487 60.955,7.261 C60.256,7.15 59.387,7.106 58.382,7.178 C57.375,7.243 56.24,7.437 54.984,7.71 C53.725,7.975 52.341,8.316 50.795,8.494 C50.024,8.584 49.21,8.618 48.369,8.559 C47.528,8.499 46.676,8.331 45.834,8.096 C44.145,7.634 42.488,6.903 40.752,6.367 C39.883,6.104 38.987,5.888 38.076,5.798 C37.166,5.701 36.238,5.742 35.356,5.979 C33.584,6.462 32.12,7.775 30.395,8.654 C29.54,9.104 28.562,9.417 27.572,9.42800997 C26.581,9.43 25.648,9.131 24.851,8.728 C23.247,7.91 22.03,6.806 20.765,6.042 C19.508,5.253 18.227,4.701 17.027,4.297 C14.614,3.501 12.522,3.37 11.099,3.378 C9.669,3.393 8.875,3.513 8.86088436,3.433 C8.85,3.381 9.624,3.134 11.082,3 C12.531,2.875 14.695,2.9 17.231,3.641 C18.492,4.018 19.846,4.556 21.183,5.354 C22.535,6.136 23.78,7.211 25.244,7.924 C25.972,8.279 26.758,8.51 27.563,8.5 C28.366,8.479 29.177,8.225 29.961,7.807 C30.749,7.401 31.52,6.865 32.345,6.349 C33.171,5.836 34.069,5.321 35.102,5.042 C36.126,4.766 37.178,4.727 38.174,4.836 C39.174,4.939 40.126,5.176 41.033,5.457 C42.845,6.034 44.474,6.773 46.078,7.236 C46.878,7.471 47.667,7.638 48.439,7.707 C49.212,7.777 49.975,7.761 50.714,7.693 C52.194,7.557 53.574,7.261 54.852,7.036 C56.128,6.804 57.313,6.65 58.358,6.636 C59.403,6.613 60.31,6.716 61.028,6.89 C61.747,7.066 62.278,7.29 62.617,7.478 C62.956,7.666 63.114,7.795 63.099,7.821" id="Fill-65" fill="#C8893B" mask="url(#mask-4)"></path><path d="M70.446,45.972 C70.501,46.009 70.413,46.256 70.191,46.668 C69.964,47.076 69.613,47.662 69.029,48.3 C68.448,48.925 67.589,49.622 66.386,49.889 C65.789,50.023 65.111,49.989 64.48,49.811 C63.848,49.629 63.261,49.327 62.71,49.001 C62.155,48.675 61.649,48.348 61.152,48.081 C60.654,47.816 60.173,47.63 59.681,47.519 C58.699,47.298 57.757,47.352 57.002,47.531 C55.47,47.884 54.693,48.597 54.59,48.47 C54.568,48.445 54.595,48.38 54.669,48.276 C54.74,48.169 54.864,48.031 55.044,47.872 C55.401,47.557 55.985,47.145 56.813,46.87 C57.632,46.582 58.7,46.436 59.859,46.642 C60.435,46.743 61.036,46.954 61.589,47.237 C62.143,47.518 62.673,47.853 63.201,48.163 C63.73,48.476 64.242,48.74 64.747,48.898 C65.254,49.048 65.746,49.091 66.218,49.009 C67.172,48.847 67.965,48.319 68.549,47.807 C69.141,47.288 69.568,46.782 69.883,46.448 C70.196,46.11 70.39,45.932 70.446,45.972" id="Fill-66" fill="#C8893B" mask="url(#mask-4)"></path><path d="M69.51,53.781 C69.556,53.823 69.477,54.01 69.243,54.284 C69.012,54.56 68.596,54.894 68.01,55.174 C67.426,55.459 66.672,55.648 65.836,55.732 C64.999,55.811 64.082,55.775 63.141,55.654 C62.213,55.53 61.352,55.381 60.574,55.284 C59.797,55.187 59.102,55.138 58.521,55.153 C57.357,55.172 56.651,55.418 56.589,55.28 C56.532,55.179 57.189,54.678 58.456,54.47 C59.082,54.361 59.838,54.341 60.658,54.393 C61.478,54.444 62.36,54.57 63.267,54.69 C64.162,54.806 65.013,54.864 65.778,54.839 C66.541,54.809 67.218,54.707 67.76,54.535 C68.853,54.203 69.398,53.671 69.51,53.781" id="Fill-67" fill="#C8893B" mask="url(#mask-4)"></path></g><path d="M25.795,46.7866059 C25.795,46.7866059 32.878,35.9846059 28.226,27.1386059 L32.232,27.4346059 C32.232,27.4346059 37.968,40.9006059 27.57,52.7336059 L25.795,46.7866059" id="Fill-69" fill="#26354D"></path><path d="M26.683,14.0596059 C27.005,15.4576059 26.625,16.4376059 25.7,17.5336059 C25.168,18.1636059 24.449,18.6816059 24.178,19.4606059 C23.817,20.4946059 24.359,21.6576059 24.089,22.7176059 C23.777,23.9356059 22.532,24.6256059 21.689,25.5576059 C20.677,26.6726059 20.217,28.2656059 20.478,29.7486059 C20.558,30.2056059 20.729,30.6866059 21.117,30.9406059 C21.464,31.1676059 21.909,31.1636059 22.325,31.1516059 C25.423,31.0626059 28.522,30.9736059 31.621,30.8856059 C31.982,30.8746059 32.372,30.8546059 32.65,30.6246059 C33.032,30.3096059 33.051,29.7426059 33.04,29.2486059 C32.913,23.9516059 32.786,18.6536059 32.659,13.3566059 C30.656,13.4806059 28.66,13.7156059 26.683,14.0596059 C26.717,14.1866059 26.75,14.3136059 26.784,14.4406059" id="Fill-70" fill="#17152A"></path><path d="M52.029,152.519626 C51.996,152.522606 51.934,152.194606 51.846,151.569606 C51.758,150.944606 51.646,150.020606 51.507,148.830606 C51.229,146.450606 50.867,143.003606 50.339,138.757606 C49.8,134.513606 49.12,129.463606 48.001,123.929606 C47.438,121.163606 46.779,118.274606 45.955,115.319606 C45.53,113.846606 45.093,112.347606 44.59,110.846606 C44.107,109.339606 43.558,107.829606 42.972,106.312606 C40.627,100.240606 37.81,94.6926059 35.063,89.7576059 C33.689,87.2916059 32.312,84.9746059 31.11,82.7496059 C29.905,80.5266059 28.874,78.3966059 28.088,76.3836059 C27.3,74.3706059 26.769,72.4796059 26.445,70.7916059 C26.118,69.1046059 26.013,67.6206059 26.01,66.4126059 C26.01,65.2036059 26.121,64.2696059 26.218,63.6436059 C26.331,63.0186059 26.416,62.6966059 26.447,62.7015485 C26.538,62.7136059 26.285,64.0276059 26.388,66.4036059 C26.448,67.5886059 26.607,69.0376059 26.977,70.6816059 C27.344,72.3256059 27.911,74.1666059 28.726,76.1266059 C29.538,78.0896059 30.59,80.1726059 31.816,82.3606059 C33.039,84.5516059 34.439,86.8486059 35.843,89.3186059 C38.647,94.2536059 41.51,99.8306059 43.878,105.962606 C44.47,107.493606 45.023,109.020606 45.508,110.544606 C46.014,112.062606 46.45,113.576606 46.873,115.066606 C47.692,118.051606 48.337,120.967606 48.879,123.755606 C49.957,129.336606 50.568,134.415606 51.022,138.679606 C51.464,142.945606 51.721,146.404606 51.883,148.795606 C51.965,149.991606 52.016,150.920606 52.041,151.552606 C52.066,152.183606 52.063,152.516606 52.029,152.519626" id="Fill-71" fill="#2D3059"></path><path d="M36.839,68.0666059 C36.957,68.0866059 37.013,68.5756059 36.757,69.3116059 C36.633,69.6796059 36.412,70.0896059 36.107,70.5046059 C35.792,70.9116059 35.388,71.3166059 34.901,71.6596059 C34.409,71.9956059 33.888,72.2326059 33.398,72.3836059 C32.901,72.5246059 32.44,72.5876059 32.052,72.5746059 C31.273,72.5566059 30.835,72.3336059 30.857,72.2146059 C30.878,72.0706059 31.327,72.0416059 31.984,71.8916059 C32.315,71.8216059 32.695,71.7006059 33.102,71.5396059 C33.504,71.3656059 33.931,71.1446059 34.348,70.8606059 C34.759,70.5696059 35.115,70.2476059 35.419,69.9316059 C35.712,69.6076059 35.959,69.2936059 36.14,69.0086059 C36.511,68.4456059 36.695,68.0356059 36.839,68.0666059" id="Fill-72" fill="#2D3059"></path><path d="M129.97,44.5676059 L130.734,42.9786059 C130.734,42.9786059 131.351,42.0926059 132.071,40.3336059 C132.259,39.8776059 132.362,39.3906059 132.386,38.8986059 C132.414,38.3006059 132.42,37.5056059 132.288,37.0696059 C132.124,36.5296059 132.702,36.0716059 133.111,36.3796059 C133.521,36.6876059 134.008,38.1646059 133.759,39.9636059 C133.51,41.7626059 135.601,39.8136059 136.376,39.1166059 L138.316,45.8216059 L133.448,49.0766059 L129.97,44.5676059" id="Fill-73" fill="#BD8876"></path><path d="M109.641,25.2826059 C109.028,25.3416059 104.7,30.0386059 104.068,38.0856059 C103.352,47.2126059 100.604,59.7076059 103.122,65.5046059 C103.699,66.8326059 104.552,67.8096059 105.769,68.3146059 C112.299,71.0216059 135.902,47.6506059 135.902,47.6506059 L131.478,39.8596059 C131.478,39.8596059 114.39,55.7766059 113.356,53.8116059 C112.751,52.6626059 115.129,43.3896059 115.381,36.0596059 C115.561,30.8496059 113.444,24.9156059 109.641,25.2826059" id="Fill-74" fill="#17152A"></path><polyline id="Fill-75" fill="#292A4D" points="131.478 39.8596059 129.356 41.8046059 133.79 49.6856059 135.902 47.6506059 131.478 39.8596059"></polyline><path d="M131.564,42.1896059 C131.564,42.4596059 131.346,42.6786059 131.076,42.6786059 C130.806,42.6786059 130.588,42.4596059 130.588,42.1896059 C130.588,41.9206059 130.806,41.7016059 131.076,41.7016059 C131.346,41.7016059 131.564,41.9206059 131.564,42.1896059" id="Fill-76" fill="#17152A"></path><polyline id="Fill-77" fill="#100F1A" points="116.282 81.1616059 120.874 79.6406059 113.485 29.1566059 110.478 69.5866059 116.282 81.1616059"></polyline><path d="M101.256,23.4206059 C101.256,23.4206059 92.357,19.8316059 91.581,20.3336059 C90.805,20.8346059 86.033,28.6566059 90.461,29.3056059 C94.888,29.9546059 101.744,24.5146059 101.744,24.5146059 L101.256,23.4206059" id="Fill-78" fill="#17152A"></path><path d="M88.853,74.1026059 C88.853,74.1026059 92.836,88.8956059 92.195,99.0736059 C91.554,109.252606 86.504,113.522606 83.05,118.007606 C79.596,122.491606 67.424,134.022606 67.424,134.022606 L75.265,142.470606 C75.265,142.470606 100.171,120.813606 104.367,112.028606 C108.563,103.243606 104.367,88.9666059 104.367,88.9666059 L88.853,74.1026059" id="Fill-79" fill="#5A3E33"></path><path d="M111.277,44.5676059 L112.04,42.9786059 C112.04,42.9786059 112.657,42.0926059 113.378,40.3336059 C113.565,39.8776059 113.669,39.3906059 113.692,38.8986059 C113.72,38.3006059 113.726,37.5056059 113.594,37.0696059 C113.43,36.5296059 114.008,36.0716059 114.418,36.3796059 C114.827,36.6876059 115.314,38.1646059 115.066,39.9636059 C114.817,41.7626059 116.907,39.8136059 117.682,39.1166059 C118.457,38.4206059 120.954,36.3766059 121.357,36.4446059 C121.948,36.5446059 121.949,37.1966059 121.16,37.8746059 C120.36,38.5606059 118.145,40.7526059 118.532,41.1436059 C118.914,41.5286059 122.809,37.9276059 122.809,37.9276059 C122.809,37.9276059 123.517,37.0226059 123.98,37.4606059 C124.816,38.2496059 120.393,41.7726059 119.964,42.0976059 C119.666,42.3236059 120.072,42.7636059 120.379,42.5046059 C120.695,42.2366059 124.18,38.8216059 125.039,39.6166059 C125.697,40.2266059 121.428,42.5486059 121.099,43.6586059 C120.769,44.7686059 124.157,41.5686059 124.762,42.1766059 C124.987,42.4036059 125.124,42.6036059 122.913,44.1606059 C120.649,45.7556059 113.812,49.0766059 113.812,49.0766059 L111.291,44.4626059" id="Fill-80" fill="#BD8876"></path><path d="M89.235,60.2036059 C88.979,60.2166059 86.144,68.5596059 88.853,74.1026059 C89.125,74.6606059 91.251,77.7186059 91.251,77.7186059 C98.753,86.5946059 110.37,105.691606 111.376,108.511606 C114.293,116.687606 126.502,148.755606 126.502,148.755606 L136.697,144.408606 L124.131,103.375606 L111.338,67.1676059 L89.235,60.2036059" id="Fill-81" fill="#B6733C"></path><path d="M134.445,145.340606 C134.445,145.340606 141.9,144.156606 140.544,145.285606 C139.188,146.414606 127.587,150.138606 127.587,150.138606 L126.833,148.419606 L134.445,145.340606" id="Fill-82" fill="#5A3E33"></path><path d="M74.256,141.056606 C74.256,141.056606 78.547,147.265606 76.943,146.531606 C75.338,145.796606 67.054,136.817606 67.054,136.817606 L68.736,135.087606 L74.256,141.056606" id="Fill-83" fill="#392924"></path><path d="M101.744,66.2156059 C101.862,66.2356059 101.918,66.7256059 101.662,67.4616059 C101.538,67.8286059 101.317,68.2396059 101.012,68.6546059 C100.697,69.0606059 100.294,69.4656059 99.807,69.8096059 C99.315,70.1456059 98.794,70.3816059 98.303,70.5336059 C97.807,70.6736059 97.345,70.7376059 96.957,70.7246059 C96.178,70.7066059 95.74,70.4826059 95.762,70.3646059 C95.783,70.2196059 96.232,70.1906059 96.89,70.0416059 C97.22,69.9706059 97.6,69.8496059 98.007,69.6886059 C98.409,69.5156059 98.836,69.2946059 99.253,69.0106059 C99.665,68.7196059 100.021,68.3976059 100.324,68.0816059 C100.617,67.7566059 100.864,67.4436059 101.046,67.1586059 C101.416,66.5946059 101.601,66.1856059 101.744,66.2156059" id="Fill-84" fill="#653625"></path><path d="M97.212,25.8536059 C97.212,25.8536059 93.076,25.3416059 90.461,29.3056059 C87.846,33.2696059 87.996,71.5176059 87.996,71.5176059 L112.193,69.5896059 C112.193,69.5896059 113.987,28.3016059 111.277,26.1616059 C108.565,24.0216059 102.569,24.0176059 97.212,25.8536059" id="Fill-85" fill="#71C4C1"></path><path d="M85.988,38.0856059 C85.856,39.2766059 85.006,82.8936059 85.006,82.8936059 L105.32,82.8936059 L100.911,24.2356059 C100.911,24.2356059 87.727,22.5196059 85.988,38.0856059" id="Fill-86" fill="#17152A"></path><path d="M85.256,70.3466059 L85.385,64.1156059 L103.588,59.8466059 L104.003,65.3686059 C104.003,65.3686059 89.127,79.1656059 85.256,70.3466059" id="Fill-87" fill="#100F1A"></path><path d="M100.911,51.1286059 C100.911,51.1286059 97.093,55.1476059 95.181,54.3606059 C93.269,53.5736059 98.753,32.7466059 98.753,32.7466059 C98.753,32.7466059 95.175,48.7056059 100.911,51.1286059" id="Fill-88" fill="#100F1A"></path><polyline id="Fill-89" fill="#292A4D" points="91.581 73.2916059 99.264 70.4126059 99.264 73.2916059 91.581 75.7406059 91.581 73.2916059"></polyline><path d="M102.407,82.8936095 C102.393,82.8946059 102.369,82.6926059 102.336,82.3086059 C102.306,81.9136059 102.263,81.3486059 102.208,80.6266059 C102.113,79.1536059 101.978,77.0426059 101.81,74.4366059 C101.491,69.2096059 101.078,61.9856059 100.645,54.0076059 C100.212,46.0256059 99.841,38.7996059 99.592,33.5686059 C99.477,30.9606059 99.383,28.8456059 99.318,27.3726059 C99.293,26.6496059 99.274,26.0846059 99.26,25.6896059 C99.25,25.3046059 99.251,25.1006059 99.264,25.0975909 C99.277,25.0956059 99.302,25.2946059 99.338,25.6796059 C99.374,26.0656059 99.418,26.6346059 99.469,27.3636059 C99.564,28.8356059 99.699,30.9476059 99.867,33.5536059 C100.186,38.7806059 100.599,46.0046059 101.032,53.9856059 C101.465,61.9646059 101.836,69.1906059 102.085,74.4216059 C102.2,77.0296059 102.294,79.1446059 102.359,80.6186059 C102.382,81.3416059 102.401,81.9076059 102.414,82.3046059 C102.423,82.6896059 102.42,82.8926059 102.407,82.8936095" id="Fill-90" fill="#292A4D"></path><path d="M92.784,26.9886059 C92.171,27.0476059 86.62,30.0386059 85.988,38.0856059 C85.272,47.2126059 82.524,59.7076059 85.043,65.5046059 C85.619,66.8326059 86.472,67.8096059 87.689,68.3146059 C94.219,71.0216059 117.822,47.6506059 117.822,47.6506059 L113.398,39.8596059 C113.398,39.8596059 96.31,55.7766059 95.276,53.8116059 C94.672,52.6626059 97.049,43.3896059 97.302,36.0596059 C97.481,30.8496059 96.587,26.6206059 92.784,26.9886059" id="Fill-91" fill="#17152A"></path><polyline id="Fill-92" fill="#292A4D" points="113.398 39.8596059 111.277 41.8046059 115.711 49.6856059 117.822 47.6506059 113.398 39.8596059"></polyline><path d="M113.485,42.1896059 C113.485,42.4596059 113.266,42.6786059 112.996,42.6786059 C112.726,42.6786059 112.507,42.4596059 112.507,42.1896059 C112.507,41.9206059 112.726,41.7016059 112.996,41.7016059 C113.266,41.7016059 113.485,41.9206059 113.485,42.1896059" id="Fill-93" fill="#17152A"></path><path d="M103.806,74.0006059 C103.806,74.2696059 103.588,74.4886059 103.318,74.4886059 C103.048,74.4886059 102.829,74.2696059 102.829,74.0006059 C102.829,73.7306059 103.048,73.5116059 103.318,73.5116059 C103.588,73.5116059 103.806,73.7306059 103.806,74.0006059" id="Fill-94" fill="#292A4D"></path><path d="M103.318,64.3846059 C103.318,64.6546059 103.099,64.8736059 102.829,64.8736059 C102.559,64.8736059 102.34,64.6546059 102.34,64.3846059 C102.34,64.1146059 102.559,63.8966059 102.829,63.8966059 C103.099,63.8966059 103.318,64.1146059 103.318,64.3846059" id="Fill-95" fill="#292A4D"></path><path d="M102.232,47.1376059 C102.232,47.4076059 102.014,47.6266059 101.744,47.6266059 C101.474,47.6266059 101.256,47.4076059 101.256,47.1376059 C101.256,46.8676059 101.474,46.6496059 101.744,46.6496059 C102.014,46.6496059 102.232,46.8676059 102.232,47.1376059" id="Fill-96" fill="#292A4D"></path><path d="M101.744,37.7926059 C101.744,38.0626059 101.525,38.2806059 101.256,38.2806059 C100.985,38.2806059 100.767,38.0626059 100.767,37.7926059 C100.767,37.5226059 100.985,37.3046059 101.256,37.3046059 C101.525,37.3046059 101.744,37.5226059 101.744,37.7926059" id="Fill-97" fill="#292A4D"></path><path d="M108.92,25.7756059 C108.679,24.9376059 108.631,21.3116059 108.631,21.3116059 C108.631,21.3116059 111.867,20.6046059 111.709,17.3346059 C111.549,14.0656059 110.525,6.59760585 110.525,6.59760585 L104.239,4.33860585 L98.225,10.0326059 L97.205,13.7886059 L100.411,21.9186059 L101.008,26.1616059 L108.92,25.7756059" id="Fill-98" fill="#BD8876"></path><path d="M110.005,11.9686059 C110.03,12.1986059 109.865,12.4046059 109.635,12.4296059 C109.406,12.4556059 109.199,12.2896059 109.174,12.0606059 C109.149,11.8306059 109.314,11.6246059 109.544,11.5986059 C109.773,11.5736059 109.98,11.7386059 110.005,11.9686059" id="Fill-99" fill="#17152A"></path><path d="M110.828,11.6316059 C110.78,11.6916059 110.444,11.4636059 109.994,11.4886059 C109.544,11.5076059 109.232,11.7666059 109.178,11.7126059 C109.152,11.6876059 109.197,11.5826059 109.333,11.4656059 C109.466,11.3496059 109.7,11.2316059 109.981,11.2166059 C110.261,11.2036059 110.506,11.2986059 110.65,11.4006059 C110.796,11.5046059 110.851,11.6046059 110.828,11.6316059" id="Fill-100" fill="#17152A"></path><path d="M104.805,12.2236059 C105.009,12.3326059 105.086,12.5856059 104.977,12.7896059 C104.869,12.9936059 104.615,13.0706059 104.412,12.9616059 C104.208,12.8536059 104.131,12.5996059 104.239,12.3966059 C104.348,12.1916059 104.602,12.1156059 104.805,12.2236059" id="Fill-101" fill="#17152A"></path><path d="M105.867,12.1776059 C105.819,12.2376059 105.483,12.0106059 105.033,12.0356059 C104.583,12.0546059 104.271,12.3136059 104.217,12.2586059 C104.192,12.2346059 104.236,12.1296059 104.372,12.0126059 C104.506,11.8966059 104.739,11.7776059 105.02,11.7636059 C105.3,11.7506059 105.545,11.8456059 105.689,11.9476059 C105.835,12.0516059 105.89,12.1516059 105.867,12.1776059" id="Fill-102" fill="#17152A"></path><path d="M107.898,15.7806059 C107.894,15.7536059 108.17,15.6886059 108.619,15.6036059 C108.733,15.5846059 108.84,15.5556059 108.853,15.4726059 C108.874,15.3846059 108.816,15.2576059 108.75,15.1216059 C108.619,14.8376059 108.483,14.5406059 108.34,14.2286059 C107.769,12.9556059 107.346,11.9066059 107.395,11.8846059 C107.443,11.8626059 107.946,12.8766059 108.517,14.1486059 C108.655,14.4626059 108.787,14.7626059 108.913,15.0486059 C108.966,15.1826059 109.053,15.3326059 109.008,15.5156059 C108.984,15.6066059 108.904,15.6756059 108.833,15.7006059 L108.639,15.7396059 C108.185,15.7896059 107.902,15.8066059 107.898,15.7806059" id="Fill-103" fill="#17152A"></path><path d="M104.338,16.3706059 C103.805,16.3706059 103.385,16.1966059 103.335,15.8926059 C103.274,15.5276059 103.802,15.1056059 104.524,15.0106059 C104.623,14.9976059 104.721,14.9906059 104.815,14.9906059 C105.403,14.9906059 105.862,15.2366059 105.886,15.5546059 C105.915,15.9266059 105.375,16.2546059 104.686,16.3466059 C104.567,16.3626059 104.45,16.3706059 104.338,16.3706059" id="Fill-104" fill="#A67363"></path><path d="M106.466,16.3666059 C105.98,16.1156059 107.798,16.9736059 108.712,16.8726059 C108.712,16.8726059 108.237,17.7446059 107.275,17.4576059 C106.275,17.1596059 106.466,16.3666059 106.466,16.3666059" id="Fill-105" fill="#EEE5D9"></path><path d="M108.631,21.3126059 C108.631,21.3126059 106.446,21.5776059 104.168,20.3336059 C104.168,20.3336059 105.405,22.6096059 108.648,22.1166059 L108.631,21.3126059" id="Fill-106" fill="#946154"></path><path d="M96.742,8.62260585 L96.742,8.62260585 C95.84,9.02760585 95.213,9.89560585 95.173,10.8836059 C95.078,13.1826059 97.07,16.0746059 97.939,17.4586059 C99.094,19.2996059 100.043,22.0836059 100.043,22.0836059 C100.653,22.9086059 100.412,20.0686059 100.412,20.0686059 C100.412,20.0686059 100.438,17.3016059 99.913,16.2996059 C99.913,16.2996059 98.341,17.0676059 97.548,14.1646059 C97.156,12.7296059 99.262,11.7136059 100.115,13.3966059 L101.51,13.3266059 C101.51,13.3266059 100.861,7.64460585 104.152,8.35360585 C109.962,9.60460585 112.026,6.68660585 112.618,3.17460585" id="Fill-107" fill="#17152A"></path><path d="M112.412,3.55060585 C112.979,3.23360585 112.964,2.32160585 112.49,1.87560585 C112.017,1.42960585 111.279,1.38360585 110.651,1.55160585 C110.023,1.72060585 109.46,2.06760585 108.866,2.33460585 C108.273,2.60060585 107.601,2.78760585 106.975,2.60960585 C106.115,2.36660585 105.58,1.51860585 104.817,1.05360585 C104.149,0.646605851 103.297,0.555605851 102.557,0.811605851 C101.818,1.06860585 101.205,1.66860585 100.933,2.40260585 C100.64,3.19260585 100.651,4.21860585 99.927,4.65060585 C99.345,4.99860585 98.611,4.75060585 97.948,4.60960585 C97.335,4.47960585 96.676,4.45660585 96.1,4.70360585 C95.524,4.95060585 95.056,5.51660585 95.067,6.14360585 C95.077,6.71660585 95.466,7.22860585 95.497,7.80160585 C95.543,8.67360585 94.778,9.35260585 94.067,9.85960585 C93.356,10.3676059 92.557,10.9656059 92.482,11.8356059 C92.419,12.5726059 92.918,13.2446059 93.494,13.7076059 C94.069,14.1706059 94.746,14.5076059 95.27,15.0286059 C95.794,15.5496059 96.147,16.3506059 95.858,17.0306059 C95.713,17.3716059 95.419,17.6566059 95.376,18.0246059 C95.304,18.6396059 95.941,19.0796059 96.501,19.3426059 C97.092,19.6206059 97.714,19.8756059 98.368,19.8926059 C99.021,19.9086059 99.717,19.6426059 100.052,19.0816059 L97.205,16.2956059 L96.71,12.5926059 L99.11,9.19560585 L104.609,6.20560585 L112.412,3.55060585" id="Fill-108" fill="#17152A"></path><path d="M100.113,15.0326059 L100.024,15.1516059 C99.965,15.2176059 99.85,15.2966059 99.695,15.3066059 C99.382,15.3286059 98.965,15.0036059 98.747,14.5516059 C98.636,14.3226059 98.586,14.0806059 98.586,13.8616059 C98.58,13.6406059 98.642,13.4566059 98.766,13.3716059 C98.887,13.2806059 99.019,13.3176059 99.082,13.3756059 L99.17,13.4876059 C99.18,13.4916059 99.206,13.4206059 99.138,13.3246059 L98.966,13.2106059 L98.693,13.2566059 C98.503,13.3576059 98.407,13.6176059 98.407,13.8586059 C98.396,14.1046059 98.447,14.3786059 98.571,14.6356059 C98.818,15.1406059 99.296,15.5026059 99.711,15.4436059 C99.911,15.4096059 100.036,15.2886059 100.086,15.1936059 C100.136,15.0956059 100.124,15.0336059 100.113,15.0326059" id="Fill-109" fill="#946154"></path><path d="M105.321,109.482606 C106.238,106.283606 106.356,102.679606 106.137,99.3936059 C107.563,105.323606 105.381,109.372606 105.321,109.482606" id="Fill-110" fill="#9F9992"></path><path d="M105.32,109.484606 L91.581,82.8936059 L90.786,82.8936059 L95.221,82.8936059 L106.055,99.0706059 C106.056,99.0716059 106.057,99.0736059 106.057,99.0746059 C106.085,99.1816059 106.112,99.2876059 106.137,99.3936059 C106.356,102.679606 106.238,106.283606 105.321,109.482606 C105.32,109.484606 105.32,109.484606 105.32,109.484606" id="Fill-111" fill="#4B342C"></path><path d="M106.057,99.0746059 C106.057,99.0736059 106.056,99.0716059 106.055,99.0706059 L106.057,99.0736059" id="Fill-112" fill="#845435"></path><polyline id="Fill-113" fill="#1A1A25" points="95.221 82.8936059 90.786 82.8936059 94.629 82.0096059 95.221 82.8936059"></polyline><polyline id="Fill-114" fill="#A36037" points="126.502 148.755606 136.697 144.408606 135.855 141.656606 125.473 146.051606 126.502 148.755606"></polyline><path d="M108.172,74.2436059 C108.318,74.2896059 108.007,75.5246059 107.069,76.7496059 C106.139,77.9806059 105.032,78.6096059 104.949,78.4816059 C104.848,78.3456059 105.736,77.5506059 106.605,76.3966059 C107.485,75.2506059 108.014,74.1826059 108.172,74.2436059" id="Fill-115" fill="#A36037"></path><path d="M111.306,62.2536059 C111.734,62.7806059 111.828,63.4916059 111.994,64.1496059 C112.16,64.8066059 112.478,65.5106059 113.111,65.7546059 C113.344,65.8436059 113.63,65.8816059 113.757,66.0956059 C113.968,66.4486059 113.529,66.8526059 113.128,66.9386059 C112.726,67.0246059 112.246,67.0196059 111.997,67.3456059 C112.898,67.3076059 113.809,67.5426059 114.579,68.0116059 C114.824,68.1616059 115.083,68.3926059 115.047,68.6776059 C115.009,68.9766059 114.679,69.1316059 114.391,69.2186059 C113.431,69.5056059 112.421,69.6276059 111.42,69.5746059" id="Fill-116" fill="#71C4C1"></path><polyline id="Fill-117" fill="#5A3E33" points="104.464 71.5176059 112.776 70.8516059 112.193 69.5896059 104.366 70.2136059 104.464 71.5176059"></polyline><path d="M129.506,147.180944 C129.488,147.190606 129.361,146.978606 129.136,146.567606 C128.918,146.153606 128.574,145.551606 128.19,144.748606 C127.393,143.156606 126.334,140.803606 125.177,137.836606 C124.015,134.870606 122.792,131.278606 121.555,127.256606 C120.314,123.236606 119.06,118.787606 117.679,114.140606 C116.294,109.495606 114.871,105.102606 113.366,101.187606 C111.866,97.2706059 110.301,93.8276059 108.804,91.0326059 C107.313,88.2356059 105.946,86.0586059 104.941,84.5966059 C104.458,83.8516059 104.033,83.3086059 103.775,82.9176059 C103.51,82.5316059 103.378,82.3226059 103.394,82.309965 C103.41,82.2976059 103.573,82.4826059 103.869,82.8456059 C104.157,83.2146059 104.613,83.7376059 105.126,84.4656059 C106.193,85.8936059 107.62,88.0486059 109.167,90.8366059 C110.719,93.6226059 112.332,97.0686059 113.867,100.993606 C115.406,104.916606 116.85,109.320606 118.238,113.974606 C119.621,118.627606 120.858,123.079606 122.069,127.100606 C123.275,131.122606 124.454,134.715606 125.562,137.690606 C126.666,140.665606 127.663,143.034606 128.396,144.651606 C128.747,145.467606 129.057,146.084606 129.241,146.514606 C129.432,146.942606 129.524,147.171606 129.506,147.180944" id="Fill-118" fill="#A36037"></path><path d="M107.468,95.7476059 C107.468,95.7476059 108.19,99.2796059 108.571,99.0736059 C109.646,98.4936059 117.044,95.7476059 117.044,95.7476059 L115.05,93.5326059 L107.468,95.7476059" id="Fill-119" fill="#A36037"></path><path d="M109.646,98.4936059 C109.646,98.4936059 111.024,104.184606 112.805,103.874606 C114.587,103.565606 118.304,101.705606 118.304,101.705606 L116.071,96.0866059 L109.646,98.4936059" id="Fill-120" fill="#A36037"></path><path d="M109.89,99.3796059 L109.889,99.3776059 C109.889,99.3786059 109.89,99.3796059 109.89,99.3796059" id="Fill-121" fill="#845435"></path><path d="M109.89,99.3796059 C109.89,99.3796059 109.889,99.3786059 109.889,99.3776059 L109.646,98.4936059 L116.071,96.0866059 L116.431,96.9946059 L109.89,99.3796059" id="Fill-122" fill="#794A2F"></path><path d="M100.265,23.7366059 C100.291,24.0276059 97.507,24.3086059 94.509,25.8256059 C91.489,27.3026059 89.587,29.3526059 89.37,29.1566059 C89.276,29.0766059 89.631,28.4476059 90.427,27.6076059 C90.823,27.1856059 91.34,26.7266059 91.951,26.2626059 C92.568,25.8086059 93.284,25.3546059 94.076,24.9566059 C94.872,24.5646059 95.665,24.2676059 96.4,24.0496059 C97.138,23.8416059 97.816,23.7066059 98.391,23.6456059 C99.543,23.5176059 100.258,23.6126059 100.265,23.7366059" id="Fill-123" fill="#100F1A"></path><path d="M132.629,29.1566059 C132.629,29.1566059 140.812,72.6586059 140.812,73.0766059 C140.812,73.4936059 140.136,109.054606 140.709,114.745606 C141.281,120.436606 143.56,145.206606 143.56,145.206606 L145.272,145.206606 L143.56,96.3076059 L143.56,68.5326059 L136.697,33.8276059 L132.629,29.1566059" id="Fill-124" fill="#72574B"></path><path d="M138.164,39.3916059 C138.164,39.3916059 135.775,42.9916059 136.706,43.1626059 C137.636,43.3336059 139.039,40.3196059 138.945,39.8396059 C138.852,39.3606059 138.164,39.3916059 138.164,39.3916059" id="Fill-125" fill="#BD8876"></path><path d="M138.697,40.9756059 C138.697,40.9756059 136.308,44.5756059 137.239,44.7466059 C138.17,44.9176059 139.573,41.9036059 139.479,41.4236059 C139.385,40.9446059 138.697,40.9756059 138.697,40.9756059" id="Fill-126" fill="#BD8876"></path><path d="M139.394,43.1696059 C139.394,43.1696059 137.005,46.7696059 137.936,46.9406059 C138.866,47.1116059 140.269,44.0976059 140.175,43.6186059 C140.082,43.1386059 139.394,43.1696059 139.394,43.1696059" id="Fill-127" fill="#BD8876"></path></g></g></g></svg>