<?xml version="1.0" encoding="UTF-8"?>
<svg width="114px" height="114px" viewBox="0 0 114 114" version="1.1" xmlns="http://www.w3.org/2000/svg" xmlns:xlink="http://www.w3.org/1999/xlink">
    <!-- Generator: Sketch 54.1 (76490) - https://sketchapp.com -->
    <title>svgexport-0</title>
    <desc>Created with Sketch.</desc>
    <g id="Page-1" stroke="none" stroke-width="1" fill="none" fill-rule="evenodd">
        <g id="Desktop-HD" transform="translate(-20.000000, -142.000000)" fill="#FFFEFF" fill-rule="nonzero">
            <g id="svgexport-0" transform="translate(20.000000, 142.000000)">
                <path d="M0,114 L0,0 L114,0 L114,114 L0,114 Z M27.8811429,72.8720571 C27.8811429,74.6797714 27.7932,75.1097143 26.8453714,76.2269143 L18.8425714,85.9494857 L18.8425714,87.2393143 L41.5578857,87.2393143 L41.5578857,85.9494857 L33.5583429,76.2269143 C32.6105143,75.1097143 32.4378857,74.5918286 32.4378857,72.8720571 L32.4378857,43.7108571 L52.3944,87.2393143 L54.72,87.2393143 L71.8395429,43.7108571 L71.8395429,78.3798857 C71.8395429,79.3244571 71.8395429,79.4938286 71.2369714,80.0996571 L65.2177714,85.9494857 L65.2177714,87.2393143 L95.1509143,87.2393143 L95.1509143,85.9494857 L89.2164,80.0996571 C88.6170857,79.4938286 88.5324,79.3244571 88.5324,78.3798857 L88.5324,35.6233714 C88.5324,34.6755429 88.6170857,34.5029143 89.2164,33.9036 L95.1541714,28.0505143 L95.1541714,26.7606857 L74.0772,26.7606857 L59.0226857,64.3546286 L42.0757714,26.7606857 L19.9597714,26.7606857 L19.9597714,28.0505143 L26.9300571,36.6493714 C27.7085143,37.6004571 27.8778857,37.8545143 27.8778857,39.1508571 L27.8778857,72.8720571 L27.8811429,72.8720571 Z" id="Shape"></path>
            </g>
        </g>
    </g>
</svg>