<?xml version="1.0" encoding="UTF-8"?>
<svg width="123px" height="123px" viewBox="0 0 123 123" version="1.1" xmlns="http://www.w3.org/2000/svg" xmlns:xlink="http://www.w3.org/1999/xlink">
    <!-- Generator: Sketch 55.2 (78181) - https://sketchapp.com -->
    <title>Group</title>
    <desc>Created with Sketch.</desc>
    <g id="Page-1" stroke="none" stroke-width="1" fill="none" fill-rule="evenodd">
        <g id="Group">
            <rect id="Rectangle" fill="#D8D8D8" x="0" y="0" width="123" height="123"></rect>
            <g id="scrumorg-1" transform="translate(5.000000, 7.000000)">
                <path d="M64.85,106.85 L68.5,106.87 C67.63,107.37 66.03,107.19 64.85,107.19 L64.85,106.86 L64.85,106.85 Z M63.85,106.52 C64.17,106.2 64.91,106.94 64.24,106.7 C64.23,106.7 63.4,106.97 63.85,106.52 Z M54.83,104.18 C54.86,104.15 54.93,104.23 54.93,104.28 C54.93,104.3 54.97,104.32 54.97,104.32 C54.96,104.31 54.38,104.63 54.83,104.18 Z M53.83,103.85 C53.86,103.82 53.93,103.9 53.93,103.95 C53.93,103.97 53.97,103.99 53.97,103.99 C53.96,103.98 53.38,104.3 53.83,103.85 Z M52.83,103.52 C53.15,103.2 53.89,103.94 53.22,103.7 C53.21,103.7 52.38,103.97 52.83,103.52 Z M63.19,103.19 C63.22,103.16 63.29,103.24 63.29,103.29 C63.29,103.31 63.33,103.33 63.33,103.33 C63.32,103.32 62.74,103.64 63.19,103.19 Z M51.83,103.19 L52.5,103.35 L51.83,103.19 Z M61.49,103.11 L60.52,103.21 C60.7,103.08 60.39,102.5 61.49,103.11 Z M59.18,102.53 C59.5,102.21 60.23,102.95 59.57,102.71 C59.56,102.71 58.73,102.98 59.18,102.53 Z M78.56,102.2 C78.88,101.88 79.61,102.62 78.95,102.38 C78.94,102.38 78.11,102.65 78.56,102.2 Z M57.51,102.2 C57.83,101.88 58.56,102.62 57.9,102.38 C57.89,102.38 57.05,102.65 57.51,102.2 Z M79.89,101.87 C79.92,101.84 79.99,101.92 79.99,101.97 C79.99,101.99 80.03,102.01 80.03,102.01 C80.02,102 79.44,102.32 79.89,101.87 Z M81.23,101.54 C81.26,101.51 81.33,101.59 81.33,101.64 C81.33,101.66 81.37,101.68 81.37,101.68 C81.36,101.67 80.78,101.99 81.23,101.54 Z M55.17,101.54 C55.49,101.22 56.23,101.96 55.56,101.72 C55.55,101.72 54.72,101.99 55.17,101.54 Z M79.22,101.54 C79.82,101.16 79.4,100.9 80.53,101.45 L79.22,101.54 Z M80.89,100.87 C80.92,100.84 80.99,100.92 80.99,100.97 C80.99,100.99 81.03,101.01 81.03,101.01 C81.02,101 80.44,101.32 80.89,100.87 Z M53.5,100.87 C53.53,100.84 53.6,100.92 53.6,100.97 C53.6,100.99 53.64,101.01 53.64,101.01 C53.63,101 53.05,101.32 53.5,100.87 Z M77.55,100.87 C78.15,100.49 77.73,100.23 78.86,100.78 L77.55,100.87 Z M52.5,100.54 L53.17,100.7 L52.5,100.54 Z M79.23,100.21 C79.26,100.18 79.33,100.26 79.33,100.31 C79.33,100.33 79.37,100.35 79.37,100.35 C79.36,100.34 78.78,100.66 79.23,100.21 Z M62.5,100.3 L61.53,100.59 C62,100.18 60.9,100.23 62.5,100.3 Z M52.51,100.55 L51.84,100.22 L52.51,100.55 Z M60.19,99.88 C60.22,99.85 60.29,99.93 60.29,99.98 C60.29,100 60.33,100.02 60.33,100.02 C60.32,100.01 59.74,100.33 60.19,99.88 Z M51.84,100.21 L51.17,99.88 L51.84,100.21 Z M59.19,99.54 C59.22,99.51 59.29,99.59 59.29,99.64 C59.29,99.66 59.33,99.68 59.33,99.68 C59.32,99.67 58.74,99.99 59.19,99.54 Z M57.85,99.21 C57.88,99.18 57.95,99.26 57.95,99.31 C57.95,99.33 57.99,99.35 57.99,99.35 C57.98,99.34 57.4,99.66 57.85,99.21 Z M83.57,97.87 C83.6,97.84 83.67,97.92 83.67,97.97 C83.67,97.99 83.71,98.01 83.71,98.01 C83.7,98 83.12,98.32 83.57,97.87 Z M84.24,97.54 C84.27,97.51 84.34,97.59 84.34,97.64 C84.34,97.66 84.38,97.68 84.38,97.68 C84.37,97.67 83.79,97.99 84.24,97.54 Z M84.91,97.21 C84.94,97.18 85.01,97.26 85.01,97.31 C85.01,97.33 85.05,97.35 85.05,97.35 C85.04,97.34 84.46,97.66 84.91,97.21 Z M86.25,96.88 L85.65,97.23 L86.25,96.88 Z M86.92,96.55 L86.25,96.88 L86.92,96.55 Z M86.92,96.55 L87.01,96.24 L87.26,96.43 L86.93,96.54 L86.92,96.55 Z M87.92,95.88 L87.83,96.19 L87.58,96 L87.91,95.89 L87.92,95.88 Z M88.59,95.55 L87.92,95.88 L88.59,95.55 Z M89.26,95.22 L88.59,95.55 L89.26,95.22 Z M89.59,94.89 L89.26,95.22 L89.59,94.89 Z M89.59,94.89 C90.11,94.15 90.76,93.78 91.59,93.55 C90.92,94.57 90.76,94.6 89.59,94.89 Z M51.84,103.25 C47.85,102.9 38.85,95.98 36.81,92.89 C37.78,93.15 42.36,97.49 43.89,98.51 C45.21,99.39 46.41,100.13 47.77,100.98 C49.05,101.78 50.81,102.34 51.85,103.25 L51.84,103.25 Z M91.59,93.56 C92.22,92.59 91.94,92.82 92.93,92.56 C92.3,93.53 92.58,93.3 91.59,93.56 Z M36.8,92.89 L36.47,92.56 L36.8,92.89 Z M36.47,92.56 L36.14,92.23 L36.47,92.56 Z M36.14,92.23 L35.81,91.9 L36.14,92.23 Z M92.93,92.56 L94.27,91.22 C94.05,92.29 93.91,92.3 92.93,92.56 Z M76.56,91.56 L76.48,91.87 L76.23,91.68 L76.56,91.57 L76.56,91.56 Z M35.8,91.89 L35.49,91.8 L35.68,91.55 L35.79,91.88 L35.8,91.89 Z M76.56,91.56 L77.16,91.21 L76.56,91.56 Z M94.27,91.23 L94.36,90.92 L94.61,91.11 L94.28,91.22 L94.27,91.23 Z M100.62,83.88 C100.65,83.85 100.72,83.93 100.72,83.98 C100.72,84 100.76,84.02 100.76,84.02 C100.75,84.01 100.17,84.33 100.62,83.88 Z M101.62,82.88 L101.54,83.19 L101.29,83 L101.62,82.89 L101.62,82.88 Z M101.95,82.21 L101.62,82.88 L101.95,82.21 Z M101.95,82.21 L102.62,81.21 L101.95,82.21 Z M102.95,80.54 L102.62,81.21 L102.95,80.54 Z M28.79,80.54 C28.82,80.51 28.89,80.59 28.89,80.64 C28.89,80.66 28.93,80.68 28.93,80.68 C28.92,80.67 28.34,80.99 28.79,80.54 Z M103.29,79.87 L102.96,80.54 L103.29,79.87 Z M103.62,79.2 L103.29,79.87 L103.62,79.2 Z M103.62,79.2 L103.78,78.53 L103.62,79.2 Z M104.29,77.53 L104.13,78.2 L104.29,77.53 Z M104.29,77.53 L104.45,76.86 L104.29,77.53 Z M104.62,76.19 C104.65,76.16 104.72,76.24 104.72,76.29 C104.72,76.31 104.76,76.33 104.76,76.33 C104.75,76.32 104.17,76.64 104.62,76.19 Z M104.95,75.52 C104.95,74.75 105.36,75.46 105.16,75.52 C105.16,75.52 104.95,76.38 104.95,75.52 Z M105.28,74.18 C105.31,74.15 105.38,74.23 105.38,74.28 C105.38,74.3 105.42,74.32 105.42,74.32 C105.41,74.31 104.83,74.63 105.28,74.18 Z M105.95,72.17 C105.95,71.4 106.36,72.11 106.16,72.17 C106.16,72.17 105.95,73.03 105.95,72.17 Z M106.28,70.5 C106.31,70.47 106.38,70.55 106.38,70.6 C106.38,70.62 106.42,70.64 106.42,70.64 C106.41,70.63 105.83,70.95 106.28,70.5 Z M106.57,68.84 C106.94,69.26 106.91,68.37 106.87,69.81 L106.57,68.84 Z M107.04,68.47 C106.96,67.75 107.38,60.81 107.54,60.5 C107.77,62.61 108,66.85 107.04,68.47 Z M79.56,90.56 L78.56,90.89 C78.35,91.91 77.57,90.9 77.56,90.89 C75.85,90.89 75.12,91.37 73.54,91.55 C72.15,91.71 70.23,91.77 68.94,91.97 C66.71,92.31 61.82,92.37 60.18,91.23 C57.01,90.95 51.97,87.63 50.22,87.61 C50.52,89.4 52.1,91.02 53.14,92.48 C47.85,93.06 43.3,86.95 39.56,84.24 L40.09,85.81 C38.52,85.57 38.63,84.38 37.47,83.55 L36.93,83.9 L35.59,82.53 C35.95,85.99 43.29,92.52 46.1,94.64 C49.94,97.54 58.2,100.94 62.86,100.94 C63.64,99.92 63.75,100.92 64.9,101.24 C65.03,101.28 65.55,101.33 65.78,101.37 C70.28,102.18 74.22,100.94 77.56,100.94 C75.73,102.21 72.67,102.1 70.24,102.36 C72.77,103.54 76.57,101.66 79.23,101.61 C75.13,104.46 62.51,103.22 56.3,101.15 C54.92,100.69 50.76,98.79 49.86,98.69 L51.17,99.94 C45.76,98.63 38.41,91.34 35.23,87.14 C33.33,84.63 31.17,81.13 29.93,78.07 C28.69,75 26.79,69.94 26.79,66.59 L25.79,66.5 C26.23,68.36 26.31,70.61 27.06,73.6 C27.58,75.67 28.22,78.28 29.1,80.13 C27.94,79.84 27.03,76.93 26.56,75.77 C26.2,74.87 25.98,74.13 25.66,73.32 C25.21,72.16 25.04,71.54 24.09,71.16 C23.09,72.97 23.94,75.55 24.49,77.17 C28.87,90.05 38.94,101.77 51.71,106.09 C57.28,107.97 59.55,108.3 65.54,108.3 C73.85,108.3 84.25,106.02 91.13,101.82 C100.99,95.79 107.47,83.32 109.34,71.9 C110.13,67.08 110.13,61.94 109.34,57.11 C106.6,40.39 95.09,28.27 79.2,23.09 C75.58,21.91 69.38,20.54 65.63,20.76 C64.72,19.55 64.01,17.68 62.82,16.09 C60.38,12.84 54.2,6.68 50.52,6.34 C51.14,7.21 53.57,8.37 54.61,9.27 C57.2,11.51 64,18.14 64.49,20.66 C62.1,20.85 58.42,20.39 56.56,21.3 C59.23,21.59 61.74,20.78 64.8,21.14 C65.84,22.06 65.39,22.08 66.14,22.7 L65.85,21.14 C66.9,21.28 67.83,21.31 68.83,21.46 C69.86,21.62 70.68,22 71.85,22.12 C71.66,23.25 71.22,22.81 74.93,24.2 C73.12,24.48 69.02,23.46 66.9,23.38 C65.9,23.34 60.26,23.51 59.97,25.32 C61.9,26.71 71.77,25.78 75.56,27.66 C74.03,27.83 72.78,27.48 71.24,27.42 C69.69,27.36 68.75,27.03 66.89,27.07 C65.38,27.1 60.05,27.67 59.25,28.67 C62.31,29.01 63.75,28.48 68.94,29.06 C72.18,29.42 74.05,29.11 77.26,30.76 C78.75,31.53 79.18,31.21 80.28,31.75 C81.11,32.16 84.92,34.42 85.44,34.94 C91.32,40.84 94.27,42.94 97.5,51.28 C98,52.58 98.73,53.22 98.98,54.15 L99.39,61.23 C99.03,63.56 99.35,66.17 98.79,68.67 C98.06,71.92 96.17,77.19 93.85,79.77 C93.91,80.78 93.82,79.49 94.24,80.83 C92.34,81.59 89.65,84.87 87.71,86.33 C86.22,87.45 85.93,88.22 84.24,88.87 C82.97,89.35 80.83,90.48 79.6,90.58 L79.56,90.56 Z" id="Shape" fill="#40586F"></path>
                <path d="M29.78,65.39 C30.1,65.07 30.83,65.81 30.17,65.57 C30.16,65.57 29.33,65.84 29.78,65.39 Z M27.77,65.06 L28.75,65.11 C27.65,65.71 28.16,65.31 27.77,65.06 Z M27.77,65.06 L26.79,65.01 C27.89,64.41 27.38,64.81 27.77,65.06 Z M26.1,64.39 C26.13,64.36 26.2,64.44 26.2,64.49 C26.2,64.51 26.24,64.53 26.24,64.53 C26.23,64.52 25.65,64.84 26.1,64.39 Z M18.42,60.38 L18.73,60.46 L18.54,60.71 L18.43,60.38 L18.42,60.38 Z M18.42,60.38 L18.11,60.29 L18.3,60.04 L18.41,60.37 L18.42,60.38 Z M17.08,59.38 L17.39,59.46 L17.2,59.71 L17.09,59.38 L17.08,59.38 Z M17.08,59.38 L16.75,59.05 L17.08,59.38 Z M16.75,59.05 L16.44,58.96 L16.63,58.71 L16.74,59.04 L16.75,59.05 Z M10.07,51.03 L10.38,51.11 L10.19,51.36 L10.08,51.03 L10.07,51.03 Z M10.07,51.03 L9.76,50.94 L9.95,50.69 L10.06,51.02 L10.07,51.03 Z M9.4,50.03 L9.71,50.11 L9.52,50.36 L9.41,50.03 L9.4,50.03 Z M9.4,50.03 L9.05,49.43 L9.4,50.03 Z M8.73,48.69 C8.76,48.66 8.83,48.74 8.83,48.79 C8.83,48.81 8.87,48.83 8.87,48.83 C8.86,48.82 8.28,49.14 8.73,48.69 Z M8.4,48.02 C8.43,47.99 8.5,48.07 8.5,48.12 C8.5,48.14 8.54,48.16 8.54,48.16 C8.53,48.15 7.95,48.47 8.4,48.02 Z M8.07,47.35 C8.07,46.58 8.48,47.29 8.28,47.35 C8.28,47.35 8.07,48.22 8.07,47.35 Z M7.74,46.35 C7.77,46.32 7.84,46.4 7.84,46.45 C7.84,46.47 7.88,46.49 7.88,46.49 C7.87,46.48 7.29,46.8 7.74,46.35 Z M64.53,45.68 L64.44,45.99 L64.19,45.8 L64.52,45.69 L64.53,45.68 Z M61.86,45.35 L61.7,46.02 L61.86,45.35 Z M7.41,45.35 C7.44,45.32 7.51,45.4 7.51,45.45 C7.51,45.47 7.55,45.49 7.55,45.49 C7.54,45.48 6.96,45.8 7.41,45.35 Z M62.2,44.68 L61.87,45.35 L62.2,44.68 Z M13.09,39 L13.04,39.98 C12.44,38.88 12.84,39.39 13.09,39 Z M4.65,33.01 L4.73,38.3 C4.16,37.24 4.14,34.04 4.65,33.01 Z M12.42,37.66 C12.45,37.63 12.52,37.71 12.52,37.76 C12.52,37.78 12.56,37.8 12.56,37.8 C12.55,37.79 11.97,38.11 12.42,37.66 Z M2.06,27.97 C2.06,27.2 2.47,27.91 2.27,27.97 C2.27,27.97 2.06,28.83 2.06,27.97 Z M2.39,26.63 C2.42,26.6 2.49,26.68 2.49,26.73 C2.49,26.75 2.53,26.77 2.53,26.77 C2.52,26.76 1.94,27.08 2.39,26.63 Z M15.42,25.29 L15.33,25.6 L15.08,25.41 L15.41,25.3 L15.42,25.29 Z M9.74,17.6 L9.65,17.91 L9.4,17.72 L9.73,17.61 L9.74,17.6 Z M9.74,17.6 L9.82,17.29 L10.07,17.48 L9.74,17.59 L9.74,17.6 Z M7.07,17.27 C7.1,17.24 7.17,17.32 7.17,17.37 C7.17,17.39 7.21,17.41 7.21,17.41 C7.2,17.4 6.62,17.72 7.07,17.27 Z M8.07,16.27 L7.98,16.58 L7.73,16.39 L8.06,16.28 L8.07,16.27 Z M8.4,15.94 L8.07,16.27 L8.4,15.94 Z M8.73,15.27 L8.4,15.94 L8.73,15.27 Z M9.06,14.94 L8.73,15.27 L9.06,14.94 Z M9.39,14.61 L9.06,14.94 L9.39,14.61 Z M9.39,14.61 C9.66,13.63 9.43,13.91 10.39,13.27 C10.12,14.25 10.35,13.97 9.39,14.61 Z M11.06,12.6 L11.03,13.21 L10.4,13.27 L11.07,12.6 L11.06,12.6 Z M11.73,11.93 L11.7,12.54 L11.07,12.6 L11.74,11.93 L11.73,11.93 Z M11.73,11.93 C12.37,10.96 13.3,9.89 14.4,9.59 C13.76,10.56 12.83,11.63 11.73,11.93 Z M14.4,9.59 C15.06,8.6 15.94,7.89 17.07,7.58 C16.54,8.39 15.28,9.35 14.4,9.59 Z M17.07,7.58 L17.15,7.27 L17.4,7.46 L17.07,7.57 L17.07,7.58 Z M25.76,66.4 L26.76,66.49 C28.35,67.91 37.98,68.27 40.12,67.25 L40.45,67.25 C45.42,67.84 56.53,61.06 60.36,55.91 C65.18,49.44 69.18,41.91 69.18,33.31 C68.77,33.95 68.32,37.65 68.04,38.86 C67.5,41.18 67.38,41.9 66.29,44.13 L65.4,44.16 L64.51,45.69 C64.65,44.07 65.57,42.26 65.93,40.43 C66.34,38.36 66.85,36.65 65.85,34.66 C64.01,35.97 63.88,42.77 62.18,44.69 C62.24,41.7 64.65,36.97 63.3,34.05 C62.5,35.13 62.34,37.56 61.99,39.15 C61.63,40.79 61.12,42.46 60.56,44.07 C58.6,49.67 53.25,54.57 47.94,57.18 C43.08,59.57 39.86,59.15 38.16,60.43 C34.74,59.5 33.86,59.93 33.18,59.86 C32.53,59.79 32.76,59.6 31.78,59.5 C29.95,59.55 31.03,59.5 30.47,59.07 C29.75,59.07 30.36,59.16 30.11,58.74 C29.18,59.1 27.09,58.22 26.1,57.7 L24.99,57.07 C22.99,55.89 21.25,55.02 19.81,53.32 C19.04,52.41 19.16,52.52 18.14,52.67 C17.67,50.02 12.85,45.4 13.1,41.05 C13.17,39.83 13.93,40.15 13.07,39.02 C13.07,34.97 13.17,29.75 14.74,26.32 L15.74,25.32 L15.41,25.32 L15.74,24.65 L16.07,23.98 L16.74,22.98 C17.12,21.59 18.53,19.77 19.75,18.97 L19.55,18.24 C17.34,18.39 17.14,19.31 15.47,19.59 C16.06,15.99 20.93,13.05 23.71,10.84 L22.44,10.48 L25.11,8.95 L24.44,8.79 L25.11,8.61 L25.77,7.71 C20.84,8.25 14.64,13.83 11.47,18.02 C5.69,25.67 5.59,35.78 5.16,36.66 L5.07,32.68 C3.96,31.84 6.33,25.45 6.87,24.12 C7.64,22.21 10.49,17.91 10.75,16.97 L10.12,16.84 C14.11,12.67 16.14,9.74 22.55,6.71 C25.3,5.42 28.07,4.66 31,4.13 C36.72,3.1 37.16,3.94 41.81,3.52 C39.73,2.35 34.31,2.46 31.73,2.85 C30.96,2.97 28.74,3.23 28.14,3.19 C29.81,2.25 34.86,2.1 35.88,0.92 C34,-1.25 25.71,1.2 23.34,2.15 C13.45,6.16 6.92,11.71 2.83,21.74 C-0.9,30.91 0.37,47.32 6.32,53.82 C9.4,57.18 10.73,58.85 14.69,61.49 C17.53,63.38 22.54,66.2 25.78,66.42 L25.76,66.4 Z" id="Shape" fill="#219AB5"></path>
                <path d="M24.99,57.04 L26.1,57.67 C26.15,55.5 27.89,50.45 28.72,48.3 C30.55,43.62 34.61,37.29 38.2,33.72 C39.34,32.58 43.86,28.48 44.47,27.62 C40.56,27.97 34.3,36.01 32.04,39.58 C30.5,42.02 28.86,45.31 28.1,48 C27.65,49.6 25.96,56.39 24.99,57.03 L24.99,57.04 Z M30.47,59.04 C31.03,59.48 29.95,59.52 31.78,59.47 C32.3,57 32.71,54.45 33.49,52.05 C34.12,50.09 35.72,47.34 36.13,45.66 C33.64,47.44 31.45,55.41 31.45,58.36 C31.11,59.51 31.76,58.7 30.48,59.03 L30.47,59.04 Z M33.79,82.11 C32.99,78.8 31.3,77.56 29.81,69.71 C29.68,69.03 29.84,69.33 29.59,68.6 C29.13,67.23 29.48,68.26 29.11,67.74 C28.46,68.86 30.03,74.37 30.44,75.44 C31.01,76.93 32.53,81.22 33.79,82.12 L33.79,82.11 Z M53.8,13.83 C51.3,10.37 43.45,6.95 39.19,7.29 L41.21,7.83 C49.04,9.69 52.63,13.67 53.8,13.84 L53.8,13.83 Z M27.11,6.22 L35.4,5.3 C35.94,5.34 36.18,6 37.8,4.88 C34.61,4.88 29.41,4.62 27.11,6.22 Z" id="Shape" fill="#40586F"></path>
                <path d="M49.15,5.55 C47.98,3.9 44.17,2.74 42.16,2.96 C42.38,3.13 48.45,5.38 49.15,5.55 Z" id="Path" fill="#219AB5"></path>
                <path d="M53.5,87.79 L48.53,83.86 C48.9,86.04 51.33,87.26 53.5,87.79 Z M30.11,58.71 C30.44,58.2 30.8,55.59 31.04,54.63 C31.38,53.28 31.99,52.04 32.11,50.69 C30.77,52.2 30.11,56.45 30.11,58.71 Z" id="Shape" fill="#40586F"></path>
                <path d="M19.76,18.92 L18.76,20.93 L22.44,17.59 C20.69,17.74 21.02,18.1 19.77,18.93 L19.76,18.92 Z" id="Path" fill="#219AB5"></path>
                <path d="M42.47,75.76 C42.57,76.92 42.8,77.63 43.47,78.49 C44.01,77.53 43.4,76.42 42.47,75.76 Z M40.47,67.24 L40.14,67.24 C39.71,68.44 39.55,69.02 40.78,69.32 L40.47,67.24 Z M40.55,56 C41.16,55.18 41.4,53.99 41.41,53.08 C40.73,53.89 40.43,54.69 40.55,56 Z M27.45,14.31 C27.66,14.77 26.98,15.24 28.54,14.75 C28.95,14.62 29.52,14.18 29.75,14.01 L27.45,14.32 L27.45,14.31 Z M77.55,90.8 L78.55,90.8 L79.55,90.47 L79.55,90.14 C78.24,90.17 78.45,90 77.55,90.81 L77.55,90.8 Z M60.18,91.13 L61.82,91.1 L59.51,90.47 L60.18,91.13 Z M46.48,16.25 C45.76,15.61 45.73,15.4 44.84,15.83 L46.48,16.25 Z M59.51,90.47 L57.51,89.8 C58.41,90.6 58.21,90.44 59.51,90.47 Z M34.45,13.58 L36.44,13.48 L34.45,13.23 L34.45,13.58 Z M55.83,22.6 C54.44,22.6 55.18,22.48 54.49,22.93 C55.88,22.92 55.14,23.05 55.83,22.6 Z M44.81,7.23 C44.12,6.78 44.86,6.9 43.47,6.9 C44.16,7.35 43.42,7.23 44.81,7.23 Z M32.12,50.68 L32.79,49.35 L32.18,49.73 L32.12,50.68 Z M43.47,6.89 C43.13,6.67 43.6,6.24 42.5,6.81 L43.47,6.89 Z M25.1,6.89 C25.42,7.21 26.15,6.47 25.49,6.71 C25.48,6.71 24.64,6.44 25.1,6.89 Z M27.11,6.22 L26.13,6.27 C27.23,6.87 26.72,6.47 27.11,6.22 Z M15.75,25.28 L16.08,24.61 L15.75,24.61 L15.75,25.28 Z M16.08,24.61 L16.42,23.94 L16.08,23.94 L16.08,24.61 Z M16.75,23.61 L17.08,22.94 L16.75,22.94 L16.75,23.61 Z M25.1,8.56 L25.1,8.9 L25.77,8.74 L25.1,8.56 Z M67.95,31.6 L68.24,30.3 C68.15,30.37 68.07,30.38 68.06,30.5 L67.95,31.6 Z M34.45,83.45 L34.54,83.75 L34.79,83.56 L34.45,83.45 Z M18.09,21.6 L17.78,21.69 L17.97,21.93 L18.09,21.6 Z M36.13,45.67 L36.43,45.58 L36.24,45.34 L36.13,45.67 Z M42.47,75.76 L42.39,75.45 L42.14,75.64 L42.47,75.76 Z M53.83,23.27 L53.53,23.36 L53.72,23.6 L53.83,23.27 Z M33.12,48.34 L33.42,48.26 L33.23,48.01 L33.12,48.34 Z M55.5,88.8 L55.59,89.1 L55.83,88.91 L55.5,88.8 Z M47.15,16.59 L47.24,16.89 L47.48,16.7 L47.15,16.59 Z M17.42,22.6 L17.72,22.52 L17.53,22.27 L17.42,22.6 Z M79.55,90.13 L79.86,90.05 L79.67,89.8 L79.55,90.13 Z M34.45,83.45 L34.37,83.14 L34.12,83.33 L34.45,83.45 Z M52.16,11.24 L52.25,11.54 L52.49,11.35 L52.16,11.24 Z" id="Shape" fill="#40586F"></path>
                <path d="M22.43,17.59 L22.74,17.5 L22.54,17.26 L22.43,17.59 Z M10.74,16.92 L11.04,16.83 L10.85,16.59 L10.74,16.92 Z" id="Shape" fill="#219AB5"></path>
                <path d="M33.45,47.68 C33.48,47.71 33.55,47.54 33.55,47.58 C33.55,47.6 33.59,47.54 33.59,47.54 C33.58,47.55 33,47.23 33.45,47.68 Z M41.47,52.69 C41.5,52.72 41.57,52.55 41.57,52.59 C41.57,52.61 41.61,52.55 41.61,52.55 C41.6,52.56 41.02,52.24 41.47,52.69 Z M5.06,31.29 C5.09,31.32 5.16,31.15 5.16,31.19 C5.16,31.21 5.2,31.15 5.2,31.15 C5.19,31.16 4.61,30.84 5.06,31.29 Z M69.2,33.3 L69.55,32.7 L69.2,33.3 Z M32.79,49.35 L33.12,48.34 L32.79,49.35 Z M16.75,23.61 L16.42,23.94 L16.75,23.61 Z M54.5,22.94 L53.83,23.27 L54.5,22.94 Z M17.42,22.6 L17.08,22.94 L17.42,22.6 Z M18.42,21.27 L18.09,21.6 L18.42,21.27 Z M18.75,20.93 L18.42,21.27 L18.75,20.93 Z M55.83,22.6 L56.5,22.45 L55.83,22.6 Z M49.82,5.89 L49.15,5.55 L49.82,5.89 Z M47.15,16.59 L46.48,16.25 L47.15,16.59 Z M33.79,82.11 L33.94,82.78 L33.79,82.11 Z M37.13,83.11 L36.97,82.44 L37.13,83.11 Z M50.49,6.22 L49.82,5.89 L50.49,6.22 Z M37.46,83.45 L37.13,83.11 L37.46,83.45 Z M45.48,7.56 L44.81,7.23 L45.48,7.56 Z M47.82,8.56 L47.15,8.23 L47.82,8.56 Z M54.17,88.13 L53.5,87.79 L54.17,88.13 Z M46.48,7.89 L45.48,7.56 L46.48,7.89 Z M54.83,88.46 L54.17,88.13 L54.83,88.46 Z M55.5,88.8 L54.83,88.46 L55.5,88.8 Z M47.15,8.23 L46.48,7.89 L47.15,8.23 Z M56.84,89.46 L56.23,89.11 L56.84,89.46 Z M52.16,11.24 L51.16,10.57 L52.16,11.24 Z M57.51,89.8 L56.84,89.46 L57.51,89.8 Z M51.16,10.57 L50.82,10.23 L51.16,10.57 Z" id="Shape" fill="#40586F"></path>
                <path d="M5.06,32.63 L5.41,32.03 L5.06,32.63 Z" id="Path" fill="#219AB5"></path>
            </g>
        </g>
    </g>
</svg>