<?xml version="1.0" encoding="UTF-8"?>
<svg width="644px" height="98px" viewBox="0 0 644 98" version="1.1" xmlns="http://www.w3.org/2000/svg" xmlns:xlink="http://www.w3.org/1999/xlink">
    <!-- Generator: Sketch 55.2 (78181) - https://sketchapp.com -->
    <title>serious-scrum-logo</title>
    <desc>Created with Sketch.</desc>
    <g id="Page-1" stroke="none" stroke-width="1" fill="none" fill-rule="evenodd">
        <g id="serious-scrum-logo">
            <path d="M43.9003906,42.3481365 C45.3652417,43.9757488 46.4475876,45.7579576 47.1474609,47.6948162 C47.8473342,49.6316749 48.1972656,51.8858841 48.1972656,54.4575115 C48.1972656,60.5773338 45.9349185,65.6228563 41.4101562,69.5942303 C36.885394,73.5656043 31.2702158,75.5512615 24.5644531,75.5512615 C21.4719897,75.5512615 18.3795728,75.0711231 15.2871094,74.1108318 C12.194646,73.1505406 9.52540186,71.9868152 7.27929688,70.6196209 L5.1796875,74.184074 L1.2734375,74.184074 L0.58984375,50.4536053 L4.54492188,50.4536053 C5.35872803,53.3833074 6.31086694,56.0281377 7.40136719,58.3881756 C8.49186743,60.7482134 9.93228271,62.953595 11.7226562,65.0043865 C13.415373,66.924969 15.3928923,68.4549017 17.6552734,69.5942303 C19.9176545,70.7335589 22.546209,71.3032147 25.5410156,71.3032147 C27.7871206,71.3032147 29.748364,71.0102488 31.4248047,70.4243084 C33.1012454,69.838368 34.4602813,69.0082981 35.5019531,67.934074 C36.543625,66.8598499 37.3167292,65.5984693 37.8212891,64.1498943 C38.3258489,62.7013194 38.578125,61.0330418 38.578125,59.1450115 C38.578125,56.3780706 37.7968828,53.7983438 36.234375,51.4057537 C34.6718672,49.0131636 32.3444165,47.1984031 29.2519531,45.9614178 C27.1360571,45.1150594 24.7109512,44.1791963 21.9765625,43.1538006 C19.2421738,42.1284048 16.8821714,41.15999 14.8964844,40.2485272 C10.9902148,38.4907059 7.95476343,36.187669 5.79003906,33.3393475 C3.6253147,30.4910259 2.54296875,26.7719876 2.54296875,22.1821209 C2.54296875,19.545389 3.08007275,17.0877313 4.15429688,14.809074 C5.228521,12.5304168 6.75845361,10.4959319 8.74414062,8.7055584 C10.6321709,7.0128416 12.8619663,5.68635747 15.4335938,4.72606621 C18.0052212,3.76577495 20.6907412,3.28563653 23.4902344,3.28563653 C26.6803545,3.28563653 29.5367712,3.77391289 32.0595703,4.75048028 C34.5823694,5.72704766 36.8854063,6.86635918 38.96875,8.16844903 L40.9707031,4.84813653 L44.8769531,4.84813653 L45.2675781,27.8461834 L41.3125,27.8461834 C40.5963506,25.2094515 39.7906946,22.6866902 38.8955078,20.277824 C38.000321,17.8689578 36.8365957,15.68799 35.4042969,13.7348553 C34.0045503,11.846825 32.295583,10.3413062 30.2773438,9.21825371 C28.2591045,8.09520122 25.7851709,7.5336834 22.8554688,7.5336834 C19.7630054,7.5336834 17.126313,8.52651201 14.9453125,10.512199 C12.764312,12.497886 11.6738281,14.922992 11.6738281,17.7875897 C11.6738281,20.7823963 12.3736909,23.2644678 13.7734375,25.2338787 C15.1731841,27.2032896 17.2076689,28.8227396 19.8769531,30.0922772 C22.2532671,31.2316058 24.5888557,32.2162964 26.8837891,33.0463787 C29.1787224,33.876461 31.4003799,34.7634964 33.5488281,35.7075115 C35.5019629,36.5538699 37.3818269,37.5141468 39.1884766,38.5883709 C40.9951262,39.662595 42.5657485,40.9158377 43.9003906,42.3481365 Z M98.3925781,62.8071209 C96.3743389,66.6482859 93.672543,69.7081512 90.2871094,71.9868084 C86.9016758,74.2654656 83.0117407,75.4047772 78.6171875,75.4047772 C74.7434702,75.4047772 71.3499495,74.7211902 68.4365234,73.3539959 C65.5230974,71.9868016 63.1224053,70.1313514 61.234375,67.7875897 C59.3463447,65.4438279 57.9384812,62.7094803 57.0107422,59.5844647 C56.0830032,56.459449 55.6191406,53.1554456 55.6191406,49.6723553 C55.6191406,46.5473397 56.1155549,43.4793365 57.1083984,40.4682537 C58.1012419,37.457171 59.5579331,34.7472371 61.4785156,32.3383709 C63.3339937,30.0271614 65.6370305,28.1635733 68.3876953,26.7475506 C71.1383601,25.3315279 74.2226392,24.6235272 77.640625,24.6235272 C81.1562676,24.6235272 84.1673052,25.176907 86.6738281,26.2836834 C89.1803511,27.3904598 91.2148359,28.9041165 92.7773438,30.824699 C94.2747471,32.6476248 95.3896448,34.7960408 96.1220703,37.2700115 C96.8544958,39.7439822 97.2207031,42.4295022 97.2207031,45.3266522 L97.2207031,48.5493084 L65.3359375,48.5493084 C65.3359375,51.7068763 65.6370413,54.571431 66.2392578,57.1430584 C66.8414744,59.7146858 67.7936133,61.977033 69.0957031,63.9301678 C70.3652407,65.8181981 72.0253804,67.307441 74.0761719,68.3979412 C76.1269634,69.4884415 78.5683452,70.0336834 81.4003906,70.0336834 C84.2975405,70.0336834 86.7958879,69.3582344 88.8955078,68.0073162 C90.9951277,66.656398 93.0214746,64.2231541 94.9746094,60.7075115 L98.3925781,62.8071209 Z M87.6015625,44.4477459 C87.6015625,42.6248201 87.4469417,40.6717147 87.1376953,38.5883709 C86.828449,36.5050272 86.3320347,34.7635081 85.6484375,33.3637615 C84.8997358,31.8663582 83.8743555,30.6456673 82.5722656,29.7016522 C81.2701758,28.757637 79.5937603,28.2856365 77.5429688,28.2856365 C74.1249829,28.2856365 71.284842,29.7097759 69.0224609,32.5580975 C66.7600798,35.406419 65.531251,39.3695955 65.3359375,44.4477459 L87.6015625,44.4477459 Z M140.824219,32.1918865 C140.824219,33.8520511 140.417322,35.3250181 139.603516,36.6108318 C138.789709,37.8966456 137.536467,38.5395428 135.84375,38.5395428 C134.020824,38.5395428 132.629237,38.0675423 131.668945,37.1235272 C130.708654,36.179512 130.228516,35.1378558 130.228516,33.9985272 C130.228516,33.2823777 130.285481,32.6313426 130.399414,32.0454022 C130.513347,31.4594617 130.61914,30.8735301 130.716797,30.2875897 C129.186841,30.2875897 127.396495,30.9060731 125.345703,32.1430584 C123.294912,33.3800438 121.553393,35.1378387 120.121094,37.4164959 L120.121094,65.4438397 C120.121094,66.5831683 120.340818,67.5108934 120.780273,68.2270428 C121.219729,68.9431922 121.911454,69.4802962 122.855469,69.8383709 C123.669275,70.1638934 124.719069,70.4080315 126.004883,70.5707928 C127.290697,70.733554 128.405594,70.8474852 129.349609,70.9125897 L129.349609,74.1352459 L103.958984,74.1352459 L103.958984,70.9125897 C104.707686,70.8474852 105.48079,70.7823816 106.27832,70.7172772 C107.07585,70.6521727 107.767575,70.5219656 108.353516,70.3266522 C109.264979,70.0336819 109.940427,69.5209918 110.379883,68.7885662 C110.819338,68.0561407 111.039062,67.1040018 111.039062,65.9321209 L111.039062,36.1957928 C111.039062,35.1866731 110.803062,34.1938445 110.331055,33.2172772 C109.859047,32.2407098 109.199874,31.4594676 108.353516,30.8735272 C107.735023,30.4829002 107.002608,30.1980723 106.15625,30.019035 C105.309892,29.8399976 104.398442,29.7179285 103.421875,29.652824 L103.421875,26.4789959 L119.4375,25.4047772 L120.121094,26.0883709 L120.121094,32.8754803 L120.365234,32.8754803 C122.383474,30.2387483 124.629545,28.2368152 127.103516,26.8696209 C129.577486,25.5024266 131.839833,24.8188397 133.890625,24.8188397 C135.941417,24.8188397 137.609694,25.4861507 138.895508,26.8207928 C140.181322,28.1554349 140.824219,29.9457815 140.824219,32.1918865 Z M168.314453,74.1352459 L145.023438,74.1352459 L145.023438,70.9125897 C145.772139,70.8474852 146.545243,70.7823816 147.342773,70.7172772 C148.140303,70.6521727 148.832028,70.5219656 149.417969,70.3266522 C150.329432,70.0336819 151.004881,69.5209918 151.444336,68.7885662 C151.883791,68.0561407 152.103516,67.1040018 152.103516,65.9321209 L152.103516,36.1957928 C152.103516,35.1541209 151.867515,34.201982 151.395508,33.3393475 C150.9235,32.4767129 150.264327,31.7524363 149.417969,31.1664959 C148.799476,30.7758689 147.904303,30.4422134 146.732422,30.1655193 C145.560541,29.8888252 144.486333,29.7179285 143.509766,29.652824 L143.509766,26.4789959 L160.501953,25.4047772 L161.185547,26.0883709 L161.185547,65.3461834 C161.185547,66.485512 161.405271,67.429513 161.844727,68.1782147 C162.284182,68.9269163 162.975907,69.4802962 163.919922,69.8383709 C164.636071,70.1313411 165.335934,70.3673414 166.019531,70.5463787 C166.703128,70.7254161 167.468095,70.8474852 168.314453,70.9125897 L168.314453,74.1352459 Z M162.162109,6.41063653 C162.162109,8.26611455 161.551764,9.88556451 160.331055,11.269035 C159.110345,12.6525054 157.604827,13.3442303 155.814453,13.3442303 C154.154289,13.3442303 152.713873,12.6850572 151.493164,11.3666912 C150.272455,10.0483252 149.662109,8.54280645 149.662109,6.85008965 C149.662109,5.05971612 150.272455,3.49723174 151.493164,2.16258965 C152.713873,0.827947562 154.154289,0.160636527 155.814453,0.160636527 C157.669931,0.160636527 159.191726,0.787257865 160.379883,2.04051934 C161.56804,3.29378081 162.162109,4.75047198 162.162109,6.41063653 Z M221.146484,49.574699 C221.146484,52.9601326 220.60938,56.2885499 219.535156,59.5600506 C218.460932,62.8315513 216.931,65.6065887 214.945312,67.8852459 C212.699208,70.4894256 210.095067,72.4262552 207.132812,73.6957928 C204.170558,74.9653304 200.850279,75.6000897 197.171875,75.6000897 C194.111964,75.6000897 191.198582,75.022296 188.431641,73.8666912 C185.6647,72.7110865 183.207042,71.026533 181.058594,68.8129803 C178.942698,66.6319798 177.258144,63.9708736 176.004883,60.8295818 C174.751621,57.6882901 174.125,54.1645623 174.125,50.2582928 C174.125,42.7387239 176.314106,36.5864417 180.692383,31.8012615 C185.07066,27.0160814 190.807907,24.6235272 197.904297,24.6235272 C204.642612,24.6235272 210.200824,26.8940123 214.579102,31.4350506 C218.957379,35.9760889 221.146484,42.0225779 221.146484,49.574699 Z M211.039062,49.6723553 C211.039062,47.2309368 210.794924,44.65121 210.306641,41.9330975 C209.818357,39.2149849 209.085942,36.9119481 208.109375,35.0239178 C207.067703,33.0056785 205.700529,31.3862286 204.007812,30.1655193 C202.315096,28.9448101 200.248059,28.3344647 197.806641,28.3344647 C195.300118,28.3344647 193.15984,28.9529481 191.385742,30.1899334 C189.611645,31.4269188 188.171229,33.1196102 187.064453,35.2680584 C186.022781,37.2537454 185.290367,39.5160926 184.867188,42.0551678 C184.444008,44.594243 184.232422,47.0519007 184.232422,49.4282147 C184.232422,52.5532303 184.484698,55.4421988 184.989258,58.0952068 C185.493818,60.7482149 186.299474,63.1163553 187.40625,65.199699 C188.513026,67.2830428 189.904614,68.9187686 191.581055,70.1069256 C193.257495,71.2950826 195.33267,71.8891522 197.806641,71.8891522 C201.875671,71.8891522 205.098295,69.9197708 207.474609,65.980949 C209.850923,62.0421272 211.039062,56.6059837 211.039062,49.6723553 Z M279.740234,73.2563397 L264.066406,74.3305584 L263.333984,73.6469647 L263.333984,67.543449 L263.041016,67.543449 C262.259762,68.3572552 261.380864,69.2280147 260.404297,70.1557537 C259.427729,71.0834927 258.304694,71.9217005 257.035156,72.6704022 C255.570305,73.5493128 254.154304,74.2166238 252.787109,74.6723553 C251.419915,75.1280867 249.483085,75.355949 246.976562,75.355949 C242.712218,75.355949 239.46518,73.9643614 237.235352,71.1811443 C235.005523,68.3979273 233.890625,64.3533714 233.890625,59.0473553 L233.890625,36.0004803 C233.890625,34.8285994 233.670901,33.8439087 233.231445,33.0463787 C232.79199,32.2488487 232.149093,31.5571238 231.302734,30.9711834 C230.716794,30.5805564 229.984379,30.2957286 229.105469,30.1166912 C228.226558,29.9376539 227.298833,29.8155848 226.322266,29.7504803 L226.322266,26.5766522 L242.386719,25.4047772 L243.119141,26.0883709 L243.119141,59.5356365 C243.119141,63.0187269 243.900383,65.6391434 245.462891,67.3969647 C247.025398,69.1547859 248.897125,70.0336834 251.078125,70.0336834 C252.868499,70.0336834 254.463535,69.7569935 255.863281,69.2036053 C257.263028,68.6502171 258.434891,67.9991819 259.378906,67.2504803 C260.257817,66.5668831 261.030921,65.8426065 261.698242,65.0776287 C262.365563,64.3126509 262.878253,63.6046502 263.236328,62.9536053 L263.236328,35.6586834 C263.236328,34.5844593 263.008466,33.6323204 262.552734,32.8022381 C262.097003,31.9721558 261.462244,31.2641551 260.648438,30.6782147 C260.062497,30.2875877 259.191738,30.0515875 258.036133,29.9702068 C256.880528,29.8888262 255.586596,29.8155848 254.154297,29.7504803 L254.154297,26.5766522 L271.634766,25.4047772 L272.367188,26.0883709 L272.367188,64.3207928 C272.367188,65.4275691 272.59505,66.3715701 273.050781,67.152824 C273.506513,67.9340779 274.141272,68.601389 274.955078,69.1547772 C275.541019,69.5128519 276.240881,69.7488521 277.054688,69.862785 C277.868494,69.9767178 278.763667,70.0499593 279.740234,70.0825115 L279.740234,73.2563397 Z M317.435547,50.5512615 C318.770189,51.7231424 319.795569,53.0740403 320.511719,54.6039959 C321.227868,56.1339515 321.585938,58.0056775 321.585938,60.2192303 C321.585938,64.678888 319.91766,68.3246849 316.581055,71.1567303 C313.244449,73.9887757 308.923204,75.4047772 303.617188,75.4047772 C300.817694,75.4047772 298.237968,74.9002249 295.87793,73.8911053 C293.517892,72.8819856 291.833338,71.9542606 290.824219,71.1079022 L289.847656,74.2817303 L286.185547,74.2817303 L285.697266,57.5336834 L289.066406,57.5336834 C289.326824,58.803221 289.880204,60.284326 290.726562,61.9770428 C291.572921,63.6697596 292.598301,65.1996922 293.802734,66.5668865 C295.072272,67.9991854 296.594067,69.2036004 298.368164,70.1801678 C300.142261,71.1567352 302.136057,71.6450115 304.349609,71.6450115 C307.474625,71.6450115 309.883455,70.9370108 311.576172,69.5209881 C313.268889,68.1049654 314.115234,66.0786185 314.115234,63.4418865 C314.115234,62.074699 313.846682,60.894691 313.30957,59.9018475 C312.772458,58.909004 311.983078,58.0382444 310.941406,57.2895428 C309.867182,56.5408411 308.548836,55.8653921 306.986328,55.2631756 C305.42382,54.660959 303.682301,54.0668895 301.761719,53.480949 C300.231763,53.0252176 298.530934,52.3985962 296.65918,51.6010662 C294.787426,50.8035362 293.184251,49.8676731 291.849609,48.793449 C290.417311,47.6541204 289.245447,46.2543948 288.333984,44.5942303 C287.422521,42.9340657 286.966797,40.9809603 286.966797,38.7348553 C286.966797,34.7960335 288.431626,31.4594783 291.361328,28.7250897 C294.29103,25.990701 298.213517,24.6235272 303.128906,24.6235272 C305.016937,24.6235272 306.945628,24.8676653 308.915039,25.355949 C310.88445,25.8442327 312.487624,26.4301644 313.724609,27.1137615 L314.847656,24.574699 L318.363281,24.574699 L319.095703,40.0532147 L315.726562,40.0532147 C315.042965,36.6026766 313.569998,33.7950875 311.307617,31.6303631 C309.045236,29.4656387 306.286475,28.3832928 303.03125,28.3832928 C300.361966,28.3832928 298.262377,29.0506038 296.732422,30.3852459 C295.202466,31.719888 294.4375,33.3312 294.4375,35.2192303 C294.4375,36.6840814 294.689776,37.9047723 295.194336,38.8813397 C295.698896,39.857907 296.455724,40.6879769 297.464844,41.371574 C298.441411,42.0226189 299.67024,42.6329644 301.151367,43.2026287 C302.632494,43.772293 304.463531,44.4151902 306.644531,45.1313397 C308.792979,45.8149368 310.819326,46.6124549 312.723633,47.5239178 C314.627939,48.4353807 316.198562,49.4444852 317.435547,50.5512615 Z M397.367188,42.3481365 C398.832039,43.9757488 399.914385,45.7579576 400.614258,47.6948162 C401.314131,49.6316749 401.664062,51.8858841 401.664062,54.4575115 C401.664062,60.5773338 399.401715,65.6228563 394.876953,69.5942303 C390.352191,73.5656043 384.737013,75.5512615 378.03125,75.5512615 C374.938787,75.5512615 371.84637,75.0711231 368.753906,74.1108318 C365.661443,73.1505406 362.992199,71.9868152 360.746094,70.6196209 L358.646484,74.184074 L354.740234,74.184074 L354.056641,50.4536053 L358.011719,50.4536053 C358.825525,53.3833074 359.777664,56.0281377 360.868164,58.3881756 C361.958664,60.7482134 363.39908,62.953595 365.189453,65.0043865 C366.88217,66.924969 368.859689,68.4549017 371.12207,69.5942303 C373.384451,70.7335589 376.013006,71.3032147 379.007812,71.3032147 C381.253917,71.3032147 383.215161,71.0102488 384.891602,70.4243084 C386.568042,69.838368 387.927078,69.0082981 388.96875,67.934074 C390.010422,66.8598499 390.783526,65.5984693 391.288086,64.1498943 C391.792646,62.7013194 392.044922,61.0330418 392.044922,59.1450115 C392.044922,56.3780706 391.26368,53.7983438 389.701172,51.4057537 C388.138664,49.0131636 385.811213,47.1984031 382.71875,45.9614178 C380.602854,45.1150594 378.177748,44.1791963 375.443359,43.1538006 C372.708971,42.1284048 370.348968,41.15999 368.363281,40.2485272 C364.457012,38.4907059 361.42156,36.187669 359.256836,33.3393475 C357.092112,30.4910259 356.009766,26.7719876 356.009766,22.1821209 C356.009766,19.545389 356.54687,17.0877313 357.621094,14.809074 C358.695318,12.5304168 360.22525,10.4959319 362.210938,8.7055584 C364.098968,7.0128416 366.328763,5.68635747 368.900391,4.72606621 C371.472018,3.76577495 374.157538,3.28563653 376.957031,3.28563653 C380.147151,3.28563653 383.003568,3.77391289 385.526367,4.75048028 C388.049166,5.72704766 390.352203,6.86635918 392.435547,8.16844903 L394.4375,4.84813653 L398.34375,4.84813653 L398.734375,27.8461834 L394.779297,27.8461834 C394.063147,25.2094515 393.257491,22.6866902 392.362305,20.277824 C391.467118,17.8689578 390.303393,15.68799 388.871094,13.7348553 C387.471347,11.846825 385.76238,10.3413062 383.744141,9.21825371 C381.725901,8.09520122 379.251968,7.5336834 376.322266,7.5336834 C373.229802,7.5336834 370.59311,8.52651201 368.412109,10.512199 C366.231109,12.497886 365.140625,14.922992 365.140625,17.7875897 C365.140625,20.7823963 365.840488,23.2644678 367.240234,25.2338787 C368.639981,27.2032896 370.674466,28.8227396 373.34375,30.0922772 C375.720064,31.2316058 378.055653,32.2162964 380.350586,33.0463787 C382.645519,33.876461 384.867177,34.7634964 387.015625,35.7075115 C388.96876,36.5538699 390.848624,37.5141468 392.655273,38.5883709 C394.461923,39.662595 396.032545,40.9158377 397.367188,42.3481365 Z M431.351562,75.4047772 C424.385382,75.4047772 418.932962,73.0936023 414.994141,68.4711834 C411.055319,63.8487645 409.085938,57.6476546 409.085938,49.8676678 C409.085938,46.4822342 409.614904,43.3165757 410.672852,40.3705975 C411.7308,37.4246192 413.26887,34.7472371 415.287109,32.3383709 C417.207692,30.0271614 419.616522,28.1635733 422.513672,26.7475506 C425.410822,25.3315279 428.568342,24.6235272 431.986328,24.6235272 C436.706404,24.6235272 440.547511,25.7547007 443.509766,28.0170818 C446.47202,30.2794629 447.953125,33.363742 447.953125,37.2700115 C447.953125,38.8976238 447.562504,40.3380391 446.78125,41.5913006 C445.999996,42.8445621 444.714202,43.4711834 442.923828,43.4711834 C441.003246,43.4711834 439.514003,42.982907 438.456055,42.0063397 C437.398107,41.0297723 436.869141,39.9392884 436.869141,38.7348553 C436.869141,37.2700042 437.064451,35.7644854 437.455078,34.2182537 C437.845705,32.672022 438.073567,31.5408484 438.138672,30.824699 C437.552731,29.8155794 436.681972,29.1401304 435.526367,28.7983318 C434.370762,28.4565333 433.125658,28.2856365 431.791016,28.2856365 C430.228508,28.2856365 428.739265,28.619292 427.323242,29.2866131 C425.907219,29.9539341 424.531908,31.182763 423.197266,32.9731365 C421.992833,34.6007488 421.01628,36.7979925 420.267578,39.5649334 C419.518876,42.3318743 419.144531,45.6358777 419.144531,49.4770428 C419.144531,55.5317606 420.487291,60.4714898 423.172852,64.2963787 C425.858412,68.1212676 429.38214,70.0336834 433.744141,70.0336834 C436.901708,70.0336834 439.546539,69.2687171 441.678711,67.7387615 C443.810883,66.208806 445.788402,63.913907 447.611328,60.8539959 L450.736328,62.9047772 C448.58788,66.7459422 445.755877,69.7895315 442.240234,72.0356365 C438.724592,74.2817415 435.095071,75.4047772 431.351562,75.4047772 Z M491.361328,32.1918865 C491.361328,33.8520511 490.954431,35.3250181 490.140625,36.6108318 C489.326819,37.8966456 488.073576,38.5395428 486.380859,38.5395428 C484.557934,38.5395428 483.166346,38.0675423 482.206055,37.1235272 C481.245763,36.179512 480.765625,35.1378558 480.765625,33.9985272 C480.765625,33.2823777 480.822591,32.6313426 480.936523,32.0454022 C481.050456,31.4594617 481.15625,30.8735301 481.253906,30.2875897 C479.723951,30.2875897 477.933604,30.9060731 475.882812,32.1430584 C473.832021,33.3800438 472.090502,35.1378387 470.658203,37.4164959 L470.658203,65.4438397 C470.658203,66.5831683 470.877927,67.5108934 471.317383,68.2270428 C471.756838,68.9431922 472.448563,69.4802962 473.392578,69.8383709 C474.206384,70.1638934 475.256178,70.4080315 476.541992,70.5707928 C477.827806,70.733554 478.942704,70.8474852 479.886719,70.9125897 L479.886719,74.1352459 L454.496094,74.1352459 L454.496094,70.9125897 C455.244795,70.8474852 456.0179,70.7823816 456.81543,70.7172772 C457.61296,70.6521727 458.304685,70.5219656 458.890625,70.3266522 C459.802088,70.0336819 460.477537,69.5209918 460.916992,68.7885662 C461.356448,68.0561407 461.576172,67.1040018 461.576172,65.9321209 L461.576172,36.1957928 C461.576172,35.1866731 461.340172,34.1938445 460.868164,33.2172772 C460.396156,32.2407098 459.736983,31.4594676 458.890625,30.8735272 C458.272132,30.4829002 457.539718,30.1980723 456.693359,30.019035 C455.847001,29.8399976 454.935552,29.7179285 453.958984,29.652824 L453.958984,26.4789959 L469.974609,25.4047772 L470.658203,26.0883709 L470.658203,32.8754803 L470.902344,32.8754803 C472.920583,30.2387483 475.166654,28.2368152 477.640625,26.8696209 C480.114596,25.5024266 482.376943,24.8188397 484.427734,24.8188397 C486.478526,24.8188397 488.146803,25.4861507 489.432617,26.8207928 C490.718431,28.1554349 491.361328,29.9457815 491.361328,32.1918865 Z M547.074219,73.2563397 L531.400391,74.3305584 L530.667969,73.6469647 L530.667969,67.543449 L530.375,67.543449 C529.593746,68.3572552 528.714849,69.2280147 527.738281,70.1557537 C526.761714,71.0834927 525.638678,71.9217005 524.369141,72.6704022 C522.90429,73.5493128 521.488288,74.2166238 520.121094,74.6723553 C518.753899,75.1280867 516.81707,75.355949 514.310547,75.355949 C510.046203,75.355949 506.799165,73.9643614 504.569336,71.1811443 C502.339507,68.3979273 501.224609,64.3533714 501.224609,59.0473553 L501.224609,36.0004803 C501.224609,34.8285994 501.004885,33.8439087 500.56543,33.0463787 C500.125974,32.2488487 499.483077,31.5571238 498.636719,30.9711834 C498.050778,30.5805564 497.318364,30.2957286 496.439453,30.1166912 C495.560542,29.9376539 494.632817,29.8155848 493.65625,29.7504803 L493.65625,26.5766522 L509.720703,25.4047772 L510.453125,26.0883709 L510.453125,59.5356365 C510.453125,63.0187269 511.234367,65.6391434 512.796875,67.3969647 C514.359383,69.1547859 516.231109,70.0336834 518.412109,70.0336834 C520.202483,70.0336834 521.797519,69.7569935 523.197266,69.2036053 C524.597012,68.6502171 525.768875,67.9991819 526.712891,67.2504803 C527.591801,66.5668831 528.364906,65.8426065 529.032227,65.0776287 C529.699548,64.3126509 530.212238,63.6046502 530.570312,62.9536053 L530.570312,35.6586834 C530.570312,34.5844593 530.34245,33.6323204 529.886719,32.8022381 C529.430987,31.9721558 528.796228,31.2641551 527.982422,30.6782147 C527.396481,30.2875877 526.525722,30.0515875 525.370117,29.9702068 C524.214512,29.8888262 522.92058,29.8155848 521.488281,29.7504803 L521.488281,26.5766522 L538.96875,25.4047772 L539.701172,26.0883709 L539.701172,64.3207928 C539.701172,65.4275691 539.929034,66.3715701 540.384766,67.152824 C540.840497,67.9340779 541.475256,68.601389 542.289062,69.1547772 C542.875003,69.5128519 543.574866,69.7488521 544.388672,69.862785 C545.202478,69.9767178 546.097651,70.0499593 547.074219,70.0825115 L547.074219,73.2563397 Z M635.453125,74.1352459 L611.966797,74.1352459 L611.966797,70.9125897 C612.715499,70.8474852 613.472327,70.7823816 614.237305,70.7172772 C615.002282,70.6521727 615.677731,70.5219656 616.263672,70.3266522 C617.175135,70.0336819 617.850584,69.5209918 618.290039,68.7885662 C618.729494,68.0561407 618.949219,67.1040018 618.949219,65.9321209 L618.949219,41.0786053 C618.949219,37.6931717 618.176115,35.0808931 616.629883,33.2416912 C615.083651,31.4024893 613.154959,30.4829022 610.84375,30.4829022 C609.24869,30.4829022 607.751309,30.7270403 606.351562,31.215324 C604.951816,31.7036077 603.666021,32.3871946 602.494141,33.2661053 C601.550125,33.9822547 600.760745,34.7553589 600.125977,35.5854412 C599.491208,36.4155235 599.011069,37.1072483 598.685547,37.6606365 L598.685547,65.4438397 C598.685547,66.5831683 598.880857,67.5190313 599.271484,68.2514568 C599.662111,68.9838824 600.329422,69.5454002 601.273438,69.9360272 C602.022139,70.2289974 602.697588,70.4487217 603.299805,70.5952068 C603.902021,70.7416919 604.691401,70.8474852 605.667969,70.9125897 L605.667969,74.1352459 L582.669922,74.1352459 L582.669922,70.9125897 C583.418624,70.8474852 584.1429,70.7823816 584.842773,70.7172772 C585.542647,70.6521727 586.185544,70.5219656 586.771484,70.3266522 C587.682947,70.0336819 588.358396,69.5209918 588.797852,68.7885662 C589.237307,68.0561407 589.457031,67.1040018 589.457031,65.9321209 L589.457031,41.0786053 C589.457031,37.6931717 588.683927,35.0808931 587.137695,33.2416912 C585.591464,31.4024893 583.662772,30.4829022 581.351562,30.4829022 C579.756502,30.4829022 578.259122,30.7351783 576.859375,31.2397381 C575.459628,31.7442979 574.173834,32.4360228 573.001953,33.3149334 C572.057938,34.0310828 571.26042,34.8367388 570.609375,35.7319256 C569.95833,36.6271124 569.470054,37.3025613 569.144531,37.7582928 L569.144531,65.3461834 C569.144531,66.4529598 569.372394,67.3806849 569.828125,68.1293865 C570.283856,68.8780882 570.967443,69.4477439 571.878906,69.8383709 C572.562503,70.1638934 573.262366,70.4080315 573.978516,70.5707928 C574.694665,70.733554 575.492183,70.8474852 576.371094,70.9125897 L576.371094,74.1352459 L552.982422,74.1352459 L552.982422,70.9125897 C553.731124,70.8474852 554.504228,70.7823816 555.301758,70.7172772 C556.099288,70.6521727 556.791013,70.5219656 557.376953,70.3266522 C558.288416,70.0336819 558.963865,69.5209918 559.40332,68.7885662 C559.842776,68.0561407 560.0625,67.1040018 560.0625,65.9321209 L560.0625,36.0004803 C560.0625,34.9588084 559.8265,34.0229454 559.354492,33.1928631 C558.882485,32.3627808 558.223312,31.6547801 557.376953,31.0688397 C556.75846,30.6782127 555.993494,30.3608331 555.082031,30.1166912 C554.170568,29.8725494 553.226567,29.7179285 552.25,29.652824 L552.25,26.4789959 L568.363281,25.4047772 L569.046875,26.0883709 L569.046875,32.9731365 L569.388672,32.9731365 C570.202478,32.1593304 571.195307,31.1990535 572.367188,30.0922772 C573.539068,28.9855008 574.629552,28.0903274 575.638672,27.4067303 C576.778,26.6254764 578.20214,25.9744412 579.911133,25.4536053 C581.620126,24.9327693 583.467438,24.6723553 585.453125,24.6723553 C588.578141,24.6723553 591.263661,25.510563 593.509766,27.1870037 C595.755871,28.8634444 597.367183,30.8897913 598.34375,33.2661053 C599.515631,32.1267767 600.549149,31.1258101 601.444336,30.2631756 C602.339523,29.4005411 603.519524,28.4809539 604.984375,27.5043865 C606.22136,26.6580281 607.678052,25.9744412 609.354492,25.4536053 C611.030933,24.9327693 612.894521,24.6723553 614.945312,24.6723553 C619.014343,24.6723553 622.236967,26.0069773 624.613281,28.6762615 C626.989595,31.3455457 628.177734,35.4470672 628.177734,40.980949 L628.177734,65.4438397 C628.177734,66.5831683 628.373045,67.5190313 628.763672,68.2514568 C629.154299,68.9838824 629.82161,69.5454002 630.765625,69.9360272 C631.514327,70.2289974 632.254879,70.4487217 632.987305,70.5952068 C633.71973,70.7416919 634.541662,70.8474852 635.453125,70.9125897 L635.453125,74.1352459 Z" id="SeriousScrum" fill="#21283F" fill-rule="nonzero"></path>
            <path d="M350.511091,96.6434426 L643.877245,96.6434426" id="Line-4" stroke="#21283F" stroke-linecap="square" stroke-dasharray="5"></path>
        </g>
    </g>
</svg>