<?xml version="1.0" encoding="UTF-8"?>
<svg width="15px" height="15px" viewBox="0 0 15 15" version="1.1" xmlns="http://www.w3.org/2000/svg" xmlns:xlink="http://www.w3.org/1999/xlink">
    <!-- Generator: Sketch 54.1 (76490) - https://sketchapp.com -->
    <title>Group</title>
    <desc>Created with Sketch.</desc>
    <g id="Page-1" stroke="none" stroke-width="1" fill="none" fill-rule="evenodd">
        <g id="Desktop-HD" transform="translate(-248.000000, -62.000000)">
            <g id="Group" transform="translate(248.000000, 62.000000)">
                <rect id="Rectangle" fill="#1E2436" x="0" y="0" width="15" height="15"></rect>
                <path d="M9.95800005,5.632 C9.89199972,5.65400011 9.82233375,5.665 9.74900005,5.665 C9.64633287,5.665 9.57300027,5.64483354 9.52900005,5.6045 C9.48499983,5.56416646 9.45566679,5.52200022 9.44100005,5.478 C9.27233254,5.05999791 9.05416805,4.75933425 8.78650005,4.576 C8.51883204,4.39266575 8.16133562,4.301 7.71400005,4.301 C7.36199829,4.301 7.06316795,4.38716581 6.81750005,4.5595 C6.57183216,4.7318342 6.44900005,4.99399824 6.44900005,5.346 C6.44900005,5.61733469 6.54249912,5.83549917 6.72950005,6.0005 C6.91650098,6.16550083 7.15116531,6.31033271 7.43350005,6.435 C7.7158348,6.55966729 8.02016509,6.68066608 8.34650005,6.798 C8.67283502,6.91533392 8.9771653,7.06199912 9.25950005,7.238 C9.54183479,7.41400088 9.77649912,7.63766531 9.96350005,7.909 C10.150501,8.18033469 10.2440001,8.52866454 10.2440001,8.954 C10.2440001,9.23266806 10.1963339,9.50399868 10.101,9.768 C10.0056662,10.0320013 9.85533441,10.2648323 9.65000005,10.4665 C9.44466569,10.6681677 9.18433496,10.8294994 8.86900005,10.9505 C8.55366514,11.0715006 8.17600225,11.132 7.73600005,11.132 C7.25199763,11.132 6.81933529,11.0788339 6.43800005,10.9725 C6.05666481,10.8661661 5.74133463,10.7506673 5.49200005,10.626 C5.46999994,10.3106651 5.43516695,10.0008349 5.38750005,9.6965 C5.33983315,9.39216514 5.28666701,9.09700143 5.22800005,8.811 C5.30133375,8.78166652 5.38566624,8.767 5.48100005,8.767 C5.56900049,8.767 5.63499983,8.78349984 5.67900005,8.8165 C5.72300027,8.84950016 5.75966657,8.90633293 5.78900005,8.987 C5.88433386,9.26566806 5.99066613,9.50583233 6.10800005,9.7075 C6.22533397,9.90916767 6.36099928,10.074166 6.51500005,10.2025 C6.66900082,10.330834 6.84683237,10.424333 7.04850005,10.483 C7.25016772,10.541667 7.48299873,10.571 7.74700005,10.571 C7.97433452,10.571 8.16866591,10.5398336 8.33000005,10.4775 C8.49133419,10.4151664 8.62333287,10.3326672 8.72600005,10.23 C8.82866723,10.1273328 8.90566646,10.006334 8.95700005,9.867 C9.00833364,9.72766597 9.03400005,9.5846674 9.03400005,9.438 C9.03400005,9.12266509 8.94416762,8.87516756 8.76450005,8.6955 C8.58483248,8.51583244 8.36116806,8.36550061 8.09350005,8.2445 C7.82583205,8.12349939 7.53616827,8.00983387 7.22450005,7.9035 C6.91283183,7.79716613 6.62316806,7.66150082 6.35550005,7.4965 C6.08783204,7.33149918 5.86416761,7.11883464 5.68450005,6.8585 C5.50483248,6.59816536 5.41500005,6.2480022 5.41500005,5.808 C5.41500005,5.5146652 5.46816619,5.24150127 5.57450005,4.9885 C5.68083392,4.73549874 5.83666569,4.51550094 6.04200005,4.3285 C6.24733441,4.14149906 6.49483194,3.99300055 6.78450005,3.883 C7.07416816,3.77299945 7.40599818,3.718 7.78000005,3.718 C8.08800159,3.718 8.39783183,3.75099967 8.70950005,3.817 C9.02116828,3.88300033 9.37499807,3.99299923 9.77100005,4.147 C9.78566679,4.3670011 9.80949989,4.61449862 9.84250005,4.8895 C9.87550022,5.16450138 9.91399983,5.4119989 9.95800005,5.632 Z" id="S" fill="#FFFFFF" fill-rule="nonzero"></path>
            </g>
        </g>
    </g>
</svg>