<?xml version="1.0" encoding="UTF-8"?>
<svg width="114px" height="115px" viewBox="0 0 114 115" version="1.1" xmlns="http://www.w3.org/2000/svg" xmlns:xlink="http://www.w3.org/1999/xlink">
    <!-- Generator: Sketch 54.1 (76490) - https://sketchapp.com -->
    <title>svgexport-3</title>
    <desc>Created with Sketch.</desc>
    <g id="Page-1" stroke="none" stroke-width="1" fill="none" fill-rule="evenodd">
        <g id="Desktop-HD" transform="translate(-167.000000, -303.000000)" fill="#FFFFFF" fill-rule="nonzero">
            <g id="svgexport-3" transform="translate(167.000000, 303.000000)">
                <path d="M41.6428531,1.49057312e-15 C38.6275841,0.00284705405 35.7369561,1.2237094 33.6070182,3.39395048 C31.4770803,5.56419157 30.2823498,8.50599182 30.2857133,11.5720423 C30.2829105,14.6377208 31.4778887,17.5789691 33.6077658,19.7487455 C35.737643,21.9185218 38.6279505,23.1390892 41.6428531,23.1419365 L53,23.1419365 L52.9999929,11.5720423 C53.0033563,8.50599182 51.8086258,5.56419157 49.678688,3.39395048 C47.5487501,1.2237094 44.6581221,0.00284705405 41.6428531,0 M41.6428531,30.8580635 L11.3571469,30.8580635 C8.34224431,30.8609108 5.45193677,32.0814782 3.32205962,34.2512545 C1.19218247,36.4210309 -0.00279565252,39.3622792 7.08238896e-06,42.4279577 C-0.00335634761,45.4940082 1.19137416,48.4358084 3.32131205,50.6060495 C5.45124994,52.7762906 8.34187791,53.9971529 11.3571469,54 L41.6428531,54 C44.6581221,53.9971529 47.5487501,52.7762906 49.678688,50.6060495 C51.8086258,48.4358084 53.0033563,45.4940082 52.9999929,42.4279577 C53.0027957,39.3622792 51.8078175,36.4210309 49.6779404,34.2512545 C47.5480632,32.0814782 44.6577557,30.8609108 41.6428531,30.8580635" id="Shape"></path>
                <path d="M113.999993,42.4279577 C114.002796,39.3622792 112.807818,36.4210309 110.67794,34.2512545 C108.548063,32.0814782 105.657756,30.8609108 102.642853,30.8580635 C99.6279505,30.8609108 96.737643,32.0814782 94.6077658,34.2512545 C92.4778887,36.4210309 91.2829105,39.3622792 91.2857133,42.4279577 L91.2857084,54 L102.642853,54 C105.658122,53.9971529 108.54875,52.7762906 110.678688,50.6060495 C112.808626,48.4358084 114.003356,45.4940082 113.999993,42.4279577 M83.7142867,42.4279577 L83.7142867,11.5720423 C83.7176502,8.50599182 82.5229197,5.56419157 80.3929818,3.39395048 C78.2630439,1.2237094 75.3724159,0.00284705405 72.3571469,0 C69.3418779,0.00284705405 66.4512499,1.2237094 64.321312,3.39395048 C62.1913742,5.56419157 60.9966437,8.50599182 61.0000071,11.5720423 L61.0000071,42.4279577 C60.9966437,45.4940082 62.1913742,48.4358084 64.321312,50.6060495 C66.4512499,52.7762906 69.3418779,53.9971529 72.3571469,54 C75.3724159,53.9971529 78.2630439,52.7762906 80.3929818,50.6060495 C82.5229197,48.4358084 83.7176502,45.4940082 83.7142867,42.4279577" id="Shape"></path>
                <path d="M72.3571469,115 C75.3724159,114.997153 78.2630439,113.776291 80.3929818,111.60605 C82.5229197,109.435808 83.7176502,106.494008 83.7142867,103.427958 C83.7170895,100.362279 82.5221113,97.4210309 80.3922342,95.2512545 C78.262357,93.0814782 75.3720495,91.8609108 72.3571469,91.8580635 L61,91.8580635 L61.0000071,103.427958 C60.9966437,106.494008 62.1913742,109.435808 64.321312,111.60605 C66.4512499,113.776291 69.3418779,114.997153 72.3571469,115 M72.3571469,84.1419365 L102.642853,84.1419365 C105.657756,84.1390892 108.548063,82.9185218 110.67794,80.7487455 C112.807818,78.5789691 114.002796,75.6377208 113.999993,72.5720423 C114.003356,69.5059918 112.808626,66.5641916 110.678688,64.3939505 C108.54875,62.2237094 105.658122,61.0028471 102.642853,61 L72.3571469,61 C69.3418779,61.0028471 66.4512499,62.2237094 64.321312,64.3939505 C62.1913742,66.5641916 60.9966437,69.5059918 61.0000071,72.5720423 C60.9972043,75.6377208 62.1921825,78.5789691 64.3220596,80.7487455 C66.4519368,82.9185218 69.3422443,84.1390892 72.3571469,84.1419365" id="Shape"></path>
                <path d="M9.63883861e-06,72.5720423 C-0.00279309593,75.6377208 1.19218497,78.5789691 3.32206202,80.7487455 C5.45193907,82.9185218 8.34224647,84.1390892 11.3571489,84.1419365 C14.3720514,84.1390892 17.2623588,82.9185218 19.3922358,80.7487455 C21.5221129,78.5789691 22.7170909,75.6377208 22.7142882,72.5720423 L22.7142931,61 L11.3571489,61 C8.34151359,61.0028467 5.45056524,62.224004 3.32056669,64.3947099 C1.19056814,66.5654157 -0.00391462224,69.507768 9.63883861e-06,72.5741905 M30.2857144,72.5720423 L30.2857144,103.427958 C30.2823509,106.494008 31.4770814,109.435808 33.6070192,111.60605 C35.736957,113.776291 38.6275848,114.997153 41.6428536,115 C44.6581225,114.997153 47.5487503,113.776291 49.6786881,111.60605 C51.8086259,109.435808 53.0033563,106.494008 52.9999929,103.427958 L52.9999929,72.5741905 C53.0033563,69.50814 51.8086259,66.5663397 49.6786881,64.3960986 C47.5487503,62.2258575 44.6581225,61.0049952 41.6428536,61.0021481 C38.6275848,61.0049952 35.736957,62.2258575 33.6070192,64.3960986 C31.4770814,66.5663397 30.2823509,69.50814 30.2857144,72.5741905" id="Shape"></path>
            </g>
        </g>
    </g>
</svg>