<svg width="135px" height="177px" viewBox="0 0 135 177" version="1.1" xmlns="http://www.w3.org/2000/svg" xmlns:xlink="http://www.w3.org/1999/xlink"><title>Group 11</title><desc>Created with Sketch.</desc><g id="Page-1" stroke="none" stroke-width="1" fill="none" fill-rule="evenodd"><g id="41011" transform="translate(-55.000000, -214.000000)"><g id="Group-11" transform="translate(54.986318, 214.351338)"><path d="M53.1346821,91.0976617 C22.9626821,93.0816617 1.70368212,108.432662 5.65568212,125.376662 C9.60868212,142.324662 37.2786821,154.457662 67.4506821,152.473662 C97.6146821,150.490662 118.873682,135.138662 114.921682,118.191662 C110.969682,101.247662 83.2986821,89.1146617 53.1346821,91.0976617" id="Fill-278" fill="#CDCECA"></path><path d="M103.974682,113.983662 C84.4746821,117.424662 75.1316821,121.180662 58.8846821,129.663662 C57.4166821,127.390662 55.9516821,125.120662 54.4836821,122.849662 C69.7406821,114.559662 79.9556821,109.962662 99.1606821,104.289662 C100.111682,103.229662 101.996682,103.657662 103.765682,105.476662 C105.858682,107.619662 106.989682,110.884662 106.305682,112.763662 C105.919682,113.822662 105.040682,114.218662 103.974682,113.983662" id="Fill-279" fill="#000000"></path><path d="M79.9746821,155.551662 C83.1736821,154.059662 85.0566821,151.137662 88.2566821,149.645662 C73.1296821,138.040662 63.9186821,125.568662 54.0496821,111.335662 C51.8656821,112.569662 49.6806821,113.802662 47.4956821,115.034662 C56.6046821,128.647662 66.1886821,142.231662 79.9746821,155.551662" id="Fill-280" fill="#000000"></path><path d="M84.7746821,158.062662 C87.7946821,158.062662 90.2576821,155.928662 90.2576821,153.313662 C90.2576821,150.697662 87.7946821,148.564662 84.7746821,148.564662 C81.7536821,148.564662 79.2896821,150.697662 79.2896821,153.313662 C79.2896821,155.928662 81.7536821,158.062662 84.7746821,158.062662" id="Fill-281" fill="#C8A564"></path><path d="M84.7746821,156.862662 C87.0306821,156.862662 88.8716821,155.267662 88.8716821,153.313662 C88.8716821,151.358662 87.0306821,149.764662 84.7746821,149.764662 C82.5176821,149.764662 80.6766821,151.358662 80.6766821,153.313662 C80.6766821,155.267662 82.5176821,156.862662 84.7746821,156.862662" id="Fill-282" fill="#DAB873"></path><path d="M84.7746821,155.203662 C85.9766821,155.203662 86.9576821,154.354662 86.9576821,153.313662 C86.9576821,152.272662 85.9766821,151.422662 84.7746821,151.422662 C83.5716821,151.422662 82.5906821,152.272662 82.5906821,153.313662 C82.5906821,154.354662 83.5716821,155.203662 84.7746821,155.203662" id="Fill-283" fill="#C4A060"></path><path d="M52.1056821,158.862662 C48.3116821,158.581662 45.2966821,156.357662 41.5026821,156.076662 C52.3066821,138.599662 56.8186821,122.508662 61.3196821,104.392662 C63.9926821,104.799662 66.6656821,105.207662 69.3396821,105.615662 C65.3666821,122.814662 60.9036821,140.166662 52.1056821,158.862662" id="Fill-284" fill="#000000"></path><path d="M44.5986821,153.656662 C47.6496821,152.497662 50.9376821,153.702662 51.9396821,156.344662 C52.9426821,158.987662 51.2816821,162.069662 48.2306821,163.227662 C45.1786821,164.385662 41.8906821,163.181662 40.8886821,160.538662 C39.8856821,157.896662 41.5466821,154.814662 44.5986821,153.656662" id="Fill-285" fill="#C8A564"></path><path d="M45.0566821,154.866662 C47.3366821,154.000662 49.7936821,154.900662 50.5426821,156.874662 C51.2926821,158.849662 50.0516821,161.152662 47.7706821,162.017662 C45.4906821,162.882662 43.0346821,161.983662 42.2856821,160.008662 C41.5356821,158.034662 42.7766821,155.731662 45.0566821,154.866662" id="Fill-286" fill="#DAB873"></path><path d="M20.0526821,112.831662 C39.5516821,116.273662 48.8956821,120.029662 65.1416821,128.512662 C66.6106821,126.240662 68.0756821,123.969662 69.5446821,121.698662 C54.2866821,113.408662 44.0726821,108.811662 24.8666821,103.138662 C23.9156821,102.077662 22.0306821,102.505662 20.2606821,104.324662 C18.1676821,106.468662 17.0366821,109.733662 17.7226821,111.612662 C18.1076821,112.670662 18.9866821,113.067662 20.0526821,112.831662" id="Fill-287" fill="#000000"></path><path d="M16.1156821,120.283662 C15.1536821,123.963662 16.2846821,127.535662 15.3226821,131.217662 C35.3546821,126.643662 45.4556821,126.476662 64.0546821,128.074662 C64.5336821,125.412662 65.0116821,122.751662 65.4906821,120.089662 C47.9306821,118.288662 36.6506821,118.002662 16.1156821,120.283662" id="Fill-288" fill="#000000"></path><path d="M18.2366821,128.373662 C19.3366821,125.590662 19.1276821,122.141662 17.7696821,120.669662 C16.4106821,119.198662 14.4166821,120.261662 13.3156821,123.043662 C12.2156821,125.826662 12.4246821,129.276662 13.7836821,130.747662 C15.1416821,132.219662 17.1356821,131.156662 18.2366821,128.373662" id="Fill-289" fill="#C8A564"></path><path d="M17.6146821,127.699662 C18.4366821,125.620662 18.2806821,123.042662 17.2646821,121.944662 C16.2506821,120.844662 14.7606821,121.638662 13.9376821,123.717662 C13.1156821,125.796662 13.2726821,128.374662 14.2866821,129.474662 C15.3026821,130.573662 16.7916821,129.779662 17.6146821,127.699662" id="Fill-290" fill="#DAB873"></path><path d="M44.3226821,66.9476617 C65.5516821,81.5186617 11.8806821,100.718662 71.2506821,109.861662 C52.3136821,98.6606617 90.3906821,89.3456617 44.3226821,66.9476617" id="Fill-291" fill="#E6792B"></path><path d="M51.4556821,72.5706617 C65.2986821,85.2926617 18.6446821,96.1406617 65.7016821,107.961662 C54.6356821,99.1976617 74.2786821,82.4206617 51.4556821,72.5706617" id="Fill-292" fill="#F8C724"></path><path d="M52.3476821,80.0126617 C68.8586821,95.3096617 37.7506821,100.250662 65.7006821,107.961662 C54.0316821,100.087662 69.2056821,90.0616617 52.3476821,80.0126617" id="Fill-293" fill="#FAEC32"></path><path d="M35.5726821,73.0776617 C45.7656821,88.3756617 26.5586821,93.3176617 43.8166821,101.027662 C36.6126821,93.1546617 45.9806821,83.1276617 35.5726821,73.0776617" id="Fill-294" fill="#FAEC32"></path><path d="M77.7686821,64.4056617 C66.4346821,84.9566617 104.609682,93.7836617 64.8026821,115.281662 C73.0386821,102.634662 59.1426821,101.884662 59.6836821,91.6816617 C60.2506821,80.9906617 70.3746821,71.0566617 77.7686821,64.4056617" id="Fill-295" fill="#E6792B"></path><path d="M73.0346821,71.2826617 C66.7726821,87.9856617 97.0706821,90.3696617 68.4336821,111.866662 C73.1406821,101.672662 62.9936821,101.881662 62.6686821,93.2446617 C62.3276821,84.1956617 68.4926821,76.4366617 73.0346821,71.2826617" id="Fill-296" fill="#F8C724"></path><path d="M68.9086821,83.6726617 C67.9256821,91.5646617 87.3766821,96.5686617 68.4346821,111.866662 C74.7116821,100.708662 59.3736821,98.4346617 68.9086821,83.6726617" id="Fill-297" fill="#FAEC32"></path><path d="M26.1326821,85.1726617 C37.8516821,93.4226617 17.3626821,112.512662 44.9826821,113.051662 C34.8226821,106.974662 50.0606821,96.4996617 26.1326821,85.1726617" id="Fill-298" fill="#E6792B"></path><path d="M30.1886821,88.4636617 C38.3566821,96.1386617 19.5926821,108.568662 42.2306821,112.255662 C35.9316821,107.123662 41.8406821,93.1876617 30.1886821,88.4636617" id="Fill-299" fill="#F8C724"></path><path d="M31.7956821,93.6776617 C41.5566821,102.919662 28.6716821,109.574662 42.2306821,112.255662 C35.8106821,107.819662 40.8536821,99.1446617 31.7956821,93.6776617" id="Fill-300" fill="#FAEC32"></path><path d="M29.6436821,77.7436617 C44.4086821,94.1586617 16.1296821,115.682662 54.0556821,123.452662 C43.9546821,113.776662 54.9256821,108.366662 51.6866821,98.5046617 C48.2926821,88.1746617 37.4186821,81.8026617 29.6436821,77.7436617" id="Fill-301" fill="#E6792B"></path><path d="M35.3416821,82.9196617 C44.9696821,97.2526617 23.6116821,118.572662 51.3906821,123.845662 C44.8036821,115.396662 51.8266821,109.657662 49.7156821,101.047662 C47.5026821,92.0286617 40.4116821,86.4636617 35.3416821,82.9196617" id="Fill-302" fill="#F8C724"></path><path d="M40.3846821,89.0506617 C44.5496821,97.1856617 30.7556821,112.627662 50.1956821,121.312662 C42.0796821,112.443662 52.1096821,100.371662 40.3846821,89.0506617" id="Fill-303" fill="#FAEC32"></path><path d="M89.6456821,82.8766617 C76.5386821,97.4486617 101.642682,116.554662 67.9746821,123.452662 C76.9416821,114.863662 67.2026821,110.059662 70.0776821,101.306662 C73.0906821,92.1366617 82.7436821,86.4806617 89.6456821,82.8766617" id="Fill-304" fill="#E6792B"></path><path d="M84.5876821,87.4716617 C76.0406821,100.194662 91.9586821,117.710662 70.0046821,123.733662 C75.8516821,116.233662 69.9536821,111.205662 71.8276821,103.563662 C73.7926821,95.5566617 80.0866821,90.6176617 84.5876821,87.4716617" id="Fill-305" fill="#F8C724"></path><path d="M78.6176821,97.0646617 C75.9916821,103.664662 88.6586821,113.843662 71.4016821,121.552662 C78.6056821,113.679662 68.2096821,107.114662 78.6176821,97.0646617" id="Fill-306" fill="#FAEC32"></path><path d="M56.4846821,41.5146617 C42.5976821,43.1036617 25.9276821,47.9856617 27.7476821,61.5626617 C29.5666821,75.1416617 39.9846821,90.0596617 59.0696821,90.2746617 C78.1536821,90.4896617 91.7156821,75.9206617 91.8706821,61.7956617 C92.0276821,47.6706617 70.3726821,39.9246617 56.4846821,41.5146617" id="Fill-307" fill="#725F49"></path><path d="M55.5836821,41.4686617 C37.8976821,42.6326617 25.4346821,51.6306617 27.7516821,61.5636617 C30.0686821,71.4976617 46.2886821,78.6116617 63.9756821,77.4486617 C81.6586821,76.2846617 94.1206821,67.2856617 91.8036821,57.3516617 C89.4866821,47.4196617 73.2656821,40.3066617 55.5836821,41.4686617" id="Fill-308" fill="#000000"></path><path d="M56.3396821,44.7096617 C41.8386821,45.6626617 31.6206821,53.0406617 33.5206821,61.1846617 C35.4206821,69.3286617 48.7186821,75.1606617 63.2196821,74.2076617 C77.7166821,73.2536617 87.9346821,65.8756617 86.0346821,57.7316617 C84.1356821,49.5876617 70.8366821,43.7566617 56.3396821,44.7096617" id="Fill-309" fill="#000000"></path><path d="M59.1446821,48.2586617 C56.4786821,48.4336617 54.5986821,49.7906617 54.9486821,51.2876617 C55.2976821,52.7866617 57.7436821,53.8596617 60.4106821,53.6836617 C63.0766821,53.5086617 64.9566821,52.1526617 64.6066821,50.6536617 C64.2576821,49.1566617 61.8116821,48.0826617 59.1446821,48.2586617" id="Fill-310" fill="#000000"></path><path d="M59.4476821,48.4156617 C58.0566821,48.5076617 57.0766821,49.2156617 57.2586821,49.9956617 C57.4406821,50.7786617 58.7166821,51.3376617 60.1076821,51.2456617 C61.4986821,51.1546617 62.4786821,50.4466617 62.2966821,49.6646617 C62.1146821,48.8836617 60.8386821,48.3246617 59.4476821,48.4156617" id="Fill-311" fill="#725F49"></path><path d="M59.1446821,44.8666617 C56.4786821,45.0416617 54.5986821,46.3986617 54.9486821,47.8966617 C55.2976821,49.3946617 57.7436821,50.4666617 60.4106821,50.2906617 C63.0766821,50.1166617 64.9566821,48.7596617 64.6066821,47.2616617 C64.2576821,45.7636617 61.8116821,44.6916617 59.1446821,44.8666617" id="Fill-312" fill="#80634D"></path><path d="M59.1446821,43.5476617 C56.4786821,43.7226617 54.5986821,45.0796617 54.9486821,46.5766617 C55.2976821,48.0746617 57.7436821,49.1486617 60.4106821,48.9726617 C63.0766821,48.7966617 64.9566821,47.4406617 64.6066821,45.9426617 C64.2576821,44.4456617 61.8116821,43.3716617 59.1446821,43.5476617" id="Fill-313" fill="#B48B4F"></path><path d="M42.0146821,83.5786617 C55.1216821,98.1506617 21.9836821,117.350662 58.6406821,126.491662 C46.9486821,115.291662 70.4576821,105.977662 42.0146821,83.5786617" id="Fill-314" fill="#E6792B"></path><path d="M46.4186821,89.2016617 C54.9656821,101.924662 26.1606821,112.772662 55.2146821,124.592662 C48.3816821,115.828662 60.5106821,99.0526617 46.4186821,89.2016617" id="Fill-315" fill="#F8C724"></path><path d="M46.9696821,96.6446617 C57.1636821,111.941662 37.9566821,116.882662 55.2136821,124.592662 C48.0096821,116.719662 57.3776821,106.693662 46.9696821,96.6446617" id="Fill-316" fill="#FAEC32"></path><path d="M25.8796821,146.643662 C23.2686821,143.876662 22.5446821,140.199662 19.9336821,137.432662 C39.7016821,131.826662 41.7866821,131.123662 57.3346821,120.792662 C59.0326821,122.897662 60.7296821,125.001662 62.4286821,127.106662 C47.8886821,137.117662 44.9876821,138.784662 25.8796821,146.643662" id="Fill-317" fill="#000000"></path><path d="M23.8516821,137.736662 C26.8856821,138.940662 28.4986821,142.047662 27.4556821,144.674662 C26.4126821,147.301662 23.1066821,148.454662 20.0736821,147.249662 C17.0396821,146.044662 15.4266821,142.938662 16.4696821,140.311662 C17.5126821,137.684662 20.8186821,136.531662 23.8516821,137.736662" id="Fill-318" fill="#C8A564"></path><path d="M22.7426821,140.527662 C23.9956821,141.025662 24.6626821,142.308662 24.2316821,143.393662 C23.8006821,144.478662 22.4346821,144.954662 21.1826821,144.457662 C19.9286821,143.959662 19.2626821,142.676662 19.6936821,141.591662 C20.1236821,140.506662 21.4896821,140.030662 22.7426821,140.527662" id="Fill-319" fill="#DAB873"></path><path d="M75.1366821,80.5086617 C62.0296821,95.0796617 94.7066821,119.474662 58.0496821,128.616662 C69.7416821,117.416662 46.6926821,102.907662 75.1366821,80.5086617" id="Fill-320" fill="#E6792B"></path><path d="M66.8466821,93.2236617 C58.2996821,105.946662 94.8766821,113.490662 58.0506821,128.614662 C64.8826821,119.850662 52.7556821,103.074662 66.8466821,93.2236617" id="Fill-321" fill="#F8C724"></path><path d="M64.8716821,107.628662 C57.8976821,119.894662 80.4626821,112.811662 58.0516821,128.614662 C67.4976821,119.618662 54.4636821,117.678662 64.8716821,107.628662" id="Fill-322" fill="#FAEC32"></path><path d="M97.0856821,129.599662 C97.3836821,133.392662 95.6416821,136.710662 95.9406821,140.502662 C77.0266821,132.473662 75.5096821,130.359662 56.9196821,128.656662 C56.9176821,125.952662 48.5186821,123.419662 48.5156821,120.715662 C66.1196821,122.034662 77.2726821,123.739662 97.0856821,129.599662" id="Fill-323" fill="#000000"></path><path d="M93.5736821,137.190662 C92.9796821,134.257662 93.7926821,130.898662 95.3896821,129.689662 C96.9856821,128.480662 98.7616821,129.877662 99.3546821,132.811662 C99.9486821,135.743662 99.1346821,139.103662 97.5376821,140.312662 C95.9426821,141.521662 94.1666821,140.123662 93.5736821,137.190662" id="Fill-324" fill="#C8A564"></path><path d="M94.3036821,136.637662 C93.8606821,134.445662 94.4686821,131.936662 95.6606821,131.032662 C96.8536821,130.128662 98.1806821,131.173662 98.6236821,133.365662 C99.0676821,135.556662 98.4596821,138.066662 97.2666821,138.969662 C96.0746821,139.872662 94.7466821,138.828662 94.3036821,136.637662" id="Fill-325" fill="#DAB873"></path><path d="M53.5986821,90.6226617 C63.3166821,105.194662 30.9166821,122.295662 62.1186821,131.438662 C54.7916821,120.832662 78.1566821,113.890662 53.5986821,90.6226617" id="Fill-326" fill="#E6792B"></path><path d="M56.7716821,96.2456617 C62.0746821,110.229662 31.4616821,122.918662 62.1186821,131.437662 C57.2016821,122.673662 71.7136821,114.167662 56.7716821,96.2456617" id="Fill-327" fill="#F8C724"></path><path d="M55.6136821,101.589662 C62.6666821,116.887662 38.0846821,115.222662 59.3356821,129.538662 C54.3636821,121.192662 70.9886821,113.613662 55.6136821,101.589662" id="Fill-328" fill="#FAEC32"></path><path d="M61.0936821,34.0376617 C58.6836821,34.0376617 56.7226821,32.0766617 56.7226821,29.6676617 C56.7226821,27.2576617 58.6836821,25.2966617 61.0936821,25.2966617 C61.6346821,25.2966617 62.0726821,25.7356617 62.0726821,26.2766617 C62.0726821,26.8176617 61.6346821,27.2556617 61.0936821,27.2556617 C59.7636821,27.2556617 58.6806821,28.3376617 58.6806821,29.6676617 C58.6806821,30.9976617 59.7636821,32.0786617 61.0936821,32.0786617 C62.4236821,32.0786617 63.5056821,30.9976617 63.5056821,29.6676617 C63.5056821,29.1266617 63.9446821,28.6886617 64.4846821,28.6886617 C65.0256821,28.6886617 65.4636821,29.1266617 65.4636821,29.6676617 C65.4636821,32.0766617 63.5036821,34.0376617 61.0936821,34.0376617 Z M133.168682,120.964662 C132.838682,120.964662 132.516682,120.797662 132.331682,120.495662 L60.4526821,2.85666166 L1.81468212,98.8866617 C1.53268212,99.3486617 0.930682122,99.4926617 0.468682122,99.2126617 C0.00768212212,98.9306617 -0.138317878,98.3276617 0.143682122,97.8666617 L59.6176821,0.46866166 C59.9726821,-0.11433834 60.9326821,-0.11533834 61.2876821,0.46766166 L134.002682,119.474662 C134.284682,119.936662 134.138682,120.538662 133.677682,120.820662 C133.518682,120.917662 133.342682,120.964662 133.168682,120.964662 L133.168682,120.964662 Z" id="Fill-329" fill="#515251"></path><path d="M41.0966821,75.0686617 L41.0786821,75.0676617 C40.5376821,75.0576617 40.1076821,74.6116617 40.1175112,74.0716617 C40.6246821,46.5796617 55.9096821,29.3246617 66.6436821,29.0556617 C69.7826821,28.9796617 77.1756821,30.3416617 78.1586821,44.6716617 C78.1956821,45.2116617 77.7886821,45.6786617 77.2486821,45.7156617 C76.7186821,45.7536617 76.2426821,45.3456617 76.2056821,44.8066617 C75.6026821,36.0226617 72.2186821,31.0106617 66.9076821,31.0106617 L66.6926821,31.0136617 C56.9746821,31.2566617 42.5536821,48.1646617 42.0746821,74.1066617 C42.0656821,74.6416617 41.6286821,75.0686617 41.0966821,75.0686617" id="Fill-330" fill="#725F49"></path><path d="M35.6946821,176.560662 L35.5556821,176.550662 C35.0206821,176.474662 34.6476821,175.979662 34.7236821,175.443662 L59.4826821,0.84066166 C59.5546821,0.33366166 60.0136821,-0.0173383398 60.5166821,0 C61.0276821,0.0346616602 61.4266821,0.45666166 61.4306821,0.96966166 L61.6667249,26.2676617 C61.6716821,26.8076617 61.2376821,27.2506617 60.6966821,27.2556617 L60.6876821,27.2556617 C60.1506821,27.2556617 59.7136821,26.8236617 59.7086821,26.2846617 L59.5946821,14.0046617 L36.6626821,175.718662 C36.5936821,176.206662 36.1746821,176.560662 35.6946821,176.560662" id="Fill-331" fill="#515251"></path></g></g></g></svg>