<?xml version="1.0" encoding="UTF-8"?>
<svg width="84px" height="79px" viewBox="0 0 84 79" version="1.1" xmlns="http://www.w3.org/2000/svg" xmlns:xlink="http://www.w3.org/1999/xlink">
    <!-- Generator: Sketch 54.1 (76490) - https://sketchapp.com -->
    <title>wave</title>
    <desc>Created with Sketch.</desc>
    <g id="Page-1" stroke="none" stroke-width="1" fill="none" fill-rule="evenodd">
        <g id="Desktop-HD" transform="translate(-92.000000, -17.000000)" fill-rule="nonzero">
            <g id="wave" transform="translate(134.000000, 56.500000) scale(-1, 1) translate(-134.000000, -56.500000) translate(92.000000, 17.000000)">
                <path d="M32.5258506,0.241689168 C18.9241494,2.11087603 0,20.055438 0,38 L49,9.86813955 C49,9.86813955 47.4501358,-1.80935457 32.5258506,0.241689168 Z" id="Path" fill="#E8FAFF"></path>
                <path d="M83.9771724,68.5721671 C83.9735852,67.1207513 83.0588505,65.8726186 81.7948535,65.6322238 C60.0590619,61.4991691 28.3494012,43.1287242 35.2891557,25.8749517 C37.8280743,19.5624654 44.9758861,18.6562768 44.9758861,18.6562768 L44.9758861,12 L27.009747,12 L3,31.3124528 L3,60.3749266 L48.2046875,78 L84,77.9922453 L83.9771724,68.5721671 Z" id="Path" fill="#B2EDFF"></path>
                <path d="M70.077105,66.069262 C52.3961523,59.6468048 32.2445811,46.5382147 29.782809,32.9355325 C28.715009,27.0365468 31.115675,18.0046778 40.4321398,12 L27.1228108,12 L3,31.3274237 L3,56.3186128 L27.2297874,47.3547415 C29.641921,50.905589 32.7838873,54.2546607 36.6506076,57.286841 C36.881926,57.468661 37.1471559,57.5551363 37.4089455,57.5551363 C37.8301351,57.5551363 38.2446079,57.3308178 38.5032848,56.9115602 C38.9225085,56.2299202 38.7735932,55.2945822 38.1699045,54.8210003 C32.4758995,50.3566184 28.4710762,45.1699456 26.2422608,39.6750659 C25.9398431,38.9293085 26.2293187,38.0449687 26.8690486,37.6554601 L26.8690486,37.6554601 C27.5264713,37.2550497 28.3239629,37.5835821 28.6496435,38.3420891 C34.9470096,53.0031704 56.4445526,64.2723117 69.2607737,68.928122 C69.3965832,68.9765334 69.5337032,69 69.6688574,69 C70.2315903,69 70.7541865,68.5953397 70.935375,67.9591547 C71.1611235,67.1703444 70.7764665,66.3244381 70.077105,66.069262 Z" id="Path" fill="#00C3FF"></path>
                <path d="M3,31.1884761 L3,56 L20.5611443,49.4505399 C19.985168,47.9556223 19.4261323,46.4054868 18.8925879,44.7880258 C11.0281729,20.9421722 32,12 32,12 L26.7570029,12 L3,31.1884761 Z" id="Path" fill="#00AAF0"></path>
                <path d="M8,28 C8,28 18.7160785,7 38.6808587,7 C43.0415162,7 47.5763909,9.24188048 49.1489184,10.5319534 C56.1959838,16.3131329 48.4169445,25.5682355 44.6996012,19.2969201 C40.443768,12.1171363 32.744245,10.5073456 25.2995984,13.888714 C16.6773932,17.8050265 11.868865,27.378194 11.868865,27.378194 L8,28" id="Path" fill="#D1F4FF"></path>
                <path d="M6.17919229,47.5078737 C-0.449383734,41.7948362 2.34897591,26.6418859 14.8299951,30.6173294 C21.4585712,32.7286016 24.0425276,26.7673625 20.2227659,24.0349445 C18.2076748,22.5936146 13.7135056,22.6084737 8.71502421,24.3908284 C3.51508355,26.2449102 0,31.6233435 0,37.6629138 L0,57.5676481 C0,63.3292987 4.22516959,68 9.43722437,68 L9.43722437,68 L6.17919229,47.5078737 Z" id="Path" fill="#FFFFFF"></path>
                <path d="M10,69 L6.54767976,48.4594644 C0.719900121,43.7080394 1.77618738,32.4530093 9.85651234,31.03034 L9.79180221,31 C6.33930612,31.4045331 0,33.4275663 0,45.0981622 L0,45.0981622 C0,60.8771594 10,69 10,69 Z" id="Path" fill="#D1F4FF"></path>
                <path d="M22.0396199,50.1271905 C22.0396199,50.1271905 38.1278948,75.4394172 82.6578675,75.9399128 C83.3961311,75.9481792 84,76.6247125 84,77.4658232 L84,77.4658232 C84,78.3131337 83.3971205,79 82.6534152,79 L28.4029999,79 C22.3407299,79 14.1129748,75.9474277 8.97761553,68.3158092 C4.68110967,61.9309208 6.29829766,50 6.29829766,50 L22.0396199,50.1271905 Z" id="Path" fill="#00C3FF"></path>
                <path d="M82.6900204,75.9472399 C75.453967,75.9472399 59.3343269,75.9472399 42.4699904,75.9472399 C31.5846615,75.9472399 23.7989905,71.7255294 18.7856477,66.1563887 C16.933966,64.0993593 18.2840166,60.5049592 20.8701707,60.520177 L20.8952357,60.5203649 C23.3677725,60.5203649 25.7431821,58.6572212 26.859402,55.7432997 C23.5382809,52.4726061 22.0396538,50.1271905 22.0396538,50.1271905 L6.29829829,50 C6.29829829,50 4.68110689,61.9309208 8.97762182,68.3158092 C14.1131568,75.9474277 22.3407644,79 28.4030472,79 L82.6534122,79 C83.3971191,79 83.9999999,78.3131337 83.9999999,77.4658232 C84.0003297,76.6373001 83.4127848,75.9752331 82.6900204,75.9472399 Z" id="Path" fill="#00AAF0"></path>
                <path d="M3.3253058,52.5183821 C1.41142727,61.2981572 8.56742519,69 8.56742519,69 C8.56742519,69 4.73999762,61.6036536 7.64730712,56.2670748 C9.57123528,52.7352865 13.5029484,51.9917713 17.9364842,57.1035751 C21.3154674,60.9992502 25.9509844,55.4842057 23.8069527,51.3121378 C25.746532,51.7091551 27.7366889,50.935255 27.9747499,48.9247257 C28.848409,41.5470496 6.78287391,36.6565432 3.3253058,52.5183821 Z" id="Path" fill="#E8FAFF"></path>
                <path d="M8.78644414,55.9575873 C10.6537162,52.339955 14.4696478,51.5783679 18.7726243,56.8144196 C22.0521029,60.8047833 26.5511126,55.1556897 24.4702187,50.8822151 C20.6128739,44.7555828 10.8972387,44.0575551 7.56851199,50.7215356 C4.10914976,57.6472531 7.08130715,64.9380149 9.67946646,69 C9.67946646,69 5.96474942,61.4238774 8.78644414,55.9575873 Z" id="Path" fill="#D1F4FF"></path>
                <g id="Group" transform="translate(40.000000, 57.000000)" fill="#59D8FF">
                    <path d="M37.5226468,13.9244737 C37.4285489,13.9244737 37.3331234,13.9141579 37.2375319,13.8909474 C36.4824255,13.7111579 35.6957872,13.5050263 34.881434,13.2771579 C34.1591872,13.0754474 33.7220553,12.2614211 33.9037787,11.4604737 C34.0855021,10.6565789 34.8221872,10.1728421 35.5411149,10.3745526 C36.3239362,10.5937632 37.0790426,10.7910526 37.8051064,10.9649474 C38.5324979,11.1388421 38.996017,11.9338947 38.8393532,12.7420263 C38.703766,13.4451579 38.1441574,13.9244737 37.5226468,13.9244737 Z" id="Path"></path>
                    <path d="M3.0966,4.19097368 C2.88666383,4.19097368 2.67390638,4.13681579 2.47508936,4.0215 C1.86751915,3.67076316 1.27173191,3.31118421 0.68706383,2.94589474 C0.0386680851,2.53952632 -0.189855319,1.62621053 0.176246809,0.907052632 C0.542348936,0.186605263 1.36649362,-0.0677894737 2.01306383,0.338578947 C2.57134468,0.689315789 3.14074468,1.03139474 3.72076596,1.36739474 C4.38111064,1.74889474 4.63784681,2.65355263 4.29348511,3.38560526 C4.05317872,3.89881579 3.58302128,4.19097368 3.0966,4.19097368 Z" id="Path"></path>
                </g>
            </g>
        </g>
    </g>
</svg>