<svg id="Capa_1" enable-background="new 0 0 512 512" height="512" viewBox="0 0 512 512" width="512" xmlns="http://www.w3.org/2000/svg"><path d="m376 414.5h-48l-27 15 33 15h42z" fill="#ff9259"/><path d="m136 414.5v30h198l-6-30z" fill="#ffb17b"/><path d="m358 422h-204c-4.142 0-7.5-3.357-7.5-7.5s3.358-7.5 7.5-7.5h204c4.143 0 7.5 3.357 7.5 7.5s-3.357 7.5-7.5 7.5z"/><path d="m364 452h-216c-4.142 0-7.5-3.357-7.5-7.5s3.358-7.5 7.5-7.5h216c4.143 0 7.5 3.357 7.5 7.5s-3.357 7.5-7.5 7.5z"/><path d="m256 7.5c-8.284 0-15 6.716-15 15v45h30v-45c0-8.284-6.716-15-15-15z" fill="#ffb17b"/><path d="m196 204.5h-30l-36 180v30l30-30z" fill="#ff9259"/><path d="m130 384.5-24 120h30l24-120z" fill="#ffb17b"/><path d="m316 204.5h30l36 180v30l-30-30z" fill="#ff9259"/><path d="m382 384.5 24 120h-30l-24-120z" fill="#ffb17b"/><path d="m271 45c-4.142 0-7.5-3.358-7.5-7.5v-15c0-4.136-3.364-7.5-7.5-7.5s-7.5 3.364-7.5 7.5v15c0 4.142-3.358 7.5-7.5 7.5s-7.5-3.358-7.5-7.5v-15c0-12.407 10.093-22.5 22.5-22.5s22.5 10.093 22.5 22.5v15c0 4.142-3.358 7.5-7.5 7.5z"/><path d="m436 37.5-110 151 110 151h30v-302z" fill="#dff5ff"/><path d="m46 37.5h390v302h-390z" fill="#fff"/><path d="m466 347h-60c-4.143 0-7.5-3.357-7.5-7.5s3.357-7.5 7.5-7.5h52.5v-287h-405v287h52.5c4.142 0 7.5 3.357 7.5 7.5s-3.358 7.5-7.5 7.5h-60c-4.142 0-7.5-3.357-7.5-7.5v-302c0-4.142 3.358-7.5 7.5-7.5h420c4.143 0 7.5 3.358 7.5 7.5v302c0 4.143-3.357 7.5-7.5 7.5z"/><path d="m376 309.5-30 22.5 30 22.5h30v-45z" fill="#ff9259"/><path d="m106 309.5h270v45h-270z" fill="#ffb17b"/><path d="m406 362h-300c-4.142 0-7.5-3.357-7.5-7.5v-45c0-4.143 3.358-7.5 7.5-7.5h60c4.142 0 7.5 3.357 7.5 7.5s-3.358 7.5-7.5 7.5h-52.5v30h285v-30h-202.5c-4.142 0-7.5-3.357-7.5-7.5s3.358-7.5 7.5-7.5h210c4.143 0 7.5 3.357 7.5 7.5v45c0 4.143-3.357 7.5-7.5 7.5z"/><path d="m136 512h-30c-2.247 0-4.375-1.008-5.8-2.745-1.424-1.737-1.995-4.022-1.554-6.226l30-150c.813-4.062 4.76-6.699 8.825-5.884 4.062.813 6.696 4.764 5.884 8.825l-28.207 141.03h14.703l28.794-143.971c.813-4.062 4.759-6.699 8.825-5.884 4.062.813 6.696 4.764 5.884 8.825l-30 150c-.701 3.507-3.779 6.03-7.354 6.03z"/><path d="m406 512h-30c-3.575 0-6.653-2.523-7.354-6.029l-30-150c-.813-4.062 1.822-8.013 5.884-8.825 4.061-.807 8.014 1.822 8.825 5.884l28.793 143.97h14.703l-28.206-141.029c-.813-4.062 1.822-8.013 5.884-8.825 4.064-.807 8.014 1.822 8.825 5.884l30 150c.44 2.203-.13 4.488-1.555 6.226-1.423 1.736-3.552 2.744-5.799 2.744z"/></svg>