<svg width="56px" height="60px" viewBox="0 0 56 60" version="1.1" xmlns="http://www.w3.org/2000/svg" xmlns:xlink="http://www.w3.org/1999/xlink"><title>Group 8</title><desc>Created with Sketch.</desc><defs><path d="M1.457,4.551 C1.456,4.521 1.455,4.491 1.454,4.461 L1.261,4.472 C1.224,3.798 1.188,3.124 1.151,2.45 C1.135,2.451 1.118,2.452 1.101,2.452 C0.671,2.452 0.313,2.15 0.29,1.758 L0.278,1.535 C0.256,1.157 0.311,0.778 0.444,0.423 C2.963,0.28 5.482,0.175 8.002,0.106 C8.135,0.374 8.212,0.663 8.22,0.965 C8.224,1.118 8.228,1.271 8.232,1.424 C8.243,1.832 7.885,2.173 7.432,2.186 L7.296,2.19 C7.316,2.865 7.337,3.54 7.357,4.214 C7.078,4.223 6.799,4.231 6.52,4.241 C6.52,4.271 6.521,4.301 6.521,4.33 C4.832,4.387 3.145,4.461 1.457,4.551 L1.457,4.551 Z M6.805,2.611 C6.703,2.614 6.6,2.618 6.497,2.621 C6.503,3.008 6.508,3.394 6.513,3.781 C6.623,3.777 6.733,3.774 6.843,3.77 C6.83,3.384 6.818,2.997 6.805,2.611 L6.805,2.611 Z" id="path-1"></path></defs><g id="Page-1" stroke="none" stroke-width="1" fill="none" fill-rule="evenodd"><g id="10444" transform="translate(-352.000000, -230.000000)"><g id="Group-8" transform="translate(352.850763, 230.224000)"><polyline id="Fill-714" fill="#172C3A" points="13.048237 0.246 11.801237 7.369 14.447237 8.276 13.048237 0.246"></polyline><path d="M41.136237,0.784 C41.100237,0.616 39.691237,8.125 39.691237,8.125 C39.691237,8.125 42.033237,8.503 42.260237,8.503 C42.461237,8.503 41.409237,2.078 41.136237,0.784" id="Fill-715" fill="#172C3A"></path><path d="M13.020237,0.246 C13.020237,0.246 13.351237,14.872 13.705237,22.155 C15.234237,22.317 16.759237,22.493 18.280237,22.683 C18.052237,15.16 17.596237,0.113 17.596237,0.113 L13.020237,0.246" id="Fill-716" fill="#1F3A49"></path><path d="M41.136237,0.699 C41.136237,0.699 40.425237,14.759 40.071237,22.041 C38.542237,22.203 37.017237,22.379 35.496237,22.57 C35.724237,15.046 36.180237,1.42108547e-14 36.180237,1.42108547e-14 L41.136237,0.699" id="Fill-717" fill="#1F3A49"></path><path d="M45.116237,57.949 C32.990237,57.028 20.810237,57.05 8.68723699,58.015 C6.15923699,58.216 3.94323699,56.298 3.84223699,53.768 C3.56223699,46.033 3.64523699,37.674 4.43123699,28.782 C4.95423699,22.875 5.74923699,17.243 6.76723699,11.915 C7.04923699,10.428 8.55223699,9.278 10.368237,9.17 C21.262237,8.517 32.184237,8.494 43.080237,9.1 C44.782237,9.195 46.226237,10.205 46.631237,11.577 C48.150237,16.696 49.373237,22.457 50.057237,28.768 C51.080237,38.249 50.709237,46.768 49.922237,54.017 C49.653237,56.403 47.514237,58.131 45.116237,57.949" id="Fill-718" fill="#304B61"></path><path d="M46.130237,53.688 C45.906237,56.078 44.166237,57.87 42.218237,57.747 C32.373237,57.121 22.498237,57.117 12.653237,57.733 C10.600237,57.861 8.80323699,55.866 8.72623699,53.338 C8.53923699,46.489 8.58423699,39.161 9.05223699,31.423 C9.07723699,31.007 9.10323699,30.592 9.13023699,30.175 C9.16923699,29.588 9.21123699,28.999 9.25423699,28.407 C9.76023699,21.578 10.565237,15.131 11.602237,9.099 C22.046237,8.519 32.515237,8.517 42.960237,9.094 C44.449237,14.725 45.661237,21.224 46.287237,28.469 C46.339237,29.063 46.386237,29.654 46.429237,30.239 C46.459237,30.657 46.486237,31.075 46.513237,31.488 C47.025237,39.731 46.714237,47.207 46.130237,53.688" id="Fill-719" fill="#36566B"></path><path d="M48.471237,22.062 C48.406237,22.886 48.342237,23.71 48.277237,24.534 C48.167237,25.899 46.570237,26.885 44.705237,26.763 C32.874237,25.988 21.005237,26.005 9.17723699,26.814 C7.31423699,26.942 5.71323699,25.961 5.60023699,24.596 C5.53323699,23.772 5.46623699,22.948 5.39923699,22.124 C5.51323699,23.489 7.12723699,24.469 9.00823699,24.341 C20.947237,23.524 32.926237,23.507 44.867237,24.289 C46.750237,24.412 48.361237,23.427 48.471237,22.062" id="Fill-720" fill="#466A87"></path><path d="M20.035237,9.202 C24.466237,9.088 28.899237,9.078 33.331237,9.172 C33.345237,8.515 33.359237,7.859 33.373237,7.202 C33.407237,5.728 31.956237,4.494 30.137237,4.477 C27.827237,4.454 25.517237,4.459 23.207237,4.492 C21.388237,4.518 19.943237,5.758 19.984237,7.232 C20.001237,7.889 20.018237,8.546 20.035237,9.202 Z M36.280237,10.913 C29.886237,10.709 23.487237,10.724 17.094237,10.957 C17.051237,9.777 17.008237,8.597 16.965237,7.417 C16.867237,4.978 19.252237,2.897 22.283237,2.845 C25.206237,2.794 28.130237,2.787 31.053237,2.825 C34.084237,2.863 36.479237,4.934 36.392237,7.373 C36.355237,8.553 36.317237,9.733 36.280237,10.913 L36.280237,10.913 Z" id="Fill-721" fill="#304B61"></path><path d="M46.412237,19.244 C45.931237,19.759 45.264237,20.104 44.459237,20.202 C44.221237,20.231 43.970237,20.239 43.710237,20.223 C32.329237,19.537 20.915237,19.567 9.53623699,20.312 C9.27623699,20.329 9.02523699,20.323 8.78723699,20.294 C7.98223699,20.2 7.31323699,19.859 6.83123699,19.346 C6.13723699,18.61 5.83123699,17.514 6.09423699,16.285 C6.51923699,14.306 6.95723699,12.327 7.40723699,10.349 C7.82223699,8.508 9.83123699,6.976 11.905237,6.866 C21.686237,6.337 31.489237,6.312 41.272237,6.79 C43.346237,6.89 45.363237,8.411 45.788237,10.25 C46.248237,12.225 46.696237,14.202 47.131237,16.179 C47.401237,17.406 47.100237,18.504 46.412237,19.244" id="Fill-722" fill="#466A87"></path><path d="M46.507237,17.2 C46.086237,15.225 45.652237,13.251 45.207237,11.277 C44.796237,9.44 42.840237,7.926 40.828237,7.832 C31.342237,7.382 21.839237,7.406 12.354237,7.906 C10.342237,8.01 8.39423699,9.534 7.99323699,11.374 C7.55723699,13.349 7.13323699,15.326 6.72123699,17.303 C6.56823699,18.05 6.61723699,18.748 6.83123699,19.346 C7.31323699,19.859 7.98223699,20.2 8.78723699,20.294 C7.86723699,19.631 7.41523699,18.437 7.71023699,17.069 C8.11223699,15.225 8.52423699,13.382 8.94723699,11.54 C9.33323699,9.826 11.186237,8.407 13.094237,8.313 C22.087237,7.862 31.096237,7.839 40.090237,8.243 C41.998237,8.328 43.859237,9.737 44.256237,11.449 C44.688237,13.289 45.109237,15.13 45.519237,16.971 C45.822237,18.337 45.376237,19.533 44.459237,20.202 C45.264237,20.104 45.931237,19.759 46.412237,19.244 C46.621237,18.644 46.666237,17.946 46.507237,17.2" id="Fill-723" fill="#304B61"></path><path d="M40.476237,57.643 C31.667237,57.149 22.838237,57.152 14.030237,57.651 C11.471237,57.795 9.23323699,55.893 9.02723699,53.341 C8.69523699,49.005 8.36323699,44.669 8.03023699,40.333 C7.82523699,37.783 9.94423699,35.533 12.766237,35.373 C22.412237,34.826 32.080237,34.823 41.725237,35.364 C44.548237,35.522 46.668237,37.771 46.465237,40.321 C46.135237,44.657 45.805237,48.993 45.476237,53.33 C45.272237,55.881 43.035237,57.786 40.476237,57.643" id="Fill-724" fill="#48708C"></path><path d="M9.01223699,53.15 C9.05823699,53.756 9.10523699,54.363 9.15223699,54.969 C9.27323699,56.534 10.114237,57.857 11.280237,58.608 C16.272237,58.943 21.597237,59.143 27.220237,59.1420037 C32.868237,59.141 38.215237,58.938 43.227237,58.598 C44.392237,57.847 45.231237,56.523 45.351237,54.958 C45.397237,54.351 45.443237,53.745 45.490237,53.138 C33.348237,52.215 21.153237,52.219 9.01223699,53.15" id="Fill-725" fill="#36566B"></path><path d="M7.94223699,58.044 C3.19523699,58.805 1.31123699,56.381 1.30423699,56.372 C1.22323699,55.475 1.14223699,54.578 1.06223699,53.681 C0.713236988,49.806 0.368236988,45.93 0.0272369884,42.054 C-0.189763012,39.64 0.898236988,37.254 2.99223699,35.702 C3.23423699,35.626 3.47623699,35.551 3.71923699,35.475 C3.71723699,35.475 5.15823699,37.669 6.46023699,44.565 C7.09623699,47.909 7.64523699,52.321 7.94223699,58.044" id="Fill-726" fill="#36566B"></path><path d="M53.348237,56.372 C53.341237,56.382 51.401237,58.797 46.490237,58.025 C46.543237,56.962 46.605237,55.943 46.675237,54.97 C46.689237,54.772 46.704237,54.574 46.719237,54.38 C46.750237,53.986 46.780237,53.6 46.814237,53.22 C47.824237,41.239 50.245237,36.506 50.857237,35.515 C51.087237,35.578 51.316237,35.641 51.546237,35.704 C53.222237,36.907 54.280237,38.645 54.560237,40.511 C54.640237,41.04 54.658237,41.582 54.610237,42.124 C54.307237,45.594 54.000237,49.064 53.691237,52.534 C53.577237,53.814 53.462237,55.093 53.348237,56.372" id="Fill-727" fill="#36566B"></path><path d="M46.127237,41.405 C45.865237,44.896 45.604237,48.387 45.342237,51.878 C45.223237,53.444 44.376237,54.768 43.197237,55.52 C32.420237,54.796 21.606237,54.811 10.831237,55.562 C10.047237,55.067 9.40923699,54.317 9.03223699,53.414 C8.76523699,49.923 8.49723699,46.433 8.23023699,42.942 C8.02723699,40.413 9.93823699,38.199 12.499237,38.05 C22.323237,37.476 32.171237,37.473 41.995237,38.041 C44.019237,38.157 45.645237,39.568 46.127237,41.405" id="Fill-728" fill="#304B61"></path><path d="M45.451237,41.939 C45.209237,45.288 44.966237,48.638 44.723237,51.987 C44.613237,53.49 43.798237,54.761 42.661237,55.484 C32.243237,54.809 21.791237,54.822 11.374237,55.525 C10.618237,55.048 10.005237,54.328 9.64223699,53.461 C9.39423699,50.112 9.14623699,46.763 8.89823699,43.414 C8.71023699,40.988 10.558237,38.868 13.027237,38.729 C22.497237,38.195 31.989237,38.191 41.459237,38.72 C43.410237,38.828 44.981237,40.178 45.451237,41.939" id="Fill-729" fill="#466A87"></path><path d="M7.44923699,55.003 C3.77223699,55.588 1.80323699,54.326 1.06223699,53.681 C0.713236988,49.806 0.368236988,45.93 0.0272369884,42.054 C-0.189763012,39.64 0.898236988,37.254 2.99223699,35.702 C3.31323699,35.537 3.63423699,35.373 3.95623699,35.209 C3.95423699,35.209 5.15723699,37.67 6.46023699,44.565 C6.88323699,47.421 7.23223699,50.87 7.44923699,55.003" id="Fill-730" fill="#466A87"></path><path d="M53.691237,52.534 C53.658237,52.799 53.625237,53.064 53.592237,53.329 C53.585237,53.338 51.523237,55.661 46.675237,54.97 C46.689237,54.772 46.704237,54.574 46.719237,54.38 C46.750237,53.986 46.780237,53.6 46.814237,53.22 C47.828237,41.24 49.921237,36.216 50.531237,35.224 C50.870237,35.383 51.208237,35.543 51.546237,35.704 C53.222237,36.907 54.280237,38.645 54.560237,40.511 C54.640237,41.04 54.658237,41.582 54.610237,42.124 C54.307237,45.594 54.000237,49.064 53.691237,52.534" id="Fill-731" fill="#466A87"></path><path d="M46.513237,31.488 C34.043237,30.57 21.524237,30.548 9.05223699,31.423 C9.07723699,31.007 9.10323699,30.592 9.13023699,30.175 C21.549237,29.312 34.013237,29.334 46.429237,30.239 C46.459237,30.657 46.486237,31.075 46.513237,31.488" id="Fill-732" fill="#466A87"></path><path d="M9.13023699,30.175 C9.00323699,30.16 27.561237,25.717 46.429237,30.239 C33.969237,28.847 9.11323699,29.91 9.13023699,30.175" id="Fill-733" fill="#304B61"></path><path d="M9.89723542,20.361 C9.91723699,20.275 13.468237,20.358 18.475237,20.441 C26.208237,20.57 37.417237,20.699 44.459237,20.202 C42.498237,20.125 33.852237,19.693 25.701237,19.797 C17.550237,19.818 9.89323699,20.375 9.89723542,20.361" id="Fill-734" fill="#304B61"></path><g id="Group-737" transform="translate(12.149237, 30.776000)"><mask id="mask-2" fill="white"><use xlink:href="#path-1"></use></mask><g id="Clip-736"></g><polygon id="Fill-735" fill="#335266" mask="url(#mask-2)" points="0.256 4.551 8.243 4.551 8.243 0.106 0.256 0.106"></polygon></g><path d="M13.696237,37.983 C13.666237,37.098 13.636237,36.212 13.606237,35.327 C15.294237,35.237 16.981237,35.163 18.670237,35.106 C18.682237,35.992 18.695237,36.878 18.708237,37.763 C17.036237,37.82 15.366237,37.893 13.696237,37.983" id="Fill-738" fill="#446B85"></path><path d="M13.720237,38.691 C13.712237,38.455 13.704237,38.219 13.696237,37.983 C15.366237,37.893 17.036237,37.82 18.708237,37.763 C18.711237,38 18.715237,38.236 18.718237,38.472 C17.051237,38.528 15.386237,38.601 13.720237,38.691" id="Fill-739" fill="#2D475C"></path><path d="M13.426237,29.912 C13.425237,29.897 13.425237,29.882 13.424237,29.867 C15.007237,29.796 16.949237,29.727 19.117237,29.67 C19.118237,29.67 19.118237,29.671 19.119237,29.672 C17.220237,29.731 15.323237,29.811 13.426237,29.912 M13.407237,29.352 C13.399237,29.094 13.390237,28.836 13.382237,28.578 L13.325237,28.521 C12.797237,28.041 12.513237,27.388 12.476237,26.714 C12.474237,26.679 12.474237,26.644 12.475237,26.609 C14.500237,26.496 16.527237,26.406 18.553237,26.339 C18.555237,26.451 18.556237,26.563 18.557237,26.674 L18.634237,26.672 C18.630237,26.56 18.626237,26.449 18.623237,26.337 C19.031237,26.323 19.439237,26.311 19.848237,26.299 C19.853237,26.334 19.856237,26.369 19.857237,26.404 L19.861237,26.575 C19.879237,27.198 19.611237,27.793 19.162237,28.276 C19.058237,28.387 18.969237,28.514 18.913237,28.658 C16.779237,28.864 14.918237,29.114 13.407237,29.352 M13.237237,24.085 C13.197237,22.84 13.157237,21.595 13.118237,20.349 C14.550237,20.372 16.386237,20.407 18.475237,20.441 C18.477237,20.441 18.479237,20.441 18.481237,20.441 C18.495237,21.581 18.508237,22.72 18.522237,23.859 C16.760237,23.917 14.998237,23.992 13.237237,24.085" id="Fill-740" fill="#335266"></path><path d="M12.475237,26.609 C12.499237,26.171 12.828237,25.794 13.287237,25.648 C13.270237,25.127 13.253237,24.606 13.237237,24.085 C14.998237,23.992 16.760237,23.917 18.522237,23.859 C18.532237,24.686 18.543237,25.513 18.553237,26.339 C16.527237,26.406 14.500237,26.496 12.475237,26.609 M18.623237,26.337 C18.612237,26.017 18.602237,25.697 18.591237,25.377 L18.611237,25.376 C18.626237,25.376 18.641237,25.375 18.657237,25.375 C19.268237,25.375 19.775237,25.775 19.848237,26.299 C19.439237,26.311 19.031237,26.323 18.623237,26.337" id="Fill-741" fill="#426581"></path><path d="M18.784237,42.923 C17.143237,42.702 15.496237,42.497 13.845237,42.308 C13.803237,41.102 13.762237,39.897 13.720237,38.691 C15.386237,38.601 17.051237,38.528 18.718237,38.472 C18.740237,39.956 18.762237,41.439 18.784237,42.923" id="Fill-742" fill="#426581"></path><path d="M12.593237,31.199 C12.728237,30.841 12.941237,30.509 13.235237,30.229 C13.302237,30.166 13.367237,30.089 13.429237,29.997 C13.428237,29.969 13.427237,29.94 13.426237,29.912 C15.323237,29.811 17.220237,29.731 19.119237,29.672 C19.208237,29.799 19.303237,29.898 19.399237,29.974 C19.721237,30.23 19.982237,30.539 20.151237,30.882 C17.631237,30.951 15.112237,31.056 12.593237,31.199" id="Fill-743" fill="#426581"></path><path d="M13.424237,29.867 C13.419237,29.695 13.413237,29.524 13.407237,29.352 C14.918237,29.114 16.779237,28.864 18.913237,28.658 C18.829237,28.876 18.823237,29.13 18.967237,29.416 C19.015237,29.511 19.065237,29.595 19.117237,29.67 C16.949237,29.727 15.007237,29.796 13.424237,29.867" id="Fill-744" fill="#2D475C"></path><path d="M13.113237,20.175 C13.112237,20.15 13.111237,20.126 13.110237,20.101 C14.898237,20.008 16.686237,19.932 18.474237,19.874 C18.475237,19.896 18.475237,19.917 18.475237,19.938 C16.401237,20.01 14.556237,20.098 13.113237,20.175" id="Fill-745" fill="#335266"></path><path d="M13.110237,20.101 C13.110237,20.096 13.110237,20.091 13.110237,20.085 C14.897237,19.992 16.686237,19.916 18.474237,19.858 C18.474237,19.863 18.474237,19.869 18.474237,19.874 C16.686237,19.932 14.898237,20.008 13.110237,20.101" id="Fill-746" fill="#426581"></path><path d="M18.481237,20.441 C18.479237,20.441 18.477237,20.441 18.475237,20.441 C16.386237,20.407 14.550237,20.372 13.118237,20.349 C13.116237,20.291 13.115237,20.233 13.113237,20.175 C14.556237,20.098 16.401237,20.01 18.475237,19.938 C18.477237,20.106 18.479237,20.274 18.481237,20.441" id="Fill-747" fill="#2D475C"></path><path d="M14.118237,20.035 C14.472237,27.317 14.825237,34.599 15.179237,41.881 C16.708237,42.043 18.233237,42.219 19.754237,42.409 C19.526237,34.886 19.298237,27.363 19.070237,19.839 C17.419237,19.889 15.768237,19.955 14.118237,20.035" id="Fill-748" fill="#172C3A"></path><path d="M19.686237,34.879 C18.039237,34.928 16.393237,34.992 14.748237,35.073 C14.729237,34.687 14.710237,34.301 14.691237,33.915 C16.344237,33.834 17.997237,33.769 19.651237,33.72 C19.663237,34.106 19.674237,34.492 19.686237,34.879 Z M21.068237,32.078 C21.051237,31.389 20.677237,30.767 20.104237,30.308 C19.952237,30.186 19.804237,30.008 19.674237,29.749 C19.437237,29.273 19.611237,28.887 19.872237,28.609 C20.321237,28.128 20.591237,27.534 20.575237,26.911 L20.570237,26.739 C20.556237,26.151 20.000237,25.688 19.329237,25.708 L19.309237,25.709 C19.322237,26.14 19.335237,26.572 19.348237,27.004 C18.530237,27.029 17.711237,27.057 16.893237,27.089 C16.074237,27.121 15.256237,27.157 14.438237,27.197 C14.417237,26.766 14.396237,26.334 14.375237,25.903 L14.356237,25.904 C13.685237,25.937 13.167237,26.442 13.199237,27.029 C13.235237,27.703 13.516237,28.357 14.043237,28.839 C14.324237,29.095 14.528237,29.466 14.329237,29.959 C14.222237,30.226 14.088237,30.414 13.948237,30.546 C13.361237,31.103 13.093237,31.868 13.135237,32.626 L13.147237,32.849 C13.170237,33.257 13.554237,33.567 14.006237,33.544 C14.040237,34.218 14.075237,34.892 14.110237,35.566 C16.138237,35.461 18.168237,35.381 20.198237,35.324 C20.179237,34.65 20.161237,33.975 20.142237,33.3 L20.278237,33.297 C20.730237,33.284 21.089237,32.945 21.079237,32.537 C21.075237,32.384 21.072237,32.231 21.068237,32.078 L21.068237,32.078 Z" id="Fill-749" fill="#54809D"></path><path d="M38.834237,35.218 C37.146237,35.143 35.457237,35.084 33.769237,35.041 C33.771237,34.982 33.774237,34.923 33.777237,34.863 L33.583237,34.859 C33.600237,34.184 33.616237,33.509 33.632237,32.835 C33.180237,32.824 32.820237,32.485 32.828237,32.077 L32.833237,31.854 C32.840237,31.508 32.912237,31.165 33.047237,30.846 C35.593237,30.901 38.138237,30.994 40.682237,31.125 C40.770237,31.376 40.812237,31.639 40.798237,31.909 C40.790237,32.061 40.782237,32.214 40.774237,32.367 C40.753237,32.761 40.394237,33.065 39.961237,33.065 C39.946237,33.065 39.931237,33.065 39.916237,33.064 L39.780237,33.057 C39.748237,33.731 39.715237,34.405 39.683237,35.079 C39.404237,35.066 39.124237,35.053 38.845237,35.041 C38.841237,35.1 38.838237,35.159 38.834237,35.218 M38.950237,33.424 C38.925237,33.81 38.900237,34.196 38.875237,34.581 C38.985237,34.586 39.095237,34.591 39.204237,34.597 C39.222237,34.21 39.240237,33.824 39.258237,33.438 C39.155237,33.433 39.053237,33.429 38.950237,33.424" id="Fill-750" fill="#335266"></path><path d="M38.663237,37.87 C36.993237,37.796 35.321237,37.738 33.650237,37.696 C33.690237,36.811 33.729237,35.926 33.769237,35.041 C35.457237,35.084 37.146237,35.143 38.834237,35.218 C38.777237,36.102 38.720237,36.986 38.663237,37.87" id="Fill-751" fill="#446B85"></path><path d="M38.618237,38.577 C36.952237,38.503 35.286237,38.445 33.619237,38.404 C33.629237,38.168 33.640237,37.932 33.650237,37.696 C35.321237,37.738 36.993237,37.796 38.663237,37.87 C38.648237,38.106 38.633237,38.342 38.618237,38.577" id="Fill-752" fill="#2D475C"></path><path d="M39.771237,29.839 C37.852237,29.747 35.931237,29.677 34.011237,29.628 L34.013237,29.626 C34.014237,29.61 34.015237,29.594 34.015237,29.578 C35.964237,29.612 37.885237,29.667 39.714237,29.749 C39.733237,29.781 39.752237,29.81 39.771237,29.839 M39.513237,28.952 C37.667237,28.701 35.846237,28.523 34.069237,28.404 C34.072237,28.338 34.075237,28.272 34.078237,28.207 L34.026237,28.146 C33.536237,27.626 33.305237,26.953 33.320237,26.278 C33.321237,26.273 33.321237,26.267 33.321237,26.262 C35.349237,26.308 37.377237,26.377 39.404237,26.469 C39.399237,26.551 39.394237,26.633 39.388237,26.715 L39.464237,26.719 C39.468237,26.636 39.472237,26.554 39.476237,26.472 C39.886237,26.491 40.295237,26.511 40.706237,26.531 C40.706237,26.537 40.705237,26.542 40.705237,26.547 L40.697237,26.719 C40.665237,27.341 40.351237,27.913 39.865237,28.359 C39.695237,28.515 39.554237,28.712 39.513237,28.952 M39.568237,23.994 C37.806237,23.914 36.044237,23.851 34.281237,23.805 C34.332237,22.716 34.383237,21.627 34.434237,20.538 C36.291237,20.519 38.102237,20.485 39.805237,20.43 C39.726237,21.618 39.647237,22.806 39.568237,23.994" id="Fill-753" fill="#335266"></path><path d="M40.706237,26.531 C40.295237,26.511 39.886237,26.491 39.476237,26.472 C39.492237,26.123 39.508237,25.773 39.524237,25.424 L39.543237,25.425 C40.209237,25.455 40.726237,25.951 40.706237,26.531 M39.404237,26.469 C37.377237,26.377 35.349237,26.308 33.321237,26.262 C33.340237,25.787 33.712237,25.395 34.213237,25.279 C34.236237,24.787 34.258237,24.296 34.281237,23.805 C36.044237,23.851 37.806237,23.914 39.568237,23.994 C39.513237,24.819 39.459237,25.644 39.404237,26.469" id="Fill-754" fill="#426581"></path><path d="M39.403237,19.998 C37.943237,19.946 36.264237,19.894 34.466237,19.854 C34.467237,19.844 34.467237,19.834 34.468237,19.824 C36.113237,19.867 37.759237,19.925 39.403237,19.998" id="Fill-755" fill="#335266"></path><path d="M39.833237,20.014 C39.692237,20.008 39.549237,20.003 39.403237,19.998 C37.759237,19.925 36.113237,19.867 34.468237,19.824 C34.469237,19.789 34.471237,19.754 34.472237,19.719 C36.262237,19.766 38.051237,19.831 39.840237,19.913 C39.837237,19.947 39.835237,19.98 39.833237,20.014" id="Fill-756" fill="#426581"></path><path d="M38.341237,42.931 C36.721237,42.582 35.095237,42.249 33.464237,41.931 C33.515237,40.756 33.567237,39.58 33.619237,38.404 C35.286237,38.445 36.952237,38.503 38.618237,38.577 C38.525237,40.029 38.433237,41.48 38.341237,42.931" id="Fill-757" fill="#426581"></path><path d="M40.682237,31.125 C38.138237,30.994 35.593237,30.901 33.047237,30.846 C33.209237,30.465 33.461237,30.119 33.803237,29.842 L34.011237,29.628 C35.931237,29.677 37.852237,29.747 39.771237,29.839 C39.834237,29.93 39.901237,30.007 39.969237,30.07 C40.296237,30.375 40.545237,30.735 40.682237,31.125" id="Fill-758" fill="#426581"></path><path d="M39.714237,29.749 C37.885237,29.667 35.964237,29.612 34.015237,29.578 C34.033237,29.187 34.051237,28.795 34.069237,28.404 C35.846237,28.523 37.667237,28.701 39.513237,28.952 C39.486237,29.11 39.502237,29.286 39.582237,29.481 C39.623237,29.581 39.667237,29.67 39.714237,29.749" id="Fill-759" fill="#2D475C"></path><path d="M34.434237,20.538 C34.445237,20.31 34.455237,20.082 34.466237,19.854 C36.264237,19.894 37.943237,19.946 39.403237,19.998 C39.549237,20.003 39.692237,20.008 39.833237,20.014 C39.824237,20.152 39.814237,20.291 39.805237,20.43 C38.102237,20.485 36.291237,20.519 34.434237,20.538" id="Fill-760" fill="#2D475C"></path><path d="M35.482237,20.201 C35.264237,27.489 35.045237,34.776 34.827237,42.064 C36.339237,42.345 37.846237,42.64 39.348237,42.949 C39.711237,35.431 40.073237,27.913 40.435237,20.395 C38.784237,20.315 37.133237,20.251 35.482237,20.201" id="Fill-761" fill="#172C3A"></path><path d="M39.870237,34.983 C38.224237,34.902 36.578237,34.838 34.931237,34.789 C34.942237,34.403 34.954237,34.016 34.965237,33.63 C36.619237,33.679 38.273237,33.744 39.927237,33.824 C39.908237,34.21 39.889237,34.597 39.870237,34.983 Z M41.469237,32.299 C41.506237,31.611 41.182237,30.961 40.646237,30.458 C40.505237,30.326 40.370237,30.137 40.261237,29.868 C40.062237,29.375 40.266237,29.004 40.547237,28.747 C41.034237,28.302 41.349237,27.731 41.382237,27.109 L41.391237,26.938 C41.423237,26.35 40.904237,25.845 40.233237,25.812 L40.214237,25.811 C40.193237,26.243 40.172237,26.674 40.151237,27.106 C39.333237,27.066 38.514237,27.03 37.696237,26.998 C36.877237,26.966 36.058237,26.938 35.239237,26.913 C35.252237,26.482 35.265237,26.05 35.278237,25.618 L35.258237,25.618 C34.587237,25.597 34.031237,26.061 34.017237,26.649 C34.000237,27.324 34.229237,27.998 34.716237,28.519 C34.977237,28.797 35.151237,29.183 34.914237,29.659 C34.786237,29.916 34.638237,30.093 34.489237,30.214 C33.859237,30.723 33.533237,31.464 33.515237,32.224 L33.510237,32.447 C33.500237,32.855 33.859237,33.194 34.311237,33.206 C34.292237,33.881 34.274237,34.556 34.256237,35.23 C36.287237,35.285 38.317237,35.364 40.347237,35.467 C40.381237,34.793 40.415237,34.119 40.449237,33.445 L40.586237,33.452 C41.037237,33.475 41.421237,33.165 41.444237,32.757 C41.452237,32.604 41.460237,32.452 41.469237,32.299 L41.469237,32.299 Z" id="Fill-762" fill="#54809D"></path></g></g></g></svg>