<?xml version="1.0"?>
<svg xmlns="http://www.w3.org/2000/svg" xmlns:xlink="http://www.w3.org/1999/xlink" xmlns:svgjs="http://svgjs.com/svgjs" version="1.1" width="512" height="512" x="0" y="0" viewBox="0 0 570.664 570.664" style="enable-background:new 0 0 512 512" xml:space="preserve"><g>
<g xmlns="http://www.w3.org/2000/svg">
	<g>
		<path d="M24.1,304.301c4.773,6.169,8.829,12.982,14.133,18.634c4.896,5.218,10.755,9.678,16.691,13.737    c8.413,5.757,17.344,10.755,25.924,16.275c2.007,1.293,3.476,3.41,5.247,5.092c6.356,6.034,13.725,10.135,22.399,11.856    c2.195,0.437,4.264,1.497,6.414,2.19c27.589,8.903,52.53,23.856,79.27,34.688c7.495,3.035,15.096,5.867,22.791,8.355    c10.885,3.525,22.191,3.436,33.505,3.334c8.368-0.074,16.789,1.199,25.104,0.628c11.897-0.82,23.68-3.125,35.569-4.161    c16.475-1.44,32.971-1.742,49.47,0.538c5.146,0.71,10.543,0.122,15.761-0.453c3.044-0.334,3.812-4.096,1.2-6.03    c-6.382-4.729-11.727-11.093-19.76-13.309c-4.223-1.163-8.527-2.615-12.831-2.733c-5.32-0.147-9.683-1.371-12.836-6.197    c3.822-4.104,8.919-6.455,14.79-7.422c15.178-2.493,27.303-10.498,38.653-20.478c10.809-9.507,21.955-18.988,37.773-18.698    c1.032,0.02,2.064-0.437,3.108-0.584c6.781-0.954,12.342-0.257,16.736,6.52c3.419,5.268,8.723,9.539,13.855,13.358    c2.073,1.542,6.055,1.383,8.936,0.816c10.18-2,20.208-4.754,30.396-6.712c4.464-0.856,9.168-0.384,13.75-0.71    c5.605-0.4,6.675-4.472,6.81-9.033c0.126-4.423-0.221-7.943-5.953-9.515c-11.068-3.039-21.248-0.114-31.652,2.681    c-4.382,1.179-8.552,3.913-13.492,0.114c-3.647-2.807-4.64-5.749-3.375-9.552c4.97-14.944,11.792-29.041,20.27-42.301    c0.983-1.538,3.265-2.828,5.125-3.134c16.744-2.778,33.104-6.875,48.646-13.815c3.537-1.579,6.903-3.574,10.232-5.573    c1.326-0.799,3.016-1.934,3.387-3.239c3.138-11.012,12.615-17.887,17.748-27.614c4.398-8.327,3.745-21.061-3.312-27.409    c-13.607-12.24-27.3-24.459-41.723-35.704c-15.5-12.085-33.558-12.024-52.061-8.633c-10.359,1.901-21.008,4.357-31.347,3.713    c-13.745-0.857-27.291-4.66-40.972-6.891c-11.958-1.95-23.941-3.95-35.993-5.055c-12.045-1.102-24.044-0.163-35.978,2.554    c-7.842,1.787-16.178,1.399-24.027,3.166c-21.44,4.827-41.979,12.207-61.608,22.322c-14.178,7.303-25.549,17.891-36.573,28.919    c-8.47,8.474-16.793,17.262-23.958,26.826c-6.447,8.605-11.551,18.205-16.679,27.81c-7.034,13.17-10.824,27.136-15.557,40.918    c-1.934,5.635-2.856,11.62-4.235,17.446c-0.351,1.481-0.686,2.966-1.285,5.573c-6.765-4.067-12.864-7.001-18.03-11.109    c-3.272-2.604-4.594-7.581-7.756-10.417c-10.253-9.2-13.746-21.893-18.466-33.958c-2.934-7.491-4.9-15.386-8.144-22.726    c-5.116-11.579-9.461-23.945-16.887-33.933c-7.152-9.621-16.981-18.54-31.306-15.594c-3.525,0.726-7.275,2.113-10.069,4.288    c-10.343,8.054-19.258,17.458-26.634,28.454c-6.43,9.584-6.198,19.641-3.546,29.854C5.83,277.985,14.239,291.56,24.1,304.301z" fill="#ffffff" data-original="#000000"/>
	</g>
</g>
<g xmlns="http://www.w3.org/2000/svg">
</g>
<g xmlns="http://www.w3.org/2000/svg">
</g>
<g xmlns="http://www.w3.org/2000/svg">
</g>
<g xmlns="http://www.w3.org/2000/svg">
</g>
<g xmlns="http://www.w3.org/2000/svg">
</g>
<g xmlns="http://www.w3.org/2000/svg">
</g>
<g xmlns="http://www.w3.org/2000/svg">
</g>
<g xmlns="http://www.w3.org/2000/svg">
</g>
<g xmlns="http://www.w3.org/2000/svg">
</g>
<g xmlns="http://www.w3.org/2000/svg">
</g>
<g xmlns="http://www.w3.org/2000/svg">
</g>
<g xmlns="http://www.w3.org/2000/svg">
</g>
<g xmlns="http://www.w3.org/2000/svg">
</g>
<g xmlns="http://www.w3.org/2000/svg">
</g>
<g xmlns="http://www.w3.org/2000/svg">
</g>
</g></svg>
