<svg width="51px" height="56px" viewBox="0 0 51 56" version="1.1" xmlns="http://www.w3.org/2000/svg" xmlns:xlink="http://www.w3.org/1999/xlink"><title>Group</title><desc>Created with Sketch.</desc><g id="Page-1" stroke="none" stroke-width="1" fill="none" fill-rule="evenodd"><g id="10444" transform="translate(-13.000000, -134.000000)"><g id="Group" transform="translate(13.391335, 134.244986)"><polyline id="Fill-403" fill="#848689" points="6.11866479 32.327014 2.84866479 26.247014 6.80666479 25.042014 7.60966479 28.656014 6.11866479 32.327014"></polyline><path d="M7.32266479,29.617014 L3.20066479,30.374014 C2.88966479,30.431014 2.69766479,30.745014 2.78766479,31.048014 L3.24566479,32.585014 C3.32366479,32.846014 3.58666479,33.006014 3.85466479,32.955014 L7.49466479,32.255014 L7.32266479,29.617014" id="Fill-404" fill="#6B727C"></path><path d="M43.0026648,24.988014 L39.6186648,23.719014 C37.3576648,29.747014 35.2076648,35.473014 32.2076648,41.105014 L8.43966479,28.271014 L6.72266479,31.450014 L30.9166648,44.515014 C30.9586648,47.597014 31.0656648,54.642014 31.0716648,55.013014 L34.4556648,54.412014 C34.4186648,51.952014 34.5636648,46.925014 34.5286648,44.392014 C38.1096648,38.030014 40.4886648,31.692014 43.0026648,24.988014" id="Fill-405" fill="#707172"></path><path d="M42.0556648,24.988014 L38.6726648,23.719014 C36.4116648,29.747014 34.2616648,35.473014 31.2616648,41.105014 L7.49266479,28.271014 L5.77566479,31.450014 L29.9696648,44.515014 C30.0126648,47.597014 30.1196648,54.642014 30.1246648,55.013014 L33.7386648,54.958014 C33.7006648,52.499014 33.6176648,46.925014 33.5826648,44.392014 C37.1626648,38.030014 39.5416648,31.692014 42.0556648,24.988014" id="Fill-406" fill="#848689"></path><path d="M32.2616648,40.203014 C31.7596648,40.203014 31.2276648,40.239014 30.6796648,40.308014 C30.1436648,40.377014 29.6776648,40.680014 29.4006648,41.142014 C29.1266648,41.601014 29.0776648,42.150014 29.2686648,42.650014 L29.9946648,44.557014 C30.2496648,45.226014 30.9016648,45.675014 31.6166648,45.675014 C32.3636648,45.675014 33.0236648,45.203014 33.2596648,44.500014 C33.4676648,43.882014 33.7086648,43.252014 33.9756648,42.628014 C34.2086648,42.081014 34.1576648,41.483014 33.8356648,40.986014 C33.5186648,40.498014 33.0056648,40.214014 32.4266648,40.205014 L32.2616648,40.203014 Z M31.6166648,46.960014 C30.3716648,46.960014 29.2376648,46.178014 28.7946648,45.014014 L28.0676648,43.108014 C27.7356648,42.237014 27.8206648,41.280014 28.2996648,40.481014 C28.7796648,39.680014 29.5886648,39.152014 30.5176648,39.034014 C31.1856648,38.949014 31.8256648,38.911014 32.4456648,38.920014 C33.4456648,38.936014 34.3676648,39.446014 34.9126648,40.286014 C35.4646648,41.136014 35.5556648,42.200014 35.1566648,43.133014 C34.9036648,43.726014 34.6746648,44.324014 34.4776648,44.910014 C34.0656648,46.136014 32.9156648,46.960014 31.6166648,46.960014 L31.6166648,46.960014 Z" id="Fill-407" fill="#455256"></path><path d="M34.5796648,41.887014 C34.2146648,40.691014 33.1046648,39.822014 31.7886648,39.822014 C30.4716648,39.822014 29.3616648,40.691014 28.9976648,41.887014 C28.9156648,42.157014 28.8716648,42.443014 28.8716648,42.739014 C28.8716648,44.350014 30.1766648,45.656014 31.7886648,45.656014 C33.3996648,45.656014 34.7056648,44.350014 34.7056648,42.739014 C34.7056648,42.443014 34.6616648,42.157014 34.5796648,41.887014" id="Fill-408" fill="#6B727C"></path><path d="M33.9206648,42.088014 C33.6416648,41.174014 32.7936648,40.510014 31.7886648,40.510014 C30.7826648,40.510014 29.9346648,41.174014 29.6556648,42.088014 C29.5936648,42.294014 29.5596648,42.513014 29.5596648,42.739014 C29.5596648,43.970014 30.5566648,44.967014 31.7886648,44.967014 C33.0196648,44.967014 34.0166648,43.970014 34.0166648,42.739014 C34.0166648,42.513014 33.9836648,42.294014 33.9206648,42.088014" id="Fill-409" fill="#848689"></path><path d="M35.1686648,49.479014 L29.5546648,49.479014 C29.2516648,49.479014 29.0066648,49.233014 29.0066648,48.930014 L29.0066648,48.823014 C29.0066648,48.520014 29.2516648,48.274014 29.5546648,48.274014 L35.1686648,48.274014 C35.4716648,48.274014 35.7176648,48.520014 35.7176648,48.823014 L35.7176648,48.930014 C35.7176648,49.233014 35.4716648,49.479014 35.1686648,49.479014" id="Fill-410" fill="#455256"></path><path d="M35.1686648,54.641014 L29.5546648,54.641014 C29.2516648,54.641014 29.0066648,54.396014 29.0066648,54.093014 L29.0066648,53.986014 C29.0066648,53.682014 29.2516648,53.437014 29.5546648,53.437014 L35.1686648,53.437014 C35.4716648,53.437014 35.7176648,53.682014 35.7176648,53.986014 L35.7176648,54.093014 C35.7176648,54.396014 35.4716648,54.641014 35.1686648,54.641014" id="Fill-411" fill="#455256"></path><path d="M9.56266479,32.884014 L8.57666479,33.178014 C8.43866479,33.219014 8.29666479,33.240014 8.15466479,33.240014 C7.50766479,33.240014 6.92666479,32.807014 6.74166479,32.186014 L6.15666479,30.220014 C5.92466479,29.441014 6.36966479,28.618014 7.14866479,28.386014 L8.13466479,28.092014 C8.27266479,28.051014 8.41466479,28.030014 8.55666479,28.030014 C9.20266479,28.030014 9.78366479,28.463014 9.96866479,29.084014 L10.5546648,31.050014 C10.7866648,31.829014 10.3416648,32.652014 9.56266479,32.884014 Z M12.5026648,30.795014 L11.7386648,28.231014 C11.3306648,26.860014 10.0466648,25.902014 8.61766479,25.902014 C8.30266479,25.902014 7.98966479,25.948014 7.68566479,26.039014 L6.39966479,26.422014 C4.67866479,26.935014 3.69466479,28.753014 4.20766479,30.475014 L4.97166479,33.039014 C5.38066479,34.410014 6.66366479,35.368014 8.09366479,35.368014 C8.40766479,35.368014 8.72166479,35.322014 9.02466479,35.231014 L10.3106648,34.848014 C12.0326648,34.335014 13.0156648,32.517014 12.5026648,30.795014 L12.5026648,30.795014 Z" id="Fill-412" fill="#455256"></path><path d="M12.4016648,28.127014 L5.85966479,29.964014 L6.62366479,32.529014 L12.8326648,31.039014 C13.2176648,30.946014 13.4896648,30.602014 13.4896648,30.206014 L13.4896648,28.952014 C13.4896648,28.384014 12.9476648,27.974014 12.4016648,28.127014" id="Fill-413" fill="#6B727C"></path><polyline id="Fill-414" fill="#FF8827" points="34.7276648 27.831014 34.5346648 27.921014 34.7276648 27.831014"></polyline><polyline id="Fill-415" fill="#FF8827" points="34.4186648 27.974014 34.2136648 28.066014 34.4186648 27.974014"></polyline><polyline id="Fill-416" fill="#FF8827" points="37.1276648 26.735014 37.0526648 26.763014 37.1276648 26.735014"></polyline><polyline id="Fill-417" fill="#FF8827" points="36.6206648 26.938014 36.5916648 26.950014 36.6206648 26.938014"></polyline><polyline id="Fill-418" fill="#FF8827" points="34.1016648 28.116014 33.8566648 28.222014 34.1016648 28.116014"></polyline><polyline id="Fill-419" fill="#FF8827" points="36.8846648 26.828014 36.8256648 26.852014 36.8846648 26.828014"></polyline><path d="M31.8456648,28.929014 C31.7476648,28.955014 31.6476648,28.980014 31.5476648,29.004014 C31.6476648,28.980014 31.7476648,28.955014 31.8456648,28.929014" id="Fill-420" fill="#FF8827"></path><path d="M33.7806648,28.254014 C33.6706648,28.301014 33.5586648,28.347014 33.4456648,28.392014 C33.5586648,28.347014 33.6706648,28.301014 33.7806648,28.254014" id="Fill-421" fill="#FF8827"></path><path d="M32.6596648,28.682014 C32.4216648,28.764014 32.1776648,28.839014 31.9306648,28.906014 C32.1776648,28.839014 32.4216648,28.764014 32.6596648,28.682014" id="Fill-422" fill="#FF8827"></path><path d="M31.4616648,29.024014 C31.2086648,29.082014 30.9516648,29.131014 30.6916648,29.170014 C30.9516648,29.131014 31.2086648,29.082014 31.4616648,29.024014" id="Fill-423" fill="#FF8827"></path><path d="M33.0156648,28.557014 C32.9216648,28.591014 32.8276648,28.624014 32.7326648,28.657014 C32.8276648,28.624014 32.9216648,28.591014 33.0156648,28.557014" id="Fill-424" fill="#FF8827"></path><path d="M33.3966648,28.411014 C33.2996648,28.449014 33.2026648,28.487014 33.1036648,28.524014 C33.2026648,28.487014 33.2996648,28.449014 33.3966648,28.411014" id="Fill-425" fill="#FF8827"></path><polyline id="Fill-426" fill="#FF8827" points="39.3126648 26.614014 39.1416648 26.596014 39.3126648 26.614014"></polyline><polyline id="Fill-427" fill="#FF8827" points="37.5636648 26.604014 37.4796648 26.626014 37.5636648 26.604014"></polyline><path d="M41.1956648,26.923014 C41.0906648,26.902014 40.9856648,26.882014 40.8806648,26.862014 C40.9856648,26.882014 41.0906648,26.902014 41.1956648,26.923014" id="Fill-428" fill="#FF8827"></path><path d="M42.1196648,27.100014 C42.0026648,27.078014 41.8866648,27.056014 41.7706648,27.034014 C41.8866648,27.056014 42.0026648,27.078014 42.1196648,27.100014" id="Fill-429" fill="#FF8827"></path><path d="M41.7216648,27.025014 C41.5626648,26.994014 41.4026648,26.963014 41.2426648,26.932014 C41.4026648,26.963014 41.5626648,26.994014 41.7216648,27.025014" id="Fill-430" fill="#FF8827"></path><path d="M42.5496648,27.175014 C42.4326648,27.156014 42.3146648,27.135014 42.1976648,27.114014 C42.3146648,27.135014 42.4326648,27.156014 42.5496648,27.175014" id="Fill-431" fill="#FF8827"></path><polyline id="Fill-432" fill="#FF8827" points="44.2586648 27.364014 44.0146648 27.351014 44.2586648 27.364014"></polyline><polyline id="Fill-433" fill="#FF8827" points="40.5836648 26.807014 40.3896648 26.772014 40.5836648 26.807014"></polyline><polyline id="Fill-434" fill="#FF8827" points="38.4836648 26.553014 38.3406648 26.548014 38.4836648 26.553014"></polyline><polyline id="Fill-435" fill="#FF8827" points="37.7596648 26.566014 37.6846648 26.580014 37.7596648 26.566014"></polyline><path d="M30.6106648,29.181014 C30.5066648,29.195014 30.4026648,29.208014 30.2976648,29.218014 C30.4026648,29.208014 30.5066648,29.195014 30.6106648,29.181014" id="Fill-436" fill="#FF8827"></path><polyline id="Fill-437" fill="#FF8827" points="38.9066648 26.576014 38.7416648 26.564014 38.9066648 26.576014"></polyline><polyline id="Fill-438" fill="#FF8827" points="40.1096648 26.725014 39.9546648 26.701014 40.1096648 26.725014"></polyline><polyline id="Fill-439" fill="#FF8827" points="37.3536648 26.660014 37.2706648 26.687014 37.3536648 26.660014"></polyline><path d="M28.4646648,29.203014 C28.3276648,29.185014 28.1896648,29.164014 28.0506648,29.138014 C28.1896648,29.164014 28.3276648,29.185014 28.4646648,29.203014" id="Fill-440" fill="#FF8827"></path><path d="M27.9996648,29.128014 C27.8796648,29.105014 27.7596648,29.078014 27.6386648,29.049014 C27.7596648,29.078014 27.8796648,29.105014 27.9996648,29.128014" id="Fill-441" fill="#FF8827"></path><path d="M37.9396648,26.549014 L37.9396648,26.549014" id="Fill-442" fill="#FF8827"></path><path d="M11.2186648,26.160014 C10.9846648,26.244014 10.7476648,26.323014 10.5086648,26.398014 C10.7476648,26.323014 10.9846648,26.244014 11.2186648,26.160014 C17.7186648,23.827014 22.9896648,27.556014 27.0876648,28.892014 C23.0146648,27.565014 17.7226648,23.825014 11.2186648,26.160014" id="Fill-443" fill="#FF8827"></path><polyline id="Fill-444" fill="#FF8827" points="39.5456648 26.643014 39.7126648 26.665014 39.5456648 26.643014"></polyline><path d="M27.5156648,29.018014 C27.4136648,28.991014 27.3106648,28.961014 27.2076648,28.930014 C27.3106648,28.961014 27.4136648,28.991014 27.5156648,29.018014" id="Fill-445" fill="#FF8827"></path><path d="M9.05466479,26.803014 C8.56466479,26.927014 8.07066479,27.043014 7.57766479,27.161014 C8.07066479,27.043014 8.56466479,26.927014 9.05466479,26.803014" id="Fill-446" fill="#FF8827"></path><path d="M44.3756648,20.932014 L44.0896648,17.296014 L46.0356648,18.273014 L47.1336648,21.098014 L44.3756648,20.932014 Z M47.8426648,22.159014 C47.3246648,20.851014 46.8806648,19.376014 46.5006648,17.520014 C46.4796648,17.416014 46.4566648,17.310014 46.4356648,17.203014 C46.4166648,17.104014 46.3966648,17.004014 46.3776648,16.902014 C46.3226648,16.611014 46.2616648,16.324014 46.1916648,16.039014 C45.8646648,14.669014 45.3856648,13.375014 44.7696648,12.168014 C43.0386648,8.76001402 40.2336648,6.02201402 36.7186648,4.05601402 C32.8706648,1.90701402 28.6186648,0.432014016 24.2066648,0.0850140159 C19.8986648,-0.254985984 15.3516648,0.422014016 11.3946648,2.16701402 C9.78666479,2.87501402 8.27766479,3.75901402 6.92066479,4.82201402 C5.64666479,5.81801402 4.50766479,6.97201402 3.55066479,8.28701402 C3.41866479,8.46601402 3.29166479,8.64901402 3.16766479,8.83501402 C3.02666479,9.04601402 2.89166479,9.26101402 2.75866479,9.48001402 C2.64266479,9.67501402 2.52866479,9.87201402 2.41966479,10.074014 C2.14566479,10.572014 1.89666479,11.089014 1.67466479,11.627014 C1.56666479,11.882014 1.46566479,12.144014 1.37066479,12.409014 C1.25366479,12.734014 1.14666479,13.065014 1.04866479,13.404014 C1.00766479,13.542014 0.970664792,13.681014 0.932664792,13.822014 C0.772664792,14.433014 0.491664792,18.409014 0.258664792,21.905014 C4.47566479,26.829014 12.1426648,17.970014 23.5536648,23.831014 C30.0036648,27.143014 31.2936648,27.216014 36.4896648,25.119014 C39.5166648,23.896014 40.2646648,24.936014 49.6316648,25.792014 C48.9546648,24.604014 48.3616648,23.465014 47.8426648,22.159014 L47.8426648,22.159014 Z" id="Fill-447" fill="#FF8827"></path><path d="M46.1916648,16.039014 L46.1006648,16.068014 C45.6556648,16.201014 45.1986648,16.295014 44.7416648,16.349014 C42.1576648,16.650014 39.5706648,15.869014 37.1596648,14.890014 C34.7486648,13.912014 32.4006648,12.722014 29.8646648,12.141014 C23.7566648,10.743014 17.3956648,13.032014 11.1456648,12.580014 C8.57266479,12.395014 4.71066479,11.099014 3.60566479,8.42701402 L3.55066479,8.28701402 C4.50766479,6.97201402 5.64666479,5.81801402 6.92066479,4.82201402 C8.27766479,3.75901402 9.78666479,2.87501402 11.3946648,2.16701402 C15.3516648,0.422014016 19.8986648,-0.254985984 24.2066648,0.0850140159 C28.6186648,0.432014016 32.8706648,1.90701402 36.7186648,4.05601402 C40.2336648,6.02201402 43.0386648,8.76001402 44.7696648,12.168014 C45.3856648,13.375014 45.8646648,14.669014 46.1916648,16.039014" id="Fill-448" fill="#FF9429"></path><path d="M6.83966479,27.339014 C6.34866479,27.460014 5.86166479,27.587014 5.38366479,27.729014 C4.29166479,28.053014 5.63566479,27.636014 6.83966479,27.339014" id="Fill-449" fill="#FF8827"></path><path d="M28.8786648,29.243014 C28.7716648,29.235014 28.6656648,29.225014 28.5576648,29.213014 C28.6656648,29.225014 28.7716648,29.235014 28.8786648,29.243014" id="Fill-450" fill="#FF8827"></path><path d="M29.8006648,29.256014 C29.6666648,29.262014 29.5316648,29.264014 29.3946648,29.264014 C29.5316648,29.264014 29.6666648,29.262014 29.8006648,29.256014" id="Fill-451" fill="#FF8827"></path><path d="M29.3226648,29.262014 C29.2126648,29.261014 29.1026648,29.257014 28.9916648,29.250014 C29.1026648,29.257014 29.2126648,29.261014 29.3226648,29.262014" id="Fill-452" fill="#FF8827"></path><path d="M30.1966648,29.228014 C30.0826648,29.239014 29.9686648,29.247014 29.8526648,29.253014 C29.9686648,29.247014 30.0826648,29.239014 30.1966648,29.228014" id="Fill-453" fill="#FF8827"></path><path d="M42.6046648,27.185014 C43.0286648,27.255014 43.4016648,27.306014 43.8186648,27.339014 C43.4136648,27.307014 43.0086648,27.252014 42.6046648,27.185014" id="Fill-454" fill="#FF8827"></path><path d="M47.0876648,27.143014 C46.8576648,27.175014 46.6286648,27.206014 46.3996648,27.235014 C46.6286648,27.206014 46.8576648,27.175014 47.0876648,27.143014" id="Fill-455" fill="#939598"></path><path d="M40.3896648,26.772014 C40.2956648,26.756014 40.2026648,26.740014 40.1096648,26.725014 C40.2026648,26.740014 40.2956648,26.756014 40.3896648,26.772014" id="Fill-456" fill="#939598"></path><path d="M48.1236648,26.993014 C47.8926648,27.026014 47.6626648,27.060014 47.4326648,27.093014 C47.6626648,27.060014 47.8926648,27.026014 48.1236648,26.993014" id="Fill-457" fill="#939598"></path><polyline id="Fill-458" fill="#939598" points="39.5456648 26.643014 39.3126648 26.614014 39.5456648 26.643014"></polyline><path d="M44.6946648,27.368014 C44.5486648,27.371014 44.4036648,27.369014 44.2586648,27.364014 C44.4036648,27.369014 44.5496648,27.371014 44.6946648,27.368014" id="Fill-459" fill="#939598"></path><polyline id="Fill-460" fill="#939598" points="39.1416648 26.596014 38.9066648 26.576014 39.1416648 26.596014"></polyline><polyline id="Fill-461" fill="#939598" points="38.7416648 26.564014 38.4836648 26.553014 38.7416648 26.564014"></polyline><path d="M49.8526648,26.790014 C49.6226648,26.808014 49.3916648,26.831014 49.1606648,26.857014 C49.3916648,26.831014 49.6226648,26.808014 49.8526648,26.790014" id="Fill-462" fill="#939598"></path><polyline id="Fill-463" fill="#939598" points="41.2426648 26.932014 41.1956648 26.923014 41.2426648 26.932014"></polyline><path d="M49.6316648,25.792014 L49.6316648,25.792014 C49.9886648,26.417014 50.0126648,26.458014 49.6316648,25.792014" id="Fill-464" fill="#939598"></path><polyline id="Fill-465" fill="#939598" points="41.7706648 27.034014 41.7216648 27.025014 41.7706648 27.034014"></polyline><polyline id="Fill-466" fill="#939598" points="30.2976648 29.218014 30.1966648 29.228014 30.2976648 29.218014"></polyline><polyline id="Fill-467" fill="#939598" points="42.6046648 27.185014 42.5496648 27.175014 42.6046648 27.185014"></polyline><polyline id="Fill-468" fill="#939598" points="42.1976648 27.114014 42.1196648 27.100014 42.1976648 27.114014"></polyline><path d="M34.7276648,27.831014 C35.7956648,27.331014 37.3036648,26.613014 36.2126648,27.121014 C35.7616648,27.331014 35.2646648,27.579014 34.7276648,27.831014" id="Fill-469" fill="#939598"></path><path d="M40.8806648,26.862014 C40.7816648,26.843014 40.6826648,26.825014 40.5836648,26.807014 C40.6826648,26.825014 40.7816648,26.843014 40.8806648,26.862014" id="Fill-470" fill="#939598"></path><polyline id="Fill-471" fill="#939598" points="44.0146648 27.351014 43.8186648 27.339014 44.0146648 27.351014"></polyline><polyline id="Fill-472" fill="#939598" points="39.7126648 26.665014 39.9546648 26.701014 39.7126648 26.665014"></polyline><polyline id="Fill-473" fill="#939598" points="29.3946648 29.264014 29.3226648 29.262014 29.3946648 29.264014"></polyline><polyline id="Fill-474" fill="#939598" points="33.4456648 28.392014 33.3966648 28.411014 33.4456648 28.392014"></polyline><polyline id="Fill-475" fill="#939598" points="33.1036648 28.524014 33.0156648 28.557014 33.1036648 28.524014"></polyline><polyline id="Fill-476" fill="#939598" points="28.9916648 29.250014 28.8786648 29.243014 28.9916648 29.250014"></polyline><polyline id="Fill-477" fill="#939598" points="34.2136648 28.066014 34.1016648 28.116014 34.2136648 28.066014"></polyline><polyline id="Fill-478" fill="#939598" points="33.8566648 28.222014 33.7806648 28.254014 33.8566648 28.222014"></polyline><polyline id="Fill-479" fill="#939598" points="31.5476648 29.004014 31.4616648 29.024014 31.5476648 29.004014"></polyline><polyline id="Fill-480" fill="#939598" points="30.6916648 29.170014 30.6106648 29.181014 30.6916648 29.170014"></polyline><polyline id="Fill-481" fill="#939598" points="32.7326648 28.657014 32.6596648 28.682014 32.7326648 28.657014"></polyline><polyline id="Fill-482" fill="#939598" points="31.9306648 28.906014 31.8456648 28.929014 31.9306648 28.906014"></polyline><polyline id="Fill-483" fill="#939598" points="29.8526648 29.253014 29.8006648 29.256014 29.8526648 29.253014"></polyline><polyline id="Fill-484" fill="#939598" points="36.8256648 26.852014 36.6206648 26.938014 36.8256648 26.852014"></polyline><polyline id="Fill-485" fill="#939598" points="37.4796648 26.626014 37.3536648 26.660014 37.4796648 26.626014"></polyline><polyline id="Fill-486" fill="#939598" points="27.2076648 28.930014 27.0876648 28.892014 27.2076648 28.930014"></polyline><polyline id="Fill-487" fill="#939598" points="37.9366648 26.549014 37.7596648 26.566014 37.9366648 26.549014"></polyline><polyline id="Fill-488" fill="#939598" points="37.6846648 26.580014 37.5636648 26.604014 37.6846648 26.580014"></polyline><polyline id="Fill-489" fill="#939598" points="37.2706648 26.687014 37.1276648 26.735014 37.2706648 26.687014"></polyline><polyline id="Fill-490" fill="#939598" points="28.0506648 29.138014 27.9996648 29.128014 28.0506648 29.138014"></polyline><path d="M38.3406648,26.548014 C38.2086648,26.545014 38.0756648,26.545014 37.9426648,26.549014 C38.0756648,26.545014 38.2086648,26.545014 38.3406648,26.548014" id="Fill-491" fill="#939598"></path><polyline id="Fill-492" fill="#939598" points="27.6386648 29.049014 27.5156648 29.018014 27.6386648 29.049014"></polyline><polyline id="Fill-493" fill="#939598" points="34.5346648 27.921014 34.4186648 27.974014 34.5346648 27.921014"></polyline><polyline id="Fill-494" fill="#939598" points="28.5576648 29.213014 28.4646648 29.203014 28.5576648 29.213014"></polyline><polyline id="Fill-495" fill="#939598" points="37.0526648 26.763014 36.8846648 26.828014 37.0526648 26.763014"></polyline><path d="M36.1426648,25.754014 C31.1726648,27.739014 29.8126648,27.612014 23.4766648,24.359014 C12.1166648,18.523014 4.38366479,27.339014 0.182664792,22.433014 C0.0256647924,24.760014 -1.14933521,30.172014 5.30766479,28.257014 C7.22066479,27.689014 9.27066479,27.362014 11.1416648,26.688014 C15.6936648,25.054014 19.8646648,26.519014 24.1006648,28.276014 C29.8656648,30.667014 33.2346648,28.652014 35.9176648,27.307014 L36.1426648,25.754014" id="Fill-496" fill="#B0BEC5"></path><path d="M50.1986648,26.766014 C50.0796648,26.774014 49.9596648,26.781014 49.8406648,26.791014 C47.4496648,26.965014 45.2476648,27.528014 42.8246648,27.193014 C40.9686648,26.935014 39.2936648,26.432014 37.4266648,26.936014 C35.8486648,27.363014 34.3506648,28.261014 32.8246648,28.685014 C29.9316648,29.489014 26.8976648,28.876014 24.1776648,27.748014 C19.9416648,25.991014 15.7706648,24.527014 11.2186648,26.160014 C9.34766479,26.834014 7.29666479,27.161014 5.38366479,27.729014 C-0.611335208,29.507014 -0.0263352076,24.968014 0.213664792,22.448014 C0.230664792,22.254014 0.246664792,22.072014 0.258664792,21.905014 C4.45966479,26.811014 12.1926648,17.995014 23.5536648,23.831014 C30.0036648,27.143014 31.2936648,27.216014 36.4896648,25.119014 C39.5226648,23.893014 40.2306648,24.935014 49.6316648,25.792014 C49.8156648,26.117014 50.0056648,26.440014 50.1986648,26.766014" id="Fill-497" fill="#77787A"></path><path d="M49.8406648,26.791014 C47.4496648,26.965014 45.2476648,27.528014 42.8246648,27.193014 C40.9686648,26.935014 39.2936648,26.432014 37.4266648,26.936014 C35.8486648,27.363014 34.3506648,28.261014 32.8246648,28.685014 C29.9316648,29.489014 26.8976648,28.876014 24.1776648,27.748014 C19.9416648,25.991014 15.7706648,24.527014 11.2186648,26.160014 C9.34766479,26.834014 7.29666479,27.161014 5.38366479,27.729014 C-0.611335208,29.507014 -0.0263352076,24.968014 0.213664792,22.448014 C4.42066479,27.282014 12.1446648,18.518014 23.4796648,24.342014 C29.9296648,27.654014 31.2196648,27.727014 36.4156648,25.630014 C39.4486648,24.404014 40.1566648,25.446014 49.5576648,26.303014 C49.6506648,26.466014 49.7436648,26.628014 49.8406648,26.791014" id="Fill-498" fill="#939598"></path><path d="M35.9716648,20.527014 C35.8806648,21.154014 35.2996648,21.589014 34.6716648,21.498014 C34.0446648,21.407014 33.6106648,20.825014 33.7006648,20.198014 C33.7916648,19.571014 34.3736648,19.136014 35.0006648,19.227014 C35.6276648,19.318014 36.0626648,19.900014 35.9716648,20.527014" id="Fill-499" fill="#6B727C"></path><path d="M9.70766479,18.581014 C9.62566479,19.145014 9.10166479,19.537014 8.53766479,19.455014 C7.97366479,19.374014 7.58166479,18.850014 7.66366479,18.285014 C7.74566479,17.721014 8.26866479,17.330014 8.83366479,17.411014 C9.39766479,17.493014 9.78866479,18.017014 9.70766479,18.581014" id="Fill-500" fill="#6B727C"></path><path d="M21.0006648,3.65301402 C20.7496648,3.84801402 20.4626648,4.05701402 20.1506648,4.27401402 C18.9156648,5.13501402 17.3026648,6.11601402 16.0776648,6.83901402 C14.2556648,6.96101402 12.7206648,7.24401402 11.5596648,7.52801402 C10.8296648,7.70501402 10.2456648,7.88501402 9.83266479,8.02401402 C11.0086648,7.03601402 12.6946648,5.62601402 14.0506648,4.50801402 C16.2796648,3.98301402 18.6666648,3.66101402 21.0006648,3.65301402" id="Fill-501" fill="#FFA15A"></path><path d="M32.6336648,6.25801402 C32.4476648,6.31101402 32.2526648,6.36801402 32.0496648,6.42501402 C30.4066648,6.89701402 28.2796648,7.49901402 26.3936648,8.03301402 C25.1046648,7.64101402 23.8536648,7.35701402 22.6566648,7.16001402 C22.2266648,7.08901402 21.8026648,7.02801402 21.3876648,6.97801402 L26.8356648,4.34301402 C28.8206648,4.80401402 30.7596648,5.46201402 32.6336648,6.25801402" id="Fill-502" fill="#FFA15A"></path><path d="M41.3296648,11.354014 L41.0866648,11.386014 L35.0346648,12.188014 C33.9316648,11.446014 32.8396648,10.800014 31.7606648,10.237014 C31.4536648,10.076014 31.1476648,9.92201402 30.8416648,9.77501402 L36.7506648,8.26901402 C37.8336648,8.87101402 38.8936648,9.51801402 39.9216648,10.206014 C40.0916648,10.319014 40.7416648,10.897014 41.3296648,11.354014" id="Fill-503" fill="#FFA15A"></path><path d="M20.1506648,4.27401402 C18.9156648,5.13501402 17.3026648,6.11601402 16.0776648,6.83901402 C14.2556648,6.96101402 12.7206648,7.24401402 11.5596648,7.52801402 C12.5136648,6.72901402 13.5756648,5.84401402 14.4876648,5.09301402 C16.3076648,4.66401402 18.2346648,4.37101402 20.1506648,4.27401402" id="Fill-504" fill="#6B727C"></path><path d="M32.0496648,6.42501402 C30.4066648,6.89701402 28.2796648,7.49901402 26.3936648,8.03301402 C25.1046648,7.64101402 23.8536648,7.35701402 22.6566648,7.16001402 L27.2726648,4.92701402 C28.8996648,5.30501402 30.4946648,5.81401402 32.0496648,6.42501402" id="Fill-505" fill="#6B727C"></path><path d="M41.0866648,11.386014 L35.0346648,12.188014 C33.9316648,11.446014 32.8396648,10.800014 31.7606648,10.237014 L37.1876648,8.85401402 C38.2706648,9.45601402 39.3306648,10.103014 40.3596648,10.791014 C40.4626648,10.859014 40.7466648,11.102014 41.0866648,11.386014" id="Fill-506" fill="#6B727C"></path><polyline id="Fill-507" fill="#FFA15A" points="5.69266479 13.479014 5.58766479 13.751014 3.29666479 19.624014 1.61166479 18.453014 1.79766479 13.959014 5.69266479 13.479014"></polyline><polyline id="Fill-508" fill="#6B727C" points="5.58766479 13.751014 3.29666479 19.624014 1.92766479 18.673014 2.11366479 14.179014 5.58766479 13.751014"></polyline></g></g></g></svg>