<svg id="Capa_1" enable-background="new 0 0 511.989 511.989" height="512" viewBox="0 0 511.989 511.989" width="512" xmlns="http://www.w3.org/2000/svg"><g><g><path d="m29.096 495.107c5.491-5.491 43.43-55.43 43.43-55.43l-10.713-10.713s-44.072 44.072-49.93 49.93c-3.763 3.763-5.095 9.026-4.023 13.863 7.482 7.482 17.113 6.473 21.236 2.35z" fill="#b2e5fb"/><path d="m72.526 439.677c-4.878 4.878-43.94 43.94-49.43 49.43-4.123 4.123-10.045 5.331-15.236 3.65.597 2.693 1.928 5.255 4.023 7.35 5.858 5.858 15.355 5.858 21.213 0s49.93-49.93 49.93-49.93z" fill="#94d8e6"/><path d="m497.463 82.814c0-18.913-7.006-40.119-25.087-58.201-13.902-10.72-31.313-17.113-50.227-17.113-45.475 0-116.782 71.307-116.782 116.782l67.34 67.34c40.705 22.243 124.756-63.333 124.756-108.808z" fill="#b2e5fb"/><path d="m472.376 24.614c10.721 13.902 17.113 31.313 17.113 50.227 0 45.475-71.307 116.782-116.782 116.782l15 15c45.475 0 116.782-71.307 116.782-116.782 0-26.563-12.589-50.171-32.113-65.227z" fill="#94d8e6"/><path d="m102.149 443.566 148.916-164.916-32.65-32.65-156.916 156.916c-3.453 3.453-5.043 8.372-4.174 13.177.826 4.569 2.704 10.551 6.826 16.821 10.458 10.458 20.251 14 24.821 14.826 4.805.869 9.724-.721 13.177-4.174z" fill="#607882"/><path d="m94.149 435.566c-3.453 3.453-8.372 5.043-13.177 4.174-4.569-.826-10.551-2.704-16.821-6.826 1.793 2.727 4.004 5.508 6.748 8.252 9.052 9.052 18.516 12.389 25.072 13.575 4.805.869 9.724-.721 13.177-4.174l156.917-156.917-15-15z" fill="#495959"/><path d="m328.321 354.692 93.122-93.122c5.858-5.858 7-14.213-8-29.213l-138.122-138.121c-5.858-5.858-15.355-5.858-21.213 0l-93.122 93.122c-5.858 5.858-5.858 15.355 0 21.213l138.122 138.122c14.999 14.999 23.355 13.857 29.213 7.999z" fill="#f5fcff"/><path d="m428.442 247.357-15-15c5.858 5.858 5.858 15.355 0 21.213l-93.122 93.122c-5.858 5.858-15.355 5.858-21.213 0l15 15c5.858 5.858 15.355 5.858 21.213 0l93.122-93.122c5.858-5.857 5.858-15.355 0-21.213z" fill="#d3effd"/><path d="m332.625 249.889c2.548-5-18.285-25.337-18.876-29.069-.346-2.183 1.727-24.618 1.727-24.618-8.136 2.806-17.435 7.073-19.618 6.727-3.731-.591-23.068-20.424-28.069-17.876s-.321 29.849-2.036 33.215c-1.357 2.663-17.178 10.893-23.295 16.959 10.155 3.108 28.581 16.412 28.581 16.412 1.422 1.423 3.218 9.86 5.423 17.57 0 0 20.108-13.289 25.401-16.083s29.489-.737 30.762-3.237z" fill="#f8e883"/><g fill="#ffd064"><path d="m319.749 226.82c-.591-3.731 12.296-28.251 8.328-32.219-1.646-1.646-6.832-.389-12.601 1.601-2.806 8.136-7.727 18.408-7.727 20.618 0 4.693 19.892 25.076 18.876 27.069-1.66 3.258-29.849.321-33.215 2.036-2.662 1.356-10.883 17.159-16.949 23.285 1.936 6.77 4.187 12.98 6.778 13.39 5.543.878 17.805-23.96 21.171-25.675s30.668 2.964 33.215-2.036-17.285-24.337-17.876-28.069z"/><path d="m242.458 235.227c-1.615 1.601-2.563 3.054-2.379 4.211.878 5.543 28.289 9.529 30.96 12.201 0 0-2.032-6.655-4.379-9.002-1.575-1.574-14.047-4.301-24.202-7.41z"/></g></g><g><path d="m22.489 511.989c-5.762 0-11.523-2.193-15.91-6.58-8.773-8.772-8.773-23.047 0-31.819l46.235-46.235c-1.476-3.684-2.353-7.072-2.87-9.928-1.3-7.193 1.037-14.6 6.25-19.814l35.831-35.831c2.929-2.929 7.678-2.929 10.606 0 2.929 2.929 2.929 7.678 0 10.606l-35.831 35.831c-1.739 1.739-2.522 4.184-2.097 6.539.968 5.35 3.748 13.354 11.498 21.104s15.754 10.53 21.104 11.497c2.356.426 4.8-.357 6.539-2.096l141.615-141.613-37.043-37.043-84.782 84.782c-2.929 2.929-7.678 2.929-10.606 0-2.929-2.929-2.929-7.678 0-10.606l84.781-84.783-42.126-42.126c-4.25-4.249-6.59-9.899-6.59-15.91 0-6.01 2.34-11.66 6.59-15.91l93.122-93.122c8.772-8.772 23.046-8.772 31.82 0l19.456 19.456c12.751-48.392 77.898-108.388 122.068-108.388 49.538 0 89.84 40.302 89.84 89.84 0 23-15.962 52.873-42.7 79.908-21.533 21.773-45.132 36.776-65.684 42.166l30.14 30.14c4.25 4.25 6.59 9.9 6.59 15.91s-2.341 11.661-6.59 15.91l-50.994 50.994c-2.929 2.929-7.678 2.929-10.606 0-2.929-2.929-2.929-7.678 0-10.606l50.994-50.994c1.417-1.417 2.197-3.3 2.197-5.303s-.78-3.887-2.197-5.303l-153.121-153.123c-2.923-2.924-7.682-2.923-10.607 0l-93.122 93.122c-1.417 1.417-2.197 3.3-2.197 5.303s.78 3.887 2.197 5.303l153.122 153.123c2.926 2.924 7.683 2.924 10.607 0l21.128-21.128c2.929-2.929 7.678-2.929 10.606 0 2.929 2.929 2.929 7.678 0 10.606l-21.128 21.128c-8.773 8.774-23.048 8.773-31.82 0l-52.739-52.739-141.613 141.613c-5.215 5.215-12.622 7.554-19.815 6.25-2.883-.521-6.31-1.411-10.036-2.913l-46.202 46.203c-4.386 4.386-10.148 6.579-15.91 6.579zm38.092-71.187-43.395 43.395c-2.924 2.924-2.924 7.682 0 10.606s7.683 2.924 10.606 0l43.385-43.385c-1.863-1.458-3.731-3.1-5.581-4.949-1.877-1.878-3.541-3.775-5.015-5.667zm252.404-319.509 77.711 77.712c17.423-1.339 40.413-13.99 61.752-33.816l-66.554-66.554c-2.929-2.929-2.929-7.678 0-10.606 2.929-2.929 7.678-2.929 10.606 0l66.552 66.552c21.055-22.675 33.936-47.09 33.936-64.739 0-41.267-33.573-74.84-74.84-74.84-18.979 0-43.669 14.334-64.78 33.895l18.132 18.133c2.929 2.929 2.929 7.678 0 10.606s-7.678 2.93-10.606 0l-18.138-18.139c-18.48 19.904-32.341 43.056-33.771 61.796zm-29.375 168.838c-.507 0-1.021-.041-1.544-.124-8.279-1.311-11.099-12.02-14.67-25.578-.616-2.338-1.4-5.315-1.989-7.158-1.843-.589-4.82-1.374-7.159-1.989-13.557-3.571-24.266-6.392-25.577-14.67-1.311-8.279 8.002-14.271 19.792-21.856 2.034-1.309 4.623-2.974 6.194-4.104-.009-1.936-.184-5.009-.32-7.424-.793-13.997-1.42-25.053 6.047-28.858 7.469-3.805 16.045 3.201 26.903 12.07 1.873 1.53 4.257 3.478 5.817 4.622 1.838-.606 4.707-1.722 6.96-2.598 13.067-5.08 23.39-9.093 29.316-3.166 5.927 5.927 1.914 16.249-3.166 29.316-.876 2.254-1.992 5.123-2.598 6.96 1.145 1.56 3.092 3.944 4.622 5.817 8.87 10.858 15.876 19.435 12.07 26.903-3.805 7.468-14.862 6.841-28.859 6.048-2.414-.137-5.487-.311-7.422-.32-1.13 1.571-2.796 4.16-4.104 6.193-7.107 11.044-12.814 19.915-20.313 19.916zm-32.402-52.455c3.597 1.188 8.125 2.38 10.861 3.101 8.415 2.216 11.923 3.209 14.273 5.56s3.343 5.858 5.56 14.273c.721 2.736 1.913 7.264 3.101 10.861 2.241-3.054 4.774-6.992 6.305-9.371 4.708-7.318 6.736-10.348 9.698-11.857 2.961-1.508 6.605-1.369 15.292-.876 2.825.16 7.484.437 11.288.407-2.212-3.075-5.174-6.701-6.964-8.893-5.504-6.738-7.759-9.604-8.279-12.886-.52-3.284.739-6.706 3.892-14.815 1.025-2.637 2.722-7.001 3.875-10.61-3.608 1.154-7.972 2.851-10.609 3.875-8.11 3.153-11.532 4.413-14.814 3.892-3.283-.52-6.149-2.774-12.888-8.28-2.191-1.79-5.817-4.751-8.892-6.964-.018 3.788.248 8.462.407 11.287.493 8.688.632 12.332-.876 15.294-1.509 2.961-4.539 4.99-11.857 9.698-2.382 1.53-6.319 4.063-9.373 6.304z"/></g></g></svg>