<svg height="512" viewBox="0 0 256 256" width="512" xmlns="http://www.w3.org/2000/svg"><g id="Layer_63"><g><g><g><path d="m66.43 53.5h-19.384c0 4.418-3.582 8-8 8s-8-3.582-8-8h-19.385c-2.273 0-4.115 1.843-4.115 4.115v50.77c0 2.273 1.842 4.115 4.115 4.115h41.015l17.87-17.87v-37.015c0-2.272-1.843-4.115-4.116-4.115z" fill="#fca265"/></g></g><g><g><circle cx="39.046" cy="53.5" fill="#f5c84c" r="8"/></g></g><g><g><path d="m66.43 124h-19.384c0 4.418-3.582 8-8 8s-8-3.582-8-8h-19.385c-2.273 0-4.115 1.843-4.115 4.115v50.77c0 2.273 1.842 4.115 4.115 4.115h41.015l17.87-17.87v-37.015c0-2.272-1.843-4.115-4.116-4.115z" fill="#fca265"/></g></g><g><g><circle cx="39.046" cy="124" fill="#f5c84c" r="8"/></g></g><g><g><path d="m66.43 194.5h-19.384c0 4.418-3.582 8-8 8s-8-3.582-8-8h-19.385c-2.273 0-4.115 1.843-4.115 4.115v50.77c0 2.273 1.842 4.115 4.115 4.115h41.015l17.87-17.87v-37.015c0-2.272-1.843-4.115-4.116-4.115z" fill="#fca265"/></g></g><g><g><circle cx="39.046" cy="194.5" fill="#f5c84c" r="8"/></g></g><g><g><path d="m67.726 14.5h-57.324c-1.568 0-2.838 1.271-2.838 2.838v10.323c0 1.568 1.271 2.838 2.838 2.838h57.324c1.568 0 2.838-1.271 2.838-2.838v-10.323c0-1.567-1.271-2.838-2.838-2.838z" fill="#fca265"/></g></g><g><g><path d="m146.43 53.5h-19.385c0 4.418-3.582 8-8 8s-8-3.582-8-8h-19.384c-2.273 0-4.115 1.843-4.115 4.115v50.77c0 2.273 1.842 4.115 4.115 4.115h41.015l17.87-17.87v-37.015c0-2.272-1.843-4.115-4.116-4.115z" fill="#f98fa6"/></g></g><g><g><circle cx="119.046" cy="53.5" fill="#f5c84c" r="8"/></g></g><g><g><path d="m146.43 124h-19.385c0 4.418-3.582 8-8 8s-8-3.582-8-8h-19.384c-2.273 0-4.115 1.843-4.115 4.115v50.77c0 2.273 1.842 4.115 4.115 4.115h41.015l17.87-17.87v-37.015c0-2.272-1.843-4.115-4.116-4.115z" fill="#f98fa6"/></g></g><g><g><circle cx="119.046" cy="124" fill="#f5c84c" r="8"/></g></g><g><g><path d="m147.726 14.5h-57.324c-1.568 0-2.838 1.271-2.838 2.838v10.323c0 1.568 1.271 2.838 2.838 2.838h57.324c1.568 0 2.838-1.271 2.838-2.838v-10.323c0-1.567-1.271-2.838-2.838-2.838z" fill="#fc657e"/></g></g><g><g><path d="m226.43 53.5h-19.385c0 4.418-3.582 8-8 8s-8-3.582-8-8h-19.385c-2.273 0-4.115 1.843-4.115 4.115v50.77c0 2.273 1.842 4.115 4.115 4.115h41.015l17.87-17.87v-37.015c.001-2.272-1.842-4.115-4.115-4.115z" fill="#b2e26d"/></g></g><g><g><circle cx="199.046" cy="53.5" fill="#f5c84c" r="8"/></g></g><g><g><path d="m226.43 124h-19.385c0 4.418-3.582 8-8 8s-8-3.582-8-8h-19.385c-2.273 0-4.115 1.843-4.115 4.115v50.77c0 2.273 1.842 4.115 4.115 4.115h41.015l17.87-17.87v-37.015c.001-2.272-1.842-4.115-4.115-4.115z" fill="#b2e26d"/></g></g><g><g><circle cx="199.046" cy="124" fill="#f5c84c" r="8"/></g></g><g><g><path d="m226.43 194.5h-19.385c0 4.418-3.582 8-8 8s-8-3.582-8-8h-19.385c-2.273 0-4.115 1.843-4.115 4.115v50.77c0 2.273 1.842 4.115 4.115 4.115h41.015l17.87-17.87v-37.015c.001-2.272-1.842-4.115-4.115-4.115z" fill="#b2e26d"/></g></g><g><g><circle cx="199.046" cy="194.5" fill="#f5c84c" r="8"/></g></g><g><g><path d="m227.726 14.5h-57.324c-1.568 0-2.838 1.271-2.838 2.838v10.323c0 1.568 1.271 2.838 2.838 2.838h57.324c1.568 0 2.838-1.271 2.838-2.838v-10.323c0-1.567-1.271-2.838-2.838-2.838z" fill="#b2e26d"/></g></g><g><g><path d="m212.498 71.869c-2.005-2.004-5.255-2.004-7.26 0l-8.237 8.237-4.129-4.129c-2.005-2.004-5.255-2.004-7.26 0-2.005 2.005-2.005 5.255 0 7.26l7.759 7.759c1.003 1.002 2.316 1.503 3.63 1.503s2.628-.501 3.63-1.503l11.867-11.867c2.005-2.004 2.005-5.255 0-7.26z" fill="#dae6f1"/></g></g><g><g><path d="m212.498 142.369c-2.005-2.004-5.255-2.004-7.26 0l-8.237 8.237-4.129-4.129c-2.005-2.004-5.255-2.004-7.26 0-2.005 2.005-2.005 5.255 0 7.26l7.759 7.759c1.003 1.002 2.316 1.503 3.63 1.503s2.628-.501 3.63-1.503l11.867-11.867c2.005-2.004 2.005-5.255 0-7.26z" fill="#dae6f1"/></g></g><g><g><path d="m212.498 212.869c-2.005-2.004-5.255-2.004-7.26 0l-8.237 8.237-4.129-4.129c-2.005-2.004-5.255-2.004-7.26 0-2.005 2.005-2.005 5.255 0 7.26l7.759 7.759c1.003 1.002 2.316 1.503 3.63 1.503s2.628-.501 3.63-1.503l11.867-11.867c2.005-2.004 2.005-5.255 0-7.26z" fill="#dae6f1"/></g></g><g><g><path d="m56.791 94.63c-2.273 0-4.115 1.843-4.115 4.115v13.755l17.87-17.87z" fill="#fc8c48"/></g></g><g><g><path d="m56.791 165.13c-2.273 0-4.115 1.843-4.115 4.115v13.755l17.87-17.87z" fill="#fc8c48"/></g></g><g><g><path d="m56.791 235.63c-2.273 0-4.115 1.843-4.115 4.115v13.755l17.87-17.87z" fill="#fc8c48"/></g></g><g><g><path d="m136.791 94.63c-2.273 0-4.115 1.843-4.115 4.115v13.755l17.87-17.87z" fill="#fc657e"/></g></g><g><g><path d="m136.791 165.13c-2.273 0-4.115 1.843-4.115 4.115v13.755l17.87-17.87z" fill="#fc657e"/></g></g><g><g><path d="m216.791 94.63c-2.273 0-4.115 1.843-4.115 4.115v13.755l17.87-17.87z" fill="#87d147"/></g></g><g><g><path d="m216.791 165.13c-2.273 0-4.115 1.843-4.115 4.115v13.755l17.87-17.87z" fill="#87d147"/></g></g><g><g><path d="m216.791 235.63c-2.273 0-4.115 1.843-4.115 4.115v13.755l17.87-17.87z" fill="#87d147"/></g></g><g><g><path d="m110.104 216.396c-4.5-.8-8-4.3-8.9-8.7 0-.2-.4-.2-.4 0-.9 4.4-4.4 7.9-8.9 8.7-.2 0-.2.3 0 .4 4.5.8 8 4.3 8.9 8.7 0 .2.4.2.4 0 .9-4.4 4.4-7.9 8.9-8.7.2-.099.2-.4 0-.4z" fill="#fc657e"/></g></g><g><g><path d="m85.665 6.21c-3.158-.561-5.613-3.017-6.245-6.104 0-.14-.281-.14-.281 0-.631 3.087-3.087 5.543-6.245 6.104-.14 0-.14.21 0 .281 3.158.562 5.613 3.017 6.245 6.104 0 .14.281.14.281 0 .631-3.087 3.087-5.543 6.245-6.104.14-.071.14-.281 0-.281z" fill="#f5c84c"/></g></g><g><g><path d="m247.754 107.646h-2.3v-2.3c0-1.7-1.4-3.2-3.2-3.2s-3.2 1.4-3.2 3.2v2.3h-2.3c-1.7 0-3.2 1.4-3.2 3.2s1.4 3.2 3.2 3.2h2.3v2.3c0 1.7 1.4 3.2 3.2 3.2s3.2-1.4 3.2-3.2v-2.3h2.3c1.7 0 3.2-1.4 3.2-3.2 0-1.799-1.4-3.2-3.2-3.2z" fill="#70d6f9"/></g></g><g><g><path d="m88.904 238c-1.878 0-3.4 1.522-3.4 3.4s1.522 3.4 3.4 3.4 3.4-1.522 3.4-3.4-1.522-3.4-3.4-3.4z" fill="#f5c84c"/></g></g><g><g><path d="m158.854 38c-1.878 0-3.4 1.522-3.4 3.4s1.522 3.4 3.4 3.4 3.4-1.522 3.4-3.4-1.522-3.4-3.4-3.4z" fill="#87d147"/></g></g><g><g><path d="m66.43 51h-18.847c-1.381 0-2.5 1.119-2.5 2.5s1.119 2.5 2.5 2.5h18.847c.891 0 1.615.725 1.615 1.615v35.979l-16.405 16.406h-39.979c-.891 0-1.615-.725-1.615-1.615v-50.77c0-.891.725-1.615 1.615-1.615h18.756c1.381 0 2.5-1.119 2.5-2.5s-1.119-2.5-2.5-2.5h-18.756c-3.647 0-6.615 2.968-6.615 6.615v50.77c0 3.647 2.968 6.615 6.615 6.615h41.015c.663 0 1.299-.264 1.768-.732l17.87-17.87c.469-.469.732-1.104.732-1.768v-37.015c-.001-3.647-2.968-6.615-6.616-6.615z"/></g></g><g><g><g><path d="m39.045 43c-5.79 0-10.5 4.71-10.5 10.5s4.71 10.5 10.5 10.5 10.5-4.71 10.5-10.5-4.71-10.5-10.5-10.5zm0 16c-3.033 0-5.5-2.468-5.5-5.5s2.467-5.5 5.5-5.5 5.5 2.468 5.5 5.5-2.467 5.5-5.5 5.5z"/></g></g></g><g><g><path d="m41.78 91.277h-19.895c-1.381 0-2.5 1.119-2.5 2.5s1.119 2.5 2.5 2.5h19.895c1.381 0 2.5-1.119 2.5-2.5s-1.119-2.5-2.5-2.5z"/></g></g><g><g><path d="m56.207 81.5h-34.322c-1.381 0-2.5 1.119-2.5 2.5s1.119 2.5 2.5 2.5h34.322c1.381 0 2.5-1.119 2.5-2.5s-1.12-2.5-2.5-2.5z"/></g></g><g><g><path d="m56.207 71.723h-34.322c-1.381 0-2.5 1.119-2.5 2.5s1.119 2.5 2.5 2.5h34.322c1.381 0 2.5-1.119 2.5-2.5s-1.12-2.5-2.5-2.5z"/></g></g><g><g><path d="m66.43 121.5h-18.43c-1.381 0-2.5 1.119-2.5 2.5s1.119 2.5 2.5 2.5h18.43c.891 0 1.615.725 1.615 1.615v35.979l-16.405 16.406h-39.979c-.891 0-1.615-.725-1.615-1.615v-50.77c0-.891.725-1.615 1.615-1.615h18.402c1.381 0 2.5-1.119 2.5-2.5s-1.119-2.5-2.5-2.5h-18.402c-3.647 0-6.615 2.968-6.615 6.615v50.77c0 3.647 2.968 6.615 6.615 6.615h41.015c.663 0 1.299-.264 1.768-.732l17.87-17.87c.469-.469.732-1.104.732-1.768v-37.015c-.001-3.647-2.968-6.615-6.616-6.615z"/></g></g><g><g><g><path d="m39.045 113.5c-5.79 0-10.5 4.71-10.5 10.5s4.71 10.5 10.5 10.5 10.5-4.71 10.5-10.5-4.71-10.5-10.5-10.5zm0 16c-3.033 0-5.5-2.468-5.5-5.5s2.467-5.5 5.5-5.5 5.5 2.468 5.5 5.5-2.467 5.5-5.5 5.5z"/></g></g></g><g><g><path d="m41.78 161.777h-19.895c-1.381 0-2.5 1.119-2.5 2.5s1.119 2.5 2.5 2.5h19.895c1.381 0 2.5-1.119 2.5-2.5s-1.119-2.5-2.5-2.5z"/></g></g><g><g><path d="m56.207 152h-34.322c-1.381 0-2.5 1.119-2.5 2.5s1.119 2.5 2.5 2.5h34.322c1.381 0 2.5-1.119 2.5-2.5s-1.12-2.5-2.5-2.5z"/></g></g><g><g><path d="m56.207 142.223h-34.322c-1.381 0-2.5 1.119-2.5 2.5s1.119 2.5 2.5 2.5h34.322c1.381 0 2.5-1.119 2.5-2.5s-1.12-2.5-2.5-2.5z"/></g></g><g><g><path d="m66.43 192h-18.597c-1.381 0-2.5 1.119-2.5 2.5s1.119 2.5 2.5 2.5h18.597c.891 0 1.615.725 1.615 1.615v35.979l-16.405 16.406h-39.979c-.891 0-1.615-.725-1.615-1.615v-50.77c0-.891.725-1.615 1.615-1.615h18.465c1.381 0 2.5-1.119 2.5-2.5s-1.119-2.5-2.5-2.5h-18.465c-3.647 0-6.615 2.968-6.615 6.615v50.77c0 3.647 2.968 6.615 6.615 6.615h41.015c.663 0 1.299-.264 1.768-.732l17.87-17.87c.469-.469.732-1.104.732-1.768v-37.015c-.001-3.647-2.968-6.615-6.616-6.615z"/></g></g><g><g><g><path d="m39.045 184c-5.79 0-10.5 4.71-10.5 10.5s4.71 10.5 10.5 10.5 10.5-4.71 10.5-10.5-4.71-10.5-10.5-10.5zm0 16c-3.033 0-5.5-2.468-5.5-5.5s2.467-5.5 5.5-5.5 5.5 2.468 5.5 5.5-2.467 5.5-5.5 5.5z"/></g></g></g><g><g><path d="m41.78 232.277h-19.895c-1.381 0-2.5 1.119-2.5 2.5s1.119 2.5 2.5 2.5h19.895c1.381 0 2.5-1.119 2.5-2.5s-1.119-2.5-2.5-2.5z"/></g></g><g><g><path d="m56.207 222.5h-34.322c-1.381 0-2.5 1.119-2.5 2.5s1.119 2.5 2.5 2.5h34.322c1.381 0 2.5-1.119 2.5-2.5s-1.12-2.5-2.5-2.5z"/></g></g><g><g><path d="m56.207 212.723h-34.322c-1.381 0-2.5 1.119-2.5 2.5s1.119 2.5 2.5 2.5h34.322c1.381 0 2.5-1.119 2.5-2.5s-1.12-2.5-2.5-2.5z"/></g></g><g><g><g><path d="m67.726 12h-57.324c-2.943 0-5.338 2.395-5.338 5.338v10.324c0 2.943 2.395 5.338 5.338 5.338h57.324c2.943 0 5.338-2.395 5.338-5.338v-10.324c0-2.943-2.395-5.338-5.338-5.338zm.338 15.662c0 .187-.152.338-.338.338h-57.324c-.187 0-.338-.151-.338-.338v-10.324c0-.187.151-.338.338-.338h57.324c.187 0 .338.151.338.338z"/></g></g></g><g><g><path d="m146.431 51h-18.577c-1.381 0-2.5 1.119-2.5 2.5s1.119 2.5 2.5 2.5h18.577c.891 0 1.615.725 1.615 1.615v35.979l-16.405 16.406h-39.98c-.891 0-1.615-.725-1.615-1.615v-50.77c0-.891.725-1.615 1.615-1.615h18.714c1.381 0 2.5-1.119 2.5-2.5s-1.119-2.5-2.5-2.5h-18.714c-3.647 0-6.615 2.968-6.615 6.615v50.77c0 3.647 2.968 6.615 6.615 6.615h41.015c.663 0 1.299-.264 1.768-.732l17.87-17.87c.469-.469.732-1.104.732-1.768v-37.015c0-3.647-2.968-6.615-6.615-6.615z"/></g></g><g><g><g><path d="m119.045 43c-5.79 0-10.5 4.71-10.5 10.5s4.71 10.5 10.5 10.5 10.5-4.71 10.5-10.5-4.71-10.5-10.5-10.5zm0 16c-3.033 0-5.5-2.468-5.5-5.5s2.467-5.5 5.5-5.5 5.5 2.468 5.5 5.5-2.467 5.5-5.5 5.5z"/></g></g></g><g><g><path d="m121.78 91.277h-19.895c-1.381 0-2.5 1.119-2.5 2.5s1.119 2.5 2.5 2.5h19.895c1.381 0 2.5-1.119 2.5-2.5s-1.119-2.5-2.5-2.5z"/></g></g><g><g><path d="m136.206 81.5h-34.321c-1.381 0-2.5 1.119-2.5 2.5s1.119 2.5 2.5 2.5h34.321c1.381 0 2.5-1.119 2.5-2.5s-1.119-2.5-2.5-2.5z"/></g></g><g><g><path d="m136.206 71.723h-34.321c-1.381 0-2.5 1.119-2.5 2.5s1.119 2.5 2.5 2.5h34.321c1.381 0 2.5-1.119 2.5-2.5s-1.119-2.5-2.5-2.5z"/></g></g><g><g><path d="m146.431 121.5h-18.639c-1.381 0-2.5 1.119-2.5 2.5s1.119 2.5 2.5 2.5h18.639c.891 0 1.615.725 1.615 1.615v35.979l-16.405 16.406h-39.98c-.891 0-1.615-.725-1.615-1.615v-50.77c0-.891.725-1.615 1.615-1.615h18.672c1.381 0 2.5-1.119 2.5-2.5s-1.119-2.5-2.5-2.5h-18.672c-3.647 0-6.615 2.968-6.615 6.615v50.77c0 3.647 2.968 6.615 6.615 6.615h41.015c.663 0 1.299-.264 1.768-.732l17.87-17.87c.469-.469.732-1.104.732-1.768v-37.015c0-3.647-2.968-6.615-6.615-6.615z"/></g></g><g><g><g><path d="m119.045 113.5c-5.79 0-10.5 4.71-10.5 10.5s4.71 10.5 10.5 10.5 10.5-4.71 10.5-10.5-4.71-10.5-10.5-10.5zm0 16c-3.033 0-5.5-2.468-5.5-5.5s2.467-5.5 5.5-5.5 5.5 2.468 5.5 5.5-2.467 5.5-5.5 5.5z"/></g></g></g><g><g><path d="m121.78 161.777h-19.895c-1.381 0-2.5 1.119-2.5 2.5s1.119 2.5 2.5 2.5h19.895c1.381 0 2.5-1.119 2.5-2.5s-1.119-2.5-2.5-2.5z"/></g></g><g><g><path d="m136.206 152h-34.321c-1.381 0-2.5 1.119-2.5 2.5s1.119 2.5 2.5 2.5h34.321c1.381 0 2.5-1.119 2.5-2.5s-1.119-2.5-2.5-2.5z"/></g></g><g><g><path d="m136.206 142.223h-34.321c-1.381 0-2.5 1.119-2.5 2.5s1.119 2.5 2.5 2.5h34.321c1.381 0 2.5-1.119 2.5-2.5s-1.119-2.5-2.5-2.5z"/></g></g><g><g><g><path d="m147.726 12h-57.324c-2.943 0-5.338 2.395-5.338 5.338v10.324c0 2.943 2.395 5.338 5.338 5.338h57.324c2.943 0 5.338-2.395 5.338-5.338v-10.324c-.001-2.943-2.395-5.338-5.338-5.338zm.337 15.662c0 .187-.151.338-.338.338h-57.323c-.187 0-.338-.151-.338-.338v-10.324c0-.187.151-.338.338-.338h57.324c.187 0 .338.151.338.338v10.324z"/></g></g></g><g><g><path d="m226.431 51h-18.556c-1.381 0-2.5 1.119-2.5 2.5s1.119 2.5 2.5 2.5h18.556c.891 0 1.615.725 1.615 1.615v35.979l-16.405 16.406h-39.979c-.891 0-1.615-.725-1.615-1.615v-50.77c0-.891.725-1.615 1.615-1.615h18.652c1.381 0 2.5-1.119 2.5-2.5s-1.119-2.5-2.5-2.5h-18.652c-3.647 0-6.615 2.968-6.615 6.615v50.77c0 3.647 2.968 6.615 6.615 6.615h41.015c.663 0 1.299-.264 1.768-.732l17.87-17.87c.469-.469.732-1.104.732-1.768v-37.015c-.001-3.647-2.969-6.615-6.616-6.615z"/></g></g><g><g><g><path d="m199.046 43c-5.79 0-10.5 4.71-10.5 10.5s4.71 10.5 10.5 10.5 10.5-4.71 10.5-10.5-4.71-10.5-10.5-10.5zm0 16c-3.032 0-5.5-2.468-5.5-5.5s2.468-5.5 5.5-5.5 5.5 2.468 5.5 5.5-2.468 5.5-5.5 5.5z"/></g></g></g><g><g><path d="m226.431 121.5h-18.243c-1.381 0-2.5 1.119-2.5 2.5s1.119 2.5 2.5 2.5h18.243c.891 0 1.615.725 1.615 1.615v35.979l-16.405 16.406h-39.979c-.891 0-1.615-.725-1.615-1.615v-50.77c0-.891.725-1.615 1.615-1.615h18.401c1.381 0 2.5-1.119 2.5-2.5s-1.119-2.5-2.5-2.5h-18.401c-3.647 0-6.615 2.968-6.615 6.615v50.77c0 3.647 2.968 6.615 6.615 6.615h41.015c.663 0 1.299-.264 1.768-.732l17.87-17.87c.469-.469.732-1.104.732-1.768v-37.015c-.001-3.647-2.969-6.615-6.616-6.615z"/></g></g><g><g><g><path d="m199.046 113.5c-5.79 0-10.5 4.71-10.5 10.5s4.71 10.5 10.5 10.5 10.5-4.71 10.5-10.5-4.71-10.5-10.5-10.5zm0 16c-3.032 0-5.5-2.468-5.5-5.5s2.468-5.5 5.5-5.5 5.5 2.468 5.5 5.5-2.468 5.5-5.5 5.5z"/></g></g></g><g><g><path d="m226.431 192h-18.473c-1.381 0-2.5 1.119-2.5 2.5s1.119 2.5 2.5 2.5h18.473c.891 0 1.615.725 1.615 1.615v35.979l-16.405 16.406h-39.979c-.891 0-1.615-.725-1.615-1.615v-50.77c0-.891.725-1.615 1.615-1.615h18.547c1.381 0 2.5-1.119 2.5-2.5s-1.119-2.5-2.5-2.5h-18.547c-3.647 0-6.615 2.968-6.615 6.615v50.77c0 3.647 2.968 6.615 6.615 6.615h41.015c.663 0 1.299-.264 1.768-.732l17.87-17.87c.469-.469.732-1.104.732-1.768v-37.015c-.001-3.647-2.969-6.615-6.616-6.615z"/></g></g><g><g><g><path d="m199.046 184c-5.79 0-10.5 4.71-10.5 10.5s4.71 10.5 10.5 10.5 10.5-4.71 10.5-10.5-4.71-10.5-10.5-10.5zm0 16c-3.032 0-5.5-2.468-5.5-5.5s2.468-5.5 5.5-5.5 5.5 2.468 5.5 5.5-2.468 5.5-5.5 5.5z"/></g></g></g><g><g><g><path d="m227.726 12h-57.323c-2.944 0-5.339 2.395-5.339 5.338v10.324c0 2.943 2.395 5.338 5.339 5.338h57.323c2.943 0 5.338-2.395 5.338-5.338v-10.324c-.001-2.943-2.395-5.338-5.338-5.338zm.337 15.662c0 .187-.151.338-.338.338h-57.323c-.187 0-.339-.151-.339-.338v-10.324c0-.187.152-.338.339-.338h57.323c.187 0 .338.151.338.338z"/></g></g></g><g><g><g><g><path d="m214.266 70.101c-2.977-2.973-7.819-2.974-10.796.001l-6.469 6.469-2.362-2.362c-2.976-2.974-7.819-2.974-10.795.001-2.977 2.977-2.977 7.819 0 10.796l7.759 7.758c1.441 1.442 3.358 2.237 5.398 2.237 2.039 0 3.956-.794 5.397-2.236l11.867-11.866c2.977-2.978 2.977-7.821.001-10.798zm-3.536 7.261-11.867 11.866c-.997.995-2.729.996-3.725 0l-7.76-7.759c-1.027-1.027-1.027-2.698-.001-3.725.515-.514 1.189-.77 1.864-.77s1.349.256 1.862.769l4.129 4.13c.469.469 1.104.732 1.768.732s1.299-.264 1.768-.732l8.235-8.236c1.029-1.027 2.699-1.026 3.727-.001 1.028 1.028 1.028 2.699 0 3.726z"/></g></g></g></g><g><g><g><g><path d="m214.266 140.601c-2.977-2.973-7.819-2.974-10.796.001l-6.469 6.469-2.362-2.362c-2.976-2.974-7.819-2.974-10.795.001-2.977 2.977-2.977 7.819 0 10.796l7.759 7.758c1.441 1.442 3.358 2.237 5.398 2.237 2.039 0 3.956-.794 5.397-2.236l11.867-11.866c2.977-2.978 2.977-7.821.001-10.798zm-3.536 7.261-11.867 11.866c-.997.995-2.729.996-3.725 0l-7.76-7.759c-1.027-1.027-1.027-2.698-.001-3.725.515-.514 1.189-.77 1.864-.77s1.349.256 1.862.769l4.129 4.13c.469.469 1.104.732 1.768.732s1.299-.264 1.768-.732l8.235-8.236c1.029-1.027 2.699-1.026 3.727-.001 1.028 1.028 1.028 2.699 0 3.726z"/></g></g></g></g><g><g><g><g><path d="m214.266 211.101c-2.977-2.973-7.819-2.974-10.796.001l-6.469 6.469-2.362-2.362c-2.976-2.974-7.819-2.974-10.795.001-2.977 2.977-2.977 7.819 0 10.796l7.759 7.758c1.441 1.442 3.358 2.237 5.398 2.237 2.039 0 3.956-.794 5.397-2.236l11.867-11.866c2.977-2.978 2.977-7.821.001-10.798zm-3.536 7.261-11.867 11.866c-.997.995-2.729.995-3.725 0l-7.76-7.759c-1.027-1.027-1.027-2.698-.001-3.725.515-.514 1.189-.77 1.864-.77s1.349.256 1.862.769l4.129 4.13c.469.469 1.104.732 1.768.732s1.299-.264 1.768-.732l8.235-8.236c1.029-1.027 2.699-1.026 3.727-.001 1.028 1.028 1.028 2.699 0 3.726z"/></g></g></g></g><g><g><path d="m69.781 92.13h-12.99c-3.647 0-6.615 2.968-6.615 6.615v12.88c0 1.381 1.119 2.5 2.5 2.5s2.5-1.119 2.5-2.5v-12.88c0-.891.725-1.615 1.615-1.615h12.99c1.381 0 2.5-1.119 2.5-2.5s-1.119-2.5-2.5-2.5z"/></g></g><g><g><path d="m69.667 162.63h-12.876c-3.647 0-6.615 2.968-6.615 6.615v12.713c0 1.381 1.119 2.5 2.5 2.5s2.5-1.119 2.5-2.5v-12.713c0-.891.725-1.615 1.615-1.615h12.876c1.381 0 2.5-1.119 2.5-2.5s-1.119-2.5-2.5-2.5z"/></g></g><g><g><path d="m69.458 233.13h-12.667c-3.647 0-6.615 2.968-6.615 6.615v12.88c0 1.381 1.119 2.5 2.5 2.5s2.5-1.119 2.5-2.5v-12.88c0-.891.725-1.615 1.615-1.615h12.667c1.381 0 2.5-1.119 2.5-2.5s-1.12-2.5-2.5-2.5z"/></g></g><g><g><path d="m149.531 92.13h-12.74c-3.647 0-6.615 2.968-6.615 6.615v12.713c0 1.381 1.119 2.5 2.5 2.5s2.5-1.119 2.5-2.5v-12.713c0-.891.725-1.615 1.615-1.615h12.74c1.381 0 2.5-1.119 2.5-2.5s-1.119-2.5-2.5-2.5z"/></g></g><g><g><path d="m149.625 162.63h-12.834c-3.647 0-6.615 2.968-6.615 6.615v12.755c0 1.381 1.119 2.5 2.5 2.5s2.5-1.119 2.5-2.5v-12.755c0-.891.725-1.615 1.615-1.615h12.834c1.381 0 2.5-1.119 2.5-2.5s-1.119-2.5-2.5-2.5z"/></g></g><g><g><path d="m229.687 92.13h-12.896c-3.647 0-6.615 2.968-6.615 6.615v12.838c0 1.381 1.119 2.5 2.5 2.5s2.5-1.119 2.5-2.5v-12.838c0-.891.725-1.615 1.615-1.615h12.896c1.381 0 2.5-1.119 2.5-2.5s-1.119-2.5-2.5-2.5z"/></g></g><g><g><path d="m229.708 162.63h-12.917c-3.647 0-6.615 2.968-6.615 6.615v12.713c0 1.381 1.119 2.5 2.5 2.5s2.5-1.119 2.5-2.5v-12.713c0-.891.725-1.615 1.615-1.615h12.917c1.381 0 2.5-1.119 2.5-2.5s-1.119-2.5-2.5-2.5z"/></g></g><g><g><path d="m229.625 233.13h-12.834c-3.647 0-6.615 2.968-6.615 6.615v12.713c0 1.381 1.119 2.5 2.5 2.5s2.5-1.119 2.5-2.5v-12.713c0-.891.725-1.615 1.615-1.615h12.834c1.381 0 2.5-1.119 2.5-2.5s-1.119-2.5-2.5-2.5z"/></g></g></g></g></svg>