<svg width="65px" height="198px" viewBox="0 0 65 198" version="1.1" xmlns="http://www.w3.org/2000/svg" xmlns:xlink="http://www.w3.org/1999/xlink"><title>Group 4</title><desc>Created with Sketch.</desc><defs><polygon id="path-1" points="0.452572621 0.697 29.5389323 0.697 29.5389323 51.0653601 0.452572621 51.0653601"></polygon></defs><g id="Page-1" stroke="none" stroke-width="1" fill="none" fill-rule="evenodd"><g id="41011" transform="translate(-518.000000, 0.000000)"><g id="Group-4" transform="translate(517.985894, 0.000000)"><path d="M27.9141055,161.341 C10.3501055,162.495 -2.02489446,171.431 0.27510554,181.295 C2.57610554,191.16 18.6841055,198.223 36.2471055,197.069 C53.8061055,195.914 66.1821055,186.978 63.8821055,177.112 C61.5811055,167.249 45.4731055,160.186 27.9141055,161.341" id="Fill-422" fill="#CDCECA"></path><path d="M3.59410554,146.234 L60.5621055,146.234 L60.5621055,174.495 C60.5621055,188.126 41.2781055,190.934 32.0841055,190.960163 C22.8891055,190.985 3.22810554,188.139 3.59410554,174.059 L3.59410554,146.234" id="Fill-423" fill="#3B4022"></path><path d="M3.59410554,146.233 L60.5621055,146.233 L60.5621055,174.495 C60.5621055,175.64 60.4231055,176.707 60.1681055,177.704 C55.2791055,186.786 39.7301055,188.864 31.6181055,188.886183 C24.5071055,188.906 11.4641055,187.297 5.15110554,180.589 C4.10810554,178.739 3.52810554,176.581 3.59410554,174.06 L3.59410554,146.233" id="Fill-424" fill="#627636"></path><path d="M28.3791055,130.795 C12.7801055,131.852 1.78710554,140.031 3.83110554,149.058 C5.87510554,158.089 20.1811055,164.553 35.7811055,163.497 C51.3771055,162.44 62.3691055,154.26 60.3251055,145.23 C58.2811055,136.202 43.9751055,129.738 28.3791055,130.795" id="Fill-425" fill="#718E3D"></path><path d="M56.7811055,163.485 L56.7811055,175.575 C56.7811055,180.974 51.0801055,184.049 51.0801055,177.473 L51.0801055,165.952 C50.2391055,160.625 57.1251055,153.93 56.7811055,163.485" id="Fill-426" fill="#718E3D"></path><path d="M7.80010554,153.466 C12.2461055,159.118 21.2551055,163.193 34.8721055,162.408 C48.4891055,161.623 59.7431055,155.252 58.5131055,148.146 C57.4481055,154.281 46.2301055,159.474 34.4461055,160.154 C22.6621055,160.833 16.1581055,157.939 10.5631055,153.807 C9.49310554,153.958 8.52310554,153.853 7.80010554,153.466" id="Fill-427" fill="#C8CC97"></path><path d="M29.5591055,131.572 C19.1661055,132.277 11.8431055,137.726 13.2041055,143.74 C14.5661055,149.757 24.0971055,154.064 34.4911055,153.36 C44.8821055,152.656 52.2051055,147.206 50.8441055,141.19 C49.4821055,135.176 39.9511055,130.868 29.5591055,131.572" id="Fill-428" fill="#627636"></path><path d="M32.7271055,169.53 L32.7271055,183.7 C32.7271055,185.07 32.2141055,186.25 31.2111055,187.183 C30.2081055,188.116 28.9951055,188.544 27.6291055,188.446 C21.3061055,187.992 12.8301055,186.282 7.83910554,181.774 C6.80410554,180.839 6.26910554,179.638 6.26910554,178.243 L6.26910554,160.879 C6.26910554,159.968 6.74410554,159.187 7.55410554,158.767 C8.36210554,158.348 9.27410554,158.41 10.0191055,158.935 C14.5381055,162.121 21.0721055,164.268 28.3081055,164.784 C30.8031055,164.962 32.7271055,167.029 32.7271055,169.53" id="Fill-429" fill="#4E5F2E"></path><path d="M11.9121055,137.126 C11.4591055,137.126 11.0931055,136.759 11.0931055,136.306 L11.0931055,57.725 C11.0931055,55.607 12.1501055,53.793 13.9931055,52.75 L15.9831055,51.623 C16.3781055,51.401 16.8781055,51.539 17.1011055,51.933 C17.3241055,52.327 17.1851055,52.828 16.7911055,53.051 L14.8011055,54.177 C13.4861055,54.921 12.7321055,56.215 12.7321055,57.725 L12.7321055,136.306 C12.7321055,136.759 12.3661055,137.126 11.9121055,137.126" id="Fill-430" fill="#8B8E8D"></path><path d="M17.4681055,126.088 L46.0101055,126.088 L46.0101055,140.247 C46.0101055,147.076 36.3481055,148.483 31.7421055,148.496075 C27.1361055,148.508 17.2851055,147.082 17.4681055,140.029 L17.4681055,126.088" id="Fill-431" fill="#9FA2A1"></path><path d="M32.5871055,126.688 L32.5871055,147.865 C32.1871055,147.885 31.8111055,147.895081 31.4641055,147.895081 C28.6001055,147.903 23.5931055,147.322 20.5451055,145.03 L20.5451055,126.688 L32.5871055,126.688" id="Fill-432" fill="#797C7A"></path><path d="M38.3451055,125.687 L38.3451055,147.262 C37.3861055,147.512 36.4161055,147.694 35.4861055,147.823 L35.4861055,125.687 L38.3451055,125.687" id="Fill-433" fill="#E5E6E3"></path><path d="M46.0101055,129.756 C43.0211055,131.427 39.0921055,132.565 34.6221055,132.868 C28.0051055,133.316 21.7211055,131.834 17.4681055,129.193 L17.4681055,126.088 L46.0101055,126.088 L46.0101055,129.756" id="Fill-434" fill="#797C7A"></path><path d="M12.0431055,117.541 L52.0041055,117.541 L52.0041055,119.766 L51.9971055,119.766 C52.3591055,125.65 44.9231055,130.779 34.6221055,131.477 C23.6801055,132.218 13.6431055,127.683 12.2101055,121.349 C12.0791055,120.775 12.0271055,120.205 12.0431055,119.644 L12.0431055,117.541" id="Fill-435" fill="#B6B8B5"></path><path d="M29.4301055,105.605 C18.4861055,106.347 10.7761055,112.084 12.2091055,118.418 C13.6431055,124.752 23.6791055,129.287 34.6221055,128.546 C45.5611055,127.804 53.2721055,122.067 51.8391055,115.732 C50.4061055,109.399 40.3701055,104.864 29.4301055,105.605" id="Fill-436" fill="#E5E6E3"></path><path d="M7.65410554,62.366 L55.8231055,62.366 L55.8231055,108.297 C55.8231055,113.042 51.6001055,114.136 48.8231055,118.412 C45.3431055,123.769 37.9251055,126.067 34.2851055,126.313 C30.0741055,126.598 20.5251055,126.51 15.6371055,119.205 C13.1921055,115.55 7.65410554,112.54 7.65410554,108.297 L7.65410554,62.366" id="Fill-437" fill="#B3ACC8"></path><path d="M9.30810554,64.565 L54.1691055,64.565 L54.1691055,107.341 C54.1691055,111.76 50.2361055,112.779 47.6491055,116.761 C44.4091055,121.75 37.5001055,123.89 34.1101055,124.119 C30.1891055,124.385 21.2951055,124.302 16.7431055,117.5 C14.4651055,114.096 9.30810554,111.292 9.30810554,107.341 L9.30810554,64.565" id="Fill-438" fill="#E5E2E7"></path><path d="M29.3301055,73.553 C17.9691055,75.151 9.96410554,87.512 11.4521055,101.155 C12.9401055,114.802 23.3601055,124.572 34.7211055,122.974 C46.0791055,121.377 54.0841055,109.016 52.5961055,95.37 C51.1071055,81.727 40.6881055,71.957 29.3301055,73.553" id="Fill-439" fill="#FFFFFE"></path><path d="M31.8541055,127.464 C24.6661055,127.464 18.0271055,124.835 14.9421055,120.767 C14.6561055,120.39 14.7301055,119.852 15.1071055,119.567 C15.4841055,119.28 16.0221055,119.353 16.3071055,119.732 C19.0801055,123.388 25.1831055,125.75 31.8541055,125.75 C39.0631055,125.75 45.5281055,123.007 47.9431055,118.925 C48.1841055,118.517 48.7091055,118.384 49.1171055,118.623 C49.5241055,118.864 49.6591055,119.389 49.4181055,119.797 C46.7061055,124.383 39.6481055,127.464 31.8541055,127.464" id="Fill-440" fill="#8B8E8D"></path><path d="M30.6761055,110.098 C24.9871055,110.484 20.9791055,113.466 21.7241055,116.758 C22.4701055,120.051 27.6861055,122.408 33.3741055,122.022 C39.0601055,121.637 43.0681055,118.655 42.3241055,115.362 C41.5781055,112.071 36.3621055,109.713 30.6761055,110.098" id="Fill-441" fill="#E5E6E3"></path><path d="M31.7261055,114.744 C30.4701055,114.829 29.5841055,115.488 29.7481055,116.215 C29.9131055,116.942 31.0661055,117.463 32.3221055,117.378 C33.5781055,117.292 34.4631055,116.634 34.2991055,115.906 C34.1341055,115.179 32.9821055,114.658 31.7261055,114.744" id="Fill-442" fill="#B6B8B5"></path><path d="M55.2301055,70.392 C54.9071055,70.048 54.9241055,69.507 55.2671055,69.183 C55.6111055,68.86 56.1521055,68.876 56.4761055,69.22 C57.7281055,70.554 58.6871055,71.986 59.3351055,73.474 C59.9931055,74.984 60.3311055,76.546 60.3311055,78.119 C60.3311055,83.029 57.1481055,87.44 52.0041055,90.604 C46.9841055,93.69 40.0661055,95.6 32.4421055,95.6 C24.8181055,95.6 17.9001055,93.69 12.8811055,90.604 C7.73710554,87.44 4.55410554,83.029 4.55410554,78.119 C4.55410554,76.546 4.89110554,74.985 5.54910554,73.475 C6.19710554,71.988 7.15610554,70.556 8.40910554,69.222 C8.73210554,68.878 9.27310554,68.862 9.61710554,69.185 C9.96110554,69.509 9.97710554,70.05 9.65410554,70.394 C8.53610554,71.584 7.68510554,72.851 7.11610554,74.159 C6.55610554,75.444 6.26810554,76.776 6.26810554,78.119 C6.26810554,82.39 9.13810554,86.291 13.7781055,89.144 C18.5421055,92.073 25.1401055,93.887 32.4421055,93.887 C39.7441055,93.887 46.3431055,92.073 51.1061055,89.144 C55.7471055,86.291 58.6161055,82.39 58.6161055,78.119 C58.6161055,76.776 58.3291055,75.443 57.7681055,74.157 C57.1991055,72.849 56.3481055,71.582 55.2301055,70.392" id="Fill-443" fill="#8B8E8D"></path><path d="M24.7511055,126.338 C24.4281055,126.338 24.1181055,126.154 23.9731055,125.841 L20.7221055,118.8 C19.7321055,116.655 19.2911055,114.646 19.2911055,112.283 L19.2911055,82.006 C19.2911055,81.532 19.6751055,81.149 20.1481055,81.149 C20.6211055,81.149 21.0051055,81.532 21.0051055,82.006 L21.0051055,112.283 C21.0051055,114.385 21.3971055,116.174 22.2781055,118.081 L25.5291055,125.122 C25.7271055,125.551 25.5401055,126.061 25.1101055,126.259 C24.9931055,126.313 24.8711055,126.338 24.7511055,126.338" id="Fill-444" fill="#8B8E8D"></path><path d="M39.1941055,126.338 C39.0741055,126.338 38.9521055,126.313 38.8351055,126.259 C38.4051055,126.061 38.2181055,125.551 38.4161055,125.122 L41.6671055,118.081 C42.5481055,116.173 42.9411055,114.385 42.9411055,112.283 L42.9411055,82.006 C42.9411055,81.532 43.3251055,81.149 43.7981055,81.149 C44.2711055,81.149 44.6551055,81.532 44.6551055,82.006 L44.6551055,112.283 C44.6551055,114.645 44.2131055,116.655 43.2221055,118.8 L39.9721055,125.841 C39.8271055,126.154 39.5171055,126.338 39.1941055,126.338" id="Fill-445" fill="#8B8E8D"></path><path d="M6.83610554,62.953 L57.2111055,62.953 L57.2111055,68.959 L57.2021055,68.959 C57.6581055,76.377 48.2851055,82.841 35.2991055,83.721 C21.5051055,84.656 8.85310554,78.94 7.04710554,70.955 C6.88210554,70.232 6.81610554,69.513 6.83610554,68.806 L6.83610554,62.953" id="Fill-446" fill="#4E5F2E"></path><path d="M28.7531055,47.88 C14.9591055,48.815 5.23910554,56.047 7.04510554,64.031 C8.85310554,72.016 21.5041055,77.733 35.2991055,76.798 C49.0901055,75.863 58.8091055,68.631 57.0031055,60.645 C55.1961055,52.662 42.5451055,46.945 28.7531055,47.88" id="Fill-447" fill="#718E3D"></path><path d="M8.52110554,61.921 C8.37910554,62.798 8.41010554,63.697 8.63710554,64.608 C10.3371055,71.438 22.2361055,76.328 35.2101055,75.529 C47.8181055,74.752 56.8071055,68.883 55.7401055,62.283 C54.8141055,67.98 46.4511055,72.72 35.2101055,73.413 C22.2361055,74.213 10.3371055,69.322 8.63710554,62.492 C8.58910554,62.301 8.55210554,62.111 8.52110554,61.921" id="Fill-448" fill="#C8CC97"></path><path d="M57.7021055,149.774 C57.2491055,149.774 56.8831055,149.407 56.8831055,148.954 L56.8831055,79.606 C56.8831055,78.095 56.1281055,76.802 54.8131055,76.058 L52.8231055,74.932 C52.4301055,74.709 52.2911055,74.209 52.5141055,73.815 C52.7371055,73.421 53.2361055,73.282 53.6321055,73.505 L55.6211055,74.631 C57.4651055,75.674 58.5211055,77.487 58.5211055,79.606 L58.5211055,148.954 C58.5211055,149.407 58.1551055,149.774 57.7021055,149.774" id="Fill-449" fill="#8B8E8D"></path><path d="M48.4881055,139.551 C50.2501055,135.507 49.6301055,131.616 47.1031055,130.863 C44.5771055,130.109 41.0991055,132.778 39.3381055,136.822 C37.5771055,140.865 38.1971055,144.755 40.7231055,145.509 C43.2501055,146.262 46.7271055,143.593 48.4881055,139.551" id="Fill-450" fill="#676867"></path><path d="M48.6351055,138.41 C49.9791055,135.04 49.3951055,131.81 47.3301055,131.196 C45.2641055,130.581 42.4991055,132.814 41.1541055,136.184 C39.8091055,139.552 40.3931055,142.782 42.4591055,143.397 C44.5241055,144.011 47.2901055,141.778 48.6351055,138.41" id="Fill-451" fill="#B94C2C"></path><path d="M43.7651055,143.9 L40.4781055,142.062 L40.4801055,142.061 C38.7791055,141.241 38.4231055,138.361 39.7241055,135.375 C41.1061055,132.203 43.8341055,130.11 45.8161055,130.7 C45.9961055,130.754 46.1631055,130.828 46.3171055,130.921 L49.6611055,132.789 C47.6661055,132.396 45.0361055,134.489 43.6791055,137.602 C42.5531055,140.188 42.6471055,142.695 43.7651055,143.9" id="Fill-452" fill="#9E352A"></path><path d="M50.9851055,139.781 C52.3921055,136.551 51.8971055,133.445 49.8801055,132.843 C47.8621055,132.242 45.0861055,134.373 43.6791055,137.602 C42.2721055,140.831 42.7681055,143.937 44.7851055,144.539 C46.8031055,145.14 49.5791055,143.009 50.9851055,139.781" id="Fill-453" fill="#471F18"></path><path d="M50.2311055,139.555 C51.3471055,136.993 50.9541055,134.529 49.3531055,134.051 C47.7531055,133.574 45.5501055,135.265 44.4341055,137.827 C43.3181055,140.389 43.7111055,142.853 45.3111055,143.331 C46.9121055,143.808 49.1151055,142.117 50.2311055,139.555" id="Fill-454" fill="#742821"></path><path d="M50.2311055,139.555 C50.6321055,138.635 50.8391055,137.728 50.8631055,136.921 L46.8671055,134.687 C45.9191055,135.362 45.0241055,136.472 44.4341055,137.826 C44.0291055,138.757 43.8231055,139.673 43.8011055,140.487 L47.7791055,142.711 C48.7341055,142.036 49.6371055,140.92 50.2311055,139.555" id="Fill-455" fill="#9E352A"></path><path d="M51.7001055,140.079 C53.2571055,136.507 52.7091055,133.07 50.4771055,132.405 C48.2451055,131.739 45.1741055,134.096 43.6181055,137.669 C42.0611055,141.241 42.6091055,144.677 44.8421055,145.343 C47.0731055,146.009 50.1441055,143.651 51.7001055,140.079" id="Fill-456" fill="#3A3A39"></path><path d="M43.8611055,144.794 L40.1901055,142.742 L40.1911055,142.74 C38.2931055,141.825 37.8951055,138.609 39.3481055,135.274 C40.8911055,131.732 43.9371055,129.394 46.1501055,130.054 C46.3511055,130.114 46.5381055,130.197 46.7111055,130.3 L50.4441055,132.387 C48.2161055,131.947 45.2791055,134.284 43.7641055,137.761 C42.5071055,140.649 42.6121055,143.447 43.8611055,144.794" id="Fill-457" fill="#515251"></path><path d="M41.1091055,142.533 L39.6631055,141.725 C39.5661055,141.671 39.4461055,141.705 39.3951055,141.802 C39.3451055,141.899 39.3831055,142.022 39.4801055,142.076 L41.1091055,142.987 L41.1091055,142.533 Z M41.1091055,141.649 L41.1091055,142.102 L39.2001055,141.034 C39.1031055,140.98 39.0651055,140.857 39.1161055,140.76 C39.1661055,140.664 39.2861055,140.629 39.3831055,140.683 L41.1091055,141.649 Z M41.1091055,140.764 L39.2511055,139.725 C39.1541055,139.671 39.0341055,139.706 38.9841055,139.802 C38.9331055,139.899 38.9721055,140.022 39.0681055,140.076 L41.1091055,141.217 L41.1091055,140.764 Z M41.1091055,139.879 L41.1091055,140.332 L39.1031055,139.211 C39.0071055,139.157 38.9681055,139.033 39.0181055,138.937 C39.0691055,138.84 39.1891055,138.806 39.2861055,138.86 L41.1091055,139.879 Z M41.1091055,138.994 L39.3761055,138.025 C39.2791055,137.971 39.1591055,138.006 39.1091055,138.102 C39.0591055,138.199 39.0971055,138.322 39.1931055,138.377 L41.1091055,139.447 L41.1091055,138.994 Z M41.1091055,138.109 L41.1091055,138.562 L39.3441055,137.575 C39.2471055,137.521 39.2091055,137.398 39.2591055,137.301 C39.3091055,137.205 39.4301055,137.17 39.5261055,137.224 L41.1091055,138.109 Z M41.1091055,137.224 L39.7681055,136.474 C39.6711055,136.42 39.5511055,136.455 39.5011055,136.551 C39.4511055,136.648 39.4891055,136.771 39.5851055,136.826 L41.1091055,137.677 L41.1091055,137.224 Z M41.1091055,136.339 L41.1091055,136.793 L39.8851055,136.108 C39.7881055,136.054 39.7501055,135.931 39.8001055,135.834 C39.8501055,135.738 39.9711055,135.703 40.0671055,135.757 L41.1091055,136.339 Z M41.1091055,135.455 L40.4161055,135.068 C40.3201055,135.013 40.2001055,135.048 40.1501055,135.145 C40.0991055,135.241 40.1371055,135.364 40.2341055,135.419 L41.1091055,135.908 L41.1091055,135.455 Z M41.1091055,134.57 L41.1091055,135.023 L40.5851055,134.73 C40.4881055,134.676 40.4501055,134.552 40.5001055,134.455 C40.5501055,134.359 40.6701055,134.324 40.7671055,134.378 L41.1091055,134.57 Z M41.1091055,133.695 L41.1091055,134.137 L40.9811055,134.066 C40.8841055,134.012 40.8461055,133.889 40.8961055,133.793 L41.1091055,133.695 Z M42.6131055,143.374 L42.6131055,143.827 L41.1091055,142.987 L41.1091055,142.533 L42.6131055,143.374 Z M42.6131055,142.489 L41.1091055,141.649 L41.1091055,142.102 L42.5551055,142.909 L42.6131055,142.932 L42.6131055,142.489 Z M42.6131055,141.605 L42.6131055,141.954 L42.4231055,141.951 L41.1091055,141.217 L41.1091055,140.764 L42.6051055,141.6 L42.6131055,141.605 Z M42.6131055,140.719 L41.1091055,139.879 L41.1091055,140.332 L42.4571055,141.085 L42.6131055,141.102 L42.6131055,140.719 Z M42.6131055,139.835 L42.6131055,140.275 L42.5481055,140.251 L41.1091055,139.447 L41.1091055,138.994 L42.6131055,139.835 Z M42.6131055,138.95 L41.1091055,138.109 L41.1091055,138.562 L42.6131055,139.403 L42.6131055,138.95 Z M42.6131055,138.065 L42.6131055,138.518 L41.1091055,137.677 L41.1091055,137.224 L42.6131055,138.065 Z M42.6131055,137.18 L41.1091055,136.339 L41.1091055,136.793 L42.6131055,137.633 L42.6131055,137.18 Z M42.6131055,136.295 L42.6131055,136.749 L41.1091055,135.908 L41.1091055,135.455 L42.6131055,136.295 Z M42.6131055,135.41 L41.1091055,134.57 L41.1091055,135.023 L42.6131055,135.864 L42.6131055,135.41 Z M42.6131055,134.526 L42.6131055,134.978 L41.1091055,134.137 L41.1091055,133.695 L41.1641055,133.716 L42.6131055,134.526 Z M42.6131055,133.64 L41.6381055,133.095 C41.5401055,133.041 41.4201055,133.076 41.3701055,133.172 C41.3201055,133.269 41.3581055,133.392 41.4551055,133.446 L42.6131055,134.093 L42.6131055,133.64 Z M42.6131055,132.756 L42.6131055,133.209 L41.9601055,132.843 C41.8631055,132.789 41.8251055,132.666 41.8751055,132.57 C41.9251055,132.473 42.0451055,132.438 42.1421055,132.492 L42.6131055,132.756 Z M42.6131055,131.875 L42.6131055,132.324 L42.4611055,132.239 C42.3641055,132.185 42.3271055,132.062 42.3771055,131.965 L42.6131055,131.875 Z M42.6131055,136.749 L43.5881055,137.293 C43.6851055,137.347 43.8051055,137.313 43.8551055,137.216 C43.9061055,137.119 43.8681055,136.996 43.7711055,136.942 L42.6131055,136.295 L42.6131055,136.749 Z M42.6131055,137.633 L42.6131055,137.18 L43.4211055,137.632 C43.5181055,137.686 43.5561055,137.809 43.5061055,137.905 C43.4561055,138.002 43.3351055,138.037 43.2391055,137.983 L42.6131055,137.633 Z M42.6131055,138.518 L42.6131055,138.065 L43.1221055,138.349 C43.2191055,138.404 43.2571055,138.527 43.2071055,138.623 C43.1571055,138.72 43.0361055,138.755 42.9391055,138.7 L42.6131055,138.518 Z M42.6131055,139.403 L42.6131055,138.95 L42.8811055,139.099 C42.9771055,139.153 43.0151055,139.276 42.9651055,139.373 C42.9151055,139.47 42.7951055,139.504 42.6981055,139.45 L42.6131055,139.403 Z M42.6131055,140.275 L42.6131055,139.835 L42.7301055,139.9 C42.8271055,139.954 42.8661055,140.077 42.8151055,140.174 L42.6131055,140.275 Z M42.6131055,141.102 L42.6131055,140.719 L42.6401055,140.735 C42.7371055,140.789 42.7751055,140.911 42.7241055,141.008 L42.6131055,141.102 Z M42.6131055,141.954 L42.6131055,141.605 C42.7041055,141.661 42.7381055,141.78 42.6901055,141.874 L42.6131055,141.954 Z M42.6131055,142.932 L42.6131055,142.489 L42.7371055,142.558 C42.8341055,142.613 42.8721055,142.736 42.8221055,142.832 L42.6131055,142.932 Z M42.6131055,143.827 L42.6131055,143.374 L43.0161055,143.599 C43.1141055,143.654 43.1521055,143.777 43.1011055,143.874 C43.0521055,143.97 42.9311055,144.005 42.8341055,143.951 L42.6131055,143.827 Z M44.0271055,136.2 L44.0271055,136.631 L43.9391055,136.604 L42.6131055,135.864 L42.6131055,135.41 L44.0271055,136.2 Z M44.0271055,135.316 L42.6131055,134.526 L42.6131055,134.978 L44.0271055,135.769 L44.0271055,135.316 Z M44.0271055,134.43 L44.0271055,134.884 L42.6131055,134.093 L42.6131055,133.64 L44.0271055,134.43 Z M44.0271055,133.546 L42.6131055,132.756 L42.6131055,133.209 L44.0271055,133.999 L44.0271055,133.546 Z M44.0271055,132.661 L44.0271055,133.114 L42.6131055,132.324 L42.6131055,131.875 L42.6441055,131.888 L44.0271055,132.661 Z M44.0271055,131.776 L43.2451055,131.339 C43.1481055,131.285 43.0281055,131.32 42.9781055,131.416 C42.9281055,131.513 42.9661055,131.636 43.0621055,131.69 L44.0271055,132.229 L44.0271055,131.776 Z M44.0271055,130.891 L44.0271055,131.344 L43.7921055,131.213 C43.6951055,131.159 43.6571055,131.036 43.7071055,130.939 C43.7581055,130.843 43.8781055,130.808 43.9741055,130.862 L44.0271055,130.891 Z M44.0271055,135.769 L44.0271055,135.316 L44.5181055,135.59 C44.6151055,135.644 44.6531055,135.767 44.6031055,135.864 C44.5521055,135.96 44.4321055,135.995 44.3351055,135.941 L44.0271055,135.769 Z M44.0271055,136.631 L44.0271055,136.2 L44.1211055,136.253 C44.2191055,136.307 44.2561055,136.43 44.2061055,136.527 L44.0271055,136.631 Z M45.0271055,134.996 L44.9921055,134.969 L44.0271055,134.43 L44.0271055,134.884 L44.8091055,135.321 L45.0271055,135.304 L45.0271055,134.996 Z M45.0271055,134.105 L45.0271055,134.558 L44.0271055,133.999 L44.0271055,133.546 L45.0271055,134.105 Z M45.0271055,133.22 L44.0271055,132.661 L44.0271055,133.114 L45.0271055,133.673 L45.0271055,133.22 Z M45.0271055,132.335 L45.0271055,132.789 L44.0271055,132.229 L44.0271055,131.776 L45.0271055,132.335 Z M45.0271055,131.45 L44.0271055,130.891 L44.0271055,131.344 L45.0271055,131.904 L45.0271055,131.45 Z M45.0271055,130.566 L45.0271055,131.019 L44.5581055,130.757 C44.4621055,130.703 44.4241055,130.579 44.4741055,130.483 C44.5241055,130.386 44.6441055,130.351 44.7421055,130.405 L45.0271055,130.566 Z M45.0271055,134.558 L45.3141055,134.718 C45.4111055,134.773 45.5311055,134.738 45.5811055,134.641 C45.6321055,134.545 45.5941055,134.421 45.4961055,134.367 L45.0271055,134.105 L45.0271055,134.558 Z M45.0271055,135.304 L45.0271055,134.996 L45.0761055,135.244 L45.0271055,135.304 Z M45.8121055,133.659 L45.8121055,134.112 L45.0271055,133.673 L45.0271055,133.22 L45.8121055,133.659 Z M45.8121055,132.774 L45.0271055,132.335 L45.0271055,132.789 L45.8121055,133.227 L45.8121055,132.774 Z M45.8121055,131.889 L45.8121055,132.343 L45.0271055,131.904 L45.0271055,131.45 L45.8121055,131.889 Z M45.8121055,131.004 L45.0271055,130.566 L45.0271055,131.019 L45.8121055,131.458 L45.8121055,131.004 Z M45.8121055,130.573 L45.6281055,130.469 C45.5301055,130.415 45.4931055,130.292 45.5431055,130.196 C45.5941055,130.099 45.7141055,130.064 45.8101055,130.118 L45.8121055,130.119 L45.8121055,130.573 Z M45.8121055,131.458 L47.9131055,132.632 C48.0101055,132.686 48.1301055,132.651 48.1811055,132.554 C48.2301055,132.458 48.1921055,132.335 48.0961055,132.28 L45.8121055,131.004 L45.8121055,131.458 Z M45.8121055,132.343 L47.1461055,133.088 C47.2431055,133.142 47.3631055,133.107 47.4141055,133.01 C47.4641055,132.914 47.4261055,132.791 47.3291055,132.737 L45.8121055,131.889 L45.8121055,132.343 Z M45.8121055,133.227 L45.8121055,132.774 L46.5991055,133.214 C46.6961055,133.268 46.7341055,133.391 46.6841055,133.488 C46.6341055,133.585 46.5141055,133.619 46.4171055,133.565 L45.8121055,133.227 Z M45.8121055,134.112 L45.8121055,133.659 L45.9981055,133.762 C46.0951055,133.817 46.1331055,133.94 46.0831055,134.036 C46.0321055,134.133 45.9121055,134.168 45.8151055,134.114 L45.8121055,134.112 Z M49.2491055,132.267 L49.2491055,132.267 C49.1981055,132.364 49.0791055,132.398 48.9821055,132.344 L45.8121055,130.573 L45.8121055,130.119 L49.1641055,131.993 C49.2621055,132.047 49.2991055,132.171 49.2491055,132.267 L49.2491055,132.267 Z" id="Fill-458" fill="#9FA2A1"></path><path d="M41.0151055,142.607 L39.5691055,141.799 C39.4721055,141.744 39.3521055,141.779 39.3021055,141.876 C39.2521055,141.972 39.2901055,142.095 39.3871055,142.149 L41.0151055,143.06 L41.0151055,142.607 Z M41.0151055,141.722 L41.0151055,142.175 L39.1071055,141.108 C39.0101055,141.054 38.9721055,140.931 39.0221055,140.834 C39.0721055,140.738 39.1921055,140.703 39.2891055,140.757 L41.0151055,141.722 Z M41.0151055,140.837 L39.1581055,139.799 C39.0601055,139.744 38.9401055,139.779 38.8901055,139.876 C38.8401055,139.972 38.8781055,140.096 38.9751055,140.15 L41.0151055,141.29 L41.0151055,140.837 Z M41.0151055,139.952 L41.0151055,140.405 L39.0101055,139.284 C38.9131055,139.23 38.8751055,139.107 38.9251055,139.01 C38.9751055,138.914 39.0961055,138.879 39.1921055,138.933 L41.0151055,139.952 Z M41.0151055,139.068 L39.2831055,138.099 C39.1861055,138.045 39.0661055,138.079 39.0151055,138.176 C38.9651055,138.273 39.0031055,138.396 39.1001055,138.45 L41.0151055,139.52 L41.0151055,139.068 Z M41.0151055,138.182 L41.0151055,138.635 L39.2501055,137.649 C39.1531055,137.595 39.1151055,137.472 39.1651055,137.375 C39.2161055,137.279 39.3361055,137.244 39.4331055,137.298 L41.0151055,138.182 Z M41.0151055,137.298 L39.6741055,136.548 C39.5771055,136.494 39.4571055,136.529 39.4071055,136.625 C39.3571055,136.722 39.3951055,136.845 39.4921055,136.899 L41.0151055,137.751 L41.0151055,137.298 Z M41.0151055,136.413 L41.0151055,136.866 L39.7911055,136.182 C39.6941055,136.128 39.6561055,136.004 39.7061055,135.908 C39.7571055,135.811 39.8771055,135.777 39.9731055,135.831 L41.0151055,136.413 Z M41.0151055,135.528 L40.3231055,135.141 C40.2261055,135.087 40.1061055,135.122 40.0561055,135.218 C40.0061055,135.315 40.0441055,135.438 40.1411055,135.492 L41.0151055,135.981 L41.0151055,135.528 Z M41.0151055,134.643 L41.0151055,135.096 L40.4911055,134.803 C40.3941055,134.749 40.3561055,134.626 40.4061055,134.529 C40.4561055,134.432 40.5771055,134.398 40.6731055,134.452 L41.0151055,134.643 Z M41.0151055,133.769 L41.0151055,134.211 L40.8881055,134.14 C40.7911055,134.086 40.7531055,133.963 40.8031055,133.866 L41.0151055,133.769 Z M42.5201055,143.447 L42.5201055,143.901 L41.0151055,143.06 L41.0151055,142.607 L42.5201055,143.447 Z M42.5201055,142.563 L41.0151055,141.722 L41.0151055,142.175 L42.4611055,142.983 L42.5201055,143.006 L42.5201055,142.563 Z M42.5201055,141.678 L42.5201055,142.027 L42.3291055,142.024 L41.0151055,141.29 L41.0151055,140.837 L42.5121055,141.674 L42.5201055,141.678 Z M42.5201055,140.793 L41.0151055,139.952 L41.0151055,140.405 L42.3641055,141.159 L42.5201055,141.176 L42.5201055,140.793 Z M42.5201055,139.908 L42.5201055,140.348 L42.4541055,140.324 L41.0151055,139.52 L41.0151055,139.068 L42.5201055,139.908 Z M42.5201055,139.023 L41.0151055,138.182 L41.0151055,138.635 L42.5201055,139.477 L42.5201055,139.023 Z M42.5201055,138.139 L42.5201055,138.592 L41.0151055,137.751 L41.0151055,137.298 L42.5201055,138.139 Z M42.5201055,137.254 L41.0151055,136.413 L41.0151055,136.866 L42.5201055,137.707 L42.5201055,137.254 Z M42.5201055,136.369 L42.5201055,136.822 L41.0151055,135.981 L41.0151055,135.528 L42.5201055,136.369 Z M42.5201055,135.484 L41.0151055,134.643 L41.0151055,135.096 L42.5201055,135.937 L42.5201055,135.484 Z M42.5201055,134.599 L42.5201055,135.052 L41.0151055,134.211 L41.0151055,133.769 L41.0701055,133.789 L42.5201055,134.599 Z M42.5201055,133.714 L41.5441055,133.169 C41.4471055,133.114 41.3271055,133.149 41.2761055,133.246 C41.2261055,133.343 41.2641055,133.466 41.3611055,133.52 L42.5201055,134.168 L42.5201055,133.714 Z M42.5201055,132.829 L42.5201055,133.282 L41.8661055,132.917 C41.7691055,132.863 41.7311055,132.74 41.7821055,132.643 C41.8321055,132.547 41.9521055,132.512 42.0491055,132.566 L42.5201055,132.829 Z M42.5201055,131.948 L42.5201055,132.398 L42.3681055,132.313 C42.2711055,132.259 42.2331055,132.135 42.2831055,132.039 C42.3281055,131.952 42.4301055,131.916 42.5201055,131.948 Z M42.5201055,136.822 L43.4941055,137.366 C43.5921055,137.421 43.7121055,137.386 43.7621055,137.289 C43.8121055,137.193 43.7741055,137.07 43.6771055,137.016 L42.5201055,136.369 L42.5201055,136.822 Z M42.5201055,137.707 L42.5201055,137.254 L43.3271055,137.705 C43.4251055,137.76 43.4621055,137.883 43.4121055,137.979 C43.3621055,138.076 43.2421055,138.11 43.1451055,138.056 L42.5201055,137.707 Z M42.5201055,138.592 L42.5201055,138.139 L43.0281055,138.423 C43.1251055,138.477 43.1631055,138.6 43.1131055,138.697 C43.0631055,138.793 42.9431055,138.828 42.8461055,138.774 L42.5201055,138.592 Z M42.5201055,139.477 L42.5201055,139.023 L42.7871055,139.173 C42.8841055,139.227 42.9221055,139.35 42.8711055,139.447 C42.8211055,139.544 42.7021055,139.578 42.6041055,139.524 L42.5201055,139.477 Z M42.5201055,140.348 L42.5201055,139.908 L42.6371055,139.974 C42.7341055,140.028 42.7721055,140.151 42.7221055,140.247 L42.5201055,140.348 Z M42.5201055,141.176 L42.5201055,140.793 L42.5471055,140.808 C42.6431055,140.862 42.6811055,140.985 42.6311055,141.082 L42.5201055,141.176 Z M42.5201055,142.027 L42.5201055,141.678 C42.6111055,141.735 42.6451055,141.853 42.5961055,141.947 L42.5201055,142.027 Z M42.5201055,143.006 L42.5201055,142.563 L42.6431055,142.632 C42.7411055,142.686 42.7781055,142.809 42.7281055,142.906 L42.5201055,143.006 Z M42.5201055,143.901 L42.5201055,143.447 L42.9231055,143.673 C43.0201055,143.727 43.0581055,143.85 43.0081055,143.947 C42.9581055,144.044 42.8371055,144.078 42.7411055,144.024 L42.5201055,143.901 Z M43.9331055,136.274 L43.9331055,136.704 L43.8451055,136.678 L42.5201055,135.937 L42.5201055,135.484 L43.9331055,136.274 Z M43.9331055,135.389 L42.5201055,134.599 L42.5201055,135.052 L43.9331055,135.843 L43.9331055,135.389 Z M43.9331055,134.504 L43.9331055,134.957 L42.5201055,134.168 L42.5201055,133.714 L43.9331055,134.504 Z M43.9331055,133.619 L42.5201055,132.829 L42.5201055,133.282 L43.9331055,134.072 L43.9331055,133.619 Z M43.9331055,132.735 L43.9331055,133.188 L42.5201055,132.398 L42.5201055,131.948 L42.5501055,131.962 L43.9331055,132.735 Z M43.9331055,131.85 L43.1511055,131.413 C43.0551055,131.359 42.9341055,131.393 42.8841055,131.49 C42.8341055,131.587 42.8721055,131.71 42.9691055,131.764 L43.9331055,132.303 L43.9331055,131.85 Z M43.9331055,130.965 L43.9331055,131.418 L43.6991055,131.287 C43.6011055,131.233 43.5631055,131.11 43.6141055,131.013 C43.6641055,130.916 43.7841055,130.882 43.8811055,130.936 L43.9331055,130.965 Z M43.9331055,135.843 L43.9331055,135.389 L44.4251055,135.663 C44.5211055,135.718 44.5591055,135.841 44.5091055,135.937 C44.4591055,136.034 44.3391055,136.069 44.2421055,136.014 L43.9331055,135.843 Z M43.9331055,136.704 L43.9331055,136.274 L44.0281055,136.327 C44.1251055,136.381 44.1621055,136.504 44.1121055,136.601 L43.9331055,136.704 Z M44.9341055,135.07 L44.8981055,135.043 L43.9331055,134.504 L43.9331055,134.957 L44.7151055,135.394 L44.9341055,135.377 L44.9341055,135.07 Z M44.9341055,134.179 L44.9341055,134.632 L43.9331055,134.072 L43.9331055,133.619 L44.9341055,134.179 Z M44.9341055,133.294 L43.9331055,132.735 L43.9331055,133.188 L44.9341055,133.747 L44.9341055,133.294 Z M44.9341055,132.409 L44.9341055,132.862 L43.9331055,132.303 L43.9331055,131.85 L44.9341055,132.409 Z M44.9341055,131.524 L43.9331055,130.965 L43.9331055,131.418 L44.9341055,131.977 L44.9341055,131.524 Z M44.9341055,130.639 L44.9341055,131.093 L44.4651055,130.83 C44.3681055,130.776 44.3301055,130.653 44.3811055,130.556 C44.4311055,130.46 44.5511055,130.425 44.6481055,130.479 L44.9341055,130.639 Z M44.9341055,134.632 L45.2211055,134.792 C45.3171055,134.846 45.4371055,134.811 45.4871055,134.715 C45.5381055,134.618 45.5001055,134.495 45.4031055,134.441 L44.9341055,134.179 L44.9341055,134.632 Z M44.9341055,135.377 L44.9341055,135.07 L44.9831055,135.317 L44.9341055,135.377 Z M45.7191055,133.732 L45.7191055,134.185 L44.9341055,133.747 L44.9341055,133.294 L45.7191055,133.732 Z M45.7191055,132.847 L44.9341055,132.409 L44.9341055,132.862 L45.7191055,133.301 L45.7191055,132.847 Z M45.7191055,131.963 L45.7191055,132.416 L44.9341055,131.977 L44.9341055,131.524 L45.7191055,131.963 Z M45.7191055,131.078 L44.9341055,130.639 L44.9341055,131.093 L45.7191055,131.531 L45.7191055,131.078 Z M45.7191055,130.646 L45.5341055,130.543 C45.4371055,130.489 45.3991055,130.366 45.4491055,130.269 C45.4991055,130.173 45.6201055,130.138 45.7171055,130.192 L45.7191055,130.193 L45.7191055,130.646 Z M45.7191055,131.531 L47.8191055,132.705 C47.9161055,132.76 48.0361055,132.725 48.0871055,132.628 C48.1371055,132.531 48.0981055,132.408 48.0021055,132.354 L45.7191055,131.078 L45.7191055,131.531 Z M45.7191055,132.416 L47.0531055,133.161 C47.1491055,133.216 47.2691055,133.181 47.3201055,133.084 C47.3701055,132.988 47.3321055,132.864 47.2351055,132.81 L45.7191055,131.963 L45.7191055,132.416 Z M45.7191055,133.301 L45.7191055,132.847 L46.5061055,133.287 C46.6021055,133.342 46.6401055,133.465 46.5911055,133.561 C46.5401055,133.658 46.4201055,133.693 46.3231055,133.639 L45.7191055,133.301 Z M45.7191055,134.185 L45.7191055,133.732 L45.9041055,133.836 C46.0021055,133.89 46.0391055,134.013 45.9891055,134.11 C45.9381055,134.207 45.8181055,134.241 45.7221055,134.187 L45.7191055,134.185 Z M49.1551055,132.341 L49.1551055,132.341 C49.1051055,132.437 48.9851055,132.472 48.8891055,132.418 L45.7191055,130.646 L45.7191055,130.193 L49.0711055,132.067 C49.1681055,132.121 49.2061055,132.244 49.1551055,132.341 L49.1551055,132.341 Z" id="Fill-459" fill="#3A3A39"></path><path d="M51.1151055,139.905 C52.4451055,136.849 51.9761055,133.912 50.0681055,133.343 L50.0131055,133.327 C51.6351055,134.128 51.9701055,136.89 50.7221055,139.757 C49.4041055,142.781 46.8141055,144.786 44.9121055,144.272 C45.0191055,144.325 45.1321055,144.369 45.2501055,144.405 C47.1571055,144.973 49.7841055,142.958 51.1151055,139.905" id="Fill-460" fill="#8B8E8D"></path><path d="M8.48010554,146.022 C5.67510554,148.312 4.66710554,151.385 6.22810554,152.883 C7.78910554,154.382 11.3291055,153.739 14.1341055,151.449 C16.9371055,149.16 17.9451055,146.088 16.3841055,144.589 C14.8231055,143.091 11.2831055,143.733 8.48010554,146.022" id="Fill-461" fill="#627636"></path><path d="M7.65810554,144.886 C5.37410554,146.872 4.57510554,149.491 5.87210554,150.735 C7.16910554,151.98 10.0741055,151.378 12.3571055,149.392 C14.6391055,147.407 15.4391055,144.788 14.1421055,143.543 C12.8441055,142.299 9.94010554,142.901 7.65810554,144.886" id="Fill-462" fill="#B94C2C"></path><path d="M13.3651055,142.672 L15.1011055,145.289 L15.1001055,145.29 C16.0491055,146.547 15.2141055,148.819 13.1091055,150.538 C10.8731055,152.363 8.05110554,152.875 6.80610554,151.68 C6.69310554,151.572 6.59710554,151.453 6.51810554,151.326 L4.75110554,148.663 C6.08110554,149.717 8.83010554,149.168 11.0251055,147.376 C12.8471055,145.888 13.7341055,143.992 13.3651055,142.672" id="Fill-463" fill="#9E352A"></path><path d="M6.43710554,142.972 C4.16010554,144.83 3.34210554,147.323 4.60910554,148.539 C5.87610554,149.756 8.74910554,149.235 11.0251055,147.376 C13.3011055,145.518 14.1181055,143.025 12.8511055,141.809 C11.5851055,140.593 8.71210554,141.114 6.43710554,142.972" id="Fill-464" fill="#471F18"></path><path d="M6.91010554,143.426 C5.10410554,144.901 4.45510554,146.88 5.46110554,147.844 C6.46610554,148.809 8.74510554,148.396 10.5511055,146.922 C12.3571055,145.447 13.0061055,143.468 12.0001055,142.504 C10.9951055,141.539 8.71610554,141.952 6.91010554,143.426" id="Fill-465" fill="#742821"></path><path d="M6.91010554,143.426 C6.26210554,143.956 5.76310554,144.551 5.43510554,145.139 L7.54810554,148.322 C8.50910554,148.183 9.59710554,147.701 10.5511055,146.922 C11.2061055,146.387 11.7081055,145.785 12.0351055,145.19 L9.93310554,142.022 C8.96710554,142.157 7.87210554,142.641 6.91010554,143.426" id="Fill-466" fill="#9E352A"></path><path d="M6.02010554,142.477 C3.50210554,144.533 2.59710554,147.292 3.99810554,148.637 C5.40010554,149.983 8.57910554,149.406 11.0971055,147.35 C13.6141055,145.295 14.5191055,142.536 13.1171055,141.191 C11.7161055,139.845 8.53710554,140.422 6.02010554,142.477" id="Fill-467" fill="#515251"></path><path d="M13.6351055,141.972 L15.5751055,144.895 L15.5731055,144.896 C16.6321055,146.3 15.7001055,148.837 13.3491055,150.756 C10.8531055,152.795 7.70110554,153.366 6.31110554,152.032 C6.18510554,151.911 6.07810554,151.778 5.99010554,151.636 L4.01610554,148.663 C5.50210554,149.839 8.57210554,149.227 11.0231055,147.225 C13.0581055,145.564 14.0481055,143.447 13.6351055,141.972" id="Fill-468" fill="#3A3A39"></path><path d="M6.66010554,150.46 L5.98810554,149.447 L5.76010554,149.403 L5.71810554,149.638 L6.66010554,151.057 L6.66010554,150.46 Z M6.66010554,149.343 L6.50310554,149.357 L6.46110554,149.593 L6.66010554,149.893 L6.66010554,149.343 Z M4.85710554,149.208 L4.85710554,149.208 L5.08510554,149.253 L6.66010554,151.626 L6.66010554,152.176 L6.58810554,152.114 L4.81510554,149.444 L4.85710554,149.208 Z M7.47310554,151.685 L6.66010554,150.46 L6.66010554,151.057 L7.47310554,152.282 L7.47310554,151.685 Z M7.47310554,150.521 L6.73010554,149.402 L6.66010554,149.343 L6.66010554,149.893 L7.47310554,151.117 L7.47310554,150.521 Z M7.47310554,149.356 L7.47310554,149.952 L7.18410554,149.517 L7.22610554,149.281 L7.45310554,149.326 L7.47310554,149.356 Z M6.66010554,151.626 L6.85810554,151.924 L6.81610554,152.159 L6.66010554,152.176 L6.66010554,151.626 Z M7.47310554,152.282 L7.47310554,151.685 L7.76010554,152.118 L7.71910554,152.354 L7.49110554,152.309 L7.47310554,152.282 Z M8.47310554,152.029 L7.47310554,150.521 L7.47310554,151.117 L8.23310554,152.263 L8.46110554,152.308 L8.47310554,152.299 L8.47310554,152.029 Z M8.47310554,150.863 L8.47310554,151.46 L7.47310554,149.952 L7.47310554,149.356 L8.47310554,150.863 Z M8.47310554,149.697 L8.10910554,149.149 L7.88210554,149.104 L7.84010554,149.339 L8.47310554,150.294 L8.47310554,149.697 Z M8.47310554,148.857 L8.47310554,149.129 L8.44210554,149.082 L8.47310554,148.857 Z M8.47310554,152.299 L8.47310554,152.029 L8.50310554,152.072 L8.47310554,152.299 Z M9.13710554,151.863 L8.47310554,150.863 L8.47310554,151.46 L8.95710554,152.188 L9.13710554,152.257 L9.13710554,151.863 Z M9.13710554,150.697 L9.13710554,151.294 L8.47310554,150.294 L8.47310554,149.697 L9.13710554,150.697 Z M9.13710554,149.533 L8.71210554,148.892 L8.48410554,148.847 L8.47310554,148.857 L8.47310554,149.129 L9.13710554,150.129 L9.13710554,149.533 Z M9.13710554,148.571 L9.13710554,148.965 L9.04710554,148.828 L9.08810554,148.593 L9.13710554,148.571 Z M9.13710554,152.257 L9.13710554,151.863 L9.22610554,151.997 L9.18410554,152.233 L9.13710554,152.257 Z M9.75910554,151.634 L9.13710554,150.697 L9.13710554,151.294 L9.61210554,152.01 L9.75910554,152.085 L9.75910554,151.634 Z M9.75910554,150.469 L9.75910554,151.066 L9.13710554,150.129 L9.13710554,149.533 L9.75910554,150.469 Z M9.75910554,149.303 L9.31710554,148.637 L9.13710554,148.571 L9.13710554,148.965 L9.75910554,149.901 L9.75910554,149.303 Z M9.75910554,148.285 L9.75910554,148.736 L9.63510554,148.549 L9.67710554,148.313 L9.75910554,148.285 Z M9.75910554,152.085 L9.75910554,151.634 L9.88210554,151.819 L9.84010554,152.055 L9.75910554,152.085 Z M10.3341055,151.336 L9.75910554,150.469 L9.75910554,151.066 L10.2151055,151.753 L10.3341055,151.827 L10.3341055,151.336 Z M10.3341055,150.17 L10.3341055,150.768 L9.75910554,149.901 L9.75910554,149.303 L10.3341055,150.17 Z M10.3341055,149.006 L9.90410554,148.358 L9.75910554,148.285 L9.75910554,148.736 L10.3341055,149.602 L10.3341055,149.006 Z M10.3341055,147.945 L10.3341055,148.437 L10.1821055,148.208 L10.2241055,147.973 L10.3341055,147.945 Z M10.3341055,151.827 L10.3341055,151.336 L10.4841055,151.562 L10.4431055,151.798 L10.3341055,151.827 Z M10.8981055,151.02 L10.3341055,150.17 L10.3341055,150.768 L10.8201055,151.499 L10.8981055,151.563 L10.8981055,151.02 Z M10.8981055,149.855 L10.8981055,150.451 L10.3341055,149.602 L10.3341055,149.006 L10.8981055,149.855 Z M10.8981055,148.69 L10.4521055,148.017 L10.3341055,147.945 L10.3341055,148.437 L10.8981055,149.286 L10.8981055,148.69 Z M10.8981055,147.578 L10.8981055,148.121 L10.7051055,147.831 L10.7471055,147.595 L10.8981055,147.578 Z M10.8981055,151.563 L10.8981055,151.02 L11.0891055,151.308 L11.0471055,151.544 L10.8981055,151.563 Z M11.7011055,151.082 L11.6771055,151.029 L10.8981055,149.855 L10.8981055,150.451 L11.4081055,151.219 L11.6351055,151.264 L11.7011055,151.17 L11.7011055,151.082 Z M11.7011055,149.9 L11.7011055,150.497 L10.8981055,149.286 L10.8981055,148.69 L11.7011055,149.9 Z M11.7011055,148.735 L10.9741055,147.64 L10.8981055,147.578 L10.8981055,148.121 L11.7011055,149.331 L11.7011055,148.735 Z M11.7011055,147.57 L11.7011055,148.166 L11.2271055,147.453 L11.2691055,147.218 L11.4971055,147.261 L11.7011055,147.57 Z M12.2071055,150.663 L11.7011055,149.9 L11.7011055,150.497 L11.9551055,150.879 L12.1821055,150.924 L12.2071055,150.903 L12.2071055,150.663 Z M12.2071055,149.497 L12.2071055,150.093 L11.7011055,149.331 L11.7011055,148.735 L12.2071055,149.497 Z M12.2071055,148.332 L11.7011055,147.57 L11.7011055,148.166 L12.2071055,148.929 L12.2071055,148.332 Z M12.2071055,147.167 L12.2071055,147.764 L11.7231055,147.034 L11.7011055,146.983 L11.7011055,146.897 L11.7651055,146.799 L11.9931055,146.844 L12.2071055,147.167 Z M12.2071055,146.356 L12.2071055,146.599 L12.1891055,146.571 L12.2071055,146.356 Z M12.2071055,150.903 L12.2071055,150.663 L12.2241055,150.688 L12.2071055,150.903 Z M12.6781055,150.205 L12.2071055,149.497 L12.2071055,150.093 L12.4781055,150.501 L12.6781055,150.563 L12.6781055,150.205 Z M12.6781055,149.041 L12.6781055,149.637 L12.2071055,148.929 L12.2071055,148.332 L12.6781055,149.041 Z M12.6781055,147.875 L12.2071055,147.167 L12.2071055,147.764 L12.6781055,148.472 L12.6781055,147.875 Z M12.6781055,146.71 L12.6781055,147.307 L12.2071055,146.599 L12.2071055,146.356 L12.2301055,146.335 L12.4581055,146.38 L12.6781055,146.71 Z M12.6781055,145.782 L12.6781055,146.141 L12.6061055,146.033 L12.6471055,145.798 L12.6781055,145.782 Z M12.6781055,150.563 L12.6781055,150.205 L12.7471055,150.311 L12.7051055,150.546 L12.6781055,150.563 Z M13.1311055,149.724 L12.6781055,149.041 L12.6781055,149.637 L13.0001055,150.123 L13.1311055,150.198 L13.1311055,149.724 Z M13.1311055,148.558 L13.1311055,149.156 L12.6781055,148.472 L12.6781055,147.875 L13.1311055,148.558 Z M13.1311055,147.393 L12.6781055,146.71 L12.6781055,147.307 L13.1311055,147.99 L13.1311055,147.393 Z M13.1311055,146.228 L13.1311055,146.825 L12.6781055,146.141 L12.6781055,145.782 L12.8751055,145.843 L13.1311055,146.228 Z M13.1311055,145.186 L13.1311055,145.66 L12.9911055,145.449 L13.0331055,145.214 L13.1311055,145.186 Z M13.1311055,150.198 L13.2281055,150.168 L13.2691055,149.933 L13.1311055,149.724 L13.1311055,150.198 Z M13.6911055,149.402 L13.6911055,149.77 L13.4961055,149.706 L13.1311055,149.156 L13.1311055,148.558 L13.6911055,149.402 Z M13.6911055,148.237 L13.1311055,147.393 L13.1311055,147.99 L13.6911055,148.834 L13.6911055,148.237 Z M13.6911055,147.072 L13.6911055,147.669 L13.1311055,146.825 L13.1311055,146.228 L13.6911055,147.072 Z M13.6911055,145.907 L13.2611055,145.259 L13.1311055,145.186 L13.1311055,145.66 L13.6911055,146.504 L13.6911055,145.907 Z M13.6911055,144.742 L13.6911055,145.339 L13.3471055,144.821 L13.3891055,144.585 L13.6171055,144.63 L13.6911055,144.742 Z M13.6911055,143.806 L13.6911055,144.174 L13.6161055,144.059 L13.6571055,143.823 L13.6911055,143.806 Z M13.6911055,149.77 L13.6911055,149.402 L13.7651055,149.514 L13.7241055,149.75 L13.6911055,149.77 Z M14.2271055,149.045 L13.6911055,148.237 L13.6911055,148.834 L13.9611055,149.241 L14.1891055,149.286 L14.2271055,149.25 L14.2271055,149.045 Z M14.2271055,147.88 L14.2271055,148.477 L13.6911055,147.669 L13.6911055,147.072 L14.2271055,147.88 Z M14.2271055,146.715 L13.6911055,145.907 L13.6911055,146.504 L14.2271055,147.312 L14.2271055,146.715 Z M14.2271055,145.551 L14.2271055,146.147 L13.6911055,145.339 L13.6911055,144.742 L14.2271055,145.551 Z M14.2271055,144.385 L13.8851055,143.868 L13.6911055,143.806 L13.6911055,144.174 L14.2271055,144.981 L14.2271055,144.385 Z M14.2271055,143.219 L14.2271055,143.816 L13.8061055,143.18 L13.8471055,142.945 L14.0751055,142.989 L14.2271055,143.219 Z M14.2271055,148.477 L14.2271055,147.88 L14.6481055,148.513 L14.6061055,148.749 L14.3781055,148.705 L14.2271055,148.477 Z M14.2271055,149.25 L14.2271055,149.045 L14.2311055,149.051 L14.2271055,149.25 Z M14.7321055,147.475 L14.2271055,146.715 L14.2271055,147.312 L14.7321055,148.072 L14.7321055,147.475 Z M14.7321055,146.311 L14.7321055,146.907 L14.2271055,146.147 L14.2271055,145.551 L14.7321055,146.311 Z M14.7321055,145.145 L14.2271055,144.385 L14.2271055,144.981 L14.7321055,145.742 L14.7321055,145.145 Z M14.7321055,143.98 L14.7321055,144.577 L14.2271055,143.816 L14.2271055,143.219 L14.7321055,143.98 Z M14.7321055,144.577 L15.5781055,145.851 L15.8061055,145.896 L15.8471055,145.66 L14.7321055,143.98 L14.7321055,144.577 Z M14.7321055,145.742 L14.7321055,145.145 L15.6581055,146.54 L15.6161055,146.775 L15.3881055,146.73 L14.7321055,145.742 Z M14.7321055,146.907 L15.1201055,147.491 L15.3471055,147.536 L15.3891055,147.301 L14.7321055,146.311 L14.7321055,146.907 Z M14.7321055,148.072 L14.7321055,147.475 L15.0341055,147.929 L14.9921055,148.165 L14.7641055,148.12 L14.7321055,148.072 L14.7321055,148.072 Z" id="Fill-469" fill="#9FA2A1"></path><path d="M6.75710554,150.442 L6.08510554,149.429 L5.85710554,149.384 L5.81610554,149.619 L6.75710554,151.038 L6.75710554,150.442 Z M6.75710554,149.324 L6.60010554,149.338 L6.55810554,149.573 L6.75710554,149.873 L6.75710554,149.324 Z M4.95510554,149.189 L4.95510554,149.189 L5.18210554,149.234 L6.75710554,151.607 L6.75710554,152.156 L6.68610554,152.095 L4.91310554,149.425 L4.95510554,149.189 Z M7.57110554,151.667 L6.75710554,150.442 L6.75710554,151.038 L7.57110554,152.263 L7.57110554,151.667 Z M7.57110554,150.501 L6.82810554,149.383 L6.75710554,149.324 L6.75710554,149.873 L7.57110554,151.098 L7.57110554,150.501 Z M7.57110554,149.336 L7.57110554,149.933 L7.28210554,149.498 L7.32310554,149.262 L7.55210554,149.307 L7.57110554,149.336 Z M6.75710554,151.607 L6.95510554,151.905 L6.91310554,152.14 L6.75710554,152.156 L6.75710554,151.607 Z M7.57110554,152.263 L7.57110554,151.667 L7.85810554,152.099 L7.81610554,152.335 L7.58810554,152.29 L7.57110554,152.263 Z M8.57110554,152.009 L7.57110554,150.501 L7.57110554,151.098 L8.33110554,152.244 L8.55910554,152.289 L8.57110554,152.28 L8.57110554,152.009 Z M8.57110554,150.843 L8.57110554,151.441 L7.57110554,149.933 L7.57110554,149.336 L8.57110554,150.843 Z M8.57110554,149.679 L8.20610554,149.13 L7.97910554,149.085 L7.93710554,149.321 L8.57110554,150.275 L8.57110554,149.679 Z M8.57110554,148.838 L8.57110554,149.111 L8.54010554,149.064 L8.57110554,148.838 Z M8.57110554,152.28 L8.57110554,152.009 L8.60010554,152.053 L8.57110554,152.28 Z M9.23510554,151.844 L8.57110554,150.843 L8.57110554,151.441 L9.05410554,152.169 L9.23510554,152.238 L9.23510554,151.844 Z M9.23510554,150.679 L9.23510554,151.276 L8.57110554,150.275 L8.57110554,149.679 L9.23510554,150.679 Z M9.23510554,149.514 L8.80910554,148.873 L8.58110554,148.828 L8.57110554,148.838 L8.57110554,149.111 L9.23510554,150.111 L9.23510554,149.514 Z M9.23510554,148.551 L9.23510554,148.946 L9.14510554,148.809 L9.18610554,148.573 L9.23510554,148.551 Z M9.23510554,152.238 L9.23510554,151.844 L9.32410554,151.978 L9.28210554,152.214 L9.23510554,152.238 Z M9.85710554,151.616 L9.23510554,150.679 L9.23510554,151.276 L9.71010554,151.991 L9.85710554,152.066 L9.85710554,151.616 Z M9.85710554,150.451 L9.85710554,151.048 L9.23510554,150.111 L9.23510554,149.514 L9.85710554,150.451 Z M9.85710554,149.285 L9.41410554,148.618 L9.23510554,148.551 L9.23510554,148.946 L9.85710554,149.882 L9.85710554,149.285 Z M9.85710554,148.266 L9.85710554,148.717 L9.73210554,148.53 L9.77410554,148.294 L9.85710554,148.266 Z M9.85710554,152.066 L9.85710554,151.616 L9.97910554,151.801 L9.93710554,152.036 L9.85710554,152.066 Z M10.4311055,151.317 L9.85710554,150.451 L9.85710554,151.048 L10.3121055,151.734 L10.4311055,151.808 L10.4311055,151.317 Z M10.4311055,150.152 L10.4311055,150.748 L9.85710554,149.882 L9.85710554,149.285 L10.4311055,150.152 Z M10.4311055,148.987 L10.0021055,148.339 L9.85710554,148.266 L9.85710554,148.717 L10.4311055,149.583 L10.4311055,148.987 Z M10.4311055,147.926 L10.4311055,148.419 L10.2801055,148.189 L10.3211055,147.954 L10.4311055,147.926 Z M10.4311055,151.808 L10.4311055,151.317 L10.5821055,151.544 L10.5401055,151.779 L10.4311055,151.808 Z M10.9951055,151.002 L10.4311055,150.152 L10.4311055,150.748 L10.9171055,151.48 L10.9951055,151.544 L10.9951055,151.002 Z M10.9951055,149.837 L10.9951055,150.433 L10.4311055,149.583 L10.4311055,148.987 L10.9951055,149.837 Z M10.9951055,148.671 L10.5491055,147.998 L10.4311055,147.926 L10.4311055,148.419 L10.9951055,149.268 L10.9951055,148.671 Z M10.9951055,147.559 L10.9951055,148.103 L10.8031055,147.812 L10.8451055,147.576 L10.9951055,147.559 Z M10.9951055,151.544 L10.9951055,151.002 L11.1861055,151.289 L11.1451055,151.525 L10.9951055,151.544 Z M11.7991055,151.063 L11.7741055,151.01 L10.9951055,149.837 L10.9951055,150.433 L11.5051055,151.2 L11.7331055,151.245 L11.7991055,151.152 L11.7991055,151.063 Z M11.7991055,149.881 L11.7991055,150.478 L10.9951055,149.268 L10.9951055,148.671 L11.7991055,149.881 Z M11.7991055,148.716 L11.0721055,147.621 L10.9951055,147.559 L10.9951055,148.103 L11.7991055,149.312 L11.7991055,148.716 Z M11.7991055,147.55 L11.7991055,148.147 L11.3251055,147.433 L11.3671055,147.198 L11.5951055,147.243 L11.7991055,147.55 Z M12.3051055,150.644 L11.7991055,149.881 L11.7991055,150.478 L12.0521055,150.86 L12.2801055,150.905 L12.3051055,150.885 L12.3051055,150.644 Z M12.3051055,149.479 L12.3051055,150.075 L11.7991055,149.312 L11.7991055,148.716 L12.3051055,149.479 Z M12.3051055,148.313 L11.7991055,147.55 L11.7991055,148.147 L12.3051055,148.91 L12.3051055,148.313 Z M12.3051055,147.148 L12.3051055,147.744 L11.8211055,147.016 L11.7991055,146.964 L11.7991055,146.879 L11.8631055,146.78 L12.0911055,146.825 L12.3051055,147.148 Z M12.3051055,146.338 L12.3051055,146.58 L12.2861055,146.551 L12.3051055,146.338 Z M12.3051055,150.885 L12.3051055,150.644 L12.3221055,150.669 L12.3051055,150.885 Z M12.7751055,150.187 L12.3051055,149.479 L12.3051055,150.075 L12.5751055,150.483 L12.7751055,150.544 L12.7751055,150.187 Z M12.7751055,149.021 L12.7751055,149.618 L12.3051055,148.91 L12.3051055,148.313 L12.7751055,149.021 Z M12.7751055,147.857 L12.3051055,147.148 L12.3051055,147.744 L12.7751055,148.453 L12.7751055,147.857 Z M12.7751055,146.691 L12.7751055,147.288 L12.3051055,146.58 L12.3051055,146.338 L12.3281055,146.316 L12.5561055,146.361 L12.7751055,146.691 Z M12.7751055,145.763 L12.7751055,146.122 L12.7031055,146.015 L12.7451055,145.78 L12.7751055,145.763 Z M12.7751055,150.544 L12.7751055,150.187 L12.8451055,150.292 L12.8031055,150.528 L12.7751055,150.544 Z M13.2291055,149.705 L12.7751055,149.021 L12.7751055,149.618 L13.0971055,150.105 L13.2291055,150.179 L13.2291055,149.705 Z M13.2291055,148.541 L13.2291055,149.137 L12.7751055,148.453 L12.7751055,147.857 L13.2291055,148.541 Z M13.2291055,147.375 L12.7751055,146.691 L12.7751055,147.288 L13.2291055,147.972 L13.2291055,147.375 Z M13.2291055,146.21 L13.2291055,146.806 L12.7751055,146.122 L12.7751055,145.763 L12.9731055,145.824 L13.2291055,146.21 Z M13.2291055,145.167 L13.2291055,145.641 L13.0891055,145.43 L13.1301055,145.195 L13.2291055,145.167 Z M13.2291055,150.179 L13.3261055,150.149 L13.3671055,149.914 L13.2291055,149.705 L13.2291055,150.179 Z M13.7891055,149.385 L13.7891055,149.751 L13.5941055,149.686 L13.2291055,149.137 L13.2291055,148.541 L13.7891055,149.385 Z M13.7891055,148.219 L13.2291055,147.375 L13.2291055,147.972 L13.7891055,148.816 L13.7891055,148.219 Z M13.7891055,147.054 L13.7891055,147.65 L13.2291055,146.806 L13.2291055,146.21 L13.7891055,147.054 Z M13.7891055,145.889 L13.3581055,145.239 L13.2291055,145.167 L13.2291055,145.641 L13.7891055,146.486 L13.7891055,145.889 Z M13.7891055,144.723 L13.7891055,145.321 L13.4451055,144.802 L13.4871055,144.566 L13.7151055,144.611 L13.7891055,144.723 Z M13.7891055,143.788 L13.7891055,144.155 L13.7131055,144.04 L13.7551055,143.805 L13.7891055,143.788 Z M13.7891055,149.751 L13.7891055,149.385 L13.8631055,149.496 L13.8211055,149.731 L13.7891055,149.751 Z M14.3251055,149.026 L13.7891055,148.219 L13.7891055,148.816 L14.0591055,149.222 L14.2861055,149.267 L14.3251055,149.231 L14.3251055,149.026 Z M14.3251055,147.861 L14.3251055,148.457 L13.7891055,147.65 L13.7891055,147.054 L14.3251055,147.861 Z M14.3251055,146.696 L13.7891055,145.889 L13.7891055,146.486 L14.3251055,147.293 L14.3251055,146.696 Z M14.3251055,145.531 L14.3251055,146.128 L13.7891055,145.321 L13.7891055,144.723 L14.3251055,145.531 Z M14.3251055,144.366 L13.9821055,143.85 L13.7891055,143.788 L13.7891055,144.155 L14.3251055,144.963 L14.3251055,144.366 Z M14.3251055,143.201 L14.3251055,143.797 L13.9031055,143.161 L13.9451055,142.926 L14.1721055,142.97 L14.3251055,143.201 Z M14.3251055,148.457 L14.3251055,147.861 L14.7451055,148.495 L14.7031055,148.73 L14.4761055,148.685 L14.3251055,148.457 Z M14.3251055,149.231 L14.3251055,149.026 L14.3281055,149.031 L14.3251055,149.231 Z M14.8291055,147.456 L14.3251055,146.696 L14.3251055,147.293 L14.8291055,148.053 L14.8291055,147.456 Z M14.8291055,146.291 L14.8291055,146.888 L14.3251055,146.128 L14.3251055,145.531 L14.8291055,146.291 Z M14.8291055,145.126 L14.3251055,144.366 L14.3251055,144.963 L14.8291055,145.723 L14.8291055,145.126 Z M14.8291055,143.961 L14.8291055,144.558 L14.3251055,143.797 L14.3251055,143.201 L14.8291055,143.961 Z M14.8291055,144.558 L15.6751055,145.832 L15.9031055,145.877 L15.9451055,145.641 L14.8291055,143.961 L14.8291055,144.558 Z M14.8291055,145.723 L14.8291055,145.126 L15.7551055,146.52 L15.7131055,146.756 L15.4861055,146.711 L14.8291055,145.723 Z M14.8291055,146.888 L15.2171055,147.472 L15.4461055,147.517 L15.4871055,147.282 L14.8291055,146.291 L14.8291055,146.888 Z M14.8291055,148.053 L14.8291055,147.456 L15.1311055,147.91 L15.0891055,148.146 L14.8611055,148.101 L14.8291055,148.053 L14.8291055,148.053 Z" id="Fill-470" fill="#515251"></path><path d="M6.38810554,142.831 C4.23510554,144.589 3.46210554,146.947 4.66010554,148.098 L4.69610554,148.13 C3.79810554,146.917 4.60310554,144.74 6.62310554,143.09 C8.75510554,141.349 11.4411055,140.85 12.6561055,141.958 L12.4561055,141.731 C11.2581055,140.581 8.54010554,141.073 6.38810554,142.831" id="Fill-471" fill="#3A3A39"></path><path d="M31.6381055,98.494 C32.7361055,103.53 28.5141055,106.185 27.7671055,109.349 C26.7221055,113.767 29.1031055,116.305 32.2251055,116.269 C36.6501055,116.217 36.9901055,110.315 35.9451055,107.261 C35.6521055,106.406 33.0051055,100.12 31.6381055,98.494" id="Fill-472" fill="#E6792B"></path><path d="M32.2901055,103.673 C32.3551055,107.937 29.5531055,108.476 28.9631055,110.967 C28.1421055,114.443 29.6461055,116.087 32.1031055,116.058 C35.5841055,116.016 35.8511055,111.372 35.0301055,108.969 C34.8001055,108.295 33.3671055,104.953 32.2901055,103.673" id="Fill-473" fill="#FAEC32"></path><path d="M32.4171055,106.95 C32.4541055,109.628 30.4411055,110.939 30.0721055,112.504 C29.5561055,114.687 30.5001055,115.72 32.0441055,115.701 C35.5951055,115.657 33.6541055,108.42 32.4171055,106.95" id="Fill-474" fill="#FFFFFE"></path><path d="M55.8231055,84.677 C57.1691055,85.975 58.2291055,87.377 58.9821055,88.845 C59.8701055,90.578 60.3311055,92.394 60.3311055,94.231 C60.3311055,99.14 57.1481055,103.552 52.0041055,106.716 C46.9841055,109.803 40.0661055,111.713 32.4421055,111.713 C24.8181055,111.713 17.9001055,109.803 12.8811055,106.716 C7.73710554,103.552 4.55410554,99.14 4.55410554,94.231 C4.55410554,92.658 4.89110554,91.097 5.54910554,89.588 C6.05910554,88.415 6.76510554,87.276 7.65410554,86.193 L7.65410554,89.194 C7.45310554,89.549 7.27310554,89.909 7.11610554,90.271 C6.55610554,91.556 6.26810554,92.888 6.26810554,94.231 C6.26810554,98.502 9.13810554,102.403 13.7781055,105.256 C18.5421055,108.186 25.1401055,109.999 32.4421055,109.999 C39.7441055,109.999 46.3431055,108.186 51.1061055,105.256 C55.7471055,102.403 58.6161055,98.502 58.6161055,94.231 C58.6161055,92.66 58.2221055,91.105 57.4621055,89.622 C57.0321055,88.782 56.4841055,87.963 55.8231055,87.174 L55.8231055,84.677" id="Fill-475" fill="#8B8E8D"></path><path d="M11.9121055,58.545 C11.4601055,58.545 11.0941055,58.179 11.0931055,57.727 C11.0761055,49.978 11.0691055,42.022 11.0611055,34.067 C11.0541055,26.112 11.0471055,18.156 11.0300923,10.408 C11.0251055,7.721 12.4371055,5.358 14.9071055,3.922 C17.7081055,2.294 21.2311055,2.218 23.8821055,3.735 C24.2751055,3.96 24.4111055,4.46 24.1871055,4.853 C23.9621055,5.246 23.4601055,5.383 23.0681055,5.158 C20.9151055,3.927 18.0361055,3.999 15.7311055,5.339 C13.7811055,6.473 12.6651055,8.319 12.6701055,10.405 C12.6861055,18.154 12.6941055,26.109 12.7011055,34.065 C12.7081055,42.02 12.7151055,49.975 12.7321055,57.723 C12.7331055,58.177 12.3671055,58.544 11.9141055,58.545 L11.9121055,58.545" id="Fill-476" fill="#8B8E8D"></path><path d="M11.2741055,52.9 L52.7721055,52.9 L52.7721055,57.848 L52.7651055,57.848 C53.1411055,63.959 45.4201055,69.284 34.7221055,70.009 C23.3591055,70.779 12.9361055,66.07 11.4471055,59.492 C11.3121055,58.896 11.2571055,58.304 11.2741055,57.722 L11.2741055,52.9" id="Fill-477" fill="#4E5F2E"></path><path d="M29.3291055,40.482 C17.9661055,41.253 9.95810554,47.211 11.4471055,53.788 C12.9351055,60.366 23.3571055,65.075 34.7221055,64.305 C46.0831055,63.535 54.0911055,57.577 52.6011055,50.999 C51.1131055,44.422 40.6911055,39.713 29.3291055,40.482" id="Fill-478" fill="#718E3D"></path><path d="M12.1641055,51.136 C12.0441055,51.918 12.0711055,52.72 12.2611055,53.532 C13.6911055,59.621 23.7011055,63.981 34.6151055,63.269 C45.2211055,62.575 52.7821055,57.344 51.8841055,51.459 C51.1051055,56.539 44.0711055,60.764 34.6151055,61.382 C23.7011055,62.095 13.6911055,57.735 12.2611055,51.646 C12.2221055,51.476 12.1901055,51.306 12.1641055,51.136" id="Fill-479" fill="#C8CC97"></path><path d="M31.3331055,46.289 C28.4211055,46.487 26.3701055,48.013 26.7511055,49.698 C27.1331055,51.384 29.8031055,52.591 32.7151055,52.394 C35.6271055,52.196 37.6781055,50.67 37.2971055,48.984 C36.9151055,47.299 34.2451055,46.092 31.3331055,46.289" id="Fill-480" fill="#797C7A"></path><g id="Group-485" transform="translate(20.014106, 0.000000)"><mask id="mask-2" fill="white"><use xlink:href="#path-1"></use></mask><g id="Clip-482"></g><path d="M11.444,46.043 C9.057,46.205 7.375,47.457 7.687,48.839 C8,50.22 10.189,51.21 12.577,51.048 C14.963,50.887 16.646,49.634 16.333,48.252 C16.02,46.871 13.831,45.882 11.444,46.043" id="Fill-481" fill="#E5E6E3" mask="url(#mask-2)"></path><path d="M1.527,7.826 C0.942,7.491 0.665,7.103 0.592,6.668 C0.333,5.872 0.429,4.748 0.929,3.599 C1.686,1.865 3.098,0.663 4.253,0.697 C4.57,0.695 4.942,0.807 5.395,1.067 L28.343,14.183 C30.209,15.251 29.59,17.016 28.523,18.883 C27.456,20.75 26.342,22.01 24.476,20.943 L1.527,7.826" id="Fill-483" fill="#4E5F2E" mask="url(#mask-2)"></path><path d="M4.912,0.834 L4.924,0.839 L4.948,0.848 L4.954,0.851 L4.973,0.859 L4.977,0.861 L5.011,0.875 L5.03,0.883 L5.039,0.887 L5.289,1.009 L5.306,1.018 L5.331,1.032 L5.352,1.043 L5.374,1.055 L5.395,1.067 L28.343,14.183 C31.182,15.808 28.184,21.128 24.196,18.848 L1.248,5.731 C0.966,5.57 0.711,5.378 0.486,5.162 C0.548,4.667 0.695,4.136 0.929,3.599 C1.686,1.865 3.098,0.663 4.253,0.697 C4.45,0.696 4.667,0.739 4.912,0.834" id="Fill-484" fill="#718E3D" mask="url(#mask-2)"></path></g><path d="M49.4321055,18.639 C50.2731055,16.707 49.9741055,14.853 48.7711055,14.494 C47.5641055,14.134 45.9091055,15.406 45.0661055,17.337 C44.2271055,19.264 44.5251055,21.12 45.7271055,21.48 C46.9341055,21.839 48.5901055,20.565 49.4321055,18.639" id="Fill-486" fill="#4E5F2E"></path><path d="M57.7011055,97.019 C57.2481055,97.019 56.8821055,96.652 56.8821055,96.199 L56.8821055,35.779 C56.5141055,29.688 55.4901055,23.776 47.1031055,18.924 C46.7111055,18.698 46.5771055,18.196 46.8041055,17.804 C47.0301055,17.413 47.5321055,17.276 47.9241055,17.505 C57.0091055,22.76 58.1391055,29.389 58.5191055,35.73 L58.5201055,96.199 C58.5201055,96.652 58.1541055,97.019 57.7011055,97.019" id="Fill-487" fill="#8B8E8D"></path></g></g></g></svg>