<svg id="Capa_1" enable-background="new 0 0 511.993 511.993" height="512" viewBox="0 0 511.993 511.993" width="512" xmlns="http://www.w3.org/2000/svg"><g id="XMLID_2238_"><g id="XMLID_2314_"><g id="XMLID_2315_"><g id="XMLID_2476_"><g id="XMLID_2477_"><path id="XMLID_2478_" d="m226.348 132.084 24.98-13.133c2.922-1.536 6.426-1.536 9.348 0l24.98 13.133c7.37 3.876 15.984-2.39 14.579-10.593l-4.769-27.812c-.562-3.263.522-6.586 2.882-8.896l20.211-19.699c5.964-5.803 2.671-15.934-5.572-17.129l-15.177-2.21-60.076 5.364-21.374 43.617-4.59 26.765c-1.406 8.203 7.209 14.468 14.578 10.593z" fill="#fce75f"/></g></g><g id="XMLID_2458_"><g id="XMLID_2474_"><path id="XMLID_2475_" d="m226.017 466.839 7.395-82.833-7.395-105.424c-.055.028-36.751 18.36-73.918 36.927l-53.229 91.088 32.779 65.879 18.93 1.893z" fill="#ffb38d"/></g></g><g id="XMLID_2455_"><g id="XMLID_2456_"><path id="XMLID_2457_" d="m152.099 315.51c-38.131 19.049-76.757 38.345-76.818 38.375v112.954l56.369 5.637c-11.137-51.251-5.229-107.036 20.449-156.966z" fill="#ff935f"/></g></g><g id="XMLID_2434_"><g id="XMLID_2435_"><path id="XMLID_2436_" d="m192.683 345.241 33.334-66.658h-50.31l-40.189 30.121.994 45.182h42.186c5.923-.001 11.334-3.344 13.985-8.645z" fill="#ff935f"/></g></g><g id="XMLID_2362_"><g id="XMLID_2363_"><path id="XMLID_2433_" d="m297.809 45.745-12.745-1.856c-3.273-.472-6.104-2.53-7.56-5.492l-12.49-25.302c-3.685-7.47-14.338-7.47-18.023 0l-12.49 25.302c-1.456 2.962-4.287 5.02-7.561 5.492l-27.922 4.066c-8.243 1.195-11.536 11.326-5.572 17.129l20.211 19.699c4.31 4.219 2.691 9.703 2.702 9.942 18.106-26.87 47.537-45.477 81.45-48.98z" fill="#ffd367"/></g></g><g id="XMLID_2359_"><g id="XMLID_2360_"><path id="XMLID_2361_" d="m226.017 466.839h-95.52l-10.542 24.097 21.095 13.555h84.967l10.377-15.061z" fill="#ff935f"/></g></g><g id="XMLID_2356_"><g id="XMLID_2357_"><path id="XMLID_2358_" d="m75.281 466.839v8.032c0 16.356 13.253 29.619 29.619 29.619h36.15c-4.524-12.107-8.07-24.69-10.553-37.651z" fill="#ff762a"/></g></g><g id="XMLID_2353_"><g id="XMLID_2354_"><path id="XMLID_2355_" d="m73.152 278.582-26.326 52.662c-5.201 10.401 2.359 22.641 13.996 22.641h75.688c8.448-27.617 21.857-53.064 39.195-75.303z" fill="#ff762a"/></g></g><g id="XMLID_2350_"><g id="XMLID_2351_"><ellipse id="XMLID_2352_" cx="421.673" cy="203.28" fill="#15dfb5" rx="22.591" ry="22.591" transform="matrix(.922 -.388 .388 .922 -45.839 179.54)"/></g></g><g id="XMLID_2347_"><g id="XMLID_2348_"><circle id="XMLID_2349_" cx="90.341" cy="203.28" fill="#ff9389" r="22.591"/></g></g><g id="XMLID_2344_"><g id="XMLID_2345_"><path id="XMLID_2346_" d="m446.383 79.744c6.978 8.725 4.126 21.557-5.784 26.717-69.84 36.356-130.333 134.47-130.333 134.47.532-88.074 75.021-149.551 106.598-171.67 7.621-5.331 18.062-3.845 23.876 3.424z" fill="#7ee6fd"/></g></g><g id="XMLID_2341_"><g id="XMLID_2342_"><path id="XMLID_2343_" d="m201.739 240.931s-60.493-98.114-130.334-134.47c-9.91-5.161-12.761-17.993-5.783-26.717l5.643-7.059c5.813-7.269 16.255-8.755 23.876-3.424 31.577 22.119 106.066 83.596 106.598 171.67z" fill="#7ee6fd"/></g></g><g id="XMLID_2338_"><g id="XMLID_2339_"><path id="XMLID_2340_" d="m436.724 466.839v8.032c0 16.356-13.254 29.619-29.619 29.619h-181.088c0-13.087 0-24.604 0-37.651z" fill="#ff762a"/></g></g><g id="XMLID_2335_"><g id="XMLID_2336_"><path id="XMLID_2337_" d="m465.178 331.244c5.201 10.401-2.359 22.641-13.996 22.641-10.17 0-167.599 0-177.845 0-5.934 0-11.346-3.343-13.996-8.645l-33.324-66.658h212.835z" fill="#ff935f"/></g></g><g id="XMLID_2316_"><g id="XMLID_2333_"><path id="XMLID_2334_" d="m436.724 353.885v112.954l-97.888 7.53-112.819-7.53v-188.257c.16.058 210.544 75.246 210.707 75.303z" fill="#ff935f"/></g></g></g></g><g id="XMLID_2239_"><path id="XMLID_2296_" d="m471.885 327.891-26.33-52.661c-1.27-2.541-3.867-4.146-6.708-4.146h-49.811c-4.142 0-7.5 3.358-7.5 7.5s3.358 7.5 7.5 7.5h45.176l24.258 48.515c2.713 5.427-1.212 11.788-7.286 11.788h-177.852c-3.105 0-5.897-1.726-7.286-4.502l-27.9-55.8h115.748c4.142 0 7.5-3.358 7.5-7.5s-3.358-7.5-7.5-7.5c-13.574 0-258.119 0-280.739 0-2.84 0-5.438 1.605-6.708 4.146l-26.331 52.661c-7.702 15.406 3.515 33.496 20.703 33.496h6.955v25.131c0 4.142 3.358 7.5 7.5 7.5s7.5-3.358 7.5-7.5v-25.131h95.916c8.823 0 16.756-4.903 20.701-12.794l19.119-38.238v148.987h-135.735v-37.683c0-4.142-3.358-7.5-7.5-7.5s-7.5 3.358-7.5 7.5v53.214c0 20.468 16.651 37.119 37.119 37.119h121.117 181.098c20.468 0 37.119-16.651 37.119-37.119v-113.486h6.955c8.081 0 15.441-4.104 19.689-10.977 4.249-6.874 4.627-15.292 1.013-22.52zm-285.909 13.994c-1.388 2.777-4.18 4.502-7.285 4.502h-117.871c-6.067 0-10.001-6.356-7.286-11.788l24.258-48.515h136.084zm-103.201 132.989v-.532h135.736v22.651h-113.617c-12.196 0-22.119-9.922-22.119-22.119zm324.334 22.119h-173.598v-22.651h195.717v.532c0 12.197-9.923 22.119-22.119 22.119zm22.119-37.651h-195.717v-148.987l19.119 38.239c3.946 7.892 11.878 12.794 20.702 12.794h155.896z"/><path id="XMLID_2293_" d="m208.417 90.159c.6.585.874 1.428.733 2.255l-4.77 27.812c-1.887 11.007 6.732 20.532 17.278 20.532 7.204 0 9.305-3.254 33.158-15.166.743-.391 1.63-.391 2.371 0l24.977 13.131c12.869 6.766 27.916-4.173 25.46-18.499l-4.77-27.812c-.142-.826.132-1.669.731-2.254l20.208-19.696c10.412-10.15 4.658-27.84-9.725-29.93l-27.925-4.058c-.83-.121-1.547-.642-1.918-1.394l-12.488-25.303c-6.434-13.039-25.038-13.033-31.471 0l-12.487 25.303c-.372.752-1.089 1.273-1.919 1.394l-27.925 4.058c-14.389 2.091-20.132 19.786-9.725 29.93zm-8.325-34.783 27.925-4.058c5.716-.831 10.655-4.418 13.212-9.599l12.488-25.304c.939-1.903 3.629-1.904 4.568 0l12.488 25.304c2.556 5.18 7.495 8.768 13.212 9.599l27.925 4.058c2.1.305 2.932 2.864 1.412 4.345l-20.208 19.697c-4.135 4.033-6.022 9.839-5.045 15.531l4.77 27.812c.359 2.092-1.816 3.674-3.696 2.686l-24.977-13.131c-5.112-2.688-11.217-2.688-16.33 0l-24.978 13.131c-1.878.988-4.054-.593-3.695-2.686l4.77-27.812c.977-5.693-.91-11.499-5.046-15.532l-20.206-19.696c-1.52-1.482-.689-4.04 1.411-4.345z"/><path id="XMLID_2292_" d="m248.501 150.571v90.363c0 4.142 3.358 7.5 7.5 7.5s7.5-3.358 7.5-7.5v-90.363c0-4.143-3.358-7.5-7.5-7.5s-7.5 3.357-7.5 7.5z"/><path id="XMLID_2289_" d="m316.653 244.869c.594-.964 60.179-96.76 127.408-131.754 14.131-7.356 18.089-25.668 8.177-38.058v-.001l-5.646-7.057c-8.257-10.321-23.205-12.463-34.034-4.88-32.828 22.996-109.242 86.351-109.789 177.768-.045 7.549 9.908 10.43 13.884 3.982zm104.511-169.462c4.389-3.075 10.408-2.17 13.715 1.964l5.646 7.057c4.072 5.091 2.278 12.432-3.391 15.382-49.315 25.67-93.309 80.079-116.351 112.168 14.007-69.016 73.134-117.485 100.381-136.571z"/><path id="XMLID_2286_" d="m67.942 113.116c67.165 34.96 126.813 130.791 127.408 131.755 3.95 6.4 13.929 3.598 13.884-3.982-.547-91.419-76.962-154.772-109.789-177.768-10.828-7.585-25.778-5.442-34.035 4.879l-5.645 7.057c-9.913 12.392-5.953 30.704 8.177 38.059zm3.536-28.688 5.645-7.057c3.327-4.158 9.351-5.022 13.715-1.964 27.247 19.086 86.374 67.555 100.38 136.571-23.041-32.089-67.034-86.498-116.35-112.168-2.778-1.446-4.738-4.011-5.377-7.039-.631-2.989.075-5.952 1.987-8.343z"/><path id="XMLID_2273_" d="m421.667 173.191c-16.592 0-30.091 13.499-30.091 30.091s13.499 30.091 30.091 30.091 30.091-13.499 30.091-30.091-13.498-30.091-30.091-30.091zm0 45.182c-8.321 0-15.091-6.77-15.091-15.091s6.77-15.091 15.091-15.091 15.091 6.77 15.091 15.091-6.769 15.091-15.091 15.091z"/><path id="XMLID_2270_" d="m60.245 203.282c0 16.592 13.499 30.091 30.091 30.091 16.593 0 30.091-13.499 30.091-30.091s-13.498-30.091-30.091-30.091-30.091 13.499-30.091 30.091zm45.181 0c0 8.321-6.77 15.091-15.091 15.091s-15.091-6.77-15.091-15.091 6.77-15.091 15.091-15.091 15.091 6.77 15.091 15.091z"/><path id="XMLID_2269_" d="m270.764 403.854v10.205c0 4.142 3.358 7.5 7.5 7.5s7.5-3.358 7.5-7.5v-10.205c0-4.142-3.358-7.5-7.5-7.5s-7.5 3.358-7.5 7.5z"/><path id="XMLID_2268_" d="m384.475 421.559c4.142 0 7.5-3.358 7.5-7.5v-10.205c0-4.142-3.358-7.5-7.5-7.5s-7.5 3.358-7.5 7.5v10.205c0 4.142 3.358 7.5 7.5 7.5z"/><path id="XMLID_2267_" d="m351.025 418.683c2.721-3.123 2.396-7.86-.727-10.582-3.123-2.721-7.86-2.396-10.582.727-4.414 5.065-12.267 5.079-16.694 0-2.721-3.123-7.459-3.447-10.582-.727-3.122 2.722-3.448 7.459-.727 10.582 10.404 11.935 28.922 11.921 39.312 0z"/></g></g></svg>