<svg id="Layer_1" enable-background="new 0 0 512 512" height="512" viewBox="0 0 512 512" width="512" xmlns="http://www.w3.org/2000/svg"><path id="XMLID_1121_" d="m231.33 311.09h49.34v193.41h-49.34z" fill="#d68a5a"/><path id="XMLID_1122_" d="m231.33 311.09h49.34v22.11h-49.34z" fill="#c47a4a"/><path id="XMLID_1123_" d="m259 311.09h21.67v193.41h-21.67z" fill="#c47a4a"/><path id="XMLID_1126_" d="m476.08 246.67c-14.28 10.19-29.75 20.97-29.75 20.97l27.99 12.4c3.62 1.61 5.95 5.19 5.95 9.15v19.01c0 5.52-4.48 10-10 10h-428.54c-5.52 0-10-4.48-10-10v-195.46c0-5.52 4.48-10 10-10h62.78c3.98 0 7.58 2.36 9.17 6.01l13.99 32.13 16.43-32.64c1.7-3.37 5.15-5.5 8.93-5.5h317.24c5.52 0 10 4.48 10 10v125.8c0 3.23-1.56 6.26-4.19 8.13z" fill="#f5a871"/><path id="XMLID_1127_" d="m450.94 190.21c-6.76 48.11-23.28 92.98-46.36 127.99h-93.92c-16.39-42.61-21.69-95.88-14.13-149.69 3.22-22.9 8.64-45.06 15.94-65.77h139.47c3.44 27.83 3.2 57.56-1 87.47z" fill="#e89a5e"/><path id="XMLID_1711_" d="m436.09 188.12c-9.764 69.491-39.579 127.894-77.141 160.249-5.379 4.633-13.677 3.467-17.571-2.469-27.191-41.454-39.758-105.811-29.994-175.303s39.582-127.912 77.143-160.254c5.378-4.631 13.674-3.465 17.568 2.468 27.194 41.442 39.759 105.817 29.995 175.309z" fill="#bcea73"/><path id="XMLID_1710_" d="m436.094 188.121c-9.764 69.487-39.581 127.897-77.143 160.246-5.382 4.635-13.682 3.468-17.578-2.47-1.266-1.931-2.499-3.917-3.703-5.947 35.09-33.129 62.625-89.302 71.933-155.552 9.307-66.238-1.68-127.836-26.282-169.352 1.716-1.62 3.45-3.189 5.212-4.706 5.368-4.624 13.668-3.458 17.566 2.468 27.193 41.449 39.758 105.826 29.995 175.313z" fill="#a3e440"/><path id="XMLID_1709_" d="m436.09 188.121c-.394 2.802-.823 5.599-1.284 8.368l-124.494-17.492c.32-2.788.678-5.596 1.072-8.398 3.262-23.218 8.767-45.219 16.046-65.411l111.26 15.633c1.433 21.415.662 44.082-2.6 67.3z" fill="#70d9e6"/><path id="XMLID_1708_" d="m436.094 188.121c-.395 2.814-.823 5.599-1.284 8.368l-26.491-3.722c.461-2.769.888-5.554 1.284-8.368 3.264-23.229 4.034-45.885 2.589-67.302l26.491 3.722c1.445 21.418.675 44.073-2.589 67.302z" fill="#70d9e6"/><path id="XMLID_1707_" d="m436.094 188.121c-.395 2.814-.823 5.599-1.284 8.368l-26.491-3.722c.461-2.769.888-5.554 1.284-8.368 3.264-23.229 4.034-45.885 2.589-67.302l26.491 3.722c1.445 21.418.675 44.073-2.589 67.302z" fill="#22c7db"/><path id="XMLID_1706_" d="m311.214 171.908c-2.482 18.172-3.453 35.992-3.013 53.135l115.946 16.291c5.147-16.359 9.125-33.756 11.746-51.908z" fill="#fddd45"/><path id="XMLID_1705_" d="m435.91 189.428c-2.623 18.157-6.617 35.557-11.76 51.906l-26.491-3.722c5.143-16.35 9.135-33.738 11.76-51.906z" fill="#f8c52d"/><path id="XMLID_1130_" d="m231.334 410.847c-4.142 0-7.5 3.358-7.5 7.5v86.153c0 4.142 3.358 7.5 7.5 7.5s7.5-3.358 7.5-7.5v-86.152c0-4.143-3.358-7.501-7.5-7.501z"/><path id="XMLID_1131_" d="m470.27 95.24h-26.915c-5.066-33.131-15.579-63.06-30.988-86.543-3.041-4.633-7.945-7.733-13.455-8.508-5.503-.775-11.077.855-15.277 4.472-24.905 21.444-45.794 53.223-60.392 90.579h-89.647c-4.142 0-7.5 3.358-7.5 7.5s3.358 7.5 7.5 7.5h84.23c-2.967 8.908-5.595 18.071-7.836 27.447h-46.279c-4.143 0-7.5 3.358-7.5 7.5s3.357 7.5 7.5 7.5h43.062c-1.068 5.569-2.016 11.192-2.814 16.868-4.705 33.49-4.322 66.706.682 97.111h-17.178c-4.143 0-7.5 3.358-7.5 7.5s3.357 7.5 7.5 7.5h20.071c2.247 10.097 5.036 19.806 8.341 29.034h-274.145c-1.378 0-2.5-1.122-2.5-2.5v-164.117h17.77c4.142 0 7.5-3.358 7.5-7.5s-3.358-7.5-7.5-7.5h-17.77v-16.343c0-1.378 1.122-2.5 2.5-2.5h62.778c.995 0 1.895.589 2.292 1.501l13.994 32.133c1.162 2.667 3.76 4.421 6.668 4.502 2.907.088 5.6-1.527 6.908-4.125l16.43-32.636c.427-.849 1.283-1.376 2.233-1.376h48.707c4.142 0 7.5-3.358 7.5-7.5s-3.358-7.5-7.5-7.5h-48.707c-6.651 0-12.641 3.69-15.631 9.631l-9.239 18.353-7.609-17.472c-2.781-6.386-9.079-10.512-16.044-10.512h-62.78c-9.649 0-17.5 7.851-17.5 17.5v195.461c0 9.649 7.851 17.5 17.5 17.5h182.104v60.792c0 4.142 3.358 7.5 7.5 7.5s7.5-3.358 7.5-7.5v-60.792h34.333v178.8c0 4.142 3.357 7.5 7.5 7.5s7.5-3.358 7.5-7.5v-178.8h33.736c3.897 8.684 8.296 16.833 13.204 24.315 3.04 4.634 7.944 7.736 13.456 8.511.9.126 1.802.189 2.699.189 4.595 0 9.067-1.636 12.581-4.662 9.345-8.05 18.142-17.542 26.315-28.353h80.111c9.649 0 17.5-7.851 17.5-17.5v-19.014c0-6.917-4.086-13.197-10.41-16l-15.848-7.023c5.484-3.853 12.351-8.696 18.924-13.383 4.592-3.274 7.334-8.6 7.334-14.245v-125.795c.001-9.65-7.85-17.5-17.499-17.5zm0 15c1.379 0 2.5 1.122 2.5 2.5v24.947h-25.969c-.124-9.301-.653-18.466-1.559-27.447zm-51.434 122.774-103.202-14.5c-.066-12.506.621-25.265 2.079-38.119l109.599 15.399c-2.13 12.744-4.957 25.177-8.476 37.22zm-86.318-119.538 42.072 5.911-3.385 24.088c-.576 4.102 2.281 7.894 6.383 8.471.354.049.706.074 1.054.074 3.679 0 6.891-2.709 7.417-6.458l3.385-24.088 42.072 5.911c.815 17.386.158 35.391-2.05 53.563l-109.738-15.418c2.885-18.077 7.215-35.565 12.79-52.054zm60.903-97.449c1.271-1.095 2.678-1.087 3.403-.984.727.102 2.081.482 3.001 1.883 16.481 25.116 26.921 58.371 30.567 95.154l-38.861-5.46 5.207-37.053c.576-4.102-2.281-7.894-6.383-8.471-4.103-.568-7.895 2.282-8.471 6.384l-5.207 37.053-38.861-5.46c13.641-34.354 32.841-63.444 55.605-83.046zm78.306 224.541c-14.085 10.043-29.53 20.811-29.685 20.919-2.222 1.548-3.437 4.174-3.178 6.87s1.951 5.042 4.428 6.14l27.99 12.404c.903.4 1.487 1.297 1.487 2.286v19.013c0 1.378-1.121 2.5-2.5 2.5h-69.711c1.788-2.811 3.543-5.685 5.257-8.636 2.079-3.582.861-8.172-2.721-10.251-3.58-2.081-8.173-.863-10.252 2.72-11.362 19.57-24.413 35.771-38.789 48.155-1.271 1.094-2.679 1.086-3.404.984-.726-.102-2.081-.482-3-1.884-18.387-28.031-29.258-66.184-31.557-108.061l98.111 13.785c-2.276 6.548-4.76 12.968-7.454 19.245-1.634 3.806.127 8.216 3.933 9.85 3.807 1.635 8.217-.127 9.851-3.933 11.098-25.849 18.83-53.946 22.984-83.509 1.719-12.237 2.749-24.436 3.135-36.477h26.118v20.48h-7.77c-4.143 0-7.5 3.358-7.5 7.5s3.357 7.5 7.5 7.5h7.77v50.369c0 .805-.39 1.565-1.043 2.031z"/><path id="XMLID_1138_" d="m98.11 230.121h-17.765c-4.142 0-7.5 3.358-7.5 7.5s3.358 7.5 7.5 7.5h17.765c9.779 0 17.735-7.956 17.735-17.735v-5.468c0-9.779-7.956-17.735-17.735-17.735h-7.529c-1.508 0-2.735-1.227-2.735-2.735v-7.889c0-1.508 1.227-2.735 2.735-2.735h17.765c4.142 0 7.5-3.358 7.5-7.5s-3.358-7.5-7.5-7.5h-17.765c-9.779 0-17.735 7.956-17.735 17.735v7.889c0 9.779 7.956 17.735 17.735 17.735h7.529c1.508 0 2.735 1.227 2.735 2.735v5.468c0 1.508-1.227 2.735-2.735 2.735z"/><path id="XMLID_1139_" d="m185.209 183.322v38.595 15.704c0 4.142 3.358 7.5 7.5 7.5s7.5-3.358 7.5-7.5v-15.704c0-1.508 1.227-2.735 2.735-2.735h2.426l8.362 21.192c1.164 2.949 3.989 4.749 6.979 4.749.916 0 1.848-.169 2.751-.525 3.853-1.521 5.744-5.876 4.224-9.729l-7.37-18.678c4.755-3.185 7.894-8.603 7.894-14.743v-7.889c0-9.779-7.956-17.735-17.735-17.735h-17.765c-4.144-.002-7.501 3.356-7.501 7.498zm28 10.235v7.889c0 1.508-1.227 2.735-2.735 2.735h-7.529c-.932 0-1.841.094-2.735.233v-13.593h10.265c1.506.001 2.734 1.228 2.734 2.736z"/><path id="XMLID_1142_" d="m137.346 175.822c-4.142 0-7.5 3.358-7.5 7.5v44.063c0 9.779 7.956 17.735 17.735 17.735h7.527c9.779 0 17.735-7.956 17.735-17.735v-44.063c0-4.142-3.358-7.5-7.5-7.5s-7.5 3.358-7.5 7.5v44.063c0 1.508-1.227 2.735-2.735 2.735h-7.527c-1.508 0-2.735-1.227-2.735-2.735v-44.063c0-4.142-3.358-7.5-7.5-7.5z"/><path id="XMLID_1143_" d="m257.209 190.822h20.5c4.143 0 7.5-3.358 7.5-7.5s-3.357-7.5-7.5-7.5h-28c-4.142 0-7.5 3.358-7.5 7.5v12.125 3 39.174c0 4.142 3.358 7.5 7.5 7.5s7.5-3.358 7.5-7.5v-21.672c.894.139 1.803.233 2.735.233h7.529c4.143 0 7.5-3.358 7.5-7.5s-3.357-7.5-7.5-7.5h-7.529c-1.509 0-2.735-1.227-2.735-2.735v-3z"/><path id="XMLID_1144_" d="m80.345 281.666h146.555c4.142 0 7.5-3.358 7.5-7.5s-3.358-7.5-7.5-7.5h-146.555c-4.142 0-7.5 3.358-7.5 7.5s3.358 7.5 7.5 7.5z"/></svg>