<svg width="495px" height="465px" viewBox="0 0 495 465" version="1.1" xmlns="http://www.w3.org/2000/svg" xmlns:xlink="http://www.w3.org/1999/xlink"><title>Group 58</title><desc>Created with Sketch.</desc><g id="Page-1" stroke="none" stroke-width="1" fill="none" fill-rule="evenodd"><g id="1657-copy" transform="translate(-2384.000000, -3794.000000)"><g id="Group-58" transform="translate(2384.000000, 3794.000000)"><path d="M492.795325,263.393846 C485.371385,264.343721 478.277176,263.403845 471.712534,261.064155 C472.391979,263.873783 472.99149,266.703409 473.471099,269.573029 C475.739247,283.211225 475.229663,296.979404 472.222118,310.407628 C477.188065,325.925575 470.913186,344.143165 464.508414,358.221303 C456.524931,375.748985 445.224155,393.706609 430.506169,406.374934 C428.357923,408.21469 425.510247,405.395063 427.388714,403.265345 C435.412165,394.216542 439.059188,384.047887 440.308168,373.379298 C438.539612,375.609003 436.731088,377.798714 434.872605,379.938431 C425.95988,408.754619 405.816322,433.021409 378.978229,448.43937 C376.780024,449.699203 374.611793,446.779589 376.320399,444.989826 C383.964159,436.920893 390.039201,427.582128 394.485571,417.523459 C381.286345,427.382155 367.107919,435.96102 352.250046,442.830111 C328.869131,453.638682 303.429896,459.597894 277.850775,462.007575 C234.735968,466.067038 189.832621,460.007839 149.595465,443.350043 C149.705375,449.749196 151.423973,456.008368 155.520629,461.707614 C156.679683,463.3274 154.741265,465.387128 153.032659,464.937187 C123.097095,456.988239 97.567933,433.481348 83.2296368,405.445057 C80.5817981,403.37533 78.0338779,401.175621 75.5559006,398.885924 C75.2361616,404.495182 75.7557374,410.18443 77.384408,415.973664 C77.9239676,417.89341 75.8156885,419.303224 74.1470505,418.453336 C66.1435835,414.373876 59.8886891,407.674762 54.892767,400.305736 C44.1815102,384.537822 38.3462733,365.330363 35.2488016,346.662832 C34.1896661,340.283676 33.3303675,333.644554 32.9706612,326.955439 C31.8515746,323.105948 30.8823658,319.266456 30.0430509,315.436962 C25.226982,293.349884 24.7673572,270.002972 31.6417459,248.295844 C22.3393391,252.725258 12.5573237,254.894971 2.17579776,254.495024 C0.0475349712,254.415034 -0.881706527,251.515418 1.06670307,250.395566 C18.8421937,240.176917 34.1696824,224.648971 47.0991287,208.911053 C50.3764535,204.941578 53.5138926,200.822123 56.4514947,196.552688 C56.6013724,196.272725 56.7612419,195.982763 56.9211114,195.7028 C62.0868948,184.584271 66.7231104,173.245771 71.2294321,161.847279 C71.2594076,160.377473 71.169481,158.907667 70.9396686,157.44786 C70.7797991,156.517983 71.1594892,155.768083 71.749008,155.288146 C61.9669926,159.817547 51.6753932,162.507191 40.1048378,160.847411 C38.0065506,160.537452 38.296314,157.797814 39.5852619,156.827942 C46.2298382,151.818605 51.3956216,144.809532 56.2516578,138.160412 C66.7830615,123.682327 76.0954601,108.284364 87.6560237,94.5861755 C95.0300046,85.8473315 104.682126,75.8586527 116.432535,73.7489318 C114.044484,72.3291196 111.756352,70.7493286 109.568138,68.99956 C98.7969299,60.290712 92.382166,47.8723546 87.8758443,35.0140555 C87.1963989,33.044316 89.5344904,31.774484 91.1132018,32.5243848 C108.568953,40.9032765 124.256149,51.9618137 144.209861,53.1816523 C150.944364,53.6015968 157.718834,53.5216074 164.463329,53.6715875 C168.080377,52.851696 171.7274,52.1417899 175.364431,51.5318706 C166.491673,43.9728704 159.927032,33.8742062 157.029397,21.5958304 C156.629723,19.9060539 158.6181,17.886321 160.256763,19.1161584 C177.392775,31.9944549 197.826096,43.4929339 219.018798,47.8323599 L219.178667,47.8523573 C230.059785,47.7023771 240.950895,48.0023374 251.842005,48.5322673 C243.998408,35.0040568 243.818555,14.5167667 247.865251,1.72845832 C248.464762,-0.151293035 251.442332,-0.851200455 252.101793,1.44849535 C259.665619,27.9849852 282.397065,43.9828691 307.40665,52.1417899 C318.737401,52.9416841 330.008201,53.9315531 341.079165,55.8712966 C352.729655,52.3117674 364.969664,47.4324128 374.401965,39.583451 C375.920725,38.313619 378.868319,39.4534682 378.078963,41.723168 C375.021459,50.40202 368.986385,56.4912146 361.572437,60.8006445 C364.110365,61.6105374 366.648294,62.5004197 369.156247,63.4702914 C371.88402,64.3801711 374.59181,65.3800388 377.259632,66.4498973 C390.518809,66.6898655 403.608125,65.2600547 416.777375,61.4005652 C418.855679,60.8006445 420.544301,63.5802769 418.91563,65.0800785 C413.400132,70.179404 407.075295,74.9587718 400.250865,79.0082361 C403.458247,81.5678975 406.405841,84.467514 409.003721,87.8270696 C414.159512,94.5161848 418.276152,102.03519 421.643403,109.854156 C424.161348,113.15372 426.579374,116.563269 428.93745,120.052807 C440.068364,136.470635 451.089368,153.3684 469.394426,162.477195 C471.792469,163.667038 470.363635,166.786625 468.015552,166.616648 C457.534107,165.836751 446.702948,166.44667 436.431333,163.87701 C436.691121,164.956867 436.940917,166.056722 437.220688,167.136579 C441.826928,185.404163 448.831211,202.341922 456.444996,219.529649 L457.394221,221.659367 C467.89565,235.667514 481.534517,247.235984 494.334069,259.644342 C495.842837,261.094151 494.55389,263.173876 492.795325,263.393846" id="Fill-9591" fill="#F9B617"></path><path d="M241.504993,103.52723 C241.584993,103.28723 241.404993,103.65723 241.504993,103.52723" id="Fill-9601" fill="#F9B617"></path><path d="M323.718843,94.6493461 C314.441595,94.6193457 305.33448,92.2993107 296.647694,89.0492616 C294.085692,95.9393656 292.074121,103.069473 289.442064,109.929577 C288.13104,113.369629 284.698358,116.019669 280.825333,114.819651 C273.869899,112.659618 268.435653,108.279552 262.591087,104.379493 C258.577952,112.76962 255.545583,121.589753 247.429242,127.159837 C245.767944,128.309854 243.075841,128.249853 241.404535,127.159837 C234.238937,122.489766 227.423612,117.44969 220.668335,112.239612 C219.517436,113.369629 218.326505,114.469645 217.085536,115.639663 C216.795309,115.929667 216.485066,116.09967 216.164816,116.179671 C215.924629,116.529676 215.704457,116.869681 215.444253,117.209687 C214.333385,118.659708 212.101642,118.619708 211.481157,116.699679 C210.660516,114.12964 210.190149,111.369598 210,108.539556 C210.800625,103.479479 211.681314,98.4294032 211.691321,93.5493295 C211.691321,87.9092444 219.17717,84.4191918 223.170289,88.7992579 C226.843159,92.8293187 230.606099,96.8793798 234.909461,100.259431 C236.670837,101.659452 239.04269,103.019472 240.623925,103.819485 C240.663956,103.849485 240.814074,103.899486 240.984207,103.959487 L241.01423,103.929486 L241.044253,103.819485 C241.094293,103.769484 241.184363,103.639482 241.354496,103.329477 C241.634715,102.84947 241.914934,102.359462 242.175137,101.849455 C242.585458,101.029442 242.735575,100.669437 243.165911,99.4594187 C244.136669,96.7493778 244.897264,93.9593357 245.64785,91.1892939 C247.008913,86.159218 248.209852,80.9691397 250.731822,76.3790705 C253.864269,70.6789845 261.330102,71.6889997 264.662705,76.3790705 C266.7043,79.2691141 268.976075,81.9691548 271.33792,84.5991945 C271.357936,84.2791897 271.357936,83.9591848 271.38796,83.63918 C271.858327,79.0491108 272.608913,74.3890404 273.609695,69.8789724 C275.501173,61.4088446 279.524316,51.6686976 289.181861,50.1786751 C295.026427,49.2786615 300.460673,51.9287015 305.394527,54.7687444 C309.047381,56.8587759 313.060516,58.3287981 316.633308,60.5588317 C325.2,65.9489131 330.033777,74.1690371 331.835184,84.0091856 C332.785927,89.2892653 329.563409,94.6793466 323.718843,94.6493461" id="Fill-9602" fill="#F9B617"></path><path d="M243.940032,419.840368 C243.520259,420.456379 243.100486,421.082325 242.690707,421.708272 C241.931118,421.767886 241.171528,421.807628 240.411939,421.857307 C235.694488,422.205055 230.957048,422.542867 226.239597,422.413703 L226.199618,422.175248 C225.939759,420.794191 224.100752,420.188116 222.971363,420.873677 C222.361692,421.251232 221.792,421.648658 221.262286,422.065955 C220.982437,422.046084 220.692594,422.026213 220.412745,421.98647 C214.046185,421.171746 208.179355,419.085259 202.422466,416.581473 C201.902747,415.379259 200.663417,414.971897 199.643968,415.349452 C196.705555,414.018074 193.777138,412.607211 190.828731,411.255962 C186.790913,409.388059 182.723111,407.470477 178.50539,406 C177.665843,409.020439 176.796313,412.021007 175.676918,414.94209 C175.626945,415.190482 175.576972,415.448809 175.526999,415.6972 C175.047258,418.449377 174.707442,421.23136 174.227701,423.983537 C173.198257,429.835638 171.87897,435.538705 172.0089,441.510034 C172.058873,443.507101 175.187183,444.719251 176.106686,442.622827 C178.355471,437.505964 180.24445,432.061225 183.382754,427.401403 C185.941372,433.740351 188.030243,440.23827 191.558337,446.159921 C192.337915,447.471427 194.636673,447.699947 195.34629,446.159921 C198.414632,439.562645 199.004313,432.379166 200.45353,425.374529 C202.782272,434.63456 204.211499,444.10324 210.288216,451.942472 C211.157746,453.055266 213.346563,453.621598 214.086164,451.942472 C217.274441,444.619894 216.804695,433.283311 222.371687,427.013912 C222.871417,435.399605 221.362232,446.408312 228.008641,451.803373 C229.078063,452.667775 230.707183,452.677711 231.456778,451.356269 C235.234736,444.798736 238.472986,437.953069 242.13101,431.335922 C242.730686,430.243 243.360346,429.120271 244,427.997542 C243.900054,425.275172 243.880065,422.562738 243.940032,419.840368" id="Fill-9603" fill="#F9B617"></path><path d="M303.957861,411.954614 C294.994684,414.268696 286.16112,416.662919 277.347495,419.507937 C273.130116,420.87034 268.902767,422.002337 264.625567,422.513238 C264.446104,423.625199 264.266642,424.747179 264.107119,425.869158 C263.56873,436.788418 265.034344,448.459003 269.08223,458.396532 C269.70038,459.929235 272.202891,460.830825 273.090236,458.907433 C276.769226,450.92335 277.048391,441.657005 280.647619,433.692958 C285.373477,440.034143 289.471214,446.846158 294.944833,452.606318 C295.931879,453.638138 297.696598,453.357644 298.39451,452.155523 C303.190158,443.961069 300.926931,434.103682 301.086454,424.787249 C304.067532,431.479053 307.347716,438.100732 314.645875,440.685291 C315.812384,441.085998 316.988864,440.204443 317.337819,439.14257 C320.179316,430.497321 318.59406,421.351188 319.750599,412.525621 C322.90117,420.179121 324.795501,428.373575 329.341896,435.44605 C330.428643,437.119001 332.67193,436.668206 333.349901,434.915113 C336.071756,427.812586 336.211338,420.39951 337.327996,412.976416 C337.826504,409.610479 338.80358,406.695337 340,403.750142 C339.710865,401.836768 339.431701,399.923393 339.162506,398 C328.085655,404.120796 316.470415,408.708889 303.957861,411.954614" id="Fill-9604" fill="#F9B617"></path><path d="M72.2296895,366.523572 C73.2733369,360.184361 74.5335905,353.865117 74.9864941,347.436059 C75.3704777,341.975353 67.4446642,342.284827 66.7653087,347.436059 C65.8102728,354.723655 63.900201,361.811592 63.0633139,369.129137 C61.7833688,366.902926 60.5821896,364.646766 59.5483879,362.310742 C57.6186246,357.998082 56.6045143,353.575609 55.8956217,348.903561 C55.2654949,344.720681 54.7535169,340.008701 52.2920841,336.484699 C51.7013403,335.62616 50.5296983,335.975565 50.4213952,337.003815 C49.4958965,345.958574 49.9488001,356.570512 53.2569658,364.996171 C56.0629991,372.12404 60.3754293,378.313505 64.008504,384.942223 C64.412179,385.970473 64.9143113,386.948807 65.5444381,387.867244 L65.583821,387.947108 L65.5936667,387.937125 C65.7905814,388.216649 65.9776503,388.486191 66.1942563,388.745749 C69.0495183,392.239802 74.7108137,387.717499 72.357684,383.923956 C70.0242457,378.672893 71.3435737,371.984277 72.2296895,366.523572" id="Fill-9613" fill="#E59E24"></path><path d="M126.636918,427.691833 C120.481975,412.826511 121.18828,395.47861 124.245572,379.949926 C125.224308,374.974717 117.989728,372.864022 116.546848,377.839232 C113.529917,388.181636 112.177847,399.519083 113.227214,410.514798 C111.844875,408.775987 110.482715,407.027126 109.181096,405.22801 C104.539664,398.845671 98.4049007,390.764725 99.1818361,382.402353 C99.2625567,381.517871 97.9407574,380.96507 97.3656234,381.658584 C91.8362647,388.322349 97.2647227,399.147199 100.816428,405.529538 C105.871553,414.625627 112.319108,422.756828 118.463961,431.1192 C121.1681,434.80789 128.735653,432.757501 126.636918,427.691833" id="Fill-9614" fill="#E59E24"></path><path d="M384.024783,373.617998 C376.824149,385.048451 371.199278,397.79819 363.270602,408.574035 C364.766578,402.461009 365.345023,396.146565 365.215371,390.496799 C365.175479,388.825032 362.462775,388.281205 362.183526,390.083893 C361.156288,396.700463 358.972163,403.327105 356.309324,409.440131 C353.726271,415.371882 350.345364,421.948169 344.840171,425.624041 C340.651436,428.423747 344.321565,434.899325 348.789549,432.462172 C369.723247,421.041789 380.504252,398.009678 389.669602,376.95146 C391.325149,373.144666 386.33856,369.952196 384.024783,373.617998" id="Fill-9615" fill="#E59E24"></path><path d="M426.97664,350.10522 C422.921234,361.14735 417.854479,373.151822 410.454614,383.023268 C413.338459,372.437506 413.889193,361.028297 416.172237,350.134983 C416.482651,348.676588 414.289727,347.515825 413.568766,349.053588 C406.299075,364.72885 406.909889,384.134426 394.963964,397.557608 C392.26036,400.583529 395.714965,405.762318 399.510024,403.401108 C417.433919,392.230004 427.837788,371.475164 432.884516,351.722351 C433.865824,347.882904 428.308416,346.474115 426.97664,350.10522" id="Fill-9616" fill="#E59E24"></path><path d="M460.545198,286.467406 C458.881777,282.24193 452.238295,283.813967 453.48331,288.379884 C457.402046,302.648373 455.473293,317.297356 451.401482,331.425664 C451.0341,323.70566 449.554369,316.085786 446.278551,308.886457 C445.645839,307.504666 443.635446,308.536003 443.910982,309.867729 C446.992904,324.837126 446.309166,339.966732 443.074168,354.836 C442.329201,358.240411 447.401106,360.833772 449.115553,357.339244 C459.341004,336.582346 469.515429,309.286976 460.545198,286.467406" id="Fill-9617" fill="#E59E24"></path><path d="M55.0273295,279.109622 C49.3357732,285.84035 45.3962265,294.468463 43.2680793,303.48604 C42.7434663,301.688517 42.2485484,299.881007 41.8031223,298.053524 C39.5264998,288.776305 40.417352,280.218095 40.7242012,270.811055 C40.7439979,269.942252 39.6056866,269.722554 39.1800572,270.391633 C28.410643,287.188493 37.0321134,308.838666 41.7635288,326.104879 C42.9513319,330.448895 50.1177436,329.759844 49.7811994,325.006393 C48.7715668,310.426479 53.9583067,295.916468 59.7389482,282.774573 C60.9960398,279.918508 57.4326306,276.263543 55.0273295,279.109622" id="Fill-9618" fill="#E59E24"></path><path d="M123.698976,100.334048 C121.219159,99.0621589 118.042534,101.7161 116.392738,103.368553 C113.441551,106.312925 111.648295,109.998398 110.264926,113.844108 C107.252255,122.23657 106.442728,131.13979 104.106372,139.702505 C103.194373,143.017427 108.420434,144.419509 109.352927,141.114602 C111.443351,133.753672 112.078676,126.082281 114.015393,118.671276 C114.96838,115.015848 116.187795,111.310346 118.073275,107.995424 C119.50788,105.491706 123.125134,103.558836 123.97565,101.005044 C124.057627,100.764687 123.924414,100.454226 123.698976,100.334048" id="Fill-9619" fill="#E59E24"></path><path d="M93.1720635,160.098274 C91.3940823,160.009104 90.4117723,159.682148 88.5552062,161.059327 C86.0994311,162.882356 84.2232189,165.398928 82.4845301,167.895685 C78.4374126,173.701635 75.0975584,179.973251 71.4335419,186.026895 C69.5867989,189.078487 74.1152483,191.585151 76.0995146,188.781254 C79.5768923,183.87691 82.0424905,178.308746 85.117121,173.156708 C86.6593478,170.570782 88.2703363,167.955132 90.1465485,165.616899 C90.8439887,164.745016 92.7987857,161.990657 93.5846338,161.643885 C94.390128,161.287206 93.898973,160.137905 93.1720635,160.098274" id="Fill-9620" fill="#E59E24"></path><path d="M105.253459,168.413099 C98.999505,177.081831 97.1975181,187.954982 95.058261,198.311783 C94.4897197,201.062343 98.2478741,202.124834 99.1344131,199.463642 C102.430025,189.563613 103.605653,179.028075 106.939811,169.147906 C107.315626,168.045696 105.831637,167.608784 105.253459,168.413099" id="Fill-9621" fill="#E59E24"></path><path d="M144.386713,113.624257 C140.633022,119.58794 138.68933,126.52878 136.889615,133.247997 C135.038479,140.158616 133.68098,146.998718 133.012514,154.120886 C132.703991,157.445237 138.195693,158.130254 138.946432,154.906642 C140.550749,147.996023 141.517453,141.024962 142.885237,134.074048 C144.181032,127.475716 146.155576,120.988197 146.988587,114.319349 C147.173701,112.888871 145.055179,112.566509 144.386713,113.624257" id="Fill-9622" fill="#E59E24"></path><path d="M406.923234,110.944373 C405.146469,103.319985 397.457192,98.6134494 391.173266,94.856215 C387.930921,92.9076493 384.638385,91.0490174 381.33581,89.2103708 C379.227784,88.0312387 376.447197,85.5130923 373.887451,86.082673 C373.516036,86.1726068 373.144622,86.532342 373.064316,86.9020699 C372.130762,91.7385099 381.61688,96.4650308 384.859225,98.623442 C391.454336,103.00022 396.774593,108.296322 402.777449,113.3526 C404.644558,114.921445 407.505451,113.452527 406.923234,110.944373" id="Fill-9623" fill="#E59E24"></path><path d="M368.498599,109.064654 C366.888703,105.030461 363.66891,98.0991635 358.529242,98 C357.47931,97.9805107 356.829351,98.989059 357.039338,99.9382809 C357.499308,102.044367 359.299192,103.68573 360.379123,105.534735 C361.749034,107.868239 362.648976,110.330283 363.308934,112.940643 C364.548854,117.854844 365.188813,122.907473 366.098754,127.890888 C366.688716,131.14395 372.288355,130.441921 371.988374,127.099869 C371.43841,120.979366 370.788452,114.839087 368.498599,109.064654" id="Fill-9624" fill="#E59E24"></path><path d="M406.604849,142.978588 C405.003529,139.767181 403.215552,136.666512 401.594584,133.465172 C400.366578,131.038999 399.629775,127.555779 397.193411,126.136317 C396.692384,125.844371 396.132413,126.045713 395.818044,126.5088 C393.096783,130.585979 397.890918,138.841007 399.639599,142.646374 C402.832414,149.602745 405.66174,156.770525 406.663793,164.451728 C407.096051,167.824209 411.428456,167.874545 411.821418,164.451728 C412.735055,156.64972 410.013793,149.814154 406.604849,142.978588" id="Fill-9625" fill="#E59E24"></path><path d="M396.021454,179.343756 C395.181889,178.489545 393.745525,179.363621 394.038867,180.476082 C397.103785,192.186716 393.917484,204.115869 394.311978,215.945695 C394.443476,220.028028 400.542966,220.008163 400.755386,215.945695 C401.362301,204.552907 405.013902,188.442094 396.021454,179.343756" id="Fill-9626" fill="#E59E24"></path><path d="M446.987114,236.534512 C446.007224,227.635111 443.51667,219.017592 439.913532,210.792694 C437.198419,204.591301 432.350005,193.436849 424.612955,192.027442 C423.449335,191.816031 422.663382,192.863019 423.14312,193.89994 C424.663991,197.141577 427.460761,200.010728 429.247019,203.191961 C431.390529,206.987294 432.870571,211.034306 434.21792,215.151789 C436.728889,222.79279 438.443697,230.65527 442.220357,237.802979 C443.343148,239.927157 447.252501,239.051311 446.987114,236.534512" id="Fill-9627" fill="#E59E24"></path><path d="M68.92348,211.022153 C62.8064261,212.453848 60.0671394,219.892655 58.40915,225.038747 C56.4319205,231.176013 55.0004887,238.775009 56.8747375,245.092489 C57.7191793,247.935855 62.6210609,247.525369 62.3739072,244.361623 C61.5191673,233.418668 63.0226856,221.234243 69.8606045,212.203551 C70.3137196,211.60284 69.5722585,210.861963 68.92348,211.022153" id="Fill-9628" fill="#E59E24"></path><path d="M108.908788,270.125215 C107.039462,261.579766 105.975384,252.855458 105.965798,244.091404 C105.956212,239.838553 106.262973,235.625447 106.617666,231.402405 C106.91484,227.85505 108.256921,223.184863 107.077807,219.846176 C106.790219,219.02144 105.850763,218.70347 105.198895,219.329474 C102.591425,221.843426 102.006662,227.15949 101.412312,230.667099 C100.654996,235.078936 100.290717,239.610011 100.108577,244.091404 C99.7155394,253.431779 100.319475,262.84171 103.080326,271.794559 C104.259439,275.630074 109.771554,274.070033 108.908788,270.125215" id="Fill-9629" fill="#E59E24"></path><path d="M418.272163,243.11249 C417.339945,241.19452 414.725682,242.0079 414.097448,243.654743 C412.98284,246.576886 413.023371,249.820363 412.648458,252.893132 C412.22288,256.377611 411.685841,259.811881 410.865084,263.226068 C409.284367,269.773273 407.095682,276.300396 404.288895,282.425849 C402.961498,285.307824 406.497846,288.691886 409.010781,286.04087 C414.441964,280.307044 417.005563,272.926375 418.373491,265.284622 C419.579295,258.536582 421.382934,249.539195 418.272163,243.11249" id="Fill-9630" fill="#E59E24"></path></g></g></g></svg>