<?xml version="1.0"?>
<svg xmlns="http://www.w3.org/2000/svg" xmlns:xlink="http://www.w3.org/1999/xlink" xmlns:svgjs="http://svgjs.com/svgjs" version="1.1" width="512" height="512" x="0" y="0" viewBox="0 0 100 100" style="enable-background:new 0 0 512 512" xml:space="preserve" class=""><g><path xmlns="http://www.w3.org/2000/svg" d="m80 23.333h-3.333c-3.682 0-6.667 2.988-6.667 6.667v3.333 10c0 11.045-17.91 20-40 20h-20v6.667h5.735c-.703 2.266-1.504 4.492-2.402 6.667h7.143c.83-2.197 1.539-4.424 2.184-6.667h10.674c11.306 0 21.406-2.087 29.313-5.635.892 4.163 2.028 8.281 3.545 12.302h7.142c-2.054-4.968-3.606-10.195-4.619-15.609 5.98-3.929 9.883-8.936 10.957-14.58 5.911-.684 10.328-3.321 10.328-6.481v-6.664c0-5.52-4.476-10-10-10zm0 12.5c-1.384 0-2.5-1.119-2.5-2.503 0-1.377 1.116-2.497 2.5-2.497s2.5 1.12 2.5 2.5c0 1.381-1.116 2.5-2.5 2.5z" fill="#ffffff" data-original="#000000" class=""/><path xmlns="http://www.w3.org/2000/svg" d="m10 56.667h20c20.349 0 33.333-7.897 33.333-13.334v-13.287c-5.576-4.196-12.486-6.713-20-6.713-18.408 0-33.333 14.926-33.333 33.334z" fill="#ffffff" data-original="#000000" class=""/></g></svg>
