<?xml version="1.0" encoding="UTF-8"?>
<svg width="346px" height="512px" viewBox="0 0 346 512" version="1.1" xmlns="http://www.w3.org/2000/svg" xmlns:xlink="http://www.w3.org/1999/xlink">
    <!-- Generator: Sketch 55.2 (78181) - https://sketchapp.com -->
    <title>002-man</title>
    <desc>Created with Sketch.</desc>
    <defs>
        <linearGradient x1="50%" y1="0%" x2="50%" y2="32.1640258%" id="linearGradient-1">
            <stop stop-color="#818181" offset="0%"></stop>
            <stop stop-color="#4A4A4A" offset="0%"></stop>
            <stop stop-color="#4A4A4A" offset="100%"></stop>
        </linearGradient>
    </defs>
    <g id="Page-1" stroke="none" stroke-width="1" fill="none" fill-rule="evenodd">
        <g id="002-man" transform="translate(0.200000, 0.000000)" fill-rule="nonzero">
            <path d="M337.066667,453.056 L337.066667,494.933333 C337.066667,499.648 333.248,503.466667 328.533333,503.466667 L17.0666667,503.466667 C12.352,503.466667 8.53333333,499.648 8.53333333,494.933333 L8.53333333,453.056 C8.53333333,419.2064 29.7130667,390.234667 59.5733333,378.773333 C63.5690667,368.459733 61.7632,373.12 67.7333333,357.717333 C71.776,347.285333 84.608,343.498667 93.664,350.069333 L114.218667,364.981333 C125.162667,356.96 132.266667,344.032 132.266667,329.418667 L132.266667,322.133333 L132.426667,321.738667 C94.1333333,305.888 67.2,268.16 67.2,224.138667 L67.2,220.8 C51.9946667,220.8 40.5333333,208.784 40.5333333,194.624 L40.5333333,131.104 C49.1178667,63.7717333 102.4096,21.1210667 168.384,9.26933333 C176.3744,7.8112 176.183467,15.5978667 201.6,32 C214.56,40.3626667 231.658667,47.2853333 248.202667,52.704 C282.122667,63.808 305.066667,95.424 305.066667,131.104 L305.066667,194.133333 C305.066667,208.864 293.130667,220.8 278.4,220.8 L278.4,224.138667 C278.4,268.16 251.466667,305.888 213.173333,321.738667 L213.333333,322.133333 L213.333333,329.418667 C213.333333,344.032 220.437333,356.96 231.381333,364.981333 L251.936,350.069333 C260.992,343.498667 273.824,347.285333 277.866667,357.728 C283.8816,373.2352 282.130133,368.715733 286.026667,378.773333 C315.869867,390.228267 337.066667,419.186133 337.066667,453.056 L337.066667,453.056 Z" id="Path" fill="#FFDFBA"></path>
            <path d="M337.066667,453.056 L337.066667,494.933333 C337.066667,499.645867 333.245867,503.466667 328.533333,503.466667 L17.0666667,503.466667 C12.3541333,503.466667 8.53333333,499.645867 8.53333333,494.933333 L8.53333333,453.056 C8.53333333,419.2064 29.7130667,390.234667 59.5733333,378.773333 C63.5690667,368.459733 61.7632,373.12 67.7333333,357.717333 C71.776,347.285333 84.608,343.498667 93.664,350.069333 C119.784533,369.019733 106.333867,359.262933 157.770667,396.565333 C166.730667,403.072 178.869333,403.072 187.829333,396.565333 C239.326933,359.2192 225.806933,369.025067 251.936,350.069333 C260.992,343.498667 273.824,347.285333 277.866667,357.728 C283.8816,373.2352 282.130133,368.715733 286.026667,378.773333 C315.869867,390.228267 337.066667,419.186133 337.066667,453.056 L337.066667,453.056 Z" id="Path" fill="#000000"></path>
            <path d="M305.066667,131.104 L305.066667,194.133333 C305.066667,208.864 293.130667,220.8 278.4,220.8 L278.4,154.912 C278.4,126.634667 255.477333,103.712 227.2,103.712 L118.4,103.712 C90.1226667,103.712 67.2,126.634667 67.2,154.912 L67.2,220.8 C51.9946667,220.8 40.5333333,208.784 40.5333333,194.624 L40.5333333,131.104 C49.1168,63.7770667 102.392533,21.1210667 168.378667,9.26506667 C171.074133,8.7808 173.8336,9.60746667 175.8016,11.5114667 C197.8528,32.8448 219.108267,43.1754667 248.202667,52.7050667 C282.122667,63.808 305.066667,95.424 305.066667,131.104 L305.066667,131.104 Z" id="Path" fill="#4A4A4A"></path>
            <path d="M278.4,224.138667 C278.4,268.16 251.466667,305.888 213.173333,321.738667 C143.928533,350.482133 67.2,299.4208 67.2,224.138667 C67.2,216.9696 67.2,163.095467 67.2,154.912 C67.2,126.634667 90.112,103.712 118.389333,103.712 L227.2,103.712 C255.477333,103.712 278.4,126.634667 278.4,154.912 L278.4,224.138667 Z" id="Path" fill="#FFEBD2"></path>
            <path d="M107.072,359.797333 C100.394667,363.6576 99.9850667,367.728 91.5733333,389.44 C61.7312,400.894933 40.5333333,429.8528 40.5333333,463.722667 L40.5333333,503.466667 L17.0666667,503.466667 C12.3541333,503.466667 8.53333333,499.645867 8.53333333,494.933333 L8.53333333,453.056 C8.53333333,419.2064 29.7130667,390.234667 59.5733333,378.773333 C64.2186667,366.781867 67.7482667,357.677867 67.7344,357.713067 C71.7792,347.277867 84.6048,343.496533 93.664,350.069333 L107.072,359.797333 Z" id="Path" fill="#FFBD7B"></path>
            <path d="M238.528,359.797333 C245.205333,363.6576 245.614933,367.728 254.026667,389.44 C283.869867,400.893867 305.066667,429.8528 305.066667,463.722667 L305.066667,503.466667 L328.533333,503.466667 C333.245867,503.466667 337.066667,499.645867 337.066667,494.933333 L337.066667,453.056 C337.066667,419.2064 315.886933,390.234667 286.026667,378.773333 C281.381333,366.781867 277.851733,357.677867 277.8656,357.713067 C273.8208,347.277867 260.9952,343.496533 251.936,350.069333 L238.528,359.797333 Z" id="Path" fill="#FAA157"></path>
            <path d="M148.8896,292.328533 C166.251733,303.1904 152.561067,329.828267 133.5552,322.199467 C94.4789333,306.5152 67.2,268.436267 67.2,224.138667 L67.2,154.912 C67.2,144.155733 70.5173333,134.173867 76.1834667,125.9328 C83.2842667,115.607467 99.2768,120.727467 99.2,133.258667 L99.2,202.805333 C99.2,241.749333 119.672533,274.048 148.8896,292.328533 Z" id="Path" fill="#FFF3E4"></path>
            <path d="M214.538667,339.648 C188.2592,350.648533 159.3792,351.501867 131.061333,339.648 C132.507733,333.646933 132.266667,329.76 132.266667,322.133333 L132.426667,321.738667 C158.114133,332.401067 187.435733,332.4224 213.173333,321.738667 L213.333333,322.133333 C213.333333,329.7632 213.093333,333.649067 214.538667,339.648 Z" id="Path" fill="#FFD6A6"></path>
            <path d="M170.0768,38.5898667 C130.285867,52.6410667 96.2346667,79.888 80.5546667,120.416 C72.2666667,129.514667 67.2,141.621333 67.2,154.912 L67.2,194.936533 C67.2,212.056533 41.4314667,213.0432 40.5664,195.944533 C40.5141333,194.909867 40.5333333,198.884267 40.5333333,131.104 C49.1552,63.4826667 102.763733,21.0496 168.3904,9.26293333 C171.016533,8.79146667 173.707733,9.49333333 175.998933,11.7034667 C184.670933,20.0693333 181.44,34.5781333 170.0768,38.5898667 Z" id="Path" fill="url(#linearGradient-1)"></path>
            <path d="M313.6,194.624 L313.6,131.109333 C313.6,91.6501333 288.3872,56.8810667 250.861867,44.592 C221.540267,34.9888 200.597333,24.6122667 178.882133,2.54826667 C176.9632,0.5984 174.2272,-0.3136 171.5232,0.096 C103.618133,10.3733333 41.7184,54.5461333 32.0693333,130.026667 C31.9626667,130.865067 32.0010667,126.792533 32.0010667,194.622933 C32.0010667,210.9472 43.4218667,224.667733 58.7498667,228.353067 C60.3434667,271.936 86.4874667,309.362133 123.7344,327.1712 L123.7344,329.418667 C123.7344,338.810667 120.155733,347.530667 113.762133,354.1056 L98.6752,343.163733 C85.0858667,333.307733 65.8464,338.965333 59.7749333,354.637867 L52.9418667,372.270933 C21.4101333,385.978667 0,417.294933 0,453.0592 L0,503.466667 C0,508.1792 3.8208,512 8.53333333,512 C13.2458667,512 17.0666667,508.1792 17.0666667,503.466667 L17.0666667,453.0592 C17.0666667,424.658133 34.3893333,398.6752 60.4106667,387.6448 C92.1354667,395.725867 90.1589333,395.329067 91.6437333,395.329067 C95.4517333,395.329067 98.9237333,392.760533 99.9072,388.900267 C101.070933,384.333867 98.3114667,379.688533 93.744,378.5248 L71.0592,372.746667 L75.6864,360.805333 C77.7088,355.5872 84.1173333,353.690667 88.6538667,356.980267 L152.759467,403.474133 C164.7456,412.167467 180.852267,412.168533 192.839467,403.474133 L256.944,356.981333 C261.4752,353.696 267.886933,355.582933 269.9104,360.8064 L274.536533,372.747733 L251.854933,378.5248 C247.287467,379.688533 244.528,384.333867 245.691733,388.900267 C246.8544,393.464533 251.496533,396.2272 256.0672,395.063467 C290.714667,386.237867 289.1072,386.7392 289.1072,386.7392 C293.501867,385.0368 295.684267,380.093867 293.981867,375.6992 L285.825067,354.641067 C279.758933,338.9824 260.526933,333.2992 246.923733,343.1648 L231.847467,354.0992 C230.3616,352.562133 229.010133,350.897067 227.813333,349.105067 C225.1968,345.184 219.8976,344.129067 215.978667,346.7456 C212.058667,349.362133 211.0016,354.660267 213.6192,358.580267 C214.935467,360.552533 216.378667,362.423467 217.934933,364.189867 L182.8192,389.6576 C176.826667,394.004267 168.773333,394.005333 162.778667,389.6576 L127.637333,364.170667 C135.083733,355.693867 139.685333,344.9664 140.606933,333.636267 C214.2016,355.309867 286.933333,299.236267 286.933333,224.782933 L286.933333,154.913067 C286.933333,121.9776 260.1376,95.1829333 227.202133,95.1829333 L118.394667,95.1829333 C85.4613333,95.1829333 58.6666667,121.979733 58.6666667,154.916267 L58.6666667,210.2368 C52.9664,207.28 49.0666667,201.3952 49.0666667,194.622933 L49.0666667,131.659733 C57.3898667,68.512 107.400533,28.9386667 169.893333,17.6661333 C192.746667,39.7525333 214.866133,50.7616 245.549867,60.8106667 C276.0448,70.7978667 296.533333,99.0485333 296.533333,131.109333 L296.533333,194.624 C296.533333,199.336533 300.354133,203.157333 305.066667,203.157333 C309.7792,203.157333 313.6,199.336533 313.6,194.624 Z M75.7333333,154.916267 C75.7333333,131.389867 94.8704,112.2496 118.394667,112.2496 L227.2032,112.2496 C250.728533,112.2496 269.867733,131.387733 269.867733,154.913067 L269.867733,224.1344 C269.867733,277.656533 226.324267,321.201067 172.801067,321.201067 C119.277867,321.201067 75.7333333,277.6576 75.7333333,224.1344 L75.7333333,154.916267 L75.7333333,154.916267 Z M345.6,453.0592 L345.6,503.466667 C345.6,508.1792 341.7792,512 337.066667,512 C332.354133,512 328.533333,508.1792 328.533333,503.466667 L328.533333,453.0592 C328.533333,435.618133 322.1504,418.850133 310.557867,405.8432 C307.422933,402.324267 307.733333,396.9312 311.2512,393.7952 C314.770133,390.660267 320.164267,390.970667 323.2992,394.488533 C337.68,410.626133 345.6,431.426133 345.6,453.0592 Z M149.085867,445.064533 C142.730667,465.002667 131.2096,483.7952 114.573867,499.083733 C112.9344,500.589867 110.865067,501.3344 108.802133,501.3344 C101.086933,501.3344 97.2864,491.792 103.026133,486.5184 C116.635733,474.010667 127.022933,458.0832 132.8256,439.8816 C134.257067,435.392 139.057067,432.912 143.547733,434.343467 C148.037333,435.773867 150.517333,440.573867 149.085867,445.064533 L149.085867,445.064533 Z M242.573867,486.517333 C246.043733,489.706667 246.272,495.105067 243.083733,498.574933 C239.8944,502.0448 234.497067,502.273067 231.026133,499.083733 C215.442133,484.7616 203.3024,466.362667 196.514133,445.064533 C195.082667,440.573867 197.562667,435.773867 202.052267,434.3424 C206.544,432.910933 211.342933,435.390933 212.7744,439.880533 C218.288,457.173333 228.263467,473.365333 242.573867,486.517333 L242.573867,486.517333 Z" id="Shape" fill="#000000"></path>
        </g>
    </g>
</svg>