<?xml version="1.0" encoding="UTF-8"?>
<svg width="346px" height="512px" viewBox="0 0 346 512" version="1.1" xmlns="http://www.w3.org/2000/svg" xmlns:xlink="http://www.w3.org/1999/xlink">
    <!-- Generator: Sketch 55.2 (78181) - https://sketchapp.com -->
    <title>031-woman 2</title>
    <desc>Created with Sketch.</desc>
    <g id="Page-1" stroke="none" stroke-width="1" fill="none" fill-rule="evenodd">
        <g id="031-woman-2" transform="translate(0.200000, 0.000000)" fill-rule="nonzero">
            <g id="031-woman">
                <path d="M337.066667,453.056 L337.066667,494.933333 C337.066667,499.648 333.248,503.466667 328.533333,503.466667 L17.0666667,503.466667 C12.352,503.466667 8.53333333,499.648 8.53333333,494.933333 L8.53333333,453.056 C8.53333333,426.965333 21.0986667,403.562667 40.5333333,389.013333 L40.5333333,114.666667 C40.5333333,56.0533333 88.0533333,8.53333333 146.666667,8.53333333 L200,8.53333333 C258.613333,8.53333333 306.133333,56.0533333 306.133333,114.666667 L306.133333,389.834667 C324.96,404.426667 337.066667,427.445333 337.066667,453.056 Z" id="Path" fill="#C79A83"></path>
                <path d="M278.4,180.522667 L278.4,224.138667 C278.4,282.481067 231.095467,329.738667 172.8,329.738667 C114.506667,329.738667 67.2,282.4832 67.2,224.138667 L67.2,180.512 C67.2,138.101333 101.589333,103.712 144,103.712 L201.6,103.712 C244.010667,103.712 278.4,138.101333 278.4,180.522667 Z" id="Path" fill="#E0B7A3"></path>
                <path d="M306.133333,114.666667 L306.133333,390.101333 C292.693333,379.701333 275.829333,373.514667 257.525333,373.514667 C233.128533,373.514667 213.333333,353.8048 213.333333,329.418667 L213.333333,322.133333 L213.173333,321.738667 C251.466667,305.888 278.4,268.16 278.4,224.138667 L278.4,180.522667 C278.4,138.100267 244.010667,103.712 201.6,103.712 L144,103.712 C101.589333,103.712 67.2,138.101333 67.2,180.512 L67.2,224.138667 C67.2,268.16 94.1333333,305.888 132.426667,321.738667 L132.266667,322.133333 L132.266667,329.418667 C132.266667,353.802667 112.4736,373.514667 88.0746667,373.514667 C70.2506667,373.514667 53.8026667,379.381333 40.5333333,389.28 L40.5333333,114.666667 C40.5333333,56.0533333 88.0533333,8.53333333 146.666667,8.53333333 L200,8.53333333 C258.613333,8.53333333 306.133333,56.0533333 306.133333,114.666667 Z" id="Path" fill="#000000"></path>
                <path d="M337.066667,453.056 L337.066667,494.933333 C337.066667,499.645867 333.245867,503.466667 328.533333,503.466667 L17.0666667,503.466667 C12.3541333,503.466667 8.53333333,499.645867 8.53333333,494.933333 L8.53333333,453.056 C8.53333333,409.2896 43.8912,373.1072 87.6565333,373.512533 C94.0704,373.572267 100.189867,372.2656 105.706667,369.866667 L105.706667,369.877333 C118.632533,399.264 149.3376,416.929067 181.333333,413.173333 C206.901333,410.176 229.365333,393.813333 239.893333,369.877333 L239.893333,369.866667 C245.4112,372.2656 251.530667,373.572267 257.943467,373.512533 C301.7088,373.1072 337.066667,409.2896 337.066667,453.056 Z" id="Path" fill="#BEFA91"></path>
                <path d="M177.12,413.536 C178.506667,413.461333 179.904,413.333333 181.290667,413.173333 C179.904,413.344 178.517333,413.461333 177.12,413.536 Z" id="Path" fill="#C79A83"></path>
                <path d="M214.538667,339.648 C188.2592,350.648533 159.3792,351.501867 131.061333,339.648 C132.507733,333.646933 132.266667,329.76 132.266667,322.133333 L132.426667,321.738667 C158.114133,332.401067 187.435733,332.4224 213.173333,321.738667 L213.333333,322.133333 C213.333333,329.7632 213.092267,333.649067 214.538667,339.648 Z" id="Path" fill="#A07765"></path>
                <path d="M239.9712,16.3168 C252.971733,21.6064 248.664533,40.9066667 234.632533,40.5653333 C232.7552,40.5194667 236.695467,40.5333333 178.666667,40.5333333 C124.768,40.5333333 73.6448,81.1029333 72.5514667,150.0704 C72.5290667,151.5072 72.2837333,152.939733 71.7834667,154.286933 C65.9232,170.0672 67.2,179.7312 67.2,224.138667 C67.2,235.0592 68.8629333,245.6032 71.9381333,255.5104 C72.3210667,256.743467 72.5333333,258.0224 72.5333333,259.314133 L72.5333333,365.2096 C72.5333333,370.676267 69.0645333,375.604267 63.8570667,377.269333 C55.3770667,379.979733 47.5178667,384.071467 40.5333333,389.28 L40.5333333,114.666667 C40.5333333,56.0512 88.0512,8.53333333 146.666667,8.53333333 L200,8.53333333 C214.141867,8.53333333 227.6352,11.2981333 239.9712,16.3168 Z" id="Path" fill="#111111"></path>
                <path d="M148.900267,292.337067 C166.260267,303.1904 152.565333,329.828267 133.5648,322.202667 C94.4917333,306.5216 67.2,268.448 67.2,224.138667 C67.2,177.531733 65.9434667,169.7536 72.1344,153.371733 C77.5306667,139.092267 99.2,142.254933 99.2,159.178667 L99.2,202.805333 C99.2,241.751467 119.668267,274.059733 148.900267,292.337067 L148.900267,292.337067 Z" id="Path" fill="#F2D1C2"></path>
                <path d="M177.12,413.536 C178.506667,413.461333 179.904,413.333333 181.290667,413.173333 C179.904,413.344 178.517333,413.461333 177.12,413.536 Z" id="Path" fill="#C79A83"></path>
                <path d="M110.130133,378.376533 C116.0032,388.0544 110.676267,400.677333 99.7312,403.565867 C73.5904,410.464 39.4666667,428.852267 39.4666667,479.722667 L39.4666667,503.466667 L17.0666667,503.466667 C12.3541333,503.466667 8.53333333,499.645867 8.53333333,494.933333 L8.53333333,453.056 C8.53333333,409.312 43.8506667,373.045333 87.584,373.514667 C94.0266667,373.578667 100.170667,372.277333 105.706667,369.866667 L105.706667,369.877333 C107.005867,372.8288 108.485333,375.666133 110.130133,378.376533 Z" id="Path" fill="#D0FFAD"></path>
                <path d="M235.469867,378.376533 C229.5968,388.0544 234.923733,400.677333 245.8688,403.565867 C272.0096,410.464 306.133333,428.852267 306.133333,479.722667 L306.133333,503.466667 L328.533333,503.466667 C333.245867,503.466667 337.066667,499.645867 337.066667,494.933333 L337.066667,453.056 C337.066667,409.312 301.749333,373.045333 258.016,373.514667 C251.573333,373.578667 245.429333,372.277333 239.893333,369.866667 L239.893333,369.877333 C238.594133,372.8288 237.114667,375.666133 235.469867,378.376533 Z" id="Path" fill="#99D856"></path>
                <path d="M345.6,453.0592 L345.6,503.466667 C345.6,508.1792 341.7792,512 337.066667,512 C332.354133,512 328.533333,508.1792 328.533333,503.466667 L328.533333,453.0592 C328.533333,413.812267 296.7744,382.050133 257.522133,382.050133 C238.949333,382.050133 222.0992,372.5888 212.445867,356.7392 C209.994667,352.714667 211.269333,347.464533 215.294933,345.013333 C219.319467,342.558933 224.5696,343.835733 227.021867,347.8624 C233.552,358.583467 244.9536,364.983467 257.522133,364.983467 C306.202667,364.981333 345.6,404.375467 345.6,453.0592 L345.6,453.0592 Z M225.514667,402.938667 C212.948267,413.5168 197.5104,420.032 181.333333,421.7408 L181.333333,503.466667 C181.333333,508.1792 177.512533,512 172.8,512 C168.087467,512 164.266667,508.1792 164.266667,503.466667 L164.266667,421.757867 C137.870933,418.994133 114.391467,403.537067 101.4176,380.352 C97.1146667,381.466667 92.6432,382.050133 88.08,382.050133 C48.9184,382.050133 17.0666667,413.738667 17.0666667,453.0592 L17.0666667,503.466667 C17.0666667,508.1792 13.2458667,512 8.53333333,512 C3.8208,512 0,508.1792 0,503.466667 L0,453.0592 C0,426.64 11.5733333,402.065067 32,385.140267 L32,114.666667 C32,51.44 83.4389333,8.52651283e-14 146.666667,8.52651283e-14 L200,8.52651283e-14 C263.227733,8.52651283e-14 314.666667,51.44 314.666667,114.666667 L314.666667,345.6 C314.666667,350.312533 310.845867,354.133333 306.133333,354.133333 C301.4208,354.133333 297.6,350.312533 297.6,345.6 L297.6,114.666667 C297.6,60.8501333 253.816533,17.0666667 200,17.0666667 L146.666667,17.0666667 C92.8501333,17.0666667 49.0666667,60.8501333 49.0666667,114.666667 L49.0666667,374.069333 C61.0485333,368.138667 74.3168,364.9824 88.0757333,364.9824 C107.803733,364.9824 123.733333,349.077333 123.733333,329.4176 L123.733333,327.170133 C85.7984,309.032533 59.376,270.548267 58.6805333,225.934933 C58.6581333,225.553067 58.6666667,180.897067 58.6666667,180.514133 C58.6666667,133.461333 96.9472,95.1808 144,95.1808 L164.8,95.1808 L172.8,95.1808 C172.8,90.4682667 176.578133,95.1808 181.290667,95.1808 C186.0032,95.1808 181.866667,90.4693333 181.866667,95.1818667 L201.6,95.1818667 C248.6528,95.1818667 286.933333,133.463467 286.933333,180.5184 C286.933333,180.696533 286.935467,224.849067 286.930133,225.0272 C286.346667,300.366933 213.517867,355.1008 140.619733,333.639467 C139.293867,350.446933 130.184533,364.7392 117.092267,373.3824 C137.479467,407.8208 183.8848,415.6768 214.522667,389.883733 C218.129067,386.850133 223.511467,387.310933 226.5472,390.9152 C229.581867,394.520533 229.12,399.904 225.514667,402.938667 Z M172.8,321.2 C226.3232,321.2 269.866667,277.656533 269.866667,224.133333 L269.866667,180.5184 C269.866667,142.874667 239.242667,112.248533 201.6,112.248533 L144,112.248533 C106.357333,112.248533 75.7333333,142.872533 75.7333333,180.5152 L75.7333333,224.133333 C75.7333333,277.656533 119.2768,321.2 172.8,321.2 Z" id="Shape" fill="#000000"></path>
            </g>
        </g>
    </g>
</svg>