<?xml version="1.0" encoding="UTF-8"?>
<svg width="376px" height="480px" viewBox="0 0 376 480" version="1.1" xmlns="http://www.w3.org/2000/svg" xmlns:xlink="http://www.w3.org/1999/xlink">
    <!-- Generator: Sketch 55.2 (78181) - https://sketchapp.com -->
    <title>012-woman 2</title>
    <desc>Created with Sketch.</desc>
    <g id="Page-1" stroke="none" stroke-width="1" fill="none" fill-rule="evenodd">
        <g id="012-woman-2" fill-rule="nonzero">
            <g id="012-woman">
                <path d="M355.521,363.48 C355.289,363.712 332.1,386.939 331.821,387.11 C338.291,398.16 342.001,411.02 342.001,424.74 L342.001,464 C342.001,468.42 338.421,472 334.001,472 L42.001,472 C37.581,472 34.001,468.42 34.001,464 L34.001,424.74 C34.001,411.02 37.711,398.16 44.181,387.11 C43.912,386.946 45.809,388.808 20.481,363.48 C11.081,354.08 10.211,339.14 18.441,328.71 C28.479,315.867 25.563,301.047 16.531,292.53 C6.621,283.18 5.521,267.8 14.001,257.14 L25.521,242.66 C30.831,235.98 32.561,227.12 30.141,218.93 L22.701,193.7 C18.891,180.81 25.461,167.12 37.901,162.03 L47.731,158 C57.571,153.97 64.001,144.39 64.001,133.75 L64.001,108 C64.001,52.77 108.771,8 164.001,8 L212.001,8 C267.228,8 312.001,52.758 312.001,108 L312.001,133.75 C312.001,144.39 318.431,153.97 328.271,158 L338.101,162.03 C350.541,167.12 357.111,180.81 353.301,193.7 L345.861,218.93 C343.441,227.12 345.171,235.98 350.481,242.66 L362.001,257.14 C370.488,267.826 369.377,283.17 359.471,292.53 C349.581,301.85 348.461,317.18 356.881,327.84 C366.447,340.079 364.414,354.587 355.521,363.48 L355.521,363.48 Z" id="Path" fill="#FFDFBA"></path>
                <path d="M20.481,363.48 C20.713,363.712 43.902,386.939 44.181,387.11 C37.711,398.16 34.001,411.02 34.001,424.74 L34.001,464 C34.001,468.42 37.581,472 42.001,472 L334.001,472 C338.421,472 342.001,468.42 342.001,464 L342.001,424.74 C342.001,411.02 338.291,398.16 331.821,387.11 C332.09,386.946 330.193,388.808 355.521,363.48 C364.921,354.08 365.791,339.14 357.561,328.71 C347.523,315.867 350.439,301.047 359.471,292.53 C369.381,283.18 370.481,267.8 362.001,257.14 L350.481,242.66 C345.171,235.98 343.441,227.12 345.861,218.93 L353.301,193.7 C357.111,180.81 350.541,167.12 338.101,162.03 L328.271,158 C318.431,153.97 312.001,144.39 312.001,133.75 L312.001,108 C312.001,52.77 267.231,8 212.001,8 L164.001,8 C108.774,8 64.001,52.758 64.001,108 L64.001,133.75 C64.001,144.39 57.571,153.97 47.731,158 L37.901,162.03 C25.461,167.12 18.891,180.81 22.701,193.7 L30.141,218.93 C32.561,227.12 30.831,235.98 25.521,242.66 L14.001,257.14 C5.514,267.826 6.625,283.17 16.531,292.53 C26.421,301.85 27.541,317.18 19.121,327.84 C9.555,340.079 11.588,354.587 20.481,363.48 L20.481,363.48 Z" id="Path" fill="#FFDFBA"></path>
                <path d="M89.001,194.782 L89.001,210.131 C89.001,251.391 114.251,286.771 150.151,301.631 L150.001,302.001 L150.001,308.831 C150.001,331.573 131.669,349.905 109.051,350.171 C80.979,350.171 57.136,364.986 44.181,387.111 C43.902,386.94 20.713,363.713 20.481,363.481 C11.081,354.081 10.211,339.141 18.441,328.711 C28.479,315.868 25.563,301.048 16.531,292.531 C6.621,283.181 5.521,267.801 14.001,257.141 L25.521,242.661 C30.831,235.981 32.561,227.121 30.141,218.931 L22.701,193.701 C18.891,180.811 25.461,167.121 37.901,162.031 L47.731,158.001 C57.571,153.971 64.001,144.391 64.001,133.751 L64.001,108 C64.001,52.772 108.773,8 164.001,8 L212.001,8 C267.228,8 312.001,52.759 312.001,108 L312.001,133.75 C312.001,144.39 318.431,153.97 328.271,158 L338.101,162.03 C350.541,167.12 357.111,180.81 353.301,193.7 L345.861,218.93 C343.441,227.12 345.171,235.98 350.481,242.66 L362.001,257.14 C370.487,267.825 369.379,283.169 359.471,292.53 C350.235,301.233 347.689,316.08 357.561,328.71 C365.791,339.14 364.921,354.08 355.521,363.48 C355.289,363.712 332.1,386.939 331.821,387.111 C318.973,365.168 295.228,350.17 266.951,350.17 C244.342,349.904 226.001,331.583 226.001,308.83 L226.001,302 L225.851,301.62 C261.751,286.76 287.001,251.4 287.001,210.13 L287.001,160.817 C287.001,157.455 284.907,154.448 281.745,153.304 C264.345,147.012 249.654,134.888 240.209,118.69 C237.45,113.959 230.825,113.406 227.247,117.553 C193.768,156.358 147.299,180.989 96.094,186.836 C92.05,187.298 89.001,190.712 89.001,194.782 Z" id="Path" fill="#1A0707"></path>
                <path d="M281.745,153.305 C284.907,154.448 287.001,157.455 287.001,160.818 L287.001,210.131 C287.001,251.401 261.751,286.761 225.851,301.621 C160.914,328.576 89.001,280.691 89.001,210.131 L89.001,194.782 C89.001,190.712 92.05,187.298 96.094,186.836 C147.212,180.999 193.711,156.425 227.247,117.555 C230.825,113.408 237.45,113.96 240.209,118.692 C249.645,134.875 264.326,147.006 281.745,153.305 L281.745,153.305 Z" id="Path" fill="#FFEBD2"></path>
                <path d="M342.001,424.74 L342.001,464 C342.001,468.42 338.421,472 334.001,472 L42.001,472 C37.581,472 34.001,468.42 34.001,464 L34.001,424.74 C34.001,383.589 67.359,350.17 108.571,350.17 C114.35,350.17 120.195,348.987 125.751,346.46 L126.001,347 L183.101,391.21 C185.991,393.44 190.011,393.44 192.901,391.21 L250.001,347 L250.251,346.46 C255.351,348.78 261.001,350.1 266.951,350.17 C309.769,350.17 342.001,384.515 342.001,424.74 Z" id="Path" fill="#000000"></path>
                <path d="M247.131,14.352 C259.911,19.144 256.248,38.082 242.599,38.002 C242.102,37.999 194.499,38 194.001,38 C138.773,38 94.001,82.772 94.001,138 L94.001,163.75 C94.001,174.39 87.571,183.97 77.731,188 L67.901,192.03 C55.461,197.12 48.891,210.81 52.701,223.7 L60.141,248.93 C62.561,257.12 60.831,265.98 55.521,272.66 L44.001,287.14 C35.521,297.8 36.621,313.18 46.531,322.53 C56.404,331.841 57.55,347.158 49.121,357.84 C42.061,366.873 41.292,376.724 44.88,385.169 C45.287,386.128 44.063,387.011 43.295,386.256 C39.011,382.042 20.687,363.686 20.481,363.481 C11.764,354.764 9.396,340.283 19.121,327.841 C27.559,317.149 26.395,301.832 16.531,292.531 C6.621,283.181 5.521,267.801 14.001,257.141 L25.521,242.661 C30.831,235.981 32.561,227.121 30.141,218.931 L22.701,193.701 C18.891,180.811 25.461,167.121 37.901,162.031 L47.731,158.001 C57.571,153.971 64.001,144.391 64.001,133.751 L64.001,108 C64.001,52.772 108.773,8 164.001,8 L212.001,8 C224.26,8 236.119,10.223 247.131,14.352 Z" id="Path" fill="#2F1919"></path>
                <path d="M165.471,274.121 C181.665,284.374 169.01,309.19 151.217,302.064 C114.673,287.427 89.001,251.724 89.001,210.13 L89.001,194.78 C89.001,190.71 92.051,187.3 96.091,186.84 C99.806,186.412 103.811,185.851 108.058,185.11 C113.688,184.128 118.977,188.176 119.441,193.872 C122.456,230.912 140.679,258.424 165.471,274.121 L165.471,274.121 Z" id="Path" fill="#FFF3E4"></path>
                <path d="M138.796,356.91 C143.901,360.863 141.199,369.144 134.742,369.17 C92.205,369.341 60,403.489 60,443.74 L60,472 L42,472 C37.582,472 34,468.418 34,464 L34,424.74 C34,384.28 66.461,350.17 109.05,350.17 C115,350.1 120.65,348.78 125.75,346.46 L126,347 L138.796,356.91 Z" id="Path" fill="#4D4E59"></path>
                <path d="M237.206,356.91 C232.101,360.863 234.803,369.144 241.26,369.17 C283.797,369.341 316.002,403.489 316.002,443.74 L316.002,472 L334.002,472 C338.42,472 342.002,468.418 342.002,464 L342.002,424.74 C342.002,384.28 309.541,350.17 266.952,350.17 C261.002,350.1 255.352,348.78 250.252,346.46 L250.002,347 L237.206,356.91 Z" id="Path" fill="#2C2C33"></path>
                <path d="M183.104,391.208 C185.987,393.44 190.015,393.44 192.899,391.208 L250.001,347 L250.251,346.46 C255.351,348.78 261.001,350.1 266.951,350.17 L232.001,472 L144.001,472 L109.051,350.17 C115.001,350.1 120.651,348.78 125.751,346.46 L126.001,347 L183.104,391.208 Z" id="Path" fill="#FCD6D6"></path>
                <path d="M125.617,369.71 C122.632,370.043 119.256,370.623 115.232,371.7 L109.052,350.17 C115.002,350.1 120.652,348.78 125.752,346.46 L126.002,347 L130.911,350.802 C138.431,356.627 135.07,368.655 125.617,369.71 L125.617,369.71 Z" id="Path" fill="#FCD6D6"></path>
                <path d="M250.386,369.71 C253.371,370.043 256.747,370.623 260.771,371.7 L266.951,350.17 C261.001,350.1 255.351,348.78 250.251,346.46 L250.001,347 L245.092,350.802 C237.571,356.627 240.932,368.655 250.386,369.71 L250.386,369.71 Z" id="Path" fill="#FCD6D6"></path>
                <path d="M227.131,318.42 C202.494,328.733 175.419,329.533 148.871,318.42 C150.227,312.794 150.001,309.15 150.001,302 L150.151,301.63 C174.233,311.626 201.722,311.646 225.851,301.63 L226.001,302 C226.001,309.153 225.775,312.796 227.131,318.42 Z" id="Path" fill="#FFD6A6"></path>
                <path d="M361.176,369.138 L341.703,388.611 C347.122,399.728 350,412.012 350,424.743 L350,472 C350,476.418 346.418,480.002 342,480.002 C337.582,480.002 334,476.418 334,472 L334,424.743 C334,389.728 307.08,361.179 272.91,358.411 L239.69,474.206 C238.683,477.716 235.482,480.002 232.004,480.002 C226.685,480.002 222.845,474.902 224.31,469.794 L256.672,356.991 C243.655,354.138 232.308,346.166 225.169,334.445 C222.87,330.672 224.066,325.75 227.839,323.451 C231.611,321.151 236.534,322.348 238.833,326.121 C244.652,335.674 254.6,341.557 265.687,342.116 C266.68,341.95 267.716,341.971 268.751,342.204 C293.729,342.595 317.262,354.047 333.05,374.637 L349.862,357.825 C356.39,351.297 356.999,340.909 351.278,333.663 C338.592,317.605 341.817,298.178 353.98,286.71 C360.811,280.27 361.584,269.47 355.739,262.123 L344.223,247.646 C337.29,238.93 335.032,227.349 338.184,216.666 L345.629,191.436 C348.282,182.445 343.741,172.984 335.067,169.43 L325.241,165.404 C312.338,160.116 304,147.693 304,133.753 L304,108.004 C304,57.271 262.729,16 212,16 L164,16 C113.271,16 72,57.273 72,108.004 L72,133.753 C72,147.693 63.663,160.116 50.76,165.404 L40.933,169.43 C32.259,172.984 27.719,182.445 30.371,191.436 L37.816,216.666 C40.968,227.349 38.711,238.93 31.777,247.646 L20.261,262.123 C14.417,269.47 15.19,280.269 22.02,286.71 C34.204,298.197 37.393,317.62 24.72,333.665 C19,340.91 19.609,351.297 26.137,357.825 L42.949,374.637 C58.427,354.452 82.156,342.172 108.57,342.172 C127.033,342.172 141.999,327.295 141.999,308.831 L141.999,306.729 C108.932,290.984 86.818,259.792 82.005,224.852 C81.402,220.475 84.462,216.438 88.838,215.835 C93.213,215.231 97.252,218.292 97.855,222.668 C104.016,267.396 142.769,301.125 187.999,301.125 C238.177,301.125 278.999,260.303 278.999,210.125 L278.999,160.808 C260.296,154.029 243.982,140.99 233.325,122.764 C194.746,167.584 139.66,193.658 81.319,195.993 C76.914,196.171 73.183,192.741 73.006,188.319 C72.829,183.904 76.265,180.182 80.68,180.006 C138.291,177.702 192.573,150.422 228.639,103.147 C232.407,98.206 240.144,99.275 242.435,105.048 C250.833,126.205 268.469,141.417 289.186,147.304 C292.234,148.158 294.706,150.907 294.969,154.392 C295.019,155.048 295.007,210.622 294.996,210.963 C294.45,281.463 226.375,332.897 157.831,312.765 C156.791,326.02 150.481,338.499 139.491,347.327 L187.999,384.882 L216.529,362.795 C220.025,360.09 225.048,360.731 227.752,364.223 C230.457,367.717 229.817,372.742 226.324,375.446 L195.999,398.923 L195.999,456 C195.999,460.418 192.417,464 187.999,464 C183.581,464 179.999,460.418 179.999,456 L179.999,398.924 L124.135,355.675 C115.458,358.537 107.81,358.173 108.572,358.173 C71.778,358.172 41.999,387.946 41.999,424.744 L41.999,472 C41.999,476.418 38.417,480.002 33.999,480.002 C29.581,480.002 25.999,476.418 25.999,472 L25.999,424.743 C25.999,412.012 28.877,399.728 34.296,388.611 L14.823,369.138 C3.428,357.743 0.419,338.616 12.844,322.884 C18.735,315.422 17.961,304.874 11.042,298.351 C-1.79,286.252 -3.241,265.964 7.738,252.162 L19.254,237.684 C22.945,233.045 24.146,226.88 22.468,221.193 L15.023,195.963 C10.039,179.072 18.569,161.3 34.864,154.623 L44.691,150.597 C51.559,147.783 55.997,141.17 55.997,133.752 L55.997,108.003 C56.001,48.451 104.45,-1.70530257e-13 164.001,-1.70530257e-13 L212.001,-1.70530257e-13 C271.552,-1.70530257e-13 320.001,48.449 320.001,108 L320.001,133.753 C320.001,141.171 324.439,147.784 331.308,150.599 L341.134,154.624 C357.43,161.301 365.96,179.073 360.976,195.964 L353.531,221.194 C351.853,226.881 353.054,233.046 356.745,237.685 L368.261,252.162 C379.24,265.964 377.788,286.253 364.957,298.351 C358.038,304.874 357.264,315.422 363.156,322.886 C375.375,338.353 372.786,357.529 361.176,369.138 L361.176,369.138 Z M127.7,384.826 C126.499,380.574 122.079,378.098 117.827,379.301 C113.575,380.502 111.101,384.922 112.302,389.174 L136.302,474.174 C137.503,478.427 141.924,480.899 146.175,479.699 C150.427,478.498 152.901,474.078 151.7,469.826 L127.7,384.826 Z" id="Shape" fill="#000000"></path>
            </g>
        </g>
    </g>
</svg>