<?xml version="1.0" encoding="UTF-8"?>
<svg width="382px" height="512px" viewBox="0 0 382 512" version="1.1" xmlns="http://www.w3.org/2000/svg" xmlns:xlink="http://www.w3.org/1999/xlink">
    <!-- Generator: Sketch 55.2 (78181) - https://sketchapp.com -->
    <title>033-woman</title>
    <desc>Created with Sketch.</desc>
    <g id="Page-1" stroke="none" stroke-width="1" fill="none" fill-rule="evenodd">
        <g id="033-woman" transform="translate(0.066667, 0.000000)" fill-rule="nonzero">
            <path d="M357.867733,406.656 L357.867733,139.733333 C357.867733,104.384 329.217067,75.7333333 293.867733,75.7333333 C288.386133,75.7333333 287.486933,76.0085333 286.273067,74.7946667 C285.697067,74.2186667 285.3344,73.4186667 285.3344,72.5333333 C285.3344,37.184 256.683733,8.53333333 221.3344,8.53333333 L179.7344,8.53333333 C113.6224,8.53333333 60.2677333,62.1546667 60.2677333,128 L60.2677333,405.205333 C50.2197333,418.517333 44.2677333,435.093333 44.2677333,453.056 L44.2677333,494.933333 C44.2677333,499.648 48.0864,503.466667 52.8010667,503.466667 L364.267733,503.466667 C368.9824,503.466667 372.801067,499.648 372.801067,494.933333 L372.801067,453.056 C372.801067,435.733333 367.265067,419.712 357.867733,406.656 Z" id="Path" fill="#ECCEBE"></path>
            <path d="M221.3344,8.53333333 C256.680533,8.53333333 285.3344,37.1872 285.3344,72.5333333 C285.3344,74.3008 286.766933,75.7333333 288.5344,75.7333333 L293.867733,75.7333333 C329.213867,75.7333333 357.867733,104.3872 357.867733,139.733333 L357.867733,406.656 C343.2512,386.314667 319.5136,373.514667 293.259733,373.514667 C268.862933,373.514667 249.067733,353.803733 249.067733,329.418667 L249.067733,322.133333 L248.907733,321.738667 C287.201067,305.888 314.1344,268.16 314.1344,224.138667 L314.1344,180.522667 C314.1344,138.101333 279.745067,103.712 237.323733,103.712 L189.793067,103.712 C141.179733,144.455467 114.949333,200.634667 110.3584,263.104 C120.8864,289.610667 141.8464,310.837333 168.161067,321.738667 L168.001067,322.133333 L168.001067,329.418667 C168.001067,347.541333 157.067733,363.082667 141.441067,369.866667 C125.5296,376.785067 118.1216,370.0704 95.4677333,378.72 C81.3770667,384.096 69.1957333,393.365333 60.2677333,405.205333 C60.2677333,397.816533 60.2677333,135.4752 60.2677333,128 C60.2677333,62.16 113.617067,8.53333333 179.7344,8.53333333 L221.3344,8.53333333 Z" id="Path" fill="#FFEAAA"></path>
            <path d="M314.1344,180.522667 L314.1344,224.138667 C314.1344,282.481067 266.829867,329.738667 208.5344,329.738667 C164.311467,329.738667 125.9776,302.4288 110.3584,263.104 C114.9504,200.615467 141.1936,144.4448 189.793067,103.712 L237.3344,103.712 C279.745067,103.712 314.1344,138.101333 314.1344,180.522667 Z" id="Path" fill="#F3D4C6"></path>
            <path d="M372.801067,453.056 L372.801067,494.933333 C372.801067,499.648 368.9824,503.466667 364.267733,503.466667 L52.8010667,503.466667 C48.0864,503.466667 44.2677333,499.648 44.2677333,494.933333 L44.2677333,453.056 C44.2677333,419.242667 65.3664,390.357333 95.1264,378.848 C117.9424,370.016 125.409067,376.842667 141.441067,369.866667 L141.441067,369.877333 C153.121067,396.448 179.521067,413.674667 208.5344,413.674667 C237.547733,413.674667 263.947733,396.448 275.627733,369.877333 L275.627733,369.866667 C291.4144,376.725333 298.315733,370.186667 320.609067,378.346667 C351.0624,389.493333 372.801067,418.741333 372.801067,453.056 Z" id="Path" fill="#E0B7A3"></path>
            <g id="Group" transform="translate(118.400000, 169.600000)" fill="#C79A83">
                <path d="M1.00373333,42.432 C1.50506667,40.6613333 2.04906667,38.88 2.6144,37.0986667 C2.05973333,38.8693333 1.51573333,40.64 1.00373333,42.432 Z" id="Path"></path>
                <path d="M15.1690667,5.664 C15.9797333,3.98933333 16.8330667,2.31466667 17.7077333,0.64 C16.8437333,2.304 15.9904,3.97866667 15.1690667,5.664 Z" id="Path"></path>
                <path d="M203.201067,209.12 C202.6464,208.906667 202.1024,208.704 201.547733,208.512 C202.327467,208.784 202.541867,208.866133 203.201067,209.12 Z" id="Path"></path>
            </g>
            <path d="M223.488,8.56853333 C244.193067,9.25333333 243.5136,40.3786667 222.797867,40.4992 C219.376,40.5194667 215.6992,40.5333333 211.7344,40.5333333 C145.6128,40.5333333 92.2677333,94.1621333 92.2677333,160 L92.2677333,380.021333 C79.5317333,385.536 68.5130667,394.272 60.2677333,405.205333 L60.2677333,128 C60.2677333,62.1610667 113.614933,8.53125196 179.7344,8.53125196 C225.191467,8.53125196 221.966933,8.5184 223.488,8.56853333 Z" id="Path" fill="#FFF4B6"></path>
            <path d="M250.273067,339.648 C223.9936,350.648533 195.1136,351.501867 166.795733,339.648 C168.242133,333.646933 168.001067,329.76 168.001067,322.133333 L168.161067,321.738667 C193.848533,332.401067 223.170133,332.4224 248.907733,321.738667 L249.067733,322.133333 C249.067733,329.7632 248.826667,333.649067 250.273067,339.648 Z" id="Path" fill="#A07765"></path>
            <path d="M119.403733,212.032 C119.905067,210.261333 120.449067,208.48 121.0144,206.698667 C120.459733,208.469333 119.915733,210.24 119.403733,212.032 Z" id="Path" fill="#C79A83"></path>
            <path d="M133.569067,175.264 C134.379733,173.589333 135.233067,171.914667 136.107733,170.24 C135.243733,171.904 134.3904,173.578667 133.569067,175.264 Z" id="Path" fill="#C79A83"></path>
            <path d="M194.446933,328.805333 C156.1632,323.693867 124.232533,298.037333 110.357333,263.104 C112.010667,240.629333 116.821333,214.261333 128.085333,187.328 C124.128,202.837333 122.016,217.664 121.024,231.104 C134.2624,264.434133 163.9648,289.36 199.9808,295.991467 C209.857067,297.810133 215.758933,308.0608 212.583467,317.5872 C210.0416,325.214933 202.417067,329.869867 194.446933,328.805333 L194.446933,328.805333 Z" id="Path" fill="#F2D1C2"></path>
            <path d="M321.601067,378.72 C321.0464,378.506667 320.5024,378.304 319.947733,378.112 C320.727467,378.384 320.941867,378.466133 321.601067,378.72 Z" id="Path" fill="#C79A83"></path>
            <path d="M246.5504,403.008 C251.147733,404.629333 256.107733,405.514667 261.259733,405.514667 C305.1264,405.514667 340.801067,441.073067 340.801067,485.056 L340.801067,503.466667 L364.267733,503.466667 C368.980267,503.466667 372.801067,499.645867 372.801067,494.933333 L372.801067,453.056 C372.801067,409.079467 337.133867,373.514667 293.259733,373.514667 C286.9984,373.514667 281.025067,372.213333 275.627733,369.866667 L275.627733,369.877333 C269.451733,383.925333 259.169067,395.36 246.5504,403.008 L246.5504,403.008 Z" id="Path" fill="#D9B29E"></path>
            <path d="M170.5184,403.008 C165.921067,404.629333 160.961067,405.514667 155.809067,405.514667 C111.9424,405.514667 76.2677333,441.073067 76.2677333,485.056 L76.2677333,503.466667 L52.8010667,503.466667 C48.0885333,503.466667 44.2677333,499.645867 44.2677333,494.933333 L44.2677333,453.056 C44.2677333,409.079467 79.9349333,373.514667 123.809067,373.514667 C130.0704,373.514667 136.043733,372.213333 141.441067,369.866667 L141.441067,369.877333 C147.617067,383.925333 157.899733,395.36 170.5184,403.008 Z" id="Path" fill="#F2D1C2"></path>
            <path d="M320.5344,503.466667 L95.4677333,503.466667 L95.4677333,379.754667 L95.1264,378.848 C117.941333,370.011733 125.408,376.837333 141.441067,369.866667 L141.441067,369.877333 C153.121067,396.448 179.521067,413.674667 208.5344,413.674667 C237.547733,413.674667 263.947733,396.448 275.627733,369.877333 L275.627733,369.866667 C291.410133,376.728533 298.318933,370.1824 320.609067,378.346667 C320.498133,380.439467 320.5344,370.2496 320.5344,503.466667 Z" id="Path" fill="#42434D"></path>
            <path d="M159.84,395.133867 C163.784533,398.634667 161.7664,405.514667 155.809067,405.514667 C132.074667,405.514667 110.32,415.9648 95.4677333,433.226667 L95.4677333,379.754667 L95.1264,378.848 C117.941333,370.011733 125.408,376.837333 141.441067,369.866667 L141.441067,369.877333 C145.764267,379.710933 152.0992,388.263467 159.84,395.133867 L159.84,395.133867 Z" id="Path" fill="#4D4E59"></path>
            <path d="M320.5344,432.021333 C305.963733,415.744 284.7904,405.514667 261.259733,405.514667 C256.107733,405.514667 251.147733,404.629333 246.5504,403.008 C260.376533,394.658133 270.069333,382.536533 275.627733,369.877333 L275.627733,369.866667 C291.242667,376.699733 298.624,370.228267 320.609067,378.346667 C320.523733,379.957333 320.523733,374.314667 320.5344,432.021333 L320.5344,432.021333 Z" id="Path" fill="#2C2C33"></path>
            <path d="M381.3344,453.0592 L381.3344,503.466667 C381.3344,508.1792 377.5136,512 372.801067,512 C368.088533,512 364.267733,508.1792 364.267733,503.466667 L364.267733,453.0592 C364.267733,426.901333 350.2144,404.114133 329.067733,391.722667 L329.067733,503.466667 C329.067733,508.1792 325.246933,512 320.5344,512 C315.821867,512 312.001067,508.1792 312.001067,503.466667 L312.001067,384.557867 C305.965867,382.916267 299.678933,382.050133 293.256533,382.050133 C274.6848,382.050133 257.8336,372.5888 248.181333,356.7392 C245.729067,352.714667 247.0048,347.464533 251.0304,345.013333 C255.0528,342.558933 260.304,343.835733 262.756267,347.8624 C269.2864,358.583467 280.689067,364.983467 293.256533,364.983467 C341.936,364.981333 381.3344,404.375467 381.3344,453.0592 L381.3344,453.0592 Z M51.7344,225.7984 L51.7344,357.333333 C51.7344,362.045867 55.5552,365.866667 60.2677333,365.866667 C64.9802667,365.866667 68.8010667,362.045867 68.8010667,357.333333 L68.8010667,198.032 C80.8981333,181.1584 95.2778667,165.857067 111.492267,152.775467 C115.159467,149.816533 115.7344,144.442667 112.775467,140.775467 C109.8176,137.108267 104.4448,136.5344 100.775467,139.492267 C89.2,148.830933 78.5002667,159.229867 68.8,170.4704 C68.8,123.458133 68.7605333,126.667733 68.912,123.154133 C91.4389333,112.775467 112.5952,98.3968 131.365333,79.6362667 C134.698667,76.3050667 134.699733,70.9024 131.368533,67.5690667 C128.036267,64.2346667 122.6336,64.2325333 119.301333,67.5658667 C105.3184,81.5413333 89.4176,93.3536 71.7034667,102.7424 C83.168,53.7013333 127.252267,17.0666667 179.7344,17.0666667 L221.3344,17.0666667 C251.918933,17.0666667 276.801067,41.9488 276.801067,72.5333333 L276.801067,75.7333333 C276.801067,80.4458667 280.621867,84.2666667 285.3344,84.2666667 L293.867733,84.2666667 C324.452267,84.2666667 349.3344,109.1488 349.3344,139.733333 L349.3344,349.866667 C349.3344,354.5792 353.1552,358.4 357.867733,358.4 C362.580267,358.4 366.401067,354.5792 366.401067,349.866667 L366.401067,139.733333 C366.401067,100.030933 334.229333,67.2 293.6736,67.2 C290.933333,29.6864 259.534933,0 221.3344,0 L179.7344,0 C114.736,0 60.9013333,48.6986667 52.7925333,111.524267 C38.448,117.294933 23.3962667,121.424 7.76853333,123.8336 C3.1104,124.551467 -0.0832,128.9088 0.634666667,133.566933 C1.28426667,137.784533 4.91946667,140.801067 9.05813333,140.801067 C10.8181333,140.801067 30.4064,137.885867 51.7354667,130.202667 L51.7354667,192.64 C25.1722667,231.499733 10.4821333,276.690133 9.072,324.0128 C8.93226667,328.7232 12.6368,332.657067 17.3472,332.795733 C21.9488,332.962133 25.9882667,329.307733 26.1312,324.520533 C27.1616,289.8944 35.792,256.461867 51.7344,225.7984 Z M250.257067,389.883733 C219.5872,415.7024 173.186133,407.774933 152.826667,373.3824 C165.877333,364.7648 175.019733,350.494933 176.353067,333.650133 C250.453333,355.378133 322.667733,298.7776 322.667733,224.781867 L322.667733,180.5184 C322.667733,133.463467 284.3872,95.1818667 237.3344,95.1818667 L215.522133,95.1818667 C218.500267,93.216 221.534933,91.3088 224.631467,89.4666667 C228.6816,87.0570667 230.011733,81.8197333 227.601067,77.7696 C225.192533,73.7205333 219.956267,72.3893333 215.904,74.8 C127.544533,127.3728 89.1946667,224.430933 104.096,323.403733 C104.7328,327.633067 108.372267,330.667733 112.523733,330.667733 C117.736533,330.667733 121.752533,326.039467 120.971733,320.862933 C109.442133,244.286933 131.796267,164.9152 192.916267,112.2496 L237.3344,112.2496 C274.977067,112.2496 305.601067,142.875733 305.601067,180.519467 L305.601067,224.1344 C305.601067,301.927467 218.279467,347.869867 154.2688,304.629333 C150.3648,301.989333 145.0592,303.0176 142.421333,306.922667 C139.783467,310.827733 140.810667,316.133333 144.715733,318.770133 C149.445333,321.965867 154.375467,324.782933 159.467733,327.211733 L159.467733,329.418667 C159.467733,338.925867 155.76,347.858133 149.0272,354.571733 C137.089067,366.4768 122.042667,364.983467 123.810133,364.983467 C75.1306667,364.983467 35.7344,404.375467 35.7344,453.0592 L35.7344,503.466667 C35.7344,508.1792 39.5552,512 44.2677333,512 C48.9802667,512 52.8010667,508.1792 52.8010667,503.466667 L52.8010667,453.0592 C52.8010667,427.3632 66.3605333,404.9056 86.9344,392.356267 L86.9344,503.466667 C86.9344,508.1792 90.7552,512 95.4677333,512 C100.180267,512 104.001067,508.1792 104.001067,503.466667 L104.001067,384.852267 C118.541867,380.6528 125.687467,383.3216 137.152,380.352 C162.2272,425.163733 221.928533,436.039467 261.249067,402.939733 C264.8544,399.904 265.316267,394.520533 262.2816,390.916267 C259.246933,387.309867 253.860267,386.849067 250.257067,389.883733 Z" id="Shape" fill="#000000"></path>
        </g>
    </g>
</svg>