<?xml version="1.0" encoding="UTF-8"?>
<svg width="324px" height="480px" viewBox="0 0 324 480" version="1.1" xmlns="http://www.w3.org/2000/svg" xmlns:xlink="http://www.w3.org/1999/xlink">
    <!-- Generator: Sketch 55.2 (78181) - https://sketchapp.com -->
    <title>010-woman</title>
    <desc>Created with Sketch.</desc>
    <g id="Page-1" stroke="none" stroke-width="1" fill="none" fill-rule="evenodd">
        <g id="010-woman" transform="translate(-1.000000, 0.000000)" fill-rule="nonzero">
            <path d="M317.001,424.74 L317.001,464 C317.001,468.42 313.421,472 309.001,472 L17.001,472 C12.581,472 9.001,468.42 9.001,464 L9.001,424.74 C9.001,400.27 20.791,378.55 39.001,364.95 L39.001,107.5 C39.001,52.55 83.551,8 138.501,8 L188.501,8 C243.451,8 288.001,52.55 288.001,107.5 L288.001,365.72 C305.641,379.35 317.001,400.72 317.001,424.74 Z" id="Path" fill="#FFDFBA"></path>
            <path d="M317.001,464 C317.001,468.42 313.421,472 309.001,472 L17.001,472 C12.581,472 9.001,468.42 9.001,464 L9.001,424.74 C9.001,383.603 42.345,350.17 83.571,350.17 C92.721,350.17 101.181,347.21 108.041,342.19 L109.841,353.84 L158.101,391.21 C160.991,393.44 165.011,393.44 167.901,391.21 L216.161,353.84 L217.961,342.19 C224.821,347.21 233.281,350.17 242.431,350.17 C283.511,350.17 317.001,383.474 317.001,424.74 L317.001,464 Z" id="Path" fill="#1E1E1E"></path>
            <path d="M216.161,353.84 L197.961,472 L128.041,472 L109.841,353.84 L158.103,391.208 C160.986,393.441 165.015,393.441 167.898,391.208 L216.161,353.84 Z" id="Path" fill="#FCEFD6"></path>
            <path d="M262.001,210.13 L262.001,160.817 C262.001,157.455 259.907,154.448 256.745,153.304 C239.344,147.011 224.653,134.887 215.209,118.69 C212.453,113.964 205.897,113.273 202.317,117.409 C169.357,155.492 123.918,180.667 71.049,187.097 C67.027,187.586 64.001,190.985 64.001,195.036 L64.001,210.128 C64.001,251.398 89.251,286.768 125.151,301.628 L125.001,301.998 L125.001,308.828 C125.001,331.724 106.396,350.168 83.571,350.168 C66.861,350.168 51.441,355.668 39.001,364.948 C39.001,356.965 39.001,99.921 39.001,107.498 C39.001,52.546 83.549,7.998 138.501,7.998 L188.501,7.998 C243.453,7.998 288.001,52.546 288.001,107.498 L288.001,365.718 C275.401,355.968 259.591,350.168 242.431,350.168 C219.631,350.168 201.001,331.748 201.001,308.828 L201.001,302 L200.851,301.63 C236.751,286.77 262.001,251.4 262.001,210.13 Z" id="Path" fill="#C7A483"></path>
            <path d="M256.744,153.305 C259.906,154.448 262,157.455 262,160.818 L262,210.131 C262,251.401 236.75,286.771 200.85,301.631 C135.933,328.578 64,280.707 64,210.131 L64,195.039 C64,190.987 67.026,187.589 71.048,187.1 C123.887,180.674 169.336,155.517 202.316,117.412 C205.896,113.275 212.452,113.967 215.208,118.693 C224.645,134.875 239.329,147.007 256.744,153.305 Z" id="Path" fill="#FFEBD2"></path>
            <path d="M202.131,318.42 C177.494,328.733 150.419,329.533 123.871,318.42 C125.227,312.794 125.001,309.15 125.001,302 L125.151,301.63 C149.233,311.626 176.722,311.646 200.851,301.63 L201.001,302 C201.001,309.153 200.775,312.796 202.131,318.42 Z" id="Path" fill="#FFD6A6"></path>
            <path d="M225.973,15.297 C238.161,20.256 234.123,38.35 220.968,38.03 C218.951,37.981 167.496,38 168.5,38 C113.548,38 69,82.548 69,137.5 L69,181.897 C69,189.188 64,189.386 64,195.04 C64,211.028 63.253,222.924 68.432,239.515 C68.798,240.687 69,241.905 69,243.133 L69,342.385 C69,347.51 65.748,352.13 60.866,353.691 C52.916,356.232 45.548,360.068 39,364.951 L39,107.5 C39,52.548 83.548,8 138.5,8 L188.5,8 C201.758,8 214.409,10.592 225.973,15.297 Z" id="Path" fill="#E0C3A3"></path>
            <path d="M140.991,273.393 C157.678,283.779 144.498,309.395 126.255,302.08 C89.225,287.233 64.001,251.292 64.001,210.129 L64.001,195.039 C64.001,190.994 67.014,187.589 71.03,187.102 C74.82,186.642 78.737,186.063 82.758,185.349 C88.537,184.322 93.974,188.452 94.48,194.3 C97.644,230.889 116.174,257.948 140.991,273.393 L140.991,273.393 Z" id="Path" fill="#FFF3E4"></path>
            <path d="M113.741,379.15 C66.851,380.354 38.001,415.659 38.001,453.74 L38.001,472 L17.001,472 C12.583,472 9.001,468.418 9.001,464 L9.001,424.74 C9.001,383.603 42.345,350.17 83.571,350.17 C92.721,350.17 101.181,347.21 108.041,342.19 C110.315,356.91 109.119,349.156 113.741,379.15 Z" id="Path" fill="#151515"></path>
            <path d="M212.261,379.15 C259.151,380.354 288.001,415.659 288.001,453.74 L288.001,472 L309.001,472 C313.419,472 317.001,468.418 317.001,464 L317.001,424.74 C317.001,383.603 283.657,350.17 242.431,350.17 C233.281,350.17 224.821,347.21 217.961,342.19 C215.686,356.91 216.882,349.156 212.261,379.15 Z" id="Path" fill="#151515"></path>
            <polygon id="Path" fill="#FEF7C5" points="148.041 472 128.041 472 109.841 353.84 132.551 371.42"></polygon>
            <path d="M325.001,424.743 L325.001,472 C325.001,476.418 321.419,480.001538 317.001,480.001538 C312.583,480.001538 309.001,476.418 309.001,472 L309.001,424.743 C309.001,387.949 279.226,358.171 242.428,358.172 C236.023,358.172 229.84,356.962 224.126,354.705 L205.866,473.219 C205.194,477.588 201.106,480.58 196.742,479.907 C192.375,479.234 189.381,475.149 190.054,470.782 L209.354,345.517 C205.837,342.341 202.726,338.641 200.17,334.444 C197.871,330.671 199.066,325.749 202.84,323.45 C206.612,321.15 211.535,322.347 213.834,326.12 C219.893,336.066 230.595,342.171 242.428,342.171 C288.064,342.171 325.001,379.101 325.001,424.743 L325.001,424.743 Z M192.861,371.883 C190.155,368.39 185.131,367.749 181.637,370.455 L163,384.883 L117.256,349.468 L116.645,345.505 C125.844,337.219 131.806,325.765 132.83,312.787 C201.126,332.893 269.449,281.64 269.996,210.963 C270.001,210.785 269.999,155.178 269.999,155 C269.999,152 268.276,149.141 265.448,147.79 C263.703,146.953 231.305,139.992 217.434,105.049 C215.152,99.297 207.422,98.189 203.638,103.148 C174.363,141.521 132.791,167.153 86.194,176.389 C81.86,177.248 79.044,181.458 79.902,185.792 C80.658,189.601 84.001,192.238 87.741,192.238 C89.751,192.238 157.097,182.282 208.325,122.766 C218.978,140.986 235.289,154.029 253.999,160.81 L253.999,210.126 C253.999,260.304 213.177,301.126 162.999,301.126 C116.035,301.126 71.999,264.623 71.999,207.001 C71.999,202.583 68.417,199.001 63.999,199.001 C59.581,199.001 55.999,202.583 55.999,207.001 C55.999,207.415 55.991,211.418 56.012,211.816 C56.664,253.641 81.436,289.72 116.999,306.724 L116.999,308.831 C116.999,317.744 113.523,326.118 107.212,332.412 C95.98,343.611 81.487,342.173 83.57,342.173 C70.67,342.173 58.231,345.132 46.999,350.692 L46.999,107.5 C46.999,57.047 88.046,16 138.499,16 L188.499,16 C238.952,16 279.999,57.047 279.999,107.5 L279.999,324 C279.999,328.418 283.581,332 287.999,332 C292.417,332 295.999,328.418 295.999,324 L295.999,107.5 C295.999,48.224 247.774,-5.68434189e-14 188.499,-5.68434189e-14 L138.499,-5.68434189e-14 C79.224,-5.68434189e-14 30.999,48.224 30.999,107.5 L30.999,361.07 C11.855,376.934 0.999,399.962 0.999,424.743 L0.999,472 C0.999,476.418 4.581,480 8.999,480 C13.417,480 16.999,476.418 16.999,472 L16.999,424.743 C16.999,406.961 23.924,390.243 36.498,377.669 C58.722,355.445 86.972,358.171 83.573,358.171 C89.943,358.171 96.125,356.966 101.871,354.683 L120.134,473.217 C120.742,477.171 124.15,480 128.03,480 C132.953,480 136.691,475.618 135.946,470.781 L120.795,372.442 L158.102,401.325 C160.991,403.561 165.019,403.554 167.897,401.325 L191.431,383.105 C194.925,380.401 195.565,375.376 192.861,371.883 L192.861,371.883 Z" id="Shape" fill="#000000"></path>
        </g>
    </g>
</svg>