<svg enable-background="new 0 0 960 960" height="512" viewBox="0 0 960 960" width="512" xmlns="http://www.w3.org/2000/svg"><g id="stroke" display="none"><g display="inline"><g><path d="m636.8 461.1c13.6-.3 27.2-.7 40.8-1.2 8.6-.3 17.2-.5 25.7-1.4 14.9-1.6 29.7-3.5 44.4-6 5-.8 10.3-1.4 15-3.5 8.6-3.8 16.1-10.4 20-18.9 8-17.4 3.3-38 .8-56.1-6.5-46.1-17.1-91.2-31-135.6-7.4-23.7-15.5-47.3-23.7-70.8-2.9-8.3-7.4-16.3-12.8-23.3-2.6-3.4-5.5-6.6-9.3-8.8-3.9-2.2-8.3-3.9-12.6-5.3-9.7-3.2-19.6-5.1-29.8-5.7-13.9-.7-27.7-1.2-41.6-1.6-26.1-.7-52.2-.9-78.2-.9-49.6 0-99.3-.1-148.9.9-17.9.4-35.8 1-53.7 1.5-20.9.6-42.3 0-61.7 8.9-10.4 4.8-19 12.4-24.4 22.6-5.9 11.2-9.5 23.8-13.5 35.8-8.4 25.3-15.7 50.9-21.6 76.9-10.6 46.4-16.4 93.5-19.6 141-.9 13.3.9 29.8 14.2 36.6 4.5 2.2 9.1 2.8 14 3.4 6.5.8 13 1.5 19.4 2.2 11.5 1.3 23.1 2.5 34.7 3.4 10.8.8 21.5 1.4 32.3 1.7 5.8.1 5.8-8.9 0-9-21.9-.5-43.7-2.5-65.5-4.9-6.2-.7-12.5-1.4-18.7-2.1-4.2-.5-8.6-.7-12.4-2.8-5.3-2.9-7.5-8.2-8.6-14.2-1-5.3-.7-11.6-.1-17.4.8-8.3 1.2-16.6 1.9-24.9 2.1-26 5.6-51.8 10.3-77.4 4.7-25.4 10.6-50.6 17.7-75.4 3.6-12.5 7.4-24.9 11.6-37.2 3.8-11.3 7.2-23.6 13.4-33.9 11.1-18.4 35.1-22.8 54.9-23.6 17.6-.6 35.2-1 52.8-1.5 44.6-1.2 89.2-1.3 133.8-1.4 51.6-.2 103.2-.3 154.7 2.3 9.9.5 19.2 2 28.7 5 4.1 1.3 8.3 2.8 12 4.9 3 1.7 5.3 4.4 7.4 7.3 5.3 7.3 9.1 15.1 12 23.4 4.1 11.7 8.1 23.5 12 35.2 14.2 42.2 26.8 84.9 35 128.7 2.2 11.7 4.1 23.4 5.8 35.2 1.5 10.2 3.2 20.6 3.7 30.9.3 7.3-.1 14.9-3.2 21.6-1.7 3.7-4.1 6.8-7.1 9.5-1.6 1.4-3.3 2.6-5.1 3.6-1.1.7-2.3 1.2-3.4 1.8-1.6.8.7-.1-.7.3-12.3 3.1-25 4.7-37.5 6.3-6.3.8-12.7 1.6-19 2.3-9 .9-18.1 1-27.2 1.3-12.7.5-25.3.8-38 1.1-5.9.3-5.9 9.3-.1 9.2z"/></g></g><g display="inline"><g><path d="m364.3 457.2c30.4.3 60.8.9 91.1 1.7 27.9.7 55.8 1.6 83.7 2.1 15.9.3 31.8.5 47.7.5 2.4 0 4.6-2.1 4.5-4.5s-2-4.5-4.5-4.5c-28.1-.1-56.3-.6-84.4-1.4-28.5-.7-57-1.6-85.6-2.2-17.5-.4-35.1-.6-52.6-.8-2.4 0-4.6 2.1-4.5 4.5.3 2.5 2.1 4.5 4.6 4.6z"/></g></g><g display="inline"><g><path d="m225.8 448.6c-1.1 50.3-2.3 100.6-4.2 150.9-1.8 50-4.4 100-7.8 149.9-1.6 23.9-4.4 47.8-4.8 71.7-.2 10.3 0 20.6.6 30.8.6 8.7 1.2 17.6 3.7 26 2.6 8.7 7.6 16.3 14.9 21.8 8.4 6.4 18.7 9.2 29.1 10.4 12 1.4 24.2 1.4 36.3 2.1 11.2.7 22.4 1 33.6 1.1 23.9.2 47.7-.3 71.6-.3 23.6 0 47.1 1 70.7 1.7 47.5 1.3 95 2 142.6 1.4 25.7-.3 51.4-1 77-1.9 11.6-.4 23.4-.5 34.9-1.9 9.2-1.1 17.5-3.2 25.2-8.4 4-2.7 8.1-5.5 11.2-9.2 3.9-4.6 6.5-10.1 8-15.9 2.3-8.8 2.7-18.1 2.6-27.2-.1-13.6-1-27.2-1.2-40.8-.5-28.2-.2-56.4-1.1-84.6-.8-27.9-3.7-55.6-5.6-83.5-3.5-51.4-4.9-102.8-8.3-154.2-.9-13.3-1.9-26.6-3.1-39.9-.5-5.7-9.5-5.8-9 0 4.6 51.3 6.4 102.7 9.1 154.1 1.4 26.5 3.1 52.9 5.4 79.3 2.4 27.6 2.9 55.2 3.2 82.9.1 13.8.2 27.7.4 41.5.2 13.7.9 27.3 1.2 41 .2 9.1.2 18.5-1.9 27.4-.3 1.5-.7 3-1.2 4.4-.6 1.7-.8 2.4-1.4 3.5-.5 1.1-1.1 2.2-1.8 3.2-.3.5-.7 1.1-1.1 1.6-.1.2-.5.7 0 0-.2.3-.5.6-.7.8-1.5 1.7-3.1 3.2-4.9 4.6-.9.7.5-.4-.1.1-.2.2-.5.4-.7.5-.4.3-.8.6-1.2.8-1 .7-2 1.4-3 2.1-7.4 4.9-15.6 6.5-24.3 7.3-11.6 1.1-23.4 1.2-35.1 1.6-13 .5-25.9.9-38.9 1.2-47.2 1.1-94.4 1-141.6.1-24.2-.5-48.3-1.2-72.5-2-22.7-.7-45.5-.5-68.2-.3s-45.4.4-68-.9c-12-.7-24.2-.7-36.2-2-9.5-1-19.3-3.5-26.8-9.6-13.3-10.8-13.6-30-14.3-45.7-.9-21.1.5-41.9 2.1-63 3.8-50.4 6.8-100.9 9-151.5 2.1-48.4 3.4-96.8 4.6-145.3.3-12.5.6-25.1.9-37.6.2-5.9-8.8-5.9-8.9-.1z"/></g></g><g display="inline"><g><path d="m422.9 126.2c-.3-4.6-.4-9.3-.2-14 .1-2.3.2-4.6.5-6.9.1-1.2.3-2.3.4-3.5-.1.8.1-.6.1-.8.1-.7.2-1.3.3-2 .8-4.6 1.8-9.1 3.2-13.5.7-2.2 1.4-4.3 2.3-6.4.2-.5.4-1.1.7-1.6-.3.7.2-.6.3-.7.5-1.1 1-2.3 1.6-3.4 1.8-3.6 3.8-7.1 6.1-10.4.6-.8 1.2-1.7 1.8-2.5.1-.2.2-.3.3-.5.4-.5-.4.5 0 0 .4-.4.7-.9 1.1-1.3 1.3-1.5 2.6-3 3.9-4.4 1.4-1.5 2.9-2.9 4.4-4.2.7-.6 1.4-1.3 2.2-1.9.3-.3.7-.6 1-.8.1-.1.7-.6.3-.2-.5.4.4-.3.5-.3 3.2-2.4 6.6-4.5 10.2-6.3.8-.4 1.7-.8 2.6-1.2.2-.1.5-.2.7-.3-.2.1-.8.3 0 0 .5-.2.9-.4 1.4-.6 1.9-.7 3.8-1.4 5.8-1.9 1.9-.5 3.8-.9 5.7-1.2.2 0 .5-.1.8-.1.1 0 .9-.1.3-.1-.6.1.1 0 .2 0 .3 0 .5-.1.8-.1 1-.1 2-.2 3-.2 2-.1 4.1-.1 6.1 0 .9 0 1.9.1 2.8.2.4 0 .9.1 1.3.1.9.1.1 0-.1 0 .4.1.8.1 1.1.2 3.9.6 7.6 1.6 11.3 3 .5.2.9.4 1.4.6-.8-.3.2.1.5.2 1 .4 1.9.9 2.9 1.4 1.7.9 3.4 1.9 5 3 .4.2.7.5 1.1.8.2.1.4.3.6.5-.7-.5-.2-.1 0 0 .8.6 1.6 1.3 2.3 2 1.5 1.3 2.9 2.8 4.2 4.3.3.4.6.8 1 1.1.1.1.9 1.1.6.7s.4.6.5.7c.3.4.6.9 1 1.4 1.1 1.6 2.1 3.3 3.1 5 .9 1.7 1.7 3.4 2.5 5.1.1.2.3.8 0-.1.1.2.2.5.3.7.2.4.3.8.5 1.2.4 1 .7 2 1.1 3 1.2 3.7 2.2 7.5 3 11.3.4 2 .8 4 1.1 6 .1 1 .3 1.9.4 2.9.1.5 0-.2 0-.2 0 .3.1.5.1.8.1.6.1 1.2.2 1.7 1 8.3 1.4 16.7 1.8 25.1.1 2.5.2 5.1.4 7.6.1 2.3 2 4.6 4.5 4.5 2.3-.1 4.6-2 4.5-4.5-.9-17.7-1.1-35.9-5.9-53.1-2.2-8-5.5-15.8-10.3-22.5-5.1-7.1-11.6-13.1-19.4-17.1-15.3-7.9-34.1-8.8-50.1-2.6-16.3 6.2-29.8 18.4-38.7 33.3-10 16.8-14 36.6-13.7 56 0 2.4.1 4.7.3 7.1.2 2.3 2 4.6 4.5 4.5 1.7-.2 4-2.1 3.9-4.6z"/></g></g><g display="inline"><g><path d="m448.5 123.6c0-5.4.4-10.8.9-16.2.1-1.4.3-2.9.5-4.3 0-.3.1-.6.1-.9 0 .1.2-1.3.1-.7s.1-.8.1-.7c.1-.4.1-.9.2-1.3.4-2.7.9-5.4 1.4-8 .6-2.6 1.2-5.3 2-7.8.4-1.2.8-2.5 1.2-3.7.2-.4.3-.8.5-1.2-.1.2-.3.7.1-.1.3-.7.7-1.4 1-2.1.6-1.2 1.4-2.3 2.1-3.5.5-.7.2-.2.1-.1.2-.3.4-.5.7-.8.5-.6 1-1.2 1.6-1.7.9-1 1.9-1.9 3-2.7.5-.4 1-.8 1.5-1.2-.6.5.1-.1.3-.2.4-.3.8-.6 1.2-.9 2.2-1.6 4.5-3 7-4.3.3-.2.6-.3 1-.5.2-.1 1-.4.3-.1.6-.2 1.2-.5 1.8-.7 1.4-.5 2.9-.8 4.3-1.1-.2 0-.8.1 0 0 .3 0 .6-.1 1-.1h1.7c.6 0 1.3.1 1.9.1.2 0 .8.2-.1 0 .4.1.8.1 1.1.2 1.3.3 2.5.6 3.7 1 .3.1 1.5.6.7.3.7.3 1.4.7 2.1 1 1 .6 2 1.2 3 1.8.3.2.5.4.8.6.6.4-.8-.7.2.1.5.4 1 .8 1.5 1.3 1 .9 1.9 1.8 2.7 2.8.2.2.3.4.5.6 0 0 .8 1 .4.5s.4.6.4.5c.2.3.5.7.7 1 .7 1 1.3 2.1 1.9 3.2.3.6.7 1.2 1 1.9.1.3.2.5.4.8.1.3.2.5.3.8-.2-.4-.2-.4 0-.1 1 2.6 1.9 5.2 2.6 7.8.4 1.5.7 3 1 4.6.1.7.2 1.4.4 2.1.1.4.1.8.2 1.3.1 1-.1-.6.1.5.4 3.3.7 6.6.8 9.9.4 6.7.5 13.5 1.1 20.2.2 2.3 1.9 4.6 4.5 4.5 2.2-.1 4.7-2 4.5-4.5-1.2-12.7-.7-25.5-3.2-38-2.5-11.9-8.1-23.4-18.4-30.3-4.8-3.3-10.6-5.3-16.5-5.5-6.3-.2-12.5 2.1-17.9 5.3-5.1 3.1-10.2 6.8-13.9 11.5-4.1 5.2-6.5 11.2-8.2 17.6-3.3 12.7-4.7 26.2-4.8 39.4 0 2.4 2.1 4.6 4.5 4.5 2.3-.1 4.3-1.9 4.3-4.4z"/></g></g><g display="inline"><g><path d="m256.4 155.9c-18.8-.7-37.7-1.1-56.5-1.1-10.4 0-20.9-.2-31.2.5-1.3.1-2.7.2-4 .6-1.9.7-3.6 1.8-5.1 3.2-2.9 2.8-4.9 6.6-6.5 10.2-4.7 10.7-7.4 22.3-9.7 33.8-2.5 12.6-4.3 25.4-5.5 38.3-1 10.9-1.2 21.9-1.2 32.9 0 15.6.2 31.1.8 46.7.5 14.1 1.2 28.3 3.1 42.3.9 6.8 1.7 13.7 5.8 19.4 5 7 12.6 11.4 21.2 12 5.2.4 10.5.2 15.7 0 3.8-.1 7.6-.2 11.4-.1 4 0 8 .1 12 .3 2.4.1 4.6-2.1 4.5-4.5-.1-2.5-2-4.4-4.5-4.5-6.3-.2-12.5-.4-18.8-.3-3.3.1-6.7.2-10 .2-3.2 0-6.4.1-9.5-.1-.4 0-.8-.1-1.2-.1-1-.1.2 0 .2 0s-.6-.1-.7-.1c-1-.2-1.9-.4-2.8-.7-.4-.1-.8-.2-1.1-.4-.2-.1-.4-.2-.6-.2.1 0 .9.4.1.1-.8-.4-1.6-.8-2.4-1.2-.4-.2-.8-.5-1.1-.7-.2-.2-1.3-1-.4-.3-.7-.6-1.4-1.1-2-1.8-.6-.6-1.1-1.2-1.7-1.9-.4-.5.4.6.1.1-.1-.2-.3-.4-.4-.5-.3-.4-.6-.8-.8-1.3-.4-.7-.8-1.5-1.2-2.3-.1-.1-.4-.8-.1-.2.2.5 0 0 0-.1-.2-.5-.4-1.1-.6-1.6-.4-1.4-.7-2.8-.9-4.3-.2-1.3-.4-2.5-.6-3.8 0-.3-.1-.6-.1-.9 0-.2 0-.3-.1-.5-.1-.8 0 .4.1.4-.1-.7-.2-1.4-.3-2.1-.4-3.1-.7-6.2-1-9.4-.6-7.1-1.1-14.2-1.4-21.3-.8-15.5-1.1-31.1-1.2-46.6-.1-11.6-.3-23.4.5-35 .4-5.5.9-11 1.6-16.4.2-1.5.4-3 .6-4.6 0-.3.1-.7.1-1 .2-1.1-.1.9 0-.3.1-.8.2-1.6.3-2.3.4-3.1.9-6.2 1.4-9.4 2-11.9 4.4-23.8 8.2-35.2.4-1.2.8-2.4 1.3-3.6.2-.5.4-1.1.6-1.6.1-.2.2-.5.3-.7-.4 1.4-.2.4 0 0 .8-1.9 1.8-3.8 2.9-5.5.2-.4.5-.7.7-1.1.1-.2.3-.4.4-.5 0-.1.1-.1.1-.2.4-.6-.3.4-.4.5.5-.6 1-1.2 1.6-1.7.2-.2.5-.4.7-.7-1 1-.5.4 0 0 .2-.2.5-.3.8-.4-1.2.7-.8.3-.1.1.1 0 .3 0 .4-.1.6-.2-1.1.1-.8.1.2 0 .4 0 .6-.1.5 0 1.1-.1 1.6-.1 1.6-.1 3.3-.2 4.9-.2 5.4-.2 10.7-.2 16.1-.3 17-.1 34 .1 51 .6 5 .1 10.1.3 15.1.5 2.4.1 4.6-2.1 4.5-4.5-.4-2.4-2.2-4.3-4.8-4.4z"/></g></g><g display="inline"><g><path d="m723 164c17.3-.7 34.7-.2 52.1-.2 4.4 0 8.8 0 13.2-.1 3.3-.1 6.6-.4 9.9-.5 1.8-.1 3.6-.1 5.4 0 .8 0 1.6.1 2.4.2.5.1-.3 0-.3 0 .2 0 .4.1.5.1.5.1.9.2 1.4.3.6.1 1.6.3 2.1.7 0 0-.8-.4-.3-.1.1.1.3.1.4.2.4.2.8.5 1.2.7.7.4 1.3.9 1.9 1.3.4.3-.2-.1-.2-.2.1.1.3.2.4.3.4.3.7.6 1.1.9 1.2 1.1 2.2 2.3 3.2 3.5-.5-.6-.1-.1.2.2.2.3.5.7.7 1 .5.7.9 1.4 1.3 2.1.8 1.4 1.6 2.9 2.2 4.4.2.3.3.7.4 1-.4-.8.1.2.2.5.3.8.6 1.6.9 2.4 1.8 5.2 3.1 10.6 4.2 15.9 1 4.7 1.8 9.3 2.6 14 .4 2.6.8 5.2 1.2 7.8.2 1.3.4 2.7.6 4 .1.7.2 1.3.3 2 0 .4.1.7.1 1.1 0 .1.1.7 0 0s0 0 0 .2c1.6 11.9 2.8 23.9 3.6 36 .9 12.6 1.4 25.2 1.4 37.8 0 12-.4 24.1-1.5 36.1-.3 2.8-.6 5.6-.9 8.3-.1.8.1-.9 0 .2 0 .3-.1.6-.1.9-.1.7-.2 1.4-.3 2.1-.2 1.3-.4 2.6-.6 3.9-.8 4.9-1.9 9.7-3.2 14.4-.6 2.2-1.3 4.4-2.1 6.5-.4 1-.7 2-1.1 3-.1.2-.2.4-.3.6.2-.6.4-.8.1-.1-.2.5-.5 1-.7 1.5-.5.9-1 1.8-1.5 2.6-.1.2-.2.4-.4.5-.1.2-.7.9-.1.2.5-.6 0 0-.1.1-.2.2-.4.4-.5.6-.6.6-1.4 1.2-1.9 1.8.2-.3.9-.6.3-.2-.2.1-.4.3-.6.4-.4.3-.8.5-1.2.7s-.8.4-1.1.6c-.2.1-.4.2-.6.2 0 0 1.1-.4.5-.2-.1 0-.3.1-.4.1-.9.3-1.8.6-2.8.9s-2 .5-3.1.6c-.2 0-.5 0-.7.1 1.3-.4.5-.1.1 0-.6.1-1.2.1-1.8.2-5.7.5-11.5.4-17.2.3-3.6-.1-7.2-.1-10.9-.2-2.4 0-4.6 2.1-4.5 4.5.1 2.5 2 4.5 4.5 4.5 7 .1 13.9.3 20.9.2 5.1-.1 10.4-.3 15.3-1.6 4.2-1.1 8.2-3.2 11.3-6.4 3.3-3.5 5.2-7.8 6.9-12.3 3.5-9.3 5.4-19.2 6.7-29.1 1.7-12.2 2.5-24.4 2.7-36.7.3-12.9 0-25.7-.8-38.6-.7-12.5-1.8-25-3.3-37.4-1.3-11.1-2.9-22.3-5-33.3-2.2-11.4-4.5-23.4-10.7-33.4-3.7-6-9.3-11.7-16.3-13.6s-14.3-.7-21.4-.4c-8.9.3-17.9.1-26.8 0-8.8-.1-17.7-.2-26.5-.1-4.3.1-8.5.2-12.8.3-2.3.1-4.6 2-4.5 4.5.3 2.5 2.2 4.8 4.7 4.7z"/></g></g><g display="inline"><g><path d="m224.2 588.6c-4.7-.7-9.5-.6-14.3-.6-7 0-13.9.2-20.9.5-6.6.3-13.2.6-19.8 1.2-7.2.6-14.2 1.8-20.9 4.6-8.6 3.6-16.4 10-20.4 18.5-4.7 10-4.8 21.3-5.2 32.1-.2 5.8-.5 11.6-.7 17.3-.2 5.2-.8 10.5-.2 15.7.6 5.7 2.9 10.7 7.7 14 4 2.7 9 3.5 13.7 3.8 5.2.4 10.5.3 15.7.4 5.3.1 10.7.2 16 .2 10.7.1 21.4.1 32.1.1 2.8 0 5.7-.1 8.5-.1 2.4 0 4.6-2 4.5-4.5-.1-2.4-2-4.5-4.5-4.5-20.9.3-41.9.1-62.8-.3-2.6-.1-5.1-.1-7.7-.2-1 0-2-.1-2.9-.2-.5 0-1-.1-1.5-.2 1.1.1-.6-.1-1-.2-.9-.2-1.9-.4-2.8-.7-.3-.1-1.5-.6-.6-.2-.5-.2-1-.5-1.5-.8-.4-.2-.8-.5-1.1-.8.9.6-.2-.2-.4-.4s-1-1.2-.5-.5c-.4-.5-.7-1.1-1-1.7-.1-.2-.3-.8 0 0-.1-.2-.2-.5-.3-.7-.2-.5-.3-1-.4-1.5s-.2-1-.3-1.5c.1.9 0 .2 0 0 0-.4-.1-.8-.1-1.2-.1-2.4 0-4.7.1-7.1.2-5.6.5-11.2.7-16.9.2-5.4.4-10.9.7-16.3.1-2.5.3-5 .6-7.4 0-.1.1-.9 0-.1 0-.3.1-.6.1-.9.1-.6.2-1.1.3-1.7.2-1.3.5-2.5.9-3.8.3-1.1.7-2.2 1.1-3.3.1-.3.2-.5.3-.8-.1.2-.3.7.1-.1.3-.7.6-1.3 1-1.9.5-.9 1-1.8 1.6-2.6l.9-1.2c-.1.1-.6.7 0 0 .2-.2.4-.5.6-.7 1.4-1.6 2.9-3 4.5-4.4.5-.4-.6.4 0 0 .3-.2.5-.4.8-.6.4-.3.8-.6 1.2-.8.9-.6 1.8-1.1 2.7-1.6s1.9-1 2.9-1.4c.3-.1 1.6-.6.7-.3.5-.2 1.1-.4 1.6-.6 2-.7 4.1-1.3 6.2-1.8 1-.2 2.1-.4 3.2-.6.3 0 .5-.1.8-.1 1-.2-1.2.1-.3 0 1.1-.1 2.1-.3 3.2-.4 6-.6 12.1-.9 18.1-1.2 6.8-.3 13.7-.6 20.5-.7 5.1-.1 10.3-.2 15.4.2.4 0 .8.1 1.2.1.2 0 .3 0 .5.1.7.1-1.4-.2-.6-.1 2.3.4 5-.6 5.5-3.1.1-2.1-1-5.1-3.5-5.5z"/></g></g><g display="inline"><g><path d="m133.6 691.8c-1.4 11.7-1.9 23.6-2.4 35.3-.7 15.6-1.1 31.1-1.4 46.7-.3 13.6-.5 27.2-.5 40.9v20.5c0 5.4.3 10.8 1.6 16.1.7 2.8 1.7 5.5 3 8 1.1 2.1 2.8 4 4.4 5.7 1.7 1.7 3.5 3.3 5.6 4.5 2.4 1.4 5.2 2.2 8 2.6 5.9 1 11.9 1.6 17.9 1.9 11.6.7 23.2.3 34.7-1.2 3.1-.4 6.3-.9 9.4-1.4 2.3-.4 3.8-3.4 3.1-5.5-.8-2.5-3-3.6-5.5-3.1-1.4.2-2.9.5-4.3.7-.6.1-1.3.2-1.9.3.2 0 .7-.1-.2 0-.5.1-1 .1-1.4.2-2.8.3-5.6.6-8.5.8-5.7.4-11.3.6-17 .5s-11.5-.4-17.2-1.1c-1.3-.1-2.6-.3-3.9-.5.7.1-.3 0-.5-.1-.3 0-.6-.1-.9-.1-.7-.1-1.4-.2-2.1-.3-1.2-.2-2.4-.5-3.5-.9-.3-.1-.5-.2-.8-.3.7.3 0 0-.1-.1-.5-.3-1.1-.6-1.6-1-.6-.4 0 0 .1.1-.2-.1-.4-.3-.6-.4-.4-.4-.9-.7-1.3-1.1-.9-.8-1.8-1.7-2.6-2.7-.2-.2-.3-.4-.5-.6.1.1.5.7 0 0-.2-.4-.5-.7-.7-1.1-.3-.5-.5-1-.8-1.5 0-.1-.4-.9-.2-.5s-.2-.6-.3-.7c-.9-2.4-1.5-4.9-1.9-7.5 0-.3-.1-.6-.1-.8.1.8 0 .1 0-.1-.1-.6-.1-1.3-.2-1.9-.1-1.3-.2-2.6-.2-3.9-.2-7.3 0-14.6 0-21.8 0-13 .2-26.1.4-39.1.3-15.4.7-30.7 1.3-46.1.5-12.2 1-24.4 2.2-36.6.1-1 .2-2.1.3-3.1.3-2.3-2.3-4.6-4.5-4.5-2.6.5-4.1 2.3-4.4 4.8z"/></g></g><g display="inline"><g><path d="m755.6 600.6c15 .8 30 1.1 45 1.7 3.4.1 6.8.3 10.3.4 1.6.1 3.2.2 4.8.2 1.2.1 2.4.1 3.6.3.6 0 1.1.1 1.7.2.3 0 .6.1.9.1-.9-.1.4.1.5.1 2.4.4 4.7.9 7 1.8.8.3.3.1.1 0 .3.1.5.2.8.4.5.2 1 .5 1.5.8s1 .6 1.4.9c.1.1.8.5.3.2s.3.3.4.3c.8.7 1.6 1.4 2.3 2.2.4.4.7.8 1.1 1.3-.1-.1-.5-.7 0 0 .2.3.4.5.5.8.6.9 1.2 1.8 1.7 2.7.2.4.5.9.7 1.4.1.2.2.5.3.7s.5 1.3.2.3c.8 2.1 1.5 4.3 2 6.5.6 2.8.7 4.3.9 7.3.3 5.5-.1 11.1-.4 16.6-.5 9.8-1.1 19.5-2.1 29.3-.5 5-1.1 10-1.7 14.9-.1.6-.2 1.3-.2 1.9 0 .3-.1.6-.1 1 .1-.6 0 .2 0 .3-.1.5-.2 1-.3 1.5s.2-.5.3-.6c-.1.1-.1.3-.2.3-.1.1-.2.2-.2.4-.3.7.7-.6.3-.3-.1.1-.2.2-.3.3-.3.4.8-.5.3-.3-.1.1-.3.2-.4.3-.4.3 1-.3.2-.1-1 .2.8 0 .1 0-.2 0-.5 0-.7 0-.4 0-.7 0-1.1 0-.8 0-1.6-.1-2.4-.1-1.7-.1-3.4-.2-5.2-.2-3.8-.2-7.6-.3-11.3-.4-16.2-.5-32.5-.9-48.7-.4-1.5.1-3.1.1-4.6.2-2.3.1-4.6 2-4.5 4.5.1 2.3 2 4.6 4.5 4.5 16.3-.9 32.7-.4 48.9 0 7.6.2 15.2.5 22.8.8 2.3.1 4.7 0 6.7-1.3 1.9-1.2 3.2-3 4-5.1.7-1.8.7-3.9 1-5.8.4-2.7.7-5.4 1-8.1 1.1-9.8 1.9-19.6 2.5-29.5.7-11.4 2-23.2-.5-34.5-2.1-9.5-7.7-19.1-16.8-23.4-8.3-3.9-17.9-3.9-26.9-4.2-15.8-.7-31.7-1-47.5-1.7-1.4-.1-2.9-.1-4.3-.2-2.4-.1-4.6 2.2-4.5 4.5-.1 2.3 1.8 4.1 4.3 4.3z"/></g></g><g display="inline"><g><path d="m829.1 701.8c.9 32.6-.6 65.1-2 97.6-.3 7.7-.6 15.5-1 23.2-.2 3.2-.4 6.4-.8 9.6 0 .4-.1.8-.1 1.1 0-.2.1-.9 0-.1s-.2 1.5-.4 2.3c-.3 1.6-.6 3.2-1 4.8-.4 1.5-.8 2.9-1.2 4.3-.2.7-.5 1.4-.7 2.1-.1.3-.3.7-.4 1-.3.8.3-.6-.2.5-.6 1.3-1.2 2.5-1.9 3.7-.4.6-.8 1.3-1.2 1.9-.2.3-.4.6-.6.9-.1.2-.3.4-.4.6.3-.4.3-.4 0 0-.9 1.1-1.9 2.2-3 3.2-.5.4-.9.8-1.4 1.2-.8.7.8-.6-.1.1-.3.2-.5.4-.8.5-1.1.7-2.2 1.4-3.3 2-.6.3-1.2.6-1.8.9-.2.1-1.2.5-.2.1-.4.2-.8.3-1.3.5-2.9 1.1-6 1.9-9.1 2.5-.8.2-1.7.3-2.5.4-.4.1-.7.1-1.1.2-.5.1-.5.1.1 0-.2 0-.5.1-.7.1-1.7.2-3.4.4-5.1.5-6.3.4-12.7.3-19-.2-2.4-.2-4.6 2.2-4.5 4.5.1 2.6 2 4.3 4.5 4.5 11.9.9 24.4.8 35.9-2.5 5.8-1.7 11.4-4.3 16-8.3 5-4.4 8.4-10.3 10.7-16.5 4.8-13 4.6-27.5 5.2-41.2.7-16.6 1.5-33.2 2.1-49.8.5-16.7.8-33.4.5-50.1 0-2.1-.1-4.2-.1-6.2-.1-2.4-2-4.6-4.5-4.5-2.5.2-4.6 2-4.6 4.6z"/></g></g><g display="inline"><g><path d="m519.8 698.6c34.1.1 68.2-.1 102.4-.7 8.5-.1 16.9-.3 25.4-.5 4.4-.1 8.7-.2 13.1-.3 3.8-.1 7.7 0 11.5-.4 3.9-.4 7.8-1.5 10.4-4.7 2.4-3 3.2-6.6 3.6-10.3.8-8.1.7-16.4.7-24.6-.1-8.6-.4-17.1-1.1-25.7-.5-6.8-1.1-13.8-3.3-20.4s-5.8-12.6-11.6-16.6c-5.9-4.2-13.3-5.6-20.4-6.4-10.6-1.1-21.3-1.3-32-1.8-9.6-.4-19.3-.7-28.9-.9-23.9-.4-47.7-.2-71.6.1-16.1.2-32.1.6-48.2.4-15.1-.2-30.2-.7-45.3-1.3-27.8-1-55.6-1.8-83.3.9-7.1.7-14.3 1.6-21.4 2.8-6.9 1.2-14 3.2-19 8.4-4.8 5.1-6.7 11.9-7.7 18.7-1.1 7.8-1.8 15.6-2.2 23.5-.4 7.7-.5 15.4-.2 23.1.1 4 .4 8 .7 12 .3 3.8.6 7.5 2.4 10.9 3.7 7.3 12.1 7.8 19.3 8.2 8.5.4 16.9.8 25.4 1.2 33.9 1.5 67.9 2.6 101.9 3.3 8.3.2 16.7.3 25 .5 5.8.1 5.8-8.9 0-9-32.8-.5-65.6-1.4-98.4-2.6-16.4-.6-32.8-1.3-49.2-2.1-3.4-.2-7.1-.1-10.3-.6-2.6-.4-4.9-1.1-5.9-3.6-1.1-2.8-1-6.2-1.2-9.1-.2-3.8-.4-7.6-.5-11.5-.2-7.3-.1-14.7.4-22 .4-7.1.9-14.5 2.1-21.5.9-5.5 2.4-11.6 7.3-14.9 5.3-3.6 12.3-4.2 18.4-5.1 26.2-3.8 52.9-3.9 79.3-3.2 29.4.8 58.8 2.3 88.2 1.8 25.7-.4 51.5-.8 77.2-.6 19.1.1 38.1.6 57.2 1.6 5 .3 10.1.5 15.1.8 6.1.4 12.6.8 18.1 3.6 11.4 5.7 12.8 19.5 13.7 30.9 1.3 16.3 1.6 32.6.6 48.9-.1 2.3-.3 5.3-2 6.7-2.1 1.7-5.9 1.2-8.4 1.3-8.2.2-16.4.4-24.6.6-32.8.7-65.7 1.1-98.5 1.1-8 0-15.9 0-23.9 0-6 0-6 9-.3 9.1z"/></g></g><g display="inline"><g><path d="m305.3 688.7c-.3 22.2-.7 44.3-1.3 66.5-.6 21.8-1.1 43.7-1.3 65.5-.1 4.3-.6 8.5-.7 12.8-.2 6.5.1 13.1 1.7 19.4s5 12.8 11 15.9c4.1 2.1 8.5 2.3 13 2.5l20.4 1.2c26.2 1.5 52.5 2.6 78.7 3.4 25.8.7 51.6 1 77.4.8 25.9-.2 51.9-.8 77.8-2 13.3-.6 26.6-1.3 39.9-2.1 6.6-.4 13.2-.7 19.7-1.3 5.9-.5 11.9-1.6 16.7-5.2 9.4-7.1 10.1-19.7 11-30.5 1.1-13.6 2-27.1 2.8-40.7 1.5-27.3 2.3-54.6 2.3-82 0-6.6 0-13.2-.1-19.9-.1-5.8-9.1-5.8-9 0 .3 26.7 0 53.5-1.1 80.2-.5 13.4-1.3 26.7-2.2 40-.4 6.6-.9 13.2-1.5 19.8-.4 5.6-.6 10.8-1.9 16-1.1 4.3-2.7 8.1-6.5 10.4-4.3 2.6-9.5 2.8-14.4 3.1-13.2.9-26.4 1.7-39.6 2.4-25.6 1.3-51.2 2.1-76.8 2.5-25.2.4-50.4.3-75.7-.2-25.6-.5-51.1-1.4-76.7-2.7-13.2-.7-26.3-1.4-39.4-2.2-1.6-.1-3.1-.2-4.7-.3-.7 0-1.4-.1-2.2-.1s.7.2-.3 0c-.7-.1-1.5-.3-2.2-.6-.2-.1-1.1-.4-.5-.2.6.3-.5-.3-.7-.4-.6-.3-1.1-.7-1.6-1 1 .7.1.1-.1-.1-.3-.3-.6-.5-.8-.8-.2-.2-.4-.4-.6-.7-.7-.8.3.5-.1-.2-.4-.6-.8-1.2-1.1-1.8-.4-.6-.7-1.3-1-1.9-.4-.8.2.7 0-.1-.1-.4-.3-.8-.4-1.2-.5-1.5-.9-3-1.2-4.5-.1-.7-.3-1.4-.4-2.2-.1-.4-.2-1.2-.1-.3-.1-.4-.1-.9-.2-1.3-.2-1.5-.3-3-.3-4.5-.2-4.9.1-9.9.5-14.8.2-2.9.2-5.7.2-8.6.1-6 .2-11.9.3-17.9.2-10.4.4-20.7.7-31.1.5-20.3 1-40.5 1.4-60.8.1-6.1.2-12.2.3-18.3 0-5.7-9-5.7-9.1.1z"/></g></g><g display="inline"><g><path d="m320.5 464.6c-.3-23.8-.4-47.6-.1-71.4.3-22.9.9-45.9 1.8-68.8.9-21.9 2-43.7 3.4-65.6 1.4-20.9 3-41.8 4.9-62.7 1.8-19.8 3.8-39.5 6-59.2.3-2.4.5-4.7.8-7.1s-2.3-4.5-4.5-4.5c-2.7 0-4.2 2.1-4.5 4.5-2.3 19.6-4.4 39.1-6.2 58.7-1.9 20.7-3.6 41.5-5 62.3-1.5 21.7-2.7 43.5-3.6 65.2-1 22.8-1.7 45.6-2 68.5-.4 23.7-.5 47.4-.2 71.1 0 3 .1 6 .1 9 .1 5.8 9.1 5.8 9.1 0z"/></g></g><g display="inline"><g><path d="m361.1 521.4c.2 5.2.5 10.4.8 15.5.1 1.1.2 2.3.2 3.4v.8.4c0 .7.2-1 .1-.5-.3 1.2-.6 2.4-1 3.6-.4 1.1.3-.5-.1.2-.2.3-.3.7-.5 1-.4.7-.7 1.4-1.1 2.1-.8 1.5-1.8 2.9-2.7 4.3-.3.4-.5.7-.8 1.1-.1.1-.5.7-.2.2.3-.4 0 0-.1.1-.6.8-1.3 1.6-2 2.3-1.2 1.4-2.6 2.8-3.9 4.1-.8.7-1.6 1.5-2.5 2.2-.2.2-.4.3-.6.5-.7.5.3-.2-.1.1s-.9.6-1.3 1c-1.7 1.2-3.5 2.3-5.4 3.2 1.2-.2 2.3-.3 3.5-.5-.4-.1-.8-.2-1.2-.4.1.1.9.4.2.1-.2-.1-.4-.2-.6-.3-.8-.4-1.5-.8-2.2-1.2-.7-.5-1.4-1-2.1-1.4-.2-.1-.7-.5.1.1-.2-.1-.3-.3-.5-.4-.3-.3-.7-.6-1-.8-1.3-1.2-2.6-2.4-3.8-3.7-.6-.7-1.1-1.3-1.7-2-.1-.2-.5-.7.1.1-.1-.2-.3-.3-.4-.5-.3-.4-.6-.8-.9-1.2-1.9-2.7-3.5-5.5-4.8-8.5-.1-.2-.1-.3-.2-.5-.2-.4.2.5.2.5-.1-.3-.3-.7-.4-1-.2-.6-.5-1.3-.7-2-.2-.5-.3-1.1-.4-1.6-.1-.3-.1-.5-.2-.8 0-.1 0-.3-.1-.4-.1-.7.1 1.1.1.6-.2-5.5-.5-11-.7-16.4-.1-2.3-2-4.6-4.5-4.5-2.4.1-4.6 2-4.5 4.5.2 5.3.2 10.7.7 16 .2 2.9 1 5.6 2.1 8.2 2.9 7.1 7.3 13.7 13 18.9 3.1 2.9 6.6 5.2 10.6 6.9 1.7.7 3.2.9 4.9.1.9-.4 1.8-.9 2.7-1.5 2-1.2 3.8-2.5 5.6-4 6.2-4.9 11.8-11.4 15.4-18.5 1.6-3.2 3.1-6.8 3-10.5-.2-6.3-.7-12.6-.9-18.8-.1-2.3-2-4.6-4.5-4.5-2.6-.1-4.8 1.8-4.7 4.3z"/></g></g><g display="inline"><g><path d="m371.9 129.1c-1.3 20-2.6 40-3.9 60-1.3 20.8-2.6 41.6-3.8 62.4-1.2 21.8-2.3 43.6-3.1 65.4-.9 22.6-1.5 45.2-1.9 67.8-.4 23.6-.4 47.2-.1 70.9 0 3 .1 6 .1 9 0 2.4 2 4.5 4.5 4.5 2.4 0 4.5-2.1 4.5-4.5-.4-23.7-.5-47.5-.2-71.2.3-22.7.9-45.4 1.7-68.2.8-21.9 1.8-43.8 3-65.7 1.1-20.9 2.4-41.8 3.7-62.7 1.3-20.1 2.6-40.2 3.9-60.3.2-2.4.3-4.9.5-7.3s-2.2-4.5-4.5-4.5c-2.5-.1-4.3 2-4.4 4.4z"/></g></g><g display="inline"><g><path d="m592.6 470.2c.3-22 .6-44 .8-66 .2-22.5.4-45.1.5-67.6.1-22.6.2-45.1.3-67.7.1-22.5.1-45.1.1-67.6 0-22 0-44-.1-66 0-2.7 0-5.5 0-8.2 0-5.8-9-5.8-9 0 .1 21.9.1 43.9.1 65.8 0 22.5 0 45-.1 67.5-.1 22.6-.2 45.1-.3 67.7s-.3 45.1-.5 67.7c-.2 22.1-.5 44.1-.8 66.2 0 2.7-.1 5.5-.1 8.2.1 5.8 9.1 5.8 9.1 0z"/></g></g><g display="inline"><g><path d="m629.5 528.3c-.1 2.8-.2 5.6-.3 8.3-.1 1.4-.1 2.8-.2 4.1 0 .6 0 1.2-.1 1.8v.4c0 .7.2-1.1.1-.6-.3 1.2-.6 2.3-1 3.5-.1.2-.1.3-.2.4-.2.5.4-.9.2-.4-.2.3-.3.7-.5 1.1-.4.7-.7 1.5-1.1 2.2-.8 1.5-1.7 2.9-2.6 4.4-.5.7-.9 1.4-1.4 2.1-.2.3-.5.7-.8 1-.2.3-1.1 1.6-.5.6-1 1.5-2.3 2.9-3.5 4.2s-2.4 2.5-3.7 3.7c-.7.6-1.7 1.2-2.2 1.8.1-.1.9-.6.3-.2-.2.1-.4.3-.5.4-.3.2-.6.4-1 .7-.7.4-1.4.8-2.1 1.2-.1.1-.3.1-.4.2-.7.4 1-.4.3-.1-.3.1-.6.2-1 .3 1.2.2 2.3.3 3.5.5-.5-.3-1.1-.6-1.6-.9-.3-.2-.6-.4-.9-.6-.1-.1-.2-.2-.3-.2-.8-.6.6.5.1.1-1.2-1-2.4-2-3.5-3.1-1.2-1.2-2.4-2.5-3.6-3.9-.5-.6-1-1.2-1.5-1.8s0 0 .1.1c-.1-.2-.3-.4-.4-.5-.3-.4-.6-.8-.9-1.2-1.9-2.7-3.7-5.6-5.2-8.6-.1-.3-.3-.6-.4-.9-.5-1.1.2.5-.1-.2-.2-.7-.5-1.3-.7-2-.2-.6-.3-1.1-.4-1.7 0-.2 0-.6-.1-.8.4.8.1 1 .1.6 0-.2 0-.3 0-.5-.1-2.6.1-5.1.1-7.7.1-2.9.1-5.8.2-8.7 0-2.4-2.1-4.6-4.5-4.5-2.5.1-4.5 2-4.5 4.5-.1 5.4-.5 10.9-.3 16.3.1 3.5 1.4 6.9 2.9 10.1 3.3 7 8.3 13.6 13.9 18.9 1.4 1.3 3 2.6 4.6 3.7 1.9 1.4 3.9 2.6 6.4 1.7 3.4-1.1 6.3-3.2 8.9-5.5 5.7-4.8 10.5-10.9 14.2-17.3 1.8-3 3.5-6.3 4.2-9.8.5-2.4.5-4.8.6-7.3.1-3.3.2-6.5.4-9.8.1-2.4-2.1-4.6-4.5-4.5-2.6 0-4.5 1.9-4.6 4.4z"/></g></g><g display="inline"><g><path d="m629.3 128.5c1 21.1 1.8 42.2 2.4 63.4.6 22.1 1 44.1 1.3 66.2.3 22.8.4 45.6.3 68.3 0 22.9-.2 45.9-.5 68.8-.3 22.6-.7 45.3-1.3 67.9-.1 2.7-.1 5.4-.2 8.2-.1 2.4 2.1 4.5 4.5 4.5 2.5 0 4.4-2.1 4.5-4.5.6-22.6 1.1-45.1 1.4-67.7.3-22.8.6-45.6.6-68.4.1-22.8 0-45.7-.2-68.5-.2-22.3-.6-44.6-1.2-66.8-.5-21.3-1.3-42.6-2.2-63.8-.1-2.5-.2-5-.3-7.5-.1-2.4-2-4.5-4.5-4.5-2.5-.1-4.7 1.9-4.6 4.4z"/></g></g><g display="inline"><g><path d="m316.6 462.6c-5 .4-10.1.6-15 1.7-3.9.9-7.8 3-9.6 6.8-1.3 2.6-1.5 5.4-1.5 8.3 0 2.7 0 5.4.1 8.1.1 4.3.2 8.7.5 13s.9 8.6 1.5 12.9c.3 2.2.7 4.4 1.1 6.7.5 3.1 1.8 6 4.7 7.6 2.4 1.3 5.2 1.4 7.9 1.3 3.1-.1 6.2-.3 9.2-.4 6.2-.3 12.5-.6 18.7-.9 12.4-.6 24.8-1.3 37.2-2 3.2-.2 6.4-.2 9.5-.7 3-.5 5.6-2.4 7-5.1 1.3-2.6 1.6-5.4 1.8-8.2.2-2.4.3-4.8.5-7.1.3-6.8-.2-13.6-.2-20.3 0-7.5 0-17-7.4-21.3-4.2-2.4-9.2-2-13.9-2.3s-9.4-.4-14.1-.4c-9.8.1-19.6.9-29.3 1.7-2.9.1-5.8.3-8.7.6-2.3.2-4.6 1.9-4.5 4.5.1 2.3 2 4.7 4.5 4.5 9.8-.8 19.6-1.7 29.5-2.2 4.3-.2 8.7-.3 13-.2 4.4.1 8.8.5 13.2.6.9 0 1.7 0 2.6.1.3 0 .5 0 .8.1.2 0 .9.2.2 0-.7-.1 0 0 .2.1.3.1.6.1.9.2.2.1.4.2.6.2.6.1-.7-.4-.2-.1.4.3.9.5 1.3.8-.2-.1-.6-.6-.1 0l.5.5c.1.1.5.6.1 0 .1.2.2.3.3.5.1.1.1.3.2.4.3.6-.4-.4-.2-.4.1 0 .3.9.3.9.2.8.4 1.6.5 2.4 0 .2.1.5.1.7.1.6-.1-.9 0-.3 0 .4.1.9.1 1.3.1.9.1 1.7.2 2.6.1 2.8.1 5.6.1 8.3.1 3.4.2 6.7.3 10.1 0 3.3-.1 6.5-.3 9.8-.1 1.2-.2 2.5-.3 3.7 0 .5-.1 1-.1 1.5-.1.8 0 0 0-.1-.1.3-.1.7-.2 1-.1.5-.2.9-.4 1.3-.2.8 0 0 .1-.1-.1.2-.4.5-.4.7-.1.6.4-.7.1-.1-.1.2-.7.5-.2.2.7-.5-.8.3.2-.1-.3.1-.7.2-1 .3-.6.2.7 0 0 0-.3 0-.7.1-1 .1-.7 0-1.3.1-2 .1-1.5.1-3 .2-4.5.3-2.9.2-5.8.3-8.7.5-5.7.3-11.5.6-17.2.9-11.6.6-23.3 1.2-34.9 1.7-1.4.1-2.8.1-4.2.2-.5 0-1.1 0-1.6 0-.2 0-.5 0-.7 0-.1 0-1.1-.1-.4 0s-.3-.1-.4-.1-.6-.1-.6-.2c.1 0 .2.1.2.1.3.1.3.1 0-.1 0-.1-1-.6.1.1-.7-.5.1-.1.1.1 0-.1-.2-.6 0 0-.2-.6-.3-1.2-.4-1.9-.4-2.1-.7-4.2-1.1-6.4-.1-.9-.3-1.9-.4-2.8 0-.2-.1-.9 0 .2 0-.2-.1-.4-.1-.6-.1-.5-.1-1.1-.2-1.6-1-8.3-1.2-16.6-1.2-24.9 0-1.3 0-2.5 0-3.8 0-.3 0-.7 0-1 0-.2.1-1 0-.3-.1.6 0-.1.1-.3.1-.3.1-.5.2-.8 0-.1.2-1.1.1-.3-.1.6 0 .1.1-.1s.2-.3.3-.5c.3-.6.4-.1-.2.2.2-.1.5-.6.7-.7.5-.5-.3.3-.3.2s.5-.4.6-.4c.3-.2.6-.3.9-.5.7-.4-.4.2-.4.2s.4-.1.5-.2c.7-.2 1.4-.4 2.1-.6.9-.2 1.8-.4 2.7-.5-1.1 0 .1 0 .5-.1.6-.1 1.2-.1 1.8-.2 2.4-.2 4.9-.4 7.3-.6 2.3-.2 4.6-1.9 4.5-4.5.1-2.4-1.7-4.8-4.3-4.6z"/></g></g><g display="inline"><g><path d="m363.9 499.5c-.3 0-.6.1-1 .1.4-.1.4 0-.2 0-.6.1-1.1.1-1.7.2-1 .1-2.1.2-3.1.3-1.6.2-3.2.3-4.9.4-3.1.2-6.1.3-9.2.5-9.1.5-18.1 1.5-27.2 2 1.4 1.1 2.9 2.2 4.3 3.3-.3-.9-.6-1.9-.8-2.8-.1-.6-.2-1.1-.3-1.7 0-.3-.1-.5-.1-.8-.1-.7.1.7 0 .1-.2-2.1-.4-4.2-.3-6.3 0-1.8.2-3.7.4-5.5.1-.7.1.2 0 .3.1-.1.1-.4.1-.6.1-.4.1-.8.2-1.2.1-.6.3-1.2.4-1.8-1.4 1.1-2.9 2.2-4.3 3.3 15.9-2.1 31.9-3.5 47.9-3.5-1.4-1.1-2.9-2.2-4.3-3.3.3 1.2.6 2.5.8 3.8 0 .3.1.6.1.9-.1-.4-.1-.4 0 .1 0 .4.1.9.1 1.3.2 2.1.2 4.1.2 6.2-.1 3-.4 5.9-.4 8.9 0 2.4 2.1 4.6 4.5 4.5s4.5-2 4.5-4.5c0-3.1.4-6.2.4-9.3.1-4.8-.4-9.6-1.6-14.3-.5-1.9-2.4-3.3-4.3-3.3-16 0-32.1 1.5-47.9 3.5-2.1.3-3.7 1.2-4.3 3.3-1.1 3.5-1.3 7.4-1.4 11.1-.1 4.6.4 9.5 1.9 13.8.6 1.8 2.3 3.4 4.3 3.3 9.2-.4 18.3-1.5 27.5-2 7.4-.4 14.7-.9 22.1-1.9 2.3-.3 3.8-3.4 3.1-5.5-.8-2.3-3-3.2-5.5-2.9z"/></g></g><g display="inline"><g><path d="m590.5 465.9c-5 .1-10.1 0-15 .7-4 .6-7.9 2.6-9.9 6.2-1.4 2.6-1.7 5.3-1.9 8.2-.2 2.7-.4 5.5-.5 8.2-.2 4.4-.4 8.7-.4 13.1 0 4.1.2 8.2.6 12.2.2 2.3.4 4.6.6 6.9.4 3.4 1.5 6.6 4.7 8.3 2.4 1.3 5.3 1.5 8 1.6 3.1.1 6.2.2 9.2.2 6.2.2 12.5.3 18.7.4 12.4.3 24.8.5 37.2.6 3 0 6.1.3 9-.1 3.1-.4 5.9-2.3 7.3-5.1 1.2-2.4 1.7-4.9 2.1-7.5.4-2.5.7-5.1 1-7.6.8-6.7.7-13.4 1.2-20.2.2-3.2.4-6.5.1-9.7-.2-2.3-.5-4.5-1.5-6.6-1.1-2.3-3-4.2-5.2-5.5-2.3-1.3-4.7-1.8-7.3-2.1-.9-.1-1.9-.2-2.9-.3-.2 0-.4 0-.6-.1-1.1-.1.9.1.1 0-1-.1-2-.3-3-.4-4.6-.6-9.2-1.1-13.9-1.4-9.7-.6-19.4-.5-29.2-.4-2.7.4-5.6.4-8.5.4-2.4 0-4.6 2.1-4.5 4.5s2 4.5 4.5 4.5c9.8-.1 19.6-.3 29.4-.1 4.3.1 8.6.3 12.9.7 2.2.2 4.4.4 6.6.7.5.1 1 .1 1.5.2.3 0 .6.1 1 .1-.2 0-.9-.1 0 0 1.3.2 2.6.4 3.9.5.8.1 1.7.2 2.5.3 1.1.1-.8-.2-.1 0 .2 0 .4.1.6.1.5.1 1 .2 1.5.4.2.1.4.2.6.2.6.2-.6-.4-.2-.1.3.3.9.5 1.3.8-.8-.6.1.2.4.5.1.1.5.6 0 0 .2.3.4.6.6.8.5.8-.2-.7 0-.1.1.3.2.6.3.9.1.4.2.8.2 1.2 0 .2.1.8 0 .1-.1-.8 0 .1 0 .3.2 1.8.2 3.6.2 5.3-.1 2.8-.3 5.5-.4 8.3-.2 3.4-.3 6.9-.5 10.3-.1 1.4-.2 2.8-.3 4.1-.1.8-.2 1.6-.3 2.4-.1.4-.1.9-.2 1.3 0 .3-.1 1.1 0 0 0 .3-.1.6-.1.9-.3 2.3-.5 4.6-1.1 6.9-.1.5-.3.9-.4 1.3.4-1.1-.3.3-.4.6-.2.6.3-.7.1-.1-.1.2-.7.5-.2.2.7-.5-.9.4.3-.1-.1 0-1.2.3-.6.2s-.3 0-.4 0c-.3 0-.7 0-1 0-.6 0-1.3 0-1.9 0-1.5 0-3 0-4.5-.1-2.9 0-5.8-.1-8.7-.1-5.7-.1-11.5-.2-17.2-.3-11.7-.2-23.3-.5-35-.8-1.4 0-2.8-.1-4.2-.1-.6 0-1.2 0-1.8-.1-.2 0-.5 0-.7-.1-.9-.1.5.1 0 0-.1 0-1.5-.4-1.5-.4.1 0 .2.1.2.1.3.1.3.1 0-.1 0 0-1-.7.1.1-.6-.4 0-.1.1.2-.5-.7-.1-.1 0 0-.1-.2-.1-.5-.2-.7-.3-1 0 .6 0-.3-.4-4.1-.8-8.2-1-12.3-.4-8.4 0-16.8.6-25.1.1-1.3.2-2.5.3-3.8 0-1.3-.1.5 0-.2 0-.2.1-.5.1-.7.1-.3.2-1.3.4-1.5-.4.3-.3.6 0 .1.1-.2.2-.3.3-.5.5-.9-.6.6.2-.3.1-.1.3-.2.4-.4.5-.5-.3.2-.3.2.1-.2.8-.5 1.1-.6.1 0 .4-.2.4-.2.1 0-1.2.4-.4.2.3-.1.6-.2.9-.3.4-.1.7-.2 1.1-.2.2 0 .3-.1.5-.1.8-.1-.1 0-.4 0 2 0 4.1-.3 6.1-.4 2.5-.1 4.9-.1 7.4-.1 2.4 0 4.6-2.1 4.5-4.5-.2-2.6-2.1-4.7-4.6-4.7z"/></g></g><g display="inline"><g><path d="m636.2 506.1c-7.1.5-14.1.4-21.1.2-9.1-.1-18.3.2-27.4 0 1.4 1.1 2.9 2.2 4.3 3.3-.3-1-.4-1.9-.6-2.9.1.4.1.6 0 .1 0-.3-.1-.5-.1-.8 0-.5-.1-1-.1-1.6-.1-2.1 0-4.3.2-6.4 0-.5.1-1 .2-1.5.1-.7-.1.8 0 .1 0-.2.1-.5.1-.7.1-.9.3-1.7.5-2.6.3-1.4.6-2.7 1.1-4-1.4 1.1-2.9 2.2-4.3 3.3 16-.9 32.1-1.2 48.1-.1-1.4-1.1-2.9-2.2-4.3-3.3.1.3.1.6.2 1 0-.4 0-.3 0 .2.1.6.1 1.2.2 1.8.1 1.2.1 2.3.1 3.5 0 2-.1 3.9-.3 5.9-.1.9-.2 1.8-.3 2.7.2-1.3 0-.2 0 .1-.1.4-.1.8-.2 1.2-.2 1.6-.5 3.2-.6 4.9-.2 2.4 2.2 4.6 4.5 4.5 2.6-.1 4.3-2 4.5-4.5 0-.6.1-1.2.2-1.8.1-.8-.2 1.2 0-.1.1-.4.1-.8.2-1.1.3-2 .6-4.1.8-6.1.5-4.8.2-9.6-.6-14.4-.3-2-2.5-3.2-4.3-3.3-16-1.1-32.1-.8-48.1.1-2.2.1-3.6 1.3-4.3 3.3-1.3 3.5-1.8 7.3-2.2 11-.4 4.6-.3 9.4 1 13.9.5 1.9 2.4 3.3 4.3 3.3 9.1.2 18.3-.1 27.4 0 7.1.1 14.1.2 21.1-.2 2.3-.2 4.6-2 4.5-4.5-.3-2.3-2.2-4.7-4.7-4.5z"/></g></g><g display="inline"><g><path d="m505 787.2c-.1 2.8-.2 5.6-.3 8.3-.1 1.4-.1 2.8-.2 4.1 0 .6 0 1.2-.1 1.8v.4c0 .7.2-1.1.1-.6-.3 1.2-.6 2.3-1 3.5-.1.2-.1.3-.2.4-.2.5.4-.9.2-.4-.2.3-.3.7-.5 1.1-.4.7-.7 1.5-1.1 2.2-.8 1.5-1.7 2.9-2.6 4.4-.5.7-.9 1.4-1.4 2.1-.2.3-.5.7-.8 1-.2.3-1.1 1.6-.5.6-1 1.5-2.3 2.9-3.5 4.2s-2.4 2.5-3.7 3.7c-.7.6-1.7 1.2-2.2 1.8.1-.1.9-.6.3-.2-.2.1-.4.3-.5.4-.3.2-.6.4-1 .7-.7.4-1.4.8-2.1 1.2-.1.1-.3.1-.4.2-.7.4 1-.4.3-.1-.3.1-.6.2-1 .3 1.2.2 2.3.3 3.5.5-.5-.3-1.1-.6-1.6-.9-.3-.2-.6-.4-.9-.6-.1-.1-.2-.2-.3-.2-.8-.6.6.5.1.1-1.2-1-2.4-2-3.5-3.1-1.2-1.2-2.4-2.5-3.6-3.9-.5-.6-1-1.2-1.5-1.8s0 0 .1.1c-.1-.2-.3-.4-.4-.5-.3-.4-.6-.8-.9-1.2-1.9-2.7-3.7-5.6-5.2-8.6-.1-.3-.3-.6-.4-.9-.5-1.1.2.5-.1-.2-.2-.7-.5-1.3-.7-2-.2-.6-.3-1.1-.4-1.7 0-.2 0-.6-.1-.8.4.8.1 1 .1.6 0-.2 0-.3 0-.5-.1-2.6.1-5.1.1-7.7.1-2.9.1-5.8.2-8.7 0-2.4-2.1-4.6-4.5-4.5-2.5.1-4.5 2-4.5 4.5-.1 5.4-.5 10.9-.3 16.3.1 3.5 1.4 6.9 2.9 10.1 3.3 7 8.3 13.6 13.9 18.9 1.4 1.3 3 2.6 4.6 3.7 1.9 1.4 3.9 2.6 6.4 1.7 3.4-1.1 6.3-3.2 8.9-5.5 5.7-4.8 10.5-10.9 14.2-17.3 1.8-3 3.5-6.3 4.2-9.8.5-2.4.5-4.8.6-7.3.1-3.3.2-6.5.4-9.8.1-2.4-2.1-4.6-4.5-4.5-2.6 0-4.5 1.9-4.6 4.4z"/></g></g><g display="inline"><g><path d="m466 724.8c-5 .1-10.1 0-15 .7-4 .6-7.9 2.6-9.9 6.2-1.4 2.6-1.7 5.3-1.9 8.2-.2 2.7-.4 5.5-.5 8.2-.2 4.4-.4 8.7-.4 13.1 0 4.1.2 8.2.6 12.2.2 2.3.4 4.6.6 6.9.4 3.4 1.5 6.6 4.7 8.3 2.4 1.3 5.3 1.5 8 1.6 3.1.1 6.2.2 9.2.2 6.2.2 12.5.3 18.7.4 12.4.3 24.8.5 37.2.6 3 0 6.1.3 9-.1 3.1-.4 5.9-2.3 7.3-5.1 1.2-2.4 1.7-4.9 2.1-7.5.4-2.5.7-5.1 1-7.6.8-6.7.7-13.4 1.2-20.2.2-3.2.4-6.5.1-9.7-.2-2.3-.5-4.5-1.5-6.6-1.1-2.3-3-4.2-5.2-5.5-2.3-1.3-4.7-1.8-7.3-2.1-.9-.1-1.9-.2-2.9-.3-.2 0-.4 0-.6-.1-1.1-.1.9.1.1 0-1-.1-2-.3-3-.4-4.6-.6-9.2-1.1-13.9-1.4-9.7-.6-19.4-.5-29.2-.4-2.7.4-5.6.4-8.5.4-2.4 0-4.6 2.1-4.5 4.5s2 4.5 4.5 4.5c9.8-.1 19.6-.3 29.4-.1 4.3.1 8.6.3 12.9.7 2.2.2 4.4.4 6.6.7.5.1 1 .1 1.5.2.3 0 .6.1 1 .1-.2 0-.9-.1 0 0 1.3.2 2.6.4 3.9.5.8.1 1.7.2 2.5.3 1.1.1-.8-.2-.1 0 .2 0 .4.1.6.1.5.1 1 .2 1.5.4.2.1.4.2.6.2.6.2-.6-.4-.2-.1.3.3.9.5 1.3.8-.8-.6.1.2.4.5.1.1.5.6 0 0 .2.3.4.6.6.8.5.8-.2-.7 0-.1.1.3.2.6.3.9.1.4.2.8.2 1.2 0 .2.1.8 0 .1-.1-.8 0 .1 0 .3.2 1.8.2 3.6.2 5.3-.1 2.8-.3 5.5-.4 8.3-.2 3.4-.3 6.9-.5 10.3-.1 1.4-.2 2.8-.3 4.1-.1.8-.2 1.6-.3 2.4-.1.4-.1.9-.2 1.3 0 .3-.1 1.1 0 0 0 .3-.1.6-.1.9-.3 2.3-.5 4.6-1.1 6.9-.1.5-.3.9-.4 1.3.4-1.1-.3.3-.4.6-.2.6.3-.7.1-.1-.1.2-.7.5-.2.2.7-.5-.9.4.3-.1-.1 0-1.2.3-.6.2s-.3 0-.4 0c-.3 0-.7 0-1 0-.6 0-1.3 0-1.9 0-1.5 0-3 0-4.5-.1-2.9 0-5.8-.1-8.7-.1-5.7-.1-11.5-.2-17.2-.3-11.7-.2-23.3-.5-35-.8-1.4 0-2.8-.1-4.2-.1-.6 0-1.2 0-1.8-.1-.2 0-.5 0-.7-.1-.9-.1.5.1 0 0-.1 0-1.5-.4-1.5-.4.1 0 .2.1.2.1.3.1.3.1 0-.1 0 0-1-.7.1.1-.6-.4 0-.1.1.2-.5-.7-.1-.1 0 0-.1-.2-.1-.5-.2-.7-.3-1 0 .6 0-.3-.4-4.1-.8-8.2-1-12.3-.4-8.4 0-16.8.6-25.1.1-1.3.2-2.5.3-3.8 0-1.3-.1.5 0-.2 0-.2.1-.5.1-.7.1-.3.2-1.3.4-1.5-.4.3-.3.6 0 .1.1-.2.2-.3.3-.5.5-.9-.6.6.2-.3.1-.1.3-.2.4-.4.5-.5-.3.2-.3.2.1-.2.8-.5 1.1-.6.1 0 .4-.2.4-.2.1 0-1.2.4-.4.2.3-.1.6-.2.9-.3.4-.1.7-.2 1.1-.2.2 0 .3-.1.5-.1.8-.1-.1 0-.4 0 2 0 4.1-.3 6.1-.4 2.5-.1 4.9-.1 7.4-.1 2.4 0 4.6-2.1 4.5-4.5-.2-2.6-2.1-4.7-4.6-4.7z"/></g></g><g display="inline"><g><path d="m511.7 765c-7.1.5-14.1.4-21.1.2-9.1-.1-18.3.2-27.4 0 1.4 1.1 2.9 2.2 4.3 3.3-.3-1-.4-1.9-.6-2.9.1.4.1.6 0 .1 0-.3-.1-.5-.1-.8 0-.5-.1-1-.1-1.6-.1-2.1 0-4.3.2-6.4 0-.5.1-1 .2-1.5.1-.7-.1.8 0 .1 0-.2.1-.5.1-.7.1-.9.3-1.7.5-2.6.3-1.4.6-2.7 1.1-4-1.4 1.1-2.9 2.2-4.3 3.3 16-.9 32.1-1.2 48.1-.1-1.4-1.1-2.9-2.2-4.3-3.3.1.3.1.6.2 1 0-.4 0-.3 0 .2.1.6.1 1.2.2 1.8.1 1.2.1 2.3.1 3.5 0 2-.1 3.9-.3 5.9-.1.9-.2 1.8-.3 2.7.2-1.3 0-.2 0 .1-.1.4-.1.8-.2 1.2-.2 1.6-.5 3.2-.6 4.9-.2 2.4 2.2 4.6 4.5 4.5 2.6-.1 4.3-2 4.5-4.5 0-.6.1-1.2.2-1.8.1-.8-.2 1.2 0-.1.1-.4.1-.8.2-1.1.3-2 .6-4.1.8-6.1.5-4.8.2-9.6-.6-14.4-.3-2-2.5-3.2-4.3-3.3-16-1.1-32.1-.8-48.1.1-2.2.1-3.6 1.3-4.3 3.3-1.3 3.5-1.8 7.3-2.2 11-.4 4.6-.3 9.4 1 13.9.5 1.9 2.4 3.3 4.3 3.3 9.1.2 18.3-.1 27.4 0 7.1.1 14.1.2 21.1-.2 2.3-.2 4.6-2 4.5-4.5-.3-2.3-2.2-4.6-4.7-4.5z"/></g></g><g display="inline"><g><path d="m468.6 727.9c.6-17.3 1-34.7 1.8-52 .2-3.6.4-7.1.8-10.7.1-.9.2-1.7.3-2.6 0-.3.1-.5.1-.8 0 .1-.1.7 0 .2s.1-.9.2-1.4c.3-1.8.6-3.6.9-5.3.7-3.5 1.6-6.9 2.8-10.3.3-.8.6-1.6.9-2.4s-.2.4.2-.4c.2-.5.4-.9.6-1.4.8-1.6 1.6-3.1 2.5-4.6.4-.7.9-1.4 1.4-2.1.2-.3.4-.6.7-1 .2-.2.3-.4.5-.6.2-.3.3-.4 0 0 1.2-1.5 2.6-3 4-4.4 2.9-2.9 6-5.4 9.1-8 .3-.3.7-.6 1.1-.8.5-.4 0 0-.1.1.2-.3.7-.1 0-.1-.4 0-.4 0-1-.1-1.2-.3-.5 0-.2 0 0 0-.5-.5-.1-.1.2.2.5.4.7.6 1.2 1.1 2.4 2.2 3.5 3.5.5.6 1.1 1.2 1.6 1.8.2.2.9 1.1.3.4.3.3.5.7.8 1 1 1.4 1.9 2.8 2.7 4.2s1.6 2.9 2.3 4.5c.2.4.4.8.5 1.2.1.3.4 1 .1.3.3.8.7 1.6 1 2.5 1.2 3.2 2.1 6.5 2.9 9.9.4 1.7.7 3.4 1 5.1.1.8.3 1.7.4 2.5.1.4.1.8.2 1.2-.1-1 .1.4.1.7.4 3.5.7 6.9.9 10.4.9 17.6-.5 35.3-2 52.9-.2 2.2-.4 4.4-.6 6.7-.2 2.4 2.2 4.6 4.5 4.5 2.6-.1 4.3-2 4.5-4.5 1.6-18.4 3.2-36.9 2.7-55.4-.5-15.1-2.4-30.6-9.4-44.2-1.7-3.3-3.8-6.4-6.1-9.4-1.1-1.4-2.3-2.7-3.5-3.9-1.4-1.4-2.9-3-4.7-4-2.6-1.6-5.8-1.3-8.2.5-1.9 1.4-3.6 2.9-5.4 4.3-3.2 2.7-6.3 5.5-9 8.7-10.4 12.2-13.8 28-15.1 43.6-.7 8.2-.8 16.4-1.1 24.6-.3 9.3-.6 18.6-1 27.9-.1 2.3-.2 4.7-.2 7-.1 2.4 2.1 4.6 4.5 4.5 2.6-.4 4.5-2.3 4.6-4.8z"/></g></g></g><g id="outline" display="none"><path d="m851.1 621.1c-4.1-22.3-23.5-28.4-43.7-27.6-15.7-.7-31.4-1-47.1-1.7-2.3-46.7-4.1-93.4-8.3-140 26.7-2.6 38.9-30.3 34.7-54.5 44 3.2 50.9-7.1 57.1-49.1 5.9-48.5 2-98-6.3-146-4.3-28-14.9-54.2-48.4-47.5-22 .6-44.1-.7-66.1.3-10.1-22.8-36-28.8-58.7-30.3-37.6-1.9-75.2-2.5-112.8-2.5-1.2-24.7-1.5-51.6-16-72.7-14.9-21.9-45.4-29.1-69.5-19.7-37 13.9-54.7 55.5-52.3 93-23.9.4-47.9 1.1-71.8 1.8-30.5.4-69.6.5-86 31.4-30.3-.5-61-2.6-91.2 0-20.4 10.8-23.5 63.8-26.8 85.6-2.3 40.5-1.5 81.5 2.7 121.9 2.6 38.1 33.6 31.1 61.5 31.5-2.7 20.4-3.8 52.2 23.6 54.3-1 46.4-2.1 92.8-3.8 139.2-46.8.5-102.3-7.8-99.3 56.7 1.1 16-8.4 41 10.7 48.9-3.9 47-3.9 94.2-4 141.4-.8 15.3 5.2 34.6 22.6 36.9 19.8 3.2 40.2 3 59.9-.3 6.6 40.1 49.8 39.4 81.8 40.2 35 2 70.1.8 105.1.8 96.7 2.1 193.5 5.5 290.3 1.1 30 0 72.7-1.3 79.9-37.7 52.5 4.6 67.7-19.1 66.7-68.5 1.5-34.1 3.3-68.3 2.5-102.4 10.7 0 9.7-12.7 10.9-20.3 1.7-21.4 5.6-43.1 2.1-64.2zm-14-9.7c-.1-.2-.4-.7 0 0zm-14.7-226.9c-.1 0-.1.1-.2.1.3-.2.8-.5.2-.1zm-47.3-220.7c11.5 1 23.5-2.5 34.6.5 4.1 1.6 10.5 9.2 12.5 15.1 15.6 50.9 23.3 147.7 5.2 197.9-2.2 6.4-8.2 10.1-14.8 10.6-9 1-18 .4-27 .3-9.6-77.1-31.8-151.6-58.3-224.4 16-.4 31.9 0 47.8 0zm-85-25.3c30.6 7.9 32.8 46.2 43.4 70.9 21.3 63.2 38.6 128.3 44.5 194.9 2.8 38.8-27.5 39.4-57.1 43.2-26.6 4-53.5 3.7-80.3 4.5 2.4-106.5 2.5-213-2.2-319.4 17.5.7 35 .3 51.7 5.9zm-36.5 343.8c0 13.4-.1 27.3-3.1 40.4 0-.1-.3.6-.5.9-25.5.1-51.5-.1-77-1.6-1.9-14-1.4-28.2-.3-42.3.1-1.2.5-2.5 1.5-3.3 22-3 45.2-1.9 67.4.1 2.2.3 4.4.6 6.6.8 1.3.2 2.4.5 3.5 1.2s1.7 2.1 1.8 3.4c.1.1.1.3.1.4zm-3.5 41.2c0-.1.1-.3 0 0zm-.2.2c-.2.1-.2.1 0 0zm-41 45c-7.8-6.2-14.6-14.7-17.4-24.4-.1-.2 0-.6-.1-.8 0 .1 0 .1.1.2-.1-4 .2-7.9.2-11.9 12.6.3 25.1.6 37.7.7-.1 2.8-.2 5.5-.3 8.3.1 5.8-5.7 13.4-7.9 16.5-3.5 4.4-7.5 8.7-12.3 11.4zm3.2-2c.1-.1.1-.1 0 0zm-39.1-44.8c-.2-.2-.1-.1 0 0zm21.3-390.4c11.7.2 23.4.4 35.1.8 5 111.3 4.6 222.8 1.9 334.1-12.9-1-25.8-.6-38.7-.5 1.6-111.5 2-222.9 1.7-334.4zm-171.6-19.3c-.6-49.4 48.3-99.9 96.1-67.5 6.8 5.3 11.7 12.5 15.1 20.4 7.4 18 7.6 37.9 8.6 57.1-6.7 0-13.5 0-20.2 0-.6-27.5-2.6-69.5-38-72.4-37.6 2.2-44.8 41.9-44.7 72.6-5.6.1-11.2.1-16.9.2-.2-3.4-.2-6.9 0-10.4zm63.2-53.3c6.5.9 12.2 4.8 16.3 9.8 0 0 .8 1 .8 1 10.8 15.2 8.7 34.8 10.3 52.4-21.6 0-43.2 0-64.8.2.1-6.7.6-13.5 1.4-20.2 0 0 .1-.5.1-.8s.1-.7.1-.6c1.7-9.8 3-20.6 9.3-28.6 6.9-7.1 16.2-14.2 26.5-13.2.1 0 .1 0 0 0zm21.4 18.4c-.1-.3-.1-.3 0 0zm-.5 53.9c26.2-.1 52.4-.2 78.5.1.3 107 0 214.1-1.4 321.1-72-.3-143.9-3.7-215.8-4.3-1.3-105.4 5.7-210.6 12.6-315.7 42-1 84-1 126.1-1.2zm-127 384.6c-25.5 2-51.3 3.5-76.9 4 0-.1-.1-.2-.1-.2-2.8-13.8-4.1-32.1-3-44.1 0-.2.2-.5.3-.7l.3-.3c1.6-1.6 4.2-1.7 6.4-2 20.7-2 46.4-4.4 68.8-2.6 1.6.2 3.1.8 4 2.2.1-.1.1.2.2.4s.1.2 0 .1c1.9 14 2.7 29.3 0 43.2zm-49.4 40.2s.1.1.1.1c-.1 0-.1-.1-.1-.1-6.9-7.9-8.4-17.8-8.2-27.9 13-.6 26.1-1.3 39.1-2.1.2 3.6.3 7.2.5 10.8.9 12.3-10.5 22.7-20.1 28.9-4.5-2.1-8.2-5.7-11.3-9.7zm6.7 6.9c-.1-.1-.1-.1 0 0zm-34.4-43.2s-.1-.1-.1-.1.2.1.3.2c-.1-.1-.1-.1-.2-.1zm.1 0c-.1 0-.2-.1-.3-.1.1 0 .2.1.3.1zm68.9-387c-7.2 109-14.4 218.1-12.5 327.4-12.9-.2-25.9 1.1-38.7 2.1-1.5-109.8 3.9-219.6 16.5-328.7 11.5-.2 23.1-.5 34.7-.8zm-168.8 253.2c-5-.1-10-.2-15-.2-10-.4-21.5 2.7-30.1-3.8-12.3-10.7-8.7-35.9-10.9-51.2-1.9-52.3-4.4-106.7 13.9-156.7v.1c1.5-3.4 3.1-7 6-9.4.2-.2.3-.2.5-.2 28-1.5 56.3-.5 84.3.2-26.6 71-42.6 145.7-48.7 221.2zm7.5 38c.3-78.7 16.7-157.6 41.4-232.3 10.7-44.2 31-58.2 76.1-57.7-12 104.1-17.5 209-16.6 313.9-26.7-.9-53.3-3.8-79.8-6.9-10.6.1-20-5.8-21.1-17zm-71.7 188.5c-.2.1-.3.3 0 0zm-4.8 71.7c-.2-.1-1.2-1.1-1.4-1.4-4.3-9.2-.6-20.4-1.1-30.3.8-11.5-.3-23.4 3.9-34.3 1.6-5.8 11.1-13.9 16.8-15.7 22.2-6.8 46.5-5.1 69.6-5.2-1.1 30.2-2.5 60.4-4.1 90.6-25.3-1.5-51.3.4-76.8-1.4-.6-.1-4-.8-4.8-1.2-.8-.3-1.5-.6-2.1-1.1zm76.6 179c-1.1.2-2.2.4-3.4.5-.6.1-1.3.2-1.9.3-14.3 2-32.6 2.2-48.1 0-10.4 0-17.4-8.9-18.2-18.7-1.5-49.8-.1-99.9 3.3-149.6 24.9.6 50.1 1.5 74.9.3-1.8 55.8-11.8 111.5-6.6 167.2zm549.7 11.6c-7.7 33.3-48.7 29.2-75.4 30.5-84.3 3.2-168.7 2.1-253-.8-45.4-1.6-90.9 1.2-136.2-1.2-21-2-45.1 2-62.9-11.6-23.7-22.5-12.4-78.2-12.2-108.7 8.6-110.7 12-221.7 14.4-332.8 25.5 3 51 5.8 76.6 6.5 0 2.1.1 4.2.1 6.2-26.1-.5-20.9 18.7-20.3 37.5 2.3 16.6-.7 32.2 22 28.1-1 14.7 4.6 29.1 15.7 39 4.3 3.3 9.7 8.8 15.5 7 18.3-9.5 30.4-28.1 26-49 6.1-.5 14.4.7 17.6-5.9 3.9-11.3 1.8-23.9 2.1-35.6 1.1-16-4.9-24.8-21.8-23.6 0-1.1 0-2.2 0-3.3 71.9.6 143.7 4 215.6 4.3 0 1.5 0 3-.1 4.5-24.3-2.1-20.2 19.4-21 36.4 1.1 16.6-2.8 31.5 19.8 29.2-2.6 15.8 5.2 30.4 16.7 40.9 3.1 2.5 6.5 6.7 11 5.5 16.6-7.9 29.5-26.5 28.1-45.2 6.8-.2 16.1 2.2 19.9-5.2 4.2-11.2 3.3-23.6 4.3-35.3 2.4-17.9-4.7-24.5-22.2-24.8.1-2.1.1-4.2.1-6.3 34.4-.6 68.8-1.6 102.7-7.7 6.1 103.9 14.3 207.5 17.3 311.6-1.6 36.5 4.4 73.5-.4 109.8zm66.9-75.3c-.9 45.7-2 72.3-56.7 68.1.5-54.3-.8-108.8-2.6-163.1 20.5-.8 41 0 61.4.7.7 31.4-.7 62.9-2.1 94.3zm15.9-151.8c-1.1 16.2-1.6 33-4.7 48.9-23.7-.9-47.4-2-71.2-1-2.4-31.5-5-63-6.4-94.6 20.3 1.1 40.8.9 61.1 2.6 21 1.1 23.3 26.7 21.2 44.1zm-10.5-420c.1.2.1.4 0 0zm0-.3c0-.1 0-.1 0 0zm-365.6-188.3c-.2.1-.6.3 0 0zm-136.6 517c-.1-.1-.1-.2 0 0zm288.1 30.2c-49.5-2.3-99.1-.3-148.7-.4-50-.5-100.4-6-149.9 2.5-27.2 2-27.8 29.3-28.8 50.6 1 15-6.5 51.4 14.3 53.4-.5 42.8-2.1 85.5-2.6 128.3-2 19.5-2.3 52.2 25.1 50.6 104.5 6.8 209.5 7.6 313.9 0 20.7.1 27.7-17.7 27.7-35.7 3.8-46.3 5.5-92.8 5-139.3 7.3-.8 11.5-7.8 11.7-14.7 1.3-16.7.8-33.6-.4-50.2-1-46.2-30.6-44-67.3-45.1zm45.9 187c-.8 20-2 39.9-3.6 59.8-.6 16.5-3 30.5-22.9 29.5-38.8 2.6-77.6 4.3-116.4 4.9-64 1-128-1.1-191.8-5.1-4.2-.4-8.9.3-12.3-2.8-10.1-11.7-5.1-28.8-5.6-42.8.5-41.2 2.1-82.4 2.5-123.7 48.8 2.4 97.5 4 146.4 4.8-.3 9-.6 18-.9 27-25.1-2-20.6 18.7-21.5 36.4 1.1 16.6-2.8 31.5 19.8 29.2-2.6 15.8 5.2 30.4 16.7 40.9 3.1 2.5 6.5 6.7 11 5.5 16.6-7.9 29.5-26.5 28.1-45.2 18 1.9 21.8-2.8 23-20.3.4-15.8 8.6-45-16-44.3.8-9.4 1.6-18.9 2.1-28.3 47.5.2 95-.5 142.5-1.6.3 25.3-.1 50.7-1.1 76.1zm-192.7-111.3c1.6-17 10-32.5 24.2-42.1 10.8 9.4 15.4 23.8 17.3 37.6 2.7 22.5.6 45.8-1.3 68.4-14.3-1.5-28.8-1.1-43.2-1 1-21 .8-42 3-62.9zm0 .1c0 .2-.1.3 0 0zm23.4-43c-.1-.1-.2-.2 0 0zm1.6.2c.1-.1.2 0 0 0-.1 0-.1 0 0 0zm27.1 117c1.3.2 2.4.5 3.5 1.2s1.7 2.1 1.8 3.4v.4c0 13.4-.1 27.3-3.1 40.4 0-.1-.3.6-.5.9-25.5.1-51.5-.1-77-1.6-1.9-14-1.4-28.2-.3-42.3.1-1.2.5-2.5 1.5-3.3 24.3-3.3 49.8-1.9 74.1.9zm-39.3 91.5c-7.8-6.2-14.6-14.7-17.4-24.4-.1-.2 0-.6-.1-.8 0 .1 0 .1.1.2-.1-4 .2-7.9.2-11.9 12.6.3 25.1.6 37.7.7-.1 2.8-.2 5.5-.3 8.3.1 5.8-5.7 13.4-7.9 16.5-3.5 4.3-7.5 8.6-12.3 11.4zm3.2-2.1c.1-.1.1-.1 0 0zm-39.1-44.7c-.2-.2-.1-.2 0 0zm228.7-101c.4 7.4-4.2 8.5-10.4 7.9-47.8 1.3-95.7 1.9-143.6 1.7.5-24 .1-50.6-15.5-70.3-3.9-4.6-9.8-12.3-16.3-7.5-26.5 16.5-30.7 48.5-30.6 77.1-47.8-.8-95.5-2.4-143.3-4.6-21.7 1.3-16.6-8-18-24.8-.3-14.5.3-29.2 2.4-43.5.7-14.5 13-19.2 25.7-19.9 55.6-7.8 111.7 0 167.5-1.3 44.8-.7 89.6-1.4 134.4.9 11 1 22.9-.3 33.2 4.4 20.7 10.9 14 59.4 14.5 79.9zm-361.1-199.4c-8.5-.4-7.6 32.2.6 31.6 16.5-1.3 33.1-2 49.6-3.9 6.5-2.2 3.1-22.2 2.1-27.9-2-8-43.8.1-52.3.2zm44.6 19.4c-2.5.3-5.1.6-7.7.7-11 .5-22 1.5-33 2.2-.9-4.3-.8-8.8-.3-13.2 0 0 0-.3.1-.5 0-.1 0-.1 0-.2 13.5-1.7 27-2.8 40.6-3 .8 4.7.7 9.4.3 14zm276.2-16.2c-16-1.1-32.1-.8-48.1.1-8.7 2-7 21.4-5.5 28.2 2.1 6.8 24.9 1.9 31.8 3.3 7.8-.6 16.9 1.7 24.1-1.5 2.9-3.8 5.9-31-2.3-30.1zm-4.7 22.6c-5.7.2-11.4.1-17.1.1-7.9-.1-15.8.1-23.8 0-.4-4.6-.1-9.3.9-13.8 13.5-.7 27.2-.9 40.7-.2.4 4.7 0 9.3-.7 13.9zm-141.6 268c7.8-.6 16.9 1.7 24.1-1.5 2.9-3.8 5.8-31-2.3-30.2-16-1.1-32.1-.8-48.1.1-8.7 2-7 21.4-5.5 28.2 2.2 6.9 24.9 2 31.8 3.4zm-22.8-22.8c13.5-.7 27.2-.9 40.7-.2.4 4.6 0 9.3-.7 13.8-5.7.2-11.4.1-17.1.1-7.9-.1-15.8.1-23.8 0-.5-4.5-.2-9.2.9-13.7z" display="inline"/></g><g id="flat"><g><path d="m261.6 160.5c-29.2 73.8-44.7 151.1-50.6 230-25.8-.8-21.8.2-41.8-.1-11.1-.1-20.7-8.1-22.8-19-4.8-24.4-5.5-81.2-5-112.8.4-25.3 10.2-96.5 25.6-98.6 5.1-.7 94.6.5 94.6.5z" fill="#387984"/><path d="m830.7 191.5c10.6 44.8 19 145.9.6 188.1-6.5 15.2-24.6 13.4-53.8 13.1-11.4-88.8-29.2-148.8-61.2-233.3 21-.8 49.5.1 71.7-.3 26.6-4.2 37 7.2 42.7 32.4z" fill="#387984"/><path d="m138 690.6c-20.2-3.1-9-36-10.6-50.5-3-57.7 64.8-46.1 101.9-47.2-1.2 32.6-2.6 65.2-4.4 99-27.3-.2-59.9.9-86.9-1.3z" fill="#997d77"/><path d="m224.8 688.8c-1.3 55.4-12.8 119.4-6.2 178.4-19.3 2-70.1 9.5-80.8-10.2-5.2-10.5-3.8-21.6-4-33.4-.3-26.1 1.1-109.2 4.1-136.2 27.1 2.4 59.7 1.3 86.9 1.4z" fill="#dfd3c4"/><path d="m833.6 701.8c-1.9 34.4 5.9 139.7-16.2 159.8-11.5 11-39.3 11.4-55.2 10.2 2.1-54.7-.7-118.2-2.2-173.8 17.2-.9 54.2-.1 73.5.8z" fill="#dfd3c4"/><path d="m846.5 621.1c3.7 26-.8 49.5-3.4 75.5-.1 3.7-4.8 5.1-9.5 4.2-19.3-.8-56.3-1.7-73.5-.8-2.7-35-5.7-71.4-7.1-103.9 14 .7 47.4 1.5 61.1 2.2 15.1-.7 29.5 7.1 32.4 22.8z" fill="#997d77"/><path d="m747.1 448.1-516.8-2.9c-1.3 51.9-2.3 99.9-4 147.6.1 91.1-16.7 180.8-10.6 274.4 3.5 38.6 41.9 39.8 79 40.4 143.1.6 262.3 7.5 411.6 1.2 26-.8 53.4-4.5 58.9-37.1 3.2-142.6-9.4-279.8-18.1-423.6z" fill="#c7b19a"/><path d="m546.6 113.3c.2 3.8.4 11.4.6 15.3-9.7 0-19.4 0-29.2.1-.4-20.9.8-76.5-36.9-74.3-34.6 5.6-36.9 46.3-37 74.5-9.2.1-17.7.2-25.7.3-11.1-111.8 130.3-144.8 128.2-15.9z" fill="#57414e"/><path d="m720.3 159.5c-14.6-34.1-56.3-29.8-86.5-31.6 1.6 33.9-43.9 34.2-44-1-56.6-.4-114.9-.2-171.4.3-15.5.2-29 .5-42 .9-2.2 34.8-47.4 34.9-43.5 1.2-27.3-.1-62.1 3.4-74.3 31.2-30.4 76.8-47.1 157.4-52.2 239.6-.5 8.8-7 41.5 19.5 44.6 34.1 4 60.7 7.1 89.9 7.7-.4-40.4 47.3-40.4 47.8.3 83.4.6 150.8 4.1 224.7 4.3.5-40.9 48.8-41.4 47.8-.5 40.3-.9 79.7-.9 124.6-11.5 59.1-19.3-23.6-238.2-40.4-285.5z" fill="#997d77"/><g id="XMLID_9_"><g><path d="m669.9 692.3s-101.4-12-151.2-12.2l-53.4-.6c-51.8-.8-155.4 8.9-155.4 8.9-.7 55.6-2 79.2-2.7 134.8 0 3.7-5.8 41.9 15.9 43.3 109.4 7.1 206 8.1 315.4.6 17.9.4 25.7-10.3 26.1-27.5 4.1-48.7 5.9-98.5 5.3-147.3z" fill="#dfd3c4"/><g fill="#57414e"><path d="m588.3 457c1.4-107.7 1.8-223.4 1.5-330.1 14.4.2 29 .5 44 1 4.9 104.9 4.9 230.3 1.9 344.4-7.4-.8-14.9 1-22.9 1-7.6 0-15.7-1.9-24.7-1.8.1-4.5.2-10 .2-14.5z"/><path d="m376.4 128.1c-6.4 99.3-14.9 215.8-12.6 336.7-7.8-.3-15.2 3.4-23.2 3.9-7.4.5-24.6-1.6-24.6-1.6-1.9-120.6 5.7-241.4 16.9-337.8 15.1-.4 28.9-.8 43.5-1.2z"/><path d="m366.5 540.1c.4 7.7-11.4 24.3-24.5 30.6-21.7-10.1-25-29.2-24.6-46.8l23-3.1s17.1 0 25.1.6c.4 6.2.7 12.4 1 18.7z"/></g><path d="m316 467.1c17.6-.5 58.2-7.3 67.3 2.2 2.6 3.5 2.2 14.4 2.2 15.5-.8 8.7 4.5 36.8-7.6 35.8-20.1 1.2-40.3 2.3-60.4 3.2-6.1-.7-18.1 4.2-19.3-4.7-2.6-14.8-3.1-22.4-3.1-41.1 1.2-12.7 11.1-9 20.9-10.9z" fill="#b97460"/><path d="m364.7 484.3c1.2 6.8.8 12.6.5 16.6-.1 1.7-1.4 3.1-3.1 3.3-16 1.7-27.3 2-42.6 3.2-1.7.1-3.3-1-3.7-2.7-1.4-5.9-1-12.9-.3-17.1.3-1.5 1.5-2.6 3-2.8 13.8-1.7 29.9-3 42.7-3.2 1.7-.1 3.2 1.1 3.5 2.7z" fill="#57414e"/></g></g><path d="m634 528.1c-.2 4.8-.3 9.6-.5 14.4-.3 8.3-15.3 28.6-25 31.3-17.6-11.7-23.8-27.7-21.2-46.6 8.9-.5 15.6-1.6 23.4-1.5 7.7.1 15.9.6 23.3 2.4z" fill="#57414e"/><path d="m656.8 477.5c2.3 3.6 1.2 14.5 1.1 15.6-1.3 9.8.9 28.8-6.1 34.7-21.3 1.4-43.2-.5-64.6-.6-5.7-.9-16.7 1.5-18.4-4.4-2.1-7.3-1.7-23.1-.6-42.9.5-7.1 4.9-8.4 8.8-8.9 17.4-.2 71.7-4.2 79.8 6.5z" fill="#b97460"/><path d="m637.2 490.1c1 7.9-.3 14.3-.8 18.5-.1 1.1-1.1 2-2.2 2-16.9.6-28.5.1-44.6.1-1.1 0-2.1-.8-2.3-1.9-1.3-6.6-.1-14.8 1.1-19.1.3-.9 1.1-1.6 2.1-1.7 14.4-.8 31.4-1 44.6-.1 1.1.2 2 1.1 2.1 2.2z" fill="#57414e"/><path d="m669.9 692.3c-49.7 1.4-101.4 2-151.2 1.8l-53.4-.6c-51.8-.8-103.7-2.5-155.4-5.1-3.9-.2-8.1-.8-10.7-3.6-2.5-2.6-2.9-6.5-3.2-10.1-1.5-19.7-1.1-35.5 1.2-55.2.9-7.4 2.3-15.3 7.7-20.4 60.1-22.7 116.7-5.1 189.3-8.8 73.9-1.2 103.6-1 149.7 1.7 9.2.5 19.1 1.4 26.1 7.4 8.1 6.9 10 18.4 10.9 29 1.5 17.1 1.8 34.2.8 51.3.3 7.3-4 13.3-11.8 12.6z" fill="#997d77"/><path d="m518.7 694.1c-.5 12.4-1.5 25.1-2.5 36.7-11.3-.2-28 1.4-28 1.4l-24.1-2.8c3.3-32.8-4.8-72.7 15.5-100.7 3.2-3.1 14.7-17.3 18.7-12.7 21.6 18.8 21.1 50.9 20.4 78.1z" fill="#57414e"/><path d="m509.5 787c-.2 4.8-.4 9.6-.5 14.4-.3 8.3-15.3 28.6-25 31.3-17.7-11.9-23.7-27.5-21.2-46.6 11.2-5.8 16.5-5.9 24.8-5.8 7.2.2 15.5 3.7 21.9 6.7z" fill="#57414e"/><path d="m516.2 730.8c17.4.7 18.6 6.3 17.3 21.2-.8 14.2-.2 13.1-2.2 27.1-.3 12-13.8 7.2-21.7 7.9-15.6-.2-31.2-.5-46.8-.9-5.7-.9-13.7 1.7-18-2.7-3.2-16.1-2.1-24.8-1-44.6 1.9-12.2 11.2-8.4 20.4-9.4 20.7-.2 35.5-.8 52 1.4z" fill="#b97460"/><path d="m512.7 749.1c.4 7.1 1.1 19.5-3 20.6-16.3.6-29 0-44.7.2-5.3-.3-2.6-23.6 1-22.7 8.6.3 43.9-3.5 46.7 1.9z" fill="#57414e"/></g></g><g id="colored_x5F_line" display="none"><g display="inline"><g><path d="m261.6 160.5c-29.2 73.8-44.7 151.1-50.6 230-25.8-.8-21.8.2-41.8-.1-11.1-.1-20.7-8.1-22.8-19-4.8-24.4-5.5-81.2-5-112.8.4-25.3 10.2-96.5 25.6-98.6 5.1-.7 94.6.5 94.6.5z" fill="#7ab393"/><path d="m830.7 191.5c10.6 44.8 19 145.9.6 188.1-6.5 15.2-24.6 13.4-53.8 13.1-11.4-88.8-29.2-148.8-61.2-233.3 21-.8 49.5.1 71.7-.3 26.6-4.2 37 7.2 42.7 32.4z" fill="#7ab393"/><path d="m138 690.6c-20.2-3.1-9-36-10.6-50.5-3-57.7 64.8-46.1 101.9-47.2-1.2 32.6-2.6 65.2-4.4 99-27.3-.2-59.9.9-86.9-1.3z" fill="#997d77"/><path d="m224.8 688.8c-1.3 55.4-12.8 119.4-6.2 178.4-19.3 2-70.1 9.5-80.8-10.2-5.2-10.5-3.8-21.6-4-33.4-.3-26.1 1.1-109.2 4.1-136.2 27.1 2.4 59.7 1.3 86.9 1.4z" fill="#dfd3c4"/><path d="m833.6 701.8c-1.9 34.4 5.9 139.7-16.2 159.8-11.5 11-39.3 11.4-55.2 10.2 2.1-54.7-.7-118.2-2.2-173.8 17.2-.9 54.2-.1 73.5.8z" fill="#dfd3c4"/><path d="m846.5 621.1c3.7 26-.8 49.5-3.4 75.5-.1 3.7-4.8 5.1-9.5 4.2-19.3-.8-56.3-1.7-73.5-.8-2.7-35-5.7-71.4-7.1-103.9 14 .7 47.4 1.5 61.1 2.2 15.1-.7 29.5 7.1 32.4 22.8z" fill="#997d77"/><path d="m747.1 448.1-516.8-2.9c-1.3 51.9-2.3 99.9-4 147.6.1 91.1-16.7 180.8-10.6 274.4 3.5 38.6 41.9 39.8 79 40.4 143.1.6 262.3 7.5 411.6 1.2 26-.8 53.4-4.5 58.9-37.1 3.2-142.6-9.4-279.8-18.1-423.6z" fill="#c7b19a"/><path d="m546.6 113.3c.2 3.8.4 11.4.6 15.3-9.7 0-19.4 0-29.2.1-.4-20.9.8-76.5-36.9-74.3-34.6 5.6-36.9 46.3-37 74.5-9.2.1-17.7.2-25.7.3-11.1-111.8 130.3-144.8 128.2-15.9z" fill="#57414e"/><path d="m720.3 159.5c-14.6-34.1-56.3-29.8-86.5-31.6 1.6 33.9-43.9 34.2-44-1-56.6-.4-114.9-.2-171.4.3-15.5.2-29 .5-42 .9-2.2 34.8-47.4 34.9-43.5 1.2-27.3-.1-62.1 3.4-74.3 31.2-30.4 76.8-47.1 157.4-52.2 239.6-.5 8.8-7 41.5 19.5 44.6 34.1 4 60.7 7.1 89.9 7.7-.4-40.4 47.3-40.4 47.8.3 83.4.6 150.8 4.1 224.7 4.3.5-40.9 48.8-41.4 47.8-.5 40.3-.9 79.7-.9 124.6-11.5 59.1-19.3-23.6-238.2-40.4-285.5z" fill="#997d77"/><g id="XMLID_20_"><g><path d="m669.9 692.3s-101.4-12-151.2-12.2l-53.4-.6c-51.8-.8-155.4 8.9-155.4 8.9-.7 55.6-2 79.2-2.7 134.8 0 3.7-5.8 41.9 15.9 43.3 109.4 7.1 206 8.1 315.4.6 17.9.4 25.7-10.3 26.1-27.5 4.1-48.7 5.9-98.5 5.3-147.3z" fill="#dfd3c4"/><g fill="#57414e"><path d="m588.3 457c1.4-107.7 1.8-223.4 1.5-330.1 14.4.2 29 .5 44 1 4.9 104.9 4.9 230.3 1.9 344.4-7.4-.8-14.9 1-22.9 1-7.6 0-15.7-1.9-24.7-1.8.1-4.5.2-10 .2-14.5z"/><path d="m376.4 128.1c-6.4 99.3-14.9 215.8-12.6 336.7-7.8-.3-15.2 3.4-23.2 3.9-7.4.5-24.6-1.6-24.6-1.6-1.9-120.6 5.7-241.4 16.9-337.8 15.1-.4 28.9-.8 43.5-1.2z"/><path d="m366.5 540.1c.4 7.7-11.4 24.3-24.5 30.6-21.7-10.1-25-29.2-24.6-46.8l23-3.1s17.1 0 25.1.6c.4 6.2.7 12.4 1 18.7z"/></g><path d="m316 467.1c17.6-.5 58.2-7.3 67.3 2.2 2.6 3.5 2.2 14.4 2.2 15.5-.8 8.7 4.5 36.8-7.6 35.8-20.1 1.2-40.3 2.3-60.4 3.2-6.1-.7-18.1 4.2-19.3-4.7-2.6-14.8-3.1-22.4-3.1-41.1 1.2-12.7 11.1-9 20.9-10.9z" fill="#d5a57d"/><path d="m364.7 484.3c1.2 6.8.8 12.6.5 16.6-.1 1.7-1.4 3.1-3.1 3.3-16 1.7-27.3 2-42.6 3.2-1.7.1-3.3-1-3.7-2.7-1.4-5.9-1-12.9-.3-17.1.3-1.5 1.5-2.6 3-2.8 13.8-1.7 29.9-3 42.7-3.2 1.7-.1 3.2 1.1 3.5 2.7z" fill="#57414e"/></g></g><path d="m634 528.1c-.2 4.8-.3 9.6-.5 14.4-.3 8.3-15.3 28.6-25 31.3-17.6-11.7-23.8-27.7-21.2-46.6 8.9-.5 15.6-1.6 23.4-1.5 7.7.1 15.9.6 23.3 2.4z" fill="#57414e"/><path d="m656.8 477.5c2.3 3.6 1.2 14.5 1.1 15.6-1.3 9.8.9 28.8-6.1 34.7-21.3 1.4-43.2-.5-64.6-.6-5.7-.9-16.7 1.5-18.4-4.4-2.1-7.3-1.7-23.1-.6-42.9.5-7.1 4.9-8.4 8.8-8.9 17.4-.2 71.7-4.2 79.8 6.5z" fill="#d5a57d"/><path d="m637.2 490.1c1 7.9-.3 14.3-.8 18.5-.1 1.1-1.1 2-2.2 2-16.9.6-28.5.1-44.6.1-1.1 0-2.1-.8-2.3-1.9-1.3-6.6-.1-14.8 1.1-19.1.3-.9 1.1-1.6 2.1-1.7 14.4-.8 31.4-1 44.6-.1 1.1.2 2 1.1 2.1 2.2z" fill="#57414e"/><path d="m669.9 692.3c-49.7 1.4-101.4 2-151.2 1.8l-53.4-.6c-51.8-.8-103.7-2.5-155.4-5.1-3.9-.2-8.1-.8-10.7-3.6-2.5-2.6-2.9-6.5-3.2-10.1-1.5-19.7-1.1-35.5 1.2-55.2.9-7.4 2.3-15.3 7.7-20.4 60.1-22.7 116.7-5.1 189.3-8.8 73.9-1.2 103.6-1 149.7 1.7 9.2.5 19.1 1.4 26.1 7.4 8.1 6.9 10 18.4 10.9 29 1.5 17.1 1.8 34.2.8 51.3.3 7.3-4 13.3-11.8 12.6z" fill="#997d77"/><path d="m518.7 694.1c-.5 12.4-1.5 25.1-2.5 36.7-11.3-.2-28 1.4-28 1.4l-24.1-2.8c3.3-32.8-4.8-72.7 15.5-100.7 3.2-3.1 14.7-17.3 18.7-12.7 21.6 18.8 21.1 50.9 20.4 78.1z" fill="#57414e"/><path d="m509.5 787c-.2 4.8-.4 9.6-.5 14.4-.3 8.3-15.3 28.6-25 31.3-17.7-11.9-23.7-27.5-21.2-46.6 11.2-5.8 16.5-5.9 24.8-5.8 7.2.2 15.5 3.7 21.9 6.7z" fill="#57414e"/><path d="m516.2 730.8c17.4.7 18.6 6.3 17.3 21.2-.8 14.2-.2 13.1-2.2 27.1-.3 12-13.8 7.2-21.7 7.9-15.6-.2-31.2-.5-46.8-.9-5.7-.9-13.7 1.7-18-2.7-3.2-16.1-2.1-24.8-1-44.6 1.9-12.2 11.2-8.4 20.4-9.4 20.7-.2 35.5-.8 52 1.4z" fill="#d5a57d"/><path d="m512.7 749.1c.4 7.1 1.1 19.5-3 20.6-16.3.6-29 0-44.7.2-5.3-.3-2.6-23.6 1-22.7 8.6.3 43.9-3.5 46.7 1.9z" fill="#57414e"/></g><g fill="#57414e"><path d="m851.1 621.1c-4.1-22.3-23.5-28.4-43.7-27.6-15.7-.7-31.4-1-47.1-1.7-2.3-46.7-4.1-93.4-8.3-140 26.7-2.6 38.9-30.3 34.7-54.5 44 3.2 50.9-7.1 57.1-49.1 5.9-48.5 2-98-6.3-146-4.3-28-14.9-54.2-48.4-47.5-22 .6-44.1-.7-66.1.3-10.1-22.8-36-28.8-58.7-30.3-37.6-1.9-75.2-2.5-112.8-2.5-1.2-24.7-1.5-51.6-16-72.7-14.9-21.9-45.4-29.1-69.5-19.7-37 13.9-54.7 55.5-52.3 93-23.9.4-47.9 1.1-71.8 1.8-30.5.4-69.6.5-86 31.4-30.3-.5-61-2.6-91.2 0-20.4 10.8-23.5 63.8-26.8 85.6-2.3 40.5-1.5 81.5 2.7 121.9 2.6 38.1 33.6 31.1 61.5 31.5-2.7 20.4-3.8 52.2 23.6 54.3-1 46.4-2.1 92.8-3.8 139.2-46.8.5-102.3-7.8-99.3 56.7 1.1 16-8.4 41 10.7 48.9-3.9 47-3.9 94.2-4 141.4-.8 15.3 5.2 34.6 22.6 36.9 19.8 3.2 40.2 3 59.9-.3 6.6 40.1 49.8 39.4 81.8 40.2 35 2 70.1.8 105.1.8 96.7 2.1 193.5 5.5 290.3 1.1 30 0 72.7-1.3 79.9-37.7 52.5 4.6 67.7-19.1 66.7-68.5 1.5-34.1 3.3-68.3 2.5-102.4 10.7 0 9.7-12.7 10.9-20.3 1.7-21.4 5.6-43.1 2.1-64.2zm-14-9.7c-.1-.2-.4-.7 0 0zm-14.7-226.9c-.1 0-.1.1-.2.1.3-.2.8-.5.2-.1zm-47.3-220.7c11.5 1 23.5-2.5 34.6.5 4.1 1.6 10.5 9.2 12.5 15.1 15.6 50.9 23.3 147.7 5.2 197.9-2.2 6.4-8.2 10.1-14.8 10.6-9 1-18 .4-27 .3-9.6-77.1-31.8-151.6-58.3-224.4 16-.4 31.9 0 47.8 0zm-85-25.3c30.6 7.9 32.8 46.2 43.4 70.9 21.3 63.2 38.6 128.3 44.5 194.9 2.8 38.8-27.5 39.4-57.1 43.2-26.6 4-53.5 3.7-80.3 4.5 2.4-106.5 2.5-213-2.2-319.4 17.5.7 35 .3 51.7 5.9zm-36.5 343.8c0 13.4-.1 27.3-3.1 40.4 0-.1-.3.6-.5.9-25.5.1-51.5-.1-77-1.6-1.9-14-1.4-28.2-.3-42.3.1-1.2.5-2.5 1.5-3.3 22-3 45.2-1.9 67.4.1 2.2.3 4.4.6 6.6.8 1.3.2 2.4.5 3.5 1.2s1.7 2.1 1.8 3.4c.1.1.1.3.1.4zm-3.5 41.2c0-.1.1-.3 0 0zm-.2.2c-.2.1-.2.1 0 0zm-41 45c-7.8-6.2-14.6-14.7-17.4-24.4-.1-.2 0-.6-.1-.8 0 .1 0 .1.1.2-.1-4 .2-7.9.2-11.9 12.6.3 25.1.6 37.7.7-.1 2.8-.2 5.5-.3 8.3.1 5.8-5.7 13.4-7.9 16.5-3.5 4.4-7.5 8.7-12.3 11.4zm3.2-2c.1-.1.1-.1 0 0zm-39.1-44.8c-.2-.2-.1-.1 0 0zm21.3-390.4c11.7.2 23.4.4 35.1.8 5 111.3 4.6 222.8 1.9 334.1-12.9-1-25.8-.6-38.7-.5 1.6-111.5 2-222.9 1.7-334.4zm-171.6-19.3c-.6-49.4 48.3-99.9 96.1-67.5 6.8 5.3 11.7 12.5 15.1 20.4 7.4 18 7.6 37.9 8.6 57.1-6.7 0-13.5 0-20.2 0-.6-27.5-2.6-69.5-38-72.4-37.6 2.2-44.8 41.9-44.7 72.6-5.6.1-11.2.1-16.9.2-.2-3.4-.2-6.9 0-10.4zm63.2-53.3c6.5.9 12.2 4.8 16.3 9.8 0 0 .8 1 .8 1 10.8 15.2 8.7 34.8 10.3 52.4-21.6 0-43.2 0-64.8.2.1-6.7.6-13.5 1.4-20.2 0 0 .1-.5.1-.8s.1-.7.1-.6c1.7-9.8 3-20.6 9.3-28.6 6.9-7.1 16.2-14.2 26.5-13.2.1 0 .1 0 0 0zm21.4 18.4c-.1-.3-.1-.3 0 0zm-.5 53.9c26.2-.1 52.4-.2 78.5.1.3 107 0 214.1-1.4 321.1-72-.3-143.9-3.7-215.8-4.3-1.3-105.4 5.7-210.6 12.6-315.7 42-1 84-1 126.1-1.2zm-127 384.6c-25.5 2-51.3 3.5-76.9 4 0-.1-.1-.2-.1-.2-2.8-13.8-4.1-32.1-3-44.1 0-.2.2-.5.3-.7l.3-.3c1.6-1.6 4.2-1.7 6.4-2 20.7-2 46.4-4.4 68.8-2.6 1.6.2 3.1.8 4 2.2.1-.1.1.2.2.4s.1.2 0 .1c1.9 14 2.7 29.3 0 43.2zm-49.4 40.2s.1.1.1.1c-.1 0-.1-.1-.1-.1-6.9-7.9-8.4-17.8-8.2-27.9 13-.6 26.1-1.3 39.1-2.1.2 3.6.3 7.2.5 10.8.9 12.3-10.5 22.7-20.1 28.9-4.5-2.1-8.2-5.7-11.3-9.7zm6.7 6.9c-.1-.1-.1-.1 0 0zm-34.4-43.2s-.1-.1-.1-.1.2.1.3.2c-.1-.1-.1-.1-.2-.1zm.1 0c-.1 0-.2-.1-.3-.1.1 0 .2.1.3.1zm68.9-387c-7.2 109-14.4 218.1-12.5 327.4-12.9-.2-25.9 1.1-38.7 2.1-1.5-109.8 3.9-219.6 16.5-328.7 11.5-.2 23.1-.5 34.7-.8zm-168.8 253.2c-5-.1-10-.2-15-.2-10-.4-21.5 2.7-30.1-3.8-12.3-10.7-8.7-35.9-10.9-51.2-1.9-52.3-4.4-106.7 13.9-156.7v.1c1.5-3.4 3.1-7 6-9.4.2-.2.3-.2.5-.2 28-1.5 56.3-.5 84.3.2-26.6 71-42.6 145.7-48.7 221.2zm7.5 38c.3-78.7 16.7-157.6 41.4-232.3 10.7-44.2 31-58.2 76.1-57.7-12 104.1-17.5 209-16.6 313.9-26.7-.9-53.3-3.8-79.8-6.9-10.6.1-20-5.8-21.1-17zm-71.7 188.5c-.2.1-.3.3 0 0zm-4.8 71.7c-.2-.1-1.2-1.1-1.4-1.4-4.3-9.2-.6-20.4-1.1-30.3.8-11.5-.3-23.4 3.9-34.3 1.6-5.8 11.1-13.9 16.8-15.7 22.2-6.8 46.5-5.1 69.6-5.2-1.1 30.2-2.5 60.4-4.1 90.6-25.3-1.5-51.3.4-76.8-1.4-.6-.1-4-.8-4.8-1.2-.8-.3-1.5-.6-2.1-1.1zm76.6 179c-1.1.2-2.2.4-3.4.5-.6.1-1.3.2-1.9.3-14.3 2-32.6 2.2-48.1 0-10.4 0-17.4-8.9-18.2-18.7-1.5-49.8-.1-99.9 3.3-149.6 24.9.6 50.1 1.5 74.9.3-1.8 55.8-11.8 111.5-6.6 167.2zm549.7 11.6c-7.7 33.3-48.7 29.2-75.4 30.5-84.3 3.2-168.7 2.1-253-.8-45.4-1.6-90.9 1.2-136.2-1.2-21-2-45.1 2-62.9-11.6-23.7-22.5-12.4-78.2-12.2-108.7 8.6-110.7 12-221.7 14.4-332.8 25.5 3 51 5.8 76.6 6.5 0 2.1.1 4.2.1 6.2-26.1-.5-20.9 18.7-20.3 37.5 2.3 16.6-.7 32.2 22 28.1-1 14.7 4.6 29.1 15.7 39 4.3 3.3 9.7 8.8 15.5 7 18.3-9.5 30.4-28.1 26-49 6.1-.5 14.4.7 17.6-5.9 3.9-11.3 1.8-23.9 2.1-35.6 1.1-16-4.9-24.8-21.8-23.6 0-1.1 0-2.2 0-3.3 71.9.6 143.7 4 215.6 4.3 0 1.5 0 3-.1 4.5-24.3-2.1-20.2 19.4-21 36.4 1.1 16.6-2.8 31.5 19.8 29.2-2.6 15.8 5.2 30.4 16.7 40.9 3.1 2.5 6.5 6.7 11 5.5 16.6-7.9 29.5-26.5 28.1-45.2 6.8-.2 16.1 2.2 19.9-5.2 4.2-11.2 3.3-23.6 4.3-35.3 2.4-17.9-4.7-24.5-22.2-24.8.1-2.1.1-4.2.1-6.3 34.4-.6 68.8-1.6 102.7-7.7 6.1 103.9 14.3 207.5 17.3 311.6-1.6 36.5 4.4 73.5-.4 109.8zm66.9-75.3c-.9 45.7-2 72.3-56.7 68.1.5-54.3-.8-108.8-2.6-163.1 20.5-.8 41 0 61.4.7.7 31.4-.7 62.9-2.1 94.3zm15.9-151.8c-1.1 16.2-1.6 33-4.7 48.9-23.7-.9-47.4-2-71.2-1-2.4-31.5-5-63-6.4-94.6 20.3 1.1 40.8.9 61.1 2.6 21 1.1 23.3 26.7 21.2 44.1z"/><path d="m832.5 227.6c.1.4.1.2 0 0z"/><path d="m832.5 227.3c0-.1 0-.1 0 0z"/><path d="m466.9 39c-.6.3-.2.1 0 0z"/><path d="m330.3 556c-.1-.2-.1-.1 0 0z"/><path d="m618.4 586.2c-49.5-2.3-99.1-.3-148.7-.4-50-.5-100.4-6-149.9 2.5-27.2 2-27.8 29.3-28.8 50.6 1 15-6.5 51.4 14.3 53.4-.5 42.8-2.1 85.5-2.6 128.3-2 19.5-2.3 52.2 25.1 50.6 104.5 6.8 209.5 7.6 313.9 0 20.7.1 27.7-17.7 27.7-35.7 3.8-46.3 5.5-92.8 5-139.3 7.3-.8 11.5-7.8 11.7-14.7 1.3-16.7.8-33.6-.4-50.2-1-46.2-30.6-44-67.3-45.1zm45.9 187c-.8 20-2 39.9-3.6 59.8-.6 16.5-3 30.5-22.9 29.5-38.8 2.6-77.6 4.3-116.4 4.9-64 1-128-1.1-191.8-5.1-4.2-.4-8.9.3-12.3-2.8-10.1-11.7-5.1-28.8-5.6-42.8.5-41.2 2.1-82.4 2.5-123.7 48.8 2.4 97.5 4 146.4 4.8-.3 9-.6 18-.9 27-25.1-2-20.6 18.7-21.5 36.4 1.1 16.6-2.8 31.5 19.8 29.2-2.6 15.8 5.2 30.4 16.7 40.9 3.1 2.5 6.5 6.7 11 5.5 16.6-7.9 29.5-26.5 28.1-45.2 18 1.9 21.8-2.8 23-20.3.4-15.8 8.6-45-16-44.3.8-9.4 1.6-18.9 2.1-28.3 47.5.2 95-.5 142.5-1.6.3 25.3-.1 50.7-1.1 76.1zm-192.7-111.3c1.6-17 10-32.5 24.2-42.1 10.8 9.4 15.4 23.8 17.3 37.6 2.7 22.5.6 45.8-1.3 68.4-14.3-1.5-28.8-1.1-43.2-1 1-21 .8-42 3-62.9zm0 .1c0 .2-.1.3 0 0zm23.4-43c-.1-.1-.2-.2 0 0zm1.6.2c.1-.1.2 0 0 0-.1 0-.1 0 0 0zm27.1 117c1.3.2 2.4.5 3.5 1.2s1.7 2.1 1.8 3.4v.4c0 13.4-.1 27.3-3.1 40.4 0-.1-.3.6-.5.9-25.5.1-51.5-.1-77-1.6-1.9-14-1.4-28.2-.3-42.3.1-1.2.5-2.5 1.5-3.3 24.3-3.3 49.8-1.9 74.1.9zm-39.3 91.5c-7.8-6.2-14.6-14.7-17.4-24.4-.1-.2 0-.6-.1-.8 0 .1 0 .1.1.2-.1-4 .2-7.9.2-11.9 12.6.3 25.1.6 37.7.7-.1 2.8-.2 5.5-.3 8.3.1 5.8-5.7 13.4-7.9 16.5-3.5 4.3-7.5 8.6-12.3 11.4zm3.2-2.1c.1-.1.1-.1 0 0zm-39.1-44.7c-.2-.2-.1-.2 0 0zm228.7-101c.4 7.4-4.2 8.5-10.4 7.9-47.8 1.3-95.7 1.9-143.6 1.7.5-24 .1-50.6-15.5-70.3-3.9-4.6-9.8-12.3-16.3-7.5-26.5 16.5-30.7 48.5-30.6 77.1-47.8-.8-95.5-2.4-143.3-4.6-21.7 1.3-16.6-8-18-24.8-.3-14.5.3-29.2 2.4-43.5.7-14.5 13-19.2 25.7-19.9 55.6-7.8 111.7 0 167.5-1.3 44.8-.7 89.6-1.4 134.4.9 11 1 22.9-.3 33.2 4.4 20.7 10.9 14 59.4 14.5 79.9z"/></g></g></g></svg>