<svg id="Layer_5" enable-background="new 0 0 64 64" height="512" viewBox="0 0 64 64" width="512" xmlns="http://www.w3.org/2000/svg"><path d="m12 53c0 1.78-.79 2.77-.96 2.96-3.04-.3-3.04-1.96-3.04-1.96s0-2 0-3c0 0 4 0 4 2z" fill="#cf9e76"/><path d="m56 61s0 1-1 1c-4-6-3-10-3-14 0-5.1-3-7-5-8h-.02c.01-.34.02-.67.02-1 0-2.39-.42-4.35-1.12-5.95l.12-.05c8 0 10 6 10 11 0 6.49-2.14 9.55 0 17z" fill="#ffc729"/><path d="m52 48c0 4-1 8 3 14-5-1-6-5-6.38-9-.35-3.8-.14-7.59-2.26-8.82.33-1.4.54-2.81.62-4.18h.02c2 1 5 2.9 5 8z" fill="#fcd770"/><path d="m49 18c0 2 0 4-.38 6.38-.37 2.37-1.12 5.12-2.62 8.62l-.12.05c-1.92-4.43-5.94-6.05-8.88-6.05-2.46 0-4.54 1.13-5.77 2-.08 0-.15 0-.23 0 0-.34-.01-.68-.02-1h.02s3.94-3.72 5-9c1-5-1.85-17 3.28-17 2.68 0 5.12 1.75 6.87 4.62 1.76 2.88 2.85 6.88 2.85 11.38z" fill="#ffeaa7"/><path d="m46.36 44.18c-2 8.59-8.37 16.99-13.36 17.82 0 0-1.12 0-1.69-.84l.69-.16s9-14 9-22c0-7.88-4.85-9.94-9.77-10 1.23-.87 3.31-2 5.77-2 2.94 0 6.96 1.62 8.88 6.05.7 1.6 1.12 3.56 1.12 5.95 0 .33-.01.66-.02 1-.08 1.37-.29 2.78-.62 4.18z" fill="#fcd770"/><path d="m31.23 29c4.92.06 9.77 2.12 9.77 10 0 8-9 22-9 22l-.69.16c-.19-.28-.31-.66-.31-1.16 0-1.6 2.55-8.3 4.09-12.97.39-1.18.71-2.23.91-3.03 1-4 1-12-5-12h-1v-1c0-.31-.01-.65-.04-1h.04s.45-.45 1.23-1z" fill="#ffc729"/><path d="m31 32c6 0 6 8 5 12-.2.8-.52 1.85-.91 3.03l-.09-.03c-9 8-19 9-23 9-.35 0-.67-.02-.96-.04.17-.19.96-1.18.96-2.96 0-2-4-2-4-2 0-5 13-12 18-20 0-1 0-3-2-3s-7 8-13 8c6-1 8-13 14-13 3.58 0 4.76 4.01 4.96 7 .03.35.04.69.04 1v1z" fill="#fcd770"/><path d="m31 29h.23c-.78.55-1.23 1-1.23 1h-.04c-.2-2.99-1.38-7-4.96-7-6 0-8 12-14 13 0 0-1 0-1-1 0-2 4-4 5-9s5-8 8-8c3.83 0 7.66 2.75 7.98 10 .01.32.02.66.02 1z" fill="#ffc729"/><path d="m26.287 38.299 1.427 1.401c1.763-1.795 2.98-2.98 2.984-2.984l-1.395-1.434c0 .001-1.232 1.199-3.016 3.017z"/><path d="m56.482 50.008c.255-1.807.518-3.675.518-6.008 0-9.443-5.847-11.541-9.537-11.923 2.537-6.394 2.537-10.296 2.537-14.077 0-9.533-4.71-17-10.724-17-1.002 0-1.845.346-2.505 1.029-1.897 1.961-1.75 6.356-1.608 10.607.081 2.399.156 4.667-.144 6.168-.582 2.91-2.122 5.337-3.284 6.838-1.032-6.295-4.99-8.642-8.735-8.642-3.472 0-7.893 3.366-8.98 8.804-.53 2.648-2.002 4.401-3.186 5.81-.984 1.17-1.834 2.181-1.834 3.386 0 1.299 1.03 2 2 2 4.202 0 7.774-3.377 10.383-5.842.931-.881 2.207-2.087 2.617-2.158.651 0 .962.256.997 1.714-2.253 3.477-6.159 6.865-9.613 9.862-4.499 3.903-8.384 7.274-8.384 10.424v3c0 .123.057 3 5 3 3.622 0 12.449-.765 21.081-7.172-.137.396-.275.794-.413 1.19-1.66 4.773-2.668 7.758-2.668 8.982 0 2.201 1.794 3 3 3h.083l.082-.014c5.308-.885 11.181-8.584 13.644-16.657.428 1.144.539 2.821.661 4.655.299 4.504.709 10.672 7.334 11.997l.196.019c1.299 0 2-1.03 2-2l-.039-.276c-1.333-4.649-.937-7.461-.479-10.716zm-1.482-6.008c0 2.192-.253 3.99-.498 5.729-.402 2.854-.784 5.573.021 9.465-1.799-3.612-1.691-6.432-1.578-9.171.028-.68.055-1.352.055-2.023 0-5.077-2.715-7.353-5.009-8.609.002-.13.009-.262.009-.391 0-1.891-.247-3.522-.668-4.932 6.631.676 7.668 6.421 7.668 9.932zm-18.02-24.804c.346-1.729.267-4.108.182-6.627-.116-3.475-.261-7.798 1.046-9.15.277-.286.617-.419 1.068-.419 4.81 0 8.724 6.729 8.724 15 0 3.639-.008 7.103-2.192 12.805-2.43-3.638-6.332-4.805-8.808-4.805-1.296 0-2.487.281-3.528.676 1.276-1.685 2.873-4.3 3.508-7.48zm-24.615 13.704c1.26-1.5 2.986-3.553 3.616-6.704.938-4.695 4.68-7.196 7.019-7.196 3.237 0 5.511 2.039 6.479 5.628-.953-1.562-2.402-2.628-4.479-2.628-3.632 0-5.858 3.482-8.012 6.851-1.767 2.764-3.592 5.62-5.988 6.132.016-.478.671-1.258 1.365-2.083zm-3.365 21.1v-1.924c1.003.143 2 .477 2 .924 0 .891-.236 1.512-.436 1.883-1.134-.211-1.529-.652-1.564-.883zm3.681.99c.181-.539.319-1.195.319-1.99 0-.156-.017-.303-.042-.445 3.182-2.164 6.694-5.05 10.726-8.825l-1.367-1.46c-3.969 3.716-7.412 6.546-10.515 8.653-.707-.465-1.648-.734-2.615-.85.797-2.162 4.068-5.001 7.507-7.986 3.642-3.16 7.769-6.741 10.154-10.557l.152-.243v-.287c0-2.654-1.009-4-3-4-1.13 0-2.268 1.076-3.991 2.704-.856.809-1.827 1.725-2.879 2.566.53-.759 1.039-1.554 1.543-2.342 1.95-3.049 3.79-5.928 6.327-5.928 3.888 0 4 6.284 4 7v2h2c1.342 0 2.355.462 3.097 1.414 1.816 2.326 1.553 6.862.933 9.344-.17.681-.438 1.563-.757 2.548-8.376 7.409-17.453 8.578-21.592 8.684zm21.876-3.315c.971-2.79 1.974-5.675 2.414-7.433.616-2.463 1.137-7.943-1.296-11.06-1.116-1.427-2.732-2.182-4.675-2.182 0-.182-.003-.366-.009-.55.134-.115.328-.268.547-.433 5.686.175 8.462 3.112 8.462 8.983 0 5.957-5.358 15.643-7.732 19.643.465-1.722 1.451-4.559 2.289-6.968zm-1.328 9.249c1.758-2.833 8.771-14.596 8.771-21.924 0-5.775-2.591-9.437-7.381-10.599.731-.236 1.528-.401 2.381-.401 3.113 0 9 2.299 9 11 0 9.342-7.362 20.552-12.771 21.924zm16.236-10.072c-.192-2.895-.381-5.65-1.991-7.093.15-.716.268-1.428.355-2.135 1.715 1.136 3.171 2.914 3.171 6.376 0 .644-.027 1.288-.054 1.941-.118 2.862-.24 6.045 1.756 10.083-2.747-1.85-2.997-5.56-3.237-9.172z"/></svg>