<svg id="Capa_1" enable-background="new 0 0 511.945 511.945" height="512" viewBox="0 0 511.945 511.945" width="512" xmlns="http://www.w3.org/2000/svg"><g><g><path d="m504.532 202.023c0 6.496-2.607 12.707-7.239 17.259l-16.678 16.383-58.618 57.549c-20.252 19.886-47.5 31.025-75.877 31.025h-265.693c-18.939 0-36.554-9.724-46.644-25.741l-22.554-35.8c-5.936-9.408-4.613-21.657 3.177-29.589l19.387-19.723c10.365-10.549 24.539-16.485 39.323-16.485h317.285l58.72-12.809 26.076-5.692c1.751-.387 3.493-.56 5.203-.56 13.003.001 24.132 10.55 24.132 24.183z" fill="#fee97d"/><path d="m480.401 177.841c-1.71 0-3.452.173-5.203.56l-12.64 2.759c7.08 4.154 11.969 11.829 11.969 20.864 0 6.496-2.607 12.707-7.24 17.259l-75.297 73.932c-20.252 19.886-47.5 31.025-75.877 31.025h30.005c28.377 0 55.625-11.139 75.877-31.025l58.618-57.55 16.678-16.383c4.633-4.552 7.239-10.762 7.239-17.259.002-13.633-11.127-24.182-24.129-24.182z" fill="#fedf30"/><path d="m109.927 274.836h212.527c11.743 0 17.784 14.051 9.705 22.573l-34.341 36.228c-7.76 8.186-18.544 12.823-29.823 12.823h-153.406c-8.505 0-16.84-2.387-24.056-6.89l-28.057-17.507c-8.658-5.403-8.969-17.899-.59-23.725l22.098-15.367c7.614-5.297 16.668-8.135 25.943-8.135z" fill="#d77f4a"/><path d="m322.454 274.836h-30.005c11.743 0 17.784 14.051 9.706 22.573l-34.341 36.228c-7.76 8.186-18.544 12.823-29.824 12.823h30.005c11.28 0 22.063-4.636 29.823-12.823l34.341-36.228c8.079-8.522 2.038-22.573-9.705-22.573z" fill="#c86d36"/><path d="m504.532 202.023c0 6.496-2.607 12.707-7.239 17.259l-16.678 16.383-31.493-51.572 26.076-5.692c1.751-.387 3.493-.56 5.203-.56 13.002 0 24.131 10.549 24.131 24.182z" fill="#918291"/><path d="m480.401 177.841c-1.71 0-3.452.173-5.203.56l-12.64 2.759c7.08 4.154 11.969 11.829 11.969 20.864 0 5.502-1.876 10.796-5.264 15.054l11.351 18.588 16.678-16.383c4.633-4.552 7.239-10.762 7.239-17.259.001-13.634-11.128-24.183-24.13-24.183z" fill="#7a6d79"/></g><g><path d="m506.769 219.483c5.311-7.95 7.047-19.75 2.775-29.78-5.454-13.056-20.643-22.08-35.945-18.629l-83.923 18.31v-16.398h6.956c4.143 0 7.5-3.357 7.5-7.5s-3.357-7.5-7.5-7.5h-28.912c-4.143 0-7.5 3.357-7.5 7.5s3.357 7.5 7.5 7.5h6.956v16.416h-50.567c-4.143 0-7.5 3.357-7.5 7.5s3.357 7.5 7.5 7.5h66.294c3.579-.235 52.268-11.425 55.101-11.844l25.602 41.925-54.368 53.379c-18.961 18.623-44.039 28.88-70.614 28.88h-21.955l13.435-14.174c5.833-6.153 7.376-14.815 4.026-22.604-3.349-7.789-10.697-12.628-19.176-12.628h-212.527c-10.859 0-21.312 3.277-30.227 9.477l-22.097 15.367c-4.411 3.067-7.451 7.583-8.689 12.662-3.375-2.978-6.332-6.441-8.785-10.335l-22.554-35.807c-4.099-6.493-3.203-14.854 2.176-20.331l19.389-19.727c8.903-9.05 21.286-14.24 33.973-14.24h215.886c4.143 0 7.5-3.357 7.5-7.5v-.001s0-.001 0-.001v-23.913h6.957c4.143 0 7.5-3.357 7.5-7.5s-3.357-7.5-7.5-7.5h-28.913c-4.143 0-7.5 3.357-7.5 7.5s3.357 7.5 7.5 7.5h6.956v16.416h-78.177v-16.416h6.956c4.143 0 7.5-3.357 7.5-7.5s-3.357-7.5-7.5-7.5h-28.912c-4.143 0-7.5 3.357-7.5 7.5s3.357 7.5 7.5 7.5h6.956v16.416h-78.178v-16.416h6.956c4.143 0 7.5-3.357 7.5-7.5s-3.357-7.5-7.5-7.5h-28.913c-4.143 0-7.5 3.357-7.5 7.5s3.357 7.5 7.5 7.5h6.956v16.416h-22.031c-16.681 0-32.96 6.823-44.668 18.724l-19.393 19.73c-10.281 10.466-11.992 26.442-4.165 38.843l22.551 35.801c6.951 11.033 16.956 19.454 28.979 24.439-.073.311 29.754 18.681 30.146 18.992 8.415 5.252 18.106 8.027 28.026 8.027h153.406c13.277 0 26.131-5.526 35.268-15.162l6.687-7.055h36.173c30.531 0 59.343-11.783 81.124-33.178l73.619-72.28c2.397-2.458 2.233-1.817 5.904-6.801zm-238.774 119.476h-153.406c-7.109 0-14.055-1.989-20.085-5.753l-24.134-15.059h64.423c4.143 0 7.5-3.357 7.5-7.5s-3.357-7.5-7.5-7.5h-66.689l20.161-14.021c6.389-4.442 13.879-6.791 21.662-6.791h171.832l-17.296 16.605c-2.824 2.712-6.537 4.206-10.454 4.206h-84.075c-4.143 0-7.5 3.357-7.5 7.5s3.357 7.5 7.5 7.5h84.075c7.81 0 15.212-2.979 20.844-8.387l28.564-27.425h19.036c3.589 0 5.037 2.72 5.396 3.553.358.834 1.336 3.756-1.133 6.361l-34.34 36.227c-6.316 6.664-15.203 10.484-24.381 10.484zm193.018-149.785 15.82-3.451c7.139-1.971 17.237 3.342 19.451 11.345.977 4.608 1.588 11.05-4.247 16.864l-9.944 9.763z"/><circle cx="102.641" cy="235.662" r="7.5"/><circle cx="136.841" cy="235.662" r="7.5"/></g></g></svg>