<?xml version="1.0" encoding="iso-8859-1"?>
<!-- Generator: Adobe Illustrator 19.0.0, SVG Export Plug-In . SVG Version: 6.00 Build 0)  -->
<svg version="1.1" id="Layer_1" xmlns="http://www.w3.org/2000/svg" xmlns:xlink="http://www.w3.org/1999/xlink" x="0px" y="0px"
	 viewBox="0 0 512.002 512.002" style="enable-background:new 0 0 512.002 512.002;" xml:space="preserve">
<path style="fill:#333333;" d="M390.065,169.339c-20.185,7.258-31.929,16.14-35.586,19.183
	c-12.083,63.508-43.768,85.366-68.348,92.493c-1.463,0.424-3.035,0.214-4.337-0.574c-1.301-0.792-2.212-2.091-2.508-3.584
	c-0.139-0.701-0.169-0.845,0.251-25.263l-12.337,8.411c-1.023,0.699-2.252,1.035-3.488,0.929
	c-0.781-0.047-14.647-0.047-15.455,0.002c-1.196,0.079-2.464-0.25-3.461-0.93l-12.337-8.411c0.42,24.416,0.391,24.559,0.252,25.258
	c-0.297,1.494-1.207,2.795-2.508,3.587c-1.301,0.792-2.876,0.999-4.338,0.575c-24.578-7.128-56.263-28.984-68.346-92.493
	c-3.646-3.032-15.391-11.922-35.587-19.183c-20.958-7.534-55.222-14.682-102.697-8.278c4.883,4.12,10.823,9.876,16.66,17.408
	c11.634,15.009,24.953,40.094,24.34,75.814c7.415,0.083,20.62,1.146,34.745,6.634c17.989,6.992,40.531,22.594,50.288,57.318
	c10.936-8.742,27.844-12.594,53.873-12.594c24.119,0,39.391,12.226,47.956,22.484c3.604,4.318,6.558,8.972,8.836,13.464
	c2.277-4.492,5.231-9.146,8.836-13.464c8.564-10.257,23.837-22.484,47.957-22.484c26.116,0,43.05,3.878,53.982,12.683
	c9.743-34.785,32.308-50.409,50.312-57.408c14.123-5.489,27.329-6.552,34.745-6.634c-0.613-35.721,12.706-60.806,24.338-75.814
	c5.838-7.531,11.777-13.289,16.66-17.408C445.288,154.656,411.023,161.804,390.065,169.339z"/>
<path d="M507.519,152.373c-56.949-10.169-97.688-1.811-121.836,6.99c-26.551,9.677-39.435,21.874-39.971,22.389
	c-0.824,0.793-1.378,1.823-1.582,2.948c-9.685,53.268-33.424,74.91-53.986,83.406c0.112-7.316,0.3-18.474,0.445-26.827
	c0.036-2.031-1.064-3.914-2.854-4.879c-1.789-0.967-3.965-0.852-5.644,0.294l-19.561,13.337c-2.577-0.046-10.488-0.046-13.066,0
	l-19.561-13.337c-1.679-1.145-3.857-1.259-5.644-0.294c-1.789,0.965-2.889,2.848-2.853,4.879c0.145,8.353,0.333,19.51,0.445,26.827
	c-20.561-8.495-44.298-30.138-53.984-83.406c-0.204-1.124-0.758-2.155-1.583-2.948c-0.535-0.515-13.42-12.711-39.971-22.389
	c-24.15-8.802-64.891-17.157-121.837-6.99c-2.253,0.402-4.008,2.176-4.397,4.431c-0.388,2.255,0.682,4.514,2.67,5.648
	c0.127,0.072,12.842,7.424,24.843,23.052c15.977,20.808,23.233,45.723,21.564,74.053c-0.094,1.583,0.509,3.127,1.649,4.229
	c1.139,1.102,2.706,1.647,4.283,1.504c0.171-0.018,17.247-1.508,35.953,5.763c24.833,9.651,40.276,29.577,45.9,59.227
	c0.495,2.607,2.775,4.424,5.335,4.424c1.839,0,3.661-1.198,4.445-2.313l0.005,0.004c5.531-7.852,16.084-15.88,52.414-15.88
	c35.834,0,48.619,30.186,51.336,42.064c0.139,0.803,1.413,5.714,5.522,5.714c3.977,0,5.317-5.168,5.39-5.714
	c2.254-10.589,15.502-42.064,51.336-42.064c36.33,0,46.883,8.028,52.414,15.88c0,0,1.491,1.906,3.566,2.211
	c2.97,0.437,5.795-1.378,6.354-4.327c5.594-29.493,20.91-49.371,45.527-59.081c18.725-7.386,36.162-5.921,36.326-5.908
	c1.582,0.152,3.144-0.401,4.284-1.504s1.743-2.646,1.649-4.229c-1.669-28.331,5.585-53.246,21.563-74.053
	c12-15.628,24.714-22.98,24.831-23.047c1.996-1.126,3.072-3.386,2.687-5.645C511.537,154.552,509.776,152.776,507.519,152.373z
	 M476.101,178.469c-11.633,15.009-24.952,40.094-24.338,75.814c-7.415,0.083-20.622,1.147-34.745,6.634
	c-18.005,6.999-40.569,22.623-50.312,57.408c-10.931-8.805-27.866-12.683-53.982-12.683c-24.12,0-39.393,12.226-47.957,22.484
	c-3.605,4.318-6.558,8.972-8.836,13.464c-2.278-4.491-5.231-9.146-8.836-13.464c-8.565-10.257-23.837-22.484-47.956-22.484
	c-26.028,0-42.937,3.852-53.873,12.594c-9.757-34.724-32.299-50.326-50.288-57.319c-14.125-5.49-27.33-6.552-34.745-6.634
	c0.613-35.721-12.706-60.806-24.34-75.814c-5.838-7.533-11.777-13.289-16.66-17.408c47.474-6.404,81.738,0.746,102.697,8.278
	c20.196,7.261,31.943,16.15,35.587,19.183c12.083,63.508,43.767,85.366,68.346,92.493c1.462,0.424,3.037,0.215,4.338-0.575
	c1.301-0.792,2.211-2.093,2.508-3.587c0.139-0.7,0.167-0.843-0.252-25.258l12.337,8.411c0.996,0.68,2.265,1.01,3.461,0.93
	c0.809-0.049,14.676-0.049,15.455-0.002c1.236,0.108,2.466-0.229,3.488-0.929l12.337-8.411c-0.42,24.418-0.39,24.562-0.251,25.263
	c0.297,1.493,1.207,2.792,2.508,3.584c1.301,0.789,2.874,0.998,4.337,0.574c24.579-7.128,56.265-28.984,68.348-92.493
	c3.658-3.042,15.402-11.925,35.586-19.183c20.958-7.535,55.224-14.684,102.697-8.278
	C487.877,165.18,481.938,170.937,476.101,178.469z"/>
<g>
</g>
<g>
</g>
<g>
</g>
<g>
</g>
<g>
</g>
<g>
</g>
<g>
</g>
<g>
</g>
<g>
</g>
<g>
</g>
<g>
</g>
<g>
</g>
<g>
</g>
<g>
</g>
<g>
</g>
</svg>
