<?xml version="1.0" encoding="UTF-8"?>
<svg width="110px" height="111px" viewBox="0 0 110 111" version="1.1" xmlns="http://www.w3.org/2000/svg" xmlns:xlink="http://www.w3.org/1999/xlink">
    <!-- Generator: Sketch 55.2 (78181) - https://sketchapp.com -->
    <title>Group 2</title>
    <desc>Created with Sketch.</desc>
    <g id="Page-1" stroke="none" stroke-width="1" fill="none" fill-rule="evenodd">
        <g id="20783" transform="translate(-45.000000, -46.000000)">
            <g id="Group-2" transform="translate(46.605000, 46.569000)">
                <path d="M40.672,3.249 C21.793,6.859 1.775,26.594 1.775,56.577 C1.775,70.855 6.752,82.666 16.572,91.681 C28.401,102.542 44,106.481 55.717,106.707 C49.753,104.223 40.714,98.17 39.809,84.166 C39.143,73.876 45.47,64.206 51.588,54.855 C57.852,45.281 64.328,35.378 62.983,25.087 C60.709,7.672 46.578,3.987 42.47,3.282 C42.983,6.977 43.118,10.279 42.93,13.318 C45.905,14.231 58.572,18.996 57.714,33.77 C57.685,34.257 57.287,34.643 56.776,34.604 C56.288,34.576 55.914,34.156 55.942,33.668 C56.707,20.495 45.976,16.123 42.777,15.118 C41.981,22.493 39.206,28.367 35.296,34.786 C38.014,36.363 45.981,42.068 46.476,55.021 C46.496,55.511 46.113,55.924 45.624,55.943 C45.152,55.956 44.722,55.58 44.704,55.09 C44.242,43.023 36.695,37.675 34.357,36.303 C33.217,38.126 31.992,40.002 30.703,41.978 C29.9,43.21 29.071,44.478 28.223,45.798 C25.488,50.048 23.969,54.637 23.416,59.32 C26.54,59.613 36.44,61.348 39.397,71.526 C39.534,71.997 39.264,72.49 38.792,72.625 C38.322,72.752 37.83,72.49 37.693,72.02 C34.993,62.73 26.013,61.295 23.255,61.074 C22.48,72.654 27.397,84.615 34.34,93.304 C34.647,93.687 34.584,94.246 34.201,94.552 C33.823,94.859 33.263,94.796 32.954,94.413 C28.373,88.679 24.648,81.562 22.757,74.033 C21.426,75.144 18.805,78.274 18.187,85.941 C18.148,86.431 17.719,86.803 17.23,86.754 C16.742,86.715 16.377,86.287 16.416,85.798 C17.186,76.268 20.918,73.036 22.324,72.147 C20.41,62.956 21.301,53.279 26.73,44.837 L26.877,44.61 C22.731,45.583 12.826,49.234 6.988,62.423 C6.79,62.873 6.263,63.079 5.818,62.876 C5.37,62.677 5.167,62.155 5.366,61.706 C12.627,45.299 25.587,42.875 28.214,42.547 C28.553,42.027 28.886,41.513 29.217,41.008 C30.659,38.798 32.018,36.714 33.266,34.696 L33.311,34.622 C35.797,30.595 37.841,26.818 39.229,22.774 C35.847,21.762 22.526,19.135 10.618,35.713 C10.331,36.111 9.779,36.205 9.379,35.916 C8.98,35.63 8.89,35.076 9.175,34.678 C21.581,17.413 36.022,20.047 39.761,21.099 C41.251,15.99 41.69,10.367 40.672,3.249 Z M56.82,108.492 C44.639,108.492 27.945,104.535 15.371,92.99 C5.315,83.755 0,71.165 0,56.577 C0,25.263 21.259,4.763 41.264,1.368 L41.281,1.366 C41.435,1.333 41.592,1.359 41.73,1.41 C44.808,1.78 62.132,4.862 64.744,24.856 C66.174,35.801 59.513,45.981 53.073,55.826 C47.115,64.935 40.953,74.352 41.579,84.051 C42.843,103.606 61.033,106.522 61.216,106.55 C61.661,106.617 61.987,107.005 61.973,107.456 C61.959,107.907 61.61,108.274 61.161,108.313 C59.796,108.429 58.344,108.492 56.82,108.492 L56.82,108.492 Z" id="Fill-1" stroke="#DCFFB0" stroke-width="2" fill="#17E100"></path>
                <path d="M41.392,2.595 C21.972,5.898 1.242,25.94 1.242,56.577 C1.242,71.01 6.279,82.952 16.211,92.075 C29.191,103.992 46.661,107.666 58.711,107.215 C53.527,105.667 41.386,100.329 40.339,84.132 C39.686,74.019 45.963,64.424 52.034,55.146 C58.351,45.491 64.882,35.505 63.512,25.018 C60.803,4.28 41.586,2.609 41.392,2.595 Z M56.812,107.959 C44.738,107.959 28.192,104.038 15.731,92.597 C5.645,83.337 0.533,71.218 0.533,56.577 C0.533,25.552 21.568,5.246 41.36,1.893 C41.645,1.902 61.432,3.621 64.215,24.926 C65.62,35.674 59.015,45.77 52.628,55.535 C46.622,64.715 40.41,74.208 41.049,84.085 C42.339,104.064 60.95,107.049 61.137,107.077 C61.316,107.102 61.446,107.259 61.44,107.44 C61.435,107.62 61.295,107.765 61.116,107.782 C59.762,107.897 58.322,107.959 56.812,107.959 L56.812,107.959 Z" id="Fill-2" stroke="#DCFFB0" stroke-width="2" fill="#DCFFB0"></path>
                <path d="M33.647,94.214 C33.543,94.214 33.44,94.168 33.37,94.08 C22.98,81.075 17.035,60.896 27.179,45.125 C28.028,43.804 28.857,42.533 29.663,41.299 C38.17,28.258 43.792,19.643 41.068,2.297 C41.038,2.103 41.17,1.92 41.363,1.891 C41.56,1.863 41.739,1.992 41.768,2.186 C44.536,19.803 38.856,28.51 30.257,41.687 C29.453,42.919 28.624,44.19 27.775,45.509 C17.823,60.983 23.693,80.829 33.924,93.636 C34.047,93.788 34.022,94.013 33.869,94.136 L33.647,94.214" id="Fill-3" fill="#DCFFB0"></path>
                <path d="M9.896,35.551 L9.69,35.484 C9.53,35.369 9.495,35.147 9.609,34.988 C23.682,15.398 40.319,21.822 40.481,21.889 C40.663,21.961 40.75,22.169 40.678,22.349 C40.604,22.532 40.399,22.624 40.216,22.545 C40.055,22.481 23.924,16.281 10.184,35.404 C10.115,35.498 10.006,35.551 9.896,35.551" id="Fill-4" fill="#DCFFB0"></path>
                <path d="M6.177,62.42 L6.034,62.388 C5.855,62.31 5.773,62.099 5.853,61.921 C13.659,44.285 28.553,43.041 28.703,43.032 C28.913,43.046 29.068,43.166 29.081,43.36 C29.094,43.557 28.948,43.725 28.752,43.739 C28.607,43.75 14.128,44.978 6.501,62.208 C6.443,62.342 6.314,62.42 6.177,62.42" id="Fill-5" fill="#DCFFB0"></path>
                <path d="M17.302,86.225 L17.273,86.223 C17.078,86.206 16.932,86.035 16.948,85.841 C17.853,74.62 22.843,72.441 23.055,72.353 C23.232,72.277 23.442,72.365 23.517,72.544 C23.592,72.725 23.507,72.933 23.327,73.009 C23.279,73.03 18.522,75.16 17.655,85.897 C17.64,86.084 17.486,86.225 17.302,86.225" id="Fill-6" fill="#DCFFB0"></path>
                <path d="M56.828,34.075 L56.807,34.073 C56.612,34.061 56.461,33.894 56.473,33.698 C57.379,18.101 42.187,14.39 42.033,14.356 C41.841,14.309 41.724,14.12 41.768,13.928 C41.811,13.736 42.005,13.625 42.193,13.662 C42.352,13.7 58.124,17.537 57.182,33.74 C57.171,33.929 57.015,34.075 56.828,34.075" id="Fill-7" fill="#DCFFB0"></path>
                <path d="M45.59,55.411 C45.4,55.411 45.242,55.261 45.235,55.07 C44.679,40.525 34.003,35.498 33.896,35.45 C33.716,35.369 33.638,35.159 33.719,34.978 C33.799,34.8 34.011,34.724 34.189,34.803 C34.301,34.853 45.372,40.065 45.945,55.041 C45.952,55.238 45.799,55.402 45.604,55.41 L45.59,55.411" id="Fill-8" fill="#DCFFB0"></path>
                <path d="M38.545,72.128 C38.391,72.128 38.249,72.027 38.204,71.872 C34.955,60.687 22.586,60.502 22.461,60.502 C22.265,60.5 22.106,60.341 22.1069953,60.144 C22.108,59.951 22.267,59.79 22.462,59.79 L22.463,59.79 C22.593,59.793 35.486,59.973 38.886,71.673 C38.94,71.863 38.832,72.06 38.644,72.115 L38.545,72.128" id="Fill-9" fill="#DCFFB0"></path>
                <g id="Group" transform="translate(47.453661, 0.000000)">
                    <path d="M13.7813393,83.089 C12.8693393,83.089 12.1733393,83.468 11.5803393,83.935 C11.0543393,84.351 10.6173393,86.008 11.1633393,88.044 C11.6583393,89.893 13.6343393,94.314 21.2673393,95.42 C31.6893393,96.937 41.7773393,89.504 47.3793393,76.882 C45.0333393,80.087 41.9783393,83.813 39.1263393,85.918 C31.6013393,91.471 23.6083393,90.415 19.6033393,86.505 C16.9513393,83.919 15.1293393,83.089 13.7813393,83.089 Z M23.9413393,97.39 C22.9703393,97.39 21.9933393,97.32 21.0133393,97.177 C12.3363393,95.917 10.0353393,90.693 9.44933927,88.504 C8.77833927,86.001 9.20333927,83.549 10.4813393,82.541 C13.3433393,80.282 16.6363393,81.137 20.8413393,85.234 C24.3153393,88.617 31.3423393,89.453 38.0723393,84.49 C43.3823393,80.571 49.7773393,70.178 49.8393393,70.075 C50.0703393,69.691 50.5463393,69.545 50.9533393,69.723 C51.3603393,69.901 51.5733393,70.352 51.4533393,70.777 C46.9023393,86.893 35.8583393,97.39 23.9413393,97.39 Z M9.21433927,98.001 C13.6313393,101.815 18.6173393,103.451 24.0193393,102.873 C31.7193393,102.05 40.0833393,96.558 46.3893393,88.18 C54.5053393,77.402 58.6213393,66.046 58.6213393,54.434 C58.6213393,26.719 37.1013393,3.938 9.89233927,1.92 C14.8423393,4.89 23.1903393,11.573 23.7213393,23.075 C24.4743393,39.394 17.2553393,50.859 9.14333927,62.127 C6.48633927,65.816 -5.99366073,84.873 9.21433927,98.001 Z M21.9033393,104.763 C16.8743393,104.763 12.2253393,102.947 8.05433927,99.347 C-4.63266073,88.393 -0.446660727,72.404 7.70333927,61.091 C15.6243393,50.087 22.6743393,38.905 21.9473393,23.158 C21.2463393,7.964 5.79533927,1.775 5.63933927,1.715 C5.24233927,1.56 5.01133927,1.144 5.08933927,0.723 C5.16833927,0.305 5.53633927,0 5.96233927,0 C35.9763393,0 60.3963393,24.42 60.3963393,54.434 C60.3963393,66.442 56.1603393,78.154 47.8083393,89.248 C41.2113393,98.009 32.3873393,103.763 24.2093393,104.639 C23.4323393,104.722 22.6633393,104.763 21.9033393,104.763 L21.9033393,104.763 Z" id="Fill-10" fill="#00DFF4"></path>
                    <path d="M13.7553393,82.563 C12.6983393,82.563 11.9013393,83.004 11.2503393,83.519 C10.4983393,84.111 10.0683393,86.017 10.6483393,88.183 C11.1703393,90.133 13.2453393,94.794 21.1913393,95.948 C32.9193393,97.651 44.3093393,88.273 49.4883393,72.921 C47.2723393,76.265 42.8263393,82.526 38.8093393,85.491 C31.5303393,90.864 23.8233393,89.876 19.9753393,86.123 C17.2003393,83.42 15.2263393,82.563 13.7553393,82.563 Z M23.9413393,96.856 C22.9943393,96.856 22.0443393,96.788 21.0893393,96.65 C12.7243393,95.437 10.5213393,90.452 9.96333927,88.368 C9.35533927,86.101 9.71233927,83.827 10.8103393,82.96 C13.4213393,80.899 16.4933393,81.74 20.4703393,85.616 C24.1003393,89.154 31.4203393,90.057 38.3883393,84.917 C43.7833393,80.938 50.2303393,70.455 50.2953393,70.352 C50.3893393,70.199 50.5843393,70.146 50.7413393,70.21 C50.9023393,70.283 50.9883393,70.462 50.9393393,70.633 C46.4573393,86.512 35.6183393,96.856 23.9413393,96.856 L23.9413393,96.856 Z" id="Fill-12" stroke="#00DFF4" stroke-width="2" fill="#D6FDFF"></path>
                </g>
                <path d="M55.077,1.269 C59.161,3.339 70.041,10.059 70.641,23.1 C71.388,39.246 64.219,50.628 56.165,61.818 C53.461,65.571 40.761,84.973 56.321,98.407 C60.85,102.316 65.958,104.001 71.531,103.403 C79.374,102.564 87.874,96.992 94.268,88.501 C102.456,77.626 106.606,66.166 106.606,54.434 C106.606,25.659 83.64,2.147 55.077,1.269 Z M69.364,104.23 C64.462,104.23 59.928,102.457 55.856,98.943 C43.441,88.224 47.577,72.524 55.589,61.402 C63.568,50.318 70.669,39.053 69.934,23.133 C69.218,7.598 53.446,1.281 53.288,1.218 C53.128,1.156 53.036,0.989 53.067,0.823 C53.098,0.654 53.245,0.532 53.416,0.532 C83.136,0.532 107.318,24.713 107.318,54.434 C107.318,66.324 103.117,77.929 94.836,88.927 C88.325,97.575 79.64,103.249 71.608,104.11 C70.849,104.191 70.101,104.23 69.364,104.23 L69.364,104.23 Z" id="Fill-11" stroke="#00DFF4" stroke-width="2" fill="#D6FDFF"></path>
            </g>
        </g>
    </g>
</svg>