<svg height="512pt" viewBox="0 -83 512 512" width="512pt" xmlns="http://www.w3.org/2000/svg"><path d="m73.765625 260.996094h33.132813v77.832031h-33.132813zm0 0" fill="#d9e7ec"/><path d="m82.898438 260.996094h24v77.832031h-24zm0 0" fill="#aad4ec"/><path d="m388.535156 114.664062h33.132813v67.300782h-33.132813zm0 0" fill="#d9e7ec"/><path d="m397.667969 114.664062h24v67.300782h-24zm0 0" fill="#aad4ec"/><path d="m90.332031 114.664062h33.132813v67.300782h-33.132813zm0 0" fill="#d9e7ec"/><path d="m99.464844 114.664062h24v67.300782h-24zm0 0" fill="#aad4ec"/><path d="m467.660156 173.167969-423.320312-.003907c-2.273438 0-4.351563 1.285157-5.367188 3.320313l-30.839844 61.679687c-.417968.832032-.632812 1.753907-.632812 2.683594v25.71875c0 3.3125 2.6875 6 6 6h485c3.3125 0 6-2.6875 6-6v-25.71875c0-.929687-.21875-1.851562-.632812-2.683594l-30.839844-61.679687c-1.015625-2.035156-3.09375-3.316406-5.367188-3.316406zm0 0" fill="#fdbf00"/><path d="m443.660156 173.167969c2.273438 0 4.347656 1.28125 5.367188 3.316406l30.839844 61.679687c.417968.832032.632812 1.753907.632812 2.683594v25.71875c0 3.3125-2.6875 6-6 6h24c3.3125 0 6-2.6875 6-6v-25.71875c0-.929687-.21875-1.851562-.632812-2.683594l-30.839844-61.679687c-1.015625-2.035156-3.09375-3.316406-5.367188-3.316406" fill="#fda400"/><path d="m405.101562 260.996094h33.132813v77.832031h-33.132813zm0 0" fill="#d9e7ec"/><path d="m414.234375 260.996094h24v77.832031h-24zm0 0" fill="#aad4ec"/><path d="m465.367188 7.5h-418.734376c-3.316406 0-6 2.6875-6 6v103.964844c0 3.316406 2.683594 6 6 6h418.734376c3.316406 0 6-2.683594 6-6v-103.964844c0-3.3125-2.683594-6-6-6zm0 0" fill="#fdbf00"/><path d="m465.367188 7.5h-24c3.316406 0 6 2.6875 6 6v103.964844c0 3.316406-2.683594 6-6 6h24c3.316406 0 6-2.683594 6-6v-103.964844c0-3.3125-2.683594-6-6-6zm0 0" fill="#fda400"/><path d="m123.464844 65.480469c0 9.152343-7.417969 16.570312-16.566406 16.570312-9.148438 0-16.566407-7.417969-16.566407-16.570312 0-9.148438 7.417969-16.566407 16.566407-16.566407 9.148437 0 16.566406 7.417969 16.566406 16.566407zm0 0" fill="#d9e7ec"/><path d="m106.898438 48.914062c-3.761719 0-7.21875 1.269532-10 3.382813 3.984374 3.023437 6.566406 7.796875 6.566406 13.183594 0 5.390625-2.582032 10.160156-6.566406 13.1875 2.78125 2.113281 6.238281 3.382812 10 3.382812 9.152343 0 16.566406-7.417969 16.566406-16.570312 0-9.148438-7.414063-16.566407-16.566406-16.566407zm0 0" fill="#aad4ec"/><path d="m421.667969 65.484375c0 9.148437-7.417969 16.566406-16.566407 16.566406-9.148437 0-16.566406-7.417969-16.566406-16.566406 0-9.152344 7.417969-16.570313 16.566406-16.570313 9.148438 0 16.566407 7.417969 16.566407 16.570313zm0 0" fill="#d9e7ec"/><path d="m405.101562 48.914062c-3.761718 0-7.21875 1.269532-10 3.382813 3.984376 3.023437 6.566407 7.796875 6.566407 13.183594 0 5.390625-2.582031 10.160156-6.566407 13.1875 2.78125 2.113281 6.238282 3.382812 10 3.382812 9.152344 0 16.566407-7.417969 16.566407-16.570312 0-9.148438-7.414063-16.566407-16.566407-16.566407zm0 0" fill="#aad4ec"/><path d="m7.5 240.847656v25.71875c0 3.3125 2.6875 6 6 6h485c3.3125 0 6-2.6875 6-6v-25.71875c0-.480468-.058594-.953125-.171875-1.414062h-496.65625c-.113281.460937-.171875.933594-.171875 1.414062zm0 0" fill="#fda400"/><path d="m504.457031 240.132812c0-.003906-.003906-.007812-.003906-.011718-.027344-.234375-.070313-.464844-.125-.6875h-24c.113281.460937.171875.933594.171875 1.414062v25.71875c0 3.3125-2.6875 6-6 6h24c3.3125 0 6-2.6875 6-6v-25.71875c0-.238281-.015625-.476562-.042969-.714844zm0 0" fill="#fd7e00"/><path d="m511.992188 239.25c-.003907-.15625-.011719-.3125-.023438-.46875-.011719-.101562-.023438-.203125-.035156-.304688-.019532-.136718-.039063-.273437-.066406-.414062-.019532-.121094-.046876-.238281-.074219-.355469-.027344-.113281-.054688-.230469-.089844-.34375-.039063-.136719-.085937-.273437-.132813-.410156-.03125-.089844-.0625-.183594-.101562-.273437-.058594-.152344-.125-.300782-.195312-.445313-.023438-.050781-.039063-.105469-.066407-.15625l-33.132812-66.265625c-1.269531-2.539062-3.867188-4.144531-6.707031-4.144531h-42.199219v-34.699219h42.199219c4.144531 0 7.5-3.359375 7.5-7.5v-115.96875c0-4.140625-3.355469-7.5-7.5-7.5h-348.46875c-4.144532 0-7.5 3.359375-7.5 7.5s3.355468 7.5 7.5 7.5h340.96875v100.964844h-42.167969c-.011719 0-.019531 0-.03125 0h-33.132813c-.011718 0-.019531 0-.03125 0h-265.007812c-.011719 0-.019532 0-.03125 0h-33.132813c-.011719 0-.019531 0-.03125 0h-42.167969v-100.964844h43.765626c4.144531 0 7.5-3.359375 7.5-7.5s-3.355469-7.5-7.5-7.5h-51.265626c-4.144531 0-7.5 3.359375-7.5 7.5v115.964844c0 4.144531 3.355469 7.5 7.5 7.5h42.199219v34.699218h-42.199219c-2.84375 0-5.4375 1.605469-6.707031 4.148438l-33.132812 66.265625c-.027344.050781-.046875.101563-.070313.152344-.066406.148437-.132812.296875-.195312.445312-.035156.09375-.066406.183594-.097656.273438-.046876.136719-.09375.273437-.132813.414062-.03125.113281-.0625.226563-.085937.339844-.03125.121094-.058594.238281-.078126.359375-.027343.136719-.0468745.273438-.0624995.410156-.015625.101563-.0273437.207032-.0351563.308594-.015625.15625-.0195312.3125-.0234374.464844-.0039063.066406-.0117188.125-.0117188.183594v33.136718c0 4.140625 3.355469 7.5 7.5 7.5h58.765625v51.261719h-9.066406c-4.144531 0-7.5 3.359375-7.5 7.5s3.355469 7.5 7.5 7.5h16.519531.046875 33.132813.050781 16.519531c4.140625 0 7.5-3.359375 7.5-7.5s-3.359375-7.5-7.5-7.5h-9.070312v-51.261719h283.203124v51.261719h-9.066406c-4.144531 0-7.5 3.359375-7.5 7.5s3.355469 7.5 7.5 7.5h16.519532.046874 33.132813.050781 16.515625c4.144531 0 7.5-3.359375 7.5-7.5s-3.355469-7.5-7.5-7.5h-9.066406v-51.261719h58.765625c4.144531 0 7.5-3.359375 7.5-7.5v-33.136718c0-.058594-.007812-.117188-.007812-.179688zm-97.824219-73.582031h-18.132813v-34.703125h18.132813zm-283.203125-.003907v-34.699218h250.070312v34.703125zm-33.132813-34.699218h18.132813v34.699218h-18.132813zm-52.5625 49.699218h45.054688.007812.007813 33.121094.003906.007812l343.257813.003907 25.632812 51.261719h-472.726562zm54.128907 150.664063h-18.132813v-51.261719h18.132813zm331.335937 0h-18.132813v-51.261719h18.132813zm66.265625-66.261719h-58.734375c-.011719 0-.019531-.003906-.03125-.003906-.007813 0-.019531.003906-.027344.003906h-33.078125c-.007812 0-.019531-.003906-.027344-.003906-.011718 0-.019531.003906-.03125.003906h-298.140624c-.011719 0-.019532-.003906-.03125-.003906-.007813 0-.019532.003906-.027344.003906h-33.078125c-.007813 0-.019531-.003906-.027344-.003906-.011719 0-.019531.003906-.03125.003906h-58.734375v-18.136718h482zm0 0"/><path d="m82.832031 65.480469c0 13.269531 10.796875 24.066406 24.066407 24.066406 13.269531 0 24.066406-10.792969 24.066406-24.066406 0-13.269531-10.796875-24.066407-24.066406-24.066407-13.269532 0-24.066407 10.796876-24.066407 24.066407zm24.066407-9.066407c5 0 9.066406 4.066407 9.066406 9.066407s-4.066406 9.066406-9.066406 9.066406-9.066407-4.066406-9.066407-9.066406 4.066407-9.066407 9.066407-9.066407zm0 0"/><path d="m429.167969 65.480469c0-13.269531-10.796875-24.066407-24.066407-24.066407-13.269531 0-24.066406 10.796876-24.066406 24.066407 0 13.273437 10.796875 24.070312 24.066406 24.070312 13.269532 0 24.066407-10.796875 24.066407-24.070312zm-33.132813 0c0-4.996094 4.066406-9.066407 9.066406-9.066407 4.996094 0 9.0625 4.070313 9.0625 9.066407 0 5-4.066406 9.070312-9.0625 9.070312-5 0-9.066406-4.070312-9.066406-9.070312zm0 0"/></svg>