<?xml version="1.0" encoding="UTF-8"?>
<svg width="175px" height="143px" viewBox="0 0 175 143" version="1.1" xmlns="http://www.w3.org/2000/svg" xmlns:xlink="http://www.w3.org/1999/xlink">
    <!-- Generator: Sketch 55.2 (78181) - https://sketchapp.com -->
    <title>Group</title>
    <desc>Created with Sketch.</desc>
    <g id="Page-1" stroke="none" stroke-width="1" fill="none" fill-rule="evenodd">
        <g id="4076" transform="translate(-37.000000, -14.000000)">
            <g id="Group" transform="translate(37.467000, 14.272000)">
                <polyline id="Fill-132" fill="#F0CFA8" points="92.83 68.129 28.793 105.1 92.83 142.072 156.866 105.1 92.83 68.129"></polyline>
                <polyline id="Fill-133" fill="#A48465" points="92.83 68.129 28.793 105.1 28.793 64.768 92.83 27.796 92.83 68.129"></polyline>
                <polyline id="Fill-134" fill="#CDAD8A" points="28.793 64.768 28.793 105.1 92.83 142.072 92.83 101.739 28.793 64.768"></polyline>
                <polyline id="Fill-135" fill="#CDAD8A" points="156.866 105.1 92.83 68.129 92.83 27.796 156.866 64.768 156.866 105.1"></polyline>
                <polyline id="Fill-136" fill="#A48465" points="156.866 64.762 156.866 105.096 92.831 142.075 92.831 101.741 156.866 64.762"></polyline>
                <polyline id="Fill-137" fill="#D8BA97" points="156.866 64.768 92.83 27.796 110.188 0 174.225 36.972 156.866 64.768"></polyline>
                <polyline id="Fill-138" fill="#BB9673" points="156.865 64.762 156.865 81.724 92.829 118.702 92.829 101.741 156.865 64.762"></polyline>
                <path d="M121.155,83.573 L92.829,99.938 L31.929,64.762 L92.829,29.602 L153.729,64.762 L121.155,83.573 Z M92.829,27.799 L28.794,64.762 L63.72,84.937 L92.829,101.741 L121.939,84.937 L156.865,64.762 L92.829,27.799 L92.829,27.799 Z" id="Fill-139" fill="#F0CFA8"></path>
                <polyline id="Fill-140" fill="#BB9673" points="156.865 64.762 156.865 81.724 136.627 93.417 92.829 118.702 92.829 101.741 121.939 84.937 156.865 64.762"></polyline>
                <path d="M65.359,94.102 C65.382,93.91 65.356,93.649 65.356,93.649 C65.356,93.649 65.044,93.69 64.963,93.84 L64.95,93.871 C62.896,92.838 62.782,94.739 62.782,94.739 L62.801,94.75 C62.847,94.614 62.975,94.571 63.128,94.659 C63.281,94.748 63.409,94.938 63.455,95.128 L63.493,95.15 C63.539,95.014 63.668,94.971 63.821,95.059 C63.972,95.147 64.102,95.339 64.148,95.528 L64.186,95.55 C64.232,95.414 64.361,95.371 64.513,95.459 C64.665,95.547 64.795,95.739 64.841,95.928 L64.879,95.95 L65.029,95.816 L65.029,98.493 C65.029,98.634 64.932,98.693 64.814,98.625 C64.695,98.556 64.598,98.385 64.598,98.244 L64.598,97.814 C64.598,97.698 64.519,97.559 64.422,97.502 C64.325,97.446 64.245,97.495 64.245,97.611 L64.245,98.04 C64.245,98.414 64.5,98.865 64.814,99.046 C65.127,99.227 65.382,99.07 65.382,98.696 L65.382,96.02 C65.452,96.11 65.506,96.219 65.533,96.327 L65.571,96.349 C65.616,96.213 65.746,96.171 65.898,96.259 C66.05,96.347 66.179,96.538 66.225,96.727 L66.263,96.749 C66.309,96.613 66.438,96.57 66.591,96.658 C66.743,96.747 66.872,96.938 66.918,97.127 L66.956,97.149 C67.002,97.013 67.131,96.97 67.283,97.059 C67.436,97.146 67.564,97.338 67.61,97.527 L67.629,97.538 C67.629,97.538 67.463,95.412 65.359,94.102" id="Fill-141" fill="#7F6B59"></path>
                <path d="M64.073,93.256 C64.172,93.371 64.294,93.385 64.374,93.235 C64.454,93.086 64.409,92.63 64.409,92.63 C64.409,92.63 64.097,92.671 64.016,92.821 C63.936,92.97 63.974,93.142 64.073,93.256" id="Fill-142" fill="#7F6B59"></path>
                <path d="M64.857,93.288 C64.955,93.402 65.077,93.417 65.158,93.267 C65.238,93.118 65.193,92.662 65.193,92.662 C65.193,92.662 64.881,92.703 64.8,92.853 C64.72,93.002 64.758,93.173 64.857,93.288" id="Fill-143" fill="#7F6B59"></path>
                <path d="M66.763,94.051 C66.682,94.2 66.721,94.372 66.819,94.486 C66.918,94.601 67.04,94.615 67.12,94.465 C67.201,94.316 67.155,93.86 67.155,93.86 C67.155,93.86 66.843,93.901 66.763,94.051" id="Fill-144" fill="#7F6B59"></path>
                <path d="M66.886,95.129 C66.805,95.279 66.844,95.45 66.942,95.565 C67.041,95.679 67.163,95.694 67.243,95.544 C67.324,95.395 67.278,94.939 67.278,94.939 C67.278,94.939 66.966,94.979 66.886,95.129" id="Fill-145" fill="#7F6B59"></path>
                <path d="M65.731,93.271 C65.83,93.386 65.952,93.4 66.033,93.25 C66.113,93.101 66.068,92.645 66.068,92.645 C66.068,92.645 65.756,92.686 65.675,92.836 C65.595,92.986 65.633,93.157 65.731,93.271" id="Fill-146" fill="#7F6B59"></path>
                <path d="M65.9,93.908 C65.819,94.058 65.857,94.229 65.956,94.343 C66.054,94.458 66.177,94.473 66.257,94.323 C66.338,94.173 66.292,93.717 66.292,93.717 C66.292,93.717 65.98,93.758 65.9,93.908" id="Fill-147" fill="#7F6B59"></path>
                <path d="M66.595,93.349 C66.693,93.463 66.815,93.478 66.896,93.328 C66.976,93.179 66.931,92.723 66.931,92.723 C66.931,92.723 66.619,92.764 66.538,92.914 C66.458,93.063 66.496,93.234 66.595,93.349" id="Fill-148" fill="#7F6B59"></path>
                <path d="M61.476,97.794 L68.935,102.1 L68.935,93.206 L61.476,88.899 L61.476,97.794 Z M69.063,102.478 L61.348,98.025 L61.221,97.799 L61.221,88.6 L61.348,88.521 L69.063,92.975 L69.19,93.201 L69.19,102.4 L69.063,102.478 L69.063,102.478 Z" id="Fill-149" fill="#7F6B59"></path>
                <path d="M68.935,113.269 L61.476,108.962 L61.476,100.067 L68.935,104.374 L68.935,113.269 Z M69.063,104.143 L61.348,99.689 L61.221,99.768 L61.221,108.967 L61.348,109.193 L69.063,113.647 L69.19,113.568 L69.19,104.369 L69.063,104.143 L69.063,104.143 Z" id="Fill-150" fill="#7F6B59"></path>
                <path d="M64.984,106.207 L64.984,108.886 L63.984,108.725 L64.984,109.302 L65.364,109.521 L66.395,110.117 L65.364,109.105 L65.364,106.433 C65.879,106.692 66.342,106.696 66.684,106.485 C67.055,106.258 67.283,105.78 67.283,105.105 L64.655,103.588 L64.42,103.869 L64.857,104.329 L64.111,104.977 L64.238,104.199 L63.984,103.844 L64.133,103.287 L63.128,102.706 C63.128,103.978 63.943,105.492 64.984,106.207" id="Fill-151" fill="#7F6B59"></path>
                <polyline id="Fill-152" fill="#7F6B59" points="75.364 98.024 74.031 98.172 75.364 99.859 76.697 99.711 75.364 98.024"></polyline>
                <polyline id="Fill-153" fill="#7F6B59" points="73.999 99.805 75.332 101.492 75.332 99.903 73.999 98.216 73.999 99.805"></polyline>
                <polyline id="Fill-154" fill="#7F6B59" points="76.738 99.797 75.405 99.945 75.405 101.534 76.738 101.386 76.738 99.797"></polyline>
                <path d="M73.84,100.223 C73.777,100.103 73.67,100.032 73.597,100.062 L73.522,100.179 C73.514,100.261 73.54,100.362 73.59,100.454 L74.224,101.625 L74.231,101.805 L74.151,101.802 L74.074,101.718 L73.45,100.564 L73.392,100.355 L73.392,99.732 C73.396,99.645 73.392,99.553 73.392,99.445 L73.392,98.507 C73.392,98.301 73.252,98.054 73.079,97.954 C72.907,97.854 72.767,97.94 72.767,98.146 L72.767,99.876 C72.767,100.186 72.849,100.537 73.003,100.876 L73.691,102.394 C73.78,102.59 73.827,102.792 73.827,102.971 L73.827,104.079 L74.818,104.651 L74.818,102.743 C74.818,102.317 74.685,101.831 74.447,101.377 L73.84,100.223" id="Fill-155" fill="#7F6B59"></path>
                <path d="M77.648,100.592 C77.475,100.492 77.336,100.578 77.336,100.784 L77.336,102.633 L77.278,102.774 L76.654,103.207 L76.576,103.202 L76.497,103.113 L76.504,102.942 L77.137,102.501 C77.187,102.467 77.214,102.396 77.206,102.306 L77.13,102.102 C77.057,101.987 76.951,101.935 76.887,101.982 L76.281,102.436 C76.042,102.614 75.91,102.948 75.91,103.374 L75.91,105.281 L76.9,105.853 L76.9,104.745 C76.9,104.566 76.948,104.419 77.036,104.325 L77.724,103.602 C77.878,103.44 77.961,103.186 77.961,102.875 L77.961,101.145 C77.961,100.939 77.821,100.691 77.648,100.592" id="Fill-156" fill="#7F6B59"></path>
                <path d="M71.635,103.789 L79.093,108.095 L79.093,99.201 L71.635,94.895 L71.635,103.789 Z M79.221,108.474 L71.507,104.02 L71.379,103.794 L71.379,94.595 L71.507,94.516 L79.221,98.97 L79.348,99.196 L79.348,108.395 L79.221,108.474 L79.221,108.474 Z" id="Fill-157" fill="#7F6B59"></path>
                <polyline id="Fill-158" fill="#7F6B59" points="87.217 110.212 87.217 107.3 87.8 107.637 86.716 104.837 85.631 106.385 86.215 106.721 86.215 109.634 84.793 108.813 84.793 105.9 85.376 106.237 84.292 103.438 83.207 104.985 83.79 105.322 83.79 108.234 83.007 107.782 83.007 109.151 88.037 112.055 88.037 110.686 87.217 110.212"></polyline>
                <path d="M81.793,109.67 L89.251,113.976 L89.251,105.082 L81.793,100.775 L81.793,109.67 Z M89.379,114.354 L81.665,109.9 L81.537,109.674 L81.537,100.475 L81.665,100.396 L89.379,104.851 L89.507,105.077 L89.507,114.276 L89.379,114.354 L89.379,114.354 Z" id="Fill-159" fill="#7F6B59"></path>
                <polyline id="Fill-161" fill="#D8BA97" points="0 71.634 28.793 64.768 92.83 101.739 64.037 108.605 0 71.634"></polyline>
            </g>
        </g>
    </g>
</svg>