<?xml version="1.0" encoding="iso-8859-1"?>
<!-- Generator: Adobe Illustrator 21.0.0, SVG Export Plug-In . SVG Version: 6.00 Build 0)  -->
<svg version="1.1" id="Capa_1" xmlns="http://www.w3.org/2000/svg" xmlns:xlink="http://www.w3.org/1999/xlink" x="0px" y="0px"
	 viewBox="0 0 511.999 511.999" style="enable-background:new 0 0 511.999 511.999;" xml:space="preserve">
<path style="fill:#576574;" d="M311.79,19.691c-4.368-4.368-11.452-4.368-15.821,0l-11.187,11.187
	c-2.097,2.098-3.276,4.943-3.276,7.91v38.486L270.146,87.9c-1.169,1.094-2.045,2.381-2.637,3.765
	c6.971,2.776,13.298,6.817,18.695,11.85l14.131-13.217c2.261-2.115,3.545-5.073,3.545-8.17V43.422l7.91-7.909
	C316.159,31.143,316.159,24.059,311.79,19.691z"/>
<path style="fill:#3E4B5A;" d="M186.852,82.129c0,3.096,1.284,6.054,3.545,8.17l14.131,13.216
	c5.397-5.032,11.724-9.074,18.695-11.849c-0.592-1.383-1.468-2.671-2.637-3.765l-11.361-10.626V38.787
	c0-2.966-1.179-5.811-3.276-7.909l-11.187-11.187c-4.368-4.368-11.452-4.368-15.82-0.001c-4.368,4.368-4.369,11.452-0.001,15.82
	l7.909,7.91v38.708H186.852z"/>
<path style="fill:#576574;" d="M245.366,180.644c16.081,0,31.518,2.734,45.887,7.746c9.664-10.854,15.544-25.151,15.544-40.826
	c0-33.927-27.504-61.431-61.431-61.431s-61.431,27.504-61.431,61.431c0,15.676,5.88,29.972,15.544,40.826
	C213.848,183.378,229.285,180.644,245.366,180.644z"/>
<path style="fill:#3E4B5A;" d="M203.937,147.564c0-30.52,22.261-55.829,51.43-60.608c-3.256-0.533-6.593-0.823-10.001-0.823
	c-33.927,0-61.431,27.504-61.431,61.431c0,15.676,5.88,29.972,15.544,40.826c5.295-1.847,10.738-3.382,16.303-4.588
	C208.342,173.643,203.937,161.122,203.937,147.564z"/>
<path style="fill:#576574;" d="M413.892,153.358H400.73c-4.569,0-8.68,2.779-10.382,7.02l-19.861,49.483l-24.652,14.136
	c5.127,5.703,8.441,12.744,9.689,20.234l29.462-16.894c2.183-1.251,3.879-3.202,4.816-5.537l18.49-46.069h5.598
	c6.178,0,11.187-5.008,11.187-11.187C425.079,158.367,420.07,153.358,413.892,153.358z"/>
<g>
	<path style="fill:#3E4B5A;" d="M143.891,225.149l-26.661-15.288l-19.86-49.483c-1.702-4.241-5.811-7.02-10.382-7.02H73.826
		c-6.178,0-11.187,5.008-11.187,11.187c0,6.178,5.008,11.187,11.187,11.187h5.598l18.49,46.069c0.937,2.335,2.634,4.286,4.816,5.537
		l32.24,18.487C135.93,238.245,138.985,231.05,143.891,225.149z"/>
	<path style="fill:#3E4B5A;" d="M134.638,309.129H94.256l-52.328-35.087c-1.843-1.235-4.011-1.895-6.23-1.895H18.686
		c-6.178,0-11.187,5.008-11.187,11.187s5.008,11.187,11.187,11.187h13.609l52.328,35.087c1.843,1.235,4.011,1.895,6.23,1.895h43.787
		v-22.373H134.638z"/>
	<path style="fill:#3E4B5A;" d="M145.151,407.51c-4.349-4.742-7.422-10.439-9.082-16.56l-19.902,13.34
		c-1.991,1.334-3.501,3.273-4.307,5.531L89.323,472.95h-5.278c-6.178,0-11.187,5.008-11.187,11.187
		c0,6.178,5.008,11.187,11.187,11.187h13.162c4.728,0,8.946-2.972,10.536-7.425l23.947-67.078l15.938-10.683
		C146.79,409.272,145.964,408.397,145.151,407.51z"/>
</g>
<g>
	<path style="fill:#576574;" d="M408.111,326.244l47.314-31.725h13.609c6.178,0,11.187-5.008,11.187-11.187
		s-5.008-11.187-11.187-11.187h-17.012c-2.219,0-4.387,0.66-6.23,1.895l-48.98,32.843L408.111,326.244z"/>
	<polygon style="fill:#576574;" points="381.294,309.129 356.093,309.129 356.093,331.502 368.235,331.502 	"/>
</g>
<path style="fill:#FF6B6B;" d="M356.093,352.303V250.981c0-10.08-3.698-19.846-10.512-27.275
	c-24.857-27.104-60.541-44.109-100.215-44.109c-39.675,0-75.359,17.005-100.215,44.109c-6.813,7.428-10.512,17.195-10.512,27.275
	v129.255c0,10.081,3.698,19.846,10.512,27.275c24.857,27.104,60.541,44.109,100.215,44.109c22.045,0,42.855-5.257,61.264-14.573
	L356.093,352.303z"/>
<path style="fill:#EE5253;" d="M245.366,179.597c-39.675,0-75.359,17.005-100.215,44.109c-6.813,7.428-10.512,17.195-10.512,27.275
	v129.255c0,10.081,3.698,19.846,10.512,27.275c24.857,27.103,60.54,44.109,100.215,44.109V179.597z"/>
<path style="fill:#D83941;" d="M165.355,409.288c-6.945-7.572-10.716-17.528-10.716-27.803V249.73
	c0-10.275,3.77-20.23,10.716-27.803c19.43-21.187,45.357-36.309,74.626-42.214c-37.51,1.463-71.104,18.121-94.831,43.992
	c-6.813,7.429-10.512,17.195-10.512,27.275v129.255c0,10.081,3.698,19.846,10.512,27.275c23.727,25.871,57.32,42.529,94.83,43.992
	C210.711,445.598,184.786,430.476,165.355,409.288z"/>
<path style="fill:#FECA57;" d="M504.487,490.368L392.841,299.092c-0.914-1.566-2.355-1.8-3.133-1.8c-0.778,0-2.219,0.233-3.133,1.8
	L274.928,490.368c-1.419,2.429,0.322,5.456,3.133,5.456h223.292C504.166,495.824,505.905,492.796,504.487,490.368z"/>
<g>
	<path style="fill:#E4EAF8;" d="M389.083,443.504c-7.688,0-13.711,6.022-13.711,13.712c0,7.56,6.151,13.711,13.711,13.711
		c7.368,0,13.595-6.279,13.595-13.711C402.677,449.783,396.452,443.504,389.083,443.504z"/>
	<path style="fill:#E4EAF8;" d="M388.966,360.138c-7.797,0-13.243,4.867-13.243,11.836c0,14.061,1.64,34.183,1.64,47.93
		c0,5.888,4.662,9.844,11.602,9.844c5.567,0,11.485-3.45,11.485-9.844c0-13.746,1.64-33.87,1.64-47.93
		C402.091,365.117,396.572,360.138,388.966,360.138z"/>
</g>
<path style="fill:#F4B537;" d="M294.929,490.368l104.779-179.51l-6.867-11.766c-0.914-1.566-2.355-1.8-3.133-1.8
	c-0.778,0-2.219,0.233-3.133,1.8L274.928,490.368c-1.419,2.429,0.322,5.456,3.133,5.456h20.001
	C295.249,495.824,293.51,492.796,294.929,490.368z"/>
<g>
	<path style="fill:#D8DCE5;" d="M390.373,457.216c0-4.837,2.386-9.012,6.068-11.446c-2.137-1.423-4.669-2.266-7.358-2.266
		c-7.688,0-13.711,6.022-13.711,13.712c0,7.559,6.151,13.711,13.711,13.711c2.711,0,5.265-0.855,7.413-2.3
		C392.81,466.166,390.373,461.972,390.373,457.216z"/>
	<path style="fill:#D8DCE5;" d="M392.366,419.904c0-13.747-1.64-33.864-1.64-47.93c0-4.366,2.139-7.908,5.654-9.943
		c-2.07-1.207-4.596-1.893-7.412-1.893c-7.796,0-13.242,4.867-13.242,11.836c0,14.065,1.64,34.183,1.64,47.93
		c0,5.888,4.662,9.844,11.602,9.844c2.572,0,5.211-0.745,7.314-2.167C393.81,425.85,392.366,423.177,392.366,419.904z"/>
</g>
<path d="M367.873,457.349c0,11.696,9.516,21.211,21.211,21.211c11.435,0,21.095-9.714,21.095-21.211
	c0-9.802-7.021-18.301-16.176-20.598c7.471-1.866,13.95-7.82,13.95-16.714c0-13.492,1.641-33.635,1.641-47.93
	c0-11.023-8.867-19.336-20.625-19.336c-12.02,0-20.743,8.133-20.743,19.336c0,14.289,1.641,34.444,1.641,47.93
	c0,8.407,5.631,14.866,13.947,16.761C374.553,439.089,367.873,447.285,367.873,457.349z M388.967,367.772
	c2.595,0,5.624,1.136,5.624,4.335c0,13.831-1.641,33.923-1.641,47.93c0,1.927-3.193,2.344-3.983,2.344
	c-1.871,0-4.102-0.406-4.102-2.344c0-14.003-1.641-34.097-1.641-47.93C383.225,368.195,387.241,367.772,388.967,367.772z
	 M389.084,451.137c3.246,0,6.094,2.902,6.094,6.211s-2.848,6.21-6.094,6.21c-3.424,0-6.21-2.786-6.21-6.21
	C382.874,453.807,385.544,451.137,389.084,451.137z"/>
<path d="M418.141,328.681l39.565-26.53h11.328c10.305,0,18.687-8.383,18.687-18.687s-8.383-18.688-18.687-18.688h-17.013
	c-3.718,0-7.316,1.095-10.407,3.166l-42.35,28.397l-0.377-0.646c-4.098-7.022-14.246-7.036-18.358-0.001l-3.542,6.067h-13.392
	v-50.649c0-0.898-0.032-1.792-0.081-2.683l25.204-14.453c3.632-2.081,6.489-5.367,8.048-9.251l16.602-41.362h0.526
	c10.305,0,18.688-8.383,18.688-18.687c0-10.305-8.384-18.688-18.688-18.688h-13.162c-7.675,0-14.482,4.603-17.342,11.727
	l-18.891,47.066l-17.29,9.915c-13.04-13.137-28.423-23.527-45.176-30.742c4.442-6.896,7.615-14.57,9.303-22.627
	c0.85-4.054-1.749-8.03-5.803-8.88c-4.055-0.849-8.03,1.749-8.88,5.803c-1.537,7.338-4.654,14.272-9.097,20.299
	c-26.218-8.07-56.083-8.713-84.379,0c-6.621-8.976-10.222-19.843-10.222-31.083c0-28.993,23.605-52.412,52.411-52.412
	c20.867,0,40.275,12.443,48.517,32.574c1.568,3.833,5.947,5.668,9.783,4.099c3.833-1.569,5.668-5.949,4.099-9.783
	c-2.729-6.666-6.432-12.707-10.894-18.004l8.588-8.031c3.764-3.52,5.922-8.495,5.922-13.648V46.661l5.713-5.712
	c7.285-7.286,7.285-19.142,0-26.429c-7.292-7.29-19.109-7.316-26.429,0L279.48,25.706c-3.529,3.529-5.473,8.224-5.473,13.215v35.232
	l-8.982,8.401c-0.107,0.101-0.2,0.213-0.305,0.316c-6.169-1.837-12.672-2.816-19.354-2.816c-6.718,0-13.204,1.001-19.332,2.839
	c-0.112-0.11-0.211-0.23-0.326-0.338l-8.983-8.402V38.921c0-4.99-1.943-9.683-5.473-13.215l-11.184-11.186
	c-7.301-7.303-19.123-7.302-26.428-0.001c-7.285,7.286-7.286,19.142-0.001,26.427l5.713,5.714v35.601
	c0,5.153,2.159,10.128,5.923,13.648l8.635,8.076c-9.943,11.748-15.955,26.923-15.955,43.482c0,13.03,3.776,25.665,10.753,36.485
	c-17.224,7.415-33.005,18.183-46.276,31.846l-19.21-11.017l-18.89-47.066c-2.859-7.123-9.667-11.727-17.342-11.727H73.827
	c-10.305,0-18.687,8.384-18.687,18.688c0,10.305,8.383,18.687,18.687,18.687h0.527l16.601,41.363
	c1.56,3.884,4.417,7.169,8.047,9.249l28.161,16.148c-0.033,1.625-0.023-5.594-0.023,51.637h-30.6l-50.435-33.817
	c-3.089-2.071-6.688-3.166-10.406-3.166H18.687C8.383,264.778,0,273.161,0,283.466s8.383,18.687,18.687,18.687h11.327l50.434,33.816
	c3.089,2.071,6.688,3.166,10.406,3.166h36.286v41.233c0,2.464,0.194,4.901,0.556,7.298l-15.706,10.527
	c-3.303,2.215-5.857,5.496-7.193,9.24l-20.76,58.15c-10.3,0.005-18.678,8.387-18.678,18.687c0,10.305,8.383,18.687,18.687,18.687
	h13.162c7.877,0,14.95-4.984,17.599-12.404l23.115-64.747l8.801-5.898c27.329,25.861,63.032,39.345,98.645,39.345
	c15.036,0,29.64-2.279,43.644-6.766l-20.126,34.481c-4.146,7.097,0.974,15.989,9.178,15.989h93.346c4.143,0,7.5-3.357,7.5-7.5
	c0-4.143-3.357-7.5-7.5-7.5h-85.73c3.677-6.299,103.169-176.756,104.03-178.23c3.241,5.553,102.089,174.904,104.031,178.23h-87.328
	c-4.143,0-7.5,3.357-7.5,7.5c0,4.143,3.357,7.5,7.5,7.5h94.944c8.228,0,13.309-8.911,9.18-15.986L418.141,328.681z M286.631,82.886
	c1.517-1.418,2.377-3.401,2.377-5.478V38.921c0-0.984,0.384-1.91,1.08-2.606l11.187-11.187c1.438-1.439,3.773-1.441,5.212,0
	c1.439,1.437,1.441,3.773,0,5.212l-7.909,7.909c-1.406,1.407-2.196,3.314-2.196,5.304v38.707c0,1.017-0.426,1.998-1.168,2.692
	l-9.25,8.651c-2.016-1.521-4.116-2.926-6.291-4.21L286.631,82.886z M184.247,30.34c-1.438-1.436-1.44-3.77,0.001-5.211
	c1.43-1.431,3.766-1.446,5.211,0l11.186,11.185c0.697,0.697,1.081,1.624,1.081,2.608v38.486c0,2.076,0.86,4.06,2.377,5.478
	l6.987,6.535c-0.193,0.114-0.378,0.243-0.57,0.359c-0.156,0.094-0.307,0.195-0.461,0.29c-1.802,1.11-3.563,2.285-5.256,3.564
	l-9.281-8.681c-0.743-0.695-1.169-1.676-1.169-2.692V43.555c0-1.989-0.79-3.896-2.196-5.303L184.247,30.34z M449.967,280.404
	c0.61-0.409,1.32-0.625,2.054-0.625h17.013c2.032,0,3.686,1.653,3.686,3.687c0,2.032-1.653,3.686-3.686,3.686h-13.609
	c-1.487,0-2.941,0.442-4.177,1.271l-40.684,27.279c-0.311-0.533-2.804-4.804-3.723-6.379L449.967,280.404z M368.231,316.763
	l-4.302,7.371h-0.333v-7.371H368.231z M374.219,216.5c1.464-0.839,2.602-2.146,3.229-3.712l19.86-49.483
	c0.564-1.405,1.907-2.313,3.421-2.313h13.162c2.033,0,3.687,1.653,3.687,3.687c0,2.032-1.653,3.686-3.687,3.686h-5.598
	c-3.063,0-5.819,1.863-6.96,4.706l-18.491,46.07c-0.307,0.765-0.87,1.412-1.586,1.823l-21.14,12.122
	c-0.917-2.281-2.011-4.486-3.272-6.599c-0.003-0.005-0.006-0.011-0.009-0.016L374.219,216.5z M215.959,440.811V275.785
	c0-4.143-3.357-7.5-7.5-7.5s-7.5,3.357-7.5,7.5v160.494c-7.446-2.754-14.886-6.278-21.908-10.526V309.995c0-4.143-3.357-7.5-7.5-7.5
	s-7.5,3.357-7.5,7.5v105.187c-12.394-10.131-21.907-19.243-21.907-34.814c0-3.536,0-113.936,0-129.255
	c0-5.058,1.176-10.383,3.679-15.233c0.016-0.032,0.033-0.063,0.05-0.095c8.685-16.691,45.822-45.645,91.996-48.312v256.55
	C229.987,443.557,223.479,442.535,215.959,440.811z M106.462,220.963c-0.715-0.41-1.278-1.058-1.586-1.824l-18.489-46.068
	c-1.141-2.843-3.896-4.706-6.96-4.706h-5.599c-2.032,0-3.686-1.653-3.686-3.686c0-2.033,1.653-3.687,3.686-3.687h13.163
	c1.514,0,2.856,0.908,3.421,2.313l19.859,49.483c0.628,1.565,1.766,2.873,3.229,3.712l19.641,11.264
	c-1.076,1.939-2.185,4.325-3.066,6.739L106.462,220.963z M90.854,324.134c-0.733,0-1.443-0.216-2.053-0.625l-52.328-35.087
	c-1.235-0.828-2.689-1.271-4.177-1.271H18.687c-2.032,0-3.686-1.653-3.686-3.686s1.653-3.687,3.686-3.687h17.012
	c0.733,0,1.443,0.216,2.053,0.625l52.328,35.088c1.235,0.828,2.689,1.271,4.177,1.271h32.883v7.371H90.854V324.134z
	 M127.514,414.722c-1.335,0.896-2.348,2.195-2.888,3.709l-23.947,67.078c-0.522,1.463-1.917,2.446-3.471,2.446H84.045
	c-2.032,0-3.686-1.653-3.686-3.686s1.653-3.686,3.686-3.686h5.277c3.17,0,5.998-1.993,7.063-4.979l22.537-63.13
	c0.268-0.749,0.758-1.379,1.419-1.821l12.16-8.151c1.068,2.063,2.29,4.048,3.658,5.942c0.078,0.108,0.151,0.219,0.229,0.327
	L127.514,414.722z M301.286,431.458c-3.776,1.833-7.615,3.458-11.509,4.899V275.785c0-4.143-3.357-7.5-7.5-7.5
	c-4.143,0-7.5,3.357-7.5,7.5v165.094c-7.155,1.677-14.466,2.736-21.908,3.158V187.473c33.575,1.938,64.943,17.119,87.392,41.672
	c5.584,6.21,8.335,14.189,8.335,21.968c0,11.393,0,89.805,0,99.293l-21.908,37.535v-77.945c0-4.143-3.357-7.5-7.5-7.5
	c-4.143,0-7.5,3.357-7.5,7.5v103.645C305.862,423.617,307.123,421.456,301.286,431.458z"/>
<g>
</g>
<g>
</g>
<g>
</g>
<g>
</g>
<g>
</g>
<g>
</g>
<g>
</g>
<g>
</g>
<g>
</g>
<g>
</g>
<g>
</g>
<g>
</g>
<g>
</g>
<g>
</g>
<g>
</g>
</svg>
