<svg id="Capa_1" enable-background="new 0 0 511.81 511.81" height="512" viewBox="0 0 511.81 511.81" width="512" xmlns="http://www.w3.org/2000/svg"><g><g><path d="m23.354 335.958h165.728v32.048h-165.728z" fill="#bc7c63"/><path d="m21.136 84.183h164.887v32.048h-164.887z" fill="#bc7c63"/><g><path d="m494.128 504.309h-346.178c-5.512 0-9.98-4.468-9.98-9.98v-476.849c0-5.512 4.468-9.98 9.98-9.98h346.178c5.512 0 9.98 4.468 9.98 9.98v476.85c0 5.511-4.468 9.979-9.98 9.979z" fill="#fef1da"/><path d="m233.236 489.188c-19.399 0-35.125-15.726-35.125-35.125v-446.563h-50.161c-5.512 0-9.98 4.468-9.98 9.98v476.85c0 5.512 4.468 9.98 9.98 9.98h346.178c5.512 0 9.98-4.468 9.98-9.98v-5.142z" fill="#fae2c0"/><path d="m167.97 464.935v-418.059c0-5.177 4.197-9.375 9.375-9.375h287.388c5.177 0 9.375 4.197 9.375 9.375v418.059c0 5.177-4.197 9.375-9.375 9.375h-287.388c-5.178 0-9.375-4.198-9.375-9.375z" fill="#c68d7a"/><path d="m177.345 474.31h27.198c-4.046-5.723-6.431-12.704-6.431-20.246v-416.563h-20.767c-5.177 0-9.375 4.197-9.375 9.375v418.06c0 5.176 4.197 9.374 9.375 9.374z" fill="#bc7c63"/><path d="m354.193 287.58h-32.274c-36.511 0-66.11-29.598-66.11-66.11v-24.399c0-2.609 2.115-4.725 4.725-4.725h155.044c2.609 0 4.725 2.115 4.725 4.725v24.399c0 36.512-29.598 66.11-66.11 66.11z" fill="#f9f7f8"/><path d="m336.53 127.211c-8.555 0-15.491 6.935-15.491 15.491v20.437c0 2.703-2.191 4.895-4.895 4.895h-20.284c-2.703 0-4.895-2.191-4.895-4.895v-8.32c0-3.796-3.077-6.873-6.873-6.873h-38.161c-17.356 0-31.427-14.07-31.427-31.427 0-17.356 14.07-31.427 31.427-31.427h136.081c5.006 0 9.065-4.058 9.065-9.065 0-2.33 1.889-4.218 4.219-4.218h32.691c4.543 0 8.226 3.683 8.226 8.226v29.436c0 10.142-8.257 18.345-18.399 18.277z" fill="#f9f7f8"/><path d="m48.681 493.272v-473.064c0-7.018-5.689-12.707-12.707-12.707h-15.565c-7.018 0-12.707 5.689-12.707 12.707v473.064c0 6.096 4.942 11.038 11.038 11.038h18.904c6.095-.001 11.037-4.942 11.037-11.038z" fill="#c68d7a"/></g></g><g><path d="m494.127 0h-346.177c-9.639 0-17.479 7.842-17.479 17.48v59.203h-74.29v-56.475c0-11.143-9.064-20.207-20.207-20.207h-15.565c-11.143 0-20.207 9.064-20.207 20.207v484.102c0 4.143 3.357 7.5 7.5 7.5s7.5-3.357 7.5-7.5v-484.102c0-2.871 2.336-5.207 5.207-5.207h15.565c2.871 0 5.207 2.336 5.207 5.207v484.102c0 4.143 3.357 7.5 7.5 7.5s7.5-3.357 7.5-7.5v-128.803h74.289v35.901c0 4.143 3.357 7.5 7.5 7.5s7.5-3.357 7.5-7.5v-393.928c0-1.368 1.112-2.48 2.479-2.48h346.178c1.368 0 2.48 1.112 2.48 2.48v476.85c0 1.367-1.112 2.479-2.48 2.479h-346.177c-1.367 0-2.479-1.112-2.479-2.479v-50.959c0-4.143-3.357-7.5-7.5-7.5s-7.5 3.357-7.5 7.5v50.959c0 9.639 7.841 17.479 17.479 17.479h346.178c9.639 0 17.48-7.841 17.48-17.479v-476.85c0-9.638-7.842-17.48-17.481-17.48zm-437.946 123.731h74.289v204.727h-74.289zm74.289-32.047v17.048h-74.289v-17.048zm-74.289 268.823v-17.049h74.289v17.049z"/><path d="m433.655 37.501c0-4.143-3.357-7.5-7.5-7.5h-258.185c-4.143 0-7.5 3.357-7.5 7.5v436.809c0 4.143 3.357 7.5 7.5 7.5h306.138c4.143 0 7.5-3.357 7.5-7.5v-436.809c0-4.143-3.357-7.5-7.5-7.5h-15.99c-4.143 0-7.5 3.357-7.5 7.5s3.357 7.5 7.5 7.5h8.49v421.809h-291.138v-421.809h250.685c4.142 0 7.5-3.357 7.5-7.5z"/><path d="m427.803 197.072c0-6.74-5.484-12.225-12.225-12.225h-22.313c-4.143 0-7.5 3.357-7.5 7.5s3.357 7.5 7.5 7.5h19.538v21.623c0 32.317-26.293 58.609-58.61 58.609h-32.274c-32.317 0-58.609-26.292-58.609-58.609v-21.623h97.994c4.143 0 7.5-3.357 7.5-7.5s-3.357-7.5-7.5-7.5h-100.77c-6.74 0-12.225 5.484-12.225 12.225v3.342c-1.806-.313-3.639-.49-5.49-.49-17.728 0-32.15 14.423-32.15 32.15s14.423 32.15 32.15 32.15c5.788 0 11.394-1.563 16.278-4.434 12.947 21.146 36.263 35.289 62.822 35.289h32.274c40.589 0 73.61-33.021 73.61-73.609zm-184.984 52.153c-9.457 0-17.15-7.693-17.15-17.15s7.693-17.15 17.15-17.15c1.881 0 3.732.315 5.49.91v5.637c0 8.652 1.513 16.956 4.267 24.674-2.845 1.974-6.233 3.079-9.757 3.079z"/><path d="m398.577 71.81c0-4.143-3.357-7.5-7.5-7.5s-7.5 3.357-7.5 7.5v4.219c0 .862-.702 1.564-1.564 1.564h-136.082c-21.464 0-38.926 17.463-38.926 38.927s17.462 38.927 38.926 38.927h37.534v12.587c0 4.143 3.357 7.5 7.5 7.5s7.5-3.357 7.5-7.5v-13.215c0-7.925-6.447-14.372-14.372-14.372h-38.162c-13.192 0-23.926-10.733-23.926-23.927s10.733-23.927 23.926-23.927h136.081c9.134 0 16.564-7.431 16.564-16.564v-4.219z"/><path d="m336.53 119.711c-12.677 0-22.99 10.313-22.99 22.99v25.332c0 4.143 3.357 7.5 7.5 7.5s7.5-3.357 7.5-7.5v-25.332c0-4.406 3.584-7.99 7.99-7.99h54.547c4.143 0 7.5-3.357 7.5-7.5s-3.357-7.5-7.5-7.5z"/><path d="m235.792 363.391h4.628c3.81 0 6.909 3.099 6.909 6.908 0 4.143 3.357 7.5 7.5 7.5s7.5-3.357 7.5-7.5c0-12.08-9.828-21.908-21.909-21.908h-4.628c-12.081 0-21.909 9.828-21.909 21.908v27.073c0 12.081 9.828 21.909 21.909 21.909h4.628c12.081 0 21.909-9.828 21.909-21.909 0-4.143-3.357-7.5-7.5-7.5s-7.5 3.357-7.5 7.5c0 3.81-3.1 6.909-6.909 6.909h-4.628c-3.81 0-6.909-3.1-6.909-6.909v-27.073c0-3.81 3.1-6.908 6.909-6.908z"/><path d="m312.586 419.281c4.143 0 7.5-3.357 7.5-7.5v-39.835c0-12.988-10.567-23.556-23.557-23.556s-23.557 10.567-23.557 23.556v39.835c0 4.143 3.357 7.5 7.5 7.5s7.5-3.357 7.5-7.5v-17.063c6.432-.112 12.672-.179 17.113-.172v17.236c.001 4.142 3.359 7.499 7.501 7.499zm-24.613-39.58v-7.755c0-4.718 3.839-8.556 8.557-8.556s8.557 3.838 8.557 8.556v7.532c-4.016-.017-9.516.066-17.114.223z"/><path d="m369.458 363.391c4.143 0 7.5-3.357 7.5-7.5s-3.357-7.5-7.5-7.5h-22.184c-6.451 0-11.7 5.248-11.7 11.699v51.691c0 4.143 3.357 7.5 7.5 7.5s7.5-3.357 7.5-7.5v-18.445h10.729c4.143 0 7.5-3.357 7.5-7.5s-3.357-7.5-7.5-7.5h-10.729v-14.945z"/><path d="m419.267 363.391c4.143 0 7.5-3.357 7.5-7.5s-3.357-7.5-7.5-7.5h-20.995c-5.748 0-10.424 4.676-10.424 10.423v50.045c0 5.747 4.676 10.423 10.424 10.423h20.995c4.143 0 7.5-3.357 7.5-7.5s-3.357-7.5-7.5-7.5h-16.419v-12.945h6.96c4.143 0 7.5-3.357 7.5-7.5s-3.357-7.5-7.5-7.5h-6.96v-12.945h16.419z"/></g></g></svg>