<?xml version="1.0"?>
<svg xmlns="http://www.w3.org/2000/svg" id="filled_outline" data-name="filled outline" viewBox="0 0 512 512" width="512" height="512"><path d="M170.66666,352l-42.98572-64.47857A93.36692,93.36692,0,0,1,112,235.73078v-.00007a93.36688,93.36688,0,0,1,33.59486-71.72643L160,152l32,56V171.75364a70.79487,70.79487,0,0,1,39.13445-63.32086l.00007,0a70.79486,70.79486,0,0,0,34.62687-38.46312L280,32l73.03742,68.16826A147.829,147.829,0,0,1,400,208.23944v.00011a150.08108,150.08108,0,0,1-27.60239,86.737L332.01469,352Z" style="fill:#f78e00"/><path d="M213.3394,352,182.385,305.58155A38.00063,38.00063,0,0,1,176,284.49846h0A38.22459,38.22459,0,0,1,193.01064,252.659C196.94278,250.03815,200,248,200,248l24,24V261.24637a51.65463,51.65463,0,0,1,25.07856-44.2935l0,0a51.65465,51.65465,0,0,0,21.384-25.10944L280,168l34.18861,34.18861A74.46873,74.46873,0,0,1,336,254.846v.00006a74.46869,74.46869,0,0,1-15.25273,45.15591L281.09549,352Z" style="fill:#ffc431"/><rect x="168" y="352" width="184" height="96" style="fill:#b1712c"/><path d="M192,351.6a39.55769,39.55769,0,0,1-11.6,28l-88,88-.8.8a39.598,39.598,0,1,1-56-56l.8-.8,88-88a39.55526,39.55526,0,0,1,56,0c.54993.55,1.09,1.13,1.61,1.71A39.40984,39.40984,0,0,1,192,351.6Z" style="fill:#b1712c"/><path d="M104,439.6a39.55769,39.55769,0,0,1-11.6,28l-.8.8a39.598,39.598,0,1,1-56-56l.8-.8a39.6,39.6,0,0,1,67.6,28Z" style="fill:#c78640"/><path d="M256,351.6a39.55769,39.55769,0,0,1-11.6,28l-88,88-.8.8a39.598,39.598,0,1,1-56-56l.8-.8,88-88a39.6,39.6,0,0,1,67.6,28Z" style="fill:#c78640"/><path d="M320,351.6a39.55769,39.55769,0,0,0,11.6,28l88,88,.8.8a39.598,39.598,0,1,0,56-56l-.8-.8-88-88a39.55526,39.55526,0,0,0-56,0c-.54993.55-1.09,1.13-1.61,1.71A39.40984,39.40984,0,0,0,320,351.6Z" style="fill:#b1712c"/><path d="M408,439.6a39.55769,39.55769,0,0,0,11.6,28l.8.8a39.598,39.598,0,1,0,56-56l-.8-.8a39.6,39.6,0,0,0-67.6,28Z" style="fill:#c78640"/><path d="M168,439.6a39.55769,39.55769,0,0,1-11.6,28l-.8.8a39.598,39.598,0,1,1-56-56l.8-.8a39.6,39.6,0,0,1,67.6,28Z" style="fill:#e3a15b"/><path d="M256,351.6a39.55769,39.55769,0,0,0,11.6,28l88,88,.8.8a39.598,39.598,0,1,0,56-56l-.8-.8-88-88a39.6,39.6,0,0,0-67.6,28Z" style="fill:#c78640"/><path d="M344,439.6a39.55769,39.55769,0,0,0,11.6,28l.8.8a39.598,39.598,0,1,0,56-56l-.8-.8a39.6,39.6,0,0,0-67.6,28Z" style="fill:#e3a15b"/><circle cx="128" cy="440" r="8"/><circle cx="64" cy="440" r="8"/><rect x="164.68629" y="376.00016" width="22.62742" height="15.99967" transform="translate(-219.9798 236.92179) rotate(-45)"/><circle cx="384" cy="440" r="8"/><path d="M481.25488,405.94141l-88-88a47.36279,47.36279,0,0,0-19.5498-11.82123l4.83887-6.70709A155.82974,155.82974,0,0,0,358.49609,94.31982L285.4585,26.15137a7.99995,7.99995,0,0,0-12.94922,3.03955L258.27051,67.16064a62.60612,62.60612,0,0,1-30.71387,34.1167A78.36559,78.36559,0,0,0,184,171.75342v6.12207l-17.0542-29.84473a8.00013,8.00013,0,0,0-12.06738-2.17676l-14.40528,12.00489A101.366,101.366,0,0,0,121.0249,291.959l11.04859,16.57312a47.6394,47.6394,0,0,0-13.32837,9.40931l-88,88-.80371.80371a47.59716,47.59716,0,0,0,65.67187,68.877,47.5569,47.5569,0,0,0,65.6416-1.56354l.80371-.80371L179.31348,456h153.373l17.25489,17.25488.80371.80371a47.5569,47.5569,0,0,0,65.6416,1.56354,47.59719,47.59719,0,0,0,65.67187-68.877Zm-36.483-13.85608a47.84933,47.84933,0,0,0-29.11194,12.26111L338.97046,327.657a31.60541,31.60541,0,0,1,42.971,1.59784Zm-97.06763,16.30542-54.04748-54.04749-11.31348,11.31348,56.845,56.845a47.2458,47.2458,0,0,0-3.09753,14.27551l-62.83582-62.83581a31.59185,31.59185,0,0,1,7.26673-50.10633l33.82165,33.82166,11.31348-11.31348L299.56848,320.255a31.35273,31.35273,0,0,1,18.37293,8.99988l62.83581,62.83582A47.50488,47.50488,0,0,0,347.70422,408.39075ZM175.9093,436.77722a47.65777,47.65777,0,0,0-44.68652-44.68652l62.83581-62.83582a31.57262,31.57262,0,0,1,32.8313-7.45825l-40.54663,40.54663,11.31348,11.31348,42.66736-42.66736a31.55351,31.55351,0,0,1-1.579,42.952ZM216.40186,304a47.36525,47.36525,0,0,0-21.90455,5.32532l-5.67895-8.51673A28.57479,28.57479,0,0,1,184,284.90234v-.4038a30.18592,30.18592,0,0,1,13.44775-25.18262l1.53272-1.02149,19.36279,19.36231A7.99981,7.99981,0,0,0,232,272V261.24658a43.87513,43.87513,0,0,1,21.19482-37.43408,59.99319,59.99319,0,0,0,24.69532-28.99805l5.03174-12.57861,25.60986,25.60937A66.0359,66.0359,0,0,1,328,254.84619a66.83947,66.83947,0,0,1-13.61426,40.30469l-7.73437,10.14288A47.60908,47.60908,0,0,0,256,325.22247,47.58711,47.58711,0,0,0,216.40186,304ZM134.3374,283.084a85.36668,85.36668,0,0,1,16.37891-112.93359l7.07324-5.89453,27.26465,47.71338A8,8,0,0,0,200,208V171.75342a62.453,62.453,0,0,1,34.71191-56.16553,78.55578,78.55578,0,0,0,38.54-42.80908L283.28906,46.0127l64.29,60.00439a139.82932,139.82932,0,0,1,17.98926,184.03467l-10.21021,14.1521a47.00153,47.00153,0,0,0-27.76367,12.15606,47.86559,47.86559,0,0,0-5.81225-4.52209l5.32617-6.9848A82.92955,82.92955,0,0,0,344,254.84619a81.9277,81.9277,0,0,0-24.15479-58.31445l-34.18847-34.18848a8,8,0,0,0-13.08447,2.68555l-9.5376,23.84375a43.9044,43.9044,0,0,1-18.07227,21.22021,60.01352,60.01352,0,0,0-28.41406,43.14209l-10.8916-10.8916a7.999,7.999,0,0,0-10.09424-.99951l-6.98828,4.65869A46.15309,46.15309,0,0,0,168,284.49854v.4038a44.52409,44.52409,0,0,0,7.50684,24.7837l.27441.41149A47.38619,47.38619,0,0,0,152.40186,304c-1.34436,0-2.67774.0675-4.00245.17712Zm-4.27881,46.1709a31.60541,31.60541,0,0,1,42.97095-1.59784l-76.68945,76.6894a47.84933,47.84933,0,0,0-29.11194-12.26111ZM32,440.40186a31.39132,31.39132,0,0,1,9.25488-22.34327l.80371-.80371A31.39132,31.39132,0,0,1,64.40186,408,31.7487,31.7487,0,0,1,86.26,416.79272a47.58557,47.58557,0,0,0-.55737,46.17981A31.59174,31.59174,0,0,1,32,440.40186ZM127.59814,472a31.59815,31.59815,0,0,1-22.34326-53.94141l.80371-.80371a31.59815,31.59815,0,0,1,44.68653,44.68653l-.80371.80371A31.39132,31.39132,0,0,1,127.59814,472Zm67.71534-32,54.74511-54.74512A48.09069,48.09069,0,0,0,256,378.03326a48.09069,48.09069,0,0,0,5.94141,7.22162L284.68652,408H272v16h28.68652l16,16Zm189.08838,32a31.39132,31.39132,0,0,1-22.34327-9.25488l-.80371-.80371a31.59815,31.59815,0,0,1,44.68653-44.68653l.80371.80371A31.59815,31.59815,0,0,1,384.40186,472Zm64,0a31.38181,31.38181,0,0,1-22.1045-9.02747,47.58557,47.58557,0,0,0-.55737-46.17981A31.7487,31.7487,0,0,1,447.59814,408a31.39132,31.39132,0,0,1,22.34327,9.25488l.80371.80371A31.59815,31.59815,0,0,1,448.40186,472Z"/><circle cx="448" cy="440" r="8"/><rect x="328.00016" y="356.68629" width="15.99967" height="22.62742" transform="translate(-161.80317 345.37258) rotate(-45)"/><rect x="240" y="408" width="16" height="16"/></svg>
