<svg height="512" viewBox="0 0 64 64" width="512" xmlns="http://www.w3.org/2000/svg"><g id="_06-cannon"><rect fill="#d69250" height="2" rx="1" width="58" x="4" y="59"></rect><rect fill="#d69250" height="2" rx="1" width="3" y="59"></rect><path d="m27.5 35.75-.2.63-4.3 13.62h-5v-18.32l3 1.52v3.8l2-6h6z" fill="#d69250"></path><path d="m36 40.79h.01a14 14 0 0 0 -.43 9.21h-12.58l4.3-13.62 3.81 1.93z" fill="#9b6244"></path><g fill="#262629"><path d="m35.58 50a14.019 14.019 0 0 0 3.45 5.83l-.03.03a14.6 14.6 0 0 1 -2 .14 13.972 13.972 0 0 1 -11.49-6z"></path><path d="m47 54.77c.16.04.32.07.49.1a8.988 8.988 0 0 1 -7.36-7.36c.03.17.06.33.1.49h6.77z"></path><path d="m57.77 48c.04-.16.07-.32.1-.49a8.988 8.988 0 0 1 -7.36 7.36c.17-.03.33-.06.49-.1v-6.77z"></path><path d="m50.51 37.13a8.988 8.988 0 0 1 7.36 7.36c-.03-.17-.06-.33-.1-.49h-6.77v-6.77c-.16-.04-.32-.07-.49-.1z"></path><path d="m47.49 37.13c-.17.03-.33.06-.49.1v6.77h-6.77c-.04.16-.07.32-.1.49a8.988 8.988 0 0 1 7.36-7.36z"></path></g><path d="m57.94 44.95a8.982 8.982 0 0 1 .06 1.05 9.284 9.284 0 0 1 -.06 1.06c-.02.15-.04.3-.07.45-.03.17-.06.33-.1.49h-6.77v6.77c-.16.04-.32.07-.49.1-.15.03-.3.05-.45.07a9.284 9.284 0 0 1 -1.06.06 8.982 8.982 0 0 1 -1.05-.06c-.16-.02-.31-.04-.46-.07-.17-.03-.33-.06-.49-.1v-6.77h-6.77c-.04-.16-.07-.32-.1-.49a3.469 3.469 0 0 1 -.06-.45 7.451 7.451 0 0 1 -.07-1.06 7.215 7.215 0 0 1 .07-1.05 3.4 3.4 0 0 1 .06-.46c.03-.17.06-.33.1-.49h6.77v-6.77c.16-.04.32-.07.49-.1a3.4 3.4 0 0 1 .46-.06 7.215 7.215 0 0 1 1.05-.07 7.451 7.451 0 0 1 1.06.07 3.469 3.469 0 0 1 .45.06c.17.03.33.06.49.1v6.77h6.77c.04.16.07.32.1.49.03.15.05.3.07.46z" fill="#b36802"></path><path d="m57.57 34.94a13.982 13.982 0 1 1 -8.57-2.94 13.954 13.954 0 0 1 8.57 2.94zm.43 11.06a8.982 8.982 0 0 0 -.06-1.05c-.02-.15-.04-.31-.07-.46a8.988 8.988 0 0 0 -7.36-7.36 3.469 3.469 0 0 0 -.45-.06 7.451 7.451 0 0 0 -1.06-.07 7.215 7.215 0 0 0 -1.05.07 3.621 3.621 0 0 0 -.46.06 8.988 8.988 0 0 0 -7.36 7.36 3.621 3.621 0 0 0 -.06.46 7.215 7.215 0 0 0 -.07 1.05 7.451 7.451 0 0 0 .07 1.06 3.469 3.469 0 0 0 .06.45 8.988 8.988 0 0 0 7.36 7.36c.15.03.31.05.46.07a8.982 8.982 0 0 0 1.05.06 9.284 9.284 0 0 0 1.06-.06c.15-.02.3-.04.45-.07a8.988 8.988 0 0 0 7.36-7.36c.03-.15.05-.3.07-.45a9.284 9.284 0 0 0 .06-1.06z" fill="#c9882d"></path><path d="m51 15.98v1.02a2.006 2.006 0 0 1 -2 2 2.015 2.015 0 0 1 -2-2v-6a3 3 0 0 0 -3-3h-3a2.006 2.006 0 0 1 -2-2 2.015 2.015 0 0 1 2-2h4a6 6 0 0 1 6 6z" fill="#c9882d"></path><path d="m10.08 9.01c1.09.4.85 3.77-.54 7.54s-3.4 6.51-4.5 6.12-.85-3.77.55-7.54 3.4-6.51 4.49-6.12z" fill="#262629"></path><path d="m11.88 4.14c2.73.98 3.01 7.01.62 13.48s-6.53 10.91-9.25 9.93-3.01-7.02-.63-13.48 6.53-10.91 9.26-9.93zm-2.34 12.41c1.39-3.77 1.63-7.14.54-7.54s-3.1 2.35-4.49 6.12-1.64 7.15-.55 7.54 3.11-2.35 4.5-6.12z" fill="#545359"></path><path d="m21.19 9.27a24.766 24.766 0 0 1 -1.77 10.83 25.012 25.012 0 0 1 -5.7 9.42c-1.42 1.31-2.8 1.89-3.92 1.49l-6.55-3.46c2.72.98 6.87-3.47 9.25-9.93s2.11-12.5-.62-13.48l7.28 1.51c1.11.4 1.8 1.72 2.03 3.62z" fill="#262629"></path><path d="m40.23 13.57c1.99 3 2.41 7.33-.05 13.99s-5.6 9.71-9.07 10.75l-3.81-1.93.2-.63c2.58-.64 5.76-4.61 7.74-9.97 2.38-6.47 2.1-12.5-.63-13.48z" fill="#d19034"></path><path d="m51.15 16.03c6.55 2.36 9.6 10.38 6.82 17.92-.12.34-.25.67-.4.99a13.982 13.982 0 0 0 -21.56 5.85h-.01l-4.89-2.48c3.47-1.04 6.61-4.09 9.07-10.75s2.04-10.99.05-13.99l6.77 1.52v1.91a2.015 2.015 0 0 0 2 2 2.006 2.006 0 0 0 2-2v-1.02c.05.02.1.03.15.05z" fill="#323236"></path><path d="m21 33.2-3-1.52-4.28-2.16a25.012 25.012 0 0 0 5.7-9.42 24.766 24.766 0 0 0 1.77-10.83l13.42 3.03c2.73.98 3.01 7.01.63 13.48-1.98 5.36-5.16 9.33-7.74 9.97l1.5-4.75h-6l-2 6z" fill="#323236"></path><path d="m11.88 4.14c-2.73-.98-6.88 3.46-9.26 9.93a26.152 26.152 0 0 0 -1.529 6.478 9.694 9.694 0 0 1 3.819-3.293c.183-.681.409-1.395.68-2.125 1.39-3.77 3.4-6.51 4.49-6.12s.85 3.77-.54 7.54a23.871 23.871 0 0 1 -1.014 2.357 11.207 11.207 0 0 1 .511 5.221 25.551 25.551 0 0 0 3.463-6.508c2.39-6.47 2.11-12.5-.62-13.48z" fill="#76747d"></path><path d="m49 16v-6a4 4 0 0 0 -4-4h-3a1 1 0 0 1 -1-1v-1a2.015 2.015 0 0 0 -2 2 2.006 2.006 0 0 0 2 2h3a3 3 0 0 1 3 3v6a2.015 2.015 0 0 0 2 2 2.006 2.006 0 0 0 2-2h-1a1 1 0 0 1 -1-1z" fill="#b36802"></path><path d="m23.316 49-.316 1h9a7.614 7.614 0 0 1 -.405-1z" fill="#b27846"></path><path d="m36.01 40.79h-.01l-4.89-2.48-3.81-1.93-.619 1.961 5.319 2.659s-1.677 4.214-.405 8a7.614 7.614 0 0 0 .405 1h3.58a14 14 0 0 1 .43-9.21z" fill="#7a4f39"></path><path d="m22.333 33h.84a2 2 0 0 1 1.886 2.666l-5.059 14.334h3l4.3-13.62.2-.63 1.5-4.75h-6z" fill="#b27846"></path><path d="m3.25 27.55 6.55 3.46c1.12.4 2.5-.18 3.92-1.49a14.068 14.068 0 0 0 1.427-1.549l-6.347-3.529c-1.919 2.413-3.974 3.676-5.55 3.108z" fill="#323236"></path><path d="m21.19 9.27c-.23-1.9-.92-3.22-2.03-3.62l-7.28-1.51c1.467.527 2.219 2.518 2.237 5.245l7.157 1.3a13.06 13.06 0 0 0 -.084-1.415z" fill="#3c3b40"></path><path d="m36.336 34.668-4.612-2.306a8.706 8.706 0 0 1 -4.224 3.388l-.2.63 3.81 1.93a10.758 10.758 0 0 0 5.226-3.642z" fill="#bd740f"></path><path d="m31.11 38.31 4.89 2.48h.01a14.031 14.031 0 0 1 3.136-4.717l-2.81-1.405a10.758 10.758 0 0 1 -5.226 3.642z" fill="#262629"></path><path d="m31.724 32.362-2.724-1.362-1.5 4.75a8.706 8.706 0 0 0 4.224-3.388z" fill="#262629"></path><path d="m23.764 22.812a20.066 20.066 0 0 0 1.862-9.2l-4.426-1.075a29.841 29.841 0 0 1 -1.78 7.563 25.012 25.012 0 0 1 -5.7 9.42l4.28 2.16 3 1.52v3.8l2-6h6l-3-1.5a5.023 5.023 0 0 1 -2.236-6.688z" fill="#262629"></path><path d="m36.788 16.339 4.947 1.206a9.749 9.749 0 0 0 -1.505-3.975l-5.62-1.27c1.241.445 1.969 1.94 2.178 4.039z" fill="#ffaf3f"></path><path d="m57.97 33.95c2.78-7.54-.27-15.56-6.82-17.92-.05-.02-.1-.03-.15-.05v1.02a2.006 2.006 0 0 1 -2 2 2.015 2.015 0 0 1 -2-2v-1.91l-6.77-1.52a9.749 9.749 0 0 1 1.505 3.975l4.355 1.062a14.723 14.723 0 0 1 11.124 16.079c.118.086.241.165.356.254.15-.32.28-.65.4-.99z" fill="#46454a"></path><path d="m36.788 16.339c-.209-2.1-.937-3.594-2.178-4.039l-9.337-2.108a22.074 22.074 0 0 1 .353 3.424z" fill="#46454a"></path><path d="m25.273 10.192-4.083-.922a15.808 15.808 0 0 1 .012 3.267l4.424 1.079a22.074 22.074 0 0 0 -.353-3.424z" fill="#46454a"></path><path d="m64 46a14.987 14.987 0 0 0 -28.464-6.57l-2.056-1.041c3.175-1.746 5.688-5.2 7.638-10.484 1.955-5.3 2.253-9.54.945-12.9l3.937.887v1.108a2.995 2.995 0 0 0 5.952.476c4.66 2.378 7.062 8.275 5.636 14.294l1.945.46c1.721-7.259-1.49-14.395-7.533-16.92v-5.31a7.008 7.008 0 0 0 -7-7h-4a3 3 0 0 0 0 6h3a2 2 0 0 1 2 2v2.841l-17.776-4.008-.442 1.952 6.518 1.468a1.94 1.94 0 0 1 .992 1.073c1.038 2.227.642 6.693-.988 11.112a20.711 20.711 0 0 1 -5.076 8.171l.729-2.308a1 1 0 0 0 -.957-1.301h-6a1 1 0 0 0 -.948.684l-.55 1.648-2.502-1.264v-.068h-.135l-3.483-1.759a28.929 28.929 0 0 0 4.979-8.792c2.033-5.512 2.494-10.9 1.177-13.727a3.682 3.682 0 0 0 -2.038-2.017.8.8 0 0 0 -.135-.038l-7.283-1.511c-3.339-1.034-7.782 3.456-10.4 10.565-1.858 5.038-2.211 9.886-.922 12.65a3.9 3.9 0 0 0 2.021 2.056v.006l6.56 3.461a.915.915 0 0 0 .129.056 3.2 3.2 0 0 0 1.094.19 5.423 5.423 0 0 0 3.3-1.425l3.136 1.585v12.7h2v-11.691l1 .506v3.185a1 1 0 0 0 .84.987 1.01 1.01 0 0 0 1.108-.671l1.773-5.316h3.915l-5.368 17h-3.268v-2h-2v3a1 1 0 0 0 1 1h7.028a15 15 0 0 0 11.972 6 15.2 15.2 0 0 0 1.719-.107 15.1 15.1 0 0 0 2.829 2.107h-37.548v2h58v-2h-5.548a15 15 0 0 0 7.548-13zm-20-39h-3a1 1 0 0 1 0-2h4a5.006 5.006 0 0 1 5 5v7a1 1 0 0 1 -2 0v-6a4 4 0 0 0 -4-4zm-40.441 7.412c2.099-5.696 5.514-9.412 7.515-9.412a1.374 1.374 0 0 1 .467.077 1.925 1.925 0 0 1 1.012 1.083c.864 1.855.894 6.01-.988 11.112-2.273 6.169-6.1 10.014-7.982 9.336a1.92 1.92 0 0 1 -1.011-1.081c-.865-1.856-.895-6.011.987-11.115zm6.641 15.674-3.9-2.06c2.6-1.426 5.314-5.105 7.142-10.063 1.778-4.821 2.158-9.448 1.063-12.263l4.37.907a1.792 1.792 0 0 1 .85.959c.9 1.94.872 6.462-1.241 12.189-2.656 7.203-6.579 10.829-8.284 10.331zm25.979-3.957c1.768-4.793 2.155-9.391 1.082-12.208l2.318.523c1.815 3.027 1.717 7.2-.336 12.769s-4.691 8.842-8.056 10.015l-2.108-1.067c2.608-1.479 5.328-5.234 7.098-10.032zm-8.532 24.871h5.353v-2h-8.636l3.536-11.193 6.872 3.477a14.861 14.861 0 0 0 2.256 13.716h-.028a13 13 0 0 1 -9.353-4zm8.353-5a13 13 0 1 1 13 13 13.015 13.015 0 0 1 -13-13z"></path><path d="m58.739 48.237.006-.015.005-.029a9.977 9.977 0 0 0 .181-1.06l.005-.033a9.485 9.485 0 0 0 0-2.2l-.005-.033a9.977 9.977 0 0 0 -.181-1.06l-.005-.029-.006-.015a10.021 10.021 0 0 0 -7.507-7.5h-.011-.02a9.856 9.856 0 0 0 -1.093-.187 9.442 9.442 0 0 0 -2.212 0 9.856 9.856 0 0 0 -1.093.187h-.02-.011a10.021 10.021 0 0 0 -7.507 7.5l-.006.015-.005.029a9.977 9.977 0 0 0 -.181 1.06l-.005.033a9.485 9.485 0 0 0 0 2.2l.005.033a9.977 9.977 0 0 0 .181 1.06l.005.029.006.015a10.021 10.021 0 0 0 7.507 7.5h.011.02a9.891 9.891 0 0 0 1.095.187 9.52 9.52 0 0 0 2.2 0 9.891 9.891 0 0 0 1.095-.187h.02.011a10.021 10.021 0 0 0 7.515-7.5zm-8.739-.237v5.931l-.035.005a7.6 7.6 0 0 1 -1.93 0l-.035-.005v-5.931a1 1 0 0 0 -1-1h-5.931l-.005-.035a7.307 7.307 0 0 1 0-1.93l.005-.035h5.931a1 1 0 0 0 1-1v-5.931l.035-.005a7.6 7.6 0 0 1 1.93 0l.035.005v5.931a1 1 0 0 0 1 1h5.931l.005.035a7.307 7.307 0 0 1 0 1.93l-.005.035h-5.931a1 1 0 0 0 -1 1zm6.411-5h-4.411v-4.411a8.036 8.036 0 0 1 4.411 4.411zm-10.411-4.411v4.411h-4.411a8.036 8.036 0 0 1 4.411-4.411zm-4.411 10.411h4.411v4.411a8.036 8.036 0 0 1 -4.411-4.411zm10.411 4.411v-4.411h4.411a8.036 8.036 0 0 1 -4.411 4.411z"></path><path d="m4.706 23.611a1.665 1.665 0 0 0 .574.1c2.6 0 4.924-6.075 5.2-6.815.985-2.673 1.754-6.137.959-7.843a1.794 1.794 0 0 0 -1.019-.983c-2.825-1.019-5.479 5.919-5.772 6.714-.985 2.673-1.754 6.137-.959 7.843a1.792 1.792 0 0 0 1.017.984zm1.817-8.133c1.178-3.192 2.534-4.962 3.17-5.4.2.745.078 2.958-1.092 6.13-1.177 3.192-2.533 4.963-3.17 5.4-.197-.745-.077-2.958 1.092-6.13z"></path><path d="m23.994 9.106h2v2.047h-2z" transform="matrix(.22 -.975 .975 .22 9.606 32.277)"></path><path d="m1 59h2v2h-2z"></path></g></svg>