<svg height="512pt" viewBox="-25 0 512 512" width="512pt" xmlns="http://www.w3.org/2000/svg"><path d="m129.25 143h203v159h-203zm0 0" fill="#fae4cb"/><path d="m83 414-48.945312 21.070312c-16.113282 6.9375-26.554688 22.796876-26.554688 40.339844v29.089844h447.5v-29.089844c0-17.542968-10.441406-33.402344-26.554688-40.339844l-48.945312-21.070312zm0 0" fill="#4165bf"/><path d="m351.578125 243.628906h10.496094c7.648437 0 13.847656-6.199218 13.847656-13.847656v-19.5625c0-7.648438-6.199219-13.847656-13.847656-13.847656h-262.648438c-7.648437 0-13.847656 6.199218-13.847656 13.847656v19.5625c0 7.648438 6.199219 13.847656 13.847656 13.847656zm0 0" fill="#fae4cb"/><path d="m362.074219 196.371094h-33c7.648437 0 13.847656 6.199218 13.847656 13.847656v19.5625c0 7.648438-6.199219 13.847656-13.847656 13.847656h33c7.648437 0 13.847656-6.199218 13.847656-13.847656v-19.5625c0-7.648438-6.199219-13.847656-13.847656-13.847656zm0 0" fill="#fad7af"/><path d="m277.25 391h-94l-3 113.5h101zm0 0" fill="#ffd573"/><path d="m185.75 364v55.5s16 17 45 17 46-17 46-17v-55.5zm0 0" fill="#fae4cb"/><path d="m243.75 364v55.5s-10.644531 10.628906-29.441406 15.074219c4.894531 1.175781 10.378906 1.925781 16.441406 1.925781 29 0 46-17 46-17v-55.5zm0 0" fill="#fad7af"/><path d="m348.75 130.5-237 1.5v140.601562c0 66.101563 53.203125 119.6875 119.308594 119.6875h.382812c66.101563 0 117.308594-53.585937 117.308594-119.6875zm-29 28.5v122.5s-34.664062-11.898438-70.5-15.171875l-36-.011719c-36.277344 3.265625-72.5 15.183594-72.5 15.183594v-111l.5-10.5" fill="#6c8299"/><path d="m315.75 130.710938v28.3125l4-.023438v122.5s-1.523438-.519531-4.230469-1.367188c-3.394531 57.132813-45.175781 103.40625-100.789062 111.042969 5.335937.726563 10.785156 1.113281 16.328125 1.113281h.382812c66.101563 0 117.308594-53.585937 117.308594-119.6875v-142.101562zm0 0" fill="#5b6e82"/><path d="m250.25 504.5 26.5-85 1-29c51 4 102 23 102 23l2 39-58-5 35 32-23 25zm0 0" fill="#5779cf"/><path d="m211.25 504.5-25.5-85v-29c-51 4-102 23-102 23l-2 39 58-5-35 32 23 25zm0 0" fill="#5779cf"/><path d="m89.128906 351.253906-6.339844-16.78125-33.675781 12.726563 7.6875 20.34375c3.515625 9.300781 13.902344 13.988281 23.203125 10.476562 5.34375-2.023437 9.15625-6.320312 10.769532-11.371093zm0 0" fill="#c28a46"/><path d="m345.75 128.5c18.691406-10.820312 21.28125-36.777344 5.101562-51.078125l-70.128906-61.988281c-5.78125-5.113282-13.234375-7.933594-20.949218-7.933594h-63.046876c-7.714843 0-15.167968 2.820312-20.949218 7.933594l-70.128906 61.988281c-16.179688 14.300781-13.589844 40.257813 5.101562 51.078125v3.5l237-.5zm0 0" fill="#5779cf"/><path d="m350.851562 77.421875-70.128906-61.988281c-5.78125-5.113282-13.234375-7.933594-20.949218-7.933594h-33c7.71875 0 15.167968 2.820312 20.949218 7.933594l70.128906 61.984375c16.179688 14.304687 13.589844 40.261719-5.101562 51.082031l2 3-204 .429688v.070312l237-.5-2-3c18.691406-10.820312 21.28125-36.777344 5.101562-51.078125zm0 0" fill="#4165bf"/><path d="m253.75 75c0-16.292969-11.417969-29.5-25.5-29.5s-25.5 13.207031-25.5 29.5 11.417969 29.5 25.5 29.5 25.5-13.207031 25.5-29.5zm0 0" fill="#ffd573"/><path d="m312.75 166.5h-167c-19.328125 0-35-15.671875-35-35v-3h237v3c0 19.328125-15.671875 35-35 35zm0 0" fill="#ffd573"/><path d="m314.75 128.5v3c0 19.328125-15.671875 35-35 35h33c19.328125 0 35-15.671875 35-35v-3zm0 0" fill="#ffc338"/><path d="m231.25 292.25c-8.449219 0-15.300781-6.851562-15.300781-15.300781v-36.898438c0-8.449219 6.851562-15.300781 15.300781-15.300781s15.300781 6.851562 15.300781 15.300781v36.898438c0 8.449219-6.851562 15.300781-15.300781 15.300781zm0 0" fill="#fac180"/><g fill="#060606"><path d="m431.410156 428.179688-46.308594-19.933594c-.753906-.769532-1.679687-1.382813-2.734374-1.773438-1.9375-.722656-44.289063-16.351562-90.863282-22.109375 12.503906-6.894531 23.835938-15.964843 33.402344-26.949219 6.339844-7.277343-4.929688-17.179687-11.3125-9.851562-20.90625 24.007812-50.082031 37.226562-82.152344 37.226562h-.386718c-29.9375 0-58.035157-11.664062-79.125-32.847656-1.894532-1.902344-3.707032-3.863281-5.445313-5.875l37.984375-14.351562c9.027344-3.414063 3.789062-17.46875-5.304688-14.03125l-42.046874 15.890625c-11.625-17.988281-17.867188-38.988281-17.867188-60.972657v-107.910156c4.113281 3.289063 8.847656 5.839844 14 7.429688v109.378906c0 4.996094 5.046875 8.703125 9.84375 7.125.335938-.109375 32.210938-10.507812 65.355469-14.273438v2.597657c0 12.574219 10.230469 22.800781 22.800781 22.800781s22.800781-10.226562 22.800781-22.800781v-2.582031c32.496094 3.777343 62.945313 14.117187 63.265625 14.226562 4.816406 1.648438 9.933594-2.0625 9.933594-7.09375v-110.050781c5.21875-1.898438 9.960938-4.792969 14-8.449219v109.601562c0 15.15625-2.828125 29.820313-8.40625 43.578126-3.628906 8.949218 10.25 14.644531 13.898438 5.636718 6.3125-15.558594 9.507812-32.117187 9.507812-49.214844v-21.472656h5.824219c11.773437 0 21.351562-9.574218 21.351562-21.347656v-19.5625c0-11.769531-9.578125-21.347656-21.351562-21.347656h-5.824219v-58.371094c0-.140625-.011719-.277344-.019531-.414062 7.128906-6.425782 11.625-15.21875 12.609375-25.074219 1.265625-12.671875-3.480469-24.777344-13.023438-33.210938l-70.125-61.988281c-7.160156-6.328125-16.363281-9.8125-25.917968-9.8125h-63.046876c-9.554687 0-18.757812 3.484375-25.917968 9.8125-7.234375 6.394531 2.652344 17.675781 9.933594 11.238281 4.414062-3.902343 10.09375-6.050781 15.984374-6.050781h63.046876c5.890624 0 11.570312 2.148438 15.984374 6.050781l70.128907 61.988281c6.300781 5.574219 9.25 14.132813 7.761719 22.410157-1.605469 8.914062-7.054688 11.957031-13.042969 17.601562l-149.902344.949219h-73.953125c-2.558594-3.414062-6.847656-4.945312-9.484375-8.382812-2.285156-2.980469-3.761719-6.617188-4.394531-10.300782-1.402344-8.191406 1.484375-16.742187 7.742187-22.277344l40.601563-35.890624c7.234375-6.390626-2.652344-17.671876-9.933594-11.238282l-40.601562 35.890625c-18.320313 16.195313-17.132813 46.21875 2.59375 60.75.070312 2.769531.398437 5.472657.972656 8.085938v48.234375h-4.820313c-11.773437 0-21.351562 9.574218-21.351562 21.347656v19.5625c0 11.773438 9.578125 21.351562 21.351562 21.351562h4.824219v21.46875c0 23.8125 6.464844 46.613282 18.546875 66.382813l-26.5 10.015625-6.492187-17.179688c-1.464844-3.875-5.789063-5.828124-9.667969-4.363281l-33.675781 12.726563c-3.789063 1.433594-5.800782 5.871094-4.363282 9.667968l7.6875 20.34375c4.90625 12.984376 19.867188 19.753907 32.867188 14.839844 8.878906-3.355468 15.269531-11.578125 16.332031-21.015625l32.671875-12.34375c2.988281 3.765625 6.199219 7.394531 9.644531 10.851563 8.796875 8.839844 18.675781 16.210937 29.335938 22.007812-46.035157 5.886719-87.582031 21.222656-89.503907 21.9375-.59375.222656-1.132812.523438-1.636718.871094l-48.40625 20.835938c-18.886719 8.132812-31.089844 26.671874-31.089844 47.230468v29.089844c0 4.144531 3.359375 7.5 7.5 7.5h26.75c9.652344 0 9.71875-15 0-15h-19.25v-21.589844c0-14.5625 8.644531-27.695312 22.019531-33.453125l38.613281-16.621093-1.371093 26.78125c-.230469 4.433593 3.691406 8.238281 8.132812 7.855468l35.992188-3.105468-18.699219 17.097656c-2.996094 2.738281-3.210938 7.617187-.457031 10.613281l11.429687 12.421875h-36.410156c-9.652344 0-9.71875 15 0 15h380.75c4.144531 0 7.5-3.355469 7.5-7.5v-29.089844c0-20.558594-12.203125-39.097656-31.089844-47.230468zm-192.359375-151.230469c0 4.300781-3.5 7.800781-7.800781 7.800781s-7.800781-3.5-7.800781-7.800781v-36.898438c0-4.300781 3.5-7.800781 7.800781-7.800781s7.800781 3.5 7.800781 7.800781zm15-17.675781v-19.222657c0-12.574219-10.230469-22.800781-22.800781-22.800781s-22.800781 10.226562-22.800781 22.800781v19.207031c-24.191407 2.578126-47.496094 8.515626-60.199219 12.140626v-97.398438h164v97.292969c-12.34375-3.636719-34.632812-9.457031-58.199219-12.019531zm58.699219-100.273438h-167c-12.398438 0-22.890625-8.253906-26.3125-19.546875l71.394531-.453125h148.378907c-3.273438 11.53125-13.898438 20-26.460938 20zm49.324219 44.871094c3.5 0 6.347656 2.847656 6.347656 6.347656v19.5625c0 3.5-2.847656 6.351562-6.347656 6.351562h-5.824219v-32.261718zm-262.648438 32.257812c-3.5 0-6.347656-2.847656-6.347656-6.347656v-19.5625c0-3.5 2.847656-6.347656 6.347656-6.347656h4.824219v32.257812zm-16.214843 129.371094c-1.15625 2.558594-3.234376 4.511719-5.859376 5.503906-2.625.988282-5.476562.902344-8.03125-.253906-2.558593-1.152344-4.511718-3.234375-5.503906-5.859375l-5.035156-13.328125 19.644531-7.421875 5.039063 13.328125c.988281 2.625.898437 5.476562-.253906 8.03125zm235.476562 87.535156 29.449219 26.925782-15.675781 17.039062h-71.78125l23.234374-75.289062c.230469-.714844.339844-1.53125.335938-2.261719v-20.816407c38.226562 4.03125 75.515625 15.914063 88.269531 20.269532l1.300781 25.386718-49.425781-4.261718c-6.949219-.597656-10.859375 8.296875-5.707031 13.007812zm-101.167969 43.964844-18.441406-59.746094c20.242187 9.203125 44.273437 8.871094 64.449219-.34375l-18.546875 60.089844zm13.921875-97.210938c12.988282 0 25.722656-2.027343 37.808594-5.871093v22.136719c-21.335938 16.703124-54.847656 17.789062-76 .15625v-22.128907c12.347656 3.839844 25.265625 5.742188 38.191406 5.707031zm-116.078125 80.171876 29.445313-26.925782c5.148437-4.707031 1.25-13.605468-5.703125-13.007812l-49.425781 4.261718 1.300781-25.386718c12.632812-4.320313 49.347656-16.03125 87.269531-20.164063v20.703125c-.007812.753906.109375 1.546875.332031 2.269532l23.238281 75.289062h-70.777343zm332.136719 17.039062h-94.660156l11.429687-12.421875c2.75-2.988281 2.542969-7.867187-.460937-10.613281l-18.695313-17.097656 35.992188 3.105468c4.425781.378906 8.363281-3.40625 8.132812-7.855468l-1.347656-26.339844 37.585937 16.179687c13.378907 5.757813 22.023438 18.890625 22.023438 33.453125zm0 0"/><path d="m261.25 75c0-20.402344-14.804688-37-33-37s-33 16.597656-33 37 14.804688 37 33 37 33-16.597656 33-37zm-51 0c0-12.132812 8.074219-22 18-22s18 9.867188 18 22-8.074219 22-18 22-18-9.867188-18-22zm0 0"/></g></svg>