<?xml version="1.0" encoding="UTF-8"?>
<svg width="592px" height="675px" viewBox="0 0 592 675" version="1.1" xmlns="http://www.w3.org/2000/svg" xmlns:xlink="http://www.w3.org/1999/xlink">
    <!-- Generator: Sketch 55.2 (78181) - https://sketchapp.com -->
    <title>Group</title>
    <desc>Created with Sketch.</desc>
    <g id="Page-1" stroke="none" stroke-width="1" fill="none" fill-rule="evenodd">
        <g id="2930" transform="translate(-1051.000000, -977.000000)">
            <g id="Group" transform="translate(1051.380000, 977.879346)">
                <polygon id="Fill-148" fill="#FFE8A6" points="153.79 582.110654 539.42 582.110654 539.42 352.100654 153.79 352.100654"></polygon>
                <polygon id="Fill-149" fill="#FCB73D" points="156.13 580.950654 536.78 580.950654 536.78 357.340654 156.13 357.340654"></polygon>
                <polyline id="Fill-150" fill="#EF941D" points="2.8 517.280654 1.13686838e-13 513.930654 72.09 434.960654 148.26 363.290654 70.65 453.450654 2.8 517.280654"></polyline>
                <polyline id="Fill-151" fill="#FFD180" points="0 513.930654 77.61 423.770654 153.79 352.100654 76.17 442.260654 0 513.930654"></polyline>
                <polyline id="Fill-152" fill="#FFE8A6" points="76.17 673.270654 153.79 582.110654 153.79 352.100654 76.17 442.260654 76.17 673.270654"></polyline>
                <polyline id="Fill-153" fill="#F9A826" points="83.13 673.270654 156.13 588.170654 156.13 357.340654 83.13 442.260654 83.13 673.270654"></polyline>
                <path d="M440.17,447.780654 C441.08,447.940654 442.04,448.040654 443,448.070654 C453.31,448.340654 461.91,440.180654 462.18,429.850654 C463.97,361.340654 495.01,337.790654 525.05,315.030654 C534.23,308.060654 543.73,300.850654 551.94,292.640654 C570.95,273.610654 581.07,246.500654 578.35,221.910654 C576.64,206.260654 569.04,184.080654 542.54,167.170654 C533.88,161.650654 522.3,164.170654 516.71,172.890654 C511.16,181.600654 513.7,193.150654 522.41,198.720654 C533.66,205.890654 539.98,215.070654 541.17,225.990654 C542.63,239.380654 536.48,255.160654 525.48,266.210654 C519.09,272.600654 511.01,278.720654 502.45,285.210654 C470.63,309.350654 427.02,342.390654 424.79,428.890654 C424.55,438.250654 431.24,446.180654 440.17,447.780654" id="Fill-154" fill="#D8A782"></path>
                <path d="M396.4,406.680654 C470.33,429.330654 514.69,476.020654 481.01,485.740654 C452.26,494.040654 190.72,443.740654 158.03,440.860654 C173.41,407.200654 189.44,358.160654 208.99,314.570654 C216.48,313.080654 224.96,318.050654 237.64,323.020654 C250.28,327.970654 267.09,332.920654 291.27,331.470654 C312.21,375.910654 324.03,384.510654 396.4,406.680654" id="Fill-155" fill="#D8A782"></path>
                <path d="M267.51,339.450654 C251.1,385.300654 301.52,472.540654 279.33,485.930654 C254.56,500.880654 179.87,504.550654 181.6,469.280654 C184.25,414.980654 191.49,384.820654 209.83,330.760654 C218.76,331.480654 259.3,336.790654 267.51,339.450654" id="Fill-156" fill="#FCE1D4"></path>
                <path d="M461.92,437.250654 C461.54,437.000654 461.16,436.740654 460.78,436.490654 C461.58,434.540654 462.07,432.440654 462.17,430.220654 L461.92,437.250654" id="Fill-157" fill="#E19C34"></path>
                <path d="M460.78,436.490654 C457.58,434.330654 454.17,432.190654 450.57,430.070654 L462.18,429.850654 L462.17,430.220654 C462.07,432.440654 461.58,434.540654 460.78,436.490654" id="Fill-158" fill="#C38E6F"></path>
                <path d="M461.25,455.690654 L283.2,455.690654 C281.87,448.890654 279.95,441.330654 277.84,433.340654 L450.57,430.070654 C454.17,432.190654 457.58,434.330654 460.78,436.490654 C461.16,436.740654 461.54,437.000654 461.92,437.250654 L461.25,455.690654" id="Fill-159" fill="#C38E6F"></path>
                <path d="M182.39,455.690654 L156.13,455.690654 L156.13,435.640654 L160.4,435.560654 C159.61,437.360654 158.82,439.130654 158.03,440.860654 C162.52,441.250654 171.34,442.540654 183.29,444.460654 C182.96,448.100654 182.66,451.830654 182.39,455.690654" id="Fill-160" fill="#E19C34"></path>
                <polyline id="Fill-161" fill="#E4C68E" points="83.13 455.690654 80.66 455.690654 83.13 449.220654 83.13 455.690654"></polyline>
                <polyline id="Fill-162" fill="#DF8F21" points="156.13 455.690654 83.13 455.690654 83.13 449.220654 87.82 436.930654 156.13 435.640654 156.13 455.690654"></polyline>
                <path d="M183.29,444.460654 C171.34,442.540654 162.52,441.250654 158.03,440.860654 C158.82,439.130654 159.61,437.360654 160.4,435.560654 L184.23,435.110654 C183.89,438.160654 183.57,441.270654 183.29,444.460654" id="Fill-163" fill="#C38E6F"></path>
                <path d="M283.2,455.690654 L182.39,455.690654 C182.66,451.830654 182.96,448.100654 183.29,444.460654 C183.57,441.270654 183.89,438.160654 184.23,435.110654 L277.84,433.340654 C279.95,441.330654 281.87,448.890654 283.2,455.690654" id="Fill-164" fill="#E1C0B5"></path>
                <polygon id="Fill-165" fill="#FFE8A6" points="80.66 668.120654 466.29 668.120654 466.29 437.110654 80.66 437.110654"></polygon>
                <polyline id="Fill-166" fill="#FFE8A6" points="455.54 673.160654 533.16 583.000654 537.71 352.100654 533.16 351.980654 455.54 442.140654 455.54 673.160654"></polyline>
                <polyline id="Fill-167" fill="#F7A123" points="461.86 673.270654 539.42 583.120654 539.42 352.100654 461.86 442.260654 461.86 673.270654"></polyline>
                <polygon id="Fill-168" fill="#FCB73D" points="76.17 673.270654 461.86 673.270654 461.86 442.260654 76.17 442.260654"></polygon>
                <polyline id="Fill-169" fill="#EA8B1B" points="522.31 543.620654 591.36 449.840654 540.3 362.250654 461.86 442.260654 462.69 452.410654 515.95 543.370654 522.31 543.620654"></polyline>
                <polyline id="Fill-170" fill="#FFD180" points="522.31 543.620654 591.36 449.840654 539.42 352.100654 461.86 442.260654 522.31 543.620654"></polyline>
                <polyline id="Fill-171" fill="#EF941D" points="421.53 566.810654 35.9 566.810654 32.56 562.260654 79.52 446.810654 461.86 442.260654 461.86 459.150654 421.53 566.810654"></polyline>
                <polyline id="Fill-172" fill="#FFD180" points="418.19 562.260654 32.56 562.260654 76.17 442.260654 461.86 442.260654 418.19 562.260654"></polyline>
                <path d="M298.02,373.590654 C269.87,399.240654 241.87,404.600654 234.58,421.090654 C229.11,433.470654 242.17,460.260654 260.05,452.550654 C281.03,443.510654 298.79,433.400654 314.04,420.650654 C314.13,409.140654 308.95,384.520654 298.02,373.590654" id="Fill-173" fill="#D8A782"></path>
                <path d="M287.17,432.570654 C262.31,459.840654 237.67,493.230654 221.62,498.410654 C204.93,503.790654 181.87,486.930654 194.74,473.400654 C206.8,460.720654 217.25,451.130654 234.63,420.570654 C247.95,397.160654 291.17,408.600654 287.17,432.570654" id="Fill-174" fill="#D8A782"></path>
                <path d="M189.98,358.980654 C156.65,398.730654 128.52,451.890654 131.08,468.030654 C133.74,484.820654 158.48,492.170654 164.64,475.620654 C170.42,460.100654 170.56,455.120654 180.81,436.850654 C179.04,404.030654 188.53,369.120654 189.98,358.980654" id="Fill-175" fill="#D8A782"></path>
                <path d="M131.08,468.030654 C133.75,484.820654 158.47,492.170654 164.64,475.620654 C170.42,460.100654 170.56,455.120654 180.81,436.850654 C180.78,436.210654 180.81,435.580654 180.79,434.940654 C169.21,431.210654 157.81,427.250654 146.68,423.140654 C136.07,443.060654 129.82,460.070654 131.08,468.030654" id="Fill-176" fill="#7F624E"></path>
                <path d="M266.06,456.700654 C251.74,450.840654 237.5,444.500654 223.94,438.090654 C212.53,455.460654 204.1,463.560654 194.74,473.400654 C181.87,486.930654 204.93,503.790654 221.62,498.410654 C233.07,494.720654 248.91,476.630654 266.06,456.700654" id="Fill-177" fill="#7F624E"></path>
                <path d="M142.2,124.980654 C149.54,163.780654 248.78,139.100654 242.36,108.300654 C233.55,66.0206538 182.01,-3.95234619 166.01,0.174653814 C147.76,4.87865381 134.86,86.1806538 142.2,124.980654" id="Fill-178" fill="#7F624E"></path>
                <path d="M163.91,115.830654 C169.71,146.470654 234.96,124.820654 229.89,100.490654 C222.93,67.1106538 182.23,11.8486538 169.6,15.1076538 C155.18,18.8226538 158.11,85.1906538 163.91,115.830654" id="Fill-179" fill="#FFBDA9"></path>
                <path d="M418.68,179.470654 C396.12,216.000654 303.08,151.080654 321.6,122.310654 C347.02,82.8306538 427.29,32.3006538 442.23,42.9206538 C459.28,55.0306538 441.24,142.930654 418.68,179.470654" id="Fill-180" fill="#7F624E"></path>
                <path d="M399.77,161.450654 C381.96,190.310654 322.88,142.090654 337.5,119.370654 C357.58,88.1906538 420.96,48.2906538 432.77,56.6806538 C446.23,66.2406538 417.59,132.600654 399.77,161.450654" id="Fill-181" fill="#FFBDA9"></path>
                <path d="M423.54,241.230654 C419.78,338.000654 312.71,354.110654 218.66,334.700654 C161.32,322.870654 83.38,277.410654 109.08,190.190654 C130.93,115.990654 188.48,59.3306538 262.11,64.8606538 C373.04,73.2006538 427.03,151.130654 423.54,241.230654" id="Fill-182" fill="#D8A782"></path>
                <path d="M402.58,297.660654 C416.02,289.720654 441.26,277.550654 441.26,277.550654 C441.26,277.550654 420.99,259.040654 423.06,235.330654 C417.07,229.290654 395.26,301.990654 402.58,297.660654" id="Fill-183" fill="#D8A782"></path>
                <path d="M415.14,244.270654 C426.53,251.140654 441.11,248.030654 441.11,248.030654 C441.11,248.030654 423.92,231.800654 421.2,210.340654 C414.71,206.140654 408.53,240.270654 415.14,244.270654" id="Fill-184" fill="#D8A782"></path>
                <path d="M105.34,242.080654 C94.86,232.520654 84.65,224.410654 84.65,224.410654 C84.65,224.410654 101.93,211.590654 104.48,190.110654 C110.92,185.860654 111.05,247.280654 105.34,242.080654" id="Fill-185" fill="#D8A782"></path>
                <path d="M114.14,199.470654 C101.17,202.390654 88.32,194.830654 88.32,194.830654 C88.32,194.830654 109.76,184.870654 119.13,165.380654 C126.61,163.440654 121.68,197.780654 114.14,199.470654" id="Fill-186" fill="#D8A782"></path>
                <path d="M376.37,250.120654 C369.97,287.120654 305.99,293.830654 234.73,281.500654 C163.47,269.180654 111.93,242.470654 118.33,205.480654 C124.73,168.480654 186.66,135.200654 257.91,147.530654 C329.17,159.850654 382.77,213.120654 376.37,250.120654" id="Fill-187" fill="#7F624E"></path>
                <path d="M274.19,267.800654 C271.95,290.310654 251.83,306.740654 229.24,304.500654 C206.66,302.250654 190.16,282.180654 192.4,259.670654 C194.64,237.160654 214.76,220.730654 237.35,222.970654 C259.93,225.220654 276.42,245.290654 274.19,267.800654" id="Fill-188" fill="#7F624E"></path>
                <path d="M244.39,283.900654 C244.14,283.900654 243.9,283.880654 243.69,283.870654 C241,283.570654 235.67,281.020654 232.2,276.270654 C229.06,271.980654 228.01,266.700654 229.16,261.010654 C229.4,259.860654 230.47,259.160654 231.72,259.320654 C232.88,259.560654 233.63,260.700654 233.41,261.880654 C232.48,266.400654 233.25,270.400654 235.68,273.720654 C238.62,277.760654 242.99,279.450654 244.17,279.570654 C247.08,280.080654 258.46,276.160654 260.42,268.060654 C260.72,266.900654 261.91,266.250654 263.02,266.480654 C264.19,266.760654 264.89,267.920654 264.61,269.080654 C262.08,279.460654 249.36,283.900654 244.39,283.900654" id="Fill-189" fill="#382D2B"></path>
                <path d="M215.79,279.220654 C215.1,279.220654 214.48,279.150654 213.96,279.040654 C211.65,278.530654 207.1,275.360654 204.6,270.750654 C202.56,266.990654 202.24,262.990654 203.67,259.190654 C204.1,258.070654 205.35,257.580654 206.45,257.920654 C207.57,258.340654 208.14,259.590654 207.72,260.700654 C206.72,263.340654 206.95,266.020654 208.39,268.700654 C210.3,272.210654 213.82,274.580654 214.9,274.820654 C215.95,275.050654 219.12,274.850654 222.19,272.810654 C225.79,270.450654 228.14,266.490654 229.16,261.040654 C229.39,259.900654 230.48,259.070654 231.69,259.320654 C232.86,259.550654 233.63,260.670654 233.41,261.850654 C231.85,270.110654 227.73,274.330654 224.57,276.410654 C221.52,278.420654 218.21,279.220654 215.79,279.220654" id="Fill-190" fill="#382D2B"></path>
                <path d="M250.68,252.800654 C249.27,261.440654 230.12,261.460654 230.12,261.460654 C230.12,261.460654 211.97,255.380654 213.37,246.750654 C214.77,238.120654 252.08,244.170654 250.68,252.800654" id="Fill-191" fill="#3A2724"></path>
                <path d="M352.54,233.950654 C349.02,255.640654 328.61,270.370654 306.96,266.850654 C285.3,263.340654 270.61,242.910654 274.12,221.230654 C277.64,199.540654 298.05,184.810654 319.7,188.330654 C341.36,191.840654 356.06,212.270654 352.54,233.950654" id="Fill-192" fill="#63190D"></path>
                <path d="M349.43,235.950654 C345.98,257.200654 325.41,271.540654 303.48,267.980654 C281.55,264.420654 266.56,244.310654 270.01,223.060654 C273.46,201.810654 294.03,187.480654 315.96,191.030654 C337.9,194.590654 352.88,214.700654 349.43,235.950654" id="Fill-193" fill="#FFDE76"></path>
                <path d="M337.6,232.690654 C335.33,246.690654 322.14,256.190654 308.15,253.920654 C294.16,251.650654 284.66,238.460654 286.93,224.470654 C289.2,210.480654 302.38,200.980654 316.37,203.250654 C330.37,205.520654 339.87,218.700654 337.6,232.690654" id="Fill-194" fill="#63190D"></path>
                <path d="M305.16,214.250654 C304.61,217.610654 301.45,219.890654 298.09,219.350654 C294.73,218.800654 292.45,215.630654 292.99,212.280654 C293.54,208.910654 296.7,206.630654 300.06,207.180654 C303.42,207.720654 305.7,210.890654 305.16,214.250654" id="Fill-195" fill="#F9FEFF"></path>
                <path d="M137.81,199.100654 C134.29,220.790654 147.89,241.040654 168.19,244.330654 C188.49,247.630654 207.8,232.720654 211.32,211.030654 C214.84,189.350654 201.24,169.100654 180.94,165.800654 C160.64,162.510654 141.33,177.410654 137.81,199.100654" id="Fill-196" fill="#63190D"></path>
                <path d="M139.96,201.950654 C136.51,223.200654 150.38,243.130654 170.94,246.460654 C191.5,249.800654 210.96,235.280654 214.41,214.030654 C217.86,192.790654 203.99,172.860654 183.43,169.520654 C162.87,166.180654 143.4,180.700654 139.96,201.950654" id="Fill-197" fill="#FFDE76"></path>
                <path d="M157.41,203.450654 C155.13,217.440654 163.93,230.510654 177.04,232.640654 C190.16,234.770654 202.64,225.150654 204.91,211.160654 C207.18,197.170654 198.39,184.100654 185.27,181.970654 C172.15,179.840654 159.68,189.450654 157.41,203.450654" id="Fill-198" fill="#63190D"></path>
                <path d="M163.28,191.220654 C162.74,194.580654 164.85,197.720654 168,198.230654 C171.15,198.740654 174.14,196.430654 174.69,193.070654 C175.24,189.710654 173.12,186.570654 169.97,186.060654 C166.82,185.550654 163.83,187.860654 163.28,191.220654" id="Fill-199" fill="#F9FEFF"></path>
                <path d="M149.03,244.420654 C148.79,244.420654 148.54,244.330654 148.33,244.180654 C123.9,225.380654 89.91,211.650654 57.42,207.450654 C56.81,207.370654 56.36,206.790654 56.44,206.160654 C56.51,205.580654 57,205.160654 57.58,205.160654 L57.73,205.170654 C90.6,209.420654 124.99,223.330654 149.73,242.350654 C150.24,242.750654 150.34,243.460654 149.95,243.970654 C149.72,244.260654 149.38,244.420654 149.03,244.420654" id="Fill-200" fill="#826964"></path>
                <path d="M143.83,252.550654 C143.68,252.550654 143.52,252.520654 143.38,252.450654 C129.83,246.620654 93.52,233.680654 48.7,239.360654 L48.56,239.370654 C47.98,239.370654 47.49,238.950654 47.42,238.360654 C47.34,237.730654 47.79,237.150654 48.42,237.080654 C93.73,231.250654 130.57,244.430654 144.28,250.350654 C144.87,250.600654 145.14,251.270654 144.89,251.850654 C144.7,252.290654 144.28,252.550654 143.83,252.550654" id="Fill-201" fill="#826964"></path>
                <path d="M54.84,268.840654 C54.35,268.840654 53.9,268.530654 53.74,268.040654 C53.55,267.430654 53.88,266.780654 54.49,266.590654 C82.63,257.640654 119.89,257.710654 142.63,261.530654 C143.25,261.640654 143.66,262.230654 143.57,262.870654 C143.45,263.480654 142.89,263.890654 142.23,263.810654 C119.79,259.990654 82.97,259.930654 55.19,268.780654 C55.08,268.820654 54.95,268.840654 54.84,268.840654" id="Fill-202" fill="#826964"></path>
                <path d="M336.07,275.340654 C335.58,275.340654 335.11,275.020654 334.97,274.510654 C334.79,273.910654 335.13,273.260654 335.75,273.090654 C365.97,264.040654 416.7,258.140654 461.93,265.310654 C462.55,265.410654 462.99,266.000654 462.89,266.630654 C462.79,267.250654 462.27,267.670654 461.57,267.580654 C416.75,260.480654 366.4,266.320654 336.39,275.300654 C336.29,275.330654 336.18,275.340654 336.07,275.340654" id="Fill-203" fill="#826964"></path>
                <path d="M460.58,303.040654 C460.44,303.040654 460.32,303.010654 460.17,302.960654 C407.11,282.980654 358.45,283.530654 339.96,284.780654 L339.89,284.780654 C339.29,284.780654 338.78,284.320654 338.74,283.700654 C338.7,283.070654 339.19,282.520654 339.82,282.480654 C358.38,281.300654 407.47,280.670654 460.99,300.800654 C461.58,301.030654 461.89,301.700654 461.66,302.290654 C461.48,302.750654 461.05,303.040654 460.58,303.040654" id="Fill-204" fill="#826964"></path>
                <path d="M442.64,331.080654 C442.43,331.080654 442.23,331.020654 442.05,330.910654 C408.62,310.680654 365.67,298.790654 337.95,295.980654 C337.32,295.920654 336.86,295.360654 336.91,294.730654 C336.98,294.100654 337.43,293.660654 338.18,293.690654 C366.16,296.530654 409.51,308.510654 443.23,328.940654 C443.78,329.270654 443.96,329.980654 443.62,330.520654 C443.41,330.880654 443.03,331.080654 442.64,331.080654" id="Fill-205" fill="#826964"></path>
            </g>
        </g>
    </g>
</svg>