<svg id="Capa_1" enable-background="new 0 0 512 512" height="512" viewBox="0 0 512 512" width="512" xmlns="http://www.w3.org/2000/svg"><path d="m304.097 215.919h64.129v80.161h-64.129z" fill="#d2af8c"/><path d="m304.097 215.919h24.673v80.161h-24.673z" fill="#b4967d"/><path d="m143.774 215.919h64.129v80.161h-64.129z" fill="#d2af8c"/><path d="m143.774 215.919h24.798v80.161h-24.798z" fill="#b4967d"/><path d="m288.065 288.065v72.145h-64.13v-72.145h-96.193v216.435h256.516v-216.435z" fill="#eac89f"/><g fill="#d2af8c"><path d="m127.742 288.065h24.925v216.435h-24.925z"/><path d="m288.065 288.065h24.685v216.435h-24.685z"/><path d="m256 312.113-32.065 48.097h64.13z"/></g><path d="m151.79 215.919h48.097l-24.048-208.419z" fill="#b4967d"/><path d="m336.161 7.5-24.048 208.419h48.097z" fill="#b4967d"/><path d="m400.291 497h-8.532v-160.841c0-4.142-3.358-7.5-7.5-7.5s-7.5 3.358-7.5 7.5v16.55h-33.097v-32.581c0-4.142-3.358-7.5-7.5-7.5s-7.5 3.358-7.5 7.5v32.581h-33.097v-57.145h81.194v8.536c0 4.142 3.358 7.5 7.5 7.5s7.5-3.358 7.5-7.5v-16.036c0-4.142-3.358-7.5-7.5-7.5h-8.533v-64.645c0-4.142-3.358-7.5-7.5-7.5h-1.332l-23.282-201.779c-.437-3.784-3.641-6.64-7.451-6.64s-7.014 2.856-7.451 6.64l-23.282 201.779h-1.332c-4.142 0-7.5 3.358-7.5 7.5v64.645h-8.532c-4.142 0-7.5 3.358-7.5 7.5v47.375l-18.324-27.486c-1.391-2.086-3.732-3.34-6.24-3.34s-4.85 1.253-6.24 3.34l-18.324 27.486v-47.375c0-4.142-3.358-7.5-7.5-7.5h-8.532v-64.645c0-4.142-3.358-7.5-7.5-7.5h-1.332l-23.282-201.779c-.437-3.784-3.642-6.64-7.451-6.64s-7.014 2.856-7.451 6.64l-23.282 201.779h-1.332c-4.142 0-7.5 3.358-7.5 7.5v64.645h-8.533c-4.142 0-7.5 3.358-7.5 7.5v208.936h-8.532c-4.142 0-7.5 3.358-7.5 7.5s3.358 7.5 7.5 7.5h288.581c4.142 0 7.5-3.358 7.5-7.5s-3.357-7.5-7.499-7.5zm-64.13-424.069 15.633 135.488h-31.266zm-24.564 150.488h48.593.01.009.517v57.145h-17.064v-32.581c0-4.142-3.358-7.5-7.5-7.5s-7.5 3.358-7.5 7.5v32.581h-17.064v-57.145zm40.596 233.5c-4.142 0-7.5 3.358-7.5 7.5v32.581h-17.064v-32.581c0-4.142-3.358-7.5-7.5-7.5s-7.5 3.358-7.5 7.5v32.581h-17.064v-57.145h81.194v57.145h-17.065v-32.581c-.001-4.142-3.359-7.5-7.501-7.5zm-96.193 0c-4.142 0-7.5 3.358-7.5 7.5v32.581h-17.064v-57.145h49.129v57.145h-17.065v-32.581c0-4.142-3.358-7.5-7.5-7.5zm120.758-89.21v57.146h-17.065v-32.581c0-4.142-3.358-7.5-7.5-7.5s-7.5 3.358-7.5 7.5v32.581h-17.064v-32.581c0-4.142-3.358-7.5-7.5-7.5s-7.5 3.358-7.5 7.5v32.581h-17.064v-57.146zm-120.758-42.075 24.564 36.846v62.375h-17.064v-32.581c0-4.142-3.358-7.5-7.5-7.5s-7.5 3.358-7.5 7.5v32.581h-17.064v-8.534c0-4.142-3.358-7.5-7.5-7.5s-7.5 3.358-7.5 7.5v8.534h-17.064v-32.581c0-4.142-3.358-7.5-7.5-7.5s-7.5 3.358-7.5 7.5v32.581h-17.064v-32.581c0-4.142-3.358-7.5-7.5-7.5s-7.5 3.358-7.5 7.5v32.581h-17.065v-57.146h81.194v16.547c0 4.142 3.358 7.5 7.5 7.5s7.5-3.358 7.5-7.5v-21.776zm-80.161-252.703 15.633 135.488h-31.266zm-24.565 150.488h48.593.01.009.517v57.145h-17.064v-32.581c0-4.142-3.358-7.5-7.5-7.5s-7.5 3.358-7.5 7.5v32.581h-17.064v-57.145zm65.162 72.145v57.145h-33.097v-32.581c0-4.142-3.358-7.5-7.5-7.5s-7.5 3.358-7.5 7.5v32.581h-33.097v-57.145zm-81.194 144.291h81.194v57.145h-17.064v-32.581c0-4.142-3.358-7.5-7.5-7.5s-7.5 3.358-7.5 7.5v32.581h-17.064v-32.581c0-4.142-3.358-7.5-7.5-7.5s-7.5 3.358-7.5 7.5v32.581h-17.065v-57.145z"/></svg>