<svg id="Capa_1" enable-background="new 0 0 512 512" height="512" viewBox="0 0 512 512" width="512" xmlns="http://www.w3.org/2000/svg"><g><g><path d="m340.169 504.5h-168.338l-24.049-96.194h192.387z" fill="#dad8db"/><path d="m340.169 408.306h-192.387v96.194h24.048v-11.273c0-6.923 7.063-11.423 13.436-8.72 18.579 7.88 38.606 11.976 58.709 11.976 35.133 0 68.969-12.336 96.194-34.63z" fill="#c8c5c9"/><path d="m388.266 290.868v-42.884c0-70.835-57.423-128.258-128.258-128.258l-32.065 10.941c-70.835 0-128.258 46.482-128.258 117.317v42.884c-9.453 4.513-16.032 14.08-16.032 25.253 0 15.495 12.561 28.056 28.056 28.056h4.008c0 70.835 57.423 128.258 128.258 128.258s128.258-57.423 128.258-128.258h4.008c15.495 0 28.056-12.561 28.056-28.056.001-11.173-6.578-20.74-16.031-25.253z" fill="#eceaec"/><path d="m124.665 344.177h-8.948c0 70.835 57.423 128.258 128.258 128.258 4.059 0 8.061-.238 12.024-.607-60.397-5.622-108.652-53.08-115.421-113.132-.924-8.211-7.65-14.519-15.913-14.519z" fill="#dad8db"/><path d="m227.944 143.774h8.016c13.282 0 24.048-10.767 24.048-24.048h-32.065c-70.835 0-128.258 57.423-128.258 128.258v40.081h8.016c8.854 0 16.032-7.178 16.032-16.032v-24.048c.001-57.555 46.657-104.211 104.211-104.211z" fill="#dad8db"/><path d="m282.838 18.376 25.618 40.988c3.337 5.339-.501 12.265-6.798 12.265h-9.585v20.041c0 7.568 3.563 14.694 9.617 19.235l96.199 72.153c14.128 10.596 22.442 27.226 22.442 44.886v20.04c0 4.427-3.589 8.016-8.016 8.016h-16.032c-4.427 0-8.016-3.589-8.016-8.016v-20.036c0-7.571-3.564-14.7-9.621-19.242l-96.195-72.15c-14.128-10.597-22.443-27.226-22.443-44.887v-20.04h-9.585c-6.296 0-10.135-6.926-6.798-12.265l25.618-40.988c3.139-5.023 10.455-5.023 13.595 0z" fill="#a4ccff"/><path d="m381.468 18.376-25.618 40.988c-3.337 5.339.502 12.265 6.798 12.265h9.585v20.04c0 7.568-3.563 14.694-9.617 19.235l-96.198 72.153c-14.128 10.597-22.443 27.226-22.443 44.887v20.04c0 4.427 3.589 8.016 8.016 8.016h16.032c4.427 0 8.016-3.589 8.016-8.016v-20.036c0-7.571 3.564-14.7 9.621-19.242l96.195-72.151c14.128-10.596 22.442-27.226 22.442-44.886v-20.04h9.585c6.296 0 10.135-6.926 6.798-12.265l-25.618-40.988c-3.138-5.023-10.454-5.023-13.594 0z" fill="#ff8086"/></g><g><path d="m376.242 280.564c-4.142 0-7.5 3.358-7.5 7.5s3.358 7.5 7.5 7.5c11.335 0 20.557 9.222 20.557 20.557s-9.222 20.557-20.557 20.557h-4.008c-4.142 0-7.5 3.357-7.5 7.5 0 66.586-54.172 120.758-120.758 120.758s-120.758-54.172-120.758-120.758c0-4.143-3.358-7.5-7.5-7.5h-4.008c-11.334 0-20.556-9.222-20.556-20.557s9.222-20.557 20.556-20.557c4.142 0 7.5-3.358 7.5-7.5s-3.358-7.5-7.5-7.5c-1.533 0-3.041.108-4.524.298v-32.878c0-66.586 54.172-120.758 120.758-120.758 4.142 0 7.5-3.357 7.5-7.5 0-4.142-3.358-7.5-7.5-7.5-74.857 0-135.758 60.901-135.758 135.758v38.442c-9.649 6.365-16.032 17.296-16.032 29.695 0 18.495 14.193 33.737 32.261 35.405 1.634 30.453 13.356 58.269 31.868 80.168v72.806c0 4.142 3.358 7.5 7.5 7.5s7.5-3.358 7.5-7.5v-57.627c23.808 20.591 54.821 33.062 88.693 33.062s64.886-12.472 88.694-33.062v57.627c0 4.142 3.358 7.5 7.5 7.5s7.5-3.358 7.5-7.5v-72.805c18.513-21.9 30.234-49.716 31.868-80.168 18.067-1.668 32.261-16.91 32.261-35.405-.001-19.607-15.951-35.558-35.557-35.558z"/><path d="m434.707 67.654-40.081-64.129c-1.371-2.193-3.774-3.525-6.36-3.525s-4.989 1.332-6.36 3.525l-40.081 64.129c-1.445 2.312-1.521 5.226-.2 7.61 1.321 2.385 3.833 3.864 6.56 3.864h16.548v12.541c0 5.18-2.474 10.127-6.617 13.235l-25.964 19.474-25.96-19.471c-4.146-3.109-6.621-8.06-6.621-13.242v-12.536h16.548c2.727 0 5.238-1.479 6.56-3.864 1.322-2.384 1.246-5.298-.2-7.61l-40.079-64.13c-1.37-2.193-3.774-3.525-6.359-3.525s-4.989 1.332-6.36 3.525l-40.081 64.129c-1.445 2.312-1.521 5.226-.2 7.61 1.322 2.385 3.833 3.864 6.56 3.864h16.549v12.541c0 19.915 9.511 38.937 25.442 50.886l14.984 11.238-31.016 23.263c-15.932 11.949-25.443 30.972-25.443 50.886v20.041c0 8.556 6.96 15.516 15.516 15.516h16.033c8.556 0 15.516-6.96 15.516-15.516v-20.036c0-5.183 2.475-10.133 6.621-13.243l68.712-51.537 34.514 25.887c12.175 9.132 19.443 23.669 19.443 38.889v20.039c0 .285-.231.516-.516.516h-16.032c-.285 0-.516-.231-.516-.516v-20.041c0-9.875-4.717-19.309-12.617-25.235l-18.635-13.977c-3.313-2.485-8.014-1.813-10.5 1.5-2.485 3.313-1.814 8.015 1.5 10.5l18.635 13.977c4.144 3.108 6.617 8.056 6.617 13.235v20.041c0 8.556 6.96 15.516 15.516 15.516h16.032c8.556 0 15.516-6.96 15.516-15.516v-20.039c0-19.916-9.512-38.939-25.443-50.889l-31.015-23.263 14.984-11.238c15.931-11.949 25.442-30.972 25.442-50.886v-12.538h16.548c2.727 0 5.238-1.479 6.56-3.864 1.321-2.385 1.245-5.299-.2-7.611zm-147.756 62.902c-12.174-9.131-19.442-23.668-19.442-38.886v-20.041c0-4.142-3.358-7.5-7.5-7.5h-10.517l26.549-42.478 26.549 42.478h-10.517c-4.142 0-7.5 3.358-7.5 7.5v20.036c0 9.878 4.718 19.314 12.621 25.242l22.46 16.846-14.22 10.666zm117.347-66.427c-4.142 0-7.5 3.358-7.5 7.5v20.041c0 15.218-7.268 29.755-19.442 38.886l-96.195 72.15c-7.903 5.927-12.621 15.363-12.621 25.242v20.036c0 .285-.231.516-.516.516h-16.033c-.285 0-.516-.231-.516-.516v-20.041c0-15.218 7.269-29.755 19.443-38.887l96.198-72.152c7.9-5.926 12.617-15.359 12.617-25.235v-20.04c0-4.142-3.358-7.5-7.5-7.5h-10.517l26.549-42.478 26.549 42.478z"/></g></g></svg>