<svg width="607px" height="493px" viewBox="0 0 607 493" version="1.1" xmlns="http://www.w3.org/2000/svg" xmlns:xlink="http://www.w3.org/1999/xlink"><title>Group</title><desc>Created with Sketch.</desc><g id="Page-1" stroke="none" stroke-width="1" fill="none" fill-rule="evenodd"><g id="weather_5" transform="translate(-53.000000, -104.000000)"><g id="Group" transform="translate(53.666000, 104.847000)"><path d="M304.325,361.077 L296.925,361.099 C204.694,361.099 138.911,349.127 83.605,322.265 C69.475,314.375 58.126,306.88 48.501,299.167 C19.181,275.673 4.237,248.477 0.051,210.984 L0,210.521 L0,210.054 C0.323,132.075 64.505,103.772 107.567,103.772 C119.788,103.772 131.003,105.898 139.99,109.925 C140.482,44.172 198.276,0 251.942,0 C296.383,0 333.668,28.292 354.247,77.618 C366.276,63.647 387.346,54.97 409.223,54.97 C431.722,54.97 452.554,63.927 466.38,79.546 C482.711,97.995 489.447,125.265 485.845,158.412 C499.325,152.032 513.836,148.658 527.808,148.658 C570.455,148.658 601.143,177.242 606.005,221.475 L606.059,221.996 L606.051,222.517 C605.267,261.919 585.449,293.329 547.149,315.875 C535.451,322.756 522.101,328.687 507.483,333.5 C447.177,352.237 403.377,361.138 317.246,361.138 C317.238,361.138 308.731,361.116 304.325,361.077" id="Fill-4" fill="#BFC5CC"></path><path d="M308.23,353.118 L300.646,353.141 C208.575,353.141 143.058,341.41 88.205,315.092 C74.84,307.699 63.575,300.376 54.175,292.927 C26.303,270.863 12.084,245.3 8.103,210.089 C8.406,137.831 68.55,111.732 109.014,111.732 C120.287,111.732 130.518,113.625 138.607,117.205 L149.698,122.115 L149.791,109.986 C150.254,48.956 204.637,7.96 255.141,7.96 C296.771,7.96 331.838,34.48 351.359,80.716 L356.313,92.466 L364.693,82.849 C375.398,70.566 394.424,62.931 414.334,62.931 C434.844,62.931 453.767,70.923 466.253,84.859 C481.234,101.574 487.361,126.71 483.972,157.54 L482.424,171.624 L495.26,165.622 C507.855,159.733 521.375,156.619 534.358,156.619 C573.247,156.619 601.15,182.403 605.59,222.353 C604.858,258.797 586.13,287.944 549.931,308.998 C538.572,315.598 525.573,321.297 511.322,325.93 C451.232,344.38 407.406,353.18 321.241,353.18 C321.233,353.18 312.665,353.157 308.23,353.118" id="Fill-5" fill="#DBE4EB"></path><path d="M182.425,155.171 C168.798,149.896 142.423,35.606 238.251,18.464 C334.078,1.32 347.266,108.136 340.232,127.918 C323.089,104.18 299.352,60.223 250.119,68.135 C209.888,74.601 192.095,109.455 182.425,155.171" id="Fill-6" fill="#D4DCE1"></path><path d="M348.145,137.588 C349.903,117.367 384.189,55.387 440.016,75.169 C495.842,94.949 479.138,160.446 478.698,163.523 C470.786,141.105 458.35,117.132 428.147,110.774 C386.388,101.983 348.145,137.588 348.145,137.588" id="Fill-7" fill="#D4DCE1"></path><path d="M172.314,154.732 C163.098,143.291 130.555,107.697 85.278,120.005 C40.002,132.313 20.222,164.842 18.463,199.569 C16.705,234.295 40.441,279.132 102.422,310.341 C156.154,337.398 232.976,353.42 354.738,348.145 C476.501,342.87 541.922,318.682 577.604,284.846 C603.099,260.67 603.099,231.218 603.099,219.349 C603.099,207.481 582.469,160.352 535.844,161.765 C521.337,162.204 505.952,166.16 499.798,174.952 C556.503,178.908 562.657,222.426 543.756,244.405 C524.855,266.384 470.057,289.664 353.42,287.924 C176.71,285.286 78.086,244.408 87.037,194.733 C95.828,145.94 147.258,146.38 172.314,154.732" id="Fill-8" fill="#D4DCE1"></path><path d="M545.855,267.134 C534.401,273.48 521.87,278.568 508.996,282.554 C449.457,299.98 407.238,307.463 320.252,306.679 C320.163,306.679 320.024,306.679 319.91,306.679 C232.796,307.204 169.179,297.41 115.196,272.725 C102.957,266.284 92.066,259.679 82.583,252.517 C56.948,233.173 41.573,209.808 37.53,175.018 C37.519,174.912 37.53,174.809 37.53,174.705 C37.53,173.739 37.603,172.824 37.627,171.875 C30.607,184.034 26.3751111,198.757 26.3751111,216.273 C26.3751111,216.376 26.369,216.475 26.3751111,216.578 C30.422,250.516 45.798,273.308 71.432,292.178 C80.916,299.166 91.806,305.608 104.045,311.891 C158.028,335.97 221.646,345.525 308.76,345.013 C308.874,345.013 309.013,345.013 309.102,345.013 C396.088,345.777 438.307,338.478 497.846,321.479 C510.72,317.591 523.251,312.629 534.705,306.437 C565.658,289.7 588.734,264.007 589.426,226.475 C579.629,243.627 564.141,256.998 545.855,267.134" id="Fill-9" fill="#BFC5CC"></path><path d="M309.462,320.891 C202.206,317.814 146.819,301.11 133.192,300.231 C119.565,299.352 161.765,339.794 314.297,338.914 C466.83,338.035 494.698,306.729 488.809,307.264 C483.974,307.704 373.175,322.719 309.462,320.891" id="Fill-10" fill="#ABADB6"></path><path d="M349.903,189.458 C280.474,189.458 209.922,203.74 209.677449,229.46 C209.435,255.179 289.592,259.913 345.507,259.791 C401.422,259.668 491.575,255.589 486.171,229.46 C479.116,195.345 420.675,189.458 349.903,189.458" id="Fill-11" fill="#E0EAF2"></path><path d="M22.354,256.75 C17.71,249.958 14.169,242.409 11.326,234.608 C8.406,226.809 6.758,218.598 5.464,210.388 L5.455,210.332 L5.447,210.077 C4.934,193.904 7.687,177.216 15.014,162.284 C22.393,147.396 34.163,134.861 48.037,125.982 C61.981,117.162 77.937,111.964 94.082,110.247 C110.114,108.594 127.157,110.16 141.081,118.3 C126.144,112.504 110.021,112.947 94.816,115.421 C79.614,118.357 64.917,123.964 52.204,132.41 C39.546,140.906 28.913,152.275 21.862,165.739 C14.872,179.262 11.58,194.575 10.759,210.099 L10.742,209.791 C11.299,217.844 12.692,225.786 14.431,233.687 C16.235,241.582 18.989,249.257 22.354,256.75" id="Fill-12" fill="#FFFFFF"></path><path d="M478.468,171.624 C483.485,168.323 488.544,165.415 493.808,162.39 C499.168,159.592 504.854,157.328 510.758,155.735 C522.555,152.411 535.225,151.97 547.438,154.356 C559.605,156.897 571.328,162.634 580.128,171.462 C589.164,180.045 594.837,191.492 597.339,203.1 C591.889,192.498 584.829,183.127 575.995,176.101 C567.223,169.021 556.814,164.335 545.838,162.15 C534.855,159.864 523.372,159.872 512.1,161.777 C500.771,163.495 489.894,168.001 478.468,171.624" id="Fill-13" fill="#FFFFFF"></path><path d="M354.554,93.785 C357.397,89.233 360.309,85.062 363.593,80.627 C367.142,76.445 371.437,72.872 376.146,70.015 C385.57,64.234 396.485,61.239 407.451,60.45 C418.433,59.837 429.629,61.496 439.693,65.926 C449.78,70.205 458.631,77.324 464.494,86.178 C448.073,72.771 427.85,67.086 407.948,68.391 C398.019,68.963 388.154,71.313 379.08,75.464 C374.58,77.604 370.237,80.159 366.339,83.367 C362.422,86.558 358.669,90.495 354.554,93.785" id="Fill-14" fill="#FFFFFF"></path><path d="M150.231,110.866 C148.872,92.657 153.313,73.759 162.778,57.571 C172.298,41.404 186.403,27.961 202.919,18.957 C219.334,9.803 238.286,5.041 257.067,5.804 C266.432,6.306 275.709,8.127 284.435,11.333 C293.066,14.772 301.23,19.284 308.227,25.174 C292.35,16.214 274.6,11.469 256.976,11.928 C239.433,12.63 222.011,17.231 206.757,25.927 C191.238,34.178 178.073,46.42 167.937,60.82 C163.13,68.174 158.786,76.018 156.135,84.537 C152.766,92.874 151.551,101.825 150.231,110.866" id="Fill-15" fill="#FFFFFF"></path><polyline id="Fill-16" fill="#F5EEA2" points="132.258 328.875 145.362 330.122 122.465 340.299 109.36 339.06 132.258 328.875"></polyline><polyline id="Fill-17" fill="#F5EEA2" points="130.164 377.048 143.268 378.287 117.907 386.78 104.803 385.533 130.164 377.048"></polyline><polyline id="Fill-18" fill="#EAB12F" points="177.96 349.716 191.064 350.955 109.961 461.062 96.873 459.822 177.96 349.716"></polyline><polyline id="Fill-19" fill="#EAB12F" points="190.433 293.966 203.538 295.206 161.561 360.918 148.457 359.678 190.433 293.966"></polyline><polyline id="Fill-20" fill="#EAB12F" points="202.567 237.373 215.671 238.616 166.257 311.843 153.153 310.604 202.567 237.373"></polyline><polyline id="Fill-21" fill="#F9DB5A" points="153.153 310.604 190.433 293.966 148.457 359.678 177.96 349.716 96.873 459.822 130.164 377.048 104.803 385.533 132.258 328.875 109.36 339.06 136.77 274.626 202.567 237.373 153.153 310.604"></polyline><polyline id="Fill-22" fill="#F8CD3A" points="115.626 434.358 141.96 368.882 116.599 377.366 144.054 320.708 121.156 330.894 147.732 268.419 136.77 274.626 109.36 339.06 132.258 328.875 104.803 385.533 130.164 377.048 96.873 459.822 115.626 434.358"></polyline><path d="M280.014,284.924 C270.983,281.428 253.502,205.68 317.015,194.319 C380.526,182.956 389.266,253.752 384.605,266.862 C373.242,251.13 357.51,221.996 324.881,227.24 C298.216,231.525 286.424,254.626 280.014,284.924" id="Fill-25" fill="#C4CCD1"></path><path d="M389.849,273.271 C391.014,259.87 413.738,218.791 450.738,231.901 C487.738,245.011 476.668,288.421 476.376,290.46 C471.132,275.602 462.89,259.714 442.872,255.5 C415.195,249.673 389.849,273.271 389.849,273.271" id="Fill-26" fill="#C4CCD1"></path><path d="M391.014,307.649 C344.998,307.649 298.238,317.115 298.076635,334.161 C297.916,351.207 351.042,354.344 388.101,354.263 C425.159,354.181 484.91,351.478 481.329,334.161 C476.653,311.551 437.92,307.649 391.014,307.649" id="Fill-30" fill="#D1DAE2"></path><path d="M173.924,352.248 C170.846,347.747 168.499,342.744 166.615,337.573 C164.68,332.404 163.588,326.962 162.73,321.52 L162.724,321.484 L162.719,321.314 C162.378,310.595 164.203,299.535 169.059,289.639 C173.95,279.771 181.751,271.464 190.946,265.579 C200.188,259.733 210.763,256.288 221.463,255.15 C232.089,254.054 243.385,255.092 252.613,260.488 C242.713,256.645 232.027,256.94 221.95,258.579 C211.875,260.525 202.134,264.241 193.708,269.839 C185.318,275.47 178.271,283.005 173.598,291.928 C168.965,300.891 166.783,311.041 166.239,321.329 L166.228,321.125 C166.597,326.463 167.521,331.726 168.673,336.963 C169.869,342.195 171.694,347.281 173.924,352.248" id="Fill-31" fill="#FFFFFF"></path><path d="M476.224,295.829 C479.549,293.641 482.901,291.714 486.39,289.71 C489.942,287.855 493.711,286.354 497.624,285.299 C505.442,283.095 513.84,282.803 521.935,284.384 C529.998,286.068 537.769,289.871 543.601,295.722 C549.59,301.41 553.349,308.997 555.008,316.69 C551.396,309.664 546.717,303.453 540.861,298.796 C535.047,294.103 528.148,290.998 520.874,289.549 C513.595,288.035 505.984,288.04 498.513,289.302 C491.005,290.441 483.796,293.428 476.224,295.829" id="Fill-32" fill="#FFFFFF"></path><path d="M394.097,244.24 C395.98,241.222 397.911,238.458 400.087,235.519 C402.439,232.747 405.286,230.379 408.407,228.486 C414.653,224.654 421.888,222.669 429.155,222.146 C436.434,221.74 443.855,222.84 450.524,225.776 C457.21,228.611 463.075,233.33 466.962,239.198 C456.078,230.312 442.675,226.545 429.484,227.409 C422.903,227.788 416.366,229.346 410.352,232.097 C407.369,233.515 404.491,235.209 401.907,237.335 C399.312,239.45 396.824,242.059 394.097,244.24" id="Fill-33" fill="#FFFFFF"></path><path d="M258.677,255.56 C257.776,243.492 260.72,230.967 266.994,220.238 C273.303,209.524 282.651,200.613 293.598,194.646 C304.477,188.579 317.037,185.423 329.485,185.929 C335.692,186.261 341.841,187.468 347.623,189.592 C353.345,191.872 358.756,194.862 363.392,198.766 C352.869,192.827 341.105,189.683 329.425,189.987 C317.798,190.453 306.251,193.502 296.141,199.265 C285.855,204.734 277.13,212.847 270.413,222.391 C267.227,227.265 264.348,232.464 262.59,238.11 C260.357,243.635 259.552,249.568 258.677,255.56" id="Fill-34" fill="#FFFFFF"></path><polyline id="Fill-39" fill="#EAB12F" points="413.685 267.619 426.789 268.862 377.375 342.09 364.272 340.85 413.685 267.619"></polyline><circle id="Oval-Copy" fill="#000000" cx="220.334" cy="199.153" r="33"></circle><circle id="Oval-Copy-2" fill="#000000" cx="314.334" cy="198.153" r="33"></circle><ellipse id="Oval-Copy-3" fill="#000000" cx="403.834" cy="198.153" rx="32.5" ry="33"></ellipse><path d="M360.807,421.392 L355.901,421.408 C294.774,421.408 251.175,413.472 214.52,395.67 C205.154,390.44 197.632,385.472 191.254,380.361 C171.821,364.79 161.917,346.764 159.142,321.916 L159.109,321.609 L159.109,321.299 C159.323,269.617 201.86,250.858 230.401,250.858 C238.501,250.858 245.934,252.268 251.89,254.937 C252.216,211.357 290.521,182.082 326.089,182.082 C355.543,182.082 380.255,200.833 393.894,233.525 C401.865,224.265 415.83,218.514 430.329,218.514 C445.241,218.514 459.048,224.45 468.212,234.802 C479.035,247.03 483.5,265.103 481.112,287.072 C490.047,282.844 499.664,280.608 508.925,280.608 C537.189,280.608 557.528,299.552 560.751,328.869 L560.786,329.215 L560.781,329.559 C560.262,355.674 547.127,376.491 521.743,391.434 C513.99,395.995 505.142,399.926 495.454,403.116 C455.484,415.534 426.455,421.434 369.37,421.434 C369.365,421.434 363.727,421.419 360.807,421.392" id="Fill-23" fill="#B0B5BC"></path><path d="M363.395,416.118 L358.368,416.133 C297.346,416.133 253.923,408.358 217.568,390.916 C208.71,386.015 201.244,381.162 195.014,376.225 C176.542,361.601 167.117,344.66 164.479,321.322 C164.68,273.432 204.542,256.134 231.359,256.134 C238.831,256.134 245.612,257.389 250.974,259.762 L258.324,263.016 L258.386,254.977 C258.692,214.528 294.736,187.358 328.209,187.358 C355.8,187.358 379.041,204.934 391.98,235.577 L395.262,243.366 L400.816,236.992 C407.912,228.85 420.521,223.79 433.718,223.79 C447.311,223.79 459.853,229.087 468.128,238.324 C478.057,249.402 482.117,266.061 479.871,286.495 L478.845,295.829 L487.353,291.851 C495.7,287.948 504.661,285.884 513.266,285.884 C539.04,285.884 557.533,302.973 560.476,329.451 C559.991,353.604 547.578,372.923 523.587,386.877 C516.059,391.251 507.443,395.028 497.998,398.098 C458.172,410.327 429.126,416.16 372.018,416.16 C372.013,416.16 366.334,416.144 363.395,416.118" id="Fill-24" fill="#CCD4DB"></path><path d="M273.313,284.633 C267.206,277.05 245.636,253.461 215.628,261.618 C185.621,269.775 172.511,291.334 171.345,314.35 C170.18,337.365 185.912,367.082 226.991,387.767 C262.603,405.699 313.519,416.318 394.219,412.822 C474.919,409.326 518.278,393.295 541.927,370.869 C558.825,354.845 558.825,335.326 558.825,327.46 C558.825,319.593 545.152,288.358 514.25,289.295 C504.636,289.586 494.439,292.208 490.36,298.035 C527.943,300.657 532.022,329.5 519.494,344.066 C506.967,358.633 470.648,374.062 393.345,372.909 C276.227,371.161 210.862,344.068 216.794,311.145 C222.621,278.806 256.707,279.098 273.313,284.633" id="Fill-27" fill="#C4CCD1"></path><path d="M520.886,359.131 C513.294,363.336 504.989,366.709 496.456,369.35 C456.996,380.9 429.015,385.859 371.362,385.34 C371.304,385.34 371.211,385.34 371.136,385.34 C313.399,385.687 271.235,379.196 235.457,362.836 C227.345,358.567 220.127,354.19 213.842,349.442 C196.852,336.622 186.662,321.136 183.982,298.078 C183.976,298.008 183.982,297.94 183.982,297.871 C183.982,297.231 184.03,296.625 184.046,295.996 C179.395,304.053 176.589444,313.811 176.589444,325.422 C176.589444,325.489 176.585,325.555 176.589444,325.624 C179.272,348.117 189.462,363.222 206.452,375.729 C212.737,380.36 219.955,384.63 228.066,388.795 C263.845,404.754 306.009,411.086 363.745,410.747 C363.821,410.747 363.913,410.747 363.972,410.747 C421.624,411.253 449.605,406.416 489.066,395.149 C497.599,392.572 505.904,389.282 513.496,385.179 C534.01,374.086 549.304,357.058 549.763,332.182 C543.27,343.55 533.004,352.413 520.886,359.131" id="Fill-28" fill="#B0B5BC"></path><path d="M364.211,394.758 C293.125,392.719 256.416,381.649 247.384,381.066 C238.353,380.483 266.321,407.287 367.416,406.704 C468.51,406.122 486.98,385.373 483.077,385.727 C479.872,386.019 406.438,395.97 364.211,394.758" id="Fill-29" fill="#9C9DA6"></path><polyline id="Fill-35" fill="#F5EEA2" points="343.375 359.121 356.48 360.368 333.583 370.546 320.479 369.306 343.375 359.121"></polyline><polyline id="Fill-36" fill="#F5EEA2" points="341.281 407.294 354.386 408.533 329.024 417.026 315.921 415.779 341.281 407.294"></polyline><polyline id="Fill-37" fill="#EAB12F" points="389.078 379.962 402.182 381.201 321.079 491.308 307.99 490.068 389.078 379.962"></polyline><circle id="Oval-Copy" fill="#000000" cx="288.334" cy="322.153" r="23"></circle><circle id="Oval-Copy-2" fill="#000000" cx="354.334" cy="321.153" r="23"></circle><circle id="Oval-Copy-3" fill="#000000" cx="417.334" cy="321.153" r="23"></circle><polyline id="Fill-38" fill="#EAB12F" points="401.551 324.212 414.655 325.452 372.679 391.164 359.575 389.924 401.551 324.212"></polyline><polyline id="Fill-40" fill="#F9DB5A" points="364.272 340.85 401.551 324.212 359.575 389.924 389.078 379.962 307.99 490.068 341.281 407.294 315.921 415.779 343.375 359.121 320.479 369.306 347.888 304.872 413.685 267.619 364.272 340.85"></polyline><polyline id="Fill-41" fill="#F8CD3A" points="326.743 464.604 353.077 399.128 327.717 407.612 355.172 350.954 332.274 361.14 358.85 298.665 347.888 304.872 320.479 369.306 343.375 359.121 315.921 415.779 341.281 407.294 307.99 490.068 326.743 464.604"></polyline></g></g></g></svg>