<?xml version="1.0" encoding="iso-8859-1"?>
<!-- Generator: Adobe Illustrator 19.0.0, SVG Export Plug-In . SVG Version: 6.00 Build 0)  -->
<svg xmlns="http://www.w3.org/2000/svg" xmlns:xlink="http://www.w3.org/1999/xlink" version="1.1" id="Layer_1" x="0px" y="0px" viewBox="0 0 502.909 502.909" style="enable-background:new 0 0 502.909 502.909;" xml:space="preserve" width="512" height="512">
<g>
	<g>
		<circle style="fill:#60BEC8;" cx="251.455" cy="240.517" r="51.953"/>
		<g>
			<g>
				<path style="fill:#F9DDB4;" d="M315.214,366.029c-5.96,10.755-5.968,34.871-5.968,35.009c0,0-0.44,92.986-67.594,92.986      c-25.099,0-60.453,0-60.453,0c-49.559,0-77.556-50.724-77.556-94.375v-46.808c0-5.598,2.268-10.678,5.943-14.352      c3.674-3.666,8.746-5.943,14.352-5.943c11.212,0,20.303,9.091,20.303,20.295v-20.295c0-5.606,2.268-10.678,5.943-14.352      s8.746-5.943,14.352-5.943c5.598,0,10.678,2.268,14.352,5.943c3.666,3.674,5.943,8.746,5.943,14.352v-5.175      c0-5.606,2.268-10.678,5.943-14.352s8.746-5.943,14.352-5.943c11.204,0,20.295,9.091,20.295,20.295v-71.855      c0.009-11.195,9.091-20.277,20.295-20.277c5.598,0,10.669,2.268,14.343,5.951c3.674,3.674,5.951,8.746,5.951,14.343v108.873      c0,0,0.949-6.909,8.685-20.855c6.201-11.195,20.303-15.232,31.498-9.022C317.388,340.74,321.424,354.842,315.214,366.029z"/>
				<path style="fill:#E0C096;" d="M193.851,494.023c-7.616,0-12.653,0-12.653,0c-49.559,0-77.556-50.724-77.556-94.375v-46.808      c0-5.598,2.268-10.678,5.943-14.352c3.674-3.666,8.746-5.943,14.352-5.943c2.208,0,4.338,0.354,6.331,1.009      c-3.062,1-5.805,2.708-8.03,4.933c-3.674,3.674-5.943,8.754-5.943,14.352v46.808C116.295,443.3,144.292,494.023,193.851,494.023      z"/>
				<path style="fill:#E0C096;" d="M150.566,363.442c-3.494,0-6.326-2.832-6.326-6.326v-24.568c0-5.598,2.268-10.678,5.943-14.352      c3.674-3.666,8.746-5.943,14.352-5.943c2.208,0,4.338,0.354,6.331,1.009c-3.062,1-5.805,2.708-8.03,4.933      c-3.674,3.674-5.943,8.754-5.943,14.352v24.568C156.893,360.609,154.06,363.442,150.566,363.442L150.566,363.442z"/>
				<path style="fill:#E0C096;" d="M191.156,362.58c-3.494,0-6.326-2.832-6.326-6.326v-28.88c0-5.598,2.268-10.678,5.943-14.352      c3.674-3.666,8.746-5.943,14.352-5.943c2.208,0,4.338,0.354,6.331,1.009c-3.062,1-5.805,2.708-8.03,4.933      c-3.674,3.674-5.943,8.754-5.943,14.352v28.88C197.482,359.747,194.65,362.58,191.156,362.58L191.156,362.58z"/>
				<path style="fill:#E0C096;" d="M231.745,361.554c-3.494,0-6.326-2.832-6.326-6.326v-99.709c0-5.598,2.268-10.678,5.943-14.352      c3.674-3.666,8.746-5.943,14.352-5.943c2.208,0,4.338,0.354,6.331,1.009c-3.062,1-5.805,2.708-8.03,4.933      c-3.674,3.674-5.943,8.754-5.943,14.352v99.709C238.071,358.722,235.239,361.554,231.745,361.554L231.745,361.554z"/>
			</g>
			<path style="fill:#E0C096;" d="M306.192,334.53c-17.417-4.792-27.101,27.289-28.115,60.433c-0.099,3.239-2.694,5.841-5.934,5.895     l0,0c-3.372,0.056-6.135-2.662-6.135-6.035v-30.417c0,0,0.949-6.909,8.685-20.855C280.895,332.357,294.997,328.32,306.192,334.53     z"/>
		</g>
		<circle style="fill:#EFCF4A;" cx="251.455" cy="60.841" r="51.953"/>
		<circle style="fill:#40D39B;" cx="59.454" cy="60.841" r="51.953"/>
		<circle style="fill:#FC6947;" cx="443.456" cy="60.841" r="51.953"/>
	</g>
	<g>
		<path d="M309.833,327.974c-8.46-4.695-18.395-5.149-27.256-1.247c-3.791,1.669-5.511,6.096-3.842,9.886    c1.669,3.792,6.095,5.511,9.887,3.841c4.532-1.996,9.609-1.764,13.934,0.635c3.662,2.032,6.313,5.367,7.465,9.391    c1.152,4.023,0.669,8.253-1.363,11.914c-6.728,12.135-6.908,35.972-6.906,38.604c-0.001,0.223-0.239,22.52-8.278,44.277    c-10.111,27.369-27.546,41.246-51.817,41.246h-60.45c-12.868,0-44.691-4.629-62.214-47.503c-1.566-3.833-5.942-5.673-9.779-4.105    c-3.835,1.567-5.673,5.945-4.105,9.78c14.543,35.584,42.991,56.828,76.099,56.828h60.45c30.886,0,53.716-17.778,66.022-51.413    c8.854-24.198,9.068-48.029,9.073-49.072c-0.005-8.614,1.354-24.748,5.023-31.365c3.976-7.163,4.922-15.445,2.667-23.32    C322.186,338.475,316.998,331.948,309.833,327.974z"/>
		<path d="M107.233,428.278c4.063-0.805,6.704-4.751,5.899-8.814c-1.316-6.642-1.983-13.307-1.983-19.811v-46.809    c0-7.055,5.74-12.795,12.795-12.795s12.795,5.74,12.795,12.795v10.598c0,4.142,3.357,7.5,7.5,7.5s7.5-3.358,7.5-7.5v-10.598    v-20.295c0-7.055,5.74-12.795,12.795-12.795s12.795,5.74,12.795,12.795v22.397c0,4.142,3.357,7.5,7.5,7.5s7.5-3.358,7.5-7.5    v-22.397v-5.175c0-7.055,5.74-12.795,12.795-12.795c7.056,0,12.796,5.74,12.796,12.795v34.179c0,4.142,3.357,7.5,7.5,7.5    s7.5-3.358,7.5-7.5v-34.179v-71.849c0.005-7.049,5.744-12.785,12.793-12.785c3.415,0,6.628,1.332,9.045,3.748    c2.418,2.418,3.749,5.63,3.749,9.046v108.873v36.551c0,4.142,3.357,7.5,7.5,7.5s7.5-3.358,7.5-7.5v-36.551V255.535    c0-7.421-2.892-14.401-8.143-19.652c-5.251-5.25-12.229-8.142-19.651-8.142c-15.314,0-27.782,12.459-27.793,27.779v47.184    c-3.832-1.995-8.185-3.124-12.796-3.124c-9.348,0-17.633,4.639-22.674,11.735c-4.842-4.091-11.096-6.56-17.916-6.56    c-13.896,0-25.443,10.25-27.477,23.587c-3.909-2.1-8.374-3.292-13.113-3.292c-15.326,0-27.795,12.469-27.795,27.795v46.809    c0,7.48,0.764,15.127,2.269,22.726c0.708,3.571,3.842,6.044,7.35,6.044C106.251,428.423,106.741,428.376,107.233,428.278z"/>
		<path d="M280.182,274.443c-3.16,2.679-3.55,7.411-0.871,10.571c1.483,1.75,3.597,2.65,5.725,2.65c1.714,0,3.437-0.584,4.846-1.779    c13.363-11.328,21.027-27.864,21.027-45.368c0-32.783-26.671-59.454-59.453-59.454s-59.453,26.671-59.453,59.454    c0,11.19,3.128,22.096,9.045,31.538c2.201,3.509,6.828,4.571,10.338,2.372c3.51-2.2,4.572-6.828,2.373-10.338    c-4.42-7.052-6.756-15.203-6.756-23.572c0-24.512,19.941-44.454,44.453-44.454s44.453,19.942,44.453,44.454    C295.908,253.606,290.176,265.971,280.182,274.443z"/>
		<path d="M251.455,120.295c32.782,0,59.453-26.671,59.453-59.454c0-32.783-26.671-59.453-59.453-59.453    s-59.453,26.671-59.453,59.453C192.002,93.624,218.673,120.295,251.455,120.295z M251.455,16.388    c24.512,0,44.453,19.942,44.453,44.453s-19.941,44.454-44.453,44.454s-44.453-19.942-44.453-44.454S226.943,16.388,251.455,16.388    z"/>
		<path d="M118.907,60.841c0-32.783-26.671-59.453-59.453-59.453C26.671,1.388,0,28.059,0,60.841    c0,32.783,26.671,59.454,59.454,59.454C92.236,120.295,118.907,93.624,118.907,60.841z M59.454,105.295    C34.942,105.295,15,85.353,15,60.841s19.942-44.453,44.454-44.453s44.453,19.942,44.453,44.453S83.966,105.295,59.454,105.295z"/>
		<path d="M443.456,1.388c-32.782,0-59.453,26.671-59.453,59.453c0,32.783,26.671,59.454,59.453,59.454    c9.361,0,18.69-2.234,26.979-6.461c3.69-1.882,5.156-6.399,3.274-10.089c-1.884-3.69-6.4-5.156-10.089-3.274    c-6.276,3.201-13.061,4.824-20.164,4.824c-24.512,0-44.453-19.942-44.453-44.454s19.941-44.453,44.453-44.453    s44.453,19.942,44.453,44.453c0,9.731-3.084,18.969-8.919,26.716c-2.492,3.308-1.831,8.011,1.478,10.503    c3.31,2.493,8.013,1.83,10.503-1.478c7.811-10.368,11.938-22.727,11.938-35.741C502.909,28.059,476.238,1.388,443.456,1.388z"/>
		<path d="M380.366,108.033l-81.643,74.19c-3.065,2.786-3.292,7.529-0.507,10.595c1.48,1.629,3.513,2.456,5.553,2.456    c1.8,0,3.605-0.644,5.042-1.949l81.643-74.19c3.065-2.786,3.292-7.529,0.507-10.594    C388.175,105.474,383.432,105.247,380.366,108.033z"/>
		<path d="M197.418,183.489l-79.234-76.419c-2.981-2.875-7.729-2.79-10.605,0.192c-2.875,2.981-2.789,7.729,0.191,10.605    l79.234,76.42c1.456,1.404,3.332,2.102,5.206,2.102c1.965,0,3.928-0.768,5.399-2.293    C200.484,191.113,200.398,186.365,197.418,183.489z"/>
		<path d="M258.955,165.555v-28.333c0-4.142-3.357-7.5-7.5-7.5s-7.5,3.358-7.5,7.5v28.333c0,4.142,3.357,7.5,7.5,7.5    S258.955,169.697,258.955,165.555z"/>
	</g>
</g>















</svg>
