<?xml version="1.0" encoding="UTF-8"?>
<svg width="707px" height="614px" viewBox="0 0 707 614" version="1.1" xmlns="http://www.w3.org/2000/svg" xmlns:xlink="http://www.w3.org/1999/xlink">
    <!-- Generator: Sketch 55.2 (78181) - https://sketchapp.com -->
    <title>Group 2</title>
    <desc>Created with Sketch.</desc>
    <g id="Page-1" stroke="none" stroke-width="1" fill="none" fill-rule="evenodd">
        <g id="Group-2" fill-rule="nonzero">
            <g id="holy-grail">
                <path d="M174.355469,265.023438 C174.355469,265.023438 38.085938,226.746094 38.085938,67.675781 L211.144531,37.585938 L384.199219,67.675781 C384.199219,226.746094 247.929688,265.023438 247.929688,265.023438 L211.144531,287.921875 L174.355469,265.023438 Z" id="Path" fill="#F9ED80"></path>
                <path d="M204.355469,265.023438 C204.355469,265.023438 68.085938,226.746094 68.085938,67.675781 L226.144531,40.195312 L211.144531,37.585938 L38.085938,67.675781 C38.085938,226.746094 174.355469,265.023438 174.355469,265.023438 L211.144531,287.921875 L226.144531,278.585938 L204.355469,265.023438 Z" id="Path" fill="#FAB659"></path>
                <path d="M211.144531,287.921875 L247.929688,310.820312 C247.929688,310.820312 252.496094,396.800781 321.148438,444.324219 L211.144531,474.414062 L101.140625,444.324219 C169.789062,396.800781 174.355469,310.820312 174.355469,310.820312 L211.144531,287.921875 Z" id="Path" fill="#F9ED80"></path>
                <path d="M131.140625,444.324219 C199.792969,396.800781 204.355469,310.824219 204.355469,310.824219 L226.144531,297.261719 L211.144531,287.921875 L174.355469,310.820312 C174.355469,310.820312 169.792969,396.800781 101.140625,444.324219 L211.144531,474.414062 L226.144531,470.308594 L131.140625,444.324219 Z" id="Path" fill="#FAB659"></path>
                <path d="M384.199219,7.5 L38.085938,7.5 C21.46875,7.5 8,20.96875 8,37.585938 C8,54.203125 21.46875,67.675781 38.085938,67.675781 L384.199219,67.675781 C400.816406,67.675781 414.289062,54.203125 414.289062,37.585938 C414.289062,20.972656 400.816406,7.5 384.199219,7.5 Z" id="Path" fill="#FAB659"></path>
                <path d="M38,37.585938 C38,20.96875 51.46875,7.5 68.085938,7.5 L38.085938,7.5 C21.46875,7.5 8,20.972656 8,37.585938 C8,54.203125 21.46875,67.675781 38.085938,67.675781 L68.085938,67.675781 C51.46875,67.675781 38,54.203125 38,37.585938 Z" id="Path" fill="#EC8D00"></path>
                <path d="M321.148438,444.324219 L101.140625,444.324219 C84.523438,444.324219 71.054688,457.796875 71.054688,474.414062 C71.054688,491.03125 84.523438,504.5 101.140625,504.5 L321.148438,504.5 C337.761719,504.5 351.234375,491.03125 351.234375,474.414062 C351.234375,457.796875 337.761719,444.324219 321.148438,444.324219 Z" id="Path" fill="#FAB659"></path>
                <path d="M101.054688,474.414062 C101.054688,457.796875 114.523438,444.324219 131.140625,444.324219 L101.140625,444.324219 C84.523438,444.324219 71.054688,457.796875 71.054688,474.414062 C71.054688,491.03125 84.523438,504.5 101.140625,504.5 L131.140625,504.5 C114.523438,504.5 101.054688,491.03125 101.054688,474.414062 Z" id="Path" fill="#EC8D00"></path>
                <path d="M247.929688,265.023438 L174.355469,265.023438 C161.707031,265.023438 151.457031,275.277344 151.457031,287.925781 C151.457031,300.570312 161.707031,310.824219 174.355469,310.824219 L247.929688,310.824219 C260.578125,310.824219 270.828125,300.570312 270.828125,287.925781 C270.828125,275.277344 260.578125,265.023438 247.929688,265.023438 Z" id="Path" fill="#FAB659"></path>
                <path d="M181.457031,287.921875 C181.457031,275.277344 191.710938,265.023438 204.355469,265.023438 L174.355469,265.023438 C161.710938,265.023438 151.457031,275.277344 151.457031,287.921875 C151.457031,300.570312 161.710938,310.820312 174.355469,310.820312 L204.355469,310.820312 C191.710938,310.820312 181.457031,300.570312 181.457031,287.921875 Z" id="Path" fill="#EC8D00"></path>
                <g id="Group" transform="translate(90.000000, 96.000000)" fill="#FD5F7E">
                    <path d="M121.144531,0.1875 C112.726562,0.1875 105.90625,7.007812 105.90625,15.425781 L105.90625,31.1875 C105.90625,39.605469 112.726562,46.425781 121.144531,46.425781 C129.558594,46.425781 136.382812,39.605469 136.382812,31.1875 L136.382812,15.425781 C136.382812,7.007812 129.558594,0.1875 121.144531,0.1875 Z" id="Path"></path>
                    <path d="M15.871094,0.1875 C7.453125,0.1875 0.632812,7.007812 0.632812,15.425781 L0.632812,31.1875 C0.632812,39.605469 7.453125,46.425781 15.871094,46.425781 C24.285156,46.425781 31.109375,39.605469 31.109375,31.1875 L31.109375,15.425781 C31.109375,7.007812 24.285156,0.1875 15.871094,0.1875 Z" id="Path"></path>
                    <path d="M226.417969,0.1875 C234.832031,0.1875 241.65625,7.007812 241.65625,15.425781 L241.65625,31.1875 C241.65625,39.605469 234.832031,46.425781 226.417969,46.425781 C218,46.425781 211.179688,39.605469 211.179688,31.1875 L211.179688,15.425781 C211.179688,7.007812 218,0.1875 226.417969,0.1875 L226.417969,0.1875 Z" id="Path"></path>
                </g>
                <path d="M148.089844,192.425781 L148.089844,179.652344 C148.089844,175.511719 144.730469,172.152344 140.589844,172.152344 C136.445312,172.152344 133.089844,175.511719 133.089844,179.652344 L133.089844,192.425781 C133.089844,196.566406 136.445312,199.925781 140.589844,199.925781 C144.730469,199.925781 148.089844,196.566406 148.089844,192.425781 Z" id="Path" fill="#000000"></path>
                <path d="M289.199219,192.425781 L289.199219,179.652344 C289.199219,175.511719 285.839844,172.152344 281.699219,172.152344 C277.554688,172.152344 274.199219,175.511719 274.199219,179.652344 L274.199219,192.425781 C274.199219,196.566406 277.554688,199.925781 281.699219,199.925781 C285.839844,199.925781 289.199219,196.566406 289.199219,192.425781 Z" id="Path" fill="#000000"></path>
                <path d="M188.082031,196.472656 C193.785156,202.996094 202.191406,206.738281 211.144531,206.738281 C220.09375,206.738281 228.5,202.996094 234.203125,196.472656 C236.929688,193.351562 236.613281,188.617188 233.496094,185.890625 C230.375,183.164062 225.636719,183.480469 222.910156,186.597656 C220.054688,189.867188 215.765625,191.738281 211.144531,191.738281 C206.519531,191.738281 202.230469,189.867188 199.375,186.601562 C196.648438,183.480469 191.910156,183.164062 188.792969,185.890625 C185.675781,188.613281 185.355469,193.351562 188.082031,196.472656 Z" id="Path" fill="#000000"></path>
                <path d="M211.144531,149.925781 C223.679688,149.925781 233.882812,139.726562 233.882812,127.1875 L233.882812,111.425781 C233.882812,98.886719 223.679688,88.6875 211.144531,88.6875 C198.605469,88.6875 188.40625,98.886719 188.40625,111.425781 L188.40625,127.1875 C188.40625,139.726562 198.605469,149.925781 211.144531,149.925781 Z M203.40625,111.425781 C203.40625,107.15625 206.875,103.6875 211.144531,103.6875 C215.410156,103.6875 218.882812,107.15625 218.882812,111.425781 L218.882812,127.1875 C218.882812,131.453125 215.410156,134.925781 211.144531,134.925781 C206.875,134.925781 203.40625,131.453125 203.40625,127.1875 L203.40625,111.425781 Z" id="Shape" fill="#000000"></path>
                <path d="M128.609375,127.1875 L128.609375,111.425781 C128.609375,98.886719 118.40625,88.6875 105.871094,88.6875 C93.332031,88.6875 83.132812,98.886719 83.132812,111.425781 L83.132812,127.1875 C83.132812,139.726562 93.332031,149.925781 105.871094,149.925781 C118.40625,149.925781 128.609375,139.726562 128.609375,127.1875 Z M98.132812,127.1875 L98.132812,111.425781 C98.132812,107.15625 101.601562,103.6875 105.871094,103.6875 C110.136719,103.6875 113.609375,107.15625 113.609375,111.425781 L113.609375,127.1875 C113.609375,131.453125 110.136719,134.925781 105.871094,134.925781 C101.601562,134.925781 98.132812,131.453125 98.132812,127.1875 Z" id="Shape" fill="#000000"></path>
                <path d="M339.15625,127.1875 L339.15625,111.425781 C339.15625,98.886719 328.957031,88.6875 316.417969,88.6875 C303.878906,88.6875 293.679688,98.886719 293.679688,111.425781 L293.679688,127.1875 C293.679688,139.726562 303.878906,149.925781 316.417969,149.925781 C328.957031,149.925781 339.15625,139.726562 339.15625,127.1875 Z M308.679688,127.1875 L308.679688,111.425781 C308.679688,107.15625 312.152344,103.6875 316.417969,103.6875 C320.683594,103.6875 324.15625,107.15625 324.15625,111.425781 L324.15625,127.1875 C324.15625,131.453125 320.683594,134.925781 316.417969,134.925781 C312.152344,134.925781 308.679688,131.453125 308.679688,127.1875 Z" id="Shape" fill="#000000"></path>
                <path d="M369.636719,168.929688 C383.390625,140.984375 390.773438,109.222656 391.617188,74.4375 C408.800781,70.984375 421.789062,55.773438 421.789062,37.585938 C421.789062,16.859375 404.925781,0 384.199219,0 L38.085938,0 C17.359375,0 0.5,16.859375 0.5,37.585938 C0.5,55.777344 13.488281,70.984375 30.675781,74.4375 C31.101562,91.871094 33.175781,108.671875 36.867188,124.464844 C37.808594,128.496094 41.84375,131.003906 45.875,130.0625 C49.910156,129.117188 52.414062,125.085938 51.472656,121.050781 C48.089844,106.585938 46.152344,91.1875 45.695312,75.175781 L376.59375,75.175781 C375.679688,107.191406 368.882812,136.347656 356.355469,161.945312 C345.578125,183.964844 330.53125,203.46875 311.636719,219.914062 C282.226562,245.507812 252.359375,255.769531 246.816406,257.523438 L175.472656,257.523438 C171.167969,256.164062 152.394531,249.75 130.632812,235.175781 C108.035156,220.046875 77.433594,192.707031 59.96875,148.394531 C58.453125,144.539062 54.097656,142.648438 50.242188,144.167969 C46.386719,145.6875 44.496094,150.039062 46.015625,153.894531 C64.992188,202.042969 98.230469,231.628906 122.777344,247.96875 C134.601562,255.84375 145.519531,261.457031 154.085938,265.292969 C147.875,270.863281 143.957031,278.941406 143.957031,287.921875 C143.957031,301.84375 153.363281,313.597656 166.152344,317.1875 C163.445312,337.59375 151.085938,399.433594 98.613281,436.917969 C79.0625,438.226562 63.550781,454.535156 63.550781,474.410156 C63.550781,495.136719 80.414062,512 101.140625,512 L321.144531,512 C341.871094,512 358.734375,495.136719 358.734375,474.410156 C358.734375,454.546875 343.242188,438.242188 323.707031,436.921875 C311.214844,428.003906 300.097656,417.089844 290.667969,404.414062 C288.195312,401.09375 283.5,400.402344 280.175781,402.875 C276.851562,405.347656 276.160156,410.046875 278.632812,413.367188 C285.003906,421.929688 292.070312,429.769531 299.765625,436.824219 L122.488281,436.824219 C143.574219,417.441406 160.011719,392.027344 170.5625,362.257812 C177.28125,343.296875 180.046875,327.128906 181.152344,318.320312 L241.132812,318.320312 C242.691406,330.839844 247.59375,358.160156 262.429688,387.195312 C264.316406,390.886719 268.835938,392.347656 272.523438,390.464844 C276.210938,388.578125 277.671875,384.0625 275.789062,380.371094 C262.351562,354.074219 257.675781,328.855469 256.132812,317.1875 C268.921875,313.597656 278.328125,301.84375 278.328125,287.921875 C278.328125,278.949219 274.417969,270.875 268.214844,265.304688 C281.820312,259.222656 301.34375,248.644531 320.96875,231.675781 C341.515625,213.914062 357.886719,192.804688 369.636719,168.929688 Z M15.5,37.585938 C15.5,25.132812 25.632812,15 38.085938,15 L384.199219,15 C396.65625,15 406.789062,25.132812 406.789062,37.585938 C406.789062,50.039062 396.65625,60.171875 384.203125,60.175781 C384.203125,60.175781 384.203125,60.175781 384.199219,60.175781 L38.085938,60.175781 C38.085938,60.175781 38.085938,60.175781 38.082031,60.175781 C25.628906,60.171875 15.5,50.039062 15.5,37.585938 Z M343.734375,474.414062 C343.734375,486.867188 333.601562,497 321.148438,497 L101.140625,497 C88.683594,497 78.554688,486.867188 78.554688,474.414062 C78.554688,461.960938 88.683594,451.824219 101.140625,451.824219 L321.148438,451.824219 C333.601562,451.824219 343.734375,461.957031 343.734375,474.414062 Z M247.929688,303.320312 L174.355469,303.320312 C165.867188,303.320312 158.957031,296.414062 158.957031,287.921875 C158.957031,279.433594 165.867188,272.523438 174.355469,272.523438 L247.929688,272.523438 C256.421875,272.523438 263.328125,279.433594 263.328125,287.921875 C263.328125,296.414062 256.421875,303.320312 247.929688,303.320312 Z" id="Shape" fill="#000000"></path>
            </g>
            <g id="coffee-cup" transform="translate(319.000000, 102.000000)">
                <polygon id="Path" fill="#FF9017" points="344.372 386.154 367.522 185.677 20.478 185.677 43.628 386.154"></polygon>
                <polygon id="Path" fill="#ED7D0C" points="331.411 185.677 308.26 386.154 344.372 386.154 367.522 185.677"></polygon>
                <g id="Group" transform="translate(28.000000, 102.000000)" fill="#E0E0E0">
                    <polygon id="Path" points="321.879 83.677 331.492 0.42 0.508 0.42 10.122 83.677"></polygon>
                    <polygon id="Path" points="33.273 284.154 46.936 402.477 285.064 402.477 298.728 284.154"></polygon>
                </g>
                <g id="Group" transform="translate(276.000000, 102.000000)" fill="#C6C6C6">
                    <polygon id="Path" points="47.381 0.42 37.767 83.677 73.879 83.677 83.492 0.42"></polygon>
                    <polygon id="Path" points="14.617 284.154 0.953 402.477 37.064 402.477 50.728 284.154"></polygon>
                </g>
                <rect id="Rectangle" fill="#494949" x="7.985" y="54.458" width="372.027" height="47.966"></rect>
                <g id="Group" transform="translate(28.000000, 7.000000)" fill="#303030">
                    <polygon id="Path" points="331.492 47.455 0.508 47.455 28.365 0.523 303.635 0.523"></polygon>
                    <rect id="Rectangle" x="306.874" y="47.458" width="45.139" height="47.966"></rect>
                </g>
                <polygon id="Path" fill="#232323" points="331.635 7.523 286.496 7.523 314.353 54.455 359.492 54.455"></polygon>
                <ellipse id="Oval" fill="#7C3D1E" cx="194" cy="282.321" rx="43.283" ry="52.713"></ellipse>
                <path d="M194,229.607 C189.268,229.607 184.719,230.545 180.458,232.253 C197.726,239.178 210.196,258.969 210.196,282.318 C210.196,305.668 197.726,325.459 180.458,332.384 C184.719,334.093 189.268,335.031 194,335.031 C217.903,335.031 237.279,311.43 237.279,282.318 C237.279,253.206 217.903,229.607 194,229.607 Z" id="Path" fill="#602E18"></path>
                <path d="M380.016,46.932 L363.777,46.932 L338.104,3.683 C336.75,1.399 334.292,0 331.635,0 L56.365,0 C53.71,0 51.251,1.399 49.896,3.683 L24.226,46.931 L7.986,46.931 C3.831,46.931 0.463,50.299 0.463,54.454 L0.463,102.42 C0.463,106.575 3.831,109.943 7.986,109.943 L21.804,109.943 L29.68,178.152 L20.479,178.152 C18.333,178.152 16.29,179.068 14.863,180.67 C13.436,182.272 12.76,184.407 13.005,186.538 L36.155,387.015 C36.593,390.811 39.808,393.676 43.629,393.676 L54.568,393.676 L67.463,505.338 C67.901,509.134 71.116,511.999 74.937,511.999 L120.57,511.999 C124.725,511.999 128.093,508.631 128.093,504.476 C128.093,500.321 124.725,496.953 120.57,496.953 L81.642,496.953 L69.716,393.676 L318.288,393.676 L306.362,496.953 L150.661,496.953 C146.506,496.953 143.138,500.321 143.138,504.476 C143.138,508.631 146.506,511.999 150.661,511.999 L313.065,511.999 C316.886,511.999 320.101,509.135 320.538,505.338 L333.432,393.676 L344.371,393.676 C348.193,393.676 351.407,390.812 351.844,387.015 L374.994,186.538 C375.241,184.406 374.565,182.272 373.137,180.67 C371.709,179.068 369.665,178.152 367.52,178.152 L358.319,178.152 L366.196,109.943 L380.015,109.943 C384.171,109.943 387.538,106.575 387.538,102.42 L387.538,54.455 C387.538,50.3 384.171,46.932 380.016,46.932 Z M343.174,178.153 L299.858,178.153 C295.702,178.153 292.335,181.521 292.335,185.676 C292.335,189.831 295.702,193.199 299.858,193.199 L359.079,193.199 L359.079,193.199 L337.666,378.63 L337.666,378.63 L50.333,378.63 L50.333,378.63 L28.92,193.2 L28.92,193.2 L269.766,193.2 C273.922,193.2 277.289,189.832 277.289,185.677 C277.289,181.522 273.922,178.154 269.766,178.154 L44.826,178.154 L36.95,109.945 L351.05,109.945 L343.174,178.153 Z M372.492,94.897 L372.492,94.897 L15.509,94.897 L15.509,94.897 L15.509,61.978 L15.509,61.978 L75.1,61.978 C79.255,61.978 82.623,58.61 82.623,54.455 C82.623,50.3 79.255,46.932 75.1,46.932 L41.721,46.932 L60.647,15.047 L327.352,15.047 L346.277,46.932 L105.193,46.932 C101.038,46.932 97.67,50.3 97.67,54.455 C97.67,58.61 101.038,61.978 105.193,61.978 L372.492,61.978 L372.492,61.978 L372.492,94.897 L372.492,94.897 L372.492,94.897 Z" id="Shape" fill="#000000"></path>
                <path d="M200.931,222.659 C200.607,222.585 200.28,222.542 199.951,222.511 C197.997,222.239 196.014,222.084 194,222.084 C165.987,222.084 143.196,249.106 143.196,282.32 C143.196,315.526 165.975,342.543 193.98,342.557 C193.985,342.557 193.989,342.557 193.994,342.557 C193.998,342.557 194.002,342.557 194.006,342.557 C222.016,342.552 244.804,315.533 244.804,282.32 C244.804,251.895 225.676,226.681 200.931,222.659 Z M158.244,282.32 C158.244,261.284 169.677,243.559 185.103,238.548 C178.935,252.301 176.442,271.831 190.814,290.504 C201.307,304.138 194.066,320.362 190.084,327.233 C172.203,324.758 158.244,305.563 158.244,282.32 Z M208.095,323.844 C208.423,322.92 208.741,321.977 209.034,320.998 C213.474,306.165 211.295,292.448 202.737,281.328 C188.895,263.344 197.563,245.674 202.371,238.395 C218.061,243.171 229.757,261.048 229.757,282.321 C229.757,300.914 220.822,316.916 208.095,323.844 Z" id="Shape" fill="#000000"></path>
            </g>
        </g>
    </g>
</svg>