<svg id="Capa_1" enable-background="new 0 0 512.022 512.022" height="512" viewBox="0 0 512.022 512.022" width="512" xmlns="http://www.w3.org/2000/svg"><g id="XMLID_1007_"><path id="XMLID_1484_" d="m317.021 416.403-205.166-118.453c-21.212-12.247-28.48-39.371-16.233-60.583l118.452-205.166c12.247-21.212 39.371-28.48 60.583-16.233l205.166 118.453c21.212 12.247 28.48 39.371 16.233 60.583l-118.452 205.166c-12.247 21.212-39.371 28.48-60.583 16.233z" fill="#ffcd69"/><g id="XMLID_1531_"><path id="XMLID_1532_" d="m380.207 502.019v-101.373c29.9-29.815 46.705-70.303 46.705-112.528v-39.954 33.012-75.027c0-12.031-9.753-21.783-21.783-21.783-12.03 0-21.783 9.753-21.783 21.783v37.239-93.914c0-12.03-9.753-21.783-21.783-21.783-12.03 0-21.783 9.753-21.783 21.783v93.914-117.728c0-12.03-9.753-21.783-21.783-21.783-12.03 0-21.783 9.753-21.783 21.783v113.549 4.179-93.914c0-12.03-9.753-21.783-21.783-21.783-12.03 0-21.783 9.753-21.783 21.783v113.548l-.002-74.952v116.57l-29.52-46.084c-6.286-9.812-18.394-14.157-29.484-10.58-13.167 4.248-20.596 18.17-16.794 31.472l.832 2.911c13.671 47.825 43.143 89.607 83.61 118.53v101.129h118.917z" fill="#f3c9a6"/></g><g id="XMLID_543_"><path id="XMLID_544_" d="m510.146 158.762c-3.757-14.022-12.75-25.743-25.323-33.001l-63.616-36.729c-4.782-2.76-10.898-1.123-13.66 3.66s-1.123 10.898 3.66 13.66l63.616 36.729c7.946 4.588 13.629 11.994 16.004 20.856 2.374 8.863 1.156 18.119-3.432 26.065l-50.485 87.443v-71.299c0-17.525-14.258-31.783-31.783-31.783-4.161 0-8.137.804-11.783 2.264v-27.154c0-17.525-14.258-31.783-31.783-31.783-4.344 0-8.486.875-12.261 2.46-2.616-14.909-15.659-26.274-31.306-26.274s-28.689 11.365-31.305 26.274c-3.775-1.584-7.918-2.46-12.261-2.46-17.525 0-31.783 14.258-31.783 31.783l-.002 121.015-11.099-17.326c-8.727-13.625-25.577-19.673-40.975-14.703-18.401 5.937-28.652 25.148-23.338 43.738l.832 2.909c4.367 15.278 10.322 30.008 17.688 43.962l-68.898-39.778c-16.403-9.471-22.043-30.52-12.573-46.923l118.455-205.166c4.588-7.946 11.995-13.63 20.857-16.005 8.862-2.376 18.119-1.156 26.065 3.432l63.62 36.73c4.784 2.763 10.899 1.124 13.66-3.66 2.762-4.783 1.123-10.898-3.66-13.66l-63.62-36.73c-12.573-7.258-27.22-9.188-41.242-5.43-14.022 3.757-25.743 12.751-33.001 25.323l-6.319 10.944c-24.434-7.057-49.698-10.901-75.223-11.415-.069-.001-.137-.002-.205-.002-5.429 0-9.884 4.346-9.994 9.799-.111 5.521 4.275 10.088 9.797 10.199 22.122.445 44.031 3.576 65.302 9.3l-66.23 114.713c-14.372-4.941-29.368-7.589-44.691-7.862-5.534-.111-10.078 4.298-10.177 9.819-.099 5.523 4.298 10.078 9.82 10.177 11.904.213 23.576 2.085 34.83 5.564l-25.362 43.929c-14.984 25.953-6.06 59.259 19.893 74.243l103.425 59.712c11.935 14.802 25.696 28.155 41.01 39.638v96.058c0 5.522 4.477 10 10 10s10-4.478 10-10v-101.127c0-3.228-1.559-6.259-4.185-8.136-38.47-27.496-66.814-67.679-79.811-113.145l-.832-2.909c-2.334-8.164 2.168-16.601 10.248-19.207 6.76-2.18 14.162.474 17.994 6.456l29.52 46.083c2.395 3.738 6.969 5.45 11.23 4.203 4.262-1.247 7.19-5.156 7.19-9.597v-41.418c.001-.066.002-.132.002-.198v-113.548c0-6.497 5.286-11.783 11.783-11.783s11.783 5.286 11.783 11.783v93.913c0 5.522 4.477 10 10 10s10-4.478 10-10v-117.728c0-6.497 5.286-11.783 11.783-11.783 6.498 0 11.783 5.286 11.783 11.783v117.728c0 5.522 4.477 10 10 10s10-4.478 10-10v-93.913c0-6.497 5.286-11.783 11.783-11.783s11.783 5.286 11.783 11.783v93.913c0 5.522 4.477 10 10 10s10-4.478 10-10v-37.239c0-6.497 5.286-11.783 11.783-11.783s11.783 5.286 11.783 11.783v81.97c0 39.279-15.952 77.713-43.766 105.447-1.881 1.876-2.939 4.424-2.939 7.081v101.373c0 5.522 4.477 10 10 10s10-4.478 10-10v-97.294c21.735-22.751 36.402-50.536 42.897-80.684l71.613-124.037c7.261-12.573 9.189-27.22 5.431-41.242z"/><path id="XMLID_563_" d="m10.009 68.122c1.276 0 2.574-.246 3.826-.766 20.114-8.338 41.26-14.241 62.851-17.546 5.46-.835 9.208-5.938 8.372-11.397-.835-5.46-5.936-9.202-11.397-8.372-23.181 3.547-45.886 9.886-67.485 18.841-5.102 2.115-7.523 7.965-5.408 13.067 1.595 3.85 5.317 6.173 9.241 6.173z"/><path id="XMLID_564_" d="m10.008 133.329c1.268 0 2.557-.243 3.802-.756 31.21-12.844 65.483-17.447 99.114-13.312 5.483.683 10.472-3.222 11.146-8.704.674-5.481-3.223-10.472-8.705-11.146-37.035-4.557-74.786.518-109.167 14.668-5.107 2.102-7.544 7.945-5.442 13.053 1.59 3.862 5.319 6.197 9.252 6.197z"/><path id="XMLID_565_" d="m24.862 171.828c-6.753 2.489-13.374 5.51-19.68 8.979-4.839 2.662-6.604 8.742-3.942 13.581 1.821 3.311 5.242 5.183 8.771 5.183 1.629 0 3.283-.4 4.811-1.24 5.433-2.988 11.138-5.591 16.957-7.736 5.182-1.91 7.835-7.659 5.924-12.842-1.91-5.181-7.66-7.836-12.841-5.925z"/><path id="XMLID_566_" d="m377.244 85.198c2.63 0 5.2-1.07 7.07-2.93 1.86-1.86 2.93-4.44 2.93-7.07 0-2.64-1.07-5.22-2.93-7.08-1.87-1.859-4.441-2.93-7.07-2.93-2.63 0-5.21 1.07-7.07 2.93-1.87 1.87-2.93 4.44-2.93 7.08 0 2.63 1.06 5.2 2.93 7.07 1.86 1.86 4.429 2.93 7.07 2.93z"/></g></g></svg>