<svg width="135px" height="161px" viewBox="0 0 135 161" version="1.1" xmlns="http://www.w3.org/2000/svg" xmlns:xlink="http://www.w3.org/1999/xlink"><title>Group 3</title><desc>Created with Sketch.</desc><g id="Page-1" stroke="none" stroke-width="1" fill="none" fill-rule="evenodd"><g id="219811-P15YT1-338" transform="translate(-243.000000, -285.000000)"><g id="Group-3" transform="translate(246.000000, 285.000000)"><polyline id="Fill-67" fill="#DC3B50" points="71.145 99.678 94.6 92.717 71.145 85.755 64.184 62.301 57.222 85.755 33.768 92.717 57.222 99.678 64.184 123.133 71.145 99.678"></polyline><polyline id="Fill-68" fill="#1B2231" points="33.768 92.717 64.276 92.717 57.268 85.709 33.768 92.717"></polyline><polyline id="Fill-69" fill="#1B2231" points="64.184 62.301 64.184 92.717 71.145 85.755 64.184 62.301"></polyline><polyline id="Fill-70" fill="#1B2231" points="94.6 92.717 64.092 92.717 71.099 99.724 94.6 92.717"></polyline><polyline id="Fill-71" fill="#1B2231" points="64.184 123.133 64.184 92.717 57.222 99.678 64.184 123.133"></polyline><path d="M64.184,25.031 C58.633,25.031 54.133,20.531 54.133,14.98 C54.133,9.429 58.633,4.929 64.184,4.929 C69.735,4.929 74.235,9.429 74.235,14.98 C74.235,20.531 69.735,25.031 64.184,25.031 Z M64.184,1.42108547e-14 C55.91,1.42108547e-14 49.203,6.707 49.203,14.98 C49.203,23.254 55.91,29.961 64.184,29.961 C72.457,29.961 79.164,23.254 79.164,14.98 C79.164,6.707 72.457,1.42108547e-14 64.184,1.42108547e-14 L64.184,1.42108547e-14 Z" id="Fill-72" fill="#1B2231"></path><path d="M0,93.04 C0,57.592 28.736,28.855 64.184,28.855 C99.632,28.855 128.368,57.592 128.368,93.04 C128.368,128.487 99.632,157.223 64.184,157.223 C28.736,157.223 0,128.487 0,93.04 Z" id="Stroke-73" stroke="#1B2231" stroke-width="6"></path><path d="M8.516,93.04 C8.516,62.295 33.439,37.371 64.184,37.371 C94.928,37.371 119.852,62.295 119.852,93.04 C119.852,123.784 94.928,148.708 64.184,148.708 C33.439,148.708 8.516,123.784 8.516,93.04 Z" id="Stroke-74" stroke="#1B2231" stroke-width="3"></path><path d="M65.621,43.215 C65.621,44.009 64.978,44.652 64.184,44.652 C63.39,44.652 62.746,44.009 62.746,43.215 C62.746,42.421 63.39,41.777 64.184,41.777 C64.978,41.777 65.621,42.421 65.621,43.215" id="Fill-75" fill="#DC3B50"></path><path d="M65.621,142.218 C65.621,143.012 64.978,143.656 64.184,143.656 C63.39,143.656 62.746,143.012 62.746,142.218 C62.746,141.425 63.39,140.781 64.184,140.781 C64.978,140.781 65.621,141.425 65.621,142.218" id="Fill-76" fill="#DC3B50"></path><path d="M113.686,94.154 C112.892,94.154 112.248,93.51 112.248,92.717 C112.248,91.923 112.892,91.279 113.686,91.279 C114.48,91.279 115.123,91.923 115.123,92.717 C115.123,93.51 114.48,94.154 113.686,94.154" id="Fill-77" fill="#DC3B50"></path><path d="M14.682,94.154 C13.888,94.154 13.244,93.51 13.244,92.717 C13.244,91.923 13.888,91.279 14.682,91.279 C15.476,91.279 16.119,91.923 16.119,92.717 C16.119,93.51 15.476,94.154 14.682,94.154" id="Fill-78" fill="#DC3B50"></path><path d="M100.203,58.73 C99.642,59.292 98.732,59.292 98.171,58.73 C97.609,58.169 97.609,57.259 98.171,56.697 C98.732,56.135 99.642,56.135 100.203,56.697 C100.765,57.259 100.765,58.169 100.203,58.73" id="Fill-79" fill="#DC3B50"></path><path d="M30.197,128.736 C29.635,129.298 28.725,129.298 28.164,128.736 C27.603,128.175 27.603,127.264 28.164,126.704 C28.725,126.142 29.635,126.142 30.197,126.704 C30.758,127.264 30.758,128.175 30.197,128.736" id="Fill-80" fill="#DC3B50"></path><path d="M98.171,128.736 C97.609,128.175 97.609,127.264 98.171,126.704 C98.732,126.142 99.642,126.142 100.203,126.704 C100.765,127.264 100.765,128.175 100.203,128.736 C99.642,129.298 98.732,129.298 98.171,128.736" id="Fill-81" fill="#DC3B50"></path><path d="M28.164,58.73 C27.603,58.169 27.603,57.259 28.164,56.697 C28.725,56.135 29.635,56.135 30.197,56.697 C30.758,57.259 30.758,58.169 30.197,58.73 C29.635,59.292 28.725,59.292 28.164,58.73" id="Fill-82" fill="#DC3B50"></path><path d="M84.71,47.648 C84.402,48.38 83.559,48.723 82.828,48.416 C82.096,48.107 81.752,47.264 82.06,46.533 C82.368,45.801 83.211,45.458 83.943,45.765 C84.675,46.073 85.018,46.916 84.71,47.648" id="Fill-83" fill="#DC3B50"></path><path d="M46.307,138.9 C45.999,139.633 45.157,139.975 44.424,139.668 C43.693,139.36 43.349,138.517 43.657,137.785 C43.965,137.053 44.808,136.71 45.54,137.018 C46.272,137.326 46.615,138.169 46.307,138.9" id="Fill-84" fill="#DC3B50"></path><path d="M109.252,113.243 C108.521,112.935 108.177,112.093 108.485,111.36 C108.793,110.629 109.636,110.285 110.367,110.593 C111.099,110.901 111.443,111.744 111.135,112.475 C110.827,113.208 109.984,113.551 109.252,113.243" id="Fill-85" fill="#DC3B50"></path><path d="M18,74.841 C17.268,74.532 16.924,73.689 17.233,72.958 C17.541,72.225 18.383,71.883 19.115,72.19 C19.847,72.498 20.191,73.341 19.882,74.073 C19.574,74.804 18.732,75.148 18,74.841" id="Fill-86" fill="#DC3B50"></path><path d="M110.567,75.363 C109.831,75.662 108.992,75.309 108.693,74.574 C108.393,73.839 108.746,73 109.481,72.7 C110.217,72.401 111.055,72.754 111.355,73.489 C111.655,74.224 111.301,75.063 110.567,75.363" id="Fill-87" fill="#DC3B50"></path><path d="M18.886,112.733 C18.151,113.033 17.312,112.679 17.012,111.944 C16.713,111.209 17.066,110.37 17.801,110.071 C18.536,109.771 19.375,110.124 19.675,110.859 C19.974,111.594 19.621,112.433 18.886,112.733" id="Fill-88" fill="#DC3B50"></path><path d="M81.538,139.099 C81.238,138.364 81.591,137.525 82.326,137.225 C83.062,136.926 83.901,137.279 84.2,138.014 C84.5,138.75 84.147,139.589 83.411,139.887 C82.676,140.187 81.838,139.835 81.538,139.099" id="Fill-89" fill="#DC3B50"></path><path d="M44.168,47.419 C43.868,46.684 44.221,45.845 44.956,45.546 C45.691,45.246 46.53,45.598 46.83,46.334 C47.13,47.069 46.777,47.908 46.041,48.208 C45.306,48.508 44.467,48.154 44.168,47.419" id="Fill-90" fill="#DC3B50"></path></g></g></g></svg>