<?xml version="1.0" encoding="iso-8859-1"?>
<!-- Generator: Adobe Illustrator 21.0.0, SVG Export Plug-In . SVG Version: 6.00 Build 0)  -->
<svg xmlns="http://www.w3.org/2000/svg" xmlns:xlink="http://www.w3.org/1999/xlink" version="1.1" id="Capa_1" x="0px" y="0px" viewBox="0 0 512 512" style="enable-background:new 0 0 512 512;" xml:space="preserve" width="512" height="512">
<g>
	<path style="fill:#BCD151;" d="M203.326,385.131h17.611c31.64-40.574,149.854-16.503,111.347,119.328H91.979   C53.472,368.628,171.686,344.557,203.326,385.131z"/>
	<path style="fill:#8D9F25;" d="M245.532,369.635c38.378,9.833,74.191,51.096,50.454,134.824h36.298   C363.741,393.5,290.615,357.119,245.532,369.635z"/>
	<path style="fill:#F6BB93;" d="M212.132,415.55L212.132,415.55c20.047,0,36.298-16.251,36.298-36.298v-44.926h-72.597v44.926   C175.834,399.299,192.085,415.55,212.132,415.55z"/>
	<path style="fill:#E49775;" d="M175.834,370.14c22.584,5.156,48.326,6.532,72.597,4.131v-39.945h-72.597V370.14z"/>
	<g>
		<path style="fill:#F6BB93;" d="M87.383,259.947h40.563v-61.342H87.383c-16.939,0-30.671,13.732-30.671,30.671v0    C56.712,246.215,70.444,259.947,87.383,259.947z"/>
		<path style="fill:#F6BB93;" d="M336.881,259.947h-40.563v-61.342h40.563c16.939,0,30.671,13.732,30.671,30.671v0    C367.552,246.215,353.82,259.947,336.881,259.947z"/>
	</g>
	<path style="fill:#52668D;" d="M102.971,247.793c-7.564-32.743-18.741-76.385-23.781-97.672   c-32.397-28.129-39.1-87.584-19.511-129.844c2.824-6.092,10.605-7.91,15.817-3.676c12.875,10.461,38.272,20.382,85.749,2.968   c92.458-33.913,170.317,11.746,174.787,35.123c4.999,0,29.279,3.44,29.279,27.316c0,20.309-33.377,128.476-47.767,165.785H102.971z   "/>
	<path style="fill:#243B5D;" d="M336.033,54.692C332.52,36.32,283.682,4.188,218.052,7.729c49.531,3.012,84.876,30.507,87.69,46.962   c4.472,0,26.192,3.44,26.192,27.316c0,20.309-29.858,128.476-42.732,165.785h28.341c14.391-37.31,47.767-145.477,47.767-165.785   C365.312,58.131,341.031,54.692,336.033,54.692z"/>
	<path style="fill:#F6BB93;" d="M97.751,289.15c0,80.778,228.762,80.778,228.762,0c0-46.286-6.19-124.655-19.678-155.118   c-3.202-7.233-10.166-14.654-15.864-18.06c-4.82-2.881-9.876-4.51-15.018-4.51c-5.752,0-11.365,1.842-17,4.51   c-14.6,6.898-29.329,19.281-46.822,19.281s-32.221-12.383-46.822-19.281c-5.634-2.668-11.247-4.51-17-4.51   c-5.142,0-10.198,1.628-15.018,4.51c-5.709,3.406-12.681,10.84-15.896,18.092C103.964,164.361,97.751,241.986,97.751,289.15z"/>
	<path style="fill:#E49775;" d="M306.836,134.032c-3.202-7.233-10.165-14.654-15.864-18.06c-4.82-2.882-9.876-4.51-15.018-4.51   c-4.183,0-8.293,0.982-12.39,2.54c1.114,0.57,2.217,1.226,3.306,1.97c4.988,3.406,11.083,10.827,13.885,18.06   c11.805,30.464,17.223,108.833,17.223,155.118c0,38.597-45.713,58.75-93.454,60.462c59.611,1.872,121.99-18.281,121.99-60.462   C326.513,242.865,320.323,164.496,306.836,134.032z"/>
	<path style="fill:#7CCCF2;" d="M399.454,18.608c-37.382-3.761-71.617,22.825-77.186,59.98   c-5.727,38.215,20.005,73.385,57.143,80.26c-2.851,7.016-7.21,13.353-12.762,18.525c-2.624,2.444-0.738,6.838,2.839,6.588   c2.306-0.161,4.628-0.479,6.955-0.961c15.321-3.176,27.64-12.814,34.73-25.472c27.045-7.443,48.214-30.631,51.642-60.207   C467.364,58.06,438.92,22.579,399.454,18.608z"/>
	<path style="fill:#4FACDB;" d="M399.454,18.608c-4.671-0.47-9.293-0.466-13.815-0.027c0.098,0.011,0.196,0.015,0.294,0.027   c32.623,3.971,56.135,39.451,52.374,78.713c-2.833,29.575-20.332,52.763-42.688,60.207c-5.861,12.658-16.043,22.296-28.708,25.472   c-0.062,0.016-0.125,0.028-0.187,0.043c0.701,0.624,1.65,0.997,2.764,0.918c2.306-0.161,4.628-0.479,6.955-0.961   c15.321-3.176,27.64-12.814,34.73-25.472c27.045-7.443,48.214-30.631,51.642-60.207C467.364,58.06,438.92,22.579,399.454,18.608z"/>
	<g>
		<path d="M48.732,74.307c4,0,7.323-3.158,7.489-7.192c0.646-15.635,4.164-30.753,10.176-43.721c0.505-1.09,1.416-1.446,1.914-1.561    c0.49-0.116,1.452-0.194,2.369,0.552c14.827,12.045,43.009,22.551,93.076,4.187c58.359-21.403,111.858-9.914,142.466,7.978    c3.576,2.091,8.171,0.887,10.261-2.69c2.091-3.577,0.886-8.171-2.69-10.261c-33.559-19.615-91.952-32.31-155.203-9.111    c-43.449,15.936-66.644,7.845-78.449-1.746c-4.287-3.485-9.831-4.767-15.209-3.526c-5.389,1.246-9.816,4.844-12.146,9.869    c-6.832,14.74-10.828,31.825-11.554,49.411c-0.171,4.139,3.046,7.633,7.185,7.804C48.522,74.305,48.627,74.307,48.732,74.307z"/>
		<path d="M266.71,205.588c-4.143,0-7.501,3.358-7.501,7.501v11.671c0,4.143,3.358,7.501,7.501,7.501s7.501-3.358,7.501-7.501    V213.09C274.211,208.946,270.853,205.588,266.71,205.588z"/>
		<path d="M157.426,205.588c-4.143,0-7.501,3.358-7.501,7.501v11.671c0,4.143,3.358,7.501,7.501,7.501s7.501-3.358,7.501-7.501    V213.09C164.927,208.946,161.568,205.588,157.426,205.588z"/>
		<path d="M280.415,179.075c-7.766,5.637-20.89,5.638-28.658,0c-3.354-2.435-8.044-1.687-10.477,1.665    c-2.433,3.353-1.687,8.044,1.666,10.477c6.488,4.708,14.814,7.063,23.14,7.063c8.327,0,16.653-2.355,23.141-7.063    c3.353-2.433,4.098-7.124,1.665-10.477C288.457,177.387,283.768,176.643,280.415,179.075z"/>
		<path d="M181.19,184.707c-12.976-9.416-33.305-9.416-46.281,0c-3.353,2.434-4.098,7.124-1.665,10.477    c2.433,3.352,7.123,4.096,10.477,1.665c7.767-5.638,20.89-5.638,28.658,0c1.331,0.966,2.872,1.431,4.399,1.431    c2.321-0.001,4.61-1.074,6.078-3.096C185.289,191.831,184.543,187.14,181.19,184.707z"/>
		<path d="M453.437,39.969c-13.271-16.492-32.188-26.742-53.266-28.862c-20.012-2.02-39.856,3.735-55.884,16.189    c-16.032,12.455-26.502,30.267-29.483,50.153c-3.048,20.338,1.861,40.716,13.824,57.377c3.821,5.322,8.229,10.086,13.114,14.222    c-4.3,14.771-9.103,30.467-13.848,45.307c-2.8-21.944-7.327-47.744-14.25-63.379c-3.608-8.151-11.37-16.977-18.877-21.465    c-6.187-3.698-12.535-5.572-18.869-5.572c-6.25,0-12.673,1.662-20.206,5.228c-4.351,2.056-8.674,4.546-12.855,6.953    c-10.369,5.973-20.164,11.613-30.77,11.613s-20.401-5.641-30.77-11.613c-4.18-2.408-8.503-4.897-12.85-6.951    c-7.539-3.568-13.962-5.23-20.212-5.23c-6.334,0-12.682,1.874-18.864,5.569c-7.511,4.482-15.288,13.322-18.913,21.497    c-6.059,13.666-10.56,35.397-13.762,59.279c-0.725-2.927-1.439-5.808-2.137-8.623c-3.321-13.401-6.19-24.975-8.16-33.287    c-0.362-1.529-1.195-2.905-2.38-3.934c-12.566-10.915-21.68-28.148-25.662-48.524c-0.795-4.066-4.737-6.72-8.801-5.923    c-4.066,0.794-6.718,4.734-5.923,8.8c4.431,22.672,14.589,42.209,28.712,55.323c1.952,8.158,4.613,18.894,7.652,31.153    c0.509,2.055,1.028,4.145,1.552,6.263c-18.331,2.782-32.424,18.648-32.424,37.743c0,10.201,3.97,19.788,11.179,26.997    c7.21,7.208,16.797,11.179,26.998,11.179h3.245c-0.258,7.889-0.381,15.219-0.381,21.705c0,21.833,13.851,39.894,40.056,52.232    c11.024,5.19,23.939,9.198,38.043,11.886v6.868c-24.232-2.356-49.629,6.98-66.778,25.083    c-11.986,12.651-19.72,28.811-22.988,48.032c-3.631,21.363-1.553,46.021,6.176,73.288c0.915,3.227,3.862,5.455,7.217,5.455    h240.348c3.355,0,6.302-2.228,7.217-5.455c15.767-55.621,4.939-89.737-6.921-108.561c-2.209-3.505-6.843-4.555-10.345-2.348    c-3.505,2.208-4.556,6.84-2.348,10.345c14.001,22.222,16.275,53.605,6.655,91.017h-18.614v-29.67c0-4.143-3.358-7.501-7.501-7.501    s-7.501,3.358-7.501,7.501v29.67h-161.63v-29.67c0-4.143-3.358-7.501-7.501-7.501c-4.143,0-7.501,3.358-7.501,7.501v29.67H97.634    c-5.898-22.906-7.361-43.48-4.343-61.227c2.76-16.238,9.182-29.773,19.088-40.229c14.359-15.158,35.753-22.792,55.887-20.314    v4.041c0,24.155,19.647,43.807,43.807,43.807c24.15,0,43.797-19.652,43.797-43.807v-4.034    c15.284-1.855,31.693,2.104,44.946,11.035c1.286,0.866,2.744,1.281,4.185,1.281c2.411,0,4.779-1.16,6.228-3.31    c2.315-3.436,1.406-8.098-2.029-10.413c-15.678-10.565-35.04-15.434-53.33-13.678v-6.957    c42.547-8.184,78.099-28.944,78.099-64.037c0-6.867-0.131-14.168-0.381-21.705h3.244c10.201,0,19.789-3.97,26.999-11.179    c7.208-7.209,11.179-16.797,11.179-26.997c0-18.451-13.157-33.886-30.582-37.417c3.537-11.221,7.058-22.756,10.334-33.884    c4.308,2.349,8.847,4.294,13.568,5.803c-1.951,2.96-4.252,5.69-6.832,8.094c-7.796,7.261-2.154,20.313,8.478,19.562    c18.937-1.329,36.011-11.569,46.106-27.562c29.459-9.337,50.579-34.816,54.16-65.712C472.679,77.129,466.71,56.464,453.437,39.969    z M87.303,252.448c-6.193,0-12.014-2.41-16.389-6.785c-4.375-4.375-6.784-10.195-6.784-16.388    c0-12.061,9.261-21.999,21.045-23.076c2.385,9.687,4.796,19.567,7.043,28.99c-0.413,5.867-0.759,11.648-1.043,17.261H87.303z     M240.867,368.8c-0.001,0.09-0.002,0.181,0,0.272v10.196c0,15.882-12.917,28.804-28.804,28.804    c-15.878,0-28.795-12.922-28.795-28.804v-10.196c0.002-0.091,0.001-0.182,0-0.272v-13.22c9.286,1.102,18.943,1.67,28.8,1.67    c9.579,0,19.276-0.567,28.8-1.72V368.8z M212.068,342.248c-53.122,0-106.899-18.237-106.899-53.093    c0-36.551,4.667-119.731,19.005-152.07c2.643-5.963,8.627-12.153,12.89-14.698c3.827-2.287,7.586-3.447,11.172-3.447    c3.95,0,8.333,1.204,13.798,3.791c3.8,1.795,7.675,4.027,11.776,6.389c11.081,6.382,23.64,13.615,38.258,13.615    s27.177-7.234,38.257-13.615c4.102-2.362,7.975-4.593,11.782-6.392c5.46-2.584,9.842-3.788,13.792-3.788    c3.587,0,7.346,1.159,11.172,3.447c4.256,2.544,10.228,8.724,12.857,14.662c13.958,31.523,19.039,115.838,19.039,152.107    C318.966,324.011,265.189,342.248,212.068,342.248z M360.007,229.275c0,6.193-2.41,12.014-6.785,16.388    c-4.375,4.376-10.196,6.785-16.389,6.785h-3.883c-0.369-7.136-0.832-14.36-1.38-21.518c2.612-7.544,5.4-15.885,8.242-24.639    C351.188,207.758,360.007,217.505,360.007,229.275z M455.339,96.432c-2.992,25.812-21.123,46.948-46.19,53.848    c-1.934,0.532-3.574,1.817-4.553,3.567c-5.583,9.965-14.724,17.339-25.494,20.703c2.927-3.982,5.368-8.329,7.222-12.893    c0.849-2.089,0.713-4.449-0.37-6.426c-1.082-1.978-2.997-3.364-5.214-3.774c-33.6-6.221-56.218-37.63-51.099-71.785    c2.407-16.055,10.878-30.449,23.852-40.529c11.279-8.763,24.879-13.427,38.86-13.427c2.099,0,4.208,0.105,6.317,0.317    c17.05,1.716,32.349,10.005,43.08,23.341C452.483,62.714,457.309,79.425,455.339,96.432z"/>
		<path d="M388.6,119.104c-4.143,0-7.501,3.358-7.501,7.501v1c0,4.143,3.358,7.501,7.501,7.501s7.501-3.358,7.501-7.501v-1    C396.101,122.462,392.743,119.104,388.6,119.104z"/>
		<path d="M397.134,42.773c-12.149-0.773-23.372,6.739-27.311,18.225c-1.344,3.919,0.744,8.185,4.663,9.529    c3.915,1.343,8.185-0.743,9.529-4.663c1.754-5.115,6.767-8.463,12.189-8.118c5.938,0.369,10.878,5.309,11.247,11.247    c0.209,3.377-0.943,6.586-3.244,9.035c-2.304,2.452-5.425,3.801-8.787,3.801h-2.796c-6.355,0-11.526,5.171-11.526,11.526v13.227    c0,4.143,3.358,7.501,7.501,7.501s7.501-3.358,7.501-7.501v-9.759c7.194-0.183,14.1-3.265,19.039-8.52    c5.166-5.498,7.753-12.686,7.284-20.24C421.581,54.488,410.71,43.616,397.134,42.773z"/>
		<path d="M214.685,280.659c-2.93,2.93-2.93,7.679,0,10.609c2.929,2.928,7.679,2.928,10.608,0c8.244-8.244,21.655-8.244,29.898,0    c1.465,1.464,3.385,2.197,5.304,2.197c1.919,0,3.839-0.733,5.305-2.197c2.929-2.93,2.929-7.679,0-10.609    C251.706,266.567,228.777,266.567,214.685,280.659z"/>
	</g>
</g>















</svg>
