<svg height="512" viewBox="0 0 512 512" width="512" xmlns="http://www.w3.org/2000/svg"><g id="Filledoutline"><path d="m56 328h128v80h-128z" fill="#f8bc1e"/><path d="m152 248h128v80h-128z" fill="#0093b9"/><path d="m184 328h128v80h-128z" fill="#eb5849"/><path d="m328 456h144v32h-144z" fill="#808080"/><path d="m424 64h56v48l-40 16h-16z" fill="#b2b1b4"/><path d="m160 408h128v80h-128z" fill="#0093b9"/><path d="m32 408h128v80h-128z" fill="#eb5849"/><path d="m360 56h80v80h-80z" fill="#808080"/><path d="m480 56h-32a8 8 0 0 0 -8-8h-16v-16h-16v16h-16v-32h-16v32h-16a8 8 0 0 0 -8 8v16h-224v-16h-16v16h-16v-32h-16v32h-24a8 8 0 0 0 -8 8v32a8 8 0 0 0 8 8h24v105.012a32 32 0 1 0 40 30.988h-16a16 16 0 1 1 -16-16 8 8 0 0 0 8-8v-112h256v16a8 8 0 0 0 8 8h8v304h-40a8 8 0 0 0 -8 8v32a8 8 0 0 0 8 8h144a8 8 0 0 0 8-8v-32a8 8 0 0 0 -8-8h-40v-304h8a8 8 0 0 0 8-8v-2.584l34.971-13.988a8 8 0 0 0 5.029-7.428v-48a8 8 0 0 0 -8-8zm-284.686 32h41.372l16 16h-41.372zm-6.628 16h-41.372l-16-16h41.372zm70.628-16h41.372l16 16h-41.372zm-195.314 16v-16h16v16zm32-16h12.686l16 16h-28.686zm243.314 16-16-16h28.686v16zm44.686 172.686v-41.372l32 32v41.372zm32 54.628v41.372l-32-32v-41.372zm-32 32 32 32v41.372l-32-32zm32-118.628-32-32v-41.372l32 32zm-32 182.628 20.686 20.686h-20.686zm80 52.686h-128v-16h128zm-48-299.314-32-32v-4.686h32zm16-52.686h-64v-64h64zm40-21.417-24 9.6v-44.183h24z"/><path d="m56 432h16v32h-16z"/><path d="m88 432h16v32h-16z"/><path d="m120 432h16v32h-16z"/><path d="m320 328a8 8 0 0 0 -8-8h-24v-72a8 8 0 0 0 -8-8h-128a8 8 0 0 0 -8 8v72h-88a8 8 0 0 0 -8 8v72h-16a8 8 0 0 0 -8 8v80a8 8 0 0 0 8 8h256a8 8 0 0 0 8-8v-72h16a8 8 0 0 0 8-8zm-160-72h112v64h-112zm-96 80h112v64h-112zm-24 80h112v64h-112zm240 64h-112v-64h112zm24-80h-112v-64h112z"/><path d="m208 352h16v32h-16z"/><path d="m240 352h16v32h-16z"/><path d="m272 352h16v32h-16z"/><path d="m80 352h16v32h-16z"/><path d="m112 352h16v32h-16z"/><path d="m144 352h16v32h-16z"/><path d="m176 272h16v32h-16z"/><path d="m208 272h16v32h-16z"/><path d="m240 272h16v32h-16z"/><path d="m184 432h16v32h-16z"/><path d="m216 432h16v32h-16z"/><path d="m248 432h16v32h-16z"/></g></svg>