<?xml version="1.0" encoding="iso-8859-1"?>
<!-- Generator: Adobe Illustrator 19.0.0, SVG Export Plug-In . SVG Version: 6.00 Build 0)  -->
<svg xmlns="http://www.w3.org/2000/svg" xmlns:xlink="http://www.w3.org/1999/xlink" version="1.1" id="Layer_1" x="0px" y="0px" viewBox="0 0 512 512" style="enable-background:new 0 0 512 512;" xml:space="preserve" width="512" height="512">
<g>
	<rect x="61" y="298.803" style="fill:#FF9100;" width="30" height="45"/>
	<polygon style="fill:#FF641A;" points="301,293.178 271,293.178 271,208.803 331,208.803 331,238.803 301,238.803  "/>
	<polygon style="fill:#FF641A;" points="363.197,338.485 341.986,317.274 395.014,264.262 437.436,306.684 416.225,327.895    395.014,306.684  "/>
	<path style="fill:#678D98;" d="M512,448.803v30H390.099l-14.399-24.6l-16.8,24.6H76c-41.4,0-76-33.6-76-75s34.6-75,76-75   c12.599,0,24.3,3.3,35.099,9c5.4-10.499,12.001-20.4,20.101-29.101c24-25.499,57.9-39.899,92.699-39.899   c10.8,0,21.601,0.899,32.1,2.699c92.701,13.2,168.9,84.3,188.101,177.301H512z"/>
	<path style="fill:#537983;" d="M512,448.803v30H390.099l-14.399-24.6l-16.8,24.6H256V271.502   c92.701,13.2,168.9,84.3,188.101,177.301H512z"/>
	<path style="fill:#678D98;" d="M217.578,189.803h-30c0-31.67,25.752-57.422,57.422-57.422v30   C229.883,162.381,217.578,174.686,217.578,189.803z"/>
	<path style="fill:#537983;" d="M314.184,114.408l-21.211-21.211c10.693-10.693,10.693-28.096,0-38.789l21.211-21.211   C336.581,55.58,336.581,92.025,314.184,114.408z"/>
	<path style="fill:#3E5959;" d="M390.099,478.803H358.9c-1.5-8.401-4.2-16.5-8.699-24c-13.801-22.5-37.8-36-64.2-36H181v-30   c0,0,59.399,0,62.701,0c4.199,0,8.099-0.3,12.299-0.901c18.3-2.699,36-11.4,49.501-24.6l20.999,21c-3.3,3.3-6.899,6-10.8,9   c24.901,7.202,46.201,23.101,60,45.901C383.2,451.502,388.001,465.002,390.099,478.803z"/>
	<path style="fill:#293939;" d="M390.099,478.803H358.9c-1.5-8.401-4.2-16.5-8.699-24c-13.801-22.5-37.8-36-64.2-36h-30v-30.901   c18.3-2.699,36-11.4,49.501-24.6l20.999,21c-3.3,3.3-6.899,6-10.8,9c24.901,7.202,46.201,23.101,60,45.901   C383.2,451.502,388.001,465.002,390.099,478.803z"/>
</g>















</svg>
