<svg id="Capa_1" enable-background="new 0 0 512 512" height="512" viewBox="0 0 512 512" width="512" xmlns="http://www.w3.org/2000/svg"><g><g><g><path d="m193.899 62.645v134.074c0 26.421 21.418 47.839 47.839 47.839h111.768l30.803 55.64c7.105 12.833 26.628 7.786 26.628-6.883v-48.757h45.723c26.421 0 47.839-21.418 47.839-47.839v-134.074c0-26.421-21.418-47.839-47.839-47.839h-214.922c-26.421 0-47.839 21.418-47.839 47.839z" fill="#ffe177"/><path d="m276.212 244.559h-34.473c-26.421 0-47.839-21.418-47.839-47.839v-134.075c0-26.421 21.418-47.839 47.839-47.839h34.473c-26.421 0-47.839 21.418-47.839 47.839v134.075c-.001 26.421 21.418 47.839 47.839 47.839z" fill="#ffd15b"/></g><g><path d="m318.101 252.286v134.074c0 26.421-21.418 47.839-47.839 47.839h-111.769l-30.803 55.64c-7.105 12.833-26.628 7.786-26.628-6.883v-48.756h-45.723c-26.421 0-47.839-21.418-47.839-47.839v-134.075c0-26.421 21.418-47.839 47.839-47.839h214.922c26.422 0 47.84 21.418 47.84 47.839z" fill="#f9f7f8"/><path d="m89.813 434.2h-34.474c-26.421 0-47.839-21.418-47.839-47.839v-134.075c0-26.421 21.418-47.839 47.839-47.839h34.473c-26.421 0-47.839 21.418-47.839 47.839v134.075c0 26.421 21.419 47.839 47.84 47.839z" fill="#dedbee"/></g><path d="m349.433 201.465c-5.258 0-10.359-2.076-14.141-5.858l-44.457-44.457c-7.811-7.811-7.811-20.474 0-28.284s20.474-7.811 28.284 0l24.555 24.555 35.502-73.452c4.807-9.944 16.764-14.111 26.71-9.303 9.945 4.807 14.11 16.765 9.303 26.71l-47.75 98.792c-2.818 5.831-8.285 9.936-14.671 11.016-1.11.188-2.226.281-3.335.281z" fill="#9be69d"/><path d="m134.516 317.028-31.08-31.08c-7.811-7.811-7.811-20.474 0-28.284 7.811-7.811 20.474-7.811 28.284 0l31.08 31.08 31.08-31.08c7.811-7.811 20.474-7.811 28.284 0s7.811 20.474 0 28.284l-31.08 31.08 31.08 31.08c7.811 7.811 7.811 20.474 0 28.284-3.906 3.906-9.023 5.858-14.142 5.858-5.118 0-10.237-1.953-14.142-5.858l-31.08-31.08-31.08 31.08c-3.905 3.905-9.023 5.858-14.142 5.858s-10.237-1.953-14.142-5.858c-7.811-7.811-7.811-20.474 0-28.284z" fill="#fe646f"/></g><g><path d="m456.66 7.306h-214.92c-30.515 0-55.34 24.825-55.34 55.34v134.07c0 .077.004.153.005.23h-131.065c-30.515 0-55.34 24.825-55.34 55.34v89.62c0 4.142 3.358 7.5 7.5 7.5s7.5-3.358 7.5-7.5v-89.62c0-22.244 18.096-40.34 40.34-40.34h214.92c22.244 0 40.34 18.096 40.34 40.34v134.07c0 22.244-18.097 40.34-40.34 40.34h-111.77c-2.728 0-5.241 1.481-6.562 3.868l-30.802 55.643c-2.33 4.213-6.356 3.549-7.535 3.245-1.18-.305-5.032-1.673-5.032-6.496v-48.76c0-4.142-3.358-7.5-7.5-7.5h-45.719c-22.244 0-40.34-18.097-40.34-40.34v-9.45c0-4.142-3.358-7.5-7.5-7.5s-7.5 3.358-7.5 7.5v9.45c0 30.515 24.825 55.34 55.34 55.34h38.22v41.26c0 10.059 6.544 18.506 16.284 21.02 1.874.484 3.749.718 5.592.718 7.735 0 14.888-4.122 18.816-11.225l28.66-51.772h107.348c30.515 0 55.34-24.826 55.34-55.34v-134.07c0-.077-.006-.153-.006-.23h23.495l28.658 51.77c3.93 7.106 11.083 11.228 18.818 11.228 1.843 0 3.719-.234 5.592-.717 9.74-2.514 16.284-10.961 16.284-21.02v-41.26h38.22c30.515 0 55.34-24.825 55.34-55.34v-134.072c-.001-30.514-24.826-55.34-55.341-55.34zm40.34 189.411c0 22.244-18.096 40.34-40.34 40.34h-45.72c-4.142 0-7.5 3.358-7.5 7.5v48.76c0 4.822-3.852 6.191-5.032 6.496s-5.205.968-7.537-3.248l-30.8-55.64c-1.321-2.387-3.833-3.868-6.562-3.868h-30.058c-6.633-23.129-27.96-40.11-53.192-40.11h-68.855c0-.077-.005-.153-.005-.23v-134.071c0-22.244 18.097-40.34 40.34-40.34h214.92c22.244 0 40.34 18.096 40.34 40.34v134.071z"/><path d="m409.154 57.914c-6.615-3.197-14.079-3.627-21.018-1.211-6.938 2.417-12.517 7.39-15.709 14l-30.917 63.949-17.088-17.087c-10.722-10.721-28.167-10.722-38.883-.003-5.201 5.194-8.065 12.101-8.065 19.446 0 7.346 2.864 14.252 8.061 19.443l44.45 44.46c5.195 5.196 12.101 8.058 19.444 8.058 1.552 0 3.102-.13 4.59-.385 8.759-1.48 16.299-7.144 20.172-15.15l19.14-39.59c1.803-3.729.241-8.214-3.488-10.017-3.729-1.801-8.214-.241-10.017 3.488l-19.14 39.589c-1.761 3.642-5.188 6.218-9.183 6.893-.67.115-1.368.173-2.075.173-3.288 0-6.509-1.335-8.836-3.663l-44.452-44.467c-2.363-2.36-3.665-5.498-3.665-8.833s1.301-6.473 3.668-8.836c4.873-4.872 12.801-4.872 17.674 0l24.55 24.55c1.718 1.718 4.163 2.496 6.554 2.092 2.395-.405 4.445-1.944 5.502-4.13l35.512-73.453c1.45-3.003 3.985-5.262 7.137-6.36 3.155-1.099 6.548-.902 9.552.55 6.205 3.002 8.813 10.492 5.814 16.695l-13.39 27.7c-1.803 3.729-.241 8.214 3.488 10.017 3.73 1.804 8.214.242 10.017-3.488l13.39-27.7c6.597-13.65.861-30.125-12.789-36.73z"/><path d="m227.468 252.361c-5.194-5.194-12.1-8.055-19.445-8.055s-14.251 2.86-19.445 8.055l-25.778 25.776-25.776-25.776c-5.194-5.195-12.1-8.056-19.445-8.055-7.346 0-14.251 2.86-19.446 8.055-5.194 5.194-8.055 12.1-8.055 19.445 0 7.346 2.86 14.251 8.055 19.445l25.776 25.776-25.776 25.776c-10.722 10.722-10.722 28.168 0 38.891 5.194 5.194 12.1 8.055 19.445 8.055s14.251-2.86 19.445-8.055l25.776-25.776 25.777 25.776c5.194 5.194 12.1 8.055 19.445 8.055s14.251-2.86 19.445-8.055c10.722-10.722 10.722-28.168 0-38.891l-25.776-25.776 25.776-25.776c10.724-10.722 10.724-28.168.002-38.89zm-10.607 28.284-31.08 31.08c-2.929 2.929-2.929 7.678 0 10.606l31.08 31.08c4.874 4.874 4.874 12.804 0 17.678-2.361 2.361-5.5 3.661-8.839 3.661s-6.478-1.3-8.839-3.661l-31.08-31.08c-1.464-1.464-3.384-2.197-5.303-2.197s-3.839.732-5.303 2.197l-31.08 31.08c-2.361 2.361-5.5 3.661-8.839 3.661s-6.478-1.3-8.839-3.661c-4.874-4.874-4.874-12.804 0-17.678l31.08-31.08c2.929-2.929 2.929-7.678 0-10.606l-31.08-31.08c-4.874-4.874-4.874-12.804 0-17.678 2.361-2.361 5.5-3.661 8.839-3.661 3.338 0 6.478 1.3 8.838 3.661l31.08 31.08c2.928 2.929 7.677 2.929 10.606 0l31.08-31.08c2.361-2.361 5.5-3.661 8.839-3.661s6.478 1.3 8.839 3.661 3.661 5.5 3.661 8.839-1.299 6.478-3.66 8.839z"/></g></g></svg>