<?xml version="1.0" encoding="UTF-8"?>
<svg width="512px" height="463px" viewBox="0 0 512 463" version="1.1" xmlns="http://www.w3.org/2000/svg" xmlns:xlink="http://www.w3.org/1999/xlink">
    <!-- Generator: Sketch 55.2 (78181) - https://sketchapp.com -->
    <title>Group 2</title>
    <desc>Created with Sketch.</desc>
    <g id="Page-1" stroke="none" stroke-width="1" fill="none" fill-rule="evenodd">
        <g id="Group-2" fill-rule="nonzero">
            <g id="conversation">
                <path d="M284.378906,7.5 L55.441406,7.5 C28.964844,7.5 7.5,28.964844 7.5,55.441406 L7.5,187.070312 C7.5,209.742188 23.238281,228.722656 44.386719,233.714844 C44.394531,237.113281 44.21875,240.550781 43.78125,244.011719 C41.578125,261.601562 33.832031,277.136719 22.53125,289.113281 C23.539062,289.28125 24.546875,289.445312 25.570312,289.574219 C64.355469,294.4375 100.136719,270.800781 111.90625,235.011719 L284.378906,235.011719 C310.851562,235.011719 332.316406,213.546875 332.316406,187.070312 L332.316406,55.4375 C332.316406,28.964844 310.855469,7.5 284.378906,7.5 Z" id="Path" fill="#FED89B"></path>
                <path d="M24.726562,289.445312 C25.007812,289.488281 25.285156,289.539062 25.570312,289.574219 C64.355469,294.4375 100.136719,270.796875 111.90625,235.007812 L89.996094,235.007812 C80.402344,264.183594 54.851562,285.277344 24.726562,289.445312 L24.726562,289.445312 Z" id="Path" fill="#D69E5B"></path>
                <path d="M284.378906,7.5 L262.46875,7.5 C288.941406,7.5 310.40625,28.964844 310.40625,55.4375 L310.40625,187.070312 C310.40625,213.546875 288.945312,235.011719 262.46875,235.011719 L284.378906,235.011719 C310.855469,235.011719 332.316406,213.546875 332.316406,187.070312 L332.316406,55.4375 C332.316406,28.964844 310.855469,7.5 284.378906,7.5 L284.378906,7.5 Z" id="Path" fill="#D69E5B"></path>
                <path d="M452.578125,397.429688 C484.292969,376.96875 504.5,346.050781 504.5,311.453125 C504.5,249.847656 440.429688,199.90625 361.390625,199.90625 C282.355469,199.90625 218.285156,249.847656 218.285156,311.453125 C218.285156,373.0625 282.355469,423.003906 361.390625,423.003906 C373.027344,423.003906 384.335938,421.914062 395.164062,419.871094 C411.65625,443.792969 440.566406,457.933594 471.386719,454.066406 C472.40625,453.9375 473.414062,453.773438 474.421875,453.609375 C463.125,441.628906 455.378906,426.09375 453.171875,408.503906 C452.703125,404.777344 452.53125,401.082031 452.578125,397.429688 L452.578125,397.429688 Z" id="Path" fill="#C8DB74"></path>
                <path d="M387.527344,201.765625 C379.054688,200.546875 370.320312,199.90625 361.390625,199.90625 C282.355469,199.90625 218.28125,249.847656 218.28125,311.453125 C218.28125,311.71875 218.292969,311.976562 218.296875,312.238281 C235.03125,324.628906 253.652344,337.074219 261.941406,342.539062 C264.613281,344.300781 268.054688,344.300781 270.726562,342.539062 C283.488281,334.128906 320.742188,309.167969 337.890625,293.328125 C356.003906,276.601562 372.355469,257.183594 381.160156,234.152344 C385.085938,223.878906 387.335938,212.789062 387.527344,201.765625 L387.527344,201.765625 Z" id="Path" fill="#98AF52"></path>
                <path d="M452.578125,397.429688 C484.292969,376.96875 504.5,346.050781 504.5,311.453125 C504.5,249.847656 440.429688,199.90625 361.390625,199.90625 C359.429688,199.90625 357.480469,199.945312 355.535156,200.003906 C425.855469,202.402344 482,251.378906 482,311.453125 C482,346.050781 463.382812,376.96875 434.160156,397.429688 C434.117188,401.082031 434.277344,404.773438 434.707031,408.503906 C436.738281,426.09375 443.875,441.628906 454.285156,453.605469 C453.359375,453.773438 452.429688,453.9375 451.488281,454.066406 C451.449219,454.070312 451.410156,454.074219 451.371094,454.078125 C457.875,454.894531 464.585938,454.917969 471.386719,454.066406 C472.40625,453.9375 473.414062,453.773438 474.421875,453.605469 C463.121094,441.628906 455.378906,426.09375 453.171875,408.503906 C452.703125,404.777344 452.53125,401.082031 452.578125,397.429688 Z" id="Path" fill="#98AF52"></path>
                <path d="M260.390625,319.539062 C257.71875,321.300781 254.28125,321.300781 251.609375,319.539062 C238.847656,311.128906 201.589844,286.167969 184.445312,270.332031 C166.332031,253.601562 149.976562,234.183594 141.175781,211.152344 C132.371094,188.121094 131.964844,160.992188 144.394531,139.699219 C154.597656,122.226562 173.132812,109.898438 193.175781,107.15625 C216.683594,103.941406 241.519531,114.015625 256,132.851562 C270.484375,114.015625 295.316406,103.941406 318.824219,107.15625 C338.871094,109.898438 357.40625,122.226562 367.605469,139.699219 C380.039062,160.992188 379.632812,188.121094 370.828125,211.152344 C362.023438,234.183594 345.671875,253.601562 327.558594,270.332031 C310.410156,286.167969 273.152344,311.128906 260.390625,319.539062 L260.390625,319.539062 Z" id="Path" fill="#EA6789"></path>
                <path d="M367.605469,139.699219 C357.402344,122.226562 338.871094,109.898438 318.824219,107.15625 C316.460938,106.832031 314.082031,106.648438 311.703125,106.589844 C325.191406,112.171875 336.914062,122.082031 344.28125,134.699219 C356.714844,155.992188 356.308594,183.121094 347.503906,206.152344 C338.699219,229.183594 322.347656,248.601562 304.234375,265.328125 C288.464844,279.898438 255.695312,302.171875 240.605469,312.195312 C245.089844,315.222656 248.902344,317.753906 251.609375,319.539062 C254.28125,321.300781 257.722656,321.300781 260.394531,319.539062 C273.15625,311.128906 310.410156,286.167969 327.558594,270.328125 C345.671875,253.601562 362.023438,234.183594 370.828125,211.152344 C379.628906,188.117188 380.035156,160.992188 367.605469,139.699219 Z" id="Path" fill="#C7416A"></path>
                <path d="M83.816406,78.234375 L256,78.234375 C260.140625,78.234375 263.5,74.878906 263.5,70.734375 C263.5,66.59375 260.140625,63.234375 256,63.234375 L83.816406,63.234375 C79.675781,63.234375 76.316406,66.59375 76.316406,70.734375 C76.316406,74.878906 79.675781,78.234375 83.816406,78.234375 Z" id="Path" fill="#000000"></path>
                <path d="M460.613281,407.570312 C460.363281,405.582031 460.199219,403.523438 460.121094,401.417969 C493.148438,378.78125 512,346.199219 512,311.453125 C512,259.863281 470.417969,214.402344 408.523438,198.335938 C404.519531,197.296875 400.421875,199.703125 399.382812,203.710938 C398.339844,207.722656 400.746094,211.816406 404.757812,212.855469 C459.929688,227.179688 497,266.800781 497,311.453125 C497,342.207031 479.328125,371.246094 448.511719,391.125 C446.402344,392.488281 445.113281,394.816406 445.078125,397.332031 C444.84375,415.65625 450.175781,432.855469 459.742188,447.183594 C436.53125,446.691406 414.816406,435.15625 401.34375,415.613281 C399.65625,413.171875 396.695312,411.949219 393.777344,412.503906 C383.210938,414.496094 372.3125,415.507812 361.394531,415.507812 C341.335938,415.507812 322.019531,412.214844 303.988281,405.722656 C300.089844,404.320312 295.792969,406.339844 294.390625,410.238281 C292.988281,414.132812 295.011719,418.429688 298.90625,419.835938 C318.574219,426.914062 339.597656,430.507812 361.394531,430.507812 C371.636719,430.507812 381.867188,429.6875 391.867188,428.066406 C411.429688,453.375 443.230469,466.335938 475.636719,461.011719 C478.375,460.5625 480.640625,458.640625 481.527344,456.011719 C482.417969,453.382812 481.78125,450.480469 479.878906,448.464844 C469.210938,437.15625 462.550781,423.015625 460.613281,407.570312 L460.613281,407.570312 Z" id="Path" fill="#000000"></path>
                <path d="M277.0625,392.882812 C244.472656,372.953125 225.78125,343.277344 225.78125,311.460938 C225.78125,311.359375 225.78125,311.261719 225.78125,311.160156 C234.492188,317.179688 242.308594,322.390625 247.480469,325.800781 C250.070312,327.507812 253.035156,328.359375 256,328.359375 C258.96875,328.359375 261.933594,327.507812 264.519531,325.800781 C277.175781,317.460938 305.621094,298.347656 324.332031,283.019531 L417.242188,283.019531 C421.382812,283.019531 424.742188,279.664062 424.742188,275.519531 C424.742188,271.378906 421.382812,268.019531 417.242188,268.019531 L340.765625,268.019531 C358.625,250.054688 370.792969,232.246094 377.832031,213.828125 C388.175781,186.777344 386.769531,157.652344 374.082031,135.917969 C366.308594,122.605469 354,111.875 339.820312,105.503906 L339.820312,55.4375 C339.820312,24.871094 314.949219,-2.84217094e-14 284.382812,-2.84217094e-14 L55.441406,-2.84217094e-14 C48.648438,-2.84217094e-14 42.007812,1.21875 35.691406,3.621094 C31.820312,5.09375 29.878906,9.425781 31.351562,13.296875 C32.824219,17.167969 37.152344,19.113281 41.027344,17.640625 C45.628906,15.886719 50.480469,15 55.441406,15 L284.378906,15 C306.679688,15 324.820312,33.140625 324.820312,55.4375 L324.820312,100.589844 C300.398438,95.433594 273.808594,103.554688 256,121.488281 C239.59375,104.96875 215.441406,96.539062 192.15625,99.722656 C177.976562,101.664062 164.371094,108.027344 153.460938,117.398438 L83.820312,117.398438 C79.679688,117.398438 76.320312,120.757812 76.320312,124.898438 C76.320312,129.042969 79.679688,132.398438 83.820312,132.398438 L140.117188,132.398438 C132.386719,143.984375 128.347656,157.664062 127.480469,171.570312 L83.820312,171.570312 C79.679688,171.570312 76.320312,174.925781 76.320312,179.070312 C76.320312,183.210938 79.679688,186.570312 83.820312,186.570312 L127.738281,186.570312 C128.601562,195.652344 130.738281,204.855469 134.167969,213.828125 C148.632812,251.671875 180.839844,279.058594 211.355469,301.003906 C210.972656,304.480469 210.777344,307.980469 210.777344,311.460938 C210.777344,348.625 232.085938,382.964844 269.238281,405.679688 C270.457031,406.425781 271.808594,406.78125 273.140625,406.78125 C275.667969,406.78125 278.132812,405.503906 279.546875,403.191406 C281.710938,399.65625 280.597656,395.039062 277.0625,392.882812 L277.0625,392.882812 Z M148.179688,208.472656 C144.496094,198.84375 142.546875,188.960938 142.300781,179.40625 C142.308594,179.296875 142.308594,179.183594 142.308594,179.070312 C142.308594,178.855469 142.300781,178.644531 142.28125,178.4375 C141.402344,113.921875 216.265625,93.480469 250.054688,137.421875 C251.472656,139.269531 253.671875,140.351562 256,140.351562 C258.328125,140.351562 260.527344,139.269531 261.945312,137.421875 C274.828125,120.671875 296.753906,111.707031 317.808594,114.585938 C321.855469,115.140625 325.839844,116.144531 329.691406,117.546875 C329.722656,117.558594 329.753906,117.570312 329.789062,117.582031 C342.773438,122.335938 354.207031,131.625 361.128906,143.480469 C371.546875,161.328125 372.554688,185.625 363.820312,208.472656 C346.214844,254.535156 297.488281,286.105469 256.265625,313.273438 C256.097656,313.386719 255.902344,313.386719 255.734375,313.277344 C214.949219,286.394531 165.605469,254.070312 148.179688,208.472656 L148.179688,208.472656 Z" id="Shape" fill="#000000"></path>
                <path d="M121.453125,227.511719 L111.90625,227.511719 C108.667969,227.511719 105.796875,229.589844 104.78125,232.664062 C95.0625,262.21875 67.632812,281.988281 37.21875,282.679688 C44.726562,271.433594 49.511719,258.613281 51.226562,244.945312 C51.683594,241.304688 51.898438,237.625 51.886719,233.691406 C51.875,230.222656 49.484375,227.210938 46.109375,226.414062 C27.792969,222.089844 15,205.910156 15,187.070312 L15,55.4375 C15,47.621094 17.234375,40.035156 21.457031,33.503906 C23.707031,30.027344 22.714844,25.382812 19.234375,23.132812 C15.757812,20.882812 11.113281,21.878906 8.863281,25.355469 C3.066406,34.320312 0,44.722656 0,55.4375 L0,187.070312 C0,210.808594 14.816406,231.464844 36.710938,239.257812 C36.621094,240.550781 36.5,241.820312 36.339844,243.078125 C34.40625,258.519531 27.742188,272.660156 17.078125,283.96875 C12.960938,288.335938 15.398438,295.550781 21.328125,296.515625 C62.980469,303.28125 102.257812,279.773438 117.15625,242.507812 L121.453125,242.507812 C125.59375,242.507812 128.953125,239.152344 128.953125,235.007812 C128.953125,230.867188 125.59375,227.511719 121.453125,227.511719 Z" id="Path" fill="#000000"></path>
                <path d="M424.738281,311.421875 C424.738281,307.277344 421.382812,303.921875 417.238281,303.921875 L305.542969,303.921875 C301.402344,303.921875 298.042969,307.277344 298.042969,311.421875 C298.042969,315.5625 301.402344,318.921875 305.542969,318.921875 L417.238281,318.921875 C421.382812,318.921875 424.738281,315.5625 424.738281,311.421875 Z" id="Path" fill="#000000"></path>
                <path d="M305.542969,339.816406 C301.402344,339.816406 298.042969,343.175781 298.042969,347.316406 C298.042969,351.460938 301.402344,354.816406 305.542969,354.816406 L364.941406,354.816406 C369.082031,354.816406 372.441406,351.460938 372.441406,347.316406 C372.441406,343.175781 369.082031,339.816406 364.941406,339.816406 L305.542969,339.816406 Z" id="Path" fill="#000000"></path>
                <path d="M422.710938,142.15625 C422.710938,146.300781 426.066406,149.65625 430.210938,149.65625 L459.824219,149.65625 C463.964844,149.65625 467.324219,146.300781 467.324219,142.15625 C467.324219,138.015625 463.964844,134.65625 459.824219,134.65625 L430.210938,134.65625 C426.066406,134.65625 422.710938,138.015625 422.710938,142.15625 L422.710938,142.15625 Z" id="Path" fill="#000000"></path>
                <path d="M412.527344,106.972656 C414.449219,106.972656 416.367188,106.238281 417.832031,104.773438 L438.773438,83.835938 C441.699219,80.90625 441.699219,76.15625 438.773438,73.226562 C435.84375,70.300781 431.09375,70.300781 428.164062,73.226562 L407.226562,94.167969 C404.296875,97.097656 404.296875,101.847656 407.226562,104.773438 C408.691406,106.238281 410.609375,106.972656 412.527344,106.972656 L412.527344,106.972656 Z" id="Path" fill="#000000"></path>
                <path d="M369.84375,89.289062 C373.984375,89.289062 377.34375,85.933594 377.34375,81.789062 L377.34375,52.175781 C377.34375,48.03125 373.984375,44.675781 369.84375,44.675781 C365.699219,44.675781 362.34375,48.03125 362.34375,52.175781 L362.34375,81.789062 C362.34375,85.933594 365.699219,89.289062 369.84375,89.289062 Z" id="Path" fill="#000000"></path>
            </g>
            <g id="talking-(2)" transform="translate(123.000000, 56.000000)">
                <g id="Group" transform="translate(7.000000, 8.000000)">
                    <path d="M249.051447,44.3465132 C223.743511,17.4808224 187.979489,0.565065789 148.340553,0.185131579 C70.4158085,-0.575822368 6.6462766,64.0531579 6.6462766,142.008059 L6.6462766,200.998816 C6.6462766,234.939967 34.1504681,262.454803 68.0784894,262.454803 L103.074255,262.454803 L103.074255,239.177862 L237.45383,71.008125 C251.304128,71.0178947 258.553723,54.4364803 249.051447,44.3465132 Z" id="Path" fill="#6A647F"></path>
                    <path d="M68.9172766,131.316711 C68.9172766,66.4315461 112.543979,12.5612171 169.837596,2.04572368 C162.831064,0.891809211 155.653085,0.255690789 148.341638,0.185131579 C70.4168936,-0.575822368 6.6473617,64.0531579 6.6473617,142.008059 L6.6473617,200.998816 C6.6473617,234.939967 34.1515532,262.454803 68.0795745,262.454803 L103.07534,262.454803 L103.07534,239.177862 L110.393298,230.020362 C84.9735957,205.982467 68.9172766,170.676809 68.9172766,131.316711 Z" id="Path" fill="#5C586F"></path>
                    <path d="M223.283426,308.697138 C223.283426,268.207007 189.194809,239.177862 189.194809,239.177862 L103.07534,239.177862 C103.07534,239.177862 68.9867234,268.207007 68.9867234,308.697138 L223.283426,308.697138 Z" id="Path" fill="#FDD89F"></path>
                    <path d="M254.817702,140.533914 C254.817702,200.405033 206.084489,248.887895 146.134532,248.442829 C130.792213,248.33102 116.229,245.029934 103.07534,239.177862 C65.3092979,222.410822 39.0931277,184.593257 39.0931277,140.533914 C39.0931277,128.039507 41.2166809,116.043355 45.1219787,104.88523 C52.2522128,84.5109868 71.6615106,71.0092105 93.2399362,71.0092105 L237.456,71.0092105 C253.287702,89.7877303 254.817702,114.048158 254.817702,140.533914 Z" id="Path" fill="#DA9D81"></path>
                    <path d="M68.9172766,131.316711 C68.9172766,110.080559 73.5962553,90.0254605 81.8918936,72.2814474 C65.0922766,76.081875 50.9717872,88.1659539 45.1208936,104.884145 C44.9299149,105.429079 44.7638936,105.985954 44.5815957,106.53523 C42.3788298,105.979441 39.9449362,105.67875 37.2408511,105.67875 C16.973234,105.67875 0.542553191,122.115789 0.542553191,142.39125 C0.542553191,162.666711 16.9721489,179.10375 37.2408511,179.10375 C40.422383,179.10375 43.2404043,178.697763 45.7328936,177.936809 C55.7983404,205.296414 76.5878936,227.418355 103.07534,239.177862 C112.817426,243.511283 123.333191,246.442204 134.364383,247.718783 C95.4774255,225.862796 68.9172766,181.942401 68.9172766,131.316711 Z" id="Path" fill="#C7856A"></path>
                </g>
                <g id="Group" fill="#000000">
                    <path d="M114.395604,132.396746 C109.905676,132.396746 106.265604,136.039322 106.265604,140.532339 L106.265604,151.652068 C106.265604,156.145085 109.905676,159.787661 114.395604,159.787661 C118.885532,159.787661 122.525604,156.145085 122.525604,151.652068 L122.525604,140.532339 C122.525604,136.039322 118.885532,132.396746 114.395604,132.396746 Z" id="Path"></path>
                    <path d="M230.052984,132.396746 C225.563056,132.396746 221.922984,136.039322 221.922984,140.532339 L221.922984,151.652068 C221.922984,156.145085 225.563056,159.787661 230.052984,159.787661 C234.542912,159.787661 238.182984,156.145085 238.182984,151.652068 L238.182984,140.532339 C238.182984,136.039322 234.542912,132.396746 230.052984,132.396746 Z" id="Path"></path>
                    <path d="M192.812164,145.188068 C189.427916,142.236475 184.293008,142.589017 181.34236,145.976678 C179.039944,148.620203 175.7164,150.136678 172.224836,150.136678 C168.733272,150.136678 165.409728,148.620203 163.107312,145.976678 C160.156664,142.590102 155.021756,142.236475 151.637508,145.188068 C148.252176,148.139661 147.899876,153.279186 150.84944,156.665763 C156.240172,162.856407 164.031964,166.40678 172.224836,166.40678 C180.417708,166.40678 188.208416,162.856407 193.600232,156.665763 C196.549796,153.279186 196.196412,148.139661 192.812164,145.188068 Z" id="Path"></path>
                    <path d="M75.597076,278.935051 L77.297872,278.935051 C72.159712,289.858441 68.374384,302.730034 68.374384,317.006373 C68.374384,321.49939 72.014456,325.141966 76.504384,325.141966 L230.636176,325.141966 C235.126104,325.141966 238.766176,321.49939 238.766176,317.006373 C238.766176,286.688814 221.841684,262.732203 210.795724,250.328136 C246.536288,230.335186 270.267216,192.383186 270.267216,148.972746 C270.267216,125.646373 269.185384,103.088 257.815308,83.8587119 C269.613564,76.2524746 273.183176,58.8466441 262.294396,47.2810847 C214.2797,-3.70522034 141.2181,-12.1271864 85.1753,18.1035932 C81.223036,20.2351186 79.745544,25.1696271 81.876688,29.1246102 C84.007832,33.0795932 88.941116,34.5581017 92.890128,32.4254915 C143.219164,5.27755932 208.080304,13.4348475 250.460368,58.4387797 C253.637572,61.8134237 252.358452,65.6078644 251.891248,66.6904407 C249.755768,71.6314576 244.686984,71.4253559 244.795384,71.3667797 C237.92174,71.3667797 100.934492,71.3646102 100.628804,71.3689492 C77.540688,71.4025763 56.299708,84.9358644 46.827716,106.056949 C41.245116,105.805288 34.961168,106.62861 29.025184,108.857763 C36.382292,86.5044068 49.612512,66.2023051 67.418296,50.3140339 C70.770024,47.3244746 71.063788,42.1816949 68.076284,38.8287458 C65.087696,35.4747119 59.948452,35.1807458 56.597808,38.1713898 C31.176924,60.8534237 14.087664,91.5799322 8.31428,124.876203 C-1.981552,139.323932 -2.707832,158.27878 6.10292,173.366508 L6.10292,209.394169 C6.101836,247.738847 37.277676,278.935051 75.597076,278.935051 Z M41.575736,122.460475 C39.607192,130.827119 38.512352,139.909695 38.512352,148.971661 C38.55788,149.565017 38.170892,163.190508 42.50364,179.274034 C19.683272,177.457085 8.269836,150.676881 22.589476,132.926102 C27.155284,127.274576 33.50644,123.52678 41.575736,122.460475 Z M75.597076,262.664949 C46.242356,262.664949 22.360752,238.766915 22.360752,209.392 L22.360752,189.631186 C29.83168,193.957153 38.853812,196.223186 48.204396,195.515932 C57.959312,217.79878 74.994372,237.274305 96.896592,249.723932 C93.838628,253.120271 90.261428,257.472271 86.684228,262.664949 L75.597076,262.664949 Z M221.991276,308.871864 L200.872788,308.871864 L200.872788,291.982373 C200.872788,287.489356 197.232716,283.84678 192.742788,283.84678 C188.25286,283.84678 184.612788,287.489356 184.612788,291.982373 L184.612788,308.871864 L122.52452,308.871864 L122.52452,291.982373 C122.52452,287.489356 118.884448,283.84678 114.39452,283.84678 C109.904592,283.84678 106.26452,287.489356 106.26452,291.982373 L106.26452,308.871864 L85.150368,308.871864 C88.29722,284.021424 104.965888,264.591458 112.327332,257.091525 C137.420848,267.025627 167.771764,267.897763 195.267424,257.543864 C202.80556,265.292203 218.9138,284.406508 221.991276,308.871864 L221.991276,308.871864 Z M113.856856,240.106576 C113.855772,240.106576 113.854688,240.105492 113.853604,240.105492 C66.684428,219.159051 43.20824,165.06061 60.336524,116.039864 C66.280096,99.051661 82.512996,87.6368814 100.729616,87.6368814 L240.844204,87.6368814 C252.953568,104.237831 254.005048,126.124746 254.005048,148.972746 C254.005048,220.225356 181.633956,269.229831 113.856856,240.106576 Z" id="Shape"></path>
                </g>
            </g>
        </g>
    </g>
</svg>