<svg width="104px" height="52px" viewBox="0 0 104 52" version="1.1" xmlns="http://www.w3.org/2000/svg" xmlns:xlink="http://www.w3.org/1999/xlink"><title>Group 2</title><desc>Created with Sketch.</desc><g id="Page-1" stroke="none" stroke-width="1" fill="none" fill-rule="evenodd"><g id="20651" transform="translate(-120.000000, -11.000000)"><g id="Group-2" transform="translate(120.000000, 11.000000)"><path d="M97.6802517,5.51154098 L97.6012517,5.52054098 C95.9362517,5.71554098 94.2672517,5.89254098 92.6042517,6.10654098 C91.1342517,6.29554098 89.7962517,7.09054098 88.4502517,7.68554098 C85.3132517,9.07154098 82.1712517,10.444541 79.0222517,11.801541 C75.5962517,13.288541 72.1132517,14.646541 68.8962517,16.539541 C65.2732517,18.676541 61.5232517,19.198541 59.7582517,23.506541 C58.6082517,26.340541 57.9812517,29.394541 57.9112517,32.448541 C57.8652517,34.631541 58.2712517,36.233541 57.7022517,38.219541 C57.6442517,38.416541 57.5752517,38.625541 57.4932517,38.834541 C56.5992517,41.157541 55.7172517,43.258541 54.0912517,45.174541 C53.4872517,45.894541 52.8022517,46.580541 51.9202517,46.893541 C50.4802517,47.404541 48.8542517,46.812541 47.3682517,47.149541 C46.3342517,47.381541 45.4522517,48.043541 44.5572517,48.612541 C40.8762517,50.992541 36.4062517,52.142541 32.0282517,51.840541 C28.0682517,51.561541 24.3062517,50.144541 20.3702517,49.680541 C18.6282517,49.471541 17.1182517,49.773541 15.4352517,49.854541 C13.2752517,49.947541 11.1262517,49.436541 8.93225172,49.622541 C5.91325172,49.866541 1.07025172,49.541541 0.107251721,45.918541 C-0.00974827886,45.488541 -0.0207482789,45.012541 0.0252517211,44.513541 C0.141251721,43.258541 0.652251721,41.865541 1.12825172,40.901541 C1.70925172,39.717541 2.29025172,38.532541 3.03325172,37.429541 C3.34625172,36.976541 3.69525172,36.523541 4.00825172,36.059541 C5.08825172,34.480541 5.86625172,32.842541 6.14525172,30.985541 C6.19125172,30.741541 6.21525172,30.474541 6.23825172,30.218541 C6.41225172,28.024541 6.24925172,25.805541 6.59825172,23.611541 C6.69125172,23.065541 6.79525172,22.531541 6.93425172,22.020541 C8.72325172,15.297541 14.5752517,11.163541 21.5192517,10.385541 C28.7302517,9.57254098 34.3622517,13.776541 41.1322517,15.239541 C42.8512517,15.599541 44.6272517,15.703541 46.3812517,15.784541 C51.9202517,16.040541 57.1572517,16.191541 62.5442517,14.821541 C62.7192517,14.774541 62.8932517,14.739541 63.0552517,14.693541 C68.7222517,13.230541 74.4932517,12.486541 79.8812517,10.129541 C82.8522517,8.83054098 85.9212517,7.77554098 88.9882517,6.73154098 C89.7432517,6.47454098 90.5662517,6.27754098 91.2902517,5.94554098 C91.9962517,5.62254098 92.3202517,5.15354098 92.8252517,4.54254098 C93.9322517,3.20554098 95.0392517,1.86954098 96.1452517,0.532540984 C96.2752517,0.375540984 96.4112517,0.213540984 96.5922517,0.119540984 C96.7982517,0.0135409836 97.0382517,0.00654098361 97.2702517,0.00354098361 C99.0812517,-0.0204590164 100.893252,0.0775409836 102.691252,0.297540984 C102.944252,0.328540984 103.225252,0.377540984 103.377252,0.581540984 C103.615252,0.901540984 103.384252,1.34854098 103.155252,1.67454098 C102.159252,3.09354098 101.059252,4.59254098 99.4242517,5.16854098 C98.8642517,5.36554098 98.2702517,5.44154098 97.6802517,5.51154098" id="Fill-854" fill="#253537"></path><path d="M37.4642517,50.743541 C38.2822517,50.555541 38.8402517,50.535541 39.5412517,50.080541 C40.3982517,49.524541 41.2892517,49.014541 42.1802517,48.515541 C41.4562517,47.872541 40.3992517,47.784541 39.4342517,47.849541 C38.4682517,47.915541 37.4872517,48.100541 36.5442517,47.883541 C35.5602517,47.657541 35.3132517,47.647541 34.5812517,48.223541 C34.0582517,48.635541 33.4662517,48.942541 33.0822517,49.518541 C32.9642517,49.694541 32.3292517,50.958541 32.1652517,50.958541 C33.9402517,51.083541 35.7122517,51.145541 37.4642517,50.743541" id="Fill-855" fill="#1C2D31"></path><path d="M18.4342517,46.049541 C18.8872517,45.090541 19.1772517,44.055541 19.2892517,43.000541 C18.2682517,44.132541 17.3122517,45.322541 16.4272517,46.562541 C16.2442517,46.818541 16.0622517,47.078541 15.8242517,47.283541 C14.8942517,48.085541 13.3642517,47.851541 12.4602517,48.683541 C12.5522517,49.024541 12.8762517,49.256541 13.2112517,49.371541 C14.1522517,49.693541 15.3202517,49.525541 16.2932517,49.493541 C17.5442517,49.453541 18.7952517,49.412541 20.0452517,49.371541 C20.0662517,49.370541 19.3712517,48.162541 19.2842517,48.021541 C18.9012517,47.398541 18.6332517,46.753541 18.4342517,46.049541" id="Fill-856" fill="#1C2D31"></path><path d="M51.0512517,36.848541 C50.4822517,36.922541 49.9132517,36.997541 49.3442517,37.071541 C49.1782517,37.093541 49.0042517,37.118541 48.8702517,37.218541 C48.5532517,37.455541 48.6322517,37.944541 48.7542517,38.321541 C49.0642517,39.284541 49.4822517,40.275541 50.2952517,40.876541 C50.6442517,41.134541 51.0502517,41.307541 51.3952517,41.569541 C51.9042517,41.956541 52.2622517,42.535541 52.3802517,43.163541 C52.4112517,43.329541 52.4292517,43.505541 52.5242517,43.644541 C52.6812517,43.874541 52.9982517,43.932541 53.2752517,43.908541 C54.7762517,43.777541 55.3402517,42.265541 55.2472517,40.909541 C55.1722517,39.828541 54.5512517,39.597541 53.6632517,38.900541 C53.2532517,38.577541 51.5142517,36.787541 51.0512517,36.848541" id="Fill-857" fill="#1C2D31"></path><path d="M56.0442517,38.880541 C55.3782517,39.755541 54.5732517,40.354541 54.0302517,41.313541 C53.5242517,42.205541 52.9352517,43.058541 52.1552517,43.733541 C51.0272517,44.709541 49.4182517,44.809541 47.9412517,45.017541 C46.4292517,45.230541 44.4532517,45.500541 43.1242517,46.296541 C41.7522517,47.118541 40.8432517,48.406541 39.2842517,49.006541 C38.1172517,49.455541 36.5172517,49.444541 35.2682517,49.544541 C33.7332517,49.667541 32.1892517,49.586541 30.6582517,49.452541 C28.6462517,49.276541 26.6432517,49.007541 24.6542517,48.659541 C23.7022517,48.492541 22.7002517,48.366541 21.7752517,48.081541 C21.2462517,47.917541 20.8092517,47.676541 20.2462517,47.647541 C18.3082517,47.547541 16.2332517,48.035541 14.2842517,48.118541 C12.3242517,48.201541 10.3562517,48.182541 8.40225172,47.981541 C6.99725172,47.836541 5.56725172,47.585541 4.34425172,46.879541 C3.12125172,46.173541 2.12925172,44.931541 2.05625172,43.521541 C1.97025172,41.860541 3.10425172,40.425541 4.02625172,39.040541 C5.81625172,36.353541 6.98825172,33.257541 7.42625172,30.058541 C7.83925172,27.045541 7.63625172,23.853541 8.96825172,21.119541 C9.49725172,20.035541 10.2452517,19.076541 10.9032517,18.064541 C11.4222517,17.266541 11.8892517,16.428541 12.5032517,15.700541 C13.6102517,14.385541 15.1412517,13.493541 16.7262517,12.832541 C20.2642517,11.357541 24.2312517,10.932541 28.0012517,11.626541 C29.9172517,11.978541 31.7002517,12.469541 33.5162517,12.717541 C29.6942517,11.248541 25.8982517,9.89154098 21.5192517,10.385541 C14.5752517,11.163541 8.72325172,15.297541 6.93425172,22.020541 C6.79525172,22.531541 6.69125172,23.065541 6.59825172,23.611541 C6.24925172,25.805541 6.41225172,28.024541 6.23825172,30.218541 C6.21525172,30.474541 6.19125172,30.741541 6.14525172,30.985541 C5.86625172,32.842541 5.08825172,34.480541 4.00825172,36.059541 C3.69525172,36.523541 3.34625172,36.976541 3.03325172,37.429541 C2.29025172,38.532541 1.70925172,39.717541 1.12825172,40.901541 C0.652251721,41.865541 0.141251721,43.258541 0.0252517211,44.513541 C-0.0207482789,45.012541 -0.00974827886,45.488541 0.107251721,45.918541 C1.07025172,49.541541 5.91325172,49.866541 8.93225172,49.622541 C11.1262517,49.436541 13.2752517,49.947541 15.4352517,49.854541 C17.1182517,49.773541 18.6282517,49.471541 20.3702517,49.680541 C24.3062517,50.144541 28.0682517,51.561541 32.0282517,51.840541 C36.4062517,52.142541 40.8762517,50.992541 44.5572517,48.612541 C45.4522517,48.043541 46.3342517,47.381541 47.3682517,47.149541 C48.8542517,46.812541 50.4802517,47.404541 51.9202517,46.893541 C52.8022517,46.580541 53.4872517,45.894541 54.0912517,45.174541 C55.7172517,43.258541 56.5992517,41.157541 57.4932517,38.834541 C57.5752517,38.625541 57.6442517,38.416541 57.7022517,38.219541 C58.2712517,36.233541 57.8652517,34.631541 57.9112517,32.448541 C57.9812517,29.394541 58.6082517,26.340541 59.7582517,23.506541 C61.5232517,19.198541 65.2732517,18.676541 68.8962517,16.539541 C72.1132517,14.646541 75.5962517,13.288541 79.0222517,11.801541 C82.1712517,10.444541 85.3132517,9.07154098 88.4502517,7.68554098 C88.5832517,7.62654098 88.7172517,7.56054098 88.8502517,7.49854098 C82.3582517,9.45254098 75.9562517,11.707541 69.6812517,14.276541 C67.4732517,15.179541 65.2502517,16.139541 63.3882517,17.631541 C59.8872517,20.435541 58.1792517,24.714541 57.3542517,29.008541 C56.9212517,31.261541 56.7102517,33.552541 56.5802517,35.841541 C56.5182517,36.933541 56.6902517,38.032541 56.0442517,38.880541" id="Fill-859" fill="#18282C"></path><path d="M57.7022517,38.219541 C57.6442517,38.416541 57.5752517,38.625541 57.4932517,38.834541 C56.5992517,41.157541 55.7172517,43.258541 54.0912517,45.174541 C53.4872517,45.894541 52.8022517,46.580541 51.9202517,46.893541 C50.4802517,47.404541 48.8542517,46.812541 47.3682517,47.149541 C46.3342517,47.381541 45.4522517,48.043541 44.5572517,48.612541 C40.8762517,50.992541 36.4062517,52.142541 32.0282517,51.840541 C28.0682517,51.561541 24.3062517,50.144541 20.3702517,49.680541 C18.6282517,49.471541 17.1182517,49.773541 15.4352517,49.854541 C13.2752517,49.947541 11.1262517,49.436541 8.93225172,49.622541 C5.91325172,49.866541 1.07025172,49.541541 0.107251721,45.918541 C-0.00974827886,45.488541 -0.0207482789,45.012541 0.0252517211,44.513541 C0.176251721,44.884541 0.374251721,45.232541 0.618251721,45.558541 C0.966251721,46.034541 1.19825172,46.649541 1.66325172,47.032541 C2.34825172,47.590541 3.48625172,47.903541 4.28725172,48.287541 C4.53125172,48.403541 4.77525172,48.519541 5.03025172,48.577541 C5.29725172,48.646541 5.57625172,48.658541 5.85525172,48.670541 C6.78425172,48.705541 7.49225172,48.856541 8.42125172,48.983541 C8.92025172,49.041541 9.46625172,48.821541 9.97725172,48.821541 C11.4282517,48.844541 12.7992517,49.471541 14.2382517,49.645541 C15.9692517,49.854541 17.6992517,49.413541 19.4292517,49.262541 C24.5502517,48.797541 29.5902517,50.864541 34.7342517,50.888541 C36.2662517,50.899541 37.8222517,50.713541 39.2622517,50.191541 C41.6542517,49.308541 43.6172517,47.532541 45.8812517,46.359541 C47.4722517,45.523541 49.2022517,45.000541 50.9792517,44.791541 C51.6992517,44.710541 52.4542517,44.675541 53.0922517,44.327541 C54.5092517,43.572541 54.8112517,41.726541 55.6472517,40.355541 C56.1702517,39.496541 56.8892517,38.811541 57.7022517,38.219541" id="Fill-861" fill="#98A2A1"></path><path d="M62.0952517,17.235541 C59.7362517,18.178541 57.4202517,18.940541 55.1912517,20.154541 C52.6202517,21.553541 50.0792517,23.008541 47.5702517,24.515541 C45.8372517,25.557541 44.1182517,26.624541 42.4162517,27.717541 C39.3822517,29.664541 35.8092517,32.317541 32.0292517,32.076541 C30.5652517,31.982541 29.1112517,31.655541 27.6462517,31.734541 C25.4002517,31.857541 22.7102517,32.784541 21.0532517,34.347541 C19.7662517,35.562541 18.8262517,37.164541 17.1792517,37.953541 C16.3832517,38.335541 15.9652517,39.610541 15.5402517,40.357541 C14.9872517,41.332541 14.3982517,42.303541 13.5692517,43.072541 C12.8672517,43.723541 12.0262517,44.202541 11.1942517,44.674541 C10.3502517,45.153541 9.50025172,45.634541 8.58125172,45.943541 C7.34525172,46.358541 6.02725172,46.446541 4.72725172,46.526541 C4.27425172,46.554541 3.80925172,46.581541 3.37525172,46.449541 C2.94025172,46.318541 2.53525172,45.996541 2.43625172,45.553541 C2.33625172,45.103541 2.56425172,44.649541 2.81225172,44.260541 C3.72025172,42.837541 4.97425172,41.674541 6.21325172,40.528541 C7.45525172,39.380541 8.72025172,38.216541 10.2372517,37.469541 C12.8562517,36.182541 15.3412517,35.583541 17.3762517,33.342541 C19.1732517,31.363541 20.6322517,28.964541 23.2532517,27.983541 C24.2582517,27.607541 25.3302517,27.456541 26.3922517,27.307541 C29.6092517,26.857541 33.0902517,26.725541 36.2372517,25.931541 C37.6252517,25.581541 38.9982517,24.789541 40.3222517,24.235541 C41.8412517,23.598541 43.3662517,22.976541 44.8982517,22.372541 C47.1942517,21.467541 49.5022517,20.593541 51.8192517,19.746541 C53.4802517,19.139541 55.4372517,18.583541 56.8422517,17.468541 C58.2292517,16.368541 59.9272517,15.878541 61.6772517,15.525541 C62.9472517,15.268541 64.2592517,15.165541 65.4712517,14.707541 C66.4302517,14.344541 67.3032517,13.768541 68.2842517,13.470541 C70.7682517,12.716541 73.8052517,13.768541 75.8382517,12.154541 C74.1262517,13.513541 71.5732517,13.905541 69.5292517,14.597541 C67.0212517,15.446541 64.5302517,16.273541 62.0952517,17.235541" id="Fill-862" fill="#334244"></path><path d="M26.9692517,33.915541 C26.9862517,32.752541 24.7822517,32.726541 24.0242517,32.852541 C23.2232517,32.986541 22.3702517,33.356541 21.5802517,33.579541 C21.4422517,33.722541 21.3042517,33.866541 21.1662517,34.009541 C20.8342517,34.354541 20.4782517,34.760541 20.5102517,35.238541 C20.5362517,35.617541 20.8182517,35.945541 21.1592517,36.114541 C21.5002517,36.282541 21.8922517,36.314541 22.2732517,36.303541 C23.3472517,36.273541 24.3892517,35.930541 25.3832517,35.521541 C25.7532517,35.369541 26.1252517,35.204541 26.4282517,34.945541 C26.7322517,34.685541 26.9642517,34.315541 26.9692517,33.915541" id="Fill-863" fill="#0F1F23"></path><path d="M20.5032517,28.968541 C20.0862517,29.107541 19.6662517,29.194541 19.3042517,29.474541 C19.1022517,29.630541 18.9112517,29.854541 18.7232517,30.033541 C18.4012517,30.341541 17.9912517,30.662541 17.8252517,31.086541 C17.7022517,31.401541 17.5902517,31.720541 17.4912517,32.044541 C17.4112517,32.303541 17.3442517,32.601541 17.4882517,32.832541 L17.6152517,32.927541 L17.7412517,32.879541 C18.1312517,32.620541 18.4992517,32.328541 18.8382517,32.005541 C19.8112517,31.082541 20.5342517,29.933541 21.2462517,28.798541 C21.2082517,28.858541 20.6072517,28.934541 20.5032517,28.968541" id="Fill-864" fill="#0F1F23"></path><path d="M25.6782517,33.311541 C25.3012517,33.124541 25.0262517,33.139541 24.6472517,33.197541 C24.4822517,33.222541 24.4972517,33.177541 24.3302517,33.284541 C24.2212517,33.355541 24.1172517,33.441541 24.0182517,33.524541 C23.6332517,33.847541 23.2652517,34.335541 23.9052517,34.616541 C24.0642517,34.686541 24.2242517,34.756541 24.3942517,34.790541 C24.5952517,34.832541 24.8032517,34.822541 25.0072517,34.795541 C25.2122517,34.768541 25.4142517,34.725541 25.6122517,34.665541 C25.7462517,34.624541 25.8812517,34.575541 25.9902517,34.487541 C26.3322517,34.214541 26.2862517,33.716541 25.9572517,33.480541 C25.8662517,33.414541 25.7732517,33.359541 25.6782517,33.311541" id="Fill-865" fill="#4A5859"></path><path d="M43.5432517,36.259541 C43.2872517,36.180541 43.0182517,36.121541 42.7532517,36.158541 C42.5942517,36.180541 42.4392517,36.236541 42.2792517,36.242541 C42.1182517,36.248541 41.9392517,36.189541 41.8692517,36.045541 C41.3392517,37.124541 40.8782517,38.235541 40.4822517,39.370541 C40.0882517,40.501541 40.5022517,41.357541 40.8902517,42.460541 C41.2202517,43.394541 41.5762517,44.355541 42.2632517,45.068541 C43.7442517,46.605541 46.0302517,45.921541 47.9052517,45.762541 L47.8642517,45.770541 L47.9292517,45.712541 C49.0452517,45.388541 50.1992517,45.197541 51.3592517,45.146541 C51.1022517,45.146541 49.9652517,43.146541 49.6902517,42.820541 C48.9652517,41.960541 48.2332517,41.106541 47.5432517,40.216541 C46.2662517,38.570541 45.7222517,36.941541 43.5432517,36.259541" id="Fill-866" fill="#334244"></path><path d="M29.4602517,45.449541 C29.5162517,44.629541 29.7832517,43.837541 29.8902517,43.022541 C30.1582517,40.990541 29.4272517,38.974541 28.7082517,37.055541 C27.9632517,38.018541 27.1902517,39.006541 26.1332517,39.610541 C25.4222517,40.017541 24.6172517,40.228541 23.8652517,40.554541 C22.8522517,40.993541 21.9332517,41.643541 21.1822517,42.452541 C20.7792517,42.886541 20.4162517,43.383541 20.2752517,43.959541 C20.0892517,44.714541 20.3042517,45.504541 20.5192517,46.252541 C20.8082517,47.262541 21.2102517,48.402541 22.1862517,48.789541 C22.5952517,48.951541 23.0472517,48.951541 23.4862517,48.964541 C25.8622517,49.038541 28.1342517,49.938541 30.5132517,49.810541 C29.8612517,48.626541 29.3702517,46.796541 29.4602517,45.449541" id="Fill-867" fill="#334244"></path><path d="M12.2382517,16.176541 C12.0912517,16.163541 11.9352517,16.151541 11.7692517,16.137541 C11.5942517,16.123541 11.4152517,16.109541 11.2482517,16.158541 C11.0382517,16.220541 10.8702517,16.373541 10.7122517,16.523541 C9.42425172,17.751541 7.17925172,20.178541 7.87125172,22.215541 C8.14725172,23.025541 9.36125172,23.546541 10.1062517,23.737541 C10.9812517,23.961541 11.8952517,23.960541 12.7982517,23.958541 C13.7442517,23.955541 14.6902517,23.953541 15.6362517,23.950541 C15.8772517,23.949541 16.1212517,23.948541 16.3522517,23.882541 C16.6292517,23.803541 16.8712517,23.635541 17.1082517,23.470541 C17.5032517,23.194541 17.8982517,22.919541 18.2942517,22.643541 C18.5662517,22.453541 18.8662517,22.216541 18.8842517,21.885541 C18.9272517,21.071541 17.4552517,20.259541 16.9632517,19.748541 C16.0822517,18.867541 15.2612517,17.924541 14.3682517,17.054541 C13.6642517,16.366541 13.0932517,16.253541 12.2382517,16.176541" id="Fill-868" fill="#334244"></path><path d="M25.5442517,10.665541 C25.1982517,10.617541 24.8162517,10.580541 24.5292517,10.778541 C24.1602517,11.033541 24.1152517,11.569541 24.2252517,12.003541 C24.4452517,12.876541 25.1062517,13.558541 25.5772517,14.326541 C26.0732517,15.136541 26.3632517,16.052541 26.7232517,16.932541 C27.0522517,17.734541 27.5002517,18.568541 28.2902517,18.926541 C28.7602517,19.139541 29.2932517,19.153541 29.8102517,19.158541 C29.9412517,19.160541 30.0762517,19.160541 30.1962517,19.107541 C30.6082517,18.924541 30.5382517,18.330541 30.4322517,17.891541 C30.2522517,17.145541 30.0072517,16.079541 30.1412517,15.312541 C30.3092517,14.352541 31.0052517,13.292541 31.3972517,12.398541 L31.3032517,12.540541 C30.9572517,11.989541 30.3342517,11.674541 29.7162517,11.471541 C28.3342517,11.016541 26.9822517,10.863541 25.5442517,10.665541" id="Fill-869" fill="#334244"></path></g></g></g></svg>