<svg width="320px" height="816px" viewBox="0 0 320 816" version="1.1" xmlns="http://www.w3.org/2000/svg" xmlns:xlink="http://www.w3.org/1999/xlink"><title>Group 3</title><desc>Created with Sketch.</desc><defs><path d="M40.34,76.105 L40.34,76.105 C21.24,57.02 7.41,32.655 1.23,5.404 C24.31,6.966 47.46,8.126 70.65,8.927 C82.63,9.338 94.61,9.647 106.59,9.853 L40.34,76.105 L40.34,76.105 Z M1.23,5.404 C0.83,3.678 0.47,1.942 0.13,0.196 L0.13,0.197 C0.47,1.944 0.83,3.681 1.23,5.404 L1.23,5.404 Z" id="path-1"></path></defs><g id="Page-1" stroke="none" stroke-width="1" fill="none" fill-rule="evenodd"><g id="news_microphone_01" transform="translate(-1430.000000, -592.000000)"><g id="Group-3" transform="translate(1430.280000, 592.167000)"><g id="Group-2"><path d="M211.99,810.313 C177.79,817.453 142.48,817.453 108.29,810.313 C98.04,613.163 87.89,419.653 77.91,233.619 C131.21,215.369 189.07,215.369 242.37,233.619 C232.38,419.653 222.24,613.163 211.99,810.313" id="Fill-3" fill="#121616"></path><path d="M305.96,145.829 C305.96,152.054 305.57,158.176 304.82,164.185 C304.45,167.164 303.98,170.112 303.43,173.029 C303.09,174.775 302.73,176.511 302.33,178.237 C287.59,243.165 229.54,291.638 160.15,291.638 C119.89,291.638 83.44,275.326 57.06,248.938 C37.96,229.853 24.13,205.488 17.95,178.237 C17.55,176.511 17.19,174.775 16.85,173.029 C16.3,170.112 15.83,167.164 15.46,164.185 C14.71,158.176 14.32,152.054 14.32,145.829 C14.32,140.55 14.6,135.332 15.16,130.196 C15.29,128.994 15.43,127.802 15.58,126.611 C15.81,124.905 16.07,123.211 16.36,121.526 C27.91,52.561 87.9,0 160.15,0 C200.43,0 236.88,16.332 263.27,42.731 C284.21,63.686 298.81,90.998 303.91,121.526 C304.21,123.211 304.47,124.905 304.69,126.611 C304.85,127.802 304.99,128.994 305.12,130.196 C305.68,135.332 305.96,140.55 305.96,145.829" id="Fill-4" fill="#313534"></path><path d="M305.96,145.829 C305.96,152.054 305.57,158.176 304.82,164.185 C304.22,168.941 303.39,173.635 302.33,178.237 C255.15,181.421 207.64,183.003 160.14,183.003 C135.87,183.003 111.6,182.592 87.37,181.76 C64.18,180.959 41.03,179.799 17.95,178.237 C16.89,173.635 16.06,168.941 15.46,164.185 C14.71,158.176 14.32,152.054 14.32,145.829 C14.32,140.55 14.6,135.332 15.16,130.196 C15.29,128.994 15.43,127.802 15.58,126.611 L15.77,126.621 C111.89,133.37 208.37,133.37 304.49,126.621 L304.51,126.621 L304.69,126.611 C304.85,127.802 304.99,128.994 305.12,130.196 C305.68,135.332 305.96,140.55 305.96,145.829" id="Fill-5" fill="#0B0F0F"></path><path d="M314.69,145.829 C314.69,152.321 314.28,158.864 313.48,165.274 C313.22,167.349 312.23,169.177 310.81,170.533 C309.38,171.879 307.49,172.752 305.41,172.896 C304.76,172.937 304.09,172.988 303.43,173.029 C255.88,176.254 208.01,177.867 160.14,177.867 C149.55,177.867 138.96,177.785 128.37,177.631 C114.7,177.425 101.02,177.097 87.37,176.625 C63.81,175.813 40.29,174.632 16.85,173.029 C16.19,172.988 15.52,172.937 14.86,172.896 C12.78,172.752 10.9,171.879 9.46,170.533 C8.03,169.177 7.06,167.349 6.8,165.274 C6,158.864 5.59,152.321 5.59,145.829 C5.59,140.251 5.89,134.663 6.48,129.24 C6.97,124.782 10.74,121.464 15.15,121.464 C15.36,121.464 15.56,121.474 15.77,121.485 C15.96,121.495 16.17,121.515 16.36,121.526 C70.69,125.327 125.12,126.97 179.54,126.457 C221.03,126.066 262.5,124.423 303.91,121.526 C304.11,121.515 304.29,121.495 304.49,121.485 L304.51,121.485 C309.18,121.156 313.29,124.577 313.8,129.24 C314.39,134.674 314.69,140.251 314.69,145.829" id="Fill-6" fill="#9BA5A7"></path><path d="M160.14,144.523 C149.36,144.523 138.41,144.437 127.59,144.266 L127.64,141.184 C138.44,141.355 149.38,141.441 160.14,141.441 C184.83,141.441 209.97,140.987 234.86,140.09 L234.97,143.169 C210.05,144.068 184.87,144.523 160.14,144.523" id="Fill-7" fill="#BFC4C4"></path><path d="M82.36,143.062 C65.42,142.427 48.3,141.577 31.48,140.535 L31.67,137.459 C48.47,138.5 65.56,139.349 82.47,139.982 L82.36,143.062" id="Fill-8" fill="#BFC4C4"></path><path d="M89.49,101.174 C89.18,101.174 88.87,101.12 88.57,101.004 C87.25,100.497 86.58,99.013 87.09,97.689 C95.99,74.417 108.52,55.185 123.34,42.074 C124.4,41.134 126.03,41.234 126.97,42.296 C127.91,43.357 127.81,44.98 126.74,45.92 C112.54,58.485 100.49,77.021 91.89,99.523 C91.5,100.546 90.52,101.174 89.49,101.174" id="Fill-9" fill="#BFC4C4"></path><path d="M62.53,90.923 C62.18,90.923 61.82,90.85 61.48,90.697 C60.19,90.116 59.61,88.595 60.19,87.302 C70.92,63.426 86.9,43.922 106.41,30.897 C107.59,30.109 109.18,30.427 109.97,31.606 C110.76,32.786 110.44,34.381 109.26,35.168 C90.56,47.657 75.21,66.413 64.87,89.407 C64.45,90.359 63.51,90.923 62.53,90.923" id="Fill-10" fill="#BFC4C4"></path><path d="M110.83,90.924 C110.3,90.924 109.78,90.767 109.32,90.438 C95.54,80.481 77.99,72.485 58.54,67.312 C57.17,66.947 56.36,65.541 56.72,64.17 C57.09,62.799 58.5,61.986 59.86,62.349 C79.91,67.68 98.05,75.955 112.33,86.275 C113.48,87.105 113.74,88.711 112.91,89.861 C112.41,90.555 111.62,90.924 110.83,90.924" id="Fill-11" fill="#BFC4C4"></path><path d="M121.2,70.389 C120.57,70.389 119.93,70.154 119.43,69.68 C107.09,57.911 91.4,48.265 74.08,41.787 C72.75,41.29 72.08,39.811 72.57,38.482 C73.07,37.154 74.55,36.478 75.88,36.976 C93.85,43.696 110.13,53.718 122.98,65.963 C124,66.941 124.04,68.567 123.06,69.593 C122.56,70.123 121.88,70.389 121.2,70.389" id="Fill-12" fill="#BFC4C4"></path><path d="M316.64,505.683 L3.64,505.683 C1.94,505.683 0.56,504.303 0.56,502.593 L0.56,252.692 C0.56,250.991 1.94,249.611 3.64,249.611 L316.64,249.611 C318.34,249.611 319.72,250.991 319.72,252.692 L319.72,502.593 C319.72,504.303 318.34,505.683 316.64,505.683" id="Fill-13" fill="#F83E3E"></path><polyline id="Fill-14" fill="#000105" points="70.72 369.858 70.72 291.638 104.52 291.638 104.52 303.323 88.01 303.323 88.01 323.023 102.39 323.023 102.39 335.094 88.01 335.094 88.01 369.858 70.72 369.858"></polyline><path d="M126.63,343.012 L134.94,343.012 L130.78,312.497 L126.63,343.012 Z M106.06,369.858 L120.84,291.638 L140.54,291.638 L155.12,369.858 L139.19,369.858 L136.58,353.345 L125.09,353.345 L122.38,369.858 L106.06,369.858 L106.06,369.858 Z" id="Fill-15" fill="#000105"></path><polyline id="Fill-16" fill="#000105" points="162.26 369.858 162.26 291.638 179.55 291.638 179.55 323.602 192.68 291.638 209.58 291.638 195.1 326.982 210.26 369.858 192.68 369.858 181.39 335.287 179.55 338.377 179.55 369.858 162.26 369.858"></polyline><polyline id="Fill-17" fill="#000105" points="215.38 369.858 215.38 291.638 250.53 291.638 250.53 303.419 232.66 303.419 232.66 322.829 246.28 322.829 246.28 334.804 232.66 334.804 232.66 358.174 250.72 358.174 250.72 369.858 215.38 369.858"></polyline><polyline id="Fill-18" fill="#000105" points="58.46 475.463 58.46 397.248 70.62 397.248 86.65 434.913 86.65 397.248 100.94 397.248 100.94 475.463 89.26 475.463 73.23 434.913 73.23 475.463 58.46 475.463"></polyline><polyline id="Fill-19" fill="#000105" points="112.63 475.463 112.63 397.248 147.78 397.248 147.78 409.033 129.91 409.033 129.91 428.443 143.53 428.443 143.53 440.413 129.91 440.413 129.91 463.783 147.97 463.783 147.97 475.463 112.63 475.463"></polyline><polyline id="Fill-20" fill="#000105" points="162.07 475.463 152.61 397.248 167.29 397.248 171.92 442.823 177.81 397.344 189.3 397.344 195.48 442.533 200.22 397.248 214.7 397.248 205.33 475.463 190.27 475.463 183.6 428.243 177.33 475.463 162.07 475.463"></polyline><path d="M243.48,476.623 C238.58,476.623 234.5,475.753 231.21,474.023 C227.93,472.283 225.45,469.593 223.78,465.953 C222.1,462.323 221.17,457.603 220.98,451.803 L235.75,449.583 C235.81,452.933 236.12,455.643 236.67,457.703 C237.21,459.763 237.99,461.243 238.99,462.143 C239.98,463.043 241.19,463.493 242.61,463.493 C244.41,463.493 245.58,462.883 246.13,461.663 C246.68,460.433 246.95,459.143 246.95,457.793 C246.95,454.573 246.18,451.853 244.64,449.633 C243.09,447.413 241,445.183 238.36,442.923 L231.6,437.033 C228.64,434.523 226.14,431.673 224.11,428.483 C222.09,425.303 221.07,421.353 221.07,416.653 C221.07,410.023 223.04,404.958 226.96,401.448 C230.89,397.94 236.23,396.186 242.99,396.186 C247.18,396.186 250.54,396.895 253.09,398.309 C255.63,399.727 257.56,401.578 258.88,403.862 C260.2,406.148 261.1,408.563 261.58,411.103 C262.07,413.653 262.34,416.083 262.4,418.393 L247.53,420.233 C247.47,417.913 247.32,415.903 247.1,414.193 C246.87,412.493 246.4,411.173 245.7,410.233 C244.99,409.303 243.89,408.833 242.41,408.833 C240.8,408.833 239.63,409.513 238.89,410.863 C238.15,412.213 237.78,413.563 237.78,414.923 C237.78,417.813 238.47,420.183 239.86,422.013 C241.24,423.853 243.06,425.773 245.31,427.763 L251.78,433.463 C255.19,436.353 258.07,439.643 260.42,443.313 C262.77,446.983 263.95,451.523 263.95,456.923 C263.95,460.593 263.11,463.923 261.44,466.923 C259.76,469.913 257.4,472.283 254.34,474.023 C251.28,475.753 247.66,476.623 243.48,476.623" id="Fill-21" fill="#000105"></path><g id="Group-24" transform="translate(16.720000, 172.833000)"><mask id="mask-2" fill="white"><use xlink:href="#path-1"></use></mask><g id="Clip-23"></g><polygon id="Fill-22" fill="#393F3E" mask="url(#mask-2)" points="0.13 76.105 106.59 76.105 106.59 0.196 0.13 0.196"></polygon></g><path d="M123.31,182.686 C111.33,182.48 99.35,182.171 87.37,181.76 C64.18,180.959 41.03,179.799 17.95,178.237 C17.55,176.514 17.19,174.777 16.85,173.03 C40.29,174.632 63.81,175.813 87.37,176.625 C101.02,177.097 114.7,177.425 128.37,177.631 L123.31,182.686" id="Fill-25" fill="#0E1112"></path><path d="M160.11,126.548 C112.16,126.548 64.22,124.874 16.36,121.526 C27.91,52.561 87.9,0 160.15,0 C200.43,0 236.88,16.332 263.27,42.731 L179.54,126.457 C173.06,126.518 166.59,126.548 160.11,126.548 M94.35,81.166 C91.72,86.405 89.3,91.922 87.09,97.689 C86.58,99.013 87.25,100.497 88.57,101.004 C88.87,101.12 89.18,101.174 89.49,101.174 C90.52,101.174 91.5,100.546 91.89,99.523 C94,93.986 96.33,88.688 98.85,83.661 C102.54,85.8 106.04,88.064 109.32,90.438 C109.78,90.767 110.3,90.924 110.83,90.924 C111.62,90.924 112.41,90.555 112.91,89.861 C113.74,88.711 113.48,87.105 112.33,86.275 C108.85,83.758 105.13,81.362 101.22,79.101 C104.4,73.238 107.84,67.78 111.51,62.783 C114.28,64.989 116.92,67.29 119.43,69.68 C119.93,70.154 120.57,70.389 121.2,70.389 C121.88,70.389 122.56,70.123 123.06,69.593 C124.04,68.567 124,66.941 122.98,65.963 C120.34,63.448 117.55,61.027 114.64,58.709 C118.46,53.95 122.51,49.669 126.74,45.92 C127.81,44.98 127.91,43.357 126.97,42.296 C126.46,41.722 125.75,41.429 125.04,41.429 C124.44,41.429 123.83,41.642 123.34,42.074 C118.86,46.039 114.59,50.565 110.56,55.592 C105.83,52.122 100.8,48.916 95.53,46.006 C99.87,42.002 104.45,38.378 109.26,35.168 C110.44,34.381 110.76,32.786 109.97,31.606 C109.47,30.865 108.66,30.464 107.83,30.464 C107.34,30.464 106.84,30.604 106.41,30.897 C100.88,34.585 95.65,38.791 90.73,43.47 C85.94,41.056 80.98,38.883 75.88,36.976 C75.58,36.865 75.28,36.812 74.98,36.812 C73.94,36.812 72.96,37.45 72.57,38.482 C72.08,39.811 72.75,41.29 74.08,41.787 C78.46,43.425 82.74,45.267 86.88,47.293 C81.44,52.945 76.43,59.198 71.92,65.986 C67.99,64.655 63.97,63.44 59.86,62.349 C59.64,62.29 59.42,62.262 59.2,62.262 C58.07,62.262 57.03,63.02 56.72,64.17 C56.36,65.541 57.17,66.947 58.54,67.312 C62.12,68.264 65.63,69.311 69.07,70.449 C65.81,75.779 62.84,81.407 60.19,87.302 C59.61,88.595 60.19,90.116 61.48,90.697 C61.82,90.85 62.18,90.923 62.53,90.923 C63.51,90.923 64.45,90.359 64.87,89.407 C67.59,83.357 70.66,77.602 74.04,72.175 C81.22,74.79 88.03,77.804 94.35,81.166 M96.73,76.613 C90.53,73.322 83.9,70.356 76.91,67.76 C81.37,61.197 86.3,55.168 91.66,49.746 C97.21,52.728 102.49,56.05 107.43,59.666 C103.61,64.862 100.03,70.531 96.73,76.613" id="Fill-26" fill="#393F3E"></path><path d="M128.37,177.631 L128.37,177.631 C114.7,177.425 101.02,177.097 87.37,176.625 C63.81,175.813 40.29,174.632 16.85,173.03 L16.85,173.029 C16.19,172.988 15.52,172.937 14.86,172.896 C12.78,172.752 10.9,171.879 9.46,170.533 C8.03,169.177 7.06,167.349 6.8,165.274 C6,158.864 5.59,152.321 5.59,145.829 C5.59,140.251 5.89,134.663 6.48,129.24 C6.97,124.782 10.74,121.464 15.15,121.464 C15.36,121.464 15.56,121.474 15.77,121.485 C15.96,121.495 16.17,121.515 16.36,121.526 C64.22,124.874 112.16,126.548 160.11,126.548 C166.59,126.548 173.06,126.518 179.54,126.457 L164.56,141.437 C163.09,141.44 161.61,141.441 160.14,141.441 C149.38,141.441 138.44,141.355 127.64,141.184 L127.59,144.266 C138.41,144.437 149.36,144.523 160.14,144.523 C160.58,144.523 161.03,144.523 161.48,144.523 L128.37,177.631 M31.67,137.459 L31.48,140.535 C48.3,141.577 65.42,142.427 82.36,143.062 L82.47,139.982 C65.56,139.349 48.47,138.5 31.67,137.459" id="Fill-27" fill="#A6B0B2"></path><path d="M160.14,144.523 C149.36,144.523 138.41,144.437 127.59,144.266 L127.64,141.184 C138.44,141.355 149.38,141.441 160.14,141.441 C161.61,141.441 163.09,141.44 164.56,141.437 L161.48,144.523 C161.03,144.523 160.58,144.523 160.14,144.523" id="Fill-28" fill="#C8CECD"></path><path d="M82.36,143.062 C65.42,142.427 48.3,141.577 31.48,140.535 L31.67,137.459 C48.47,138.5 65.56,139.349 82.47,139.982 L82.36,143.062" id="Fill-29" fill="#C8CECD"></path><path d="M89.49,101.174 C89.18,101.174 88.87,101.12 88.57,101.004 C87.25,100.497 86.58,99.013 87.09,97.689 C89.3,91.922 91.72,86.405 94.35,81.166 C95.88,81.978 97.38,82.809 98.85,83.661 C96.33,88.688 94,93.986 91.89,99.523 C91.5,100.546 90.52,101.174 89.49,101.174 M101.22,79.101 C99.75,78.253 98.25,77.423 96.73,76.613 C100.03,70.531 103.61,64.862 107.43,59.666 C108.82,60.682 110.18,61.721 111.51,62.783 C107.84,67.78 104.4,73.238 101.22,79.101 M114.64,58.709 C113.31,57.648 111.95,56.608 110.56,55.592 C114.59,50.565 118.86,46.039 123.34,42.074 C123.83,41.642 124.44,41.429 125.04,41.429 C125.75,41.429 126.46,41.722 126.97,42.296 C127.91,43.357 127.81,44.98 126.74,45.92 C122.51,49.669 118.46,53.95 114.64,58.709" id="Fill-30" fill="#C8CECD"></path><path d="M62.53,90.923 C62.18,90.923 61.82,90.85 61.48,90.697 C60.19,90.116 59.61,88.595 60.19,87.302 C62.84,81.407 65.81,75.779 69.07,70.449 C70.75,71.003 72.4,71.579 74.04,72.175 C70.66,77.602 67.59,83.357 64.87,89.407 C64.45,90.359 63.51,90.923 62.53,90.923 M76.91,67.76 C75.27,67.148 73.6,66.556 71.92,65.986 C76.43,59.198 81.44,52.945 86.88,47.293 C88.5,48.083 90.09,48.9 91.66,49.746 C86.3,55.168 81.37,61.197 76.91,67.76 M95.53,46.006 C93.95,45.133 92.35,44.288 90.73,43.47 C95.65,38.791 100.88,34.585 106.41,30.897 C106.84,30.604 107.34,30.464 107.83,30.464 C108.66,30.464 109.47,30.865 109.97,31.606 C110.76,32.786 110.44,34.381 109.26,35.168 C104.45,38.378 99.87,42.002 95.53,46.006" id="Fill-31" fill="#C8CECD"></path><path d="M110.83,90.924 C110.3,90.924 109.78,90.767 109.32,90.438 C106.04,88.064 102.54,85.8 98.85,83.661 C97.38,82.809 95.88,81.978 94.35,81.166 C88.03,77.804 81.22,74.79 74.04,72.175 C72.4,71.579 70.75,71.003 69.07,70.449 C65.63,69.311 62.12,68.264 58.54,67.312 C57.17,66.947 56.36,65.541 56.72,64.17 C57.03,63.02 58.07,62.262 59.2,62.262 C59.42,62.262 59.64,62.29 59.86,62.349 C63.97,63.44 67.99,64.655 71.92,65.986 C73.6,66.556 75.27,67.148 76.91,67.76 C83.9,70.356 90.53,73.322 96.73,76.613 C98.25,77.423 99.75,78.253 101.22,79.101 C105.13,81.362 108.85,83.758 112.33,86.275 C113.48,87.105 113.74,88.711 112.91,89.861 C112.41,90.555 111.62,90.924 110.83,90.924" id="Fill-32" fill="#C8CECD"></path><path d="M121.2,70.389 C120.57,70.389 119.93,70.154 119.43,69.68 C116.92,67.29 114.28,64.989 111.51,62.783 C110.18,61.721 108.82,60.682 107.43,59.666 C102.49,56.05 97.21,52.728 91.66,49.746 C90.09,48.9 88.5,48.083 86.88,47.293 C82.74,45.267 78.46,43.425 74.08,41.787 C72.75,41.29 72.08,39.811 72.57,38.482 C72.96,37.45 73.94,36.812 74.98,36.812 C75.28,36.812 75.58,36.865 75.88,36.976 C80.98,38.883 85.94,41.056 90.73,43.47 C92.35,44.288 93.95,45.133 95.53,46.006 C100.8,48.916 105.83,52.122 110.56,55.592 C111.95,56.608 113.31,57.648 114.64,58.709 C117.55,61.027 120.34,63.448 122.98,65.963 C124,66.941 124.04,68.567 123.06,69.593 C122.56,70.123 121.88,70.389 121.2,70.389" id="Fill-33" fill="#C8CECD"></path><path d="M107.26,790.623 C107.61,797.183 107.95,803.743 108.29,810.313 C142.48,817.453 177.79,817.453 211.99,810.313 C212.33,803.743 212.67,797.183 213.01,790.623 C178.08,796.593 142.2,796.603 107.26,790.623" id="Fill-34" fill="#000105"></path></g></g></g></g></svg>