<svg id="Capa_1" enable-background="new 0 0 511.983 511.983" height="512" viewBox="0 0 511.983 511.983" width="512" xmlns="http://www.w3.org/2000/svg"><g><g><g><g><g><path d="m504.532 265.354c0-83.777-41.47-157.867-105-202.876h-287c-63.531 45.009-105 119.098-105 202.876 0 102.378 61.931 190.282 150.371 228.332 5.382 2.315 11.17 3.537 17.027 3.537h162.204c5.857 0 11.645-1.222 17.027-3.537 88.44-38.05 150.371-125.954 150.371-228.332z" fill="#b3dafe"/></g><g fill="#8ac9fe"><path d="m399.532 62.478h-40c63.531 45.009 105 119.099 105 202.876 0 102.378-61.931 190.281-150.371 228.332-5.382 2.315-11.17 3.537-17.027 3.537h40c5.857 0 11.645-1.222 17.027-3.537 88.441-38.05 150.371-125.954 150.371-228.332 0-83.777-41.47-157.867-105-202.876z"/><path d="m417.703 62.478h-323.342c-13.177 0-23.859-10.682-23.859-23.859 0-13.177 10.682-23.859 23.859-23.859h323.342c13.177 0 23.859 10.682 23.859 23.859 0 13.177-10.682 23.859-23.859 23.859z"/></g></g><g><path d="m157.997 493.726c5.35 2.299 11.11 3.497 16.934 3.497h162.204c5.855 0 11.641-1.221 17.02-3.534 42.682-18.362 79.187-48.337 105.539-85.944h-237.142c-13.682 0-26.803-5.435-36.478-15.11l-28.155-28.155c-12.52-12.52-29.501-19.554-47.207-19.554h-90.152c22.624 66.944 72.994 121.106 137.437 148.8z" fill="#fff0ad"/></g><g><path d="m419.693 407.745c-26.353 37.607-62.857 67.582-105.539 85.944-5.379 2.314-11.165 3.534-17.02 3.534h40c5.855 0 11.641-1.221 17.02-3.534 42.682-18.362 79.187-48.337 105.539-85.944z" fill="#ffe177"/></g><g><g><path d="" fill="#eaf6ff"/></g><g><path d="" fill="#eaf6ff"/></g><g><path d="" fill="#eaf6ff"/></g><path d="m423.872 329.602 6.352-17.505c2.289-6.307-4.961-11.767-10.369-7.81l-16.076 11.762c-9.002-10.184-27.822-17.194-49.59-17.194-30.51 0-49.467 13.766-49.467 30.748s18.957 30.748 49.467 30.748c21.768 0 40.588-7.01 49.59-17.194l16.076 11.762c5.408 3.957 12.658-1.504 10.369-7.81z" fill="#ffc344"/></g><g><g><path d="" fill="#eaf6ff"/></g><g><path d="" fill="#eaf6ff"/></g><path d="m98.056 211.252-6.352-17.505c-2.289-6.307 4.961-11.767 10.369-7.81l16.076 11.762c9.002-10.184 27.822-17.194 49.59-17.194 30.51 0 49.467 13.766 49.467 30.748s-18.957 30.747-49.467 30.747c-21.768 0-40.588-7.01-49.59-17.194l-16.076 11.762c-5.408 3.957-12.658-1.504-10.369-7.81z" fill="#fe73c5"/></g></g><g><path d="m169.001 211.252h-6.636" fill="#fff"/></g><g><path d="m359.001 329.602h-6.636" fill="#fff"/></g></g><g><path d="m482.486 145.872c-15.302-28.935-36.281-54.904-61.316-76.09 38.828-5.389 36.026-61.333-3.467-62.523h-264.692c-10.771 0-8.713 17.696 1.876 15h262.816c21.566.772 21.766 31.864 0 32.719h-323.342c-21.589-.783-21.745-31.871 0-32.719 9.601 0 19.487.739 29.046.222 9.249-.461 9.263-15.222-.371-15.222h-28.675c-39.457 1.176-42.33 57.122-3.467 62.523-79.25 65.137-111.336 180.406-77.583 277.04.093.356.204.706.346 1.039 22.928 67.412 73.453 123.532 141.282 152.714 6.396 2.752 13.123 4.147 19.991 4.147h162.203c6.868 0 13.595-1.396 19.991-4.147 135.161-54.975 195.578-227.184 125.362-354.703zm-131.289 340.924c-4.514 1.942-9.245 2.927-14.063 2.927h-162.204c-4.818 0-9.55-.984-14.063-2.927-60.677-26.105-106.644-75.108-129.59-134.37h79.435c15.829 0 30.711 6.164 41.903 17.357l28.156 28.156c11.16 11.159 25.998 17.306 41.781 17.306h135.634c9.931-.344 9.923-14.66 0-15h-135.634c-11.776 0-22.848-4.586-31.174-12.913l-28.156-28.156c-14.026-14.025-32.675-21.75-52.511-21.75h-84.675c-19.159-59.871-12.953-128.99 16.802-184.542 17.252-32.621 42.174-61.23 72.142-82.905h282.104c29.968 21.675 54.891 50.284 72.142 82.905 41.497 76.148 35.527 177.105-13.442 247.361h-67.442c-9.931.344-9.923 14.66 0 15h56.456c-24.292 30.594-56.144 55.436-93.601 71.551z"/><path d="m320.101 269.831c1.569 3.79 6.018 5.618 9.801 4.06 9.169-4.35 3.351-17.562-6.054-13.705-3.609 1.683-5.211 5.977-3.747 9.645z"/><path d="m345.442 237.791c1.594 3.87 6.209 5.684 10.013 3.958 8.468-4.213 3.56-16.643-5.5-13.922-4.022 1.374-6.179 6.024-4.513 9.964z"/><path d="m320.101 159.131c1.592 3.763 6.012 5.623 9.801 4.05 8.852-4.1 3.755-17.003-5.511-13.934-3.968 1.487-5.81 5.993-4.29 9.884z"/><path d="m415.425 360.97c5.104 3.734 11.933 3.692 16.99-.102 5.068-3.803 7.021-10.36 4.857-16.318l-5.423-14.948 5.423-14.946c2.163-5.959.211-12.518-4.857-16.32-5.06-3.796-11.887-3.838-16.99-.102l-11.05 8.084c-19.773-17.076-67.794-20.51-90.452-4.744-22.176 13.774-22.173 42.283 0 56.057 22.663 15.767 70.673 12.331 90.452-4.743zm-17.266-22.781c-16.688 20.535-84.892 20.681-85.938-8.588 1.059-29.284 69.277-29.107 85.938-8.586 2.565 2.903 6.919 3.375 10.048 1.086l14.17-10.367-5.555 15.31c-.6 1.653-.601 3.464 0 5.116l5.554 15.311-14.169-10.366c-3.129-2.289-7.482-1.82-10.048 1.084z"/><path d="m180.202 153.831c3.495 2.358 8.409 1.222 10.579-2.362 4.673-8.52-6.929-15.878-12.65-8.038-2.283 3.432-1.31 8.09 2.071 10.4z"/><path d="m159.072 119.131c1.617 3.841 6.195 5.679 10.005 3.965 8.489-4.198 3.579-16.662-5.489-13.939-4.093 1.404-6.079 5.996-4.516 9.974z"/><path d="m208.004 183.224c-22.663-15.767-70.675-12.332-90.452 4.744l-11.05-8.084c-5.103-3.732-11.929-3.693-16.99.102-5.068 3.803-7.021 10.361-4.857 16.32l5.423 14.946-5.423 14.947c-2.163 5.958-.211 12.517 4.857 16.319 5.056 3.795 11.884 3.839 16.99.103l11.05-8.084c19.773 17.075 67.794 20.509 90.452 4.743 22.175-13.774 22.173-42.283 0-56.056zm-40.265 51.276c-18.839 0-36.098-5.755-43.971-14.66-3.21-2.965-6.559-3.327-10.048-1.086l-14.17 10.367 5.555-15.312c.601-1.652.6-3.463 0-5.116l-5.555-15.31 14.17 10.367c3.128 2.29 7.482 1.816 10.048-1.086 16.699-20.54 84.889-20.678 85.938 8.588.001 11.553-14.415 23.248-41.967 23.248z"/><path d="m319.642 453.76h-63.61c-9.931.344-9.923 14.66 0 15h63.61c9.931-.344 9.924-14.66 0-15z"/><path d="m147.032 400.245h-44.174c-9.931.344-9.923 14.66 0 15h44.174c9.931-.343 9.923-14.66 0-15z"/><path d="m169.002 203.752h-6.637c-9.931.344-9.923 14.66 0 15h6.637c9.93-.343 9.923-14.66 0-15z"/><path d="m359.002 322.102h-6.637c-9.931.344-9.923 14.66 0 15h6.637c9.93-.344 9.923-14.66 0-15z"/></g></g></svg>