<svg id="Layer_1" enable-background="new 0 0 128 128" height="512" viewBox="0 0 128 128" width="512" xmlns="http://www.w3.org/2000/svg"><g><path d="m119.25 84.033h-14.417v-13.715c0-.553-.447-1-1-1h-15.078l-21.755-10.159v-5.188h11.675c5.987 0 10.858-4.871 10.858-10.858s-4.871-10.858-10.858-10.858h-4.966c-.553 0-3.322 0-3.875 0h-2.834v-4.78c11.29-.267 20-4.984 20-10.974 0-6.168-9.225-11-21-11s-21 4.832-21 11c0 5.991 8.71 10.708 20 10.974v4.78h-2.416c-.553 0-9.259 0-9.259 0-5.987 0-10.858 4.871-10.858 10.858s4.871 10.858 10.858 10.858h11.675v5.188l-21.755 10.159h-15.078c-.553 0-1 .447-1 1v13.716h-14.417c-.553 0-1 .447-1 1v16.9c0 .553.447 1 1 1h14.417v13.558c0 .553.447 1 1 1h17.181c1.744 5.184 10.18 9.009 20.652 9.009s18.909-3.825 20.652-9.009h17.181c.553 0 1-.447 1-1v-13.558h14.417c.553 0 1-.447 1-1v-16.9c0-.553-.447-1.001-1-1.001zm-16.417 31.458h-15.834c-.009-6.163-9.229-10.991-20.999-10.991s-20.99 4.828-20.999 10.991h-15.834v-12.558h14.75c.553 0 1-.447 1-1v-16.9c0-.553-.447-1-1-1h-14.75v-12.715h14.078l22.332 10.429c.134.062.278.094.423.094s.289-.031.423-.094l22.332-10.429h14.078v12.716h-14.75c-.553 0-1 .447-1 1v16.9c0 .553.447 1 1 1h14.75z" fill="#e6e7e8"/><g><g><path d="m49.325 48.971h25.35c5.445 0 9.858-4.414 9.858-9.858 0-5.445-4.414-9.858-9.858-9.858h-25.35c-5.445 0-9.858 4.414-9.858 9.858 0 5.444 4.413 9.858 9.858 9.858z" fill="#0089ef"/><path d="m62 76.84 22.534-10.522-22.534-10.522-22.533 10.522z" fill="#fa759e"/><g fill="#6dc9f7"><path d="m84.084 81.033h31.167v16.9h-31.167z" transform="matrix(-1 0 0 -1 199.334 178.967)"/><path d="m8.75 81.033h31.167v16.9h-31.167z" transform="matrix(-1 0 0 -1 48.666 178.967)"/></g></g><ellipse cx="62" cy="111.5" fill="#ffd7e5" rx="20" ry="10"/><ellipse cx="62" cy="12.5" fill="#ffd7e5" rx="20" ry="10"/><path d="m62 5.5c10.023 0 18.3 3.691 19.751 8.5.148-.491.249-.989.249-1.5 0-5.523-8.954-10-20-10s-20 4.477-20 10c0 .511.101 1.01.249 1.5 1.451-4.809 9.728-8.5 19.751-8.5z" fill="#fff"/><g fill="#3a2c60"><path d="m115.251 80.033h-14.417v-13.716c0-.553-.447-1-1-1h-15.078l-21.756-10.158v-5.188h11.676c5.987 0 10.858-4.871 10.858-10.858s-4.871-10.858-10.858-10.858h-4.967c-.553 0-1 .447-1 1s.447 1 1 1h4.967c4.885 0 8.858 3.974 8.858 8.858s-3.974 8.858-8.858 8.858h-25.351c-4.885 0-8.858-3.974-8.858-8.858s3.974-8.858 8.858-8.858h5.509c.553 0 1-.447 1-1s-.447-1-1-1h-5.509c-5.987 0-10.858 4.871-10.858 10.858s4.871 10.858 10.858 10.858h11.675v5.188l-21.755 10.158h-15.078c-.553 0-1 .447-1 1v13.716h-14.417c-.553 0-1 .447-1 1v16.9c0 .553.447 1 1 1h14.417v13.558c0 .553.447 1 1 1h17.181c1.744 5.184 10.18 9.009 20.652 9.009s18.909-3.825 20.652-9.009h17.182c.553 0 1-.447 1-1v-13.558h14.417c.553 0 1-.447 1-1v-16.9c0-.553-.447-1-1-1zm-53.251-23.134 20.171 9.418-20.171 9.419-20.17-9.419zm-52.25 25.134h29.167v14.9h-29.167zm52.25 38.467c-10.299 0-19-4.121-19-9s8.701-9 19-9 19 4.121 19 9-8.701 9-19 9zm36.834-9.009h-15.835c-.009-6.163-9.229-10.991-20.999-10.991s-20.99 4.828-20.999 10.991h-15.834v-12.558h14.75c.553 0 1-.447 1-1v-16.9c0-.553-.447-1-1-1h-14.75v-12.716h14.078l22.332 10.429c.134.062.278.094.423.094s.289-.031.423-.094l22.333-10.429h14.078v12.716h-14.75c-.553 0-1 .447-1 1v16.9c0 .553.447 1 1 1h14.75zm15.417-14.558h-29.167v-14.9h29.167z"/><path d="m61 23.474v4.78h-2.416c-.553 0-1 .447-1 1s.447 1 1 1h7.25c.553 0 1-.447 1-1s-.447-1-1-1h-2.834v-4.78c11.29-.267 20-4.984 20-10.974 0-6.168-9.225-11-21-11s-21 4.832-21 11c0 5.991 8.71 10.707 20 10.974zm1-19.974c10.299 0 19 4.121 19 9s-8.701 9-19 9-19-4.121-19-9 8.701-9 19-9z"/></g></g></g></svg>