<?xml version="1.0" encoding="iso-8859-1"?>
<!-- Generator: Adobe Illustrator 19.0.0, SVG Export Plug-In . SVG Version: 6.00 Build 0)  -->
<svg version="1.1" id="Capa_1" xmlns="http://www.w3.org/2000/svg" xmlns:xlink="http://www.w3.org/1999/xlink" x="0px" y="0px"
	 viewBox="0 0 511.997 511.997" style="enable-background:new 0 0 511.997 511.997;" xml:space="preserve">
<path style="fill:#FFD45C;" d="M470.715,228.261c-21.011-3.908-46.679-1.607-68.07-0.556c-44.374,2.181-89.272-0.703-133.739-0.867
	c-54.182-0.2-108.342,0.086-162.503,2.079c-8.668,0.319-18.471-1.404-24.956,3.704c-7.204,5.674-12.52,17.242-17.659,24.702
	c-5.535,8.034-11.249,15.959-16.759,23.934c-4.891,7.078-11.419,13.505-15.044,21.411c-8.023,17.499-4.903,40.373-3.577,59.035
	c0.818,11.52,0.641,22.885,0.895,34.417c0.08,3.649-1.013,14.879,2.139,17.764c5.151,4.715,23.011,2.637,30.03,3.222
	c6.842,0.57,13.789,2.77,19.355,0.374c6.528-2.811,11.662-9.726,18.066-13.12c6.546-3.469,14.197-5.57,21.555-6.404
	c23.946-2.713,43.548,17.419,51.803,38.5c3.78,9.654,0.945,20.276,12.693,21.445c21.317,2.121,43.197-0.925,64.68,0.799
	c32.736,2.627,66.749,1.616,99.368-0.189c1.691-25.77,13.852-59.21,42.86-62.89c10.476-1.329,20.549,1.877,29.619,7.14
	c11.024,6.397,10.031,15.064,15.954,24.689c5.627,9.143,18.69,2.995,27.973,1.804c4.869-0.625,14.833,1.609,18.936-1.087
	c4.918-3.232,2.744-12.275,2.952-18.391c0.528-15.534,2.033-31.027,2.033-46.58c0-13.86-0.689-27.504-1.37-41.244
	c-0.671-13.549-0.866-27.92,0.101-41.448c1.13-15.828,7.911-35.068,1.108-50.543C486.246,223.344,480.577,227.207,470.715,228.261z"
	/>
<g>
	<path style="fill:#E4EDF1;" d="M75.462,419.449c-8.649-2.598-21.14,0.141-29.997,0.582c-7.971,0.398-26.563,0.326-32.552,7.227
		c-4.836,5.573-5.295,16.87,0.153,21.713c6.881,6.116,17.859,7.625,26.582,8.583c8.083,0.887,16.301,0.526,24.421,0.526
		c3.629,0,7.562,1.005,10.215-1.717c3.355-3.442,3.204-15.134,3.965-19.585C78.942,432.724,83.353,420.211,75.462,419.449z"/>
	<path style="fill:#E4EDF1;" d="M485.38,423.205c-6.351-0.348-13.391,1.265-19.584,2.415c-3.081,0.572-17.463,1.48-19.487,4.144
		c-2.048,2.695,4.624,22.108,5.793,26.154c2.674,9.25,13.185,5.951,21.702,5.917c11.265-0.045,27.965,0.086,32.094-12.475
		C511.184,433.283,496.957,424.836,485.38,423.205z"/>
</g>
<g>
	<path style="fill:#7C8B96;" d="M101.752,400.133c-7.809-0.698-18.815,14.542-22.561,20.375c-5.837,9.091-7.492,21.329-7.486,31.879
		c0.012,20.505,8.513,38.969,28.854,46.495c11.688,4.325,28.976,4.731,41.031,1.061c9.876-3.007,17.88-10.076,23.22-18.785
		c7.911-12.901,10.538-29.375,6.653-44.039c-1.957-7.384-5.883-12.16-9.933-18.249c-4.479-6.733-7.413-12.702-14.949-16.712
		c-6.053-3.221-11.679-5.005-18.43-5.765C117.721,395.219,112.791,396.325,101.752,400.133z"/>
	<path style="fill:#7C8B96;" d="M380.218,402.816c-11.566,1.113-21.28,17.262-25.015,26.871
		c-4.057,10.436-6.507,27.201-3.824,38.119c5.28,21.489,22.377,31.086,43.423,31.052c19.971-0.032,34.583-6.538,46.896-22.889
		c11.252-14.942,10.161-34.892,1.511-50.959c-4.907-9.114-11.67-19.973-21.687-23.782C405.91,395.29,391.25,400.61,380.218,402.816z
		"/>
</g>
<g>
	<path style="fill:#637079;" d="M132.335,488.051c-19.686-0.961-35.015-7.956-40.835-28.301
		c-4.193-14.658-0.68-36.952,14.446-44.155c3.261-1.554,0.807-6.03-2.306-5.47c-22.381,4.027-30.876,35.768-26.5,55.063
		c5.621,24.784,33.036,47.87,58.483,35.003C141.72,497.106,138.38,488.346,132.335,488.051z"/>
	<path style="fill:#637079;" d="M119.369,429.018c-0.677,0.75-0.648,2.064,0.333,2.581c3.451,1.819,6.661,1.889,10.313,2.931
		c3.687,1.052,6.879,3.509,9.335,6.408c4.674,5.517,3.634,11.981,3.808,18.752c0.158,6.132,7.523,7.416,10.826,2.932
		C168.952,442.304,137.764,408.654,119.369,429.018z"/>
	<path style="fill:#637079;" d="M393.993,488.058c-12.607-8.708-24.391-14.973-26.281-31.631
		c-0.875-7.703,0.383-15.779,3.172-22.997c3.184-8.238,9.799-14.375,11.795-23.109c0.471-2.059-1.815-3.157-3.335-1.941
		c-17.775,14.223-31.157,30.71-28.242,55.074c2.307,19.273,17.955,35.258,36.605,39.513
		C396.932,505.072,401.573,493.293,393.993,488.058z"/>
	<path style="fill:#637079;" d="M426.778,435.232c-6.896-10.029-18.297-12.039-29.463-9.942c-2.08,0.391-2.041,3.178-0.546,4.183
		c6.118,4.112,16.091,5.735,18.948,13.364c2.356,6.291-0.373,12.722,2.966,18.922c1.469,2.729,6.011,3.585,8.111,1.045
		C432.935,455.375,432.152,443.05,426.778,435.232z"/>
</g>
<g>
	<path style="fill:#E4EDF1;" d="M140.39,445.411c-2.497-7.119-9.434-13.211-17.276-13.017c-18.492,0.455-22.481,33.201-3.717,37.012
		c7.438,1.511,15.401-1.853,19.421-8.325c1.637-2.634,2.404-5.645,2.433-8.685C141.453,450.087,141.195,447.708,140.39,445.411z"/>
	<path style="fill:#E4EDF1;" d="M416.663,446.682c-0.454-2.251-1.327-4.393-2.619-6.283c-1.646-3.048-4.242-5.492-7.87-6.668
		c-6.225-2.017-12.034,0.68-16.041,5.234c-0.032,0.036-0.061,0.076-0.092,0.112c-2.964,3.415-4.928,7.842-5.292,12.128
		c-0.029,0.349-0.006,0.681-0.015,1.024c-0.449,9.767,6.203,19.444,17.323,17.732C413.175,468.251,419.079,456.601,416.663,446.682z
		"/>
</g>
<g>
	<path style="fill:#CAD6DD;" d="M124.271,451.262c-0.968-1.802-1.342-3.578-1.196-5.627c0.069-0.969,0.279-1.911,0.507-2.856
		c0.141-0.588,1.473-2.519,0.348-1.15c1.469-1.786,1.784-5.206-0.82-6.36c-9.167-4.062-14.127,5.938-14.732,13.703
		c-0.713,9.154,6.712,20.718,16.444,21.307c2.32,0.141,4.392-1.729,5.036-3.834C131.832,459.999,126.994,456.321,124.271,451.262z"
		/>
	<path style="fill:#CAD6DD;" d="M402.792,460.198c-1.005-4.023-3.756-6.08-3.46-9.839c0.166-2.115,0.818-4.396,1.408-6.426
		c0.218-0.751,0.438-1.456,0.705-2.19c0.346-0.949,2.022-2.931,0.166-0.902c1.02-1.115,1.555-3.133,0.577-4.48
		c-6.547-9.025-14.469,3.589-17.014,9.355c-2.212,5.01-3.127,10.376-0.513,15.452c2.647,5.14,8.236,7.803,13.827,6.608
		C401.8,467.07,403.562,463.279,402.792,460.198z"/>
</g>
<path style="fill:#E4EDF1;" d="M61.511,188.736c-11.597,0.406-18.685,21.451-12.711,29.939c5.317,7.554,16.158,8.718,24.603,9.121
	c17.814,0.85,35.537,2.535,53.375,3.209c47.868,1.807,94.931,1.886,142.803-0.954c40.421-2.399,81.22-3.77,121.719-3.757
	c32.809,0.011,65.981,3.911,98.747,0.549c6.203-0.637,12.353-1.627,15.131-8.107c2.346-5.473,1.807-18.101-0.591-23.928
	c-2.854-6.936-9.285-6.188-15.784-7.237c-18.972-3.062-37.919-4.097-57.149-4.618c-20.147-0.546-40.284-1.205-60.442-1.192
	c-24.702,0.016-48.988,2.28-73.633,3.366c-22.913,1.01-44.884-1.458-67.748-1.012c-25.155,0.49-50.315,0.731-75.475,0.822
	c-15.612,0.056-30.519,1.169-46.068,0.338c-8.282-0.442-16.599-0.675-24.883-0.149C76.104,185.588,68.622,188.487,61.511,188.736z"
	/>
<g>
	<path style="fill:#CAD6DD;" d="M68.859,442.845c-8.525-1.915-18.248-0.987-27.1-2.197c-9.196-1.257-18.528-3.848-27.716-1.328
		c-5.143,1.411-4.297,7.882,0,9.62c9.994,4.043,20.934,6.834,31.533,8.713c9.059,1.606,19.112,4.218,26.57-2.351
		C76.286,451.656,74.155,444.035,68.859,442.845z"/>
	<path style="fill:#CAD6DD;" d="M496.639,442.279c-13.728,4.149-29.971-1.407-43.198,5.207c-2.882,1.441-2.954,5.425-0.973,7.558
		c6.904,7.436,18.495,5.722,27.689,5.902c7.634,0.15,16.294,1.189,23.235-2.649C512.027,453.521,506.209,439.386,496.639,442.279z"
		/>
	<path style="fill:#CAD6DD;" d="M495.372,206.012c-9.737-7.866-21.592-4.329-33.117-4.215c-19.753,0.197-39.509,0.494-59.26,0.813
		c-39.492,0.638-78.96,2.254-118.441,3.321c-39.376,1.064-78.637,0.801-118.013,0.21c-38.401-0.577-76.575,2.018-114.688,6.403
		c-6.563,0.755-6.71,9.722,0,10.329c4.962,0.449,9.925,0.763,14.889,0.986c0.711,0.644,1.582,1.139,2.648,1.374
		c18.249,4.028,37.4,3.301,56.019,4.535c18.026,1.194,35.984,2.571,54.059,2.749c37.436,0.369,74.934-1.721,112.277-4.148
		c37.382-2.429,74.814-5.55,112.296-5.662c17.95-0.054,35.978,0.076,53.918,0.621c12.009,0.365,24.603,3.082,35.596-3.222
		C498.151,217.472,499.929,209.693,495.372,206.012z"/>
</g>
<path style="fill:#10537E;" d="M104.971,255.267c-11.887,9.124-19.939,25.536-28.822,37.535
	c-5.471,7.39-12.352,14.094-15.401,23.047c-2.361,6.932-1.862,16.624-1.383,24.056c0.257,3.981-0.068,6.175,3.955,7.873
	c5.448,2.299,15.871,0.31,21.831,0.31c21.43,0,42.599,2.846,64.083,1.61c5.026-0.289,5.623-0.113,6.459-5.631
	c1.599-10.556,0.792-21.698,1.296-32.346c0.721-15.227,5.659-31.171,3.802-46.508c-0.806-6.652-3.707-8.651-9.987-10.215
	c-5.748-1.432-11.869-1.978-17.783-2.697c-5.723-0.695-11.014-0.149-16.7-0.199C112.053,252.066,107.603,250.235,104.971,255.267z"
	/>
<g>
	<path style="fill:#E4EDF1;" d="M128.043,349.162c0.779-8.904,3.404-22.025,5.485-32.058c1.273-6.137,1.355-15.398,6.582-19.724
		c2.72-2.251,15.6-5.475,18.407-1.764c2.139,2.828-1.287,15.229-1.754,18.812c-1.037,7.951-2.348,15.422-4.186,23.206
		c-1.001,4.238-1.01,7.924-4.147,10.441C142.403,352.912,135.108,346.51,128.043,349.162z"/>
	<path style="fill:#E4EDF1;" d="M108.191,349.162c-0.015-8.168-2.762-17.591-4.426-25.621c-0.817-3.945-2.059-15.869-5.005-18.38
		c-3.114-2.653-14.168-0.954-15.26,2.677c-1.208,4.012,3.357,12.053,4.054,16.109c0.82,4.779,0.712,4.317-3.375,6.555
		c-7.015,3.841-15.62,4.559-22.586,7.501c2.242,10.344,8.909,10.272,18.594,10.622C88.845,348.938,99.817,346.68,108.191,349.162z"
		/>
	<path style="fill:#E4EDF1;" d="M447.822,350.595c-44.185-0.04-88.307,2.167-132.507,2.335c-22.103,0.084-44.071-0.383-66.143-1.561
		c-10.279-0.548-20.768-0.993-30.938-2.618c-10.759-1.72-21.743-5.206-32.149-0.033c-2.786,1.385-2.794,11.632,1.322,12.539
		c19.933,4.392,41.399,3.849,61.764,5.18c22.053,1.441,44.054,1.502,66.143,1.399c44.194-0.206,88.324-2.213,132.507-1.865
		C457.716,366.049,457.731,350.604,447.822,350.595z"/>
</g>
<path style="fill:#CAD6DD;" d="M447.822,356.548c-21.858-2.823-45.812,0.801-67.824,1.598c-21.193,0.767-42.39,1.542-63.597,1.724
	c-20.765,0.178-41.543-0.077-62.296-0.8c-10.947-0.382-21.853-0.633-32.807-0.657c-9.684-0.022-21.911,1.913-31.055-1.404
	c-1.982-0.719-3.376,2.527-1.446,3.432c6.539,3.068,13.13,2.904,20.266,3.155c11.569,0.407,23.143,0.593,34.707,1.163
	c22.775,1.121,45.593,1.568,68.394,1.56c22.619-0.009,45.228-0.725,67.833-1.44c22.537-0.712,46.418,1.356,68.713-1.76
	C452.797,362.547,451.169,356.98,447.822,356.548z"/>
<path style="fill:#10537E;" d="M200.476,255.803c-6.665,9.568-7.256,24.186-6.568,35.476c0.768,12.607-0.177,26.445,3.07,38.748
	c5.207,19.73,29.888,17.091,46.372,18.06c35.352,2.078,70.836,0.653,106.162-1.087c24.571-1.21,49.708,0.662,74.115-2.16
	c11.732-1.357,15.053-7.316,16.562-18.788c2.069-15.729,1.392-32.547,0.67-48.367c-0.258-5.669,0.64-15.797-2.159-20.875
	c-2.54-4.609-8.032-4.506-12.924-4.783c-23.393-1.325-47.011,0.102-70.502,0.018c-27.725-0.099-55.439,1.93-83.139,0.511
	c-12.109-0.62-24.438-0.924-36.576-0.389c-7.444,0.328-14.902,0.687-22.353,0.968C207.807,253.339,202.998,255.441,200.476,255.803z
	"/>
<g>
	<path style="fill:#EB3840;" d="M33.004,379.635c3.808-1.615,9.012-1.331,13.008-0.568c7.339,1.401,8.507,12.681,9.361,18.688
		c0.445,3.131,3.411,15.523-0.581,17.692c-0.789,0.429-2.493-0.357-3.449-0.423c-2.406-0.169-4.72,0.55-7.08,0.857
		c-5.252,0.683-11.604,1.83-16.845,1.485c0.052-5.164,2.975-10.439,3.26-15.854C31.102,393.426,33.184,384.844,33.004,379.635z"/>
	<path style="fill:#EB3840;" d="M481.674,385.816c-5.27,0.146-12.639-1.717-17.178,1.356c-9.131,6.181-5.685,22.716-5.037,31.761
		c0.144,2.009-0.319,3.6,1.264,4.531c1.642,0.966,6.597-0.405,8.301-0.509c3.398-0.207,7.493,0.453,10.778-0.617
		c4.453-1.451,3.529-7.234,3.57-11.607C483.447,402.885,484.891,393.464,481.674,385.816z"/>
</g>
<g>
	<path style="fill:#FF7A49;" d="M401.385,78.167c-5.338-10.464-13.753-18.336-22.123-26.374
		c-8.792-8.445-17.242-16.715-27.58-23.317c-23.088-14.745-48.983-21.39-76.278-18.394c-24.657,2.706-47.608,8.484-66.919,24.645
		c-13.232,11.074-27.135,27.699-33.06,45.105c-0.702,0.816-1.424,1.616-2.112,2.444c-7.298,8.797,4.514,21.264,12.782,12.781
		c9.003-9.239,32.861-9.033,44.385-10.194c0.461-0.047,0.923-0.079,1.384-0.123c2.458,2.878,5.907,4.911,9.587,6.173
		c15.236,5.226,34.019,2.513,49.619,0.719c11.88-1.366,23.546-3.374,35.216-5.672c4.807,0.408,9.607,0.873,14.39,1.434
		c17.777,2.086,35.481,5.142,53.434,3.45C400.58,90.234,404.457,84.189,401.385,78.167z"/>
	<path style="fill:#FF7A49;" d="M401.734,147.165c-4.647-2.187-9.968-1.485-14.887-0.879c-7.803,0.962-15.571,1.293-23.439,1.342
		c-18.464,0.116-36.853-1.061-55.322-0.36c-21.634,0.821-42.914,0.879-64.525-0.66c-19.559-1.394-42.134-5.351-61.383-0.453
		c-4.708,1.198-5.866,6.972-3.124,10.337c-1.51,3.435-0.9,7.949,1.675,10.836c10.75,12.053,20.415,13.062,35.869,12.647
		c17.742-0.476,35.579,0.71,53.339,0.598c34.574-0.218,68.661-0.327,103.076,2.625c11.464,0.983,22.76-1.042,30.164-10.505
		C409.268,164.908,412.892,152.417,401.734,147.165z"/>
</g>
<g>
	<path style="fill:#E8643F;" d="M385.175,78.92c-12.114-5.45-26.972-3.691-40.033-4.288c-14.342-0.656-28.662-1.741-42.977-2.821
		c-13.054-0.985-26.594-1.01-39.426-3.789c-2.141-0.464-4.075-0.962-5.882-1.61c-5.133-5.295-10.444-10.834-9.277-18.173
		c1.143-7.201,6.182-13.171,11.292-18.063c2.742-2.625,10.814-11.24,14.883-10.363c3.14,0.677,5.075-3.507,2.216-5.256
		c-5.816-3.556-11.21-0.284-16.445,2.955c-3.687,2.281-7.285,4.659-10.592,7.343c-1.151-1.521-3.05-2.39-5.328-1.64
		c-17.942,5.91-33.947,17.329-48.073,29.653c-9.453,8.248-26.158,22.366-25.204,36.323c0.392,5.72,7.822,10.042,12.222,5.063
		c8.522-9.642,19.49-9.513,31.563-9.325c12.161,0.189,24.523,0.849,36.684-0.154c2.287,0.698,4.607,1.274,6.838,1.762
		c13.215,2.887,27.017,3.11,40.454,4.097c14.994,1.101,29.986,2.242,45.005,2.947c13.518,0.634,29.637,3.057,42.081-3.208
		C389.362,88.265,389.653,80.936,385.175,78.92z"/>
	<path style="fill:#E8643F;" d="M385.2,168.391c-8.596-3.124-16.746-1.713-25.669-1.161c-7.794,0.482-15.598,0.376-23.402,0.402
		c-18.094,0.061-36.171,1.142-54.27,1.208c-17.102,0.062-34.263,0.149-51.328-1.103c-15.671-1.15-30.685-6.701-46.15-7.791
		c-3.821-0.269-5.056,4.541-2.905,7.013c10.123,11.625,28.483,15.499,43.049,17.747c16.739,2.583,34.037,2.744,50.936,2.81
		c18.945,0.074,37.845-0.909,56.779-1.12c17.43-0.194,36.376,1.1,52.961-5.217C391.393,178.821,391.556,170.702,385.2,168.391z"/>
</g>
<path style="fill:#5CBF4B;" d="M412.933,106.75c-8.076-13.674-29.289-11.733-42.978-13.034c-28.355-2.693-56.917-2.813-85.374-2.639
	c-13.885,0.084-27.771,0.365-41.657,0.35c-10.85-0.012-21.708-1.366-32.554-0.999c-16.573,0.56-37.686,8.113-39.177,27.484
	c-0.486,6.31,8.812,9.056,12.151,4.093c0.17-0.019,0.335-0.01,0.506-0.04c11.178-1.946,21.167-6.203,32.647-3.535
	c9.552,2.22,16.583,4.224,26.562,3.013c9.845-1.194,19.726-3.734,29.71-2.792c8.941,0.843,16.573,4.004,25.676,2.538
	c9.497-1.53,17.676-4.816,27.531-3.965c9.586,0.828,18.967,3.524,28.652,3.262c10.531-0.285,20.677-2.914,31.293-1.945
	c7.598,0.694,14.683,2.439,22.184,0.078C413.03,117.069,415.667,111.379,412.933,106.75z"/>
<path style="fill:#38AD34;" d="M405.669,106.947c-16.473-14.118-44.789,0.192-64.076-2.417c-10.767-1.456-19.886-1.78-30.546,0.854
	c-5.543,1.37-11.108,3.338-16.903,3.129c-6.077-0.219-11.363-3.407-17.132-4.896c-11.263-2.909-21.608,0.948-32.266,4.345
	c-6.51,2.076-11.534,2.663-17.596-0.875c-3.39-1.979-6.363-3.837-10.286-4.597c-8.653-1.675-17.28,1.811-25.494,4.106
	c-5.303,1.482-12.952,2.321-14.932,8.31c-0.608,1.839,1.063,4.309,3.112,4.086c5.874-0.641,11.824-0.97,17.663-1.937
	c5.049-0.836,10.326-2.635,15.497-1.785c4.782,0.786,7.524,3.906,11.576,6.15c7.625,4.222,16.395,3.448,24.498,1.187
	c6.258-1.747,12.642-4.625,19.258-4.626c5.601,0,10.726,2.538,15.983,4.087c8.925,2.628,17.558,1.903,26.548-0.039
	c11.639-2.515,19.978-3.618,31.817-1.628c9.952,1.673,18.785,0.538,28.675-0.767c10.492-1.385,21.31,1.138,31.444-0.721
	C407.656,117.97,409.592,110.31,405.669,106.947z"/>
<path style="fill:#AD514A;" d="M433.336,121.802c-11.951-1.224-24.261,1.646-36.351,1.14c-12.569-0.527-24.855,2.097-37.399,1.886
	c-11.832-0.199-23.351-1.888-35.219-1.155c-12.451,0.768-24.793,1.1-37.264,1.284c-3.314,0.049-6.596,0.318-9.865,0.669
	c-0.02-0.001-0.039-0.001-0.059-0.001c-13.542-0.327-26.848-0.594-40.121,1.51c-5.974-0.831-11.86-2.107-17.951-3.625
	c-4.528-1.129-9.591-2.333-14.3-1.926c-4.919,0.425-8.787,3.3-13.481,4.283c-6.128,1.283-21.474,2.676-26.612-1.496
	c-11.093-9.009-19.13,8.907-9.891,13.373c13.116,9.251,34.075,7.349,48.214,2.569c9.735-3.291,23.492,3.633,33.674,4.743
	c13.704,1.494,26.331-0.501,39.867-1.898c13.28-1.37,26.8-0.248,40.138-1.139c13.235-0.884,25.695-0.091,38.893,0.596
	c13.229,0.688,26.211-2.291,39.416-1.718c13.472,0.585,27.287,0.167,40.558-2.496C445.609,136.389,442.136,122.703,433.336,121.802z
	"/>
<path style="fill:#9C413E;" d="M436.555,133.497c-10.633,0.64-20.975,2.34-31.688,2.367c-10.228,0.026-20.444-0.175-30.673-0.013
	c-24.07,0.382-48.144,0.614-72.216,0.631c-47.31,0.035-94.436-5.418-141.743-2.508c-2.163,0.133-2.057,3.02,0,3.286
	c47.881,6.2,95.55,10.286,143.867,10.396c23.365,0.053,46.728-0.032,70.092-0.29c20.077-0.222,44.715,3.995,63.78-3.38
	C443.162,141.98,443.046,133.106,436.555,133.497z"/>
<g>
	<path style="fill:#FF7A49;" d="M387.267,311.592c0.002-0.024,0.009-0.045,0.01-0.069c1.032-15.445-15.233-24.649-29.123-22.595
		c-7.561,1.118-15.793,4.216-21.299,9.694c-2.465,2.453-5.014,6.118-6,9.873c-0.59,0.332-1.147,0.719-1.61,1.143
		c-1.522,1.397-2.066,3.524-1.8,5.499c0.479,3.563,4.42,6.871,8.17,5.442l0.079-0.03c0.738-0.281,1.413-0.647,2.013-1.083
		c1.044,0.592,2.23,0.976,3.585,0.997c6.399,0.096,12.658-1.218,19.048-1.25c5.856-0.029,11.587,0.634,17.409,0.166
		c1.322,0.627,2.673,0.945,4.19,0.741c2.104-0.282,3.851-1.531,4.921-3.36C387.798,315.157,387.85,313.258,387.267,311.592z"/>
	<path style="fill:#FF7A49;" d="M385.047,331.565c-14.866-0.876-30.132-0.385-45.013-0.262c-6.106,0.05-8.559,8.504-3.142,11.598
		c5.788,3.306,13.153,2.948,19.637,2.861c9.532-0.128,18.991,0.257,28.517-0.465C393.829,344.632,393.931,332.089,385.047,331.565z"
		/>
</g>
<path style="fill:#AD514A;" d="M389.716,319.218c-11.763-2.058-23.673-1.45-35.527-0.797c-8.249,0.454-21.454-1.595-26.493,6.54
	c-0.248,0.401-0.21,1.107,0.183,1.422c6.566,5.271,18.344,3.862,26.31,3.529c11.471-0.481,22.615-0.176,34.077,0.026
	C394.258,330.044,395.899,320.3,389.716,319.218z"/>
<path style="fill:#EB3840;" d="M304.058,334.756c-0.245-0.782-0.535-1.415-0.82-2.017c0.712-8.978-0.257-18.46-0.199-27.147h-0.226
	c-0.432-4.615-4.911-7.469-8.7-6.996c-7.137-3.368-17.98-2.986-23.337,2.271c-3.647-0.154-7.499,2.038-7.535,6.687
	c-0.082,10.852,0.857,22.586,2.606,33.292c0.017,0.105,0.063,0.196,0.086,0.298c-0.234,1.056-0.41,2.12-0.493,3.188
	c-0.247,3.165,2.625,5.89,5.547,6.282c2.81,0.378,5.951-1.274,6.854-4.091c0.386,0.018,0.779,0.026,1.169,0.04
	c0.522,1.08,1.355,2.037,2.475,2.755c2.472,1.585,6.281,1.926,8.755,0.118c0.828-0.605,1.593-1.309,2.159-2.154
	c0.875,0.197,1.785,0.263,2.685,0.175c2.575,0.501,4.762-0.447,6.786-2.065C305.03,342.87,305.19,338.356,304.058,334.756z"/>
<path style="fill:#CF242C;" d="M284.548,325.637c-4.389-6.778-6.69-14.374-8.744-22.103c-2.01-7.566-13.047-5.751-13.351,1.807
	c-0.225,5.612,0.186,11.21,0.706,16.805c-0.18,6.037,0.153,12.06,1.586,18.125c0.683,2.89,3.368,4.575,6.162,4.894
	c0.307,0.325,0.646,0.629,1.035,0.893c3.256,2.206,7.065,2.074,10.81,2.847c3.709,0.766,8.568-1.051,9.313-5.287
	C293.51,335.4,288.668,332.002,284.548,325.637z"/>
<path style="fill:#EB3840;" d="M491.314,247.095c-0.581-8.826-1.402-17.641-11.439-20.147c-10.122-2.528-23.77-0.115-34.111,0.287
	c-21.402,0.831-42.795,1.765-64.212,1.741c-25.455-0.028-50.899,0.847-76.342,1.526c-19.405,0.518-38.721-2.352-58.049-0.988
	c-16.001,1.129-32.524,2.073-48.525,1.687c-17.058-0.411-34.092-0.006-51.176-0.509c-19.095-0.562-38.611-1.667-57.598,0.847
	c-1.994,0.264-6.831-0.252-8.498,1.081c-2.782,2.226-4.983,11.434-6.655,14.356c-6.102,10.667-15.429,18.952-21.953,29.39
	c-4.552,7.283-8.017,15.542-20.217,25.579c-0.115,5.894-1.266,11.736-1.78,17.599c-0.494,5.628,0.804,10.157,1.032,15.57
	c0.375,8.935-3.874,21.047,2.467,28.841c9.711-2.049,16.614-7.094,27.255-5.016c7.49,1.463,14.466,5.449,20.806,9.536
	c8.094,5.219,11.444,7.961,21.714,6.304c9.928-1.603,19.306-8.071,29.651-6.733c10.707,1.385,17.273,7.891,24.684,14.894
	c6.578,6.215,17.484,9.544,26.522,9.143c8.49-0.376,17.405-5.652,25.662-3.624c17.784,4.369,26.079,23.658,47.31,18.125
	c13.245-3.452,22.589-11.921,35.047-16.764c7.784-3.026,14.654-2.731,22.703-0.905c8.09,1.836,15.545,4.363,23.83,4.776
	c8.22,0.41,15.937-1.921,22.743-6.358c6.102-3.978,11.851-9.303,19.497-9.787c6.081-0.386,13.847,1.407,19.421,3.822
	c9.542,4.134,16.782,5.465,27.213,3.244c6.653-1.417,29.648-6.415,37.673-14.431c5.809-1.012,15.544-2.334,17.828-6.06
	c1.733-2.827,1.902-8.93,2.503-12.167c1.462-7.874,1.603-15.501,1.704-23.493c0.198-15.846,3.138-31.908,3.868-47.811
	C492.418,269.156,492.068,258.564,491.314,247.095z M159.162,291.337c-1.191,12.497-2.493,24.904-2.683,37.504
	c-0.118,7.907-2.624,20.464-12.116,22.516c-4.441,0.96-11.033-1.101-15.666-1.337c-6.472-0.328-12.949-0.551-19.421-0.87
	c-11.798-0.583-23.635,1.058-35.347-1.248c-17.497-3.445-19.352-14.727-14.697-30.824c2.742-9.482,7.891-16.941,12.907-25.329
	c6.222-10.402,13.49-19.087,22.116-27.645c6.878-6.824,11.549-12.295,21.98-12.393c8.191-0.077,17.845-1.544,25.907-0.226
	c9.203,1.505,18.572,4.169,19.708,14.246C162.83,274.416,159.969,282.87,159.162,291.337z M396.221,365.795
	c-8.457,0.09-16.882,0.169-25.302,0.564c-13.886,0.652-27.189-0.625-40.995-0.295c-15.895,0.38-31.796,0.992-47.694,0.386
	c-13.147-0.501-26.377,0.079-39.498-0.905c-9.471-0.71-18.187-2.094-27.7-1.345c-8.016,0.631-34.576,3.573-30.632-11.744
	c1.842-7.154,7.716-4.116,12.713-6.8c6.643-3.57,0.862-7.876-1.077-13.099c-4.875-13.123-6.441-29.675-5.751-43.605
	c0.373-7.538,1.524-15.124,4.829-21.884c4.545-9.295,7.613-14.342,17.921-16.778c24.021-5.677,52.042-1.82,76.488-0.953
	c21.598,0.767,43.359,0.383,64.943,1.518c20.378,1.072,40.777,2.346,61.194,2.029c14.385-0.224,25.438,4.221,26.216,20.14
	c1.063,21.721-1.966,45.265-6.499,66.466c-0.433,2.022-2.293,4.249-1.043,6.088c1.461,2.149,11.208,2.147,13.591,2.764
	c4.705,1.218,8.182,3.591,7.437,9.415c-0.144,1.118-0.816,2.208-1.613,3.275c-9.238,1.264-19.964,4.22-23.541,4.643
	C419.073,366.991,407.592,365.674,396.221,365.795z"/>
<g>
	<path style="fill:#CF242C;" d="M482.161,225.833c-15.449,0.246-30.734,3.052-46.214,3.417c-16.332,0.386-32.68,0.245-49.016,0.552
		c-34.94,0.659-69.89,0.128-104.826,0.888c-33.771,0.735-67.659,4.76-101.423,2.67c-31.689-1.962-66.087-8.557-97.363,0.154
		c-4.484,1.249-4.564,7.954,0,9.167c14.592,3.879,30.922,1.943,45.881,1.976c16.475,0.037,32.929,1.231,49.409,1.331
		c34.525,0.21,68.975-1.987,103.496-2.414c34.252-0.423,68.442-0.209,102.686,0.602c16.379,0.388,32.777,0.84,49.163,0.796
		c16.1-0.044,32.132-2.696,48.207-2.122C493.093,243.242,493.147,225.658,482.161,225.833z"/>
	<path style="fill:#CF242C;" d="M450.639,367.117c-8.511-3.501-18.379-2.523-27.355-1.715c-11.019,0.991-21.879,1.258-32.931,1.504
		c-22.954,0.51-45.991,1.329-68.95,1.156c-22.062-0.167-44.071,0.314-66.127,0.797c-8.385,0.184-16.768,0.242-25.152,0.267
		c-0.64-1.306-1.792-2.397-3.453-2.919c-12.507-3.928-28.435-1.085-41.217,0.316c-5.886,0.645-6.032,8.787,0,9.272
		c2.821,0.227,5.772,0.606,8.789,1.017c15.749,5.228,34.832,3.79,50.837,3.985c24.747,0.301,49.484-0.426,74.229,0.008
		c24.45,0.429,48.711-1.814,73.124-2.14c10.964-0.147,21.741-0.505,32.673-1.287c9.293-0.664,19.551,1.174,26.648-6.044
		C453.204,369.858,452.345,367.819,450.639,367.117z"/>
</g>
<path d="M384.094,434.743c-7.989,10.551-7.487,27.387,3.895,35.357c9.864,6.907,25.323,5.412,31.526-5.703
	c0.302-0.541,0.535-1.097,0.78-1.65c5.971-7.243,2.193-20.871-3.819-28.053C407.775,424.299,392.489,423.655,384.094,434.743z
	 M410.617,464.278c-0.421,0.356-0.563,0.773-0.544,1.182c-0.723,0.404-1.492,0.751-2.307,1.03
	c-11.188,3.822-22.038-4.704-21.51-16.295c0.565-12.384,13.358-22.142,23.679-12.03C417.464,445.54,419.095,457.111,410.617,464.278
	z"/>
<path d="M492.63,419.714c3.12-11.527-0.078-27.134,0.247-38.22c0.773-26.444,1.866-52.896,1.83-79.354
	c-0.033-23.051,1.459-47.029-1.238-70.046c5.769-0.966,11.018-3.264,14.546-8.78c6.559-10.252,4.701-26.283-3.263-35.162
	c-10.307-11.491-29.317-11.601-43.576-12.188c-17.229-0.709-34.439,0.601-51.656,1.131c3.915-7.701,7.265-18.348,5.771-26.578
	c9.077,0.14,18.811-0.669,26.099-5.787c9.083-6.379,9.898-19.306,1.634-26.812c-4.222-3.835-9.731-5.268-15.308-4.769
	c-3.45,0.309-6.448,1.072-9.293,1.818c0.122-6.534-1.15-13.359-5.399-18.314c-1.142-1.332-2.438-2.447-3.832-3.41
	c0.214-0.924,0.25-1.94,0.028-3.047c-3.015-15.051-7.479-27.2-17.665-38.853c-11.137-12.741-24.214-24.305-38.508-33.421
	c-24.791-15.809-55.439-17.335-83.72-12.417c-27.171,4.725-55.83,15.773-76.727,34.164c-9.803,8.628-17.038,19.229-21.656,31.428
	c-2.46,6.497-7.381,22.507,2.166,25.827c-5.405,5.313-8.014,12.331-4.801,20.321c-2.061-0.49-4.189-0.892-6.46-1.032
	c-11.71-0.723-21.668,10.531-16.903,21.941c4.216,10.097,14.257,12.037,23.713,10.071c-1.582,9.12,5.396,21.733,13.185,29.192
	c-35.784-0.857-71.513-2.913-107.284,1.414c-11.494,1.39-24.306,2.802-30.123,14.304c-4.874,9.639-5.428,27.28,2.279,35.732
	c5.798,6.358,16.003,7.299,25.244,7.501c-7.539,7.195-12.506,20.301-17.63,27.315c-10.28,14.071-26.466,27.542-31.152,44.873
	c-4.783,17.687-0.594,38.7-0.029,56.746c0.302,9.649,0.227,19.164-0.148,28.8c-0.248,6.349-0.884,13.689,2.091,19.475
	c-9.42,1.157-18.891,4.19-23.138,13.463c-6.306,13.77,3.602,28.221,16.143,33.817c13.491,6.018,34.132,5.584,49.247,1.406
	c3.84,23.21,20.079,43.666,47.281,46.403c29.708,2.989,59.216-15.784,64.099-45.62c4.537,1.813,9.415,1.268,14.651,1.152
	c7.606-0.169,15.225-0.064,22.833-0.076c16.709-0.026,33.419-0.081,50.128,0.095c15.787,0.166,31.596,0.017,47.378,0.348
	c9.593,0.201,20.326,0.886,29.297-2.957c3.639,23.48,19.938,44.296,47.396,47.058c28.232,2.84,56.289-13.972,63.199-41.256
	c12.487,3.55,30.623,0.233,42.714-3.702c11.544-3.758,15.867-14.445,13.693-26.051C508.171,427.821,501.328,422.361,492.63,419.714z
	 M178.4,83.153c1.331-5.168,3.437-10.148,5.994-14.832c6.008-11.004,14.821-19.896,25.2-26.832
	c19.476-13.016,43.2-21.194,66.285-24.617c25.675-3.807,52.142-0.979,73.907,13.95c11.137,7.64,21.173,16.865,30.112,26.972
	c8.533,9.647,11.877,18.946,14.922,30.319c-3.412-0.577-6.843-0.927-10.026-1.318c-31.621-3.876-63.728-1.404-95.492-1.725
	c-31.131-0.315-63.659-2.735-94.576,1.759c-6.312,0.918-12.765,3.371-17.868,6.987C177.615,90.344,177.504,86.634,178.4,83.153z
	 M188.896,99.231c10.259-3.888,22.518-3.976,33.352-4.471c24.384-1.114,48.741,0.243,73.117,0.904
	c22.744,0.617,45.542-0.06,68.259,1.389c11.01,0.702,25.136,0.541,35.31,5.198c6.014,2.752,6.554,8.499,6.916,14.377
	c-1.854-0.205-3.807-0.666-5.939-1.512c-16.724-6.634-29.562,2.395-46.244,2.487c-8.089,0.045-15.681-3.785-23.68-4.676
	c-8.626-0.96-16.74,1.138-25.07,3.073c-11.216,2.605-20.44,0.804-31.563-0.821c-8.299-1.212-15.369,0.007-23.242,2.615
	c-8.728,2.891-15.012,4.558-23.865,1.167c-5.592-2.142-10.8-5.025-16.932-5.23c-7.394-0.248-13.574,3.377-20.455,5.391
	c-4.589,1.343-8.551,1.007-12.406,0.179C175.591,109.422,178.71,103.091,188.896,99.231z M175.069,139.568
	c-6.433,0.18-16.046,0.751-19.159-4.514c-6.458-10.922,8.648-8.955,13.889-7.502c2.438,0.676,4.827,1.367,7.348,1.696
	c7.371,0.962,13.362-1.115,20.193-3.494c8.764-3.053,14.07-3.173,22.302,0.976c12.474,6.287,20.105,6.39,33.53,2.158
	c16.314-5.142,31.184,2.458,47.659-0.262c8.404-1.388,16.613-4.732,25.229-4.58c7.846,0.138,15.133,3.495,22.871,4.412
	c15.099,1.788,29.694-8.244,44.51-3.876c6.292,1.855,10.63,5.004,17.54,4.612c4.617-0.262,32.53-10.552,26.025,3.682
	c-2.539,5.558-13.428,5.627-18.188,6.306c-3.347,0.477-6.392,1.133-9.414,2.247c-7.26-4.51-19.644-4.013-26.492-4.085
	c-16.352-0.171-32.54,2.516-48.814,3.652c-19.419,1.356-38.969,0.832-58.409,0.28c-18.893-0.536-37.765-0.841-56.662-1.084
	c-8.712-0.112-17.471-0.345-26.164-0.961c-5.22-0.37-11.834-2.334-16.874-0.119C175.667,139.254,175.37,139.412,175.069,139.568z
	 M185.067,149.016c4.782-0.814,10.932,0.819,15.838,1.104c26.979,1.568,54.103,1.861,81.118,2.732
	c25.571,0.824,50.773,0.048,76.273-1.789c12.432-0.896,25.182-1.656,37.553,0.326c7.206,1.154,6.739,2.286,5.075,9.702
	c-1.233,5.498-3.615,10.575-5.787,15.745c-0.068,0.163-0.092,0.314-0.146,0.474c-18.945,0.126-37.906-0.259-56.845-0.42
	c-43.671-0.372-87.372-0.347-131.043-0.055c-4.738,0.032-9.462,0.174-14.181,0.358c-3.095-5.753-6.492-11.424-9.136-17.378
	C181.704,155.128,178.585,150.121,185.067,149.016z M71.61,220.923c-3.151-0.195-10.59,0.448-13.102-2.062
	c-2.605-2.603-1.75-11.201-1.398-14.392c0.546-4.949,2.018-7.399,6.595-9.224c10.013-3.993,22.328-4.883,33.977-5.362
	c34.958,1.519,70.343-1.461,105.276-1.135c40.877,0.381,81.77,0.831,122.643,1.507c35.642,0.59,71.181,1.41,106.819,0.412
	c17.081-0.478,35.979-1.614,52.61,3.01c7.713,2.145,12.09,7.478,12.02,15.648c-0.069,8.076-3.936,9.676-11.26,9.988
	c-71.789,3.063-143.63,2.91-215.469,3.18c-37.381,0.141-74.759,0.884-112.141,0.795c-19.023-0.045-38.048-0.307-57.06-0.975
	C91.278,221.968,81.438,221.534,71.61,220.923z M37.569,312.523c3.907-15.55,19.45-29.062,28.404-42.034
	c4.188-6.068,7.514-12.415,10.956-18.926c2.598-4.916,6.113-9.57,7.717-14.917c21.677,0.928,43.375,1.265,65.07,1.277
	c43.726,0.024,87.439-1.255,131.163-1.511c44.16-0.258,88.306-0.572,132.457-1.587c21.177-0.487,42.359-1.695,63.534-2.008
	c2.37-0.035,4.844-0.005,7.332-0.035c-3.38,19.27-2.378,39.52-2.685,58.928c-0.349,22.044-0.889,44.052-1.656,66.085
	c-0.074,2.128-0.12,4.248-0.178,6.371c-7.863,2.249-16.018,3.47-23.765,6.13c-7.548,2.592-14.625,6.426-22.223,8.892
	c-9.686,3.145-17.584,2.687-27.083-0.841c-7.897-2.934-15.115-4.463-23.627-3.434c-16.699,2.018-30.331,17.693-47.023,16
	c-8.489-0.861-16.315-4.836-24.86-5.678c-7.472-0.737-14.779,0.286-21.803,2.931c-15.228,5.735-29.65,21.504-47.171,15.328
	c-13.234-4.665-20.498-17.868-35.454-19.016c-7.241-0.556-14.214,1.397-21.249,2.742c-7.29,1.393-14.087,2.049-20.458-2.318
	c-3.523-2.415-5.915-6.142-8.879-9.155c-8.635-8.776-19.137-12.297-31.114-9.494c-9.411,2.202-18.318,7.261-28.235,6.36
	c-9.047-0.822-13.842-8.686-21.754-12.238c-12.387-5.562-25.675-4.454-37.547,0.96C36.8,345.539,33.785,327.585,37.569,312.523z
	 M51.938,412.157c-4.96,0.237-9.922,0.393-14.881,0.598c0.006-0.065,0.022-0.123,0.026-0.189c0.458-7.191-0.502-14.446-0.016-21.739
	c0.257-3.851,0.39-7.696,0.461-11.542c7.33,0.713,11.484,4.698,13.228,13.289c0.874,4.302,1.075,8.78,1.194,13.159
	C52.006,407.81,51.804,410.024,51.938,412.157z M66.447,451.623c-10.672-2.031-22.003-0.511-32.791-1.771
	c-6.502-0.759-14.212-2.58-17.79-8.818c-3.715-6.477-1.407-11.695,5.07-14.319c8.035-3.254,17.59-2.303,26.082-2.767
	c7.887-0.431,17.109,0.089,25.76-0.555C68.492,432.212,66.424,441.958,66.447,451.623z M163.67,470.35
	c-9.862,21.425-38.455,30.484-59.719,21.538c-15.366-6.464-23.204-22.41-23.465-38.493c-0.263-16.177,6.772-32.971,20.793-41.784
	c12.446-7.823,29.206-8.593,43.317-3.385c6.939,4.662,12.443,11.246,16.535,19.708C167.426,440.948,169.884,456.854,163.67,470.35z
	 M439.453,470.35c-9.862,21.425-38.455,30.484-59.719,21.538c-15.366-6.464-23.204-22.41-23.465-38.493
	c-0.263-16.177,6.772-32.971,20.793-41.784c12.446-7.823,29.206-8.593,43.318-3.385c6.939,4.662,12.443,11.246,16.535,19.708
	C443.209,440.948,445.667,456.854,439.453,470.35z M447.517,423.946c-3.425-6.614-7.897-12.616-13.26-17.31
	c-6.524-7.495-15.081-12.812-25.901-14.586c-14.977-2.455-31.042,1.5-43.074,10.743c-16.017,12.303-23.442,31.442-23.042,50.102
	c-25.861-2.426-52.013-2.615-77.97-2.953c-16.021-0.209-32.042-0.198-48.064-0.223c-11.748-0.018-25.183-1.587-36.94,0.562
	c-1.145-15.94-8.731-33.089-20.792-43.646c-6.525-7.495-15.081-12.812-25.901-14.586c-14.977-2.455-31.042,1.5-43.074,10.743
	c-3.327,2.555-6.255,5.425-8.849,8.505c-6.331-1.052-13.328-0.34-19.866,0.258c0.261-3.862-0.478-8.189-0.852-11.526
	c-0.593-5.27-1.641-10.637-3.912-15.465c-3.803-8.084-10.872-11.785-18.443-9.679c0.018-3.193,0.01-6.387-0.025-9.588
	c-0.001-0.096-0.005-0.195-0.007-0.291c8.29-3.045,17.729-4.073,26.271-2.055c9.501,2.245,13.646,8.081,21.126,13.364
	c10.599,7.487,23.642,2.619,34.601-1.185c9.066-3.147,17.485-5.204,26.129,0.439c6.178,4.033,9.4,11.005,15.084,15.537
	c13.273,10.582,28.202,0.874,42.858,0.559c16.282-0.349,24.494,16.042,39.432,19.875c13.694,3.514,25.69-3.566,37.075-10.233
	c8.433-4.938,17.06-9.112,27.079-8.989c9.509,0.117,18.007,4.634,27.261,6.109c16.087,2.564,26.249-8.838,40.317-13.993
	c12.009-4.4,21.531-1.928,32.974,2.184c7.049,2.533,13.989,3.043,21.339,1.532c7.566-1.556,14.708-4.719,21.662-7.995
	c9.385-4.42,18.771-6.678,28.744-8.839c-0.076,3.725-0.137,7.448-0.177,11.168c-6.872-2.436-14.74-2.606-19.999,2.959
	c-8.096,8.569-5.858,24.524-5.496,35.502c-1.198,0.344-2.355,0.698-3.423,1.069C449.219,422.429,448.271,423.116,447.517,423.946z
	 M477.915,417.647c-5.449-0.064-10.951,0.509-16.002,1.43c0.721-8.056-2.237-16.472,0.156-24.448
	c2.534-8.446,10.03-8.117,17.223-7.289c-0.046,6.77-0.055,13.542-0.017,20.338C479.298,411.978,479.436,415.321,477.915,417.647z
	 M484.788,453.677c-8.979,1.571-19.417,4.317-28.349,1.473c-0.425-0.135-0.831-0.209-1.227-0.26
	c0.544,0.069-2.248-17.278-2.567-18.707c10.776-2.021,36.193-10.681,43.875,1.12C503.481,448.003,493.124,452.218,484.788,453.677z"
	/>
<path d="M108.311,434.743c-7.99,10.551-7.488,27.387,3.895,35.357c9.864,6.907,25.323,5.412,31.526-5.703
	c0.302-0.541,0.535-1.097,0.78-1.65c5.971-7.243,2.193-20.871-3.819-28.053C131.992,424.299,116.706,423.655,108.311,434.743z
	 M134.834,464.278c-0.421,0.356-0.563,0.773-0.544,1.182c-0.723,0.404-1.492,0.751-2.307,1.03
	c-11.188,3.822-22.038-4.704-21.51-16.295c0.565-12.384,13.358-22.142,23.679-12.03C141.681,445.54,143.312,457.111,134.834,464.278
	z"/>
<path d="M63.832,351.074c5.455,1.503,11.74,0.51,17.342,0.701c9.452,0.324,18.894,0.883,28.35,1.161
	c8.923,0.263,17.872,0.122,26.782,0.595c5.277,0.279,11.693,1.162,16.457-1.746c8.646-5.278,6.557-21.234,7.527-29.789
	c2.074-18.274,6.9-38.034,4.138-56.434c-1.832-12.207-7.221-15.054-18.79-16.272c-6.327-0.666-12.764-1.492-19.177-1.821
	c-1.776-0.139-3.558-0.272-5.353-0.397c-5.929-0.414-12.605-1.81-18.191,0.97c-5.687,2.829-9.089,9.288-12.459,14.333
	c-6.23,9.327-12.743,18.464-19.322,27.548c-8.044,11.109-15.204,20.847-16.132,34.877C54.411,333.765,52.792,348.033,63.832,351.074
	z M101.416,343.9c-7.944-0.284-15.914-0.916-23.863-0.984c-5.614-0.048-9.758,0.233-12.154-3.41
	c7.567-0.541,19.078-2.782,23.695-8.351c5.23-6.307,0.566-15.703-2.492-22.962c3.309-0.181,6.598-0.218,9.919-0.115
	c0.94,8.345,3.391,16.415,4.667,24.729c0.551,3.597,0.754,7.743,2.193,11.147C102.726,343.933,102.071,343.923,101.416,343.9z
	 M155.163,296.997c-1.108,9.035-2.433,18.041-3.507,27.08c-0.756,6.355,0.78,18.607-6.924,21.031
	c-3.072,0.967-7.328,0.425-11.28-0.081c4.479-9.618,3.507-20.665,5.722-30.901c1.257-5.81,2.464-12.699,7.635-15.937
	c2.762-1.729,5.528-1.855,8.436-1.851C155.218,296.557,155.191,296.778,155.163,296.997z M75.966,297.45
	c5.214-7.097,10.407-14.208,15.476-21.41c3.963-5.63,7.778-13.434,12.89-18.191c5.348-4.977,14.213-3.216,20.989-3.255
	c0.262-0.002,0.523,0.009,0.786,0.008c5.556,0.562,11.093,1.293,16.565,1.945c4.125,0.491,8.216,0.122,11.195,3.201
	c3.516,3.634,3.138,9.219,3.224,14.052c0.103,5.808-0.504,11.64-1.21,17.429c-8.423-2.331-15.255-1.67-19.878,8.128
	c-6.545,13.868-6.042,29.723-10.544,44.198c-0.095,0.306-0.141,0.6-0.161,0.888c-5.388-0.083-10.775-0.191-16.161-0.328
	c1.067-13.012-4.292-26.913-5.71-39.5c-0.22-1.95-1.492-3.587-3.601-3.601c-6.262-0.04-12.41-0.088-18.54,1.29
	c-1.566,0.352-2.774,2.335-2.207,3.887c1.941,5.314,9.012,17.027,3.455,21.099c-4.988,3.655-13.263,3.157-19.212,5.019
	C61.786,318.622,68.137,308.105,75.966,297.45z"/>
<path d="M186.352,365.884c13.797,5.19,31.964,2.682,46.373,2.613c19.524-0.093,39.059,1.136,58.572,1.672
	c40.44,1.11,80.817-1.609,121.257-1.898c9.794-0.07,19.578-0.555,29.368-0.7c4.817-0.072,9.99,0.345,14.1-2.627
	c4.314-3.119,6.544-9.023,3.125-13.525c-4.415-5.814-12.902-7.146-21.528-6.955c0.813-0.905,1.537-1.934,2.119-3.146
	c3.349-6.975,2.621-16.886,3.61-24.4c1.827-13.876,2.592-27.631,2.577-41.611c-0.008-7.336,0.009-16.907-5.472-22.645
	c-6.012-6.293-16.727-5.838-24.641-5.534c-11.157,0.429-22.151,0.892-33.341,0.695c-39.895-0.701-80.798-3.299-121.084-0.868
	c-14.28-0.85-28.634-1.227-42.904-0.747c-8.507,0.286-17.989,0.925-23.72,8.102c-6.979,8.74-6.088,23.614-6.202,34.085
	c-0.148,13.511,0.626,27.716,3.644,40.96c0.975,4.279,2.4,7.764,4.184,10.631c-6.23-0.049-12.072,1.191-16.068,4.946
	C172.899,351.908,177.829,362.679,186.352,365.884z M204.242,258.39c26.36-1.289,52.602-3.802,79.023-4.341
	c27.575-0.563,55.129,0.928,82.679,1.887c12.011,0.418,24.099,1,36.12,0.716c7.376-0.174,14.813-1.305,22.196-0.696
	c13.527,1.115,12.69,12.176,12.629,23.043c-0.058,10.144-0.459,20.174-1.632,30.257c-0.694,5.964-1.763,11.89-2.354,17.865
	c-0.284,2.866,0.224,6.939-1.074,9.531c-4.231,8.442-27.103,5.848-35.203,5.721c-1.074-0.017-2.146-0.018-3.219-0.029
	c0.464-4.087,0.917-8.167-0.714-11.098c3.637-1.486,6.326-5.28,3.996-9.317c-1.004-1.74-2.842-2.923-5.124-3.744
	c-1.18-19.287-16.366-35.924-36.673-32.828c-15.084,2.299-37.01,17.768-28.843,35.112c-2.863,1.674-4.852,4.065-5.391,7.467
	c-0.258,1.63,0.402,3.9,2.375,4.182c1.194,0.171,2.268,0.276,3.282,0.311c-0.07,0.19-0.157,0.363-0.216,0.566
	c-0.916,3.187,0.314,7.135,2.513,10.375c-0.235,0.004-0.47,0.01-0.704,0.014c-6.665,0.115-13.338,0.163-20.009,0.24
	c-0.188-9.874-0.741-19.953-0.214-29.813c0.243-4.536,2.274-10.461,0.622-14.93c-2.36-6.387-12.883-6.024-21.651-5.164
	c-0.014-3.445-0.964-7.54-0.827-10.023c0.361-6.548,10.49-5.552,12.038-12.051c0.54-2.263-1.459-4.395-3.774-3.775
	c-4.053,1.086-9.075,4.254-12.243,6.99c-2.847,2.459-3.487,5.149-3.585,8.835c-0.028,1.04,0.532,6.473,1.773,10.709
	c-1.438,0.135-2.706,0.224-3.684,0.204c-9.503-0.189-18.399-2.278-18.147,10.131c0.127,6.3,1.524,12.696,2.101,18.976
	c0.595,6.482,0.392,13.902,2.557,20.153c-2.731-0.004-5.466,0.022-8.196,0.013c-12.151-0.043-24.586,0.201-36.687-1.048
	c-11.67-1.205-14.989-8.135-16.879-18.652c-1.995-11.107-2.797-22.573-2.821-33.844C198.262,281.502,196.373,264.548,204.242,258.39
	z M363.151,327.002c-6.339,0.063-12.609,0.319-18.943,0.07c-3.503-0.138-8.719-0.611-12.72,0.712
	c-0.911-0.304-1.823-0.606-2.738-0.902c5.499-6.167,22.603-4.09,29.062-3.984c5.616,0.092,11.217-0.272,16.833-0.201
	c3.543,0.045,9.922-0.623,13.086,0.997c3.327,1.703,1.454,1.814-1.157,3.639c-0.015,0.01-0.023,0.024-0.037,0.034
	C379.527,325.849,370.23,326.931,363.151,327.002z M385.928,342.303c-16.615,0.007-33.192,0.549-49.807,0.917
	c-1.598-3.203-3.311-7.01-1.247-8.988c2.287-2.191,11.544-0.003,14.581,0.033c7.256,0.087,14.511-0.383,21.776-0.257
	c3.201,0.055,7.007-0.447,10.077,0.328c1.419,0.08,2.839,0.13,4.26,0.152C386.196,337.105,386.297,339.71,385.928,342.303z
	 M330.962,318.453c0.597-6.531,1.198-12.309,6.356-17.422c4.462-4.423,10.6-7.285,16.691-8.532
	c16.575-3.395,28.056,8.764,29.671,24.209c-7.397-0.513-15.726,0.513-19.471,0.601C357.384,317.469,341.574,315.457,330.962,318.453
	z M289.655,301.316c1.402-0.05,2.804-0.087,4.205-0.09c5.309-0.011,7.997,0.27,7.366,6.205c-1.283,12.051-0.842,24.165-1.07,36.286
	c-2.239,0.021-4.477,0.018-6.716,0.029c0.247-8.904,0.619-18.122,0.513-27.038C293.883,310.759,292.53,305.978,289.655,301.316z
	 M278.38,301.729c2.649-0.025,5.304-0.154,7.959-0.275c6.719,13.87-2.672,28.954,3.159,42.309c-3.323,0.011-6.645,0.033-9.968,0.043
	c-1.104-8.064,4.291-15.799,4.282-24.047C283.804,313.591,282.075,306.816,278.38,301.729z M274.815,343.826
	c-2.655,0.005-5.312,0.035-7.967,0.035c2.704-8.299,0.34-19.498-0.341-27.827c-0.286-3.506-1.688-7.786-1.12-11.295
	c0.861-5.337,5.862-3.355,10.117-3.029c2.018,10.337,5.254,18.267,1.505,29.286C275.489,335.46,274.17,339.609,274.815,343.826z
	 M188.971,351.919c3.403-3.374,12.51-2.068,16.996-1.87c11.431,0.505,23.365,2.965,34.402,3.173
	c29.796,0.563,59.745,0.086,89.54-0.548c15.914-0.338,31.827-1.291,47.744-1.397c13.93-0.093,27.904,1.077,41.797-0.434
	c1.047-0.114,2.118-0.232,3.197-0.368c4.805,0.636,9.603,1.398,14.445,1.906c3.866,0.406,7.949,0.67,11.661,1.936
	c7.42,2.531,1.288,5.8-4.292,5.992c-32.851,1.13-65.718,0.714-98.57,2.185c-34.321,1.537-68.544-0.814-102.839-1.799
	c-15.187-0.436-30.519,0.497-45.633-1.349c-2.084-0.194-4.152-0.497-6.203-0.911C186.339,357.835,185.419,355.44,188.971,351.919z"
	/>
<path d="M274.34,47.853c4.236,0,8.293-3.724,8.097-8.097c-0.197-4.387-3.558-8.097-8.097-8.097c-4.235,0-8.292,3.724-8.096,8.097
	C266.439,44.143,269.801,47.853,274.34,47.853z"/>
<path d="M287.575,35.564c1.556,0.131,3.104-0.407,4.327-1.336c0.052-0.041,0.093-0.072,0.157-0.121
	c0.599-0.464,1.142-1.015,1.527-1.682c1.787-3.098,0.532-7.455-2.711-9.046c-2.069-1.015-4.552-1.321-6.601,0
	c-1.434,0.924-2.543,2.232-3.004,3.908c-0.451,1.636-0.198,3.574,0.659,5.038C283.168,34.442,285.22,35.366,287.575,35.564z"/>
<path d="M291.921,34.215c-0.006,0.005-0.013,0.008-0.019,0.013C291.169,34.795,291.492,34.546,291.921,34.215z"/>
<path d="M291.921,34.215c0.008-0.006,0.018-0.01,0.026-0.017C293.163,33.259,292.47,33.793,291.921,34.215z"/>
<path d="M300.41,51.137c3.48,0,6.815-3.061,6.653-6.654c-0.161-3.605-2.924-6.654-6.653-6.654c-3.48,0-6.815,3.06-6.653,6.654
	C293.918,48.088,296.68,51.137,300.41,51.137z"/>
<path d="M311.628,36.528c1.694,0.813,3.66,1.394,5.501,0.644c1.302-0.53,2.347-1.084,3.233-2.23c0.811-1.05,1.397-2.408,1.336-3.771
	c-0.049-1.104-0.333-2.163-0.85-3.141c-0.797-1.507-2.226-2.251-3.719-2.86c-1.878-0.766-3.784-0.18-5.501,0.644
	C307.575,27.76,307.575,34.582,311.628,36.528z"/>
<path d="M334.791,51.135c8.199,0,8.213-12.743,0-12.743C326.591,38.392,326.577,51.135,334.791,51.135z"/>
<path d="M314.195,55.494c0.153,3.406,2.763,6.288,6.288,6.288c3.289,0,6.44-2.892,6.288-6.288c-0.152-3.407-2.762-6.288-6.288-6.288
	C317.194,49.207,314.043,52.099,314.195,55.494z"/>
<path d="M275.413,58.761c-3.53,0-6.911,3.104-6.749,6.749c0.165,3.657,2.966,6.749,6.749,6.749c3.53,0,6.912-3.104,6.749-6.749
	C281.998,61.853,279.197,58.761,275.413,58.761z"/>
<path d="M247.513,67.083c3.443,0,6.74-3.027,6.581-6.581c-0.159-3.566-2.891-6.581-6.581-6.581c-3.442,0-6.74,3.027-6.581,6.581
	C241.092,64.068,243.824,67.083,247.513,67.083z"/>
<path d="M245.439,43.583c1.615,1.248,4.095,1.655,5.984,0.687c0.337-0.039,0.464-0.057,0.026-0.014
	c0.014-0.007,0.027-0.015,0.041-0.022c0.008-0.003,0.008-0.002,0.017-0.005c-0.003,0-0.006,0.001-0.008,0.001
	c0.048-0.026,0.096-0.049,0.144-0.077c1.597-0.344,2.966-1.094,3.864-2.631c1.101-1.882,0.884-3.855,0-5.747
	c-1.142-2.447-4.059-3.755-6.641-3.408c-2.594,0.348-5.12,2.431-5.498,5.135C243.032,39.89,243.407,42.013,245.439,43.583z"/>
<path d="M294.728,52.823c-7.121,0-7.132,11.066,0,11.066C301.849,63.889,301.862,52.823,294.728,52.823z"/>
<path d="M230.343,57.917c2.39,0,4.68-2.102,4.569-4.569c-0.11-2.476-2.007-4.569-4.569-4.569c-2.389,0-4.679,2.101-4.569,4.569
	C225.885,55.823,227.782,57.917,230.343,57.917z"/>
<path d="M352.854,308.426c1.987,0,3.89-1.747,3.798-3.798c-0.092-2.058-1.668-3.798-3.798-3.798c-1.987,0-3.89,1.747-3.798,3.798
	C349.149,306.686,350.725,308.426,352.854,308.426z"/>
<path d="M360.366,302.96c2.052,0,4.192-1.464,4.192-3.697c0-2.231-2.136-3.697-4.192-3.697c-1.933,0-3.786,1.701-3.697,3.697
	C356.759,301.266,358.293,302.96,360.366,302.96z"/>
<path d="M364.358,307.597c0.046,0.167,0.079,0.337,0.096,0.51c0.42,2.858,5.352,2.859,5.772,0c0.018-0.173,0.05-0.343,0.096-0.51
	c0.457-1.947-0.926-3.916-2.982-3.916C365.294,303.681,363.9,305.649,364.358,307.597z"/>
<g>
</g>
<g>
</g>
<g>
</g>
<g>
</g>
<g>
</g>
<g>
</g>
<g>
</g>
<g>
</g>
<g>
</g>
<g>
</g>
<g>
</g>
<g>
</g>
<g>
</g>
<g>
</g>
<g>
</g>
</svg>
