<svg enable-background="new 0 0 128 128" height="512" viewBox="0 0 128 128" width="512" xmlns="http://www.w3.org/2000/svg"><g id="Frog"><g id="Body_25_"><g id="Legs_3_"><g><path d="m82.4 93.2s8.2-6.2 11.2-5.4c4.1 1.1 5 8.7 1.7 15.4 0 0 5.8 1.5 5.4 4-.4 2.6-4.1 2.3-6.1 2-.7-.1-1.3.2-1.6.8-.7 1.5-2.4 4-5.2 3.1-3.8-1.3.1-7.4.1-7.4l-5.5-4.6z" fill="#8cc63f"/><path d="m89 114.8c-.5 0-1.1-.1-1.7-.3-1.2-.4-2.1-1.2-2.5-2.4-.7-2 .3-4.6 1.1-6.1l-4.5-3.8c-.3-.3-.5-.7-.5-1.2v-7.9c0-.5.2-.9.6-1.2 2.1-1.6 9.1-6.6 12.5-5.7 1.7.4 3 1.7 3.8 3.5 1.5 3.2 1.2 8-.5 12.4 2.2.8 5.3 2.4 4.8 5.2-.2 1-.7 1.9-1.5 2.5-1.7 1.2-4.4 1.1-6.3.7-1.2 2.8-3.1 4.3-5.3 4.3zm-5.1-14.4 5 4.1c.6.5.7 1.3.3 2-.8 1.3-1.8 3.6-1.5 4.7.1.2.2.4.6.5 1.3.4 2.4-.3 3.4-2.3.6-1.2 1.9-1.9 3.2-1.7 1.8.3 3.4.2 4-.2.2-.1.3-.3.3-.5.1-.5-2-1.8-4.3-2.3-.4-.1-.8-.4-1-.8s-.2-.9 0-1.3c2-3.9 2.4-8.6 1.2-11.4-.5-1-1.1-1.7-1.9-1.9-1.3-.3-5.8 2.1-9.4 4.7v6.4z"/></g><g><path d="m46.4 93.2s-8.2-6.2-11.2-5.4c-4.1 1.1-5 8.7-1.7 15.4 0 0-5.8 1.5-5.4 4 .4 2.6 4.1 2.3 6.1 2 .7-.1 1.3.2 1.6.8.7 1.5 2.4 4 5.2 3.1 3.8-1.3-.1-7.4-.1-7.4l5.5-4.6z" fill="#8cc63f"/><path d="m39.8 114.8c-2.1 0-4.1-1.4-5.4-4.1-1.9.3-4.6.5-6.3-.8-.8-.6-1.4-1.5-1.5-2.5-.5-2.8 2.7-4.4 4.8-5.2-1.7-4.3-2-9.1-.5-12.4.8-1.9 2.2-3.1 3.8-3.5 3.5-.9 10.5 4.1 12.5 5.7.4.3.6.7.6 1.2v7.9c0 .4-.2.9-.5 1.2l-4.5 3.8c.8 1.5 1.8 4.1 1.1 6.1-.4 1.1-1.2 1.9-2.5 2.4-.5.1-1.1.2-1.6.2zm-5.4-7.1c1.1 0 2.2.6 2.7 1.7 1 2 2.1 2.7 3.4 2.3.4-.1.5-.3.6-.5.4-1.1-.6-3.4-1.5-4.7-.4-.6-.3-1.5.3-2l5-4.1v-6.5c-3.6-2.6-8-5.1-9.4-4.7-.8.2-1.4.8-1.9 1.9-1.3 2.8-.8 7.5 1.2 11.4.2.4.2.9 0 1.3s-.6.7-1 .8c-2.4.6-4.4 1.9-4.3 2.3 0 .3.1.4.3.5.6.5 2.2.5 4 .2.2.1.4.1.6.1z"/></g></g><g id="Body_24_"><ellipse cx="64" cy="87.3" fill="#8cc63f" rx="23.3" ry="20.9"/><path d="m64 103.2c-11.9 0-21.8-8-23.2-18.4-.1.8-.2 1.7-.2 2.5 0 11.5 10.5 20.9 23.3 20.9s23.3-9.3 23.3-20.9c0-.8-.1-1.7-.2-2.5-1.2 10.4-11.1 18.4-23 18.4z" fill="#5aa319"/><path d="m64 109.7c-13.7 0-24.8-10-24.8-22.4s11.1-22.3 24.8-22.3 24.8 10 24.8 22.4-11.1 22.3-24.8 22.3zm0-41.7c-12 0-21.8 8.7-21.8 19.4s9.8 19.3 21.8 19.3 21.8-8.7 21.8-19.4-9.8-19.3-21.8-19.3z"/></g><g id="Legs_4_"><g><path d="m68.7 98.7v12.1s-7.2 3.4-3.8 6.8c1.8 1.8 6.9.3 8.6-2.1.4-.5 1.2-.6 1.6-.1 1.6 1.8 4.8 4.4 7.5 1.3 2.8-3.3-3-5.9-3-5.9v-12.1" fill="#8cc63f"/><path d="m67.3 119.9c-1.4 0-2.6-.4-3.5-1.2-1.4-1.4-1.5-2.8-1.3-3.7.4-2.5 3.1-4.3 4.6-5.1v-11.2c0-.8.7-1.5 1.5-1.5s1.5.7 1.5 1.5v12.1c0 .6-.3 1.1-.9 1.4-1.4.7-3.6 2.2-3.8 3.4 0 .1-.1.5.5 1 .3.3.9.4 1.7.4 1.8-.1 3.8-1.1 4.6-2.3.5-.6 1.2-1 1.9-1.1.8 0 1.5.3 2 .8 1.3 1.4 2.6 2.2 3.6 2.2.6 0 1.1-.3 1.6-.9s.4-.9.4-1c-.2-1-2.1-2.1-2.9-2.5-.5-.2-.9-.8-.9-1.4v-12.1c0-.8.7-1.5 1.5-1.5s1.5.7 1.5 1.5v11.2c1.2.7 3.3 2.1 3.7 4.1.2.9.2 2.2-1 3.6-1.4 1.6-2.9 2-3.9 2-2.2 0-4.1-1.4-5.5-2.8-1.4 1.7-4 2.9-6.4 3.1 0 0-.3 0-.5 0z"/></g><g><path d="m49.3 98.7v12.1s-7.2 3.4-3.8 6.8c1.8 1.8 6.9.3 8.6-2.1.4-.5 1.2-.6 1.6-.1 1.6 1.8 4.8 4.4 7.5 1.3 2.8-3.3-3-5.9-3-5.9v-12.1" fill="#8cc63f"/><path d="m48 119.9c-1.4 0-2.6-.4-3.5-1.3-1.4-1.4-1.5-2.8-1.3-3.7.4-2.5 3.1-4.3 4.6-5.1v-11.1c0-.8.7-1.5 1.5-1.5s1.5.7 1.5 1.5v12.1c0 .6-.3 1.1-.9 1.4-1.4.7-3.6 2.2-3.8 3.4 0 .1-.1.5.5 1 .3.3.9.4 1.7.4 1.8-.1 3.8-1.1 4.6-2.3.5-.6 1.2-1 1.9-1.1.8 0 1.5.3 2 .8 1.3 1.4 2.6 2.2 3.6 2.2.6 0 1.1-.3 1.6-.9s.4-.9.4-1c-.2-1-2.1-2.1-2.9-2.5-.5-.2-.9-.8-.9-1.4v-12.1c0-.8.7-1.5 1.5-1.5s1.5.7 1.5 1.5v11.2c1.2.7 3.3 2.1 3.7 4.1.2.9.2 2.2-1 3.6-1.4 1.6-2.9 2-3.9 2-2.2 0-4.1-1.4-5.5-2.8-1.4 1.7-4 2.9-6.4 3.1-.1 0-.3 0-.5 0z"/></g></g></g><g id="Head_33_"><g id="Head_32_"><path d="m64 22.1c-22.9 0-41.5 13.9-41.5 33 0 19 12.2 36 41.5 36s41.5-17 41.5-36c0-19.1-18.6-33-41.5-33z" fill="#8cc63f"/><path d="m64 26.1c22.2 0 40.3 13 41.4 31.1 0-.7.1-1.4.1-2.2 0-19-18.6-33-41.5-33s-41.5 14-41.5 33.1c0 .7 0 1.4.1 2.2 1.1-18.2 19.2-31.2 41.4-31.2z" fill="#acdc57"/><path d="m103.7 45.1c.2 1.3.3 2.6.3 4 0 18.4-11.8 34.7-40 34.7s-40-16.3-40-34.7c0-1.4.1-2.7.3-4-1.2 3.1-1.8 6.4-1.8 9.9 0 19 12.2 36 41.5 36s41.5-17 41.5-36c0-3.4-.6-6.8-1.8-9.9z" fill="#5aa319"/><path d="m64 92.6c-31.7 0-43-19.4-43-37.5 0-19.3 18.9-34.4 43-34.4s43 15.1 43 34.4c0 18.1-11.3 37.5-43 37.5zm0-69c-22.4 0-40 13.8-40 31.4 0 21.6 15 34.5 40 34.5s40-12.9 40-34.5c0-17.6-17.6-31.4-40-31.4z"/></g><path id="Mouth_8_" d="m64 57.6c-7.3 0-14.3-3.1-19.2-8.5-.6-.6-.5-1.6.1-2.1.6-.6 1.6-.5 2.1.1 4.3 4.8 10.5 7.5 17 7.5 6.4 0 12.6-2.7 17-7.5.6-.6 1.5-.7 2.1-.1s.7 1.5.1 2.1c-4.9 5.4-11.9 8.5-19.2 8.5z"/><g id="Nostril_4_"><ellipse cx="66.2" cy="42.1" rx="1.3" ry="1.9"/><ellipse cx="61.8" cy="42.1" rx="1.3" ry="1.9"/></g><g id="Eyes_20_"><g><circle cx="86.5" cy="28.1" fill="#f2f2f2" r="14.6"/><path d="m86.5 44.1c-8.9 0-16.1-7.2-16.1-16.1s7.2-16 16.1-16 16.1 7.2 16.1 16.1-7.2 16-16.1 16zm0-29.1c-7.2 0-13.1 5.9-13.1 13.1s5.9 13.1 13.1 13.1 13.1-5.9 13.1-13.1-5.9-13.1-13.1-13.1z"/><circle cx="86.5" cy="28.1" r="3"/></g><g><circle cx="41.5" cy="28.1" fill="#f2f2f2" r="14.6"/><path d="m41.5 44.1c-8.9 0-16.1-7.2-16.1-16.1s7.2-16 16.1-16 16.1 7.2 16.1 16.1-7.2 16-16.1 16zm0-29.1c-7.2 0-13.1 5.9-13.1 13.1s5.9 13.1 13.1 13.1 13.1-5.9 13.1-13.1-5.9-13.1-13.1-13.1z"/><circle cx="41.5" cy="28.1" r="3"/></g></g></g></g></svg>