<svg height="511pt" viewBox="0 1 511 511.99899" width="511pt" xmlns="http://www.w3.org/2000/svg"><path d="m287.9375 286.859375-212.207031 212.21875c-17.191407 17.171875-45.035157 17.285156-62.34375 0-.144531-.148437-.289063-.292969-.4375-.449219-16.746094-17.226562-16.597657-44.855468.4375-61.894531l212.21875-212.21875c6.109375-6.121094 16.035156-6.109375 22.15625 0 2.367187 2.371094-11.296875-11.296875 40.175781 40.1875 6.121094 6.113281 6.121094 16.046875 0 22.15625zm0 0" fill="#0fa9dd"/><path d="m287.9375 286.859375-212.207031 212.21875c-17.191407 17.171875-45.035157 17.285156-62.34375 0-.144531-.148437-.289063-.292969-.4375-.449219l254.460937-254.460937 20.527344 20.535156c6.121094 6.113281 6.121094 16.046875 0 22.15625zm0 0" fill="#0d91bd"/><path d="m458.050781 307.21875c-70.179687 70.179688-184.386719 70.1875-254.574219 0s-70.179687-184.394531 0-254.574219c70.1875-70.1875 184.394532-70.195312 254.582032-.007812s70.179687 184.394531-.007813 254.582031zm0 0" fill="#5ecef4"/><path d="m458.050781 307.21875c-70.179687 70.179688-184.386719 70.1875-254.574219 0l254.582032-254.582031c70.1875 70.1875 70.179687 184.394531-.007813 254.582031zm0 0" fill="#0fa9dd"/><path d="m435.890625 285.058594c-57.964844 57.960937-152.28125 57.96875-210.253906 0-57.96875-57.972656-57.960938-152.292969 0-210.253906 57.972656-57.972657 152.289062-57.980469 210.261719-.007813 57.96875 57.96875 57.960937 152.289063-.007813 210.261719zm0 0" fill="#edf0f5"/><path d="m435.890625 285.058594c-57.964844 57.960937-152.28125 57.96875-210.253906 0l210.261719-210.261719c57.96875 57.96875 57.960937 152.289063-.007813 210.261719zm0 0" fill="#d8dceb"/><path d="m440.457031 179.761719c-.207031 1.078125 2.160157 39.210937-28.367187 71.496093-41.015625 43.382813-109.992188 43.359376-150.972656-.003906-37.789063-39.980468-37.867188-102.582031 0-142.644531 26.070312-27.585937 64.070312-38.0625 99.308593-29.785156 13.089844 3.070312 19.714844 17.726562 13.488281 29.640625-3.625 6.941406-10.757812 11.074218-18.339843 11.074218-1.570313 0-3.160157-.175781-4.742188-.542968-21.226562-4.945313-44.050781 1.414062-59.699219 17.972656-22.804687 24.109375-22.78125 61.84375 0 85.929688 24.691407 26.136718 66.269532 26.125 90.945313 0 6.386719-6.75 11.28125-14.925782 14.167969-24.003907h-34.542969c-9.863281 0-17.859375-7.996093-17.859375-17.855469 0-9.859374 7.992188-17.855468 17.859375-17.855468h62.027344c9.175781 0 16.714843 7.394531 16.726562 16.578125zm0 0" fill="#ffda44"/><path d="m440.457031 179.761719v.167969c0 26.605468-10.078125 51.984374-28.367187 71.328124-19.507813 20.632813-47.136719 33.085938-77.605469 32.503907v-41.304688c18.773437.601563 35.71875-6.992187 47.59375-19.5625 6.386719-6.75 11.28125-14.925781 14.167969-24.003906h-34.542969c-9.863281 0-17.859375-7.996094-17.859375-17.855469s7.992188-17.855468 17.859375-17.855468h62.027344c9.175781.003906 16.714843 7.398437 16.726562 16.582031zm0 0" fill="#0fa9dd"/><path d="m373.917969 108.464844c-4.378907 8.382812-13.875 12.671875-23.085938 10.527344-21.15625-4.917969-43.992187 1.351562-59.699219 17.976562l-30.015624-28.359375c26.128906-27.648437 64.140624-38.042969 99.308593-29.785156 13.085938 3.074219 19.710938 17.726562 13.492188 29.640625zm0 0" fill="#ff6426"/><path d="m412.089844 251.257812c-41.023438 43.390626-109.988282 43.359376-150.972656-.003906l30.015624-28.355468c24.699219 26.136718 66.265626 26.128906 90.945313 0zm0 0" fill="#6fbf6b"/></svg>