<svg id="Capa_1" enable-background="new 0 0 512 512" height="512" viewBox="0 0 512 512" width="512" xmlns="http://www.w3.org/2000/svg"><g><g><g><path d="m111.708 504.5c-9.648 0-17.469-7.821-17.469-17.469v-135.341c0-8.528-6.938-15.466-15.465-15.466-8.528 0-15.466 6.938-15.466 15.466 0 9.648-7.821 17.469-17.469 17.469s-17.469-7.821-17.469-17.469c0-27.792 22.611-50.404 50.404-50.404s50.403 22.611 50.403 50.404v135.341c-.001 9.648-7.822 17.469-17.469 17.469z" fill="#e3986d"/></g><path d="m162.81 285.445 19.094 33.655-19.094 33.655h-15.792c-18.599 0-33.65-15.062-33.65-33.65 0-18.587 15.063-33.66 33.65-33.66z" fill="#fed2a4"/><path d="m434.188 285.445-19.094 33.655 19.094 33.655h15.792c18.599 0 33.65-15.062 33.65-33.65 0-18.587-15.063-33.66-33.65-33.66z" fill="#fed2a4"/><path d="m162.81 285.445h66.602v67.31h-66.602z" fill="#80d8e6"/><path d="m367.586 285.445h66.602v67.31h-66.602z" fill="#9ae0eb"/><path d="m200.328 406.802v55.696c0 23.197 18.805 42.002 42.002 42.002h112.339c23.197 0 42.002-18.805 42.002-42.002v-55.696z" fill="#9ae0eb"/><path d="m235.575 406.802h-35.248v55.696c0 23.197 18.805 42.002 42.002 42.002h33.831c-21.432-27.358-35.738-62.841-40.585-97.698z" fill="#80d8e6"/><path d="m411.031 399.713c-6.603-93.539-43.446-114.265-43.446-114.265h-138.172s-36.843 20.727-43.446 114.265c-1.136 16.099 11.639 29.785 27.778 29.785h169.507c16.14.001 28.915-13.686 27.779-29.785z" fill="#b08bd7"/><circle cx="298.499" cy="300.831" fill="#ffbd86" r="37.721"/><path d="m233.746 381.053c0-36.784 13.93-70.313 36.799-95.605h-41.131s-36.843 20.727-43.446 114.265c-1.136 16.099 11.639 29.785 27.778 29.785h26.298c-4.118-16.168-6.298-32.611-6.298-48.445z" fill="#a47cd1"/><path d="m266.456 356.823h-30.451c-6.302 0-11.41 5.109-11.41 11.41v9.674c0 14.711 11.925 26.636 26.636 26.636s26.636-11.925 26.636-26.636v-9.674c0-6.302-5.109-11.41-11.411-11.41z" fill="#c6ade3"/><path d="m330.542 356.823h30.451c6.302 0 11.41 5.109 11.41 11.41v9.674c0 14.711-11.925 26.636-26.636 26.636s-26.636-11.925-26.636-26.636v-9.674c0-6.302 5.109-11.41 11.411-11.41z" fill="#c6ade3"/><path d="m174.992 199.018c-11.799-11.799-37.988-4.741-49.788 7.059-11.799 11.799-11.799 30.93 0 42.729s30.93 11.799 42.729 0c11.8-11.8 18.858-37.989 7.059-49.788z" fill="#b2b0bc"/><path d="m422.007 199.018c11.799-11.799 37.988-4.741 49.788 7.059 11.799 11.799 11.799 30.93 0 42.729s-30.93 11.799-42.729 0c-11.8-11.8-18.859-37.989-7.059-49.788z" fill="#c7c5cb"/><path d="m128.874 177.125c0-93.532 76.094-169.625 169.625-169.625 93.532 0 169.625 76.093 169.625 169.625z" fill="#c7c5cb"/><path d="m189.393 151.05c0-53.609 22.626-101.926 58.84-135.947-69.067 21.472-119.359 85.983-119.359 162.022h62.342c-1.192-8.522-1.823-17.225-1.823-26.075z" fill="#b2b0bc"/><circle cx="434.184" cy="179.121" fill="#ffbd86" r="36.515"/><path d="m421.549 122.265c-7.177-16.072-22.868-26.569-40.455-27.278-20.08-.809-45.061-5.096-68.114-18.333-8.949-5.139-20.012-5.139-28.961 0-23.053 13.237-48.034 17.524-68.114 18.333-17.587.708-33.279 11.205-40.455 27.278-7.483 16.758-11.641 35.326-11.641 54.862 0 74.378 60.303 124.698 134.691 124.698s134.69-50.319 134.69-124.697c0-19.537-4.158-38.105-11.641-54.863z" fill="#fed2a4"/><path d="m259.852 297.049c-42.932-34.169-70.458-86.866-70.458-146 0-17.658 2.455-34.742 7.041-50.932-9.142 4.706-16.631 12.398-20.984 22.147-2.967 6.645-5.402 13.578-7.271 20.739-1.751-.258-3.541-.399-5.364-.399-20.167 0-36.515 16.348-36.515 36.515s16.349 36.516 36.515 36.516c2.276 0 4.496-.229 6.656-.628 12.973 41.365 47.106 70.988 90.38 82.042z" fill="#ffbd86"/><g><g><g><ellipse cx="220.261" cy="195.913" fill="#ff889e" rx="28.868" ry="22.989"/></g><g><ellipse cx="376.737" cy="195.913" fill="#ff889e" rx="28.868" ry="22.989"/></g></g></g><path d="m233.746 381.053c0-8.257.711-16.348 2.058-24.221-6.208.109-11.209 5.167-11.209 11.4v9.674c0 8.428 3.919 15.937 10.029 20.818-.577-5.942-.878-11.848-.878-17.671z" fill="#b08bd7"/><g><path d="m94.239 384.433v102.598c0 9.648 7.821 17.469 17.469 17.469s17.469-7.821 17.469-17.469v-59.653c-14.232-11.886-26.137-26.461-34.938-42.945z" fill="#de8957"/></g></g><g><path d="m251.231 412.043c18.823 0 34.136-15.313 34.136-34.136v-9.674c0-10.427-8.483-18.91-18.91-18.91h-30.451c-10.427 0-18.911 8.483-18.911 18.91v9.674c0 18.823 15.313 34.136 34.136 34.136zm-19.136-43.81c0-2.156 1.754-3.91 3.911-3.91h30.451c2.156 0 3.91 1.754 3.91 3.91v9.674c0 10.551-8.584 19.136-19.136 19.136s-19.136-8.584-19.136-19.136z"/><path d="m345.768 412.043c18.822 0 34.136-15.313 34.136-34.136v-9.674c0-10.427-8.483-18.91-18.911-18.91h-30.451c-10.427 0-18.911 8.483-18.911 18.91v9.674c0 18.823 15.314 34.136 34.137 34.136zm-19.137-43.81c0-2.156 1.754-3.91 3.911-3.91h30.451c2.156 0 3.911 1.754 3.911 3.91v9.674c0 10.551-8.584 19.136-19.136 19.136-10.551 0-19.136-8.584-19.136-19.136v-9.674z"/><path d="m223.345 178.397c4.142 0 7.5-3.358 7.5-7.5 0-3.441 2.8-6.24 6.241-6.24s6.24 2.799 6.24 6.24c0 4.142 3.358 7.5 7.5 7.5s7.5-3.358 7.5-7.5c0-11.712-9.528-21.24-21.24-21.24s-21.241 9.528-21.241 21.24c0 4.142 3.358 7.5 7.5 7.5z"/><path d="m346.172 178.397c4.142 0 7.5-3.358 7.5-7.5 0-3.441 2.8-6.24 6.241-6.24s6.241 2.799 6.241 6.24c0 4.142 3.358 7.5 7.5 7.5s7.5-3.358 7.5-7.5c0-11.712-9.528-21.24-21.241-21.24s-21.241 9.528-21.241 21.24c0 4.142 3.358 7.5 7.5 7.5z"/><path d="m298.499 201.097c7.754 0 15.127-3.358 20.229-9.213 2.721-3.123 2.396-7.86-.727-10.582-3.122-2.721-7.86-2.396-10.582.727-2.252 2.585-5.504 4.067-8.921 4.067s-6.668-1.482-8.921-4.067c-2.721-3.124-7.459-3.449-10.582-.727-3.123 2.721-3.448 7.459-.727 10.582 5.104 5.855 12.477 9.213 20.231 9.213z"/><path d="m45.839 376.659c13.768 0 24.969-11.201 24.969-24.969 0-4.393 3.573-7.966 7.966-7.966 4.392 0 7.965 3.573 7.965 7.966v57.63c0 4.142 3.358 7.5 7.5 7.5s7.5-3.358 7.5-7.5v-57.63c0-12.664-10.302-22.966-22.965-22.966-12.664 0-22.966 10.302-22.966 22.966 0 5.497-4.472 9.969-9.969 9.969s-9.969-4.472-9.969-9.969c0-23.657 19.247-42.903 42.904-42.903 9.943 0 19.445 3.417 27.1 9.687-.205 12.657 5.45 24.981 15.802 33.053.001.1 0 52.349 0 135.504 0 5.497-4.472 9.969-9.969 9.969s-9.969-4.472-9.969-9.969v-47.711c0-4.142-3.358-7.5-7.5-7.5s-7.5 3.358-7.5 7.5v47.711c0 13.768 11.201 24.969 24.969 24.969s24.969-11.201 24.969-24.969v-128.093c3.306.859 6.771 1.318 10.342 1.318h36.525c-2.258 11.412-4.026 24.322-5.057 38.929-.82 11.614 4.206 23.514 14.341 30.94v32.373c0 27.295 22.207 49.502 49.502 49.502h112.339c27.296 0 49.502-22.207 49.502-49.502v-32.373c10.096-7.398 15.164-19.282 14.341-30.94-1.031-14.607-2.799-27.517-5.057-38.929h36.525c22.69 0 41.15-18.46 41.15-41.15 0-22.696-18.46-41.16-41.15-41.16-6.62 0-49.804 0-57.152 0 10.428-8.305 19.295-17.887 26.628-28.905 1.354 1.846 2.79 3.552 4.306 5.068 14.739 14.74 38.596 14.741 53.336 0 7.123-7.123 11.046-16.594 11.046-26.667s-3.923-19.545-11.046-26.668c-.967-.967-2.033-1.896-3.146-2.804 2.721-5.717 4.249-12.107 4.249-18.848 0-5.783-1.132-11.303-3.168-16.367-3.582-44.393-23.659-85.509-56.639-115.889-3.047-2.807-7.792-2.612-10.598.435-2.807 3.047-2.612 7.791.435 10.598 24.478 22.548 41.198 51.546 48.397 83.36-6.883-4.082-14.694-6.118-22.252-6.152-1.729-5.584-3.797-11.013-5.978-15.899-8.364-18.73-26.374-30.883-47.001-31.714-24.603-.991-46.364-6.826-64.681-17.343-11.517-6.614-25.495-6.281-36.43 0-18.317 10.517-40.079 16.352-64.681 17.343-20.628.831-38.638 12.983-47.001 31.714-2.22 4.971-4.278 10.409-5.978 15.899-8.012.036-15.724 2.279-22.249 6.15 7.125-31.462 23.569-60.205 47.605-82.639 30.136-28.128 69.386-43.618 110.518-43.618 30.827 0 60.837 8.729 86.785 25.242 3.494 2.223 8.13 1.194 10.354-2.301 2.224-3.494 1.194-8.13-2.3-10.354-28.359-18.047-61.154-27.587-94.839-27.587-44.945 0-87.829 16.923-120.754 47.652-32.458 30.293-52.229 71.129-55.778 115.102-2.036 5.063-3.168 10.584-3.168 16.367 0 6.742 1.528 13.131 4.249 18.849-1.114.908-2.18 1.837-3.146 2.804-14.739 14.738-14.741 38.595 0 53.335 14.738 14.739 38.595 14.742 53.335 0 1.516-1.516 2.952-3.222 4.307-5.069 5.798 8.711 12.717 16.739 20.706 23.909 1.922 1.725 3.9 3.385 5.922 4.995-7.403 0-50.635 0-57.152 0-16.806 0-31.283 10.135-37.666 24.612-9.113-5.701-19.643-8.77-30.579-8.77-31.928 0-57.904 25.975-57.904 57.903-.001 13.769 11.2 24.97 24.968 24.97zm124.471-83.714h40.702c-.38.486-.763.989-1.149 1.505-9.732 13.024-17.42 30.094-22.89 50.805h-16.663zm59.894 1.292c7.366 3.546 15.1 6.5 23.131 8.82 1.165 23.905 20.976 42.996 45.165 42.996s44-19.09 45.165-42.996c8.031-2.32 15.764-5.274 23.129-8.82 11.711 10.262 20.104 28.021 25.092 42.745 7.28 21.635 10.384 45.129 11.664 63.259.831 11.774-8.495 21.758-20.297 21.758h-169.507c-11.506 0-21.147-9.718-20.296-21.757 2.363-33.487 11.566-83.98 36.754-106.005zm97.947 12.448c-2.733 13.873-14.99 24.368-29.652 24.368s-26.919-10.495-29.652-24.368c9.47 1.719 19.591 2.641 29.652 2.641 10.414 0 20.561-.986 29.652-2.641zm61.02 129.814v26c0 19.024-15.478 34.502-34.502 34.502h-112.339c-19.024 0-34.502-15.478-34.502-34.502v-26c1.715.293 3.955.5 5.918.5h169.507c2.002 0 4.237-.215 5.918-.5zm86.959-117.394c0 14.419-11.731 26.15-26.15 26.15h-8.292v-52.311h8.292c14.419.001 26.15 11.737 26.15 26.161zm-49.442 26.151h-16.664c-4.797-18.108-12.537-37.483-24.091-52.311h40.755zm36.512-166.135c0 14.878-11.298 27.306-25.991 28.849 2.225-9.558 3.482-20.204 3.482-30.842 0-9.142-.896-18.272-2.505-26.737 14.158 1.96 25.014 14.148 25.014 28.73zm3.291 64.381c-8.877 8.877-23.245 8.879-32.123 0-2.368-2.368-4.585-5.598-6.401-9.292 1.744-3.611 3.319-7.321 4.713-11.1 12.274.423 24.076-4.351 32.604-12.859 5.237 4.597 7.859 10.785 7.859 17.19.001 6.067-2.362 11.771-6.652 16.061zm-332.693-64.381c0-14.554 10.823-26.78 25.015-28.73-1.58 8.316-2.505 17.488-2.505 26.737 0 10.617 1.259 21.296 3.481 30.842-14.757-1.55-25.991-14.042-25.991-28.849zm28.832 64.381c-8.876 8.877-23.244 8.879-32.123 0-8.973-8.973-9.169-24.142 1.207-33.251 8.498 8.48 20.312 13.28 32.604 12.859 1.394 3.779 2.969 7.489 4.713 11.1-1.816 3.695-4.034 6.925-6.401 9.292zm8.679-66.374c0-17.559 3.629-35.327 10.989-51.804 6.023-13.49 19.017-22.242 33.909-22.842 27.042-1.089 51.113-7.59 71.547-19.323 6.778-3.89 15.03-3.71 21.491 0 21.706 12.464 46.24 18.303 71.547 19.323 14.892.6 27.885 9.352 33.909 22.842 6.907 15.467 10.99 33.13 10.99 51.804 0 42.907-21.908 80.843-61.426 101.602-.016.008-.033.016-.05.024-.037.018-.076.031-.113.05-40.155 21.018-92.253 20.389-131.206 0-.031-.016-.064-.026-.095-.042-.03-.015-.06-.029-.09-.043-8.882-4.668-17.092-10.333-24.444-16.931-24.431-21.931-36.958-52.341-36.958-84.66zm-24.291 115.817h8.292v52.311h-8.292c-14.512 0-26.15-11.832-26.15-26.15 0-14.359 11.679-26.161 26.15-26.161z"/></g></g></svg>