<svg enable-background="new 0 0 520 520" height="512" viewBox="0 0 520 520" width="512" xmlns="http://www.w3.org/2000/svg"><g id="_x31_51_x2C__Leaf_x2C__Light_x2C__Plant_x2C__Sun_Light_x2C__Growing"><g><path d="m481.604 108.08c-13.83 12.8-14 34.77 0 47.73-18.58 4.27-29.45 23.3-23.89 41.37-18.04-5.55-37.09 5.28-41.37 23.89-12.995-14.022-34.958-13.792-47.74 0-4.091-18.22-22.972-29.528-41.319-23.89 5.529-17.96-5.271-37.06-23.891-41.37 13.99-12.96 13.82-34.92 0-47.73 18.23-4.12 29.51-23.07 23.891-41.33 18.29 5.63 37.21-5.7 41.319-23.89 12.79 13.802 34.753 14.014 47.74 0 4.3 18.6 23.39 29.42 41.37 23.89-5.65 18.34 5.681 37.23 23.89 41.33z" fill="#ffe44c"/><path d="m392.495 80.56c28.37 0 51.409 22.99 51.409 51.41 0 28.36-23.039 51.4-51.409 51.4-28.41 0-51.4-23.04-51.4-51.4 0-28.42 22.99-51.41 51.4-51.41z" fill="#ffc200"/><path d="m218.395 427.5c5.52 0 10 4.48 10 10s-4.48 10-10 10-10-4.48-10-10 4.48-10 10-10z" fill="#93795a"/><path d="m158.395 477.5h-80c0-22.09 17.91-40 40-40s40 17.91 40 40z" fill="#93795a"/><path d="m325.185 438.21c0 13.021-6.34 24.56-16.1 31.71-5.05 4.7-11.82 7.58-19.26 7.58h-131.43c0-22.09-17.91-40-40-40s-40 17.91-40 40h-11.71c-15.63 0-28.29-12.66-28.29-28.29 0-15 11.68-27.26 26.44-28.21 6.24-22.24 31.85-31.86 51.08-20.28 5.94-19.239 23.86-33.22 45.05-33.22 19.98 0 37.05 12.44 43.91 29.98 17.53-14.58 44.31-8.48 53.68 12.539 7.07-6.859 16.71-11.09 27.34-11.09 21.7.001 39.29 17.591 39.29 39.281zm-96.79-.71c0-5.52-4.48-10-10-10s-10 4.48-10 10 4.48 10 10 10 10-4.48 10-10z" fill="#ffd5a4"/><path d="m162.635 342.3c7.55-40.16 39.06-71.689 79.25-79.25-7.55 40.16-39.06 71.69-79.25 79.25z" fill="#8ec155"/><path d="m162.635 271.74c7.55-40.15 39.06-71.69 79.25-79.24-7.55 40.15-39.06 71.69-79.25 79.24z" fill="#8ec155"/><path d="m83.395 263.05c40.19 7.561 71.7 39.09 79.24 79.25-40.18-7.56-71.69-39.09-79.24-79.25z" fill="#aeef66"/><path d="m83.395 192.5c40.19 7.55 71.7 39.09 79.24 79.24-40.18-7.55-71.69-39.08-79.24-79.24z" fill="#aeef66"/><g fill="#f44321"><path d="m68.395 332.5c8.28 0 15 6.72 15 15s-6.72 15-15 15-15-6.72-15-15 6.72-15 15-15z"/><path d="m443.395 362.5c11.05 0 20 8.95 20 20s-8.95 20-20 20-20-8.95-20-20 8.95-20 20-20z"/><circle cx="103.395" cy="92.5" r="40"/></g><path d="m392.495 107.5c13.5 0 24.47 10.94 24.47 24.47 0 13.5-10.97 24.46-24.47 24.46-13.521 0-24.46-10.96-24.46-24.46 0-13.53 10.94-24.47 24.46-24.47z" fill="#f47b00"/><circle cx="460.895" cy="265" r="7.5"/><circle cx="390.895" cy="445" r="7.5"/><circle cx="325.895" cy="355" r="7.5"/><circle cx="280.895" cy="45" r="7.5"/><circle cx="225.895" cy="125" r="7.5"/><circle cx="130.895" cy="160" r="7.5"/><circle cx="50.895" cy="275" r="7.5"/><path d="m162.635 372.5c-2.761 0-5-2.238-5-5v-156.23c0-2.761 2.239-5 5-5s5 2.239 5 5v156.23c0 2.762-2.239 5-5 5z"/><path d="m162.635 347.3c-1.313 0-2.589-.518-3.535-1.464-1.168-1.168-1.684-2.837-1.379-4.46 3.892-20.701 13.838-39.533 28.763-54.461 14.928-14.932 33.766-24.883 54.477-28.779 1.623-.304 3.292.21 4.459 1.378 1.168 1.168 1.684 2.837 1.379 4.46-3.892 20.701-13.838 39.534-28.763 54.462-14.929 14.932-33.767 24.883-54.477 28.778-.307.057-.617.086-.924.086zm72.572-77.571c-31.791 8.811-57.086 34.105-65.893 65.892 31.79-8.81 57.085-34.105 65.893-65.892z"/><path d="m162.635 347.3c-.307 0-.617-.028-.924-.086-20.706-3.896-39.541-13.848-54.468-28.778-14.924-14.929-24.87-33.762-28.762-54.462-.305-1.623.211-3.292 1.379-4.46 1.167-1.168 2.836-1.684 4.459-1.378 20.711 3.896 39.548 13.848 54.476 28.779 14.815 14.819 24.722 33.483 28.667 54.006.125.438.193.9.193 1.379 0 2.759-2.235 4.996-4.993 5-.009 0-.017 0-.027 0zm-72.561-77.571c8.806 31.785 34.099 57.08 65.885 65.892-8.799-31.785-34.093-57.08-65.885-65.892z"/><path d="m162.635 276.74c-1.314 0-2.589-.519-3.536-1.465-1.167-1.168-1.684-2.836-1.378-4.459 3.892-20.698 13.838-39.529 28.763-54.457 14.931-14.934 33.769-24.884 54.478-28.774 1.627-.304 3.292.211 4.459 1.379 1.167 1.167 1.684 2.836 1.378 4.459-3.893 20.698-13.839 39.528-28.763 54.456-14.931 14.934-33.769 24.883-54.478 28.774-.307.059-.616.087-.923.087zm72.572-77.563c-31.791 8.803-57.086 34.093-65.894 65.886 31.791-8.803 57.086-34.093 65.894-65.886z"/><path d="m162.635 276.74c-.307 0-.616-.028-.923-.086-20.706-3.891-39.541-13.839-54.469-28.77-14.924-14.927-24.87-33.759-28.762-54.46-.305-1.623.211-3.292 1.378-4.459 1.167-1.169 2.834-1.684 4.459-1.379 20.709 3.89 39.547 13.84 54.477 28.774 14.815 14.819 24.721 33.482 28.667 54.001.125.438.193.9.193 1.379 0 2.759-2.235 4.996-4.993 5-.009 0-.017 0-.027 0zm-72.562-77.563c8.806 31.793 34.096 57.083 65.886 65.886-8.8-31.793-34.09-57.084-65.886-65.886z"/><path d="m289.825 482.5h-223.14c-18.356 0-33.29-14.934-33.29-33.29 0-16.326 11.907-30.118 27.681-32.799 5.76-15.461 20.279-25.627 37.118-25.627 5.149 0 10.236 1.017 14.975 2.97 8.21-18.911 26.752-31.254 47.796-31.254 19.504 0 36.925 10.589 45.935 27.444 6.031-3.579 12.838-5.446 19.992-5.446 13.455 0 25.854 6.814 33.109 17.794 7.499-5.429 16.491-8.362 25.894-8.362 24.422 0 44.29 19.864 44.29 44.28 0 13.961-6.69 27.236-17.911 35.571-6.152 5.625-14.112 8.719-22.449 8.719zm-191.631-81.716c-13.454 0-24.925 8.667-28.545 21.566-.573 2.044-2.375 3.503-4.493 3.639-12.203.786-21.761 10.985-21.761 23.221 0 12.842 10.448 23.29 23.29 23.29h223.14c5.899 0 11.529-2.216 15.853-6.24.144-.133.294-.258.452-.373 8.801-6.447 14.055-16.794 14.055-27.677 0-18.902-15.382-34.28-34.29-34.28-8.952 0-17.425 3.438-23.857 9.679-1.172 1.137-2.823 1.633-4.43 1.32-1.603-.309-2.954-1.382-3.619-2.873-4.754-10.666-15.391-17.558-27.097-17.558-6.942 0-13.45 2.36-18.819 6.826-1.236 1.027-2.89 1.399-4.444.998-1.556-.4-2.824-1.524-3.41-3.021-6.367-16.281-21.775-26.802-39.253-26.802-18.604 0-34.789 11.934-40.272 29.694-.454 1.47-1.558 2.648-2.994 3.196-1.437.551-3.046.405-4.363-.388-4.584-2.758-9.82-4.217-15.143-4.217z"/><path d="m158.395 482.5c-2.761 0-5-2.238-5-5 0-19.299-15.701-35-35-35s-35 15.701-35 35c0 2.762-2.239 5-5 5s-5-2.238-5-5c0-24.813 20.187-45 45-45s45 20.187 45 45c0 2.762-2.239 5-5 5z"/><path d="m218.395 452.5c-8.271 0-15-6.729-15-15s6.729-15 15-15 15 6.729 15 15-6.729 15-15 15zm0-20c-2.757 0-5 2.243-5 5s2.243 5 5 5 5-2.243 5-5-2.243-5-5-5z"/><path d="m416.346 226.07c-1.373 0-2.709-.566-3.668-1.601-5.276-5.693-12.444-8.829-20.183-8.829-7.652 0-15.023 3.218-20.223 8.828-1.263 1.361-3.173 1.913-4.969 1.429-1.793-.483-3.171-1.92-3.577-3.732-1.689-7.524-6.344-13.832-13.104-17.763-6.557-3.776-14.622-4.669-21.868-2.443-1.771.543-3.696.065-5.006-1.245-1.309-1.31-1.787-3.236-1.242-5.006 2.276-7.392 1.399-15.163-2.468-21.88-3.868-6.721-10.18-11.39-17.771-13.147-1.804-.417-3.229-1.797-3.705-3.586s.076-3.695 1.435-4.953c5.69-5.272 8.825-12.435 8.826-20.169.002-7.652-3.216-15.025-8.827-20.226-1.361-1.262-1.912-3.173-1.43-4.965.481-1.792 1.916-3.17 3.727-3.579 7.414-1.676 13.872-6.444 17.717-13.082 3.89-6.716 4.776-14.493 2.496-21.9-.545-1.77-.066-3.697 1.243-5.006 1.311-1.31 3.236-1.789 5.007-1.243 2.652.816 5.382 1.23 8.112 1.23 12.756 0 24.052-9.019 26.859-21.444.409-1.81 1.787-3.245 3.579-3.727 1.794-.481 3.704.069 4.966 1.43 5.199 5.611 12.569 8.829 20.223 8.829 7.738 0 14.906-3.135 20.183-8.829 1.259-1.358 3.164-1.908 4.953-1.434 1.789.477 3.169 1.902 3.586 3.706 2.921 12.638 13.989 21.464 26.915 21.463 2.738 0 5.468-.413 8.113-1.227 1.77-.545 3.696-.066 5.006 1.245 1.31 1.31 1.787 3.237 1.242 5.007-2.287 7.425-1.407 15.207 2.479 21.913 3.844 6.633 10.307 11.396 17.73 13.067 1.812.408 3.248 1.787 3.73 3.58.481 1.793-.069 3.706-1.433 4.967-5.613 5.195-8.832 12.563-8.833 20.214 0 7.738 3.137 14.904 8.833 20.178 1.36 1.259 1.912 3.166 1.436 4.957-.478 1.791-1.906 3.17-3.712 3.585-7.59 1.744-13.901 6.399-17.771 13.107-3.803 6.593-4.713 14.22-2.579 21.525.232.576.359 1.206.359 1.865 0 2.755-2.228 4.99-4.98 5-.503-.004-1.013-.068-1.51-.221-2.662-.819-5.405-1.234-8.154-1.234-12.915 0-23.966 8.827-26.872 21.466-.415 1.805-1.794 3.233-3.584 3.71-.425.115-.858.17-1.286.17zm-79.436-35.337c6.552 0 13.025 1.734 18.721 5.014 6.743 3.92 12.064 9.799 15.287 16.711 6.273-4.391 13.819-6.819 21.577-6.819 7.864 0 15.295 2.373 21.546 6.792 6.062-13.089 19.143-21.707 34.049-21.707 1.112 0 2.224.05 3.33.149-.664-7.629 1.003-15.373 4.872-22.08 3.931-6.813 9.705-12.072 16.667-15.291-4.419-6.249-6.791-13.677-6.791-21.54.001-7.757 2.43-15.301 6.822-21.571-6.914-3.221-12.779-8.529-16.67-15.242-3.953-6.821-5.626-14.456-4.928-22.095-1.083.095-2.171.143-3.26.143-14.914.001-28.01-8.615-34.085-21.704-6.253 4.422-13.686 6.796-21.553 6.796-7.762 0-15.312-2.43-21.586-6.825-6.068 12.951-19.344 21.737-34.041 21.737-1.091 0-2.18-.048-3.267-.144.689 7.625-.987 15.253-4.938 22.075-3.891 6.717-9.753 12.03-16.662 15.255 4.396 6.276 6.824 13.826 6.822 21.586-.001 7.861-2.373 15.288-6.792 21.536 6.967 3.23 12.744 8.502 16.674 15.329 3.86 6.707 5.527 14.437 4.87 22.042 1.109-.097 2.221-.147 3.336-.147z"/><path d="m392.495 161.43c-16.244 0-29.46-13.216-29.46-29.46 0-16.25 13.216-29.47 29.46-29.47 16.249 0 29.47 13.22 29.47 29.47 0 16.244-13.221 29.46-29.47 29.46zm0-48.93c-10.73 0-19.46 8.734-19.46 19.47 0 10.73 8.729 19.46 19.46 19.46 10.735 0 19.47-8.729 19.47-19.46 0-10.736-8.735-19.47-19.47-19.47z"/><path d="m392.495 188.37c-31.1 0-56.4-25.301-56.4-56.4 0-31.104 25.301-56.41 56.4-56.41 31.104 0 56.409 25.306 56.409 56.41 0 31.099-25.304 56.4-56.409 56.4zm0-102.81c-25.585 0-46.4 20.819-46.4 46.41 0 25.585 20.815 46.4 46.4 46.4 25.59 0 46.409-20.815 46.409-46.4 0-25.591-20.819-46.41-46.409-46.41z"/><path d="m258.395 227.5c-1.279 0-2.559-.488-3.535-1.464-1.953-1.953-1.953-5.119 0-7.071l35-35c1.953-1.952 5.118-1.952 7.071 0 1.952 1.953 1.952 5.119 0 7.071l-35 35c-.977.976-2.256 1.464-3.536 1.464z"/><path d="m263.395 262.5c-1.279 0-2.559-.488-3.535-1.465-1.953-1.952-1.953-5.118 0-7.071l45-45c1.953-1.952 5.118-1.952 7.071 0 1.952 1.953 1.952 5.119 0 7.071l-45 45c-.977.977-2.256 1.465-3.536 1.465z"/><path d="m263.395 322.5c-1.279 0-2.559-.488-3.535-1.465-1.953-1.952-1.953-5.118 0-7.07l80-80c1.953-1.952 5.118-1.952 7.071 0 1.952 1.953 1.952 5.119 0 7.071l-80 80c-.977.976-2.256 1.464-3.536 1.464z"/><path d="m333.395 312.5c-1.279 0-2.559-.488-3.535-1.465-1.953-1.952-1.953-5.118 0-7.07l65-65c1.953-1.952 5.118-1.952 7.071 0 1.952 1.953 1.952 5.119 0 7.071l-65 65c-.977.976-2.256 1.464-3.536 1.464z"/><path d="m443.395 407.5c-13.785 0-25-11.215-25-25s11.215-25 25-25 25 11.215 25 25-11.215 25-25 25zm0-40c-8.271 0-15 6.729-15 15s6.729 15 15 15 15-6.729 15-15-6.729-15-15-15z"/><path d="m103.395 137.5c-24.813 0-45-20.187-45-45s20.187-45 45-45 45 20.187 45 45-20.187 45-45 45zm0-80c-19.299 0-35 15.701-35 35s15.701 35 35 35 35-15.701 35-35-15.701-35-35-35z"/><path d="m68.395 367.5c-11.028 0-20-8.972-20-20s8.972-20 20-20 20 8.972 20 20-8.972 20-20 20zm0-30c-5.514 0-10 4.486-10 10s4.486 10 10 10 10-4.486 10-10-4.486-10-10-10z"/></g></g></svg>