<svg width="884px" height="713px" viewBox="0 0 884 713" version="1.1" xmlns="http://www.w3.org/2000/svg" xmlns:xlink="http://www.w3.org/1999/xlink"><title>Group</title><desc>Created with Sketch.</desc><g id="Page-1" stroke="none" stroke-width="1" fill="none" fill-rule="evenodd"><g id="elements_1_water_laser_gun_toys_1" transform="translate(-152.000000, -1015.000000)"><g id="Group" transform="translate(593.741000, 1371.837208) scale(-1, 1) translate(-593.741000, -1371.837208) translate(152.241000, 1015.337208)"><path d="M485.911,374.602792 C485.911,374.602792 514.333,407.382792 512.403,434.102792 C510.473,460.832792 541.828,453.312792 552.28,405.592792 C562.732,357.882792 485.911,374.602792 485.911,374.602792" id="Fill-34" fill="#E16249"></path><path d="M21.628,201.102792 L21.628,230.892792 C21.628,230.892792 148.468,225.522792 257.876,263.092792 L257.876,168.902792 C148.468,206.472792 21.628,201.102792 21.628,201.102792" id="Fill-35" fill="#4AAAA8"></path><polygon id="Fill-36" fill="#3D7C8C" points="814.619 246.922792 850.769 246.922792 850.769 200.932792 814.619 200.932792"></polygon><path d="M338.427,48.6627924 C338.427,48.6627924 423.928,4.02279241 574.331,0.662792406 C724.734,-2.70720759 820.726,6.60279241 822.899,32.5227924 C825.071,58.4327924 713.431,128.912792 713.431,128.912792 L338.427,48.6627924" id="Fill-37" fill="#EEE65D"></path><path d="M487.697,80.6027924 L713.431,128.912792 C713.431,128.912792 824.235,58.9627924 822.903,32.8127924 C797.399,35.5727924 758.463,40.3927924 705.921,48.6027924 C627.649,60.8227924 529.807,74.7027924 487.697,80.6027924" id="Fill-38" fill="#DD923E"></path><path d="M257.876,161.332792 L257.876,286.532792 C257.876,355.612792 316.46,410.082792 385.372,405.302792 C648.95,387.012792 832.421,312.722792 832.421,223.862792 C832.421,135.242792 645.102,61.1227924 385.574,42.5727924 C316.593,37.6427924 257.876,92.1727924 257.876,161.332792" id="Fill-39" fill="#4AAAA8"></path><path d="M860.349,172.712792 L860.349,172.712792 C847.979,172.712792 837.853,182.842792 837.853,195.212792 L837.853,252.652792 C837.853,265.022792 847.979,275.142792 860.349,275.142792 C872.719,275.142792 882.839,265.022792 882.839,252.652792 L882.839,195.212792 C882.839,182.842792 872.719,172.712792 860.349,172.712792" id="Fill-40" fill="#3D7C8C"></path><path d="M858.899,648.302792 L839.306,516.102792 C835.335,489.322792 821.133,464.532788 799.03,445.862792 C766.64,418.502792 721.822,372.492792 716.631,324.012792 C708.401,247.152792 515.575,368.682792 515.575,368.682792 C515.575,368.682792 552.098,401.022792 583.237,451.982792 L506.864,451.982792 C483.063,451.982792 461.109,439.052792 449.569,418.232792 L428.026,379.372792 C422.149,368.772792 408.79,364.942792 398.188,370.822792 C387.586,376.702792 383.756,390.052792 389.633,400.662792 L411.176,439.522792 C430.449,474.282792 467.114,495.882792 506.864,495.882792 L605.954,495.882792 C607.623,499.812792 609.224,503.812792 610.739,507.862792 C628.277,554.832792 626.027,616.762792 620.895,661.142792 C617.528,690.262792 645.249,714.802792 678.23,711.972792 L811.898,700.502792 C841.455,697.972792 862.759,674.312792 858.899,648.302792" id="Fill-41" fill="#4AAAA8"></path><path d="M233.266,223.932792 C233.266,340.002792 213.756,434.102792 189.688,434.102792 C165.62,434.102792 146.11,340.002792 146.11,223.932792 C146.11,107.852792 165.62,13.7527924 189.688,13.7527924 C213.756,13.7527924 233.266,107.852792 233.266,223.932792" id="Fill-42" fill="#EEE65D"></path><path d="M189.688,13.7527924 C189.688,13.7527924 205.376,171.242792 205.376,223.932792 C205.376,276.622792 189.688,434.102792 189.688,434.102792 C213.756,434.102792 233.266,340.002792 233.266,223.932792 C233.266,107.852792 213.756,13.7527924 189.688,13.7527924" id="Fill-43" fill="#DD923E"></path><path d="M162.72,254.212792 C160.316,254.212792 158.33,252.302792 158.256,249.882792 C154.777,137.932792 175.175,52.8627924 175.381,52.0127924 C175.966,49.6127924 178.387,48.1427924 180.782,48.7327924 C183.18,49.3127924 184.651,51.7327924 184.067,54.1327924 C183.863,54.9627924 163.752,138.942792 167.191,249.602792 C167.267,252.072792 165.329,254.132792 162.862,254.212792 C162.815,254.212792 162.767,254.212792 162.72,254.212792" id="Fill-44" fill="#FFFFFE"></path><path d="M858.899,648.302792 L839.306,516.102792 C835.335,489.322792 821.133,464.532792 799.03,445.862792 C766.64,418.502792 721.822,372.492792 716.631,324.012792 C713.004,290.142792 673.523,294.802792 630.496,310.602792 C646.146,341.402792 670.112,384.302792 691.811,405.592792 C727.869,440.972792 776.47,500.542792 785.093,531.902792 C793.716,563.252792 817.232,635.372792 802.339,651.052792 C789.869,664.172792 662.018,667.962792 620.724,668.842792 C622.542,694.442792 648.204,714.542792 678.23,711.972792 L811.898,700.502792 C841.455,697.972792 862.759,674.312792 858.899,648.302792" id="Fill-45" fill="#3D7C8C"></path><path d="M121.997,223.932792 C121.997,312.002792 107.193,383.402792 88.931,383.402792 C70.669,383.402792 55.864,312.002792 55.864,223.932792 C55.864,135.852792 70.669,64.4527924 88.931,64.4527924 C107.193,64.4527924 121.997,135.852792 121.997,223.932792" id="Fill-46" fill="#EEE65D"></path><path d="M88.931,64.4527924 C88.931,64.4527924 100.835,183.952792 100.835,223.932792 C100.835,263.912792 88.931,383.402792 88.931,383.402792 C107.193,383.402792 121.997,312.002792 121.997,223.932792 C121.997,135.852792 107.193,64.4527924 88.931,64.4527924" id="Fill-47" fill="#DD923E"></path><path d="M68.468,246.912792 C66.644,246.912792 65.137,245.462792 65.081,243.622792 C62.442,158.672792 77.919,94.1227924 78.075,93.4827924 C78.519,91.6627924 80.356,90.5527924 82.174,90.9927924 C83.993,91.4327924 85.109,93.2727924 84.665,95.0927924 C84.511,95.7227924 69.252,159.442792 71.861,243.412792 C71.919,245.282792 70.448,246.852792 68.576,246.912792 C68.54,246.912792 68.504,246.912792 68.468,246.912792" id="Fill-48" fill="#FFFFFE"></path><path d="M39.404,223.932792 C39.404,276.412792 30.583,318.952792 19.702,318.952792 C8.821,318.952792 0,276.412792 0,223.932792 C0,171.452792 8.821,128.912792 19.702,128.912792 C30.583,128.912792 39.404,171.452792 39.404,223.932792" id="Fill-49" fill="#EEE65D"></path><path d="M19.702,128.912792 C19.702,128.912792 26.794,200.112792 26.794,223.932792 C26.794,247.752792 19.702,318.952792 19.702,318.952792 C30.583,318.952792 39.404,276.412792 39.404,223.932792 C39.404,171.452792 30.583,128.912792 19.702,128.912792" id="Fill-50" fill="#DD923E"></path><path d="M7.51,237.622792 C6.423,237.622792 5.525,236.762792 5.491,235.662792 C3.919,185.052792 13.14,146.592792 13.234,146.202792 C13.498,145.122792 14.593,144.462792 15.676,144.722792 C16.76,144.982792 17.425,146.082792 17.16,147.162792 C17.068,147.542792 7.976,185.502792 9.531,235.542792 C9.566,236.652792 8.689,237.582792 7.574,237.622792 C7.552,237.622792 7.531,237.622792 7.51,237.622792" id="Fill-51" fill="#FFFFFE"></path><path d="M832.385,226.002792 C798.002,236.892792 278.521,285.162792 257.876,277.452792 L257.876,286.532792 C257.876,355.612792 316.46,410.082792 385.372,405.302792 C646.836,387.162792 829.471,313.912792 832.385,226.002792" id="Fill-52" fill="#3D7C8C"></path><path d="M546.264,170.292792 L414.695,199.052792 L428.072,123.092792 C430.157,111.242792 420.205,100.752792 408.266,102.212792 L265.377,119.652792 C260.537,132.602792 257.876,146.632792 257.876,161.332792 L257.876,251.852792 L342.287,226.362792 L345.868,289.082792 C346.581,301.582792 359.576,309.512792 371.018,304.422792 L510.074,242.622792 L517.272,300.012792 C518.718,311.542792 530.59,318.662792 541.442,314.512792 L684.476,259.762792 C689.941,257.662792 688.293,249.532792 682.445,249.732792 L567.995,253.662792 L567.995,187.782792 C567.995,176.352792 557.431,167.852792 546.264,170.292792" id="Fill-53" fill="#EEE65D"></path><path d="M546.264,170.292792 L414.695,199.052792 L428.072,123.092792 C430.157,111.242792 420.205,100.752792 408.266,102.212792 L265.377,119.652792 C260.537,132.602792 257.876,146.632792 257.876,161.332792 L257.876,251.852792 L342.287,226.362792 L345.868,289.082792 C346.581,301.582792 359.576,309.512792 371.018,304.422792 L510.074,242.622792 L517.272,300.012792 C518.718,311.542792 530.59,318.662792 541.442,314.512792 L684.476,259.762792 C689.941,257.662792 688.293,249.532792 682.445,249.732792 L567.995,253.662792 L567.995,187.782792 C567.995,176.352792 557.431,167.852792 546.264,170.292792" id="Fill-54" fill="#EEE65D"></path><path d="M517.272,300.012792 C518.718,311.542792 530.59,318.662792 541.442,314.512792 L684.476,259.762792 C689.941,257.662792 688.293,249.532792 682.445,249.732792 L608.498,252.272792 C576.982,255.312792 544.416,258.342792 512.403,261.182792 L517.272,300.012792" id="Fill-55" fill="#DD923E"></path><path d="M345.043,274.642792 L345.868,289.082792 C346.581,301.582792 359.576,309.512792 371.019,304.422792 L457.611,265.942792 C416.086,269.432792 377.257,272.462792 345.043,274.642792" id="Fill-56" fill="#DD923E"></path><path d="M841.553,531.262792 C828.924,534.042792 810.469,537.642792 791.516,539.782792 C749.457,544.532792 723.057,540.082792 717.18,527.262792 C699.877,489.512792 608.352,369.812792 604.465,364.732792 L595.752,371.402792 C596.697,372.642792 690.411,495.192792 707.204,531.832792 C713.535,545.652792 731.976,552.592792 762.17,552.592792 C771.322,552.592792 781.555,551.952792 792.857,550.682792 C811.829,548.532792 830.292,544.952792 843.166,542.142792 L841.553,531.262792" id="Fill-57" fill="#3D7C8C"></path><path d="M591.029,95.5927924 C586.407,94.6127924 476.868,71.5227924 391.171,67.3327924 C356.18,65.6227924 326.391,66.3727924 303.181,67.9027924 C292.05,76.6927924 282.506,87.4327924 275.091,99.6327924 C298.037,96.9127924 338.176,93.7727924 389.755,96.3027924 C473.093,100.372792 583.898,123.722792 585.008,123.962792 C586.022,124.172792 587.034,124.282792 588.032,124.282792 C594.734,124.282792 600.756,119.602792 602.203,112.782792 C603.866,104.952792 598.863,97.2527924 591.029,95.5927924" id="Fill-58" fill="#95D0CB"></path></g></g></g></svg>