<svg id="Layer_1" enable-background="new 0 0 512 512" height="512" viewBox="0 0 512 512" width="512" xmlns="http://www.w3.org/2000/svg"><g id="XMLID_1738_"><path id="XMLID_1660_" d="m256.127 10c-88.366 0-160 71.634-160 160v45.715c0 69.384 44.168 128.444 105.92 150.617 11.142 4.001 17.969 15.233 16.123 26.927l-8.592 54.415c-4.504 28.525 17.543 54.326 46.422 54.326 28.879 0 50.926-25.801 46.422-54.327l-8.578-54.329c-1.849-11.707 4.996-22.949 16.156-26.938 61.86-22.115 106.127-81.229 106.127-150.691v-45.715c0-88.366-71.634-160-160-160z" fill="#ff7d97"/><g id="XMLID_1670_"><path id="XMLID_1671_" d="m256.127 54c-63.962 0-116 52.037-116 116v45.715c0 63.962 52.038 115.999 116 115.999s116-52.037 116-115.999v-45.715c0-63.963-52.038-116-116-116z" fill="#dfedff"/></g><g id="XMLID_220_"><path id="XMLID_221_" d="m338.09 287.72c-2.63 0-5.2 1.06-7.07 2.93-1.86 1.86-2.93 4.44-2.93 7.07s1.07 5.21 2.93 7.07c1.87 1.859 4.44 2.93 7.07 2.93s5.21-1.07 7.07-2.93c1.87-1.86 2.93-4.44 2.93-7.07s-1.06-5.21-2.93-7.07c-1.86-1.871-4.44-2.93-7.07-2.93z"/><path id="XMLID_297_" d="m256.127 44c-69.477 0-126 56.523-126 126v45.715c0 69.477 56.523 125.999 126 125.999 16.773 0 33.076-3.26 48.456-9.688 5.096-2.13 7.5-7.988 5.369-13.083-2.13-5.097-7.988-7.499-13.083-5.37-12.923 5.402-26.63 8.142-40.742 8.142-27.378 0-52.365-10.434-71.195-27.534l66.957-66.958c3.905-3.905 3.905-10.237 0-14.143-3.905-3.904-10.237-3.904-14.143 0l-66.309 66.31c-9.149-12.138-15.75-26.297-19.009-41.676l158.449-158.448c12.377 7.496 23.104 17.452 31.501 29.185l-66.589 66.588c-3.905 3.905-3.906 10.237 0 14.143 1.953 1.952 4.512 2.929 7.071 2.929s5.119-.977 7.071-2.929l62.802-62.801c6.034 13.311 9.395 28.08 9.395 43.619v45.715c0 14.128-2.746 27.851-8.161 40.786-2.132 5.095.269 10.953 5.363 13.086 5.095 2.134 10.953-.269 13.086-5.363 6.444-15.395 9.711-31.715 9.711-48.509v-45.715c0-69.477-56.523-126-126-126zm-106 167.73v-41.73c0-58.448 47.551-106 106-106 12.477 0 24.453 2.173 35.58 6.15z"/><path id="XMLID_300_" d="m426.127 170c0-93.738-76.262-170-170-170-93.738 0-170 76.262-170 170v45.715c0 71.548 45.227 135.857 112.541 160.028 6.659 2.391 10.707 9.102 9.625 15.956l-8.592 54.414c-2.604 16.489 2.123 33.225 12.967 45.916 10.844 12.692 26.638 19.971 43.332 19.971s32.488-7.279 43.333-19.971c10.844-12.691 15.571-29.427 12.967-45.916l-8.578-54.329c-1.083-6.864 2.973-13.577 9.645-15.963 67.446-24.112 112.761-88.454 112.761-160.106v-45.715zm-20 45.715c0 63.226-39.983 119.999-99.494 141.274-15.716 5.618-25.249 21.564-22.667 37.914l8.578 54.329c1.69 10.703-1.378 21.566-8.417 29.805-7.039 8.238-17.291 12.963-28.127 12.963s-21.088-4.725-28.127-12.963-10.107-19.102-8.417-29.805l8.592-54.414c2.578-16.328-6.936-32.267-22.621-37.899-59.394-21.326-99.299-78.071-99.299-141.204v-45.715c0-82.71 67.29-150 150-150s150 67.29 150 150v45.715z"/><path id="XMLID_303_" d="m256 444.5c-2.63 0-5.21 1.069-7.07 2.93-1.86 1.86-2.93 4.44-2.93 7.07s1.07 5.21 2.93 7.069c1.86 1.86 4.44 2.931 7.07 2.931s5.21-1.07 7.07-2.931c1.86-1.859 2.93-4.439 2.93-7.069s-1.07-5.21-2.93-7.07-4.44-2.93-7.07-2.93z"/><path id="XMLID_304_" d="m466.384 337.733c-4.623 0-8.384-3.761-8.384-8.384 0-5.522-4.477-10-10-10s-10 4.478-10 10c0 4.623-3.761 8.384-8.384 8.384-5.523 0-10 4.478-10 10s4.477 10 10 10c4.623 0 8.384 3.762 8.384 8.385 0 5.522 4.477 10 10 10s10-4.478 10-10c0-4.623 3.761-8.385 8.384-8.385 5.523 0 10-4.478 10-10s-4.477-10-10-10z"/><path id="XMLID_305_" d="m92.384 28.385c0-5.522-4.477-10-10-10-4.623 0-8.384-3.762-8.384-8.385 0-5.522-4.477-10-10-10s-10 4.478-10 10c0 4.623-3.761 8.385-8.384 8.385-5.523 0-10 4.478-10 10s4.477 10 10 10c4.623 0 8.384 3.761 8.384 8.384 0 5.522 4.477 10 10 10s10-4.478 10-10c0-4.623 3.761-8.384 8.384-8.384 5.523 0 10-4.478 10-10z"/></g></g></svg>