<svg id="Capa_1" enable-background="new 0 0 512 512" height="512" viewBox="0 0 512 512" width="512" xmlns="http://www.w3.org/2000/svg"><g><g><path d="m377 512c-5.801 0-11.074-3.34-13.564-8.569l-81.357-171.46c-6.681-14.136-10.079-29.268-10.079-44.971 0-57.891 47.109-105 105-105s105 47.109 105 105c0 15.703-3.398 30.835-10.078 44.956l-81.357 171.475c-2.491 5.229-7.764 8.569-13.565 8.569z" fill="#ff73a5"/></g><path d="m390.564 503.431 81.357-171.475c6.681-14.121 10.079-29.253 10.079-44.956 0-57.891-47.109-105-105-105v330c5.801 0 11.074-3.34 13.564-8.569z" fill="#ff4081"/><g id="Here_i_am_2_"><g><path d="m377 332c-24.814 0-45-20.186-45-45s20.186-45 45-45 45 20.186 45 45-20.186 45-45 45z" fill="#f3f5f9"/></g></g><path d="m422 287c0-24.814-20.186-45-45-45v90c24.814 0 45-20.186 45-45z" fill="#e1e6f0"/><path d="m105 0c-8.284 0-15 6.716-15 15v45h-30v-45c0-8.284-6.716-15-15-15s-15 6.716-15 15v120c0 8.284 6.716 15 15 15s15-6.716 15-15v-45h30v45c0 8.284 6.716 15 15 15s15-6.716 15-15v-120c0-8.284-6.716-15-15-15z" fill="#90e36a"/><path d="m225 30c8.284 0 15-6.716 15-15s-6.716-15-15-15h-60c-8.284 0-15 6.716-15 15v120c0 8.284 6.716 15 15 15h60c8.284 0 15-6.716 15-15s-6.716-15-15-15h-45v-30h15c8.284 0 15-6.716 15-15s-6.716-15-15-15h-15v-30z" fill="#90e36a"/><path d="m285 150c8.284 0 15-6.716 15-15v-45h5.729l25.854 51.708c2.628 5.256 7.925 8.295 13.428 8.295 2.254 0 4.543-.51 6.696-1.587 7.41-3.705 10.413-12.715 6.708-20.125l-21.892-43.784c13.977-7.644 23.477-22.486 23.477-39.507 0-24.813-20.187-45-45-45h-30c-8.284 0-15 6.716-15 15v120c0 8.284 6.716 15 15 15zm15-120h15c8.271 0 15 6.729 15 15s-6.729 15-15 15h-15z" fill="#29cc29"/><path d="m465 120h-45v-30h15c8.284 0 15-6.716 15-15s-6.716-15-15-15h-15v-30h45c8.284 0 15-6.716 15-15s-6.716-15-15-15h-60c-8.284 0-15 6.716-15 15v120c0 8.284 6.716 15 15 15h60c8.284 0 15-6.716 15-15s-6.716-15-15-15z" fill="#29cc29"/><g fill="#90e36a"><path d="m45 332c8.284 0 15-6.716 15-15v-120c0-8.284-6.716-15-15-15s-15 6.716-15 15v120c0 8.284 6.716 15 15 15z"/><path d="m75 362c-24.813 0-45 20.187-45 45v90c0 8.284 6.716 15 15 15s15-6.716 15-15v-45h30v45c0 8.284 6.716 15 15 15s15-6.716 15-15v-90c0-24.813-20.187-45-45-45zm-15 60v-15c0-8.271 6.729-15 15-15s15 6.729 15 15v15z"/><path d="m228.446 362.401c-6.769-1.598-13.751 1.668-16.863 7.89l-16.583 33.168-16.583-33.167c-3.111-6.222-10.092-9.49-16.863-7.89-6.771 1.598-11.554 7.641-11.554 14.598v120c0 8.284 6.716 15 15 15s15-6.716 15-15v-56.459l1.583 3.167c2.542 5.082 7.735 8.292 13.417 8.292s10.875-3.21 13.417-8.292l1.583-3.167v56.459c0 8.284 6.716 15 15 15s15-6.716 15-15v-120c0-6.957-4.783-13-11.554-14.599z"/></g></g></svg>