<svg id="Capa_1" enable-background="new 0 0 512.209 512.209" height="512" viewBox="0 0 512.209 512.209" width="512" xmlns="http://www.w3.org/2000/svg"><g><g><g><path d="m438.004 209.803.94-.25 15.99-38.62c4.13-9.97 13.75-15.94 23.86-15.94 3.54 0 7.15.73 10.59 2.28 12.67 5.71 18.55 20.43 13.29 33.3l-58.64 143.52 42.544 160.143c1.321 4.973-2.428 9.847-7.573 9.847h-131.165c-3.553 0-6.661-2.39-7.573-5.824l-32.913-123.906-9.46-12.06c-10.32-13.16-17.85-28.27-22.14-44.42l-54.56-205.96c-.53-1.98-.78-3.98-.78-5.94 0-10.2 6.82-19.54 17.16-22.28 11.48-3.05 23.24 3.12 27.42 13.96l-2.91-10.96c-.53-1.98-.78-3.98-.78-5.94 0-10.2 6.82-19.54 17.15-22.28 12.25-3.25 24.83 3.99 28.17 16.2l-4.89-18.41c-.53-1.98-.78-3.98-.78-5.94 0-10.2 6.82-19.54 17.15-22.28 12.32-3.27 24.95 4.06 28.22 16.37l4.94 18.59c-.53-1.99-.78-3.98-.78-5.94 0-10.21 6.82-19.54 17.15-22.28 12.32-3.27 24.95 4.06 28.22 16.37z" fill="#e8b2a5"/></g><g><path d="m377.653 498.494-33.264-117.138c-2.131-7.503-5.758-14.498-10.662-20.563l-2.581-3.191c-10.924-13.512-19.006-29.114-23.763-45.864l-60.507-213.615c-.587-2.053-.886-4.133-.925-6.177-.058-3 .474-5.953 1.466-8.696-3.176-.55-6.523-.439-9.842.443-10.34 2.74-17.16 12.08-17.16 22.28 0 1.96.25 3.96.78 5.94l54.56 205.96c4.29 16.15 11.82 31.26 22.14 44.42l9.46 12.06 32.913 123.906c.912 3.434 4.02 5.824 7.573 5.824h35.329c-2.614-.771-4.736-2.84-5.517-5.589z" fill="#e0a090"/></g><g><g><g id="XMLID_104_"><path d="m283.519 78.74c-.543-2.085-.8-4.191-.8-6.254 0-5.33 1.726-10.434 4.755-14.579-2.93-.399-5.985-.239-9.02.566-10.33 2.74-17.15 12.08-17.15 22.28 0 1.96.25 3.96.78 5.94l28.71 107.49c11.761-2.671 18.988-14.534 15.966-26.21z" fill="#e0a090"/><g><path d="m246.574 144.063c2.74-10.33 12.07-17.15 22.27-17.15 1.96 0 3.96.25 5.95.78 12.31 3.27 19.64 15.9 16.37 28.21l-54.71 205.96c-4.29 16.15-11.83 31.27-22.14 44.42l-9.46 12.06-20.766 78.17c-1.212 4.561-5.333 7.741-10.052 7.755l-125.889.392c-6.865.021-11.88-6.479-10.117-13.114l30.145-113.464-58.64-143.52c-1.31-3.19-1.92-6.5-1.92-9.76 0-9.86 5.68-19.25 15.21-23.54 13.28-5.98 28.88.2 34.45 13.66l15.99 38.62.95.25 42.14-158.64c3.27-12.32 15.9-19.65 28.22-16.38 10.33 2.74 17.15 12.08 17.15 22.28 0 1.96-.25 3.96-.78 5.94l4.94-18.58c3.27-12.32 15.9-19.65 28.22-16.38 10.33 2.74 17.15 12.08 17.15 22.28 0 1.96-.25 3.96-.78 5.94l-4.92 18.51c3.31-12.27 15.92-19.56 28.2-16.3 10.33 2.75 17.15 12.08 17.15 22.29 0 1.95-.25 3.95-.78 5.93z" fill="#ffe0d1"/></g><g><path d="m98.456 384.536c.891-3.599.662-7.385-.658-10.85l-59.447-156.097c-1.373-3.588-2.013-7.311-2.013-10.977 0-2.495.328-4.963.909-7.345-4.73-.711-9.726-.118-14.422 1.997-9.53 4.29-15.21 13.68-15.21 23.54 0 3.26.61 6.57 1.92 9.76l58.64 143.52-30.145 113.463c-1.763 6.635 3.252 13.135 10.117 13.114l20.578-.064z" fill="#ffd1c2"/></g><g id="XMLID_118_"><path d="m267.539 147.992c2.111-7.943 7.974-13.883 15.18-16.454-2.304-1.731-4.969-3.06-7.924-3.845-1.99-.53-3.99-.78-5.95-.78-10.2 0-19.53 6.82-22.27 17.15l-25.44 95.77c11.491 2.738 23.072-4.178 26.111-15.594z" fill="#ffd1c2"/><g><g id="XMLID_119_" fill="#ffd1c2"><path d="m228.944 122.788c.01-.03.01-.05.02-.08 1.979-7.334 7.297-12.896 13.864-15.482-2.547-2.182-5.616-3.843-9.074-4.763-12.28-3.26-24.89 4.03-28.2 16.3-.01.03-.01.05-.02.08l-28.99 109.15c12.64 3.26 25.544-4.286 28.901-16.901z"/><g id="XMLID_120_"><path d="m190.822 92.471c1.885-6.902 6.631-12.338 12.654-15.421-2.605-2.309-5.777-4.064-9.371-5.018-12.32-3.27-24.95 4.06-28.22 16.38l-35.44 133.41c11.853 5.057 25.443-1.514 28.84-13.945z"/><path d="m138.639 99.957c2.147-7.664 7.876-13.531 15.014-16.421-2.548-2.183-5.618-3.845-9.079-4.763-12.32-3.27-24.95 4.06-28.22 16.38l-35.03 131.86c10.345 4.276 22.103-1.443 25.124-12.222z"/></g></g></g></g></g><g id="XMLID_121_"><g fill="#e0a090"><path d="m472.225 179.706c4.402-10.227 14.541-16.417 25.294-16.659-2.246-2.372-4.979-4.353-8.134-5.775-3.44-1.55-7.05-2.28-10.59-2.28-10.11 0-19.73 5.97-23.86 15.94l-15.99 38.62c8.721 5.025 19.873 1.319 23.851-7.927z"/><path d="m374.237 58.77c-.53-1.99-.78-3.98-.78-5.94 0-6.746 3.003-13.097 8.003-17.427-4.283-1.563-9.082-1.879-13.825-.62-10.33 2.74-17.15 12.07-17.15 22.28 0 1.96.25 3.95.78 5.94l30.5 114.83c12.442-4.123 19.523-17.221 16.158-29.889z"/><path d="m323.682 50.697c-.53-1.98-.78-3.98-.78-5.94 0-6.36 2.66-12.388 7.161-16.688-3.786-1.028-7.892-1.105-11.958-.026-10.33 2.74-17.15 12.08-17.15 22.28 0 1.96.25 3.96.78 5.94 0 0 4.92 18.52 4.94 18.58l28.99 109.15c12.087-3.306 19.244-15.744 16.026-27.855z"/></g></g></g></g></g><g><path d="m55.387 326.957c-1.567-3.834-5.945-5.672-9.78-4.106-3.834 1.567-5.673 5.945-4.106 9.78l18.779 45.96-32.992 124.19c-1.063 4.003 1.32 8.111 5.323 9.174.646.171 1.293.253 1.931.253 3.317 0 6.352-2.218 7.244-5.576l33.638-126.624c.419-1.579.312-3.251-.306-4.763z"/><path d="m492.464 150.434c-8.289-3.735-17.51-3.945-25.962-.595-8.452 3.352-15.022 9.824-18.5 18.225l-8.119 19.612-17.283-65.058c-1.063-4.002-5.172-6.387-9.174-5.323-4.003 1.063-6.386 5.171-5.323 9.174l25.333 95.363c.892 3.358 3.926 5.576 7.244 5.576.637 0 1.286-.082 1.931-.253 4.003-1.063 6.386-5.171 5.323-9.174l-1.705-6.418 15.633-37.761c1.912-4.619 5.524-8.177 10.17-10.019 4.647-1.842 9.716-1.726 14.272.327 9.038 4.071 13.18 14.448 9.431 23.623l-58.642 143.521c-.618 1.512-.725 3.184-.306 4.763l45.16 169.995c.892 3.358 3.926 5.576 7.244 5.576.637 0 1.286-.082 1.931-.253 4.003-1.063 6.386-5.171 5.323-9.174l-44.513-167.562 57.69-141.191c6.817-16.693-.719-35.569-17.158-42.974z"/><path d="m414.347 91.556-11.244-42.326c-2.096-7.891-7.14-14.494-14.203-18.592s-15.297-5.2-23.19-3.104c-5.665 1.505-10.66 4.536-14.547 8.735-6.447-12.438-20.89-19.217-34.982-15.474-14.096 3.745-23.273 16.809-22.689 30.814-5.33-1.676-11.176-1.921-16.964-.383-7.891 2.096-14.494 7.14-18.592 14.203-2.158 3.719-3.476 7.765-3.943 11.912-5.89-2.204-12.301-2.541-18.502-.893-7.194 1.911-13.232 6.292-17.278 12.139-.64-3.334-1.841-6.573-3.595-9.596-4.098-7.062-10.701-12.106-18.592-14.203-7.893-2.096-16.127-.994-23.19 3.104-5.108 2.963-9.152 7.242-11.796 12.366-3.886-4.197-8.879-7.226-14.542-8.73-7.892-2.096-16.127-.994-23.19 3.104-7.062 4.098-12.106 10.701-14.203 18.592l-36.778 138.445-8.12-19.613c-3.478-8.4-10.048-14.873-18.5-18.224s-17.673-3.141-25.962.594c-16.439 7.406-23.975 26.282-17.155 42.973l25.799 63.141c1.188 2.906 3.989 4.665 6.946 4.665.944 0 1.905-.18 2.834-.559 3.834-1.567 5.673-5.945 4.106-9.78l-25.799-63.141c-3.749-9.175.394-19.552 9.431-23.624 4.557-2.053 9.625-2.169 14.272-.327s8.258 5.4 10.17 10.018l15.633 37.762-1.705 6.418c-1.063 4.003 1.32 8.111 5.323 9.174.646.171 1.293.253 1.931.253 3.317 0 6.352-2.218 7.244-5.576l44.83-168.752c1.068-4.019 3.637-7.382 7.233-9.469 3.597-2.086 7.79-2.649 11.811-1.581 8.297 2.204 13.254 10.747 11.05 19.044l-30.505 114.831c-1.063 4.003 1.32 8.111 5.323 9.174 4.004 1.063 8.111-1.319 9.174-5.323l35.443-133.417c1.068-4.019 3.637-7.382 7.233-9.469 3.596-2.086 7.79-2.648 11.811-1.581 4.02 1.068 7.382 3.637 9.469 7.233 2.087 3.597 2.648 7.792 1.581 11.811 0 0-29.94 112.703-29.94 112.704l-3.993 15.031c-1.063 4.003 1.32 8.111 5.323 9.174.646.171 1.293.253 1.931.253 3.317 0 6.352-2.218 7.244-5.576l28.998-109.155c2.206-8.294 10.75-13.249 19.042-11.045 4.02 1.068 7.382 3.637 9.469 7.233 2.087 3.597 2.648 7.792 1.581 11.811l-28.996 109.15c-1.063 4.003 1.32 8.111 5.323 9.174.646.171 1.293.253 1.931.253 3.317 0 6.352-2.218 7.244-5.576l25.443-95.774c1.068-4.019 3.637-7.382 7.233-9.469s7.789-2.649 11.811-1.581c4.019 1.068 7.382 3.637 9.469 7.233 2.087 3.597 2.648 7.792 1.581 11.811l-10.402 39.156c-1.063 4.003 1.32 8.111 5.323 9.174 4.001 1.063 8.111-1.319 9.174-5.323l10.402-39.156c2.096-7.892.994-16.127-3.104-23.19-3.696-6.37-9.434-11.09-16.314-13.494l-9.665-36.382c-1.068-4.019-.506-8.213 1.581-11.811 2.087-3.597 5.45-6.166 9.469-7.233 4.02-1.067 8.214-.506 11.811 1.581 3.595 2.086 6.163 5.447 7.232 9.464l28.998 109.155c.892 3.358 3.926 5.576 7.244 5.576.637 0 1.286-.082 1.931-.253 4.003-1.063 6.386-5.171 5.323-9.174l-33.941-127.729c-2.204-8.297 2.753-16.84 11.05-19.044 8.293-2.204 16.84 2.753 19.044 11.05l35.443 133.416c.892 3.358 3.926 5.576 7.244 5.576.637 0 1.286-.082 1.931-.253 4.003-1.063 6.386-5.171 5.323-9.174l-30.507-114.832c-2.204-8.297 2.753-16.84 11.05-19.044 8.292-2.204 16.84 2.752 19.044 11.05l11.244 42.326c1.063 4.003 5.169 6.385 9.174 5.323 4.003-1.063 6.387-5.171 5.323-9.174zm-156.132 29.777c-.467-4.148-1.785-8.193-3.943-11.912-4.098-7.062-10.701-12.106-18.592-14.203-.98-.26-1.961-.467-2.941-.627 1.83-1.7 4.076-2.975 6.604-3.647 4.021-1.067 8.214-.507 11.811 1.581 3.597 2.087 6.166 5.45 7.233 9.469l4.768 17.948c-1.677.32-3.327.788-4.94 1.391z"/><path d="m314.601 372.429c-.261-.982-.719-1.902-1.346-2.702l-9.46-12.065c-9.742-12.424-16.736-26.46-20.79-41.719l-13.297-50.056 10.087-37.971c1.063-4.003-1.32-8.111-5.323-9.174-4.005-1.064-8.111 1.319-9.174 5.323l-36.094 135.871c-4.054 15.258-11.048 29.294-20.79 41.719l-9.46 12.065c-.627.8-1.085 1.719-1.346 2.702l-22.82 85.899c-1.063 4.003 1.32 8.111 5.323 9.174.646.171 1.293.253 1.931.253 3.317 0 6.352-2.218 7.244-5.576l22.424-84.41 8.509-10.853c11.003-14.033 18.903-29.888 23.482-47.122l18.247-68.688 6.56 24.696c4.579 17.234 12.479 33.089 23.482 47.122l8.509 10.853 34.068 128.242c.892 3.358 3.926 5.576 7.244 5.576.637 0 1.286-.082 1.931-.253 4.003-1.063 6.386-5.171 5.323-9.174z"/><path d="m220.476 45.166c4.142 0 7.5-3.358 7.5-7.5v-30.166c0-4.142-3.358-7.5-7.5-7.5s-7.5 3.358-7.5 7.5v30.166c0 4.142 3.358 7.5 7.5 7.5z"/><path d="m190.754 50.527c1.467 2.024 3.757 3.1 6.08 3.1 1.525 0 3.064-.464 4.394-1.427 3.354-2.43 4.104-7.12 1.673-10.474l-17.698-24.429c-2.431-3.354-7.119-4.103-10.474-1.673-3.354 2.43-4.104 7.12-1.673 10.474z"/></g></g></svg>