<svg height="511pt" viewBox="-45 1 511 511.999" width="511pt" xmlns="http://www.w3.org/2000/svg"><path d="m174.355469 265.023438s-136.269531-38.277344-136.269531-197.347657l173.058593-30.089843 173.054688 30.089843c0 159.070313-136.269531 197.347657-136.269531 197.347657l-36.785157 22.898437zm0 0" fill="#f9ed80"/><path d="m204.355469 265.023438s-136.269531-38.277344-136.269531-197.347657l158.058593-27.480469-15-2.609374-173.058593 30.089843c0 159.070313 136.269531 197.347657 136.269531 197.347657l36.789062 22.898437 15-9.335937zm0 0" fill="#fab659"/><path d="m211.144531 287.921875 36.785157 22.898437s4.566406 85.980469 73.21875 133.503907l-110.003907 30.089843-110.003906-30.089843c68.648437-47.523438 73.214844-133.503907 73.214844-133.503907zm0 0" fill="#f9ed80"/><path d="m131.140625 444.324219c68.652344-47.523438 73.214844-133.5 73.214844-133.5l21.789062-13.5625-15-9.339844-36.789062 22.898437s-4.5625 85.980469-73.214844 133.503907l110.003906 30.089843 15-4.105468zm0 0" fill="#fab659"/><path d="m384.199219 7.5h-346.113281c-16.617188 0-30.085938 13.46875-30.085938 30.085938 0 16.617187 13.46875 30.089843 30.085938 30.089843h346.113281c16.617187 0 30.089843-13.472656 30.089843-30.089843 0-16.613282-13.472656-30.085938-30.089843-30.085938zm0 0" fill="#fab659"/><path d="m38 37.585938c0-16.617188 13.46875-30.085938 30.085938-30.085938h-30c-16.617188 0-30.085938 13.472656-30.085938 30.085938 0 16.617187 13.46875 30.089843 30.085938 30.089843h30c-16.617188 0-30.085938-13.472656-30.085938-30.089843zm0 0" fill="#ec8d00"/><path d="m321.148438 444.324219h-220.007813c-16.617187 0-30.085937 13.472656-30.085937 30.089843 0 16.617188 13.46875 30.085938 30.085937 30.085938h220.007813c16.613281 0 30.085937-13.46875 30.085937-30.085938 0-16.617187-13.472656-30.089843-30.085937-30.089843zm0 0" fill="#fab659"/><path d="m101.054688 474.414062c0-16.617187 13.46875-30.089843 30.085937-30.089843h-30c-16.617187 0-30.085937 13.472656-30.085937 30.089843 0 16.617188 13.46875 30.085938 30.085937 30.085938h30c-16.617187 0-30.085937-13.46875-30.085937-30.085938zm0 0" fill="#ec8d00"/><path d="m247.929688 265.023438h-73.574219c-12.648438 0-22.898438 10.253906-22.898438 22.902343 0 12.644531 10.25 22.898438 22.898438 22.898438h73.574219c12.648437 0 22.898437-10.253907 22.898437-22.898438 0-12.648437-10.25-22.902343-22.898437-22.902343zm0 0" fill="#fab659"/><path d="m181.457031 287.921875c0-12.644531 10.253907-22.898437 22.898438-22.898437h-30c-12.644531 0-22.898438 10.253906-22.898438 22.898437 0 12.648437 10.253907 22.898437 22.898438 22.898437h30c-12.644531 0-22.898438-10.25-22.898438-22.898437zm0 0" fill="#ec8d00"/><g fill="#fd5f7e"><path d="m211.144531 96.1875c-8.417969 0-15.238281 6.820312-15.238281 15.238281v15.761719c0 8.417969 6.820312 15.238281 15.238281 15.238281 8.414063 0 15.238281-6.820312 15.238281-15.238281v-15.761719c0-8.417969-6.824218-15.238281-15.238281-15.238281zm0 0"/><path d="m105.871094 96.1875c-8.417969 0-15.238282 6.820312-15.238282 15.238281v15.761719c0 8.417969 6.820313 15.238281 15.238282 15.238281 8.414062 0 15.238281-6.820312 15.238281-15.238281v-15.761719c0-8.417969-6.824219-15.238281-15.238281-15.238281zm0 0"/><path d="m316.417969 96.1875c8.414062 0 15.238281 6.820312 15.238281 15.238281v15.761719c0 8.417969-6.824219 15.238281-15.238281 15.238281-8.417969 0-15.238281-6.820312-15.238281-15.238281v-15.761719c0-8.417969 6.820312-15.238281 15.238281-15.238281zm0 0"/></g><path d="m148.089844 192.425781v-12.773437c0-4.140625-3.359375-7.5-7.5-7.5-4.144532 0-7.5 3.359375-7.5 7.5v12.773437c0 4.140625 3.355468 7.5 7.5 7.5 4.140625 0 7.5-3.359375 7.5-7.5zm0 0"/><path d="m289.199219 192.425781v-12.773437c0-4.140625-3.359375-7.5-7.5-7.5-4.144531 0-7.5 3.359375-7.5 7.5v12.773437c0 4.140625 3.355469 7.5 7.5 7.5 4.140625 0 7.5-3.359375 7.5-7.5zm0 0"/><path d="m188.082031 196.472656c5.703125 6.523438 14.109375 10.265625 23.0625 10.265625 8.949219 0 17.355469-3.742187 23.058594-10.265625 2.726563-3.121094 2.410156-7.855468-.707031-10.582031-3.121094-2.726563-7.859375-2.410156-10.585938.707031-2.855468 3.269532-7.144531 5.140625-11.765625 5.140625-4.625 0-8.914062-1.871093-11.769531-5.136719-2.726562-3.121093-7.464844-3.4375-10.582031-.710937-3.117188 2.722656-3.4375 7.460937-.710938 10.582031zm0 0"/><path d="m211.144531 149.925781c12.535157 0 22.738281-10.199219 22.738281-22.738281v-15.761719c0-12.539062-10.203124-22.738281-22.738281-22.738281-12.539062 0-22.738281 10.199219-22.738281 22.738281v15.761719c0 12.539062 10.199219 22.738281 22.738281 22.738281zm-7.738281-38.5c0-4.269531 3.46875-7.738281 7.738281-7.738281 4.265625 0 7.738281 3.46875 7.738281 7.738281v15.761719c0 4.265625-3.472656 7.738281-7.738281 7.738281-4.269531 0-7.738281-3.472656-7.738281-7.738281zm0 0"/><path d="m128.609375 127.1875v-15.761719c0-12.539062-10.203125-22.738281-22.738281-22.738281-12.539063 0-22.738282 10.199219-22.738282 22.738281v15.761719c0 12.539062 10.199219 22.738281 22.738282 22.738281 12.535156 0 22.738281-10.199219 22.738281-22.738281zm-30.476563 0v-15.761719c0-4.269531 3.46875-7.738281 7.738282-7.738281 4.265625 0 7.738281 3.46875 7.738281 7.738281v15.761719c0 4.265625-3.472656 7.738281-7.738281 7.738281-4.269532 0-7.738282-3.472656-7.738282-7.738281zm0 0"/><path d="m339.15625 127.1875v-15.761719c0-12.539062-10.199219-22.738281-22.738281-22.738281-12.539063 0-22.738281 10.199219-22.738281 22.738281v15.761719c0 12.539062 10.199218 22.738281 22.738281 22.738281 12.539062 0 22.738281-10.199219 22.738281-22.738281zm-30.476562 0v-15.761719c0-4.269531 3.472656-7.738281 7.738281-7.738281s7.738281 3.46875 7.738281 7.738281v15.761719c0 4.265625-3.472656 7.738281-7.738281 7.738281s-7.738281-3.472656-7.738281-7.738281zm0 0"/><path d="m369.636719 168.929688c13.753906-27.945313 21.136719-59.707032 21.980469-94.492188 17.183593-3.453125 30.171874-18.664062 30.171874-36.851562 0-20.726563-16.863281-37.585938-37.589843-37.585938h-346.113281c-20.726563 0-37.585938 16.859375-37.585938 37.585938 0 18.191406 12.988281 33.398437 30.175781 36.851562.425781 17.433594 2.5 34.234375 6.191407 50.027344.941406 4.03125 4.976562 6.539062 9.007812 5.597656 4.035156-.945312 6.539062-4.976562 5.597656-9.011719-3.382812-14.464843-5.320312-29.863281-5.777344-45.875h330.898438c-.914062 32.015625-7.710938 61.171875-20.238281 86.769531-10.777344 22.019532-25.824219 41.523438-44.71875 57.96875-29.410157 25.59375-59.277344 35.855469-64.820313 37.609376h-71.34375c-4.304687-1.359376-23.078125-7.773438-44.839844-22.347657-22.597656-15.128906-53.199218-42.46875-70.664062-86.78125-1.515625-3.855469-5.871094-5.746093-9.726562-4.226562-3.855469 1.519531-5.746094 5.871093-4.226563 9.726562 18.976563 48.148438 52.214844 77.734375 76.761719 94.074219 11.824218 7.875 22.742187 13.488281 31.308594 17.324219-6.210938 5.570312-10.128907 13.648437-10.128907 22.628906 0 13.921875 9.40625 25.675781 22.195313 29.265625-2.707032 20.40625-15.066406 82.246094-67.539063 119.730469-19.550781 1.308593-35.0625 17.617187-35.0625 37.492187 0 20.726563 16.863281 37.589844 37.589844 37.589844h220.003906c20.726563 0 37.589844-16.863281 37.589844-37.589844 0-19.863281-15.492187-36.167968-35.027344-37.488281-12.492187-8.917969-23.609375-19.832031-33.039062-32.507813-2.472657-3.320312-7.167969-4.011718-10.492188-1.539062s-4.015625 7.171875-1.542969 10.492188c6.371094 8.5625 13.4375 16.402343 21.132813 23.457031h-177.277344c21.085938-19.382813 37.523438-44.796875 48.074219-74.566407 6.71875-18.960937 9.484375-35.128906 10.589844-43.9375h59.980468c1.558594 12.519532 6.460938 39.839844 21.296876 68.875 1.886718 3.691407 6.40625 5.152344 10.09375 3.269532 3.6875-1.886719 5.148437-6.402344 3.265624-10.09375-13.4375-26.296875-18.113281-51.515625-19.65625-63.183594 12.789063-3.589844 22.195313-15.34375 22.195313-29.265625 0-8.972656-3.910156-17.046875-10.113281-22.617187 13.605468-6.082032 33.128906-16.660157 52.753906-33.628907 20.546875-17.761719 36.917969-38.871093 48.667969-62.746093zm-354.136719-131.34375c0-12.453126 10.132812-22.585938 22.585938-22.585938h346.113281c12.457031 0 22.589843 10.132812 22.589843 22.585938 0 12.453124-10.132812 22.585937-22.585937 22.589843 0 0 0 0-.003906 0h-346.113281s0 0-.003907 0c-12.453125-.003906-22.582031-10.136719-22.582031-22.589843zm328.234375 436.828124c0 12.453126-10.132813 22.585938-22.585937 22.585938h-220.007813c-12.457031 0-22.585937-10.132812-22.585937-22.585938 0-12.453124 10.128906-22.589843 22.585937-22.589843h220.007813c12.453124 0 22.585937 10.132812 22.585937 22.589843zm-95.804687-171.09375h-73.574219c-8.488281 0-15.398438-6.90625-15.398438-15.398437 0-8.488281 6.910157-15.398437 15.398438-15.398437h73.574219c8.492187 0 15.398437 6.910156 15.398437 15.398437 0 8.492187-6.90625 15.398437-15.398437 15.398437zm0 0"/></svg>