<svg id="Capa_1" enable-background="new 0 0 512 512" height="512" viewBox="0 0 512 512" width="512" xmlns="http://www.w3.org/2000/svg"><g><g><path d="m425.757 123.292c8.59-6.08 21.06-1.95 23.96 8.63l15.57 56.7c1.52 5.54-.13 11.48-4.31 15.43l-42.7 40.42c-6.77 6.41-17.02 5.26-22.52-1.15" fill="#da4a54"/><path d="m116.243 243.322c-5.5 6.41-15.75 7.56-22.52 1.15l-42.7-40.42c-4.18-3.95-5.83-9.89-4.31-15.43l15.57-56.7c2.9-10.58 15.37-14.71 23.96-8.63" fill="#c32430"/><path d="m292.908 346.895v110.078h-73.82v-110.095" fill="#f6e266"/><path d="m251.227 346.895v110.078h-32.139v-110.095" fill="#eab14d"/><circle cx="256" cy="331.316" fill="#f6e266" r="52.874"/><path d="m271.968 381.731c-5.03 1.6-10.4 2.46-15.96 2.46-29.2 0-52.88-23.67-52.88-52.88 0-29.2 23.68-52.87 52.88-52.87 5.56 0 10.93.86 15.96 2.46-21.4 6.76-36.91 26.77-36.91 50.41s15.51 43.659 36.91 50.42z" fill="#eab14d"/><path d="m424.51 93.508h-337.019c-20.71 0-37.498-16.789-37.498-37.498v-11.009c0-20.71 16.789-37.498 37.498-37.498h337.019c20.71 0 37.498 16.789 37.498 37.498v11.008c0 20.71-16.788 37.499-37.498 37.499z" fill="#f6e266"/><path d="m192.571 93.509h-105.079c-20.71 0-37.5-16.79-37.5-37.5v-11.009c0-20.71 16.79-37.5 37.5-37.5h105.079c-20.71 0-37.5 16.79-37.5 37.5v11.01c.001 20.709 16.791 37.499 37.5 37.499z" fill="#eab14d"/><path d="m427.087 144.602c0 94.489-76.6 171.089-171.089 171.089-.37 0-.75 0-1.12-.01h-.01c-11-.06-21.75-1.17-32.16-3.23-78.56-15.49-137.799-84.75-137.799-167.849 0-17.8 2.72-34.96 7.76-51.09h326.658c2.68 8.58 4.71 17.45 6.01 26.56 1.15 8.01 1.75 16.2 1.75 24.53z" fill="#f6e266"/><path d="m222.708 312.451c-78.56-15.49-137.799-84.75-137.799-167.849 0-17.8 2.72-34.96 7.76-51.09h326.658c2.68 8.58 4.71 17.45 6.01 26.56h-231.911c-13.435 0-24.427 10.845-24.437 24.28v.25c0 66.61 26.38 141.899 53.719 167.849z" fill="#eab14d"/><path d="m255.99 66.032-.52-.089.13-.041z" fill="#eab14d"/><path d="m359.765 434.693h-207.53c-19.277 0-34.904 15.627-34.904 34.904 0 19.277 15.627 34.904 34.904 34.904h207.531c19.277 0 34.904-15.627 34.904-34.904-.001-19.277-15.628-34.904-34.905-34.904z" fill="#f6e266"/><path d="m201.891 494.276c6.32 6.31 15.04 10.22 24.68 10.22h-74.33c-9.64 0-18.37-3.91-24.69-10.22-6.31-6.32-10.22-15.039-10.22-24.68 0-19.28 15.63-34.91 34.91-34.91h74.33c-19.28 0-34.9 15.63-34.9 34.91 0 9.641 3.9 18.36 10.22 24.68z" fill="#eab14d"/><path d="m299.599 176.598-30.25-50.42c-6.046-10.078-20.652-10.078-26.699 0l-30.25 50.42c-2.958 4.93-2.958 11.088 0 16.018l30.25 50.42c6.046 10.078 20.652 10.078 26.699 0l30.25-50.42c2.958-4.93 2.958-11.089 0-16.018z" fill="#da4a54"/><path d="m256.001 250.595c-5.16 0-10.32-2.52-13.35-7.56l-30.25-50.42c-2.95-4.93-2.95-11.08 0-16.01l30.25-50.42c3.03-5.04 8.19-7.56 13.35-7.56-1.86 0-3.72 2.52-4.81 7.56l-10.9 50.42c-1.06 4.93-1.06 11.08 0 16.01l10.9 50.42c1.09 5.04 2.95 7.56 4.81 7.56z" fill="#c32430"/></g><g><path d="m275.781 122.319c-4.208-7.013-11.602-11.2-19.78-11.2-8.179 0-15.573 4.187-19.781 11.2l-30.25 50.42c-4.392 7.32-4.392 16.415 0 23.735l30.25 50.42c4.208 7.013 11.602 11.2 19.781 11.2 8.178 0 15.573-4.187 19.78-11.2l30.25-50.42c4.392-7.32 4.392-16.415 0-23.735zm17.387 66.438-30.25 50.42c-2.121 3.535-5.545 3.917-6.918 3.917-1.374 0-4.797-.382-6.918-3.917l-30.25-50.42c-1.536-2.56-1.536-5.741 0-8.301l30.25-50.42c2.121-3.535 5.545-3.917 6.918-3.917s4.797.382 6.918 3.917l30.25 50.42c1.536 2.56 1.536 5.741 0 8.301z"/><path d="m472.519 186.636-15.569-56.696c-2.015-7.352-7.282-13.04-14.451-15.605-3.473-1.243-7.132-1.619-10.679-1.178-.739-4.16-1.622-8.292-2.655-12.387 22.633-2.337 40.344-21.518 40.344-44.759v-11.011c0-24.813-20.187-45-45-45h-337.019c-24.813 0-45 20.187-45 45v11.01c0 23.241 17.711 42.422 40.344 44.759-1.033 4.095-1.916 8.227-2.655 12.387-3.547-.441-7.206-.065-10.679 1.178-7.168 2.565-12.436 8.253-14.45 15.602l-15.57 56.701c-2.261 8.241.188 17.002 6.387 22.861l42.699 40.419c4.335 4.104 9.897 6.325 15.778 6.325.404 0 .81-.011 1.216-.032 3.231-.167 6.367-1.015 9.209-2.436 21.193 27.353 50.136 48.409 83.512 59.839-1.749 5.689-2.653 11.609-2.653 17.697 0 15.741 6.059 30.088 15.96 40.848v55.031h-59.358c-23.379 0-42.4 19.025-42.4 42.41 0 11.315 4.408 21.961 12.421 29.987 8.017 8.006 18.664 12.414 29.979 12.414h207.54c23.379 0 42.4-19.021 42.4-42.4 0-11.328-4.41-21.976-12.417-29.983-3.541-3.541-7.638-6.404-12.177-8.51-3.757-1.742-8.216-.11-9.96 3.647-1.743 3.757-.11 8.216 3.647 9.959 2.938 1.363 5.59 3.217 7.883 5.51 5.174 5.174 8.023 12.056 8.023 19.377 0 15.108-12.292 27.4-27.4 27.4h-207.539c-7.313 0-14.196-2.851-19.373-8.019-5.177-5.185-8.027-12.068-8.027-19.381 0-15.114 12.292-27.41 27.4-27.41h192.54c4.142 0 7.5-3.358 7.5-7.5s-3.358-7.5-7.5-7.5h-44.362v-55.023c9.907-10.76 15.97-25.111 15.97-40.856 0-6.087-.904-12.008-2.654-17.699 33.374-11.43 62.315-32.486 83.506-59.837 2.842 1.421 5.978 2.269 9.209 2.436.407.021.812.032 1.216.032 5.88 0 11.443-2.221 15.777-6.325l42.696-40.416c6.204-5.862 8.653-14.624 6.391-22.866zm-367.735 54.595c-1.545.084-3.825-.237-5.905-2.207l-42.705-40.424c-2.166-2.047-3.02-5.11-2.229-7.993l15.571-56.703c.704-2.568 2.54-4.554 5.039-5.448 1.199-.43 2.428-.568 3.62-.445-.507 5.498-.765 11.031-.765 16.588 0 35.527 10.431 68.662 28.386 96.509-.333.06-.67.106-1.012.123zm121.805 185.959v-43.176c8.709 4.881 18.737 7.677 29.41 7.677s20.7-2.795 29.41-7.674v43.173zm74.789-95.879c0 25.022-20.357 45.38-45.38 45.38-25.017 0-45.37-20.357-45.37-45.38 0-4.633.694-9.133 2.037-13.449 13.88 3.473 28.394 5.328 43.335 5.328 14.943 0 29.459-1.855 43.341-5.329 1.343 4.317 2.037 8.817 2.037 13.45zm-45.378-23.121c-90.204 0-163.59-73.386-163.59-163.59 0-14.816 1.979-29.452 5.877-43.59h30.613c4.142 0 7.5-3.358 7.5-7.5s-3.358-7.5-7.5-7.5h-41.41c-16.542 0-30-13.458-30-30v-11.01c0-16.542 13.458-30 30-30h337.02c16.542 0 30 13.458 30 30v11.01c0 16.542-13.458 30-30 30h-265.61c-4.142 0-7.5 3.358-7.5 7.5s3.358 7.5 7.5 7.5h254.813c3.898 14.138 5.877 28.774 5.877 43.59 0 90.204-73.386 163.59-163.59 163.59zm199.821-109.585-42.701 40.42c-2.079 1.968-4.355 2.289-5.904 2.206-.342-.018-.678-.063-1.012-.122 17.955-27.848 28.386-60.982 28.386-96.509 0-5.556-.258-11.09-.765-16.587 1.191-.124 2.421.015 3.62.444 2.499.894 4.335 2.88 5.04 5.451l15.57 56.698c.79 2.885-.064 5.948-2.234 7.999z"/></g></g></svg>