<svg width="444px" height="670px" viewBox="0 0 444 670" version="1.1" xmlns="http://www.w3.org/2000/svg" xmlns:xlink="http://www.w3.org/1999/xlink"><title>Group</title><desc>Created with Sketch.</desc><g id="Page-1" stroke="none" stroke-width="1" fill="none" fill-rule="evenodd"><g id="Group"><path d="M179.923871,605.177132 C174.573871,605.102482 167.844871,617.093482 167.882711,628.131482 C167.891871,630.829482 168.846871,635.880482 173.150871,639.043482 C177.241871,642.050482 183.374871,642.394482 187.825871,639.419482 C192.999871,635.961482 193.469871,630.890482 193.469871,627.755482 C193.469871,617.093482 183.725871,605.231482 179.923871,605.177132" id="Fill-10" fill="#54A7D1"></path><path d="M177.831871,634.270482 C172.700871,631.366482 168.439871,617.783482 180.111871,605.212482 L179.923871,605.177132 C174.573871,605.102482 167.844871,617.093482 167.882711,628.131482 C167.891871,630.829482 168.846871,635.880482 173.150871,639.043482 C177.241871,642.050482 183.374871,642.394482 187.825871,639.419482 C190.945871,637.334482 192.349871,634.663482 192.977871,632.182482 C189.601871,635.340482 184.215871,637.884482 177.831871,634.270482" id="Fill-11" fill="#3C98BC"></path><path d="M262.864871,605.177132 C257.514871,605.102482 250.785871,617.093482 250.823711,628.131482 C250.832871,630.829482 251.787871,635.880482 256.091871,639.043482 C260.182871,642.050482 266.315871,642.394482 270.766871,639.419482 C275.940871,635.961482 276.410871,630.890482 276.410871,627.755482 C276.410871,617.093482 266.666871,605.231482 262.864871,605.177132" id="Fill-12" fill="#3C98BC"></path><polyline id="Fill-13" fill="#0F3042" points="170.490871 526.989482 187.914871 600.722482 193.052871 599.508482 175.628871 525.775482 170.490871 526.989482"></polyline><polyline id="Fill-14" fill="#0F3042" points="191.271871 508.043482 197.814871 596.218482 203.080871 595.826482 196.537871 507.651482 191.271871 508.043482"></polyline><polyline id="Fill-15" fill="#0F3042" points="240.365871 595.826482 245.629871 596.218482 252.171871 508.043482 246.907871 507.651482 240.365871 595.826482"></polyline><polyline id="Fill-16" fill="#0F3042" points="250.391871 599.508482 255.529871 600.722482 272.955871 526.989482 267.817871 525.775482 250.391871 599.508482"></polyline><path d="M361.275871,36.0704824 C327.208871,13.0064824 294.545871,7.81348238 269.893871,3.89348238 C228.960871,-2.61451762 198.484871,-0.719517622 155.344871,7.75448238 C83.2688714,21.9124824 44.5278714,59.9934824 29.2118714,83.6914824 C25.6688714,89.1744824 8.33087145,116.688482 2.18387145,158.342482 C-5.77312855,212.246482 9.90487145,255.248482 18.9148714,278.039482 C40.7958714,333.383482 151.482871,476.583482 151.482871,476.583482 L151.653871,477.364482 L289.977871,477.364482 C289.977871,477.364482 387.004871,346.207482 419.193871,284.809482 C428.976871,266.150482 475.824871,173.760482 405.035871,77.2304824 C398.464871,68.2684824 383.747871,51.2834824 361.275871,36.0704824" id="Fill-17" fill="#54A7D1"></path><path d="M191.912871,41.2184824 C197.146871,23.2224824 203.043871,13.4854824 205.641871,9.47048238 C207.931871,5.93148238 210.241871,2.85048238 212.351871,0.263482378 C202.515871,0.694482378 192.560871,1.68348238 182.066871,3.17648238 C178.117871,5.16548238 174.046871,7.51248238 169.955871,10.3284824 C101.309871,57.5894824 116.159871,168.694482 121.179871,202.008482 C135.753871,298.729482 185.174871,442.964482 196.922871,477.364482 L210.826871,477.364482 C205.721871,433.136482 195.949871,351.121482 194.486871,336.721482 C191.368871,306.019482 175.385871,163.824482 185.048871,79.8044824 C185.828871,73.0164824 186.812871,58.7574824 191.912871,41.2184824" id="Fill-18" fill="#F9F4F4"></path><path d="M49.9608714,143.326482 C49.9608714,92.1054824 77.6078714,49.1594824 106.207871,22.7754824 C77.5388714,35.1154824 57.0578714,51.1894824 43.4068714,65.7614824 C36.7098714,75.7204824 30.4028714,87.2354824 25.3508714,100.423482 C22.8158714,107.041482 16.3938714,125.043482 14.1958714,149.332482 C11.9188714,174.497482 15.3338714,193.624482 17.6278714,205.963482 C22.7438714,233.472482 31.2248714,252.780482 42.5118714,278.039482 C55.7788714,307.729482 68.2638714,329.651482 73.4008714,338.437482 C104.618871,391.826482 139.389871,441.982482 163.824871,477.364482 L178.106871,477.364482 C149.700871,423.308482 96.2668714,316.572482 92.8628714,308.406482 C87.3298714,295.131482 49.9608714,222.591482 49.9608714,143.326482" id="Fill-19" fill="#F9F4F4"></path><path d="M419.886871,100.391482 C415.638871,92.7324824 410.721871,85.0094824 405.035871,77.2564824 C398.464871,68.2954824 383.747871,51.2834824 361.275871,36.0704824 C357.241871,33.3394824 353.228871,30.8664824 349.245871,28.6094824 C375.576871,55.2664824 399.458871,95.7214824 399.458871,143.326482 C399.458871,222.591482 362.089871,295.131482 356.556871,308.406482 C353.152871,316.572482 299.718871,423.308482 271.312871,477.364482 L280.849871,477.364482 C291.456871,461.638482 302.406871,446.514482 313.653871,430.248482 C335.966871,397.979482 347.379871,381.062482 359.988871,360.385482 C370.762871,342.717482 382.768871,322.919482 396.026871,295.187482 C416.933871,251.454482 423.894871,223.714482 426.058871,214.537482 C431.045871,193.377482 431.987871,179.868482 432.064871,169.922482 C432.100871,165.219482 432.027871,150.482482 427.773871,129.595482 C426.163871,121.688482 423.720871,111.780482 419.886871,100.391482" id="Fill-20" fill="#FFFFFF"></path><path d="M282.764871,10.3284824 C279.475871,8.06448238 276.199871,6.10448238 272.988871,4.38748238 C271.945871,4.22048238 270.910871,4.05548238 269.893871,3.89348238 C259.451871,2.23348238 249.693871,1.12648238 240.228871,0.530482378 C242.281871,3.06348238 244.511871,6.04948238 246.726871,9.47048238 C249.324871,13.4854824 255.221871,23.2224824 260.454871,41.2184824 C265.555871,58.7574824 266.538871,73.0424824 267.319871,79.8304824 C276.982871,163.850482 260.999871,306.019482 257.880871,336.721482 C256.418871,351.121482 246.645871,433.136482 241.541871,477.364482 L255.796871,477.364482 C267.545871,442.964482 316.966871,298.729482 331.540871,202.008482 C336.560871,168.694482 351.410871,57.5894824 282.764871,10.3284824" id="Fill-21" fill="#F7F0F0"></path><path d="M170.691871,527.488482 L272.753871,527.488482 C272.753871,527.488482 277.822871,509.797482 289.977871,477.364482 L151.653871,477.364482 L170.691871,527.488482" id="Fill-22" fill="#285168"></path><path d="M248.436871,586.467482 L195.007871,586.467482 C187.125871,586.467482 180.675871,592.917482 180.675871,600.799482 L180.675871,655.074482 C180.675871,662.957482 187.125871,669.407482 195.007871,669.407482 L248.436871,669.407482 C256.319871,669.407482 262.769871,662.957482 262.769871,655.074482 L262.769871,600.799482 C262.769871,592.917482 256.319871,586.467482 248.436871,586.467482" id="Fill-23" fill="#F7D48D"></path><path d="M261.791871,490.559482 C256.856871,502.204482 251.241871,514.129482 239.269871,518.936482 C235.788871,520.334482 237.217871,520.150482 215.723871,520.585482 C206.507871,520.772482 197.092871,521.233482 183.988871,520.255482 C178.283871,519.829482 175.709871,519.416482 172.727871,518.274482 C170.025871,517.240482 167.711871,515.849482 165.697871,514.342482 L170.691871,527.488482 L272.753871,527.488482 C272.753871,527.488482 277.822871,509.797482 289.977871,477.364482 L266.292871,477.364482 C265.287871,480.312482 263.862871,485.674482 261.791871,490.559482" id="Fill-24" fill="#274254"></path><path d="M144.721871,371.753482 C137.606871,368.333482 126.507871,362.214482 113.640871,351.127482 C132.628871,389.417482 160.289871,443.947482 178.106871,477.364482 L196.922871,477.364482 C191.544871,461.638482 178.268871,422.875482 164.056871,376.177482 C159.660871,377.766482 153.436871,375.940482 144.721871,371.753482" id="Fill-25" fill="#59B0D3"></path><path d="M122.542871,84.9664824 C111.270871,131.424482 118.086871,181.477482 121.179871,202.003482 C129.080871,254.443482 147.225871,320.868482 164.056871,376.172482 C164.689871,375.943482 165.283871,375.645482 165.841871,375.272482 C172.969871,370.517482 173.943871,354.534482 162.761871,322.472482 C130.279871,229.329482 143.393871,113.219482 122.542871,84.9664824" id="Fill-26" fill="#F9F4F4"></path><path d="M49.9608714,143.326482 C49.9608714,132.145482 51.2788714,121.358482 53.6358714,111.052482 C43.2008714,128.538482 36.4808714,153.126482 36.4808714,185.191482 C36.4808714,210.165482 41.9178714,228.910482 45.2808714,240.631482 C48.2758714,251.068482 55.9378714,275.063482 73.4408714,303.112482 C87.1708714,325.114482 101.228871,340.427482 113.640871,351.122482 C102.354871,328.364482 94.1318714,311.445482 92.8628714,308.400482 C87.3298714,295.126482 49.9608714,222.591482 49.9608714,143.326482" id="Fill-27" fill="#F9F4F4"></path><path d="M160.534871,376.741482 C156.522871,376.741482 151.378871,374.945482 144.820871,371.800482 C144.787871,371.784482 144.754871,371.768482 144.721871,371.753482 C144.680871,371.733482 144.638871,371.712482 144.596871,371.692482 C137.528871,368.287482 126.593871,362.234482 113.921871,351.364482 C103.647871,330.790482 95.8658714,314.980482 93.4648714,309.759482 C93.1948714,309.167482 92.9928714,308.711482 92.8628714,308.400482 C87.3428714,295.158482 50.1428714,222.945482 49.9608714,143.906482 C49.9608714,143.713482 49.9608714,143.519482 49.9608714,143.326482 C49.9608714,143.279482 49.9608714,143.233482 49.9608714,143.186482 C49.9608714,143.168482 49.9608714,143.151482 49.9608714,143.133482 C49.9608714,143.105482 49.9608714,143.072482 49.9608714,143.044482 C49.9608714,143.026482 49.9608714,143.006482 49.9608714,142.987482 C49.9608714,142.959482 49.9608714,142.931482 49.9608714,142.903482 C49.9608714,142.882482 49.9608714,142.861482 49.9608714,142.841482 C49.9608714,142.816482 49.9608714,142.785482 49.9608714,142.760482 C49.9608714,142.741482 49.9608714,142.721482 49.9608714,142.701482 C49.9608714,142.673482 49.9628714,142.645482 49.9628714,142.617482 C49.9628714,142.598482 49.9628714,142.577482 49.9628714,142.558482 C49.9628714,142.530482 49.9628714,142.498482 49.9638714,142.470482 C49.9638714,142.452482 49.9638714,142.435482 49.9638714,142.417482 C49.9638714,142.386482 49.9638714,142.355482 49.9638714,142.324482 C49.9648714,142.290482 49.9648714,142.256482 49.9648714,142.222482 C49.9648714,142.194482 49.9658714,142.167482 49.9658714,142.139482 C49.9658714,142.118482 49.9658714,142.097482 49.9658714,142.076482 C49.9668714,142.051482 49.9668714,142.026482 49.9668714,142.001482 C49.9668714,141.976482 49.9678714,141.952482 49.9678714,141.928482 C49.9678714,141.906482 49.9678714,141.884482 49.9678714,141.863482 C49.9688714,141.836482 49.9688714,141.810482 49.9688714,141.783482 C49.9698714,141.764482 49.9698714,141.746482 49.9698714,141.727482 C49.9698714,141.699482 49.9708714,141.671482 49.9708714,141.643482 C49.9708714,141.627482 49.9708714,141.606482 49.9718714,141.590482 C49.9718714,141.561482 49.9718714,141.532482 49.9728714,141.502482 C49.9728714,141.490482 49.9728714,141.478482 49.9728714,141.465482 C49.9748714,141.307482 49.9778714,141.148482 49.9798714,140.990482 C49.9798714,140.984482 49.9798714,140.974482 49.9798714,140.967482 C49.9808714,140.931482 49.9818714,140.896482 49.9818714,140.860482 C49.9818714,140.850482 49.9828714,140.842482 49.9828714,140.832482 C49.9828714,140.795482 49.9838714,140.758482 49.9848714,140.720482 C49.9848714,140.717482 49.9848714,140.707482 49.9848714,140.703482 C49.9858714,140.663482 49.9868714,140.624482 49.9868714,140.584482 C49.9868714,140.580482 49.9868714,140.582482 49.9868714,140.579482 C50.1838714,130.376482 51.4728714,120.512482 53.6358714,111.052482 C66.8838714,88.8544824 86.1208714,78.1114824 105.239871,78.1114824 C107.845871,78.1114824 110.454871,78.3114824 113.041871,78.7094824 C116.833871,79.2934824 119.945871,81.4504824 122.536871,84.9574824 C111.262871,131.418482 118.086871,181.481482 121.179871,202.008482 C123.756871,219.110482 127.423871,237.702482 131.778871,256.906482 C131.783871,256.927482 131.788871,256.951482 131.793871,256.972482 C131.798871,256.992482 131.805871,257.023482 131.809871,257.043482 C140.805871,296.689482 152.727871,338.947482 164.056871,376.172482 C164.058871,376.171482 164.060871,376.170482 164.062871,376.170482 C164.060871,376.170482 164.058871,376.171482 164.056871,376.172482 C162.993871,376.556482 161.822871,376.741482 160.534871,376.741482" id="Fill-28" fill="#6DB4D8"></path><path d="M164.062871,376.170482 L164.062871,376.170482 C164.692871,375.941482 165.284871,375.644482 165.841871,375.272482 C169.196871,373.034482 171.188871,368.308482 171.190871,360.589482 C171.188871,368.308482 169.196871,373.034482 165.841871,375.272482 C165.284871,375.644482 164.692871,375.941482 164.062871,376.170482 M131.778871,256.906482 C127.423871,237.702482 123.756871,219.110482 121.179871,202.008482 C118.086871,181.481482 111.262871,131.418482 122.536871,84.9574824 C122.538871,84.9604824 122.540871,84.9634824 122.542871,84.9664824 C111.270871,131.424482 118.086871,181.477482 121.179871,202.003482 C123.756871,219.107482 127.422871,237.697482 131.778871,256.906482" id="Fill-29" fill="#FAF6F6"></path><path d="M113.921871,351.364482 C113.827871,351.283482 113.734871,351.203482 113.640871,351.122482 C101.228871,340.427482 87.1708714,325.114482 73.4408714,303.112482 C55.9378714,275.063482 48.2758714,251.068482 45.2808714,240.631482 C41.9178714,228.910482 36.4808714,210.165482 36.4808714,185.191482 C36.4808714,210.165482 41.9178714,228.910482 45.2808714,240.631482 C48.2758714,251.068482 55.9378714,275.063482 73.4408714,303.112482 C87.1708714,325.114482 101.228871,340.427482 113.640871,351.122482 C103.507871,330.690482 95.8438714,314.963482 93.4648714,309.759482 C95.8658714,314.980482 103.647871,330.790482 113.921871,351.364482 M49.9608714,143.326482 C49.9608714,143.279482 49.9608714,143.232482 49.9608714,143.186482 C49.9608714,143.233482 49.9608714,143.279482 49.9608714,143.326482" id="Fill-30" fill="#FAF6F6"></path><path d="M164.056871,376.172482 C152.727871,338.947482 140.805871,296.689482 131.809871,257.043482 C131.805871,257.022482 131.798871,256.994482 131.793871,256.972482 C131.788871,256.951482 131.783871,256.927482 131.778871,256.906482 C127.422871,237.697482 123.756871,219.107482 121.179871,202.003482 C118.086871,181.477482 111.270871,131.424482 122.542871,84.9664824 C143.393871,113.219482 130.279871,229.329482 162.761871,322.472482 C168.679871,339.442482 171.192871,351.908482 171.190873,360.589482 C171.188871,368.308482 169.196871,373.034482 165.841871,375.272482 C165.284871,375.644482 164.692871,375.941482 164.062871,376.172482 C164.060871,376.172482 164.058871,376.172482 164.056871,376.172482" id="Fill-31" fill="#FAF6F6"></path><path d="M113.640871,351.122482 C101.228871,340.427482 87.1708714,325.114482 73.4408714,303.112482 C55.9378714,275.063482 48.2758714,251.068482 45.2808714,240.631482 C41.9178714,228.910482 36.4808714,210.165482 36.4808714,185.191482 C36.4808714,153.126482 43.2008714,128.538482 53.6358714,111.052482 C51.4728714,120.512482 50.1838714,130.376482 49.9868714,140.579482 C49.9868714,140.581482 49.9868714,140.582482 49.9868714,140.584482 C49.9868714,140.624482 49.9858714,140.663482 49.9848714,140.703482 C49.9848714,140.709482 49.9848714,140.715482 49.9848714,140.720482 C49.9838714,140.758482 49.9828714,140.795482 49.9828714,140.832482 C49.9828714,140.841482 49.9818714,140.851482 49.9818714,140.860482 C49.9818714,140.896482 49.9808714,140.931482 49.9798714,140.967482 C49.9798714,140.975482 49.9798714,140.983482 49.9798714,140.990482 C49.9778714,141.148482 49.9748714,141.307482 49.9728714,141.465482 C49.9728714,141.478482 49.9728714,141.490482 49.9728714,141.502482 C49.9718714,141.532482 49.9718714,141.561482 49.9718714,141.590482 C49.9708714,141.608482 49.9708714,141.625482 49.9708714,141.643482 C49.9708714,141.671482 49.9698714,141.699482 49.9698714,141.727482 C49.9698714,141.746482 49.9688714,141.765482 49.9688714,141.783482 C49.9688714,141.810482 49.9688714,141.836482 49.9678714,141.863482 C49.9678714,141.884482 49.9678714,141.906482 49.9678714,141.928482 C49.9678714,141.952482 49.9668714,141.976482 49.9668714,142.001482 C49.9668714,142.026482 49.9668714,142.051482 49.9658714,142.076482 C49.9658714,142.097482 49.9658714,142.118482 49.9658714,142.139482 C49.9658714,142.166482 49.9648714,142.195482 49.9648714,142.222482 C49.9648714,142.256482 49.9648714,142.290482 49.9638714,142.324482 C49.9638714,142.355482 49.9638714,142.385482 49.9638714,142.417482 C49.9638714,142.435482 49.9638714,142.452482 49.9638714,142.470482 C49.9628714,142.499482 49.9628714,142.529482 49.9628714,142.558482 C49.9628714,142.577482 49.9628714,142.598482 49.9628714,142.617482 C49.9628714,142.645482 49.9618714,142.672482 49.9618714,142.701482 C49.9618714,142.721482 49.9618714,142.741482 49.9618714,142.760482 C49.9618714,142.787482 49.9618714,142.814482 49.9618714,142.841482 C49.9618714,142.861482 49.9618714,142.882482 49.9618714,142.903482 C49.9608714,142.931482 49.9608714,142.959482 49.9608714,142.987482 C49.9608714,143.006482 49.9608714,143.026482 49.9608714,143.044482 C49.9608714,143.074482 49.9608714,143.103482 49.9608714,143.133482 C49.9608714,143.151482 49.9608714,143.168482 49.9608714,143.186482 C49.9608714,143.232482 49.9608714,143.279482 49.9608714,143.326482 C49.9608714,143.519482 49.9608714,143.713482 49.9618714,143.906482 C50.1428714,222.945482 87.3428714,295.158482 92.8628714,308.400482 C92.9928714,308.711482 93.1948714,309.167482 93.4648714,309.759482 C95.8438714,314.963482 103.507871,330.690482 113.640871,351.122482" id="Fill-32" fill="#FAF6F6"></path><path d="M360.874871,35.7994824 C360.808871,35.7544824 360.746871,35.7134824 360.679871,35.6684824 C360.743871,35.7114824 360.810871,35.7564824 360.874871,35.7994824 M360.474871,35.5314824 C360.376871,35.4654824 360.281871,35.4014824 360.183871,35.3364824 C360.280871,35.4014824 360.377871,35.4664824 360.474871,35.5314824 M359.972871,35.1964824 C359.909871,35.1544824 359.844871,35.1114824 359.782871,35.0704824 C359.846871,35.1124824 359.908871,35.1544824 359.972871,35.1964824" id="Fill-33" fill="#80C5DE"></path><path d="M289.977871,477.364482 L280.849871,477.364482 C291.456871,461.638482 302.406871,446.514482 313.653871,430.248482 C335.966871,397.979482 347.379871,381.062482 359.988871,360.385482 C370.762871,342.717482 382.768871,322.919482 396.026871,295.187482 C416.933871,251.454482 423.894871,223.714482 426.058871,214.537482 C431.045871,193.377482 431.987871,179.868482 432.064871,169.922482 C432.100871,165.219482 432.027871,150.482482 427.773871,129.595482 C426.163871,121.688482 423.720871,111.780482 419.886871,100.391482 C415.638871,92.7324824 410.721871,85.0094824 405.035871,77.2564824 C398.476871,68.3124824 383.804871,51.3504824 361.407871,36.1594824 C383.804871,51.3494824 398.476871,68.2864824 405.035871,77.2304824 C434.277871,117.105482 443.445871,156.274482 443.445871,189.831482 C443.445871,237.509482 424.935871,273.858482 419.193871,284.809482 C387.004871,346.207482 289.977871,477.364482 289.977871,477.364482 M271.312871,477.364482 L255.796871,477.364482 C259.236871,467.292482 265.905871,447.805482 273.984871,422.851482 C284.831871,413.896482 292.513871,404.481482 299.040871,396.371482 C309.820871,382.975482 392.004871,238.941482 384.664871,133.067482 C383.879871,121.740482 381.043871,99.4554824 369.386871,73.5224824 C361.377871,55.7044824 343.432871,32.8544824 320.273871,15.4824824 C332.699871,19.8374824 345.754871,25.8714824 359.049871,34.5874824 C359.051871,34.5884824 359.052871,34.5884824 359.054871,34.5904824 C359.076871,34.6044824 359.100871,34.6204824 359.122871,34.6354824 C359.130871,34.6404824 359.139871,34.6464824 359.147871,34.6514824 C359.166871,34.6634824 359.186871,34.6774824 359.205871,34.6894824 C359.217871,34.6974824 359.230871,34.7064824 359.243871,34.7144824 C359.260871,34.7254824 359.277871,34.7374824 359.295871,34.7484824 C359.311871,34.7594824 359.328871,34.7704824 359.345871,34.7814824 C359.363871,34.7934824 359.380871,34.8044824 359.398871,34.8164824 C359.423871,34.8334824 359.446871,34.8484824 359.471871,34.8644824 C359.482871,34.8724824 359.492871,34.8784824 359.504871,34.8864824 C359.524871,34.8994824 359.545871,34.9134824 359.566871,34.9274824 C359.576871,34.9344824 359.588871,34.9414824 359.598871,34.9484824 C359.619871,34.9624824 359.642871,34.9774824 359.663871,34.9914824 C359.672871,34.9974824 359.679871,35.0024824 359.689871,35.0084824 C359.714871,35.0254824 359.743871,35.0444824 359.767871,35.0604824 C359.773871,35.0644824 359.777871,35.0674824 359.782871,35.0704824 C359.844871,35.1114824 359.909871,35.1544824 359.972871,35.1964824 C359.979871,35.2004824 359.986871,35.2054824 359.993871,35.2104824 C360.017871,35.2264824 360.042871,35.2424824 360.067871,35.2594824 C360.074871,35.2644824 360.083871,35.2704824 360.091871,35.2754824 C360.115871,35.2914824 360.141871,35.3094824 360.166871,35.3254824 C360.172871,35.3294824 360.177871,35.3324824 360.183871,35.3364824 C360.281871,35.4014824 360.376871,35.4654824 360.474871,35.5314824 C360.476871,35.5324824 360.480871,35.5344824 360.482871,35.5364824 C360.511871,35.5564824 360.540871,35.5754824 360.569871,35.5944824 C360.574871,35.5974824 360.579871,35.6014824 360.584871,35.6044824 C360.613871,35.6244824 360.641871,35.6424824 360.670871,35.6624824 C360.673871,35.6644824 360.676871,35.6664824 360.679871,35.6684824 C360.746871,35.7134824 360.808871,35.7544824 360.874871,35.7994824 C360.877871,35.8014824 360.879871,35.8034824 360.882871,35.8044824 C360.911871,35.8244824 360.938871,35.8424824 360.967871,35.8624824 C360.975871,35.8674824 360.981871,35.8714824 360.989871,35.8774824 C361.014871,35.8934824 361.036871,35.9084824 361.061871,35.9254824 C361.066871,35.9294824 361.072871,35.9334824 361.077871,35.9364824 C357.110871,33.2584824 353.164871,30.8304824 349.245871,28.6094824 C375.576871,55.2664824 399.458871,95.7214824 399.458871,143.326482 C399.458871,222.591482 362.089871,295.131482 356.556871,308.406482 C353.152871,316.572482 299.718871,423.308482 271.312871,477.364482 M241.541871,477.364482 L210.826871,477.364482 C209.924871,469.549482 208.876871,460.551482 207.754871,450.958482 C217.906871,449.674482 231.325871,446.924482 245.854871,440.358482 C244.266871,453.903482 242.769871,466.725482 241.541871,477.364482 M196.922871,477.364482 L196.922871,477.364482 C194.997871,471.735482 192.060871,463.154482 188.431871,452.316482 C188.433871,452.316482 188.435871,452.316482 188.437871,452.316482 C192.063871,463.149482 194.998871,471.731482 196.922871,477.364482 M163.824871,477.364482 L151.653871,477.364482 L151.482871,476.583482 L151.482871,476.582482 C151.362871,476.427482 134.698871,454.857482 113.064871,425.290482 C121.163871,431.023482 129.606871,436.107482 138.351871,440.274482 C147.567871,453.843482 156.198871,466.322482 163.824871,477.364482" id="Fill-34" fill="#4A93BD"></path><path d="M210.826871,477.364482 L196.922871,477.364482 C194.998871,471.731482 192.063871,463.149482 188.437871,452.316482 C190.512871,452.313482 192.599871,452.245482 194.694871,452.112482 C197.917871,451.906482 202.378871,451.637482 207.754871,450.958482 C208.876871,460.551482 209.924871,469.549482 210.826871,477.364482" id="Fill-35" fill="#DBD6DC"></path><path d="M178.106871,477.364482 L163.824871,477.364482 C156.198871,466.322482 147.567871,453.843482 138.351871,440.274482 C146.445871,444.132482 154.793871,447.203482 163.370871,449.279482 C168.698871,459.556482 173.702871,469.103482 178.106871,477.364482" id="Fill-36" fill="#DBD6DC"></path><path d="M280.849871,477.364482 L271.312871,477.364482 C299.718871,423.308482 353.152871,316.572482 356.556871,308.406482 C362.089871,295.131482 399.458871,222.591482 399.458871,143.326482 C399.458871,95.7214824 375.576871,55.2664824 349.245871,28.6094824 C353.164871,30.8304824 357.110871,33.2584824 361.077871,35.9364824 C361.083871,35.9404824 361.086871,35.9424824 361.091871,35.9454824 C361.101871,35.9524824 361.112871,35.9594824 361.122871,35.9664824 C361.137871,35.9764824 361.151871,35.9864824 361.166871,35.9964824 C361.172871,36.0004824 361.178871,36.0044824 361.184871,36.0084824 C361.215871,36.0294824 361.245871,36.0494824 361.275871,36.0704824 C361.319871,36.0994824 361.363871,36.1294824 361.407871,36.1594824 C383.804871,51.3504824 398.476871,68.3124824 405.035871,77.2564824 C410.721871,85.0094824 415.638871,92.7324824 419.886871,100.391482 C423.720871,111.780482 426.163871,121.688482 427.773871,129.595482 C432.027871,150.482482 432.100871,165.219482 432.064871,169.922482 C431.987871,179.868482 431.045871,193.377482 426.058871,214.537482 C423.894871,223.714482 416.933871,251.454482 396.026871,295.187482 C382.768871,322.919482 370.762871,342.717482 359.988871,360.385482 C347.379871,381.062482 335.966871,397.979482 313.653871,430.248482 C302.406871,446.514482 291.456871,461.638482 280.849871,477.364482" id="Fill-37" fill="#E0E0E5"></path><path d="M255.796871,477.364482 L241.541871,477.364482 C242.769871,466.725482 244.266871,453.903482 245.854871,440.358482 C249.424871,438.745482 253.062871,436.901482 256.734871,434.791482 C263.290871,431.025482 268.975871,426.987482 273.984871,422.851482 C265.905871,447.805482 259.236871,467.292482 255.796871,477.364482" id="Fill-38" fill="#D9D3D8"></path><polyline id="Fill-39" fill="#234761" points="289.977871 477.364482 151.653871 477.364482 289.977871 477.364482"></polyline><path d="M196.922871,477.364482 L178.106871,477.364482 C173.702871,469.103482 168.698871,459.556482 163.370871,449.279482 C171.486871,451.244482 179.803871,452.316482 188.290871,452.316482 C188.337871,452.316482 188.384871,452.316482 188.431871,452.316482 C192.060871,463.154482 194.997871,471.735482 196.922871,477.364482" id="Fill-40" fill="#4E9BBF"></path><path d="M186.403871,500.487482 C182.641871,491.115482 181.773871,477.396482 181.773871,477.396482 L151.653871,477.354482 C151.653871,477.354482 161.891871,504.327482 164.321871,509.474482 C167.475871,516.156482 202.537871,517.194482 203.080871,515.854482 C203.363871,515.155482 190.512871,510.721482 186.403871,500.487482" id="Fill-41" fill="#29637C"></path><path d="M246.665871,670.000482 L196.862871,670.000482 C193.479871,670.000482 190.459871,669.135482 188.007871,667.569482 C190.081871,668.738482 192.470871,669.407482 195.007871,669.407482 L248.436871,669.407482 C249.829871,669.407482 251.176871,669.205482 252.451871,668.831482 C250.655871,669.582482 248.703871,670.000482 246.665871,670.000482 M262.769871,653.447482 L262.769871,641.446482 C262.783871,641.447482 262.797871,641.448482 262.811871,641.449482 L262.769871,652.699482 C262.774871,652.949482 262.774871,653.199482 262.769871,653.447482 M262.948871,605.180482 C262.920871,605.179482 262.892871,605.178482 262.864871,605.177482 C262.848871,605.177482 262.830871,605.177482 262.814871,605.177482 C262.799871,605.177482 262.784871,605.177482 262.769871,605.177482 L262.769871,600.799482 C262.769871,596.594482 260.933871,592.797482 258.023871,590.169482 L258.064871,589.996482 C261.077871,591.750482 262.972871,594.217482 262.972871,598.821482 L262.948871,605.180482" id="Fill-42" fill="#83C9E2"></path><path d="M262.811871,641.449482 C262.797871,641.448482 262.783871,641.447482 262.769871,641.446482 L262.769871,605.177482 C262.784871,605.177482 262.799871,605.177482 262.814871,605.177482 C262.830871,605.177482 262.848871,605.177482 262.864871,605.177482 C262.892871,605.178482 262.920871,605.179482 262.948871,605.180482 L262.811871,641.449482" id="Fill-43" fill="#3689AD"></path><path d="M258.023871,590.169482 C257.812871,589.978482 257.594871,589.793482 257.372871,589.614482 C257.609871,589.738482 257.840871,589.865482 258.064871,589.996482 L258.023871,590.169482" id="Fill-44" fill="#0E2B40"></path><path d="M248.436871,669.407482 L195.007871,669.407482 C192.470871,669.407482 190.081871,668.738482 188.007871,667.569482 C183.932871,664.965482 181.426871,660.421482 181.426871,654.683482 L181.426871,646.728482 C182.544871,656.841482 197.547871,662.338482 213.175871,662.338482 C225.022871,662.337482 237.229871,659.177482 244.010871,652.473482 C255.281871,641.330482 251.957871,616.890482 251.716871,587.340482 C253.812871,588.067482 255.733871,588.760482 257.372871,589.614482 C257.594871,589.793482 257.812871,589.978482 258.023871,590.169482 C260.933871,592.797482 262.769871,596.594482 262.769871,600.799482 L262.769871,653.447482 C262.618871,660.237482 258.375871,666.352482 252.451871,668.831482 C251.176871,669.205482 249.829871,669.407482 248.436871,669.407482" id="Fill-45" fill="#DEBE83"></path><path d="M195.699871,626.367482 C195.431871,620.005482 195.601871,601.856482 195.564871,586.573482 C187.432871,587.477482 181.426871,594.417482 181.426871,602.780482 L181.426871,640.461482 C182.409871,644.035482 184.721871,646.520482 186.038871,648.009482 C187.103871,649.212482 188.400871,650.993482 191.002871,652.675482 C194.304871,654.809482 197.268871,655.545482 200.727871,656.362482 C205.024871,657.377482 208.569871,657.652482 210.727871,657.748482 C212.877871,657.843482 214.969871,657.818482 217.003871,657.705482 C215.021871,656.928482 213.173871,656.066482 211.518871,655.116482 C202.743871,650.075482 196.334871,641.482482 195.699871,626.367482" id="Fill-46" fill="#FFE299"></path><polyline id="Fill-47" fill="#C39963" points="180.675871 609.795482 262.931871 609.795482 262.953871 598.950482 180.675871 599.015482 180.675871 609.795482"></polyline><path d="M263.550871,582.954482 L179.894871,582.954482 C176.134871,582.954482 173.059871,586.030482 173.059871,589.790482 L173.059871,598.342482 C173.059871,602.101482 176.134871,605.177482 179.894871,605.177482 L263.550871,605.177482 C267.309871,605.177482 270.385871,602.101482 270.385871,598.342482 L270.385871,589.790482 C270.385871,586.030482 267.309871,582.954482 263.550871,582.954482" id="Fill-48" fill="#F7D48D"></path><path d="M220.969871,605.177132 C215.619871,605.102482 208.891871,617.093482 208.92872,628.131482 C208.937871,630.829482 209.893871,635.880482 214.196871,639.043482 C218.287871,642.050482 224.420871,642.394482 228.871871,639.419482 C234.045871,635.961482 234.516871,630.890482 234.516871,627.755482 C234.516871,617.093482 224.771871,605.231482 220.969871,605.177132" id="Fill-49" fill="#E24F52"></path><path d="M249.427871,585.198482 L179.987871,585.198482 C178.171871,585.198482 175.939871,586.949482 175.939871,589.088482 L175.939871,592.978482 L249.842871,592.978482 C251.991871,592.978482 253.732871,591.237482 253.732871,589.088482 C253.732871,586.949482 251.244871,585.198482 249.427871,585.198482" id="Fill-50" fill="#FFE299"></path><path d="M262.606871,583.510482 L255.205871,583.510482 C257.443871,584.493482 259.297871,586.839482 259.297871,591.153482 C259.297871,596.323482 254.613871,600.118482 250.823871,600.139482 L181.921871,600.050482 C177.299871,599.945482 174.546871,597.140482 173.563871,593.640482 L173.563871,597.719482 C173.563871,601.998482 176.559871,605.132482 180.838871,605.132482 L262.606871,605.132482 C266.884871,605.132482 269.881871,601.998482 269.881871,597.719482 L269.881871,590.734482 C269.881871,586.455482 266.884871,583.510482 262.606871,583.510482" id="Fill-51" fill="#DDB57A"></path><path d="M220.429871,605.243482 C215.275871,605.918482 209.142871,617.030482 208.949871,627.530482 C209.577871,630.454482 210.954871,632.844482 212.977871,634.270482 C214.014871,635.002482 216.684871,636.514482 220.072871,636.085482 C220.743871,636.000482 227.497871,634.930482 227.497871,625.360482 C227.497871,621.627482 226.737871,618.804482 226.507871,617.935482 C225.124871,612.705482 222.648871,608.386482 220.429871,605.243482" id="Fill-52" fill="#54A7D1"></path><path d="M220.969871,605.177418 C220.792871,605.175482 220.610871,605.220482 220.429871,605.243482 C222.648871,608.386482 225.124871,612.705482 226.507871,617.935482 C226.737871,618.804482 227.497871,621.627482 227.497871,625.360482 C227.497871,634.930482 220.743871,636.000482 220.072871,636.085482 C216.684871,636.514482 214.014871,635.002482 212.977871,634.270482 C210.954871,632.844482 209.577871,630.454482 208.949871,627.530482 C208.945871,627.730482 208.928871,627.931482 208.928871,628.131482 C208.937871,630.829482 209.893871,635.880482 214.196871,639.043482 C218.287871,642.050482 224.420871,642.394482 228.871871,639.419482 C234.045871,635.961482 234.516871,630.890482 234.516871,627.755482 C234.516871,617.093482 224.771871,605.231482 220.969871,605.177418" id="Fill-53" fill="#3C98BC"></path><path d="M218.917871,609.025482 C214.464871,609.965482 209.197871,624.115482 213.142871,627.175482 C214.228871,628.018482 216.164871,626.692482 216.442871,626.515482 C221.976871,622.994482 221.031871,608.579482 218.917871,609.025482" id="Fill-54" fill="#5FB2D3"></path></g></g></svg>