<svg id="Layer_1" enable-background="new 0 0 52 52" height="512" viewBox="0 0 52 52" width="512" xmlns="http://www.w3.org/2000/svg"><g><g><g><path d="m31.21026 49.42182c12.93034-2.87714 21.0899-15.69216 18.21037-28.63337l-9.84337 2.19026c.42896 1.77223 1.29858 3.40052 2.54156 4.73799.5947.65176.99532 1.51954 1.04327 2.51209.059 1.50874-.79514 2.9555-2.14506 3.6249-2.35936 1.15918-5.01244-.24525-5.54534-2.64022-.13932-.62613-.10893-1.26695.03984-1.84191.50368-1.83014.70823-3.70884.3415-5.56416l-9.8543 2.19269 2.19266 9.85426c-1.85541.36668-3.7342.16209-5.56421-.34161-.57504-.14875-1.21589-.17899-1.84209-.03965-2.39491.53289-3.79922 3.18594-2.64012 5.5453.66932 1.34985 2.11612 2.20384 3.62489 2.14497.99251-.04787 1.86027-.44855 2.51197-1.04324 1.33759-1.24314 2.96584-2.11269 4.7382-2.54168z" fill="#f06982"></path></g><g><path d="m31.20711 49.42393-.52002-2.34003c11.34009-3.26996 18.59009-14.32001 17.16016-25.95001l1.56995-.34998c2.88 12.95002-5.28004 25.76002-18.21009 28.64002z" fill="#ef566f"></path></g><g><path d="m10.98038 18.14633c2.35939-1.15904 5.01237.24527 5.54525 2.6401.13935.62627.10903 1.26707-.03978 1.84218-.50364 1.82999-.7082 3.70869-.3415 5.56416l9.85437-2.1927-2.19269-9.8544c1.85541-.36668 3.73411-.1622 5.56418.34148.57497.14877 1.21585.17914 1.84205.0398 2.39491-.53289 3.79932-3.18582 2.64015-5.54517-.66928-1.35-2.11611-2.20413-3.62492-2.1451-.99244.04785-1.86027.44855-2.512 1.04311-1.33752 1.24313-2.96577 2.11268-4.73814 2.54167l-2.19021-9.84327c-12.9304 2.87715-21.08989 15.69216-18.21033 28.63351l9.84338-2.19025c-.42902-1.7725-1.29861-3.40065-2.54169-4.73825-.59467-.65162-.99532-1.51954-1.04317-2.51197-.05901-1.50874.79511-2.95564 2.14505-3.6249z" fill="#bf96c4"></path></g><g><path d="m24.28181 42.1201c-.65169.59469-1.51946.99537-2.51197 1.04324-1.50877.05888-2.95557-.79511-3.62489-2.14497-1.1591-2.35936.2452-5.01241 2.64012-5.5453.6262-.13934 1.26706-.1091 1.84209.03965 1.83001.5037 3.7088.7083 5.56421.34161l-2.19266-9.85426-9.85437 2.1927c-.36669-1.85547-.16214-3.73417.3415-5.56416.14881-.57512.17913-1.21592.03978-1.84218-.53287-2.39484-3.18586-3.79914-5.54525-2.6401-1.34994.66927-2.20406 2.11616-2.14505 3.6249.04785.99244.4485 1.86035 1.04317 2.51197 1.24308 1.33759 2.11267 2.96575 2.54169 4.73825l-9.84337 2.19025c2.87709 12.93021 15.69205 21.08972 28.63345 18.21012l-2.19024-9.8434c-1.77237.42899-3.40062 1.29854-4.73821 2.54168z" fill="#f4c45f"></path></g><g><path d="m41.01702 33.85368c1.34991-.6694 2.20406-2.11616 2.14506-3.6249-.04795-.99255-.44856-1.86033-1.04327-2.51209-1.24298-1.33748-2.1126-2.96577-2.54156-4.73799l9.84337-2.19026c-2.87711-12.93034-15.69213-21.08983-28.63347-18.21025l2.19021 9.84327c1.77237-.42899 3.40062-1.29854 4.73814-2.54167.65173-.59455 1.51956-.99525 2.512-1.04311 1.50881-.05902 2.95564.7951 3.62492 2.1451 1.15917 2.35935-.24524 5.01228-2.64015 5.54517-.6262.13934-1.26709.10896-1.84205-.0398-1.83007-.50368-3.70877-.70817-5.56418-.34148l2.19269 9.8544 9.8543-2.19269c.36673 1.85532.16217 3.73402-.3415 5.56416-.14877.57497-.17916 1.21578-.03984 1.84191.5329 2.39498 3.18598 3.79941 5.54533 2.64023z" fill="#fff"></path></g><g><path d="m20.78703 2.57819.52002 2.34003c-11.34009 3.26996-18.59009 14.32001-17.16016 25.95002l-1.56995.34998c-2.88-12.95002 5.28003-25.76002 18.21009-28.64003z" fill="#b183ba"></path></g><g><path d="m49.41991 20.79097-2.34003.52002c-3.26996-11.34009-14.32-18.59009-25.95001-17.16016l-.34998-1.56995c12.95002-2.88 25.76001 5.28004 28.64002 18.21009z" fill="#e1e1e1"></path></g><g><path d="m2.57417 31.21104 2.34003-.52002c3.26995 11.34009 14.32 18.5901 25.95001 17.16017l.34998 1.56995c-12.95002 2.88-25.76002-5.28004-28.64002-18.2101z" fill="#e6ac35"></path></g></g><g><g><g><circle cx="11.406" cy="7.657" fill="#b78bbe" r="5.174"></circle></g><g><circle cx="40.592" cy="44.343" fill="#ef5a76" r="5.174"></circle></g><g><path d="m44.97713 47.09391c-1.52002 2.41998-4.70996 3.15002-7.12988 1.63-.70007-.44-1.25-1.01001-1.66016-1.65997 2.42017 1.47998 5.59009.75 7.1001-1.66003 1.07996-1.71997 1.02002-3.83997.02002-5.46997.01001.00995.02002.00995.03003.01996 2.41992 1.52002 3.15991 4.72003 1.63989 7.14001z" fill="#ef566f"></path></g></g><g><g><circle cx="7.656" cy="40.593" fill="#f3b941" r="5.174"></circle></g><g><g><path d="m12.03718 43.34391c-1.52002 2.41998-4.70996 3.15002-7.13 1.63-.69006-.42999-1.25-1-1.65002-1.65997 2.41992 1.47998 5.59009.75 7.1001-1.66003 1.07983-1.71997 1.00989-3.83997.0199-5.46002.01001.01001.02002.01001.03003.02002 2.42003 1.51001 3.15001 4.71002 1.62999 7.13z" fill="#e6ac35"></path></g></g><g><circle cx="44.342" cy="11.407" fill="#fff" r="5.174"></circle></g><g><path d="m48.72713 14.15391c-1.52002 2.41998-4.70996 3.15002-7.12988 1.64001-.70007-.44-1.25-1.01001-1.66016-1.66998 2.42017 1.48999 5.59009.75995 7.1001-1.66003 1.07996-1.71997 1.02002-3.82001.03003-5.45001.01001 0 .01001.01001.02002.01001 2.41992 1.52002 3.15991 4.71002 1.63989 7.13z" fill="#e1e1e1"></path></g></g><g opacity=".1"><g><path d="m15.78718 10.40391c-1.52002 2.41998-4.70996 3.16003-7.13 1.64001-.70007-.44-1.25-1.01001-1.66003-1.66998 2.42004 1.48999 5.6001.75995 7.1001-1.66003 1.07983-1.71997 1.0199-3.83002.0199-5.45996.01001 0 .03003.00995.04004.01996 2.42003 1.52002 3.15001 4.71002 1.62999 7.13z"></path></g></g><path d="m48.75397 15.71191c.30273-.31097.58276-.64856.82007-1.02612 1.80859-2.87939.93164-6.69629-1.95508-8.50928-1.96751-1.2353-4.48561-1.28307-6.53247-.01025-4.24365-3.23669-9.48731-5.16602-15.06421-5.16602-3.43169 0-6.93868.70391-10.3197 2.22821-.30737-.29712-.6427-.56879-1.01331-.80145-2.84871-1.7882-6.67469-.9911-8.52148 1.94922-1.2699 2.04413-1.19629 4.55109-.03003 6.48376-4.62465 6.07234-6.11283 13.4873-4.53735 20.56897.37744 1.69611.93945 3.3158 1.64246 4.85486-.30432.31213-.58582.65137-.8241 1.03088-1.80371 2.8916-.9248 6.70801 1.95605 8.50586 1.98277 1.24463 4.49222 1.27304 6.51917.02051 4.24536 3.23877 9.5011 5.15869 15.08044 5.15869 3.54688 0 7.02038-.74484 10.32105-2.23108 1.21292 1.16724 2.75011 1.74866 4.2981 1.74866 2.1377 0 4.09277-1.08105 5.23047-2.8916 1.28027-2.03888 1.21118-4.54395.04199-6.4801 5.66026-7.40806 6.68027-17.13442 2.88793-25.43372zm-2.19849-7.84155c1.95215 1.22607 2.54688 3.80664 1.3252 5.75146-1.24511 1.98128-3.8257 2.52732-5.75293 1.32422-1.96941-1.23215-2.54718-3.80545-1.32422-5.75977 1.2432-1.97839 3.8222-2.52837 5.75195-1.31591zm-7.00268-.36279c-.1582.19507-.30762.39966-.4436.61621-1.81397 2.89973-.94299 6.70332 1.95898 8.51807 1.79872 1.12375 4.0616 1.26365 6.03259.2793.43982 1.00116.81531 2.03772 1.1051 3.11322l-8.8457 1.96832c-.54327.12016-.88778.66501-.75488 1.21191.46973 1.93896 1.43164 3.73096 2.77539 5.17578 1.34491 1.47506.87155 3.73522-.80469 4.56592-2.26618 1.11201-4.71548-.93332-4.10059-3.31934.60645-2.20313.72461-4.17334.35938-6.02344-.11396-.57088-.67773-.89988-1.19824-.78223l-8.87842 1.97546-1.73975-7.81873c3.10555-.24782 4.25343.9914 6.41211.51514 3.06075-.68163 4.74876-4.05175 3.31836-6.96533-.81445-1.64258-2.53125-2.7041-4.37403-2.7041l-.19531.00392c-2.92279.14099-3.09267 2.11566-6.45898 3.31982l-1.73523-7.79932c1.33679-.23779 2.69031-.35791 4.03699-.35791 4.98779 0 9.6853 1.67865 13.53052 4.50733zm-31.68873-2.07178c1.24261-1.97918 3.83195-2.52729 5.76074-1.31543 1.95034 1.22527 2.54483 3.79342 1.31543 5.75195-1.24647 1.98488-3.82807 2.53396-5.75098 1.32471-1.9453-1.22168-2.53905-3.8081-1.32519-5.76123zm-.38965 6.97638c.2052.17004.41882.33276.65039.47821 2.85396 1.79258 6.6697.97394 8.50879-1.9541 1.08669-1.72915 1.31706-3.94586.28174-6.02997 1.00806-.43488 2.03955-.82544 3.11682-1.11383l1.96863 8.84644c.12251.54822.67138.88549 1.21191.75439 4.70872-1.13982 4.77409-3.44727 7.05371-3.55762.10003.02819 1.84942-.10664 2.68848 1.58691.88028 1.79329-.20911 3.7389-1.95899 4.12842-1.62997.35758-3.50333-1.1537-7.38379-.38623-.54822.10863-.90291.64697-.78223 1.19824l1.97522 8.87842-7.81897 1.73926c-.09863-1.25391.05566-2.60352.46875-4.10205 1.04592-4.07178-3.13075-7.48818-6.91895-5.62842-2.77659 1.37706-3.69537 5.1882-1.38965 7.71338.88672.9541 1.57031 2.08545 2.00977 3.31445l-7.7998 1.73584c-1.06763-5.98672.20765-12.26798 4.11817-17.60174zm-2.03808 31.71307c-1.95103-1.21611-2.53882-3.79837-1.32227-5.74951.76855-1.22412 2.09375-1.95508 3.54395-1.95508 3.28783 0 5.27085 3.62521 3.53223 6.3916-1.2385 1.97263-3.81357 2.53243-5.75391 1.31299zm7.00488.36573c.15796-.19464.30664-.39874.44238-.61475 2.5636-4.08324-.34452-9.45557-5.22559-9.45557-.98145 0-1.91943.23657-2.76245.65674-.43945-1.00067-.81433-2.03687-1.10376-3.11176l8.84473-1.96832c.2627-.05811.49023-.21924.63184-.44727.1416-.22754.18652-.50293.12305-.76367-.46875-1.93848-1.42969-3.73096-2.77441-5.17773-1.34187-1.46976-.87658-3.73175.80469-4.56494 2.26502-1.11407 4.7146.93412 4.10059 3.31934-.60645 2.20313-.72461 4.17334-.35938 6.02344.05273.26416.20898.49609.43457.64355.22559.14697.50195.19775.76367.13867l8.87842-1.97498 1.73975 7.81824c-1.26172.10107-2.58984-.05127-4.10156-.4668-4.07837-1.05775-7.4889 3.12836-5.62891 6.91699 1.42332 2.87054 5.2481 3.63931 7.71387 1.39014.95313-.88623 2.08496-1.57031 3.31445-2.00977l1.73438 7.79932c-1.33691.23779-2.69043.35791-4.03711.35791-4.9883.00001-9.68739-1.67907-13.53322-4.50878zm19.52344 3.71679-1.96777-8.84668c-.12396-.55369-.68122-.88375-1.21191-.75439-1.93945.46924-3.73145 1.43115-5.17676 2.77441-1.45794 1.3277-3.7165.90977-4.56543-.80371-1.11554-2.27255.93684-4.72006 3.31836-4.1001 2.20703.60742 4.17969.72266 6.02441.35791.54822-.10863.90291-.64697.78223-1.19824l-1.97522-8.87799 7.81897-1.73969c.09863 1.25391-.05566 2.60352-.46875 4.10205-1.04691 4.07045 3.12625 7.49038 6.91895 5.62842 2.78316-1.38032 3.69303-5.1884 1.38965-7.71387-.88574-.95313-1.57031-2.08496-2.00977-3.31396l7.7998-1.73584c1.14982 6.44753-.52581 12.80513-4.11243 17.60657-1.15268-.95686-2.53231-1.42444-3.92957-1.42444-2.1416 0-4.10059 1.08154-5.23926 2.89404-1.09259 1.73953-1.31409 3.96216-.2749 6.04083-1.00915.43238-2.0437.81648-3.1206 1.10468zm12.16602-1.64599c-.76953 1.22461-2.0918 1.95557-3.53711 1.95557-3.26299 0-5.28956-3.60739-3.54004-6.39111.77051-1.22607 2.0957-1.95801 3.5459-1.95801 3.25006-.00001 5.27689 3.61347 3.53125 6.39355z" fill="#293c66"></path></g></g></svg>