<svg id="Layer_1" enable-background="new 0 0 512 512" height="512" viewBox="0 0 512 512" width="512" xmlns="http://www.w3.org/2000/svg"><path id="XMLID_1732_" d="m297.238 141.365h-82.477v-63.323c0-22.775 18.463-41.238 41.238-41.238 22.775 0 41.238 18.463 41.238 41.238v63.323z" fill="#a8e7ef"/><path id="XMLID_356_" d="m214.762 78.042h82.477v13.374h-82.477z" fill="#70d9e6"/><path id="XMLID_357_" d="m297.239 78.039v63.326h-20.31v-63.326c0-11.388-4.615-21.698-12.078-29.161-5.175-5.165-11.708-8.971-19.011-10.819 3.247-.819 6.653-1.258 10.16-1.258 11.389 0 21.698 4.615 29.161 12.078 7.462 7.462 12.078 17.771 12.078 29.16z" fill="#70d9e6"/><path id="XMLID_358_" d="m214.762 78.042c0-22.775 18.463-41.238 41.238-41.238 22.775 0 41.238 18.463 41.238 41.238z" fill="#fc7d4b"/><path id="XMLID_359_" d="m276.929 78.039c0-11.388-4.615-21.698-12.078-29.161-5.175-5.165-11.708-8.971-19.011-10.819 3.247-.819 6.653-1.258 10.16-1.258 11.389 0 21.698 4.615 29.161 12.078 7.462 7.463 12.078 17.772 12.078 29.161h-20.31z" fill="#fb6a3b"/><path id="XMLID_362_" d="m325.09 433.072h-138.18l20.159-291.707h97.862z" fill="#f3f0f3"/><path id="XMLID_365_" d="m325.09 433.072h-138.18l1.828-26.473c21.239-4.026 43.886-6.104 67.262-6.104s46.024 2.078 67.262 6.104z" fill="#e2dee2"/><path id="XMLID_368_" d="m307.039 171.895h-102.078l2.108-30.53h97.862z" fill="#e2dee2"/><path id="XMLID_369_" d="m318.407 336.389-96.693 96.683h-34.804l5.144-74.395 119.63-119.64z" fill="#fc7d4b"/><path id="XMLID_370_" d="m254.292 400.505-32.577 32.567h-34.805l1.828-26.473c20.719-3.926 42.777-6.004 65.554-6.094z" fill="#fb6a3b"/><path id="XMLID_373_" d="m325.09 433.072h-21.628l-5.284-76.453-6.724-97.342-8.151-117.912h21.628l6.753 97.672 6.723 97.352z" fill="#e2dee2"/><path id="XMLID_374_" d="m318.407 336.389-20.229 20.23-6.724-97.342 20.23-20.24z" fill="#fb6a3b"/><path id="XMLID_378_" d="m436.546 504.5h-361.092c.09-6.282 1.48-12.413 4.051-18.325 17.545-40.41 89.893-70.698 176.495-70.698s158.951 30.288 176.495 70.698c2.571 5.912 3.961 12.043 4.051 18.325z" fill="#ffe5c4"/><path id="XMLID_379_" d="m436.546 504.5h-42.011c-.56-40.41-48.833-74.839-116.59-88.363 88.943 5.352 157.921 42.821 158.601 88.363z" fill="#fdd1a7"/><path id="XMLID_1707_" d="m317.427 156.911h-122.853c-2.759 0-4.995-2.236-4.995-4.995v-18.629c0-2.759 2.236-4.995 4.995-4.995h122.853c2.759 0 4.995 2.236 4.995 4.995v18.629c-.001 2.759-2.237 4.995-4.995 4.995z" fill="#fc7d4b"/><path id="XMLID_380_" d="m322.423 133.283v18.631c0 2.757-2.238 4.995-4.995 4.995h-19.321c2.767 0 4.995-2.238 4.995-4.995v-18.631c0-2.757-2.228-4.995-4.995-4.995h19.321c2.757 0 4.995 2.238 4.995 4.995z" fill="#fb6a3b"/><path id="XMLID_1705_" d="m272.685 237.768h-33.37v-24.274c0-9.215 7.47-16.685 16.685-16.685 9.215 0 16.685 7.47 16.685 16.685z" fill="#a8e7ef"/><path id="XMLID_382_" d="m439.375 483.189c-13.158-30.307-53.548-55.104-107.945-67.221l-14.197-205.421c-.286-4.134-3.891-7.245-7.999-6.966-4.133.286-7.251 3.867-6.966 8l1.698 24.566-103.055 103.066 12.08-174.802h86.018l1.092 15.8c.273 3.957 3.568 6.983 7.475 6.983.174 0 .349-.006.524-.018 4.133-.286 7.251-3.867 6.966-7.999l-1.02-14.767h3.381c6.89 0 12.495-5.605 12.495-12.495v-18.629c0-6.89-5.605-12.495-12.495-12.495h-12.688v-35.25h1.491c4.143 0 7.5-3.357 7.5-7.5s-3.357-7.5-7.5-7.5h-2.07c-3.239-20.881-19.779-37.421-40.66-40.66v-22.381c0-4.143-3.357-7.5-7.5-7.5s-7.5 3.357-7.5 7.5v22.382c-20.881 3.239-37.421 19.779-40.66 40.66h-2.07c-4.143 0-7.5 3.357-7.5 7.5s3.357 7.5 7.5 7.5h1.491v35.25h-12.688c-6.89 0-12.495 5.605-12.495 12.495v18.629c0 6.89 5.605 12.495 12.495 12.495h3.382l-17.382 251.516c-53.662 11.909-94.516 36.323-107.946 67.258-2.997 6.894-4.569 14.028-4.672 21.207-.029 2.008.748 3.943 2.158 5.373 1.409 1.43 3.333 2.234 5.341 2.234h361.092c2.008 0 3.932-.805 5.341-2.234 1.41-1.43 2.188-3.365 2.158-5.373-.103-7.181-1.675-14.317-4.67-21.203zm-183.375-438.885c16.025 0 29.467 11.234 32.888 26.238h-65.775c3.42-15.004 16.862-26.238 32.887-26.238zm-58.922 91.488h33.82c4.143 0 7.5-3.357 7.5-7.5s-3.357-7.5-7.5-7.5h-8.637v-35.25h67.477v35.25h-27.303c-4.143 0-7.5 3.357-7.5 7.5s3.357 7.5 7.5 7.5h52.486v13.619h-117.843zm2.258 226.21 106.002-106.012 5.356 77.505-75.037 75.03c-13.761.745-27.098 2.242-39.841 4.416zm-115.5 134.998c.573-2.634 1.425-5.252 2.549-7.838 7.776-17.913 28.479-34.441 58.291-46.541 31.216-12.668 70.752-19.645 111.324-19.645 6.112 0 12.344.162 18.521.481 4.151.228 7.663-2.968 7.877-7.104s-2.967-7.663-7.104-7.877c-5.961-.308-11.968-.469-17.885-.492l54.656-54.65 4.122 59.65c-2.952-.506-5.926-.989-8.945-1.422-4.086-.588-7.9 2.258-8.488 6.359-.588 4.1 2.259 7.9 6.358 8.488 60.415 8.666 107.715 33.297 120.504 62.755 1.124 2.583 1.975 5.2 2.548 7.833h-344.328z"/><path id="XMLID_388_" d="m190.089 456.63h-4c-4.143 0-7.5 3.357-7.5 7.5s3.357 7.5 7.5 7.5h4c4.143 0 7.5-3.357 7.5-7.5s-3.358-7.5-7.5-7.5z"/><path id="XMLID_389_" d="m216.148 466.197h-4c-4.143 0-7.5 3.357-7.5 7.5s3.357 7.5 7.5 7.5h4c4.143 0 7.5-3.357 7.5-7.5s-3.357-7.5-7.5-7.5z"/><path id="XMLID_390_" d="m336.989 471.639h-4c-4.143 0-7.5 3.357-7.5 7.5s3.357 7.5 7.5 7.5h4c4.143 0 7.5-3.357 7.5-7.5s-3.357-7.5-7.5-7.5z"/><path id="XMLID_391_" d="m256 189.31c-13.336 0-24.186 10.85-24.186 24.185v16.774h-1.289c-4.143 0-7.5 3.357-7.5 7.5s3.357 7.5 7.5 7.5h8.789 33.371 8.789c4.143 0 7.5-3.357 7.5-7.5s-3.357-7.5-7.5-7.5h-1.289v-16.774c.001-13.336-10.849-24.185-24.185-24.185zm-9.186 40.959v-16.774c0-5.064 4.121-9.185 9.186-9.185s9.186 4.12 9.186 9.185v16.774z"/><path id="XMLID_394_" d="m332.982 77.702c0 4.143 3.357 7.5 7.5 7.5h13.021c4.143 0 7.5-3.357 7.5-7.5s-3.357-7.5-7.5-7.5h-13.021c-4.142 0-7.5 3.358-7.5 7.5z"/><path id="XMLID_395_" d="m334.495 61.586c1.565 0 3.145-.488 4.494-1.5l10.417-7.812c3.313-2.484 3.985-7.186 1.5-10.5-2.485-3.313-7.184-3.984-10.5-1.5l-10.417 7.812c-3.313 2.484-3.985 7.186-1.5 10.5 1.474 1.965 3.726 3 6.006 3z"/><path id="XMLID_396_" d="m329.989 107.319 10.417 7.812c1.35 1.012 2.929 1.5 4.494 1.5 2.28 0 4.533-1.036 6.006-3 2.485-3.314 1.813-8.016-1.5-10.5l-10.417-7.812c-3.315-2.486-8.017-1.813-10.5 1.5-2.485 3.315-1.813 8.016 1.5 10.5z"/><path id="XMLID_397_" d="m158.496 85.202h13.021c4.143 0 7.5-3.357 7.5-7.5s-3.357-7.5-7.5-7.5h-13.021c-4.143 0-7.5 3.357-7.5 7.5s3.358 7.5 7.5 7.5z"/><path id="XMLID_398_" d="m162.594 52.274 10.417 7.812c1.35 1.012 2.929 1.5 4.494 1.5 2.28 0 4.533-1.036 6.006-3 2.485-3.314 1.813-8.016-1.5-10.5l-10.417-7.812c-3.315-2.485-8.017-1.812-10.5 1.5-2.486 3.315-1.814 8.016 1.5 10.5z"/><path id="XMLID_399_" d="m173.011 95.319-10.417 7.812c-3.313 2.484-3.985 7.186-1.5 10.5 1.474 1.965 3.726 3 6.006 3 1.565 0 3.145-.488 4.494-1.5l10.417-7.812c3.313-2.484 3.985-7.186 1.5-10.5-2.485-3.312-7.184-3.985-10.5-1.5z"/></svg>