<?xml version="1.0" encoding="iso-8859-1"?>
<!-- Generator: Adobe Illustrator 21.0.0, SVG Export Plug-In . SVG Version: 6.00 Build 0)  -->
<svg xmlns="http://www.w3.org/2000/svg" xmlns:xlink="http://www.w3.org/1999/xlink" version="1.1" id="Capa_1" x="0px" y="0px" viewBox="0 0 512 512" style="enable-background:new 0 0 512 512;" xml:space="preserve" width="512" height="512">
<g>
	<g>
		<ellipse style="fill:#FFE0B2;" cx="411.756" cy="308.659" rx="92.744" ry="110.822"/>
	</g>
	<g>
		<ellipse style="fill:#FFE0B2;" cx="411.756" cy="308.659" rx="55.647" ry="66.493"/>
	</g>
	<g>
		<path style="fill:#FFB74D;" d="M441.111,203.509c20.403,20.329,33.389,50.926,33.389,85.151c0,76.657-62.941,128.721-122.1,105.15    c16.084,16.026,36.776,25.671,59.355,25.671c51.221,0,92.744-49.617,92.744-110.822    C504.5,259.714,477.944,218.184,441.111,203.509z"/>
	</g>
	<g>
		<ellipse style="fill:#FFE0B2;" cx="411.756" cy="308.659" rx="18.549" ry="22.164"/>
	</g>
	<g>
		<path style="fill:#FFA726;" d="M319.011,308.659c0-61.205,41.523-110.822,92.744-110.822h-153.09c-3.658,0-5.609-4.313-3.193-7.06    l64.942-73.843c3.201-3.64,3.025-9.14-0.403-12.567l-9.17-9.17c-3.427-3.427-8.928-3.604-12.567-0.403l-108.889,95.764    c-5.334,4.691-12.194,7.278-19.297,7.278h-69.844c-51.221,0-92.744,49.617-92.744,110.822c0,61.205,41.523,110.822,92.744,110.822    h311.511C360.534,419.481,319.011,369.865,319.011,308.659z"/>
	</g>
	<g>
		<path style="fill:#F57C00;" d="M319.011,308.659c0-61.205,41.523-110.822,92.744-110.822h-93.15    c-23.939,20.04-39.594,53.244-39.594,90.822c0,9.98,2.466,19.652,6.594,28.851c17.257,38.459-10.23,81.971-52.384,81.971    c-186.808,0-177.282,0.6-187.771-1.41c15.353,13.456,34.295,21.41,54.794,21.41h311.511    C360.534,419.481,319.011,369.865,319.011,308.659z"/>
	</g>
	<g>
		<path d="M411.756,190.337H265.848l60.198-68.449c5.797-6.591,5.477-16.617-0.73-22.824l-9.171-9.17    c-6.207-6.207-16.232-6.527-22.823-0.73l-108.889,95.764c-3.967,3.489-9.062,5.41-14.345,5.41h-69.844    C44.97,190.337,0,243.417,0,308.659s44.97,118.322,100.244,118.322h21.327c4.143,0,7.5-3.358,7.5-7.5s-3.357-7.5-7.5-7.5h-21.327    C53.24,411.981,15,365.631,15,308.659s38.24-103.322,85.244-103.322h69.844c8.932,0,17.544-3.248,24.251-9.146l108.889-95.764    c0.669-0.588,1.685-0.554,2.311,0.074l9.17,9.17c0.629,0.628,0.661,1.644,0.074,2.311l-64.941,73.843    c-6.668,7.582-1.299,19.513,8.825,19.513h104.29c-68.439,45.213-68.615,161.314-0.001,206.644H156.571c-4.143,0-7.5,3.358-7.5,7.5    s3.357,7.5,7.5,7.5h255.152C469.46,426.981,512,371.01,512,308.659C512,243.417,467.03,190.337,411.756,190.337z M411.763,411.981    c-49.77,0.005-85.251-49.763-85.251-103.322c0-56.972,38.24-103.322,85.244-103.322S497,251.688,497,308.659    C497,365.628,458.764,411.977,411.763,411.981z"/>
		<path d="M375.933,247.686c-3.224,2.602-3.727,7.324-1.125,10.547s7.323,3.728,10.547,1.125    c31.896-25.749,74.548,2.504,74.548,49.301c0,32.529-21.599,58.993-48.146,58.993c-34.993,0-57.842-44.21-44.136-82.564    c1.394-3.9-0.638-8.192-4.538-9.586c-3.904-1.394-8.193,0.638-9.587,4.539c-17.352,48.549,13.161,102.612,58.261,102.612    c34.819,0,63.146-33.193,63.146-73.993C474.902,248.677,417.232,214.345,375.933,247.686z"/>
		<path d="M437.805,308.659c0-16.357-11.686-29.664-26.049-29.664s-26.049,13.307-26.049,29.664s11.686,29.665,26.049,29.665    S437.805,325.016,437.805,308.659z M400.707,308.659c0-7.949,5.06-14.664,11.049-14.664s11.049,6.715,11.049,14.664    c0,7.949-5.06,14.665-11.049,14.665S400.707,316.608,400.707,308.659z"/>
		<path d="M173.571,261.879H140c-4.143,0-7.5,3.358-7.5,7.5s3.357,7.5,7.5,7.5h33.571c4.143,0,7.5-3.358,7.5-7.5    S177.714,261.879,173.571,261.879z"/>
		<path d="M105,276.879c4.143,0,7.5-3.358,7.5-7.5s-3.357-7.5-7.5-7.5H73.286c-4.143,0-7.5,3.358-7.5,7.5s3.357,7.5,7.5,7.5H105z"/>
		<path d="M290.714,222.6H190.429c-4.143,0-7.5,3.358-7.5,7.5s3.357,7.5,7.5,7.5h100.285c4.143,0,7.5-3.358,7.5-7.5    S294.856,222.6,290.714,222.6z"/>
		<path d="M151.985,308.659c0,4.142,3.357,7.5,7.5,7.5h100.285c4.143,0,7.5-3.358,7.5-7.5s-3.357-7.5-7.5-7.5H159.485    C155.343,301.159,151.985,304.517,151.985,308.659z"/>
		<path d="M195.357,387.219c0,4.142,3.357,7.5,7.5,7.5h100.285c4.143,0,7.5-3.358,7.5-7.5s-3.357-7.5-7.5-7.5H202.857    C198.715,379.719,195.357,383.077,195.357,387.219z"/>
		<path d="M44.929,347.94c0,4.142,3.357,7.5,7.5,7.5h100.285c4.143,0,7.5-3.358,7.5-7.5s-3.357-7.5-7.5-7.5H52.429    C48.286,340.44,44.929,343.797,44.929,347.94z"/>
	</g>
</g>















</svg>
