<svg viewBox="-37 1 511 511.999" xmlns="http://www.w3.org/2000/svg"><path d="m296.347656 258.644531c-5.085937 0-10.089844-.328125-15.019531-.917969v231.226563c0 8.402344 6.726563 15.214844 15.019531 15.214844 8.289063 0 15.015625-6.8125 15.015625-15.214844v-231.226563c-4.929687.589844-9.933593.917969-15.015625.917969zm0 0" fill="#b7e9f9"/><path d="m301.332031 488.953125v-230.425781c-1.65625.070312-3.316406.117187-4.984375.117187-5.085937 0-10.089844-.328125-15.019531-.917969v231.226563c0 8.402344 6.726563 15.214844 15.019531 15.214844 3.84375 0 7.34375-1.480469 10-3.890625-3.074218-2.785156-5.015625-6.820313-5.015625-11.324219zm0 0" fill="#87cee9"/><path d="m386.320312 44.527344c-49.710937-49.707032-130.304687-49.707032-180.011718 0-49.707032 49.707031-49.707032 130.300781 0 180.011718 49.707031 49.707032 130.300781 49.707032 180.011718 0 49.707032-49.710937 49.707032-130.304687 0-180.011718zm0 0" fill="#ffd782"/><path d="m210.554688 77.964844c-3.589844-2.144532-4.71875-6.832032-2.515626-10.386719 20.914063-33.78125 56.917969-56.695313 98.277344-59.9375-47.820312-3.746094-92.960937 19.464844-117.984375 59.449219-7.394531 10.476562-18.75 36.40625-19.273437 65.085937-1.113282 61.398438 41.5625 114.832031 101.78125 127.066407.324218.066406.644531.140624.964844.207031.003906-.003907.003906-.007813.007812-.011719 11.371094 2.21875 22.988281 2.886719 34.507812 1.980469-9.128906-.714844-18.195312-2.410157-27.027343-5.085938-3.054688-.925781-4.75-4.148437-3.777344-7.1875 20.683594-64.730469-5.738281-135.753906-64.960937-171.179687zm0 0" fill="#fdbd40"/><path d="m420.921875 110.34375h-249.152344c-5.527343 0-10.007812 4.480469-10.007812 10.007812v28.296876c0 5.527343 4.480469 10.007812 10.007812 10.007812h249.148438c5.527343 0 10.007812-4.480469 10.007812-10.007812v-28.296876c.003907-5.523437-4.480469-10.007812-10.003906-10.007812zm0 0" fill="#fdbd40"/><path d="m275.15625 158.65625c-5.855469-17.839844-15.023438-34.1875-26.789062-48.3125-82.75 0-76.226563-.011719-77.015626.023438-2.722656 14.144531-3.222656 30.546874-.03125 48.265624.792969.035157-7.203124.023438 103.835938.023438zm0 0" fill="#f2aa2a"/><path d="m222.957031 292.191406c-3.59375 3.597656-7.367187 6.902344-11.265625 9.96875l163.5 163.503906c5.941406 5.941407 15.511719 6 21.375.136719 5.867188-5.863281 5.804688-15.433593-.136718-21.375l-163.503907-163.5c-3.066406 3.898438-6.375 7.671875-9.96875 11.265625zm0 0" fill="#d7f7ff"/><path d="m239.027344 306.148438c-2.09375-2.09375-1.996094-5.539063.25-7.46875 2.027344-1.738282 4.015625-3.554688 5.957031-5.445313l-12.304687-12.308594c-3.070313 3.898438-6.375 7.671875-9.96875 11.265625-3.597657 3.59375-7.367188 6.902344-11.269532 9.96875l163.5 163.503906c5.941406 5.941407 15.511719 6 21.375.136719.359375-.355469.691406-.726562 1.003906-1.109375zm0 0" fill="#b7e9f9"/><path d="m262.460938 204.453125c0 70.296875-56.988282 127.285156-127.285157 127.285156-70.300781 0-127.289062-56.988281-127.289062-127.285156 0-70.300781 56.988281-127.289063 127.289062-127.289063 70.296875 0 127.285157 56.988282 127.285157 127.289063zm0 0" fill="#f98c96"/><path d="m28.027344 204.453125c0-66.910156 51.625-121.761719 117.21875-126.894531-3.324219-.261719-6.683594-.394532-10.070313-.394532-70.300781 0-127.289062 56.988282-127.289062 127.285157 0 70.300781 56.988281 127.289062 127.289062 127.289062 3.386719 0 6.746094-.136719 10.070313-.394531-65.59375-5.132812-117.21875-59.980469-117.21875-126.890625zm0 0" fill="#ea5471"/><path d="m206.179688 99.242188-176.171876 176.175781c-3.910156 3.90625-3.910156 10.242187 0 14.152343l20.007813 20.007813c3.910156 3.90625 10.246094 3.90625 14.152344 0l176.175781-176.175781c3.90625-3.90625 3.90625-10.242188 0-14.152344l-20.007812-20.007812c-3.910157-3.910157-10.246094-3.90625-14.15625 0zm0 0" fill="#ea5471"/><path d="m42.324219 263.101562-12.316407 12.316407c-3.910156 3.90625-3.910156 10.242187 0 14.152343l20.007813 20.007813c3.910156 3.90625 10.246094 3.90625 14.152344 0l8.402343-8.402344c-12.363281-10.585937-22.671874-23.507812-30.246093-38.074219zm0 0" fill="#da1c4b"/><path d="m427.894531 104.566406c-13.949219-60.875-68.449219-104.566406-131.402343-104.566406-51.886719 0-98.722657 29.554688-121.238282 75.855469-46.75-14.464844-99.199218-2.609375-135.277344 33.46875-44.515624 44.515625-52.15625 113.949219-18.976562 166.859375-2.546875 6.320312-1.265625 13.832031 3.847656 18.949218l20.007813 20.007813c5.0625 5.0625 12.554687 6.421875 18.945312 3.847656 21.941407 13.761719 46.71875 20.507813 71.390625 20.503907 27.589844 0 55.035156-8.441407 78.207032-24.902344l60.574218 60.574218v114.320313c0 12.414063 10.101563 22.515625 22.519532 22.515625 12.414062 0 22.515624-10.101562 22.515624-22.515625v-69.285156l51.164063 51.164062c8.78125 8.777344 23.066406 8.777344 31.84375 0 8.78125-8.78125 8.777344-23.066406 0-31.84375l-83.007813-83.007812v-33.492188c0-4.140625-3.355468-7.5-7.5-7.5-4.144531 0-7.5 3.359375-7.5 7.5v18.488281l-15.03125-15.027343v-57.023438c5.613282.308594 10.40625.253907 15.03125-.003906v18.566406c0 4.140625 3.355469 7.5 7.5 7.5 4.144532 0 7.5-3.359375 7.5-7.5v-20.246093c53.085938-8.980469 96.632813-49.191407 108.890626-102.671876 6.269531-2.664062 10.675781-8.886718 10.675781-16.117187v-28.296875c0-7.230469-4.410157-13.453125-10.679688-16.121094zm-131.402343-89.566406c54.300781 0 101.53125 36.570312 115.601562 88.179688h-177.328125c-3.441406-3.441407-1.457031-1.457032-8.984375-8.984376-4.917969-4.917968-12.414062-6.496093-18.941406-3.847656-5.527344-3.457031-11.316406-6.542968-17.472656-9.238281 20.25-40.402344 61.496093-66.109375 107.125-66.109375zm-101.832032 85.558594c-8 7.996094-155.417968 155.417968-163.46875 163.46875-59.519531-104.136719 56.59375-224.269532 163.46875-163.46875zm-135.765625 204.066406c-.980469.875-2.488281.851562-3.429687-.09375l-20.007813-20.007812c-.925781-.925782-.992187-2.4375-.074219-3.449219.261719-.296875 164.789063-164.808594 165.066407-165.089844 1.105469-1.101563 9.851562-9.851563 11.058593-11.058594 1.359376-1.222656 2.679688-1.109375 3.667969-.121093 7.554688 7.554687 12.410157 12.410156 20.007813 20.007812.867187.863281 1.039062 2.390625.074218 3.449219-.402343.441406-176.074218 176.101562-176.363281 176.363281zm150.453125-5.734375c-38.121094 29.96875-91.070312 34.089844-133.386718 9.90625 7.152343-7.152344 156.28125-156.285156 163.472656-163.472656 27.132812 47.671875 20.285156 112.296875-30.085938 153.566406zm47.21875-35.242187c5.707032 1.769531 11.519532 3.152343 17.40625 4.144531v43.6875l-28.730468-28.730469c4.332031-6.097656 8.109374-12.488281 11.324218-19.101562zm47.4375 225.835937c0 4.144531-3.371094 7.515625-7.515625 7.515625s-7.515625-3.371094-7.515625-7.515625v-99.316406l15.03125 15.03125zm87.402344-39.355469c2.933594 2.929688 2.933594 7.699219 0 10.628906-2.9375 2.9375-7.691406 2.933594-10.625 0-4.214844-4.214843-150.808594-150.808593-155.585938-155.585937 3.761719-3.363281 7.109376-6.695313 10.628907-10.628906 5.925781 5.929687 152.554687 152.558593 155.582031 155.585937zm32.164062-301.144531c0 1.332031-1.042968 2.414063-2.355468 2.492187-.011719 0-.023438 0-.035156 0l-.261719.015626h-106.925781c-4.144532 0-7.5 3.359374-7.5 7.5 0 4.144531 3.355468 7.5 7.5 7.5h98.09375c-17.722657 65-85.820313 102.191406-149.679688 83.261718 9.589844-26.988281 10.292969-55.992187 2.261719-83.261718h14.320312c4.144531 0 7.5-3.355469 7.5-7.5 0-4.140626-3.355469-7.5-7.5-7.5h-19.730469c-2.632812-6.128907-5.796874-12.238282-9.613281-18.339844 1.90625-4.71875 1.640625-10.472656-.867187-14.972656h172.140625l.261719.015624c.019531.003907.035156.003907.050781.003907 1.304687.085937 2.339843 1.164062 2.339843 2.488281zm0 0"/></svg>