<svg id="Capa_1" enable-background="new 0 0 512 512" height="512" viewBox="0 0 512 512" width="512" xmlns="http://www.w3.org/2000/svg"><g><g><g><path d="m230.988 78.411c-116.477 116.477-54.44 257.008-54.44 257.008s140.531 62.036 257.008-54.44 54.44-257.008 54.44-257.008-140.532-62.037-257.008 54.44z" fill="#fb9538"/></g><g><path d="m503.036 86.456c-6.893 43.708-29.082 88.289-65.683 124.89-79.012 79.012-195.212 90.915-259.54 26.587-6.084-6.084-11.483-12.633-16.211-19.57-7.575 66.036 14.945 117.056 14.945 117.056s140.531 62.036 257.008-54.44c67.422-67.422 75.031-142.903 69.481-194.523z" fill="#fc840d"/></g><g><path d="m347.767 12.879 151.319 151.319c3.47-15.814 5.042-31.054 5.352-45.29l-111.381-111.381c-14.235.31-29.475 1.882-45.29 5.352z" fill="#f4f8f8"/></g><g><path d="m497.334 111.804c-3.578 12.252-8.343 24.438-14.278 36.364l16.031 16.031c3.47-15.814 5.042-31.054 5.352-45.29z" fill="#c2d0da"/></g><g><path d="m316.776 346.51-151.32-151.32c-3.47 15.814-5.042 31.054-5.352 45.29l111.382 111.382c14.235-.31 29.475-1.882 45.29-5.352z" fill="#f4f8f8"/></g><g><path d="m245.281 275.015c-25.436-6.006-48.669-18.284-67.468-37.082-6.084-6.084-11.483-12.633-16.211-19.569-.002.014-.004.028-.005.041-.004.032.011.117-.01.095-.86 7.541-1.329 14.885-1.484 21.98l111.382 111.382c14.235-.31 29.475-1.882 45.29-5.352z" fill="#c2d0da"/></g><g><path d="m317.118 78.673h30.306v202.043h-30.306z" fill="#c2d0da" transform="matrix(.707 .707 -.707 .707 224.383 -182.32)"/></g><g><path d="m357.712 110.814h26.266v60.613h-26.266z" fill="#f4f8f8" transform="matrix(-.707 .707 -.707 -.707 732.86 -21.319)"/></g><g><path d="m280.565 187.962h26.266v60.613h-26.266z" fill="#f4f8f8" transform="matrix(.707 -.707 .707 .707 -68.317 271.605)"/></g><g><path d="m319.139 149.388h26.266v60.613h-26.266z" fill="#f4f8f8" transform="matrix(-.707 .707 -.707 -.707 694.286 71.806)"/></g></g><g><path d="m511.953 108.652c-.967-50.618-16.437-86.22-17.096-87.712-.755-1.71-2.122-3.077-3.832-3.832-.915-.403-22.791-9.943-56.52-14.628-31.109-4.32-78.61-5.107-128.252 15.684-3.82 1.601-5.62 5.995-4.021 9.816 1.601 3.821 5.996 5.622 9.816 4.021 11.305-4.735 22.495-8.266 33.381-10.852l67.389 67.389-9.116 9.116-5.411-5.408c-2.928-2.928-7.676-2.928-10.606.002l-18.266 18.267-5.415-5.415c-2.93-2.928-7.678-2.928-10.608 0l-18.572 18.572c-2.929 2.93-2.929 7.678 0 10.608l5.414 5.414-9.394 9.394-5.414-5.414c-2.93-2.928-7.678-2.928-10.608 0l-18.572 18.572c-2.929 2.93-2.929 7.678 0 10.608l5.409 5.409-9.393 9.393-5.409-5.409c-2.93-2.928-7.678-2.928-10.608 0l-18.572 18.572c-2.929 2.93-2.929 7.678 0 10.608l5.409 5.409-18.267 18.267c-2.929 2.93-2.929 7.678 0 10.608l5.413 5.413-9.117 9.117-67.511-67.511c9.597-40.384 30.561-76.892 62.686-109.017 14.22-14.22 29.577-26.423 45.644-36.27 3.532-2.164 4.64-6.783 2.476-10.314-2.165-3.532-6.782-4.64-10.314-2.476-17.072 10.462-33.36 23.4-48.413 38.452-27.359 27.359-47.345 58.338-59.404 92.075-9.653 27.007-14.259 55.791-13.69 85.555.967 50.617 16.438 86.219 17.096 87.711.755 1.71 2.122 3.077 3.833 3.832.884.391 22.032 9.615 54.79 14.382 10.708 1.559 23.424 2.72 37.551 2.72 25.724 0 56.117-3.852 87.52-16.167 3.857-1.513 5.756-5.865 4.244-9.721-1.513-3.857-5.866-5.756-9.721-4.244-9.736 3.818-19.371 6.761-28.783 8.997l-67.396-67.396 9.116-9.116 5.41 5.411c1.407 1.406 3.315 2.196 5.304 2.196s3.897-.79 5.304-2.196l18.267-18.267 5.412 5.412c1.407 1.406 3.315 2.196 5.304 2.196s3.897-.79 5.304-2.197l18.572-18.573c2.929-2.929 2.929-7.677 0-10.607l-5.412-5.412 9.393-9.393 5.412 5.412c1.465 1.464 3.384 2.196 5.304 2.196 1.919 0 3.839-.732 5.303-2.196l18.573-18.572c1.407-1.407 2.197-3.315 2.197-5.304s-.79-3.897-2.196-5.304l-5.407-5.407 9.393-9.393 5.407 5.407c1.407 1.406 3.315 2.196 5.304 2.196s3.897-.79 5.304-2.197l18.572-18.573c2.929-2.929 2.929-7.677 0-10.607l-5.408-5.408 18.27-18.278c1.406-1.406 2.195-3.315 2.195-5.304s-.791-3.897-2.198-5.303l-5.41-5.408 9.113-9.113 67.51 67.51c-9.597 40.384-30.561 76.893-62.686 109.018-15.466 15.467-32.253 28.524-49.894 38.813-3.578 2.086-4.787 6.679-2.7 10.257 1.394 2.39 3.905 3.723 6.486 3.723 1.283 0 2.583-.329 3.772-1.023 18.755-10.937 36.568-24.785 52.945-41.162 27.358-27.359 47.345-58.338 59.404-92.076 9.654-27.007 14.26-55.791 13.691-85.555zm-344.049 150.236 37.283 37.283-25.649 25.65c-4.082-12.435-10.12-34.972-11.634-62.933zm22.234 73.548 25.657-25.657 37.261 37.262c-8.065-.423-15.486-1.203-22.085-2.15-17.663-2.535-31.869-6.505-40.833-9.455zm84.316 11.786-106.767-106.767c.308-9.152 1.139-18.136 2.477-26.949l131.198 131.198c-9.341 1.43-18.355 2.213-26.908 2.518zm-2.899-92.989-10.824-10.825 12.964-12.963 10.823 10.824zm34.287-12.855-32.253-32.254 7.965-7.965 32.253 32.253zm7.856-29.29-10.823-10.823 9.393-9.393 10.823 10.823zm30.717-9.284-32.253-32.253 7.965-7.965 32.254 32.253zm7.862-29.284-10.823-10.823 9.394-9.394 10.823 10.823zm30.712-9.29-32.253-32.254 7.965-7.965 32.253 32.253zm7.861-29.285-10.823-10.823 12.964-12.965 10.824 10.817zm105.789-31.444-37.283-37.283 25.649-25.65c4.082 12.435 10.12 34.972 11.634 62.933zm-22.234-73.548-25.657 25.657-37.266-37.266c7.417.388 14.282 1.081 20.452 1.925 18.426 2.521 33.232 6.644 42.471 9.684zm-111.221-9.266c9.343-1.432 18.356-2.217 26.901-2.524l106.771 106.771c-.308 9.152-1.139 18.135-2.477 26.948z"/><path d="m154.234 357.758c-2.929-2.928-7.678-2.928-10.607 0l-141.43 141.431c-2.929 2.93-2.929 7.678 0 10.608 1.464 1.464 3.384 2.196 5.304 2.196s3.839-.732 5.304-2.196l141.43-141.43c2.929-2.931 2.929-7.679-.001-10.609z"/><path d="m7.501 340.256c1.92 0 3.839-.732 5.304-2.196l83.848-83.848c2.929-2.93 2.929-7.678 0-10.608-2.929-2.928-7.678-2.928-10.607 0l-83.849 83.848c-2.929 2.93-2.929 7.678 0 10.608 1.464 1.464 3.384 2.196 5.304 2.196z"/><path d="m111.553 236.204c1.92 0 3.839-.732 5.304-2.196l21.215-21.215c2.929-2.93 2.929-7.678 0-10.608-2.929-2.928-7.678-2.928-10.607 0l-21.216 21.215c-2.929 2.93-2.929 7.678 0 10.608 1.465 1.464 3.384 2.196 5.304 2.196z"/><path d="m131.505 314.32-22.225 22.225c-2.929 2.93-2.929 7.678 0 10.608 1.464 1.464 3.384 2.196 5.304 2.196s3.839-.732 5.304-2.196l22.225-22.225c2.929-2.93 2.929-7.678 0-10.608-2.93-2.928-7.679-2.928-10.608 0z"/><path d="m86.045 359.779-23.235 23.235c-2.929 2.93-2.929 7.678 0 10.608 1.464 1.464 3.384 2.196 5.304 2.196s3.839-.732 5.303-2.196l23.235-23.235c2.929-2.93 2.929-7.678 0-10.608-2.928-2.928-7.677-2.928-10.607 0z"/><path d="m7.501 401.88c1.92 0 3.839-.732 5.304-2.196l24.245-24.245c2.929-2.93 2.929-7.678 0-10.608-2.929-2.928-7.678-2.928-10.607 0l-24.246 24.244c-2.929 2.93-2.929 7.678 0 10.608 1.464 1.464 3.384 2.197 5.304 2.197z"/><path d="m138.071 263.808c-2.929-2.928-7.678-2.928-10.607 0l-80.817 80.818c-2.929 2.93-2.929 7.678 0 10.608 1.464 1.464 3.384 2.196 5.304 2.196s3.839-.732 5.304-2.196l80.817-80.818c2.928-2.93 2.928-7.678-.001-10.608z"/><path d="m257.781 415.341-83.848 83.848c-2.929 2.93-2.929 7.678 0 10.608 1.464 1.464 3.384 2.196 5.304 2.196s3.839-.732 5.303-2.196l83.849-83.848c2.929-2.93 2.929-7.678 0-10.608-2.93-2.928-7.678-2.928-10.608 0z"/><path d="m299.202 373.922-21.215 21.214c-2.93 2.929-2.93 7.678-.001 10.607 1.465 1.465 3.384 2.197 5.304 2.197 1.919 0 3.839-.732 5.303-2.196l21.215-21.214c2.93-2.929 2.93-7.678.001-10.607-2.929-2.93-7.679-2.929-10.607-.001z"/><path d="m175.449 402.714 22.225-22.225c2.929-2.93 2.929-7.678 0-10.608-2.929-2.928-7.678-2.928-10.607 0l-22.225 22.225c-2.929 2.93-2.929 7.678 0 10.608 1.464 1.464 3.384 2.196 5.303 2.196 1.92 0 3.839-.732 5.304-2.196z"/><path d="m141.607 415.341-23.235 23.236c-2.929 2.929-2.929 7.678 0 10.607 1.464 1.464 3.384 2.196 5.304 2.196s3.839-.732 5.303-2.197l23.235-23.236c2.929-2.929 2.929-7.678 0-10.607-2.929-2.927-7.678-2.928-10.607.001z"/><path d="m136.556 474.943-24.245 24.245c-2.929 2.93-2.929 7.678 0 10.608 1.464 1.464 3.384 2.196 5.304 2.196s3.839-.732 5.304-2.196l24.245-24.245c2.929-2.93 2.929-7.678 0-10.608-2.93-2.928-7.679-2.928-10.608 0z"/><path d="m248.185 373.922c-2.928-2.928-7.678-2.928-10.607 0l-80.817 80.817c-2.929 2.93-2.929 7.678 0 10.608 1.464 1.464 3.384 2.196 5.303 2.196 1.92 0 3.839-.732 5.304-2.196l80.817-80.817c2.929-2.93 2.929-7.678 0-10.608z"/></g></g></svg>