<svg id="Capa_1" enable-background="new 0 0 512 512" height="512" viewBox="0 0 512 512" width="512" xmlns="http://www.w3.org/2000/svg"><g><g><path d="m39.544 302.829c-2.552 8.164-11.226 12.756-19.418 10.205-8.191-2.551-12.756-11.254-10.204-19.446l64.801-198.853c2.013-6.491 8.021-10.942 14.797-10.942h39.629c8.589 0 15.534 6.974 15.534 15.563s-6.945 15.534-15.534 15.534h-28.233z" fill="#375e7d"></path><path d="m472.456 302.801c2.552 8.192 11.254 12.756 19.418 10.205 8.191-2.552 12.756-11.254 10.205-19.418l-64.773-198.881c-2.041-6.463-8.021-10.914-14.825-10.914h-39.629c-8.561 0-15.534 6.945-15.534 15.534s6.974 15.534 15.534 15.534h28.262z" fill="#375e7d"></path><g clip-rule="evenodd" fill-rule="evenodd"><path d="m208.831 305.834c11.027-13.891 28.035-22.82 47.169-22.82 19.105 0 36.142 8.93 47.169 22.82l14.826-32.826c-16.498-14.599-38.212-23.471-61.995-23.471s-45.497 8.872-62.023 23.471z" fill="#407093"></path><path d="m102.36 280.548c3.571 3.571 7.823 3.912 11.735 0l7.512-7.512c19.9-19.899 52.499-19.899 72.397 0 19.899 19.899 19.899 52.499 0 72.398-26.645 26.645-53.291 53.292-79.909 79.938-3.686 3.657-7.767 3.94-11.735 0l-79.938-79.938c-19.899-19.899-19.899-52.471 0-72.398 19.927-19.899 52.498-19.899 72.426 0zm307.308 0c-3.571 3.544-7.852 3.884-11.735 0l-7.512-7.54c-19.929-19.899-52.499-19.899-72.426 0-19.899 19.928-19.899 52.499 0 72.427l49.605 49.578.029.028.027.028.029.028 30.246 30.246c3.657 3.685 7.767 3.969 11.735 0l79.909-79.909c19.9-19.928 19.9-52.499 0-72.427-19.899-19.899-52.498-19.899-72.397 0z" fill="#fd8fce"></path><path d="m145.675 259.543c16.781-4.053 35.291.454 48.33 13.493 19.899 19.899 19.899 52.499 0 72.398-26.645 26.645-53.291 53.292-79.909 79.938-3.686 3.657-7.767 3.94-11.735 0l-6.265-6.293 23.981-23.952v-.029l.028-.028.028-.028.028-.028 49.579-49.578c19.898-19.899 19.898-52.499 0-72.398-6.859-6.862-15.25-11.369-24.065-13.495zm245.993 159.536 6.265 6.265c3.657 3.685 7.767 3.969 11.735 0l79.909-79.909c19.9-19.928 19.9-52.499 0-72.427-13.039-13.039-31.55-17.547-48.331-13.493 8.815 2.154 17.206 6.634 24.066 13.493 19.899 19.928 19.899 52.499 0 72.427z" fill="#ff6fc0"></path><path d="m281.625 288.74c8.447 3.969 15.818 9.865 21.544 17.094.794-12.02 6.095-24.407 14.826-32.826-6.123-5.414-12.955-10.035-20.354-13.72-7.71 8.702-13.039 18.822-16.016 29.452z" fill="#375e7d"></path></g></g><path d="m55.674 368.083c2.948 2.92 2.948 7.682 0 10.602-2.92 2.948-7.653 2.948-10.602 0l-27.951-27.949c-11.394-11.396-17.121-26.448-17.121-41.501 0-6.633 1.105-13.267 3.345-19.588l64.234-197.151c1.474-4.791 4.479-8.845 8.334-11.707 3.94-2.892 8.702-4.479 13.606-4.479h39.629c6.35 0 12.133 2.58 16.3 6.747 4.166 4.166 6.746 9.921 6.746 16.299 0 6.35-2.58 12.103-6.746 16.299-4.167 4.168-9.95 6.747-16.3 6.747h-22.819l-41.953 128.495c13.067 1.247 25.795 6.889 35.773 16.838.737.737 7.965 8.136 8.106 8.136 0 0 7.342-7.455 8.051-8.136 11.027-11.026 25.91-17.093 41.5-17.093 12.898 0 25.768 4.167 36.369 12.529 7.852-6.095 16.61-11.027 26.051-14.599 11.141-4.224 23.216-6.52 35.773-6.52 12.558 0 24.633 2.296 35.773 6.52 9.44 3.571 18.199 8.504 26.051 14.599 10.602-8.391 23.5-12.586 36.398-12.586 15.023 0 30.075 5.697 41.5 17.121.681.709 8.05 8.164 8.05 8.164.143 0 7.342-7.398 8.107-8.164 9.95-9.949 22.678-15.562 35.745-16.838l-41.953-128.496h-22.819c-6.35 0-12.104-2.58-16.271-6.746-4.168-4.168-6.747-9.95-6.747-16.3s2.579-12.132 6.747-16.3c4.166-4.166 9.921-6.746 16.271-6.746h39.629c5.046 0 9.779 1.673 13.606 4.508 3.884 2.834 6.86 6.888 8.362 11.707l64.234 197.123c2.211 6.321 3.316 12.955 3.316 19.616 0 15.023-5.698 30.076-17.122 41.5l-79.909 79.909c-3.486 3.486-7.342 5.103-11.396 5.018-4.054-.057-7.738-1.786-10.941-5.018l-43.116-43.115c-2.948-2.92-2.948-7.683 0-10.602 2.92-2.92 7.683-2.92 10.602 0l43.116 43.116c.481.482.624.453 1.105 0l79.938-79.909c8.477-8.504 12.729-19.701 12.729-30.898 0-11.226-4.252-22.423-12.729-30.927-8.504-8.476-19.701-12.728-30.898-12.728-11.225 0-22.422 4.252-30.897 12.728l-7.512 7.54c-3.175 3.147-6.888 4.876-10.913 4.961-4.054.085-7.966-1.503-11.424-4.961l-7.513-7.54c-8.504-8.476-19.701-12.728-30.897-12.728-11.226 0-22.422 4.252-30.898 12.728-8.505 8.504-12.757 19.701-12.757 30.898 0 11.226 4.252 22.423 12.757 30.927l12.756 12.756c2.948 2.947 2.948 7.682 0 10.602-2.92 2.947-7.654 2.947-10.602 0l-12.784-12.756c-11.225-11.254-17.321-26.447-17.123-42.35-4.62-5.244-10.261-9.583-16.667-12.673-6.889-3.316-14.684-5.188-22.904-5.188-8.249 0-16.016 1.871-22.904 5.188-6.406 3.09-12.047 7.429-16.667 12.673.227 15.873-5.869 31.124-17.123 42.35l-79.909 79.938c-3.062 3.033-6.803 5.046-11.168 5.046-3.969 0-7.739-1.616-11.169-5.046l-27.95-27.95c-2.919-2.947-2.919-7.682 0-10.602 2.92-2.947 7.683-2.947 10.602 0l27.95 27.95c.481.454.624.454 1.134 0l79.909-79.938c8.477-8.477 12.729-19.673 12.729-30.898 0-11.196-4.252-22.395-12.729-30.898-8.22-8.221-19.304-12.756-30.898-12.756-11.225 0-22.422 4.28-30.898 12.756l-7.512 7.512c-3.486 3.487-7.398 5.046-11.452 4.989-4.025-.085-7.738-1.815-10.885-4.989l-7.512-7.512c-8.504-8.476-19.701-12.728-30.897-12.728-11.226 0-22.423 4.252-30.899 12.728-8.504 8.504-12.756 19.702-12.756 30.898 0 11.225 4.252 22.422 12.756 30.898zm149.018-94.14c3.883 5.131 6.774 10.771 8.731 16.668 4.025-3.26 8.447-6.095 13.152-8.362 8.93-4.309 18.907-6.747 29.424-6.747s20.494 2.438 29.424 6.747c4.705 2.268 9.127 5.103 13.152 8.362 1.957-5.896 4.849-11.537 8.731-16.668-6.32-4.678-13.323-8.532-20.807-11.367-9.44-3.571-19.729-5.527-30.501-5.527-10.771 0-21.061 1.956-30.501 5.527-7.51 2.835-14.484 6.69-20.805 11.367zm278.054-15.534-52.584-161.463c-.538-1.701-1.587-3.118-2.919-4.11-1.39-1.021-3.033-1.559-4.763-1.559h-39.629c-2.211 0-4.224.906-5.669 2.353-1.475 1.474-2.353 3.486-2.353 5.697s.879 4.224 2.353 5.698c1.445 1.445 3.458 2.352 5.669 2.352h28.262c3.487 0 6.435 2.382 7.257 5.642l45.213 138.446c6.661 1.162 13.154 3.486 19.163 6.944zm-453.492.028c6.01-3.458 12.501-5.782 19.191-6.944l45.185-138.474c.821-3.231 3.77-5.642 7.257-5.642h28.262c2.211 0 4.224-.878 5.698-2.352 1.445-1.446 2.353-3.459 2.353-5.67 0-2.239-.907-4.252-2.353-5.697-1.475-1.446-3.487-2.354-5.698-2.354h-39.629c-1.729 0-3.373.567-4.763 1.56-1.332.992-2.381 2.409-2.891 4.082z"></path></g></svg>