<svg id="Capa_1" enable-background="new 0 0 511.973 511.973" height="512" viewBox="0 0 511.973 511.973" width="512" xmlns="http://www.w3.org/2000/svg"><g><g><path d="m441.299 12.567c-6.772-6.772-17.75-6.772-24.522 0l-269.738 269.739 33.295 82.849 250.585-192.758c50.991-39.224 55.87-114.34 10.38-159.83z" fill="#f1f1ff"/></g><g><path d="m163.255 322.658 12.068-12.068s178.281-128.442 218.722-176.104 5.29-104.477 5.29-104.477l-252.296 252.297z" fill="#d4d4ff"/></g><g><path d="m214.473 386.523c10.157-10.157 10.157-26.625 0-36.783l-67.435-67.435-79.696 79.696c-37.243 37.243-37.243 97.626 0 134.869 10.157 10.157 26.625 10.157 36.783 0 10.157-10.157 10.157-26.625 0-36.783l-6.13-6.13 73.565-73.565 6.13 6.13c10.158 10.158 26.626 10.158 36.783.001z" fill="#ce857a"/></g><g><path d="m95.627 390.285 79.696-79.696-28.284-28.284-79.696 79.696c-37.243 37.243-37.243 97.626 0 134.869 3.482 3.482 7.707 5.77 12.165 6.865-19.98-36.24-14.61-82.72 16.119-113.45z" fill="#bd7669"/></g><g><path d="m306.707 424.916c-6.687.763-12.327-4.878-11.565-11.565 1.87-16.396 6.988-44.56 20.64-58.213 2.907-2.907 6.149-5.104 9.566-6.736 29.101-13.898 60.205 17.206 46.307 46.307-1.632 3.417-3.829 6.659-6.736 9.566-13.651 13.654-41.816 18.771-58.212 20.641z" fill="#70dcba"/></g><g><path d="m236.844 30.079c6.687-.763 12.327 4.877 11.565 11.565-1.87 16.396-6.988 44.56-20.64 58.213-2.907 2.907-6.149 5.104-9.566 6.736-29.101 13.898-60.205-17.206-46.307-46.307 1.632-3.417 3.829-6.659 6.736-9.566 13.651-13.654 41.816-18.771 58.212-20.641z" fill="#70dcba"/></g><g><path d="m373.197 336.255-9.023 9.023c-12.348-8.74-28.162-10.279-42.057-3.642-4.366 2.085-8.282 4.844-11.638 8.2-14.592 14.593-20.447 42.133-22.788 62.666-.624 5.472 1.248 10.84 5.137 14.729 3.397 3.397 7.922 5.255 12.66 5.255.687 0 1.377-.039 2.07-.117 20.533-2.341 48.073-8.195 62.667-22.788 3.356-3.356 6.116-7.272 8.2-11.638 6.636-13.896 5.098-29.709-3.642-42.058l9.022-9.022c2.929-2.93 2.929-7.678 0-10.607-2.93-2.929-7.679-2.929-10.608-.001zm-8.309 55.223c-1.349 2.825-3.122 5.347-5.271 7.495-8.868 8.868-28.462 15.607-53.759 18.491-1.232.146-2.048-.465-2.422-.84-.375-.374-.981-1.187-.84-2.423 2.885-25.298 9.625-44.893 18.491-53.759 2.148-2.148 4.67-3.922 7.496-5.271 3.978-1.899 7.854-2.703 11.506-2.703 4.924 0 9.438 1.461 13.236 3.661l-24.096 24.096c-2.929 2.93-2.929 7.678 0 10.607 1.464 1.464 3.384 2.196 5.303 2.196s3.839-.732 5.303-2.196l24.095-24.095c3.83 6.615 5.42 15.398.958 24.741z"/><path d="m446.602 7.263c-9.685-9.684-25.443-9.684-35.127 0l-84.565 84.565c-2.929 2.93-2.929 7.678 0 10.607 2.929 2.928 7.678 2.928 10.606 0l59.8-59.8c2.685 6.123 5.929 15.09 7.585 25.553 3.71 23.438-1.866 44.11-16.575 61.445-30.081 35.453-145.548 122.784-212.22 171.132l-18.46-18.46 158.424-158.424c2.929-2.93 2.929-7.678 0-10.607-2.929-2.928-7.678-2.928-10.606 0l-243.424 243.423c-40.108 40.108-40.108 105.368 0 145.477 6.533 6.532 15.114 9.799 23.694 9.799 8.581 0 17.162-3.267 23.695-9.799 6.329-6.329 9.815-14.744 9.815-23.695 0-8.95-3.486-17.365-9.814-23.693l-.828-.828 27.453-27.452c2.929-2.93 2.929-7.678 0-10.607-2.929-2.928-7.678-2.928-10.606 0l-32.756 32.756c-2.929 2.93-2.929 7.678 0 10.606l6.131 6.132c7.216 7.216 7.216 18.959 0 26.175-7.217 7.218-18.96 7.216-26.176 0-16.596-16.596-25.735-38.661-25.735-62.131s9.14-45.535 25.735-62.131l74.392-74.392 62.132 62.132c7.216 7.216 7.216 18.959 0 26.175-7.217 7.217-18.96 7.217-26.176 0l-6.13-6.13c-2.93-2.928-7.678-2.928-10.606 0l-19.136 19.136c-2.929 2.93-2.929 7.678 0 10.607 1.464 1.464 3.384 2.196 5.303 2.196s3.839-.732 5.303-2.196l13.833-13.833.827.827c13.064 13.063 34.323 13.064 47.389 0 13.065-13.065 13.065-34.324 0-47.39l-.09-.09 215.806-166.004c26.015-20.012 42.155-50.272 44.282-83.024s-9.967-64.849-33.175-88.057zm18.203 87.082c-1.847 28.445-15.865 54.728-38.459 72.108l-217.356 167.197-22.147-22.147c34.886-25.366 176.764-129.552 212.92-172.164 36.415-42.918 16.933-91.902 8.837-107.989l13.48-13.48c3.836-3.835 10.079-3.836 13.915.001 20.157 20.155 30.658 48.029 28.81 76.474z"/><path d="m165.051 120.937c1.919 0 3.839-.732 5.303-2.196l9.026-9.026c7.206 5.1 15.586 7.757 24.084 7.757 6.063-.001 12.184-1.348 17.97-4.111 4.364-2.083 8.279-4.842 11.638-8.199 14.592-14.593 20.447-42.133 22.788-62.667.624-5.472-1.248-10.84-5.137-14.729-3.889-3.89-9.258-5.753-14.729-5.138-20.533 2.341-48.072 8.194-62.666 22.788-3.356 3.356-6.115 7.271-8.201 11.638-6.636 13.896-5.098 29.709 3.643 42.058l-9.022 9.022c-2.929 2.93-2.929 7.678 0 10.607 1.464 1.463 3.384 2.196 5.303 2.196zm13.611-57.419c1.35-2.825 3.124-5.347 5.272-7.495 8.868-8.868 28.462-15.607 53.759-18.491.125-.015.245-.021.361-.021 1.034 0 1.725.524 2.061.861.375.374.981 1.187.84 2.423-2.885 25.298-9.625 44.893-18.49 53.759-2.151 2.149-4.673 3.923-7.497 5.271-9.341 4.46-18.125 2.871-24.739-.96l24.094-24.094c2.929-2.93 2.929-7.678 0-10.607-2.929-2.928-7.678-2.928-10.606 0l-24.095 24.095c-3.831-6.615-5.421-15.399-.96-24.741z"/></g></g></svg>