<svg id="Capa_1" enable-background="new 0 0 497 497" height="512" viewBox="0 0 497 497" width="512" xmlns="http://www.w3.org/2000/svg"><g><path d="m67.994 464.199-20.402-15.818-13.727-18.31 119.363-119.363 34.129 34.128-25.931 25.93-6.165 3.283-4.45 7.332-19.385 19.385-6.385 3.503-4.105 6.987-19.275 19.275-6.592 3.711-4.028 6.909z" fill="#b9c3cd"/><path d="m38.899 491.801-29.27-29.27-5.539-6.539c-4.12-4.12-4.12-10.8 0-14.92l5.726-4.726c1.872-1.872 4.185-3.245 6.725-3.992l14.152-4.456 14 13 23.301 23.301-4.456 15.152c-.747 2.54-2.12 4.853-3.992 6.725l-5.726 5.726c-4.121 4.12-10.801 4.12-14.921-.001z" fill="#ffe07d"/><g><path d="m204.364 317.082-25.778-27.894 135.043-127.486c1.864-1.783 3.118-4.109 3.773-6.603l5.199-22.791c1.078-4.099 5.797-6.005 9.42-3.806l5.406 3.282c2.173 1.319 4.961 1.013 6.797-.746l67.729-63.49c2.056-1.97 4.306-3.727 6.716-5.244l29.437-19.94c4.149-2.612 7.811-5.926 10.822-9.795l19.784-25.765c3.934-5.055 9.728-4.86 14.257-.33.613.613 2.484.756 2.484.756 2.167 3.564 2.087 8.171-.42 11.7l-20.888 29.406c-2.823 3.974-6.313 7.429-10.316 10.212l-29.83 20.738c-2.335 1.623-4.499 3.478-6.461 5.536l-126.928 133.188c-1.293 1.357-1.719 3.324-1.102 5.094l4.237 12.164c1.403 4.027-.6 8.446-4.552 10.046l-36.211 14.665c-2.424.982-4.678 2.389-6.482 4.284l-41.596 43.56z" fill="#ab7b64"/></g><g><path d="m495.452 7.229-27.282 34.401c-3.02 3.87-6.68 7.18-10.83 9.8l-30.09 18.94c-2.41 1.52-4.66 3.27-6.71 5.24l-66.15 63.39c-1.29 1.24-2.79 2.24-4.4 2.95-1.61.72-3.35 1.17-5.14 1.3-5.46.41-10.3 3.68-12.71 8.6l-6.65 13.54c-.8 1.62-1.87 3.09-3.18 4.35l-123.12 118.03c-1.22 1.17-1.24 3.1-.05 4.29l15.76 15.76-9.67 10.13-16.941-11.145-11.419-17.225 135.44-129.84c1.86-1.79 3.12-4.11 3.77-6.61l5.79-22.01c1.08-4.1 5.8-6 9.42-3.8l5.41 3.28c2.17 1.32 4.96 1.01 6.8-.75l67.04-64.24c2.05-1.97 4.3-3.72 6.71-5.24l30.09-18.94c4.15-2.62 7.81-5.93 10.83-9.8l19.77-25.41c3.94-5.06 11.41-5.52 15.94-.99.61.61 1.142 1.279 1.572 1.999z" fill="#9a6a53"/></g><g><path d="m285.308 44.725 5.149 2.444c6.025 3.374 12 9.349 15.374 15.374l2.444 5.149c.975 1.741 3.48 1.741 4.455 0l2.444-5.149c2.118-3.783 5.447-7.854 8.691-10.673 1.081-.939 3.825-1.927 3.825-1.927.923-.632 1.877-1.224 2.858-1.774l6.149-3.444c1.741-.975 1.741-3.48 0-4.455l-6.149-3.444c-6.025-3.374-11-8.349-14.374-14.374l-3.444-6.149c-.975-1.741-3.48-1.741-4.455 0l-3.444 6.149c-1.857 3.316-4.198 6.313-6.933 8.901 0 0-1.327 2.079-2.204 2.772-1.541 1.217-3.51 2.734-5.237 3.701l-5.149 2.444c-1.741.975-1.741 3.48 0 4.455z" fill="#ffe07d"/><path d="m327.689 49.943c-4.75 3.25-8.687 7.555-11.517 12.605l-3.44 6.14c-.98 1.75-3.48 1.75-4.46 0l-3.44-6.14c-3.38-6.03-8.35-11-14.38-14.38l-6.14-3.44c-1.75-.98-1.75-3.48 0-4.46l6.14-3.44c2.71-1.52 5.216-3.354 7.446-5.474 4.63 10.96 15.464 18.644 28.104 18.644.571 0 1.127-.025 1.687-.055z" fill="#ffd064"/></g><g><path d="m46.308 92.821 5.149 2.444c6.025 3.374 12 9.349 15.374 15.374l2.444 5.149c.975 1.741 3.48 1.741 4.455 0l2.444-5.149c2.118-3.783 5.447-7.854 8.691-10.673 1.081-.939 3.825-1.927 3.825-1.927.923-.632 1.877-1.224 2.858-1.774l6.149-3.444c1.741-.975 1.741-3.48 0-4.455l-6.149-3.444c-6.025-3.374-11-8.349-14.374-14.374l-3.444-6.149c-.975-1.741-3.48-1.741-4.455 0l-3.444 6.149c-1.857 3.316-4.198 6.313-6.933 8.901 0 0-1.327 2.079-2.204 2.772-1.541 1.217-3.51 2.734-5.237 3.701l-5.149 2.444c-1.741.974-1.741 3.48 0 4.455z" fill="#c3ddff"/><path d="m88.689 98.038c-4.75 3.25-8.687 7.555-11.517 12.605l-3.44 6.14c-.98 1.75-3.48 1.75-4.46 0l-3.44-6.14c-3.38-6.03-8.35-11-14.38-14.38l-6.14-3.44c-1.75-.98-1.75-3.48 0-4.46l6.14-3.44c2.71-1.52 5.216-3.354 7.446-5.474 4.63 10.96 15.464 18.644 28.104 18.644.571 0 1.127-.025 1.687-.055z" fill="#a4ccff"/></g><g><path d="m152.016 125.62 8.504 4.322c9.312 5.215 18 13.903 23.214 23.214l3.322 7.504c1.507 2.69 5.378 2.69 6.885 0l4.322-7.504c2.606-4.654 6.014-9.067 9.932-12.803.522-.498 2.153-1.3 2.153-1.3 3.358-3.123 7.091-5.849 11.129-8.111l9.504-5.322c2.69-1.507 2.69-5.378 0-6.885l-9.504-5.322c-9.312-5.215-17-12.903-22.214-22.214l-5.322-9.504c-1.507-2.69-5.378-2.69-6.885 0l-5.322 9.504c-2.63 4.696-5.889 8.979-9.668 12.74 0 0-.161.354-.285.476-3.623 3.542-7.777 6.806-12.24 9.305l-7.525 5.015c-2.69 1.507-2.69 5.378 0 6.885z" fill="#ffe07d"/><path d="m210.348 139.053c-4.384 4.092-8.132 8.831-11.082 14.101l-5.331 9.508c-1.506 2.684-5.367 2.684-6.873 0l-5.331-9.508c-5.209-9.313-12.896-17-22.209-22.209l-9.508-5.331c-2.684-1.506-2.684-5.367 0-6.873l9.508-5.331c4.614-2.574 8.828-5.768 12.544-9.471 6.253 17.085 20.541 30.317 38.282 35.114z" fill="#ffd064"/></g><g><path d="m424.308 178.725 5.149 2.444c6.025 3.374 12 9.349 15.374 15.374l2.444 5.149c.975 1.741 3.48 1.741 4.455 0l2.444-5.149c2.118-3.783 5.447-7.854 8.691-10.673 1.081-.939 3.825-1.927 3.825-1.927.923-.632 1.877-1.224 2.858-1.774l6.149-3.444c1.741-.975 1.741-3.48 0-4.455l-6.149-3.444c-6.025-3.374-11-8.349-14.374-14.374l-3.444-6.149c-.975-1.741-3.48-1.741-4.455 0l-3.444 6.149c-1.857 3.316-4.198 6.313-6.933 8.901 0 0-1.327 2.079-2.204 2.772-1.541 1.217-3.51 2.734-5.237 3.701l-5.149 2.444c-1.741.975-1.741 3.48 0 4.455z" fill="#c3ddff"/><path d="m466.689 183.943c-4.75 3.25-8.687 7.555-11.517 12.605l-3.44 6.14c-.98 1.75-3.48 1.75-4.46 0l-3.44-6.14c-3.38-6.03-8.35-11-14.38-14.38l-6.14-3.44c-1.75-.98-1.75-3.48 0-4.46l6.14-3.44c2.71-1.52 5.216-3.354 7.446-5.474 4.63 10.96 15.464 18.644 28.104 18.644.571 0 1.127-.025 1.687-.055z" fill="#a4ccff"/></g><g><path d="m400.016 328.225 8.504 4.322c9.312 5.215 18 13.903 23.214 23.214l3.322 7.504c1.507 2.69 5.378 2.69 6.885 0l4.322-7.504c2.606-4.654 6.014-9.067 9.932-12.803.522-.498 2.153-1.3 2.153-1.3 3.358-3.123 7.091-5.849 11.129-8.111l9.504-5.322c2.69-1.507 2.69-5.378 0-6.885l-9.504-5.322c-9.312-5.215-17-12.903-22.214-22.214l-5.322-9.504c-1.507-2.69-5.378-2.69-6.885 0l-5.322 9.504c-2.63 4.696-5.889 8.979-9.668 12.74 0 0-.161.354-.285.476-3.623 3.542-7.777 6.806-12.24 9.305l-7.525 5.015c-2.69 1.507-2.69 5.379 0 6.885z" fill="#ffe07d"/><path d="m458.348 341.658c-4.384 4.092-8.132 8.831-11.082 14.101l-5.331 9.508c-1.506 2.684-5.367 2.684-6.873 0l-5.331-9.508c-5.209-9.313-12.896-17-22.209-22.209l-9.508-5.331c-2.684-1.506-2.684-5.367 0-6.873l9.508-5.331c4.614-2.574 8.828-5.768 12.544-9.471 6.253 17.085 20.541 30.317 38.282 35.114z" fill="#ffd064"/></g><g><path d="m264.808 369.335 7.003 3.56c7.669 4.295 14.824 11.45 19.118 19.118l2.736 6.18c1.241 2.216 4.429 2.216 5.67 0l3.56-6.18c2.146-3.832 4.953-7.467 8.18-10.544.43-.41 1.773-1.071 1.773-1.071 2.766-2.572 5.84-4.817 9.166-6.68l7.827-4.383c2.216-1.241 2.216-4.429 0-5.67l-7.827-4.383c-7.669-4.294-14-10.626-18.295-18.295l-4.383-7.827c-1.241-2.216-4.429-2.216-5.67 0l-4.383 7.827c-2.166 3.867-4.85 7.395-7.962 10.493 0 0-.133.292-.235.392-2.984 2.917-6.405 5.605-10.08 7.663l-6.197 4.13c-2.217 1.241-2.217 4.429-.001 5.67z" fill="#c3ddff"/><path d="m312.848 380.398c-3.61 3.37-6.697 7.273-9.127 11.613l-4.39 7.83c-1.24 2.21-4.42 2.21-5.66 0l-4.39-7.83c-4.29-7.67-10.62-14-18.291-18.291l-7.83-4.39c-2.21-1.24-2.21-4.42 0-5.66l7.83-4.39c3.8-2.12 7.27-4.75 10.33-7.8 5.15 14.07 16.917 24.967 31.528 28.918z" fill="#a4ccff"/></g><path d="m164.06 321.53-119.37 119.37-9.098-6.06-4.902-7.94 25.9-25.9 5.493-3.523 5.117-7.087 19.42-19.42 5.352-3.383 5.138-7.107 19.24-19.24 5.884-3.914 4.736-6.706 23.09-23.09z" fill="#a2abb8"/><g><g><path d="m161.426 370.766-10.615 10.615c-1.54-1.42-1.901-1.771-2.241-2.151-3.11-3.58-4.14-6.65-4.88-8.9-.62-1.86-.94-2.79-2.67-4.53-1.73-1.73-2.67-2.04-4.53-2.66-2.6-.87-6.15-2.05-10.39-6.29-4.23-4.23-5.42-7.79-6.29-10.39-.58-1.74-.88-2.64-2.29-4.14-.23-.22-.71-.66-1.17-1.08l6.297-2.923 4.323-7.697c1.03.95 1.1 1.02 1.29 1.22 3.82 4 4.96 7.4 5.78 9.88.62 1.86.94 2.79 2.67 4.53 1.73 1.73 2.66 2.04 4.53 2.66 2.59.87 6.15 2.05 10.39 6.29 4.24 4.23 5.42 7.79 6.29 10.39.52 1.57.8 2.4 1.81 3.61.33.31 1.066.986 1.696 1.566z" fill="#ffe07d"/></g><g><path d="m101.66 430.53-10.62 10.62c-1.54-1.42-1.9-1.77-2.24-2.16-3.11-3.57-4.13-6.64-4.88-8.89-.62-1.86-.93-2.8-2.67-4.53-1.73-1.73-2.66-2.04-4.52-2.66-2.6-.87-6.16-2.05-10.4-6.29-4.23-4.24-5.42-7.79-6.28-10.39-.59-1.74-.88-2.64-2.29-4.14-.23-.22-.7-.66-1.17-1.09l5.451-3.399 5.159-7.211c1.02.94 1.09 1.01 1.27 1.2 3.85 4.02 4.98 7.42 5.81 9.89.62 1.87.93 2.8 2.66 4.53 1.73 1.74 2.67 2.05 4.53 2.67 2.6.86 6.15 2.05 10.39 6.29 4.24 4.23 5.42 7.79 6.29 10.39.52 1.57.8 2.4 1.82 3.61.33.31 1.06.99 1.69 1.56z" fill="#ffe07d"/></g><g><path d="m131.426 400.766-10.49 10.49c-.28-.2-.546-.436-.806-.686-4.23-4.24-5.42-7.8-6.28-10.4-.62-1.86-.94-2.79-2.67-4.52-1.73-1.74-2.67-2.05-4.53-2.67-2.6-.87-6.15-2.05-10.39-6.29-4.24-4.23-5.42-7.79-6.29-10.39-.62-1.86-.93-2.79-2.66-4.53-.25-.25-.48-.52-.69-.8l5.394-3.424 5.096-7.066c.28.2.55.43.81.69 4.23 4.23 5.42 7.79 6.28 10.39.62 1.86.93 2.79 2.67 4.53 1.73 1.73 2.66 2.04 4.53 2.66 2.59.87 6.15 2.05 10.39 6.29 4.23 4.23 5.42 7.79 6.29 10.39.62 1.86.93 2.8 2.66 4.53.26.26.486.526.686.806z" fill="#ffe07d"/></g></g><g><g><path d="m138.11 347.48-10.65 10.65c-.45-.39-.9-.82-1.36-1.28-4.23-4.23-5.42-7.79-6.29-10.39-.58-1.74-.88-2.64-2.29-4.14-.23-.22-.71-.66-1.17-1.08l10.62-10.62c1.03.95 1.1 1.02 1.29 1.22 3.82 4 4.96 7.4 5.78 9.88.62 1.86.94 2.79 2.67 4.53.53.53.98.92 1.4 1.23z" fill="#ffd064"/></g><g><path d="m78.35 407.24-10.66 10.66c-.45-.39-.9-.82-1.36-1.28-4.23-4.24-5.42-7.79-6.28-10.39-.59-1.74-.88-2.64-2.29-4.14-.23-.22-.7-.66-1.17-1.09l10.61-10.61c1.02.94 1.09 1.01 1.27 1.2 3.85 4.02 4.98 7.42 5.81 9.89.62 1.87.93 2.8 2.66 4.53.53.53.98.93 1.41 1.23z" fill="#ffd064"/></g><g><path d="m108.27 377.32-10.65 10.65c-.45-.39-.9-.82-1.36-1.28-4.24-4.23-5.42-7.79-6.29-10.39-.62-1.86-.93-2.79-2.66-4.53-.25-.25-.48-.52-.69-.8l10.49-10.49c.28.2.55.43.81.69 4.23 4.23 5.42 7.79 6.28 10.39.62 1.86.93 2.79 2.67 4.53.53.53.98.92 1.4 1.23z" fill="#ffd064"/></g></g><path d="m186.394 343.873-35.092-35.092 16.616-18.162c2.472-2.472 6.48-2.472 8.952 0l7.571 6.54 20.82 20.82c2.472 2.472 2.472 6.48 0 8.952l-3.405 3.405z" fill="#ffe07d"/><path d="m177.973 303.624 6.467-6.464-7.53-7.53c-2.471-2.471-6.479-2.471-8.95 0l-17.9 17.9 37.3 37.31 14.5-14.5-23.887-23.887c-.781-.781-.781-2.048 0-2.829z" fill="#ffd064"/><path d="m190.5 355.479c-1.919 0-3.839-.732-5.304-2.197l-43.588-43.588c-2.929-2.929-2.929-7.678 0-10.606 2.93-2.929 7.678-2.929 10.607 0l43.588 43.588c2.929 2.929 2.929 7.678 0 10.606-1.464 1.465-3.384 2.197-5.303 2.197z" fill="#a2abb8"/><path d="m169.36 316.23-10.6 10.61-17.15-17.15c-2.93-2.92-2.93-7.67 0-10.6s7.68-2.93 10.61 0l3.14 3.14z" fill="#909ba6"/><path d="m44.69 440.9-15.15 4.45c-2.54.75-4.85 2.12-6.72 4l-13.19 13.18-6.54-6.54c-4.12-4.12-4.12-10.8 0-14.92l5.73-5.72c1.87-1.88 4.18-3.25 6.72-4l15.15-4.45z" fill="#ffd064"/></g></svg>