<svg id="Capa_1" enable-background="new 0 0 512 512" height="512" viewBox="0 0 512 512" width="512" xmlns="http://www.w3.org/2000/svg"><g><path d="m0 352h183v160h-183z" fill="#ff8756"/><path d="m329 352h183v160h-183z" fill="#fcbe00"/><path d="m329 0h183v160h-183z" fill="#91bd00"/><path d="m0 0h183v160h-183z" fill="#75e1f7"/><path d="m60 417h63v30h-63z" fill="#00607f"/><path d="m389 417h63v30h-63z" fill="#00465f"/><path d="m389 65h63v30h-63z" fill="#00465f"/><path d="m60 65h63v30h-63z" fill="#00607f"/><path d="m212.031 27.867 15.938 25.416 13.031-8.171v195.888h-195.888l8.171-13.031-25.416-15.938-27.573 43.969 27.573 43.969 25.416-15.938-8.171-13.031h195.888v195.888l-13.031-8.171-15.938 25.416 43.969 27.572 12-257.705-12-253.705z" fill="#00607f"/><path d="m484.133 212.031-25.416 15.938 8.171 13.031h-195.888v-195.888l13.031 8.171 15.938-25.416-43.969-27.572v511.41l43.969-27.572-15.938-25.416-13.031 8.171v-195.888h195.888l-8.171 13.031 25.416 15.938 27.573-43.969z" fill="#00465f"/></g></svg>