<svg height="512" viewBox="0 0 512 512" width="512" xmlns="http://www.w3.org/2000/svg"><g id="_33.Memory" data-name="33.Memory"><rect fill="#f7f5fb" height="294.36" rx="94.18" width="402.424" x="98.576" y="48.5"/><rect fill="#f17b89" height="61.389" rx="28.994" width="128.919" x="235.328" y="248.807"/><ellipse cx="299.788" cy="178.422" fill="#ffebb9" rx="65.306" ry="65.352"/><path d="m363.6874 164.8665h-127.7991a65.3131 65.3131 0 0 1 127.7991 0z" fill="#666"/><path d="m326.6744 108.0668a26.5816 26.5816 0 0 1 -1.91 9.95 65.4813 65.4813 0 0 0 -49.95 0 26.5816 26.5816 0 0 1 -1.91-9.95 26.885 26.885 0 1 1 53.77 0z" fill="#666"/><g fill="#e4e3e8"><path d="m185.7544 342.6068a94.1956 94.1956 0 0 1 -87.18-93.93v-85.63a498.0445 498.0445 0 0 0 87.18 179.56z"/><ellipse cx="98.576" cy="362.713" rx="42.915" ry="42.945"/><ellipse cx="42.837" cy="431.641" rx="31.837" ry="31.859"/></g><path d="m406.8242 348.8566h-214.07a100.2933 100.2933 0 0 1 -100.18-100.18v-63.1a6 6 0 0 1 12 0v63.1a88.28 88.28 0 0 0 88.18 88.18h214.07a88.28 88.28 0 0 0 88.18-88.18v-106a88.28 88.28 0 0 0 -88.18-88.18h-214.07a87.913 87.913 0 0 0 -88.105 84.5239 6 6 0 1 1 -11.99-.4873 100.1879 100.1879 0 0 1 100.0952-96.0365h214.07a100.2934 100.2934 0 0 1 100.18 100.18v106a100.2934 100.2934 0 0 1 -100.1802 100.1799z"/><path d="m98.5742 172.6769a6 6 0 0 1 -6-6v-9a6 6 0 0 1 12 0v9a6 6 0 0 1 -6 6z"/><path d="m98.5757 411.6578a48.9451 48.9451 0 1 1 48.9143-48.9448 48.985 48.985 0 0 1 -48.9143 48.9448zm0-85.89a36.9451 36.9451 0 1 0 36.9143 36.9452 36.9717 36.9717 0 0 0 -36.9143-36.9453z"/><path d="m42.8364 469.5a37.8594 37.8594 0 1 1 37.8369-37.8594 37.8908 37.8908 0 0 1 -37.8369 37.8594zm0-63.7187a25.8594 25.8594 0 1 0 25.8369 25.8593 25.8773 25.8773 0 0 0 -25.8369-25.8592z"/><path d="m335.2539 316.1964h-70.9322a35.033 35.033 0 0 1 -34.9936-34.9932v-3.4023a35.0334 35.0334 0 0 1 34.9936-34.9936h70.9322a35.0334 35.0334 0 0 1 34.9936 34.9936v3.4023a35.033 35.033 0 0 1 -34.9936 34.9932zm-70.9322-61.3891a23.02 23.02 0 0 0 -22.9936 22.9936v3.4023a23.0193 23.0193 0 0 0 22.9936 22.9932h70.9322a23.0193 23.0193 0 0 0 22.9936-22.9932v-3.4023a23.02 23.02 0 0 0 -22.9936-22.9936z"/><path d="m299.7881 249.7736a71.3521 71.3521 0 1 1 71.3056-71.3521 71.41 71.41 0 0 1 -71.3056 71.3521zm0-130.7041a59.3521 59.3521 0 1 0 59.3056 59.352 59.3961 59.3961 0 0 0 -59.3056-59.3515z"/><path d="m363.6875 170.8663h-127.7993a5.9994 5.9994 0 0 1 -5.8711-7.2368 71.3132 71.3132 0 0 1 139.5415 0 6 6 0 0 1 -5.8711 7.2368zm-119.9117-12h112.0242a59.3147 59.3147 0 0 0 -112.024 0z"/><path d="m324.7641 124.0167a6 6 0 0 1 -2.2988-.458 59.4851 59.4851 0 0 0 -45.3521 0 5.999 5.999 0 0 1 -7.8642-3.3008 32.4785 32.4785 0 0 1 -2.3447-12.1909 32.885 32.885 0 1 1 65.77 0 32.4706 32.4706 0 0 1 -2.3447 12.1909 5.9989 5.9989 0 0 1 -5.5655 3.7588zm-24.98-16.95a71.0419 71.0419 0 0 1 20.79 3.0772q.1-1.0284.1006-2.0772a20.885 20.885 0 1 0 -41.77 0q0 1.0481.1005 2.0772a70.995 70.995 0 0 1 20.7789-3.0769z"/></g></svg>