<?xml version="1.0" encoding="iso-8859-1"?>
<!-- Generator: Adobe Illustrator 19.0.0, SVG Export Plug-In . SVG Version: 6.00 Build 0)  -->
<svg version="1.1" id="Layer_1" xmlns="http://www.w3.org/2000/svg" xmlns:xlink="http://www.w3.org/1999/xlink" x="0px" y="0px"
	 viewBox="0 0 512 512" style="enable-background:new 0 0 512 512;" xml:space="preserve">
<path style="fill:#D1E7F8;" d="M424.19,139.004l54.378-54.378l-51.199-51.199L372.99,87.805
	c-47.232-25.149-107.536-17.891-147.215,21.787L16.56,318.809c-11.943,11.943-11.943,31.485,0,43.428l133.198,133.198
	c11.943,11.943,31.485,11.943,43.428,0l209.216-209.216C442.081,246.541,449.339,186.237,424.19,139.004z"/>
<path style="fill:#C2DFF6;" d="M364.53,123.511c-0.007-0.01,19.382,9.747,35.426-6.298l55.598-55.598l-28.186-28.188L372.99,87.805
	c-47.232-25.149-107.536-17.891-147.215,21.787L16.56,318.809c-11.943,11.943-11.943,31.485,0,43.428l7.204,7.204
	c1.303-2.254,2.913-4.376,4.836-6.3l209.216-209.216C271.945,119.797,321.326,109.678,364.53,123.511z"/>
<path style="fill:#B9D8F4;" d="M173.297,471.247c7.829-19.707,10.33-40.521,7.233-60.192c-3.228-20.501-12.423-38.828-26.593-52.997
	c-14.17-14.17-32.495-23.365-52.997-26.593c-19.671-3.097-40.485-0.596-60.192,7.233c-3.152,1.253-5.464,4.007-6.149,7.328
	c-0.685,3.321,0.345,6.766,2.744,9.165l119.462,119.462c2.398,2.398,5.842,3.43,9.165,2.744
	C169.29,476.711,172.044,474.4,173.297,471.247z"/>
<path style="fill:#96C8EF;" d="M152.098,439.487c-3.228-20.501-12.423-38.828-26.593-52.997
	c-14.17-14.17-32.495-23.365-52.997-26.593c-10.08-1.587-20.46-1.694-30.837-0.377l110.804,110.804
	C153.791,459.947,153.685,449.567,152.098,439.487z"/>
<path style="fill:#EE8700;" d="M426.869,99.369l-14.244-14.244c-5.117-5.117-5.117-13.489,0-18.606l55.085-55.085
	c5.117-5.117,13.489-5.117,18.606,0l14.244,14.244c5.117,5.117,5.117,13.489,0,18.606l-55.085,55.085
	C440.358,104.486,431.986,104.486,426.869,99.369z"/>
<path style="fill:#FFA733;" d="M386.478,193.805l-56.171-56.171c-6.925-6.925-18.257-6.925-25.182,0L111.2,331.56
	c-6.925,6.925-6.925,18.257,0,25.182l56.171,56.171c6.925,6.925,18.257,6.925,25.182,0l193.926-193.926
	C393.403,212.062,393.403,200.73,386.478,193.805z"/>
<path style="fill:#FFDAAA;" d="M148.452,401.311l-60.665-60.665c-5.117-5.117-5.117-13.489,0-18.606l207.82-207.82
	c5.117-5.117,13.489-5.117,18.606,0l60.665,60.665c5.117,5.117,5.117,13.489,0,18.606l-207.82,207.82
	C161.941,406.428,153.569,406.428,148.452,401.311z"/>
<path style="fill:#FFC477;" d="M314.213,114.222c-5.117-5.117-13.489-5.117-18.606,0l-207.82,207.82
	c-5.117,5.117-5.117,13.489,0,18.606l41.189,41.189l0,0c-5.972-5.971-5.972-15.743,0-21.715l204.712-204.711
	c5.972-5.971,15.743-5.971,21.714,0L314.213,114.222z"/>
<path style="fill:#CC7400;" d="M438.956,40.189l-26.33,26.33c-5.117,5.117-5.117,13.489,0,18.606l14.244,14.244
	c5.117,5.117,13.489,5.117,18.606,0l26.33-26.33L438.956,40.189z"/>
<path style="fill:#B9D8F4;" d="M492.504,67.569L444.426,19.49c-6.277-6.277-16.55-6.277-22.828,0l0,0
	c-6.277,6.277-6.277,16.55,0,22.828l48.078,48.078c6.277,6.277,16.55,6.277,22.828,0l0,0
	C498.781,84.119,498.781,73.846,492.504,67.569z"/>
<path style="fill:#96C8EF;" d="M449.785,47.678L449.785,47.678c6.277-6.277,16.55-6.277,22.828,0L444.426,19.49
	c-6.277-6.277-16.55-6.277-22.828,0l0,0c-6.277,6.277-6.277,16.55,0,22.828l28.187,28.187
	C443.508,64.228,443.508,53.955,449.785,47.678z"/>
<path d="M511.988,34.981c0-5.552-2.153-10.762-6.061-14.669L491.683,6.066c-8.089-8.088-21.251-8.089-29.339,0.001l-10.303,10.304
	l-2.249-2.249c-4.47-4.469-19.728-12.045-33.561,0c-7.233,6.298-8.571,16.673-5.413,25.119l-39.314,39.315
	c-23.381-11.158-50.147-15.304-76.007-11.686c-28.704,4.018-54.669,16.934-75.09,37.353L11.193,313.441
	c-7.21,7.21-11.181,16.828-11.181,27.082c0,10.254,3.971,19.872,11.181,27.081l133.198,133.198
	c7.467,7.466,17.274,11.198,27.081,11.198c9.807,0,19.615-3.732,27.081-11.198l209.216-209.215
	c20.42-20.42,33.336-46.386,37.354-75.091c3.619-25.858-0.527-52.624-11.685-76.006l39.299-39.299
	c2.633,0.985,12.448,8.114,25.134-5.426c16.19-17.28,0-33.563,0-33.563l-2.247-2.247l10.303-10.303
	C509.835,45.742,511.988,40.533,511.988,34.981z M417.992,71.887l11.22-11.22l22.115,22.115l-11.22,11.22
	c-2.171,2.17-5.702,2.171-7.871,0.001l-14.244-14.245C416.951,78.717,414.632,74.942,417.992,71.887z M417.49,142.571
	c24.104,45.27,15.692,102.133-20.455,138.281L187.819,490.067c-9.014,9.014-23.68,9.014-32.695,0L21.927,356.869
	c-4.343-4.342-6.734-10.147-6.734-16.346c0-6.2,2.391-12.004,6.734-16.347l209.216-209.216
	c36.147-36.148,93.011-44.559,138.28-20.455c2.946,1.569,6.574,1.027,8.934-1.332l23.91-23.91c-0.691,2.088-1.069,4.292-1.069,6.56
	c0,5.552,2.153,10.762,6.061,14.669l14.244,14.245c4.045,4.044,9.357,6.066,14.67,6.066c2.221,0,4.438-0.375,6.567-1.083
	l-23.917,23.917C416.462,135.998,415.92,139.625,417.49,142.571z M487.137,85.03c-4.727,5.08-10.491,1.603-12.094,0l-48.078-48.079
	c-3.334-3.334-3.275-8.701,0-12.092c5.63-5.829,10.491-1.603,12.093,0l48.078,48.078C488.74,74.538,492.05,79.749,487.137,85.03z
	 M495.193,38.916L484.89,49.219l-22.115-22.115l10.304-10.303c2.17-2.17,5.701-2.171,7.871-0.001l14.244,14.245
	c1.041,1.04,1.614,2.438,1.614,3.936S496.234,37.875,495.193,38.916z"/>
<path d="M164.232,256.331l10.457-10.458c2.964-2.964,2.964-7.77,0-10.733s-7.77-2.964-10.733,0.001l-10.457,10.458
	c-2.964,2.964-2.964,7.77,0,10.733C154.98,257.813,159.522,260.561,164.232,256.331z"/>
<path d="M386.239,182.832c-0.323-5.038-2.408-9.725-5.995-13.313l-60.664-60.665c-3.908-3.907-9.118-6.06-14.67-6.06
	s-10.762,2.153-14.67,6.06L182.172,216.923c-2.964,2.965-2.964,7.77,0,10.734c2.964,2.963,7.77,2.963,10.733,0l108.07-108.069
	c2.171-2.171,5.702-2.171,7.871,0l60.664,60.665c1.041,1.04,3.545,4.406,0,7.87l-207.819,207.82c-3.518,2.328-6.831,1.041-7.871,0
	L93.155,335.28c-2.171-2.17-2.171-5.702,0-7.87l53.031-53.03c2.964-2.965,2.964-7.77,0-10.734c-2.963-2.963-7.769-2.963-10.733,0
	l-53.031,53.03c-15.665,13.499-3.908,25.432,0,29.34l60.665,60.664c3.701,3.701,8.465,5.687,13.319,6.002l5.599,5.599
	c4.952,4.952,18.771,16.851,35.916,0l193.925-193.926c4.783-4.784,7.417-11.16,7.417-17.958s-2.634-13.175-7.417-17.958
	L386.239,182.832z M381.112,213.619L187.185,407.545c-8.773,8.189-14.855-0.773-14.761-0.866c0,0,207.992-208.016,208.083-208.11
	C380.507,198.569,388.91,204.732,381.112,213.619z"/>
<g>
</g>
<g>
</g>
<g>
</g>
<g>
</g>
<g>
</g>
<g>
</g>
<g>
</g>
<g>
</g>
<g>
</g>
<g>
</g>
<g>
</g>
<g>
</g>
<g>
</g>
<g>
</g>
<g>
</g>
</svg>
