<svg width="459px" height="403px" viewBox="0 0 459 403" version="1.1" xmlns="http://www.w3.org/2000/svg" xmlns:xlink="http://www.w3.org/1999/xlink"><title>Group</title><desc>Created with Sketch.</desc><defs><path d="M5.283,20.238 C3.14,20.237 2.01,18.908 1.522,17.141 C0.351,15.218 0.325,13.193 0.995,10.907 C1.703,8.489 2.882,6.065 4.619,4.204 C5.975,2.748 8.182,0.899 10.38,0.899 C10.572,0.899 10.764,0.914 10.955,0.943 C16.248,1.764 16.43,7.87 14.748,11.886 C13.192,15.606 10.144,19.876 5.717,20.22 C5.568,20.232 5.423,20.238 5.283,20.238 L5.283,20.238 Z" id="path-1"></path></defs><g id="Page-1" stroke="none" stroke-width="1" fill="none" fill-rule="evenodd"><g id="8088" transform="translate(-13.000000, -17.000000)"><g id="Group" transform="translate(13.139780, 17.952196)"><path d="M334.65022,183.298804 C320.87522,193.218804 309.08122,205.736804 296.93422,217.479804 C290.92222,223.294804 284.83922,229.065804 279.15622,235.196804 C274.54822,240.166804 268.00122,245.544804 264.45522,251.205804 C264.55122,251.052804 264.35522,251.019804 264.27022,251.132804 C263.36922,252.305804 263.67122,251.753804 263.17322,253.041804 C263.10322,253.219804 263.26022,253.377804 263.44222,253.284804 C275.44022,247.234804 286.07522,235.167804 295.88322,226.189804 C309.87322,213.387804 325.21722,201.328804 337.00922,186.443804 C338.65022,184.373804 337.30822,181.383804 334.65022,183.298804" id="Fill-1" fill="#DC8075"></path><path d="M325.11122,168.704804 C328.45822,166.201804 331.81622,163.714804 335.17122,161.220804 C342.00522,155.504804 348.75122,149.692804 354.79522,143.132804 C356.81522,140.939804 355.02822,137.834804 352.26322,139.758804 C345.23822,144.648804 338.65022,150.102804 332.25122,155.767804 C327.17922,161.265804 322.08922,166.743804 317.03122,172.253804 C313.82822,175.744804 310.79822,179.382804 307.81922,183.063804 C313.50622,178.180804 319.11822,173.186804 325.11122,168.704804" id="Fill-2" fill="#99D5EA"></path><path d="M427.53522,49.6688043 C407.97922,64.8248043 388.27322,79.9138043 369.98222,96.5728043 C353.63822,111.459804 335.31522,126.176804 321.78322,143.667804 C321.89622,143.518804 321.74222,143.365804 321.61722,143.516804 C321.22622,143.975804 321.34822,143.822804 321.06722,144.526804 C321.02022,144.646804 321.12722,144.738804 321.24022,144.684804 C328.56922,141.348804 335.00622,134.721804 341.27422,129.772804 C351.56322,121.652804 361.42722,113.007804 371.27622,104.376804 C390.84522,87.2238043 411.58522,71.5428043 430.64222,53.8108043 C433.35622,51.2878043 430.75422,47.1738043 427.53522,49.6688043" id="Fill-3" fill="#D24639"></path><path d="M385.68222,121.178804 C392.45422,116.554804 399.17122,111.854804 405.83922,107.077804 C406.21722,106.802804 406.60422,106.529804 406.98822,106.257804 C414.05422,100.602804 420.99922,94.8178043 427.26922,88.2618043 C429.19422,86.2488043 427.49822,83.6588043 424.98322,85.2178043 C404.03622,98.2268043 387.08822,115.488804 369.12522,131.944804 L369.08822,132.000804 C374.98822,129.283804 380.58922,124.654804 385.68222,121.178804" id="Fill-4" fill="#E9BA50"></path><path d="M385.46422,138.342804 C378.09622,142.806804 371.59722,148.068804 365.16522,153.758804 C364.15122,154.654804 363.17122,155.577804 362.17422,156.489804 C357.51522,161.759804 352.87222,167.043804 348.13122,172.242804 C353.41822,169.612804 358.76522,164.073804 362.74322,160.986804 C371.16322,154.451804 379.84322,148.450804 387.38522,140.899804 C389.06222,139.219804 387.56122,137.072804 385.46422,138.342804" id="Fill-5" fill="#D24639"></path><path d="M319.27622,79.4448043 C329.75322,74.9528043 339.10322,66.6178043 348.50022,60.6508043 C349.92922,59.7408043 351.34122,58.8108043 352.76522,57.8928043 C362.87322,50.7958043 372.88722,43.5758043 382.68922,36.1778043 C384.30222,34.9598043 384.26322,31.4408043 381.63122,32.7238043 C368.62622,39.0648043 357.06922,47.4838043 345.63522,56.2288043 C339.38122,61.0158043 333.25422,66.0028043 327.12022,70.9398043 C325.25922,72.4408043 323.80222,73.8158043 322.07722,75.4638043 C322.53022,75.0318043 320.33422,77.8478043 319.27622,79.4448043" id="Fill-6" fill="#99D5EA"></path><path d="M407.35022,36.0668043 C414.20622,31.4128043 421.21322,26.9878043 428.08522,22.3568043 C438.05022,15.6328043 447.74922,8.46380434 458.05922,2.28180434 C458.52722,0.93080434 458.03722,-0.62119566 456.17822,0.25580434 C444.74522,5.65980434 434.11022,12.1168043 423.79322,19.2418043 C422.47322,20.3398043 421.15022,21.4388043 419.83822,22.5468043 C410.58222,30.3658043 400.69622,37.9378043 392.01522,46.5638043 C397.34922,43.4378043 402.39022,39.4328043 407.35022,36.0668043" id="Fill-7" fill="#DC8075"></path><path d="M347.21422,45.8138043 C338.40322,49.9858043 330.70322,55.8558043 323.14922,61.9268043 C316.06122,67.6278043 308.60022,73.3138043 303.29622,80.7418043 C303.08922,81.0288043 303.39522,81.2428043 303.66122,81.0748043 C318.98422,71.2978043 335.36922,61.2148043 348.85022,49.0448043 C350.40622,47.6378043 349.53622,44.7108043 347.21422,45.8138043" id="Fill-8" fill="#D24639"></path><path d="M301.24822,57.8818043 C281.27922,70.5328043 263.44522,86.1498043 245.60422,101.523804 C238.09222,107.997804 230.75322,114.692804 223.38822,121.327804 C216.91522,127.157804 211.78822,134.310804 205.41422,140.125804 L205.33822,140.266804 C206.48722,139.565804 207.62222,138.838804 208.74322,138.079804 C208.78422,138.035804 208.79122,138.024804 208.69922,138.095804 C212.58422,134.965804 216.35522,131.740804 220.34722,128.735804 C229.78722,121.624804 239.12822,114.432804 248.38422,107.090804 C267.14222,92.2018043 286.47222,77.7188043 303.49222,60.8738043 C305.44522,58.9398043 303.68822,56.3358043 301.24822,57.8818043" id="Fill-9" fill="#DC8075"></path><path d="M292.34422,83.6488043 C287.75922,86.1718043 283.55722,89.0708043 279.42422,92.2158043 C274.99022,96.0998043 270.67722,100.108804 266.64522,104.401804 C269.96622,103.219804 273.15922,100.449804 276.04822,98.7508043 C282.25822,95.0968043 288.29822,90.9118043 293.52122,85.9718043 C294.57122,84.9808043 294.00622,82.7348043 292.34422,83.6488043" id="Fill-10" fill="#E9BA50"></path><path d="M184.13422,128.552804 C177.54822,132.436804 171.42122,136.951804 165.61522,141.874804 C157.86022,149.600804 150.30222,157.513804 143.74522,166.256804 C149.50922,162.731804 154.65222,157.527804 159.66122,153.390804 C168.52422,146.067804 178.33922,139.810804 186.51522,131.722804 C188.62322,129.633804 186.72922,127.022804 184.13422,128.552804" id="Fill-11" fill="#D24639"></path><path d="M251.75922,86.1328043 C237.48722,96.0498043 223.75422,106.923804 210.76922,118.441804 C203.94722,124.492804 197.24622,130.659804 190.89722,137.198804 C187.70622,140.489804 184.43722,143.667804 181.35422,147.068804 C179.86122,148.737804 178.38022,150.419804 176.91722,152.112804 C176.01022,153.148804 174.07122,156.007804 176.01322,153.047804 L175.93222,152.995804 C174.52922,154.562804 175.08922,153.870804 173.76422,155.743804 C173.56522,156.021804 173.76822,156.221804 174.01522,156.193804 C178.09522,153.546804 181.74222,149.911804 185.47522,146.961804 C188.00822,144.583804 190.50022,142.186804 193.03322,140.042804 C199.96222,134.179804 206.46122,127.820804 213.42422,121.976804 C226.75622,110.779804 240.64922,100.193804 253.47022,88.4068043 C254.99322,87.0078043 253.57822,84.8718043 251.75922,86.1328043" id="Fill-12" fill="#E9BA50"></path><path d="M130.33522,156.773804 C121.96022,162.540804 114.33322,168.938804 107.02422,175.969804 C102.74422,180.090804 98.7042196,184.462804 94.6642196,188.813804 C90.2562196,193.565804 86.1972196,200.047804 81.2312196,204.192804 C80.9812196,204.399804 80.9692196,205.017804 81.4092196,204.773804 C89.2052196,200.441804 96.0232196,192.448804 102.57522,186.415804 C112.40522,177.359804 123.20122,169.163804 132.21422,159.278804 C133.70822,157.643804 132.39522,155.352804 130.33522,156.773804" id="Fill-13" fill="#99D5EA"></path><path d="M118.75622,184.404804 C115.77422,186.375804 112.89922,188.435804 110.23422,190.815804 C107.23422,193.497804 105.49422,197.006804 102.23122,199.430804 C101.91022,199.668804 101.94722,200.390804 102.43822,200.108804 C105.21422,198.521804 108.11522,196.324804 110.38922,194.127804 C113.41522,191.205804 116.76622,188.679804 119.67822,185.632804 C120.44122,184.832804 119.76322,183.740804 118.75622,184.404804" id="Fill-14" fill="#DC8075"></path><path d="M262.77522,262.168804 C244.29622,276.212804 229.04322,292.185804 213.78622,309.268804 C213.87422,309.170804 213.79022,309.012804 213.67222,309.115804 C213.17322,309.548804 212.67522,309.981804 212.17822,310.415804 C211.99422,310.574804 211.97122,311.050804 212.31822,310.862804 C220.45122,306.444804 228.02122,298.069804 234.95922,291.991804 C245.13522,283.072804 255.21122,274.288804 264.42322,264.367804 C265.72622,262.963804 264.53622,260.830804 262.77522,262.168804" id="Fill-15" fill="#E9BA50"></path><path d="M297.39922,241.170804 C301.62722,237.679804 305.88422,234.221804 310.12022,230.738804 C312.54122,228.051804 314.91922,225.336804 317.24222,222.611804 C318.75322,220.842804 317.36222,218.041804 315.17122,219.851804 C305.95822,227.459804 297.35522,235.534804 288.94322,243.989804 C284.87022,248.083804 281.14922,252.523804 277.17322,256.714804 C274.94322,259.068804 272.61322,261.340804 270.33922,263.659804 C270.21622,263.786804 268.86722,265.611804 267.86222,267.047804 C277.84622,258.583804 287.30122,249.507804 297.39922,241.170804" id="Fill-16" fill="#D24639"></path><path d="M391.63222,54.0208043 C374.21822,63.3928043 357.21722,72.8518043 340.79922,83.3028043 C351.17222,75.0358043 361.66722,66.9168043 372.37522,58.9438043 C372.93822,58.5228043 373.31222,56.8458043 372.12522,57.2168043 C364.73322,59.5238043 357.72322,64.5738043 351.14322,68.6138043 C340.56422,75.1098043 328.92322,80.3658043 319.05122,87.8908043 C309.31622,95.3108043 298.73322,101.350804 289.16722,108.639804 C293.79022,102.972804 298.44922,97.3438043 302.89122,91.5068043 C303.47722,90.7328043 302.56322,89.9148043 301.83322,90.5278043 C290.56022,100.028804 276.11522,106.653804 264.08022,115.262804 C255.03422,121.736804 247.07522,127.181804 239.92722,134.629804 C243.28622,127.643804 248.45422,122.383804 253.84622,116.440804 C254.56522,115.647804 254.27422,113.944804 252.94722,114.643804 C243.82722,119.436804 235.81822,125.548804 227.34322,131.333804 C221.01422,135.655804 217.99222,143.767804 215.31522,150.580804 C211.26422,160.902804 200.82422,157.922804 192.06222,161.470804 C193.86222,159.160804 195.84522,156.965804 198.15722,154.964804 C198.52422,154.645804 198.84122,153.585804 197.98322,153.771804 C182.51622,157.110804 159.54722,168.749804 149.15222,184.810804 C149.84922,181.476804 151.02122,178.227804 152.96422,175.066804 C153.57522,174.074804 152.65822,173.315804 151.73622,173.929804 C145.33822,178.173804 140.36922,184.204804 136.88022,191.003804 C135.12722,194.426804 133.61522,198.132804 132.24722,201.722804 C129.21722,209.663804 122.81522,211.678804 115.49522,213.997804 C109.90622,215.767804 101.98422,215.881804 94.8512196,217.387804 C97.7232196,214.048804 100.82822,210.949804 104.00422,208.241804 C104.64122,207.697804 105.25022,205.589804 103.68722,206.054804 C90.3992196,210.005804 76.6792196,212.475804 64.3752196,219.212804 C59.1702196,222.063804 55.0492196,226.678804 51.6282196,231.450804 C49.2832196,234.721804 47.1742196,237.904804 45.3282196,241.485804 C44.9692196,242.180804 44.6712196,242.938804 44.3992196,243.719804 C43.7162196,240.016804 42.5452196,236.431804 40.7792196,233.108804 C41.2372196,240.108804 37.2412196,248.597804 34.1802196,253.382804 C31.9872196,256.819804 29.5552196,260.094804 27.0552196,263.320804 C25.0062196,266.554804 22.8902196,269.634804 20.9622196,272.493804 C13.3142196,283.846804 6.53821958,293.747804 4.40521958,307.594804 C0.206219584,334.839804 14.6482196,361.768804 33.7162196,380.064804 C43.2712196,389.233804 56.1582196,390.500804 68.6582196,392.004804 C82.6792196,393.690804 97.6942196,392.645804 111.27422,388.833804 C122.39422,385.713804 131.23722,378.324804 139.00722,370.044804 C143.82622,364.908804 148.16922,359.512804 152.63922,354.080804 C157.28022,348.437804 163.09322,344.999804 169.31522,341.723804 C170.09722,341.310804 171.24422,339.913804 170.29922,339.068804 C166.87622,336.009804 163.28922,334.848804 159.50422,334.572804 C167.04122,328.312804 175.43722,326.397804 184.87922,323.546804 C193.77022,320.863804 203.70422,316.460804 202.75422,305.433804 C202.37022,300.974804 199.07022,294.798804 200.54222,290.410804 C201.10522,288.731804 205.17222,288.710804 206.68222,288.565804 C210.70022,288.176804 215.55122,286.296804 218.55122,283.555804 C221.74422,280.639804 223.71622,277.314804 225.62222,273.801804 C225.98722,272.942804 226.32622,272.068804 226.61322,271.155804 C227.97622,266.855804 229.49322,262.253804 232.59222,258.843804 C237.32122,253.642804 244.14422,250.542804 251.11222,248.870804 C248.86622,247.401804 245.93222,246.576804 242.88422,246.179804 C248.94022,243.221804 254.94922,240.243804 260.01022,236.298804 C264.08022,233.123804 266.93922,228.303804 269.62022,223.928804 C272.52122,217.090804 275.33422,210.213804 278.71422,203.612804 C275.80522,205.180804 272.93322,206.848804 270.11322,208.629804 C272.81222,204.126804 275.14222,199.476804 277.12122,195.100804 C281.53722,185.341804 286.93422,175.818804 293.46522,167.285804 C296.40322,163.443804 302.23922,158.895804 303.51422,154.029804 C303.61422,153.644804 303.56122,152.984804 302.99522,153.017804 C299.07622,153.245804 295.80622,155.640804 292.56222,157.894804 C293.38422,156.637804 294.16622,155.468804 294.85522,154.490804 C299.52622,147.877804 304.96222,141.926804 309.81022,135.445804 C315.17322,128.279804 321.37722,121.539804 326.92122,114.484804 C331.46522,108.706804 337.41622,104.527804 341.95422,98.8698043 C342.27722,98.4648043 342.66822,97.2328043 341.71122,97.2668043 C339.58722,97.3398043 337.41622,97.7998043 335.23022,98.5028043 C353.43122,83.2848043 372.36522,68.8538043 392.37622,56.4868043 C393.67422,55.6848043 393.37522,53.0808043 391.63222,54.0208043" id="Fill-17" fill="#D24639"></path><path d="M237.96622,253.619804 C230.31022,255.731804 225.60022,259.407804 221.50722,266.247804 C216.32122,274.915804 210.86922,281.485804 200.19522,282.295804 C199.62722,282.337804 199.49022,281.854804 199.70122,281.410804 C207.67022,264.700804 213.32522,247.112804 218.66222,229.427804 C211.96522,236.873804 206.63422,245.396804 200.37122,253.205804 C199.99922,253.669804 198.72322,253.959804 198.98922,252.986804 C201.66122,243.223804 204.01722,233.215804 208.98522,224.307804 C211.48122,219.835804 213.97322,215.291804 217.02622,211.169804 C219.49522,207.834804 222.62122,204.781804 224.92522,201.300804 C215.43322,206.916804 206.52322,213.544804 198.79822,221.434804 C198.12022,222.129804 196.80722,221.806804 197.63022,220.822804 C204.92822,212.111804 211.41622,202.800804 219.06422,194.376804 C225.55422,187.226804 232.26822,180.200804 237.27722,171.912804 C227.80022,177.167804 220.67522,185.751804 211.31222,191.247804 C210.75622,191.572804 209.93722,191.195804 210.39422,190.505804 C218.82922,177.777804 229.66622,166.930804 238.71422,154.674804 C229.09122,160.806804 218.71422,165.987804 208.28522,170.538804 C197.42022,175.282804 185.34722,179.450804 177.41122,188.721804 C177.05222,189.135804 175.68222,189.482804 176.02922,188.502804 C177.86022,183.310804 180.98922,178.903804 184.44022,174.710804 C176.28322,179.843804 168.24322,185.739804 162.10122,193.149804 C157.00722,199.291804 152.69222,206.237804 146.09322,210.919804 C145.65022,211.233804 144.66322,211.387804 144.88722,210.521804 C145.77622,207.097804 147.08522,203.814804 148.10922,200.438804 C143.84722,204.017804 139.98022,208.030804 135.39522,211.233804 C134.67622,211.736804 133.66422,211.303804 134.40422,210.442804 C140.62322,203.215804 139.46922,193.091804 143.88422,184.963804 C146.06322,180.947804 148.88322,177.402804 151.77722,173.909804 L151.73622,173.929804 C145.33822,178.173804 140.36922,184.204804 136.88022,191.003804 C135.12722,194.426804 133.61522,198.132804 132.24722,201.722804 C129.21722,209.663804 122.81522,211.678804 115.49522,213.997804 C109.90622,215.767804 101.98422,215.881804 94.8512196,217.387804 C97.7232196,214.048804 100.82822,210.949804 104.00422,208.241804 C104.64122,207.697804 105.25022,205.589804 103.68722,206.054804 C90.3992196,210.005804 76.6792196,212.475804 64.3752196,219.212804 C59.1702196,222.063804 55.0492196,226.678804 51.6282196,231.450804 C49.2832196,234.721804 47.1742196,237.904804 45.3282196,241.485804 C44.9692196,242.180804 44.6712196,242.938804 44.3992196,243.719804 C43.7162196,240.016804 42.5452196,236.431804 40.7792196,233.108804 C41.2372196,240.108804 37.2412196,248.597804 34.1802196,253.382804 C31.9872196,256.819804 29.5552196,260.094804 27.0552196,263.320804 C25.0062196,266.554804 22.8902196,269.634804 20.9622196,272.493804 C13.3142196,283.846804 6.53821958,293.747804 4.40521958,307.594804 C0.206219584,334.839804 14.6482196,361.768804 33.7162196,380.064804 C43.2712196,389.233804 56.1582196,390.500804 68.6582196,392.004804 C82.6792196,393.690804 97.6942196,392.645804 111.27422,388.833804 C122.39422,385.713804 131.23722,378.324804 139.00722,370.044804 C143.82622,364.908804 148.16922,359.512804 152.63922,354.080804 C157.28022,348.437804 163.09322,344.999804 169.31522,341.723804 C170.09722,341.310804 171.24422,339.913804 170.29922,339.068804 C166.87622,336.009804 163.28922,334.848804 159.50422,334.572804 C167.04122,328.312804 175.43722,326.397804 184.87922,323.546804 C193.77022,320.863804 203.70422,316.460804 202.75422,305.433804 C202.37022,300.974804 199.07022,294.798804 200.54222,290.410804 C201.10522,288.731804 205.17222,288.710804 206.68222,288.565804 C210.70022,288.176804 215.55122,286.296804 218.55122,283.555804 C221.74422,280.639804 223.71622,277.314804 225.62222,273.801804 C225.98722,272.942804 226.32622,272.068804 226.61322,271.155804 C227.97622,266.855804 229.49322,262.253804 232.59222,258.843804 C234.71222,256.512804 237.26522,254.622804 240.05222,253.074804 C239.35722,253.247804 238.66422,253.428804 237.96622,253.619804" id="Fill-18" fill="#D6683E"></path><path d="M212.91922,177.436804 C213.66122,176.411804 212.55822,175.682804 211.64322,176.254804 C197.97922,184.834804 184.63522,193.742804 171.91822,203.681804 C165.09922,209.008804 157.87422,214.806804 151.90622,221.458804 C152.47022,220.054804 153.17022,218.749804 153.38322,217.193804 C153.50522,216.325804 152.52122,216.539804 152.12422,216.905804 C150.09622,218.773804 147.81022,220.430804 145.68422,222.245804 C146.50922,220.622804 147.18422,219.007804 147.64422,217.420804 C147.93522,216.426804 147.02222,215.892804 146.21222,216.505804 C137.57022,223.050804 127.00922,227.271804 117.58022,232.629804 C115.77022,233.659804 113.48222,234.645804 111.24022,235.790804 C113.96122,233.068804 116.61122,230.249804 117.77222,227.170804 C118.00722,226.547804 117.62422,225.809804 116.88322,225.994804 C106.47422,228.570804 95.6882196,232.109804 86.1072196,236.912804 C84.4972196,237.719804 81.9382196,239.516804 79.5362196,241.700804 C79.2852196,237.183804 77.7412196,233.003804 75.7952196,228.948804 C75.4962196,232.393804 74.3202196,235.867804 72.4432196,238.033804 C71.5302196,239.089804 70.4052196,239.999804 69.1522196,240.785804 C68.6252196,241.273804 68.0022196,241.662804 67.2432196,241.892804 C67.1342196,241.923804 67.0332196,241.963804 66.9252196,241.996804 C65.1072196,242.839804 63.1402196,243.441804 61.1852196,243.861804 C58.7602196,244.679804 56.3392196,245.508804 53.8982196,246.295804 C46.5182196,248.677804 40.1122196,250.518804 33.7512196,255.173804 C26.9122196,260.181804 20.3252196,267.074804 16.8162196,275.077804 C16.2112196,272.341804 16.0072196,269.339804 16.3292196,266.641804 C15.9052196,270.213804 9.80421958,276.155804 7.96421958,279.495804 C5.56921958,283.846804 3.59321958,288.397804 2.26921958,293.191804 C-0.358780416,302.719804 -0.416780416,312.779804 0.648219584,322.546804 C3.42721958,347.995804 16.2082196,371.389804 37.2522196,386.226804 C58.2172196,401.009804 86.4032196,404.673804 110.78322,397.863804 C115.86322,396.444804 120.81322,394.569804 125.52122,392.231804 C131.33022,388.299804 136.27722,383.273804 141.81722,378.568804 C145.08422,375.796804 148.60322,372.869804 152.59522,371.204804 C154.69322,370.331804 156.84122,369.662804 159.01622,369.081804 C155.47422,368.925804 151.94622,368.425804 148.41222,367.848804 C147.57822,367.712804 148.20622,366.674804 148.62922,366.451804 C151.98322,364.697804 155.57722,363.513804 158.97222,361.851804 C163.39522,359.684804 165.98422,357.053804 168.20622,352.647804 C168.36522,352.328804 168.52722,352.010804 168.68822,351.691804 C168.92422,350.581804 169.15322,349.503804 169.41222,348.524804 C170.34322,345.024804 172.25822,342.801804 174.42122,340.700804 C175.62722,338.525804 176.90522,336.391804 178.24022,334.286804 C175.15522,332.795804 170.08222,332.537804 167.04122,332.763804 C166.54822,332.800804 166.09322,332.880804 165.63222,332.953804 C167.21422,330.718804 169.00922,328.687804 172.59222,327.385804 C173.70622,326.982804 174.88522,326.667804 176.06522,326.341804 C180.94222,322.805804 183.99822,318.092804 185.52122,311.546804 C185.72622,310.651804 188.17022,299.937804 189.80322,293.904804 C185.52322,295.152804 181.67122,297.658804 178.07422,300.402804 C180.21422,294.792804 181.87922,289.005804 183.49722,283.181804 C185.97622,274.240804 189.74922,266.094804 192.49922,257.380804 C192.85922,256.245804 191.72022,255.503804 190.79922,256.296804 C183.36722,262.680804 175.96822,270.290804 169.74022,278.488804 C170.93722,275.561804 172.20622,272.658804 173.63322,269.795804 C177.74622,261.541804 183.50122,253.255804 186.25622,244.466804 C186.49722,243.698804 185.94022,243.162804 185.18422,243.474804 C182.46322,244.600804 180.20122,248.265804 178.17422,250.263804 C176.90922,251.508804 175.60822,252.730804 174.29322,253.947804 C178.89922,246.831804 183.58922,239.767804 188.87522,233.123804 C189.70722,232.077804 189.01822,230.583804 187.69922,231.538804 C179.50722,237.446804 171.66322,244.011804 163.52022,250.074804 C166.70322,246.244804 169.80222,242.346804 172.97322,238.497804 C177.24022,233.311804 182.35322,228.510804 186.23522,223.069804 C186.86922,222.180804 186.14722,221.285804 185.17022,221.647804 C180.61022,223.329804 175.99922,226.291804 171.69022,229.674804 C177.89622,219.538804 184.77222,210.057804 192.47122,200.778804 C199.02322,192.889804 206.92922,185.708804 212.91922,177.436804" id="Fill-19" fill="#E39F4D"></path><path d="M147.63322,306.623804 C143.22822,296.775804 151.22422,286.585804 140.57922,278.999804 C136.34222,275.980804 135.46922,270.543804 131.77322,267.675804 C126.61222,263.675804 119.39822,263.734804 114.78622,259.223804 C111.53622,256.039804 108.23322,254.889804 103.82822,254.375804 C102.47922,254.217804 101.16222,254.329804 99.8452196,254.440804 C98.1592196,254.582804 96.4732196,254.724804 94.7222196,254.303804 C92.3592196,253.736804 89.9742196,252.627804 87.5312196,252.400804 C85.8682196,252.247804 84.0792196,252.542804 82.3032196,252.838804 C80.0562196,253.211804 77.8292196,253.585804 75.9012196,253.052804 C70.0952196,251.444804 64.3812196,255.633804 58.6452196,255.820804 C49.6272196,256.117804 40.2562196,264.271804 33.9192196,269.962804 C27.6972196,275.547804 20.4432196,282.897804 20.4942196,291.696804 C20.5052196,293.974804 16.4442196,297.986804 15.5732196,300.528804 C14.4862196,303.711804 14.8882196,307.626804 15.5982196,310.840804 C15.7512196,311.747804 15.9132196,312.654804 16.0532196,313.558804 C17.7082196,324.182804 12.7602196,333.926804 18.1722196,344.301804 C20.5842196,348.923804 23.3992196,353.193804 26.2222196,357.571804 C29.1902196,362.172804 29.5182196,366.884804 34.1302196,370.281804 C37.2172196,372.554804 42.0292196,372.414804 45.5892196,372.163804 C50.8172196,371.796804 51.7492196,377.272804 55.7562196,378.829804 C59.4752196,380.271804 63.2912196,381.253804 67.2642196,381.576804 C69.4992196,381.758804 72.1152196,380.892804 74.2462196,380.387804 C78.6732196,379.342804 79.7602196,382.234804 83.5722196,382.663804 C92.5182196,383.671804 103.65422,379.209804 110.96422,374.115804 C119.67322,368.044804 130.79922,372.496804 137.44222,362.065804 C142.86422,353.541804 140.45422,342.392804 146.75922,334.663804 C154.24322,325.491804 152.08722,316.583804 147.63322,306.623804" id="Fill-20" fill="#8C614C"></path><g id="Group-23" transform="translate(30.860220, 286.047804)"><mask id="mask-2" fill="white"><use xlink:href="#path-1"></use></mask><g id="Clip-22"></g><polygon id="Fill-21" fill="#644334" mask="url(#mask-2)" points="0.325 20.238 16.429 20.238 16.429 0.899 0.325 0.899"></polygon></g><path d="M94.7292196,314.579804 C93.5692196,314.579804 92.5542196,313.675804 91.9112196,312.690804 C90.3332196,310.283804 89.2532196,307.634804 91.0922196,305.001804 C91.6202196,304.246804 92.1732196,303.947804 92.7142196,303.947804 C92.7242196,303.947804 92.7332196,303.947804 92.7432196,303.947804 C93.0022196,303.713804 93.2632196,303.482804 93.5842196,303.295804 C94.0242196,303.037804 94.4922196,302.909804 94.9422196,302.909804 C95.7482196,302.909804 96.4972196,303.321804 96.9302196,304.150804 C97.0922196,304.458804 97.2362196,304.795804 97.3732196,305.143804 C97.5202196,305.381804 97.6422196,305.653804 97.7232196,305.969804 C97.7632196,306.120804 97.7632196,306.275804 97.7892196,306.425804 C98.2442196,308.111804 98.3762196,309.979804 97.9482196,311.485804 C97.5882196,312.758804 96.8272196,313.957804 95.5332196,314.432804 C95.2592196,314.533804 94.9902196,314.579804 94.7292196,314.579804" id="Fill-24" fill="#644334"></path><path d="M76.2862196,271.398804 C76.3082196,271.225804 76.3452196,271.053804 76.3882196,270.891804 C76.5742196,270.187804 77.3452196,269.547804 78.1012196,269.351804 C77.5142196,270.051804 76.9052196,270.729804 76.2862196,271.398804" id="Fill-25" fill="#644334"></path><path d="M129.38622,305.314804 C129.33522,305.296804 129.28522,305.274804 129.23622,305.247804 C128.85222,305.031804 128.65022,304.780804 128.41022,304.452804 C127.83222,303.943804 127.52222,303.237804 127.42322,302.457804 C126.91822,301.617804 126.98022,300.408804 127.21922,299.527804 C127.55922,298.273804 128.54622,297.112804 129.74422,296.608804 C129.95722,296.518804 130.16222,296.454804 130.35822,296.412804 C130.15822,297.641804 129.98522,298.843804 129.88122,299.993804 C129.71922,301.768804 129.55522,303.542804 129.38622,305.314804" id="Fill-26" fill="#644334"></path><path d="M61.1392196,307.552804 C60.8632196,307.552804 60.5982196,307.455804 60.3752196,307.230804 L60.3122196,307.167804 C59.6732196,306.522804 60.0692196,305.517804 60.5892196,304.938804 L60.6662196,304.854804 C61.0042196,304.477804 61.4852196,304.212804 61.9832196,304.212804 C62.1202196,304.212804 62.2582196,304.232804 62.3942196,304.275804 C62.5682196,304.330804 62.7222196,304.428804 62.8512196,304.555804 C62.9722196,304.675804 63.0592196,304.808804 63.1142196,304.950804 C62.5612196,305.781804 62.0102196,306.636804 61.4872196,307.504804 C61.3712196,307.535804 61.2542196,307.552804 61.1392196,307.552804" id="Fill-27" fill="#644334"></path><path d="M81.2332196,377.615804 C81.1872196,377.615804 81.1422196,377.610804 81.0982196,377.600804 C79.7832196,377.307804 78.4092196,377.212804 77.0092196,377.212804 C75.6832196,377.212804 74.3332196,377.297804 72.9822196,377.383804 C72.0572196,377.442804 71.1312196,377.501804 70.2132196,377.532804 C65.3832196,376.421804 61.1322196,374.535804 57.4142196,372.044804 C56.2012196,370.756804 54.9642196,369.559804 53.3562196,368.909804 C47.4302196,363.666804 43.1582196,356.701804 40.2892196,348.988804 C40.2912196,348.988804 40.2932196,348.988804 40.2952196,348.988804 C40.8192196,348.988804 41.5652196,348.528804 41.1632196,347.919804 L41.0562196,347.759804 C40.9612196,347.616804 40.8442196,347.559804 40.7222196,347.559804 C40.4462196,347.559804 40.1472196,347.851804 40.0352196,348.096804 L39.9952196,348.182804 C37.7392196,341.864804 36.4062196,335.073804 35.8612196,328.338804 C34.1962196,336.361804 34.1512196,346.860804 39.3672196,358.745804 C39.3672196,358.745804 35.7012196,354.468804 32.1242196,347.117804 C32.3602196,346.947804 32.5262196,346.747804 32.7042196,346.550804 L32.7432196,346.509804 C32.8582196,346.378804 32.9642196,346.244804 33.0572196,346.102804 C33.8522196,345.013804 34.2112196,343.471804 34.1672196,342.157804 C34.0702196,339.385804 32.8212196,335.489804 30.2142196,334.114804 C29.8312196,333.912804 29.4662196,333.822804 29.1242196,333.822804 C28.4912196,333.822804 27.9342196,334.130804 27.4652196,334.602804 C26.6602196,331.542804 26.0302196,328.247804 25.6832196,324.753804 C28.6602196,321.065804 31.8812196,316.746804 34.7612196,316.746804 C35.2262196,316.746804 35.6822196,316.859804 36.1272196,317.105804 C38.4682196,318.399804 40.9602196,323.196804 39.2052196,325.605804 C38.4982196,326.576804 37.6202196,327.443804 37.2172196,328.609804 C36.5702196,330.491804 36.5102196,331.300804 37.4692196,333.067804 C39.3042196,336.455804 39.3532196,338.790804 39.1642196,342.511804 C39.1472196,342.857804 39.4232196,342.998804 39.7102196,342.998804 C39.8032196,342.998804 39.8982196,342.983804 39.9842196,342.956804 C41.7782196,342.375804 43.3862196,341.668804 45.0372196,340.746804 C45.0902196,340.716804 45.1412196,340.701804 45.1892196,340.701804 C46.0442196,340.701804 45.9622196,345.285804 46.0972196,345.973804 C46.8832196,349.915804 50.5772196,349.856804 53.5632196,351.753804 C53.6442196,351.805804 53.7372196,351.826804 53.8342196,351.826804 C54.0962196,351.826804 54.3892196,351.670804 54.5582196,351.524804 C57.4892196,349.003804 67.9022196,343.905804 61.1042196,339.118804 C59.4382196,337.946804 57.5512196,337.264804 56.1512196,335.731804 C54.6542196,334.087804 55.2802196,331.508804 55.6792196,329.636804 C56.0892196,327.697804 56.7662196,325.802804 57.5542196,323.989804 C58.3642196,322.127804 59.4942196,321.346804 60.8322196,321.346804 C61.6942196,321.346804 62.6412196,321.670804 63.6442196,322.238804 C66.8182196,324.031804 71.9832196,327.041804 71.2712196,331.350804 C70.7932196,334.269804 69.6122196,336.979804 72.2652196,339.273804 C73.6962196,340.512804 75.3962196,341.209804 76.7792196,342.610804 C78.0762196,343.929804 78.5412196,347.174804 79.0382196,348.935804 C79.3252196,349.940804 78.9292196,351.514804 80.4292196,351.513804 C80.4352196,351.513804 80.4412196,351.513804 80.4472196,351.513804 C84.1692196,351.480804 90.5872196,350.947804 91.6822196,346.579804 C92.0802196,344.994804 92.2712196,343.421804 92.7922196,341.859804 C93.3232196,340.267804 93.9202196,339.984804 94.7812196,339.984804 C95.2352196,339.984804 95.7632196,340.063804 96.3922196,340.069804 C96.6052196,340.072804 96.8632196,340.076804 97.1512196,340.076804 C98.5612196,340.076804 100.67922,339.987804 101.58322,339.231804 C104.44322,336.828804 106.35222,333.438804 109.02822,330.856804 C109.91122,330.004804 110.95322,329.685804 112.09022,329.685804 C113.77722,329.685804 115.67122,330.385804 117.56422,331.086804 C119.45722,331.786804 121.34722,332.486804 123.02422,332.486804 C123.28622,332.486804 123.54422,332.469804 123.79522,332.432804 C128.40122,331.753804 129.93122,328.072804 129.96522,324.185804 C130.07022,324.079804 130.15922,323.965804 130.22722,323.844804 C130.83122,322.779804 131.39222,321.550804 131.94222,320.243804 C132.52922,320.114804 133.11922,320.009804 133.71322,319.920804 C132.13322,326.238804 130.69922,332.615804 130.37222,338.851804 C130.31822,339.880804 131.01022,340.461804 131.81522,340.461804 C132.23122,340.461804 132.67722,340.305804 133.06522,339.976804 C138.84522,335.071804 144.63722,328.386804 147.84022,321.452804 C148.92122,319.111804 149.78922,316.700804 150.52522,314.246804 C151.25322,316.762804 151.68522,319.228804 151.68522,321.668804 C151.68522,325.839804 150.42522,329.936804 147.22122,334.082804 C151.57322,328.450804 152.33222,322.904804 151.22022,317.143804 C150.48322,321.244804 150.76722,325.504804 148.15722,329.011804 C147.34622,330.100804 145.86822,330.740804 144.67022,331.237804 C139.63822,333.325804 140.87022,337.345804 140.33822,341.571804 C140.13522,343.164804 139.12922,344.587804 138.05722,345.714804 C135.87922,348.009804 135.59822,350.204804 135.11522,353.330804 C134.89522,354.760804 134.58622,356.173804 134.00322,357.444804 C130.71622,359.766804 126.95822,362.213804 123.10822,364.302804 C121.74822,364.588804 120.33522,364.775804 118.86022,364.899804 C118.52222,364.928804 118.17822,364.953804 117.82922,364.976804 L125.24022,354.971804 C125.24022,354.971804 124.58522,355.619804 123.33822,356.666804 C120.95922,359.690804 118.41522,362.563804 115.59022,365.128804 C113.50922,365.287804 111.40022,365.553804 109.57122,366.346804 C106.51122,367.672804 106.63622,370.008804 104.75022,372.104804 C103.56222,373.422804 101.15822,373.794804 99.5592196,374.183804 C97.4692196,374.694804 95.4262196,375.617804 93.2892196,375.941804 C92.6682196,376.036804 92.0762196,376.081804 91.5092196,376.081804 C88.7822196,376.082804 86.6082196,375.027804 84.3532196,373.291804 C83.5602196,374.465804 82.8492196,375.631804 82.2342196,376.944804 C82.0782196,377.273804 81.6302196,377.615804 81.2332196,377.615804 M91.0882196,366.941804 C90.8742196,367.775804 90.6722196,368.950804 91.2282196,369.734804 C91.7262196,370.435804 92.3262196,370.704804 92.9512196,370.704804 C93.2082196,370.704804 93.4682196,370.659804 93.7272196,370.580804 C93.9492196,370.633804 94.1652196,370.659804 94.3742196,370.659804 C96.2202196,370.659804 97.5572196,368.689804 97.9162196,366.977804 C98.2132196,365.536804 98.0262196,363.861804 96.9892196,362.757804 C96.5892196,362.330804 95.9582196,362.131804 95.3332196,362.131804 C94.8822196,362.131804 94.4342196,362.235804 94.0812196,362.432804 C92.9122196,363.080804 92.0292196,363.972804 91.5302196,365.231804 C91.3722196,365.635804 91.2832196,366.044804 91.1802196,366.468804 C91.1502196,366.593804 91.0032196,367.225804 91.0102196,367.225804 C91.0132196,367.225804 91.0352196,367.147804 91.0882196,366.941804 M54.9112196,359.768804 C54.4532196,359.768804 54.0052196,360.360804 53.9142196,360.747804 C53.6602196,361.454804 53.9692196,362.674804 54.8322196,362.859804 C54.9852196,362.891804 55.1372196,362.909804 55.2822196,362.909804 C55.8682196,362.909804 56.3452196,362.621804 56.4202196,361.873804 C56.4822196,361.228804 56.0702196,360.579804 55.5762196,360.142804 C55.5242196,360.056804 55.4542196,359.985804 55.3362196,359.960804 L55.1852196,359.845804 C55.0952196,359.792804 55.0032196,359.768804 54.9112196,359.768804 M114.38322,354.060804 C114.02422,354.060804 113.62522,354.360804 113.38922,354.552804 C112.92922,354.932804 112.62722,355.427804 112.65622,356.036804 C112.68222,356.585804 113.14122,356.791804 113.60622,356.791804 C113.85822,356.791804 114.11222,356.731804 114.29922,356.631804 C114.83822,356.351804 115.57622,355.623804 115.37322,354.926804 L115.33222,354.779804 C115.25122,354.479804 115.08922,354.326804 114.80122,354.261804 L114.62822,354.116804 C114.55022,354.077804 114.46722,354.060804 114.38322,354.060804 M128.54022,352.374804 C128.16322,352.940804 127.94622,353.596804 128.04922,354.317804 C128.19222,355.312804 128.97722,355.747804 129.82222,355.747804 C130.42122,355.747804 131.05022,355.529804 131.50322,355.136804 L131.63622,355.021804 C131.85622,354.833804 132.00522,354.703804 132.10322,354.617804 C132.94522,354.005804 133.60422,353.165804 133.73722,352.084804 C133.89022,350.864804 133.07422,349.927804 131.93322,349.927804 C131.78122,349.927804 131.62422,349.943804 131.46322,349.978804 L131.43322,349.986804 C130.96222,350.087804 130.53022,350.319804 130.13122,350.601804 L130.13422,350.581804 L130.06522,350.651804 C129.78122,350.860804 129.53122,351.102804 129.30922,351.379804 L129.20722,351.498804 L129.09622,351.642804 C128.97422,351.792804 128.85222,351.951804 128.73122,352.115804 L128.56922,352.326804 L128.52822,352.379804 L128.54022,352.374804 M94.9622196,348.911804 C93.6092196,348.911804 92.4012196,349.890804 91.9432196,351.145804 C91.5742196,352.156804 91.8992196,353.658804 93.2332196,353.658804 C94.5862196,353.658804 95.7982196,352.679804 96.2522196,351.424804 C96.6212196,350.413804 96.2962196,348.911804 94.9622196,348.911804 M111.01522,337.442804 C110.83522,337.442804 110.65722,337.465804 110.48422,337.513804 C109.10222,337.898804 108.09922,338.781804 107.30622,339.954804 C106.13822,341.684804 105.16922,343.791804 105.86622,345.872804 C106.13022,346.660804 106.83122,346.946804 107.60022,346.946804 C108.44222,346.946804 109.36522,346.602804 109.88322,346.197804 C111.30922,345.079804 112.31222,343.994804 112.67722,342.163804 L112.67422,341.993804 C112.72122,341.888804 112.78122,341.789804 112.82622,341.684804 C113.22022,340.799804 113.40422,339.681804 113.04722,338.757804 C112.73922,337.964804 111.87022,337.442804 111.01522,337.442804 M64.2662196,325.496804 C63.5452196,325.496804 62.7762196,325.829804 62.1402196,326.525804 L62.1372196,326.532804 C61.3472196,326.930804 60.9282196,328.017804 60.7392196,328.880804 C60.3602196,329.927804 60.2102196,331.048804 60.2602196,332.257804 C60.3042196,333.303804 61.0532196,334.026804 62.0342196,334.183804 L62.0562196,334.199804 C62.4522196,334.385804 62.8232196,334.470804 63.1692196,334.470804 C65.7812196,334.471804 66.9632196,329.651804 66.5802196,327.630804 C66.3122196,326.238804 65.3422196,325.496804 64.2662196,325.496804 M34.3702196,323.244804 C32.9582196,323.244804 31.6962196,324.265804 31.2242196,325.570804 C30.8412196,326.626804 31.1762196,328.191804 32.5702196,328.191804 C33.9792196,328.191804 35.2392196,327.170804 35.7102196,325.864804 C36.0942196,324.809804 35.7592196,323.244804 34.3702196,323.244804 M32.0342196,318.599804 C31.7532196,318.599804 31.3572196,318.938804 31.3242196,319.212804 C31.3052196,319.372804 31.2872196,319.534804 31.2682196,319.694804 C31.2342196,319.998804 31.3942196,320.123804 31.6032196,320.123804 C31.9472196,320.123804 32.4212196,319.782804 32.3642196,319.335804 C32.3452196,319.187804 32.3272196,319.038804 32.3082196,318.889804 C32.2822196,318.680804 32.1722196,318.599804 32.0342196,318.599804" id="Fill-28" fill="#4E271E"></path><path d="M32.1242196,347.117804 C30.4142196,343.603804 28.7252196,339.390804 27.4652196,334.602804 C27.9342196,334.130804 28.4912196,333.822804 29.1242196,333.822804 C29.4662196,333.822804 29.8312196,333.912804 30.2142196,334.114804 C32.8212196,335.489804 34.0702196,339.385804 34.1672196,342.157804 C34.2112196,343.471804 33.8522196,345.013804 33.0572196,346.102804 C32.9642196,346.244804 32.8582196,346.378804 32.7432196,346.509804 L32.7042196,346.550804 C32.5262196,346.747804 32.3602196,346.947804 32.1242196,347.117804" id="Fill-29" fill="#371C16"></path><path d="M63.1692196,334.470804 C62.8232196,334.470804 62.4522196,334.385804 62.0562196,334.199804 L62.0342196,334.183804 C61.0532196,334.026804 60.3042196,333.303804 60.2602196,332.257804 C60.2102196,331.048804 60.3602196,329.927804 60.7392196,328.880804 C60.9282196,328.017804 61.3472196,326.930804 62.1372196,326.532804 L62.1402196,326.525804 C62.7762196,325.829804 63.5452196,325.496804 64.2662196,325.496804 C65.3422196,325.496804 66.3122196,326.238804 66.5802196,327.630804 C66.9632196,329.651804 65.7812196,334.471804 63.1692196,334.470804" id="Fill-30" fill="#371C16"></path><path d="M55.2822196,362.909804 C55.1372196,362.909804 54.9852196,362.891804 54.8322196,362.859804 C53.9692196,362.674804 53.6602196,361.454804 53.9142196,360.747804 C54.0052196,360.360804 54.4532196,359.768804 54.9112196,359.768804 C55.0032196,359.768804 55.0952196,359.792804 55.1852196,359.845804 L55.3362196,359.960804 C55.4542196,359.985804 55.5242196,360.056804 55.5762196,360.142804 C56.0702196,360.579804 56.4822196,361.228804 56.4202196,361.873804 C56.3452196,362.621804 55.8682196,362.909804 55.2822196,362.909804" id="Fill-31" fill="#371C16"></path><path d="M92.9512196,370.704804 C92.3262196,370.704804 91.7262196,370.435804 91.2282196,369.734804 C90.6722196,368.950804 90.8742196,367.775804 91.0882196,366.941804 C91.0352196,367.147804 91.0132196,367.225804 91.0102196,367.225804 C91.0032196,367.225804 91.1502196,366.593804 91.1802196,366.468804 C91.2832196,366.044804 91.3722196,365.635804 91.5302196,365.231804 C92.0292196,363.972804 92.9122196,363.080804 94.0812196,362.432804 C94.4342196,362.235804 94.8822196,362.131804 95.3332196,362.131804 C95.9582196,362.131804 96.5892196,362.330804 96.9892196,362.757804 C98.0262196,363.861804 98.2132196,365.536804 97.9162196,366.977804 C97.5572196,368.689804 96.2202196,370.659804 94.3742196,370.659804 C94.1652196,370.659804 93.9492196,370.633804 93.7272196,370.580804 C93.4682196,370.659804 93.2082196,370.704804 92.9512196,370.704804" id="Fill-32" fill="#371C16"></path><path d="M107.60022,346.946804 C106.83122,346.946804 106.13022,346.660804 105.86622,345.872804 C105.16922,343.791804 106.13822,341.684804 107.30622,339.954804 C108.09922,338.781804 109.10222,337.898804 110.48422,337.513804 C110.65722,337.465804 110.83522,337.442804 111.01522,337.442804 C111.87022,337.442804 112.73922,337.964804 113.04722,338.757804 C113.40422,339.681804 113.22022,340.799804 112.82622,341.684804 C112.78122,341.789804 112.72122,341.888804 112.67422,341.993804 L112.67722,342.163804 C112.31222,343.994804 111.30922,345.079804 109.88322,346.197804 C109.36522,346.602804 108.44222,346.946804 107.60022,346.946804" id="Fill-33" fill="#371C16"></path><path d="M31.6032196,320.123804 C31.3942196,320.123804 31.2342196,319.998804 31.2682196,319.694804 C31.2872196,319.534804 31.3052196,319.372804 31.3242196,319.212804 C31.3572196,318.938804 31.7532196,318.599804 32.0342196,318.599804 C32.1722196,318.599804 32.2822196,318.680804 32.3082196,318.889804 C32.3272196,319.038804 32.3452196,319.187804 32.3642196,319.335804 C32.4212196,319.782804 31.9472196,320.123804 31.6032196,320.123804" id="Fill-34" fill="#371C16"></path><path d="M32.5702196,328.191804 C31.1762196,328.191804 30.8412196,326.626804 31.2242196,325.570804 C31.6962196,324.265804 32.9582196,323.244804 34.3702196,323.244804 C35.7592196,323.244804 36.0942196,324.809804 35.7102196,325.864804 C35.2392196,327.170804 33.9792196,328.191804 32.5702196,328.191804" id="Fill-35" fill="#371C16"></path><path d="M40.2952196,348.988804 C40.2932196,348.988804 40.2912196,348.988804 40.2892196,348.988804 C40.1892196,348.720804 40.0912196,348.452804 39.9952196,348.182804 L40.0352196,348.096804 C40.1472196,347.851804 40.4462196,347.559804 40.7222196,347.559804 C40.8442196,347.559804 40.9612196,347.616804 41.0562196,347.759804 L41.1632196,347.919804 C41.5652196,348.528804 40.8192196,348.988804 40.2952196,348.988804" id="Fill-36" fill="#371C16"></path><path d="M93.2332196,353.658804 C91.8992196,353.658804 91.5742196,352.156804 91.9432196,351.145804 C92.4012196,349.890804 93.6092196,348.911804 94.9622196,348.911804 C96.2962196,348.911804 96.6212196,350.413804 96.2522196,351.424804 C95.7982196,352.679804 94.5862196,353.658804 93.2332196,353.658804" id="Fill-37" fill="#371C16"></path><path d="M113.60622,356.791804 C113.14122,356.791804 112.68222,356.585804 112.65622,356.036804 C112.62722,355.427804 112.92922,354.932804 113.38922,354.552804 C113.62522,354.360804 114.02422,354.060804 114.38322,354.060804 C114.46722,354.060804 114.55022,354.077804 114.62822,354.116804 L114.80122,354.261804 C115.08922,354.326804 115.25122,354.479804 115.33222,354.779804 L115.37322,354.926804 C115.57622,355.623804 114.83822,356.351804 114.29922,356.631804 C114.11222,356.731804 113.85822,356.791804 113.60622,356.791804" id="Fill-38" fill="#371C16"></path><path d="M129.82222,355.747804 C128.97722,355.747804 128.19222,355.312804 128.04922,354.317804 C127.94622,353.596804 128.16322,352.940804 128.54022,352.374804 L128.52822,352.379804 L128.56922,352.326804 L128.73122,352.115804 C128.85222,351.951804 128.97422,351.792804 129.09622,351.642804 L129.20722,351.498804 L129.30922,351.379804 C129.53122,351.102804 129.78122,350.860804 130.06522,350.651804 L130.13422,350.581804 L130.13122,350.601804 C130.53022,350.319804 130.96222,350.087804 131.43322,349.986804 L131.46322,349.978804 C131.62422,349.943804 131.78122,349.927804 131.93322,349.927804 C133.07422,349.927804 133.89022,350.864804 133.73722,352.084804 C133.60422,353.165804 132.94522,354.005804 132.10322,354.617804 C132.00522,354.703804 131.85622,354.833804 131.63622,355.021804 L131.50322,355.136804 C131.05022,355.529804 130.42122,355.747804 129.82222,355.747804" id="Fill-39" fill="#371C16"></path><path d="M20.4942196,291.664804 C20.4932196,291.475804 20.4952196,291.286804 20.5012196,291.098804 C20.4952196,291.286804 20.4932196,291.474804 20.4942196,291.664804" id="Fill-40" fill="#824425"></path><path d="M18.1722196,344.301804 C16.1222196,340.370804 15.5582196,336.529804 15.5602196,332.697804 C15.5612196,328.006804 16.4092196,323.327804 16.4102196,318.510804 C16.4102196,316.877804 16.3132196,315.229804 16.0532196,313.558804 C15.9132196,312.654804 15.7512196,311.747804 15.5982196,310.840804 C15.2032196,309.051804 14.9032196,307.045804 14.9022196,305.069804 C14.9022196,303.495804 15.0912196,301.939804 15.5732196,300.528804 C16.4422196,297.991804 20.4902196,293.989804 20.4942196,291.709804 C20.4942196,291.705804 20.4942196,291.700804 20.4942196,291.696804 C20.4942196,291.685804 20.4942196,291.674804 20.4942196,291.664804 C20.4932196,291.474804 20.4952196,291.286804 20.5012196,291.098804 C20.5022196,291.091804 20.5022196,291.084804 20.5022196,291.077804 C20.5022196,291.073804 20.5022196,291.069804 20.5032196,291.065804 C20.6162196,287.733804 21.7752196,284.617804 23.4962196,281.727804 C23.6782196,282.903804 24.0782196,284.127804 24.7812196,285.425804 C25.3712196,286.521804 26.6712196,289.682804 25.9872196,290.904804 C24.9432196,292.765804 23.4802196,294.182804 22.1502196,295.804804 C20.9662196,297.245804 21.2502196,298.650804 21.9612196,300.078804 C19.1282196,302.226804 16.8352196,304.369804 20.4102196,307.044804 C22.7512196,308.794804 23.6922196,310.740804 23.8442196,312.809804 C23.3152196,314.738804 22.8202196,316.987804 22.4492196,319.546804 C21.2522196,322.773804 19.7222196,326.096804 19.6662196,329.300804 C19.6592196,329.659804 19.8872196,329.775804 20.1532196,329.775804 C20.3382196,329.775804 20.5402196,329.718804 20.6942196,329.649804 C21.0492196,329.487804 21.4162196,329.250804 21.7942196,328.954804 C21.8002196,333.439804 22.2392196,338.494804 23.3562196,344.085804 C22.8872196,343.702804 22.4112196,343.321804 21.9282196,342.932804 C17.4052196,339.288804 16.5502196,335.377804 15.7352196,329.750804 C15.7162196,329.618804 15.7072196,329.486804 15.6882196,329.354804 C15.3632196,334.302804 15.5262196,339.227804 18.1722196,344.301804" id="Fill-41" fill="#4E271E"></path><path d="M146.75922,334.663804 C146.76822,334.653804 146.77622,334.643804 146.78422,334.633804 C146.77622,334.643804 146.76822,334.653804 146.75922,334.663804" id="Fill-42" fill="#4E271E"></path><path d="M146.79422,334.621804 C146.79922,334.614804 146.80422,334.609804 146.80922,334.603804 C146.80422,334.609804 146.79922,334.614804 146.79422,334.621804" id="Fill-43" fill="#4E271E"></path><path d="M146.82122,334.587804 C146.82522,334.582804 146.82922,334.578804 146.83322,334.573804 C146.82922,334.578804 146.82522,334.582804 146.82122,334.587804" id="Fill-44" fill="#4E271E"></path><path d="M146.84622,334.557804 C146.84922,334.553804 146.85222,334.549804 146.85522,334.546804 C146.85222,334.550804 146.84922,334.553804 146.84622,334.557804" id="Fill-45" fill="#4E271E"></path><path d="M146.88422,334.510804 C146.88622,334.507804 146.88922,334.503804 146.89222,334.500804 C146.88922,334.503804 146.88622,334.507804 146.88422,334.510804" id="Fill-46" fill="#4E271E"></path><path d="M146.90722,334.481804 C146.91022,334.477804 146.91322,334.474804 146.91622,334.470804 C146.91322,334.473804 146.91022,334.477804 146.90722,334.481804" id="Fill-47" fill="#4E271E"></path><path d="M146.93122,334.451804 C146.93422,334.447804 146.93622,334.444804 146.93922,334.441804 C146.93722,334.444804 146.93322,334.448804 146.93122,334.451804" id="Fill-48" fill="#4E271E"></path><path d="M146.99322,334.373804 C146.99522,334.370804 146.99722,334.368804 146.99922,334.365804 C146.99722,334.368804 146.99522,334.370804 146.99322,334.373804" id="Fill-49" fill="#4E271E"></path><path d="M147.03922,334.315804 C147.04222,334.312804 147.04422,334.308804 147.04722,334.305804 C147.04422,334.309804 147.04222,334.311804 147.03922,334.315804" id="Fill-50" fill="#4E271E"></path><path d="M147.07122,334.275804 C147.07522,334.269804 147.07922,334.264804 147.08422,334.258804 C147.08022,334.263804 147.07522,334.269804 147.07122,334.275804" id="Fill-51" fill="#4E271E"></path><path d="M147.09522,334.243804 C147.10022,334.237804 147.10422,334.232804 147.10922,334.226804 C147.10522,334.232804 147.10022,334.238804 147.09522,334.243804" id="Fill-52" fill="#4E271E"></path><path d="M147.11922,334.213804 C147.12422,334.207804 147.13022,334.200804 147.13522,334.193804 C147.12922,334.200804 147.12422,334.206804 147.11922,334.213804" id="Fill-53" fill="#4E271E"></path><path d="M147.14322,334.182804 C147.15122,334.172804 147.15922,334.162804 147.16722,334.152804 C147.15922,334.162804 147.15122,334.172804 147.14322,334.182804" id="Fill-54" fill="#4E271E"></path><path d="M147.17022,334.148804 C147.17722,334.139804 147.18522,334.129804 147.19222,334.119804 C147.18522,334.129804 147.17722,334.138804 147.17022,334.148804" id="Fill-55" fill="#4E271E"></path><path d="M146.25122,303.123804 C146.28622,302.815804 146.33122,302.501804 146.38422,302.183804 C146.41022,302.366804 146.43822,302.548804 146.46922,302.731804 C146.39722,302.862804 146.32422,302.993804 146.25122,303.123804" id="Fill-56" fill="#4E271E"></path></g></g></g></svg>