<?xml version="1.0" encoding="UTF-8"?>
<svg width="795px" height="326px" viewBox="0 0 795 326" version="1.1" xmlns="http://www.w3.org/2000/svg" xmlns:xlink="http://www.w3.org/1999/xlink">
    <!-- Generator: Sketch 55.2 (78181) - https://sketchapp.com -->
    <title>Group 4</title>
    <desc>Created with Sketch.</desc>
    <g id="Page-1" stroke="none" stroke-width="1" fill="none" fill-rule="evenodd">
        <g id="5756" transform="translate(-2438.000000, -634.000000)">
            <g id="Group-4" transform="translate(2438.100000, 634.083886)">
                <path d="M0,325.766114 C0,325.766114 14.61,300.810114 37.74,297.158114 C60.87,293.506114 79.13,292.897114 85.21,289.854114 C91.3,286.811114 113.21,264.899114 129.04,260.638114 C144.86,256.378114 228.86,229.597114 250.77,226.553114 C272.68,223.510114 288.51,221.075114 302.51,202.815114 C316.51,184.556114 342.68,157.166114 349.98,125.515114 C357.29,93.865114 359.72,21.434114 362.77,17.782114 C365.81,14.130114 455.28,-0.477885999 469.89,2.565114 C484.5,5.608114 503.98,90.213114 513.71,98.734114 C523.45,107.255114 547.19,120.037114 551.45,129.167114 C555.71,138.297114 569.71,185.164114 584.93,191.859114 C600.14,198.555114 605.01,200.381114 606.84,206.467114 C608.67,212.554114 617.19,209.511114 623.27,218.641114 C629.36,227.770114 634.84,242.378114 637.88,242.987114 C640.92,243.596114 667.83,245.340114 699.36,255.769114 C778.48,281.941114 793.09,325.766114 793.09,325.766114 L0,325.766114" id="Fill-84" fill="#878787"></path>
                <path d="M469.89,2.565114 C469.89,2.565114 430.62,-1.049886 404.23,0.303114001 C374.24,1.841114 365.79,5.685114 361.17,14.912114 C356.56,24.138114 353.48,111.020114 344.26,131.010114 C335.03,151.000114 309.66,194.826114 295.05,205.590114 C280.44,216.354114 239.69,227.887114 239.69,227.887114 C239.69,227.887114 326.57,234.038114 351.95,220.967114 C377.32,207.896114 382.7,195.595114 383.47,178.680114 C384.24,161.765114 388.08,131.779114 395.77,120.246114 C403.46,108.713114 404.23,101.024114 404.23,77.958114 C404.23,54.893114 397.34,25.795114 409.61,17.987114 C426.53,7.223114 456.36,1.752114 469.89,2.565114" id="Fill-85" fill="#A5A5A5"></path>
                <path d="M418.84,101.021114 C419.87,89.909114 417.93,76.383114 417.3,64.888114 C416.66,53.211114 417.65,40.412114 418.84,31.058114 L416.53,27.213114 C409.55,29.075114 410.65,60.516114 411.17,67.197114 C412.26,81.138114 414.33,95.312114 410.17,108.713114 C405.6,123.399114 406.58,134.972114 407.32,150.234114 C408.1,166.280114 405.93,181.026114 402.73,196.363114 C399.7,210.920114 395.03,224.984114 395.91,240.090114 C402.59,237.225114 405.27,215.577114 406.55,208.683114 C408.79,196.724114 412.36,184.455114 413.5,172.568114 C414.72,159.849114 410.88,147.293114 411.15,135.623114 C411.43,123.645114 417.76,112.572114 418.84,101.021114" id="Fill-86" fill="#A5A5A5"></path>
                <path d="M439.43,144.081114 C437.45,131.799114 436.92,119.241114 438.06,106.409114 C440.23,82.157114 441.29,55.982114 436.56,31.787114 C435.87,28.267114 434.65,13.547114 438.06,15.681114 L435.75,13.374114 C425.32,16.223114 433.57,39.088114 434.26,46.395114 C435.62,60.964114 436.52,75.949114 435.75,90.818114 C434.97,106.006114 431.18,121.837114 432.66,137.161114 C433.25,143.221114 435.1,148.714114 435.79,154.845114 C436.48,160.964114 435.41,169.004114 437.25,174.835114 C437.87,176.800114 438.09,178.416114 439.02,180.099114 C445.3,174.085114 440.66,151.741114 439.43,144.081114" id="Fill-87" fill="#A5A5A5"></path>
                <path d="M428.83,96.409114 C429.22,88.507114 432.44,71.771114 428.07,65.544114 C426.36,67.558114 426.15,70.412114 426.53,73.345114 L425.76,92.567114 C422.89,105.023114 423.83,117.354114 420.57,130.238114 C416.31,147.022114 421.91,160.866114 421.91,177.718114 C421.91,194.334114 422.62,211.863114 419.61,228.058114 C416.84,242.963114 412.7,256.340114 413.59,271.651114 C419.64,265.967114 420.94,244.743114 421.74,236.173114 C422.93,223.603114 425.89,211.367114 426.52,198.670114 C427.17,185.751114 425.76,173.170114 425.76,160.227114 C425.76,153.664114 423.28,149.424114 422.69,144.078114 C422.07,138.509114 425.78,131.311114 426.57,125.628114 C427.89,116.076114 428.36,105.959114 428.83,96.409114" id="Fill-88" fill="#A5A5A5"></path>
                <path d="M476.5,4.147114 C472.08,1.084114 465.74,-0.465885999 465.74,6.454114 C465.74,13.374114 482.65,84.878114 494.19,100.255114 C505.72,115.633114 536.47,121.015114 541.09,129.472114 C545.7,137.930114 541.09,178.680114 548.01,189.444114 C554.93,200.208114 579.53,193.288114 588.76,200.208114 C597.98,207.127114 612.59,214.047114 614.9,220.967114 C617.2,227.887114 614.13,243.264114 622.59,244.802114 C631.04,246.340114 697.17,277.094114 706.39,288.627114 C715.62,300.160114 726.91,325.766114 726.91,325.766114 L793.09,325.766114 C793.09,325.766114 754.06,267.868114 717.16,255.566114 C680.25,243.264114 642.58,235.576114 636.43,222.505114 C630.28,209.434114 608.75,188.675114 593.37,179.448114 C577.99,170.222114 558,124.090114 551.08,115.633114 C544.16,107.175114 529.55,109.482114 518.02,91.798114 C506.49,74.114114 486.5,11.067114 476.5,4.147114" id="Fill-89" fill="#6D6D6D"></path>
                <path d="M520.52,192.519114 C517.94,180.306114 514.12,167.698114 510.36,155.614114 C508.57,149.868114 507.76,142.427114 505.12,137.161114 C502.6,132.113114 498.52,130.372114 493.45,126.975114 C482.96,119.935114 483.34,105.977114 480.35,94.104114 C476.77,79.911114 475.29,65.478114 470.95,51.219114 C468.78,44.067114 464.87,12.211114 458.82,11.067114 L463.43,38.746114 C463.27,50.906114 468.59,67.095114 471.08,79.346114 C472.44,86.070114 475.79,92.646114 476.54,99.486114 C477.36,106.921114 475.41,114.842114 478.6,121.781114 C481.53,128.144114 487.95,128.299114 492.65,132.548114 C498.41,137.763114 498.08,145.130114 499.59,152.538114 C502.62,167.361114 509.42,181.352114 513.24,195.595114 C516,205.866114 518.52,225.281114 527.86,231.652114 C529.13,220.238114 522.9,203.816114 520.52,192.519114" id="Fill-90" fill="#6D6D6D"></path>
                <path d="M483.38,194.865114 C481.11,171.167114 473.29,148.074114 463.99,126.439114 C460.73,118.872114 460.09,97.100114 454.98,94.104114 L457.28,117.170114 C455.94,130.050114 464.18,141.664114 467.85,153.272114 C470.64,162.089114 471,171.456114 474.01,180.297114 C476.27,186.950114 479.6,193.025114 480.35,200.019114 C481.72,212.929114 482.92,225.246114 484.79,237.922114 C486.83,251.707114 487.03,270.201114 494.8,281.646114 C496.99,252.115114 486.11,223.314114 483.38,194.865114" id="Fill-91" fill="#6D6D6D"></path>
                <path d="M382.82,291.611114 C383.82,284.284114 370.02,270.564114 361.28,275.967114 C359.04,267.249114 352.71,254.035114 340.53,256.340114 C339.94,249.851114 326.93,237.942114 319.08,243.278114 C315.64,239.752114 313.57,236.553114 308.08,235.524114 C302.67,234.510114 301.09,237.889114 297.39,238.217114 C291.89,238.706114 287.78,235.122114 281.94,238.935114 C278.29,241.322114 276.45,246.892114 275.68,250.496114 C267.34,245.420114 263.31,256.515114 262.65,261.597114 C250.14,256.136114 246.52,264.996114 242.6,273.353114 C237.83,270.130114 221.89,255.087114 216.45,266.153114 C211.21,263.545114 211.13,259.029114 208.34,255.133114 C205.69,251.437114 204.64,251.148114 200.67,248.440114 C193.1,243.267114 185.15,241.151114 178.39,249.646114 C170.93,243.980114 167.93,249.604114 161.27,250.098114 C158.51,250.303114 156.5,247.311114 152.81,247.934114 C149.19,248.545114 147.11,250.851114 145.7,253.759114 C137.8,243.994114 121.95,255.667114 123.59,265.583114 L127.44,267.542114 C135.4,269.974114 145.89,271.041114 155.87,271.458114 C162.36,271.729114 168.94,271.329114 175.11,272.748114 C180.87,274.074114 182.95,277.896114 187.58,279.804114 C193.45,282.220114 199.87,278.703114 205.69,280.767114 C210,282.295114 213.06,287.043114 216.8,289.603114 C226.07,295.953114 237.14,293.278114 248.17,292.375114 C260.07,291.401114 275.17,288.808114 284.87,297.094114 C289.11,300.723114 289.57,307.058114 294.07,310.156114 C298.56,313.243114 307.08,312.189114 312.73,311.952114 C327.39,311.335114 342.56,314.527114 357.33,313.260114 C363.6,312.722114 369.41,310.088114 375.59,312.117114 C378.16,312.958114 382.14,317.575114 384.24,317.748114 C387.6,318.026114 388.85,314.645114 392.58,314.468114 C394.33,309.852114 388.44,292.348114 382.82,291.611114" id="Fill-92" fill="#4D5477"></path>
                <path d="M618.75,235.576114 C618.29,231.016114 620.92,220.786114 617.26,217.663114 C615.28,215.972114 604.64,215.444114 601.81,214.834114 C597.05,213.806114 592.28,213.276114 588.18,216.550114 C584.28,219.668114 585.03,226.547114 582.43,229.253114 C578.43,233.418114 570.56,227.112114 569.4,234.708114 C559.75,232.320114 558,236.386114 552.79,243.282114 C549.99,246.992114 551.86,246.896114 547.24,248.646114 C543.94,249.895114 539.81,248.455114 536.47,249.415114 C529.86,251.322114 528.09,256.627114 523.4,260.985114 C522.22,262.081114 520.5,260.764114 518.96,262.488114 C517.92,263.662114 518.33,265.575114 517.85,266.928114 C517.03,269.262114 516.43,273.683114 516.48,274.788114 L519.56,280.169114 C525.88,274.492114 545.53,276.416114 554.16,275.554114 C556.13,275.356114 561.74,275.701114 563.38,274.825114 C567.17,272.809114 565.93,270.354114 568.15,267.847114 C572.49,262.940114 577.82,262.439114 584.14,261.888114 C589.99,261.378114 597.45,263.097114 602.59,260.176114 C606.93,257.714114 609.21,252.225114 613.17,249.244114 C620.8,243.500114 619.7,245.145114 618.75,235.576114" id="Fill-93" fill="#4D5477"></path>
                <path d="M787.74,301.891114 C785.76,299.998114 782.88,299.996114 780.78,297.891114 C778.22,295.315114 777.21,290.289114 775.42,287.261114 C773.7,284.342114 771.61,280.523114 768.69,278.617114 C765.89,276.784114 761.91,277.985114 759.6,276.175114 C757.02,274.163114 757.26,270.955114 755.43,268.640114 C752.88,265.418114 748.94,263.125114 745.42,260.737114 C739.82,256.946114 733.77,252.400114 727.15,251.124114 C719.19,249.591114 715.7,251.384114 709.68,247.108114 C703.79,242.924114 700.17,241.340114 691.96,240.787114 C684.46,240.282114 677.56,236.844114 669.51,236.344114 C659.88,235.747114 655.19,239.610114 647.19,242.495114 C641.65,244.493114 634.63,248.980114 631.24,254.950114 C627.09,262.249114 634.64,271.736114 639.5,264.792114 L641.04,266.330114 C648.7,267.104114 655.7,265.171114 663.34,266.928114 C672.36,269.003114 673.78,273.008114 680.21,278.629114 C685.67,283.394114 693.33,284.458114 699.3,288.841114 C706.82,294.359114 710.04,295.219114 718.68,297.042114 C731.42,299.732114 742.22,307.105114 751.56,315.688114 C757.41,321.059114 758.14,319.999114 766.36,320.922114 C772.19,321.578114 777.13,323.437114 783.28,323.998114 C790.26,324.633114 793.64,324.270114 794.04,316.306114 C794.29,311.356114 791.36,305.348114 787.74,301.891114" id="Fill-94" fill="#4D5477"></path>
                <path d="M632.58,308.620114 C627.5,308.451114 623.88,312.413114 619.51,311.879114 C615.49,311.388114 613.28,307.307114 609.52,306.121114 C601.94,303.730114 597.4,310.461114 590.12,307.120114 C586.88,305.631114 587.39,303.314114 583.37,302.467114 C580.17,301.790114 577.2,303.428114 574.13,304.007114 C564.66,305.789114 564.98,304.020114 558.19,298.432114 C552.49,293.742114 548.38,293.893114 541.84,298.623114 C536.54,302.453114 533.09,314.133114 527.25,315.592114 C522.8,316.702114 512.18,311.318114 507.26,310.756114 C499.58,309.878114 495.4,312.683114 488,311.073114 C474.39,308.113114 456.16,306.958114 453.73,325.528114 L659.56,325.528114 C653.1,318.113114 642.8,308.960114 632.58,308.620114" id="Fill-95" fill="#4D5477"></path>
                <path d="M104.83,300.798114 C100.95,292.581114 87.2,280.908114 81.76,295.929114 C79.32,293.007114 72.02,287.478114 69.48,286.034114 C64.78,283.352114 56.53,279.664114 51.21,282.429114 C47.68,284.263114 47.53,289.336114 44.85,290.929114 C41.17,293.121114 40.34,290.781114 35.88,291.934114 C29.24,293.651114 22.29,295.764114 22.56,304.236114 L23.58,304.236114 C25.51,304.381114 28.76,308.890114 32.04,310.134114 C37.61,312.246114 38.32,311.083114 44.07,310.132114 C62.11,307.142114 67.15,313.252114 71.58,325.693114 C71.69,326.015114 113.75,325.166114 123.84,325.660114 C125.56,317.370114 114,281.909114 104.83,300.798114" id="Fill-96" fill="#4D5477"></path>
            </g>
        </g>
    </g>
</svg>