<?xml version="1.0" encoding="UTF-8"?>
<svg width="827px" height="319px" viewBox="0 0 827 319" version="1.1" xmlns="http://www.w3.org/2000/svg" xmlns:xlink="http://www.w3.org/1999/xlink">
    <!-- Generator: Sketch 55.2 (78181) - https://sketchapp.com -->
    <title>Group 3</title>
    <desc>Created with Sketch.</desc>
    <g id="Page-1" stroke="none" stroke-width="1" fill="none" fill-rule="evenodd">
        <g id="5894" transform="translate(-2824.000000, -220.000000)">
            <g id="Group-3" transform="translate(2824.470000, 220.223669)">
                <path d="M350.32,141.359331 C350.32,141.359331 315.19,146.242331 329.66,177.165331 C344.12,208.086331 282.11,156.008331 282.11,156.008331 L350.32,141.359331" id="Fill-102" fill="#879B32"></path>
                <path d="M431.45,114.507331 C417.36,113.542331 396.98,138.694331 413.62,141.970331 C422.93,143.801331 427.58,132.207331 436.1,132.207331 C444.63,132.207331 449.28,115.728331 431.45,114.507331" id="Fill-103" fill="#8CAD2C"></path>
                <path d="M458.67,317.797331 L542.55,243.890331 C542.55,243.890331 482.61,173.910331 480.54,160.890331 C478.47,147.869331 461.94,111.251331 435.07,107.183331 C418.83,104.725331 412.33,110.438331 412.33,110.438331 C412.33,110.438331 392.7,58.3603314 386.5,46.9663314 C380.29,35.5743314 358.17,9.89433142 345.15,4.65333142 C327.63,-2.40466858 300.87,-1.65766858 286.24,8.72233142 C271.97,18.8583314 252.84,47.4123314 243.87,60.8003314 C236.53,71.7643314 218.03,108.811331 207.7,116.948331 C197.37,125.085331 172.56,147.869331 164.29,159.261331 C156.03,170.655331 151.89,173.910331 151.89,173.910331 C151.89,173.910331 110.55,193.439331 85.75,230.870331 C64.21,263.368331 13.11,306.883331 -2.27373675e-13,317.797331 L458.67,317.797331" id="Fill-104" fill="#8CAD2C"></path>
                <path d="M346.39,317.797331 C347.7,300.246331 354.2,197.976331 329.66,177.165331 C302.78,154.379331 290.38,142.987331 290.38,142.987331 C290.38,142.987331 315.19,76.2623314 300.71,53.4763314 C291.47,38.9203314 270.74,39.6443314 270.74,39.6443314 C270.74,39.6443314 253.2,42.0493314 239.74,64.0553314 C235.25,71.3983314 218.1,92.7703314 195.3,121.017331 C179.9,140.099331 177.73,141.359331 166.36,155.193331 C157.31,166.211331 147,175.270331 142.59,177.978331 C123.28,189.853331 110.55,193.439331 85.75,230.870331 C64.21,263.368331 13.11,306.883331 0,317.797331 L346.39,317.797331" id="Fill-105" fill="#A5C442"></path>
                <path d="M458.67,317.797331 L542.55,243.890331 C542.55,243.890331 482.61,173.910331 480.54,160.890331 C480.54,160.890331 456.77,151.124331 439.2,161.703331 C419.33,173.669331 431.17,199.012331 441.27,213.781331 C462.97,245.517331 464.01,268.301331 445.4,271.556331 C426.8,274.811331 422.67,252.027331 399.93,260.164331 C384.97,265.521331 380.75,296.928331 379.62,317.797331 L458.67,317.797331" id="Fill-106" fill="#879B32"></path>
                <path d="M269.71,199.949331 C290.38,211.341331 311.05,198.321331 325.52,227.615331 C338.25,253.402331 320.57,305.650331 316.15,317.797331 L346.37,317.797331 C347.05,315.051331 349.04,309.390331 354.46,297.597331 C374.09,254.876331 366.28,212.483331 348.25,195.067331 C341.94,188.963331 330.52,178.090331 321.62,169.629331 C324.8,170.464331 326.81,170.960331 326.81,170.960331 C326.81,170.960331 317.9,152.549331 341.15,147.768331 C359.59,143.977331 357.56,155.193331 374.09,158.448331 C385.43,160.680331 394.49,156.901331 396.83,144.614331 C398.12,137.840331 399.93,123.458331 407.16,114.506331 C410.61,110.240331 427.83,107.183331 427.83,107.183331 C427.83,107.183331 416.72,76.0563314 393.73,46.1543314 C369.96,15.2323314 354.46,7.90833142 354.46,7.90833142 C350.77,4.72133142 322.45,-3.19266858 319.32,1.39833142 C319.32,1.39833142 343.39,12.6683314 332.75,26.6253314 C320.35,42.8993314 335.47,61.9473314 367.89,69.7533314 C391.58,75.4573314 388.49,105.045331 365.82,111.251331 C342.05,117.761331 326.56,99.9993314 319.32,87.6543314 C319.34,83.0783314 312.38,67.1753314 311.05,63.2433314 C302.78,38.8293314 280.04,40.4593314 280.04,40.4593314 C280.04,40.4593314 335.85,64.0553314 272.81,123.458331 C228.76,164.963331 249.04,188.557331 269.71,199.949331" id="Fill-107" fill="#879B32"></path>
                <path d="M281.52,317.797331 C281.06,316.072331 280.57,314.274331 280.04,312.303331 C271.78,281.442331 246.59,311.916331 230.49,299.244331 C217.06,288.665331 224.29,272.391331 224.29,258.557331 C224.29,239.683331 212.92,218.685331 189.67,223.160331 C174.83,226.015331 203.57,196.694331 178.76,190.184331 C161.11,185.552331 141.56,223.546331 141.56,223.546331 C141.56,223.546331 122.32,262.447331 99.19,271.556331 C75.49,280.886331 68.42,299.344331 57.66,317.797331 L281.52,317.797331" id="Fill-108" fill="#C8DD6F"></path>
                <path d="M77.55,242.777331 C63.91,237.062331 59.21,288.791331 64.16,298.066331 C69.17,307.463331 84.79,306.058331 87.11,294.462331 C90.1,279.559331 89.03,247.586331 77.55,242.777331" id="Fill-109" fill="#70993A"></path>
                <path d="M75.54,242.373098 C63.46,242.252331 59.46,289.263331 64.16,298.066331 C66.48,302.408331 71.06,304.416331 75.54,304.204331 L75.54,242.373098" id="Fill-110" fill="#8AA55E"></path>
                <path d="M76.81,317.797331 L76.81,273.552331 C76.81,273.016331 76.21,272.583331 75.47,272.583331 C74.74,272.583331 74.14,273.016331 74.14,273.552331 L74.14,317.797331 L76.81,317.797331" id="Fill-111" fill="#53633B"></path>
                <path d="M36.72,219.141331 C16.93,211.889331 10.11,277.532331 17.29,289.302331 C24.57,301.226331 47.23,299.444331 50.6,284.727331 C54.94,265.816331 53.37,225.242331 36.72,219.141331" id="Fill-112" fill="#8AA55E"></path>
                <path d="M33.56,218.618331 C16.22,219.030331 10.51,278.184331 17.29,289.302331 C20.61,294.742331 27.13,297.296331 33.56,297.104331 L33.56,218.618331" id="Fill-113" fill="#8CAD2C"></path>
                <path d="M34.99,317.797331 L34.99,258.417331 C34.99,257.613331 34.36,256.963331 33.58,256.963331 C32.81,256.963331 32.18,257.613331 32.18,258.417331 L32.18,317.797331 L34.99,317.797331" id="Fill-114" fill="#53633B"></path>
                <path d="M826.28,317.797331 C823.16,311.723331 804.72,278.190331 770.95,263.419331 C733.75,247.145331 711.01,188.557331 682.07,178.792331 C653.14,169.027331 656.24,131.595331 637.63,128.340331 C619.03,125.085331 602.49,131.595331 586.99,157.634331 C578.12,172.535331 576.66,201.576331 555.99,204.831331 C535.32,208.086331 518.78,221.106331 500.18,240.635331 C482.95,258.720331 460.42,310.268331 457.18,317.797331 L826.28,317.797331" id="Fill-115" fill="#8CAD2C"></path>
                <path d="M674.84,252.027331 C708.26,254.221331 697.43,309.911331 695.72,317.797331 L826.28,317.797331 C823.16,311.723331 804.72,278.190331 770.95,263.419331 C733.75,247.145331 711.01,188.557331 682.07,178.792331 C653.14,169.027331 656.24,131.595331 637.63,128.340331 C658.3,144.614331 627.3,153.996331 627.3,185.302331 C627.3,196.694331 600.43,247.145331 674.84,252.027331" id="Fill-116" fill="#879B32"></path>
                <path d="M653.96,317.797331 C652.5,311.532331 642.5,276.449331 604.56,287.832331 C561.15,300.852331 546.69,271.556331 557.02,255.282331 C567.36,239.007331 583.89,211.341331 555.99,204.831331 C535.32,208.086331 518.78,221.106331 500.18,240.635331 C482.95,258.720331 460.42,310.268331 457.18,317.797331 L653.96,317.797331" id="Fill-117" fill="#A5C442"></path>
            </g>
        </g>
    </g>
</svg>