<?xml version="1.0" encoding="UTF-8"?>
<svg width="965px" height="317px" viewBox="0 0 965 317" version="1.1" xmlns="http://www.w3.org/2000/svg" xmlns:xlink="http://www.w3.org/1999/xlink">
    <!-- Generator: Sketch 55.2 (78181) - https://sketchapp.com -->
    <title>Group 2</title>
    <desc>Created with Sketch.</desc>
    <g id="Page-1" stroke="none" stroke-width="1" fill="none" fill-rule="evenodd">
        <g id="5894" transform="translate(-1516.000000, -220.000000)">
            <g id="Group-2" transform="translate(1516.400000, 220.741000)">
                <path d="M425.25,278.85 L494.39,315.424 L647.37,315.424 L578.27,224.194 L567.61,186.796 C567.61,186.796 534.73,169.99 526.94,169.535 C510.48,168.577 504.67,170.494 504.67,170.494 L488.2,118.714 L461.09,103.372 L421.22,113.898 L394.35,82.894 L376.83,49.673 L346.81,47.756 L382.64,170.494 L425.25,278.85" id="Fill-55" fill="#ADCCE0"></path>
                <polyline id="Fill-56" fill="#82B0C4" points="376.83 49.673 346.81 47.756 374.2 107.181 366.44 60.158 392.17 88.056 376.83 49.673"></polyline>
                <polyline id="Fill-57" fill="#82B0C4" points="500.8 315.428 483.23 259.62 460.49 244.118 420.63 213.932 453.26 268.922 500.8 315.428"></polyline>
                <path d="M502.82,315.424 C492.41,302.65 430.09,226.237 420.63,213.932 C418.43,211.078 401.54,148.697 400.31,128.802 C400.07,124.96 398.88,121.258 396.84,117.993 L374.2,107.181 L351.39,35.138 L326.58,2.067 L241.84,0 L216,43.406 C216,43.406 202.56,40.306 199.46,39.272 C196.36,38.238 158.12,90.946 158.12,90.946 L136.42,99.215 L105.41,190.161 L76.48,200.496 C76.48,200.496 48.57,267.673 48.57,270.773 C48.57,273.873 23.77,274.907 23.77,274.907 L-1.13686838e-13,315.214 L51.26,315.424 L502.82,315.424" id="Fill-58" fill="#BEDCED"></path>
                <polyline id="Fill-59" fill="#C7DBFF" points="242.03 278.194 267.66 246.003 284.36 241.234 290.91 224.542 305.22 220.964 292.7 229.907 289.12 244.81 268.26 253.155 242.03 278.194"></polyline>
                <polyline id="Fill-60" fill="#D9E8FF" points="214.96 161.224 242.87 115.75 263.54 109.549 270.77 75.444 260.44 52.708 270.77 23.77 250.1 60.975 259.41 82.679 252.17 100.247 227.37 112.649 214.96 161.224"></polyline>
                <polyline id="Fill-61" fill="#6891A5" points="216 43.406 205.66 41.339 217.03 74.411 216 43.406"></polyline>
                <polyline id="Fill-62" fill="#6891A5" points="136.42 99.215 105.41 190.161 129.19 147.788 140.55 112.649 157.09 105.416 136.42 99.215"></polyline>
                <polyline id="Fill-63" fill="#6891A5" points="78.54 200.496 95.08 204.631 117.82 199.462 128.15 177.759 125.05 203.597 101.28 212.898 80.61 212.898 67.18 224.266 78.54 200.496"></polyline>
                <polyline id="Fill-64" fill="#F3FCFF" points="288.34 105.416 320.38 127.119 331.75 164.325 309.01 126.085 280.07 108.516 282.14 83.713 288.34 105.416"></polyline>
                <polyline id="Fill-65" fill="#EBF3FF" points="390.66 222.199 365.85 209.798 356.55 191.195 361.72 214.965 380.32 226.334 389.62 274.907 390.66 222.199"></polyline>
                <path d="M912.5,315.424 C908.71,305.438 896.1,272.175 890.86,257.339 C884.66,239.768 838.16,237.702 838.16,237.702 C838.16,237.702 804.05,152.955 798.89,141.588 C793.72,130.219 769.95,129.186 769.95,129.186 C769.95,129.186 760.64,103.348 750.31,86.813 C739.98,70.277 672.8,59.942 662.47,62.009 C657.3,63.042 649.03,93.014 649.03,93.014 L636.18,105.631 L605.62,198.43 L585.99,171.558 L565.32,184.994 C565.32,184.994 559.11,200.496 559.11,207.731 C559.11,214.965 542.58,222.199 528.11,227.366 C514.62,232.187 503.82,302.597 504.11,315.424 L912.5,315.424" id="Fill-66" fill="#ADCCE0"></path>
                <polyline id="Fill-67" fill="#BEDCED" points="636.18 105.631 649.03 93.014 658.92 57.057 676.49 42.588 672.36 62.224 678.04 122.683 661.76 105.631 636.18 105.631"></polyline>
                <polyline id="Fill-68" fill="#EBF3FF" points="769.95 129.186 744.7 64.291 718.86 51.889 702.33 22.952 685.79 21.918 676.49 42.588 672.36 62.224 678.04 122.683 690.96 96.329 717.83 134.569 723 91.163 737.47 116.999 744.7 101.496 769.95 129.186"></polyline>
                <polyline id="Fill-69" fill="#5A7E94" points="572.62 196.32 585.8 215.697 554.02 269.18 572.62 196.32"></polyline>
                <polyline id="Fill-70" fill="#82B0C4" points="661.76 105.631 672.36 62.224 678.04 122.683 661.76 105.631"></polyline>
                <polyline id="Fill-71" fill="#F3FCFF" points="881.12 194.51 855.28 214.147 820.15 203.812 852.18 225.515 878.02 216.214 889.39 237.917 891.46 211.047 906.96 211.047 881.12 194.51"></polyline>
                <polyline id="Fill-72" fill="#F3FCFF" points="685.79 21.918 694.06 58.09 702.33 22.952 685.79 21.918"></polyline>
                <polyline id="Fill-73" fill="#F3FCFF" points="744.7 64.291 718.86 51.889 737.47 87.028 744.7 64.291"></polyline>
                <polyline id="Fill-74" fill="#F3FCFF" points="689.93 124.234 680.63 143.87 684.76 168.674 700.26 163.506 723 195.544 704.39 155.238 688.89 159.373 689.93 124.234"></polyline>
                <polyline id="Fill-75" fill="#F3FCFF" points="742.64 137.67 741.6 176.942 751.94 190.378 749.87 221.382 763.3 187.277 749.87 173.841 742.64 137.67"></polyline>
                <polyline id="Fill-76" fill="#BEDCED" points="488.2 118.714 504.67 170.494 481.16 136.635 475.99 192.444 450.16 144.903 428.45 164.54 421.22 113.898 461.09 103.372 488.2 118.714"></polyline>
                <polyline id="Fill-77" fill="#82B0C4" points="246.18 315.424 275.35 278.632 309.64 273.413 308.15 238.379 326.14 237.917 328.21 211.047 312.62 190.673 307.4 180.238 278.6 149.037 263.54 109.549 275.94 54.775 241.84 0 216 43.406 217.03 74.411 187.65 113.898 173.18 188.309 158.71 270.989 168.86 315.424 246.18 315.424"></polyline>
                <path d="M664.09,193.994 L695.09,231.716 C695.09,231.716 691.99,307.161 693.03,301.994 C694.06,296.825 707.49,226.549 707.49,226.549 L664.09,193.994" id="Fill-78" fill="#D9E8FF"></path>
                <polyline id="Fill-79" fill="#BEDCED" points="421.22 113.898 461.09 103.372 488.2 118.714 421.22 113.898"></polyline>
                <polyline id="Fill-80" fill="#F3FCFF" points="488.2 118.714 461.09 103.372 446.02 116.999 462.56 141.802 460.49 119.067 488.2 118.714"></polyline>
                <polyline id="Fill-81" fill="#6891A5" points="581.54 275.769 603.63 250.965 619.52 271.893 596.65 315.424 637.94 315.424 654.79 253.29 645.49 243.214 664.09 193.994 650.14 194.382 664.48 130.047 678.04 122.683 661.76 105.631 636.18 105.631 585.99 171.558 611.38 238.563 603.24 230.425 581.54 275.769"></polyline>
                <path d="M910.16,315.424 L963.82,315.424 C959.66,305.514 943.53,268.643 932.8,266.855 C920.39,264.788 920.39,264.788 920.39,264.788 L906.96,211.047 L881.12,194.51 L855.28,214.147 L820.15,203.812 L859.42,284.424 L910.16,315.424" id="Fill-82" fill="#ADCCE0"></path>
                <polyline id="Fill-83" fill="#82B0C4" points="857.49 315.424 865.62 277.191 838.66 315.424 857.49 315.424"></polyline>
                <path d="M822.21,247.218 C822.21,247.218 846.67,254.979 864.57,259.977 C870.89,261.742 875.56,267.067 876.52,273.557 L878.67,288.027 C879.18,291.489 878.11,295 875.75,297.584 L859.45,315.424 L913.36,315.424 C910.49,306.799 900.43,277.272 891.07,257.04 C880,233.121 838.25,237.723 838.25,237.723 C838.25,237.723 822.76,180.509 814.46,175.391 C806.16,170.275 769.38,129.622 769.38,129.622 C769.38,129.622 803.48,185.701 805.68,190.378 C809.81,199.161 819.04,235.87 822.21,247.218" id="Fill-84" fill="#82B0C4"></path>
                <polyline id="Fill-85" fill="#82B0C4" points="808.78 268.922 788.11 226.549 794.31 269.955 811.88 289.592 797.41 300.96 759.17 265.821 768.47 224.483 744.7 276.156 777.77 306.127 769.32 315.424 822.94 315.424 839.78 288.558 808.78 268.922"></polyline>
                <polyline id="Fill-86" fill="#82B0C4" points="702.37 315.424 716.8 287.524 693.03 301.994 695.09 231.716 675.46 298.894 654.79 253.29 658.85 315.424 702.37 315.424"></polyline>
                <polyline id="Fill-87" fill="#5A7E94" points="658.85 315.424 654.79 253.29 637.94 315.424 658.85 315.424"></polyline>
                <polyline id="Fill-88" fill="#5A7E94" points="619.52 271.893 596.65 315.424 622.37 315.424 638.25 261.688 622.75 238.951 640.32 212.081 628.95 185.209 642.39 119.067 621.72 186.243 624.82 224.483 611.38 238.563 619.52 271.893"></polyline>
                <polyline id="Fill-89" fill="#6891A5" points="396.86 315.424 459.18 315.424 445.43 280.074 428.9 263.54 454.73 276.974 472.48 315.424 502.82 315.424 471.27 276.974 444.4 260.439 413.39 251.138 430.96 286.275 410.29 275.942 399.96 239.768 396.86 278.008 406.16 298.677 396.86 315.424"></polyline>
                <polyline id="Fill-90" fill="#6891A5" points="304.77 315.424 383.3 315.424 379.29 288.343 352.42 260.439 353.45 282.142 334.85 302.812 304.77 315.424"></polyline>
                <path d="M572.28,315.424 L554.02,269.18 L585.8,215.697 L572.62,196.32 L585.99,171.558 L564.29,185.177 L556.73,211.24 L521.47,230.037 C521.47,230.037 507.13,264.917 504.41,283.907 C502.27,298.898 503.46,310.982 504.06,315.424 L572.28,315.424" id="Fill-91" fill="#6891A5"></path>
                <polyline id="Fill-92" fill="#5A7E94" points="536.53 315.424 518.37 272.022 527.67 236.884 556.73 211.24 521.47 230.037 471.27 276.974 502.82 315.424 536.53 315.424"></polyline>
                <path d="M169.05,221.382 L183.52,138.702 L202.12,97.363 L217.03,74.411 L214.14,42.972 C210.35,42.085 201.85,40.069 199.46,39.272 C196.36,38.238 158.12,90.946 158.12,90.946 L136.42,99.215 L105.41,190.161 L76.48,200.496 C76.48,200.496 48.57,267.673 48.57,270.773 C48.57,273.873 23.77,274.907 23.77,274.907 L-1.13686838e-13,315.214 L131.84,315.214 L169.05,221.382" id="Fill-93" fill="#5A7E94"></path>
                <polyline id="Fill-94" fill="#6891A5" points="176.54 315.424 166.98 277.191 218.66 215.181 177.32 235.85 184.99 210.832 185.58 186.243 183.52 157.305 195.33 112.649 220.72 89.094 241.84 0 216 43.406 217.03 74.411 178.79 115.75 165.36 170.526 159.16 140.553 188.09 84.745 143.65 142.621 158.71 196.578 131.84 268.922 121.51 264.788 174.09 315.424 176.54 315.424"></polyline>
                <polyline id="Fill-95" fill="#6891A5" points="110.98 315.424 181.1 315.424 109.11 242.051 121.95 292.476 110.98 315.424"></polyline>
                <polyline id="Fill-96" fill="#6891A5" points="80.2 315.424 99.21 290.41 82.68 252.17 91.98 225.3 71.31 250.104 75.44 271.807 65.11 285.243 48.57 270.773 23.77 274.907 0 315.214 16.17 315.424 80.2 315.424"></polyline>
                <path d="M241.84,0 L326.58,2.067 C326.58,2.067 344.15,21.703 351.38,35.138 L349.39,96.329 L333.82,47.54 L315.21,64.076 L326.14,111.832 L275.94,54.775 L271.38,75.977 L250.1,60.975 L223.23,100.247 L247,37.206 L241.84,0" id="Fill-97" fill="#EBF3FF"></path>
                <polyline id="Fill-98" fill="#F3FCFF" points="275.94 54.775 287.31 27.905 275.94 8.268 280.07 1.032 295.58 1.032 288.34 9.301 296.61 31.005 275.94 54.775"></polyline>
                <polyline id="Fill-99" fill="#F3FCFF" points="326.58 2.067 311.08 2.067 318.31 31.005 294.54 54.775 310.05 85.779 303.84 54.775 329.68 33.072 326.58 2.067"></polyline>
                <polyline id="Fill-100" fill="#EBF3FF" points="275.35 278.632 301.44 265.214 308.15 238.379 326.78 230.179 320.82 204.09 305.91 192.908 307.4 180.238 312.62 190.673 329.02 202.599 336.47 236.143 316.35 246.578 309.64 273.413 275.35 278.632"></polyline>
                <polyline id="Fill-101" fill="#C7DBFF" points="263.54 164.325 235.63 149.855 247 142.621 263.54 164.325"></polyline>
            </g>
        </g>
    </g>
</svg>