<?xml version="1.0" encoding="UTF-8"?>
<svg width="875px" height="334px" viewBox="0 0 875 334" version="1.1" xmlns="http://www.w3.org/2000/svg" xmlns:xlink="http://www.w3.org/1999/xlink">
    <!-- Generator: Sketch 55.2 (78181) - https://sketchapp.com -->
    <title>Group 7</title>
    <desc>Created with Sketch.</desc>
    <g id="Page-1" stroke="none" stroke-width="1" fill="none" fill-rule="evenodd">
        <g id="5756" transform="translate(-150.000000, -1080.000000)">
            <g id="Group-7" transform="translate(150.734000, 1080.520000)">
                <path d="M0,331.02 L63.484,281.14 L99.76,272.07 L114.875,208.58 L142.082,201.03 L191.962,129.99 L311.371,98.24 L338.579,69.53 C338.579,69.53 352.183,72.55 352.183,68.01 C352.183,63.48 385.436,0 385.436,0 L450.431,123.94 L538.099,164.75 L547.167,204.05 L591.001,214.63 L701.342,187.42 L737.618,225.21 L787.498,237.3 L873.656,331.02 L0,331.02" id="Fill-155" fill="#449393"></path>
                <polyline id="Fill-156" fill="#54B2AF" points="244.5 206.13 226.364 207.13 221.326 167.84 218.303 149.7 202.182 147.69 191.962 129.99 142.082 201.03 156.841 209.15 176.993 193.03 200.166 206.13 209.235 233.33 225.356 231.32 230.394 254.49 245.508 256.5 245.508 220.23 244.5 206.13"></polyline>
                <polyline id="Fill-157" fill="#54B2AF" points="114.875 208.58 128.629 215.19 127.621 240.38 144.75 243.41 150.795 231.32 158.856 247.44 153.818 281.69 163.894 286.73 159.864 315.95 178 333.08 121.576 331.06 130.644 291.77 117.546 300.84 118.553 283.71 99.76 272.07 114.875 208.58"></polyline>
                <polyline id="Fill-158" fill="#54B2AF" points="3.69 329.05 63.484 281.14 64.144 302.85 72.204 292.78 75.227 330.06 3.69 329.05"></polyline>
                <polyline id="Fill-159" fill="#54B2AF" points="385.436 1.13686838e-13 352.183 68.01 360.371 76.15 360.371 91.26 369.439 137.61 381.53 164.82 377.5 210.16 381.53 258.52 397.651 271.62 397.651 295.8 408.735 230.31 392.613 231.32 394.628 214.19 406.719 202.1 403.697 173.88 393.621 176.91 391.606 135.6 375.485 124.51 373.469 97.31 390.598 80.18 380.522 53.98 385.436 1.13686838e-13"></polyline>
                <path d="M273.72,152.72 L273.72,190.01 L289.841,190.01 L291.856,216.2 L287.826,282.7 L314.022,279.68 L315.03,331.06 L348.28,329.05 L346.265,284.72 L328.129,271.62 L328.129,249.45 L345.257,231.32 L312.007,207.13 L309.992,177.91 C309.992,177.91 305.962,141.64 306.97,136.6 C307.977,131.57 284.803,131.57 284.803,131.57 L278.757,112.42 L273.72,152.72" id="Fill-160" fill="#54B2AF"></path>
                <polyline id="Fill-161" fill="#54B2AF" points="701.342 187.42 591.001 214.63 557.855 239.38 580.022 245.42 575.992 285.72 591.105 281.69 595.136 298.82 619.317 295.8 621.332 332.07 640.476 328.04 642.492 285.72 626.37 268.6 631.409 248.44 652.567 240.38 654.582 254.49 667.681 253.48 701.342 187.42"></polyline>
                <path d="M737.618,225.21 C737.204,230.31 718.06,272.63 718.06,272.63 L739.219,267.59 L736.196,289.75 L749.294,303.86 L752.317,318.97 L768.438,311.92 L766.423,279.68 L778.514,285.72 L787.498,237.3 L737.618,225.21" id="Fill-162" fill="#54B2AF"></path>
                <polyline id="Fill-163" fill="#54B2AF" points="191.099 241.39 192.106 270.61 205.204 272.63 206.212 304.87 214.273 315.95 216.288 322 224.349 322 223.341 297.81 213.265 296.81 218.303 277.66 201.174 258.52 196.136 227.28 191.099 241.39"></polyline>
                <polyline id="Fill-164" fill="#54B2AF" points="271.704 223.25 269.689 258.52 274.727 269.6 271.704 312.93 278.757 287.74 279.765 259.53 276.742 206.13 271.704 223.25"></polyline>
                <polyline id="Fill-165" fill="#54B2AF" points="324.098 98.32 340.22 124.51 339.212 144.66 335.182 180.94 354.326 186.98 355.333 230.31 365.409 169.85 344.25 167.84 348.28 119.48 337.197 89.25 324.098 98.32"></polyline>
                <path d="M476.242,166.83 L465.159,196.05 L475.234,209.15 L478.257,253.48 L459.113,279.68 C459.113,279.68 463.143,316.96 463.143,313.94 C463.143,310.91 473.219,279.68 473.219,279.68 L496.393,260.53 L494.378,216.2 L481.28,194.03 L494.378,152.72 L476.242,166.83" id="Fill-166" fill="#54B2AF"></path>
            </g>
        </g>
    </g>
</svg>