<?xml version="1.0" encoding="UTF-8"?>
<svg width="880px" height="274px" viewBox="0 0 880 274" version="1.1" xmlns="http://www.w3.org/2000/svg" xmlns:xlink="http://www.w3.org/1999/xlink">
    <!-- Generator: Sketch 55.2 (78181) - https://sketchapp.com -->
    <title>Group 6</title>
    <desc>Created with Sketch.</desc>
    <g id="Page-1" stroke="none" stroke-width="1" fill="none" fill-rule="evenodd">
        <g id="5756" transform="translate(-182.000000, -687.000000)">
            <g id="Group-6" transform="translate(182.734000, 687.457601)">
                <path d="M856.126,235.372399 C844.086,223.737399 831.626,219.581399 817.836,213.388399 C798.436,204.679399 787.44,179.300399 767.87,172.445399 C753.784,167.511399 735.263,172.187399 723.459,160.445399 C713.271,150.310399 710.456,126.989399 707.675,111.572399 C704.123,91.8823991 702.164,74.8993991 702.207,54.2103991 C702.242,37.3683991 704.593,13.6193991 690.165,7.09839913 C681.687,3.26639913 679.548,8.77639913 673.533,13.5283991 C667.143,18.5753991 661.766,17.9213991 654.055,17.9213991 C639.464,17.9213991 624.956,17.5833991 611.201,15.5193991 C597.809,13.5103991 591.786,11.9853991 579.137,20.6843991 C580.237,18.3753991 571.716,12.5033991 572.522,9.90339913 C562.334,11.9353991 553.478,15.0733991 543.062,12.9783991 C539.749,12.3123991 535.316,9.31239913 531.486,10.8703991 C527.055,12.6723991 527.282,17.6053991 523.606,20.2893991 C512.103,28.6903991 494.302,17.0483991 483.139,12.3553991 C468.758,6.31139913 455.6,2.35539913 440.434,1.53239913 C404.86,-0.398600867 369.811,4.73239913 334.544,2.44239913 C318.61,1.40739913 301.938,-2.51960087 286.35,3.90439913 C276.422,7.99639913 280.706,14.4663991 274.305,21.7203991 C270.016,26.5813991 259.537,27.8003991 253.954,29.6613991 C240.135,34.2663991 224.807,36.4213991 210.179,35.4803991 C196.651,34.6103991 185.403,19.6873991 170.934,27.4903991 C169.997,34.6063991 172.817,41.8613991 172.533,49.5283991 C172.255,56.9963991 170.208,62.6913991 168.982,69.3683991 C166.353,83.6843991 165.792,97.9323991 164.65,112.738399 C162.541,140.085399 166.224,172.387399 151.326,194.687399 C141.404,209.538399 124.11,203.565399 111.056,207.308399 C97.732,211.127399 86.682,223.145399 73.601,227.725399 C59.956,232.503399 48.327,234.117399 37.946,248.830399 C30.035,260.043399 16.787,270.402399 7.064,273.034399 L879.056,273.034399 C876.196,263.766399 863.246,242.255399 856.126,235.372399" id="Fill-35" fill="#AF9466"></path>
                <path d="M194.398,120.388399 C197.859,94.3353991 205.998,67.8063991 200.788,40.8453991 C199.736,35.3983991 191.775,26.7713991 181.065,25.2243991 L181.775,25.9343991 C190.6,31.6403991 188.165,46.4383991 188.165,55.7563991 C188.165,68.2653991 187.33,80.5263991 186.729,92.6803991 C186.103,105.313399 187.984,117.547399 186.782,130.138399 C185.584,142.687399 185.916,154.776399 189.031,166.528399 C190.94,173.730399 190.657,184.517399 194.395,190.611399 C196.193,166.422399 191.218,144.326399 194.398,120.388399" id="Fill-36" fill="#8C7553"></path>
                <path d="M281.202,158.715399 C279.616,147.235399 279.615,134.887399 279.037,123.212399 C278.465,111.674399 281.972,99.2053991 279.761,87.7093991 C277.779,77.4033991 266.179,72.4783991 266.966,60.0173991 C267.373,53.5543991 272.024,47.5503991 272.66,40.8453991 C273.22,34.9383991 272.498,28.7583991 274.082,23.0943991 L274.082,22.3843991 C273.736,21.8523991 269.175,22.7893991 267.14,25.2243991 C264.229,28.7063991 266.175,29.9023991 265.579,34.4713991 C264.793,40.4843991 259.752,45.7073991 257.751,51.4593991 C253.931,62.4393991 256.949,73.0293991 264.694,80.7873991 C273.815,89.9223991 273.224,97.8213991 273.372,110.431399 C273.517,122.688399 276.089,134.364399 276.213,146.644399 C276.319,157.228399 275.844,173.237399 281.023,182.090399 C281.352,174.185399 282.288,166.579399 281.202,158.715399" id="Fill-37" fill="#8C7553"></path>
                <path d="M346.469,79.8983991 C344.812,71.5453991 341.9,60.6193991 344.204,52.0323991 C345.434,47.4453991 347.232,45.6283991 347.219,40.1353991 C347.205,35.0463991 347.437,30.0963991 347.929,25.1873991 C348.726,17.2143991 349.366,3.97439913 340.294,3.03639913 C334.544,2.44239913 319.189,-1.14860087 314.556,0.372399133 L313.136,1.08239913 C325.423,1.37839913 324.477,28.9113991 325.188,36.5853991 C326.617,52.0183991 327.192,65.7723991 325.167,81.1423991 C321.453,109.343399 325.559,138.683399 321.62,166.525399 C319.549,181.162399 319.61,199.261399 323.234,213.316399 C329.939,208.848399 326.284,186.122399 326.629,178.597399 C327.198,166.208399 329.823,154.377399 331.634,142.226399 C332.513,136.328399 329.757,130.787399 330.713,125.342399 C332.016,117.919399 337.689,115.561399 342.107,110.965399 C352.159,100.507399 348.9,92.1533991 346.469,79.8983991" id="Fill-38" fill="#8C7553"></path>
                <path d="M417.498,41.5553991 C419.53,30.0763991 420.822,18.8823991 420.352,7.47339913 C420.279,5.69639913 419.064,2.66739913 418.934,2.50239913 L406.864,1.79239913 C406.894,11.5303991 408.984,20.1503991 408.994,30.0003991 C409.001,37.0603991 407.903,43.9193991 408.284,50.9633991 C408.678,58.2553991 411.29,64.6373991 411.124,72.0493991 C410.944,80.0553991 407.724,87.8453991 407.731,95.7103991 C407.737,101.638399 410.574,105.902399 411.124,111.780399 C412.492,126.401399 406.039,145.751399 413.29,159.171399 C413.02,142.710399 415.099,127.558399 418.185,111.693399 C418.826,108.398399 420.096,105.184399 420.315,101.874399 C420.577,97.9293991 418.876,96.9603991 418.369,93.9053991 C417.222,87.0143991 422.454,83.1053991 423.921,76.3483991 C426.564,64.1823991 415.369,53.5833991 417.498,41.5553991" id="Fill-39" fill="#8C7553"></path>
                <path d="M438.106015,52.9163991 C438.119,41.6053991 429.903,39.7853991 431.718,28.7773991 C433.204,19.7683991 435.609,9.93939913 436.686,1.08239913 L427.455,1.08239913 C427.455,11.4543991 427.253,21.0143991 425.328,30.9043991 C423.968,37.8873991 424.972,37.7463991 427.647,43.5273991 C430.029,48.6753991 429.011,53.0123991 429.549,58.5973991 C430.45,67.9653991 432.63,78.1983991 434.4,87.7093991 C436.296,97.8983991 434.618,108.343399 434.539,118.734399 C438.432,96.6563991 438.079,75.6603991 438.106015,52.9163991" id="Fill-40" fill="#8C7553"></path>
                <path d="M487.812,116.109399 C486.84,109.530399 487.983,105.002399 489.072,98.9123991 C493.654,73.2873991 487.133,48.3233991 485.643,23.0943991 C485.438,19.6163991 486.33,16.4123991 484.26,13.8633991 L472.899,8.18339913 C472.899,14.7383991 473.812,19.7093991 475.204,25.9343991 C477.063,34.2583991 476.521,42.1683991 478.754,50.7663991 C482.311,64.4653991 480.686,79.9193991 479.997,94.1003991 C479.366,107.097399 480.373,117.113399 482.146,129.603399 C483.776,141.082399 480.9,153.305399 483.552,164.396399 C483.758,165.254399 483.892,166.236399 484.102,167.021399 C484.567,160.806399 484.279,154.665399 485.522,148.600399 C486.641,143.140399 490.151,137.776399 490.648,132.440399 C491.172,126.813399 488.581,121.307399 487.812,116.109399" id="Fill-41" fill="#8C7553"></path>
                <path d="M725.108,155.680399 C720.757,150.707399 719.49,146.532399 718.577,140.253399 C717.357,131.874399 714.603,124.255399 712.722,115.936399 C707.661,93.5553991 709.348,68.1343991 709.348,45.1053991 C709.348,33.7773991 707.915,24.2623991 703.842,13.8473991 C701.033,6.66339913 687.996,-1.18460087 683.076,6.76239913 L682.366,6.05239913 C680.614,11.2503991 681.163,17.0653991 680.233,22.3313991 C678.702,31.0093991 675.343,38.4443991 674.518,47.3963991 C673.912,53.9823991 674.249,61.2533991 673.135,67.8273991 C671.662,76.5283991 665.308,74.4303991 660.32,79.8983991 C653.951,86.8823991 654.792,105.079399 655.226,114.139399 C655.873,127.667399 653.683,140.013399 651.162,153.048399 C649.205,163.172399 645.737,180.402399 649.827,190.543399 C660.37,189.944399 659.477,183.525399 666.623,177.479399 C671.782,173.114399 677.242,173.275399 683.749,173.626399 C686.22,173.759399 690.789,174.973399 693.017,174.334399 C696.407,173.361399 696.38,170.825399 699.39,169.190399 C703.722,166.836399 711.476,167.642399 716.449,167.394399 C719.283,167.252399 731.93,169.801399 733.504,168.548399 C738.28,164.750399 727.511,158.426399 725.108,155.680399" id="Fill-42" fill="#8C7553"></path>
                <path d="M598.403,136.011399 C590.145,124.446399 587.931,114.228399 587.928,99.7803991 C587.926,84.6723991 584.835,70.9203991 581.558,56.4833991 C580.111,50.1083991 579.026,43.8653991 578.698,37.2953991 C578.45,32.3263991 580.818,22.9743991 578.698,20.2533991 L571.597,9.60339913 C569.724,15.0493991 570.959,22.4043991 571.755,28.0643991 C573.081,37.5023991 572.678,46.6493991 572.307,56.3093991 C571.66,73.1433991 578.397,89.1273991 579.408,105.460399 C579.778,111.447399 578.104,117.448399 578.7,123.212399 C579.334,129.339399 583.409,132.245399 587.221,136.706399 C596.103,147.100399 594.261,161.993399 593.645,175.204399 C593.344,181.684399 589.272,201.609399 595.558,205.469399 C597.563,201.139399 596.961,192.650399 597.196,187.669399 C597.495,181.314399 598.228,176.143399 599.134,170.073399 C600.868,158.446399 605.379,145.780399 598.403,136.011399" id="Fill-43" fill="#8C7553"></path>
                <path d="M291.831,266.663399 C276.77,263.513399 260.636,263.632399 244.973,260.786399 C234.967,258.969399 224.955,256.888399 214.971,255.303399 C208.755,254.316399 193.955,253.908399 191.682,246.089399 C189.485,238.535399 199.239,237.546399 188.358,233.429399 C178.279,229.615399 166.033,229.795399 155.486,228.143399 C146.398,226.719399 136.581,225.076399 128.365,221.023399 C122.8,218.278399 118.017,211.331399 112.758,209.271399 C104.457,206.019399 88.635,216.289399 81.657,220.314399 C76.678,223.187399 72.923,227.967399 67.455,229.700399 C62.005,231.428399 56.243,230.778399 50.966,233.097399 C41.197,237.390399 35.602,249.591399 27.709,256.863399 C23.316,260.910399 18.897,265.225399 13.471,267.886399 C9.124,270.017399 3.656,270.768399 0,273.034399 L315.092,273.034399 C311.26,270.429399 296.245,267.586399 291.831,266.663399" id="Fill-44" fill="#D6B37F"></path>
                <path d="M304.652,1.77239913 C299.151,-1.17260087 287.805,3.21639913 284.023,7.47339913 L284.023,5.34239913 C277.933,13.4233991 283.849,30.2883991 283.313,40.1353991 C282.574,53.7073991 280.713,63.1533991 287.058,75.4783991 C292.715,86.4653991 289.139,98.4403991 289.704,110.605399 C290.299,123.402399 291.279,137.001399 291.87,149.447399 C292.298,158.437399 290.542,167.058399 289.667,175.756399 C288.611,186.253399 285.131,191.985399 281.361,201.474399 C278.51,208.649399 284.921,214.499399 287.574,221.874399 C289.877,228.277399 290.312,237.758399 295.403,242.589399 C300.939,235.991399 296.127,215.184399 297.478,206.252399 C299.489,192.953399 303.153,179.184399 303.905,165.105399 C305.498,135.273399 308.165,105.868399 308.165,75.6383991 C308.165,57.3413991 305.436,40.4273991 308.165,22.3843991 C309.063,16.4473991 310.785,5.05539913 304.652,1.77239913" id="Fill-45" fill="#D6B37F"></path>
                <path d="M174.779,33.8553991 C174.225,38.3113991 175.879,42.2293991 174.674,46.5263991 L176.095,60.0173991 C174.764,63.0883991 174.677,69.5803991 174.674,73.5083991 C174.67,80.4183991 173.534,86.7003991 173.414,93.5983991 C173.164,108.175399 173.782,124.121399 173.254,139.385399 C172.792,152.766399 174.128,164.085399 168.264,176.641399 C163.784,186.232399 157.056,194.586399 156.889,205.330399 C175.417,189.235399 178.964,164.123399 178.935,140.270399 C178.905,116.121399 178.073,90.2763991 180.352,67.1173991 C180.919,61.3603991 180.539,34.0833991 174.779,33.8553991" id="Fill-46" fill="#D6B37F"></path>
                <path d="M550.137,142.384399 C546.071,114.377399 532.587,86.1303991 535.403,57.7293991 C536.245,49.2413991 537.081,40.7763991 537.514,32.3243991 C537.779,27.1523991 540.24,14.4493991 536.804,11.0233991 L531.123,10.3133991 C517.995,11.2033991 524.901,34.1403991 525.285,41.5923991 C526.177,58.8843991 525.233,77.4273991 526.88,94.9863991 C528.583,113.144399 529.766,129.714399 534.535,147.391399 C537.94,160.013399 535.21,170.810399 533.251,183.584399 C531.656,193.986399 529.748,212.018399 533.29,222.405399 C533.044,207.613399 534.232,191.671399 540.199,178.047399 C545.567,165.789399 552.19,156.524399 550.137,142.384399" id="Fill-47" fill="#D6B37F"></path>
                <path d="M681.532,7.59639913 C677.315,5.40639913 668.111,13.1213991 664.615,15.9933991 L659.644,19.5433991 C656.408,34.0403991 653.409,47.9453991 645.268,60.7253991 C641.701,66.3263991 635.753,70.4723991 632.682,76.3483991 C629.648,82.1523991 630.391,88.7213991 630.69,95.4493991 C631.459,112.797399 633.378,130.086399 634.082,147.512399 C634.788,165.002399 632.183,182.366399 632.625,199.740399 C633.105,218.579399 639.053,238.679399 639.053,256.804399 C640.36,244.264399 638.806,232.349399 641.341,219.780399 C643.942,206.884399 645.367,196.080399 644.733,182.857399 C644.056,168.721399 641.596,157.797399 645.618,143.750399 C649.012,131.895399 652.678,120.004399 654.499,107.732399 C655.966,97.8533991 654.706,89.5233991 660.888,81.1613991 C666.514,73.5483991 672.439,72.5623991 674.713,62.8573991 C676.798,53.9643991 677.206,44.1393991 678.106,35.1653991 C678.938,26.8643991 682.684,15.3173991 681.532,7.59639913" id="Fill-48" fill="#D6B37F"></path>
                <path d="M387.137,88.4193991 C385.66,82.4783991 385.478,76.5983991 384.139,70.6703991 C382.72,64.3883991 378.408,59.7763991 377.753,52.7743991 C376.573,40.1333991 377.4,25.7953991 379.208,13.8993991 C379.882,9.46239913 379.849,9.53539913 379.865,4.95339913 L372.781,4.63239913 C371.364,17.4233991 374.728,33.7413991 373.527,48.1013991 C371.928,67.2313991 378.012,84.4693991 379.918,103.293399 C380.912,113.113399 378.641,123.428399 377.732,133.116399 C376.692,144.207399 376.635,155.435399 375.621,166.528399 C374.401,179.868399 377.624,191.096399 378.461,203.941399 C378.461,178.377399 381.368,154.732399 386.272,130.157399 C388.85,117.235399 390.347,101.327399 387.137,88.4193991" id="Fill-49" fill="#D6B37F"></path>
                <path d="M494.753,185.184399 C495.399,181.128399 499.235,176.992399 496.899,173.222399 C493.506,174.863399 490.475,178.088399 487.616,180.726399 C473.884,193.396399 455.309,190.975399 438.106,194.431399 C422.495,197.566399 412.358,209.740399 399.605,219.232399 C386.957,228.646399 369.274,225.847399 359.22,237.957399 C351.539,247.208399 343.846,270.274399 330.14,273.034399 L458.688,273.034399 C459.413,266.172399 446.932,253.392399 448.718,246.917399 C452.234,234.164399 466.875,226.625399 477.317,219.821399 C481.803,216.898399 492.655,215.518399 495.632,212.008399 C497.7,209.570399 496.529,203.358399 496.173,199.542399 C495.727,194.770399 493.965,190.126399 494.753,185.184399" id="Fill-50" fill="#D6B37F"></path>
                <path d="M830.766,273.034399 C828.966,271.676399 826.776,266.473399 824.236,263.818399 C817.576,256.883399 807.516,253.157399 798.333,251.574399 C780.78,248.549399 773.626,240.263399 763.011,226.424399 C751.289,211.144399 732.32,205.001399 716.915,194.187399 C702.03,183.738399 689.689,202.995399 677.303,210.407399 C671.351,213.969399 667.881,214.530399 666.035,221.200399 C664.519,226.671399 665.567,233.209399 665.183,238.878399 C664.887,238.418399 662.979,236.311399 663.194,236.717399 C658.416,252.313399 688.722,256.252399 686.908,273.034399 L830.766,273.034399" id="Fill-51" fill="#D6B37F"></path>
            </g>
        </g>
    </g>
</svg>