<?xml version="1.0" encoding="UTF-8"?>
<svg width="1027px" height="204px" viewBox="0 0 1027 204" version="1.1" xmlns="http://www.w3.org/2000/svg" xmlns:xlink="http://www.w3.org/1999/xlink">
    <!-- Generator: Sketch 55.2 (78181) - https://sketchapp.com -->
    <title>Group 8</title>
    <desc>Created with Sketch.</desc>
    <g id="Page-1" stroke="none" stroke-width="1" fill="none" fill-rule="evenodd">
        <g id="5756" transform="translate(-1121.000000, -1206.000000)">
            <g id="Group-8" transform="translate(1121.650000, 1205.980334)">
                <path d="M0,202.009666 C0,202.009666 157.74,86.7996656 215.27,92.1796656 C273.16,97.5996656 273.29,97.6696656 337.25,109.949666 C337.25,109.949666 492.2,-4.54033443 547.73,0.139665571 C603.26,4.80966557 686.05,71.9996656 686.05,71.9996656 C686.05,71.9996656 738.88,47.9896656 762.27,53.2896656 C785.65,58.5996656 851.42,114.719666 876.58,120.949666 C901.73,127.189666 925.81,147.709666 949.26,156.929666 C972.71,166.159666 1025.99,202.009666 1025.99,202.009666 L0,202.009666" id="Fill-137" fill="#A3D690"></path>
                <path d="M554.11,0.919665571 C554.11,0.919665571 617.13,44.8996656 635.07,73.2196656 C664.04,118.939666 677.68,160.509666 692.22,202.009666 L843.94,199.989666 C843.94,199.989666 733.79,78.4096656 684.74,48.2796656 C651.95,28.1396656 577.7,0.249665571 554.11,0.919665571" id="Fill-138" fill="#94BF82"></path>
                <path d="M215.27,92.1796656 C215.27,92.1796656 320.22,99.1996656 371.14,124.139666 C422.05,149.069666 504.14,202.069666 504.14,202.069666 L394,202.069666 C394,202.069666 364.9,156.349666 296.32,119.979666 C276.61,109.529666 215.27,92.1796656 215.27,92.1796656" id="Fill-139" fill="#94BF82"></path>
                <path d="M762.27,53.2896656 C772.24,61.7896656 804.45,101.279666 819,121.019666 C833.54,140.759666 853.29,202.069666 853.29,202.069666 L1025.99,202.009666 L862.64,98.1596656 C810.68,69.0596656 762.27,53.2896656 762.27,53.2896656" id="Fill-140" fill="#94BF82"></path>
                <polyline id="Fill-141" fill="#727FAF" points="177.21 187.989666 168.88 146.479666 160.56 187.989666 166.83 187.989666 166.83 196.599666 170.19 196.599666 170.19 187.989666 177.21 187.989666"></polyline>
                <polyline id="Fill-142" fill="#727FAF" points="197.47 173.439666 189.15 131.929666 180.82 173.439666 187.09 173.439666 187.09 182.059666 190.45 182.059666 190.45 173.439666 197.47 173.439666"></polyline>
                <polyline id="Fill-143" fill="#727FAF" points="230.72 186.949666 222.4 145.439666 214.07 186.949666 220.34 186.949666 220.34 195.569666 223.71 195.569666 223.71 186.949666 230.72 186.949666"></polyline>
                <polyline id="Fill-144" fill="#727FAF" points="929.76 193.179666 921.43 151.669666 913.11 193.179666 919.37 193.179666 919.37 201.799666 922.74 201.799666 922.74 193.179666 929.76 193.179666"></polyline>
                <polyline id="Fill-145" fill="#727FAF" points="966.38 193.269666 951.43 144.659666 936.48 193.269666 947.74 193.269666 947.74 203.359666 953.78 203.359666 953.78 193.269666 966.38 193.269666"></polyline>
                <polyline id="Fill-146" fill="#727FAF" points="672.71 137.219666 666.54 106.469666 660.37 137.219666 665.02 137.219666 665.02 143.609666 667.51 143.609666 667.51 137.219666 672.71 137.219666"></polyline>
                <polyline id="Fill-147" fill="#727FAF" points="427.23 136.439666 421.06 105.689666 414.89 136.439666 419.54 136.439666 419.54 142.829666 422.03 142.829666 422.03 136.439666 427.23 136.439666"></polyline>
                <polyline id="Fill-148" fill="#727FAF" points="413.98 116.959666 407.81 86.2096656 401.65 116.959666 406.29 116.959666 406.29 123.349666 408.78 123.349666 408.78 116.959666 413.98 116.959666"></polyline>
                <polyline id="Fill-149" fill="#727FAF" points="452.16 104.139666 447.16 79.1996656 442.16 104.139666 445.93 104.139666 445.93 109.319666 447.95 109.319666 447.95 104.139666 452.16 104.139666"></polyline>
                <polyline id="Fill-150" fill="#727FAF" points="652.45 108.129666 646.28 77.3796656 640.11 108.129666 644.76 108.129666 644.76 114.509666 647.25 114.509666 647.25 108.129666 652.45 108.129666"></polyline>
                <polyline id="Fill-151" fill="#727FAF" points="707.52 93.0596656 701.35 62.3096656 695.18 93.0596656 699.83 93.0596656 699.83 99.4496656 702.32 99.4496656 702.32 93.0596656 707.52 93.0596656"></polyline>
                <polyline id="Fill-152" fill="#727FAF" points="688.82 82.6696656 682.65 51.9196656 676.48 82.6696656 681.13 82.6696656 681.13 89.0596656 683.62 89.0596656 683.62 82.6696656 688.82 82.6696656"></polyline>
                <polyline id="Fill-153" fill="#727FAF" points="742.33 128.909666 736.16 98.1596656 730 128.909666 734.64 128.909666 734.64 135.299666 737.13 135.299666 737.13 128.909666 742.33 128.909666"></polyline>
                <polyline id="Fill-154" fill="#727FAF" points="760 152.809666 753.83 122.059666 747.66 152.809666 752.31 152.809666 752.31 159.199666 754.8 159.199666 754.8 152.809666 760 152.809666"></polyline>
            </g>
        </g>
    </g>
</svg>