<?xml version="1.0" encoding="UTF-8"?>
<svg width="984px" height="315px" viewBox="0 0 984 315" version="1.1" xmlns="http://www.w3.org/2000/svg" xmlns:xlink="http://www.w3.org/1999/xlink">
    <!-- Generator: Sketch 55.2 (78181) - https://sketchapp.com -->
    <title>Group 12</title>
    <desc>Created with Sketch.</desc>
    <g id="Page-1" stroke="none" stroke-width="1" fill="none" fill-rule="evenodd">
        <g id="5756" transform="translate(-165.000000, -1586.000000)">
            <g id="Group-12" transform="translate(165.688000, 1586.730000)">
                <path d="M0,314.18 C0,314.18 80.167,75.14 118.064,75.14 C155.961,75.14 166.164,88.26 166.164,88.26 C177.825,83.88 188.028,41.61 212.807,40.16 C237.713,38.69 268.195,85.34 268.195,85.34 L259.449,314.18 L0,314.18" id="Fill-128" fill="#A2B6F4"></path>
                <path d="M346.904,115.15 C346.904,115.15 443.104,2.84217094e-14 475.171,2.84217094e-14 C507.238,2.84217094e-14 536.39,62.68 558.253,59.76 C580.117,56.85 600.523,24.78 629.675,29.15 C658.826,33.52 765.229,180.74 765.229,180.74 L572.829,285.69 L364.395,211.35 L346.904,115.15" id="Fill-129" fill="#A2B6F4"></path>
                <path d="M48.1,314.11 C48.1,314.11 94.742,191.67 113.691,184.39 C132.64,177.1 157.418,214.99 177.825,206.25 C198.23,197.5 246.331,10.93 304.634,13.85 C362.937,16.76 361.479,120.25 381.886,124.62 C402.292,129 403.75,99.85 429.986,101.3 C456.222,102.76 495.577,249.98 559.71,241.23 C623.844,232.48 651.553,92.11 701.096,94.02 C738.993,95.47 738.993,123.17 762.314,121.71 C770.148,121.22 806.041,37.17 836.652,35.71 C867.262,34.25 905.212,142.05 922.652,158.15 C960.542,193.13 973.662,314.11 973.662,314.11 L48.1,314.11" id="Fill-130" fill="#8594CC"></path>
                <path d="M301.189,13.97 C303.375,15.42 325.964,33.64 328.879,55.5 C331.794,77.36 332.522,141.48 339.081,155.33 C345.639,169.17 366.77,172.09 383.53,227.47 C388.874,245.13 391.546,314.18 391.546,314.18 L440.367,313.45 C440.367,313.45 437.453,227.47 418.507,191.03 C411.439,177.44 379.887,132.74 374.786,119.62 C369.685,106.51 351.132,34.54 332.522,21.25 C322.321,13.97 306.29,11.05 301.189,13.97" id="Fill-131" fill="#6D7BA5"></path>
                <path d="M696.863,94.12 C696.863,94.12 715.08,99.95 720.91,121.08 C726.739,142.21 731.84,313.45 731.84,313.45 L868.102,314.18 C868.102,314.18 846.972,231.84 827.297,200.51 C809.25,171.77 779.204,150.96 771.188,145.13 C763.173,139.3 737.559,107.57 728.925,101.41 C713.623,90.48 696.863,94.12 696.863,94.12" id="Fill-132" fill="#6D7BA5"></path>
                <path d="M698.32,105.05 L692.491,104.32 C679.658,106.22 669.94,126.07 664.621,136.38 C658.541,148.17 652.909,159.23 647.839,171.36 C642.973,183 636.724,194.54 628.55,204.17 C620.78,213.33 608.943,220.06 602.701,230.22 C586.748,256.21 636.293,257.3 651.685,253.54 C685.746,245.22 678.218,204.87 686.824,178.61 C691.212,165.22 694.351,151.17 698.32,137.88 C702.028,125.46 704.915,115.48 698.32,105.05" id="Fill-133" fill="#91A3DB"></path>
                <path d="M296.817,25.62 L292.445,25.62 C283.021,25.41 270.81,49.59 267.139,57.1 C258.476,74.84 248.684,91.9 241.257,110.15 C231.445,134.26 215.18,158.18 208.626,183.02 C205.567,194.61 209.005,208.95 223.79,200.32 C235.685,193.39 238.526,178.34 244.19,166.99 C259.721,135.87 290.009,116.94 304.306,85.54 C309.432,74.28 310.912,62.6 311.391,50.4 C311.646,43.89 308.535,19.37 296.817,25.62" id="Fill-134" fill="#91A3DB"></path>
                <path d="M132.135,205.61 L127.035,203.42 C113.899,197.34 107.148,218.43 102.421,226.92 C96.321,237.88 87.86,247.33 82.385,258.8 C79.373,265.12 67.47,288.93 76.718,292.36 C87.342,296.3 104.547,267.87 111.729,262.29 C123.594,253.06 141.374,250.69 147.6,235.5 C154.413,218.88 143.2,214.31 132.135,205.61" id="Fill-135" fill="#91A3DB"></path>
                <path d="M839.682,35.83 C851.342,38.74 873.202,54.77 895.062,99.95 C916.922,145.13 925.672,154.6 935.872,164.8 C946.072,175 982.502,314.18 982.502,314.18 L911.822,312.73 C911.822,312.73 908.912,207.79 903.812,180.1 C898.712,152.41 875.392,83.92 864.462,70.07 C853.532,56.23 839.682,35.83 839.682,35.83" id="Fill-136" fill="#6D7BA5"></path>
            </g>
        </g>
    </g>
</svg>