<?xml version="1.0" encoding="UTF-8"?>
<svg width="1163px" height="318px" viewBox="0 0 1163 318" version="1.1" xmlns="http://www.w3.org/2000/svg" xmlns:xlink="http://www.w3.org/1999/xlink">
    <!-- Generator: Sketch 55.2 (78181) - https://sketchapp.com -->
    <title>Group 3</title>
    <desc>Created with Sketch.</desc>
    <g id="Page-1" stroke="none" stroke-width="1" fill="none" fill-rule="evenodd">
        <g id="5756" transform="translate(-2035.000000, -162.000000)">
            <g id="Group-3" transform="translate(2035.440000, 162.273000)">
                <path d="M0,317.658 C0,317.658 33.95,272.547 62.55,257.51 C91.14,242.473 105.44,219.917 123.31,201.121 C141.19,182.325 167.99,140.973 193.02,137.213 C218.04,133.454 244.84,167.288 269.86,178.565 C294.89,189.843 353.86,144.732 382.46,137.213 C411.05,129.695 446.8,109.019 446.8,109.019 C446.8,109.019 477.18,48.871 482.54,41.352 C487.9,33.833 527.22,5.639 527.22,5.639 C527.22,5.639 557.6,46.991 566.54,56.389 C575.48,65.787 630.88,161.648 630.88,161.648 C630.88,161.648 643.39,146.611 652.32,144.732 C661.26,142.852 689.85,157.889 689.85,157.889 L714.88,210.519 C714.88,210.519 754.34,132.765 773.85,114.658 C804.24,86.463 822.11,93.982 822.11,93.982 C822.11,93.982 850.7,124.056 870.36,140.973 C890.02,157.889 956.15,203 970.44,227.436 C984.74,251.871 1031.21,263.149 1054.44,268.788 C1077.68,274.427 1161.68,317.658 1161.68,317.658 L0,317.658" id="Fill-23" fill="#897A6E"></path>
                <path d="M540.8,107.327 C538.12,116.724 552.41,148.672 552.41,148.672 L604.23,199.415 L604.23,224.103 L613.11,317.658 L742.72,317.658 C742.72,317.658 685.54,240.334 677.5,224.103 C669.46,207.872 630.88,161.648 630.88,161.648 L574.75,66.92 L539.01,69.74 L530.08,85.714 L540.8,107.327" id="Fill-24" fill="#75685F"></path>
                <polyline id="Fill-25" fill="#BCDEE2" points="527.39 2.083 483.61 36.851 463.96 74.438 476.47 70.679 473.79 87.594 471.11 112.965 497.91 67.86 497.02 78.197 508.63 68.8 516.67 84.774 539.01 69.74 564.92 101.688 561.35 68.8 575.64 86.654 596.19 104.508 569.39 54.705 527.39 2.083"></polyline>
                <polyline id="Fill-26" fill="#75685F" points="564.03 227.436 539.9 184.38 515.78 161.648 530.08 219.405 530.08 246.399 493.44 268.011 483.61 317.658 573.85 317.658 580.84 239.653 564.03 227.436"></polyline>
                <polyline id="Fill-27" fill="#75685F" points="689.85 157.889 679.28 171.225 689.85 181.561 679.28 202.234 701.62 243.58 714.88 210.519 689.85 157.889"></polyline>
                <path d="M822.11,93.982 L812.41,118.603 L831.17,130.819 L845.47,145.853 L836.79,172.165 L820.45,205.053 L900.86,205.053 C900.86,205.053 951.79,238.546 949.11,239.653 C946.43,240.761 930.35,253.916 934.81,253.916 C939.28,253.916 966.14,261.434 967.9,260.494 C969.66,259.554 909.13,317.658 909.13,317.658 L1161.68,317.658 C1161.68,317.658 1115.29,278.348 1078.66,267.072 C1042.03,255.795 992.81,243.241 987.04,227.436 C981.27,211.631 933.03,179.322 905.33,157.889 C877.63,136.456 838.95,98.491 822.11,93.982" id="Fill-28" fill="#75685F"></path>
                <path d="M2.27373675e-13,317.658 C2.27373675e-13,317.658 13.15,279.702 31.52,272.71 C49.9,265.718 55.78,250.821 73.58,243.58 C91.39,236.338 146.99,173.204 146.99,173.204 C146.99,173.204 163.76,181.405 165.54,192.29 C167.33,203.174 161.65,213.171 159.57,227.436 C157.5,241.701 179.84,252.977 183.41,261.434 C186.98,269.891 123.55,317.658 123.55,317.658 L2.27373675e-13,317.658" id="Fill-29" fill="#A89588"></path>
                <polyline id="Fill-30" fill="#A89588" points="380.87 205.82 410.35 188.139 433.58 157.889 460.39 137.213 489.87 112.965 483.61 159.393 459.49 179.682 459.49 219.405 475.57 224.103 455.02 305.599 355.49 239.653 380.87 205.82"></polyline>
                <polyline id="Fill-31" fill="#A89588" points="330.72 200.734 350.49 173.204 390.69 173.204 424.79 143.035 382.65 157.889 350.49 157.889 299.56 192.29 330.72 200.734"></polyline>
                <path d="M193.02,137.213 C212.45,140.678 233.44,144.914 242.38,150.552 C251.31,156.19 259.32,175.398 279.89,180.359 C300.45,185.32 353.35,199.415 355.49,205.993 C357.64,212.57 346.92,219.405 346.92,219.405 C354.96,226.665 398.74,238.881 415.71,252.977 C432.69,267.072 468.43,317.658 468.43,317.658 L243.27,317.658 C243.27,317.658 374.61,299.96 387.12,288.684 C399.63,277.408 382.5,261.434 378.11,257.675 C373.72,253.916 306.71,236.663 302.24,227.436 C297.77,218.208 306.28,215.39 306.28,215.39 C306.28,215.39 264.72,201.294 259.36,195.656 C254,190.018 247.44,164.717 238.66,157.634 C229.87,150.552 193.02,137.213 193.02,137.213" id="Fill-32" fill="#75685F"></path>
                <polyline id="Fill-33" fill="#A89588" points="773.85 114.658 714.88 192.29 701.62 243.58 697.08 260.494 742.72 317.658 773.85 317.658 752.55 268.951 773.85 260.494 790.97 200.734 753.44 219.405 775.78 188.139 795.43 173.204 777.56 157.889 773.85 114.658"></polyline>
                <polyline id="Fill-34" fill="#9FBBBC" points="522.77 41.484 539.01 69.74 564.92 101.688 567.25 80.326 596.19 104.508 569.39 54.705 528.33 0 522.77 41.484"></polyline>
            </g>
        </g>
    </g>
</svg>