<?xml version="1.0" encoding="UTF-8"?>
<svg width="950px" height="304px" viewBox="0 0 950 304" version="1.1" xmlns="http://www.w3.org/2000/svg" xmlns:xlink="http://www.w3.org/1999/xlink">
    <!-- Generator: Sketch 55.2 (78181) - https://sketchapp.com -->
    <title>Group 2</title>
    <desc>Created with Sketch.</desc>
    <g id="Page-1" stroke="none" stroke-width="1" fill="none" fill-rule="evenodd">
        <g id="5756" transform="translate(-963.000000, -175.000000)">
            <g id="Group-2" transform="translate(963.899000, 175.334635)">
                <polyline id="Fill-97" fill="#CEC87E" points="949.021 300.659365 948.771 300.655365 949.021 300.659365"></polyline>
                <path d="M908.911,260.860365 C888.371,244.609365 868.111,244.173365 845.231,235.699365 C824.241,227.930365 828.141,204.361365 811.761,190.364365 C802.891,182.778365 792.551,185.904365 784.691,178.985365 C777.171,172.363365 780.321,157.474365 765.091,159.530365 C740.351,162.867365 753.641,202.535365 748.521,217.124365 C744.481,214.738365 740.261,212.630365 736.041,210.766365 C715.651,201.750365 689.411,200.874365 674.151,182.826365 C665.951,173.130365 663.751,159.887365 658.941,148.533365 C654.631,138.337365 648.561,128.880365 643.731,119.145365 C630.361,92.2273646 620.611,84.5003646 594.991,69.3913646 C586.481,64.3743646 580.491,51.7073646 572.581,47.8563646 C564.001,43.6863646 550.131,50.6153646 541.051,49.3383646 C527.511,47.4343646 522.611,44.3353646 517.571,60.0233646 C513.301,73.2783646 515.791,80.6663646 498.171,76.9583646 C479.371,73.0003646 464.041,51.3873646 452.881,36.5493646 C445.851,27.2053646 440.471,17.0763646 431.791,8.85836465 C420.331,-1.99663535 416.241,1.22536465 403.861,8.51136465 C386.671,18.6313646 363.071,33.4173646 350.581,47.8843646 C336.641,64.0173646 349.461,96.4463646 329.491,107.386365 C304.351,121.155365 303.681,78.8413646 297.981,68.0133646 C280.311,34.3953646 261.761,78.8213646 250.961,89.4393646 C242.911,97.3563646 233.401,94.8543646 225.351,103.898365 C216.001,114.402365 219.901,121.807365 221.881,134.395365 C225.181,155.291365 219.971,182.639365 199.491,192.824365 C189.771,197.655365 176.961,197.789365 166.331,204.127365 C152.211,212.552365 143.481,224.747365 131.691,235.691365 C112.911,253.128365 84.911,250.055365 61.161,253.643365 C44.951,256.091365 5.332,281.488365 4.455,303.425365 L948.771,303.425365 C944.211,302.809365 917.901,267.964365 908.911,260.860365" id="Fill-98" fill="#CEC87E"></path>
                <path d="M282.101,56.8703646 C282.251,56.6383646 282.401,56.4183646 282.561,56.2033646 C282.411,56.1123646 282.261,56.0263646 282.101,55.9483646 L282.101,56.8703646" id="Fill-99" fill="#B2AC6F"></path>
                <path d="M309.041,99.0683646 C308.031,94.0053646 297.591,35.1283646 282.561,56.2033646 C287.681,59.3163646 286.501,69.7703646 285.831,76.2773646 C284.681,87.5173646 289.981,88.6983646 293.411,98.1533646 C296.881,107.738365 289.501,109.564365 284.611,115.844365 C278.831,123.269365 278.421,131.845365 277.631,140.622365 C286.531,142.742365 292.331,127.354365 298.891,123.451365 C303.381,120.781365 309.161,121.430365 311.641,115.918365 C314.051,110.561365 309.951,103.669365 309.041,99.0683646" id="Fill-100" fill="#B2AC6F"></path>
                <path d="M265.751,105.524365 C261.401,87.9103646 245.261,92.8273646 233.241,98.3543646 L235.081,98.3543646 C246.531,97.1263646 257.991,101.774365 254.231,114.949365 C251.101,125.899365 243.341,133.292365 250.751,143.662365 C251.731,128.478365 269.331,119.968365 265.751,105.524365" id="Fill-101" fill="#B2AC6F"></path>
                <path d="M499.521,77.9373646 C498.971,71.7843646 480.531,69.0493646 475.721,62.4453646 C469.171,53.4753646 466.521,42.6443646 459.091,33.8233646 C451.541,24.8533646 431.311,-7.40563535 416.691,1.55736465 L416.691,3.40036465 C429.471,19.4373646 419.941,22.2973646 411.071,35.6633646 C416.251,42.5243646 427.941,42.3193646 434.431,50.1883646 C440.291,57.2783646 443.141,65.9993646 431.601,69.0153646 C430.851,76.6423646 440.361,75.0173646 444.581,79.6673646 C449.541,85.1503646 448.181,94.1423646 447.831,101.120365 C447.481,108.228365 445.001,117.265365 451.521,122.577365 C456.991,127.038365 463.781,125.084365 466.701,118.658365 C473.181,104.391365 451.841,87.1313646 459.801,74.1593646 C466.121,63.8523646 489.811,77.0323646 499.521,77.9373646" id="Fill-102" fill="#B2AC6F"></path>
                <path d="M566.041,48.5733646 C566.101,48.3743646 566.171,48.1913646 566.241,48.0073646 C565.601,47.8613646 564.921,47.7403646 564.191,47.6513646 L566.041,48.5733646" id="Fill-103" fill="#B2AC6F"></path>
                <path d="M591.891,63.3263646 C591.551,60.2203646 588.371,54.6613646 586.601,52.0523646 C582.091,45.4393646 569.351,39.6813646 566.241,48.0073646 C583.231,51.8793646 569.921,75.2293646 569.681,84.5263646 C569.481,91.9793646 574.291,125.561365 580.781,127.025365 C594.401,116.708365 579.791,86.8163646 586.991,73.1903646 C589.311,68.7953646 592.721,70.8393646 591.891,63.3263646" id="Fill-104" fill="#B2AC6F"></path>
                <path d="M765.161,161.043365 C765.381,160.859365 765.591,160.693365 765.801,160.537365 C765.601,160.390365 765.391,160.249365 765.161,160.121365 L765.161,161.043365" id="Fill-105" fill="#B2AC6F"></path>
                <path d="M791.061,184.090365 C783.351,178.585365 784.681,175.167365 780.891,167.445365 C778.171,161.924365 771.621,156.306365 765.801,160.537365 C775.201,167.303365 762.961,194.039365 777.931,190.683365 C778.341,198.740365 774.991,232.638365 787.131,230.942365 C789.891,224.289365 789.951,215.568365 790.051,208.059365 C790.151,200.846365 786.411,189.977365 791.061,184.090365" id="Fill-106" fill="#B2AC6F"></path>
                <path d="M935.941,280.865365 C914.291,258.898365 891.321,248.770365 863.811,237.560365 C853.701,233.444365 834.381,232.308365 827.601,222.092365 C823.801,216.375365 823.801,209.097365 820.731,203.194365 C818.191,198.326365 811.091,192.155365 810.341,188.699365 L809.411,192.387365 C809.431,193.009365 809.421,193.631365 809.391,194.252365 C811.971,208.363365 812.401,223.597365 813.821,238.734365 C814.631,247.335365 813.601,258.114365 820.471,264.363365 C825.771,269.180365 835.761,269.474365 842.111,273.263365 C851.531,278.878365 856.581,286.704365 867.691,289.902365 C876.001,292.291365 884.961,292.929365 893.511,293.747365 C911.071,295.425365 931.091,305.068365 948.771,303.425365 C949.711,295.355365 941.111,286.107365 935.941,280.865365" id="Fill-107" fill="#B2AC6F"></path>
                <path d="M679.431,174.871365 C677.791,158.891365 670.851,147.576365 664.011,133.178365 C656.721,117.837365 649.231,104.965365 635.411,94.4393646 C628.431,89.1193646 620.341,83.9293646 612.131,81.7613646 L619.511,89.1363646 C624.531,104.169365 629.211,116.873365 627.601,133.386365 C626.651,143.104365 624.161,147.137365 631.521,154.586365 C636.351,159.482365 640.451,161.774365 642.351,168.623365 C646.841,184.770365 627.191,197.169365 618.331,208.936365 C613.541,215.295365 605.481,223.745365 604.531,232.028365 C603.321,242.640365 611.031,240.099365 617.641,234.838365 C631.281,223.987365 640.941,209.126365 656.181,200.431365 C661.641,197.315365 669.001,196.466365 673.941,193.335365 C680.411,189.239365 680.271,183.130365 679.431,174.871365" id="Fill-108" fill="#B2AC6F"></path>
                <path d="M124.291,303.073365 C129.401,280.311365 151.101,275.669365 170.551,270.519365 C192.731,264.644365 237.341,268.390365 251.611,247.857365 C246.531,246.042365 244.301,248.207365 239.921,248.853365 C236.431,249.369365 231.841,249.348365 227.041,249.544365 C215.871,249.998365 206.721,249.708365 195.461,249.544365 C170.801,249.184365 146.531,258.752365 122.381,257.841365 C105.921,257.220365 89.411,253.280365 72.831,254.105365 C43.471,255.566365 8.92,272.784365 -5.68434189e-14,303.425365 L124.291,303.073365" id="Fill-109" fill="#E8E091"></path>
                <path d="M513.491,185.012365 C503.351,182.048365 410.241,173.027365 374.981,180.220365 C361.141,183.043365 349.451,169.698365 336.261,164.958365 C311.601,156.100365 296.601,171.583365 272.831,173.027365 C264.891,173.509365 257.421,171.202365 249.831,173.027365 C240.271,175.327365 233.351,182.686365 224.741,187.082365 C206.771,196.257365 187.091,197.728365 168.701,203.450365 L161.331,205.293365 C154.741,209.477365 144.911,211.714365 138.281,220.043365 C133.771,225.718365 125.721,234.384365 124.601,241.111365 C138.701,242.257365 144.741,236.301365 155.571,229.034365 C165.811,222.158365 178.731,220.032365 190.621,217.076365 C230.771,207.101365 276.831,192.953365 319.201,195.358365 C336.931,196.364365 350.011,203.494365 367.631,196.791365 C380.141,192.028365 443.191,187.449365 457.251,192.387365 C456.101,191.958365 514.651,185.352365 513.491,185.012365" id="Fill-110" fill="#E8E091"></path>
                <path d="M555.691,125.294365 C540.501,122.902365 529.201,114.529365 514.621,111.035365 C491.021,105.380365 474.961,130.098365 454.491,137.815365 C437.641,144.167365 424.751,135.742365 408.391,138.917365 C392.841,141.938365 387.921,164.996365 370.601,167.496365 L390.881,175.793365 C390.641,176.451365 389.471,176.603365 389.891,178.214365 C392.181,176.764365 393.861,174.265365 396.181,172.799365 C411.671,163.008365 424.651,161.341365 443.221,163.787365 C461.301,166.167365 474.731,169.252365 492.291,162.887365 C501.131,159.683365 510.161,157.696365 519.201,155.332365 C530.311,152.429365 535.431,155.211365 545.551,155.713365 C555.091,156.187365 554.831,150.138365 561.631,143.325365 C566.811,138.136365 574.631,135.653365 578.851,129.904365 C571.121,127.392365 563.521,126.528365 555.691,125.294365" id="Fill-111" fill="#E8E091"></path>
                <path d="M601.991,159.199365 L585.401,158.277365 C578.221,160.687365 571.471,161.738365 564.911,166.318365 C556.451,172.231365 557.121,180.550365 550.361,187.548365 C539.091,199.216365 513.571,193.924365 498.271,196.075365 C473.561,199.548365 452.101,215.922365 436.731,235.757365 C432.701,240.954365 428.911,247.860365 423.191,251.616365 C416.671,255.893365 408.651,256.582365 401.891,260.378365 C384.151,270.342365 372.681,289.627365 352.461,294.759365 C369.861,290.587365 386.991,287.456365 404.711,284.780365 C412.611,283.586365 418.651,283.623365 424.271,279.092365 C435.231,270.259365 444.001,257.880365 455.821,249.522365 C466.481,241.994365 474.951,245.031365 486.991,244.009365 C500.521,242.860365 516.521,240.003365 527.871,231.823365 C537.581,224.826365 542.921,218.005365 554.721,213.818365 C563.441,210.725365 573.571,209.394365 581.691,205.088365 C589.811,200.775365 591.761,191.239365 599.231,187.061365 C605.941,183.306365 618.691,186.040365 624.161,179.251365 C635.861,164.721365 606.081,161.904365 601.991,159.199365" id="Fill-112" fill="#E8E091"></path>
                <path d="M730.131,214.512365 L689.571,209.903365 C681.971,207.876365 676.381,204.970365 668.371,209.209365 C660.841,213.191365 656.241,220.717365 650.201,226.506365 C641.551,234.778365 628.591,250.655365 617.811,255.157365 C609.351,258.691365 599.241,256.441365 590.071,256.922365 C580.031,257.449365 568.461,255.506365 558.661,256.871365 C548.561,258.278365 539.151,265.553365 529.161,268.032365 C510.921,272.561365 493.701,276.348365 475.691,284.346365 C467.071,288.174365 457.441,296.901365 448.111,297.687365 C454.651,300.332365 465.471,296.018365 472.971,295.638365 C482.681,295.146365 492.001,294.934365 501.501,293.773365 C514.551,292.177365 523.171,282.343365 537.471,279.973365 C548.431,278.156365 558.971,279.908365 569.721,279.966365 C590.851,280.080365 617.221,280.744365 637.691,275.127365 C647.821,272.346365 651.411,270.963365 657.311,262.472365 C663.911,252.964365 669.421,240.201365 678.511,233.180365 C692.101,222.679365 713.481,218.054365 730.041,217.094365 C728.851,215.776365 729.991,215.875365 730.131,214.512365" id="Fill-113" fill="#E8E091"></path>
            </g>
        </g>
    </g>
</svg>