<?xml version="1.0" encoding="UTF-8"?>
<svg width="682px" height="260px" viewBox="0 0 682 260" version="1.1" xmlns="http://www.w3.org/2000/svg" xmlns:xlink="http://www.w3.org/1999/xlink">
    <!-- Generator: Sketch 55.2 (78181) - https://sketchapp.com -->
    <title>Group</title>
    <desc>Created with Sketch.</desc>
    <g id="Page-1" stroke="none" stroke-width="1" fill="none" fill-rule="evenodd">
        <g id="5756" transform="translate(-187.000000, -220.000000)">
            <g id="Group" transform="translate(187.680000, 220.144554)">
                <path d="M0,259.786446 C0,259.786446 39.449,193.467446 51.283,189.508446 C63.118,185.549446 77.32,169.711446 77.32,169.711446 C77.32,169.711446 145.173,90.5254462 164.108,84.5864462 C183.044,78.6474462 223.282,41.0334462 239.062,40.0434462 C254.841,39.0544462 333.74,75.6774462 339.657,70.7294462 C345.574,65.7794462 378.712,11.3384462 388.968,7.37944619 C399.225,3.42044619 412.638,-1.52855381 418.161,0.450446194 C423.684,2.43044619 489.17,84.5864462 511.261,93.4954462 C533.353,102.403446 619.352,161.793446 619.352,161.793446 C646.177,200.397446 680.893,259.786446 680.893,259.786446 L0,259.786446" id="Fill-3" fill="#449393"></path>
                <path d="M404.484,45.1474462 C409.165,62.4634462 429.611,46.1514462 432.928,65.8824462 C436.374,86.3764462 434.118,96.5944462 454.231,96.5674462 C466.321,96.5504462 494.169,102.163446 483.67,122.484446 C477.942,133.573446 459.761,149.485446 463.683,165.859446 C467.922,183.558446 494.791,178.598446 505.92,176.491446 C517.02,174.391446 527.887,169.686446 539.121,168.777446 C548.572,168.012446 556.473,172.320446 565.57,174.787446 C578.795,178.372446 589.567,178.959446 601.277,187.859446 C617.633,200.290446 634.96,210.691446 651.327,223.064446 C654.118,225.175446 659.88,230.830446 665.37,234.261446 C652.818,213.537446 634.653,184.236446 619.128,161.896446 C619.128,161.896446 533.129,102.506446 511.037,93.5984462 C488.946,84.6894462 423.46,2.53344619 417.937,0.553446194 C417.665,0.456446194 417.368,0.379446194 417.059,0.314446194 C411.704,13.5994462 400.52,30.4844462 404.484,45.1474462" id="Fill-4" fill="#336D6B"></path>
                <path d="M309.532,259.786446 C307.291,256.017446 303.314,253.066446 300.706,250.681446 C302.872,246.393446 307.446,246.485446 310.857,243.179446 C314.263,239.877446 314.034,237.558446 316.166,233.061446 C320.61,223.689446 327.612,217.477446 332.907,209.301446 C342.485,194.515446 352.852,181.535446 362.757,167.460446 C370.861,155.944446 376.538,144.330446 367.644,131.082446 C358.986,118.186446 349.882,109.845446 343.403,94.4844462 C340.293,87.1114462 338.518,79.1444462 337.039,71.1674462 C321.921,70.2414462 253.622,39.1304462 239.062,40.0434462 C238.622,40.0714462 238.16,40.1314462 237.682,40.2154462 C238.054,56.3984462 228.817,70.9794462 242.968,84.6144462 C256.853,97.9924462 277.707,105.063446 294.118,112.573446 C307.538,118.714446 326.042,133.099446 306.125,147.217446 C285.969,161.504446 259.046,158.650446 237.68,170.730446 C227.424,176.528446 216.907,182.695446 213.023,195.447446 C208.893,209.003446 200.501,213.046446 189.356,219.423446 C168.392,231.418446 141.792,240.609446 123.708,259.786446 L309.532,259.786446" id="Fill-5" fill="#336D6B"></path>
                <path d="M80.08,259.786446 C82.307,257.953446 84.551,255.994446 86.828,253.898446 C95.54,245.881446 103.84,236.761446 112.865,229.050446 C117.455,225.128446 127.895,220.156446 128.645,212.326446 C129.934,198.863446 116.063,208.858446 115.178,199.403446 C114.287,189.877446 134.801,186.297446 139.474,184.779446 C144.474,183.156446 158.206,180.087446 156.213,169.715446 C154.64,161.529446 144.033,166.734446 138.926,166.538446 C142.506,162.717446 148.648,160.129446 149.803,154.027446 C143.36,154.494446 135.782,162.248446 129.474,158.626446 C133.154,148.376446 163.409,125.787446 156.435,115.989446 C150.444,107.573446 131.315,115.897446 121.653,120.942446 C99.249,144.120446 77.32,169.711446 77.32,169.711446 C77.32,169.711446 63.118,185.549446 51.283,189.508446 C39.449,193.467446 0,259.786446 0,259.786446 L80.08,259.786446" id="Fill-6" fill="#54B2AF"></path>
                <path d="M347.026,233.364446 C343.425,240.521446 338.248,251.702446 332.519,259.786446 L488.845,259.786446 C490.822,250.983446 494.407,236.759446 491.267,229.658446 C485.757,217.195446 467.466,229.133446 459.42,223.563446 C454.902,220.435446 460.639,216.699446 452.201,219.839446 C449.405,220.879446 443.466,225.472446 440.386,222.821446 C434.237,217.525446 443.128,209.082446 442.66,203.041446 C433.773,201.716446 422.566,216.623446 413.861,211.686446 C406.293,207.394446 412.593,194.134446 415.07,187.360446 C417.563,180.544446 424.636,168.647446 424.88,161.192446 C425.083,154.983446 422.25,152.727446 423.132,145.845446 C420.942,146.993446 416.814,150.520446 414.351,149.475446 C410.689,147.920446 413.364,148.248446 412.719,144.451446 C412.339,142.209446 415.959,141.272446 413.193,139.034446 C412.236,138.260446 407.698,140.865446 406.686,141.465446 C394.413,148.738446 382.696,166.007446 375.428,180.078446 C366.213,197.919446 356.067,215.400446 347.026,233.364446" id="Fill-7" fill="#54B2AF"></path>
            </g>
        </g>
    </g>
</svg>