<?xml version="1.0" encoding="UTF-8"?>
<svg width="954px" height="375px" viewBox="0 0 954 375" version="1.1" xmlns="http://www.w3.org/2000/svg" xmlns:xlink="http://www.w3.org/1999/xlink">
    <!-- Generator: Sketch 55.2 (78181) - https://sketchapp.com -->
    <title>Group 9</title>
    <desc>Created with Sketch.</desc>
    <g id="Page-1" stroke="none" stroke-width="1" fill="none" fill-rule="evenodd">
        <g id="5756" transform="translate(-2250.000000, -1039.000000)">
            <g id="Group-9" transform="translate(2250.460000, 1039.130000)">
                <path d="M539.7,170.57 L446.76,155.36 C445.69,139.03 444.03,118.35 437.78,103.68 C434.28,95.45 431.84,97.33 424.3,94.32 C417.3,91.53 402.96,85.11 397.42,78.45 C382.68,60.75 396.15,40.42 406.91,32.96 C414.94,27.38 429.61,26.88 434.63,26.88 C435.74,26.88 436.38,26.9 436.38,26.9 C436.38,26.9 447.28,11.09 457.17,8.11 C464.19,5.99 470.41,5.17 475.83,5.17 C493.93,5.17 503.04,14.29 503.04,14.29 C503.04,14.29 523.32,-1.13686838e-13 543.59,-1.13686838e-13 C551.84,-1.13686838e-13 560.08,2.37 566.95,9.03 C578.91,20.61 556.02,40.5 556.02,40.5 C556.02,40.5 566.7,32.81 573.1,32.81 C573.79,32.81 574.43,32.9 575.01,33.1 C592.36,39.14 593.24,46.42 593.03,57.52 C592.64,78.83 571.5,82.76 556.93,85.54 C537.68,89.21 529.35,101.26 530.72,123.15 C531.26,131.57 534.39,140.08 536.08,148.42 C536.96,152.75 537.36,157.14 538.11,161.61 C538.63,164.76 539,169.39 539.7,170.57 M453.33,28.83 C452.79,28.83 452.27,28.86 451.76,28.94 C442.82,30.24 432.75,37.14 424.91,41.73 C416.5,46.65 409.31,57.91 422.04,63.98 C427,66.34 450.87,63.89 436.56,75.83 C444.88,83.42 467.22,72.51 468.25,90.23 C481.07,88.47 485.34,69.53 470.66,66.63 C467.75,66.06 465.73,66.01 464.11,66.01 C463.94,66.01 463.78,66.01 463.62,66.01 C463.46,66.01 463.31,66.01 463.16,66.01 C460.22,66.01 458.51,65.82 454.16,61.6 C450.6,58.15 447.61,53.61 443.79,49.98 C451.51,40.21 468.61,42.79 478.98,37.44 C485.96,33.84 495.23,18.11 485.25,18.11 C484.05,18.11 482.58,18.34 480.79,18.84 L473.58,18.29 C469.54,20.42 470.65,25.02 466.83,27.76 C465.04,29.05 463.03,29.41 460.97,29.41 C459.67,29.41 458.35,29.26 457.06,29.12 C455.77,28.98 454.51,28.83 453.33,28.83" id="Fill-114" fill="#EBDFD8"></path>
                <path d="M540.05,170.86 C539.93,170.86 539.81,170.76 539.7,170.57 L540.35,170.68 C540.25,170.8 540.15,170.86 540.05,170.86" id="Fill-115" fill="#EBDFD8"></path>
                <path d="M0,374.47 C0,374.47 36.82,325.38 56.77,311.57 C76.71,297.76 101.26,282.42 101.26,282.42 L135.01,248.67 L233.2,270.15 C233.2,270.15 297.63,219.52 319.11,207.25 C340.59,194.97 382.01,179.63 382.01,179.63 L431.1,127.47 L477.13,135.14 L492.47,122.87 L507.81,132.07 L547.7,127.47 C547.7,127.47 573.78,159.69 579.92,168.89 C586.06,178.1 641.29,244.07 641.29,244.07 L728.73,254.8 C728.73,254.8 787.03,294.69 791.64,296.23 C796.24,297.76 822.32,282.42 822.32,282.42 L952.72,369.87 L0,374.47" id="Fill-116" fill="#897A6E"></path>
                <polyline id="Fill-117" fill="#BFA99B" points="0 374.47 45.17 318.78 101.26 282.42 135.01 248.67 140.28 276.34 158.17 270.21 144.37 313.16 162.26 310.6 156.13 326.97 165.84 320.83 142.83 373.5 0 374.47"></polyline>
                <path d="M233.2,270.15 L249.7,272.76 C249.7,272.76 218.51,332.59 219.53,331.06 C220.56,329.52 304.93,267.14 304.93,267.14 L301.86,255.38 L311.58,251.29 L339.19,220.61 L316.69,230.83 L338.17,212.43 L355.55,206.29 L382.01,179.63 L320.27,204.75 L233.2,270.15" id="Fill-118" fill="#BFA99B"></path>
                <path d="M479.81,372.47 C479.81,372.47 533.5,298.84 535.54,298.33 C537.59,297.82 556,295.77 556,295.77 L641.29,244.07 L678.21,249.24 L661.84,265.6 L677.18,263.56 L672.07,277.88 L665.93,291.68 L677.7,322.36 L703.26,298.84 L705.82,309.07 L697.13,329.01 L715.02,344.86 L706.84,371.45 L479.81,372.47" id="Fill-119" fill="#BFA99B"></path>
                <polyline id="Fill-120" fill="#776961" points="547.7 127.47 554.97 168.45 570.31 183.79 567.25 204.24 592.81 272.76 641.29 244.07 547.7 127.47"></polyline>
                <polyline id="Fill-121" fill="#776961" points="728.73 254.8 725.76 276.85 740.08 282.99 745.19 318.78 764.62 315.72 762.58 338.21 789.17 304.47 791.64 296.23 728.73 254.8"></polyline>
                <polyline id="Fill-122" fill="#776961" points="822.32 282.42 820.87 307.53 838.26 313.67 849.51 323.9 835.19 340.26 851.55 369.92 952.72 369.87 822.32 282.42"></polyline>
                <polyline id="Fill-123" fill="#F29208" points="431.1 127.47 404.64 156.18 410.78 167.43 394.41 188.9 376 230.83 404.64 195.04 421 179.7 416.91 154.13 441.46 129.59 431.1 127.47"></polyline>
                <polyline id="Fill-124" fill="#F29208" points="457.82 132.66 446.57 154.13 454.75 168.45 447.59 205.27 441.46 256.4 461.91 175.61 471.11 178.68 471.11 197.08 476.23 173.56 460.89 162.31 455.77 152.09 469.07 133.68 457.82 132.66"></polyline>
                <polyline id="Fill-125" fill="#F29208" points="507.81 132.07 522.25 148 515.09 185.84 536.57 207.31 546.79 243.11 546.79 192.99 528.38 180.72 537.59 148 527.36 129.59 507.81 132.07"></polyline>
                <polyline id="Fill-126" fill="#F29208" points="539.63 128.57 557.02 148 554.97 168.45 584.63 188.9 565.2 165.38 562.13 148 547.7 127.47 539.63 128.57"></polyline>
                <path d="M468.25,90.23 C467.22,72.51 444.88,83.42 436.56,75.83 C450.87,63.89 427,66.34 422.04,63.98 C409.31,57.91 416.5,46.65 424.91,41.73 C432.75,37.14 442.82,30.24 451.76,28.94 C452.27,28.86 452.79,28.83 453.33,28.83 C454.51,28.83 455.77,28.98 457.06,29.12 C458.35,29.26 459.67,29.41 460.97,29.41 C463.03,29.41 465.04,29.05 466.83,27.76 C470.65,25.02 469.54,20.42 473.58,18.29 L480.79,18.84 C482.58,18.34 484.05,18.11 485.25,18.11 C495.23,18.11 485.96,33.84 478.98,37.44 C468.61,42.79 451.51,40.21 443.79,49.98 C447.61,53.61 450.6,58.15 454.16,61.6 C458.51,65.82 460.22,66.01 463.16,66.01 C463.31,66.01 463.46,66.01 463.62,66.01 C463.78,66.01 463.94,66.01 464.11,66.01 C465.73,66.01 467.75,66.06 470.66,66.63 C485.34,69.53 481.07,88.47 468.25,90.23" id="Fill-127" fill="#F5EFEC"></path>
            </g>
        </g>
    </g>
</svg>