<?xml version="1.0" encoding="UTF-8"?>
<svg width="1002px" height="281px" viewBox="0 0 1002 281" version="1.1" xmlns="http://www.w3.org/2000/svg" xmlns:xlink="http://www.w3.org/1999/xlink">
    <!-- Generator: Sketch 55.2 (78181) - https://sketchapp.com -->
    <title>Group</title>
    <desc>Created with Sketch.</desc>
    <g id="Page-1" stroke="none" stroke-width="1" fill="none" fill-rule="evenodd">
        <g id="5894" transform="translate(-262.000000, -258.000000)">
            <g id="Group" transform="translate(262.380000, 258.503597)">
                <path d="M157.913,279.429403 L0,279.429403 C0,279.429403 42.988,171.099403 115.804,153.099403 C158.42,142.564403 168.441,61.8594028 224.588,65.3694028 C280.734,68.8784028 366.71,279.429403 366.71,279.429403 L157.913,279.429403" id="Fill-118" fill="#99BDF2"></path>
                <path d="M344.905,230.168403 C315.708,167.711403 263.123,67.7774028 224.588,65.3694028 C224.588,65.3694028 245.643,150.044403 200.902,144.782403 C156.16,139.517403 148.264,165.835403 169.319,194.787403 C190.374,223.737403 77.203,279.429403 77.203,279.429403 L313.237,279.429403 L344.905,230.168403" id="Fill-119" fill="#85A3D6"></path>
                <path d="M593.051,279.429403 L157.913,279.429403 C157.913,279.429403 185.11,178.996403 337.76,128.990403 C435.583,96.9444028 459.704,1.78240275 514.095,0.0274027519 C568.488,-1.72759725 635.162,81.1604028 680.782,149.590403 C726.4,218.018403 758.86,279.007403 758.86,279.007403 L593.051,279.429403" id="Fill-120" fill="#A9D0FF"></path>
                <path d="M533.83,2.82040275 C520.497,14.0574028 516.138,44.7874028 525.301,65.1444028 C550.459,121.028403 575.807,175.751403 502.048,172.110403 C448.207,169.451403 423.791,267.080403 433.838,279.429403 L593.051,279.429403 L758.86,279.007403 C758.86,279.007403 726.4,218.018403 680.782,149.590403 C640.55,89.2434028 583.947,17.6874028 533.83,2.82040275" id="Fill-121" fill="#8DAFE2"></path>
                <path d="M157.913,279.429403 C157.913,279.429403 202.853,249.622403 226.106,254.273403 C249.36,258.923403 281.915,279.077403 312.919,272.875403 C343.924,266.675403 345.474,234.120403 370.278,237.220403 C395.082,240.321403 416.785,279.429403 416.785,279.429403 L157.913,279.429403" id="Fill-122" fill="#99BDF2"></path>
                <path d="M1000.12,279.429403 C998.36,274.165403 849.22,158.363403 780.79,156.608403 C712.363,154.853403 593.051,279.429403 593.051,279.429403 L1000.12,279.429403" id="Fill-123" fill="#A9D0FF"></path>
                <path d="M781.45,156.389403 C780.83,156.372403 780.2,156.390403 779.57,156.394403 C770.41,164.007403 763.94,173.040403 764.78,183.162403 C767.41,214.745403 806.89,204.217403 846.37,227.904403 C885.85,251.592403 841.11,279.210403 841.11,279.210403 L1000.77,279.210403 L985.63,265.978403 C945.72,234.380403 837,157.813403 781.45,156.389403" id="Fill-124" fill="#8DAFE2"></path>
                <path d="M865.44,179.880403 C849.38,178.420403 842.87,260.474403 865.44,260.474403 C888,260.474403 883.17,181.492403 865.44,179.880403" id="Fill-125" fill="#819EC9"></path>
                <path d="M906.64,196.947403 C892.86,195.225403 873.66,259.439403 906.64,259.439403 C939.62,259.439403 920.52,198.684403 906.64,196.947403" id="Fill-126" fill="#8A9CB2"></path>
                <path d="M364.639,204.681403 C351.981,203.530403 346.846,268.225403 364.639,268.225403 C382.43,268.225403 378.618,205.951403 364.639,204.681403" id="Fill-127" fill="#819EC9"></path>
                <path d="M401.517,227.940403 C392.683,226.836403 380.376,267.997403 401.517,267.997403 C422.659,267.997403 410.419,229.053403 401.517,227.940403" id="Fill-128" fill="#99B1C9"></path>
                <path d="M448.36,212.429403 C459.353,211.430403 463.814,267.622403 448.36,267.622403 C432.907,267.622403 436.217,213.532403 448.36,212.429403" id="Fill-129" fill="#8A9CB2"></path>
                <path d="M480.334,240.245403 C486.893,239.424403 496.035,269.995403 480.334,269.995403 C464.633,269.995403 473.723,241.072403 480.334,240.245403" id="Fill-130" fill="#A9D0FF"></path>
                <path d="M749.04,279.464403 C749.04,279.464403 750.71,263.574403 746.53,263.574403 C742.35,263.574403 740.68,279.464403 740.68,279.464403 L749.04,279.464403" id="Fill-131" fill="#8A9CB2"></path>
                <polygon id="Fill-132" fill="#467CB2" points="363.561 279.429403 365.627 279.429403 365.627 243.937403 363.561 243.937403"></polygon>
                <polygon id="Fill-133" fill="#467CB2" points="400.766 279.429403 401.801 279.429403 401.801 256.339403 400.766 256.339403"></polygon>
                <polygon id="Fill-134" fill="#467CB2" points="478.278 279.429403 479.312 279.429403 479.312 256.339403 478.278 256.339403"></polygon>
                <polygon id="Fill-135" fill="#467CB2" points="447.273 279.429403 449.34 279.429403 449.34 252.204403 447.273 252.204403"></polygon>
                <polygon id="Fill-136" fill="#467CB2" points="904.08 279.077403 907.18 279.077403 907.18 229.469403 904.08 229.469403"></polygon>
                <polygon id="Fill-137" fill="#467CB2" points="863.77 279.077403 866.62 279.077403 866.62 209.832403 863.77 209.832403"></polygon>
                <path d="M830.8,126.825403 C840.08,125.982403 843.84,173.405403 830.8,173.405403 C817.76,173.405403 820.55,127.758403 830.8,126.825403" id="Fill-138" fill="#819EC9"></path>
                <path d="M806.99,136.690403 C814.95,135.694403 826.05,172.807403 806.99,172.807403 C787.93,172.807403 798.96,137.693403 806.99,136.690403" id="Fill-139" fill="#8A9CB2"></path>
                <polygon id="Fill-140" fill="#467CB2" points="806.68 186.710403 808.47 186.710403 808.47 158.040403 806.68 158.040403"></polygon>
                <polygon id="Fill-141" fill="#467CB2" points="829.65 184.157403 831.77 184.157403 831.77 144.137403 829.65 144.137403"></polygon>
                <path d="M804.86,279.429403 C804.81,279.064403 803.63,269.019403 800.21,270.163403 C797.49,271.066403 795.49,276.887403 794.73,279.429403 L804.86,279.429403" id="Fill-142" fill="#8A9CB2"></path>
                <path d="M833.9,279.429403 C833.44,274.906403 831.87,263.186403 828.11,263.186403 C823.52,263.186403 820.06,279.058403 819.98,279.429403 L833.9,279.429403" id="Fill-143" fill="#99B1C9"></path>
                <path d="M783.94,279.429403 C783.97,279.057403 786.21,257.373403 780.44,257.373403 C774.68,257.373403 772.35,279.057403 772.31,279.429403 L783.94,279.429403" id="Fill-144" fill="#819EC9"></path>
                <path d="M730.525,279.340403 C730.477,278.975403 729.122,268.954403 725.717,270.155403 C723.019,271.107403 721.116,276.961403 720.403,279.517403 L730.525,279.340403" id="Fill-145" fill="#819EC9"></path>
                <path d="M434.058,279.429403 C432.828,272.576403 429.692,257.373403 426.086,257.373403 C422.14,257.373403 417.652,274.295403 416.382,279.429403 L434.058,279.429403" id="Fill-146" fill="#8A9CB2"></path>
                <path d="M342.055,279.429403 C340.843,272.233403 337.775,257.373403 333.073,257.373403 C328.042,257.373403 323.188,273.384403 321.535,279.429403 L342.055,279.429403" id="Fill-147" fill="#99B1C9"></path>
                <path d="M302.022,279.429403 C301.332,274.951403 299.437,265.485403 295.867,266.675403 C292.103,267.928403 289.357,276.285403 288.446,279.429403 L302.022,279.429403" id="Fill-148" fill="#8A9CB2"></path>
                <path d="M274.921,279.429403 C275.32,270.418403 275.585,249.622403 269.513,249.622403 C263.156,249.622403 259.065,271.543403 257.8,279.429403 L274.921,279.429403" id="Fill-149" fill="#99B1C9"></path>
            </g>
        </g>
    </g>
</svg>