<?xml version="1.0" encoding="UTF-8"?>
<svg width="735px" height="343px" viewBox="0 0 735 343" version="1.1" xmlns="http://www.w3.org/2000/svg" xmlns:xlink="http://www.w3.org/1999/xlink">
    <!-- Generator: Sketch 55.2 (78181) - https://sketchapp.com -->
    <title>Group 10</title>
    <desc>Created with Sketch.</desc>
    <g id="Page-1" stroke="none" stroke-width="1" fill="none" fill-rule="evenodd">
        <g id="5756" transform="translate(-2497.000000, -1548.000000)">
            <g id="Group-10" transform="translate(2497.350000, 1548.020000)">
                <path d="M0,342.22 C0,342.22 92.97,219.63 108.29,216.57 C123.61,213.51 133.83,215.55 153.24,216.57 C172.65,217.59 180.82,211.46 188.99,209.42 C197.17,207.38 199.21,216.57 207.38,216.57 C215.55,216.57 241.09,210.87 255.4,209.12 C269.7,207.38 288.09,219.63 292.17,220.66 C296.26,221.68 341.21,166.84 357.55,163.1 C373.9,159.36 384.11,163.45 398.42,143.02 C412.72,122.59 442.34,31.75 442.34,31.75 L465.84,1.13686838e-13 C465.84,1.13686838e-13 512.83,36.77 526.11,60.27 C539.39,83.77 562.89,195.12 579.23,206.35 C595.58,217.59 666.07,233.94 675.26,242.11 C684.46,250.28 734.51,342.22 734.51,342.22 L0,342.22" id="Fill-8" fill="#656B75"></path>
                <path d="M673.22,240.89 C664.03,232.71 593.54,216.37 577.19,205.13 C560.85,193.89 537.35,82.54 524.07,59.05 C512.84,39.18 477.5,9.81 466.86,1.22 L466.86,17.16 C466.86,17.16 494.44,43.72 496.49,49.85 C498.53,55.98 492.4,96.2 492.4,96.2 L508.75,117.83 L517.94,150.99 L497.51,161.88 L507.72,185.72 L492.4,221.48 L534.29,253.15 L523.05,274.6 L616.01,341 L732.47,341 C732.47,341 682.41,249.06 673.22,240.89" id="Fill-9" fill="#4D5259"></path>
                <path d="M292.17,220.66 L346.32,251.3 C346.32,251.3 281.96,268.67 274.81,275.82 C267.65,282.97 286.04,283.99 289.11,283.99 C292.17,283.99 296.26,301.36 293.19,302.38 C290.13,303.4 332.01,341 332.01,341 L173.67,341 C173.67,341 240.07,320.77 242.11,316.68 C244.16,312.6 234.96,301.36 234.96,301.36 L251.31,280.83 L246.2,271.73 L298.3,247.22 L259.99,209.01 L292.17,220.66" id="Fill-10" fill="#4D5259"></path>
                <polyline id="Fill-11" fill="#4D5259" points="188.99 209.42 211.47 232.92 200.23 263.56 188.99 295.23 227.81 252.33 227.81 230.87 207.38 216.57 193.4 209.42 188.99 209.42"></polyline>
                <path d="M2.27373675e-13,342.22 L71.84,252.33 L102.16,244.15 L109.31,275 L123.61,275 L117.48,293.19 C117.48,293.19 137.4,293.19 136.64,295.23 C135.87,297.27 111.35,342.22 111.35,342.22 L2.27373675e-13,342.22" id="Fill-12" fill="#858D99"></path>
                <path d="M292.17,220.66 L346.32,251.3 C346.32,251.3 411.7,227.81 409.65,235.98 C407.61,244.15 387.18,275 387.18,275 L394.33,302.38 L377.98,312.6 L367.26,342.22 L417.83,342.22 L457.67,293.19 L451.54,281.44 L466.86,262.54 L472.99,231.89 L443.36,234.96 L426,171.11 L346.32,193.07 L337.44,176.97 L292.17,220.66" id="Fill-13" fill="#858D99"></path>
                <path d="M442.34,31.75 L401.76,137.51 L401.76,157.32 L417.83,147.84 L442.34,126.97 C442.34,126.97 447.45,146.08 448.47,143.02 C449.49,139.95 466.86,101.13 466.86,101.13 L434.31,75.01 L442.34,31.75" id="Fill-14" fill="#858D99"></path>
            </g>
        </g>
    </g>
</svg>