<?xml version="1.0" encoding="UTF-8"?>
<svg width="1039px" height="262px" viewBox="0 0 1039 262" version="1.1" xmlns="http://www.w3.org/2000/svg" xmlns:xlink="http://www.w3.org/1999/xlink">
    <!-- Generator: Sketch 55.2 (78181) - https://sketchapp.com -->
    <title>Group 11</title>
    <desc>Created with Sketch.</desc>
    <g id="Page-1" stroke="none" stroke-width="1" fill="none" fill-rule="evenodd">
        <g id="5756" transform="translate(-1295.000000, -1626.000000)">
            <g id="Group-11" transform="translate(1295.700000, 1626.067407)">
                <path d="M1.13686838e-13,261.822593 C1.13686838e-13,261.822593 77.1,185.012593 101.03,179.232593 C180.63,160.012593 206.65,130.702593 206.65,130.702593 C232.67,135.292593 295.43,171.142593 330.64,169.292593 C365.84,167.432593 532.7,-9.03740659 589.33,0.362593411 C645.97,9.77259341 684.14,63.3525934 707.91,67.9425934 C731.69,72.5325934 748.53,55.6925934 773.02,69.4725934 C797.51,83.2425934 1037.84,260.792593 1037.84,260.792593 L1.13686838e-13,261.822593" id="Fill-15" fill="#5F755B"></path>
                <path d="M506.67,81.7125934 C523.2,84.4525934 535.39,74.6225934 547.92,66.0725934 C555.7,60.7625934 577.19,43.9725934 586.19,44.9025934 C594.18,45.7325934 594.87,55.8725934 601.93,56.8725934 C610.32,58.0625934 614.1,48.1525934 618.46,43.2625934 C632.48,53.8025934 664.44,66.2325934 676.32,48.1825934 C654.15,30.4025934 625.51,6.37259341 589.33,0.362593411 C564.49,-3.75740659 518.44,27.8825934 471.59,64.8625934 C489.34,62.2925934 491.34,79.1725934 506.67,81.7125934" id="Fill-16" fill="#87A381"></path>
                <path d="M727.07,87.5825934 C740.5,94.9425934 741.77,93.5525934 756.35,92.6525934 C783.12,91.0125934 795.05,115.732593 818.67,119.142593 C825.04,120.062593 832.67,118.722593 838.39,115.092593 C805.95,91.3625934 780.6,73.2225934 773.45,69.1325934 C748.7,54.9625934 731.68,72.2825934 707.64,67.5525934 C705.21,67.0725934 702.62,66.0725934 699.87,64.6525934 C696.23,67.8325934 693.81,71.6625934 694.78,76.7225934 C706.67,79.0225934 716.2,81.6225934 727.07,87.5825934" id="Fill-17" fill="#87A381"></path>
                <path d="M783.76,248.302593 C773.8,230.722593 762.67,213.792593 752.48,196.592593 C741.07,177.332593 726.01,159.962593 717.46,138.962593 C711.1,123.342593 706.62,109.062593 697.97,94.1825934 C690.33,81.0425934 693.84,73.5625934 697.89,64.5125934 C686.95,59.3425934 673.47,47.1325934 657.15,34.5325934 C657.06,35.2425934 657.15,36.0625934 657.48,37.0425934 L655.18,33.6025934 C653.55,49.0525934 611.61,42.5825934 633.06,67.1825934 C644.85,80.7025934 663.56,88.3825934 659.8,110.512593 C656.16,131.992593 641.38,139.332593 659.74,159.852593 C672.83,174.462593 691.31,181.932593 706.59,193.422593 C729.84,210.922593 739.6,238.672593 757.16,259.922593 L790.89,259.882593 C788.72,255.882593 785.88,252.042593 783.76,248.302593" id="Fill-18" fill="#4B5B48"></path>
                <path d="M815.63,99.1725934 C803.73,109.772593 838.59,124.032593 842.62,131.122593 C856.51,155.612593 823.89,174.562593 812.18,189.442593 C799.37,205.712593 804.65,224.102593 821.64,233.632593 C831.02,238.892593 837.5,238.322593 841.19,249.422593 C842.47,253.302593 843.12,256.742593 843.88,259.832593 L1035.54,259.642593 C1035.54,259.642593 892.19,153.742593 815.63,99.1725934" id="Fill-19" fill="#4B5B48"></path>
                <path d="M263.43,236.732593 C276.63,218.872593 289.39,213.922593 308.49,204.392593 C315.66,200.822593 327.42,194.212593 330.3,186.282593 C333.87,176.422593 327.03,174.882593 322.72,169.322593 C290.25,170.352593 235.55,140.812593 206.84,132.412593 C206.56,144.782593 224.46,160.002593 225.57,172.512593 C227.6,195.322593 197.12,212.702593 184.5,228.442593 C178.12,236.402593 168.37,249.812593 175.01,260.002593 C175.4,260.602593 175.83,261.132593 176.28,261.642593 L236.58,261.582593 C247.69,257.502593 254.35,249.012593 263.43,236.732593" id="Fill-20" fill="#4B5B48"></path>
                <path d="M82.54,261.742593 C102.84,249.812593 133.6,227.992593 132.84,208.092593 C132.07,187.852593 96.87,196.882593 97.11,181.112593 C68.92,194.302593 1.15,261.822593 1.15,261.822593 L82.54,261.742593" id="Fill-21" fill="#6D8469"></path>
                <path d="M526.61,216.132593 C528.38,195.012593 538.18,172.082593 522.91,152.932593 C516.95,145.452593 506.19,138.482593 496.76,136.022593 C488.26,133.812593 474.35,136.802593 468.32,129.772593 C456.61,116.112593 468.63,96.6125934 473.51,85.0325934 C476.92,76.9425934 475.16,70.1925934 470.68,65.3425934 C427.27,99.7425934 383.43,138.342593 355.4,156.942593 C353.02,160.682593 351.53,164.482593 352.12,167.912593 C354.39,181.212593 373.28,176.582593 382.83,174.832593 C396.11,172.412593 455.1,160.342593 445.35,188.602593 C440.13,203.762593 419.89,225.662593 408.36,236.852593 C402.41,242.632593 388.45,250.012593 388.68,260.292593 L514.44,260.162593 C527.76,249.482593 525.24,232.402593 526.61,216.132593" id="Fill-22" fill="#6D8469"></path>
            </g>
        </g>
    </g>
</svg>