<?xml version="1.0" encoding="UTF-8"?>
<svg width="1011px" height="314px" viewBox="0 0 1011 314" version="1.1" xmlns="http://www.w3.org/2000/svg" xmlns:xlink="http://www.w3.org/1999/xlink">
    <!-- Generator: Sketch 55.2 (78181) - https://sketchapp.com -->
    <title>Group 5</title>
    <desc>Created with Sketch.</desc>
    <g id="Page-1" stroke="none" stroke-width="1" fill="none" fill-rule="evenodd">
        <g id="5756" transform="translate(-1285.000000, -643.000000)">
            <g id="Group-5" transform="translate(1285.350000, 643.250556)">
                <path d="M965.33,245.337444 C956.43,225.335444 950.64,204.335444 947.56,182.888444 C943.71,156.180444 908.27,119.861444 870.78,119.861444 C843.7,119.861444 754.49,84.1754437 742.53,76.7814437 C727.17,67.2894437 720.13,50.4754437 701.69,45.2764437 C684.41,40.4054437 665.59,46.3434437 648.32,47.5004437 C633.77,48.4754437 618.29,47.1504437 604.16,45.2974437 C597.28,44.3954437 592.43,41.5044437 584.99,41.6224437 C577.85,41.7344437 571.06,43.8934437 564.15,43.8444437 C545.96,43.7164437 548.82,26.3724437 535.85,20.3044437 C524.4,14.9514437 506.17,21.5914437 493.3,18.0994437 C479.94,14.4714437 467.29,11.7404437 453.29,9.99644367 C439.35,8.25844367 425.98,6.48344367 412.44,3.96844367 C394.26,0.589443672 374.05,-0.547556328 357.29,6.15444367 C342.47,12.0804437 331.93,16.4194437 315.4,14.5324437 C302.73,13.0874437 272.63,9.03944367 261.92,17.5864437 L276.58,51.1784437 C273.17,59.2144437 281.06,77.1194437 282.37,85.9084437 C284.48,100.081444 287.16,114.673444 285.12,129.101444 C282.8,145.517444 278.75,162.451444 271.58,177.577444 C262.72,196.256444 253.37,214.596444 254.05,235.524444 C254.81,258.600444 270.92,276.722444 297.17,280.526444 C349.1,288.051444 403.79,275.885444 455.77,273.892444 C497.35,272.298444 538.61,267.067444 580.17,265.094444 C628.41,262.804444 676.53,262.151444 724.84,262.151444 C779.67,262.151444 834.88,262.679444 888.25,275.287444 C919.65,282.704444 945.88,291.995444 978.3,287.769444 C979.31,275.653444 970.37,256.652444 965.33,245.337444" id="Fill-52" fill="#C69471"></path>
                <path d="M963.31,260.022444 C943.29,234.579444 941.61,206.147444 904.5,197.096444 C893.13,194.323444 881.41,196.474444 870.76,191.948444 C859.31,187.079444 858.31,180.039444 850.95,171.810444 C844.24,164.301444 798.1,128.103444 793.66,146.513444 C763.94,146.168444 794.89,96.9304437 752.89,110.318444 C756.65,115.622444 757.35,133.248444 745.69,128.795444 C739.59,126.467444 743.22,110.424444 737.75,108.819444 C720.89,103.878444 736.56,149.304444 719.14,150.924444 C718.14,130.555444 713.39,111.461444 714.44,90.8734437 C714.91,81.7114437 719.09,71.8074437 709.81,64.7734437 C701.26,58.2924437 693.57,66.0414437 685.48,60.1504437 C681.77,68.5864437 676.14,81.3544437 664.54,77.6364437 C655.02,74.5874437 657.05,64.1724437 655.46,55.9924437 C651.31,34.5624437 640.18,25.1014437 616.24,27.8774437 C616.89,30.6994437 615.13,34.9074437 615.79,37.7294437 C595.17,43.7874437 604.43,36.2394437 600.17,22.1014437 C597.66,13.7714437 587.88,7.96944367 578.16,17.7324437 C571.02,24.8974437 573.24,40.4264437 573.7,50.0354437 C574.02,56.6334437 575.82,62.8094437 573.81,69.2184437 C572.56,73.2024437 567.24,76.1314437 565.95,82.0524437 C560.8,105.787444 584.97,128.582444 571.54,152.329444 C562.16,168.908444 558.64,159.831444 551.65,150.830444 C546.87,144.670444 532.09,134.330444 539.34,125.755444 C532.43,113.735444 530,111.030444 530.82,98.3064437 C531.54,87.1094437 533.1,74.5204437 533.68,62.9394437 C534.27,51.2644437 535.16,36.6464437 530.37,26.1504437 C526.41,17.4714437 513.18,10.5184437 519.13,0.312443672 C506.58,6.43844367 506.32,28.3904437 505.75,40.8874437 C505.38,49.0314437 506.01,56.7754437 504.27,64.4054437 C502.33,72.9384437 495.37,77.9424437 492.89,84.9584437 C484.43,108.889444 511.92,169.071444 489.54,186.617444 C481.46,180.998444 487.22,173.781444 486.63,165.853444 C485.99,157.306444 484.22,154.056444 479.65,146.780444 C475.53,140.209444 470.05,134.688444 467.57,127.586444 C464.62,119.174444 467.77,115.158444 467.19,107.373444 C466.18,93.7784437 464.66,21.2714437 445.69,26.4074437 C445.26,34.9214437 446.85,44.5404437 445.51,52.9704437 C444.04,62.1554437 438.89,69.7494437 438.12,79.1124437 C437.35,88.5084437 450.5,122.584444 433.93,122.990444 C432.67,97.7364437 424.64,77.3294437 418.79,52.7944437 C417.01,53.4564437 414.54,53.4154437 413.02,53.9304437 C411.21,45.8024437 410.03,25.0964437 398.07,37.5854437 C391.65,44.2944437 396.79,61.1914437 398.75,68.4934437 C401.76,79.7064437 402.8,86.7654437 398.76,97.8974437 C395.53,106.802444 395.29,113.491444 393.68,124.355444 C392.13,134.843444 387.67,145.086444 389.94,157.027444 C390.98,162.531444 402.22,182.836444 391.15,186.175444 C377.62,190.256444 375.94,135.039444 376.3,126.158444 C376.61,118.348444 379.67,110.962444 379.31,102.593444 C379.01,95.7174437 375.22,88.5324437 375.23,82.0524437 C375.26,67.3394437 383.1,59.4514437 377.47,43.8324437 C374.98,36.9194437 369.3,10.9484437 364.24,7.04344367 C354.38,-0.560556328 351.66,17.8474437 351.3,26.1094437 C350.85,36.4624437 362.84,91.1114437 348,85.4304437 C341.9,83.0924437 337.23,62.8074437 332.3,57.2764437 C328.31,52.8024437 325.8,54.8194437 322.01,48.2324437 C319.39,43.6654437 317.59,35.6274437 316.2,30.7424437 C314.35,31.0174437 312.2,31.5654437 310.43,32.3164437 C307,41.0964437 312.05,50.2684437 308.44,59.6674437 C304.64,69.5904437 298.62,71.2894437 299.93,84.9874437 C301.2,98.2914437 312.13,125.730444 299.92,136.596444 C287.43,131.541444 294.68,116.749444 294.07,107.080444 C293.19,92.9614437 283.5,88.5234437 279.3,76.1714437 C275.6,65.2664437 274.5,53.5604437 274.96,42.3574437 C275.35,32.7544437 277.35,13.0394437 261.92,17.5864437 C261.19,21.0874437 261.8,29.1814437 259.93,32.0944437 C257.45,35.9454437 252.97,35.2384437 250.3,38.3124437 C243.74,45.8774437 242.73,47.4724437 241.44,58.8564437 C239.43,76.6184437 239.06,96.4144437 235.27,114.396444 C228.85,144.837444 197.32,164.453444 171.97,179.412444 C146.98,194.161444 115.49,195.697444 92.67,213.264444 C70.32,230.457444 71.39,255.479444 58.52,277.554444 C46.29,298.527444 18.7,297.352444 1.13686838e-13,311.403444 L1010.03,311.403444 C1011.34,311.392444 981.79,283.521444 963.31,260.022444" id="Fill-53" fill="#E8AA80"></path>
                <path d="M290.61,89.8404437 C278.58,67.0774437 280.65,46.2824437 276.4,21.7744437 C275.14,14.5394437 269.68,11.6834437 264.64,18.0994437 L266.84,17.3634437 C273.11,27.9114437 271.82,42.5714437 271.27,54.8534437 C270.91,62.7494437 269.14,70.3724437 269.05,78.3764437 C269.02,80.6464437 268.17,85.1384437 269.05,87.1954437 C270.5,90.6074437 272.38,89.1344437 274.19,91.6114437 C280.37,100.055444 281.93,115.812444 281.38,126.893444 C281.08,132.997444 280.41,139.162444 281.58,145.270444 C282.01,147.514444 284.92,159.668444 287.59,160.539444 L288.75,161.367444 C288.29,149.379444 295.93,139.916444 296.54,127.958444 C296.82,122.290444 296.15,115.323444 296.49,109.986444 C296.94,102.973444 294.02,96.2834437 290.61,89.8404437" id="Fill-54" fill="#B78665"></path>
                <path d="M328.55,105.575444 C327.63,96.2524437 326.01,86.9824437 325.08,77.6424437 C324.17,68.5734437 325.44,61.1334437 323.26,52.8294437 C321.92,47.7404437 321.52,32.0174437 315.36,31.3304437 L314.62,32.0654437 C311.82,38.6944437 316.31,48.5054437 317.72,55.5894437 C319.57,64.8194437 318.02,72.8164437 317.56,82.0554437 C317.03,92.8244437 321.24,99.2704437 325.12,108.314444 C327.88,114.763444 324.35,127.153444 328.59,132.146444 C332.92,125.861444 329.27,112.817444 328.55,105.575444" id="Fill-55" fill="#B78665"></path>
                <path d="M349.17,123.768444 C349.17,111.417444 355.56,83.5624437 342.56,78.3764437 L341.09,77.6424437 C340.68,85.1534437 342.97,93.1974437 342.56,101.165444 C342.02,111.640444 341.82,120.817444 341.82,131.301444 C341.82,143.294444 342.61,155.287444 343.33,167.119444 C343.7,173.166444 342.55,186.017444 346.8,190.036444 C350.12,180.613444 347.23,167.917444 347.7,157.931444 C348.25,146.585444 349.17,135.318444 349.17,123.768444" id="Fill-56" fill="#B78665"></path>
                <path d="M383.64,170.923444 C382.99,164.939444 378.89,159.250444 378.58,153.356444 C377.94,141.310444 378.91,129.760444 380.29,117.827444 C380.92,112.437444 381.01,104.721444 380.78,98.9594437 C380.54,92.9254437 376.76,87.7144437 377.09,81.3174437 C377.7,69.3834437 380.5,57.3004437 379.27,45.3354437 C378.73,40.0084437 369.62,-0.396556328 363.14,7.07244367 L363.14,6.33744367 C357.12,15.0714437 367.34,30.2214437 369.78,39.4164437 C372.97,51.4704437 368.87,63.2414437 368.29,75.4364437 C367.66,88.4504437 371.96,98.8674437 371.96,111.620444 C371.96,125.522444 371.82,139.520444 371.23,153.193444 C370.73,164.417444 376.57,187.010444 387.15,192.585444 C387.69,187.102444 384.24,176.377444 383.64,170.923444" id="Fill-57" fill="#B78665"></path>
                <path d="M405.91,34.8904437 C405.49,34.5674437 406.08,33.8384437 405.68,33.6404437 C399.21,40.2314437 408.01,52.5124437 408.73,60.0134437 C409.65,69.3914437 409.75,80.8234437 412.39,89.8404437 C413.69,86.2234437 414.35,68.8344437 413.19,54.5314437 L416.22,54.2854437 C413.43,45.2544437 409.79,34.7634437 405.91,34.8904437" id="Fill-58" fill="#B78665"></path>
                <path d="M433.75,111.456444 C433.17,101.662444 433.72,88.7724437 431.52,79.1124437 C429.84,71.7274437 427.08,54.2084437 418.27,54.1184437 L416.22,54.2854437 C417.74,59.2024437 419.01,63.6884437 419.93,65.7894437 C428.21,84.7344437 427.35,99.2864437 424.13,119.542444 C422.22,131.622444 423.82,142.290444 424.9,154.130444 C425.41,159.702444 426.28,164.859444 427.11,170.264444 C427.91,175.475444 426.34,180.429444 427.22,185.604444 C434.81,182.135444 430.68,156.301444 430.77,148.187444 C430.9,135.799444 434.46,123.413444 433.75,111.456444" id="Fill-59" fill="#B78665"></path>
                <path d="M468.5,122.728444 C469.94,95.3604437 471.41,59.5664437 457.05,35.1894437 C456.66,34.5274437 455.34,33.1374437 455.76,33.5364437 L454.29,32.0654437 C457.72,55.5564437 456.53,80.4944437 456.5,104.271444 C456.48,121.646444 455.59,137.550444 457.25,154.827444 C458.07,163.365444 459.06,172.026444 459.44,180.534444 C459.69,186.359444 458.28,194.067444 460.17,199.038444 C463.61,187.679444 464.05,170.806444 464.58,158.339444 C465.19,144.344444 467.76,136.909444 468.5,122.728444" id="Fill-60" fill="#B78665"></path>
                <path d="M480.02,147.476444 C468.61,150.953444 479.59,176.556444 480.02,184.966444 C480.41,192.609444 479.46,198.352444 481.31,205.712444 C482.75,211.432444 481.72,222.900444 485.17,226.971444 C492.34,218.191444 489.7,193.291444 487.53,182.580444 C486.42,177.070444 489.83,145.673444 481.49,148.211444 L480.02,147.476444" id="Fill-61" fill="#B78665"></path>
                <path d="M540.32,143.065444 C539.47,137.338444 539.77,131.591444 539.4,125.994444 C539.01,120.115444 536.1,117.050444 534.38,111.456444 C530.86,100.047444 533.06,84.1004437 533.65,71.9624437 C534.32,57.8584437 537.07,45.6624437 534.42,32.0824437 C533.43,27.0514437 530.66,-6.70555633 518.98,1.19144367 L518.98,0.456443672 C510.21,6.13444367 520.95,24.5044437 520.45,32.8004437 C519.63,46.3174437 517.32,60.2614437 517.51,73.9664437 C517.61,81.2704437 520.38,87.4854437 521.37,94.5494437 C522.23,100.752444 520.51,107.163444 521.15,113.682444 C522.45,127.058444 527.24,138.374444 535.15,149.126444 C544.91,162.382444 538.29,177.856444 542.34,192.830444 C543.65,176.959444 542.64,158.703444 540.32,143.065444" id="Fill-62" fill="#B78665"></path>
                <path d="M606.46,102.450444 C606.47,88.2564437 607.06,72.5214437 604.99,58.5314437 C603.63,49.3994437 604.83,38.9164437 602.76,29.8604437 C602.02,26.6284437 600.3,19.7294437 598.39,17.3434437 C596.75,15.2864437 590.39,10.3944437 591.02,15.8944437 L591.76,14.4234437 C600.89,36.8634437 595.79,56.3024437 596.9,80.4014437 C597.53,93.9834437 600.67,107.123444 601.31,120.462444 C601.78,130.264444 599.09,140.610444 606.29,148.135444 C610.98,135.535444 606.44,115.937444 606.46,102.450444" id="Fill-63" fill="#B78665"></path>
                <path d="M657.18,100.981444 C657.8,87.2314437 661.63,75.2054437 660.08,61.4694437 C658.91,51.1364437 659.22,37.8694437 648.2,34.4324437 C646.96,34.0454437 645.88,33.8574437 644.68,33.5364437 L643.21,33.5364437 C652.35,40.0394437 650.63,57.2424437 649.1,66.6154437 C646.79,80.7474437 643.3,93.0494437 645.4,107.617444 C647.25,120.456444 652.62,132.932444 652.77,146.006444 C652.95,162.059444 652.18,178.789444 653.63,194.425444 C660.54,191.936444 658.26,160.608444 658.65,153.537444 C659.61,136.089444 656.38,118.674444 657.18,100.981444" id="Fill-64" fill="#B78665"></path>
                <path d="M688.79,59.9994437 L684.18,60.3104437 C673.68,70.3074437 685.61,87.9124437 687.36,99.6564437 C689.48,114.012444 686.44,132.237444 691.87,145.930444 C696.42,139.864444 693.09,127.525444 693.2,119.708444 C693.31,112.020444 693.93,103.929444 693.93,96.0024437 C693.93,88.3784437 693.6,80.6144437 694.71,73.2314437 C695.63,67.0884437 698.36,58.9084437 688.79,59.9994437" id="Fill-65" fill="#B78665"></path>
                <path d="M704.2,62.2514437 L704.2,62.2514437 C694.65,61.1474437 708.96,91.8514437 708.6,97.4514437 C707.82,109.299444 706.73,120.770444 707.94,132.812444 C709.05,143.899444 707.59,154.955444 708.67,165.853444 C709.43,173.464444 706.34,192.299444 713.8,196.652444 C717.83,185.647444 714.13,171.080444 715.42,159.237444 C716.55,148.794444 719.29,138.606444 719.66,127.590444 C720.07,115.316444 719.32,102.977444 720.4,90.8734437 C721.52,78.2524437 716.5,62.4864437 704.2,62.2514437" id="Fill-66" fill="#B78665"></path>
                <path d="M738.32,109.489444 L738.32,108.754444 C737.34,108.505444 737.36,107.916444 736.28,108.113444 C731.68,115.415444 738.07,121.591444 739.05,128.602444 C739.94,134.962444 735.19,145.985444 740.34,150.596444 C741.77,146.053444 747.22,105.623444 738.32,109.489444" id="Fill-67" fill="#B78665"></path>
                <path d="M771.85,110.721444 C762.18,114.484444 768.18,145.095444 770.2,152.785444 C774.12,167.635444 773.52,183.071444 777,197.975444 C777.02,179.787444 775.43,162.332444 779.78,145.107444 C781.88,136.779444 782.18,113.547444 771.85,109.986444 L771.85,110.721444" id="Fill-68" fill="#B78665"></path>
                <path d="M961.84,259.287444 C941.82,233.844444 940.15,205.412444 903.03,196.361444 C891.66,193.587444 881.87,193.796444 871.22,189.270444 C859.77,184.401444 858.89,177.231444 851.53,169.003444 C846.21,163.050444 814.06,141.143444 799.6,140.632444 C798.4,140.979444 792.77,141.373444 792.28,143.109444 C791.1,147.333444 798.51,148.695444 801.96,150.457444 C807.6,153.341444 812.82,155.807444 818.33,159.751444 C831.37,169.086444 829.19,180.343444 829.19,195.257444 C829.19,203.030444 827.45,210.875444 837.33,212.952444 C845.43,214.655444 852.9,207.610444 860.96,207.019444 C876.11,205.909444 946.57,213.451444 937.29,234.258444 C936.61,235.791444 937.17,234.800444 937.41,236.342444 C930.59,236.797444 923.49,236.749444 917.93,241.267444 C928.2,261.874444 941.06,282.421444 964.02,290.588444 C959.67,290.489444 951.83,288.816444 949.96,293.748444 C963.75,301.971444 977.69,306.029444 993.22,306.295444 C993.36,306.095444 993.33,305.897444 993.13,305.703444 C995.72,305.596444 999.28,305.193444 1003.28,304.776444 C994.14,295.342444 975.13,276.184444 961.84,259.287444" id="Fill-69" fill="#B78665"></path>
                <path d="M264.64,60.7344437 C264.64,54.6604437 267.48,35.2214437 258.02,36.4764437 L252.88,39.4164437 C244.89,37.3374437 249.03,57.4754437 249.77,61.4694437 C251.99,73.3514437 249.91,86.0094437 249.94,98.2274437 C249.97,112.463444 248.46,126.518444 248.46,140.822444 C248.46,150.254444 246.63,162.623444 251.39,170.923444 C257.05,165.703444 254.72,149.315444 254.38,141.796444 C253.88,130.476444 253.35,118.901444 252.88,107.579444 C252.48,98.1614437 255.75,89.7174437 256.57,80.5824437 C257.25,73.0004437 255.5,65.5574437 255.94,57.8884437 C263.67,61.8544437 259.37,80.8814437 261.8,88.5744437 C267.22,87.0424437 264.64,66.3534437 264.64,60.7344437" id="Fill-70" fill="#FCB98B"></path>
                <path d="M313.15,57.7944437 C314.23,66.6854437 306.41,74.4464437 306.54,84.0774437 C306.7,95.9264437 309.82,107.240444 310.95,118.954444 C312.5,135.164444 309.48,152.530444 309.48,168.998444 C309.48,178.738444 308.16,191.469444 315.95,198.122444 C317.77,182.974444 315.37,168.336444 314.62,153.374444 C313.99,140.574444 314.7,127.379444 315.32,114.560444 C315.85,103.604444 312.48,96.7054437 310.99,86.4254437 C310.31,81.8044437 309.52,76.5864437 311.11,71.9244437 C312.89,66.7204437 316.34,65.4224437 313.89,59.2644437 L313.15,57.7944437" id="Fill-71" fill="#FCB98B"></path>
                <path d="M358.73,31.3304437 C355.76,45.2744437 361.81,57.9434437 361.67,71.7444437 C361.52,86.4214437 359.22,100.937444 358.57,115.663444 C357.95,129.509444 356.57,142.780444 355.79,156.297444 C355.59,159.724444 353.32,193.372444 361.89,187.387444 C364.44,185.604444 362.4,168.277444 362.4,165.301444 C362.4,157.154444 362.4,149.007444 362.4,140.860444 C362.4,128.303444 364.61,116.838444 364.61,104.105444 C364.61,91.6754437 365.35,79.7254437 365.35,67.3504437 C365.35,57.2564437 366.18,41.8584437 360.93,33.5364437 L358.73,31.3304437" id="Fill-72" fill="#FCB98B"></path>
                <path d="M519.16,155.562444 C517.89,148.987444 513.71,143.956444 511.63,137.957444 C509.74,132.497444 509.72,125.308444 509.42,119.542444 C508.79,107.155444 507.51,95.5994437 508.65,83.5224437 C508.85,81.4504437 512.26,73.4014437 509.28,71.8744437 C506.16,70.2774437 503.69,77.1644437 503.54,79.1124437 L501.34,82.0524437 C488.78,92.3774437 497.8,100.332444 499.83,112.765444 C502.33,128.169444 501.39,145.376444 502.07,160.871444 C502.63,173.493444 501.79,186.016444 500.61,198.198444 C499.69,207.589444 496.95,220.125444 498.51,229.696444 C508.67,232.730444 507.39,197.954444 508.71,191.401444 C511.22,178.939444 521.77,169.003444 519.16,155.562444" id="Fill-73" fill="#FCB98B"></path>
                <path d="M593.23,167.321444 C593.23,151.360444 591.02,136.276444 591.02,120.277444 C591.02,95.8414437 585.57,72.9084437 586.77,48.2384437 C587.09,41.6834437 588.75,33.5104437 588.82,28.3904437 L587.34,21.7744437 C575.33,28.9894437 580,42.8764437 580.73,54.8534437 C581.49,67.4274437 583.08,78.3174437 580.75,90.1594437 C578.54,101.399444 584.74,114.957444 585.3,127.057444 C586.12,144.681444 584.68,162.343444 584.57,179.834444 C584.54,184.770444 586.99,198.864444 592.49,189.376444 C595.36,184.412444 593.23,173.018444 593.23,167.321444" id="Fill-74" fill="#FCB98B"></path>
                <path d="M634.43,123.234444 C632.72,106.253444 629.41,88.9904437 627.08,71.9244437 C626.14,65.0494437 626.96,59.3244437 628.35,52.6514437 C629.34,47.9004437 632.79,40.4344437 630.16,35.5614437 C628.78,32.9994437 626.02,31.7054437 623.36,30.5954437 L618.22,27.6554437 C609.97,31.9444437 617.41,58.2304437 617.48,66.4524437 C617.65,84.3294437 619.41,102.769444 621.85,120.318444 C623.67,133.364444 628.54,145.323444 628.51,158.502444 C628.49,165.669444 628.51,172.837444 628.51,180.004444 C628.51,184.695444 626.09,198.332444 628.68,202.442444 C629.02,202.995444 629.12,203.312444 629.37,203.950444 C630.31,204.017444 631.13,204.037444 632.07,203.967444 C635.22,178.638444 637.04,149.097444 634.43,123.234444" id="Fill-75" fill="#FCB98B"></path>
                <path d="M700.08,58.0804437 L698.61,57.3454437 C690.88,60.7984437 694.22,79.6334437 694.2,86.9364437 C694.18,94.1434437 696.27,99.8514437 697.18,106.741444 C698.27,115.052444 696.66,124.631444 695.83,132.855444 C694.25,148.489444 691.99,163.680444 691.99,179.555444 C691.99,189.410444 690.86,203.229444 698.59,210.333444 C701.88,207.231444 700.31,195.240444 700.07,190.359444 C699.71,182.843444 700.09,175.501444 700.08,167.811444 C700.04,152.418444 702.93,139.483444 704.51,124.974444 C705.89,112.172444 706.69,99.8504437 706.69,86.7514437 C706.69,76.8754437 711.54,60.4844437 700.08,58.0804437" id="Fill-76" fill="#FCB98B"></path>
                <path d="M767.33,109.125444 C770.47,112.643444 773.69,110.106444 773.73,109.986444 C771.67,109.609444 762.97,106.098444 760.83,106.311444 L753.87,107.431444 C741.5,115.934444 755.11,145.562444 755.68,158.502444 C756.23,171.055444 755.94,183.860444 756.42,196.564444 C756.72,204.526444 756.55,217.692444 760.85,224.031444 C766.62,214.376444 763.01,197.037444 763.03,185.864444 C763.06,174.243444 763.43,162.402444 762.28,150.990444 C761.47,142.981444 754.56,110.339444 767.33,109.125444" id="Fill-77" fill="#FCB98B"></path>
                <path d="M84.7,294.332444 C78.56,286.794444 76.63,290.409444 68.35,291.576444 C60.34,292.705444 59.73,286.518444 52.76,283.673444 C44.03,280.107444 40.9,284.916444 36.74,290.925444 C34.69,282.656444 31.4,287.987444 26.5,289.420444 C23.17,290.396444 23.41,287.620444 19.83,290.064444 C19.19,290.503444 18.16,294.760444 17.46,295.854444 C6.47,287.353444 0.35,298.897444 0.74,309.933444 L91.89,312.138444 C90.96,306.194444 88.73,299.278444 84.7,294.332444" id="Fill-78" fill="#7B936C"></path>
                <path d="M423.419694,312.138444 C423.419694,300.565444 423.19,290.710444 435.34,288.396444 C440.08,287.496444 437.2,291.358444 441.04,287.106444 C442.41,285.593444 441.77,282.049444 443.43,280.695444 C447.3,277.543444 454.15,280.531444 457.21,283.557444 C462.18,278.186444 461.77,266.737444 468.22,260.701444 C474.3,255.022444 479.25,258.152444 485.9,260.497444 C502.27,266.266444 500.33,251.437444 506.3,241.385444 C510.21,234.794444 514.34,235.095444 520.45,235.687444 C524.55,236.085444 522.87,239.006444 526.88,235.685444 C529,233.932444 528.54,229.175444 530.17,227.030444 C540.08,213.988444 546.02,236.173444 551.32,241.606444 C552.16,242.459444 552.49,244.081444 552.92,245.168444 C557.61,242.175444 561.29,236.993444 567.66,239.899444 C572.39,242.058444 575.33,248.786444 577.2,253.219444 C583.34,250.587444 587.09,250.861444 591.76,256.437444 C596.83,262.499444 594.8,266.297444 602.62,266.378444 C609.1,266.446444 613.89,263.714444 619.89,269.301444 C624.69,273.770444 624.28,279.003444 624.83,284.939444 C626.22,299.776444 638.21,295.154444 648.5,300.913444 C652.15,302.951444 652.74,304.799444 657.18,304.676444 C660.17,304.593444 662.25,300.661444 666.75,301.830444 C671.37,303.028444 674.02,307.775444 676.33,311.478444 C676.31,312.025444 676.3,312.000444 676.29,311.403444 L423.419694,312.138444" id="Fill-79" fill="#7B936C"></path>
                <path d="M907.98,212.771444 C906.56,208.887444 905.76,198.710444 901.25,196.675444 C895.98,194.299444 890.57,202.745444 888.02,206.374444 C882.46,201.124444 867.07,207.723444 865.82,214.977444 C859.04,213.706444 855.98,220.944444 853.98,226.131444 C850.52,235.119444 850.83,233.618444 841.87,232.567444 C834.99,231.760444 830.3,233.743444 826.44,240.262444 C823.51,245.210444 824.47,252.814444 819.63,256.344444 C810.68,251.659444 805.83,254.124444 803.34,264.245444 C799.72,263.999444 794.16,266.751444 791.89,269.687444 C790.45,271.548444 791.7,273.717444 790.45,275.563444 C789.38,277.150444 786.68,277.515444 786,279.240444 C782.26,288.811444 797.77,284.939444 804.93,284.939444 L815.96,276.853444 C819.39,275.380444 824.9,276.379444 829.19,276.118444 C837.66,275.603444 834.25,272.673444 839.51,268.916444 C842.03,267.116444 848.55,267.518444 851.43,266.744444 C853.33,266.232444 854.72,264.901444 857.13,264.356444 C859.48,263.825444 862.14,264.893444 864.48,264.190444 C873.5,261.475444 874.65,248.057444 878.26,240.098444 C881.49,232.991444 891.04,222.261444 897.56,233.243444 C899.35,228.475444 913.38,227.837444 917.4,229.880444 C923.61,223.704444 916.38,210.756444 907.98,212.771444" id="Fill-80" fill="#7B936C"></path>
                <path d="M423.46,209.921444 C421.83,206.582444 413.79,204.600444 410.15,206.189444 C405.71,196.436444 404.49,188.804444 393.08,184.415444 C386.27,181.799444 386.25,184.557444 380.6,186.254444 C376.45,187.502444 372.99,184.615444 368.82,186.237444 C363.98,188.119444 363.9,195.726444 360.75,198.749444 C356.13,203.182444 353.1,201.611444 346.95,200.382444 C336.27,198.249444 328.48,203.273444 329.21,215.729444 C327.81,215.413444 325.7,216.284444 324.31,215.968444 C318.53,225.427444 341.57,222.763444 343.29,220.250444 L346.97,220.985444 C361.12,219.461444 377.72,235.080444 388.15,242.394444 C395.38,231.256444 401.58,225.425444 414.6,220.414444 C418.94,218.740444 427.2,217.588444 423.46,209.921444" id="Fill-81" fill="#7B936C"></path>
                <path d="M399,302.745444 C396.61,298.720444 392.17,295.479444 388.69,292.494444 C384.93,289.269444 380.18,286.179444 377.11,282.162444 C372.83,276.566444 375.05,276.424444 374.9,269.502444 C374.71,260.264444 369.52,251.548444 362.39,245.960444 C359.36,243.593444 351.76,241.408444 350.59,237.890444 C349.05,233.259444 354.42,228.655444 357.17,225.933444 C351.52,218.736444 339.17,222.150444 330.8,221.718444 C321.06,221.216444 314.67,224.119444 306.58,230.688444 C298.26,237.438444 289.98,241.801444 283.55,250.407444 C277.8,258.087444 262.69,302.915444 256.65,310.475444 L402.1,312.873444 C401.06,311.331444 400.73,305.673444 399,302.745444" id="Fill-82" fill="#FCB98B"></path>
                <path d="M315.39,310.755444 C314.8,307.331444 314.3,303.595444 312.29,300.504444 C308.4,300.352444 303.26,299.091444 299.88,296.701444 C294.55,292.930444 296.18,292.075444 295.51,285.674444 C294.36,274.655444 287.39,270.063444 277.87,266.562444 C264.32,261.580444 271.17,247.478444 263.17,236.406444 C254.05,223.804444 243.11,244.424444 241.11,223.926444 C240.44,216.969444 239.23,211.807444 235.03,206.305444 C229.96,199.659444 224.59,203.184444 220.33,197.462444 C216.05,191.708444 217.85,184.295444 208.77,183.496444 C200.94,182.806444 201.53,188.945444 196.99,193.159444 C189.89,181.029444 174.52,189.343444 171.1,200.403444 C169.7,204.926444 171.32,211.544444 167.81,215.307444 C163.92,219.459444 159.65,217.518444 154.37,218.045444 C147.78,218.704444 146.68,220.107444 141.69,217.493444 C137.53,215.314444 135.87,212.227444 130.11,212.165444 C117.17,212.023444 115.95,222.060444 111.76,231.201444 C107.54,227.320444 104.54,217.650444 97.22,225.540444 C92.63,230.492444 96.85,241.417444 92.03,244.415444 C89.18,239.050444 85.42,234.790444 81.6,243.000444 C79.16,248.232444 82.06,255.305444 82.33,260.681444 C82.97,273.328444 146.29,261.416444 157.31,311.403444 L314.62,309.933444 C314.82,310.180444 315.47,311.755444 315.39,310.755444" id="Fill-83" fill="#7B936C"></path>
            </g>
        </g>
    </g>
</svg>