<?xml version="1.0" encoding="iso-8859-1"?>
<!-- Generator: Adobe Illustrator 19.0.0, SVG Export Plug-In . SVG Version: 6.00 Build 0)  -->
<svg version="1.1" id="Capa_1" xmlns="http://www.w3.org/2000/svg" xmlns:xlink="http://www.w3.org/1999/xlink" x="0px" y="0px"
	 viewBox="0 0 418 418" style="enable-background:new 0 0 418 418;" xml:space="preserve">
<path style="fill:#FDC75B;" d="M352.1,204.2c15.9,0,28.8,12.9,28.8,28.8s-12.9,28.8-28.8,28.8s-28.8-12.9-28.8-28.8
	C323.3,217.1,336.2,204.2,352.1,204.2z"/>
<circle style="fill:#ED664C;" cx="333.9" cy="48.4" r="38.4"/>
<path style="fill:#FDC75B;" d="M323.3,340.2c18.7,0,33.9,15.2,33.9,33.9S342,408,323.3,408c-18.7,0-33.9-15.2-33.9-33.9
	C289.4,355.4,304.6,340.2,323.3,340.2z"/>
<g>
	<path style="fill:#ED664C;" d="M241.7,255.4c-7.7,4.5-16.7,7-26.2,7c-10.4,0-20.2-3-28.3-8.3c-14.5-9.3-24.1-25.6-24.1-44.2
		c0-10.6,3.1-20.4,8.5-28.6c9.4-14.4,25.6-23.8,44-23.8c12.5,0,24,4.4,33,11.7c11.9,9.6,19.5,24.3,19.5,40.8
		C268,229.3,257.4,246.3,241.7,255.4z"/>
	<path style="fill:#ED664C;" d="M133.7,329.6c8.6,7.6,14,18.7,14,31.1c0,22.9-18.6,41.5-41.5,41.5s-41.5-18.6-41.5-41.5
		c0-22.9,18.6-41.5,41.5-41.5C116.8,319.2,126.4,323.1,133.7,329.6z"/>
</g>
<path style="fill:#FDC75B;" d="M94.7,97.6c0,7.1-2.6,13.7-6.9,18.7c-5.3,6.2-13.1,10.1-21.9,10.1c-15.9,0-28.8-12.9-28.8-28.8
	S50,68.8,65.9,68.8S94.7,81.6,94.7,97.6z"/>
<path d="M352.1,194.2c-15.2,0-28.4,8.8-34.8,21.6l-39.4-7.8c-0.4-15.1-6.2-29.2-16.2-40.2l53.1-75c5.9,2.6,12.4,4,19.2,4
	c26.7,0,48.4-21.7,48.4-48.4S360.7,0,334,0s-48.4,21.7-48.4,48.4c0,12.7,4.9,24.2,12.9,32.8L246,155.3c-9.3-5.2-19.8-8-30.5-8
	c-17.5,0-34,7.3-45.7,19.9l-68.7-53.4c2.4-5.1,3.6-10.7,3.6-16.3c0-21.4-17.4-38.8-38.8-38.8S27.1,76.1,27.1,97.5
	s17.4,38.8,38.8,38.8c8.1,0,15.9-2.5,22.3-7.1l70.4,54.7c-3.7,8.1-5.6,16.9-5.6,26c0,17.8,7.5,34.5,20.5,46.2l-42.2,59.6
	c-7.6-4.2-16.2-6.5-25-6.5c-28.4,0-51.5,23.1-51.5,51.5c0,28.4,23.1,51.5,51.5,51.5s51.5-23.1,51.5-51.5c0-11.7-4-23-11.2-32
	l43.6-61.7c7.9,3.5,16.5,5.3,25.3,5.3c7.8,0,15.5-1.5,22.7-4.3l52.2,77.1c-6.8,7.7-11,17.9-11,29c0,24.2,19.7,43.9,43.9,43.9
	c24.2,0,43.9-19.7,43.9-43.9s-19.7-43.9-43.9-43.9c-5.9,0-11.5,1.2-16.6,3.3l-51.2-75.6c9.4-7.9,16.3-18.3,19.8-30l38.1,7.6
	c1.3,20.3,18.1,36.4,38.7,36.4c21.4,0,38.8-17.4,38.8-38.8C390.9,211.6,373.5,194.2,352.1,194.2z M333.9,20
	c15.6,0,28.4,12.7,28.4,28.4s-12.7,28.4-28.4,28.4s-28.4-12.7-28.4-28.4S318.3,20,333.9,20z M47.1,97.5c0-10.4,8.4-18.8,18.8-18.8
	s18.8,8.4,18.8,18.8c0,4.5-1.6,8.8-4.5,12.2c-3.6,4.2-8.8,6.6-14.3,6.6C55.6,116.3,47.1,107.9,47.1,97.5z M106.3,392.2
	c-17.4,0-31.5-14.1-31.5-31.5c0-17.4,14.1-31.5,31.5-31.5c7.7,0,15.1,2.8,20.8,7.9c6.8,6,10.7,14.6,10.7,23.6
	C137.8,378.1,123.6,392.2,106.3,392.2z M192.6,245.6c-12.2-7.9-19.6-21.2-19.6-35.8c0-8.3,2.4-16.3,6.9-23.2
	c7.9-12.1,21.2-19.3,35.6-19.3c9.8,0,19.1,3.3,26.7,9.5c10,8.1,15.7,20.2,15.7,33c0,15.1-8.2,29.3-21.3,36.8
	c-6.4,3.7-13.7,5.7-21.2,5.7C207.3,252.4,199.4,250,192.6,245.6z M347.2,374.1c0,13.2-10.7,23.9-23.9,23.9
	c-13.2,0-23.9-10.7-23.9-23.9c0-13.2,10.7-23.9,23.9-23.9S347.2,360.9,347.2,374.1z M352.1,251.8c-10.4,0-18.8-8.4-18.8-18.8
	s8.4-18.8,18.8-18.8s18.8,8.4,18.8,18.8S362.4,251.8,352.1,251.8z"/>
<g>
</g>
<g>
</g>
<g>
</g>
<g>
</g>
<g>
</g>
<g>
</g>
<g>
</g>
<g>
</g>
<g>
</g>
<g>
</g>
<g>
</g>
<g>
</g>
<g>
</g>
<g>
</g>
<g>
</g>
</svg>
