<svg id="Capa_1" enable-background="new 0 0 512 512" height="512" viewBox="0 0 512 512" width="512" xmlns="http://www.w3.org/2000/svg"><g><g><path d="m460 462c-7.37 0-14.27 1.99-20.2 5.47-2.29-25.49-25.71-45.47-51.8-45.47-20.81 0-40.66 12.72-48.18 30.81-19.59-10.66-34.1-29.77-38.28-52.97-3.259-18.064-6.229-45.575-5.54-63.84 1.01-26.498 8.068-64.582 14.52-87.77v-.01l-54.52-13.5-54.52 13.5v.01c6.512 23.404 13.509 61.25 14.52 87.77.689 18.256-2.278 45.761-5.54 63.84-4.18 23.2-18.69 42.31-38.28 52.97-7.52-18.09-27.37-30.81-48.18-30.81-26.09 0-49.51 19.98-51.8 45.47-5.93-3.48-12.83-5.47-20.2-5.47-22.09 0-42 17.91-42 40h492c0-22.09-19.91-40-42-40z" fill="#ff9256"/><path d="m111.01 263.17-.31.69c-8.76 3.95-18.47 6.14-28.7 6.14-38.66 0-72-31.34-72-70s33.34-70 72-70c4.77 0 9.42.48 13.92 1.38-2.53-6.64-3.92-13.85-3.92-21.38 0-33.14 28.86-60 62-60 6.72 0 13.47 1.11 19.87 3.15l.13-.4c18.08-25.85 48.07-42.75 82-42.75s63.92 16.9 82 42.75l.13.4c6.4-2.04 13.15-3.15 19.87-3.15 33.14 0 62 26.86 62 60 0 7.53-1.39 14.74-3.92 21.38 4.5-.9 9.15-1.38 13.92-1.38 38.66 0 72 31.34 72 70s-33.34 70-72 70c-10.23 0-19.94-2.19-28.7-6.14l-1.16-.16c-6.55 3.99-14.2 6.3-22.14 6.3-20.57 0-39.52-15.53-41.75-35.5-11.179 10.123-25.524 15.5-40.25 15.5-15.37 0-29.38-5.78-40-15.28-10.62 9.5-24.63 15.28-40 15.28-14.726 0-29.071-5.377-40.25-15.5-2.23 19.97-21.18 35.5-41.75 35.5-8.28 0-16.26-2.52-22.99-6.83z" fill="#fff2a0"/><circle cx="458" cy="50" fill="#eefaff" r="20"/></g><g><circle cx="52" cy="90" r="10"/><path d="m330.712 250.792c8.315 17.2 26.724 29.208 47.288 29.208 7.947 0 15.824-1.863 23.042-5.407 9.21 3.589 18.931 5.407 28.958 5.407 44.241 0 82-35.776 82-80 0-44.671-38.406-80.372-82.709-79.997.472-3.295.709-6.635.709-10.003 0-38.96-33.637-70-72-70-5.252 0-10.525.587-15.753 1.722-20.802-26.24-52.57-41.722-86.247-41.722s-65.445 15.482-86.246 41.722c-5.229-1.135-10.502-1.722-15.754-1.722-38.297 0-72 30.977-72 70 0 3.368.237 6.708.709 10.003-44.054-.381-82.709 35.092-82.709 79.997 0 44.229 37.763 80 82 80 10.026 0 19.746-1.818 28.955-5.406 7.218 3.547 15.079 5.406 23.045 5.406 20.563 0 38.972-12.009 47.288-29.207 3.813 2.179 7.826 3.987 11.969 5.409 3.566 13.893 7.597 33.5 10.195 52.704-20.934 2.516-57.452 7.981-57.452 27.094 0 19.384 37.161 24.767 59.085 27.284-.972 11.756-2.559 24.211-4.467 34.783-2.948 16.368-11.844 30.726-24.892 40.591-11.276-16.108-31.103-26.658-51.726-26.658-27.163 0-51.035 17.885-59.051 41.702-4.202-1.124-8.555-1.702-12.949-1.702-28.187 0-52 22.897-52 50 0 5.522 4.478 10 10 10h201c5.522 0 10-4.478 10-10s-4.478-10-10-10h-189.021c4.606-11.404 16.672-20 30.021-20 5.339 0 10.573 1.416 15.14 4.095 2.955 1.734 6.591 1.834 9.637.267s5.077-4.585 5.384-7.997c1.801-20.052 20.569-36.365 41.839-36.365 16.63 0 33.009 10.366 38.945 24.648 1.088 2.617 3.234 4.649 5.906 5.592 2.673.943 5.617.708 8.108-.646 22.924-12.475 38.722-34.337 43.341-59.979 2.007-11.123 3.678-24.211 4.705-36.574 6.813.435 13.829.722 20.994.86v16.099c0 5.523 4.478 10 10 10s10-4.477 10-10v-16.099c7.166-.138 14.182-.425 20.993-.86 1.028 12.359 2.698 25.448 4.705 36.571 4.62 25.644 20.418 47.506 43.342 59.981 2.49 1.354 5.436 1.589 8.108.646s4.818-2.975 5.906-5.592c5.938-14.281 22.317-24.647 38.947-24.647 21.27 0 40.038 16.313 41.84 36.365.307 3.412 2.338 6.429 5.384 7.997 3.044 1.566 6.683 1.467 9.637-.267 4.566-2.679 9.801-4.095 15.14-4.095 13.349 0 25.414 8.596 30.021 20h-189.022c-5.522 0-10 4.478-10 10s4.478 10 10 10h201c5.522 0 10-4.478 10-10 0-27.103-23.813-50-52-50-4.394 0-8.747.578-12.949 1.702-8.017-23.821-31.892-41.702-59.051-41.702-20.623 0-40.45 10.55-51.727 26.658-13.048-9.866-21.943-24.224-24.893-40.594-1.907-10.571-3.494-23.028-4.466-34.78 21.27-2.442 59.086-7.877 59.086-27.284 0-19.093-35.871-24.501-57.452-27.094 2.598-19.207 6.629-38.813 10.195-52.706 4.146-1.424 8.159-3.232 11.969-5.408zm-124.623 92.477c-17.835-2.116-28.82-4.987-34.935-7.266 6.051-2.252 16.883-5.091 34.421-7.21.195 2.656.341 5.194.432 7.585.08 2.108.105 4.417.082 6.891zm79.844 1.801c-6.462.416-13.123.693-19.933.83v-55.9c0-5.523-4.478-10-10-10s-10 4.477-10 10v55.899c-6.81-.137-13.47-.413-19.933-.83.427-25.405-5.603-60.51-11.307-85.089.413.007.826.019 1.24.019 14.392 0 28.316-4.41 40-12.553 11.684 8.144 25.608 12.554 40 12.554.414 0 .827-.012 1.24-.019-5.691 24.522-11.735 59.659-11.307 85.089zm54.913-9.067c-6.114 2.278-17.1 5.149-34.935 7.266-.023-2.473.003-4.781.083-6.888.091-2.393.237-4.931.432-7.588 17.537 2.119 28.369 4.958 34.42 7.21zm-44.846-96.003c-12.316 0-24.153-4.522-33.333-12.733-3.797-3.396-9.537-3.396-13.334 0-9.18 8.211-21.017 12.733-33.333 12.733-12.475 0-24.391-4.63-33.538-12.913-2.78-2.519-6.737-3.269-10.252-1.94-3.511 1.329-5.981 4.512-6.398 8.243-1.639 14.673-15.91 26.61-31.812 26.61-6.147 0-12.232-1.816-17.598-5.252-9.018-5.774-14.402-15.025-14.402-24.748 0-5.523-4.478-10-10-10s-10 4.477-10 10c0 10.577 3.609 20.728 10.054 29.156-3.294.554-6.648.844-10.054.844-33.607 0-62-27.477-62-60s28.393-60 62-60c4.001 0 8.024.399 11.959 1.186 3.573.717 7.246-.568 9.597-3.348 2.351-2.779 3.005-6.617 1.709-10.019-2.166-5.684-3.265-11.679-3.265-17.819 0-27.103 23.813-50 52-50 15.394 0 30.485 6.857 39.269 16.67 3.686 4.116 10.007 4.464 14.121.781 4.115-3.684 4.465-10.005.781-14.121-5-5.584-11.31-10.443-18.4-14.253 16.935-18.382 40.921-29.077 66.229-29.077s49.294 10.696 66.229 29.077c-7.09 3.81-13.401 8.668-18.4 14.253-3.684 4.115-3.334 10.437.781 14.121 4.116 3.683 10.436 3.333 14.121-.781 8.796-9.827 23.901-16.67 39.269-16.67 28.187 0 52 22.897 52 50 0 6.14-1.099 12.135-3.265 17.819-1.296 3.402-.642 7.239 1.709 10.019s6.021 4.064 9.597 3.348c3.935-.787 7.958-1.186 11.959-1.186 33.607 0 62 27.477 62 60s-28.393 60-62 60c-3.391 0-6.732-.287-10.012-.837 6.431-8.403 10.012-18.536 10.012-29.163 0-5.523-4.478-10-10-10s-10 4.477-10 10c0 10.018-5.629 19.422-15.063 25.16-5.198 3.166-11.054 4.84-16.937 4.84-15.902 0-30.173-11.937-31.812-26.61-.417-3.73-2.888-6.914-6.398-8.243-3.512-1.33-7.471-.579-10.252 1.94-9.111 8.25-21.025 12.913-33.538 12.913z"/><path d="m256 452c5.522 0 10-4.477 10-10v-20c0-5.523-4.478-10-10-10s-10 4.477-10 10v20c0 5.523 4.478 10 10 10z"/><path d="m458 80c16.542 0 30-13.458 30-30s-13.458-30-30-30-30 13.458-30 30 13.458 30 30 30zm0-40c5.514 0 10 4.486 10 10s-4.486 10-10 10-10-4.486-10-10 4.486-10 10-10z"/><circle cx="256" cy="502" r="10"/></g></g></svg>