<?xml version="1.0" encoding="iso-8859-1"?>
<!-- Generator: Adobe Illustrator 19.0.0, SVG Export Plug-In . SVG Version: 6.00 Build 0)  -->
<svg version="1.1" id="Capa_1" xmlns="http://www.w3.org/2000/svg" xmlns:xlink="http://www.w3.org/1999/xlink" x="0px" y="0px"
	 viewBox="0 0 512 512" style="enable-background:new 0 0 512 512;" xml:space="preserve">
<path style="fill:#BB7256;" d="M13.558,255.234c1.771-5.519,2.543-11.309,2.543-17.105l0,0c0-32.47,26.322-58.791,58.791-58.791l0,0
	c5.796,0,11.586-0.773,17.105-2.543c45.783-14.688,99.598-2.604,137.75,35.548c53.122,53.122,55.748,136.624,5.865,186.507
	s-133.385,47.257-186.507-5.865C10.955,354.832-1.13,301.017,13.558,255.234z"/>
<path style="fill:#E39B78;" d="M444.316,157.557c0,75.126-57.188,136.028-127.733,136.028S188.85,232.683,188.85,157.557
	c0-53.955,29.508-100.553,72.268-122.541c5.154-2.65,9.795-6.198,13.894-10.297l0,0c22.959-22.959,60.184-22.959,83.143,0l0,0
	c4.098,4.098,8.739,7.646,13.894,10.297C414.809,57.004,444.316,103.602,444.316,157.557z"/>
<path style="fill:#D8926F;" d="M444.316,157.557c0,75.126-57.188,136.028-127.733,136.028c-7.617,0-15.076-0.713-22.326-2.074
	c59.9-11.246,105.407-66.938,105.407-133.953c0-53.955-29.508-100.553-72.268-122.541c-5.155-2.65-9.796-6.198-13.894-10.297l0,0
	c-5.685-5.685-12.245-9.957-19.246-12.827c21.274-8.721,46.623-4.448,63.898,12.827l0,0c4.098,4.098,8.739,7.646,13.894,10.297
	C414.809,57.004,444.316,103.602,444.316,157.557z"/>
<path style="fill:#9E5640;" d="M422.209,464.199c-5.004,2.573-9.509,6.017-13.488,9.996l0,0c-22.289,22.289-58.427,22.289-80.716,0
	l0,0c-3.979-3.979-8.484-7.423-13.488-9.996c-41.511-21.346-70.158-66.583-70.158-118.963c0-72.932,55.518-132.056,124.004-132.056
	s124.004,59.123,124.004,132.056C492.366,397.616,463.72,442.853,422.209,464.199z"/>
<path style="fill:#D08261;" d="M504.5,344.57c0-80.069-60.951-144.978-136.138-144.978S232.225,264.501,232.225,344.57
	c0,57.505,31.449,107.169,77.023,130.603c5.494,2.825,10.44,6.606,14.808,10.974l0,0c24.47,24.47,64.144,24.47,88.614,0l0,0
	c4.368-4.368,9.314-8.149,14.808-10.974C473.051,451.739,504.5,402.075,504.5,344.57z M410.223,441.623
	c-8.72,4.484-16.872,10.489-24.23,17.847c-4.709,4.709-10.97,7.302-17.629,7.302c-6.66,0-12.921-2.593-17.63-7.303
	c-7.358-7.358-15.51-13.362-24.233-17.849c-34.352-17.663-56.548-55.758-56.548-97.051c0-59.138,44.146-107.25,98.411-107.25
	c54.264,0,98.41,48.113,98.41,107.25C466.773,385.863,444.577,423.958,410.223,441.623z"/>
<path style="fill:#BB7256;" d="M504.5,344.57c0,57.505-31.449,107.169-77.023,130.603c-5.494,2.825-10.44,6.606-14.808,10.974l0,0
	c-16.473,16.473-39.832,21.839-60.809,16.133c10.183-2.77,19.808-8.136,27.805-16.133c4.368-4.368,9.314-8.149,14.808-10.974
	c45.573-23.434,77.023-73.098,77.023-130.603c0-74.12-52.232-135.24-119.636-143.915c5.41-0.696,10.916-1.063,16.502-1.063
	C443.549,199.592,504.5,264.501,504.5,344.57z"/>
<path style="fill:#FF8436;" d="M372.82,370.876c2.783,4.405,4.41,9.706,4.41,15.412c0,15.28-11.646,27.667-26.011,27.667
	s-26.011-12.387-26.011-27.667c0-5.175,1.36-10,3.685-14.143c-1.207,0.183-2.431,0.309-3.685,0.309
	c-14.366,0-26.011-12.387-26.011-27.667s11.646-27.667,26.011-27.667c1.254,0,2.478,0.127,3.685,0.309
	c-2.325-4.142-3.685-8.968-3.685-14.143c0-15.28,11.646-27.667,26.011-27.667s26.011,12.387,26.011,27.667
	c0,5.706-1.627,11.007-4.41,15.412c10.135,3.779,17.416,14.017,17.416,26.088S382.955,367.097,372.82,370.876z"/>
<path style="fill:#FF9C41;" d="M363.905,318.7c-2.783-4.405-4.41-9.706-4.41-15.412c0-15.28,11.646-27.667,26.011-27.667
	s26.011,12.387,26.011,27.667c0,5.175-1.36,10-3.685,14.143c1.207-0.183,2.431-0.309,3.685-0.309
	c14.366,0,26.011,12.387,26.011,27.667s-11.646,27.667-26.011,27.667c-1.254,0-2.478-0.127-3.685-0.309
	c2.325,4.142,3.685,8.968,3.685,14.143c0,15.28-11.646,27.667-26.011,27.667s-26.011-12.387-26.011-27.667
	c0-5.706,1.627-11.007,4.41-15.412c-10.135-3.779-17.416-14.017-17.416-26.088S353.77,322.48,363.905,318.7z"/>
<path d="M441.256,213.235c7.005-17.622,10.562-36.326,10.562-55.678c0-27.437-7.321-54.106-21.172-77.125
	c-13.52-22.469-32.595-40.48-55.163-52.084c-4.223-2.172-8.266-5.176-12.02-8.931C350.94,6.896,334.293,0,316.587,0
	s-34.354,6.896-46.873,19.416c-3.756,3.756-7.801,6.76-12.021,8.931c-22.569,11.605-41.644,29.616-55.164,52.085
	c-13.851,23.02-21.172,49.689-21.172,77.125c0,5.083,0.261,10.118,0.749,15.096c-30.107-11.47-62.482-12.595-92.39-3.001
	c-4.519,1.45-9.503,2.185-14.813,2.185c-36.553,0-66.291,29.738-66.291,66.292c0,5.312-0.735,10.296-2.185,14.814
	c-7.753,24.165-8.506,50.389-2.178,75.838c6.482,26.071,20.163,50.106,39.563,69.507c29.077,29.077,66.905,43.753,103.948,43.753
	c32.725,0,64.835-11.473,89.725-34.59c2.803,6.566,6.053,12.937,9.74,19.064c14.363,23.869,34.625,43.001,58.598,55.328
	c4.544,2.336,8.895,5.569,12.933,9.607c13.251,13.252,30.869,20.55,49.609,20.55s36.359-7.298,49.61-20.55
	c4.037-4.038,8.389-7.271,12.933-9.607c23.972-12.327,44.235-31.459,58.597-55.328C504.222,402.058,512,373.722,512,344.57
	C512,288.72,483.562,239.796,441.256,213.235z M210.519,97.325l24.673,24.674c1.465,1.465,3.384,2.197,5.304,2.197
	c1.919,0,3.839-0.732,5.304-2.197c2.929-2.929,2.929-7.678,0-10.606l-27.537-27.538c11.639-17.766,27.439-32.475,46.289-42.168
	c5.605-2.882,10.91-6.807,15.768-11.664C290.007,20.335,302.887,15,316.587,15s26.581,5.335,36.268,15.023
	c2.962,2.963,6.094,5.573,9.358,7.818c-0.005,0.111-0.017,0.221-0.017,0.333v26.47c0,6.412-3.8,12.208-9.68,14.764l-25.898,11.26
	c-6.311,2.744-11.376,7.424-14.636,13.162l-21.935-21.936c-2.929-2.929-7.677-2.93-10.607,0c-2.929,2.929-2.929,7.678,0,10.606
	l28.479,28.48v65.87c0,4.142,3.357,7.5,7.5,7.5c4.142,0,7.5-3.358,7.5-7.5v-67.663c0-6.412,3.8-12.208,9.68-14.764l25.898-11.26
	c11.359-4.938,18.699-16.133,18.699-28.52V46.585c20.583,12.901,36.914,32.026,47.238,54.441l-46.292,46.292
	c-2.929,2.929-2.929,7.678,0,10.606c1.465,1.465,3.384,2.197,5.304,2.197c1.919,0,3.839-0.732,5.304-2.197l41.612-41.612
	c4.198,13.114,6.458,27.025,6.458,41.244c0,16.778-2.959,33.002-8.792,48.325c-18.181-8.849-38.387-13.79-59.661-13.79
	c-23.257,0-45.236,5.904-64.689,16.365l-24.186-10.516c-5.88-2.557-9.68-8.352-9.68-14.764v-31.725c0-4.142-3.357-7.5-7.5-7.5
	s-7.5,3.358-7.5,7.5v31.725c0,12.386,7.34,23.581,18.699,28.52l14.711,6.396c-16.333,11.701-30.288,26.871-40.921,44.505
	c-32.022-24.116-50.944-62.848-50.944-105.041C196.355,136.237,201.411,115.599,210.519,97.325z M54.419,387.681
	c-10.054-10.054-18.293-21.489-24.597-33.73H88.67c4.143,0,7.5-3.358,7.5-7.5s-3.357-7.5-7.5-7.5H23.203
	c-8.549-23.15-10.524-48.221-5.093-71.899l12.769,12.769c8.76,8.759,21.866,11.485,33.388,6.944l26.275-10.351
	c5.967-2.351,12.751-0.938,17.284,3.595l47.844,47.845c1.465,1.465,3.384,2.197,5.304,2.197c1.919,0,3.839-0.732,5.304-2.197
	c2.929-2.929,2.929-7.678,0-10.606l-46.577-46.578v-40.276c0-4.142-3.357-7.5-7.5-7.5s-7.5,3.358-7.5,7.5v31.023
	c-6.362-1.752-13.252-1.48-19.656,1.042L58.77,272.81c-5.964,2.351-12.75,0.939-17.283-3.595l-18.718-18.717
	c-0.079-0.079-0.165-0.148-0.247-0.223c0.721-3.894,1.089-7.955,1.089-12.145c0-28.282,23.009-51.292,51.291-51.292
	c6.868,0,13.393-0.977,19.395-2.902c20.17-6.471,41.63-7.451,62.55-3.1v39.13c0,4.142,3.357,7.5,7.5,7.5s7.5-3.358,7.5-7.5v-35.058
	c4.375,1.472,8.706,3.182,12.975,5.134c7.517,34.703,26.981,65.306,55.304,85.904c-9.841,20.639-15.395,43.956-15.395,68.625
	c0,12.595,1.459,25.035,4.295,37.079l-27.603-27.604c-4.534-4.534-5.945-11.319-3.595-17.285l10.349-26.274
	c4.541-11.524,1.815-24.63-6.943-33.389l-22.432-22.433c-2.93-2.929-7.678-2.929-10.607,0s-2.929,7.678,0,10.606l22.432,22.433
	c4.535,4.534,5.946,11.319,3.595,17.284l-10.35,26.275c-2.522,6.403-2.794,13.293-1.042,19.656h-31.022c-4.143,0-7.5,3.358-7.5,7.5
	s3.357,7.5,7.5,7.5h40.275l32.749,32.749C177.477,440.147,102.626,435.889,54.419,387.681z M424.049,468.503
	c-5.929,3.048-11.542,7.201-16.682,12.341C396.949,491.263,383.098,497,368.365,497s-28.584-5.737-39.002-16.156
	c-5.141-5.14-10.753-9.292-16.681-12.341c-44.317-22.789-72.952-71.436-72.952-123.934c0-75.805,57.706-137.478,128.635-137.478
	S497,268.765,497,344.57C497,397.068,468.365,445.715,424.049,468.503z M474.273,344.57c0,44.074-23.794,84.787-60.619,103.723
	c-8.026,4.127-15.548,9.672-22.356,16.481c-6.126,6.125-14.27,9.499-22.933,9.499c-8.662,0-16.806-3.374-22.933-9.5
	c-6.807-6.807-14.33-12.353-22.358-16.481c-36.824-18.935-60.617-59.648-60.617-103.721c0-4.142,3.357-7.5,7.5-7.5
	s7.5,3.358,7.5,7.5c0,38.513,20.598,73.989,52.477,90.381c9.414,4.842,18.197,11.306,26.106,19.215
	c3.293,3.293,7.67,5.106,12.326,5.106s9.034-1.813,12.326-5.105c7.91-7.91,16.693-14.375,26.104-19.214
	c31.879-16.393,52.479-51.87,52.479-90.383c0-55.002-40.781-99.75-90.908-99.75c-39.122,0-73.774,27.379-86.226,68.129
	c-1.211,3.962-5.404,6.192-9.364,4.98c-3.962-1.21-6.191-5.403-4.981-9.364c14.393-47.1,54.81-78.746,100.571-78.746
	C426.763,229.82,474.273,281.297,474.273,344.57z M291.7,344.788c0,16.943,11.476,31.127,26.701,34.438
	c-0.457,2.318-0.69,4.684-0.69,7.063c0,19.391,15.033,35.167,33.511,35.167c6.131,0,11.992-1.705,17.162-4.954
	c5.015,3.143,10.871,4.954,17.124,4.954c18.478,0,33.511-15.775,33.511-35.167c0-2.378-0.233-4.745-0.69-7.063
	c15.224-3.311,26.702-17.494,26.702-34.438s-11.477-31.126-26.702-34.437c0.457-2.318,0.69-4.685,0.69-7.063
	c0-19.391-15.033-35.167-33.511-35.167c-6.258,0-12.118,1.814-17.135,4.961c-5.156-3.221-11.085-4.961-17.151-4.961
	c-18.478,0-33.511,15.775-33.511,35.167c0,2.378,0.233,4.745,0.69,7.063C303.177,313.662,291.7,327.845,291.7,344.788z
	 M404.02,303.288c0,3.674-0.942,7.295-2.726,10.473c-1.401,2.498-1.258,5.577,0.37,7.933c1.629,2.357,4.458,3.582,7.29,3.153
	c1.018-0.153,1.833-0.225,2.565-0.225c10.207,0,18.511,9.047,18.511,20.167s-8.305,20.167-18.511,20.167
	c-0.733,0-1.547-0.072-2.562-0.225c-2.841-0.431-5.662,0.794-7.292,3.151c-1.629,2.357-1.772,5.436-0.371,7.935
	c1.783,3.178,2.726,6.799,2.726,10.473c0,11.12-8.305,20.167-18.511,20.167c-10.207,0-18.51-9.047-18.51-20.167
	c0-4.096,1.124-8.041,3.251-11.406c1.206-1.91,1.488-4.262,0.766-6.402c-0.722-2.141-2.369-3.842-4.486-4.631
	c-7.498-2.796-12.536-10.456-12.536-19.061c0-8.604,5.038-16.264,12.536-19.06c2.117-0.789,3.765-2.491,4.486-4.631
	c0.723-2.141,0.44-4.493-0.766-6.402c-2.127-3.365-3.251-7.31-3.251-11.406c0-11.12,8.304-20.167,18.51-20.167
	C395.715,283.122,404.02,292.168,404.02,303.288z M325.21,324.622c0.733,0,1.549,0.072,2.566,0.225
	c2.844,0.429,5.662-0.796,7.29-3.153s1.771-5.436,0.369-7.934c-1.783-3.176-2.726-6.797-2.726-10.471
	c0-11.12,8.305-20.167,18.511-20.167c2.127,0,4.189,0.384,6.134,1.129c-3.384,5.492-5.358,12.025-5.358,19.038
	c0,4.19,0.702,8.298,2.061,12.167c-9.244,6.408-15.067,17.375-15.067,29.333s5.823,22.926,15.067,29.334
	c-1.359,3.868-2.061,7.976-2.061,12.166c0,7.007,1.971,13.536,5.35,19.026c-1.949,0.746-4.009,1.141-6.126,1.141
	c-10.207,0-18.511-9.047-18.511-20.167c0-3.674,0.942-7.295,2.726-10.472c1.402-2.499,1.259-5.578-0.37-7.935
	s-4.449-3.579-7.292-3.151c-1.016,0.153-1.83,0.225-2.563,0.225c-10.207,0-18.51-9.047-18.51-20.167
	C306.7,333.668,315.004,324.622,325.21,324.622z"/>
<g>
</g>
<g>
</g>
<g>
</g>
<g>
</g>
<g>
</g>
<g>
</g>
<g>
</g>
<g>
</g>
<g>
</g>
<g>
</g>
<g>
</g>
<g>
</g>
<g>
</g>
<g>
</g>
<g>
</g>
</svg>
