<svg id="Capa_1" enable-background="new 0 0 512 512" height="512" viewBox="0 0 512 512" width="512" xmlns="http://www.w3.org/2000/svg"><g><g><path d="m449.035 7.5h-240.798c-23.895 0-43.266 19.371-43.266 43.266v453.734l20.762-7.201 255.872 7.201h50.696v-453.734c0-23.895-19.371-43.266-43.266-43.266z" fill="#93bbe7"/><path d="m224.802 504.5-9.136-426.026h225.939v426.026z" fill="#69a2de"/><path d="m251.184 398.252-70.741-13.616-70.741 13.616c4.085 11.152 11.257 20.225 20.582 27.042v41.009l100.317 10.139v-51.148c9.327-6.817 16.499-15.89 20.583-27.042z" fill="#6a647f"/><g><g><path d="m221.943 320.261h62.153l22.078 25.348-22.078 25.348h-62.153z" fill="#c8c8c6"/></g></g><path d="m255.017 375.662c0 8.263-1.348 15.817-3.833 22.59h-141.482c-2.484-6.773-3.833-14.327-3.833-22.59 0-41.185 33.388-74.574 74.574-74.574s74.574 33.388 74.574 74.574z" fill="#d6d6d6"/><path d="m244.319 57.059-61.439.005c-86.035-.84-156.441 70.487-156.441 156.522l254.829-78.359v-41.222c0-20.406-16.543-36.948-36.949-36.946z" fill="#6a647f"/><path d="m185.528 57.063h-2.648c-86.035-.839-156.441 70.488-156.441 156.523l63.114-19.407c6.043-61.612 43.834-113.374 95.975-137.116z" fill="#5c586f"/><path d="m201.866 354.847-2.569-49.703h-37.706l-2.569 49.703c-.289 5.596 2.632 10.869 7.531 13.591l6.879 3.823c4.361 2.423 9.664 2.423 14.025 0l6.879-3.823c4.898-2.722 7.819-7.995 7.53-13.591z" fill="#ff8997"/><path d="m300.438 211.959c0 66.077-53.805 119.585-119.994 119.094-16.939-.123-33.018-3.767-47.541-10.225-41.697-18.505-70.642-60.243-70.642-108.869 0-13.79 2.345-27.029 6.656-39.344 7.872-22.486 29.301-37.387 53.126-37.387h159.225c17.482 20.725 19.17 47.5 19.17 76.731z" fill="#ffdcce"/><g><ellipse cx="205.527" cy="215.634" fill="#423e4f" rx="13.339" ry="14.927"/></g><path d="m224.802 466.303h-51.859l7.5 22.041c0 8.923 7.233 16.156 16.156 16.156h28.203c10.548 0 19.099-8.551 19.099-19.099 0-10.548-8.551-19.098-19.099-19.098z" fill="#423e4f"/><path d="m174.644 466.303h-44.359v22.041c0 8.923 7.233 16.156 16.156 16.156h28.203c10.548 0 19.099-8.551 19.099-19.099-.001-10.548-8.551-19.098-19.099-19.098z" fill="#4f4c5f"/><path d="m328.252 345.609c0 14.002-11.346 25.348-25.348 25.348h-18.808v-50.696h18.808c14.002 0 25.348 11.356 25.348 25.348z" fill="#ffdcce"/><path d="m129.654 318.672c-9.899-9.899-25.948-9.899-35.847 0l-26.025 26.025 2.312 33.535 33.535 2.312 26.025-26.025c9.899-9.899 9.899-25.948 0-35.847z" fill="#c8c8c6"/><circle cx="383.47" cy="345.609" fill="#6a647f" r="23.579"/><path d="m67.781 344.697-13.299 13.299c-9.901 9.901-9.901 25.946 0 35.847 9.894 9.894 25.946 9.901 35.847 0l13.299-13.299z" fill="#ffdcce"/><path d="m123.451 316.095c-21.754-28.721-34.749-65.031-34.749-104.52 0-26.431 5.826-51.437 16.198-73.698-16.492 5.226-30.066 17.839-35.983 34.738-.215.614-.403 1.241-.608 1.86-2.372-.636-5.049-.983-8.093-.983-22.377 0-40.517 18.141-40.517 40.518s18.14 40.517 40.517 40.517c3.593 0 6.684-.473 9.352-1.351 9.881 26.879 29.148 49.179 53.883 62.919z" fill="#ffcabd"/></g><g><path d="m141.633 214.342c4.142 0 7.499-3.357 7.499-7.5v-10.766c0-4.141-3.358-7.499-7.499-7.499s-7.499 3.358-7.499 7.499v10.766c-.001 4.142 3.357 7.5 7.499 7.5z"/><path d="m205.532 238.039c11.49 0 20.838-10.06 20.838-22.425s-9.348-22.424-20.838-22.424-20.838 10.06-20.838 22.424c0 12.365 9.348 22.425 20.838 22.425zm0-29.85c3.165 0 5.839 3.4 5.839 7.426s-2.674 7.426-5.839 7.426-5.839-3.401-5.839-7.426c0-4.026 2.674-7.426 5.839-7.426z"/><path d="m269.43 214.342c4.142 0 7.499-3.357 7.499-7.5v-10.766c0-4.141-3.358-7.499-7.499-7.499s-7.499 3.358-7.499 7.499v10.766c0 4.142 3.357 7.5 7.499 7.5z"/><path d="m383.458 314.502c-17.136 0-31.076 13.941-31.076 31.077s13.941 31.077 31.076 31.077c17.136 0 31.077-13.941 31.077-31.077s-13.941-31.077-31.077-31.077zm0 47.155c-8.865 0-16.078-7.213-16.078-16.078s7.212-16.078 16.078-16.078c8.865 0 16.078 7.212 16.078 16.078 0 8.865-7.212 16.078-16.078 16.078z"/><path d="m64.914 261.754c7.327 17.188 18.442 32.633 32.687 45.171-8.51 4.05-9.921 8.001-35.108 32.439l-13.298 13.298c-12.806 12.806-12.806 33.643 0 46.45 6.403 6.403 14.814 9.604 23.225 9.604 17.622 0 25.471-12.572 28.212-14.591 3.528 13.976 11.03 25.719 22.163 34.81v59.365c0 13.043 10.611 23.654 23.654 23.654 25.705-.652 30.776 1.603 39.54-2.545 8.262 4.16 12.881 1.891 38.815 2.545h.001 216.783 50.692c4.142 0 7.499-3.358 7.499-7.499v-453.693c.001-27.991-22.771-50.762-50.762-50.762h-240.776c-27.99 0-50.762 22.771-50.762 50.762v.614c-17.596 2.682-34.744 8.293-50.559 16.626-3.664 1.931-5.07 6.467-3.139 10.13 1.931 3.665 6.466 5.07 10.13 3.139 21.194-11.167 45.04-16.942 68.975-16.714l61.434-.005c16.451-.001 29.447 13.369 29.447 29.444v33.72h-151.713c-24.952 0-48.489 14.712-58.627 38.366-8.289-.544-16.287 1.102-23.022 4.154 8.648-28.442 25.676-53.836 49.184-72.906 3.217-2.609 3.709-7.331 1.1-10.548-2.61-3.217-7.333-3.709-10.549-1.1-31.249 25.349-52.077 60.884-58.813 100.223-5.721 7.904-9.106 17.603-9.106 28.084-.001 28.07 24.229 50.565 52.693 47.765zm-37.695-47.764c0-17.79 14.163-32.195 31.379-32.968-5.409 21.515-5.053 44.533 1.083 65.978-17.949-.297-32.462-14.99-32.462-33.01zm71.904 109.957c4.735-4.734 11.641-6.352 17.916-4.41 12.86 3.975 16.728 20.244 7.323 29.649l-20.72 20.72c-8.826-8.826-16.413-16.413-25.239-25.239zm203.777 3.785c9.84 0 17.847 8.006 17.847 17.846s-8.006 17.846-17.847 17.846h-11.307v-35.693h11.307zm-26.306 35.693h-14.992c-1.906-12.851-6.853-25.1-14.489-35.693h29.481zm-162.974 17.713c22.367-22.396 22.007-21.86 23.776-24.068 5.218-6.536 7.931-15.086 6.985-24.001 2.681.82 5.476 1.554 8.152 2.175l-.992 19.184c-.433 8.392 4.032 16.451 11.377 20.532l6.878 3.822c12.976 7.21 23.394-1.54 28.188-3.822 7.345-4.081 11.81-12.141 11.376-20.532l-.971-18.784c7.04-1.524 13.907-3.642 20.543-6.331 16.244 16.982 21.967 41.164 16.737 61.404h-130.442c-.789-3.062-1.326-6.264-1.607-9.579zm79.87-43.182.891 17.247c.14 2.717-1.305 5.326-3.683 6.647-4.878 2.117-8.562 6.63-13.617 3.822l-6.878-3.822c-2.378-1.321-3.824-3.931-3.683-6.647l.901-17.426c1.17.127 2.344.235 3.52.329 7.498.606 15.146.55 22.549-.15zm-133.688 50.55c-6.958-6.958-6.958-18.28 0-25.238l7.995-7.995c.936.936 20.958 20.957 25.239 25.238l-7.995 7.995c-6.96 6.959-18.282 6.958-25.239 0zm61.994 17.21h117.305c-8.949 13.704-15.996 12.422-15.996 19.54v33.506h-35.156v-26.862c0-4.142-3.358-7.499-7.499-7.499-4.142 0-7.499 3.358-7.499 7.499v26.863h-35.156v-33.506c0-7.111-7.201-6.062-15.999-19.541zm24.654 91.24c-4.773 0-8.655-3.883-8.655-8.656v-14.54c38.933.023 38.85-.533 42.449 1.444 7.3 4.038 8.165 14.277 1.335 19.432-5.29 3.961-8.96 1.635-35.129 2.32zm52.156-23.195c26.438.022 28.108-.58 31.792 1.444 10.391 5.747 6.38 21.751-5.593 21.751h-26.205c3.426-7.052 3.612-15.724.006-23.195zm45.713-424.207c-48.53.162-63.487-.243-71.829.245.511-19.278 16.352-34.801 35.75-34.801h240.777c19.72 0 35.763 16.044 35.763 35.763v446.195h-35.693v-216.136c0-4.142-3.358-7.499-7.499-7.499s-7.499 3.358-7.499 7.499v216.136h-185.352c6.141-12.84 1.243-27.821-10.633-34.64v-33.38c5.111-4.174 9.584-9.02 13.253-14.537 4.7-7.072 6.678-13.213 6.87-13.602.076-.4 3.78-9.194 4.243-22.374h40.431c18.782 0 33.756-15.78 32.802-34.533-.883-17.353-15.28-31.157-32.802-31.157-9.459 0-34.584 0-44.945 0 29.094-22.21 47.506-55.496 49.763-93.458 1.701-30.022-1.049-63.879-18.953-86.722-.244-36.865.549-39.627-.723-46.587h146.047v164.856c0 4.142 3.358 7.499 7.499 7.499s7.499-3.358 7.499-7.499v-172.355c0-4.142-3.358-7.499-7.499-7.499h-159.242c-7.91-13.009-22.037-21.415-38.028-21.414zm33.321 93.161c14.653 19.575 16.155 48.982 15.203 73.624-2.37 59.709-51.721 107.603-112.338 107.185-16.067-.115-32.275-3.826-45.272-9.915-4.431-4.554-10.268-7.737-16.253-9.078-41.855-28.182-59.228-80.62-43.486-127.864v-.001c7.287-21.978 26.697-33.951 46.561-33.951z"/></g></g></svg>