<svg height="512pt" viewBox="-84 0 512 512.00032" width="512pt" xmlns="http://www.w3.org/2000/svg"><path d="m139.886719 42.683594c-19.394531-19.394532-46.40625-26.542969-71.410157-21.441406-6.464843 1.320312-11.5 6.355468-12.820312 12.816406-5.101562 25.003906 2.046875 52.015625 21.441406 71.410156 22.03125 22.03125 53.890625 28.261719 81.46875 18.679688 9.578125-27.578126 3.347656-59.4375-18.679687-81.464844zm0 0" fill="#00c655"/><path d="m87.101562 85.464844c-17.1875-17.183594-24.75-40.351563-22.699218-62.804688-4.441406 2.222656-7.71875 6.375-8.742188 11.398438-5.105468 25.003906 2.046875 52.015625 21.4375 71.410156 22.03125 22.03125 53.890625 28.261719 81.46875 18.679688 2.050782-5.910157 3.375-12.019532 3.976563-18.1875-26.097657 6.773437-55-.054688-75.441407-20.496094zm0 0" fill="#00a42c"/><path d="m222.023438 22.867188-10.761719-11.683594c-4.613281-5.007813-12.488281-4.949219-17.113281.046875-46.332032 50.054687-41.425782 110.542969-41.179688 113.246093l38.871094-3.554687c-.046875-.476563-3.664063-45.128906 30.308594-82.472656 4.015624-4.414063 3.917968-11.191407-.125-15.582031zm0 0" fill="#e1966d"/><path d="m202.703125 67.824219c-9.761719-2.304688-19.933594-3.492188-30.300781-3.492188-3.535156 0-7.027344.148438-10.480469.410157-11.234375 31.828124-9.113281 57.980468-8.953125 59.734374l38.867188-3.554687c-.03125-.351563-2.03125-25.089844 10.867187-53.097656zm0 0" fill="#d77c40"/><path d="m172.402344 504.546875c71.230468 0 164.90625-27.324219 164.90625-126.207031 0-66.886719-32.054688-115.691406-50.554688-138.289063-20.699218-25.285156-15.292968-66.320312-30.667968-95.613281-16.875-32.144531-47.371094-50.101562-83.683594-50.101562-33.859375 0-63.371094 15.542968-80.730469 44.800781-18.332031 30.890625-10.855469 73.105469-33.617187 100.914062-18.496094 22.59375-50.554688 71.402344-50.554688 138.285157 0 98.886718 93.671875 126.210937 164.902344 126.210937zm0 0" fill="#73d98b"/><path d="m47.507812 378.339844c0-66.886719 32.058594-115.695313 50.554688-138.289063 22.761719-27.808593 15.28125-70.023437 33.617188-100.914062 13.835937-23.320313 35.390624-37.914063 60.714843-42.882813-6.421875-1.265625-13.101562-1.917968-19.992187-1.917968-33.859375 0-63.371094 15.542968-80.730469 44.800781-18.332031 30.890625-10.855469 73.109375-33.617187 100.914062-18.496094 22.59375-50.554688 71.402344-50.554688 138.289063 0 98.882812 93.675781 126.207031 164.902344 126.207031 6.511718 0 13.210937-.230469 20.003906-.722656-67.566406-4.875-144.898438-35.636719-144.898438-125.484375zm0 0" fill="#29ce69"/><path d="m87.816406 353.496094v13.953125c0 4.140625 3.359375 7.5 7.503906 7.5 4.140626 0 7.5-3.359375 7.5-7.5v-13.953125c0-4.140625-3.359374-7.5-7.5-7.5-4.144531 0-7.503906 3.359375-7.503906 7.5zm0 0"/><path d="m241.988281 353.496094v13.953125c0 4.140625 3.359375 7.5 7.5 7.5 4.144531 0 7.503907-3.359375 7.503907-7.5v-13.953125c0-4.140625-3.359376-7.5-7.503907-7.5-4.140625 0-7.5 3.359375-7.5 7.5zm0 0"/><path d="m185.78125 361.539062c-3.25 3.722657-8.125 5.855469-13.375 5.855469-5.253906 0-10.128906-2.132812-13.378906-5.855469-2.726563-3.117187-7.464844-3.4375-10.585938-.710937-3.117187 2.730469-3.4375 7.464844-.710937 10.585937 6.101562 6.980469 15.09375 10.980469 24.675781 10.980469 9.578125 0 18.570312-4 24.671875-10.980469 2.726563-3.117187 2.40625-7.855468-.710937-10.582031-3.117188-2.726562-7.859376-2.410156-10.585938.707031zm0 0"/><path d="m39.527344 252.382812c-18.03125 26.707032-39.527344 70.226563-39.527344 125.910157 0 98.582031 89.058594 133.707031 172.402344 133.707031 30.824218 0 88.679687-5.050781 129.863281-38.871094 3.203125-2.628906 3.664063-7.355468 1.035156-10.558594-2.628906-3.199218-7.355469-3.664062-10.558593-1.035156-27.441407 22.539063-71.304688 35.460938-120.339844 35.460938-23.628906 0-68.738282-3.242188-105.332032-24.96875-34.550781-20.515625-52.066406-52.050782-52.066406-93.734375 0-51.886719 20.097656-92.546875 36.957032-117.515625 2.320312-3.433594 1.414062-8.097656-2.019532-10.417969-3.433594-2.316406-8.097656-1.410156-10.414062 2.023437zm0 0"/><path d="m227.542969 17.738281s-10.761719-11.679687-10.761719-11.683593c-7.476562-8.117188-20.664062-8.039063-28.136719.035156-14.417969 15.574218-24.082031 32.105468-30.554687 47.691406-3.578125-5.933594-7.882813-11.433594-12.898438-16.449219-16.269531-16.269531-37.90625-25.230469-60.917968-25.230469-5.800782 0-11.621094.585938-17.296876 1.746094-9.417968 1.921875-16.746093 9.25-18.667968 18.667969-5.808594 28.460937 2.972656 57.699219 23.484375 78.210937 5.957031 5.957032 12.644531 10.914063 19.949219 14.859376-2.328126 3.066406-4.511719 6.285156-6.523438 9.675781-9.105469 15.34375-12.246094 32.808593-15.28125 49.699219-2.851562 15.847656-5.542969 30.816406-12.816406 43.25-2.089844 3.578124-.886719 8.171874 2.691406 10.261718 3.574219 2.09375 8.167969.890625 10.261719-2.6875 8.613281-14.730468 11.671875-31.730468 14.628906-48.171875 2.929687-16.292969 5.695313-31.683593 13.417969-44.695312 15.289062-25.765625 44.558594-41.125 74.28125-41.125 31.875 0 62.179687 17.769531 77.039062 46.082031 6.253906 11.917969 8.804688 26.121094 11.507813 41.160156 3.542969 19.710938 7.207031 40.09375 20 55.722656 18.246093 22.289063 48.855469 69.273438 48.855469 133.535157 0 24.378906-6.070313 45.492187-18.039063 62.757812-2.359375 3.40625-1.515625 8.082031 1.890625 10.441407 3.363281 2.332031 8.109375 1.46875 10.441406-1.890626 13.742188-19.824218 20.710938-43.816406 20.710938-71.308593 0-68.921875-32.738282-119.199219-52.25-143.039063-10.324219-12.609375-13.492188-30.226562-16.84375-48.875-2.78125-15.492187-5.664063-31.511718-12.988282-45.472656-13.210937-25.167969-34.390624-42.46875-60.21875-49.945312 3.417969-13.730469 10.503907-31.371094 25.1875-47.507813 6.558594-7.207031 6.488282-18.503906-.152343-25.714844zm-164.535157 17.777344c.71875-3.515625 3.453126-6.253906 6.96875-6.96875 4.691407-.957031 9.5-1.445313 14.292969-1.445313 19.007813 0 36.875 7.402344 50.3125 20.839844 7.46875 7.46875 13.042969 16.21875 16.589844 26.039063-.671875 2.472656-1.289063 4.960937-1.855469 7.460937-.605468 2.683594-1.144531 5.378906-1.621094 8.085938-3.472656.800781-6.867187 1.777344-10.183593 2.914062l-32.113281-32.113281c-2.929688-2.929687-7.675782-2.929687-10.605469 0-2.929688 2.929687-2.929688 7.679687 0 10.609375l27.957031 27.957031c-7.550781 4.078125-14.511719 9.136719-20.734375 15.109375-7.269531-3.464844-13.851563-8.125-19.613281-13.886718-16.941406-16.941407-24.191406-41.09375-19.394532-64.601563zm153.589844-2.160156c-16.890625 18.570312-24.945312 38.84375-28.773437 54.492187-7.808594-1.082031-15.835938-1.324218-23.699219-.75-.226562.015625-.457031.023438-.683594.039063.054688-.246094 1.769532-7.726563 2.726563-11.070313 5.292969-18.480468 15.171875-40.003906 33.484375-59.789062 1.621094-1.75 4.460937-1.832032 6.09375-.058594l10.761718 11.683594c1.421876 1.546875 1.464844 3.945312.089844 5.453125zm0 0"/></svg>