<?xml version="1.0" encoding="UTF-8"?>
<svg width="613px" height="512px" viewBox="0 0 613 512" version="1.1" xmlns="http://www.w3.org/2000/svg" xmlns:xlink="http://www.w3.org/1999/xlink">
    <!-- Generator: Sketch 55.2 (78181) - https://sketchapp.com -->
    <title>Group 2</title>
    <desc>Created with Sketch.</desc>
    <g id="Page-1" stroke="none" stroke-width="1" fill="none" fill-rule="evenodd">
        <g id="Group-2" transform="translate(-36.000000, -29.000000)" fill-rule="nonzero">
            <g id="pear" transform="translate(484.500000, 284.000000) rotate(4.000000) translate(-484.500000, -284.000000) translate(312.000000, 28.000000)">
                <path d="M139.886719,42.683594 C120.492188,23.289062 93.480469,16.140625 68.476562,21.242188 C62.011719,22.5625 56.976562,27.597656 55.65625,34.058594 C50.554688,59.0625 57.703125,86.074219 77.097656,105.46875 C99.128906,127.5 130.988281,133.730469 158.566406,124.148438 C168.144531,96.570312 161.914062,64.710938 139.886719,42.683594 Z" id="Path" fill="#00C655"></path>
                <path d="M87.101562,85.464844 C69.914062,68.28125 62.351562,45.113281 64.402344,22.660156 C59.960938,24.882812 56.683594,29.035156 55.660156,34.058594 C50.554688,59.0625 57.707031,86.074219 77.097656,105.46875 C99.128906,127.5 130.988281,133.730469 158.566406,124.148438 C160.617188,118.238281 161.941406,112.128906 162.542969,105.960938 C136.445312,112.734375 107.542969,105.90625 87.101562,85.464844 Z" id="Path" fill="#00A42C"></path>
                <path d="M222.023438,22.867188 L211.261719,11.183594 C206.648438,6.175781 198.773438,6.234375 194.148438,11.230469 C147.816406,61.285156 152.722656,121.773438 152.96875,124.476562 L191.839844,120.921875 C191.792969,120.445312 188.175781,75.792969 222.148438,38.449219 C226.164062,34.035156 226.066406,27.257812 222.023438,22.867188 Z" id="Path" fill="#E1966D"></path>
                <path d="M202.703125,67.824219 C192.941406,65.519531 182.769531,64.332031 172.402344,64.332031 C168.867188,64.332031 165.375,64.480469 161.921875,64.742188 C150.6875,96.570312 152.808594,122.722656 152.96875,124.476562 L191.835938,120.921875 C191.804688,120.570312 189.804688,95.832031 202.703125,67.824219 Z" id="Path" fill="#D77C40"></path>
                <path d="M172.402344,504.546875 C243.632812,504.546875 337.308594,477.222656 337.308594,378.339844 C337.308594,311.453125 305.253906,262.648438 286.753906,240.050781 C266.054688,214.765625 271.460938,173.730469 256.085938,144.4375 C239.210938,112.292969 208.714844,94.335938 172.402344,94.335938 C138.542969,94.335938 109.03125,109.878906 91.671875,139.136719 C73.339844,170.027344 80.816406,212.242188 58.054688,240.050781 C39.558594,262.644531 7.5,311.453125 7.5,378.335938 C7.5,477.222656 101.171875,504.546875 172.402344,504.546875 L172.402344,504.546875 Z" id="Path" fill="#73D98B"></path>
                <path d="M47.507812,378.339844 C47.507812,311.453125 79.566406,262.644531 98.0625,240.050781 C120.824219,212.242188 113.34375,170.027344 131.679688,139.136719 C145.515625,115.816406 167.070312,101.222656 192.394531,96.253906 C185.972656,94.988281 179.292969,94.335938 172.402344,94.335938 C138.542969,94.335938 109.03125,109.878906 91.671875,139.136719 C73.339844,170.027344 80.816406,212.246094 58.054688,240.050781 C39.558594,262.644531 7.5,311.453125 7.5,378.339844 C7.5,477.222656 101.175781,504.546875 172.402344,504.546875 C178.914062,504.546875 185.613281,504.316406 192.40625,503.824219 C124.839844,498.949219 47.507812,468.1875 47.507812,378.339844 Z" id="Path" fill="#29CE69"></path>
                <path d="M87.816406,353.496094 L87.816406,367.449219 C87.816406,371.589844 91.175781,374.949219 95.320312,374.949219 C99.460938,374.949219 102.820312,371.589844 102.820312,367.449219 L102.820312,353.496094 C102.820312,349.355469 99.460938,345.996094 95.320312,345.996094 C91.175781,345.996094 87.816406,349.355469 87.816406,353.496094 Z" id="Path" fill="#000000"></path>
                <path d="M241.988281,353.496094 L241.988281,367.449219 C241.988281,371.589844 245.347656,374.949219 249.488281,374.949219 C253.632812,374.949219 256.992188,371.589844 256.992188,367.449219 L256.992188,353.496094 C256.992188,349.355469 253.632812,345.996094 249.488281,345.996094 C245.347656,345.996094 241.988281,349.355469 241.988281,353.496094 Z" id="Path" fill="#000000"></path>
                <path d="M185.78125,361.539062 C182.53125,365.261719 177.65625,367.394531 172.40625,367.394531 C167.152344,367.394531 162.277344,365.261719 159.027344,361.539062 C156.300781,358.421875 151.5625,358.101562 148.441406,360.828125 C145.324219,363.558594 145.003906,368.292969 147.730469,371.414062 C153.832031,378.394531 162.824219,382.394531 172.40625,382.394531 C181.984375,382.394531 190.976562,378.394531 197.078125,371.414062 C199.804688,368.296875 199.484375,363.558594 196.367188,360.832031 C193.25,358.105469 188.507812,358.421875 185.78125,361.539062 Z" id="Path" fill="#000000"></path>
                <path d="M39.527344,252.382812 C21.496094,279.089844 0,322.609375 0,378.292969 C0,476.875 89.058594,512 172.402344,512 C203.226562,512 261.082031,506.949219 302.265625,473.128906 C305.46875,470.5 305.929688,465.773438 303.300781,462.570312 C300.671875,459.371094 295.945312,458.90625 292.742188,461.535156 C265.300781,484.074219 221.4375,496.996094 172.402344,496.996094 C148.773438,496.996094 103.664062,493.753906 67.070312,472.027344 C32.519531,451.511719 15.003906,419.976562 15.003906,378.292969 C15.003906,326.40625 35.101562,285.746094 51.960938,260.777344 C54.28125,257.34375 53.375,252.679688 49.941406,250.359375 C46.507812,248.042969 41.84375,248.949219 39.527344,252.382812 L39.527344,252.382812 Z" id="Path" fill="#000000"></path>
                <path d="M227.542969,17.738281 C227.542969,17.738281 216.78125,6.058594 216.78125,6.054688 C209.304688,-2.0625 196.117188,-1.984375 188.644531,6.089844 C174.226562,21.664062 164.5625,38.195312 158.089844,53.78125 C154.511719,47.847656 150.207031,42.347656 145.191406,37.332031 C128.921875,21.0625 107.285156,12.101562 84.273438,12.101562 C78.472656,12.101562 72.652344,12.6875 66.976562,13.847656 C57.558594,15.769531 50.230469,23.097656 48.308594,32.515625 C42.5,60.976562 51.28125,90.214844 71.792969,110.726562 C77.75,116.683594 84.4375,121.640625 91.742188,125.585938 C89.414062,128.652344 87.230469,131.871094 85.21875,135.261719 C76.113281,150.605469 72.972656,168.070312 69.9375,184.960938 C67.085938,200.808594 64.394531,215.777344 57.121094,228.210938 C55.03125,231.789062 56.234375,236.382812 59.8125,238.472656 C63.386719,240.566406 67.980469,239.363281 70.074219,235.785156 C78.6875,221.054688 81.746094,204.054688 84.703125,187.613281 C87.632812,171.320312 90.398438,155.929688 98.121094,142.917969 C113.410156,117.152344 142.679688,101.792969 172.402344,101.792969 C204.277344,101.792969 234.582031,119.5625 249.441406,147.875 C255.695312,159.792969 258.246094,173.996094 260.949219,189.035156 C264.492188,208.746094 268.15625,229.128906 280.949219,244.757812 C299.195312,267.046875 329.804688,314.03125 329.804688,378.292969 C329.804688,402.671875 323.734375,423.785156 311.765625,441.050781 C309.40625,444.457031 310.25,449.132812 313.65625,451.492188 C317.019531,453.824219 321.765625,452.960938 324.097656,449.601562 C337.839844,429.777344 344.808594,405.785156 344.808594,378.292969 C344.808594,309.371094 312.070312,259.09375 292.558594,235.253906 C282.234375,222.644531 279.066406,205.027344 275.714844,186.378906 C272.933594,170.886719 270.050781,154.867188 262.726562,140.90625 C249.515625,115.738281 228.335938,98.4375 202.507812,90.960938 C205.925781,77.230469 213.011719,59.589844 227.695312,43.453125 C234.253906,36.246094 234.183594,24.949219 227.542969,17.738281 Z M63.007812,35.515625 C63.726562,32 66.460938,29.261719 69.976562,28.546875 C74.667969,27.589844 79.476562,27.101562 84.269531,27.101562 C103.277344,27.101562 121.144531,34.503906 134.582031,47.941406 C142.050781,55.410156 147.625,64.160156 151.171875,73.980469 C150.5,76.453125 149.882812,78.941406 149.316406,81.441406 C148.710938,84.125 148.171875,86.820312 147.695312,89.527344 C144.222656,90.328125 140.828125,91.304688 137.511719,92.441406 L105.398438,60.328125 C102.46875,57.398438 97.722656,57.398438 94.792969,60.328125 C91.863281,63.257812 91.863281,68.007812 94.792969,70.9375 L122.75,98.894531 C115.199219,102.972656 108.238281,108.03125 102.015625,114.003906 C94.746094,110.539062 88.164062,105.878906 82.402344,100.117188 C65.460938,83.175781 58.210938,59.023438 63.007812,35.515625 Z M216.597656,33.355469 C199.707031,51.925781 191.652344,72.199219 187.824219,87.847656 C180.015625,86.765625 171.988281,86.523438 164.125,87.097656 C163.898438,87.113281 163.667969,87.121094 163.441406,87.136719 C163.496094,86.890625 165.210938,79.410156 166.167969,76.066406 C171.460938,57.585938 181.339844,36.0625 199.652344,16.277344 C201.273438,14.527344 204.113281,14.445312 205.746094,16.21875 L216.507812,27.902344 C217.929688,29.449219 217.972656,31.847656 216.597656,33.355469 Z" id="Shape" fill="#000000"></path>
            </g>
            <g id="pear-(1)" transform="translate(244.000000, 276.000000) rotate(-6.000000) translate(-244.000000, -276.000000) translate(26.000000, 22.000000)">
                <g id="Group" transform="translate(8.000000, 8.000000)">
                    <path d="M174.882,104.722 L151.219,145.486 L153.221,104.029 C155.135,74.736 143.885,43.307 128.347,15.287 L164.803,0.503 C180.234,33.908 183.593,70.101 174.882,104.722 Z" id="Path" fill="#AD7136"></path>
                    <path d="M326.369,334.352 C326.369,421.212 253.349,491.632 163.269,491.632 C73.199,491.632 0.169,421.212 0.169,334.352 C0.169,309.002 15.939,275.862 32.279,248.332 C48.359,221.212 62.659,193.102 73.899,163.802 C80.619,146.292 92.709,131.292 108.249,120.662 C123.789,110.042 142.779,103.802 163.269,103.802 C165.629,103.802 167.969,103.882 170.289,104.052 C208.229,106.712 239.979,130.792 252.649,163.802 C263.889,193.102 278.179,221.212 294.269,248.332 C300.169,258.272 305.989,268.942 311.019,279.712 C319.929,298.772 326.369,318.152 326.369,334.352 Z" id="Path" fill="#FFE239"></path>
                    <path d="M162.214,491.622 C72.624,491.082 0.174,420.872 0.174,334.352 C0.174,309.002 15.934,275.862 32.274,248.332 C48.364,221.212 62.654,193.102 73.894,163.802 C87.334,128.772 122.274,103.802 163.264,103.802 C142.584,103.802 124.944,128.772 118.164,163.802 C112.494,193.102 105.284,221.212 97.164,248.332 C88.924,275.862 80.964,309.002 80.964,334.352 C80.964,420.532 117.244,490.532 162.214,491.622 Z" id="Path" fill="#FFB83B"></path>
                    <path d="M311.019,279.712 C276.159,274.852 242.589,258.782 216.159,231.582 C181.859,196.292 166.629,149.532 170.289,104.052 C208.229,106.712 239.979,130.792 252.649,163.802 C263.889,193.102 278.179,221.212 294.269,248.332 C300.169,258.272 305.989,268.942 311.019,279.712 Z" id="Path" fill="#FFB83B"></path>
                    <path d="M248.825,220.488 C293.618,250.917 348.089,256.201 395.54,239.529 C403.546,236.729 411.345,233.294 418.868,229.258 C425.7,170.467 400.407,109.973 348.058,74.411 C295.709,38.849 230.161,37.626 178.026,65.649 C177.826,67.386 177.647,69.128 177.514,70.871 C172.71,128.003 198.024,185.978 248.825,220.488 Z" id="Path" fill="#58B741"></path>
                    <path d="M177.515,70.871 C262.306,86.545 375.749,190.349 395.541,239.53 C403.547,236.73 411.346,233.295 418.869,229.259 C425.701,170.468 400.408,109.974 348.059,74.412 C295.71,38.85 230.162,37.627 178.027,65.65 C177.826,67.386 177.647,69.128 177.515,70.871 Z" id="Path" fill="#70D65B"></path>
                </g>
                <g id="Group" fill="#000000">
                    <path d="M242.07,435.586 C238.941,436.238 236.479,438.826 236.098,442.02 C235.743,444.995 237.219,447.991 239.844,449.461 C242.752,451.089 246.47,450.604 248.84,448.246 C250.925,446.171 251.586,442.977 250.528,440.24 C249.227,436.876 245.611,434.892 242.07,435.586 Z" id="Path"></path>
                    <path d="M244.909,413.606 C242.366,407.595 233.59,407.554 231.059,413.606 C229.776,416.675 230.752,420.357 233.379,422.393 C235.739,424.222 239.035,424.472 241.646,423.02 C244.908,421.208 246.368,417.05 244.909,413.606 Z" id="Path"></path>
                    <path d="M266.799,428.646 C271.647,423.833 267.668,415.298 260.876,415.872 C257.715,416.139 255.014,418.434 254.232,421.505 C253.464,424.517 254.702,427.785 257.268,429.536 C260.21,431.543 264.279,431.167 266.799,428.646 Z" id="Path"></path>
                    <path d="M31.82,339.286 C30.047,341.915 30.186,345.451 32.075,347.976 C33.968,350.508 37.412,351.565 40.405,350.567 C43.44,349.555 45.55,346.653 45.55,343.446 C45.55,340.372 43.608,337.561 40.749,336.459 C37.526,335.217 33.728,336.39 31.82,339.286 Z" id="Path"></path>
                    <path d="M34.439,320.696 C38.152,326.336 47.086,324.226 48.095,317.638 C49.124,310.922 40.948,306.431 35.804,310.834 C32.969,313.26 32.343,317.591 34.439,320.696 Z" id="Path"></path>
                    <path d="M54.82,334.296 C56.503,336.852 59.723,338.113 62.699,337.445 C65.887,336.729 68.291,333.938 68.527,330.68 C69.013,323.982 60.708,320.045 55.854,324.724 C53.26,327.224 52.845,331.296 54.82,334.296 Z" id="Path"></path>
                    <path d="M420.505,148.065 C418.817,144.282 414.381,142.585 410.6,144.272 C406.818,145.96 405.12,150.395 406.808,154.177 C417.775,178.753 422.247,205.74 419.82,232.47 C368.882,258.242 308.398,254.459 261.041,222.287 C215.421,191.296 189.816,139.277 192.634,84.686 C201.406,88.632 215.706,95.391 232.919,104.722 L253.711,158.985 C254.856,161.97 257.699,163.803 260.717,163.803 C261.609,163.803 262.516,163.643 263.399,163.304 C267.267,161.822 269.201,157.485 267.719,153.617 L253.429,116.324 C267.013,124.34 281.582,133.626 296.199,144.097 L302.439,176.775 C303.126,180.369 306.269,182.87 309.797,182.87 C310.264,182.87 310.737,182.826 311.212,182.735 C315.281,181.958 317.949,178.03 317.173,173.962 L314.026,157.483 C330.828,170.722 347.176,185.503 361.597,201.709 C363.078,203.374 365.136,204.223 367.202,204.223 C368.975,204.223 370.756,203.598 372.185,202.326 C375.279,199.573 375.555,194.832 372.801,191.738 C357.57,174.623 340.453,159.115 322.95,145.307 L341.653,143.502 C345.776,143.104 348.796,139.439 348.397,135.316 C348,131.193 344.336,128.173 340.211,128.571 L305.2,131.95 C291.17,121.861 277.218,112.872 264.098,105.033 L296.58,102.627 C300.711,102.321 303.811,98.724 303.506,94.594 C303.201,90.464 299.593,87.364 295.473,87.668 L240.718,91.724 C225.974,83.732 213.284,77.587 204.124,73.378 C252.582,53.362 307.87,58.74 351.845,88.614 C367.893,99.516 381.584,113.052 392.537,128.844 C394.899,132.248 399.571,133.093 402.975,130.732 C406.378,128.371 407.224,123.698 404.864,120.295 C392.855,102.982 377.853,88.148 360.275,76.206 C310.901,42.665 248.52,37.3 194.511,61.175 C192.895,42.039 187.907,23.309 179.605,5.353 C177.924,1.719 173.687,0.045 169.978,1.551 L133.528,16.341 C131.538,17.148 129.99,18.769 129.276,20.794 C128.561,22.818 128.749,25.052 129.79,26.929 C145.687,55.582 153.959,82.669 153.919,105.723 C138.887,108.188 124.634,113.845 112.013,122.47 C94.966,134.131 82.131,150.26 74.895,169.114 C64.566,196.039 51.132,223.317 33.828,252.502 C23.627,269.69 15.65,285.65 10.119,299.94 C8.623,303.803 10.543,308.146 14.406,309.641 C15.296,309.986 16.211,310.149 17.111,310.149 C20.118,310.149 22.957,308.327 24.107,305.354 C29.338,291.839 36.949,276.633 46.729,260.155 C64.471,230.232 78.266,202.209 88.9,174.487 C95.04,158.49 105.961,144.783 120.48,134.852 C135.368,124.678 152.931,119.3 171.269,119.3 C174.026,119.3 176.781,119.438 179.512,119.683 C186.797,165.839 212.725,207.6 252.61,234.695 C265.252,243.283 278.747,250.022 292.735,254.9 C293.77,256.682 294.803,258.449 295.819,260.157 C316.132,294.404 326.869,322.826 326.869,342.351 C326.869,424.94 257.067,492.131 171.269,492.131 C85.471,492.131 15.669,424.94 15.669,342.351 C15.669,339.646 15.877,336.731 16.287,333.685 C16.84,329.58 13.961,325.804 9.856,325.251 C5.752,324.696 1.975,327.577 1.422,331.682 C0.922,335.389 0.669,338.978 0.669,342.35 C0.669,433.21 77.2,507.13 171.269,507.13 C265.338,507.13 341.869,433.21 341.869,342.35 C341.869,321.499 332.312,294.056 313.456,260.687 C325.155,263.175 337.065,264.431 348.994,264.43 C376.853,264.429 404.817,257.615 430.414,243.859 C432.573,242.698 434.03,240.555 434.313,238.119 C437.88,207.442 433.106,176.301 420.505,148.065 Z M171.269,104.302 C170.48,104.302 169.695,104.328 168.909,104.345 C168.708,80.932 161.341,55.024 146.902,27.104 L168.844,18.2 C175.584,34.676 179.323,51.789 179.991,69.211 C179.23,70.246 178.727,71.468 178.574,72.782 C177.334,83.449 177.116,94.064 177.824,104.52 C175.644,104.386 173.457,104.302 171.269,104.302 Z" id="Shape"></path>
                </g>
            </g>
            <path d="M133,388.5 L133,402.453125 C133,406.59375 136.359375,409.953125 140.503906,409.953125 C144.644532,409.953125 148.003906,406.59375 148.003906,402.453125 L148.003906,388.5 C148.003906,384.359375 144.644532,381 140.503906,381 C136.359375,381 133,384.359375 133,388.5 Z" id="Path" fill="#000000"></path>
            <path d="M287.171875,388.5 L287.171875,402.453125 C287.171875,406.59375 290.53125,409.953125 294.671875,409.953125 C298.816406,409.953125 302.175782,406.59375 302.175782,402.453125 L302.175782,388.5 C302.175782,384.359375 298.816406,381 294.671875,381 C290.53125,381 287.171875,384.359375 287.171875,388.5 Z" id="Path" fill="#000000"></path>
            <path d="M230.964844,396.542968 C227.714844,400.265625 222.839844,402.398437 217.589844,402.398437 C212.335938,402.398437 207.460938,400.265625 204.210938,396.542968 C201.484375,393.425781 196.746094,393.105468 193.625,395.832031 C190.507813,398.5625 190.1875,403.296875 192.914063,406.417968 C199.015625,413.398437 208.007813,417.398437 217.589844,417.398437 C227.167969,417.398437 236.160156,413.398437 242.261719,406.417968 C244.988282,403.300781 244.667969,398.5625 241.550782,395.835937 C238.433594,393.109375 233.691406,393.425781 230.964844,396.542968 Z" id="Path" fill="#000000"></path>
        </g>
    </g>
</svg>