<?xml version="1.0" encoding="UTF-8"?>
<svg width="1083px" height="727px" viewBox="0 0 1083 727" version="1.1" xmlns="http://www.w3.org/2000/svg" xmlns:xlink="http://www.w3.org/1999/xlink">
    <!-- Generator: Sketch 55.2 (78181) - https://sketchapp.com -->
    <title>Group 7</title>
    <desc>Created with Sketch.</desc>
    <g id="Page-1" stroke="none" stroke-width="1" fill="none" fill-rule="evenodd">
        <g id="8660" transform="translate(-2223.000000, -1077.000000)">
            <g id="Group-7" transform="translate(2223.590251, 1077.429190)">
                <path d="M348.879749,553.91081 C339.969749,517.63081 339.729749,479.24081 348.189749,442.86081 C349.739749,436.19081 351.869749,429.13081 357.229749,424.87081 C366.159749,417.77081 379.989749,422.00081 388.019749,430.11081 C396.049749,438.21081 400.329749,449.21081 406.589749,458.74081 C422.449749,482.88081 450.039749,496.49081 477.289749,506.08081 C504.529749,515.66081 533.189749,522.58081 557.509749,538.16081 C568.069749,544.92081 578.349749,554.57081 579.409749,567.06081 C580.539749,580.29081 570.969749,591.96081 560.809749,600.50081 C526.049749,629.73081 477.639749,639.20081 433.889749,628.69081 C388.069749,617.69081 361.199749,604.09081 348.879749,553.91081" id="Fill-254" fill="#E8B134"></path>
                <path d="M718.419749,479.10081 C711.799749,498.11081 704.839749,515.47081 698.759749,538.36081 C692.779749,560.90081 679.549749,591.27081 699.329749,603.62081 C785.809749,657.63081 893.679749,642.45081 950.229749,634.99081 C983.889749,630.54081 1021.18975,616.54081 1054.89975,620.64081 C1064.69975,621.83081 1075.73975,624.89081 1079.95975,633.80081 C1085.87975,646.29081 1074.35975,659.92081 1062.97975,667.76081 C1021.79975,696.11081 970.399749,704.77081 920.599749,709.14081 C857.429749,714.69081 793.839749,714.51081 730.559749,710.39081 C708.639749,708.97081 686.419749,707.00081 665.859749,699.26081 C645.299749,691.52081 626.299749,677.23081 617.509749,657.10081 C606.029749,630.82081 613.899749,599.75081 628.229749,574.91081 C635.309749,562.64081 643.899749,551.24081 653.759749,541.06081 L718.419749,479.10081" id="Fill-255" fill="#E8B134"></path>
                <path d="M686.919749,557.66081 C727.239749,474.13081 742.819749,393.49081 740.489749,352.09081 C734.819749,251.57081 681.409749,192.13081 640.389749,173.81081 C612.389749,161.30081 564.429749,186.69081 539.949749,245.31081 C516.369749,301.76081 545.599749,356.33081 479.159749,487.12081 C466.249749,512.54081 452.169749,536.06081 437.589749,557.66081 L686.919749,557.66081" id="Fill-256" fill="#FFC938"></path>
                <path d="M565.239749,4.60081028 C558.469749,1.82081028 550.509749,3.73081028 544.379749,7.73081028 C538.249749,11.7308103 533.599749,17.5708103 529.049749,23.3008103 C524.019749,29.6508103 518.949749,36.0608103 515.379749,43.3308103 C511.809749,50.6008103 509.819749,58.9008103 511.319749,66.8608103 C512.489749,73.0608103 515.679749,78.6808103 519.199749,83.9108103 C523.369749,90.1208103 528.089749,95.9608103 533.269749,101.35081 C534.749749,102.90081 536.229749,104.10081 537.749749,105.14081 C543.889749,114.11081 551.479749,126.36081 559.569749,142.16081 C582.209749,186.39081 575.759749,232.19081 575.759749,232.19081 L645.199749,186.67081 C645.199749,186.67081 630.989749,143.93081 600.589749,104.52081 C599.299749,102.86081 598.029749,101.24081 596.779749,99.6508103 C594.429749,85.5308103 592.069749,71.2408103 596.139749,57.7008103 C597.059749,54.6208103 598.329749,51.5108103 598.029749,48.3008103 C597.759749,45.4008103 596.229749,42.7908103 594.709749,40.3208103 C589.459749,31.7708103 583.739749,23.5108103 577.599749,15.5908103 C574.179749,11.1808103 570.399749,6.71081028 565.239749,4.60081028" id="Fill-257" fill="#FFC938"></path>
                <path d="M596.139749,57.7008103 C597.059749,54.6208103 598.329749,51.5108103 598.029749,48.3008103 C597.759749,45.4008103 596.229749,42.7908103 594.709749,40.3208103 C589.459749,31.7708103 583.739749,23.5108103 577.599749,15.5908103 C574.179749,11.1808103 570.409749,6.71081028 565.239749,4.60081028 C558.469749,1.82081028 550.509749,3.73081028 544.379749,7.73081028 C540.059749,10.5508103 536.469749,14.2908103 533.139749,18.2608103 C544.359749,17.5508103 552.649749,28.3908103 559.619749,37.7108103 C560.999749,39.5408103 563.539749,41.0008103 563.739749,43.2908103 C563.899749,45.2708103 562.769749,47.0708103 562.319749,49.0008103 C559.429749,61.3908103 559.869749,64.6908103 558.659749,77.0908103 C566.009749,94.1808103 573.239749,105.19081 581.979749,122.64081 C589.789749,138.27081 595.349749,155.92081 606.899749,169.36081 C615.049749,178.85081 629.889749,183.18081 641.199749,189.30081 L645.199749,186.67081 C645.199749,186.67081 630.989749,143.93081 600.579749,104.52081 C599.299749,102.86081 598.029749,101.24081 596.779749,99.6508103 C594.429749,85.5308103 592.069749,71.2408103 596.139749,57.7008103" id="Fill-258" fill="#E8B134"></path>
                <path d="M560.849749,375.88081 C559.359749,375.88081 557.899749,375.57081 556.569749,374.86081 C551.769749,372.28081 550.829749,365.92081 550.499749,360.48081 C549.289749,340.57081 548.659749,320.62081 548.619749,300.68081 C548.579749,282.56081 549.129749,263.92081 556.229749,247.25081 C559.729749,239.04081 568.469749,231.51081 576.079749,229.16081 C575.909749,231.12081 575.759749,232.19081 575.759749,232.19081 L581.469749,228.44081 C587.089749,228.89081 590.779749,233.82081 588.719749,245.97081 C587.739749,251.73081 585.199749,257.09081 583.349749,262.64081 C574.459749,289.30081 581.909749,318.40081 580.219749,346.45081 C579.569749,357.20081 576.529749,369.35081 566.959749,374.30081 C565.089749,375.27081 562.939749,375.88081 560.849749,375.88081" id="Fill-259" fill="#FFE932"></path>
                <path d="M575.759749,232.19081 C575.759749,232.19081 575.909749,231.12081 576.079749,229.16081 C577.659749,228.67081 579.189749,228.41081 580.619749,228.41081 C580.909749,228.41081 581.189749,228.42081 581.469749,228.44081 L575.759749,232.19081" id="Fill-260" fill="#FFE932"></path>
                <path d="M542.189749,464.81081 C537.819749,464.81081 533.389749,462.46081 532.149749,458.32081 C531.149749,454.98081 532.319749,451.42081 533.479749,448.13081 C537.409749,436.96081 541.339749,425.79081 545.269749,414.63081 C547.749749,407.61081 554.209749,397.72081 561.709749,397.72081 C564.589749,397.72081 567.629749,399.18081 570.659749,402.83081 C574.649749,407.64081 574.259749,414.82081 571.979749,420.64081 C569.689749,426.45081 565.829749,431.51081 563.199749,437.18081 C560.869749,442.21081 559.539749,447.66081 557.169749,452.68081 C554.799749,457.70081 551.089749,462.46081 545.829749,464.23081 C544.669749,464.62081 543.439749,464.81081 542.189749,464.81081" id="Fill-261" fill="#FFE932"></path>
                <path d="M551.179749,111.77081 C550.969749,114.67081 552.869749,117.25081 554.609749,119.58081 C565.419749,134.07081 573.489749,150.58081 578.279749,168.01081 C579.019749,170.69081 579.709749,173.46081 581.359749,175.70081 C583.009749,177.93081 585.899749,179.51081 588.559749,178.75081 C591.279749,177.97081 592.889749,175.00081 592.989749,172.19081 C593.099749,169.36081 592.029749,166.65081 590.939749,164.04081 C583.879749,147.02081 575.759749,130.43081 566.649749,114.41081 C564.499749,110.63081 551.869749,102.62081 551.179749,111.77081" id="Fill-262" fill="#FFD93B"></path>
                <path d="M533.159749,14.0308103 C529.189749,18.6408103 525.889749,23.7808103 522.169749,28.5908103 C517.489749,34.6208103 512.119749,40.1508103 507.999749,46.5808103 C506.199749,49.3908103 504.629749,52.4008103 503.889749,55.6608103 C502.819749,60.3508103 503.529749,65.3108103 505.119749,69.8608103 C506.719749,74.4008103 509.149749,78.5908103 511.599749,82.7308103 C513.759749,86.3808103 515.989749,90.0808103 519.209749,92.8308103 C523.599749,96.5708103 529.449749,98.2408103 533.889749,101.92081 C532.469749,97.2308103 529.289749,91.2108103 530.959749,86.6108103 C535.709749,73.5308103 538.039749,69.3108103 550.429749,51.6708103 C552.959749,48.0708103 557.219749,42.1508103 559.779749,38.5708103 C561.619749,36.0008103 564.169749,33.8608103 565.249749,30.8908103 C566.319749,27.9408103 565.719749,24.6008103 564.449749,21.7208103 C563.169749,18.8508103 561.259749,16.3208103 559.559749,13.6608103 C557.949749,11.1208103 556.489749,8.43081028 554.359749,6.31081028 C551.459749,3.43081028 548.329749,2.39081028 544.819749,4.38081028 C540.339749,6.92081028 536.529749,10.1208103 533.159749,14.0308103" id="Fill-263" fill="#937C69"></path>
                <path d="M540.189749,13.9408103 C541.679749,16.4108103 543.949749,18.3108103 546.019749,20.2908103 C549.819749,23.9608103 553.209749,28.3408103 555.799749,32.9408103 C556.819749,34.7508103 557.999749,36.8908103 559.619749,37.7108103 C560.789749,38.2908103 561.739749,37.9408103 562.609749,37.6508103 C571.399749,34.6408103 584.259749,38.6408103 595.609749,47.9208103 C596.269749,48.4608103 597.059749,49.0508103 597.549749,48.8608103 C598.049749,48.6708103 597.929749,47.8008103 597.729749,47.0508103 C596.619749,42.8108103 594.349749,38.4008103 591.829749,34.1808103 C586.169749,24.7008103 579.079749,15.6908103 571.219749,8.00081028 C567.499749,4.36081028 563.229749,0.810810276 559.409749,0.120810276 C557.419749,-0.229189724 555.749749,0.240810276 554.169749,0.770810276 C550.529749,2.01081028 535.209749,5.68081028 540.189749,13.9408103" id="Fill-264" fill="#776057"></path>
                <path d="M374.099749,591.01081 C257.529749,629.19081 133.649749,643.41081 11.1197494,637.69081 C2.79974943,637.31081 -2.17025057,648.34081 0.929749433,656.08081 C4.01974943,663.81081 11.8797494,668.43081 19.4197494,671.98081 C65.5297494,693.71081 118.029749,697.01081 168.989749,696.61081 C207.969749,696.30081 246.929749,694.03081 285.679749,689.81081 C314.719749,686.65081 343.709749,682.38081 371.939749,674.88081 C402.709749,666.70081 432.339749,654.75081 461.379749,641.70081 C485.569749,630.84081 509.599749,619.09081 530.609749,602.93081 C551.629749,586.76081 569.649749,565.80081 578.569749,540.83081 C581.339749,533.08081 583.139749,524.20081 579.469749,516.83081 C575.309749,508.49081 565.459749,504.72081 556.259749,503.23081 C518.419749,497.13081 465.269749,533.20081 438.269749,557.66081 C413.179749,580.40081 406.619749,580.36081 374.099749,591.01081" id="Fill-265" fill="#FFC938"></path>
                <path d="M742.749749,349.83081 C737.079749,249.31081 683.679749,189.86081 642.659749,171.54081 C639.939749,170.33081 637.039749,169.49081 633.989749,168.98081 C629.369749,170.63081 624.049749,172.27081 624.049749,172.27081 L592.829749,187.23081 C592.829749,187.23081 605.979749,191.50081 619.999749,248.44081 C631.519749,295.17081 639.179749,404.85081 584.449749,514.11081 C566.139749,543.13081 509.339749,636.38081 458.039749,644.05081 C439.629749,646.80081 432.679749,671.87081 425.259749,688.94081 C422.289749,695.78081 420.479749,704.26081 424.879749,710.28081 C426.749749,712.86081 429.539749,714.62081 432.359749,716.11081 C452.589749,726.82081 477.019749,723.00081 499.849749,721.31081 C528.929749,719.15081 559.959749,720.71081 569.189749,715.63081 C594.589749,701.67081 636.859749,594.10081 644.169749,560.99081 L689.189749,555.40081 C729.509749,471.87081 745.089749,391.22081 742.749749,349.83081" id="Fill-266" fill="#F2BB40"></path>
                <path d="M688.439749,271.46081 C710.399749,325.06081 701.829749,425.98081 658.149749,533.00081 C655.149749,540.35081 647.019749,558.33081 643.039749,565.92081 L686.339749,565.92081 C726.669749,482.40081 745.089749,391.22081 742.749749,349.82081 C737.079749,249.31081 683.679749,189.86081 642.659749,171.54081 C639.769749,170.25081 636.649749,169.39081 633.379749,168.90081 L615.349749,176.44081 C615.349749,176.44081 652.919749,184.78081 688.439749,271.46081" id="Fill-267" fill="#E8B134"></path>
                <path d="M502.539749,479.31081 C536.049749,394.56081 530.749749,334.26081 537.089749,257.79081 C522.879749,309.59081 542.019749,365.47081 481.329749,484.94081 C467.979749,511.21081 453.369749,535.46081 438.269749,557.66081 C438.269749,557.66081 492.229749,505.38081 502.539749,479.31081" id="Fill-268" fill="#FFD93B"></path>
                <path d="M15.2097494,656.72081 C17.6397494,658.39081 20.6597494,658.91081 23.5697494,659.39081 C77.0997494,668.24081 132.739749,676.99081 184.919749,662.11081 C189.949749,660.68081 195.989749,657.50081 195.419749,652.30081 C194.769749,646.26081 186.439749,645.28081 180.389749,645.93081 C147.349749,649.48081 114.109749,651.14081 80.8697494,650.91081 C64.4497494,650.80081 46.9097494,651.54081 30.6297494,649.12081 C27.1697494,648.60081 19.8697494,644.43081 16.5997494,645.22081 C10.8697494,646.59081 10.5397494,653.51081 15.2097494,656.72081" id="Fill-269" fill="#FFD93B"></path>
                <path d="M555.579749,636.62081 C569.239749,638.43081 596.589749,641.11081 619.089749,632.52081 C611.369749,659.23081 608.269749,663.59081 594.599749,687.79081 C587.439749,700.47081 578.529749,713.52081 564.809749,718.41081 C555.879749,721.60081 545.819749,720.81081 536.959749,717.42081 C528.099749,714.03081 520.339749,708.20081 513.629749,701.49081 C499.519749,687.41081 489.799749,669.10081 485.639749,649.63081 C484.329749,643.52081 479.689749,628.37081 487.369749,625.27081 C491.439749,623.62081 505.299749,610.16081 509.239749,611.07081 C514.659749,612.34081 530.529749,633.30081 555.579749,636.62081" id="Fill-270" fill="#FFC938"></path>
                <path d="M413.739749,690.01081 C409.609749,662.17081 411.849749,632.02081 427.619749,608.72081 C435.149749,597.60081 447.279749,587.85081 460.639749,589.24081 C472.589749,590.48081 481.839749,600.15081 488.679749,610.03081 C504.739749,633.25081 517.649749,658.28081 534.619749,680.85081 C552.239749,704.30081 570.469749,714.51081 569.189749,715.63081 C560.659749,723.08081 536.889749,722.80081 525.649749,724.19081 C501.209749,727.23081 476.319749,726.72081 452.009749,722.70081 C429.889749,719.05081 417.309749,714.14081 413.739749,690.01081" id="Fill-271" fill="#FCE18A"></path>
                <path d="M446.209749,712.37081 C440.769749,712.37081 435.659749,708.93081 432.499749,704.45081 C429.159749,699.73081 427.619749,694.00081 426.399749,688.35081 C421.729749,666.70081 420.889749,641.51081 432.649749,621.82081 C436.889749,614.71081 443.579749,608.02081 451.659749,608.02081 C453.609749,608.02081 455.639749,608.41081 457.739749,609.27081 C469.069749,613.96081 472.959749,624.43081 467.199749,634.71081 C462.649749,642.83081 459.039749,651.76081 458.889749,661.07081 C458.729749,670.94081 462.469749,680.54081 462.549749,690.41081 C462.629749,700.28081 456.929749,711.67081 447.079749,712.34081 C446.789749,712.36081 446.499749,712.37081 446.209749,712.37081" id="Fill-272" fill="#FDEBB2"></path>
            </g>
        </g>
    </g>
</svg>