<svg width="450px" height="450px" viewBox="0 0 450 450" version="1.1" xmlns="http://www.w3.org/2000/svg" xmlns:xlink="http://www.w3.org/1999/xlink"><title>Group</title><desc>Created with Sketch.</desc><defs><path d="M449.11,224.926 C449.11,348.719 348.76,449.07 224.97,449.07 C101.18,449.07 0.82,348.719 0.82,224.926 C0.82,101.137 101.18,0.785 224.97,0.785 C348.76,0.785 449.11,101.137 449.11,224.926" id="path-1"></path><radialGradient cx="50.0011153%" cy="50.0001115%" fx="50.0011153%" fy="50.0001115%" r="50.0001115%" gradientTransform="translate(0.500011,0.500001),scale(0.999989,1.000000),translate(-0.500011,-0.500001)" id="radialGradient-3"><stop stop-color="#FF9300" offset="0%"></stop><stop stop-color="#FF4900" offset="100%"></stop></radialGradient><path d="M437,218.926 C437,339.342 339.38,436.957 218.97,436.957 C98.55,436.957 0.94,339.342 0.94,218.926 C0.94,98.514 98.55,0.898 218.97,0.898 C339.38,0.898 437,98.514 437,218.926" id="path-4"></path><radialGradient cx="50%" cy="50.0001147%" fx="50%" fy="50.0001147%" r="50.0001147%" id="radialGradient-6"><stop stop-color="#FFD08F" offset="0%"></stop><stop stop-color="#FDF86D" offset="100%"></stop></radialGradient><path d="M169.45,108.088 L62.66,2.014 C59.97,-0.664 55.6,-0.615 52.96,2.123 C24.7,31.48 5.71,69.83 0.73,112.461 C0.26,116.506 3.44,120.063 7.51,120.053021 L164.67,119.703 C170.73,119.691 173.75,112.355 169.45,108.088" id="path-7"></path><radialGradient cx="50.0018302%" cy="49.9998796%" fx="50.0018302%" fy="49.9998796%" r="61.490242%" gradientTransform="translate(0.500018,0.499999),scale(0.702727,1.000000),translate(-0.500018,-0.499999)" id="radialGradient-9"><stop stop-color="#FFB700" offset="0%"></stop><stop stop-color="#FF7A00" offset="100%"></stop></radialGradient><path d="M7.14,1.205 C3.46,1.213 0.43,4.178 0.43,7.859 L0.43,7.926 C0.43,53.885 16.63,96.055 43.61,129.061 C46.15,132.174 50.84,132.391 53.68,129.543 L170.52,12.447 C174.8,8.162 171.75,0.842 165.69,0.854982708 L7.14,1.205" id="path-10"></path><radialGradient cx="49.997471%" cy="49.9999855%" fx="49.997471%" fy="49.9999855%" r="58.4574625%" gradientTransform="translate(0.499975,0.500000),scale(0.759434,1.000000),translate(-0.499975,-0.500000)" id="radialGradient-12"><stop stop-color="#FFB700" offset="0%"></stop><stop stop-color="#FF7A00" offset="100%"></stop></radialGradient><path d="M112.69,0.723 C70.98,3.146 32.87,18.914 2.53,43.816 C-0.58,46.365 -0.78,51.057 2.07,53.891 L108.31,159.42 C112.59,163.68 119.89,160.643 119.89,154.6 L119.89,7.521 C119.89,3.609 116.59,0.496 112.69,0.723" id="path-13"></path><radialGradient cx="49.996599%" cy="50.0000605%" fx="49.996599%" fy="50.0000605%" r="59.1432917%" gradientTransform="translate(0.499966,0.500001),scale(1.000000,0.745699),translate(-0.499966,-0.500001)" id="radialGradient-15"><stop stop-color="#FFB700" offset="0%"></stop><stop stop-color="#FF7A00" offset="100%"></stop></radialGradient><path d="M119.82,128.904 C122.67,131.738 127.36,131.502 129.89,128.377 C156.54,95.473 172.51,53.568 172.51,7.926 C172.51,7.652 172.5,7.377 172.5,7.1 C172.49,3.373 169.42,0.379 165.69,0.386984005 L7.26,0.738 C1.2,0.75 -1.81,8.084 2.49,12.354 L119.82,128.904" id="path-16"></path><radialGradient cx="50.0006922%" cy="50.0002827%" fx="50.0006922%" fy="50.0002827%" r="58.5025924%" gradientTransform="translate(0.500007,0.500003),scale(0.758518,1.000000),translate(-0.500007,-0.500003)" id="radialGradient-18"><stop stop-color="#FFB700" offset="0%"></stop><stop stop-color="#FF7A00" offset="100%"></stop></radialGradient><path d="M0.04,7.521 L0.04,154.436 C0.04,160.492 7.37,163.521 11.65,159.234 L117.28,53.369 C120.12,50.525 119.89,45.836 116.78,43.301 C86.54,18.695 48.66,3.129 7.25,0.723 C3.34,0.496 0.04,3.609 0.04,7.521" id="path-19"></path><radialGradient cx="50.0042602%" cy="50.000013%" fx="50.0042602%" fy="50.000013%" r="59.295574%" gradientTransform="translate(0.500043,0.500000),scale(1.000000,0.742718),translate(-0.500043,-0.500000)" id="radialGradient-21"><stop stop-color="#FFB700" offset="0%"></stop><stop stop-color="#FF7A00" offset="100%"></stop></radialGradient><path d="M0.04,6.84 L0.04,176.334 C0.04,180.246 3.34,183.359 7.24,183.133 C54.79,180.373 97.68,160.279 129.68,129.07 C132.41,126.41 132.44,122.033 129.74,119.35 L11.63,2.02 C7.34,-2.238 0.04,0.797 0.04,6.84" id="path-22"></path><radialGradient cx="50.0050909%" cy="49.9997861%" fx="50.0050909%" fy="49.9997861%" r="60.5490744%" gradientTransform="translate(0.500051,0.499998),scale(1.000000,0.719265),translate(-0.500051,-0.499998)" id="radialGradient-24"><stop stop-color="#FFB700" offset="0%"></stop><stop stop-color="#FF7A00" offset="100%"></stop></radialGradient><path d="M120.29,2.207 L2.8,119.961 C0.11,122.656 0.16,127.035 2.89,129.682 C34.83,160.539 77.46,180.391 124.7,183.133 C128.6,183.359 131.89,180.244 131.89,176.334 L131.89,7.006 C131.89,0.949 124.56,-2.082 120.29,2.207" id="path-25"></path><radialGradient cx="49.9991757%" cy="50.0000325%" fx="49.9991757%" fy="50.0000325%" r="60.7050746%" gradientTransform="translate(0.499992,0.500000),scale(1.000000,0.716479),translate(-0.499992,-0.500000)" id="radialGradient-27"><stop stop-color="#FFB700" offset="0%"></stop><stop stop-color="#FF7A00" offset="100%"></stop></radialGradient><path d="M108.71,2.467 L2.42,108.992 C-1.86,113.279 1.19,120.6 7.24,120.58602 L164.35,120.24 C168.42,120.229 171.59,116.66 171.09,112.617 C165.93,70.041 146.8,31.773 118.41,2.533 C115.77,-0.193 111.39,-0.223 108.71,2.467" id="path-28"></path><radialGradient cx="49.9991328%" cy="49.999725%" fx="49.9991328%" fy="49.999725%" r="61.4425016%" gradientTransform="translate(0.499991,0.499997),scale(0.703587,1.000000),translate(-0.499991,-0.499997)" id="radialGradient-30"><stop stop-color="#FFB700" offset="0%"></stop><stop stop-color="#FF7A00" offset="100%"></stop></radialGradient></defs><g id="Page-1" stroke="none" stroke-width="1" fill="none" fill-rule="evenodd"><g id="444" transform="translate(-1759.000000, -328.000000)"><g id="Group" transform="translate(1759.000000, 328.000000)"><g id="Group-294"><mask id="mask-2" fill="white"><use xlink:href="#path-1"></use></mask><g id="Clip-293"></g><path d="M449.11,224.926 C449.11,348.719 348.76,449.07 224.97,449.07 C101.18,449.07 0.82,348.719 0.82,224.926 C0.82,101.137 101.18,0.785 224.97,0.785 C348.76,0.785 449.11,101.137 449.11,224.926" id="Fill-292" fill="url(#radialGradient-3)" mask="url(#mask-2)"></path></g><g id="Group-297" transform="translate(6.000000, 6.000000)"><mask id="mask-5" fill="white"><use xlink:href="#path-4"></use></mask><g id="Clip-296"></g><path d="M437,218.926 C437,339.342 339.38,436.957 218.97,436.957 C98.55,436.957 0.94,339.342 0.94,218.926 C0.94,98.514 98.55,0.898 218.97,0.898 C339.38,0.898 437,98.514 437,218.926" id="Fill-295" fill="url(#radialGradient-6)" mask="url(#mask-5)"></path></g><g id="Group-300" transform="translate(34.000000, 90.000000)"><mask id="mask-8" fill="white"><use xlink:href="#path-7"></use></mask><g id="Clip-299"></g><path d="M169.45,108.088 L62.66,2.014 C59.97,-0.664 55.6,-0.615 52.96,2.123 C24.7,31.48 5.71,69.83 0.73,112.461 C0.26,116.506 3.44,120.063 7.51,120.053021 L164.67,119.703 C170.73,119.691 173.75,112.355 169.45,108.088" id="Fill-298" fill="url(#radialGradient-9)" mask="url(#mask-8)"></path></g><g id="Group-303" transform="translate(33.000000, 217.000000)"><mask id="mask-11" fill="white"><use xlink:href="#path-10"></use></mask><g id="Clip-302"></g><path d="M7.14,1.205 C3.46,1.213 0.43,4.178 0.43,7.859 L0.43,7.926 C0.43,53.885 16.63,96.055 43.61,129.061 C46.15,132.174 50.84,132.391 53.68,129.543 L170.52,12.447 C174.8,8.162 171.75,0.842 165.69,0.854982708 L7.14,1.205" id="Fill-301" fill="url(#radialGradient-12)" mask="url(#mask-11)"></path></g><g id="Group-306" transform="translate(101.000000, 33.000000)"><mask id="mask-14" fill="white"><use xlink:href="#path-13"></use></mask><g id="Clip-305"></g><path d="M112.69,0.723 C70.98,3.146 32.87,18.914 2.53,43.816 C-0.58,46.365 -0.78,51.057 2.07,53.891 L108.31,159.42 C112.59,163.68 119.89,160.643 119.89,154.6 L119.89,7.521 C119.89,3.609 116.59,0.496 112.69,0.723" id="Fill-304" fill="url(#radialGradient-15)" mask="url(#mask-14)"></path></g><g id="Group-309" transform="translate(244.000000, 217.000000)"><mask id="mask-17" fill="white"><use xlink:href="#path-16"></use></mask><g id="Clip-308"></g><path d="M119.82,128.904 C122.67,131.738 127.36,131.502 129.89,128.377 C156.54,95.473 172.51,53.568 172.51,7.926 C172.51,7.652 172.5,7.377 172.5,7.1 C172.49,3.373 169.42,0.379 165.69,0.386984005 L7.26,0.738 C1.2,0.75 -1.81,8.084 2.49,12.354 L119.82,128.904" id="Fill-307" fill="url(#radialGradient-18)" mask="url(#mask-17)"></path></g><g id="Group-312" transform="translate(229.000000, 33.000000)"><mask id="mask-20" fill="white"><use xlink:href="#path-19"></use></mask><g id="Clip-311"></g><path d="M0.04,7.521 L0.04,154.436 C0.04,160.492 7.37,163.521 11.65,159.234 L117.28,53.369 C120.12,50.525 119.89,45.836 116.78,43.301 C86.54,18.695 48.66,3.129 7.25,0.723 C3.34,0.496 0.04,3.609 0.04,7.521" id="Fill-310" fill="url(#radialGradient-21)" mask="url(#mask-20)"></path></g><g id="Group-315" transform="translate(229.000000, 233.000000)"><mask id="mask-23" fill="white"><use xlink:href="#path-22"></use></mask><g id="Clip-314"></g><path d="M0.04,6.84 L0.04,176.334 C0.04,180.246 3.34,183.359 7.24,183.133 C54.79,180.373 97.68,160.279 129.68,129.07 C132.41,126.41 132.44,122.033 129.74,119.35 L11.63,2.02 C7.34,-2.238 0.04,0.797 0.04,6.84" id="Fill-313" fill="url(#radialGradient-24)" mask="url(#mask-23)"></path></g><g id="Group-318" transform="translate(89.000000, 233.000000)"><mask id="mask-26" fill="white"><use xlink:href="#path-25"></use></mask><g id="Clip-317"></g><path d="M120.29,2.207 L2.8,119.961 C0.11,122.656 0.16,127.035 2.89,129.682 C34.83,160.539 77.46,180.391 124.7,183.133 C128.6,183.359 131.89,180.244 131.89,176.334 L131.89,7.006 C131.89,0.949 124.56,-2.082 120.29,2.207" id="Fill-316" fill="url(#radialGradient-27)" mask="url(#mask-26)"></path></g><g id="Group-321" transform="translate(244.000000, 89.000000)"><mask id="mask-29" fill="white"><use xlink:href="#path-28"></use></mask><g id="Clip-320"></g><path d="M108.71,2.467 L2.42,108.992 C-1.86,113.279 1.19,120.6 7.24,120.58602 L164.35,120.24 C168.42,120.229 171.59,116.66 171.09,112.617 C165.93,70.041 146.8,31.773 118.41,2.533 C115.77,-0.193 111.39,-0.223 108.71,2.467" id="Fill-319" fill="url(#radialGradient-30)" mask="url(#mask-29)"></path></g></g></g></g></svg>