<?xml version="1.0" encoding="iso-8859-1"?>
<!-- Generator: Adobe Illustrator 19.0.0, SVG Export Plug-In . SVG Version: 6.00 Build 0)  -->
<svg xmlns="http://www.w3.org/2000/svg" xmlns:xlink="http://www.w3.org/1999/xlink" version="1.1" id="Layer_1" x="0px" y="0px" viewBox="0 0 511.887 511.887" style="enable-background:new 0 0 511.887 511.887;" xml:space="preserve" width="512" height="512">
<g>
	<g>
		<path style="fill:#FADC60;" d="M501.875,282.853L501.875,282.853c15.419-66.567-41.325-86.44-96.66-87.062    c-14.783-61.934-75.994-108.366-149.271-108.366s-134.488,46.432-149.271,108.366c-55.335,0.622-112.079,20.494-96.66,87.062    H501.875z"/>
		<path style="fill:#F2C42C;" d="M50.109,277.534c-10.428-45.02,10.96-69.451,43.016-81.187c-5.366,0.385-10.751,0.93-16.059,1.819    c-16.948,2.677-34.415,7.824-48.123,18.534c-3.378,2.639-6.492,5.618-9.22,8.926c-6.402,7.761-10.351,17.35-11.686,27.294    c-1.205,8.972-0.468,18.126,1.332,26.967c0.198,0.975,0.411,1.958,0.644,2.965h41.459    C50.972,281.051,50.512,279.274,50.109,277.534z"/>
		<path style="fill:#506366;" d="M501.875,282.853c-38.588-53.585-62.684-55.057-97.015-55.443l-24.673-0.277l-5.729-24    c-11.629-48.723-61.472-84.087-118.514-84.087s-106.885,35.364-118.514,84.087l-5.729,24l-24.673,0.277    c-34.331,0.386-58.427,1.857-97.015,55.443c7.227,31.2,30.304,72.656,76.815,127.199c10.889,12.77,28.495,17.662,44.363,12.2    c24.135-8.307,65.941-18.618,124.753-18.618s100.618,10.312,124.753,18.618c15.868,5.461,33.474,0.569,44.363-12.2    c46.371-54.38,69.449-95.751,76.749-126.918L501.875,282.853z"/>
		<path style="fill:#3A484A;" d="M131.19,422.253c3.09-1.063,6.474-2.16,10.141-3.263c-4.292-2.415-8.209-5.592-11.523-9.479    c-48.257-56.592-72.201-99.605-79.7-131.977c-3.202-13.822-3.393-25.695-1.209-35.864c-11.782,8.119-24.299,20.925-38.887,41.183    c1.355,5.85,3.267,12.061,5.787,18.65c8.347,21.831,20.709,42.067,34.058,61.163c10.189,14.575,22.435,30.342,36.97,47.386    C97.594,422.678,115.473,427.663,131.19,422.253z"/>
		<path style="fill:#D2D2D2;" d="M328.071,331.913l-126.89-126.89c5.854-5.918,5.837-15.459-0.056-21.353    c-5.913-5.913-15.501-5.913-21.415,0c-3.543,3.543-4.946,8.403-4.244,13.003c-4.6-0.702-9.46,0.701-13.003,4.244    c-5.913,5.914-5.913,15.501,0,21.415c5.894,5.894,15.434,5.91,21.353,0.056l126.89,126.89c-5.854,5.918-5.837,15.459,0.056,21.353    c5.913,5.913,15.501,5.913,21.415,0c3.543-3.543,4.946-8.403,4.244-13.003c4.6,0.702,9.46-0.701,13.003-4.244    c5.914-5.913,5.914-15.501,0-21.415C343.53,326.076,333.989,326.06,328.071,331.913z"/>
		<path style="fill:#D2D2D2;" d="M183.816,331.913l126.89-126.89c-5.854-5.918-5.837-15.459,0.056-21.353    c5.913-5.913,15.501-5.913,21.415,0c3.543,3.543,4.946,8.403,4.244,13.003c4.6-0.702,9.46,0.701,13.003,4.244    c5.914,5.914,5.914,15.501,0,21.415c-5.894,5.894-15.434,5.91-21.353,0.056l-126.89,126.89c5.854,5.918,5.837,15.459-0.056,21.353    c-5.913,5.913-15.501,5.913-21.415,0c-3.543-3.543-4.946-8.403-4.244-13.003c-4.6,0.702-9.46-0.701-13.003-4.244    c-5.913-5.913-5.913-15.501,0-21.415C168.357,326.076,177.898,326.06,183.816,331.913z"/>
		<path style="fill:#EFEDEE;" d="M325.272,281.526c0-38.289-31.039-69.329-69.329-69.329s-69.329,31.039-69.329,69.329    c0,21.723,9.997,32.667,25.634,38.077v11.579c0,6.033,4.891,10.924,10.924,10.924s10.924-4.891,10.924-10.924    c0,6.033,4.891,10.924,10.924,10.924c6.033,0,10.924-4.891,10.924-10.924c0,6.033,4.891,10.924,10.924,10.924    c6.033,0,10.924-4.891,10.924-10.924c0,6.033,4.891,10.924,10.924,10.924s10.924-4.891,10.924-10.924v-11.579    C315.275,314.193,325.272,303.248,325.272,281.526z"/>
	</g>
	<g>
		<path d="M219.303,283.606c-4.142,0-7.5,3.357-7.5,7.5v6.643c0,4.142,3.358,7.5,7.5,7.5s7.5-3.358,7.5-7.5v-6.643    C226.803,286.963,223.445,283.606,219.303,283.606z"/>
		<path d="M300.21,297.748v-6.643c0-4.143-3.358-7.5-7.5-7.5s-7.5,3.357-7.5,7.5v6.643c0,4.142,3.358,7.5,7.5,7.5    S300.21,301.891,300.21,297.748z"/>
		<path d="M338.785,234.246c6.045,0,11.729-2.354,16.005-6.63c4.277-4.276,6.632-9.962,6.632-16.011s-2.355-11.734-6.632-16.011    c-3.107-3.107-6.964-5.197-11.166-6.104c-0.918-4.174-3.003-8.064-6.081-11.142c-4.276-4.277-9.962-6.632-16.01-6.632    c-6.048,0-11.734,2.355-16.011,6.632c-6.931,6.931-8.414,17.319-4.433,25.729l-9.413,9.414    c-10.667-5.617-22.799-8.813-35.669-8.813s-25.001,3.197-35.669,8.813l-9.414-9.414c3.98-8.41,2.498-18.798-4.433-25.729    c-4.276-4.277-9.962-6.632-16.011-6.632s-11.734,2.355-16.011,6.632c-3.078,3.077-5.162,6.968-6.081,11.142    c-4.202,0.907-8.059,2.998-11.167,6.104c-8.827,8.829-8.827,23.193,0,32.021c4.275,4.275,9.959,6.63,16.006,6.63    c3.421,0,6.73-0.755,9.734-2.187l8.247,8.247c-7.604,11.917-12.031,26.046-12.031,41.2c0,13.923,3.83,24.976,11.379,33.103    l-7.595,7.595c-3.003-1.431-6.312-2.186-9.733-2.187c-19.788,0-29.951,24.706-16.006,38.651c3.107,3.107,6.964,5.198,11.167,6.104    c0.918,4.174,3.003,8.065,6.08,11.142c17.55,17.55,46.929-3.597,36.454-25.729l3.096-3.096c2.715,1.577,5.857,2.495,9.216,2.495    c4.085,0,7.865-1.337,10.923-3.596c3.059,2.259,6.838,3.596,10.924,3.596s7.865-1.337,10.924-3.596    c3.058,2.259,6.838,3.596,10.923,3.596s7.865-1.337,10.924-3.596c3.058,2.259,6.838,3.596,10.923,3.596    c3.359,0,6.501-0.918,9.216-2.495l3.095,3.096c-3.98,8.41-2.498,18.798,4.433,25.729c8.731,8.731,23.3,8.722,32.021,0    c3.078-3.078,5.162-6.968,6.081-11.142c4.202-0.907,8.059-2.998,11.167-6.105c8.828-8.828,8.828-23.193,0-32.021    c-4.275-4.275-9.959-6.63-16.006-6.63c-3.421,0-6.73,0.755-9.733,2.187l-7.595-7.595c7.55-8.126,11.38-19.18,11.38-33.103    c0-15.153-4.428-29.284-12.031-41.2l8.247-8.247C332.053,233.491,335.362,234.246,338.785,234.246z M200.51,228.394    c0,0-11.328-11.328-11.328-11.328c-2.442-3.255-7.97-2.608-10.578-0.029c-2.95,2.917-7.843,2.906-10.774-0.027    c-2.98-2.98-2.98-7.829-0.001-10.808c1.711-1.71,4.162-2.501,6.568-2.133c4.923,0.752,9.297-3.632,8.547-8.546    c-0.374-2.445,0.404-4.838,2.133-6.567c2.944-2.944,7.871-2.938,10.808,0c2.962,2.962,2.974,7.796,0.027,10.775    c-2.902,2.934-2.889,7.66,0.029,10.577l11.601,11.6C207.223,221.592,200.574,228.458,200.51,228.394z M195.912,354.533    c4.577,4.626,1.233,13.013-5.431,13.014c-4.641,0-8.234-4.237-7.538-8.804c0.685-4.488-2.888-8.634-7.413-8.634    c-2.947,0-5.398,0.254-7.7-2.047c-6.801-6.798,3.674-17.86,10.774-10.835c2.934,2.901,7.66,2.889,10.578-0.029l13.533-13.533    c0.685,0.346,1.383,0.68,2.097,1.003c0.344,0.156,0.158,8.916,0.352,10.089c-3.162,2.937-6.16,6.137-9.223,9.2    C193.023,346.873,193.01,351.599,195.912,354.533z M285.354,331.162c0-4.142-3.358-7.5-7.5-7.5s-7.5,3.358-7.5,7.5    c0,1.888-1.536,3.423-3.424,3.423s-3.423-1.536-3.423-3.423c0-4.142-3.358-7.5-7.5-7.5s-7.5,3.358-7.5,7.5    c0,1.888-1.536,3.423-3.424,3.423s-3.424-1.536-3.424-3.423c0-4.142-3.358-7.5-7.5-7.5s-7.5,3.358-7.5,7.5    c0,1.888-1.536,3.423-3.423,3.423c-1.834,0-3.424-1.585-3.424-3.423v-11.579c0-3.197-2.026-6.042-5.048-7.088    c-3.151-1.09-6.254-2.517-9.005-4.411c-0.03-0.021-0.063-0.032-0.093-0.052c-7.958-5.495-11.488-13.874-11.488-26.526    c0-21.262,10.79-40.049,27.179-51.181c10.179-6.914,22.345-10.648,34.649-10.648c12.284,0,24.489,3.756,34.654,10.652    c16.387,11.132,27.174,29.917,27.174,51.177c0,12.65-3.528,21.029-11.484,26.523c-0.032,0.021-0.067,0.034-0.098,0.055    c-2.749,1.89-5.856,3.324-9.004,4.411c-3.021,1.045-5.048,3.891-5.048,7.088v11.579c0,1.85-1.581,3.423-3.424,3.423    C286.889,334.585,285.354,333.049,285.354,331.162z M333.408,337.226c2.952-2.919,7.842-2.906,10.775,0.027    c1.443,1.444,2.238,3.363,2.238,5.404c0,4.62-4.247,8.234-8.805,7.538c-4.925-0.752-9.297,3.625-8.547,8.546    c0.697,4.566-2.91,8.806-7.537,8.806c-6.659,0-10.097-8.297-5.432-13.014c2.902-2.933,2.889-7.66-0.029-10.577l-9.224-9.224    c0.02-0.102,0.027-0.205,0.046-0.307c0.577-3.173,0.307-6.543,0.307-9.758c0.714-0.323,1.413-0.657,2.097-1.003l13.533,13.533    C325.748,340.115,330.475,340.127,333.408,337.226z M322.831,217.066l-11.328,11.328c-0.321-0.336-5.16-4.964-7.031-6.486    l11.6-11.6c2.917-2.917,2.931-7.644,0.029-10.577c-2.947-2.979-2.935-7.813,0.027-10.775c1.443-1.443,3.363-2.238,5.404-2.238    c2.041,0,3.96,0.795,5.404,2.238c1.729,1.729,2.506,4.123,2.133,6.568c-0.36,2.358,0.424,4.748,2.111,6.435    c1.687,1.687,4.08,2.471,6.435,2.11c2.407-0.368,4.857,0.423,6.567,2.133c2.98,2.98,2.98,7.829,0,10.809    c-1.442,1.442-3.359,2.236-5.398,2.236h0c-2.027,0-3.936-0.785-5.376-2.209C330.474,214.136,325.748,214.148,322.831,217.066z"/>
		<path d="M81.183,414.899c13.015,15.263,33.628,20.926,52.511,14.426c24.138-8.308,64.951-18.21,122.313-18.21    c57.36,0,98.174,9.903,122.313,18.21c5.197,1.789,10.523,2.656,15.787,2.656c13.864,0,27.29-6.02,36.724-17.082    c7.277-8.534,14.169-16.975,20.487-25.089c2.544-3.268,1.958-7.98-1.311-10.525c-3.268-2.545-7.979-1.958-10.525,1.311    c-6.181,7.939-12.932,16.206-20.065,24.571c-8.848,10.376-23.402,14.385-36.215,9.975c-25.221-8.68-67.76-19.027-127.194-19.027    c-59.435,0-101.974,10.347-127.194,19.027c-12.813,4.41-27.367,0.401-36.215-9.975c-40.943-48.014-65.955-88.609-74.402-120.741    c4.072-5.531,8.351-10.911,12.821-16.126c10.96-12.585,24.012-24.376,40.213-29.524c11.597-3.685,23.899-3.746,35.947-3.884    l24.673-0.277c3.385-0.038,6.425-2.463,7.21-5.758l5.729-24c6.533-27.37,26.533-51.155,54.872-65.256    c3.624-1.803,5.198-6.389,3.374-10.057c-1.845-3.708-6.346-5.219-10.056-3.374c-32.33,16.087-55.212,43.498-62.779,75.204    l-4.37,18.308l-18.821,0.211c-17.03,0.191-34.348,1.118-50.017,8.483c-16.671,7.835-30.117,21.216-41.658,35.293    c-0.093,0.114-0.186,0.221-0.279,0.335c-0.369-13,2.916-23.983,9.827-32.78c18.644-23.729,59.34-27.698,81.94-27.952    c3.439-0.039,6.412-2.412,7.21-5.758c6.805-28.507,24.508-54.471,49.849-73.107c25.866-19.023,58.584-29.5,92.128-29.5    c33.543,0,66.261,10.477,92.127,29.5c25.341,18.637,43.044,44.6,49.849,73.107c0.798,3.346,3.771,5.72,7.21,5.758    c22.6,0.254,63.296,4.223,81.94,27.952c6.912,8.796,10.196,19.779,9.827,32.78c-0.094-0.114-0.186-0.221-0.279-0.335    c-4.194-5.096-8.558-10.078-13.303-14.67c-11.394-11.24-24.709-20.639-40.235-25.096c-12.374-3.553-25.353-3.865-38.135-4.009    l-18.821-0.212c-2.804-11.744-5.063-23.705-9.857-34.847c-15.41-35.891-49.93-60.641-87.32-69.476    c-10.59-2.502-21.663-3.83-33.001-3.83c-11.246,0-22.476,1.324-33.384,3.928c-6.655,1.589-8.022,10.734-1.867,13.946    c2.227,1.162,4.349,0.875,6.695,0.342c9.349-2.125,18.945-3.216,28.556-3.216c44.659,0,91.394,24.39,107.904,67.614    c4.237,11.093,6.291,23.182,9.044,34.714c0.799,3.347,3.758,5.719,7.21,5.758c0,0,24.672,0.277,24.673,0.277    c12.961,0.146,26.319,0.248,38.634,4.807c16.129,5.971,28.98,18.308,39.816,31.289c3.59,4.301,7.162,8.866,10.528,13.438    c-5.408,20.544-17.706,44.77-36.593,72.073c-2.356,3.406-1.505,8.078,1.902,10.435c3.369,2.331,8.102,1.471,10.434-1.902    c20.895-30.206,34.223-57.191,39.612-80.202c5.033-21.49,3.847-44.938-10.245-62.874c-20.082-25.558-57.74-32.514-87.832-33.553    c-8.509-29.725-27.543-56.568-54.075-76.081c-28.423-20.903-64.297-32.416-101.014-32.416s-72.592,11.512-101.015,32.416    c-26.53,19.511-45.564,46.356-54.075,76.079c-52.001,1.752-76.442,19.059-87.833,33.555C0.371,238.137-3.1,259.189,2.769,284.526    C10.876,319.524,37.258,363.388,81.183,414.899z"/>
	</g>
</g>















</svg>
