<svg id="Capa_1" enable-background="new 0 0 512 512" height="512" viewBox="0 0 512 512" width="512" xmlns="http://www.w3.org/2000/svg"><g><g><path d="m498.209 415.27h-484.418c-3.474 0-6.291-2.817-6.291-6.291v-305.958c0-3.474 2.817-6.291 6.291-6.291h484.418c3.474 0 6.291 2.817 6.291 6.291v305.959c0 3.474-2.817 6.29-6.291 6.29z" fill="#ffba4c"/></g><g><path d="m498.209 96.729h-30c3.474 0 6.291 2.817 6.291 6.291v305.958c0 3.475-2.817 6.291-6.291 6.291h30c3.474 0 6.291-2.817 6.291-6.291v-305.957c0-3.475-2.817-6.292-6.291-6.292z" fill="#ffa500"/></g><g><path d="m407.174 138.085h56.163v69.704h-56.163z" fill="#7191f0" transform="matrix(0 1 -1 0 608.192 -262.319)"/></g><g><path d="m440.107 144.855h30v56.163h-30z" fill="#6084f0"/></g><g><ellipse cx="131.393" cy="225.375" fill="#ffea9a" rx="49.481" ry="49.481" transform="matrix(.707 -.707 .707 .707 -120.88 158.92)"/></g><g><path d="m131.393 175.894c-5.23 0-10.268.817-15 2.321 19.993 6.354 34.481 25.062 34.481 47.159s-14.488 40.805-34.481 47.159c4.732 1.504 9.77 2.321 15 2.321 27.327 0 49.481-22.153 49.481-49.481s-22.154-49.479-49.481-49.479z" fill="#ffe06f"/></g><g><path d="m362.217 407.771h-347.217v-303.542h59.676c4.142 0 7.5-3.358 7.5-7.5s-3.358-7.5-7.5-7.5h-60.885c-7.604 0-13.791 6.187-13.791 13.792v305.959c0 7.605 6.187 13.791 13.791 13.791h348.426c4.142 0 7.5-3.358 7.5-7.5 0-4.143-3.358-7.5-7.5-7.5z"/><path d="m498.209 89.229h-393.533c-4.142 0-7.5 3.358-7.5 7.5s3.358 7.5 7.5 7.5h392.324v303.541h-104.783c-4.142 0-7.5 3.358-7.5 7.5s3.358 7.5 7.5 7.5h105.992c7.604 0 13.791-6.186 13.791-13.791v-305.958c0-7.605-6.187-13.792-13.791-13.792z"/><path d="m263.5 352.936v-213.081c0-4.142-3.358-7.5-7.5-7.5s-7.5 3.358-7.5 7.5v213.081c0 4.142 3.358 7.5 7.5 7.5s7.5-3.358 7.5-7.5z"/><path d="m470.107 208.518c4.142 0 7.5-3.358 7.5-7.5v-56.163c0-4.142-3.358-7.5-7.5-7.5h-69.704c-4.142 0-7.5 3.358-7.5 7.5v56.163c0 4.142 3.358 7.5 7.5 7.5zm-62.203-56.163h54.704v41.163h-54.704z"/><path d="m313.427 326.092h141.68c4.142 0 7.5-3.358 7.5-7.5s-3.358-7.5-7.5-7.5h-141.68c-4.142 0-7.5 3.358-7.5 7.5s3.358 7.5 7.5 7.5z"/><path d="m313.427 277.86h70.84c4.142 0 7.5-3.358 7.5-7.5s-3.358-7.5-7.5-7.5h-70.84c-4.142 0-7.5 3.358-7.5 7.5s3.358 7.5 7.5 7.5z"/><path d="m313.427 374.323h141.68c4.142 0 7.5-3.358 7.5-7.5s-3.358-7.5-7.5-7.5h-141.68c-4.142 0-7.5 3.358-7.5 7.5s3.358 7.5 7.5 7.5z"/><path d="m60.553 368.439h141.68c4.142 0 7.5-3.358 7.5-7.5s-3.358-7.5-7.5-7.5h-141.68c-4.142 0-7.5 3.358-7.5 7.5s3.358 7.5 7.5 7.5z"/><path d="m74.413 225.374c0 31.419 25.562 56.981 56.98 56.981 31.419 0 56.98-25.562 56.98-56.981s-25.561-56.98-56.98-56.98-56.98 25.562-56.98 56.98zm56.98-41.98c23.148 0 41.98 18.833 41.98 41.98 0 23.148-18.832 41.981-41.98 41.981s-41.98-18.833-41.98-41.981c0-23.147 18.832-41.98 41.98-41.98z"/><path d="m131.393 255.377c15.401 0 27.932-12.53 27.932-27.932 0-4.142-3.358-7.5-7.5-7.5s-7.5 3.358-7.5 7.5c0 7.131-5.801 12.932-12.932 12.932s-12.932-5.801-12.932-12.932c0-4.142-3.358-7.5-7.5-7.5s-7.5 3.358-7.5 7.5c0 15.402 12.53 27.932 27.932 27.932z"/><path d="m138.893 150.475v-10.62c0-4.142-3.358-7.5-7.5-7.5s-7.5 3.358-7.5 7.5v10.62c0 4.142 3.358 7.5 7.5 7.5s7.5-3.358 7.5-7.5z"/><path d="m186.561 159.6-7.509 7.509c-2.929 2.929-2.929 7.678 0 10.606 1.464 1.464 3.384 2.197 5.303 2.197s3.839-.732 5.303-2.197l7.509-7.509c2.929-2.929 2.929-7.678 0-10.606-2.928-2.929-7.677-2.929-10.606 0z"/><path d="m224.412 225.374c0-4.142-3.358-7.5-7.5-7.5h-10.62c-4.142 0-7.5 3.358-7.5 7.5s3.358 7.5 7.5 7.5h10.62c4.142 0 7.5-3.357 7.5-7.5z"/><path d="m191.864 293.346c1.919 0 3.839-.732 5.303-2.197 2.929-2.929 2.929-7.678 0-10.606l-7.509-7.509c-2.929-2.929-7.678-2.929-10.606 0-2.929 2.929-2.929 7.678 0 10.606l7.509 7.509c1.464 1.464 3.384 2.197 5.303 2.197z"/><path d="m138.893 310.894v-10.62c0-4.142-3.358-7.5-7.5-7.5s-7.5 3.358-7.5 7.5v10.62c0 4.142 3.358 7.5 7.5 7.5s7.5-3.358 7.5-7.5z"/><path d="m70.921 293.346c1.919 0 3.839-.732 5.303-2.196l7.51-7.509c2.929-2.929 2.929-7.678.001-10.607-2.929-2.929-7.678-2.929-10.607 0l-7.51 7.509c-2.929 2.929-2.929 7.678-.001 10.607 1.465 1.464 3.385 2.196 5.304 2.196z"/><path d="m56.493 217.874h-10.62c-4.142 0-7.5 3.358-7.5 7.5s3.358 7.5 7.5 7.5h10.62c4.142 0 7.5-3.358 7.5-7.5s-3.358-7.5-7.5-7.5z"/><path d="m65.618 159.6c-2.929 2.929-2.928 7.678.001 10.607l7.51 7.509c1.465 1.465 3.384 2.197 5.303 2.197s3.839-.732 5.304-2.197c2.929-2.929 2.928-7.678-.001-10.607l-7.51-7.509c-2.93-2.929-7.678-2.929-10.607 0z"/></g></g></svg>