<svg height="512pt" viewBox="-16 0 512 512" width="512pt" xmlns="http://www.w3.org/2000/svg"><path d="m14.546875 106.097656v287.347656h451.609375c0-4.460937 0-279.136718 0-287.347656zm0 0" fill="#e4eaf8"/><path d="m14.546875 106.097656v287.347656h30c0-4.460937 0-279.136718 0-287.347656zm0 0" fill="#c7d2e5"/><path d="m256.367188 488.230469c0 8.847656-7.167969 16.015625-16.015626 16.015625-8.84375 0-16.015624-7.167969-16.015624-16.015625 0-8.84375 7.171874-16.015625 16.015624-16.015625 8.847657 0 16.015626 7.171875 16.015626 16.015625zm0 0" fill="#3e4b5a"/><path d="m247.851562 488.230469c0-4.1875 1.625-7.992188 4.257813-10.84375-2.925781-3.171875-7.101563-5.167969-11.757813-5.167969-8.84375 0-16.011718 7.167969-16.011718 16.015625 0 8.84375 7.167968 16.011719 16.011718 16.011719 4.65625 0 8.832032-1.996094 11.757813-5.164063-2.632813-2.859375-4.257813-6.660156-4.257813-10.851562zm0 0" fill="#313f4c"/><path d="m466.648438 386.804688h-452.589844c-3.5625 0-6.449219 2.890624-6.449219 6.449218v19.132813c0 3.558593 2.886719 6.449219 6.449219 6.449219h452.589844c3.5625 0 6.449218-2.890626 6.449218-6.449219v-19.132813c0-3.558594-2.886718-6.449218-6.449218-6.449218zm0 0" fill="#3e4b5a"/><path d="m466.648438 397.335938h-452.589844c-3.15625 0-5.78125-2.269532-6.335938-5.265626-.074218.386719-.113281.78125-.113281 1.1875v19.128907c0 3.5625 2.886719 6.449219 6.449219 6.449219h452.589844c3.5625 0 6.449218-2.886719 6.449218-6.449219v-19.128907c0-.40625-.039062-.800781-.113281-1.1875-.558594 2.996094-3.179687 5.265626-6.335937 5.265626zm0 0" fill="#313f4c"/><path d="m256.367188 23.261719c0 8.84375-7.167969 16.015625-16.015626 16.015625-8.84375 0-16.015624-7.171875-16.015624-16.015625s7.171874-16.015625 16.015624-16.015625c8.847657 0 16.015626 7.171875 16.015626 16.015625zm0 0" fill="#338def"/><path d="m245.507812 23.261719c0-4.78125 2.105469-9.0625 5.429688-11.996094-2.824219-2.492187-6.523438-4.019531-10.585938-4.019531-8.84375 0-16.011718 7.167968-16.011718 16.015625 0 8.84375 7.167968 16.015625 16.011718 16.015625 4.0625 0 7.761719-1.527344 10.585938-4.019532-3.324219-2.933593-5.429688-7.214843-5.429688-11.996093zm0 0" fill="#117ac9"/><path d="m466.648438 80.394531h-452.589844c-3.5625 0-6.449219 2.886719-6.449219 6.449219v19.128906c0 3.5625 2.886719 6.449219 6.449219 6.449219h452.589844c3.5625 0 6.449218-2.886719 6.449218-6.449219v-19.128906c0-3.5625-2.886718-6.449219-6.449218-6.449219zm0 0" fill="#3e4b5a"/><path d="m466.648438 90.921875h-452.589844c-3.15625 0-5.78125-2.269531-6.335938-5.265625-.074218.386719-.113281.78125-.113281 1.1875v19.128906c0 3.5625 2.886719 6.449219 6.449219 6.449219h452.589844c3.5625 0 6.449218-2.886719 6.449218-6.449219v-19.128906c0-.40625-.039062-.800781-.113281-1.1875-.558594 2.996094-3.179687 5.265625-6.335937 5.265625zm0 0" fill="#313f4c"/><path d="m235.652344 233.085938h-42.695313c0 12.300781-4.996093 23.429687-13.070312 31.476562l30.140625 30.242188c16.375-16.324219 25.625-38.382813 25.625-61.71875zm0 0" fill="#ff6b6b"/><path d="m148.511719 145.945312v42.695313c24.546875 0 44.445312 19.898437 44.445312 44.445313h42.695313c0-48.125-39.011719-87.140626-87.140625-87.140626zm0 0" fill="#feca57"/><path d="m179.890625 264.5625c-8.039063 8.011719-19.128906 12.96875-31.378906 12.96875-24.542969 0-44.445313-19.898438-44.445313-44.445312 0-24.546876 19.898438-44.445313 44.445313-44.445313v-42.695313c-48.125 0-87.140625 39.015626-87.140625 87.140626 0 48.128906 39.015625 87.140624 87.140625 87.140624 24.011719 0 45.75-9.714843 61.511719-25.425781l-30.136719-30.238281zm0 0" fill="#54a0ff"/><path d="m210.023438 294.800781c-.003907 0-.003907.003907 0 .003907.003906 0 .003906-.003907 0-.003907zm0 0" fill="#54a0ff"/><path d="m163.515625 147.234375c-4.875-.84375-9.886719-1.289063-15.003906-1.289063v5.300782c4.816406-1.765625 9.832031-3.113282 15.003906-4.011719zm0 0" fill="#e59d1f"/><path d="m91.375 233.085938c0-37.585938 23.792969-69.609376 57.136719-81.839844v-5.300782c-48.125 0-87.140625 39.011719-87.140625 87.140626 0 48.125 39.015625 87.140624 87.144531 87.140624 5.113281 0 10.125-.445312 15-1.292968-40.980469-7.109375-72.140625-42.835938-72.140625-85.847656zm0 0" fill="#338def"/><path d="m412.566406 167.019531h-117.546875c-4.144531 0-7.5 3.355469-7.5 7.5s3.355469 7.5 7.5 7.5h117.546875c4.144532 0 7.503906-3.355469 7.503906-7.5s-3.359374-7.5-7.503906-7.5zm0 0"/><path d="m412.566406 206.234375h-117.546875c-4.144531 0-7.5 3.355469-7.5 7.5 0 4.140625 3.355469 7.5 7.5 7.5h117.546875c4.144532 0 7.503906-3.359375 7.503906-7.5 0-4.144531-3.359374-7.5-7.503906-7.5zm0 0"/><path d="m412.566406 284.660156h-117.546875c-4.144531 0-7.5 3.355469-7.5 7.5 0 4.140625 3.355469 7.5 7.5 7.5h117.546875c4.144532 0 7.503906-3.359375 7.503906-7.5 0-4.144531-3.359374-7.5-7.503906-7.5zm0 0"/><path d="m412.566406 323.871094h-117.546875c-4.144531 0-7.5 3.359375-7.5 7.5 0 4.144531 3.355469 7.5 7.5 7.5h117.546875c4.144532 0 7.503906-3.355469 7.503906-7.5 0-4.140625-3.359374-7.5-7.503906-7.5zm0 0"/><path d="m412.566406 245.445312h-117.546875c-4.144531 0-7.5 3.355469-7.5 7.5 0 4.144532 3.355469 7.5 7.5 7.5h117.546875c4.144532 0 7.503906-3.355468 7.503906-7.5 0-4.144531-3.359374-7.5-7.503906-7.5zm0 0"/><path d="m144.503906 341.980469c-4.144531 0-7.5 3.355469-7.5 7.5s3.355469 7.5 7.5 7.5h7.808594c4.140625 0 7.5-3.355469 7.5-7.5s-3.359375-7.5-7.5-7.5zm0 0"/><path d="m105.4375 341.980469c-4.140625 0-7.5 3.355469-7.5 7.5s3.359375 7.5 7.5 7.5h7.8125c4.140625 0 7.5-3.355469 7.5-7.5s-3.359375-7.5-7.5-7.5zm0 0"/><path d="m183.5625 341.980469c-4.140625 0-7.5 3.355469-7.5 7.5s3.359375 7.5 7.5 7.5h7.808594c4.144531 0 7.5-3.355469 7.5-7.5s-3.355469-7.5-7.5-7.5zm0 0"/><path d="m243.046875 233.339844c0-52.191406-42.460937-94.644532-94.640625-94.644532-52.1875 0-94.640625 42.457032-94.640625 94.644532 0 52.183594 42.453125 94.640625 94.640625 94.640625 51.222656 0 94.640625-41.386719 94.640625-94.640625zm-87.140625-79.277344c38.332031 3.601562 68.234375 34.179688 71.777344 71.773438h-27.875c-3.277344-22.625-21.257813-40.601563-43.902344-43.902344zm29.441406 79.277344c0 20.324218-16.539062 36.941406-36.941406 36.941406-20.371094 0-36.945312-16.574219-36.945312-36.941406 0-20.371094 16.574218-36.945313 36.945312-36.945313s36.941406 16.574219 36.941406 36.945313zm-36.941406 79.640625c-43.914062 0-79.640625-35.726563-79.640625-79.640625 0-41.386719 31.730469-75.484375 72.140625-79.277344v27.878906c-25.101562 3.648438-44.445312 25.300782-44.445312 51.398438 0 28.640625 23.304687 51.941406 51.945312 51.941406 11.589844 0 22.304688-3.816406 30.957031-10.257812l19.679688 19.742187c-13.773438 11.375-31.421875 18.214844-50.636719 18.214844zm41.601562-48.527344c5.308594-7.0625 8.632813-15.398437 9.808594-23.613281h27.867188c-1.507813 16.078125-7.820313 31.0625-18.023438 43.332031zm0 0"/><path d="m466.539062 73.144531h-41.492187l-161.964844-55.226562c-2.519531-10.273438-11.800781-17.917969-22.835937-17.917969-11.039063 0-20.316406 7.644531-22.835938 17.917969l-161.964844 55.226562h-41.496093c-7.691407 0-13.949219 6.261719-13.949219 13.953125v19.128906c0 5.136719 2.796875 9.621094 6.9375 12.039063v263.203125c-4.140625 2.421875-6.9375 6.90625-6.9375 12.039062v19.128907c0 7.691406 6.257812 13.949219 13.949219 13.949219h218.796875v39.617187c-9.300782 3.136719-16.015625 11.9375-16.015625 22.28125 0 12.96875 10.546875 23.515625 23.515625 23.515625 12.964844 0 23.515625-10.546875 23.515625-23.515625 0-10.34375-6.71875-19.144531-16.015625-22.28125v-39.617187h218.792968c7.691407 0 13.949219-6.257813 13.949219-13.949219v-19.128907c0-5.132812-2.792969-9.617187-6.9375-12.039062v-107.96875c0-4.144531-3.355469-7.5-7.5-7.5s-7.5 3.355469-7.5 7.5v106.058594h-436.609375v-259.382813h436.609375v118.324219c0 4.140625 3.355469 7.5 7.5 7.5s7.5-3.359375 7.5-7.5v-120.234375c4.144531-2.421875 6.9375-6.90625 6.9375-12.039063v-19.128906c0-7.695312-6.253906-13.953125-13.949219-13.953125zm-226.292968-58.144531c4.695312 0 8.515625 3.820312 8.515625 8.515625s-3.820313 8.515625-8.515625 8.515625c-4.695313 0-8.515625-3.820312-8.515625-8.515625s3.820312-8.515625 8.515625-8.515625zm8.515625 473.484375c0 4.695313-3.820313 8.515625-8.515625 8.515625-4.695313 0-8.515625-3.820312-8.515625-8.515625s3.820312-8.515625 8.515625-8.515625c4.695312 0 8.515625 3.820312 8.515625 8.515625zm216.726562-93.925781v17.027344h-450.488281v-17.027344zm0-289.382813h-450.488281v-17.027343h207.742188c4.144531 0 7.5-3.359376 7.5-7.5 0-4.144532-3.355469-7.503907-7.5-7.503907h-120.816407l116.933594-39.871093c3.714844 8.105468 11.898437 13.757812 21.386719 13.757812 9.488281 0 17.671875-5.648438 21.386718-13.757812l116.933594 39.871093h-120.820312c-4.144532 0-7.5 3.359375-7.5 7.503907 0 4.140624 3.355468 7.5 7.5 7.5h207.742187zm0 0"/></svg>