<svg id="Line_flat" height="512" viewBox="0 0 128 128" width="512" xmlns="http://www.w3.org/2000/svg" data-name="Line flat"><path d="m31.609 93.568h62.827v10.607h-62.827z" fill="#d3a46a"/><path d="m94.437 105.175h-62.828a1 1 0 0 1 -1-1v-10.608a1 1 0 0 1 1-1h62.828a1 1 0 0 1 1 1v10.608a1 1 0 0 1 -1 1zm-61.828-2h60.828v-8.608h-60.828z" fill="#242945"/><path d="m31.815 126.549 27.29-100.583-12.732-3.454-28.227 104.037z" fill="#e1b378"/><path d="m31.814 127.549h-13.668a1 1 0 0 1 -.966-1.262l28.228-104.037a1 1 0 0 1 1.227-.7l12.731 3.45a1 1 0 0 1 .7 1.227l-27.287 100.584a1 1 0 0 1 -.965.738zm-12.361-2h11.6l26.828-98.88-10.8-2.931z" fill="#242945"/><path d="m109.854 126.549-28.227-104.037-12.732 3.454 27.29 100.583z" fill="#e1b378"/><path d="m109.854 127.549h-13.668a1 1 0 0 1 -.965-.738l-27.29-100.583a1 1 0 0 1 .7-1.227l12.731-3.454a1 1 0 0 1 1.227.7l28.227 104.037a1 1 0 0 1 -.965 1.262zm-12.9-2h11.6l-27.63-101.811-10.8 2.931z" fill="#242945"/><rect fill="#dbe2eb" height="78.471" rx="5.514" width="126" x="1" y="1.451"/><path d="m127 6.96v67.45a5.514 5.514 0 0 1 -5.51 5.51h-114.98a5.513 5.513 0 0 1 -5.3-4.01h119.06a2.49 2.49 0 0 0 2.49-2.49v-71.82a5.512 5.512 0 0 1 4.24 5.36z" fill="#bac2d3"/><path d="m121.486 80.922h-114.972a6.521 6.521 0 0 1 -6.514-6.514v-67.443a6.521 6.521 0 0 1 6.514-6.514h114.972a6.521 6.521 0 0 1 6.514 6.514v67.443a6.521 6.521 0 0 1 -6.514 6.514zm-114.972-78.471a4.519 4.519 0 0 0 -4.514 4.514v67.443a4.519 4.519 0 0 0 4.514 4.514h114.972a4.519 4.519 0 0 0 4.514-4.514v-67.443a4.519 4.519 0 0 0 -4.514-4.514z" fill="#242945"/><path d="m34.343 40.686h8.464v26.334h-8.464z" fill="#ef5361"/><path d="m42.807 68.021h-8.463a1 1 0 0 1 -1-1v-26.334a1 1 0 0 1 1-1h8.463a1 1 0 0 1 1 1v26.334a1 1 0 0 1 -1 1zm-7.463-2h6.463v-24.334h-6.463z" fill="#242945"/><path d="m51.293 50.108h8.464v16.913h-8.464z" fill="#4fa4d1"/><path d="m59.757 68.021h-8.464a1 1 0 0 1 -1-1v-16.914a1 1 0 0 1 1-1h8.464a1 1 0 0 1 1 1v16.914a1 1 0 0 1 -1 1zm-7.464-2h6.464v-14.914h-6.464z" fill="#242945"/><path d="m68.243 33.195h8.464v33.826h-8.464z" fill="#78c161"/><path d="m76.707 68.021h-8.464a1 1 0 0 1 -1-1v-33.821a1 1 0 0 1 1-1h8.464a1 1 0 0 1 1 1v33.821a1 1 0 0 1 -1 1zm-7.464-2h6.464v-31.821h-6.464z" fill="#242945"/><path d="m85.193 40.711h8.464v26.309h-8.464z" fill="#faba59"/><g fill="#242945"><path d="m93.656 68.021h-8.463a1 1 0 0 1 -1-1v-26.31a1 1 0 0 1 1-1h8.463a1 1 0 0 1 1 1v26.31a1 1 0 0 1 -1 1zm-7.463-2h6.463v-24.31h-6.463z"/><path d="m50.913 36.185a1 1 0 0 1 -.328-.056l-13.361-4.64a1 1 0 1 1 .656-1.889l12.853 4.462 22.167-16.903a1 1 0 0 1 1.239.02l13.569 11.048 10.258-9.591a1 1 0 1 1 1.365 1.464l-10.895 10.183a1 1 0 0 1 -1.315.045l-13.633-11.1-21.968 16.751a1 1 0 0 1 -.607.206z"/><path d="m98.116 25.877a.968.968 0 0 1 -.16-.013 1 1 0 0 1 -.828-1.146l.77-4.775h-4.436a1 1 0 0 1 0-2h5.61a1 1 0 0 1 .988 1.16l-.96 5.933a1 1 0 0 1 -.984.841z"/></g></svg>