<svg id="Layer_1" enable-background="new 0 0 128 128" height="512" viewBox="0 0 128 128" width="512" xmlns="http://www.w3.org/2000/svg"><g><g><path d="m101.932 35.382h-8.231l-6.851-23.632c-.01-.035-.022-.069-.036-.102-1.628-3.961-6.076-5.968-10.123-4.57l-6.46 2.23c-2.729.942-5.734.942-8.463 0l-6.459-2.23c-4.051-1.399-8.495.61-10.124 4.57-.014.033-.025.067-.036.102l-6.851 23.631h-8.231c-2.093 0-3.796 1.703-3.796 3.796s1.703 3.796 3.796 3.796h7.678c-2.888 2.298-4.929 5.456-5.808 9.094-1.487 6.159.672 12.358 5.081 16.325.94 1.683 1.505 3.166.767 4.94-1.187 2.855-3.159 2.849-5.811 2.534-1.452-.174-3.444-.412-3.771 1.516-.46 2.707 2.454 5.977 6.14 8.592-3.98 1.697-6.777 5.647-6.777 10.239 0 2.189.644 4.227 1.741 5.95-.398 1.949-.608 3.966-.608 6.03 0 9.469 7.704 17.173 17.173 17.173h52.2c1.654 0 3-1.346 3-3v-14.173c0-10.648-5.569-20.013-13.943-25.355.997-1.043 1.932-2.164 2.786-3.381 7.524-10.729 9.743-22.009 6.415-32.623-.396-1.265-.896-2.577-1.465-3.86h7.066c2.093 0 3.796-1.703 3.796-3.796s-1.702-3.796-3.795-3.796z" fill="#e6e7e8"/></g><g><path d="m34.507 83.362c5.235-5.091 12.376-8.231 20.255-8.231h12.249c5.293 0 10.252 1.422 14.526 3.895 1.265-1.206 2.459-2.575 3.56-4.144 7.111-10.14 9.631-21.058 6.28-31.75-.481-1.536-1.178-3.333-2.08-5.159h-53.698c-.179.303-.356.606-.53.909-3.693 6.417-5.379 14.748-3.693 20.098 1.261 4 4.992 6.744 3.333 10.736-2.563 6.167-9.087 1.284-9.52 3.833-.437 2.578 3.563 6.771 9.318 9.813z" fill="#0089ef"/><g><path d="m67.011 75.132h-1.645c-1.098.164-2.222.251-3.366.251s-2.267-.087-3.366-.251h-3.873c-16.05 0-29.062 13.011-29.062 29.062 0 8.932 7.241 16.173 16.173 16.173h52.2c1.105 0 2-.895 2-2v-14.173c.001-16.051-13.011-29.062-29.061-29.062z" fill="#fa759e"/><g><path d="m62.232 87.799 8.187-14.044c-2.603 1.047-5.442 1.627-8.419 1.627-2.726 0-5.337-.488-7.756-1.374z" fill="#fff"/></g><g><g><path d="m57.714 95.55 4.518-7.751-7.982-13.781c-1.335-.487-2.609-1.099-3.812-1.817l-3.754 12.252h9.12l-3.91 5.765z" fill="#ffd7e5"/></g><g><path d="m74.76 71.436c-1.349.924-2.804 1.702-4.341 2.32l-16.798 28.816 20.891-9.354-3.796-8.765h8.381z" fill="#ffd7e5"/></g></g></g><g><path d="m85.938 47.677c-.496 0-.963.16-1.386.431.036.511.056 1.027.056 1.547v3.118c0 1.289-.114 2.552-.321 3.782.49.392 1.048.634 1.651.634 1.861 0 3.369-2.13 3.369-4.757s-1.508-4.755-3.369-4.755z" fill="#fff"/><path d="m42.814 37.973c-2.163 3.372-3.422 7.379-3.422 11.682v3.118c0 12.486 10.122 22.608 22.608 22.608s22.608-10.121 22.608-22.607v-3.118c0-4.303-1.259-8.31-3.422-11.682h-38.372z" fill="#fff"/><g><g><g><g><g><g><path d="m81.89 8.029c-1.429-3.475-5.321-5.232-8.872-4.005l-6.46 2.231c-2.953 1.02-6.162 1.02-9.115 0l-6.46-2.231c-3.552-1.226-7.443.53-8.872 4.005l-7.06 24.353h-8.982c-1.544 0-2.796 1.252-2.796 2.796 0 1.544 1.252 2.796 2.796 2.796h71.865c1.544 0 2.796-1.252 2.796-2.796 0-1.544-1.252-2.796-2.796-2.796h-8.984z" fill="#fa759e"/></g><g><path d="m87.392 27.008h-50.784l-1.558 5.374h53.9z" fill="#ffd7e5"/></g><g><g><path d="m50.407 7.044 6.797 2.347c3.107 1.073 6.484 1.073 9.591 0l6.797-2.347c3.536-1.221 7.39.372 9.068 3.645l-.77-2.66c-1.429-3.475-5.321-5.232-8.872-4.005l-6.46 2.231c-2.953 1.02-6.162 1.02-9.115 0l-6.46-2.231c-3.552-1.226-7.443.53-8.872 4.005l-.771 2.659c1.677-3.273 5.531-4.866 9.067-3.644z" fill="#fff"/></g></g></g></g></g></g></g><path d="m74.513 54.659c-1.109 0-2.008.567-2.008 1.266s.899 1.266 2.008 1.266 2.008-.567 2.008-1.266-.899-1.266-2.008-1.266z" fill="#ffd7e5"/><g><path d="m62 66.581c-3.808 0-5.74-2.618-5.82-2.729-.323-.448-.222-1.073.226-1.396.446-.321 1.068-.223 1.393.221.065.087 1.454 1.904 4.202 1.904 2.728 0 4.198-1.899 4.212-1.918.333-.439.959-.527 1.401-.193.44.333.526.961.193 1.401-.084.11-2.096 2.71-5.807 2.71z" fill="#fa759e"/></g></g><g><g><g><path d="m42.113 67.516-1.048 4.34c-.426-.375-.942-.65-1.528-.792-.586-.141-1.17-.132-1.721.007l1.048-4.34c.517.191 1.052.348 1.603.481s1.099.237 1.646.304z" fill="#ffd7e5"/></g><path d="m40.467 67.215c-8.401-2.028-13.585-10.512-11.556-18.913s10.512-13.586 18.913-11.557 13.585 10.513 11.557 18.914-10.513 13.584-18.914 11.556z" fill="#fa759e"/><ellipse cx="44.146" cy="51.98" fill="#d4fbff" rx="12.021" ry="12.021" transform="matrix(.494 -.87 .87 .494 -22.851 64.714)"/><g><path d="m34.693 82.088c2.035 0 3.927.606 5.514 1.64l2.003-8.295c.468-1.937-.734-3.904-2.671-4.371-1.937-.468-3.904.734-4.371 2.671l-2.05 8.49c.514-.081 1.037-.135 1.575-.135z" fill="#6dc9f7"/></g></g></g><g><g><circle cx="34.693" cy="92.213" fill="#fff" r="10.126"/><g fill="#3a2c60"><circle cx="58.943" cy="106.809" r="1.943"/><path d="m58.943 113.961c-1.073 0-1.943.87-1.943 1.943s.87 1.943 1.943 1.943 1.943-.87 1.943-1.943-.87-1.943-1.943-1.943z"/><path d="m97.932 31.382h-8.231l-6.851-23.632c-.01-.035-.022-.069-.036-.102-1.628-3.961-6.076-5.969-10.123-4.57l-6.46 2.23c-2.729.941-5.734.942-8.463 0l-6.459-2.23c-4.05-1.399-8.496.61-10.124 4.57-.013.033-.025.068-.035.102l-6.851 23.631h-8.231c-2.093 0-3.796 1.703-3.796 3.796s1.703 3.796 3.796 3.796h7.681c-2.796 2.23-4.909 5.356-5.811 9.094-1.043 4.323-.338 8.798 1.986 12.602.861 1.41 1.908 2.662 3.102 3.735.935 1.677 1.496 3.158.76 4.928-1.187 2.854-3.159 2.85-5.811 2.534-1.455-.174-3.445-.412-3.772 1.516-.46 2.708 2.46 5.973 6.15 8.588-3.985 1.694-6.787 5.648-6.787 10.244 0 2.194.647 4.237 1.748 5.962-.397 1.946-.615 3.956-.615 6.018 0 9.469 7.704 17.172 17.173 17.172h52.2c1.654 0 3-1.346 3-3v-14.172c0-10.657-5.586-20.02-13.973-25.359 1.004-1.046 1.958-2.155 2.816-3.378 7.524-10.728 9.743-22.009 6.415-32.624-.397-1.266-.897-2.578-1.465-3.859h7.066c2.093 0 3.796-1.703 3.796-3.796s-1.702-3.796-3.795-3.796zm-54.877-23.021c1.242-2.95 4.568-4.441 7.601-3.393l6.46 2.23c3.149 1.087 6.618 1.087 9.768 0l6.46-2.23c3.028-1.049 6.358.442 7.601 3.393l5.116 17.647h-9.852c-.552 0-1 .448-1 1s.448 1 1 1h10.432l.978 3.374h-51.238l.978-3.374h24.099c.552 0 1-.448 1-1s-.448-1-1-1h-23.519zm-13.173 40.176c1.621-6.713 7.644-11.232 14.263-11.232 1.137 0 2.291.133 3.443.412 7.865 1.899 12.719 9.842 10.82 17.707-.918 3.804-3.268 7.025-6.617 9.07-3.348 2.045-7.288 2.667-11.09 1.749-3.804-.918-7.025-3.268-9.071-6.616s-2.666-7.287-1.748-11.09zm48.215 70.829h-23.476v-16.146l20.299-9.089c.5-.224.727-.808.509-1.31l-3.19-7.367h6.858c.321 0 .623-.154.811-.415s.239-.596.138-.901l-1.889-5.67c3.088 1.343 5.886 3.223 8.281 5.525-5.108 2.755-8.34 8.088-8.34 13.974v21.399zm-34.421-20.616c1.341-1.838 2.143-4.093 2.143-6.537 0-3.643-1.768-6.873-4.482-8.903l1.029-4.263c1.756-.868 3.615-1.553 5.554-2.041l-2.192 7.154c-.093.303-.037.632.152.888.189.255.487.405.804.405h7.233l-2.851 4.203c-.278.411-.214.964.152 1.299l5.226 4.788-3.688 6.326c-.089.153-.136.327-.136.503v16.794h-8.945v-20.616zm-3.444-30.563c.218.053.438.094.657.138l-.48 1.987c-.207-.083-.413-.169-.636-.223-.221-.053-.445-.073-.668-.093l.482-1.998c.216.061.426.136.645.189zm3.933.471c.126 0 .252-.01.378-.013 1.388 1.526 2.976 2.867 4.717 3.989l-.66 2.154c-1.954.409-3.838 1.006-5.634 1.776l.216-.896c.364-1.509-.068-3.021-1.015-4.112l.713-2.954c.428.033.857.056 1.285.056zm18.07 17.151-5.856-10.11c1.803.442 3.684.683 5.621.683 2.152 0 4.236-.295 6.218-.837zm-8.683-11 7.524 12.989-3.601 6.177-4.268-3.911 3.425-5.049c.208-.307.229-.703.056-1.03s-.513-.532-.883-.532h-7.768l2.999-9.788c.811.429 1.651.811 2.516 1.144zm-16.229-2.461c.601-.367 1.304-.479 1.98-.315 1.406.339 2.273 1.759 1.934 3.165l-1.695 7.018c-1.468-.715-3.11-1.128-4.85-1.128-.093 0-.183.012-.276.014l1.723-7.136c.164-.677.584-1.251 1.184-1.618zm40.386 11.105h-6.994c-.337 0-.651.169-.836.451-.185.281-.215.637-.082.946l3.403 7.858-17.15 7.679 15.061-25.837c1.077-.452 2.115-.981 3.104-1.582zm-15.709-9.071c-5.78 0-11.031-2.286-14.912-5.996 2.007-.362 3.953-1.089 5.747-2.186 2.78-1.699 4.945-4.116 6.321-6.977.648.874 1.674 1.449 2.844 1.449 1.969 0 3.571-1.602 3.571-3.571v-1.507c0-.552-.448-1-1-1s-1 .448-1 1v1.507c0 .866-.705 1.571-1.571 1.571s-1.571-.705-1.571-1.571v-1.507c0-.018-.008-.032-.009-.05.924-4.214.21-8.552-2.053-12.254-1.026-1.679-2.325-3.122-3.814-4.317h26.078c1.95 3.221 2.978 6.902 2.978 10.682v3.119c-.001 11.915-9.694 21.608-21.609 21.608zm-35.828-.621c.299-.061 1.053.03 1.567.091 2.259.27 6.036.72 7.895-3.752.539-1.296.589-2.473.373-3.578.543.303 1.106.572 1.684.814l-.717 2.971c-.236.095-.47.2-.692.335-1.056.646-1.797 1.66-2.085 2.855l-1.801 7.46c-4.134-2.698-6.408-5.626-6.224-7.196zm8.521 9.327c5.032 0 9.125 4.094 9.125 9.125 0 5.032-4.094 9.126-9.125 9.126-5.032 0-9.126-4.094-9.126-9.126s4.094-9.125 9.126-9.125zm-7.993 21.106c0-1.349.101-2.675.288-3.973 2.001 1.926 4.715 3.118 7.705 3.118 2.644 0 5.072-.931 6.983-2.477v18.493c-8.275-.106-14.976-6.862-14.976-15.161zm68.373 14.172c0 .551-.449 1-1 1h-13.976v-21.4c0-5.335 3.037-10.149 7.792-12.471 4.456 4.968 7.184 11.515 7.184 18.699zm-4.651-74.935c3.134 10 1.01 20.676-6.145 30.876-.892 1.271-1.877 2.431-2.936 3.494-1.284-.7-2.623-1.307-4.012-1.816l-1.391-4.174c4.494-3.299 7.778-8.149 9.065-13.754.3.085.612.132.934.132 2.45 0 4.369-2.529 4.369-5.757s-1.919-5.756-4.369-5.756c-.18 0-.353.033-.527.061-.352-2.718-1.189-5.345-2.485-7.765h5.742c.866 1.828 1.427 3.414 1.755 4.459zm-4.847 5.293c.119-.031.24-.047.363-.047 1.284 0 2.369 1.72 2.369 3.756 0 2.037-1.084 3.757-2.369 3.757-.195 0-.382-.054-.564-.131.15-1.074.234-2.17.234-3.285v-3.119c0-.311-.02-.621-.033-.931zm12.357-11.751h-8.636-8.11-29.789c-1.058-.509-2.171-.919-3.339-1.201-3.896-.94-7.808-.421-11.16 1.201h-10.83c-.99 0-1.796-.806-1.796-1.796s.806-1.796 1.796-1.796h8.982 53.9 8.982c.99 0 1.796.806 1.796 1.796s-.806 1.796-1.796 1.796z"/><path d="m65.583 28.008h6.125c.552 0 1-.448 1-1s-.448-1-1-1h-6.125c-.552 0-1 .448-1 1s.448 1 1 1z"/><path d="m71.974 47.349c-1.249 0-2.261 1.012-2.261 2.261s1.012 2.261 2.261 2.261 2.261-1.012 2.261-2.261-1.012-2.261-2.261-2.261z"/><path d="m41.089 64.638c1.022.247 2.055.369 3.08.369 2.366 0 4.695-.65 6.766-1.915 2.968-1.814 5.052-4.674 5.868-8.055s.267-6.877-1.546-9.845c-1.814-2.968-4.674-5.052-8.055-5.868-3.382-.815-6.877-.267-9.845 1.546s-5.052 4.674-5.868 8.055-.267 6.877 1.546 9.846c1.813 2.966 4.673 5.05 8.054 5.867zm-7.656-15.245c1.217-5.042 5.741-8.436 10.713-8.436.854 0 1.721.1 2.586.309 5.908 1.426 9.553 7.392 8.127 13.299-.691 2.862-2.455 5.283-4.967 6.818s-5.473 2-8.333 1.309c-2.862-.691-5.283-2.455-6.818-4.967-1.535-2.511-2-5.47-1.308-8.332z"/><path d="m75.639 40.419-7.121 2.213c-.527.164-.822.725-.658 1.252.133.429.528.704.955.704.099 0 .198-.015.297-.045l7.121-2.213c.527-.164.822-.725.658-1.252-.164-.528-.724-.822-1.252-.659z"/></g></g></g></g></g></svg>