<?xml version="1.0" encoding="UTF-8"?>
<svg width="513px" height="513px" viewBox="0 0 513 513" version="1.1" xmlns="http://www.w3.org/2000/svg" xmlns:xlink="http://www.w3.org/1999/xlink">
    <!-- Generator: Sketch 55.2 (78181) - https://sketchapp.com -->
    <title>pull-up</title>
    <desc>Created with Sketch.</desc>
    <g id="Page-1" stroke="none" stroke-width="1" fill="none" fill-rule="evenodd">
        <g id="pull-up" fill-rule="nonzero">
            <g id="Group" transform="translate(55.000977, 424.203125) rotate(-180.000000) translate(-55.000977, -424.203125) translate(0.000977, 336.203125)">
                <polygon id="Path" fill="#FF6977" points="54.655273 10 9.999023 87.347656 31.202148 87.347656 31.202148 165.796875 78.108398 165.796875 78.108398 87.347656 99.311523 87.347656"></polygon>
                <path d="M63.315429,5 C61.530273,1.90625 58.225585,0 54.655273,0 C51.084961,0 47.780273,1.90625 45.995117,5 L1.338867,82.347656 C-0.446289,85.441406 -0.446289,89.253906 1.338867,92.347656 C3.124023,95.441406 6.428711,97.347656 9.999023,97.347656 L21.202148,97.347656 L21.202148,165.796875 C21.202148,171.320313 25.678711,175.796875 31.202148,175.796875 L78.108398,175.796875 C83.631835,175.796875 88.108398,171.320313 88.108398,165.796875 L88.108398,97.347656 L99.311523,97.347656 C102.881835,97.347656 106.186523,95.441406 107.971679,92.347656 C109.756835,89.253906 109.756835,85.441406 107.971679,82.347656 L63.315429,5 Z M78.108398,77.347656 C72.588867,77.347656 68.108398,81.824219 68.108398,87.347656 L68.108398,155.796875 L41.202148,155.796875 L41.202148,87.347656 C41.202148,81.824219 36.721679,77.347656 31.202148,77.347656 L27.319335,77.347656 L54.655273,30 L81.991211,77.347656 L78.108398,77.347656 Z" id="Shape" fill="#000000"></path>
            </g>
            <g id="Group-2" transform="translate(457.688477, 436.386719) rotate(-180.000000) translate(-457.688477, -436.386719) translate(402.688477, 360.386719)">
                <polygon id="Path" fill="#FF6977" points="54.655273 10 9.999023 87.34375 31.202148 87.34375 31.202148 141.613281 78.108398 141.613281 78.108398 87.34375 99.311523 87.34375"></polygon>
                <path d="M63.315429,5 C61.530273,1.902343 58.225585,-2.84217094e-14 54.655273,-2.84217094e-14 C51.084961,-2.84217094e-14 47.780273,1.902343 45.995117,5 L1.338867,82.347656 C-0.446289,85.441406 -0.446289,89.253906 1.338867,92.347656 C3.124023,95.441406 6.428711,97.347656 9.999023,97.347656 L21.202148,97.347656 L21.202148,141.613281 C21.202148,147.136719 25.678711,151.613281 31.202148,151.613281 L78.108398,151.613281 C83.631835,151.613281 88.108398,147.136719 88.108398,141.613281 L88.108398,97.34375 L99.311523,97.34375 C102.881835,97.34375 106.186523,95.4375 107.971679,92.34375 C109.756835,89.25 109.756835,85.4375 107.971679,82.34375 L63.315429,5 Z M78.108398,77.34375 C72.588867,77.34375 68.108398,81.824219 68.108398,87.34375 L68.108398,131.613281 L41.202148,131.613281 L41.202148,87.34375 C41.202148,81.824219 36.721679,77.34375 31.202148,77.34375 L27.319335,77.34375 L54.655273,29.996093 L81.991211,77.34375 L78.108398,77.34375 Z" id="Shape" fill="#000000"></path>
            </g>
            <path d="M484.382812,233.765625 L27.617188,233.765625 C17.886719,233.765625 10,241.652344 10,251.382812 L10,280.148438 C10,289.878906 17.886719,297.765625 27.617188,297.765625 L484.382812,297.765625 C494.113281,297.765625 502,289.878906 502,280.148438 L502,251.382812 C502,241.652344 494.113281,233.765625 484.382812,233.765625 Z" id="Path" fill="#B5BCC9"></path>
            <path d="M136,10 L64,10 L64,146.25 C64,157.15625 72.84375,166 83.75,166 L116.25,166 C127.15625,166 136,157.15625 136,146.25 L136,10 Z" id="Path" fill="#D1DDDE"></path>
            <path d="M376,10 L448,10 L448,146.25 C448,157.15625 439.15625,166 428.25,166 L395.75,166 C384.84375,166 376,157.15625 376,146.25 L376,10 Z" id="Path" fill="#D1DDDE"></path>
            <path d="M181.144531,502 L181.144531,391.179688 L163.625,377.433594 C149.113281,369.300781 139.542969,354.28125 139,337.65625 C138.984375,337.132812 138.976562,336.609375 138.976562,336.085938 L138.976562,297.765625 L172.703125,297.765625 L172.703125,224.824219 C172.703125,213.324219 182.027344,204 193.527344,204 C205.027344,204 214.351562,213.324219 214.351562,224.824219 C214.351562,213.324219 223.675781,204 235.175781,204 C246.675781,204 256,213.324219 256,224.824219 C256,213.324219 265.324219,204 276.824219,204 C288.324219,204 297.648438,213.324219 297.648438,224.824219 C297.648438,213.324219 306.972656,204 318.472656,204 C329.972656,204 339.296875,213.324219 339.296875,224.824219 L339.296875,330.5 C339.296875,356.664062 328.667969,381.703125 309.851562,399.882812 L309.851562,502 L181.144531,502 Z" id="Path" fill="#FFCBBE"></path>
            <path d="M484.382812,223.765625 L422,223.765625 L422,176 L428.25,176 C444.652344,176 458,162.652344 458,146.25 L458,10 C458,4.476562 453.523438,0 448,0 L376,0 C370.476562,0 366,4.476562 366,10 L366,146.25 C366,162.652344 379.347656,176 395.75,176 L402,176 L402,223.765625 L349.269531,223.765625 C348.707031,207.257812 335.113281,194 318.472656,194 C310.449219,194 303.136719,197.082031 297.648438,202.121094 C292.160156,197.082031 284.847656,194 276.824219,194 C268.804688,194 261.488281,197.082031 256,202.121094 C250.511719,197.082031 243.199219,194 235.175781,194 C227.15625,194 219.84375,197.082031 214.355469,202.121094 C208.863281,197.082031 201.550781,194 193.53125,194 C176.890625,194 163.296875,207.257812 162.734375,223.765625 L110,223.765625 L110,176 L116.25,176 C132.652344,176 146,162.652344 146,146.25 L146,10 C146,4.476562 141.523438,0 136,0 L64,0 C58.476562,0 54,4.476562 54,10 L54,146.25 C54,162.652344 67.347656,176 83.75,176 L90,176 L90,223.765625 L27.617188,223.765625 C12.390625,223.765625 1.13686838e-13,236.152344 1.13686838e-13,251.382812 L1.13686838e-13,280.148438 C1.13686838e-13,295.375 12.390625,307.765625 27.617188,307.765625 L128.976562,307.765625 L128.976562,336.082031 C128.976562,336.714844 128.984375,337.34375 129.003906,337.980469 C129.640625,357.511719 140.738281,375.746094 158.03125,385.753906 L171.144531,396.042969 L171.144531,502 C171.144531,507.523438 175.621094,512 181.144531,512 C186.664062,512 191.144531,507.523438 191.144531,502 L191.144531,391.179688 C191.144531,388.109375 189.730469,385.207031 187.316406,383.3125 L169.796875,369.566406 C169.390625,369.25 168.960938,368.964844 168.515625,368.710938 C156.890625,362.195312 149.410156,350.171875 148.992188,337.339844 C148.980469,336.921875 148.972656,336.503906 148.972656,336.085938 L148.972656,307.765625 L172.703125,307.765625 C178.226562,307.765625 182.703125,303.289062 182.703125,297.765625 L182.703125,224.824219 C182.703125,218.855469 187.558594,214 193.527344,214 C199.496094,214 204.351562,218.855469 204.351562,224.824219 L204.351562,265.765625 C204.351562,271.289062 208.828125,275.765625 214.351562,275.765625 C219.875,275.765625 224.351562,271.289062 224.351562,265.765625 L224.351562,224.824219 C224.351562,218.855469 229.207031,214 235.175781,214 C241.144531,214 246,218.855469 246,224.824219 L246,265.765625 C246,271.289062 250.476562,275.765625 256,275.765625 C261.519531,275.765625 266,271.289062 266,265.765625 L266,224.824219 C266,218.855469 270.855469,214 276.824219,214 C282.789062,214 287.644531,218.855469 287.644531,224.824219 L287.644531,265.765625 C287.644531,271.289062 292.125,275.765625 297.644531,275.765625 C303.167969,275.765625 307.644531,271.289062 307.644531,265.765625 L307.644531,224.824219 C307.644531,218.855469 312.5,214 318.46875,214 C324.4375,214 329.292969,218.855469 329.292969,224.824219 L329.292969,330.5 C329.292969,353.820312 319.675781,376.488281 302.902344,392.691406 C300.949219,394.574219 299.847656,397.171875 299.847656,399.882812 L299.847656,457 C299.847656,462.523438 304.328125,467 309.847656,467 C315.371094,467 319.847656,462.523438 319.847656,457 L319.847656,404.003906 C338.609375,384.3125 349.292969,357.769531 349.292969,330.5 L349.292969,307.765625 L484.378906,307.765625 C499.609375,307.765625 511.996095,295.375 511.996095,280.148438 L511.996095,251.382812 C511.996095,236.152344 499.609375,223.765625 484.382812,223.765625 L484.382812,223.765625 Z M386,146.25 L386,20 L438,20 L438,146.25 C438,151.625 433.625,156 428.25,156 L395.75,156 C390.375,156 386,151.625 386,146.25 Z M74,146.25 L74,20 L126,20 L126,146.25 C126,151.625 121.625,156 116.25,156 L83.75,156 C78.375,156 74,151.625 74,146.25 Z M138.976562,287.765625 L27.617188,287.765625 C23.417969,287.765625 20,284.347656 20,280.148438 L20,251.382812 C20,247.183594 23.417969,243.765625 27.617188,243.765625 L162.703125,243.765625 L162.703125,287.765625 L138.976562,287.765625 Z M492,280.148438 C492,284.347656 488.582031,287.765625 484.382812,287.765625 L349.296875,287.765625 L349.296875,243.765625 L484.382812,243.765625 C488.582031,243.765625 492,247.179688 492,251.382812 L492,280.148438 Z" id="Shape" fill="#000000"></path>
            <path d="M309.851562,492 C307.21875,492 304.640625,493.070312 302.78125,494.929688 C300.921875,496.789062 299.851562,499.371094 299.851562,502 C299.851562,504.628906 300.921875,507.210938 302.78125,509.070312 C304.640625,510.929688 307.21875,512 309.851562,512 C312.480469,512 315.058594,510.929688 316.921875,509.070312 C318.777344,507.210938 319.851562,504.628906 319.851562,502 C319.851562,499.371094 318.78125,496.789062 316.921875,494.929688 C315.058594,493.070312 312.480469,492 309.851562,492 Z" id="Path" fill="#000000"></path>
        </g>
    </g>
</svg>