<svg height="512pt" viewBox="0 -71 512.00089 512" width="512pt" xmlns="http://www.w3.org/2000/svg"><path d="m9.382812 347 238.375-335.246094c4.03125-5.671875 12.453126-5.671875 16.484376 0l238.375 335.246094c4.761718 6.699219-.023438 15.976562-8.242188 15.976562h-476.75c-8.214844 0-13.003906-9.28125-8.242188-15.976562zm0 0" fill="#f9c153"/><path d="m502.617188 347-219.683594-308.960938-18.691406-26.285156c-2.457032-3.460937-6.546876-4.796875-10.28125-4.035156l-95.929688 355.257812h336.347656c8.214844 0 13-9.28125 8.238282-15.976562zm0 0" fill="#ffd576"/><g fill="#e58b25"><path d="m311.769531 86.09375h-111.539062c-4.140625 0-7.5-3.355469-7.5-7.5 0-4.140625 3.359375-7.5 7.5-7.5h111.539062c4.144531 0 7.5 3.359375 7.5 7.5 0 4.144531-3.355469 7.5-7.5 7.5zm0 0"/><path d="m362.320312 157.191406h-212.640624c-4.140626 0-7.5-3.359375-7.5-7.5 0-4.144531 3.359374-7.503906 7.5-7.503906h212.644531c4.140625 0 7.5 3.359375 7.5 7.503906 0 4.140625-3.359375 7.5-7.503907 7.5zm0 0"/><path d="m412.871094 228.285156h-313.742188c-4.144531 0-7.5-3.355468-7.5-7.5 0-4.144531 3.355469-7.5 7.5-7.5h313.742188c4.144531 0 7.5 3.355469 7.5 7.5 0 4.144532-3.355469 7.5-7.5 7.5zm0 0"/><path d="m461.839844 299.378906h-413.261719c-4.144531 0-7.5-3.355468-7.5-7.5 0-4.140625 3.355469-7.5 7.5-7.5h413.261719c4.140625 0 7.5 3.359375 7.5 7.5 0 4.144532-3.359375 7.5-7.5 7.5zm0 0"/><path d="m286.496094 157.191406c-3.273438 0-6.285156-2.160156-7.214844-5.472656l-20-71.09375c-1.121094-3.988281 1.199219-8.128906 5.1875-9.25 3.988281-1.125 8.128906 1.199219 9.25 5.1875l20 71.09375c1.125 3.988281-1.199219 8.128906-5.1875 9.253906-.675781.191406-1.363281.28125-2.035156.28125zm0 0"/><path d="m286.496094 299.382812c-3.273438 0-6.285156-2.164062-7.214844-5.472656l-20-71.09375c-1.121094-3.988281 1.199219-8.128906 5.1875-9.25 3.988281-1.128906 8.128906 1.199219 9.25 5.1875l20 71.09375c1.125 3.988282-1.199219 8.128906-5.1875 9.253906-.675781.191407-1.363281.28125-2.035156.28125zm0 0"/><path d="m398.5 299.382812c-3.273438 0-6.285156-2.164062-7.214844-5.472656l-20-71.09375c-1.125-3.988281 1.199219-8.128906 5.1875-9.25 3.984375-1.128906 8.128906 1.199219 9.25 5.1875l20 71.09375c1.121094 3.988282-1.199218 8.128906-5.1875 9.253906-.675781.191407-1.363281.28125-2.035156.28125zm0 0"/><path d="m124.492188 299.382812c-.96875 0-1.957032-.191406-2.910157-.59375-3.816406-1.609374-5.605469-6.007812-3.996093-9.824218l30-71.09375c1.613281-3.816406 6.011718-5.605469 9.828124-3.996094 3.816407 1.609375 5.605469 6.011719 3.992188 9.828125l-30 71.09375c-1.207031 2.863281-3.988281 4.585937-6.914062 4.585937zm0 0"/><path d="m230.496094 370.476562c-3.277344 0-6.285156-2.160156-7.214844-5.46875l-20.003906-71.097656c-1.121094-3.984375 1.203125-8.128906 5.191406-9.25 3.988281-1.125 8.128906 1.199219 9.25 5.1875l20 71.09375c1.121094 3.988282-1.199219 8.132813-5.1875 9.253906-.679688.191407-1.363281.28125-2.035156.28125zm0 0"/><path d="m342.5 370.476562c-3.277344 0-6.285156-2.160156-7.21875-5.46875l-20-71.097656c-1.121094-3.984375 1.203125-8.128906 5.1875-9.25 3.988281-1.125 8.128906 1.199219 9.253906 5.1875l20 71.09375c1.121094 3.988282-1.203125 8.132813-5.1875 9.253906-.679687.191407-1.363281.28125-2.035156.28125zm0 0"/><path d="m68.492188 370.476562c-.972657 0-1.960938-.1875-2.914063-.589843-3.816406-1.609375-5.601563-6.011719-3.992187-9.828125l30-71.09375c1.609374-3.816406 6.011718-5.601563 9.828124-3.996094 3.8125 1.613281 5.601563 6.011719 3.992188 9.828125l-30 71.09375c-1.210938 2.863281-3.988281 4.585937-6.914062 4.585937zm0 0"/><path d="m454.503906 370.476562c-3.277344 0-6.289062-2.160156-7.21875-5.46875l-20-71.097656c-1.121094-3.984375 1.199219-8.128906 5.1875-9.25 3.988282-1.125 8.128906 1.199219 9.253906 5.1875l20 71.09375c1.121094 3.988282-1.203124 8.132813-5.191406 9.253906-.675781.191407-1.359375.28125-2.03125.28125zm0 0"/><path d="m342.5 228.289062c-3.277344 0-6.285156-2.164062-7.21875-5.472656l-20-71.097656c-1.121094-3.984375 1.203125-8.128906 5.1875-9.25 3.988281-1.125 8.128906 1.203125 9.253906 5.1875l20 71.097656c1.121094 3.988282-1.203125 8.128906-5.1875 9.25-.679687.191406-1.363281.285156-2.035156.285156zm0 0"/></g><path d="m508.730469 342.65625-110.066407-154.796875c-2.398437-3.375-7.078124-4.167969-10.457031-1.765625-3.375 2.398438-4.167969 7.082031-1.765625 10.457031l110.066406 154.796875c.800782 1.128906.464844 2.183594.191407 2.710938-.273438.527344-.9375 1.414062-2.324219 1.414062h-326.550781l22.734375-84.191406c1.078125-4-1.289063-8.117188-5.285156-9.195312-4.003907-1.082032-8.117188 1.289062-9.199219 5.285156l-23.789063 88.105468h-134.660156c-1.386719 0-2.050781-.886718-2.320312-1.417968-.273438-.527344-.613282-1.582032.191406-2.710938l222.34375-312.703125-54.472656 201.734375c-1.082032 3.996094 1.285156 8.113282 5.285156 9.195313.65625.175781 1.3125.261719 1.957031.261719 3.308594 0 6.335937-2.203126 7.238281-5.546876l61.25-226.828124 111.199219 156.390624c2.402344 3.378907 7.082031 4.167969 10.460937 1.769532 3.375-2.402344 4.167969-7.085938 1.765626-10.460938l-112.167969-157.753906c-3.296875-4.640625-8.664063-7.40625-14.355469-7.40625s-11.054688 2.769531-14.355469 7.40625l-238.375 335.25c-3.835937 5.394531-4.332031 12.398438-1.296875 18.28125s9.03125 9.535156 15.652344 9.535156h140.378906c.007813 0 .019532.003906.027344.003906s.019531-.003906.027344-.003906h336.316406c6.621094 0 12.617188-3.652344 15.652344-9.535156 3.039062-5.882812 2.539062-12.886719-1.296875-18.28125zm0 0"/></svg>