<?xml version="1.0" encoding="UTF-8"?>
<svg xmlns="http://www.w3.org/2000/svg" width="512" height="512" viewBox="0 0 128 128"><g><circle cx="63.999" cy="64" r="57.693" fill="#b5dcff"/><circle cx="63.999" cy="64" r="43.265" fill="#8bcaff"/><circle cx="63.999" cy="64" r="28.811" fill="#b5dcff"/><circle cx="63.999" cy="64" r="14.408" fill="#8bcaff"/><path d="M121.694,64H64l40.79-40.79A57.506,57.506,0,0,1,121.694,64Z" fill="#00d3b5"/><path d="M90.145,99.04a6.289,6.289,0,1,1,8.894,0A6.289,6.289,0,0,1,90.145,99.04Z" fill="#ff636e"/><path d="M37.853,28.96a6.289,6.289,0,1,1-8.894,0A6.287,6.287,0,0,1,37.853,28.96Z" fill="#ff636e"/><g><path d="M64,4.557a59.559,59.559,0,0,0-37.562,13.37,1.75,1.75,0,1,0,2.213,2.711A56.043,56.043,0,0,1,62.25,8.1V19.02a44.555,44.555,0,0,0-23.945,8.022A8.03,8.03,0,0,0,27.042,38.3,44.572,44.572,0,0,0,19.02,62.25H8.112a55.982,55.982,0,0,1,6.632-24.8,1.75,1.75,0,1,0-3.079-1.664,59.45,59.45,0,0,0,98.783,65.31,1.75,1.75,0,1,0-2.734-2.186A55.672,55.672,0,0,1,65.75,119.894V108.98A44.562,44.562,0,0,0,89.7,100.959,8.031,8.031,0,0,0,100.959,89.7,44.576,44.576,0,0,0,108.98,65.75h10.934a55.887,55.887,0,0,1-7.6,26.478A1.75,1.75,0,1,0,115.33,94,59.457,59.457,0,0,0,64,4.557ZM68.225,62.25l36.522-36.523A55.724,55.724,0,0,1,119.9,62.25Zm-34.758,3.5A30.625,30.625,0,0,0,62.25,94.532V105.47A41.56,41.56,0,0,1,22.53,65.75Zm61.1-34.787A44.653,44.653,0,0,0,65.75,19.028V8.1a55.724,55.724,0,0,1,36.523,15.152Zm-2.475,2.474-7.735,7.736a30.323,30.323,0,0,0-18.6-7.7V22.528A41.177,41.177,0,0,1,92.088,33.437ZM62.25,62.25H51.478A12.665,12.665,0,0,1,62.25,51.478Zm0,3.5V76.522A12.665,12.665,0,0,1,51.478,65.75Zm3.5,0H76.522A12.666,12.666,0,0,1,65.75,76.522Zm0-14.273a12.5,12.5,0,0,1,5.868,2.43L65.75,59.775Zm8.367-.069a16,16,0,0,0-8.367-3.466V36.976a26.848,26.848,0,0,1,16.121,6.678ZM62.25,47.942A16.182,16.182,0,0,0,47.941,62.25H36.977A27.116,27.116,0,0,1,62.25,36.977ZM47.941,65.75A16.182,16.182,0,0,0,62.25,80.058V91.023A27.116,27.116,0,0,1,36.977,65.75ZM65.75,80.058A16.18,16.18,0,0,0,80.058,65.75H91.023A27.116,27.116,0,0,1,65.75,91.023ZM30.2,30.2a4.539,4.539,0,1,1,0,6.42A4.528,4.528,0,0,1,30.2,30.2Zm-.464,10.358a8.035,8.035,0,0,0,10.822-10.82A41.092,41.092,0,0,1,62.25,22.522V33.468A30.625,30.625,0,0,0,33.467,62.25H22.522A41.1,41.1,0,0,1,29.734,40.555ZM8.1,65.75H19.03a45.058,45.058,0,0,0,43.22,43.22V119.9A55.99,55.99,0,0,1,8.1,65.75ZM97.8,97.8a4.537,4.537,0,1,1,0-6.42A4.547,4.547,0,0,1,97.8,97.8Zm.463-10.358A8.036,8.036,0,0,0,87.444,98.266a41.091,41.091,0,0,1-21.694,7.212V94.532A30.624,30.624,0,0,0,94.532,65.75h10.945A41.1,41.1,0,0,1,98.266,87.445Z"/><path d="M17.212,30.193a1.748,1.748,0,0,0,2.454-.317c.749-.971,1.536-1.926,2.34-2.838a1.75,1.75,0,1,0-2.626-2.314c-.855.97-1.691,1.984-2.486,3.015A1.749,1.749,0,0,0,17.212,30.193Z"/></g></g></svg>
