<?xml version="1.0" encoding="UTF-8"?>
<svg width="2528px" height="1874px" viewBox="0 0 2528 1874" version="1.1" xmlns="http://www.w3.org/2000/svg" xmlns:xlink="http://www.w3.org/1999/xlink">
    <!-- Generator: Sketch 55.2 (78181) - https://sketchapp.com -->
    <title>Group</title>
    <desc>Created with Sketch.</desc>
    <g id="Page-1" stroke="none" stroke-width="1" fill="none" fill-rule="evenodd">
        <g id="camping8" transform="translate(-767.000000, -1193.000000)">
            <g id="Group" transform="translate(767.118753, 1193.579704)">
                <path d="M41.974247,434.540296 C53.098247,441.820296 68.015247,438.700296 75.292247,427.580296 L101.292247,387.830296 C108.571247,376.700296 105.452247,361.780296 94.326247,354.510296 C83.203247,347.230296 68.286247,350.350296 61.009247,361.480296 L35.006247,401.230296 C27.729247,412.350296 30.850247,427.270296 41.974247,434.540296" id="Fill-3" fill="#36433B"></path>
                <path d="M47.529247,398.840296 C54.414247,403.340296 63.646247,401.410296 68.149247,394.530296 C72.654247,387.640296 70.724247,378.410296 63.839247,373.900296 L49.546247,364.560296 C42.661247,360.050296 33.430247,361.980296 28.927247,368.870296 C24.422247,375.750296 26.351247,384.980296 33.237247,389.490296 L47.529247,398.840296" id="Fill-4" fill="#36433B"></path>
                <path d="M704.101247,142.990296 C704.101247,155.490296 714.241247,165.630296 726.741247,165.630296 C739.251247,165.630296 749.381247,155.490296 749.381247,142.990296 L749.381247,109.290296 C749.381247,96.7802956 739.251247,86.6402956 726.741247,86.6402956 C714.241247,86.6402956 704.101247,96.7802956 704.101247,109.290296 L704.101247,142.990296" id="Fill-5" fill="#36433B"></path>
                <path d="M1639.64125,1499.4703 C1415.38125,1528.1603 1258.51125,1470.8803 1075.45125,1414.8503 C845.071247,1344.3203 179.838247,849.780296 78.714247,728.410296 C16.035247,653.190296 -15.246753,575.500296 16.651247,491.450296 C43.504247,420.700296 118.674247,261.070296 335.891247,188.670296 C502.541247,133.120296 651.791247,126.140296 803.231247,126.140296 C1073.10125,126.140296 1973.97125,490.580296 2155.88125,583.600296 C2326.68125,670.950296 2444.55125,776.370296 2461.95125,899.550296 C2477.09125,1006.7303 2425.75125,1199.0403 2277.65125,1264.8703 C2121.91125,1334.0803 1821.67125,1476.2003 1639.64125,1499.4703" id="Fill-6" fill="#36433B"></path>
                <path d="M1596.63125,1379.3603 C1391.61125,1405.5803 1255.87125,1384.4903 1092.85125,1320.8103 C882.221247,1238.5403 171.630247,780.130296 79.182247,669.170296 C21.881247,600.400296 3.94524696,541.960296 33.106247,465.120296 C57.657247,400.440296 126.380247,254.510296 324.951247,188.320296 C477.311247,137.530296 693.531247,123.840296 831.981247,123.840296 C1078.70125,123.840296 2016.05125,502.630296 2182.35125,587.670296 C2338.51125,667.530296 2446.27125,763.900296 2462.17125,876.510296 C2476.01125,974.490296 2464.63125,1093.7303 2297.40125,1166.1303 C2154.42125,1228.0403 1763.04125,1358.0803 1596.63125,1379.3603" id="Fill-7" fill="#6B896D"></path>
                <path d="M1662.21125,846.890296 C1596.96125,863.170296 1400.41125,894.340296 1329.81125,886.390296 C1183.76125,869.930296 832.851247,665.880296 750.571247,619.810296 C668.291247,573.730296 381.961247,451.960296 378.671247,389.430296 C375.381247,326.900296 609.051247,244.980296 819.681247,247.910296 C1061.02125,251.270296 1509.51125,432.770296 1654.32125,493.120296 C1799.13125,553.460296 2024.23125,619.810296 2001.20125,682.340296 C1973.79125,756.710296 1765.89125,821.030296 1662.21125,846.890296" id="Fill-8" fill="#45604D"></path>
                <path d="M464.271247,470.460296 C489.331247,503.150296 718.361247,602.390296 787.181247,640.930296 C795.451247,645.560296 806.971247,651.900296 821.061247,659.550296 C790.341247,642.340296 765.831247,628.350296 750.571247,619.810296 C696.901247,589.750296 556.391247,527.480296 464.271247,470.460296 Z M1596.89125,860.300296 C1588.55125,861.790296 1579.82125,863.300296 1570.82125,864.800296 C1570.83125,864.800296 1570.84125,864.800296 1570.85125,864.800296 C1579.31125,863.510296 1588.01125,862.000296 1596.89125,860.300296 L1596.89125,860.300296 Z" id="Fill-9" fill="#46584A"></path>
                <path d="M783.981247,379.490296 C787.101247,379.490296 790.231247,379.510296 793.361247,379.550296 C995.251247,382.360296 1402.84125,581.420296 1523.98125,631.910296 C1645.13125,682.390296 1854.76125,785.100296 1854.76125,785.100296 C1854.76125,785.100296 1711.56125,838.330296 1596.89125,860.300296 C1588.55125,861.790296 1579.82125,863.300296 1570.82125,864.800296 C1532.99125,870.550296 1442.81125,883.100296 1364.50125,883.100296 C1327.59125,883.100296 1293.33125,880.310296 1268.42125,872.720296 C1164.93125,841.170296 924.271247,715.530296 821.061247,659.550296 C790.341247,642.340296 765.831247,628.350296 750.571247,619.810296 C696.901247,589.750296 556.391247,527.480296 464.271247,470.460296 C464.271247,470.450296 464.261247,470.450296 464.261247,470.440296 C444.901247,445.130296 611.081247,379.490296 783.981247,379.490296" id="Fill-10" fill="#3B4B41"></path>
                <path d="M250.321247,275.880296 C250.321247,275.880296 197.661247,349.930296 250.321247,399.300296 C302.981247,448.670296 1102.01125,983.320296 1267.27125,1004.8703 C1318.56125,1011.5503 1367.75125,1014.2903 1413.86125,1014.2903 C1621.62125,1014.2903 1767.53125,958.790296 1767.53125,958.790296 C1767.53125,958.790296 1569.66125,1068.4503 1350.38125,1068.4503 C1312.01125,1068.4503 1272.99125,1065.0903 1234.25125,1057.2003 C1074.30125,1024.6303 262.001247,459.110296 226.917247,428.920296 C135.131247,349.930296 250.321247,275.880296 250.321247,275.880296" id="Fill-11" fill="#A3B5A3"></path>
                <path d="M1492.97125,872.120296 C1452.18125,878.140296 1328.22125,894.640296 1271.17125,877.760296 C1184.92125,852.250296 968.731247,740.220296 918.251247,712.790296 C867.771247,685.350296 578.511247,549.970296 560.191247,526.710296 C545.741247,508.370296 644.381247,498.720296 773.611247,500.460296 C921.671247,502.460296 1341.82125,708.870296 1430.66125,744.800296 C1519.51125,780.730296 1662.21125,846.890296 1662.21125,846.890296 C1662.21125,846.890296 1579.27125,859.380296 1492.97125,872.120296" id="Fill-12" fill="#242C28"></path>
                <polyline id="Fill-13" fill="#EC982E" points="909.901247 707.580296 1579.93125 488.160296 1412.09125 422.340296 745.631247 628.030296 909.901247 707.580296"></polyline>
                <polyline id="Fill-14" fill="#95442A" points="1579.93125 530.950296 1579.93125 488.160296 904.961247 705.930296 968.111247 738.040296 1579.93125 530.950296"></polyline>
                <path d="M1039.82125,1115.1403 C1035.19125,1144.6403 1047.03125,1171.0003 1066.27125,1174.0203 C1085.51125,1177.0403 1104.86125,1155.5803 1109.49125,1126.0803 C1114.12125,1096.5803 1102.28125,1070.2103 1083.04125,1067.2003 C1063.80125,1064.1703 1044.45125,1085.6403 1039.82125,1115.1403" id="Fill-15" fill="#242C28"></path>
                <path d="M1039.76125,1112.1003 C1036.16125,1135.0003 1045.36125,1155.4803 1060.30125,1157.8203 C1075.24125,1160.1603 1090.26125,1143.5003 1093.85125,1120.6003 C1097.45125,1097.6903 1088.25125,1077.2203 1073.32125,1074.8803 C1058.38125,1072.5303 1043.35125,1089.2003 1039.76125,1112.1003" id="Fill-16" fill="#36433B"></path>
                <path d="M235.741247,596.840296 C225.420247,618.610296 228.562247,641.720296 242.761247,648.460296 C256.971247,655.190296 276.851247,643.000296 287.171247,621.220296 C297.491247,599.450296 294.351247,576.330296 280.151247,569.600296 C265.951247,562.870296 246.071247,575.060296 235.741247,596.840296" id="Fill-17" fill="#242C28"></path>
                <path d="M236.391247,594.470296 C228.374247,611.380296 230.816247,629.320296 241.841247,634.550296 C252.871247,639.780296 268.301247,630.310296 276.321247,613.400296 C284.331247,596.500296 281.891247,578.560296 270.871247,573.330296 C259.841247,568.100296 244.401247,577.570296 236.391247,594.470296" id="Fill-18" fill="#36433B"></path>
                <path d="M1965.05125,1101.9803 C1946.90125,1058.8803 1981.05125,1003.3703 2041.32125,977.990296 C2101.58125,952.610296 2165.15125,966.970296 2183.30125,1010.0703 C2194.78125,1037.3403 2190.25125,1067.9203 2166.50125,1094.3503 C2160.62125,1118.5603 2153.23125,1150.6803 2130.09125,1160.4203 C2106.95125,1170.1603 2073.00125,1154.2403 2051.58125,1141.5303 C2016.08125,1140.0503 1976.54125,1129.2503 1965.05125,1101.9803" id="Fill-19" fill="#36433B"></path>
                <path d="M2091.45125,1126.0703 C2096.83125,1138.8303 2111.53125,1144.8203 2124.29125,1139.4403 C2137.05125,1134.0703 2143.04125,1119.3703 2137.66125,1106.6103 C2132.29125,1093.8503 2117.59125,1087.8603 2104.83125,1093.2303 C2092.07125,1098.6003 2086.08125,1113.3003 2091.45125,1126.0703" id="Fill-20" fill="#242C28"></path>
                <path d="M2170.25125,1026.8903 C2170.25125,1026.8903 2169.81125,1026.1803 2168.81125,1024.9303 C2167.78125,1023.7303 2166.26125,1021.9203 2164.02125,1019.9403 C2162.89125,1018.9503 2161.64125,1017.8203 2160.16125,1016.7803 C2159.43125,1016.2503 2158.66125,1015.6803 2157.86125,1015.1003 C2157.05125,1014.5403 2156.17125,1014.0403 2155.27125,1013.4803 C2154.37125,1012.9203 2153.44125,1012.3503 2152.45125,1011.8003 C2151.44125,1011.3003 2150.40125,1010.7903 2149.34125,1010.2603 C2148.26125,1009.7503 2147.17125,1009.1503 2145.99125,1008.7303 C2144.82125,1008.2803 2143.61125,1007.8303 2142.38125,1007.3703 C2137.43125,1005.5703 2131.84125,1004.2303 2125.82125,1003.4403 C2125.07125,1003.3203 2124.31125,1003.2103 2123.55125,1003.1003 C2122.79125,1003.0303 2122.02125,1003.0103 2121.24125,1002.9603 C2119.69125,1002.8903 2118.12125,1002.8103 2116.53125,1002.7303 C2115.73125,1002.6903 2114.93125,1002.6603 2114.12125,1002.6203 C2113.32125,1002.6003 2112.52125,1002.6803 2111.71125,1002.7103 C2110.09125,1002.8003 2108.46125,1002.8903 2106.81125,1002.9803 C2103.48125,1003.0303 2100.22125,1003.6703 2096.87125,1004.1903 C2095.20125,1004.4603 2093.52125,1004.7403 2091.83125,1005.0203 C2090.18125,1005.4403 2088.53125,1005.8703 2086.87125,1006.3003 C2085.21125,1006.7403 2083.55125,1007.1803 2081.88125,1007.6203 C2080.18125,1008.0103 2078.57125,1008.6103 2076.95125,1009.2203 C2073.72125,1010.4103 2070.47125,1011.6103 2067.22125,1012.8103 C2064.13125,1014.2803 2061.05125,1015.7503 2057.98125,1017.2103 L2055.76125,1018.2803 L2053.45125,1019.6603 C2051.92125,1020.5803 2050.40125,1021.5003 2048.88125,1022.4203 C2047.39125,1023.3603 2045.79125,1024.1903 2044.43125,1025.2303 C2043.06125,1026.2603 2041.70125,1027.2903 2040.34125,1028.3103 C2038.99125,1029.3403 2037.66125,1030.3603 2036.33125,1031.3703 C2035.07125,1032.4903 2033.86125,1033.6303 2032.64125,1034.7503 C2031.44125,1035.8803 2030.24125,1036.9903 2029.06125,1038.0903 C2027.93125,1039.2603 2026.88125,1040.4803 2025.83125,1041.6703 C2024.78125,1042.8603 2023.75125,1044.0403 2022.73125,1045.2103 C2021.77125,1046.4203 2020.87125,1047.6703 2019.99125,1048.9003 C2019.11125,1050.1203 2018.25125,1051.3303 2017.39125,1052.5203 C2016.63125,1053.7703 2015.88125,1055.0003 2015.17125,1056.2303 C2014.46125,1057.4603 2013.74125,1058.6403 2013.10125,1059.8403 C2012.51125,1061.0703 2011.93125,1062.2703 2011.37125,1063.4503 C2010.83125,1064.6503 2010.24125,1065.7703 2009.80125,1066.9403 C2009.36125,1068.1103 2008.93125,1069.2503 2008.51125,1070.3603 C2007.65125,1072.5603 2007.07125,1074.7403 2006.51125,1076.7603 C2005.43125,1080.8103 2004.86125,1084.4303 2004.54125,1087.3903 C2004.23125,1090.3603 2004.26125,1092.7103 2004.27125,1094.2903 C2004.33125,1095.8803 2004.45125,1096.7103 2004.45125,1096.7103 C2004.45125,1096.7103 2004.51125,1096.5103 2004.63125,1096.1203 C2004.76125,1095.7403 2004.95125,1095.1703 2005.21125,1094.4303 C2005.72125,1092.9603 2006.59125,1090.8403 2007.74125,1088.2303 C2008.94125,1085.6303 2010.44125,1082.5203 2012.41125,1079.1403 C2013.43125,1077.4703 2014.38125,1075.6503 2015.66125,1073.8703 C2016.26125,1072.9703 2016.87125,1072.0403 2017.50125,1071.0903 C2018.11125,1070.1403 2018.88125,1069.2503 2019.58125,1068.3003 C2020.28125,1067.3603 2021.00125,1066.4003 2021.73125,1065.4203 C2022.51125,1064.4703 2023.36125,1063.5503 2024.18125,1062.5903 C2025.00125,1061.6403 2025.82125,1060.6603 2026.67125,1059.6803 C2027.59125,1058.7603 2028.52125,1057.8203 2029.47125,1056.8803 C2030.40125,1055.9303 2031.35125,1054.9703 2032.31125,1054.0003 C2033.34125,1053.1003 2034.38125,1052.2003 2035.44125,1051.2803 C2036.48125,1050.3603 2037.54125,1049.4403 2038.60125,1048.5003 C2039.74125,1047.6503 2040.89125,1046.7803 2042.05125,1045.9103 C2043.20125,1045.0403 2044.38125,1044.1803 2045.52125,1043.2703 C2046.76125,1042.4703 2048.00125,1041.6703 2049.26125,1040.8603 C2050.51125,1040.0503 2051.76125,1039.2403 2053.02125,1038.4203 C2054.26125,1037.5603 2055.60125,1036.9703 2056.88125,1036.2303 C2058.17125,1035.5203 2059.46125,1034.8003 2060.76125,1034.0903 L2062.71125,1033.0003 L2064.94125,1031.9703 C2067.82125,1030.6403 2070.70125,1029.3103 2073.59125,1027.9703 C2079.45125,1025.7703 2085.25125,1023.2903 2091.14125,1021.6603 C2092.60125,1021.2003 2094.06125,1020.7403 2095.51125,1020.2803 C2096.98125,1019.9403 2098.44125,1019.5903 2099.89125,1019.2403 C2102.79125,1018.5803 2105.66125,1017.7803 2108.52125,1017.4303 C2114.22125,1016.4103 2119.79125,1015.8803 2125.09125,1015.7603 C2127.73125,1015.7903 2130.36125,1015.6003 2132.83125,1015.8803 C2135.32125,1016.0703 2137.78125,1016.1503 2140.07125,1016.5803 C2141.23125,1016.7403 2142.37125,1016.9103 2143.49125,1017.0603 C2144.61125,1017.2103 2145.65125,1017.5403 2146.71125,1017.7403 C2147.78125,1017.9703 2148.81125,1018.1903 2149.81125,1018.4103 C2150.79125,1018.6903 2151.75125,1018.9703 2152.67125,1019.2403 C2153.60125,1019.5203 2154.53125,1019.7503 2155.38125,1020.0503 C2156.24125,1020.3603 2157.07125,1020.6603 2157.86125,1020.9503 C2159.49125,1021.4703 2160.89125,1022.1503 2162.21125,1022.6903 C2164.82125,1023.8403 2166.85125,1024.8703 2168.20125,1025.6503 C2169.53125,1026.4203 2170.25125,1026.8903 2170.25125,1026.8903" id="Fill-21" fill="#242C28"></path>
                <path d="M312.101247,1597.4403 C323.421247,1561.2703 324.581247,1403.9303 324.581247,1403.9303 L283.621247,1383.0803 C283.621247,1383.0803 157.071247,1476.5703 134.483247,1507.0103 C100.235247,1553.1303 -17.772753,1755.5403 2.27724696,1792.1403 C22.326247,1828.7403 69.244247,1854.7803 69.244247,1854.7803 C69.244247,1854.7803 117.902247,1877.4103 159.293247,1872.0803 C200.682247,1866.7603 294.941247,1652.2703 312.101247,1597.4403" id="Fill-22" fill="#D94C2F"></path>
                <polyline id="Fill-23" fill="#1A343D" points="831.131247 338.410296 875.511247 361.000296 307.171247 1442.3503 262.801247 1419.7603 831.131247 338.410296"></polyline>
                <path d="M925.061247,316.370296 C929.671247,299.930296 889.911247,271.430296 889.911247,271.430296 C881.101247,268.360296 845.341247,256.990296 834.761247,270.390296 C822.661247,285.720296 816.951247,362.340296 816.951247,362.340296 L861.181247,384.850296 C861.181247,384.850296 919.781247,335.170296 925.061247,316.370296" id="Fill-24" fill="#EC982E"></path>
                <polyline id="Fill-25" fill="#36433B" points="698.621247 826.420296 594.641247 720.720296 617.081247 687.780296 757.641247 774.440296 698.621247 826.420296"></polyline>
                <path d="M326.591247,1406.6703 L167.345247,1713.1503 C160.371247,1726.6003 143.817247,1731.8403 130.373247,1724.8703 C116.938247,1717.8903 111.691247,1701.3503 118.664247,1687.9003 L281.311247,1382.3003 L326.591247,1406.6703" id="Fill-26" fill="#9B2D31"></path>
                <path d="M131.103247,1724.9603 L131.105247,1724.9603 C144.544247,1731.9303 161.093247,1726.6903 168.069247,1713.2403 L326.061247,1408.2303 L305.251247,1395.6903 L131.103247,1724.9603" id="Fill-27" fill="#C23935"></path>
                <path d="M1716.38125,1175.4403 C1725.42125,1175.4403 1732.14125,1178.2003 1735.93125,1185.0103 C1754.40125,1218.2103 1716.18125,1276.4203 1558.23125,1276.4203 C1469.37125,1276.4203 1411.09125,1253.1003 1420.69125,1225.9703 C1420.69125,1225.9703 1436.57125,1229.8103 1469.98125,1229.8103 C1489.28125,1229.8103 1514.43125,1228.5303 1545.75125,1224.4903 C1613.47125,1215.7703 1681.83125,1175.4403 1716.38125,1175.4403" id="Fill-28" fill="#79937A"></path>
                <path d="M2220.98125,334.770296 C2183.25125,331.180296 2029.07125,362.580296 2029.07125,362.580296 L2017.14125,406.970296 C2017.14125,406.970296 2134.79125,511.440296 2169.24125,527.250296 C2221.45125,551.220296 2443.89125,624.810296 2475.55125,597.630296 C2507.21125,570.440296 2522.98125,519.150296 2522.98125,519.150296 C2522.98125,519.150296 2535.06125,466.870296 2521.29125,427.470296 C2507.52125,388.080296 2278.17125,340.220296 2220.98125,334.770296" id="Fill-29" fill="#D94C2F"></path>
                <polyline id="Fill-30" fill="#1A343D" points="881.821247 87.3602956 894.751247 39.2702956 2070.26125 371.670296 2057.33125 419.750296 881.821247 87.3602956"></polyline>
                <path d="M840.831247,0.0202956209 C823.791247,-1.08970438 804.141247,43.7002956 804.141247,43.7002956 C802.961247,52.9602956 799.231247,90.3002956 814.531247,97.8802956 C832.031247,106.550296 908.171247,96.2802956 908.171247,96.2802956 L921.051247,48.3502956 C921.051247,48.3502956 860.321247,1.29029562 840.831247,0.0202956209" id="Fill-31" fill="#EC982E"></path>
                <polyline id="Fill-32" fill="#36433B" points="1567.12125 191.110296 1574.92125 354.320296 1512.38125 312.240296 1527.53125 186.530296 1567.12125 191.110296"></polyline>
                <path d="M2031.34125,360.050296 L2364.13125,452.470296 C2378.73125,456.510296 2387.28125,471.620296 2383.24125,486.210296 C2379.19125,500.800296 2364.09125,509.360296 2349.49125,505.320296 L2016.86125,409.390296 L2031.34125,360.050296" id="Fill-33" fill="#9B2D31"></path>
                <path d="M2383.17125,485.480296 L2383.17125,485.480296 C2387.22125,470.890296 2378.66125,455.780296 2364.07125,451.740296 L2032.97125,360.240296 L2025.01125,383.200296 L2383.17125,485.480296" id="Fill-34" fill="#C23936"></path>
            </g>
        </g>
    </g>
</svg>