<svg height="512pt" viewBox="-1 0 512 512" width="512pt" xmlns="http://www.w3.org/2000/svg"><path d="m254.207031 504.5c-78.378906 0-141.917969-63.539062-141.917969-141.917969v-213.164062c0-78.378907 63.539063-141.917969 141.917969-141.917969 78.378907 0 141.914063 63.539062 141.914063 141.917969v213.164062c.003906 78.378907-63.535156 141.917969-141.914063 141.917969zm0 0" fill="#ffbd48"/><path d="m254.207031 490.5c-70.535156 0-127.917969-57.382812-127.917969-127.917969v-213.164062c0-70.535157 57.382813-127.917969 127.917969-127.917969 70.53125 0 127.914063 57.382812 127.914063 127.917969v213.164062c.003906 70.535157-57.382813 127.917969-127.914063 127.917969zm0 0" fill="#ffdf4a"/><path d="m254.207031 448.5c-47.375 0-85.917969-38.542969-85.917969-85.917969v-213.164062c0-47.375 38.542969-85.917969 85.917969-85.917969s85.914063 38.542969 85.914063 85.917969v213.164062c.003906 47.375-38.539063 85.917969-85.914063 85.917969zm0 0" fill="#ffbd48"/><path d="m254.207031 434.5c-39.65625 0-71.917969-32.261719-71.917969-71.917969v-213.164062c0-39.65625 32.261719-71.917969 71.917969-71.917969 39.652344 0 71.914063 32.261719 71.914063 71.917969v213.164062c.003906 39.65625-32.261719 71.917969-71.914063 71.917969zm0 0" fill="#fe621d"/><path d="m254.207031 420.5c-31.9375 0-57.917969-25.980469-57.917969-57.917969v-213.164062c0-31.9375 25.980469-57.917969 57.917969-57.917969 31.933594 0 57.914063 25.980469 57.914063 57.917969v213.164062c.003906 31.9375-25.980469 57.917969-57.914063 57.917969zm0 0" fill="#f4810e"/><path d="m182.289062 298.101562h143.835938v54.039063h-143.835938zm0 0" fill="#3ad391"/><path d="m182.285156 298.101562h14v54.039063h-14zm0 0" fill="#2db37a"/><path d="m312.125 298.101562h14v54.039063h-14zm0 0" fill="#2db37a"/><path d="m182.289062 159.859375h143.835938v54.039063h-143.835938zm0 0" fill="#3ad391"/><path d="m182.285156 159.859375h14v54.039063h-14zm0 0" fill="#2db37a"/><path d="m312.125 159.859375h14v54.039063h-14zm0 0" fill="#2db37a"/><path d="m495.890625 351.128906h-38.117187c-9.335938 0-16.902344-7.566406-16.902344-16.898437v-18.21875c0-9.335938 7.566406-16.902344 16.902344-16.902344h38.117187c3.316406 0 6 2.6875 6 6v40.019531c0 3.3125-2.683594 6-6 6zm0 0" fill="#f4810e"/><path d="m394.265625 352.082031c-8.652344 0-15.664063-7.011719-15.664063-15.667969v-22.589843c0-8.652344 7.011719-15.667969 15.664063-15.667969s15.667969 7.015625 15.667969 15.667969v22.589843c0 8.652344-7.015625 15.667969-15.667969 15.667969zm0 0" fill="#2db37a"/><path d="m13.5 299.109375h38.121094c9.332031 0 16.898437 7.566406 16.898437 16.898437v18.222657c0 9.332031-7.566406 16.898437-16.898437 16.898437h-38.121094c-3.3125 0-6-2.6875-6-6v-40.019531c0-3.3125 2.6875-6 6-6zm0 0" fill="#f4810e"/><path d="m115.125 298.15625c8.652344 0 15.667969 7.015625 15.667969 15.667969v22.589843c0 8.652344-7.015625 15.667969-15.667969 15.667969s-15.667969-7.011719-15.667969-15.667969v-22.589843c0-8.652344 7.015625-15.667969 15.667969-15.667969zm0 0" fill="#2db37a"/><path d="m495.890625 212.890625h-38.117187c-9.335938 0-16.902344-7.566406-16.902344-16.898437v-18.222657c0-9.332031 7.566406-16.898437 16.902344-16.898437h38.117187c3.316406 0 6 2.6875 6 6v40.019531c0 3.3125-2.683594 6-6 6zm0 0" fill="#f4810e"/><path d="m394.265625 213.84375c-8.652344 0-15.664063-7.015625-15.664063-15.667969v-22.589843c0-8.652344 7.011719-15.667969 15.664063-15.667969s15.667969 7.011719 15.667969 15.667969v22.589843c0 8.652344-7.015625 15.667969-15.667969 15.667969zm0 0" fill="#2db37a"/><path d="m13.5 160.871094h38.121094c9.332031 0 16.898437 7.566406 16.898437 16.898437v18.21875c0 9.332031-7.566406 16.898438-16.898437 16.898438h-38.121094c-3.3125 0-6-2.683594-6-6v-40.015625c0-3.3125 2.6875-6 6-6zm0 0" fill="#f4810e"/><path d="m115.125 159.917969c8.652344 0 15.667969 7.011719 15.667969 15.667969v22.589843c0 8.652344-7.015625 15.667969-15.667969 15.667969s-15.667969-7.015625-15.667969-15.667969v-22.589843c0-8.65625 7.015625-15.667969 15.667969-15.667969zm0 0" fill="#2db37a"/><path d="m457.773438 220.390625h38.117187c7.445313 0 13.5-6.054687 13.5-13.5v-40.019531c0-7.445313-6.054687-13.5-13.5-13.5h-38.117187c-13.457032 0-24.402344 10.945312-24.402344 24.398437v1.609375h-15.9375v-3.792968c0-9.445313-5.683594-17.585938-13.808594-21.1875v-4.980469c0-82.390625-67.03125-149.417969-149.417969-149.417969-31.558593 0-61.734375 9.726562-87.269531 28.132812-3.359375 2.421876-4.121094 7.105469-1.699219 10.46875 2.421875 3.359376 7.109375 4.121094 10.46875 1.699219 22.964844-16.550781 50.109375-25.300781 78.5-25.300781 74.117188 0 134.414063 60.300781 134.414063 134.417969v3.695312c-10.054688 2.527344-17.519532 11.644531-17.519532 22.472657v3.792968h-37.480468v-29.960937c0-21.824219-8.847656-41.617188-23.144532-55.984375l7.933594-7.9375c2.929688-2.925782 2.929688-7.675782 0-10.605469-2.929687-2.925781-7.679687-2.925781-10.605468 0l-8.914063 8.914063c-10.792969-7.375-23.488281-12.152344-37.183594-13.441407v-12.875c0-4.144531-3.359375-7.5-7.5-7.5s-7.5 3.355469-7.5 7.5v12.875c-13.695312 1.289063-26.390625 6.066407-37.183593 13.441407l-8.914063-8.914063c-2.929687-2.925781-7.675781-2.925781-10.605469 0-2.929687 2.929687-2.929687 7.679687 0 10.605469l7.933594 7.9375c-14.296875 14.367187-23.148438 34.160156-23.148438 55.984375v29.960937h-36.496093v-3.792968c0-11.179688-7.953125-20.53125-18.503907-22.695313v-3.472656c0-31.808594 11.324219-62.671875 31.882813-86.902344 2.679687-3.160156 2.289063-7.890625-.867187-10.570313-3.160157-2.679687-7.894532-2.292968-10.574219.867188-22.851563 26.9375-35.4375 61.246094-35.4375 96.605469v5.441406c-7.601563 3.804687-12.832031 11.664063-12.832031 20.726563v3.792968h-15.941407v-1.609375c0-13.453125-10.945312-24.398437-24.398437-24.398437h-38.121094c-7.445312 0-13.5 6.054687-13.5 13.5v40.019531c0 7.445313 6.054688 13.5 13.5 13.5h38.121094c13.453125 0 24.398437-10.945313 24.398437-24.398437v-1.609376h15.9375v3.792969c0 9.0625 5.234375 16.917969 12.832031 20.726563v74.199218c-7.597656 3.804688-12.832031 11.660157-12.832031 20.722657v3.796875h-15.9375v-1.609375c0-13.457031-10.945312-24.402344-24.398437-24.402344h-38.121094c-7.445312 0-13.5 6.058594-13.5 13.5v40.019531c0 7.445313 6.054688 13.5 13.5 13.5h38.121094c13.453125 0 24.398437-10.945312 24.398437-24.398437v-1.609375h15.9375v3.796875c0 9.058593 5.234375 16.917969 12.832031 20.722656v5.445313c0 82.386718 67.027344 149.414062 149.417969 149.414062 82.386719 0 149.414063-67.027344 149.414063-149.417969v-4.980469c8.125-3.601562 13.8125-11.738281 13.8125-21.1875v-3.792968h15.9375v1.609375c0 13.453125 10.945312 24.398437 24.398437 24.398437h38.121094c7.445313 0 13.5-6.054687 13.5-13.5v-40.019531c0-7.445313-6.054687-13.5-13.5-13.5h-38.121094c-13.453125 0-24.398437 10.945313-24.398437 24.398437v1.609376h-15.9375v-3.792969c0-9.445313-5.6875-17.585938-13.8125-21.1875v-20.375c0-4.144531-3.355469-7.5-7.5-7.5-4.140625 0-7.5 3.355469-7.5 7.5v19.09375c-10.054688 2.527343-17.519532 11.640625-17.519532 22.46875v3.796875h-37.480468v-123.242188h37.480468v3.796875c0 10.828125 7.464844 19.941407 17.519532 22.46875v17.09375c0 4.140625 3.359375 7.5 7.5 7.5 4.144531 0 7.5-3.359375 7.5-7.5v-18.378906c8.125-3.601563 13.8125-11.738281 13.8125-21.183594v-3.796875h15.9375v1.609375c0 13.457031 10.945312 24.402344 24.402344 24.402344zm-396.753907-24.402344c0 5.183594-4.21875 9.402344-9.398437 9.402344h-36.621094v-37.019531h36.621094c5.183594 0 9.398437 4.214844 9.398437 9.398437v1.609375h-13.5c-4.140625 0-7.5 3.359375-7.5 7.5s3.359375 7.5 7.5 7.5h13.5zm0 138.242188c0 5.183593-4.21875 9.398437-9.398437 9.398437h-36.621094v-37.019531h36.621094c5.183594 0 9.398437 4.214844 9.398437 9.398437v1.609376h-13.5c-4.140625 0-7.5 3.359374-7.5 7.5 0 4.144531 3.359375 7.5 7.5 7.5h13.5zm387.351563-18.222657c0-5.183593 4.21875-9.398437 9.402344-9.398437h36.617187v37.019531h-36.617187c-5.183594 0-9.402344-4.21875-9.402344-9.398437v-1.609375h13.5c4.144531 0 7.5-3.359375 7.5-7.5 0-4.144532-3.355469-7.5-7.5-7.5h-13.5zm-166.5-121.628906h36.753906v12.019532h-128.835938v-12.019532h37.730469c4.140625 0 7.5-3.355468 7.5-7.5 0-4.140625-3.359375-7.5-7.5-7.5h-37.730469v-12.019531h128.835938v12.019531h-36.753906c-4.140625 0-7.5 3.359375-7.5 7.5 0 4.144532 3.359375 7.5 7.5 7.5zm-27.664063 232.621094c-35.519531 0-64.417969-28.898438-64.417969-64.417969v-2.941406h128.835938v2.941406c0 35.519531-28.898438 64.417969-64.417969 64.417969zm27.664063-94.378906h36.753906v12.019531h-128.835938v-12.019531h37.730469c4.140625 0 7.5-3.359375 7.5-7.5 0-4.144532-3.359375-7.5-7.5-7.5h-37.730469v-12.019532h128.835938v12.019532h-36.753906c-4.140625 0-7.5 3.355468-7.5 7.5 0 4.140625 3.359375 7.5 7.5 7.5zm-27.664063-247.621094c35.519531 0 64.414063 28.898438 64.414063 64.417969v2.941406h-128.832032v-2.941406c0-35.519531 28.898438-64.417969 64.417969-64.417969zm-79.417969 109.378906v40.359375c0 4.144531 3.359376 7.5 7.5 7.5 4.140626 0 7.5-3.355469 7.5-7.5v-13.339843h128.835938v69.203124h-128.835938v-21.339843c0-4.140625-3.359374-7.5-7.5-7.5-4.140624 0-7.5 3.359375-7.5 7.5v48.359375h-36.496093v-3.796875c0-11.175781-7.957031-20.53125-18.503907-22.695313v-70.257812c10.546876-2.164063 18.503907-11.515625 18.503907-22.695313v-3.792969h36.496093zm-59.664062 150.203125c-4.503906 0-8.167969-3.664062-8.167969-8.167969v-22.589843c0-4.503907 3.664063-8.167969 8.167969-8.167969s8.167969 3.664062 8.167969 8.167969v22.589843c0 4.503907-3.664063 8.167969-8.167969 8.167969zm8.167969-168.996093v22.589843c0 4.503907-3.664063 8.167969-8.167969 8.167969s-8.167969-3.664062-8.167969-8.167969v-22.589843c0-4.503907 3.664063-8.167969 8.167969-8.167969s8.167969 3.664062 8.167969 8.167969zm262.808593 138.238281c0-4.503907 3.664063-8.167969 8.164063-8.167969 4.503906 0 8.167969 3.664062 8.167969 8.167969v22.589843c0 4.503907-3.664063 8.167969-8.167969 8.167969-4.5 0-8.164063-3.664062-8.164063-8.167969zm-15 18.796875v3.792968c0 10.828126 7.464844 19.945313 17.519532 22.46875v3.699219c.003906 74.117188-60.296875 134.417969-134.414063 134.417969-74.117187 0-134.417969-60.300781-134.417969-134.417969v-3.472656c10.546876-2.164063 18.503907-11.515625 18.503907-22.695313v-3.792968h36.496093v29.960937c0 21.824219 8.851563 41.617188 23.148438 55.984375l-7.933594 7.9375c-2.929687 2.925782-2.929687 7.675782 0 10.605469 1.460938 1.460937 3.382813 2.195313 5.300782 2.195313 1.917968 0 3.839843-.730469 5.304687-2.195313l8.910156-8.914063c10.792969 7.375 23.488281 12.152344 37.183594 13.441407v12.875c0 4.144531 3.359375 7.5 7.5 7.5 4.144531 0 7.5-3.355469 7.5-7.5v-12.875c13.699219-1.289063 26.394531-6.066407 37.1875-13.441407l8.910156 8.914063c1.464844 1.460937 3.386719 2.195313 5.304688 2.195313s3.839843-.730469 5.300781-2.195313c2.929688-2.929687 2.929688-7.679687 0-10.605469l-7.933594-7.9375c14.296875-14.367187 23.148438-34.160156 23.148438-55.984375v-29.960937zm15-134.445313v-22.589843c0-4.503907 3.664063-8.167969 8.164063-8.167969 4.503906 0 8.167969 3.664062 8.167969 8.167969v22.589843c0 4.503907-3.664063 8.167969-8.167969 8.167969-4.5 0-8.164063-3.664062-8.164063-8.167969zm62.269532-20.40625c0-5.183593 4.21875-9.398437 9.402344-9.398437h36.617187v37.019531h-36.617187c-5.183594 0-9.402344-4.21875-9.402344-9.398437v-1.609376h13.5c4.144531 0 7.5-3.359374 7.5-7.5 0-4.144531-3.355469-7.5-7.5-7.5h-13.5zm0 0"/></svg>