<?xml version="1.0" encoding="UTF-8"?>
<svg width="516px" height="258px" viewBox="0 0 516 258" version="1.1" xmlns="http://www.w3.org/2000/svg" xmlns:xlink="http://www.w3.org/1999/xlink">
    <!-- Generator: Sketch 55.2 (78181) - https://sketchapp.com -->
    <title>Group 2</title>
    <desc>Created with Sketch.</desc>
    <g id="Page-1" stroke="none" stroke-width="1" fill="none" fill-rule="evenodd">
        <g id="Artboard" transform="translate(-167.000000, -240.000000)" fill-rule="nonzero">
            <g id="Group-2" transform="translate(167.000000, 240.000000)">
                <g id="pill-(3)">
                    <path d="M234.2,23.9 C258.2,47.9 258.2,87.1 234.2,111.1 L111,234.3 C87,258.3 47.8,258.3 23.8,234.3 L23.8,234.3 C-0.2,210.3 -0.2,171.1 23.8,147.1 L146.6,24.3 C171,-0.1 209.8,-0.1 234.2,23.9 L234.2,23.9 Z" id="Path" fill="#F3FAFF"></path>
                    <path d="M85,85.5 L23.8,147.1 C-0.2,171.1 -0.2,210.3 23.8,234.3 C47.8,258.3 87,258.3 111,234.3 L172.2,173.1 L85,85.5 Z" id="Path" fill="#5593F5"></path>
                    <g id="Group" fill="#30323A">
                        <path d="M257.8,67.5 C257.8,49.5 250.6,32.7 238.2,19.9 C225.4,7.1 208.6,0.3 190.6,0.3 C172.6,0.3 155.8,7.5 143,19.9 L19.8,142.7 C-6.6,169.1 -6.6,211.9 19.8,237.9 C32.6,250.7 49.4,257.5 67.4,257.5 C85.4,257.5 102.2,250.3 115,237.9 L176.6,176.3 L176.6,176.3 L176.6,176.3 L238.2,114.7 C251,102.7 257.8,85.5 257.8,67.5 Z M107,230.3 C96.6,240.7 82.2,246.7 67.4,246.7 C52.6,246.7 38.2,240.7 27.8,230.3 C5.8,208.3 5.8,173.1 27.8,151.1 L85.4,93.5 C85.8,93.9 85.8,94.3 86.2,94.7 L164.6,173.1 L107,230.3 Z M172.6,164.7 L94.2,86.3 C93.8,85.9 93.4,85.9 93,85.5 L150.6,27.9 C161,17.5 175.4,11.5 190.2,11.5 C205,11.5 219.4,17.5 229.8,27.9 C240.2,38.3 246.2,52.7 246.2,67.5 C246.2,82.3 240.2,96.7 229.8,107.1 L172.6,164.7 Z" id="Shape"></path>
                        <path d="M153.8,43.5 C151.4,45.9 151.4,49.5 153.8,51.5 C156.2,53.9 159.8,53.9 161.8,51.5 C176.6,36.7 201,36.7 216.2,51.5 C217.4,52.7 218.6,53.1 220.2,53.1 C221.8,53.1 223,52.7 224.2,51.5 C226.6,49.1 226.6,45.5 224.2,43.5 C204.6,24.3 173,24.3 153.8,43.5 Z" id="Path"></path>
                    </g>
                </g>
                <g id="pill-(2)" transform="translate(258.000000, 0.000000)">
                    <path d="M234.2,23.9 C258.2,47.9 258.2,87.1 234.2,111.1 L111,234.3 C87,258.3 47.8,258.3 23.8,234.3 L23.8,234.3 C-0.2,210.3 -0.2,171.1 23.8,147.1 L146.6,24.3 C171,-0.1 209.8,-0.1 234.2,23.9 L234.2,23.9 Z" id="Path" fill="#F3FAFF"></path>
                    <path d="M85,85.5 L23.8,147.1 C-0.2,171.1 -0.2,210.3 23.8,234.3 C47.8,258.3 87,258.3 111,234.3 L172.2,173.1 L85,85.5 Z" id="Path" fill="#F55557"></path>
                    <g id="Group" fill="#30323A">
                        <path d="M257.8,67.5 C257.8,49.5 250.6,32.7 238.2,19.9 C225.4,7.1 208.6,0.3 190.6,0.3 C172.6,0.3 155.8,7.5 143,19.9 L19.8,142.7 C-6.6,169.1 -6.6,211.9 19.8,237.9 C32.6,250.7 49.4,257.5 67.4,257.5 C85.4,257.5 102.2,250.3 115,237.9 L176.6,176.3 L176.6,176.3 L176.6,176.3 L238.2,114.7 C251,102.7 257.8,85.5 257.8,67.5 Z M107,230.3 C96.6,240.7 82.2,246.7 67.4,246.7 C52.6,246.7 38.2,240.7 27.8,230.3 C5.8,208.3 5.8,173.1 27.8,151.1 L85.4,93.5 C85.8,93.9 85.8,94.3 86.2,94.7 L164.6,173.1 L107,230.3 Z M172.6,164.7 L94.2,86.3 C93.8,85.9 93.4,85.9 93,85.5 L150.6,27.9 C161,17.5 175.4,11.5 190.2,11.5 C205,11.5 219.4,17.5 229.8,27.9 C240.2,38.3 246.2,52.7 246.2,67.5 C246.2,82.3 240.2,96.7 229.8,107.1 L172.6,164.7 Z" id="Shape"></path>
                        <path d="M153.8,43.5 C151.4,45.9 151.4,49.5 153.8,51.5 C156.2,53.9 159.8,53.9 161.8,51.5 C176.6,36.7 201,36.7 216.2,51.5 C217.4,52.7 218.6,53.1 220.2,53.1 C221.8,53.1 223,52.7 224.2,51.5 C226.6,49.1 226.6,45.5 224.2,43.5 C204.6,24.3 173,24.3 153.8,43.5 Z" id="Path"></path>
                    </g>
                </g>
            </g>
        </g>
    </g>
</svg>