<svg id="_x33_0" enable-background="new 0 0 64 64" height="512" viewBox="0 0 64 64" width="512" xmlns="http://www.w3.org/2000/svg"><g><g><g><path d="m18 58v4h-14c1.32-2.63 2-5.53 2-8.47v-2.83c.41.61.88 1.18 1.41 1.71l2.05 2.05c1.14 1.14 2.47 2.02 3.92 2.62s3.02.92 4.62.92z" fill="#ff826e"/></g><g><path d="m18.68 49.99c1.53-.04 3-.67 4.09-1.76l5 5-1.23 1.23c-2.27 2.27-5.34 3.54-8.54 3.54-1.6 0-3.17-.32-4.62-.92s-2.78-1.48-3.92-2.62l-2.05-2.05c-.53-.53-1-1.1-1.41-1.71-1.29-1.91-2-4.18-2-6.52 0-1.65.35-3.26 1.01-4.73.57-1.29 1.37-2.47 2.38-3.48.15-.15.3-.3.46-.44l1.49-1.34.29 1c.81 2.85 3.41 4.81 6.37 4.81l2.37 2.37c1.04 1.04 1.63 2.46 1.63 3.94 0 1.1-.33 2.18-.94 3.1z" fill="#ff826e"/></g><g><path d="m9.52 28.52 2.76 2.76c-.36.5-.78.97-1.25 1.4l-1.69 1.51-1.49 1.34c-.16.14-.31.29-.46.44-1.51-.15-2.86-.85-3.83-1.91s-1.56-2.47-1.56-4.02c0-2.44 1.48-4.63 3.75-5.54l.97-.39c.06.17.13.34.2.51.6 1.45 1.48 2.78 2.6 3.9z" fill="#656d78"/></g><g><path d="m30 15.15c0 1.34-.54 2.55-1.42 3.43-.18.18-.37.35-.58.49-.8.59-1.78.93-2.85.93-.76 0-1.5-.18-2.17-.51l-2.32-1.16c-.43-.22-.91-.33-1.4-.33-1.35 0-2.55.86-2.97 2.14l-.29.86-.17-.17c-.53-.53-1.25-.83-2-.83-.78 0-1.49.32-2 .83s-.83 1.22-.83 2c0 1.3.83 2.45 2.06 2.86l.94.31c0 1.92-.61 3.76-1.72 5.28l-2.76-2.76c-1.12-1.12-2-2.45-2.6-3.9-.07-.17-.14-.34-.2-.51-.47-1.29-.72-2.68-.72-4.09 0-6.64 5.38-12.02 12.02-12.02h4.83c1.97 0 3.76.8 5.06 2.09 1.29 1.3 2.09 3.09 2.09 5.06z" fill="#656d78"/></g><g><path d="m37 4c3.3-1.32 6.83-2 10.39-2h1.46c3.63 0 6.92 1.47 9.3 3.85s3.85 5.67 3.85 9.3c0 4.29-2.09 8.32-5.61 10.78l-4.39 3.07v-5l2.67-2c.84-.63 1.33-1.62 1.33-2.67 0-.92-.37-1.75-.98-2.35-.6-.61-1.43-.98-2.35-.98h-.67c0-1.1-.45-2.1-1.17-2.83-.73-.72-1.73-1.17-2.83-1.17h-10-4l.34-.85c.92-2.3 2.53-4.23 4.61-5.55-.46-.51-1-.96-1.58-1.35z" fill="#656d78"/></g><g><path d="m52 62h-14v-11.86c0-.39.01-.78.05-1.17l7.95-4.97-2-2 7-4 1-4c3.68 1.84 6 5.6 6 9.71v18.29z" fill="#fcd770"/></g><g><path d="m52 34-1 4-7 4 2 2-7.95 4.97c.25-3.61 1.68-6.91 3.94-9.51 1.14-1.32 2.49-2.45 4.01-3.35 1.79-1.06 3.82-1.8 6-2.11z" fill="#ffc729"/></g><g><path d="m34 45.54c0 .93-.37 1.83-1.04 2.5l-5.19 5.19-5-5 1.23-1.23v-1c0-1.1.9-2 2-2h1l.96-.96c.67-.67 1.57-1.04 2.5-1.04.98 0 1.86.4 2.5 1.04s1.04 1.52 1.04 2.5z" fill="#f0d0b4"/></g><g><path d="m25.57 32-.06.42c-.29 2.06-2.05 3.58-4.12 3.58-.9 0-1.78-.29-2.5-.83l-1.11-.84-.12.17c-1.08 1.63-1.66 3.54-1.66 5.5-2.96 0-5.56-1.96-6.37-4.81l-.29-1 1.69-1.51c.47-.43.89-.9 1.25-1.4 1.11-1.52 1.72-3.36 1.72-5.28l-.94-.31c-1.23-.41-2.06-1.56-2.06-2.86 0-.78.32-1.49.83-2s1.22-.83 2-.83c.75 0 1.47.3 2 .83l.17.17.29-.86c.42-1.28 1.62-2.14 2.97-2.14.49 0 .97.11 1.4.33l2.32 1.16c.67.33 1.41.51 2.17.51 1.07 0 2.05-.34 2.85-.93v1.77c0 2.09.34 4.17 1 6.16l-3 2z" fill="#f0d0b4"/></g><g><path d="m55.02 16.98c-.6-.61-1.43-.98-2.35-.98h-.67c0-1.1-.45-2.1-1.17-2.83-.73-.72-1.73-1.17-2.83-1.17h-10c0 1.97-.46 3.92-1.34 5.68l-.66 1.32 2 1v6c0 2.21 1.79 4 4 4h4v6.11c1.79-1.06 3.82-1.8 6-2.11v-5-5l2.67-2c.84-.63 1.33-1.62 1.33-2.67 0-.92-.37-1.75-.98-2.35z" fill="#f0d0b4"/></g><g><path d="m38 22h6c0 2.21-1.79 4-4 4h-2z" fill="#ff826e"/></g></g><g><path d="m53 33.406v-3.886l3.963-2.774c3.78-2.645 6.037-6.979 6.037-11.594 0-7.803-6.349-14.152-14.152-14.152h-1.462c-3.701 0-7.32.697-10.757 2.071l-1.764.706 1.949 1.301c.193.129.362.287.542.431-1.752 1.379-3.108 3.176-3.946 5.272l-.887 2.219h4.418c-.127 1.469-.518 2.917-1.178 4.236l-1.105 2.211 2.342 1.171v5.382c0 2.757 2.243 5 5 5h3v4.586c-4.828 3.111-8 8.533-8 14.556v12.858h22v-19.292c0-4.308-2.285-8.197-6-10.302zm-14.203-26.458c.542.713.969 1.513 1.254 2.368l1.897-.632c-.56-1.681-1.559-3.194-2.871-4.373 2.683-.871 5.47-1.311 8.308-1.311h1.462c6.701 0 12.153 5.452 12.153 12.152 0 3.962-1.938 7.684-5.183 9.955l-2.817 1.972v-2.579l2.267-1.7c1.085-.814 1.733-2.11 1.733-3.467 0-2.311-1.818-4.205-4.099-4.327-.462-2.282-2.484-4.006-4.901-4.006h-12.507c.746-1.617 1.886-2.985 3.304-4.052zm.203 16.052h3.829c-.413 1.164-1.525 2-2.829 2h-1zm8 8h2v-2h-7c-1.302 0-2.402-.839-2.816-2h.816c2.757 0 5-2.243 5-5v-1h-6v-1.618l-1.659-.829.211-.422c.797-1.595 1.257-3.352 1.389-5.13h9.059c1.654 0 3 1.346 3 3v1h1.667c1.286-.001 2.333 1.046 2.333 2.332 0 .73-.349 1.428-.934 1.867l-3.066 2.3v9.674c-1.404.274-2.744.713-4 1.304zm3.647 4.288-.514 2.055-7.766 4.438 2.037 2.037-5.056 3.16c1.213-5.664 5.597-10.279 11.299-11.69zm6.353 25.712h-4v-14h-2v14h-12v-10.858c0-.204.02-.403.028-.605l8.568-5.355-1.963-1.963 6.234-3.562.777-3.106c2.707 1.816 4.356 4.831 4.356 8.157z"/><path d="m45 16c0 .551-.449 1-1 1s-1-.449-1-1v-1h-2v1c0 1.654 1.346 3 3 3s3-1.346 3-3v-1h-2z"/><path d="m30.464 41c-1.211 0-2.351.472-3.207 1.329l-.671.671h-.586c-1.654 0-3 1.346-3 3v.586l-.939.939c-.429.428-.927.756-1.461 1.002.254-.707.4-1.452.4-2.216 0-1.757-.684-3.41-1.927-4.652l-2.064-2.064c.06-1.334.432-2.621 1.061-3.793l.22.165c.888.666 1.988 1.033 3.098 1.033 2.554 0 4.751-1.906 5.112-4.434l.426-2.982 3.263-2.176-.241-.724c-.629-1.889-.948-3.856-.948-5.846v-1.297c1.223-1.074 2-2.644 2-4.395 0-4.492-3.654-8.146-8.146-8.146h-4.833c-7.18 0-13.021 5.841-13.021 13.021 0 1.203.173 2.379.487 3.507l-.11.044c-2.659 1.064-4.377 3.601-4.377 6.465 0 2.999 1.871 5.558 4.562 6.536-1.642 2.176-2.562 4.843-2.562 7.608 0 2.454.703 4.797 2 6.813v2.534c0 2.772-.655 5.547-1.895 8.025l-.723 1.447h16.618v-4.049c3.114-.235 6.012-1.549 8.243-3.78l6.429-6.429c.856-.856 1.328-1.995 1.328-3.206 0-2.501-2.035-4.536-4.536-4.536zm-2.642-14.417-2.749 1.833-.369 2.584h-1.468c-.998 0-1.895-.555-2.341-1.447l-1.789.895c.788 1.575 2.37 2.553 4.13 2.553h1.082c-.472 1.176-1.62 2-2.93 2-.68 0-1.354-.225-1.898-.633l-2.89-2.168-1.2 1.6 1.043.782c-.766 1.335-1.232 2.809-1.383 4.337-2.102-.36-3.873-1.904-4.472-4.001l-.114-.399 1.222-1.1c2.1-1.89 3.304-4.594 3.304-7.419v-.721l-1.624-.542c-.823-.273-1.376-1.041-1.376-1.908 0-1.009.82-1.829 1.829-1.829.488 0 .947.19 1.293.536l1.315 1.316.797-2.391c.291-.874 1.105-1.461 2.026-1.461.33 0 .66.078.955.226l2.313 1.156c.807.404 1.713.618 2.618.618.648 0 1.271-.11 1.854-.306v.144c0 1.949.276 3.878.822 5.745zm-9.801-17.583h4.833c3.389 0 6.146 2.757 6.146 6.146 0 2.125-1.729 3.854-3.854 3.854-.596 0-1.191-.141-1.724-.407l-2.313-1.156c-.571-.286-1.211-.437-1.849-.437-1.624 0-3.076.942-3.748 2.388-.518-.254-1.09-.388-1.683-.388-2.112 0-3.829 1.717-3.829 3.829 0 1.73 1.103 3.26 2.744 3.807l.225.075c-.094 1.044-.392 2.054-.87 2.974l-1.87-1.87c-2.083-2.083-3.229-4.85-3.229-7.794 0-6.077 4.944-11.021 11.021-11.021zm-15.021 21.037c0-2.041 1.225-3.85 3.12-4.608l.054-.022c.638 1.402 1.518 2.699 2.64 3.821l2.125 2.125c-.183.202-.376.396-.581.58l-3.176 2.858c-.038.034-.07.073-.108.108-2.345-.423-4.074-2.431-4.074-4.862zm2.546 30.963c.954-2.367 1.454-4.921 1.454-7.472v-.114l1.757 1.757c2.231 2.231 5.129 3.545 8.243 3.78v2.049zm12.454-4c-2.957 0-5.737-1.152-7.829-3.243l-2.057-2.057c-2.008-2.008-3.114-4.679-3.114-7.519 0-3.01 1.283-5.89 3.52-7.904l.337-.303c1.037 2.835 3.673 4.805 6.692 4.988l2.111 2.111c.864.865 1.34 2.015 1.34 3.238 0 .907-.266 1.785-.769 2.54l-.077.115c-1.213-.083-2.347-.573-3.215-1.441l-1.232-1.232-1.414 1.414 1.232 1.232c1.329 1.329 3.096 2.061 4.975 2.061 1.541 0 3.002-.499 4.212-1.409l3.641 3.641-.525.525c-2.091 2.091-4.871 3.243-7.828 3.243zm14.257-9.671-4.49 4.49-3.586-3.586.819-.819v-1.414c0-.551.449-1 1-1h1.414l1.257-1.257c.479-.479 1.116-.743 1.793-.743 1.398 0 2.536 1.138 2.536 2.536 0 .677-.264 1.314-.743 1.793z"/><path d="m20.895 22.553-1.789.895c.788 1.575 2.37 2.553 4.13 2.553h.764v-2h-.764c-.998-.001-1.895-.556-2.341-1.448z"/></g></g></svg>