<svg id="Capa_1" enable-background="new 0 0 512 512" height="512" viewBox="0 0 512 512" width="512" xmlns="http://www.w3.org/2000/svg"><path d="m112 188.701c-36.849-20.532-63.77-57.682-63.77-102.687v-78.392h100.332v62.503c0 16.7 13.552 30.237 30.27 30.237h123.572c89.12 0 161.367 72.168 161.367 161.193 0 44.769-18.271 85.275-47.77 114.484 0 0-32.5 24.583-48 32.833-19.364 10.307-42.24 13.875-65.597 13.875h-18.592c-15.129 0-27.394 12.251-27.394 27.364v54.51h-100.332v-67.46c0-63.313 51.381-114.638 114.762-114.638h31.555c33.709 0 61.035-27.297 61.035-60.969 0-33.672-27.326-60.969-61.035-60.969h-139.478c-11.425-.963-36.425-3.804-50.925-11.884z" fill="#a4e0ff"/><path d="m145.832 100.362h33c-16.718 0-30.27-13.538-30.27-30.237v-62.503h-33v62.503c0 16.699 13.552 30.237 30.27 30.237z" fill="#80d4ff"/><path d="m302.404 100.362h-33c89.12 0 161.366 72.168 161.366 161.193 0 44.769-18.271 85.275-47.77 114.484 0 0-32.5 24.583-48 32.833-19.364 10.307-42.24 13.875-65.596 13.875h-18.592c-15.129 0-27.394 12.251-27.394 27.364v54.51h33v-54.51c0-15.113 12.265-27.364 27.394-27.364h18.592c23.357 0 46.232-3.568 65.596-13.875 15.5-8.25 48-32.833 48-32.833 29.499-29.209 47.77-69.715 47.77-114.484 0-89.024-72.246-161.193-161.366-161.193z" fill="#80d4ff"/><path d="m504.5 72.228c0 15.628-12.669 28.298-28.298 28.298s-28.298-12.669-28.298-28.298 12.669-64.606 28.298-64.606 28.298 48.977 28.298 64.606z" fill="#c5e866"/><path d="m64.096 267.228c0 15.628-12.669 28.298-28.298 28.298s-28.298-12.67-28.298-28.298 12.669-64.606 28.298-64.606 28.298 48.977 28.298 64.606z" fill="#c5e866"/><path d="m122.096 368.228c0 15.628-12.669 28.298-28.298 28.298s-28.298-12.67-28.298-28.298 12.669-64.606 28.298-64.606 28.298 48.977 28.298 64.606z" fill="#9cc042"/><path d="m162.5 226.228c0 15.628-12.669 28.298-28.298 28.298s-28.298-12.669-28.298-28.298 12.669-64.606 28.298-64.606 28.298 48.977 28.298 64.606z" fill="#9cc042"/><path d="m424.5 421.228c0 15.628-12.669 28.298-28.298 28.298s-28.298-12.669-28.298-28.298c0-15.628 12.669-64.606 28.298-64.606s28.298 48.977 28.298 64.606z" fill="#c5e866"/><path d="m504.5 444.355c0 15.628-12.669 28.298-28.298 28.298s-28.298-12.669-28.298-28.298c0-15.628 12.669-64.606 28.298-64.606s28.298 48.978 28.298 64.606z" fill="#9cc042"/><g fill="#060606"><path d="m178.832 107.862h123.571c35.196 0 69.601 12.174 96.874 34.279 7.454 6.04 16.992-5.536 9.445-11.653-29.937-24.263-67.695-37.625-106.319-37.625h-123.571c-12.556 0-22.771-10.2-22.771-22.738v-62.503c0-9.675-15-9.675-15 0v62.502c.001 20.809 16.944 37.738 37.771 37.738z"/><path d="m270.848 330.024h31.556c37.79 0 68.535-30.715 68.535-68.469s-30.745-68.47-68.535-68.47h-138.633c-.786-2.577-1.622-5.12-2.505-7.566-7.514-20.834-16.62-31.397-27.064-31.397-9.285 0-17.51 8.355-24.502 24.845-33.445-19.074-53.971-54.124-53.971-92.953v-78.392c0-9.675-15-9.675-15 0v78.392c0 23.17 6.527 45.719 18.878 65.208 11.186 17.653 26.67 32.115 44.964 42.063-3.688 12.148-6.167 25.094-6.167 32.943 0 17.25 12.264 31.687 28.53 35.055l.165 25.262c.064 9.583 15.064 9.633 15-.099l-.165-25.27c16.034-3.546 28.066-17.864 28.066-34.948 0-4.66-.878-11.122-2.359-18.142h134.762c29.52 0 53.535 23.986 53.535 53.47 0 29.483-24.016 53.469-53.535 53.469h-31.556c-67.415 0-122.262 54.791-122.262 122.138v67.46c0 9.674 15 9.674 15 0v-67.46c.001-59.077 48.118-107.139 107.263-107.139zm-129.016-84.468-.13-19.829c-.064-9.583-15.064-9.633-15 .099l.13 19.826c-7.835-2.984-13.428-10.554-13.428-19.424 0-6.78 2.914-21.903 7.792-35.475 6.354-17.685 11.959-21.607 13.006-21.63 1.046.022 6.649 3.941 13.005 21.625 4.878 13.574 7.793 28.699 7.793 35.48 0 8.772-5.468 16.277-13.168 19.328z"/><path d="m468.934 107.282.165 25.262c.064 9.583 15.064 9.633 15-.099l-.166-25.27c16.035-3.545 28.067-17.863 28.067-34.947 0-9.558-3.673-26.678-8.733-40.708-7.514-20.834-16.62-31.397-27.064-31.397s-19.55 10.563-27.064 31.397c-5.061 14.03-8.733 31.15-8.733 40.708-.002 17.249 12.262 31.686 28.528 35.054zm-5.738-70.53c6.354-17.685 11.959-21.607 13.006-21.63 1.046.022 6.649 3.941 13.005 21.625 4.878 13.574 7.793 28.699 7.793 35.481 0 8.773-5.468 16.278-13.168 19.329l-.13-19.829c-.027-4.125-3.38-7.451-7.499-7.451-.017 0-.033 0-.05 0-4.143.027-7.479 3.407-7.451 7.549l.13 19.826c-7.835-2.984-13.428-10.554-13.428-19.424 0-6.78 2.914-21.903 7.792-35.476z"/><path d="m71.596 267.228c0-9.558-3.673-26.678-8.733-40.708-7.515-20.834-16.62-31.397-27.064-31.397s-19.552 10.563-27.066 31.397c-5.06 14.029-8.733 31.149-8.733 40.708 0 17.25 12.264 31.687 28.53 35.055l.165 25.262c.064 9.583 15.064 9.633 15-.099l-.165-25.27c16.033-3.546 28.066-17.864 28.066-34.948zm-56.596 0c0-6.781 2.915-21.907 7.793-35.48 6.355-17.684 11.959-21.603 13.005-21.625 1.047.023 6.651 3.946 13.006 21.63 4.878 13.572 7.792 28.695 7.792 35.475 0 8.773-5.468 16.278-13.168 19.329l-.13-19.829c-.064-9.583-15.064-9.633-15 .099l.13 19.826c-7.836-2.986-13.428-10.555-13.428-19.425z"/><path d="m118.215 343.788c-4.051.866-6.632 4.852-5.766 8.902 1.344 6.288 2.146 12.096 2.146 15.538 0 8.773-5.468 16.278-13.168 19.329l-.13-19.829c-.064-9.654-15.064-9.581-15 .099l.13 19.826c-7.835-2.986-13.427-10.555-13.427-19.425 0-6.781 2.915-21.907 7.793-35.48 6.355-17.684 11.959-21.603 13.005-21.625.031 0 3.482.728 8.694 11.313 4.275 8.678 17.731 2.052 13.457-6.627-6.433-13.063-13.886-19.686-22.151-19.686-10.444 0-19.551 10.563-27.064 31.397-5.061 14.029-8.734 31.149-8.734 40.708 0 17.25 12.264 31.687 28.53 35.055l.165 25.262c.064 9.583 15.064 9.633 15-.099l-.165-25.27c16.033-3.545 28.066-17.863 28.066-34.947 0-4.567-.88-11.199-2.479-18.673-.866-4.053-4.852-6.632-8.902-5.768z"/><path d="m422.953 379.669c31.17-31.725 48.317-73.569 48.317-118.114 0-37.66-12.15-73.284-35.138-103.02-5.917-7.655-17.784 1.52-11.867 9.174 20.938 27.085 32.005 59.537 32.005 93.846 0 38.62-14.143 75.016-39.987 103.356-5.963-10.487-12.686-15.789-20.081-15.789-10.444 0-19.55 10.563-27.064 31.397-2.577 7.145-4.791 15.088-6.346 22.428-19.099 8.155-39.4 12.3-60.388 12.3h-18.592c-19.24 0-34.894 15.64-34.894 34.864v54.51c0 9.674 15 9.674 15 0v-54.51c0-10.953 8.924-19.864 19.894-19.864h18.592c20.031 0 39.497-3.448 58.028-10.236-.49 17.159 11.625 32.776 28.503 36.27l.165 25.262c.064 9.583 15.064 9.633 15-.099l-.166-25.27c16.034-3.544 28.066-17.862 28.066-34.946 0-13.942-4.274-28.583-9.047-41.559zm-19.121 60.887-.13-19.829c-.064-9.583-15.064-9.633-15 .099l.13 19.826c-7.835-2.984-13.428-10.554-13.428-19.424 0-6.78 2.914-21.903 7.792-35.475 6.354-17.685 11.959-21.607 13.006-21.63 1.046.022 6.649 3.941 13.005 21.625 4.878 13.574 7.793 28.699 7.793 35.48 0 8.772-5.468 16.277-13.168 19.328z"/><path d="m476.202 372.25c-6.696 0-12.858 4.314-18.316 12.823-5.221 8.144 7.403 16.241 12.627 8.099 3.131-4.883 5.284-5.913 5.689-5.922 1.046.022 6.649 3.941 13.005 21.625 4.878 13.574 7.793 28.699 7.793 35.48 0 8.773-5.468 16.278-13.168 19.329l-.13-19.829c-.027-4.125-3.38-7.451-7.499-7.451-.017 0-.033 0-.05 0-4.143.027-7.479 3.407-7.451 7.549l.13 19.826c-7.835-2.984-13.428-10.554-13.428-19.424 0-3.87.97-10.437 2.595-17.566 2.149-9.432-12.476-12.767-14.625-3.333-1.888 8.282-2.97 15.899-2.97 20.899 0 17.25 12.264 31.687 28.53 35.055l.165 25.262c.064 9.583 15.064 9.633 15-.099l-.166-25.27c16.035-3.546 28.067-17.864 28.067-34.948 0-9.558-3.673-26.678-8.733-40.708-7.514-20.834-16.621-31.397-27.065-31.397z"/><path d="m83.5 73.122c4.143 0 7.5-3.358 7.5-7.5v-28c0-9.675-15-9.675-15 0v28c0 4.142 3.357 7.5 7.5 7.5z"/><path d="m116.5 103.122c4.143 0 7.5-3.358 7.5-7.5v-22c0-9.675-15-9.675-15 0v22c0 4.142 3.357 7.5 7.5 7.5z"/><path d="m215.5 160.122c-9.675 0-9.675 15 0 15h30c9.675 0 9.675-15 0-15z"/><path d="m265.5 126.122c-9.675 0-9.675 15 0 15h38c9.674 0 9.674-15 0-15z"/><path d="m222.5 445.122c-4.143 0-7.5 3.358-7.5 7.5v28c0 9.674 15 9.674 15 0v-28c0-4.142-3.357-7.5-7.5-7.5z"/><path d="m190.5 416.122c-4.143 0-7.5 3.358-7.5 7.5v26c0 9.674 15 9.674 15 0v-26c0-4.142-3.357-7.5-7.5-7.5z"/><path d="m387.916 282.039c-2.614 19.691-16.153 32.482-16.344 32.66-7.123 6.55 3.031 17.546 10.135 11.057.723-.659 17.72-16.439 21.078-41.743 1.273-9.59-13.596-11.567-14.869-1.974z"/><path d="m421.121 275.28c-1.712 9.416 13.026 12.21 14.758 2.684 4.344-23.889-3.124-42.42-3.443-43.197-3.685-8.945-17.555-3.235-13.871 5.711.062.149 6.122 15.193 2.556 34.802z"/></g></svg>