<svg id="Layer_1" enable-background="new 0 0 512 512" height="512" viewBox="0 0 512 512" width="512" xmlns="http://www.w3.org/2000/svg"><g><g><path d="m377.317 274.763s1.413 50.739 37.037 55.084c0 0 38.116-58.186 38.116-118.574 0-112.541-91.435-203.773-204.225-203.773-50.324 0-96.396 18.161-131.993 48.273l63.731 90.56z" fill="#f0718f"/><g fill="#e65073"><path d="m377.317 274.763s1.412 50.74 37.037 55.084c0 0 17.37-26.521 28.658-62.333l-139.051-40.493z"/><path d="m409.597 86.358-137.029 120.232 13.087 8.518 164.034-37.443c-5.659-34.024-19.76-65.198-40.092-91.307z"/><path d="m248.245 7.5c-13.833 0-27.342 1.38-40.404 3.996l32.067 173.839 16.852 10.967 65.798-174.884c-23.031-8.982-48.093-13.918-74.313-13.918z"/></g><g><g><path d="m197.216 367.785v102.184s-24.013 34.531-87.578 34.531c0 0 26.839-42.988 13.419-82.452l20.482-54.263 25.511-24.603z" fill="#f7b900"/><path d="m110.365 215.649c21.714-48.291 70.616-81.961 127.462-81.961 77.014 0 139.447 61.798 139.447 138.029s-23.971 129.19 30.413 188.386c0 0-39.552 27.484-78.397 22.551 0 0-39.552-33.122-26.132-103.593 6.593-34.623-3.467-50.707-19.069-58.491-21.188-10.571-44.495 3.524-60.74 21.141l-132.295-58.525z" fill="#ffd027"/><g><path d="m377.274 271.717c0-76.231-62.432-138.029-139.447-138.029-6.787 0-13.457.494-19.985 1.421 67.531 9.609 119.432 67.105 119.432 136.608 0 76.231-50.675 138.087 3.709 197.283 0 0-4.208 6.067-15.053 10.348 2.053 2.208 3.361 3.305 3.361 3.305 38.845 4.933 78.397-22.551 78.397-22.551-54.384-59.195-30.414-112.154-30.414-188.385z" fill="#f7c407"/></g></g><g><path d="m331.983 368.333c6-40.667-12-71.333-48.667-78.667-34.25-6.85-60 17.333-60 17.333l-25.926 23.228 25.958 11.483c16.244-17.618 39.551-31.712 60.74-21.141 15.602 7.784 25.662 23.868 19.069 58.491-13.419 70.471 26.132 103.593 26.132 103.593 12.252 1.556 24.573-.115 35.703-3.129l-3.01-2.525c-45.499-39.999-33.611-84.183-29.999-108.666z" fill="#e0a100"/></g></g><path d="m223.349 287.448v54.263l-26.132 26.074h-53.677s-28.556-40.785-82.556-39.785c0 0-11.378-72.969 30.998-132.165 0 0 38.845 55.672 103.823 60.605z" fill="#e0a100"/></g><path d="m450.465 268.97c5.478-17.635 9.505-37.473 9.505-57.696 0-57.699-22.876-111.592-64.413-151.75-6.748-6.524-17.481 3.965-10.426 10.784 5.031 4.864 9.76 9.95 14.193 15.227l-76.752 67.357c-10.628-7.456-22.295-13.549-34.741-18.023l39.588-103.314c9.164 4.021 18.043 8.748 26.555 14.171 7.915 5.043 16.336-7.378 8.061-12.65-33.964-21.638-73.312-33.076-113.79-33.076-50.089 0-98.685 17.774-136.836 50.047-2.966 2.509-3.525 6.866-1.29 10.042l58.588 83.252c-25.386 13.413-46.684 34.098-60.613 59.982-6.404-6.799-9.852-11.625-9.962-11.781-2.894-4.148-9.303-4.188-12.249-.074-43.658 60.988-32.794 134.583-32.31 137.686.57 3.658 3.721 6.345 7.408 6.345.047 0 .094 0 .141-.001 41.392-.757 66.414 24.654 73.912 33.584l-18.993 50.318c-.614 1.627-.644 3.417-.084 5.063 12.084 35.537-12.437 75.672-12.681 76.065-3.063 4.908.576 11.472 6.362 11.472 66.717 0 92.664-36.208 93.735-37.749.874-1.257 1.343-2.751 1.343-4.282v-22.969c0-9.386-15-9.813-15 0v20.356c-5.105 5.926-25.174 25.756-67.44 29.148 7.325-15.934 17.359-45.401 8.72-74.25l17.729-46.97h40.991v34.716c0 9.386 15 9.813 15 0v-39.104l23.93-23.876c.036-.036.068-.077.103-.114.037-.038.077-.072.114-.111 6.725-7.294 30.341-30.26 51.877-19.515 9.662 4.82 21.733 15.287 15.051 50.378-14.081 73.947 26.932 109.278 28.685 110.746 1.102.922 2.445 1.509 3.87 1.69 28.659 3.64 60.173-7.544 83.622-23.832 3.513-2.442 4.333-7.869 1.243-11.233-38.703-42.128-35.443-80.875-31.314-129.932.211-2.503.421-5.024.628-7.557 7.571 11.418 18.056 18.182 30.921 19.752 2.63.32 5.75-1.148 7.182-3.335 11.242-17.166 21.855-43.457 29.837-64.987zm-82.518-64.811 75.507-17.487c1.004 8.093 1.516 16.304 1.516 24.601 0 16.463-3.011 32.856-7.31 47.881l-55.758-16.117c-2.787-13.756-7.542-26.813-13.955-38.878zm40.597-106.758c16.021 22.323 27.045 47.573 32.492 74.434l-81.233 18.813c-7.139-10.501-15.625-20.03-25.207-28.351zm-95.081-71.348-40.029 104.464c-11.406-2.822-23.331-4.329-35.607-4.329-.422 0-.842.02-1.263.023l-19.488-108.718c10.256-1.644 20.676-2.493 31.169-2.493 22.392 0 44.409 3.766 65.218 11.053zm-187.059 31.114c22.434-17.666 48.404-30.146 75.958-36.741l19.123 106.668c-13.522 1.5-26.608 4.856-38.952 9.83zm67.711 303.118h-46.9c-7.962-9.695-34.791-37.81-79.479-39.703-1.396-17.37-2.533-67.72 24.783-112.017 13.873 16.135 48.652 50.003 99.659 55.085l23.672 26.647v16.096c-.034.415-.035.832 0 1.248v30.959zm138.476 115.184c-6.723-6.755-33.021-37.47-22.066-95.004 6.357-33.382-1.41-55.791-23.088-66.606-16.958-8.46-37.337-4.406-56.588 10.672v-14.059c6.654-5.186 26.482-18.352 50.996-13.45 37.888 7.577 47.306 42.496 41.723 76.47-4.01 24.402-10.548 64.2 25.535 101.586-5.432.688-10.985.889-16.512.391zm63.609-17.117c-6.582 3.737-17.145 9.07-29.456 12.844-38.45-33.943-32.389-70.842-28.375-95.273 6.874-41.868-7.746-84.444-53.583-93.611-22.862-4.574-42.096 3.109-53.937 10.085.351-2.944.067-7.723-1.893-9.93l-27.545-31.007c-1.293-1.455-3.1-2.35-5.04-2.498-33.609-2.552-60.07-19.818-77.024-34.758 22.08-44.457 68.944-73.016 118.48-73.016 72.756 0 131.946 58.555 131.946 130.529 0 18.544-1.437 35.614-2.825 52.122-4.053 48.174-7.581 90.098 29.252 134.513zm14.501-136.899c-24.256-7.288-25.86-46.143-25.887-46.902-.007-.256-.027-.508-.059-.756.004-.696.019-1.377.019-2.077 0-4.174-.189-8.305-.538-12.392l48.835 14.117c-7.95 22.41-17.761 40.211-22.37 48.01z"/></g></svg>