<svg id="Capa_1" enable-background="new 0 0 512 512" height="512" viewBox="0 0 512 512" width="512" xmlns="http://www.w3.org/2000/svg"><g><path d="m443.5 305h-204c-20.678 0-37.5-16.822-37.5-37.5s16.822-37.5 37.5-37.5h197.5v-30h-197.5c-37.22 0-67.5 30.28-67.5 67.5s30.28 67.5 67.5 67.5h204c21.229 0 38.5 17.271 38.5 38.5s-17.271 38.5-38.5 38.5h-319.125v30h319.125c37.771 0 68.5-30.729 68.5-68.5s-30.729-68.5-68.5-68.5z" fill="#866d67"/><path d="m287 200h150v30h-150z" fill="#68544f"/><path d="m443.5 305h-156.5v30h156.5c21.229 0 38.5 17.271 38.5 38.5s-17.271 38.5-38.5 38.5h-156.5v30h156.5c37.771 0 68.5-30.729 68.5-68.5s-30.729-68.5-68.5-68.5z" fill="#68544f"/><path d="m436.879 230c-5.791 0-11.064-3.333-13.549-8.564l-54.239-114.189c-11.108-23.385-9.482-50.412 4.351-72.296 13.832-21.886 37.547-34.951 63.437-34.951 25.891 0 49.605 13.065 63.438 34.95s15.459 48.911 4.351 72.297l-54.24 114.189c-2.485 5.231-7.758 8.564-13.549 8.564z" fill="#ff8597"/><path d="m500.317 34.95c-13.833-21.885-37.547-34.95-63.438-34.95v230c5.791 0 11.064-3.333 13.549-8.564l54.24-114.189c11.108-23.386 9.482-50.412-4.351-72.297z" fill="#ff193d"/><circle cx="436.879" cy="75" fill="#fff4f4" r="30"/><path d="m436.879 45v60c16.568 0 30-13.431 30-30 0-16.568-13.431-30-30-30z" fill="#eee1dc"/><circle cx="287" cy="427" fill="#73bcff" r="37.5"/><path d="m287 389.5v75c20.678 0 37.5-16.823 37.5-37.5s-16.822-37.5-37.5-37.5z" fill="#7984eb"/><circle cx="397" cy="320" fill="#73bcff" r="37.5"/><path d="m397 282.5v75c20.678 0 37.5-16.823 37.5-37.5s-16.822-37.5-37.5-37.5z" fill="#7984eb"/><path d="m71.318 330.92-70 160c-5.791 13.236 8.64 26.204 21.184 19.036l62.558-35.747 62.558 35.747c12.544 7.168 26.975-5.8 21.184-19.036l-70-160c-5.242-11.983-22.241-11.983-27.484 0z" fill="#ff8597"/><path d="m168.803 490.92-70-160c-2.621-5.992-8.182-8.988-13.742-8.988v152.276l62.558 35.747c12.543 7.169 26.975-5.799 21.184-19.035z" fill="#ff193d"/></g></svg>