<svg width="312px" height="70px" viewBox="0 0 312 70" version="1.1" xmlns="http://www.w3.org/2000/svg" xmlns:xlink="http://www.w3.org/1999/xlink"><title>Group 3</title><desc>Created with Sketch.</desc><defs><path d="M23.562,47.8 L23.562,47.8 C20.434,45.311 16.019,38.184 12.184,26.108 C7.633,11.786 3.382,4.494 0.476,0.834 C2.946,1.977 5.725,3.119 9.124,3.391 C11.216,14.856 15.36,30.079 23.562,47.8" id="path-1"></path><path d="M16.814,49.833 C16.186,49.833 15.423,49.491 14.562,48.8 C6.36,31.079 2.216,15.856 0.124,4.391 C0.624,4.431 1.138,4.453 1.665,4.453 C4.273,4.453 7.227,3.92 10.65,2.502 C12.703,1.65 14.969,1.127 17.361,0.837 C14.94,11.159 13.439,26.014 17.468,39.697 C19.434,46.384 18.807,49.833 16.814,49.833" id="path-3"></path><path d="M1.458,33.456 C1.327,33.456 1.196,33.453 1.066,33.448 C0.724,30.122 0.569997787,26.989 0.569997787,24.042 C0.568,15.282 1.922,8.174 3.725,2.584 C4.134,2.593 4.542,2.598 4.951,2.598 C10.283,2.598 15.644,1.794 22.202,0.696 C16.402,3.155 10.175,9.169 8.093,26.804 C7.451,32.221 4.316,33.456 1.458,33.456" id="path-5"></path><path d="M15.066,34.448 C14.653,34.432 14.248,34.393 13.862,34.34 C9.398,33.73 5.815,29.014 5.388,17.393 C5.078,8.949 2.755,3.517 0.188,0.079 C1.883,0.688 3.665,1.269 5.563,1.783 C9.95,2.965 13.852,3.497 17.725,3.584 C15.922,9.174 14.568,16.282 14.57,25.042 C14.57,27.989 14.724,31.122 15.066,34.448" id="path-7"></path></defs><g id="Page-1" stroke="none" stroke-width="1" fill="none" fill-rule="evenodd"><g id="Group-3"><path d="M11.2573051,64.6821691 C11.3943051,64.6681691 11.5243051,64.5961691 11.6083051,64.4741691 C11.7583051,64.2531691 11.7023051,63.9521691 11.4813051,63.8001691 C8.31430512,61.6361691 5.50230512,60.8221691 0.736305124,60.6871691 C0.475305124,60.6731691 0.247305124,60.8891691 0.238305124,61.1571691 C0.231305124,61.4241691 0.442305124,61.6461691 0.709305124,61.6551691 C5.32230512,61.7861691 7.90330512,62.5281691 10.9353051,64.6011691 C11.0323051,64.6671691 11.1463051,64.6941691 11.2573051,64.6821691" id="Fill-344" fill="#DB5276"></path><path d="M1.13230512,66.8191691 L1.18230512,66.8111691 C4.29130512,66.1651691 7.47430512,65.7501691 10.6363051,65.5801691 C10.9083051,65.5821691 11.1083051,65.3371691 11.0933051,65.0711691 C11.0803051,64.8041691 10.8513051,64.5991691 10.5843051,64.6141691 C7.37330512,64.7831691 4.14230512,65.2071691 0.986305124,65.8631691 C0.723305124,65.9171691 0.555305124,66.1731691 0.611305124,66.4351691 C0.661305124,66.6801691 0.889305124,66.8431691 1.13230512,66.8191691" id="Fill-345" fill="#A52B51"></path><path d="M0.692305124,63.0371691 L0.743305124,63.0441691 C3.90230512,63.3581691 7.06330512,63.9161691 10.1323051,64.6981691 C10.3903051,64.7821691 10.6553051,64.6081691 10.7203051,64.3491691 C10.7873051,64.0901691 10.6293051,63.8271691 10.3713051,63.7601691 C7.25530512,62.9611691 4.04630512,62.3991691 0.839305124,62.0811691 C0.572305124,62.0541691 0.335305124,62.2491691 0.309305124,62.5141691 C0.284305124,62.7631691 0.453305124,62.9881691 0.692305124,63.0371691" id="Fill-346" fill="#A52B51"></path><path d="M12.0523051,65.3611691 C12.2473051,65.3411691 12.4183051,65.2031691 12.4713051,65.0021691 C12.5403051,64.7441691 12.3853051,64.4791691 12.1273051,64.4121691 C8.32730512,63.4091691 4.27130512,63.2431691 0.401305124,63.9171691 C0.137305124,63.9641691 -0.0386948758,64.2151691 0.00730512423,64.4781691 C0.0533051242,64.7431691 0.329305124,64.9171691 0.568305124,64.8731691 C4.30530512,64.2141691 8.21530512,64.3801691 11.8793051,65.3471691 L12.0523051,65.3611691" id="Fill-347" fill="#DB5276"></path><path d="M3.29330512,68.8451691 L3.37130512,68.8311691 C6.00330512,68.1201691 8.51330512,67.0381691 10.8323051,65.6121691 C11.0603051,65.4721691 11.1313051,65.1741691 10.9913051,64.9461691 C10.8513051,64.7161691 10.5533051,64.6471691 10.3253051,64.7871691 C8.08530512,66.1641691 5.66130512,67.2091691 3.11930512,67.8961691 C2.86130512,67.9661691 2.70830512,68.2321691 2.77830512,68.4901691 C2.84030512,68.7221691 3.06230512,68.8691691 3.29330512,68.8451691" id="Fill-348" fill="#DB5276"></path><path d="M15.4603051,64.2421691 C15.4793051,64.7841691 15.0823051,65.2781691 14.4433051,65.6171691 C13.9493051,65.8691691 13.3193051,66.0231691 12.6413051,66.0421691 C11.0533051,66.0821691 9.75630512,65.3351691 9.73630512,64.3761691 L9.75630512,64.1441691 C9.93030512,63.2921691 11.1023051,62.6151691 12.5543051,62.5761691 C14.1433051,62.5371691 15.4403051,63.2831691 15.4603051,64.2421691" id="Fill-349" fill="#DB5276"></path><path d="M14.4333051,65.6171691 C13.9493051,65.8691691 13.3193051,66.0231691 12.6413051,66.0421691 C11.0533051,66.0821691 9.75630512,65.3351691 9.73630512,64.3761691 L9.75630512,64.1441691 C12.8833051,65.2391691 13.7843051,64.0771691 13.7843051,64.0771691 L14.4333051,65.6171691" id="Fill-350" fill="#A52B51"></path><path d="M300.976305,64.5371691 C300.842305,64.5721691 300.695305,64.5491691 300.573305,64.4641691 C300.355305,64.3101691 300.303305,64.0081691 300.457305,63.7891691 C302.669305,60.6541691 305.019305,58.9091691 309.437305,57.1181691 C309.677305,57.0141691 309.966305,57.1361691 310.068305,57.3831691 C310.168305,57.6321691 310.048305,57.9141691 309.800305,58.0151691 C305.524305,59.7491691 303.365305,61.3461691 301.249305,64.3481691 C301.180305,64.4441691 301.083305,64.5081691 300.976305,64.5371691" id="Fill-351" fill="#DB5276"></path><path d="M311.208305,63.0011691 L311.158305,63.0111691 C308.020305,63.4921691 304.893305,64.2161691 301.870305,65.1611691 C301.616305,65.2571691 301.342305,65.0981691 301.264305,64.8431691 C301.184305,64.5881691 301.326305,64.3171691 301.581305,64.2371691 C304.650305,63.2741691 307.825305,62.5421691 311.011305,62.0541691 C311.276305,62.0131691 311.523305,62.1951691 311.563305,62.4591691 C311.601305,62.7071691 311.444305,62.9391691 311.208305,63.0011691" id="Fill-352" fill="#A52B51"></path><path d="M310.299305,59.3031691 L310.255305,59.3291691 C307.404305,60.7261691 304.637305,62.3531691 302.035305,64.1591691 C301.821305,64.3271691 301.513305,64.2561691 301.362305,64.0371691 C301.209305,63.8181691 301.264305,63.5161691 301.483305,63.3641691 C304.123305,61.5271691 306.934305,59.8781691 309.828305,58.4591691 C310.068305,58.3411691 310.359305,58.4411691 310.476305,58.6811691 C310.586305,58.9051691 310.506305,59.1741691 310.299305,59.3031691" id="Fill-353" fill="#A52B51"></path><path d="M300.467305,65.4511691 C300.277305,65.5001691 300.069305,65.4301691 299.949305,65.2611691 C299.794305,65.0421691 299.847305,64.7411691 300.065305,64.5861691 C303.276305,62.3201691 307.018305,60.7471691 310.880305,60.0281691 C311.143305,59.9791691 311.396305,60.1531691 311.445305,60.4161691 C311.494305,60.6791691 311.297305,60.9391691 311.057305,60.9801691 C307.325305,61.6691691 303.720305,63.1921691 300.624305,65.3771691 L300.467305,65.4511691" id="Fill-354" fill="#DB5276"></path><path d="M309.892305,65.6551691 L309.813305,65.6681691 C307.099305,65.9221691 304.369305,65.7851691 301.697305,65.2591691 C301.436305,65.2081691 301.265305,64.9541691 301.316305,64.6911691 C301.367305,64.4271691 301.622305,64.2581691 301.885305,64.3091691 C304.464305,64.8171691 307.102305,64.9501691 309.723305,64.7051691 C309.989305,64.6801691 310.225305,64.8751691 310.250305,65.1421691 C310.273305,65.3811691 310.117305,65.5961691 309.892305,65.6551691" id="Fill-355" fill="#DB5276"></path><path d="M302.317305,64.3881691 C302.113305,65.1341691 301.290305,65.8991691 300.157305,66.2951691 C299.344305,66.5771691 298.540305,66.6161691 297.921305,66.4411691 C297.407305,66.2951691 297.029305,66.0151691 296.884305,65.5991691 C296.565305,64.6881691 297.523305,63.5361691 299.015305,63.0131691 C300.351305,62.5581691 301.649305,62.7511691 302.133305,63.4391691 L302.249305,63.6241691 L302.297305,63.7201691 C302.375305,63.9331691 302.375305,64.1561691 302.317305,64.3881691" id="Fill-356" fill="#DB5276"></path><path d="M55.3583051,6.83516915 C55.4943051,6.86116915 55.6393051,6.82916915 55.7543051,6.73516915 C55.9623051,6.56616915 55.9923051,6.26016915 55.8233051,6.05216915 C53.3983051,3.08116915 50.9323051,1.50316915 46.4003051,0.0251691481 C46.1523051,-0.0608308519 45.8723051,0.0811691481 45.7893051,0.335169148 C45.7063051,0.590169148 45.8453051,0.863169148 46.0993051,0.946169148 C50.4873051,2.37616915 52.7523051,3.82016915 55.0733051,6.66616915 C55.1483051,6.75716915 55.2503051,6.81516915 55.3583051,6.83516915" id="Fill-357" fill="#DB5276"></path><path d="M45.0433051,6.01916915 L45.0943051,6.02516915 C48.2583051,6.28616915 51.4283051,6.79016915 54.5093051,7.52016915 C54.7703051,7.59916915 55.0313051,7.42116915 55.0923051,7.16116915 C55.1543051,6.90216915 54.9933051,6.64016915 54.7333051,6.57916915 C51.6053051,5.83316915 48.3863051,5.32516915 45.1733051,5.06116915 C44.9063051,5.03916915 44.6733051,5.23716915 44.6513051,5.50316915 C44.6303051,5.75216915 44.8033051,5.97316915 45.0433051,6.01916915" id="Fill-358" fill="#A52B51"></path><path d="M45.6913051,2.26616915 L45.7383051,2.28916915 C48.6793051,3.48316915 51.5533051,4.91316915 54.2753051,6.53216915 C54.5003051,6.68516915 54.8023051,6.59316915 54.9383051,6.36416915 C55.0753051,6.13416915 55.0003051,5.83616915 54.7703051,5.70116915 C52.0083051,4.05216915 49.0893051,2.60416915 46.1033051,1.39116915 C45.8553051,1.29116915 45.5723051,1.41016915 45.4723051,1.65816915 C45.3783051,1.88916915 45.4763051,2.15216915 45.6913051,2.26616915" id="Fill-359" fill="#A52B51"></path><path d="M55.9293051,7.71016915 C56.1223051,7.74816915 56.3253051,7.66416915 56.4333051,7.48616915 C56.5723051,7.25716915 56.4983051,6.95916915 56.2703051,6.82216915 C52.9093051,4.78416915 49.0663051,3.47716915 45.1633051,3.03016915 C44.8973051,3.00016915 44.6573051,3.19016915 44.6263051,3.45616915 C44.5963051,3.72216915 44.8113051,3.96716915 45.0523051,3.99216915 C48.8233051,4.41816915 52.5263051,5.68516915 55.7683051,7.64916915 L55.9293051,7.71016915" id="Fill-360" fill="#DB5276"></path><path d="M46.5423051,8.57416915 L46.6223051,8.58316915 C49.3463051,8.64516915 52.0603051,8.31716915 54.6893051,7.60716915 C54.9463051,7.53716915 55.0993051,7.27116915 55.0293051,7.01216915 C54.9603051,6.75316915 54.6943051,6.60216915 54.4363051,6.67116915 C51.8983051,7.35816915 49.2763051,7.67516915 46.6443051,7.61516915 C46.3773051,7.60816915 46.1553051,7.82016915 46.1493051,8.08716915 C46.1433051,8.32816915 46.3143051,8.53116915 46.5423051,8.57416915" id="Fill-361" fill="#DB5276"></path><path d="M53.9853051,6.11016915 C53.7353051,7.03516915 54.7713051,8.12016915 56.2983051,8.53216915 C57.8253051,8.94516915 59.2663051,8.53016915 59.5163051,7.60516915 C59.7663051,6.68016915 58.7313051,5.59516915 57.2043051,5.18216915 C55.6763051,4.76916915 54.2363051,5.18416915 53.9853051,6.11016915" id="Fill-362" fill="#DB5276"></path><path d="M45.6053051,26.7531691 C45.7413051,26.7781691 45.8863051,26.7451691 46.0013051,26.6501691 C46.2073051,26.4801691 46.2363051,26.1751691 46.0663051,25.9681691 C43.6223051,23.0111691 41.1453051,21.4501691 36.6043051,20.0001691 C36.3563051,19.9151691 36.0773051,20.0591691 35.9953051,20.3131691 C35.9143051,20.5691691 36.0553051,20.8401691 36.3093051,20.9221691 C40.7063051,22.3261691 42.9803051,23.7541691 45.3193051,26.5851691 C45.3943051,26.6761691 45.4973051,26.7341691 45.6053051,26.7531691" id="Fill-363" fill="#DB5276"></path><path d="M35.2853051,26.0011691 L35.3363051,26.0071691 C38.5023051,26.2491691 41.6753051,26.7321691 44.7613051,27.4441691 C45.0223051,27.5211691 45.2823051,27.3411691 45.3413051,27.0811691 C45.4023051,26.8211691 45.2383051,26.5611691 44.9793051,26.5001691 C41.8453051,25.7741691 38.6243051,25.2861691 35.4103051,25.0421691 C35.1433051,25.0221691 34.9103051,25.2221691 34.8903051,25.4881691 C34.8713051,25.7381691 35.0453051,25.9581691 35.2853051,26.0011691" id="Fill-364" fill="#A52B51"></path><path d="M35.9103051,22.2461691 L35.9573051,22.2671691 C38.9053051,23.4431691 41.7893051,24.8551691 44.5203051,26.4571691 C44.7463051,26.6091691 45.0483051,26.5151691 45.1823051,26.2851691 C45.3183051,26.0541691 45.2403051,25.7571691 45.0103051,25.6231691 C42.2383051,23.9921691 39.3103051,22.5621691 36.3163051,21.3681691 C36.0673051,21.2681691 35.7853051,21.3891691 35.6873051,21.6371691 C35.5943051,21.8701691 35.6943051,22.1321691 35.9103051,22.2461691" id="Fill-365" fill="#A52B51"></path><path d="M46.1823051,27.6251691 C46.3753051,27.6611691 46.5773051,27.5761691 46.6843051,27.3981691 C46.8223051,27.1681691 46.7463051,26.8711691 46.5173051,26.7341691 C43.1433051,24.7171691 39.2923051,23.4351691 35.3863051,23.0111691 C35.1203051,22.9831691 34.8823051,23.1751691 34.8523051,23.4411691 C34.8243051,23.7081691 35.0403051,23.9521691 35.2823051,23.9751691 C39.0553051,24.3771691 42.7663051,25.6211691 46.0203051,27.5641691 L46.1823051,27.6251691" id="Fill-366" fill="#DB5276"></path><path d="M36.8003051,28.5471691 L36.8803051,28.5551691 C39.6053051,28.6011691 42.3163051,28.2561691 44.9413051,27.5291691 C45.1973051,27.4581691 45.3493051,27.1911691 45.2773051,26.9331691 C45.2073051,26.6741691 44.9403051,26.5251691 44.6813051,26.5961691 C42.1483051,27.2981691 39.5283051,27.6311691 36.8963051,27.5871691 C36.6293051,27.5831691 36.4083051,27.7951691 36.4043051,28.0631691 C36.3993051,28.3031691 36.5713051,28.5051691 36.8003051,28.5471691" id="Fill-367" fill="#DB5276"></path><path d="M44.2283051,26.0371691 C43.9843051,26.9621691 45.0263051,28.0421691 46.5553051,28.4451691 C48.0853051,28.8481691 49.5243051,28.4241691 49.7683051,27.4981691 C50.0123051,26.5711691 48.9703051,25.4931691 47.4413051,25.0891691 C45.9103051,24.6861691 44.4723051,25.1101691 44.2283051,26.0371691" id="Fill-368" fill="#DB5276"></path><path d="M23.9213051,45.4631691 C24.0503051,45.5121691 24.1983051,45.5061691 24.3283051,45.4341691 C24.5623051,45.3041691 24.6453051,45.0091691 24.5153051,44.7751691 C22.6493051,41.4231691 20.4963051,39.4391691 16.2933051,37.1901691 C16.0653051,37.0621691 15.7643051,37.1531691 15.6373051,37.3881691 C15.5113051,37.6251691 15.6013051,37.9171691 15.8363051,38.0441691 C19.9053051,40.2211691 21.8833051,42.0391691 23.6693051,45.2471691 C23.7273051,45.3501691 23.8173051,45.4241691 23.9213051,45.4631691" id="Fill-369" fill="#DB5276"></path><path d="M13.9083051,42.8531691 L13.9573051,42.8691691 C17.0263051,43.6791691 20.0593051,44.7301691 22.9653051,45.9901691 C23.2083051,46.1131691 23.4963051,45.9841691 23.6013051,45.7381691 C23.7083051,45.4941691 23.5953051,45.2081691 23.3503051,45.1021691 C20.4003051,43.8191691 17.3213051,42.7551691 14.2043051,41.9331691 C13.9453051,41.8641691 13.6803051,42.0191691 13.6123051,42.2771691 C13.5483051,42.5191691 13.6803051,42.7671691 13.9083051,42.8531691" id="Fill-370" fill="#A52B51"></path><path d="M15.2033051,39.2731691 L15.2453051,39.3021691 C17.9323051,40.9941691 20.5113051,42.9051691 22.9073051,44.9751691 C23.1023051,45.1661691 23.4163051,45.1281691 23.5903051,44.9261691 C23.7653051,44.7241691 23.7423051,44.4171691 23.5403051,44.2441691 C21.1093051,42.1371691 18.4893051,40.2011691 15.7613051,38.4831691 C15.5353051,38.3401691 15.2363051,38.4091691 15.0943051,38.6341691 C14.9613051,38.8461691 15.0123051,39.1231691 15.2033051,39.2731691" id="Fill-371" fill="#A52B51"></path><path d="M24.3303051,46.4261691 C24.5133051,46.4961691 24.7283051,46.4491691 24.8643051,46.2931691 C25.0423051,46.0921691 25.0213051,45.7861691 24.8213051,45.6101691 C21.8683051,43.0151691 18.3143051,41.0551691 14.5493051,39.9311691 C14.2933051,39.8551691 14.0233051,40.0001691 13.9463051,40.2571691 C13.8703051,40.5141691 14.0383051,40.7931691 14.2723051,40.8601691 C17.9103051,41.9401691 21.3343051,43.8351691 24.1823051,46.3361691 L24.3303051,46.4261691" id="Fill-372" fill="#DB5276"></path><path d="M14.9363051,45.6311691 L15.0133051,45.6541691 C17.6853051,46.1931691 20.4143051,46.3451691 23.1263051,46.1061691 C23.3923051,46.0831691 23.5893051,45.8481691 23.5663051,45.5811691 C23.5433051,45.3131691 23.3073051,45.1181691 23.0413051,45.1411691 C20.4223051,45.3731691 17.7853051,45.2261691 15.2053051,44.7051691 C14.9423051,44.6521691 14.6873051,44.8221691 14.6343051,45.0841691 C14.5873051,45.3191691 14.7193051,45.5491691 14.9363051,45.6311691" id="Fill-373" fill="#DB5276"></path><path d="M22.6963051,44.5091691 C22.2883051,45.3751691 23.1173051,46.6251691 24.5483051,47.2991691 C25.9803051,47.9731691 27.4713051,47.8171691 27.8803051,46.9511691 C28.2883051,46.0841691 27.4583051,44.8341691 26.0273051,44.1601691 C24.5963051,43.4861691 23.1043051,43.6421691 22.6963051,44.5091691" id="Fill-374" fill="#DB5276"></path><path d="M153.411305,61.3861691 C146.119305,60.2831691 138.353305,60.9211691 129.667305,64.5341691 C129.076305,64.7861691 128.495305,65.0081691 127.904305,65.2311691 C125.435305,57.2711691 123.914305,50.0461691 123.111305,43.5391691 C121.348305,29.2951691 122.994305,18.4291691 125.531305,10.5661691 C131.274305,10.7021691 136.948305,9.86016915 144.008305,8.67816915 C144.928305,8.52316915 145.858305,8.35816915 146.826305,8.19416915 C148.046305,7.99116915 149.257305,7.78716915 150.477305,7.58316915 C149.489305,18.2841691 149.208305,35.8791691 153.411305,61.3861691" id="Fill-375" fill="#96C1FF"></path><path d="M127.904305,65.2311691 C115.586305,69.9661691 104.508305,69.8501691 91.5033051,61.9001691 C89.7023051,38.6001691 98.8433051,18.0611691 105.719305,6.23816915 C106.465305,6.51816915 107.220305,6.78916915 107.994305,7.06116915 C109.689305,7.67016915 111.471305,8.25116915 113.369305,8.76516915 C117.756305,9.94716915 121.658305,10.4791691 125.531305,10.5661691 C122.994305,18.4291691 121.348305,29.2951691 123.111305,43.5391691 C123.914305,50.0461691 125.435305,57.2711691 127.904305,65.2311691" id="Fill-376" fill="#F9C280"></path><path d="M150.477305,7.58816915 C149.492305,18.2821691 149.206305,35.8821691 153.410305,61.3841691 C157.643305,62.0251691 161.714305,63.2491691 165.707305,64.8241691 C170.477305,66.7081691 176.845305,68.0931691 183.868305,68.6701691 C181.164305,49.8471691 176.822305,22.9991691 173.905305,5.09516915 C167.814305,5.01616915 159.157305,6.17116915 150.477305,7.58816915" id="Fill-377" fill="#DB5276"></path><path d="M105.722305,6.23816915 C98.0903051,3.38916915 92.0573051,0.764169148 84.1953051,4.47716915 C82.4263051,5.31216915 80.6073051,5.96716915 78.7923051,6.48816915 C79.3043051,9.36516915 79.2643051,13.3141691 77.6163051,18.4911691 C74.2843051,28.9651691 47.1933051,57.8461691 38.1953051,67.2451691 C43.6613051,66.8061691 49.4583051,65.4581691 54.4503051,62.8221691 C64.7463051,57.3881691 74.7573051,50.8101691 89.3433051,60.5341691 C90.0723051,61.0201691 90.7903051,61.4641691 91.5073051,61.9021691 C89.7013051,38.5961691 98.8443051,18.0611691 105.722305,6.23816915" id="Fill-378" fill="#277C7C"></path><path d="M78.7923051,6.48816915 C70.0423051,9.00016915 61.3953051,8.13716915 59.0263051,6.47916915 C59.0263051,6.47916915 49.0163051,35.6521691 35.0023051,41.0851691 C24.0973051,45.3141691 16.4853051,58.3701691 13.6423051,63.9581691 C13.9033051,64.4991691 14.1443051,65.0531691 14.3723051,65.6181691 C16.1563051,65.0451691 19.1363051,64.6441691 23.2753051,65.9681691 C26.9583051,67.1471691 32.3903051,67.7091691 38.1953051,67.2451691 C47.1933051,57.8461691 74.2843051,28.9651691 77.6163051,18.4911691 C79.2643051,13.3141691 79.3043051,9.36516915 78.7923051,6.48816915" id="Fill-379" fill="#DB5276"></path><path d="M299.318305,64.5111691 C296.322305,60.5851691 287.802305,49.7831691 281.539305,45.3751691 C273.817305,39.9421691 262.091305,28.7881691 262.949305,14.7731691 C262.949305,14.7731691 251.770305,13.7321691 243.540305,11.6521691 C247.105305,25.2541691 254.647305,45.7261691 270.539305,69.7271691 C280.027305,70.5761691 290.237305,69.4671691 298.839305,66.5061691 C298.992305,65.8381691 299.161305,65.1771691 299.318305,64.5111691" id="Fill-380" fill="#DB5276"></path><path d="M212.936305,66.0051691 C212.636305,66.0921691 212.346305,66.1701691 212.036305,66.2571691 C202.894305,68.8241691 192.843305,69.4051691 183.866305,68.6691691 C181.164305,49.8431691 176.826305,23.0011691 173.902305,5.09516915 C176.448305,5.12416915 178.549305,5.36616915 180.002305,5.90916915 C181.358305,6.40216915 182.752305,7.10916915 184.282305,7.81616915 C186.752305,8.95916915 189.531305,10.1011691 192.930305,10.3731691 C195.022305,21.8381691 199.166305,37.0611691 207.368305,54.7821691 C209.044305,58.4231691 210.893305,62.1701691 212.936305,66.0051691" id="Fill-381" fill="#277C7C"></path><path d="M270.539305,69.7271691 C254.647305,45.7261691 247.105305,25.2541691 243.540305,11.6521691 C243.139305,11.5501691 242.742305,11.4481691 242.357305,11.3411691 C236.489305,9.72216915 225.331305,6.54516915 215.149305,6.53816915 C218.308305,19.3631691 225.899305,39.2321691 244.137305,62.7151691 C247.380305,63.2881691 250.580305,64.2521691 253.797305,65.6821691 C258.651305,67.8391691 264.442305,69.1811691 270.539305,69.7271691" id="Fill-382" fill="#96C1FF"></path><path d="M244.137305,62.7121691 C234.647305,61.0381691 224.760305,62.7421691 212.936305,66.0051691 C210.893305,62.1701691 209.044305,58.4231691 207.368305,54.7821691 C199.166305,37.0611691 195.022305,21.8381691 192.930305,10.3731691 C195.903305,10.6151691 199.341305,10.1891691 203.456305,8.48416915 C205.509305,7.63216915 207.775305,7.10916915 210.167305,6.81916915 C211.784305,6.61616915 213.459305,6.53816915 215.154305,6.53816915 C218.311305,19.3591691 225.903305,39.2301691 244.137305,62.7121691" id="Fill-383" fill="#F9C280"></path><path d="M299.286305,64.6301691 C299.141305,65.2591691 298.985305,65.8791691 298.840305,66.5091691 C290.232305,69.4721691 280.025305,70.5761691 270.535305,69.7241691 C270.060305,69.6851691 269.576305,69.6371691 269.111305,69.5691691 C263.524305,68.9591691 258.266305,67.6621691 253.801305,65.6861691 C250.577305,64.2521691 247.381305,63.2851691 244.137305,62.7121691 C243.585305,62.6161691 243.024305,62.5291691 242.472305,62.4521691 L242.404305,62.4421691 C233.437305,61.2501691 224.044305,62.9451691 212.936305,66.0051691 L212.762305,66.0541691 C212.520305,66.1221691 212.288305,66.1891691 212.036305,66.2571691 C202.894305,68.8241691 192.843305,69.4051691 183.866305,68.6681691 C183.721305,68.6591691 183.585305,68.6491691 183.440305,68.6291691 C176.584305,68.0391691 170.377305,66.6641691 165.709305,64.8241691 C161.710305,63.2461691 157.643305,62.0251691 153.411305,61.3861691 L153.362305,61.3761691 L153.236305,61.3671691 C145.993305,60.2921691 138.285305,60.9511691 129.667305,64.5341691 C129.086305,64.7861691 128.505305,64.9991691 127.923305,65.2211691 L127.836305,65.2501691 C115.547305,69.9661691 104.489305,69.8311691 91.5033051,61.9001691 C90.7763051,61.4631691 90.0703051,61.0181691 89.3433051,60.5341691 C74.7603051,50.8121691 64.7473051,57.3871691 54.4533051,62.8201691 C50.1543051,65.0851691 45.2633051,66.4031691 40.4993051,67.0121691 C39.7243051,67.1091691 38.9603051,67.1871691 38.1943051,67.2451691 C32.3943051,67.7091691 26.9613051,67.1481691 23.2723051,65.9661691 C19.1373051,64.6501691 16.1543051,65.0461691 14.3733051,65.6181691 C14.1693051,65.1151691 13.9563051,64.6111691 13.7243051,64.1171691 C15.4473051,63.4981691 18.5363051,62.9361691 22.9523051,64.3491691 C26.6323051,65.5311691 32.0653051,66.0921691 37.8753051,65.6271691 C38.5523051,65.5701691 39.2313051,65.5011691 39.9083051,65.4151691 C44.7503051,64.8431691 49.7473051,63.5171691 54.1243051,61.2121691 C64.4273051,55.7701691 74.4313051,49.1951691 89.0243051,58.9171691 C89.7503051,59.4111691 90.4673051,59.8461691 91.1833051,60.2921691 C91.2803051,60.3501691 91.3673051,60.4081691 91.4643051,60.4571691 C104.256305,68.1741691 115.180305,68.3101691 127.313305,63.7101691 L127.585305,63.6141691 C128.166305,63.3911691 128.756305,63.1681691 129.347305,62.9261691 C138.033305,59.3041691 145.799305,58.6661691 153.091305,59.7691691 L153.198305,59.7891691 C157.391305,60.4271691 161.419305,61.6481691 165.380305,63.2071691 C170.154305,65.0951691 176.526305,66.4801691 183.547305,67.0511691 C192.552305,67.7961691 202.575305,67.2071691 211.716305,64.6401691 C211.881305,64.5911691 212.036305,64.5531691 212.200305,64.5141691 C212.336305,64.4651691 212.481305,64.4371691 212.617305,64.3981691 C223.947305,61.2601691 233.495305,59.5761691 242.627305,60.9211691 C243.024305,60.9701691 243.421305,61.0381691 243.818305,61.1051691 C247.062305,61.6761691 250.257305,62.6351691 253.472305,64.0691691 C258.101305,66.1311691 263.582305,67.4391691 269.382305,68.0291691 C269.654305,68.0681691 269.935305,68.0871691 270.215305,68.1171691 C279.996305,68.9881691 290.532305,67.7961691 299.286305,64.6301691" id="Fill-384" fill="#19605E"></path><path d="M183.643305,67.2251691 L183.440305,68.6291691 C176.584305,68.0391691 170.377305,66.6641691 165.709305,64.8241691 C161.710305,63.2461691 157.643305,62.0251691 153.411305,61.3861691 L153.236305,61.3671691 L153.198305,59.7891691 C157.391305,60.4271691 161.419305,61.6481691 165.380305,63.2071691 C170.154305,65.0951691 176.526305,66.4801691 183.547305,67.0511691 L183.643305,67.2251691" id="Fill-385" fill="#A52B51"></path><path d="M299.286305,64.6301691 C299.141305,65.2591691 298.985305,65.8791691 298.840305,66.5091691 C290.232305,69.4721691 280.025305,70.5761691 270.535305,69.7241691 C270.051305,69.6851691 269.567305,69.6371691 269.092305,69.5691691 C269.237305,68.8241691 269.354305,68.2331691 269.382305,68.0291691 C269.654305,68.0681691 269.935305,68.0871691 270.215305,68.1171691 C279.996305,68.9881691 290.532305,67.7961691 299.286305,64.6301691" id="Fill-386" fill="#A52B51"></path><path d="M40.4993051,67.0121691 C39.7243051,67.1091691 38.9603051,67.1871691 38.1943051,67.2451691 C32.3943051,67.7091691 26.9613051,67.1481691 23.2723051,65.9661691 C19.1373051,64.6501691 16.1543051,65.0461691 14.3733051,65.6181691 C14.1693051,65.1151691 13.9563051,64.6111691 13.7243051,64.1171691 C15.4473051,63.4981691 18.5363051,62.9361691 22.9523051,64.3491691 C26.6323051,65.5311691 32.0653051,66.0921691 37.8753051,65.6271691 C38.5523051,65.5701691 39.2313051,65.5011691 39.9083051,65.4151691 L40.0053051,65.4541691 L40.4993051,67.0121691" id="Fill-387" fill="#A52B51"></path><path d="M127.923305,65.2211691 C115.586305,69.9661691 104.508305,69.8501691 91.5033051,61.9001691 L91.4643051,60.4571691 C104.256305,68.1741691 115.180305,68.3101691 127.313305,63.7101691 L127.923305,65.2211691" id="Fill-388" fill="#ED9B43"></path><path d="M242.627305,60.9211691 L242.472305,62.4521691 C233.485305,61.2411691 224.072305,62.9361691 212.936305,66.0051691 L212.762305,66.0541691 L212.200305,64.5141691 C212.336305,64.4651691 212.481305,64.4371691 212.617305,64.3981691 C223.947305,61.2601691 233.495305,59.5761691 242.627305,60.9211691" id="Fill-389" fill="#ED9B43"></path><path d="M269.382305,68.0291691 L269.111305,69.5691691 C263.524305,68.9591691 258.266305,67.6621691 253.801305,65.6861691 C250.577305,64.2521691 247.381305,63.2851691 244.137305,62.7121691 C243.585305,62.6161691 243.024305,62.5291691 242.472305,62.4521691 L242.404305,62.4421691 L242.627305,60.9211691 C243.024305,60.9701691 243.421305,61.0381691 243.818305,61.1051691 C247.062305,61.6761691 250.257305,62.6351691 253.472305,64.0691691 C258.101305,66.1311691 263.582305,67.4391691 269.382305,68.0291691" id="Fill-390" fill="#6BA4E8"></path><path d="M153.362305,61.3761691 L153.236305,61.3671691 C145.993305,60.2921691 138.285305,60.9511691 129.667305,64.5341691 C129.086305,64.7861691 128.505305,64.9991691 127.923305,65.2211691 L127.836305,65.2501691 L127.313305,63.7101691 L127.585305,63.6141691 C128.166305,63.3911691 128.756305,63.1681691 129.347305,62.9261691 C138.033305,59.3041691 145.799305,58.6661691 153.091305,59.7691691 L153.198305,59.7891691 L153.362305,61.3761691" id="Fill-391" fill="#6BA4E8"></path><path d="M265.996305,16.1781691 C265.858305,16.1781691 265.721305,16.1201691 265.625305,16.0061691 C265.453305,15.8021691 265.479305,15.4971691 265.683305,15.3241691 C268.617305,12.8511691 271.333305,11.7581691 276.060305,11.1451691 C276.319305,11.1061691 276.568305,11.2971691 276.603305,11.5621691 C276.637305,11.8281691 276.450305,12.0701691 276.185305,12.1051691 C271.608305,12.6991691 269.115305,13.6981691 266.308305,16.0651691 C266.217305,16.1401691 266.106305,16.1781691 265.996305,16.1781691" id="Fill-392" fill="#DB5276"></path><path d="M276.283305,17.2861691 L276.233305,17.2831691 C273.075305,16.9531691 269.866305,16.8611691 266.703305,17.0081691 C266.432305,17.0381691 266.208305,16.8151691 266.197305,16.5481691 C266.184305,16.2811691 266.391305,16.0541691 266.657305,16.0421691 C269.870305,15.8881691 273.127305,15.9841691 276.333305,16.3201691 C276.599305,16.3471691 276.792305,16.5851691 276.764305,16.8511691 C276.738305,17.1001691 276.527305,17.2861691 276.283305,17.2861691" id="Fill-393" fill="#A52B51"></path><path d="M276.341305,13.4781691 L276.291305,13.4911691 C273.180305,14.1211691 270.090305,14.9941691 267.116305,16.0811691 C266.867305,16.1901691 266.587305,16.0431691 266.496305,15.7921691 C266.403305,15.5421691 266.533305,15.2631691 266.784305,15.1721691 C269.803305,14.0641691 272.940305,13.1811691 276.099305,12.5421691 C276.361305,12.4891691 276.617305,12.6591691 276.670305,12.9201691 C276.719305,13.1661691 276.574305,13.4061691 276.341305,13.4781691" id="Fill-394" fill="#A52B51"></path><path d="M265.272305,16.9331691 C265.076305,16.9331691 264.892305,16.8131691 264.819305,16.6191691 C264.725305,16.3691691 264.852305,16.0891691 265.102305,15.9961691 C268.782305,14.6161691 272.800305,14.0431691 276.719305,14.3261691 C276.986305,14.3461691 277.187305,14.5781691 277.168305,14.8441691 C277.148305,15.1121691 276.892305,15.3131691 276.650305,15.2921691 C272.865305,15.0131691 268.991305,15.5731691 265.443305,16.9021691 L265.272305,16.9331691" id="Fill-395" fill="#DB5276"></path><path d="M274.338305,19.5191691 L274.258305,19.5121691 C271.568305,19.0701691 268.962305,18.2461691 266.511305,17.0601691 C266.271305,16.9441691 266.170305,16.6551691 266.286305,16.4141691 C266.402305,16.1711691 266.692305,16.0721691 266.933305,16.1891691 C269.300305,17.3331691 271.817305,18.1301691 274.415305,18.5571691 C274.679305,18.6011691 274.858305,18.8501691 274.814305,19.1141691 C274.775305,19.3511691 274.570305,19.5191691 274.338305,19.5191691" id="Fill-396" fill="#DB5276"></path><path d="M267.479305,15.7191691 C267.554305,16.6741691 266.336305,17.5491691 264.758305,17.6721691 C263.181305,17.7951691 261.841305,17.1211691 261.767305,16.1661691 C261.693305,15.2101691 262.911305,14.3351691 264.488305,14.2121691 C266.066305,14.0891691 267.404305,14.7641691 267.479305,15.7191691" id="Fill-397" fill="#DB5276"></path><path d="M289.260305,49.2781691 C289.124305,49.2961691 288.981305,49.2561691 288.870305,49.1571691 C288.672305,48.9781691 288.657305,48.6711691 288.837305,48.4731691 C291.412305,45.6291691 293.957305,44.1821691 298.559305,42.9401691 C298.811305,42.8671691 299.083305,43.0231691 299.153305,43.2811691 C299.223305,43.5401691 299.069305,43.8051691 298.812305,43.8751691 C294.356305,45.0781691 292.019305,46.4021691 289.554305,49.1241691 C289.475305,49.2101691 289.370305,49.2631691 289.260305,49.2781691" id="Fill-398" fill="#DB5276"></path><path d="M299.604305,48.9961691 L299.553305,49.0001691 C296.380305,49.0961691 293.188305,49.4351691 290.073305,50.0061691 C289.809305,50.0721691 289.557305,49.8801691 289.510305,49.6181691 C289.461305,49.3551691 289.635305,49.1021691 289.898305,49.0541691 C293.061305,48.4711691 296.301305,48.1291691 299.523305,48.0321691 C299.791305,48.0241691 300.014305,48.2341691 300.022305,48.5011691 C300.030305,48.7501691 299.846305,48.9621691 299.604305,48.9961691" id="Fill-399" fill="#A52B51"></path><path d="M299.151305,45.2151691 L299.103305,45.2341691 C296.104305,46.2761691 293.160305,47.5551691 290.358305,49.0311691 C290.126305,49.1721691 289.828305,49.0661691 289.705305,48.8291691 C289.579305,48.5931691 289.671305,48.2991691 289.907305,48.1751691 C292.750305,46.6721691 295.740305,45.3761691 298.785305,44.3201691 C299.038305,44.2321691 299.314305,44.3661691 299.401305,44.6191691 C299.484305,44.8541691 299.371305,45.1121691 299.151305,45.2151691" id="Fill-400" fill="#A52B51"></path><path d="M288.645305,50.1241691 C288.451305,50.1501691 288.252305,50.0551691 288.154305,49.8731691 C288.026305,49.6371691 288.116305,49.3431691 288.351305,49.2171691 C291.813305,47.3571691 295.718305,46.2501691 299.639305,46.0041691 C299.906305,45.9881691 300.136305,46.1911691 300.153305,46.4581691 C300.169305,46.7251691 299.942305,46.9591691 299.699305,46.9711691 C295.912305,47.2031691 292.148305,48.2761691 288.809305,50.0701691 L288.645305,50.1241691" id="Fill-401" fill="#DB5276"></path><path d="M297.975305,51.4701691 L297.896305,51.4741691 C295.171305,51.3961691 292.478305,50.9291691 289.890305,50.0841691 C289.636305,50.0001691 289.497305,49.7271691 289.580305,49.4721691 C289.663305,49.2171691 289.936305,49.0801691 290.191305,49.1631691 C292.690305,49.9791691 295.291305,50.4311691 297.923305,50.5061691 C298.190305,50.5141691 298.401305,50.7371691 298.393305,51.0041691 C298.386305,51.2451691 298.206305,51.4391691 297.975305,51.4701691" id="Fill-402" fill="#DB5276"></path><path d="M290.669305,48.6251691 C290.871305,49.5611691 289.781305,50.5911691 288.234305,50.9241691 C286.688305,51.2581691 285.271305,50.7691691 285.068305,49.8331691 C284.866305,48.8961691 285.956305,47.8661691 287.503305,47.5331691 C289.049305,47.1991691 290.467305,47.6881691 290.669305,48.6251691" id="Fill-403" fill="#DB5276"></path><path d="M271.946305,33.1401691 C271.809305,33.1591691 271.666305,33.1191691 271.556305,33.0191691 C271.358305,32.8401691 271.343305,32.5341691 271.522305,32.3341691 C274.097305,29.4921691 276.642305,28.0441691 281.245305,26.8021691 C281.496305,26.7291691 281.768305,26.8851691 281.839305,27.1431691 C281.908305,27.4021691 281.755305,27.6671691 281.497305,27.7371691 C277.041305,28.9401691 274.705305,30.2631691 272.240305,32.9861691 C272.160305,33.0731691 272.056305,33.1251691 271.946305,33.1401691" id="Fill-404" fill="#DB5276"></path><path d="M282.290305,32.8581691 L282.238305,32.8621691 C279.065305,32.9591691 275.873305,33.2971691 272.758305,33.8681691 C272.494305,33.9331691 272.242305,33.7431691 272.195305,33.4801691 C272.146305,33.2171691 272.321305,32.9641691 272.584305,32.9171691 C275.747305,32.3331691 278.987305,31.9921691 282.209305,31.8941691 C282.477305,31.8851691 282.700305,32.0961691 282.707305,32.3631691 C282.715305,32.6131691 282.531305,32.8251691 282.290305,32.8581691" id="Fill-405" fill="#A52B51"></path><path d="M281.836305,29.0781691 L281.788305,29.0961691 C278.789305,30.1381691 275.845305,31.4171691 273.044305,32.8931691 C272.811305,33.0351691 272.513305,32.9271691 272.390305,32.6911691 C272.265305,32.4551691 272.356305,32.1621691 272.592305,32.0381691 C275.436305,30.5341691 278.425305,29.2391691 281.470305,28.1821691 C281.724305,28.0931691 282.000305,28.2281691 282.087305,28.4801691 C282.169305,28.7161691 282.057305,28.9731691 281.836305,29.0781691" id="Fill-406" fill="#A52B51"></path><path d="M271.330305,33.9851691 C271.136305,34.0111691 270.938305,33.9171691 270.839305,33.7351691 C270.712305,33.5001691 270.801305,33.2061691 271.036305,33.0801691 C274.498305,31.2181691 278.403305,30.1121691 282.325305,29.8671691 C282.591305,29.8501691 282.821305,30.0531691 282.839305,30.3201691 C282.855305,30.5871691 282.628305,30.8221691 282.385305,30.8341691 C278.597305,31.0651691 274.834305,32.1381691 271.495305,33.9311691 L271.330305,33.9851691" id="Fill-407" fill="#DB5276"></path><path d="M280.660305,35.3331691 L280.581305,35.3361691 C277.857305,35.2581691 275.163305,34.7911691 272.575305,33.9461691 C272.321305,33.8621691 272.182305,33.5891691 272.265305,33.3341691 C272.348305,33.0791691 272.622305,32.9421691 272.876305,33.0251691 C275.375305,33.8411691 277.977305,34.2931691 280.609305,34.3691691 C280.876305,34.3761691 281.086305,34.5991691 281.078305,34.8671691 C281.072305,35.1071691 280.891305,35.3011691 280.660305,35.3331691" id="Fill-408" fill="#DB5276"></path><path d="M273.355305,32.4871691 C273.557305,33.4231691 272.467305,34.4531691 270.920305,34.7871691 C269.374305,35.1211691 267.956305,34.6311691 267.754305,33.6951691 C267.552305,32.7581691 268.642305,31.7281691 270.189305,31.3951691 C271.735305,31.0611691 273.152305,31.5501691 273.355305,32.4871691" id="Fill-409" fill="#DB5276"></path><path d="M302.317305,64.3881691 C302.113305,65.1341691 301.290305,65.8991691 300.157305,66.2951691 C299.344305,66.5771691 298.540305,66.6161691 297.921305,66.4411691 C298.007305,65.3181691 298.366305,64.5041691 299.286305,64.6301691 C301.319305,64.9111691 301.949305,63.9331691 302.133305,63.4391691 C302.200305,63.2751691 302.210305,63.1681691 302.210305,63.1681691 L302.249305,63.6241691 L302.317305,64.3881691" id="Fill-410" fill="#A52B51"></path><g id="Group-413" transform="translate(183.806305, 6.982169)"><mask id="mask-2" fill="white"><use xlink:href="#path-1"></use></mask><g id="Clip-412"></g><path d="M23.562,47.8 L23.562,47.8 C20.434,45.311 16.019,38.184 12.184,26.108 C7.633,11.786 3.382,4.494 0.476,0.834 C2.946,1.977 5.725,3.119 9.124,3.391 C11.216,14.856 15.36,30.079 23.562,47.8" id="Fill-411" mask="url(#mask-2)"></path></g><g id="Group-416" transform="translate(192.806305, 5.982169)"><mask id="mask-4" fill="white"><use xlink:href="#path-3"></use></mask><g id="Clip-415"></g><path d="M16.814,49.833 C16.186,49.833 15.423,49.491 14.562,48.8 C6.36,31.079 2.216,15.856 0.124,4.391 C0.624,4.431 1.138,4.453 1.665,4.453 C4.273,4.453 7.227,3.92 10.65,2.502 C12.703,1.65 14.969,1.127 17.361,0.837 C14.94,11.159 13.439,26.014 17.468,39.697 C19.434,46.384 18.807,49.833 16.814,49.833" id="Fill-414" mask="url(#mask-4)"></path></g><g id="Group-419" transform="translate(121.806305, 7.982169)"><mask id="mask-6" fill="white"><use xlink:href="#path-5"></use></mask><g id="Clip-418"></g><path d="M1.458,33.456 C1.327,33.456 1.196,33.453 1.066,33.448 C0.724,30.122 0.569997787,26.989 0.569997787,24.042 C0.568,15.282 1.922,8.174 3.725,2.584 C4.134,2.593 4.542,2.598 4.951,2.598 C10.283,2.598 15.644,1.794 22.202,0.696 C16.402,3.155 10.175,9.169 8.093,26.804 C7.451,32.221 4.316,33.456 1.458,33.456" id="Fill-417" mask="url(#mask-6)"></path></g><g id="Group-422" transform="translate(107.806305, 6.982169)"><mask id="mask-8" fill="white"><use xlink:href="#path-7"></use></mask><g id="Clip-421"></g><path d="M15.066,34.448 C14.653,34.432 14.248,34.393 13.862,34.34 C9.398,33.73 5.815,29.014 5.388,17.393 C5.078,8.949 2.755,3.517 0.188,0.079 C1.883,0.688 3.665,1.269 5.563,1.783 C9.95,2.965 13.852,3.497 17.725,3.584 C15.922,9.174 14.568,16.282 14.57,25.042 C14.57,27.989 14.724,31.122 15.066,34.448" id="Fill-420" mask="url(#mask-8)"></path></g></g></g></svg>