<svg id="Capa_1" enable-background="new 0 0 512.236 512.236" height="512" viewBox="0 0 512.236 512.236" width="512" xmlns="http://www.w3.org/2000/svg"><g><g><path d="m496.556 42.6c-2.84-13.922-13.683-24.765-27.605-27.605-1.32-.269-2.643-.522-3.965-.778-104.68 13.007-212.033 64.176-299.23 151.374-87.198 87.198-138.367 194.55-151.373 299.23.255 1.322.508 2.645.777 3.965 2.84 13.922 13.683 24.765 27.605 27.605 122.211 24.931 254.201-9.994 348.999-104.792s129.723-226.788 104.792-348.999z" fill="#ce775f"/><path d="m356.25 403.328c-112.575 0-209.494-67.027-253.028-163.35-49.427 70.44-79.334 148.351-88.839 224.843.255 1.322.508 2.645.777 3.965 2.84 13.922 13.683 24.765 27.605 27.605 117.517 23.973 244.071-7.41 337.908-94.145-8.049.702-16.191 1.082-24.423 1.082z" fill="#c0694e"/><path d="m169.268 169.103c91.125-91.125 205.193-141.248 313.9-147.705-4.121-3.102-8.947-5.328-14.217-6.403-122.211-24.931-254.201 9.994-348.999 104.792s-129.722 226.788-104.792 348.998c1.075 5.27 3.301 10.096 6.403 14.217 6.458-108.706 56.58-222.774 147.705-313.899z" fill="#c0694e"/><path d="m81.443 164.669c-65.387 89.187-87.484 200.185-66.283 304.116 1.075 5.27 3.301 10.096 6.403 14.217 4.754-80.039 33.184-162.984 84.219-237.539-12.003-25.076-20.336-52.24-24.339-80.794z" fill="#b25d46"/><path d="m38.361 364.757 135.62 135.62c25.58-3.411 55.7-10.855 84.188-21.811l-186.997-186.997c-13.039 23.932-23.986 48.428-32.811 73.188z" fill="#b5dcff"/><path d="m43.633 370.029c8.33-25.096 18.928-49.958 31.754-74.245l-42.402-42.402c-.001.001-.001.003-.002.005-10.672 27.753-17.727 55.607-21.809 84.183z" fill="#8bcaff"/><path d="m364.922 38.196c-24.759 8.825-49.256 19.772-73.187 32.811l186.997 186.997c10.412-27.074 17.735-55.319 21.811-84.187z" fill="#dbedff"/><path d="m337.735 11.009c-22.757 2.845-54.631 10.444-84.188 21.811l42.402 42.402c24.287-12.825 49.149-23.424 74.245-31.754z" fill="#b5dcff"/></g><g><path d="m41.453 504.084c275.792 56.26 518.784-187.411 462.638-462.638-3.494-17.126-16.84-30.064-33.454-33.455-129.485-26.414-262.49 13.525-355.802 106.837s-133.25 226.322-106.837 355.801c3.389 16.624 16.351 29.966 33.455 33.455zm-22.947-61.122c-4.042-29.588-4.572-59.41-1.604-88.899l18.335 18.335c-7.516 23.346-13.108 46.906-16.731 70.564zm.82-107.688c3.498-23.127 9.149-45.916 16.843-67.943l30.208 30.208c-9.616 18.721-18.253 38.296-25.741 59.044zm25.125 154.113c-5.923-1.208-11.125-4.263-15.022-8.534 2.15-32.319 8.104-64.586 17.78-96.484l39.207 39.207c2.93 2.929 7.678 2.929 10.607 0s2.929-7.678 0-10.606l-44.631-44.63c6.938-20.175 15.319-40.062 25.141-59.645l167.218 167.219c-22.028 7.694-44.817 13.345-67.942 16.842l-55.037-55.037c-2.929-2.928-7.677-2.929-10.607 0-2.929 2.929-2.929 7.678 0 10.606l46.855 46.855c-37.389 3.751-75.636 1.945-113.569-5.793zm215.742-19.246-175.388-175.387c8.257-15.245 17.32-30.091 27.172-44.501l6.833 6.833c2.93 2.929 7.678 2.929 10.607 0s2.929-7.678 0-10.606l-8.661-8.661c3.26-4.477 6.597-8.91 10.012-13.297l7.895 7.894c2.93 2.929 7.678 2.929 10.607 0s2.929-7.678 0-10.606l-9.066-9.066c3.501-4.241 7.074-8.437 10.722-12.587l7.589 7.589c2.93 2.929 7.678 2.929 10.607 0s2.929-7.678 0-10.606l-8.117-8.117c3.732-4.013 7.535-7.98 11.408-11.9l7.56 7.559c2.93 2.929 7.678 2.929 10.607 0s2.929-7.678 0-10.606l-7.484-7.484c3.98-3.815 8.009-7.555 12.082-11.227l7.859 7.859c2.93 2.929 7.678 2.929 10.607 0s2.929-7.678 0-10.606l-7.159-7.159c4.211-3.588 8.468-7.101 12.771-10.539l8.452 8.451c2.93 2.929 7.678 2.929 10.607 0s2.929-7.678 0-10.606l-7.117-7.117c4.452-3.351 8.95-6.623 13.492-9.817l7.688 7.688c1.465 1.465 3.384 2.197 5.304 2.197 1.919 0 3.839-.732 5.304-2.197 2.929-2.929 2.929-7.678 0-10.606l-5.673-5.673c12.188-8.038 24.677-15.522 37.447-22.438l76.15 76.149c2.93 2.929 7.678 2.927 10.607 0 2.929-2.929 2.929-7.678 0-10.606l-72.816-72.815c19.565-9.812 39.449-18.196 59.646-25.141l124.416 124.416c-3.497 23.125-9.148 45.915-16.842 67.942l-69.654-69.654c-2.93-2.929-7.678-2.929-10.607 0s-2.929 7.678 0 10.606l74.489 74.489c-37.607 93.914-112.842 171.068-209.956 209.953zm75.088-450.821 21.309 21.308c-20.565 7.422-40.159 16.04-59.044 25.742l-30.208-30.208c22.027-7.693 44.816-13.344 67.943-16.842zm159.906 138.693-110.81-110.81c31.897-9.676 64.165-15.629 96.483-17.78 4.271 3.897 7.325 9.098 8.533 15.022 7.739 37.933 9.545 76.18 5.794 113.568zm-52.209-139.515c-23.662 3.623-47.226 9.215-70.574 16.732l-18.341-18.342c29.953-3.005 59.72-2.379 88.915 1.61zm-191.085 23.434 31.816 31.816c-12.687 7.014-25.101 14.571-37.22 22.666l-10.002-10.002c-2.929-2.929-7.677-2.929-10.607 0-2.929 2.929-2.929 7.678 0 10.606l8.054 8.054c-4.523 3.214-9.003 6.504-13.438 9.87l-8.679-8.679c-2.93-2.929-7.678-2.929-10.607 0s-2.929 7.678 0 10.606l7.374 7.374c-4.291 3.45-8.535 6.977-12.737 10.573l-8.7-8.7c-2.93-2.929-7.678-2.929-10.607 0s-2.929 7.678 0 10.606l8.021 8.021c-4.068 3.678-8.094 7.421-12.072 11.238l-8.407-8.407c-2.93-2.929-7.678-2.929-10.607 0s-2.929 7.678 0 10.606l8.333 8.333c-3.874 3.919-7.679 7.884-11.416 11.893l-7.769-7.769c-2.93-2.929-7.678-2.929-10.607 0s-2.929 7.678 0 10.606l8.285 8.285c-3.655 4.142-7.235 8.331-10.747 12.562l-6.783-6.783c-2.93-2.929-7.678-2.929-10.607 0s-2.929 7.678 0 10.606l7.917 7.917c-3.428 4.372-6.784 8.787-10.062 13.248l-7.101-7.1c-2.93-2.929-7.678-2.929-10.607 0s-2.929 7.678 0 10.606l8.882 8.882c-9.911 14.332-19.064 29.087-27.438 44.235l-31.812-31.813c18.571-46.479 46.878-89.832 83.501-126.454 36.708-36.709 79.807-64.826 126.449-83.502z"/></g></g></svg>