<svg width="198px" height="204px" viewBox="0 0 198 204" version="1.1" xmlns="http://www.w3.org/2000/svg" xmlns:xlink="http://www.w3.org/1999/xlink"><title>Group</title><desc>Created with Sketch.</desc><g id="Page-1" stroke="none" stroke-width="1" fill="none" fill-rule="evenodd"><g id="115628-OOWO3S-223" transform="translate(-257.000000, -265.000000)"><g id="Group" transform="translate(257.358499, 265.517584)"><path d="M171.850501,172.047416 C165.571501,172.047416 27.8575009,172.466416 21.9975009,172.047416 C21.9975009,172.047416 24.7385009,177.271416 29.2875009,183.068416 C27.8965009,181.296416 26.6735009,179.579416 25.6475009,178.047416 L170.669501,178.047416 C169.916501,179.696416 169.057501,181.392416 168.097501,183.069416 C170.330501,179.167416 172.008501,175.164416 173.106501,171.898416 C172.711501,171.992416 172.295501,172.047416 171.850501,172.047416" id="Fill-147" fill="#DF542E"></path><path d="M52.9725009,198.418416 C70.1345009,198.418416 132.503501,198.418416 147.991501,198.418416 C156.804501,198.418416 163.581501,190.961416 168.097501,183.070416 L29.2885009,183.070416 C34.9615009,190.298416 43.4485009,198.418416 52.9725009,198.418416" id="Fill-148" fill="#DF542E"></path><path d="M105.364501,19.0324157 C105.367501,19.0394157 105.368501,19.0424157 105.371501,19.0504157 C110.345501,18.1954157 128.361501,14.9844157 126.434501,13.6674157 C124.514501,12.3544157 109.389501,4.64541574 105.195501,2.51341574 C105.302501,3.01041574 105.364501,3.57241574 105.364501,4.19541574 C105.364501,5.06941574 105.364501,10.5624157 105.364501,19.0324157" id="Fill-149" fill="#DF542E"></path><path d="M105.364501,140.374416 C105.614501,147.309416 105.784501,151.536416 105.784501,151.536416 C105.784501,151.536416 162.154501,154.885416 161.037501,151.536416 C159.954501,148.287416 108.431501,26.2934157 105.371501,19.0504157 C105.368501,19.0424157 105.367501,19.0394157 105.364501,19.0324157 C105.364501,46.6454157 105.364501,105.940416 105.364501,140.374416" id="Fill-150" fill="#87C9DD"></path><path d="M105.364501,140.374416 C105.364501,105.940416 105.364501,46.6454157 105.364501,19.0324157 C105.364501,10.5624157 105.364501,5.06941574 105.364501,4.19541574 C105.364501,3.57241574 105.302501,3.01041574 105.195501,2.51341574 C104.438501,-0.991584263 101.388501,-1.18158426 101.388501,4.19541574 C101.388501,5.25241574 101.388501,10.7254157 101.388501,19.0614157 C102.109501,18.8194157 102.504501,18.7064157 102.504501,18.7064157 C102.121501,19.7884157 101.749501,20.8694157 101.388501,21.9484157 C101.388501,54.4304157 101.388501,122.329416 101.388501,151.584416 C101.741501,152.650416 101.947501,153.211416 101.947501,153.211416 C101.947501,153.211416 101.749501,153.215416 101.388501,153.222416 C101.388501,156.397416 101.388501,159.026416 101.388501,161.042416 C102.716501,161.035416 104.041501,161.027416 105.364501,161.021416 C105.364501,156.416416 105.364501,149.217416 105.364501,140.374416" id="Fill-151" fill="#78493B"></path><path d="M101.388501,151.584416 C97.9865009,141.292416 80.8225009,83.5584157 101.388501,21.9484157 C101.749501,20.8694157 102.121501,19.7884157 102.504501,18.7064157 C102.504501,18.7064157 102.109501,18.8194157 101.388501,19.0614157 C94.5645009,21.3444157 58.3035009,35.1984157 46.6935009,75.0754157 C33.8575009,119.166416 41.1125009,149.862416 44.4615009,152.095416 C47.6105009,154.194416 95.6805009,153.332416 101.388501,153.222416 C101.749501,153.215416 101.947501,153.211416 101.947501,153.211416 C101.947501,153.211416 101.741501,152.650416 101.388501,151.584416" id="Fill-152" fill="#5EB3D1"></path><path d="M171.850501,172.047416 C172.295501,172.047416 172.711501,171.992416 173.106501,171.898416 C178.276501,170.665416 179.088501,161.942416 175.198501,161.164416 C173.239501,160.772416 140.455501,160.839416 105.364501,161.021416 C104.041501,161.027416 102.716501,161.035416 101.388501,161.042416 C62.6995009,161.250416 22.5235009,161.583416 18.6485009,161.583416 C15.3795009,161.583416 16.1375009,171.628416 21.9975009,172.047416 C27.8575009,172.466416 165.571501,172.047416 171.850501,172.047416" id="Fill-153" fill="#F8C628"></path><path d="M25.6475009,178.047416 C26.6735009,179.579416 27.8965009,181.296416 29.2875009,183.068416 L29.2885009,183.069416 L29.2885009,183.070416 L168.097501,183.070416 L168.097501,183.069416 C169.057501,181.392416 169.916501,179.696416 170.669501,178.047416 L25.6475009,178.047416" id="Fill-154" fill="#F8C628"></path><path d="M105.249501,2.85941574 C105.317501,3.27041574 105.364501,3.70841574 105.364501,4.19541574 C105.364501,5.06941574 105.364501,10.5624157 105.364501,19.0324157 C105.367501,19.0394157 105.368501,19.0424157 105.371501,19.0504157 C110.345501,18.1954157 128.361501,14.9844157 126.434501,13.6674157 C108.515501,15.8004157 105.636501,4.95141574 105.249501,2.85941574" id="Fill-155" fill="#C64D2C"></path><path d="M170.553501,178.287416 C170.235501,178.977416 169.899501,179.674416 169.544501,180.374416 C169.899501,179.673416 170.234501,178.977416 170.553501,178.287416" id="Fill-156" fill="#DB3D2D"></path><path d="M170.669501,178.047416 L170.662501,178.047416 C170.626501,178.127416 170.590501,178.206416 170.553501,178.287416 C170.590501,178.207416 170.633501,178.126416 170.669501,178.047416" id="Fill-157" fill="#DB3D2D"></path><path d="M169.544501,180.374416 C169.471501,180.518416 169.395501,180.662416 169.321501,180.806416 C169.395501,180.662416 169.471501,180.519416 169.544501,180.374416" id="Fill-158" fill="#DB3D2D"></path><path d="M169.321501,180.806416 C168.931501,181.560416 168.528501,182.317416 168.097501,183.069416 C168.528501,182.317416 168.931501,181.561416 169.321501,180.806416" id="Fill-159" fill="#DB3D2D"></path><path d="M171.850501,172.047416 C170.158501,172.047416 158.913501,172.077416 143.284501,172.114416 C141.530501,174.282416 139.558501,176.273416 137.403501,178.047416 L170.662501,178.047416 C171.660501,175.862416 172.480501,173.759416 173.106501,171.898416 C172.711501,171.992416 172.295501,172.047416 171.850501,172.047416" id="Fill-160" fill="#DB3D2D"></path><path d="M122.264501,185.915416 C119.198501,186.738416 116.029501,187.203416 113.055501,188.314416 C110.971501,189.094416 109.015501,190.180416 106.966501,191.048416 C104.507501,192.090416 101.925501,192.813416 99.3405009,193.488416 C91.3635009,195.569416 83.2715009,197.214416 75.1155009,198.418416 C100.555501,198.418416 136.709501,198.418416 147.991501,198.418416 C156.804501,198.418416 163.581501,190.961416 168.097501,183.070416 L129.680501,183.070416 C127.309501,184.258416 124.829501,185.226416 122.264501,185.915416" id="Fill-161" fill="#DB3D2D"></path><path d="M175.198501,161.164416 C173.955501,160.915416 160.298501,160.851416 141.524501,160.884416 C142.359501,162.481416 142.587501,164.472416 142.182501,166.254416 C141.683501,168.449416 140.453501,170.372416 139.007501,172.123416 C156.836501,172.083416 170.007501,172.047416 171.850501,172.047416 C172.295501,172.047416 172.711501,171.992416 173.106501,171.898416 C178.276501,170.665416 179.088501,161.942416 175.198501,161.164416" id="Fill-162" fill="#EDA62F"></path><path d="M128.534501,183.070416 L168.097501,183.070416 L168.097501,183.069416 C169.057501,181.392416 169.916501,179.696416 170.669501,178.047416 L135.276501,178.047416 C133.029501,179.721416 130.781501,181.395416 128.534501,183.070416" id="Fill-163" fill="#EDA62F"></path><path d="M91.6565009,75.6944157 C91.7445009,73.6734157 91.8605009,71.6314157 92.0105009,69.5664157 C86.7155009,68.7564157 81.4615009,67.7014157 76.2615009,65.8714157 C68.8795009,63.2734157 62.1595009,59.0244157 56.5675009,53.5974157 C55.8025009,54.7664157 55.0585009,55.9704157 54.3385009,57.2114157 C63.7955009,67.1744157 77.7165009,73.3824157 91.6565009,75.6944157 Z M69.4405009,94.3834157 C76.5495009,96.8594157 84.1905009,98.6674157 91.8885009,99.3664157 C91.7715009,97.4954157 91.6775009,95.5874157 91.6045009,93.6494157 C85.6795009,93.2134157 79.7815009,92.3804157 73.8875009,90.8584157 C67.0295009,89.0884157 60.4435009,86.4144157 54.1535009,83.1794157 C51.5915009,81.8624157 48.5265009,80.3834157 45.7125009,78.5844157 C45.3975009,79.7424157 45.1015009,80.8874157 44.8145009,82.0254157 C45.8315009,82.7154157 46.8555009,83.3774157 47.8345009,84.0344157 C54.4735009,88.4834157 61.9135009,91.7614157 69.4405009,94.3834157 Z M79.3905009,146.182416 C86.0105009,145.950416 92.6125009,145.171416 99.1395009,144.031416 C98.6845009,142.355416 98.1995009,140.474416 97.6995009,138.392416 C91.0605009,139.728416 84.3225009,140.527416 77.5615009,140.938416 C64.9305009,141.705416 52.5785009,140.396416 40.2825009,138.132416 C40.5055009,139.811416 40.7595009,141.344416 41.0335009,142.742416 C53.5445009,145.739416 66.6575009,146.627416 79.3905009,146.182416 Z M94.6855009,48.2784157 C91.5305009,47.2514157 88.4395009,46.0434157 85.4685009,44.6494157 C80.5645009,42.3494157 76.0735009,39.3904157 71.5555009,36.4714157 C70.3335009,37.5354157 69.1155009,38.6684157 67.9065009,39.8484157 C75.5595009,45.7774157 84.4695009,51.1144157 93.7685009,53.8184157 C94.0455009,51.9824157 94.3515009,50.1354157 94.6855009,48.2784157 Z M97.3735009,35.7524157 C97.8345009,33.9094157 98.3255009,32.0594157 98.8495009,30.2044157 C97.5435009,29.7484157 96.2615009,29.2424157 95.0395009,28.6204157 C92.8085009,27.4854157 90.9145009,26.0264157 89.1325009,24.4374157 C87.8555009,25.1154157 86.5225009,25.8624157 85.1435009,26.6804157 C88.3995009,30.3054157 92.7945009,33.5324157 97.3735009,35.7524157 Z M94.0365009,119.509416 C94.3695009,121.713416 94.7195009,123.835416 95.0825009,125.859416 C87.4595009,125.811416 79.8185009,124.882416 72.9935009,123.699416 C61.4805009,121.704416 50.2135009,118.137416 39.7525009,112.942416 C39.8615009,111.401416 39.9945009,109.826416 40.1565009,108.211416 C50.5405009,112.914416 61.4335009,116.332416 72.7925009,118.069416 C79.8065009,119.142416 86.9335009,119.674416 94.0365009,119.509416 L94.0365009,119.509416 Z" id="Fill-164" fill="#9ED6EA"></path><path d="M102.504501,18.7064157 C102.504501,18.7064157 78.9655009,38.8944157 72.5735009,87.3374157 C69.5625009,110.153416 70.5825009,134.312416 72.5035009,153.488416 C85.4555009,153.513416 98.5735009,153.276416 101.388501,153.222416 C101.749501,153.215416 101.947501,153.211416 101.947501,153.211416 C101.947501,153.211416 101.741501,152.650416 101.388501,151.584416 C97.9865009,141.292416 80.8225009,83.5584157 101.388501,21.9484157 C101.749501,20.8694157 102.121501,19.7884157 102.504501,18.7064157" id="Fill-165" fill="#559FB7"></path><path d="M97.3735009,35.7524157 C97.3745009,35.7504157 97.3745009,35.7484157 97.3755009,35.7464157 C97.8355009,33.9054157 98.3255009,32.0594157 98.8485009,30.2064157 C98.8485009,30.2054157 98.8495009,30.2054157 98.8495009,30.2044157 C97.5435009,29.7484157 96.2615009,29.2424157 95.0395009,28.6204157 C94.7895009,28.4934157 94.5575009,28.3484157 94.3155009,28.2134157 C93.4265009,29.4454157 92.4965009,30.8034157 91.5395009,32.2904157 C93.3965009,33.6014157 95.3645009,34.7784157 97.3735009,35.7524157" id="Fill-166" fill="#7ACAE6"></path><path d="M98.7845009,142.703416 C98.6755009,142.290416 98.5655009,141.866416 98.4535009,141.431416 C98.4455009,141.399416 98.4375009,141.369416 98.4295009,141.338416 C98.1905009,140.404416 97.9475009,139.424416 97.6995009,138.392416 C91.0605009,139.728416 84.3225009,140.527416 77.5615009,140.938416 C75.5225009,141.062416 73.4935009,141.113416 71.4675009,141.133416 C71.5855009,142.869416 71.7115009,144.586416 71.8485009,146.267416 C74.3705009,146.288416 76.8895009,146.270416 79.3905009,146.182416 C86.0105009,145.950416 92.6125009,145.171416 99.1395009,144.031416 C99.1385009,144.027416 99.1375009,144.024416 99.1365009,144.020416 C99.0285009,143.620416 98.9175009,143.207416 98.8055009,142.783416 C98.7985009,142.757416 98.7915009,142.730416 98.7845009,142.703416" id="Fill-167" fill="#7ACAE6"></path><path d="M93.7685009,53.8184157 C93.7685009,53.8184157 93.7685009,53.8174157 93.7685009,53.8164157 C94.0455009,51.9834157 94.3505009,50.1394157 94.6845009,48.2854157 C94.6855009,48.2834157 94.6855009,48.2804157 94.6855009,48.2784157 C91.5305009,47.2514157 88.4395009,46.0434157 85.4685009,44.6494157 C85.2595009,44.5514157 85.0555009,44.4454157 84.8475009,44.3454157 C84.0965009,45.9204157 83.3545009,47.5854157 82.6225009,49.3174157 C86.2335009,51.1624157 89.9675009,52.7134157 93.7685009,53.8184157" id="Fill-168" fill="#7ACAE6"></path><path d="M91.6565009,75.6944157 C91.6565009,75.6934157 91.6565009,75.6924157 91.6565009,75.6904157 C91.7445009,73.6714157 91.8605009,71.6324157 92.0105009,69.5694157 C92.0105009,69.5684157 92.0105009,69.5674157 92.0105009,69.5664157 C86.9125009,68.7864157 81.8525009,67.7724157 76.8415009,66.0644157 C76.3865009,67.7214157 75.9505009,69.4254157 75.5355009,71.1764157 C80.7285009,73.2734157 86.1895009,74.7884157 91.6565009,75.6944157" id="Fill-169" fill="#7ACAE6"></path><path d="M72.9935009,123.699416 C79.8185009,124.882416 87.4595009,125.811416 95.0825009,125.859416 C94.9045009,124.866416 94.7295009,123.847416 94.5585009,122.810416 C94.5535009,122.781416 94.5485009,122.752416 94.5435009,122.723416 C94.3705009,121.676416 94.2025009,120.607416 94.0385009,119.517416 C94.0375009,119.514416 94.0375009,119.512416 94.0365009,119.509416 C86.9335009,119.674416 79.8065009,119.142416 72.7925009,118.069416 C72.0825009,117.961416 71.3805009,117.826416 70.6745009,117.705416 C70.6695009,119.570416 70.6865009,121.421416 70.7145009,123.264416 C71.4745009,123.410416 72.2315009,123.567416 72.9935009,123.699416" id="Fill-170" fill="#7ACAE6"></path><path d="M91.8885009,99.3664157 L91.8885009,99.3664157 C91.7715009,97.4954157 91.6775009,95.5874157 91.6045009,93.6494157 C85.6795009,93.2134157 79.7815009,92.3804157 73.8875009,90.8584157 C73.3235009,90.7134157 72.7645009,90.5524157 72.2045009,90.3944157 C72.0215009,91.9724157 71.8545009,93.5534157 71.7065009,95.1384157 C78.1635009,97.2234157 85.0015009,98.7404157 91.8885009,99.3664157" id="Fill-171" fill="#7ACAE6"></path><path d="M114.800501,44.3234157 C115.327501,44.5794157 115.849501,44.8474157 116.373501,45.1104157 C115.555501,43.1734157 114.769501,41.3114157 114.018501,39.5304157 C111.156501,38.3164157 108.273501,37.1394157 105.364501,36.0364157 C105.364501,37.3204157 105.364501,38.6264157 105.364501,39.9604157 C108.521501,41.3864157 111.681501,42.8104157 114.800501,44.3234157 Z M105.364501,31.3394157 C107.430501,32.2484157 109.539501,33.0704157 111.638501,33.8924157 C110.887501,32.1124157 110.192501,30.4674157 109.554501,28.9554157 C108.164501,28.5084157 106.767501,28.0934157 105.364501,27.7274157 C105.364501,28.8974157 105.364501,30.1064157 105.364501,31.3394157 Z M150.051501,150.803416 C151.781501,151.353416 153.743501,152.098416 155.792501,152.817416 C159.210501,152.601416 161.259501,152.201416 161.037501,151.536416 C160.931501,151.216416 160.329501,149.730416 159.338501,147.330416 C157.217501,146.910416 155.120501,146.542416 153.271501,146.036416 C146.774501,144.262416 140.367501,142.175416 134.024501,139.915416 C124.190501,136.411416 114.714501,132.141416 105.364501,127.569416 C105.364501,129.162416 105.364501,130.723416 105.364501,132.252416 C113.128501,136.373416 121.158501,140.000416 129.287501,143.338416 C136.093501,146.133416 143.039501,148.578416 150.051501,150.803416 Z M132.110501,152.738416 C127.044501,150.933416 121.998501,149.095416 117.073501,146.827416 C113.136501,145.013416 109.276501,143.006416 105.389501,141.063416 C105.455501,142.889416 105.515501,144.518416 105.567501,145.910416 C109.592501,148.094416 113.687501,150.154416 117.742501,152.160416 C122.014501,152.361416 127.032501,152.574416 132.110501,152.738416 Z M129.240501,75.6224157 C128.270501,73.3204157 127.306501,71.0344157 126.354501,68.7754157 C124.406501,67.9364157 122.464501,67.1104157 120.582501,66.2444157 C115.522501,63.9164157 110.481501,61.4764157 105.364501,59.2404157 C105.364501,60.6534157 105.364501,62.0764157 105.364501,63.5114157 C109.684501,65.7224157 114.076501,67.8114157 118.405501,69.9694157 C121.958501,71.7404157 125.550501,73.8214157 129.240501,75.6224157 Z M148.028501,134.888416 C148.912501,135.196416 151.888501,136.362416 155.282501,137.579416 C154.376501,135.411416 153.389501,133.051416 152.324501,130.510416 C150.209501,129.855416 148.099501,129.185416 145.996501,128.495416 C131.953501,123.889416 118.654501,117.909416 105.364501,111.678416 C105.364501,113.380416 105.364501,115.061416 105.364501,116.725416 C113.115501,120.789416 121.166501,124.358416 129.174501,127.722416 C135.374501,130.326416 141.677501,132.681416 148.028501,134.888416 Z M105.364501,51.8864157 C109.703501,53.8734157 114.198501,55.5874157 118.579501,57.4004157 C119.783501,57.8984157 120.995501,58.4234157 122.214501,58.9594157 C121.473501,57.2024157 120.745501,55.4754157 120.031501,53.7824157 C115.167501,51.9134157 110.307501,49.9314157 105.364501,48.2924157 C105.364501,49.4764157 105.364501,50.6764157 105.364501,51.8864157 Z M133.310501,110.033416 C137.480501,111.887416 141.696501,113.633416 145.942501,115.302416 C145.030501,113.130416 144.092501,110.901416 143.138501,108.632416 C140.480501,107.635416 137.832501,106.611416 135.195501,105.563416 C124.969501,101.498416 115.303501,96.3564157 105.364501,91.7424157 C105.364501,93.2634157 105.364501,94.7804157 105.364501,96.2924157 C114.264501,101.585416 123.983501,105.885416 133.310501,110.033416 Z M105.364501,81.1114157 C105.364501,79.8344157 105.364501,78.5584157 105.364501,77.2854157 C108.690501,78.4074157 112.037501,79.3264157 113.110501,79.7064157 C117.901501,81.4004157 122.719501,83.0204157 127.590501,84.4744157 C129.586501,85.0704157 131.618501,85.5994157 133.659501,86.1114157 C134.575501,88.2844157 135.489501,90.4564157 136.399501,92.6174157 C130.465501,90.7564157 124.633501,88.5404157 119.125501,86.5084157 C114.506501,84.8044157 109.895501,83.0474157 105.364501,81.1114157 L105.364501,81.1114157 Z" id="Fill-172" fill="#BFE4EE"></path><path d="M105.364501,140.374416 C105.614501,147.309416 105.784501,151.536416 105.784501,151.536416 C105.784501,151.536416 117.649501,152.241416 130.383501,152.681416 C127.839501,148.061416 124.862501,141.397416 123.034501,133.088416 C119.333501,116.268416 105.371501,19.0504157 105.371501,19.0504157 L105.364501,19.0994157 C105.364501,46.7394157 105.364501,105.967416 105.364501,140.374416" id="Fill-173" fill="#65BFDB"></path><path d="M106.679501,28.0934157 C106.241501,27.9694157 105.803501,27.8424157 105.364501,27.7274157 C105.364501,28.8974157 105.364501,30.1064157 105.364501,31.3394157 C105.993501,31.6164157 106.631501,31.8734157 107.266501,32.1364157 C107.056501,30.6914157 106.859501,29.3334157 106.679501,28.0934157" id="Fill-174" fill="#9AD4EA"></path><path d="M107.985501,37.0654157 C107.112501,36.7204157 106.241501,36.3694157 105.364501,36.0364157 C105.364501,37.3204157 105.364501,38.6264157 105.364501,39.9604157 C106.452501,40.4514157 107.538501,40.9464157 108.624501,41.4414157 C108.403501,39.9264157 108.189501,38.4664157 107.985501,37.0654157" id="Fill-175" fill="#9AD4EA"></path><path d="M109.864501,49.8804157 C108.369501,49.3294157 106.871501,48.7914157 105.364501,48.2924157 C105.364501,49.4764157 105.364501,50.6764157 105.364501,51.8864157 C107.052501,52.6594157 108.767501,53.3854157 110.486501,54.0974157 C110.275501,52.6674157 110.067501,51.2614157 109.864501,49.8804157" id="Fill-176" fill="#9AD4EA"></path><path d="M130.013501,151.983416 C125.653501,150.413416 121.317501,148.781416 117.073501,146.827416 C113.136501,145.013416 109.276501,143.006416 105.389501,141.063416 C105.455501,142.889416 105.515501,144.518416 105.567501,145.910416 C109.592501,148.094416 113.687501,150.154416 117.741501,152.160416 C117.825501,152.164416 117.906501,152.168416 117.991501,152.172416 C118.362501,152.189416 118.739501,152.207416 119.121501,152.224416 C119.329501,152.234416 119.541501,152.244416 119.752501,152.253416 C120.067501,152.267416 120.385501,152.281416 120.706501,152.296416 C120.875501,152.303416 121.042501,152.311416 121.213501,152.318416 C121.658501,152.338416 122.109501,152.357416 122.564501,152.377416 C122.729501,152.384416 122.895501,152.391416 123.062501,152.398416 C123.562501,152.419416 124.066501,152.440416 124.576501,152.461416 C124.636501,152.464416 124.697501,152.466416 124.757501,152.468416 C125.257501,152.489416 125.760501,152.509416 126.267501,152.529416 C126.370501,152.533416 126.472501,152.537416 126.574501,152.541416 C127.127501,152.562416 127.683501,152.583416 128.242501,152.604416 C128.312501,152.606416 128.383501,152.609416 128.453501,152.612416 C129.031501,152.633416 129.612501,152.654416 130.195501,152.674416 C130.202501,152.674416 130.209501,152.674416 130.215501,152.675416 C130.271501,152.677416 130.328501,152.678416 130.383501,152.680416 C130.262501,152.460416 130.136501,152.212416 130.013501,151.983416" id="Fill-177" fill="#9AD4EA"></path><path d="M123.722501,135.929416 C117.509501,133.350416 111.409501,130.525416 105.364501,127.569416 C105.364501,129.162416 105.364501,130.723416 105.364501,132.252416 C111.918501,135.731416 118.667501,138.843416 125.499501,141.742416 C124.860501,139.924416 124.260501,137.981416 123.722501,135.929416" id="Fill-178" fill="#9AD4EA"></path><path d="M120.398501,118.540416 C115.359501,116.328416 110.361501,114.021416 105.364501,111.678416 C105.364501,113.380416 105.364501,115.061416 105.364501,116.725416 C110.602501,119.471416 115.981501,121.980416 121.387501,124.364416 C121.077501,122.587416 120.747501,120.639416 120.398501,118.540416" id="Fill-179" fill="#9AD4EA"></path><path d="M111.672501,62.0974157 C109.577501,61.1264157 107.478501,60.1644157 105.364501,59.2404157 C105.364501,60.6534157 105.364501,62.0764157 105.364501,63.5114157 C107.698501,64.7054157 110.051501,65.8644157 112.405501,67.0184157 C112.158501,65.3644157 111.913501,63.7224157 111.672501,62.0974157" id="Fill-180" fill="#9AD4EA"></path><path d="M117.009501,97.3294157 C113.136501,95.4504157 109.271501,93.5564157 105.364501,91.7424157 C105.364501,93.2634157 105.364501,94.7804157 105.364501,96.2924157 C109.407501,98.6964157 113.622501,100.889416 117.889501,102.962416 C117.600501,101.123416 117.306501,99.2444157 117.009501,97.3294157" id="Fill-181" fill="#9AD4EA"></path><path d="M114.378501,80.1494157 C113.956501,80.0004157 113.532501,79.8554157 113.110501,79.7064157 C112.037501,79.3264157 108.690501,78.4074157 105.364501,77.2854157 C105.364501,78.5584157 105.364501,79.8344157 105.364501,81.1114157 C108.582501,82.4864157 111.842501,83.7694157 115.116501,85.0094157 C114.870501,83.3954157 114.624501,81.7734157 114.378501,80.1494157" id="Fill-182" fill="#9AD4EA"></path><path d="M43.3885009,164.968416 C41.6655009,162.836416 37.9185009,163.725416 35.5005009,163.758416 C31.7785009,163.810416 27.9425009,163.803416 24.2725009,164.467416 C23.3815009,164.629416 23.7255009,165.810416 24.4675009,165.908416 C27.6455009,166.328416 30.9175009,166.288416 34.1215009,166.425416 C37.0355009,166.550416 40.0635009,167.090416 42.9555009,166.608416 C43.7595009,166.474416 43.7985009,165.476416 43.3885009,164.968416" id="Fill-183" fill="#FAED45"></path><path d="M52.4185009,164.662416 C51.5175009,164.078416 50.7975009,163.805416 49.7035009,163.873416 C48.6645009,163.938416 47.5555009,164.176416 46.7305009,164.820416 C46.1225009,165.294416 46.5015009,166.332416 47.1745009,166.500416 C47.9745009,166.701416 48.8785009,166.602416 49.7035009,166.622416 C50.6315009,166.644416 51.3225009,166.492416 52.2095009,166.261416 C52.9725009,166.063416 53.0365009,165.061416 52.4185009,164.662416" id="Fill-184" fill="#FAED45"></path><path d="M71.9195009,183.423416 C68.2625009,183.423416 65.2965009,180.653416 65.2965009,177.236416 C65.2965009,173.819416 68.2625009,171.049416 71.9195009,171.049416 C75.5765009,171.049416 78.5415009,173.819416 78.5415009,177.236416 C78.5415009,180.653416 75.5765009,183.423416 71.9195009,183.423416 Z M71.9195009,164.862416 C64.6045009,164.862416 58.6745009,170.402416 58.6745009,177.236416 C58.6745009,184.070416 64.6045009,189.611416 71.9195009,189.611416 C79.2345009,189.611416 85.1645009,184.070416 85.1645009,177.236416 C85.1645009,170.402416 79.2345009,164.862416 71.9195009,164.862416 L71.9195009,164.862416 Z" id="Fill-185" fill="#FFFFFE"></path><path d="M65.7765009,188.194416 L67.7065009,182.010416 C66.9585009,181.434416 66.3555009,180.703416 65.9365009,179.876416 L61.0105009,184.248416 C62.2285009,185.899416 63.8645009,187.256416 65.7765009,188.194416" id="Fill-186" fill="#5EB3D1"></path><path d="M59.7585009,172.336416 L65.9355009,174.599416 C66.3885009,173.704416 67.0615009,172.929416 67.8935009,172.332416 C66.9895009,170.669416 66.1555009,167.977416 65.6875009,166.319416 C63.0525009,167.634416 60.9505009,169.758416 59.7585009,172.336416" id="Fill-187" fill="#5EB3D1"></path><path d="M78.4775009,166.494416 C77.4215009,168.183416 76.1715009,170.402416 75.3245009,171.937416 C76.6785009,172.698416 77.7185009,173.894416 78.2155009,175.323416 L84.5915009,173.639416 C83.6015009,170.590416 81.3835009,168.046416 78.4775009,166.494416" id="Fill-188" fill="#5EB3D1"></path><path d="M82.9815009,184.033416 C80.9955009,183.019416 78.6765009,181.796416 77.2365009,180.913416 C76.5755009,181.746416 75.6985009,182.418416 74.6785009,182.856416 L78.3745009,188.036416 C80.2335009,187.065416 81.8135009,185.689416 82.9815009,184.033416" id="Fill-189" fill="#5EB3D1"></path><path d="M103.577501,183.423416 C99.9195009,183.423416 96.9545009,180.653416 96.9545009,177.236416 C96.9545009,173.819416 99.9195009,171.049416 103.577501,171.049416 C107.234501,171.049416 110.199501,173.819416 110.199501,177.236416 C110.199501,180.653416 107.234501,183.423416 103.577501,183.423416 Z M103.577501,164.862416 C96.2625009,164.862416 90.3325009,170.402416 90.3325009,177.236416 C90.3325009,184.070416 96.2625009,189.611416 103.577501,189.611416 C110.892501,189.611416 116.822501,184.070416 116.822501,177.236416 C116.822501,170.402416 110.892501,164.862416 103.577501,164.862416 L103.577501,164.862416 Z" id="Fill-190" fill="#FFFFFE"></path><path d="M97.4345009,188.194416 L99.3645009,182.010416 C98.6165009,181.434416 98.0135009,180.703416 97.5945009,179.876416 L92.6685009,184.248416 C93.8865009,185.899416 95.5225009,187.256416 97.4345009,188.194416" id="Fill-191" fill="#46849A"></path><path d="M91.4165009,172.336416 L97.5935009,174.599416 C98.0465009,173.704416 98.7195009,172.929416 99.5515009,172.332416 C98.6475009,170.669416 97.8135009,167.977416 97.3455009,166.319416 C94.7105009,167.634416 92.6085009,169.758416 91.4165009,172.336416" id="Fill-192" fill="#46849A"></path><path d="M110.134501,166.494416 C109.079501,168.183416 107.829501,170.402416 106.982501,171.937416 C108.336501,172.698416 109.376501,173.894416 109.873501,175.323416 L116.249501,173.639416 C115.259501,170.590416 113.041501,168.046416 110.134501,166.494416" id="Fill-193" fill="#46849A"></path><path d="M114.639501,184.033416 C112.653501,183.019416 110.334501,181.796416 108.894501,180.913416 C108.233501,181.746416 107.356501,182.418416 106.336501,182.856416 L110.033501,188.036416 C111.891501,187.065416 113.471501,185.689416 114.639501,184.033416" id="Fill-194" fill="#46849A"></path><path d="M135.235501,183.423416 C131.577501,183.423416 128.612501,180.653416 128.612501,177.236416 C128.612501,173.819416 131.577501,171.049416 135.235501,171.049416 C138.892501,171.049416 141.857501,173.819416 141.857501,177.236416 C141.857501,180.653416 138.892501,183.423416 135.235501,183.423416 Z M135.235501,164.862416 C127.920501,164.862416 121.990501,170.402416 121.990501,177.236416 C121.990501,184.070416 127.920501,189.611416 135.235501,189.611416 C142.550501,189.611416 148.480501,184.070416 148.480501,177.236416 C148.480501,170.402416 142.550501,164.862416 135.235501,164.862416 L135.235501,164.862416 Z" id="Fill-195" fill="#FFFFFE"></path><path d="M129.092501,188.194416 L131.022501,182.010416 C130.274501,181.434416 129.671501,180.703416 129.252501,179.876416 L124.326501,184.248416 C125.544501,185.899416 127.180501,187.256416 129.092501,188.194416" id="Fill-196" fill="#5EB3D1"></path><path d="M123.074501,172.336416 L129.251501,174.599416 C129.704501,173.704416 130.377501,172.929416 131.209501,172.332416 C130.305501,170.669416 129.471501,167.977416 129.003501,166.319416 C126.368501,167.634416 124.266501,169.758416 123.074501,172.336416" id="Fill-197" fill="#5EB3D1"></path><path d="M141.792501,166.494416 C140.737501,168.183416 139.487501,170.402416 138.640501,171.937416 C139.994501,172.698416 141.034501,173.894416 141.531501,175.323416 L147.907501,173.639416 C146.917501,170.590416 144.699501,168.046416 141.792501,166.494416" id="Fill-198" fill="#5EB3D1"></path><path d="M146.297501,184.033416 C144.311501,183.019416 141.992501,181.796416 140.552501,180.913416 C139.891501,181.746416 139.013501,182.418416 137.994501,182.856416 L141.690501,188.036416 C143.549501,187.065416 145.129501,185.689416 146.297501,184.033416" id="Fill-199" fill="#5EB3D1"></path><path d="M197.548501,196.968416 C196.143501,195.116416 194.386501,194.764416 192.099501,194.815416 C190.288501,194.856416 188.491501,195.606416 186.818501,196.198416 C185.879501,196.549416 184.920501,196.837416 183.942501,197.062416 L180.575501,197.101416 C178.400501,196.955416 177.376501,195.678416 177.502501,193.270416 C178.351501,192.925416 178.620501,191.491416 177.502501,191.269416 C169.179501,189.617416 163.141501,197.004416 155.643501,199.197416 C155.176501,199.334416 155.280501,200.011416 155.756501,200.030416 C162.955501,200.319416 167.908501,193.063416 174.918501,193.068416 C174.230501,194.782416 175.568501,196.965416 177.489501,198.166416 C183.723501,202.063416 190.243501,194.853416 196.731501,197.785416 C197.206501,197.999416 197.952501,197.501416 197.548501,196.968416" id="Fill-200" fill="#8BD0E8"></path><path d="M182.792501,200.672416 C179.126501,201.870416 174.820501,202.568416 172.206501,199.017416 C171.957501,198.679416 171.537501,198.505416 171.145501,198.738416 C169.668501,199.619416 168.063501,200.300416 166.688501,201.328416 C166.356501,201.576416 166.549501,202.072416 166.969501,201.995416 C168.483501,201.716416 169.878501,201.033416 171.273501,200.380416 C174.162501,204.278416 179.207501,203.642416 183.252501,201.762416 C183.868501,201.476416 183.429501,200.463416 182.792501,200.672416" id="Fill-201" fill="#8BD0E8"></path><path d="M195.676501,192.713416 C193.000501,191.379416 190.032501,191.562416 187.267501,192.580416 C186.356501,192.915416 186.734501,194.371416 187.672501,194.050416 C190.174501,193.195416 192.666501,193.323416 195.242501,193.743416 C195.828501,193.839416 196.291501,193.020416 195.676501,192.713416" id="Fill-202" fill="#8BD0E8"></path><path d="M39.5175009,195.183416 C38.0155009,194.637416 36.6795009,194.424416 35.0555009,194.746416 C34.1565009,194.870416 33.2845009,195.097416 32.4385009,195.424416 C30.8375009,195.940416 27.4375009,196.294416 31.0395009,194.055416 C31.7605009,193.607416 31.6005009,192.563416 30.8115009,192.306416 C22.4805009,189.592416 14.3415009,195.043416 6.46750089,197.177416 C6.03750089,197.294416 6.14350089,197.912416 6.57050089,197.932416 C14.2385009,198.292416 20.7905009,192.105416 28.4185009,193.625416 C27.6335009,194.312416 26.9565009,195.087416 26.3375009,196.039416 C26.1225009,196.369416 26.1695009,196.938416 26.4865009,197.196416 C27.6135009,198.112416 28.3975009,198.369416 29.8805009,198.312416 C30.5425009,198.287416 31.1775009,197.996416 31.7835009,197.740416 C34.3535009,196.655416 36.6435009,196.559416 39.3495009,196.420416 C40.0785009,196.383416 40.1825009,195.425416 39.5175009,195.183416" id="Fill-203" fill="#8BD0E8"></path><path d="M27.6375009,199.248416 C25.9855009,199.169416 23.6665009,199.399416 23.3285009,197.167416 C23.2485009,196.638416 22.5745009,196.480416 22.1685009,196.695416 C19.7235009,197.991416 17.0695009,198.435416 14.3545009,198.762416 C13.7885009,198.831416 13.7595009,199.635416 14.3545009,199.664416 C17.0355009,199.793416 19.4795009,199.194416 21.9865009,198.394416 C22.7735009,200.669416 25.5015009,200.974416 27.7865009,200.355416 C28.4175009,200.183416 28.2615009,199.277416 27.6375009,199.248416" id="Fill-204" fill="#8BD0E8"></path><path d="M10.5605009,193.497416 C7.12350089,194.552416 3.59350089,195.281416 0.160500885,196.335416 C-0.0894991145,196.412416 -0.0304991145,196.761416 0.220500885,196.778416 C3.93550089,197.032416 7.60650089,195.953416 10.9285009,194.369416 C11.4215009,194.134416 11.0725009,193.340416 10.5605009,193.497416" id="Fill-205" fill="#8BD0E8"></path></g></g></g></svg>