<?xml version="1.0" encoding="UTF-8"?>
<svg width="426px" height="350px" viewBox="0 0 426 350" version="1.1" xmlns="http://www.w3.org/2000/svg" xmlns:xlink="http://www.w3.org/1999/xlink">
    <!-- Generator: Sketch 55.2 (78181) - https://sketchapp.com -->
    <title>Group</title>
    <desc>Created with Sketch.</desc>
    <g id="Page-1" stroke="none" stroke-width="1" fill="none" fill-rule="evenodd">
        <g id="6134171" transform="translate(-16.000000, -96.000000)">
            <g id="Group" transform="translate(16.125011, 96.654179)">
                <polyline id="Fill-1" fill="#E4E4DE" points="35.6729894 293.751821 44.1329894 349.345821 93.2819894 349.345821 104.688989 294.554821 35.6729894 293.751821"></polyline>
                <path d="M97.8169894,329.381821 C97.8169894,329.540821 85.2229894,329.669821 69.6909894,329.669821 C54.1539894,329.669821 41.5629894,329.540821 41.5629894,329.381821 C41.5629894,329.222821 54.1539894,329.092821 69.6909894,329.092821 C85.2229894,329.092821 97.8169894,329.222821 97.8169894,329.381821" id="Fill-2" fill="#FAF9F6"></path>
                <path d="M98.0079894,326.647821 C98.0079894,326.806821 85.3279894,326.935821 69.6909894,326.935821 C54.0489894,326.935821 41.3719894,326.806821 41.3719894,326.647821 C41.3719894,326.488821 54.0489894,326.359821 69.6909894,326.359821 C85.3279894,326.359821 98.0079894,326.488821 98.0079894,326.647821" id="Fill-3" fill="#FAF9F6"></path>
                <path d="M97.9109894,323.559821 C97.9109894,323.718821 85.2309894,323.847821 69.5939894,323.847821 C53.9519894,323.847821 41.2749894,323.718821 41.2749894,323.559821 C41.2749894,323.400821 53.9519894,323.270821 69.5939894,323.270821 C85.2309894,323.270821 97.9109894,323.400821 97.9109894,323.559821" id="Fill-4" fill="#FAF9F6"></path>
                <path d="M49.7789894,346.173821 C49.6219894,346.200821 48.9469894,343.066821 48.2709894,339.174821 C47.5949894,335.279821 47.1749894,332.102821 47.3319894,332.075821 C47.4889894,332.048821 48.1639894,335.181821 48.8399894,339.075821 C49.5149894,342.968821 49.9359894,346.146821 49.7789894,346.173821" id="Fill-5" fill="#FAF9F6"></path>
                <path d="M53.1219894,345.583823 C52.9589894,345.586821 52.7709894,342.524821 52.5129894,338.753821 C52.2589894,334.981821 52.0299894,331.922821 52.1919894,331.903741 C52.3459894,331.885821 52.8329894,334.926821 53.0879894,338.714821 C53.3479894,342.500821 53.2769894,345.580821 53.1219894,345.583823" id="Fill-6" fill="#FAF9F6"></path>
                <path d="M59.2149894,345.580821 C59.0629894,345.607821 58.3919894,342.485821 57.9369894,338.578821 C57.4769894,334.670821 57.4079894,331.477821 57.5629894,331.468797 C57.7259894,331.458821 58.0509894,334.620821 58.5099894,338.511821 C58.9629894,342.400821 59.3769894,345.553821 59.2149894,345.580821" id="Fill-7" fill="#FAF9F6"></path>
                <path d="M63.4939894,345.87486 C63.3389894,345.887821 62.9379894,342.706821 62.8129894,338.758821 C62.6819894,334.809821 62.8749894,331.610821 63.0309894,331.613818 C63.1939894,331.616821 63.2589894,334.808821 63.3889894,338.740821 C63.5139894,342.671821 63.6569894,345.860821 63.4939894,345.87486" id="Fill-8" fill="#FAF9F6"></path>
                <path d="M71.0659894,345.583827 C70.9069894,345.588821 70.6749894,342.564821 70.5489894,338.830821 C70.4219894,335.094821 70.4489894,332.062821 70.6079894,332.057814 C70.7679894,332.052821 70.9989894,335.075821 71.1249894,338.810821 C71.2519894,342.545821 71.2249894,345.577821 71.0659894,345.583827" id="Fill-9" fill="#FAF9F6"></path>
                <path d="M76.5969894,345.876821 C76.4379894,345.874821 76.3339894,342.746821 76.3659894,338.890821 C76.3969894,335.032821 76.5519894,331.906821 76.7109894,331.90782 C76.8699894,331.909821 76.9739894,335.036821 76.9429894,338.894821 C76.9109894,342.751821 76.7569894,345.877821 76.5969894,345.876821" id="Fill-10" fill="#FAF9F6"></path>
                <path d="M81.7829894,345.133872 C81.6249894,345.118821 81.8119894,341.849821 82.2019894,337.832821 C82.5919894,333.814821 83.0369894,330.571821 83.1959894,330.586769 C83.3539894,330.601821 83.1659894,333.870821 82.7759894,337.888821 C82.3869894,341.904821 81.9419894,345.148821 81.7829894,345.133872" id="Fill-11" fill="#FAF9F6"></path>
                <path d="M88.4699894,344.405821 C88.3179894,344.386821 88.5569894,341.581821 89.2969894,338.196821 C90.0309894,334.808821 90.9779894,332.158821 91.1249894,332.204821 C91.2829894,332.252821 90.5879894,334.957821 89.8609894,338.319821 C89.1269894,341.678821 88.6339894,344.427821 88.4699894,344.405821" id="Fill-12" fill="#FAF9F6"></path>
                <path d="M83.7369894,184.050689 C83.7459894,184.053821 83.7259894,184.146821 83.6779894,184.324821 C83.6159894,184.534821 83.5409894,184.791821 83.4479894,185.109821 C83.2209894,185.839821 82.9079894,186.842821 82.5129894,188.110821 C82.0919894,189.407821 81.5909894,190.999821 81.0699894,192.866821 C80.5409894,194.730821 79.8829894,196.837821 79.2979894,199.205821 C78.6739894,201.562821 77.9979894,204.146821 77.3829894,206.946821 C76.7009894,209.732821 76.1269894,212.741821 75.4869894,215.900821 C74.3089894,222.237821 73.2339894,229.245821 72.4759894,236.646821 C71.7559894,244.053821 71.4249894,251.137821 71.3269894,257.583821 C71.3299894,260.806821 71.2979894,263.870821 71.4159894,266.735821 C71.4659894,269.603821 71.6179894,272.269821 71.7629894,274.703821 C71.8689894,277.140821 72.0979894,279.335821 72.2489894,281.267821 C72.3899894,283.200821 72.5669894,284.859821 72.7229894,286.214821 C72.8599894,287.535821 72.9669894,288.579821 73.0459894,289.340821 C73.0739894,289.670821 73.0969894,289.937821 73.1159894,290.155821 C73.1289894,290.339821 73.1299894,290.435853 73.1199894,290.435853 C73.1099894,290.437821 73.0889894,290.345821 73.0579894,290.163821 C73.0239894,289.947821 72.9819894,289.682821 72.9309894,289.355821 C72.8259894,288.597821 72.6819894,287.556821 72.4999894,286.240821 C72.3089894,284.887821 72.0989894,283.230821 71.9269894,281.297821 C71.7459894,279.366821 71.4889894,277.170821 71.3559894,274.730821 C71.1839894,272.294821 71.0089894,269.623821 70.9379894,266.751821 C70.7989894,263.880821 70.8129894,260.809821 70.7949894,257.579821 C70.8639894,251.118821 71.1809894,244.014821 71.9019894,236.589821 C72.6619894,229.170821 73.7559894,222.145821 74.9649894,215.799821 C75.6209894,212.636821 76.2129894,209.623821 76.9169894,206.837821 C77.5539894,204.036821 78.2539894,201.453821 78.9039894,199.097821 C79.5159894,196.732821 80.2019894,194.631821 80.7609894,192.773821 C81.3119894,190.912821 81.8459894,189.329821 82.2999894,188.040821 C82.7389894,186.786821 83.0849894,185.794821 83.3379894,185.072821 C83.4529894,184.761821 83.5459894,184.509821 83.6209894,184.305821 C83.6889894,184.133821 83.7269894,184.046821 83.7369894,184.050689" id="Fill-13" fill="#E4E4DE"></path>
                <path d="M74.8659894,218.474821 C76.1919894,214.503821 78.9459894,211.025821 82.5069894,208.823821 C83.7249894,208.070821 85.2609894,207.457821 86.5499894,208.080821 C88.2639894,208.909821 88.4029894,211.322821 87.8909894,213.156821 C87.0309894,216.242821 85.0139894,218.991821 82.3289894,220.738821 C79.6439894,222.485821 77.1509894,223.308821 73.9809894,222.843821" id="Fill-14" fill="#E4E4DE"></path>
                <path d="M71.8809894,241.719821 C73.1499894,236.921821 76.9779894,230.100821 80.9529894,227.130821 C81.5819894,226.660821 82.2539894,226.215821 83.0159894,226.031821 C83.7789894,225.846821 84.6549894,225.965821 85.2219894,226.508821 C86.0339894,227.286821 85.9539894,228.594821 85.7149894,229.693821 C84.1959894,236.692821 78.3639894,242.563821 71.3749894,244.128821" id="Fill-15" fill="#E4E4DE"></path>
                <path d="M71.0569894,262.181821 C73.0129894,257.622821 76.2099894,253.604821 80.2099894,250.671821 C81.1489894,249.983821 82.2589894,249.325821 83.4039894,249.533821 C85.1409894,249.847821 85.9279894,251.968821 85.7749894,253.726821 C85.4589894,257.345821 82.6949894,260.247821 79.8409894,262.496821 C76.7689894,264.918821 71.3749894,266.847821 71.3749894,266.847821" id="Fill-16" fill="#E4E4DE"></path>
                <path d="M71.5199894,276.889821 C73.5289894,273.469821 76.0279894,270.255821 79.3069894,268.023821 C80.0189894,267.538821 80.7899894,267.093821 81.6439894,266.976821 C82.4969894,266.859821 83.4519894,267.136821 83.9359894,267.848821 C84.7169894,268.995821 83.9729894,270.545821 83.1359894,271.651821 C80.2449894,275.476821 76.5989894,278.368821 72.0239894,279.803821" id="Fill-17" fill="#E4E4DE"></path>
                <path d="M71.1349894,270.915821 C67.7799894,266.804821 64.0479894,263.001821 59.9989894,259.571821 C59.3669894,259.036821 58.5669894,258.475821 57.7799894,258.731821 C57.1699894,258.930821 56.8009894,259.588821 56.7579894,260.228821 C56.7159894,260.868821 56.9369894,261.495821 57.1819894,262.088821 C59.6159894,267.970821 65.3499894,272.578821 71.5199894,274.149821" id="Fill-18" fill="#E4E4DE"></path>
                <path d="M71.4899894,251.773821 C68.5739894,248.218821 65.6569894,244.663821 62.7409894,241.108821 C61.9089894,240.093821 61.0489894,239.054821 59.9029894,238.415821 C58.7569894,237.774821 57.2439894,237.615821 56.1709894,238.370821 C55.0999894,239.124821 54.7379894,240.603821 54.9739894,241.892821 C55.2089894,243.180821 55.9339894,244.320821 56.6809894,245.396821 C58.4589894,247.957821 60.4869894,250.401821 63.0549894,252.168821 C65.6239894,253.935821 67.9579894,255.084821 71.0419894,254.629821" id="Fill-19" fill="#E4E4DE"></path>
                <path d="M72.7069894,230.223821 C71.0079894,225.144821 67.9359894,220.532821 63.9029894,217.007821 C63.2289894,216.417821 62.4889894,215.839821 61.6089894,215.669821 C59.8559894,215.330821 58.1629894,216.794821 57.5959894,218.487821 C56.9569894,220.391821 57.3939894,222.537821 58.3949894,224.278821 C59.3959894,226.019821 60.9119894,227.406821 62.5069894,228.626821 C65.4479894,230.875821 68.7459894,232.655821 72.2389894,233.880821" id="Fill-20" fill="#E4E4DE"></path>
                <path d="M76.2009894,211.008821 C75.3539894,204.825821 72.1359894,199.680821 68.4069894,194.677821 C67.6209894,193.623821 66.5239894,192.504821 65.2239894,192.702821 C64.3949894,192.828821 63.7259894,193.499821 63.3969894,194.270821 C63.0689894,195.041821 63.0289894,195.903821 63.0509894,196.741821 C63.2469894,204.211821 68.4009894,211.307821 75.4449894,213.803821" id="Fill-21" fill="#E4E4DE"></path>
                <path d="M78.6499894,201.196821 C78.3439894,198.018821 78.0369894,194.816821 78.3299894,191.637821 C78.6239894,188.457821 79.5559894,185.263821 81.5039894,182.733821 C82.3409894,181.645821 83.3909894,180.671821 84.6799894,180.200821 C85.9689894,179.729821 87.5249894,179.837821 88.5779894,180.717821 C89.5529894,181.532821 89.9609894,182.877821 89.9119894,184.148821 C89.8619894,185.418821 89.4139894,186.637821 88.9259894,187.811821 C86.5959894,193.418821 82.7079894,199.627821 78.6499894,201.196821" id="Fill-22" fill="#E4E4DE"></path>
                <path d="M40.5379894,208.564821 C40.5589894,208.565821 40.5749894,208.835821 40.5869894,209.348821 C40.5929894,209.919821 40.6009894,210.664821 40.6119894,211.592821 C40.6089894,212.566821 40.6149894,213.758821 40.6669894,215.140821 C40.7119894,216.523821 40.7219894,218.098821 40.8369894,219.835821 C40.9879894,223.313821 41.3259894,227.446821 41.8529894,232.016821 C42.4189894,236.582821 43.1979894,241.581821 44.2739894,246.781821 C45.3769894,251.976821 46.6739894,256.869821 47.9899894,261.278821 C49.3439894,265.675821 50.6959894,269.595821 51.9539894,272.841821 C52.5469894,274.478821 53.1709894,275.924821 53.6849894,277.208821 C54.1929894,278.495821 54.6669894,279.588821 55.0599894,280.479821 C55.4229894,281.333821 55.7149894,282.019821 55.9389894,282.544821 C56.1339894,283.019821 56.2279894,283.272821 56.2099894,283.282017 C56.1919894,283.289821 56.0629894,283.053821 55.8339894,282.593821 C55.5849894,282.079821 55.2599894,281.407821 54.8549894,280.571821 C54.4299894,279.693821 53.9259894,278.611821 53.3879894,277.334821 C52.8449894,276.059821 52.1929894,274.621821 51.5739894,272.989821 C50.2639894,269.754821 48.8679894,265.837821 47.4819894,261.433821 C46.1329894,257.019821 44.8169894,252.112821 43.7089894,246.899821 C42.6289894,241.682821 41.8639894,236.661821 41.3249894,232.077821 C40.8249894,227.489821 40.5289894,223.341821 40.4289894,219.852821 C40.3399894,218.110821 40.3589894,216.530821 40.3439894,215.145821 C40.3229894,213.758821 40.3499894,212.565821 40.3869894,211.590821 C40.4219894,210.662821 40.4489894,209.916821 40.4709894,209.345821 C40.4959894,208.832821 40.5189894,208.564821 40.5379894,208.564821" id="Fill-23" fill="#D4D5CF"></path>
                <path d="M41.9089894,233.911821 C41.9569894,230.922821 43.0829894,227.961821 45.0339894,225.696821 C45.7009894,224.921821 46.6149894,224.173821 47.6259894,224.320821 C48.9719894,224.515821 49.5859894,226.128821 49.6329894,227.487821 C49.7109894,229.773821 48.9299894,232.079821 47.4769894,233.846821 C46.0249894,235.613821 44.5049894,236.710821 42.2469894,237.076821" id="Fill-24" fill="#D4D5CF"></path>
                <path d="M44.8799894,250.380821 C44.7109894,246.840821 45.8489894,241.372821 47.9159894,238.494821 C48.2429894,238.039821 48.6049894,237.591821 49.0839894,237.302821 C49.5639894,237.012821 50.1859894,236.904821 50.6889894,237.152821 C51.4089894,237.506821 51.6359894,238.414821 51.7099894,239.214821 C52.1829894,244.306821 49.4759894,249.559821 45.0539894,252.129821" id="Fill-25" fill="#D4D5CF"></path>
                <path d="M48.7239894,264.488821 C49.0739894,260.964821 50.3849894,257.539821 52.4779894,254.682821 C52.9689894,254.011821 53.5829894,253.324821 54.4069894,253.219821 C55.6569894,253.060821 56.6499894,254.334821 56.9239894,255.564821 C57.4879894,258.096821 56.2299894,260.666821 54.7719894,262.812821 C53.2009894,265.122821 49.9449894,267.597821 49.9449894,267.597821" id="Fill-26" fill="#D4D5CF"></path>
                <path d="M52.2039894,274.403821 C52.8359894,271.642821 53.8459894,268.915821 55.5979894,266.690821 C55.9779894,266.207821 56.4079894,265.738821 56.9629894,265.474821 C57.5189894,265.211821 58.2289894,265.194821 58.7119894,265.574821 C59.4899894,266.187821 59.3169894,267.403821 58.9859894,268.336821 C57.8409894,271.562821 55.9809894,274.317821 53.1749894,276.278821" id="Fill-27" fill="#D4D5CF"></path>
                <path d="M50.6559894,270.418821 C47.4879894,268.341821 44.1269894,266.555821 40.6319894,265.092821 C40.0869894,264.863821 39.4219894,264.654821 38.9409894,264.998821 C38.5689894,265.264821 38.4589894,265.792821 38.5679894,266.236821 C38.6769894,266.682821 38.9619894,267.061821 39.2569894,267.411821 C42.1799894,270.893821 47.0759894,272.795821 51.6149894,272.537821" id="Fill-28" fill="#D4D5CF"></path>
                <path d="M46.7779894,257.309821 C44.0269894,255.516821 41.2759894,253.723821 38.5259894,251.931821 C37.7399894,251.419821 36.9309894,250.897821 36.0139894,250.708821 C35.0959894,250.519821 34.0309894,250.736821 33.4629894,251.481821 C32.8959894,252.225821 32.9679894,253.310821 33.4059894,254.136821 C33.8439894,254.963821 34.5819894,255.583821 35.3219894,256.155821 C37.0839894,257.516821 38.9919894,258.744821 41.1199894,259.393821 C43.2489894,260.044821 45.0859894,260.324821 47.0879894,259.350821" id="Fill-29" fill="#D4D5CF"></path>
                <path d="M42.9679894,242.375821 C40.7179894,239.282821 37.6329894,236.804821 34.1289894,235.272821 C33.5429894,235.016821 32.9149894,234.781821 32.2789894,234.854821 C31.0119894,235.001821 30.1749894,236.362821 30.1529894,237.637821 C30.1279894,239.071821 30.8869894,240.438821 31.9439894,241.408821 C32.9999894,242.378821 34.3309894,242.996821 35.6789894,243.483821 C38.1659894,244.381821 40.7939894,244.883821 43.4369894,244.966821" id="Fill-30" fill="#D4D5CF"></path>
                <path d="M41.2109894,228.540821 C39.3039894,224.513821 36.0049894,221.703821 32.3889894,219.099821 C31.6269894,218.551821 30.6389894,218.025821 29.7969894,218.440821 C29.2599894,218.704821 28.9479894,219.305821 28.8909894,219.900821 C28.8329894,220.496821 28.9909894,221.091821 29.1869894,221.657821 C30.9279894,226.701821 35.9649894,230.423821 41.2979894,230.606821" id="Fill-31" fill="#D4D5CF"></path>
                <path d="M40.7659894,221.333821 C39.8729894,219.235821 38.9759894,217.121821 38.4909894,214.893821 C38.0059894,212.665821 37.9539894,210.290821 38.7349894,208.148821 C39.0709894,207.227821 39.5759894,206.338821 40.3519894,205.740821 C41.1279894,205.142821 42.2099894,204.880821 43.1169894,205.253821 C43.9569894,205.597821 44.5239894,206.427821 44.7639894,207.302821 C45.0039894,208.177821 44.9609894,209.103821 44.8809894,210.008821 C44.5019894,214.327821 43.1909894,219.391821 40.7659894,221.333821" id="Fill-32" fill="#D4D5CF"></path>
                <path d="M102.678989,208.025818 C102.698989,208.024821 102.721989,208.293821 102.746989,208.806821 C102.767989,209.377821 102.795989,210.123821 102.829989,211.051821 C102.866989,212.026821 102.894989,213.219821 102.872989,214.605821 C102.857989,215.991821 102.876989,217.570821 102.787989,219.313821 C102.687989,222.802821 102.392989,226.950821 101.892989,231.538821 C101.353989,236.122821 100.588989,241.143821 99.5089894,246.360821 C98.4009894,251.573821 97.0839894,256.480821 95.7349894,260.894821 C94.3499894,265.297821 92.9539894,269.215821 91.6439894,272.450821 C91.0239894,274.082821 90.3729894,275.520821 89.8289894,276.795821 C89.2919894,278.072821 88.7879894,279.154821 88.3619894,280.032821 C87.9579894,280.868821 87.6329894,281.540821 87.3839894,282.054821 C87.1549894,282.513821 87.0259894,282.750821 87.0079894,282.743017 C86.9899894,282.733821 87.0839894,282.480821 87.2789894,282.005821 C87.5019894,281.480821 87.7939894,280.794821 88.1569894,279.940821 C88.5509894,279.050821 89.0239894,277.956821 89.5329894,276.669821 C90.0459894,275.385821 90.6709894,273.939821 91.2639894,272.302821 C92.5219894,269.056821 93.8739894,265.136821 95.2269894,260.738821 C96.5439894,256.330821 97.8399894,251.437821 98.9439894,246.241821 C100.019989,241.042821 100.798989,236.042821 101.364989,231.477821 C101.891989,226.907821 102.228989,222.774821 102.380989,219.296821 C102.495989,217.559821 102.505989,215.984821 102.549989,214.601821 C102.602989,213.218821 102.607989,212.027821 102.605989,211.053821 C102.615989,210.125821 102.623989,209.380821 102.630989,208.809821 C102.642989,208.296821 102.658989,208.025818 102.678989,208.025818" id="Fill-33" fill="#E4E4DE"></path>
                <path d="M101.308989,233.372821 C101.260989,230.382821 100.134989,227.422821 98.1839894,225.156821 C97.5169894,224.382821 96.6029894,223.634821 95.5909894,223.780821 C94.2449894,223.976821 93.6319894,225.589821 93.5849894,226.948821 C93.5069894,229.234821 94.2879894,231.540821 95.7399894,233.307821 C97.1919894,235.074821 98.7129894,236.171821 100.969989,236.537821" id="Fill-34" fill="#E4E4DE"></path>
                <path d="M98.3379894,249.840821 C98.5059894,246.301821 97.3689894,240.832821 95.3019894,237.955821 C94.9749894,237.500821 94.6129894,237.052821 94.1329894,236.763821 C93.6539894,236.473821 93.0309894,236.364821 92.5289894,236.613821 C91.8089894,236.967821 91.5809894,237.875821 91.5069894,238.675821 C91.0349894,243.766821 93.7419894,249.020821 98.1629894,251.590821" id="Fill-35" fill="#E4E4DE"></path>
                <path d="M94.4939894,263.949821 C94.1439894,260.425821 92.8329894,257.000821 90.7399894,254.143821 C90.2489894,253.472821 89.6339894,252.785821 88.8099894,252.680821 C87.5599894,252.521821 86.5669894,253.795821 86.2939894,255.025821 C85.7299894,257.557821 86.9879894,260.128821 88.4459894,262.273821 C90.0159894,264.583821 93.2729894,267.058821 93.2729894,267.058821" id="Fill-36" fill="#E4E4DE"></path>
                <path d="M91.0129894,273.864821 C90.3819894,271.103821 89.3719894,268.376821 87.6199894,266.151821 C87.2389894,265.668821 86.8099894,265.199821 86.2539894,264.935821 C85.6979894,264.672821 84.9889894,264.655821 84.5049894,265.035821 C83.7269894,265.648821 83.8999894,266.863821 84.2319894,267.797821 C85.3769894,271.024821 87.2369894,273.777821 90.0419894,275.739821" id="Fill-37" fill="#E4E4DE"></path>
                <path d="M92.5609894,269.879821 C95.7299894,267.802821 99.0899894,266.016821 102.584989,264.553821 C103.130989,264.324821 103.794989,264.114821 104.276989,264.459821 C104.648989,264.725821 104.758989,265.253821 104.649989,265.697821 C104.540989,266.142821 104.255989,266.521821 103.960989,266.872821 C101.036989,270.353821 96.1419894,272.256821 91.6029894,271.998821" id="Fill-38" fill="#E4E4DE"></path>
                <path d="M96.4399894,256.770821 C99.1899894,254.977821 101.940989,253.184821 104.691989,251.392821 C105.476989,250.880821 106.285989,250.358821 107.203989,250.169821 C108.121989,249.980821 109.186989,250.197821 109.753989,250.942821 C110.320989,251.686821 110.248989,252.771821 109.811989,253.597821 C109.373989,254.424821 108.634989,255.044821 107.894989,255.616821 C106.132989,256.976821 104.225989,258.204821 102.096989,258.854821 C99.9679894,259.505821 98.1319894,259.784821 96.1299894,258.811821" id="Fill-39" fill="#E4E4DE"></path>
                <path d="M100.249989,241.836821 C102.499989,238.744821 105.583989,236.264821 109.088989,234.733821 C109.674989,234.476821 110.302989,234.242821 110.937989,234.315821 C112.204989,234.462821 113.041989,235.823821 113.063989,237.098821 C113.088989,238.532821 112.329989,239.899821 111.273989,240.869821 C110.216989,241.838821 108.886989,242.457821 107.537989,242.944821 C105.051989,243.842821 102.423989,244.344821 99.7809894,244.426821" id="Fill-40" fill="#E4E4DE"></path>
                <path d="M102.006989,228.001821 C103.913989,223.974821 107.212989,221.164821 110.827989,218.560821 C111.590989,218.012821 112.578989,217.486821 113.420989,217.900821 C113.957989,218.165821 114.268989,218.765821 114.326989,219.361821 C114.384989,219.957821 114.225989,220.552821 114.030989,221.118821 C112.289989,226.162821 107.252989,229.884821 101.919989,230.067821" id="Fill-41" fill="#E4E4DE"></path>
                <path d="M102.450989,220.794821 C103.343989,218.696821 104.241989,216.582821 104.726989,214.354821 C105.211989,212.126821 105.263989,209.751821 104.481989,207.609821 C104.146989,206.688821 103.641989,205.799821 102.864989,205.201821 C102.088989,204.603821 101.006989,204.341821 100.100989,204.714821 C99.2609894,205.059821 98.6939894,205.887821 98.4539894,206.763821 C98.2139894,207.638821 98.2569894,208.564821 98.3359894,209.469821 C98.7159894,213.788821 100.025989,218.852821 102.450989,220.794821" id="Fill-42" fill="#E4E4DE"></path>
                <path d="M30.0329894,282.742821 L30.0329894,293.144821 C30.0329894,295.406821 31.8669894,297.240821 34.1289894,297.240821 L105.300989,297.240821 C107.562989,297.240821 109.396989,295.406821 109.396989,293.144821 L109.396989,282.742821 L30.0329894,282.742821" id="Fill-43" fill="#E4E4DE"></path>
                <path d="M390.441989,163.421821 C390.336989,163.518821 387.283989,160.378821 383.623989,156.408821 C379.963989,152.437821 377.082989,149.139821 377.187989,149.042821 C377.293989,148.944821 380.345989,152.084821 384.006989,156.055821 C387.666989,160.025821 390.547989,163.323821 390.441989,163.421821" id="Fill-84" fill="#FFFFFE"></path>
                <path d="M29.5769894,153.577821 C29.5619894,153.609821 29.0899894,153.421821 28.2519894,153.052821 C27.3279894,152.633821 26.1419894,152.094821 24.7209894,151.448821 C21.7499894,150.072821 17.6599894,148.140821 13.1579894,145.977821 C12.0329894,145.434821 10.9349894,144.905821 9.87298943,144.393821 C9.34398943,144.136821 8.82298943,143.884821 8.31298943,143.636821 C7.81098943,143.381821 7.33398943,143.220821 6.81998943,143.177821 C5.80498943,143.081821 4.82798943,143.454821 4.14798943,144.048821 C3.45298943,144.628821 3.12598943,145.490821 2.69698943,146.192821 C1.92198943,147.548821 1.27498943,148.678821 0.770989434,149.559821 C0.306989434,150.348821 0.0349894345,150.776821 0.00298943449,150.759821 C-0.0280105655,150.742821 0.182989434,150.281821 0.593989434,149.462821 C1.05898943,148.560821 1.65698943,147.403821 2.37298943,146.017821 C2.56598943,145.652821 2.76498943,145.273821 2.97298943,144.880821 C3.18898943,144.471821 3.48298943,144.064821 3.86098943,143.725821 C4.60998943,143.044821 5.70498943,142.605821 6.85898943,142.698821 C7.42798943,142.734821 8.01998943,142.932821 8.52798943,143.188821 C9.04098943,143.432821 9.56298943,143.680821 10.0939894,143.933821 C11.1579894,144.442821 12.2569894,144.968821 13.3829894,145.507821 C17.8859894,147.671821 21.9499894,149.656821 24.8799894,151.116821 C26.2729894,151.822821 27.4339894,152.411821 28.3389894,152.870821 C29.1509894,153.294821 29.5929894,153.544821 29.5769894,153.577821" id="Fill-88" fill="#FFFFFE"></path>
                <path d="M87.4669894,226.634821 C87.4669894,226.634821 78.9269894,218.617821 75.6429894,216.487821 C72.3599894,214.357821 64.9929894,211.428821 62.2419894,211.162821 C59.4909894,210.896821 46.6219894,214.623821 46.6219894,214.623821 C46.6219894,214.623821 27.6299894,212.937821 24.4349894,215.156821 C21.2399894,217.374821 21.5069894,219.682821 22.8379894,221.368821 C24.1689894,223.054821 29.3169894,222.522821 34.9959894,222.610821 C40.6759894,222.699821 42.1849894,223.232821 42.1849894,223.232821 L33.9309894,232.018821 L55.3199894,237.964821 L68.3659894,237.475821 L73.0699894,243.391821 L87.4669894,226.634821" id="Fill-109" fill="#F1AF92"></path>
                <path d="M22.3539894,206.786821 L22.8699894,225.711821 L23.7859894,228.063821 L33.1199894,239.444821 L55.8969894,237.942821 L37.7519894,230.872821 L31.2999894,225.969821 L28.8049894,217.883821 C28.8049894,217.883821 29.5799894,205.409821 22.3539894,206.786821" id="Fill-110" fill="#F1AF92"></path>
                <path d="M23.9539894,228.496821 L18.4079894,228.496821 C18.4079894,228.496821 11.1709894,216.592821 4.54698943,220.635821 L6.06898943,222.987821 C6.06898943,222.987821 3.08498943,221.636821 1.19198943,224.147821 L19.4489894,240.163821 L20.2889894,240.163821 L39.7429894,238.910821 L23.9539894,228.496821" id="Fill-111" fill="#F1AF92"></path>
                <path d="M27.2580717,232.114821 C27.2519894,232.171821 26.6719894,232.143821 25.6879894,232.180821 C24.7199894,232.236821 23.2829894,232.299821 21.8439894,232.953821 L21.6579894,233.037821 L21.5379894,232.867821 C20.9749894,232.073821 20.2799894,231.217821 19.5659894,230.326821 C18.0879894,228.502821 16.7509894,226.852821 15.6279894,225.465821 C14.6269894,224.214821 14.0119894,223.440821 14.0629894,223.391821 C14.1159894,223.341821 14.8339894,224.034821 15.9079894,225.226821 C16.9829894,226.417821 18.4319894,228.093821 19.9709894,229.999821 C20.6899894,230.898821 21.3709894,231.751821 21.9429894,232.600821 L21.6359894,232.515821 C23.2329894,231.838821 24.6969894,231.861821 25.6889894,231.884821 C26.6899894,231.931821 27.2659894,232.062821 27.2580717,232.114821" id="Fill-112" fill="#EA8C6C"></path>
                <path d="M66.7189894,221.111821 C66.7659894,221.280821 63.6459894,221.914821 60.2999894,223.827821 C56.9449894,225.726821 54.8049894,228.084821 54.6839894,227.957821 C54.6379894,227.914821 55.1139894,227.278821 56.0319894,226.379821 C56.9479894,225.483821 58.3339894,224.350821 60.0429894,223.375821 C61.7539894,222.404821 63.4359894,221.792821 64.6749894,221.463821 C65.9159894,221.133821 66.7059894,221.049821 66.7189894,221.111821" id="Fill-113" fill="#EA8C6C"></path>
                <path d="M48.5229894,216.209821 C48.6269894,216.316821 47.3679894,217.673821 45.9109894,219.418821 C44.4469894,221.159821 43.3319894,222.636821 43.2079894,222.553821 C43.0919894,222.478821 44.0269894,220.850821 45.5109894,219.084821 C46.9899894,217.313821 48.4289894,216.108821 48.5229894,216.209821" id="Fill-114" fill="#EA8C6C"></path>
                <path d="M29.5029894,234.760821 C29.4899894,234.772821 29.3399894,234.622821 29.0679894,234.326821 C28.7619894,233.986821 28.3739894,233.553821 27.8929894,233.017821 C27.3759894,232.426821 26.7629894,231.727821 26.0589894,230.923821 C25.7009894,230.511821 25.3209894,230.073821 24.9189894,229.610821 C24.5229894,229.146821 24.0669894,228.664821 23.6839894,228.072821 C22.9199894,226.905821 22.3939894,225.389821 22.3879894,223.737821 C22.3569894,222.124821 22.3229894,220.404821 22.2879894,218.595821 C22.2279894,214.964821 22.1629894,210.980821 22.0929894,206.790821 L22.0899894,206.559821 L22.3049894,206.530821 C22.4949894,206.504821 22.7009894,206.476821 22.9079894,206.448821 C24.2509894,206.297821 25.6879894,206.769821 26.5889894,207.753821 C27.4979894,208.718821 28.0059894,209.914821 28.3509894,211.078821 C29.0139894,213.435821 29.1199894,215.752821 29.0359894,217.897821 L29.0259894,217.815821 C29.9499894,220.883821 30.7739894,223.615821 31.4669894,225.917821 L31.4059894,225.830821 C33.3619894,227.358821 34.9459894,228.595821 36.0959894,229.494821 C36.6039894,229.904821 37.0149894,230.235821 37.3409894,230.498821 C37.6209894,230.731821 37.7619894,230.859821 37.7519894,230.872821 C37.7419894,230.886821 37.5809894,230.784821 37.2809894,230.576821 C36.9409894,230.333821 36.5109894,230.026821 35.9799894,229.646821 C34.8069894,228.779821 33.1909894,227.584821 31.1939894,226.108821 L31.1499894,226.076821 L31.1329894,226.020821 C30.4089894,223.727821 29.5499894,221.006821 28.5849894,217.951821 L28.5739894,217.915821 L28.5749894,217.868821 C28.6389894,215.784821 28.5149894,213.482821 27.8659894,211.221821 C27.5319894,210.102821 27.0379894,208.977821 26.2179894,208.113821 C25.4039894,207.239821 24.1839894,206.839821 22.9559894,206.966821 C22.7659894,206.992821 22.5769894,207.018821 22.4029894,207.041821 L22.6139894,206.782821 C22.6679894,210.973821 22.7189894,214.957821 22.7649894,218.588821 C22.9149894,222.183821 22.3529894,225.608821 23.9919894,227.875821 C24.3419894,228.440821 24.7769894,228.918821 25.1689894,229.398821 C25.5599894,229.870821 25.9309894,230.316821 26.2789894,230.737821 C26.9569894,231.562821 27.5479894,232.281821 28.0459894,232.888821 C28.4959894,233.449821 28.8609894,233.903821 29.1469894,234.259821 C29.3939894,234.577821 29.5169894,234.749821 29.5029894,234.760821" id="Fill-115" fill="#EA8C6C"></path>
                <path d="M53.5209894,227.947821 L43.4699894,227.270821 L40.4669894,219.034821 L39.9129894,213.497821 C39.6419894,210.791821 37.3789894,208.655821 34.6599894,208.696821 L34.5619894,208.698821 L35.1259894,222.270821 L37.1909894,230.700821 L45.3559894,235.517821 L55.3419894,235.517821 L53.5209894,227.947821" id="Fill-117" fill="#F1AF92"></path>
                <path d="M53.5209894,227.947821 L43.4699894,227.270821 L40.4669894,219.034821 L39.9129894,213.497821 C39.6419894,210.791821 37.3789894,208.655821 34.6599894,208.696821 L34.5619894,208.698821 L35.1259894,222.270821 L37.1909894,230.700821 L45.3559894,235.517821" id="Fill-118" fill="#F1AF92"></path>
                <path d="M45.3569894,235.517821 C45.3469894,235.533821 45.1449894,235.434821 44.7669894,235.230821 C44.3439894,234.996821 43.7989894,234.693821 43.1219894,234.317821 C41.6489894,233.471821 39.6069894,232.300821 37.0969894,230.859821 L37.0309894,230.821821 L37.0119894,230.744821 C36.4049894,228.327821 35.6879894,225.473821 34.8979894,222.326821 L34.8929894,222.304821 L34.8919894,222.280821 C34.7139894,218.199821 34.5139894,213.584821 34.3019894,208.708821 L34.2909894,208.449821 L34.5549894,208.437821 C34.6459894,208.433821 34.7479894,208.438821 34.8499894,208.442821 C37.3769894,208.459821 39.5269894,210.431821 40.0249894,212.685821 C40.1679894,213.255821 40.1929894,213.812821 40.2499894,214.342821 C40.3019894,214.880821 40.3539894,215.412821 40.4049894,215.938821 C40.5069894,216.988821 40.6059894,218.014821 40.7029894,219.011821 L40.6899894,218.953821 C41.7889894,222.019821 42.7849894,224.796821 43.6479894,227.205821 L43.4829894,227.081821 C46.5369894,227.322821 49.0309894,227.519821 50.8309894,227.661821 C51.6529894,227.737821 52.3159894,227.799821 52.8269894,227.846821 C53.2829894,227.895821 53.5219894,227.929821 53.5209926,227.947821 C53.5199894,227.966821 53.2779894,227.968821 52.8199894,227.955821 C52.3069894,227.933821 51.6419894,227.905821 50.8169894,227.870821 C49.0139894,227.769821 46.5159894,227.629821 43.4579894,227.458821 L43.3359894,227.452821 L43.2929894,227.334821 C42.4029894,224.935821 41.3769894,222.170821 40.2439894,219.116821 L40.2339894,219.089821 L40.2309894,219.058821 C40.1279894,218.062821 40.0219894,217.037821 39.9139894,215.987821 C39.8599894,215.461821 39.8049894,214.930821 39.7499894,214.392821 C39.6899894,213.850821 39.6609894,213.307821 39.5309894,212.806821 C39.0699894,210.755821 37.1109894,208.975821 34.8379894,208.962821 C34.7469894,208.959821 34.6559894,208.954821 34.5689894,208.958821 L34.8219894,208.687821 C35.0159894,213.563821 35.1989894,218.179821 35.3609894,222.260821 L35.3539894,222.214821 C36.1079894,225.370821 36.7909894,228.232821 37.3699894,230.656821 L37.2849894,230.541821 C39.7589894,232.042821 41.7719894,233.262821 43.2259894,234.143821 C43.8809894,234.553821 44.4099894,234.883821 44.8199894,235.140821 C45.1809894,235.373821 45.3659894,235.502821 45.3569894,235.517821" id="Fill-119" fill="#EA8C6C"></path>
                <path d="M268.793989,67.8168206 C260.178989,34.9868206 252.226989,-3.2181794 204.225989,0.215820598 C204.225989,0.215820598 174.644989,5.9078206 160.596989,27.7388206 C152.333989,40.5808206 145.174989,95.9388206 143.750989,139.660821 L143.750989,139.659821 L143.749989,139.682821 C143.691989,141.462821 144.432989,153.872821 144.383989,155.613821 L271.444989,166.190821 L294.333989,166.190821 C294.333989,166.190821 292.898989,142.995821 285.999989,120.497821 C279.288989,98.6138206 271.843989,79.4388206 268.793989,67.8168206" id="Fill-120" fill="#132529"></path>
                <path d="M197.839989,12.7258206 L200.842989,9.8638206 L233.294989,22.9418206 C237.989989,23.2018206 241.705989,27.0108206 241.848989,31.7118206 L241.563989,137.448821 C241.604989,144.618821 240.167989,150.828821 235.838989,156.543821 L231.280989,162.560821 C220.888989,176.280821 199.511989,175.151821 191.284989,160.034821 C190.709989,158.978821 190.309989,158.051821 190.136989,157.300821 C189.962989,156.357821 189.706989,155.737821 189.653989,154.935821 C188.687989,146.428821 188.632989,139.052821 188.632989,139.052821 C188.054989,129.712821 187.863989,125.880821 187.862989,125.967821 C187.862989,125.967821 167.985989,123.682821 162.612989,98.1688206 C159.940989,85.4798206 160.444989,68.0238206 161.195989,50.8428206 C162.234989,27.0658206 178.727989,12.7028206 197.839989,12.7258206" id="Fill-121" fill="#F1AF92"></path>
                <path d="M206.193989,67.8058206 C206.218989,69.5508206 207.717989,70.9678206 209.540989,70.9738466 C211.359989,70.9808206 212.817989,69.5758206 212.791989,67.8308206 C212.765989,66.0858206 211.266989,64.6668206 209.448989,64.6597946 C207.624989,64.6528206 206.167989,66.0618206 206.193989,67.8058206" id="Fill-122" fill="#132529"></path>
                <path d="M172.308989,68.6908206 C172.334989,70.4358206 173.833989,71.8528206 175.656989,71.8588466 C177.475989,71.8658206 178.932989,70.4608206 178.907989,68.7148206 C178.881989,66.9708206 177.381989,65.5518206 175.563989,65.5447946 C173.740989,65.5378206 172.282989,66.9468206 172.308989,68.6908206" id="Fill-123" fill="#132529"></path>
                <path d="M164.589989,57.6388206 C165.019989,58.0478206 167.426989,56.0738206 170.976989,55.9048206 C174.519989,55.6858206 177.216989,57.3818206 177.579989,56.9268206 C177.759989,56.7248206 177.302989,55.9698206 176.128989,55.2008206 C174.970989,54.4348206 173.025989,53.7308206 170.815989,53.8498206 C168.604989,53.9738206 166.785989,54.8808206 165.758989,55.7668206 C164.709989,56.6598206 164.378989,57.4558206 164.589989,57.6388206" id="Fill-124" fill="#132529"></path>
                <path d="M199.794989,56.4288206 C200.265989,56.7918206 202.459989,54.5808206 205.970989,54.0498206 C209.471989,53.4668206 212.328989,54.8758206 212.643989,54.3878206 C212.800989,54.1678206 212.274989,53.4628206 211.021989,52.8198206 C209.790989,52.1758206 207.785989,51.6748206 205.598989,52.0208206 C203.412989,52.3708206 201.696989,53.4608206 200.765989,54.4478206 C199.816989,55.4428206 199.566989,56.2698206 199.794989,56.4288206" id="Fill-125" fill="#132529"></path>
                <path d="M188.208989,83.8428206 C188.215989,83.6408206 185.990989,83.3708206 182.391989,83.0918206 C181.480989,83.0438206 180.613989,82.9068206 180.430989,82.2958206 C180.183989,81.6518206 180.513989,80.6558206 180.900989,79.5798206 C181.642989,77.3438206 182.419989,74.9998206 183.234989,72.5438206 C186.463989,62.5318206 188.753989,54.3158206 188.349989,54.1898206 C187.945989,54.0638206 184.998989,62.0768206 181.769989,72.0888206 C180.995989,74.5568206 180.253989,76.9098206 179.550989,79.1598206 C179.258989,80.2078206 178.727989,81.4058206 179.258989,82.7408206 C179.536989,83.4058206 180.226989,83.8638206 180.815989,83.9918206 C181.404989,84.1398206 181.915989,84.1238206 182.365989,84.1278206 C185.972989,84.1418206 188.205989,84.0458206 188.208989,83.8428206" id="Fill-126" fill="#132529"></path>
                <path d="M187.862989,125.967821 C187.862989,125.967821 205.220989,126.215821 221.846989,115.052821 C221.846989,115.052821 214.078989,133.290821 188.216989,132.174821 L187.862989,125.967821" id="Fill-127" fill="#EA8C6C"></path>
                <path d="M199.301989,91.0608206 C198.303989,89.8528206 196.709989,89.1878206 195.160989,89.0998206 C192.928989,88.9718206 191.357989,89.2538206 190.165989,91.0048206 C189.606989,91.9718206 189.654989,93.4628206 189.915989,93.8718206 C190.175989,94.2818206 189.981989,94.2908206 190.379989,94.5788206 C191.820989,95.6208206 193.482989,96.2898206 195.200989,96.6868206 C196.918989,97.0828206 198.904989,96.6718206 199.794989,95.2768206 C200.585989,94.0388206 200.300989,92.2668206 199.301989,91.0608206" id="Fill-128" fill="#EA8C6C"></path>
                <path d="M198.941989,40.1248206 C199.396989,41.0328206 202.455989,40.0998206 206.207989,40.0338206 C209.956989,39.8818206 213.105989,40.6338206 213.462989,39.7028206 C213.617989,39.2598206 212.963989,38.4408206 211.622989,37.6998206 C210.292989,36.9588206 208.262989,36.3718206 206.013989,36.4348206 C203.764989,36.5018206 201.804989,37.2048206 200.559989,38.0208206 C199.303989,38.8378206 198.739989,39.6918206 198.941989,40.1248206" id="Fill-129" fill="#132529"></path>
                <path d="M165.100989,51.2158206 C165.764989,51.9908206 168.168989,51.0318206 171.106989,50.8448206 C174.037989,50.5548206 176.563989,51.1138206 177.094989,50.2418206 C177.325989,49.8198206 176.892989,49.0328206 175.766989,48.3238206 C174.655989,47.6168206 172.831989,47.0858206 170.813989,47.2478206 C168.797989,47.4128206 167.083989,48.2308206 166.102989,49.1078206 C165.104989,49.9888206 164.805989,50.8368206 165.100989,51.2158206" id="Fill-130" fill="#132529"></path>
                <path d="M241.200989,76.8368206 C241.200989,76.8368206 227.540989,80.1398206 208.153989,38.3918206 C201.554989,24.1808206 188.737989,9.8638206 188.737989,9.8638206 L200.762989,8.1288206 C200.762989,8.1288206 236.611989,18.2278206 237.214989,18.6798206 C237.817989,19.1318206 246.258989,37.2198206 246.258989,37.2198206 L241.200989,76.8368206" id="Fill-131" fill="#132529"></path>
                <path d="M236.720989,75.1658206 C236.629989,73.2508206 238.616989,68.6238206 240.493989,68.2338206 C245.505989,67.1938206 254.629989,67.1428206 255.357989,79.9658206 C256.352989,97.4958206 238.547989,94.8778206 238.488989,94.3768206 C238.441989,93.9858206 237.036989,81.7798206 236.720989,75.1658206" id="Fill-132" fill="#F1AF92"></path>
                <path d="M243.466989,87.4328206 C243.540989,87.3718206 243.783989,87.6288206 244.312989,87.8358206 C244.829989,88.0378206 245.704989,88.1478206 246.598989,87.7538206 C248.412989,86.9688206 249.804989,83.9398206 249.710989,80.7758206 C249.664989,79.1778206 249.244989,77.6778206 248.607989,76.4508206 C247.999989,75.1998206 247.119989,74.3508206 246.177989,74.2388206 C245.238989,74.0758206 244.609989,74.6718206 244.422989,75.1768206 C244.215989,75.6808206 244.347989,76.0248206 244.255989,76.0588206 C244.209989,76.1068206 243.862989,75.7878206 243.962989,75.0558206 C244.015989,74.7038206 244.197989,74.2778206 244.590989,73.9178206 C244.991989,73.5518206 245.599989,73.3428206 246.254989,73.3758206 C247.611989,73.3928206 248.898989,74.5678206 249.597989,75.9128206 C250.372989,77.2598206 250.882989,78.9448206 250.933989,80.7388206 C251.021989,84.2778206 249.401989,87.6848206 246.908989,88.5618206 C245.694989,88.9528206 244.643989,88.6398206 244.089989,88.2558206 C243.521989,87.8548206 243.407989,87.4678206 243.466989,87.4328206" id="Fill-133" fill="#EA8C6C"></path>
                <path d="M201.562989,91.7698206 C201.509989,92.2198206 198.514989,92.1538206 194.958989,92.8418206 C191.394989,93.4938206 188.628989,94.6448206 188.415989,94.2448206 C188.197989,93.8978206 190.826989,92.0168206 194.669989,91.3068206 C198.506989,90.5708206 201.639989,91.3668206 201.562989,91.7698206" id="Fill-134" fill="#132529"></path>
                <path d="M338.560989,227.623821 C338.560989,227.623821 353.242989,215.047821 357.496989,214.711821 C361.751989,214.375821 372.942989,216.455821 372.942989,216.455821 C372.942989,216.455821 380.010989,216.517821 383.523989,216.078821 C388.813989,215.416821 392.432989,215.967821 394.553989,216.614821 C395.613989,216.938821 396.938989,219.573821 393.820989,221.368821 C392.501989,222.128821 379.663989,222.996821 379.663989,222.996821 L411.784989,232.171821 L407.612989,235.613821 C407.057989,236.070821 406.367989,236.332821 405.648989,236.357821 L359.400989,237.998821 L357.282989,243.167821 L338.560989,227.623821" id="Fill-135" fill="#F1AF92"></path>
                <path d="M373.618989,227.632821 L388.620989,227.632821 C388.620989,227.632821 393.882989,220.645821 395.785989,217.734821 C397.449989,215.189821 399.455989,214.441821 401.205989,215.042821 C401.660989,215.198821 402.031989,215.538821 402.270989,215.956821 C402.623989,216.574821 402.634989,217.332821 402.297989,217.960821 L395.702989,230.273821 L399.158989,229.105821 C399.158989,229.105821 406.085989,222.324821 407.428989,220.757821 C408.771989,219.189821 413.697989,212.584821 418.064989,217.398821 L412.018989,224.115821 L418.064989,219.861821 C418.064989,219.861821 422.878989,215.719821 425.453989,220.645821 L407.476989,235.804821" id="Fill-136" fill="#F1AF92"></path>
                <path d="M358.002862,221.418821 C357.996989,221.403821 358.202989,221.333821 358.601989,221.212821 C359.003989,221.103821 359.586989,220.874821 360.386989,220.801821 C361.957989,220.535821 364.357989,220.578821 367.124989,221.502821 C368.499989,221.969821 369.965989,222.623821 371.451989,223.493821 C372.190989,223.932821 372.945989,224.407821 373.698989,224.935821 C374.072989,225.201821 374.451989,225.471821 374.836989,225.746821 C375.198989,226.005821 375.648989,226.349821 375.945989,226.504821 C379.741989,226.800821 384.086989,227.055821 388.637989,227.376821 L388.425989,227.464821 C389.826989,225.797821 391.214989,223.982821 392.554989,222.084821 C393.076989,221.346821 393.575989,220.601821 394.063989,219.859821 C394.546989,219.120821 395.004989,218.353821 395.538989,217.644821 C396.067989,216.934821 396.636989,216.257821 397.305989,215.682821 C397.632989,215.389821 398.000989,215.136821 398.396989,214.928821 C398.808989,214.736821 399.203989,214.548821 399.773989,214.623821 L399.685989,214.616821 C400.477989,214.538821 401.381989,214.622821 402.050989,215.186821 C402.720989,215.766821 402.902989,216.641821 402.836989,217.429821 L402.833989,217.470821 L402.809989,217.514821 C399.951989,222.639821 397.465989,227.098821 395.536989,230.558821 L395.551989,230.522821 C395.114989,231.999821 393.927989,232.864821 392.904989,233.321821 C391.845989,233.781821 390.858989,233.875821 390.079989,233.919821 C389.294989,233.954821 388.692989,233.923821 388.287989,233.903821 C387.881989,233.880821 387.671989,233.858821 387.671989,233.842821 C387.672989,233.826821 387.883989,233.817821 388.288989,233.810821 C388.693989,233.801821 389.294989,233.802821 390.067989,233.739821 C390.833989,233.669821 391.797989,233.547821 392.796989,233.084821 C393.768989,232.626821 394.861989,231.776821 395.230989,230.435821 L395.235989,230.416821 L395.245989,230.398821 C397.140989,226.919821 399.581989,222.435821 402.387989,217.282821 L402.360989,217.367821 C402.410989,216.725821 402.238989,215.974821 401.729989,215.559821 C401.225989,215.134821 400.469989,215.038821 399.734989,215.116821 L399.713989,215.118821 L399.646989,215.109821 C399.384989,215.073821 398.956989,215.201821 398.626989,215.378821 C398.280989,215.563821 397.943989,215.793821 397.637989,216.069821 C397.014989,216.608821 396.464989,217.261821 395.953989,217.951821 C394.963989,219.345821 394.046989,220.915821 392.979989,222.384821 C391.629989,224.296821 390.238989,226.113821 388.814989,227.799821 L388.731989,227.897821 L388.602989,227.887821 C384.020989,227.551821 379.759989,227.289821 375.841989,226.943821 C375.270989,226.668821 374.985989,226.380821 374.576989,226.100821 C374.196989,225.824821 373.822989,225.552821 373.453989,225.284821 C372.712989,224.755821 371.973989,224.278821 371.248989,223.837821 C369.792989,222.963821 368.359989,222.301821 367.015989,221.820821 C364.312989,220.871821 361.966989,220.776821 360.409989,220.982821 C359.617989,221.025821 359.034989,221.224821 358.627989,221.302821 C358.222989,221.393821 358.007989,221.433821 358.002862,221.418821" id="Fill-137" fill="#EA8C6C"></path>
                <path d="M418.064989,217.398821 C418.091989,217.422821 417.880989,217.714821 417.478989,218.223821 C417.075989,218.731821 416.480989,219.456821 415.736989,220.343821 C414.248989,222.118821 412.166989,224.546821 409.842989,227.206821 C407.478989,229.825821 405.513989,232.384821 403.786989,233.965821 C402.934989,234.763821 402.182989,235.346821 401.621989,235.686821 C401.058989,236.026821 400.709989,236.139821 400.698989,236.113821 C400.679989,236.074821 400.993989,235.902821 401.507989,235.519821 C402.021989,235.135821 402.722989,234.522821 403.528989,233.702821 C405.164989,232.078821 407.064989,229.508821 409.439989,226.876821 C411.767989,224.211821 413.897989,221.817821 415.457989,220.102821 C416.238989,219.244821 416.876989,218.556821 417.326989,218.089821 C417.775989,217.621821 418.037989,217.374821 418.064989,217.398821" id="Fill-138" fill="#EA8C6C"></path>
                <path d="M409.835989,218.101821 C409.886989,218.151821 409.186989,218.966821 408.013989,220.243821 C406.839989,221.520821 405.192989,223.260821 403.351989,225.158821 C401.840989,226.715821 400.434989,228.137821 399.308989,229.250821 L399.269989,229.288821 L399.225989,229.302821 C396.997989,230.003821 395.539989,230.380821 395.509981,230.262821 C395.507989,230.234821 395.848989,230.101821 396.472989,229.865821 C397.233989,229.587821 398.104989,229.269821 399.092989,228.908821 L399.009981,228.960821 C400.088989,227.801821 401.467989,226.352821 402.977989,224.796821 C404.819989,222.897821 406.507989,221.198821 407.748989,219.987821 C408.990989,218.775821 409.783989,218.051821 409.835989,218.101821" id="Fill-139" fill="#EA8C6C"></path>
                <path d="M288.789989,153.000821 C288.789989,153.000821 310.350989,158.557821 312.465989,187.860821 C313.670989,204.556821 304.784989,258.187821 304.784989,258.187821 L336.624989,225.486821 L365.000989,245.230821 C365.000989,245.230821 326.396989,292.431821 317.487989,299.526821 C308.579989,306.622821 294.391989,318.036821 289.772989,317.111821 C285.152989,316.185821 285.152989,294.899821 285.152989,294.899821 L285.152989,177.360821 L288.789989,153.000821" id="Fill-140" fill="#E46C62"></path>
                <path d="M133.792989,156.589821 C133.792989,156.589821 114.610989,162.895821 115.392989,200.363821 C116.175989,237.830821 115.561989,250.446821 115.561989,250.446821 L86.8149894,220.024821 L62.9339894,246.362821 C62.9339894,246.362821 89.6499894,286.054821 108.346989,305.345821 C125.963989,323.523821 141.622989,307.737821 146.712989,294.958821 C150.835989,284.604821 154.150989,245.249821 154.150989,245.249821 L133.792989,156.589821" id="Fill-141" fill="#E46C62"></path>
                <path d="M285.152989,277.418821 L284.840989,275.293821 C284.478989,272.621821 284.454989,264.397821 284.600989,261.706821 C284.758989,258.772821 284.932989,255.055821 285.152989,250.869821 L285.152989,277.418821" id="Fill-142" fill="#A2A5A2"></path>
                <path d="M290.267989,312.175821 L285.152989,277.418821 L285.152989,250.869821 C285.877989,237.078821 287.096989,218.197821 289.867989,205.451821 C290.368989,203.144821 290.729989,200.643821 290.976989,198.024821 C292.213989,205.385821 291.623989,213.165821 290.465989,220.503821 C288.734989,231.466821 290.567989,243.714821 290.491989,254.794821 C290.358989,274.070821 296.056989,293.707821 290.267989,312.175821" id="Fill-143" fill="#BC5247"></path>
                <path d="M129.797989,180.447821 C129.797989,180.447821 142.621989,266.691821 145.103989,274.242821 C147.585989,281.794821 147.585989,304.050821 147.585989,304.050821 C147.585989,304.050821 134.126989,329.104821 133.299989,346.523821 L295.371989,346.856821 L284.840989,275.293821 C284.478989,272.621821 284.454989,264.397821 284.600989,261.706821 C285.280989,249.104821 286.255989,222.066821 289.867989,205.451821 C294.066989,186.131821 288.412989,153.068821 288.412989,153.068821 L240.001989,141.144821 C228.542989,157.609821 199.955989,157.831821 188.678989,141.144821 L134.042989,156.589821 L129.797989,180.447821" id="Fill-144" fill="#E46C62"></path>
                <path d="M288.017989,271.867821 C287.989989,271.845821 288.162989,271.573821 288.501989,271.099821 C288.837989,270.624821 289.347989,269.953821 289.990989,269.134821 C291.290989,267.513821 293.135989,265.279821 295.552989,263.179821 C297.969989,261.075821 300.517989,259.635821 302.415989,258.773821 C303.368989,258.347821 304.151989,258.029821 304.705989,257.846821 C305.256989,257.655821 305.566989,257.566821 305.579989,257.599821 C305.693989,257.804821 300.671989,259.414821 295.892989,263.573821 C293.516989,265.637821 291.641989,267.813821 290.273989,269.369821 C288.917989,270.940821 288.077989,271.915821 288.017989,271.867821" id="Fill-145" fill="#132529"></path>
                <path d="M137.942989,270.042821 C137.844989,270.070821 137.467989,268.288821 136.243989,265.656821 C135.037989,263.034821 132.834989,259.587821 129.459989,256.726821 C126.085989,253.862821 122.324989,252.251821 119.541989,251.490821 C116.744989,250.711821 114.925989,250.630821 114.93694,250.529821 C114.938989,250.498821 115.392989,250.490821 116.209989,250.555821 C117.027989,250.619821 118.207989,250.785821 119.635989,251.134821 C122.481989,251.813821 126.349989,253.403821 129.796989,256.329821 C133.244989,259.252821 135.444989,262.808821 136.579989,265.505821 C137.156989,266.857821 137.512989,267.994821 137.708989,268.790821 C137.906989,269.586821 137.973989,270.035821 137.942989,270.042821" id="Fill-146" fill="#132529"></path>
                <path d="M138.977989,223.309821 C138.957989,223.339821 138.697989,223.195821 138.243989,222.910821 C137.787989,222.628821 137.151989,222.185821 136.382989,221.612821 C134.847989,220.467821 132.828989,218.735821 130.816989,216.610821 C128.805989,214.482821 127.161989,212.405821 126.016989,210.874821 C124.874989,209.340821 124.222989,208.353821 124.277989,208.312821 C124.337989,208.267821 125.093989,209.175821 126.306989,210.647821 C127.521989,212.115821 129.200989,214.143821 131.194989,216.251821 C133.188989,218.357821 135.144989,220.112821 136.611989,221.324821 C138.076989,222.536821 139.024989,223.242821 138.977989,223.309821" id="Fill-147" fill="#132529"></path>
                <path d="M252.116697,269.990385 C252.122989,269.995821 252.077989,270.062821 251.983989,270.188821 C251.868989,270.337821 251.727989,270.518821 251.556989,270.740821 C251.165989,271.211821 250.632989,271.947821 249.848989,272.808821 C248.333989,274.579821 245.983989,277.012821 242.831989,279.743821 C239.685989,282.481821 235.680989,285.439821 231.004989,288.357821 C226.330989,291.280821 220.978989,294.135821 215.250989,296.884821 C209.514989,299.623821 203.971989,302.050821 198.955989,304.305821 C193.936989,306.555821 189.444989,308.637821 185.730989,310.504821 C182.014989,312.366821 179.059989,313.975821 177.045989,315.136821 C176.028989,315.701821 175.262989,316.179821 174.727989,316.477821 C174.483989,316.614821 174.283989,316.727821 174.119989,316.819821 C173.981989,316.893821 173.908989,316.928821 173.903718,316.920821 C173.898989,316.912821 173.962989,316.863821 174.091989,316.774821 C174.248989,316.670821 174.439989,316.543821 174.672989,316.388821 C175.189989,316.060821 175.940989,315.554821 176.942989,314.962821 C178.927989,313.745821 181.862989,312.083821 185.564989,310.176821 C189.263989,308.264821 193.747989,306.143821 198.757989,303.868821 C203.765989,301.588821 209.300989,299.148821 215.025989,296.414821 C220.741989,293.671821 226.082989,290.838821 230.751989,287.950821 C235.422989,285.065821 239.430989,282.152821 242.592989,279.463821 C245.760989,276.780821 248.140989,274.397821 249.697989,272.673821 C250.502989,271.835821 251.058989,271.122821 251.475989,270.673821 C251.662989,270.465821 251.816989,270.295821 251.942989,270.155821 C252.049989,270.040821 252.108989,269.984821 252.116697,269.990385" id="Fill-148" fill="#132529"></path>
                <path d="M133.675989,345.167831 C133.669989,345.167831 133.668989,345.096821 133.672989,344.955821 C133.679989,344.792821 133.688989,344.588821 133.699989,344.329821 C133.736989,343.748821 133.787989,342.934821 133.852989,341.891821 C134.140989,339.779821 134.586989,336.675821 135.681989,332.877821 C137.775989,325.263821 141.887989,314.780821 148.158989,303.130821 L148.128989,303.262821 C147.484989,293.878821 146.511989,283.398821 145.389989,272.376821 C143.252989,251.562821 141.008989,232.754821 139.372989,219.142821 C138.548989,212.358821 137.880989,206.859821 137.415989,203.025821 C137.191989,201.144821 137.016989,199.672821 136.893989,198.641821 C136.841989,198.160821 136.800989,197.782821 136.769989,197.500821 C136.744989,197.242821 136.735989,197.110821 136.744989,197.108815 C136.753989,197.108815 136.779989,197.237821 136.822989,197.493821 C136.865989,197.773821 136.923989,198.149821 136.997989,198.628821 C137.143989,199.656821 137.350989,201.123821 137.616989,202.999821 C138.120989,206.828821 138.844989,212.321821 139.737989,219.097821 C141.467989,232.698821 143.769989,251.503821 145.907989,272.323821 C147.030989,283.348821 147.987989,293.835821 148.602989,303.230821 L148.606989,303.299821 L148.572989,303.362821 C142.287989,314.951821 138.120989,325.392821 135.957989,332.954821 C134.826989,336.729821 134.338989,339.809821 134.003989,341.909821 C133.906989,342.946821 133.831989,343.755821 133.777989,344.332821 C133.750989,344.590821 133.728989,344.794821 133.711989,344.956821 C133.694989,345.096821 133.682989,345.167831 133.675989,345.167831" id="Fill-149" fill="#132529"></path>
                <path d="M291.864989,182.463821 C291.873989,182.463821 291.880989,182.608821 291.884989,182.891821 C291.885989,183.197821 291.886989,183.613821 291.888989,184.145821 C291.875989,185.248821 291.907989,186.877821 291.803989,188.970821 C291.687989,193.161821 291.256989,199.213821 290.513989,206.668821 C289.779989,214.125821 288.696989,222.979821 287.602989,232.819821 C286.513989,242.656821 285.421989,253.493821 285.076989,264.905821 C284.707989,276.323821 285.824989,287.181821 287.289989,296.963821 C288.729989,306.755821 290.428989,315.513821 291.743989,322.886821 C293.084989,330.255821 294.069989,336.240821 294.626989,340.393821 C294.927989,342.467821 295.096989,344.085821 295.216989,345.181821 C295.271989,345.711821 295.313989,346.124821 295.345989,346.429821 C295.371989,346.711821 295.380989,346.856826 295.371989,346.856826 C295.362989,346.856826 295.336989,346.715821 295.292989,346.435821 C295.248989,346.132821 295.188989,345.720821 295.112989,345.194821 C294.959989,344.102821 294.757989,342.489821 294.425989,340.422821 C293.807989,336.281821 292.768989,330.312821 291.380989,322.953821 C290.020989,315.589821 288.283989,306.837821 286.815989,297.033821 C285.321989,287.246821 284.185989,276.345821 284.555989,264.891821 C284.902989,253.452821 286.010989,242.604821 287.126989,232.765821 C288.246989,222.924821 289.366989,214.077821 290.146989,206.631821 C290.936989,199.186821 291.423989,193.145821 291.601989,188.962821 C291.735989,186.872821 291.736989,185.246821 291.783989,184.144821 C291.803989,183.613821 291.819989,183.197821 291.830989,182.891821 C291.844989,182.608821 291.855989,182.463821 291.864989,182.463821" id="Fill-150" fill="#132529"></path>
                <path d="M146.329989,281.877821 C140.014989,263.134821 136.523989,242.788821 136.236989,222.701821 C139.828989,245.743821 143.828989,270.365821 145.103989,274.242821 C145.413989,275.187821 145.685989,276.363821 145.923989,277.695821 C146.062989,279.101821 146.197989,280.494821 146.329989,281.877821" id="Fill-151" fill="#BC5247"></path>
                <path d="M145.923989,277.695821 C145.685989,276.363821 145.413989,275.187821 145.103989,274.242821 C143.828989,270.365821 139.828989,245.743821 136.236989,222.701821 C136.231989,222.299821 136.226989,221.895821 136.223989,221.493821 C136.277989,221.533821 136.330989,221.573821 136.382989,221.612821 C137.151989,222.185821 137.787989,222.628821 138.243989,222.910821 C138.658989,223.171821 138.911989,223.313821 138.967989,223.313821 C138.972989,223.313821 138.975989,223.312821 138.977989,223.309821 C139.024989,223.242821 138.076989,222.536821 136.611989,221.324821 C136.484989,221.219821 136.354989,221.110821 136.220989,220.997821 C136.185989,214.330821 136.505989,207.694821 137.193989,201.165821 C137.261989,201.731821 137.335989,202.352821 137.415989,203.025821 C137.635989,204.841821 137.901989,207.030821 138.207989,209.553821 L145.060989,269.191821 C145.170989,270.247821 145.280989,271.309821 145.389989,272.376821 C145.571989,274.164821 145.749989,275.938821 145.923989,277.695821" id="Fill-152" fill="#BC5247"></path>
                <path d="M138.967989,223.313821 C138.911989,223.313821 138.658989,223.171821 138.243989,222.910821 C137.787989,222.628821 137.151989,222.185821 136.382989,221.612821 C136.330989,221.573821 136.277989,221.533821 136.223989,221.493821 C136.222989,221.327821 136.221989,221.163821 136.220989,220.997821 C136.354989,221.110821 136.484989,221.219821 136.611989,221.324821 C138.076989,222.536821 139.024989,223.242821 138.977989,223.309821 C138.975989,223.312821 138.972989,223.313821 138.967989,223.313821" id="Fill-153" fill="#051317"></path>
                <path d="M146.613989,282.714821 C146.518989,282.435821 146.423989,282.156821 146.329989,281.877821 C146.197989,280.494821 146.062989,279.101821 145.923989,277.695821 C145.749989,275.938821 145.571989,274.164821 145.389989,272.376821 C145.280989,271.309821 145.170989,270.247821 145.060989,269.191821 L146.613989,282.714821 M138.207989,209.553821 C137.901989,207.030821 137.635989,204.841821 137.415989,203.025821 C137.335989,202.352821 137.261989,201.731821 137.193989,201.165821 C137.201989,201.089821 137.209989,201.014821 137.217989,200.938821 L138.207989,209.553821" id="Fill-154" fill="#051317"></path>
                <path d="M200.933989,322.909821 C199.877989,322.909821 198.818989,322.865821 197.761989,322.776821 C212.867989,317.407821 225.188989,307.767821 237.469989,296.486821 L248.544989,286.437821 C244.510989,297.131821 238.248989,304.813821 229.443989,312.101821 C221.456989,318.712821 211.260989,322.910821 200.933989,322.909821" id="Fill-155" fill="#BC5247"></path>
                <path d="M223.481989,308.912821 C223.385989,308.805821 231.025989,301.797821 240.544989,293.262821 C250.065989,284.723821 257.860989,277.890821 257.956989,277.997821 C258.052989,278.104821 250.413989,285.111821 240.891989,293.649821 C231.373989,302.185821 223.577989,309.019821 223.481989,308.912821" id="Fill-156" fill="#132529"></path>
                <path d="M250.643989,97.2748206 C250.643989,100.734821 247.838989,103.539821 244.378989,103.539821 C240.918989,103.539821 238.113989,100.734821 238.113989,97.2748206 C238.113989,93.8148206 240.918989,91.0098206 244.378989,91.0098206 C247.838989,91.0098206 250.643989,93.8148206 250.643989,97.2748206" id="Fill-157" fill="#334F55"></path>
                <path d="M287.952989,179.623821 C286.104989,164.306821 284.257989,148.989821 282.409989,133.671821 L242.761989,121.704821 C241.995989,149.064821 237.206989,179.791821 230.323989,206.282821 C244.933989,211.020821 260.545989,212.645821 275.819989,211.018821 C276.494989,203.618821 277.169989,196.218821 277.844989,188.818821 C278.835989,194.395821 279.826989,199.973821 280.817989,205.551821 C284.979989,203.219821 287.431989,198.574821 288.262989,193.877821 C289.093989,189.179821 288.523989,184.359821 287.952989,179.623821" id="Fill-158" fill="#132529"></path>
                <path d="M256.921989,211.142821 C256.921989,211.142821 256.952989,210.944821 257.037989,210.564821 C257.129989,210.165821 257.259989,209.606821 257.427989,208.879821 C257.781989,207.380821 258.295989,205.203821 258.955989,202.408821 C260.251989,196.782821 262.172989,188.646821 264.042989,178.496821 C265.923989,168.355821 267.756989,156.171821 268.357989,142.544821 C268.957989,128.939821 268.125989,113.825821 264.358989,98.5368206 C260.648989,83.2498206 254.157989,69.4248206 245.975989,58.5368206 C244.939989,57.1858206 243.955989,55.8198206 242.846989,54.5838206 C241.757989,53.3328206 240.741989,52.0478206 239.608989,50.8968206 C239.055989,50.3098206 238.506989,49.7268206 237.961989,49.1478206 C237.397989,48.5878206 236.836989,48.0318206 236.280989,47.4808206 C235.183989,46.3638206 234.036989,45.3308206 232.937989,44.2878206 C228.486989,40.1688206 224.138989,36.5488206 220.251989,33.1498206 C216.358989,29.7568206 212.886989,26.6208206 210.012989,23.6848206 C209.281989,22.9638206 208.621989,22.2238206 207.960989,21.5348206 C207.296989,20.8488206 206.684989,20.1668206 206.116989,19.4938206 C205.542989,18.8278206 204.993989,18.1898206 204.469989,17.5818206 C203.975989,16.9498206 203.505989,16.3488206 203.059989,15.7788206 C202.142989,14.6598206 201.447989,13.5778206 200.805989,12.6688206 C200.152989,11.7668206 199.669989,10.9588206 199.284989,10.3018206 C198.902989,9.6608206 198.609989,9.1668206 198.400989,8.8148206 C198.204989,8.4778206 198.115989,8.2988206 198.115989,8.2988206 C198.115989,8.2988206 198.235989,8.4608206 198.446989,8.7878206 C198.665989,9.1328206 198.973989,9.6168206 199.373989,10.2468206 C199.772989,10.8928206 200.268989,11.6908206 200.933989,12.5808206 C201.586989,13.4778206 202.292989,14.5478206 203.219989,15.6548206 C203.669989,16.2178206 204.144989,16.8128206 204.643989,17.4378206 C205.171989,18.0388206 205.724989,18.6698206 206.302989,19.3288206 C206.873989,19.9948206 207.490989,20.6708206 208.157989,21.3498206 C208.821989,22.0318206 209.484989,22.7658206 210.219989,23.4798206 C213.104989,26.3878206 216.587989,29.4988206 220.492989,32.8708206 C224.392989,36.2508206 228.755989,39.8548206 233.230989,43.9708206 C234.336989,45.0128206 235.488989,46.0448206 236.593989,47.1628206 C237.152989,47.7148206 237.716989,48.2708206 238.284989,48.8318206 C238.833989,49.4118206 239.385989,49.9958206 239.942989,50.5848206 C241.083989,51.7378206 242.108989,53.0278206 243.206989,54.2828206 C244.323989,55.5228206 245.314989,56.8928206 246.358989,58.2488206 C254.604989,69.1768206 261.140989,83.0648206 264.864989,98.4118206 C268.646989,113.759821 269.464989,128.929821 268.837989,142.564821 C268.208989,156.224821 266.333989,168.421821 264.404989,178.564821 C262.485989,188.716821 260.509989,196.842821 259.152989,202.455821 C258.464989,205.260821 257.914989,207.433821 257.529989,208.904821 C257.339989,209.626821 257.193989,210.181821 257.088989,210.577821 C256.986989,210.953821 256.921989,211.142821 256.921989,211.142821" id="Fill-159" fill="#334F55"></path>
            </g>
        </g>
    </g>
</svg>