<?xml version="1.0" encoding="UTF-8"?>
<svg width="136px" height="196px" viewBox="0 0 136 196" version="1.1" xmlns="http://www.w3.org/2000/svg" xmlns:xlink="http://www.w3.org/1999/xlink">
    <!-- Generator: Sketch 55.2 (78181) - https://sketchapp.com -->
    <title>Group 2</title>
    <desc>Created with Sketch.</desc>
    <g id="Page-1" stroke="none" stroke-width="1" fill="none" fill-rule="evenodd">
        <g id="2105_m10_i006_n016" transform="translate(-634.000000, -17.000000)">
            <g id="Group-2" transform="translate(701.563000, 115.456000) scale(-1, 1) translate(-701.563000, -115.456000) translate(634.063000, 17.456000)">
                <path d="M94.105,0 L80.431,0.924 C79.869,3.933 78.221,6.897 77.77,9.91 C77.629,10.853 77.77,9.91 77.569,9.093 C76.866,6.247 77.539,3.844 77.31,0.924 L74.505,1.208 C74.505,1.208 73.041,2.322 73.041,3.635 C73.041,4.665 73.217,8.665 73.028,7.633 C72.78,6.276 72.409,3.193 72.062,1.872 L68.687,2.213 C68.605,2.825 67.24,3.616 67.167,4.229 C64.312,28.22 68.916,51.543 68.7,75.817 C68.352,114.678 56.725,153.374 61.921,191.735 L91.154,195.077 C85.127,160.026 97.503,123.183 98.598,87.421 C99.467,59.013 95.365,28.387 94.105,0" id="Fill-144" fill="#A55100"></path>
                <path d="M88.787,2.042 L79.807,2.95 C79.245,5.96 77.574,9.849 77.122,12.861 C76.981,13.804 77.122,12.861 76.92,12.043 C76.218,9.198 76.075,6.272 75.846,3.351 L73.041,3.635 C73.002,4.974 73.029,6.321 73.028,7.633 C73.028,8.664 73.216,9.695 73.028,8.664 C72.78,7.306 70.888,5.21 70.542,3.888 L67.167,4.229 C63.862,28.809 68.274,53.874 68.051,78.769 C67.704,117.629 56.077,156.325 61.273,194.686 L86.556,194.686 C80.529,159.636 92.907,122.792 94,87.03 C94.87,58.622 90.047,30.429 88.787,2.042" id="Fill-145" fill="#D58952"></path>
                <path d="M63.56,128.966 C63.203,131.816 62.85,134.665 62.513,137.513 C62.76,141.814 63.064,146.11 63.389,150.398 C64.277,162.096 65.256,173.801 65.381,185.52 C65.785,183.086 66.209,180.656 66.618,178.225 C65.944,161.796 64.053,145.403 63.56,128.966" id="Fill-146" fill="#CD7433"></path>
                <path d="M69.664,164.441 C70.381,155.732 69.331,147.301 68.526,138.65 C67.652,129.261 68.195,120.755 72.343,112.15 C75.73,105.126 79.067,98.647 80.487,90.881 C83.448,74.689 80.277,58.348 79.762,42.1 C79.516,34.302 81.194,26.152 79.921,18.439 C79.369,15.097 78.065,12.572 77.86,9.752 C77.541,10.838 77.267,11.897 77.122,12.861 C76.981,13.804 77.122,12.861 76.92,12.043 C76.563,10.595 76.351,9.125 76.198,7.645 L76.167,7.771 C75.656,10.51 76.669,12.362 77.534,14.935 C80.31,23.2 78.088,32.656 78.307,41.222 C78.74,58.141 82.336,75.25 78.827,92.068 C77.148,100.114 73.046,106.799 69.843,114.229 C66.918,121.017 66.348,127.987 66.865,135.302 C67.469,143.865 69.015,152.258 68.677,160.881 C68.449,166.727 67.583,172.481 66.618,178.225 C66.687,179.908 66.74,181.593 66.78,183.277 C68.128,177.065 69.144,170.755 69.664,164.441" id="Fill-147" fill="#CD7433"></path>
                <path d="M65.381,185.52 C65.184,186.709 64.992,187.899 64.81,189.092 C64.754,189.458 65.285,189.627 65.379,189.249 C65.395,187.982 65.394,186.751 65.381,185.52" id="Fill-148" fill="#CD7433"></path>
                <path d="M81.752,167.367 C80.767,173.088 82.017,179.085 82.711,184.777 C83.114,188.079 83.538,191.385 83.995,194.686 L85.184,194.686 C84.862,191.379 84.507,188.074 84.148,184.777 C83.477,178.629 82.111,172.306 83.485,166.17 C84.037,163.707 84.762,161.282 85.59,158.882 C85.722,157.302 85.868,155.721 86.029,154.138 C84.273,158.445 82.527,162.868 81.752,167.367" id="Fill-149" fill="#CD7433"></path>
                <path d="M75.746,182.959 C75.6,181.443 76.213,172.881 72.814,173.445 C70.036,173.906 69.286,180.745 69.084,182.832 C68.715,186.66 68.782,190.713 69.152,194.686 L70.605,194.686 C70.453,192.671 70.313,190.656 70.26,188.633 C70.21,186.703 70.185,184.757 70.375,182.832 C70.592,180.614 71.931,172.898 74.031,178.611 C74.748,180.563 74.496,183.487 74.694,185.568 C74.916,187.887 75.137,190.207 75.358,192.525 C75.426,193.245 75.49,193.965 75.553,194.686 L76.989,194.686 C76.593,190.768 76.12,186.853 75.746,182.959" id="Fill-150" fill="#CD7433"></path>
                <path d="M61.273,194.686 L62.665,194.686 C63.457,185.3 62.384,175.401 60.082,166.181 C60.019,167.89 59.982,169.599 59.961,171.307 C60.456,174.171 60.833,177.061 61.06,179.989 C61.394,184.314 61.288,188.554 61.042,192.796 C61.119,193.426 61.188,194.056 61.273,194.686" id="Fill-151" fill="#CD7433"></path>
                <path d="M81.976,117.211 C83.092,113.08 85.236,108.982 86.193,104.756 C87.015,111.541 85.588,117.582 82.801,124.053 C81.459,127.169 80.053,130.234 78.987,133.419 C79.521,127.945 80.543,122.514 81.976,117.211 Z M78.58,139.522 C79.812,132.668 83.264,126.741 85.65,120.28 C87.898,114.19 88.458,107.91 86.837,101.593 C86.652,100.868 85.572,101.176 85.723,101.9 C85.758,102.072 85.785,102.24 85.818,102.41 C85.363,105.374 84.044,107.976 82.985,110.765 C81.807,113.865 80.947,117.1 80.181,120.324 C78.689,126.611 77.962,132.943 77.513,139.377 C77.47,139.981 78.471,140.127 78.58,139.522 L78.58,139.522 Z" id="Fill-152" fill="#CD7433"></path>
                <path d="M84.866,20.443 C85.061,20.904 85.696,20.777 85.924,20.443 C87.663,17.912 88.706,15.165 89.384,12.306 C89.242,10.272 89.116,8.235 89.002,6.199 C88.568,10.579 87.821,14.862 85.516,18.765 C83.63,13.519 84.291,7.992 84.164,2.51 L83.122,2.615 C83.016,8.664 82.444,14.754 84.866,20.443" id="Fill-153" fill="#CD7433"></path>
                <path d="M73.704,138.246 C73.765,131.376 75.655,124.765 77.918,118.336 C80.035,112.323 82.47,106.415 84.166,100.261 C85.404,95.772 85.939,91.325 86.186,86.785 C87.121,90.566 88.47,94.261 89.385,98.14 C91.53,107.237 90.07,116.419 87.58,125.288 C83.81,138.726 77.386,152.275 78.354,166.483 C78.083,164.756 77.763,163.03 77.386,161.305 C75.727,153.71 73.634,146.083 73.704,138.246 M79.753,194.686 C79.841,186.296 79.821,177.96 78.793,169.657 C79.028,169.831 79.491,169.692 79.469,169.333 C78.454,152.32 86.113,137.622 89.954,121.485 C91.547,114.797 92.422,107.831 91.348,100.988 C90.14,93.296 86.307,86.29 86.475,78.382 C87.122,65.377 90.246,52.051 87.262,39.168 C87.484,39.252 87.762,39.169 87.906,38.961 C89.65,36.442 90.477,33.711 90.938,30.868 C90.773,29.076 90.611,27.284 90.451,25.492 C90.4,26.221 90.345,26.949 90.283,27.677 C90.127,29.486 89.935,31.283 89.491,33.045 C89.141,34.432 88.835,37.988 87.284,36.627 C85.558,35.115 85.584,30.179 85.23,28.113 C84.622,24.557 84.012,21.001 83.422,17.442 C82.594,12.444 81.92,7.544 82.494,2.679 L81.628,2.766 C81.119,6.911 81.551,11.156 82.193,15.379 C82.851,19.715 83.605,24.038 84.304,28.368 C84.875,31.9 85.266,35.4 86.861,38.622 C86.707,38.637 86.561,38.745 86.565,38.932 C86.707,46.204 87.527,53.301 86.948,60.601 C86.498,66.292 85.713,71.903 85.339,77.578 C85.23,77.685 85.15,77.828 85.142,78.023 C85.103,78.944 85.122,79.851 85.182,80.746 C85.166,81.218 85.143,81.689 85.135,82.162 C85.015,89.293 84.226,96.022 82.056,102.839 C80.044,109.163 77.395,115.263 75.38,121.586 C71.349,134.245 72.437,145.576 75.325,158.358 C78.076,170.536 78.428,182.451 78.387,194.686 L79.753,194.686" id="Fill-154" fill="#CD7433"></path>
                <path d="M92.558,84.234 C91.569,79.025 92.105,74.212 93.587,69.162 C93.679,68.85 93.21,68.643 93.055,68.938 C89.408,75.865 90.195,85.57 93.716,92.964 C93.801,91.607 93.87,90.25 93.925,88.895 C93.36,87.389 92.866,85.853 92.558,84.234" id="Fill-155" fill="#CD7433"></path>
                <path d="M73.317,80.454 L73.534,80.295 C75.184,78.237 75.25,76.109 75.783,73.848 C76.66,78.706 77.052,83.738 75.843,88.564 C74.892,92.361 72.797,95.68 71.097,99.171 C71.137,92.848 71.994,86.668 73.317,80.454 M69.915,101.933 C69.935,102.653 70.866,102.713 71.11,102.094 C73.321,96.494 76.859,91.906 77.651,85.789 C78.289,80.859 77.583,75.915 76.589,71.086 C76.479,70.552 75.618,70.417 75.38,70.928 C74.061,73.764 74.28,76.889 72.559,79.544 C72.404,79.784 72.472,80.045 72.632,80.234 C70.443,87.28 69.71,94.563 69.915,101.933" id="Fill-156" fill="#CD7433"></path>
                <path d="M72.157,70.988 C73.886,66.101 75.653,60.75 74.713,55.507 C74.261,52.985 73.178,51.018 71.677,48.975 C69.211,45.619 68.071,42.515 68.884,38.306 C69.995,32.558 73.226,27.158 72.699,21.147 C72.439,18.182 71.111,15.545 69.997,12.833 C68.794,9.908 68.184,7.038 68.239,4.121 L67.329,4.213 C67.231,7.226 67.847,10.2 69.084,13.288 C70.717,17.366 72.221,20.942 71.348,25.427 C70.804,28.23 69.727,30.922 68.837,33.625 C67.509,37.658 66.314,42.085 68.164,46.153 C69.533,49.161 72.127,51.243 73.061,54.521 C74.229,58.623 73.225,63.033 72.005,67.007 C70.785,70.981 69.353,74.861 68.05,78.791 C68.033,80.814 67.977,82.836 67.902,84.858 C69.102,80.214 70.524,75.6 72.157,70.988" id="Fill-157" fill="#CD7433"></path>
                <path d="M66.777,194.686 C66.88,190.88 66.871,187.077 66.78,183.277 C66.348,185.267 65.883,187.247 65.388,189.213 C65.378,191.037 65.347,192.861 65.288,194.686 L66.777,194.686" id="Fill-158" fill="#CD7433"></path>
                <path d="M91.431,36.194 C91.266,34.42 91.101,32.646 90.937,30.872 C90.937,30.871 90.938,30.869 90.938,30.868 C90.861,30.034 90.785,29.2 90.709,28.366 C90.947,30.977 91.19,33.584 91.431,36.194 M90.45,25.508 C90.357,24.469 90.266,23.428 90.176,22.389 C90.177,22.389 90.178,22.389 90.179,22.389 C90.268,23.423 90.359,24.459 90.451,25.492 C90.45,25.497 90.45,25.503 90.45,25.508" id="Fill-159" fill="#9B4400"></path>
                <path d="M94.052,84.225 C93.545,84.181 93.039,84.138 92.532,84.094 C91.579,78.938 92.118,74.167 93.587,69.162 C93.648,68.956 93.464,68.795 93.287,68.795 C93.197,68.795 93.108,68.838 93.055,68.938 C90.772,73.274 90.226,78.698 91.001,83.963 C89.632,83.845 88.264,83.728 86.895,83.61 C86.603,81.901 86.437,80.165 86.475,78.382 C87.122,65.377 90.246,52.051 87.262,39.168 C87.32,39.19 87.382,39.2 87.444,39.2 C87.62,39.2 87.799,39.114 87.906,38.961 C89.649,36.443 90.476,33.714 90.937,30.872 C91.101,32.646 91.266,34.42 91.431,36.194 C92.912,52.188 94.337,68.175 94.052,84.225 M85.106,83.456 C83.894,83.352 82.682,83.248 81.47,83.144 C82.506,69.492 80.195,55.763 79.762,42.1 C79.561,35.736 80.642,29.138 80.354,22.734 C81.356,22.699 82.357,22.664 83.358,22.628 C83.675,24.541 83.995,26.454 84.304,28.368 C84.875,31.9 85.266,35.4 86.861,38.622 C86.707,38.637 86.561,38.745 86.565,38.932 C86.707,46.204 87.527,53.301 86.948,60.601 C86.498,66.292 85.713,71.903 85.339,77.578 C85.23,77.685 85.15,77.828 85.142,78.023 C85.103,78.944 85.122,79.851 85.182,80.746 C85.166,81.218 85.143,81.689 85.135,82.162 C85.128,82.595 85.118,83.026 85.106,83.456 M80.086,83.025 C79.351,82.962 78.616,82.899 77.881,82.836 C77.996,78.89 77.385,74.951 76.589,71.086 C76.527,70.782 76.221,70.607 75.925,70.607 C75.701,70.607 75.483,70.708 75.38,70.928 C74.061,73.764 74.28,76.889 72.559,79.544 C72.404,79.784 72.472,80.045 72.632,80.234 C72.416,80.931 72.213,81.631 72.024,82.333 C70.902,82.237 69.779,82.14 68.657,82.044 C69.686,78.348 70.854,74.667 72.157,70.988 C73.886,66.101 75.653,60.75 74.713,55.507 C74.261,52.985 73.178,51.018 71.677,48.975 C69.211,45.619 68.071,42.515 68.884,38.306 C69.884,33.13 72.604,28.236 72.75,22.924 C73.163,22.938 73.561,22.948 73.937,22.948 C74.137,22.948 74.33,22.945 74.516,22.939 C75.974,22.887 77.433,22.836 78.891,22.785 C79.18,28.896 78.155,35.274 78.307,41.222 C78.662,55.118 81.152,69.14 80.086,83.025 M87.924,36.932 C87.737,36.932 87.526,36.839 87.284,36.627 C85.558,35.115 85.584,30.179 85.23,28.113 C84.915,26.274 84.601,24.435 84.288,22.596 C86.251,22.527 88.213,22.458 90.176,22.389 C90.266,23.428 90.357,24.469 90.45,25.508 C90.399,26.231 90.345,26.955 90.283,27.677 C90.127,29.486 89.935,31.283 89.491,33.045 C89.196,34.216 88.932,36.932 87.924,36.932" id="Fill-160" fill="#C8723E"></path>
                <path d="M81.47,83.144 C81.008,83.104 80.547,83.065 80.086,83.025 C81.152,69.14 78.662,55.118 78.307,41.222 C78.155,35.274 79.18,28.896 78.891,22.785 C79.379,22.768 79.866,22.751 80.354,22.734 C80.642,29.138 79.561,35.736 79.762,42.1 C80.195,55.763 82.506,69.492 81.47,83.144" id="Fill-161" fill="#C16127"></path>
                <path d="M86.895,83.61 C86.299,83.559 85.702,83.508 85.106,83.456 C85.118,83.026 85.128,82.595 85.135,82.162 C85.143,81.689 85.166,81.218 85.182,80.746 C85.122,79.851 85.103,78.944 85.142,78.023 C85.15,77.828 85.23,77.685 85.339,77.578 C85.713,71.903 86.498,66.292 86.948,60.601 C87.527,53.301 86.707,46.204 86.565,38.932 C86.561,38.745 86.707,38.637 86.861,38.622 C85.266,35.4 84.875,31.9 84.304,28.368 C83.995,26.454 83.675,24.541 83.358,22.628 C83.668,22.617 83.978,22.607 84.288,22.596 C84.601,24.435 84.915,26.274 85.23,28.113 C85.584,30.179 85.558,35.115 87.284,36.627 C87.526,36.839 87.737,36.932 87.924,36.932 C88.932,36.932 89.196,34.216 89.491,33.045 C89.935,31.283 90.127,29.486 90.283,27.677 C90.345,26.955 90.399,26.231 90.45,25.508 C90.45,25.503 90.45,25.497 90.451,25.492 C90.536,26.451 90.622,27.408 90.709,28.366 C90.785,29.2 90.861,30.034 90.938,30.868 C90.938,30.869 90.937,30.871 90.937,30.872 C90.476,33.714 89.649,36.443 87.906,38.961 C87.799,39.114 87.62,39.2 87.444,39.2 C87.382,39.2 87.32,39.19 87.262,39.168 C90.246,52.051 87.122,65.377 86.475,78.382 C86.437,80.165 86.603,81.901 86.895,83.61" id="Fill-162" fill="#C16127"></path>
                <path d="M76.596,82.726 C75.369,82.62 74.143,82.515 72.916,82.41 C73.044,81.758 73.178,81.106 73.317,80.454 L73.534,80.295 C75.184,78.237 75.25,76.109 75.783,73.848 C76.31,76.772 76.663,79.759 76.596,82.726" id="Fill-163" fill="#C8723E"></path>
                <path d="M92.532,84.094 C92.022,84.05 91.511,84.006 91.001,83.963 C90.226,78.698 90.772,73.274 93.055,68.938 C93.108,68.838 93.197,68.795 93.287,68.795 C93.464,68.795 93.648,68.956 93.587,69.162 C92.118,74.167 91.579,78.938 92.532,84.094" id="Fill-164" fill="#C16127"></path>
                <path d="M77.881,82.836 C77.453,82.799 77.024,82.762 76.596,82.726 C76.663,79.759 76.31,76.772 75.783,73.848 C75.25,76.109 75.184,78.237 73.534,80.295 L73.317,80.454 C73.178,81.106 73.044,81.758 72.916,82.41 C72.619,82.384 72.322,82.359 72.024,82.333 C72.213,81.631 72.416,80.931 72.632,80.234 C72.472,80.045 72.404,79.784 72.559,79.544 C74.28,76.889 74.061,73.764 75.38,70.928 C75.483,70.708 75.701,70.607 75.925,70.607 C76.221,70.607 76.527,70.782 76.589,71.086 C77.385,74.951 77.996,78.89 77.881,82.836" id="Fill-165" fill="#C16127"></path>
                <path d="M67.996,81.888 C68.013,81.171 68.029,80.455 68.039,79.738 C68.029,80.454 68.014,81.171 67.996,81.888 M68.054,78.442 C68.066,76.782 68.058,75.121 68.033,73.459 C68.058,75.12 68.066,76.783 68.054,78.442" id="Fill-166" fill="#F0D5C1"></path>
                <path d="M68.051,78.789 C68.051,78.782 68.051,78.776 68.051,78.769 C68.052,78.727 68.052,78.686 68.052,78.644 C68.052,78.623 68.053,78.603 68.053,78.582 C68.053,78.564 68.053,78.544 68.053,78.526 C68.053,78.499 68.054,78.471 68.054,78.443 L68.054,78.442 C68.066,76.783 68.058,75.12 68.033,73.459 C68.033,73.452 68.033,73.448 68.033,73.441 C68.032,73.409 68.032,73.378 68.031,73.346 C68.031,73.32 68.03,73.297 68.03,73.271 C68.03,73.244 68.029,73.215 68.029,73.188 C68.028,73.156 68.028,73.124 68.027,73.092 C68.027,73.083 68.027,73.071 68.027,73.062 C67.752,56.442 65.838,39.772 65.943,23.239 C67.088,22.923 68.397,22.838 69.706,22.838 C70.345,22.838 70.985,22.859 71.604,22.882 C71.599,23.702 71.519,24.547 71.348,25.427 C70.804,28.23 69.727,30.922 68.837,33.625 C67.509,37.658 66.314,42.085 68.164,46.153 C69.533,49.161 72.127,51.243 73.061,54.521 C74.229,58.623 73.225,63.033 72.005,67.007 C70.785,70.98 69.353,74.86 68.051,78.789" id="Fill-167" fill="#C8723E"></path>
                <path d="M68.657,82.044 C68.436,82.025 68.215,82.006 67.994,81.987 C67.994,81.954 67.995,81.921 67.996,81.888 C68.014,81.171 68.029,80.454 68.039,79.738 C68.044,79.422 68.048,79.106 68.051,78.789 C69.353,74.86 70.785,70.98 72.005,67.007 C73.225,63.033 74.229,58.623 73.061,54.521 C72.127,51.243 69.533,49.161 68.164,46.153 C66.314,42.085 67.509,37.658 68.837,33.625 C69.727,30.922 70.804,28.23 71.348,25.427 C71.519,24.547 71.599,23.702 71.604,22.882 C71.707,22.885 71.81,22.889 71.911,22.893 C72.197,22.904 72.477,22.915 72.75,22.924 C72.604,28.236 69.884,33.13 68.884,38.306 C68.071,42.515 69.211,45.619 71.677,48.975 C73.178,51.018 74.261,52.985 74.713,55.507 C75.653,60.75 73.886,66.101 72.157,70.988 C70.854,74.667 69.686,78.348 68.657,82.044" id="Fill-168" fill="#C16127"></path>
                <path d="M129.081,74.171 C125.592,73.545 121.435,72.853 118.09,72.245 C123.098,72.087 128.488,73.397 133.496,73.239 L133.496,49.122 C127.797,48.608 122.026,48.571 116.329,48.058 C121.655,46.066 128.734,43.281 134.416,42.546 C134.18,39.152 132.847,36.42 132.612,33.025 C103.762,33.969 74.896,33.943 46.028,33.943 L46.028,20.723 L5.68434189e-14,52.237 L5.68434189e-14,56.88 L45.763,87.704 L45.763,76.059 C74.759,76.059 100.076,77.397 129.081,78.814 L129.081,74.171" id="Fill-169" fill="#A55100"></path>
                <path d="M45.763,82.456 C40.373,78.815 35.237,74.904 29.922,71.172 C27.383,69.389 24.516,68.13 21.893,66.472 C19.523,64.973 17.428,63.125 15.201,61.445 C15.086,61.338 14.968,61.236 14.855,61.129 C12.604,59 10.59,56.738 7.572,55.568 C7.044,55.364 6.64,56.018 6.875,56.416 C4.648,55.406 2.387,54.578 0.883,52.451 C0.629,52.091 0.164,52.203 1.70530257e-13,52.488 L1.70530257e-13,53.473 C0.925,54.776 2.399,55.705 3.611,56.771 C5.283,58.239 6.92,59.56 8.84,60.746 C12.222,62.834 15.399,65.073 18.754,67.166 C19.239,67.504 19.732,67.833 20.245,68.144 C21.632,68.985 23.029,69.8 24.425,70.612 C27.601,72.661 30.65,74.896 33.872,76.884 C35.895,78.132 37.962,79.231 40.064,80.355 C40.773,80.734 41.441,81.161 42.095,81.605 C43.3,82.471 44.485,83.362 45.763,84.125 L45.763,82.456" id="Fill-170" fill="#914000"></path>
                <path d="M123.429,73.88 C122.991,73.883 122.553,73.885 122.12,73.883 C121.93,73.882 121.745,73.876 121.556,73.873 C121.292,73.869 121.027,73.867 120.767,73.857 C120.508,73.847 120.256,73.826 120.002,73.809 C119.818,73.796 119.629,73.79 119.448,73.773 C119.015,73.732 118.591,73.677 118.178,73.602 C118.884,73.579 119.605,73.563 120.321,73.545 C119.596,73.476 118.871,73.416 118.143,73.378 C114.717,73.202 111.284,73.442 107.858,73.226 C100.432,72.757 93.041,71.512 85.612,71.219 C78.282,70.93 70.882,70.988 63.544,70.972 C59.966,70.964 56.371,70.885 52.795,71.037 C50.192,71.148 47.386,70.973 44.87,71.671 C44.541,71.762 44.477,72.053 44.583,72.275 C44.422,72.297 44.259,72.312 44.101,72.339 C43.273,72.478 43.511,73.637 44.292,73.663 C44.875,73.683 45.46,73.691 46.045,73.7 C45.949,74.482 45.916,75.269 45.92,76.06 C46.902,76.06 47.87,76.065 48.842,76.068 C48.841,75.888 48.844,75.708 48.839,75.529 C48.833,74.921 48.816,74.315 48.775,73.71 C53.671,73.668 58.603,73.36 63.491,73.224 C65.092,73.212 66.693,73.222 68.283,73.305 C73.152,73.558 78.031,73.709 82.912,73.799 C84.172,73.894 85.435,73.992 86.707,74.098 C100.871,75.279 114.838,75.718 129.052,75.779 L129.081,74.366 C127.166,74.305 125.296,74.096 123.429,73.88" id="Fill-171" fill="#914000"></path>
                <path d="M133.496,68.682 C131.493,68.681 129.488,68.659 127.492,68.555 C124.936,68.421 122.478,68.086 119.938,68.555 C119.58,68.622 119.458,68.891 119.507,69.149 C119.219,69.056 118.963,68.932 118.755,68.767 C118.446,68.522 117.902,68.839 118.157,69.199 C119.096,70.525 121.726,70.334 123.42,70.213 C123.404,70.406 123.505,70.616 123.735,70.687 C124.814,71.017 125.958,70.88 127.059,71.12 C127.429,71.201 127.787,71.291 128.144,71.371 L128.184,71.472 C128.256,71.608 128.381,71.649 128.506,71.633 C128.5,71.794 128.59,71.917 128.721,71.99 C128.641,72.31 128.587,72.637 128.587,72.979 C128.587,73.147 128.679,73.276 128.806,73.359 C129.015,73.354 129.226,73.35 129.435,73.345 L129.542,73.221 C129.598,73.127 129.645,73.03 129.7,72.937 C129.827,72.917 129.943,72.852 130.009,72.714 L130.052,72.6 C130.321,71.867 130.725,71.186 130.933,70.434 C130.958,70.343 130.951,70.265 130.931,70.193 C131.318,70.204 131.704,70.22 132.09,70.229 C132.251,70.926 132.457,71.613 132.638,72.308 C132.69,72.625 132.744,72.941 132.799,73.257 C133.03,73.251 133.266,73.246 133.496,73.239 L133.496,68.682" id="Fill-172" fill="#914000"></path>
                <path d="M134.083,40.188 C133.985,39.703 133.875,39.225 133.757,38.751 C130.815,38.081 127.92,39.053 125.604,39.679 C122.873,40.417 119.19,41.812 118.059,42.999 L117.815,42.991 C117.624,42.987 117.479,43.07 117.378,43.188 L117.316,43.205 C117.072,43.265 117.083,43.521 117.233,43.636 C117.251,43.849 117.38,44.045 117.655,44.098 C119.801,44.512 122.122,44.859 124.444,45.098 C125.63,44.696 126.827,44.315 128.015,43.968 C126.168,43.633 124.282,43.39 122.394,43.231 C125.615,42.523 128.801,41.563 131.992,40.669 C132.69,40.513 133.387,40.353 134.083,40.188" id="Fill-173" fill="#914000"></path>
                <path d="M129.081,70.887 C125.592,70.261 121.523,69.567 118.178,68.959 C123.186,68.8 128.488,68.754 133.496,68.596 L133.496,44.479 C127.797,43.965 122.026,43.928 116.329,43.415 C121.655,41.423 127.962,39.408 133.645,38.673 C133.41,35.279 132.847,31.777 132.612,28.382 C103.762,29.326 74.896,29.3 46.028,29.3 L46.028,16.08 L1.13686838e-13,52.237 L45.763,83.061 L45.763,71.416 C74.759,71.416 100.076,72.754 129.081,74.171 L129.081,70.887" id="Fill-174" fill="#D58952"></path>
                <path d="M129.081,70.887 C125.592,70.261 121.523,69.567 118.178,68.959 C123.186,68.8 128.488,68.754 133.496,68.596 L133.496,44.479 C127.797,43.965 122.026,43.928 116.329,43.415 C121.655,41.423 127.962,39.408 133.645,38.673 C133.41,35.279 132.847,31.777 132.612,28.382 C103.762,29.326 74.896,29.3 46.028,29.3 L46.028,16.08 L1.13686838e-13,52.237 L45.763,83.061 L45.763,71.416 C74.759,71.416 100.076,72.754 129.081,74.171 L129.081,70.887" id="Fill-175" fill="#D58952"></path>
                <path d="M12.221,50.965 L12.036,50.919 C9.445,50.736 6.933,51.034 4.457,50.294 C5.99,49.535 8.047,49.417 9.662,49.362 C10.82,49.323 15.193,49.081 15.834,50.242 C16.05,50.634 13.926,50.859 12.221,50.965 Z M16.734,49.921 C15.063,48.461 12.108,48.428 9.966,48.463 C7.666,48.5 4.882,48.688 3.013,50.082 C2.781,50.255 2.838,50.698 3.114,50.811 C5.338,51.718 7.805,51.919 10.231,51.834 C12.857,52.095 15.516,51.916 16.734,50.445 C16.861,50.291 16.906,50.071 16.734,49.921 L16.734,49.921 Z" id="Fill-176" fill="#CD7433"></path>
                <path d="M47.981,65.903 C39.488,64.8 30.134,64.411 21.863,66.963 L22.387,67.316 C26.738,66.22 31.327,65.949 35.81,66.034 C41.33,66.138 47.166,66.324 52.426,67.927 C55.293,68.8 57.807,69.293 60.271,70.997 C60.563,71.199 60.832,71.376 61.092,71.54 C61.998,71.554 62.897,71.571 63.797,71.588 C62.839,71.35 61.912,70.963 61.025,70.293 C57.531,67.656 52.45,66.484 47.981,65.903" id="Fill-177" fill="#CD7433"></path>
                <path d="M28.837,71.66 C34.552,70.629 40.725,70.845 45.763,72.12 L45.763,71.416 C46.185,71.416 46.599,71.419 47.019,71.42 C45.355,70.942 43.659,70.573 41.904,70.396 C39.323,70.134 36.5,70.057 33.645,70.235 C35.203,69.94 36.68,69.436 37.953,68.402 C38.167,68.229 38.104,67.865 37.862,67.744 C34.256,65.94 28.738,67.506 24.192,68.531 L25.24,69.237 C26.609,69 27.973,68.721 29.353,68.489 C30.869,68.234 32.415,67.954 33.958,67.918 C34.373,67.908 36.115,67.77 36.312,68.045 C36.641,68.505 34.085,69.247 33.904,69.299 C31.62,69.953 29.029,69.893 26.6,70.153 L27.77,70.942 C28.082,70.899 28.392,70.854 28.707,70.817 C28.416,70.868 28.129,70.931 27.841,70.989 L28.837,71.66" id="Fill-178" fill="#CD7433"></path>
                <path d="M39.465,62.875 C45.523,63.114 51.182,64.821 57.11,65.762 C62.415,66.605 67.806,66.914 73.18,67.007 C84.693,67.207 96.016,65.271 107.546,65.27 C113.646,65.269 119.692,65.878 125.776,65.935 C128.383,65.96 130.943,65.627 133.496,65.25 L133.496,63.863 C131.351,63.842 129.203,63.739 127.07,63.716 C126.681,63.711 120.778,63.519 120.769,63.578 C120.818,63.246 123.279,62.855 123.509,62.811 C126.79,62.178 130.152,61.992 133.496,61.757 L133.496,61.042 C130.915,61.145 128.337,61.303 125.773,61.619 C124.281,61.802 119.781,61.931 119.374,63.862 C119.313,64.148 119.504,64.403 119.824,64.415 C123.593,64.563 127.36,64.564 131.131,64.616 C131.767,64.625 132.4,64.64 133.032,64.65 C130.627,64.957 128.218,65.21 125.776,65.153 C119.921,65.016 114.127,64.426 108.257,64.404 C96.49,64.361 84.923,66.3 73.18,66.084 C67.242,65.976 61.277,65.62 55.442,64.533 C50.328,63.58 45.374,62.247 40.135,61.969 C34.233,61.655 28.573,62.921 22.731,63.433 C20.976,63.587 19.193,63.774 17.401,63.957 L18.616,64.775 C19.997,64.633 21.371,64.493 22.731,64.372 C28.325,63.874 33.82,62.652 39.465,62.875" id="Fill-179" fill="#CD7433"></path>
                <path d="M122.713,69.765 C117.956,69.442 113.434,68.51 108.585,67.972 C103.405,67.398 98.336,68.474 93.327,69.607 C90.487,70.249 87.794,71.061 85.02,71.9 C84.718,71.991 84.412,72.063 84.107,72.143 C85.048,72.176 85.991,72.209 86.931,72.245 C88.463,71.792 89.991,71.332 91.558,70.968 C98.013,69.471 104.268,68.182 110.916,69.321 C115.923,70.179 120.412,71.064 125.544,70.969 C126.698,70.948 127.86,70.912 129.026,70.877 C127.028,70.519 124.844,70.139 122.713,69.765" id="Fill-180" fill="#CD7433"></path>
                <path d="M119.83,59.569 C112.879,59.987 105.988,60.429 99.07,61.213 C92.037,62.01 84.976,62.86 77.876,62.796 C74.318,62.764 70.759,62.479 67.281,61.748 C63.927,61.042 61.213,59.498 58.081,58.344 C55.193,57.28 51.933,57.286 48.917,56.729 C46.248,56.236 43.653,55.5 40.92,55.373 C34.851,55.089 28.866,55.474 23.116,57.341 C19.134,58.634 15.227,59.382 11.242,59.809 L12.359,60.562 C15.101,60.311 17.818,59.857 20.503,59.048 C23.984,57.999 27.242,56.779 30.92,56.441 C34.006,56.157 37.223,56.074 40.321,56.201 C43.603,56.336 46.681,57.241 49.89,57.775 C51.666,58.07 53.496,58.109 55.248,58.515 C57.342,59 59,59.899 60.906,60.767 C65.73,62.963 71.299,63.644 76.608,63.791 C90.083,64.166 103.549,61.492 116.986,60.785 C122.537,60.493 128.025,60.137 133.496,59.913 L133.496,58.672 C128.911,58.934 124.34,59.297 119.83,59.569" id="Fill-181" fill="#CD7433"></path>
                <path d="M45.763,77.535 C43.97,77.389 42.185,77.2 40.417,76.948 C38.86,76.726 37.347,76.514 35.837,76.375 L37.195,77.29 C38.994,77.558 40.793,77.883 42.633,78.123 C43.671,78.258 44.716,78.375 45.763,78.479 L45.763,77.535" id="Fill-182" fill="#CD7433"></path>
                <path d="M100.73,51.446 C98.144,51.289 94.759,51.803 92.236,50.869 C95.737,50.273 99.335,50.322 102.875,50.025 C107.219,49.661 111.565,49.27 115.893,48.761 C119.677,48.317 123.353,48.049 127.169,48.08 C129.1,48.096 131.044,48.176 132.974,48.12 C133.141,48.115 133.319,48.1 133.496,48.086 L133.496,47.202 C132,47.266 130.51,47.266 128.984,47.25 C124.532,47.2 120.31,47.375 115.893,47.899 C111.337,48.44 106.761,48.858 102.187,49.232 C98.373,49.544 94.531,49.463 90.786,50.284 C90.381,50.372 90.377,50.86 90.678,51.055 C92.688,52.353 95.253,52.149 97.588,52.137 C101.933,52.113 106.269,52.381 110.624,52.329 C118.248,52.236 125.873,51.956 133.496,51.734 L133.496,51.12 C126.83,51.238 120.158,51.543 113.496,51.657 C109.24,51.729 104.977,51.705 100.73,51.446" id="Fill-183" fill="#CD7433"></path>
                <path d="M83.792,48.428 C80.287,48.686 76.219,48.55 73.291,50.645 C73.009,50.846 72.91,51.191 73.179,51.454 C75.824,54.034 80.429,54.097 83.996,54.174 C90.284,54.31 96.601,54.064 102.885,53.892 C110.578,53.682 118.268,53.513 125.96,53.299 C128.384,53.233 130.933,53.421 133.496,53.568 L133.496,52.307 C131.458,52.225 129.42,52.146 127.38,52.188 C121.276,52.311 115.178,52.551 109.073,52.66 C102.648,52.776 96.228,52.995 89.802,53.071 C85.875,53.118 81.695,53.452 77.85,52.551 C77.11,52.377 75.113,52.123 74.802,51.442 C74.458,50.69 75.614,50.542 76.579,50.264 C78.885,49.601 81.405,49.62 83.792,49.441 C89.584,49.006 95.321,48.22 101.132,47.945 C107.371,47.651 113.597,47.246 119.83,46.857 C124.379,46.573 128.934,45.797 133.496,45.529 L133.496,44.794 C128.938,44.947 124.36,45.709 119.83,45.957 C113.596,46.299 107.369,46.677 101.132,46.961 C95.322,47.225 89.583,48.003 83.792,48.428" id="Fill-184" fill="#CD7433"></path>
                <path d="M40.81,33.999 C44.393,35.996 49.071,36.207 53.155,36.366 C59.087,36.598 65.116,36.227 71.051,35.914 C71.129,35.98 71.229,36.028 71.365,36.032 C76.935,36.202 82.353,37.305 87.963,37.385 C93.713,37.467 99.464,37.333 105.215,37.39 C110.785,37.445 116.107,36.671 121.639,36.316 C125.559,36.063 129.467,35.995 133.368,35.664 C133.338,35.392 133.306,35.119 133.276,34.846 C128.945,35.101 124.61,35.168 120.282,35.495 C114.961,35.898 109.853,36.434 104.5,36.392 C98.988,36.349 93.475,36.466 87.963,36.384 C84.75,36.337 81.547,35.864 78.351,35.504 C88.608,34.878 98.849,34.038 109.104,33.381 C115.043,33.001 120.992,32.81 126.931,32.465 C128.867,32.353 130.983,32.276 132.948,31.916 C132.894,31.43 132.844,30.945 132.796,30.461 C131.163,30.842 129.478,31.06 127.582,31.184 C121.194,31.603 114.786,31.764 108.395,32.176 C94.92,33.045 81.467,34.223 67.974,34.823 C61.341,35.118 54.665,35.485 48.052,34.788 C44.789,34.443 42.588,33.737 39.742,32.253 C37.718,31.197 35.679,30.609 33.364,30.342 C31.674,30.147 29.943,30.077 28.208,30.0789585 L27.126,30.928 C32.165,30.964 36.314,31.492 40.81,33.999" id="Fill-185" fill="#CD7433"></path>
                <path d="M42.526,30.69 C48.395,33.047 56.162,33.693 62.493,33.828 C70.047,33.989 77.541,32.546 84.842,30.879 C88.244,30.103 91.591,29.557 94.939,29.139 C92.106,29.168 89.273,29.193 86.44,29.212 C78.779,30.934 71.109,32.69 63.169,32.648 C59.65,32.629 56.165,32.169 52.677,31.761 C48.949,31.324 44.191,30.883 40.995,28.833 C39.488,27.866 37.841,25.432 36.024,23.939 L35.263,24.536 C36.386,25.609 37.498,27.089 38.099,27.681 C39.484,29.044 40.651,29.937 42.526,30.69" id="Fill-186" fill="#CD7433"></path>
                <path d="M40.028,41.058 L39.948,41.011 C37.904,40.283 35.676,40.379 33.529,40.451 C33.205,40.462 32.986,40.787 33.156,41.059 C34.429,43.102 37.799,42.484 39.875,42.37 C40.211,42.351 40.465,41.995 40.309,41.721 C40.425,41.478 40.332,41.149 40.028,41.058" id="Fill-187" fill="#CD7433"></path>
                <path d="M52.006,43.643 C48.026,43.959 44.024,44.078 40.031,43.937 C32.089,43.656 24.933,41.984 17.612,39.505 C18.423,39.479 19.232,39.443 20.035,39.407 C25.639,39.149 31.412,38.126 37.023,38.706 C42.246,39.245 46.897,41.881 52.14,42.509 C53.88,42.717 55.623,42.774 57.366,42.752 C55.606,43.137 53.835,43.497 52.006,43.643 Z M12.113,55.095 C14.186,55.145 16.269,55.157 18.329,54.894 C21.337,54.51 23.563,53.273 26.393,52.453 C31.838,50.873 37.849,52.497 43.42,52.602 C46.337,52.656 49.308,52.469 52.215,52.745 C54.307,52.942 56.122,53.383 58.15,53.233 C57.798,54.524 58.408,55.855 60.717,56.876 C62.544,57.683 65.044,57.74 67.001,57.973 C70.646,58.408 74.348,58.755 78.016,58.965 C84.472,59.334 91.235,59.52 97.685,59.003 C100.983,58.738 104.101,57.923 107.293,57.153 C111.385,56.166 115.387,55.75 119.602,55.648 C124.232,55.537 128.864,55.584 133.496,55.656 L133.496,54.758 C125.427,54.471 117.248,54.28 109.548,55.842 C103.541,57.061 98.039,58.272 91.84,58.236 C85.907,58.203 79.991,58.257 74.081,57.699 C71.129,57.421 58.778,57.761 58.924,53.412 C58.927,53.317 58.949,53.228 58.965,53.137 L59.099,53.121 C59.526,53.05 59.515,52.601 59.262,52.382 C60.353,50.629 63.866,49.695 65.463,49.228 C70.481,47.759 75.76,47.094 80.969,46.543 C86.831,45.923 92.68,45.139 98.567,44.757 C104.447,44.376 110.735,45.275 116.373,43.392 C116.666,43.294 116.641,42.942 116.437,42.833 C117.058,42.793 117.679,42.739 118.3,42.694 C120.053,42.068 121.887,41.462 123.747,40.904 C122.445,41.051 121.146,41.198 119.855,41.326 C113.989,41.908 108.178,42.151 102.282,41.943 C90.845,41.541 79.402,39.808 67.961,40.817 C62.037,41.339 55.977,42.167 50.07,41.049 C45.616,40.206 41.576,38.057 37.023,37.638 C31.627,37.142 26.128,38.057 20.749,38.388 C19.639,38.456 18.517,38.522 17.393,38.574 L16.1,39.589 C22.855,43.173 31.131,44.449 38.772,44.863 C43.183,45.102 47.606,44.994 52.006,44.647 C56.221,44.315 60.064,43.3 64.16,42.368 L64.21,42.345 C65.462,42.232 66.713,42.11 67.961,42.001 C74.239,41.449 80.517,41.723 86.795,42.149 C80.52,42.283 74.196,43.137 68.139,44.506 C59.69,46.417 51.49,47.703 42.775,47.845 C39.065,47.905 35.301,48.092 31.595,47.991 C27.478,47.879 23.726,46.235 19.739,45.461 C16.225,44.778 12.666,44.703 9.153,45.047 L7.762,46.139 C12.849,45.663 17.892,45.907 23.029,47.3 C26.147,48.147 28.977,49.025 32.246,49.04 C36.19,49.058 40.162,48.972 44.105,48.882 C51.48,48.715 58.56,47.819 65.719,46.167 C74.088,44.236 82.246,43.4 90.835,43.027 C91.192,43.012 91.333,42.713 91.265,42.468 C94.938,42.738 98.61,43.005 102.282,43.136 C106.873,43.299 111.461,43.149 116.046,42.859 C109.752,44.725 102.352,43.562 95.813,44.104 C90.538,44.543 85.28,45.19 80.019,45.76 C74.173,46.393 67.972,47.089 62.525,49.273 C60.914,49.92 59.351,51.045 58.571,52.297 C55.916,52.656 53.211,51.86 50.541,51.763 C47.721,51.661 44.896,51.769 42.075,51.681 C37.356,51.535 32.493,50.313 27.804,51.203 C25.209,51.695 22.986,53.017 20.433,53.632 C17.722,54.285 14.89,54.273 12.113,54.221 C9.169,54.166 6.451,53.775 3.66,52.879 C2.625,52.546 1.612,52.135 0.582,51.78 L5.68434189e-14,52.237 L0.131,52.325 C1.635,52.877 3.127,53.57 4.613,54.018 C7.149,54.782 9.447,55.03 12.113,55.095 L12.113,55.095 Z" id="Fill-188" fill="#CD7433"></path>
                <path d="M92.968,30.773 C96.566,30.806 100.158,30.795 103.735,30.396 C107.444,29.984 110.903,29.39 114.654,29.627 C120.112,29.971 125.518,29.564 130.943,29.291 C130.86,30.877 131.195,32.648 131.751,34.327 C131.982,35.837 132.307,37.338 132.666,38.824 C132.992,38.774 133.323,38.715 133.645,38.673 C133.41,35.279 132.847,31.777 132.612,28.382 C104.583,29.299 76.539,29.3 48.492,29.3 C47.53,29.345 47.232,29.389 46.272,29.446 C45.623,29.485 45.622,30.352 46.272,30.39 C61.962,31.323 77.244,30.627 92.968,30.773" id="Fill-189" fill="#E3AF8A"></path>
                <path d="M133.496,44.504 L133.318,44.655 C132.996,44.543 132.695,44.465 132.394,44.39 C127.142,43.97 121.837,43.895 116.591,43.436 C118.637,44.293 120.965,44.241 123.158,44.544 C126.08,44.947 129.014,45.177 131.937,45.548 C131.159,53.073 131.685,61.046 131.946,68.637 C132.369,68.625 132.796,68.616 133.214,68.603 C133.319,64.788 133.425,60.88 133.412,56.976 C133.425,57.089 133.435,57.204 133.451,57.317 L133.496,57.402 L133.496,44.504" id="Fill-190" fill="#E3AF8A"></path>
                <path d="M9.976,45.598 C12.647,43.82 15.131,41.885 17.563,39.875 C20.384,37.786 23.191,35.674 25.687,33.244 C26.309,32.639 26.935,32.051 27.562,31.464 C29.966,29.528 32.431,27.662 35.008,25.93 C36.803,24.724 38.706,23.637 40.419,22.33 C42.508,20.736 44.068,18.712 46.014,16.983 L46.028,16.274 L45.903,16.178 L5.012,48.3 L5.094,48.389 C3.619,49.726 2.117,51.018 0.421,51.906 L1.13686838e-13,52.237 L0.624,52.657 C4.18,51.065 6.783,47.723 9.976,45.598" id="Fill-191" fill="#E3AF8A"></path>
                <path d="M127.884,74.112 C128.285,74.131 128.679,74.151 129.081,74.171 L129.081,70.887 C125.624,70.267 121.598,69.58 118.271,68.975 L118.334,69.032 C119.698,69.853 121.347,69.947 122.904,70.223 C124.75,70.551 126.532,71.019 128.403,71.111 L128.304,71.277 C128.067,72.231 127.908,73.169 127.884,74.112" id="Fill-192" fill="#E3AF8A"></path>
                <path d="M121.752,44.055 C118.087,43.607 113.883,44.147 110.138,44.104 C106.089,44.06 102.065,44.13 98.018,44.23 C94.0659964,44.328 90.137,44.715 86.184,44.504 C81.874,44.272 77.64,44.124 73.322,44.365 C69.231,44.593 65.15,44.957 61.065,45.245 C56.441,45.571 52.994,44.761 48.683,43.179 C41.565,40.567 33.588,42.229 26.222,42.684 C26.016,42.696 26.012,42.981 26.222,42.986 C30.25,43.078 34.231,42.489 38.253,42.541 C42.815,42.599 46.526,43.405 50.723,45.011 C57.759,47.704 65.994,45.581 73.322,45.142 C81.295,44.665 89.326,45.203 97.318,44.994 C101.334,44.89 105.333,44.796 109.352,44.843 C111.474,44.868 113.613,44.964 115.735,44.915 C117.738,44.869 119.76,44.244 121.752,44.429 C122.011,44.453 122.001,44.086 121.752,44.055" id="Fill-193" fill="#E3AF8A"></path>
                <path d="M117.444,43.449 C114.203,43.463 111.316,42.915 108.131,43.329 C103.385,43.945 98.881,43.875 94.098,43.701 C93.348,43.673 92.598,43.656 91.847,43.636 C91.772,43.551 91.658,43.489 91.501,43.48 C87.242,43.204 82.966,43.297 78.689,43.507 C74.757,43.495 70.827,43.471 66.893,43.335 C62.781,43.192 58.929,43.477 55.224,41.714 C52.943,40.629 51.146,40.401 48.523,40.508 C40.921,40.817 33.114,40.379 25.609,41.665 C24.949,41.778 25.113,42.753 25.766,42.746 C31.75,42.684 38.118,41.953 44.054,42.826 C48.651,43.502 52.87,45.442 57.573,45.553 C62.86,45.676 68.201,45.029 73.5,44.99 C79.149,44.947 84.894,44.792 90.537,44.416 C91.201,44.432 91.864,44.445 92.529,44.467 C96.576,44.601 100.666,44.888 104.705,44.507 C108.984,44.104 112.949,44.75 117.28,44.004 C120.584,43.436 120.584,43.436 117.444,43.449" id="Fill-194" fill="#A55100"></path>
                <path d="M117.28,44.004 C118.258,43.836 118.94,43.718 119.343,43.635 L119.277,43.547 L119.418,43.456 C119.046,43.442 118.39,43.445 117.444,43.449 C116.847,43.452 116.266,43.432 115.691,43.406 C115.112,43.574 114.54,43.766 113.987,43.972 C110.925,44.197 107.865,44.337 104.753,44.385 C103.564,44.403 102.259,44.539 100.918,44.689 C102.183,44.675 103.447,44.626 104.705,44.507 C108.984,44.104 112.949,44.75 117.28,44.004" id="Fill-195" fill="#914000"></path>
                <path d="M79.489,44.892 C73.929,44.34 68.105,44.266 62.606,44.614 C60.873,44.476 59.133,44.439 57.393,44.374 C55.308,43.63 52.958,43.669 50.794,43.175 C49.164,42.802 47.649,42.492 46.055,42.383 C44.297,41.91 42.514,41.504 40.616,41.412 C36.916,41.231 33.272,41.558 29.595,41.852 C28.438,41.944 26.49,41.845 25.233,42.369 C25.31,42.576 25.492,42.749 25.766,42.746 C26.254,42.741 26.749,42.726 27.242,42.713 C27.647,42.685 28.069,42.678 28.491,42.678 C33.658,42.499 39.01,42.084 44.054,42.826 C48.651,43.502 52.87,45.442 57.573,45.553 C62.86,45.676 68.201,45.029 73.5,44.99 C75.488,44.975 77.487,44.939 79.489,44.892" id="Fill-196" fill="#914000"></path>
            </g>
        </g>
    </g>
</svg>