<svg height="512" viewBox="0 0 60 60" width="512" xmlns="http://www.w3.org/2000/svg"><g id="Icons"><path d="m60 55a1 1 0 0 1 -1 1 5.834 5.834 0 0 0 -4.2 1.77 7.824 7.824 0 0 1 -10.94 0 5.868 5.868 0 0 0 -8.4 0 7.824 7.824 0 0 1 -10.94 0 5.856 5.856 0 0 0 -8.39 0 7.824 7.824 0 0 1 -10.94 0 5.792 5.792 0 0 0 -4.19-1.77 1 1 0 0 1 0-2 7.106 7.106 0 0 1 3.63.9c1.37-3.25 6.02-8.09 21.37-8.81h8c15.35.72 20 5.56 21.37 8.81a7.106 7.106 0 0 1 3.63-.9 1 1 0 0 1 1 1z" fill="#f3d55b"/><path d="m60 55a1 1 0 0 1 -1 1 5.834 5.834 0 0 0 -4.2 1.77 7.824 7.824 0 0 1 -10.94 0 5.868 5.868 0 0 0 -8.4 0 7.824 7.824 0 0 1 -10.94 0 5.856 5.856 0 0 0 -8.39 0 7.824 7.824 0 0 1 -10.94 0 5.792 5.792 0 0 0 -4.19-1.77 1 1 0 0 1 0-2 7.106 7.106 0 0 1 3.63.9 11.438 11.438 0 0 1 1.84 1.33 5.856 5.856 0 0 0 8.39 0 7.824 7.824 0 0 1 10.94 0 5.856 5.856 0 0 0 8.39 0 7.824 7.824 0 0 1 10.94 0 5.868 5.868 0 0 0 8.4 0 11.438 11.438 0 0 1 1.84-1.33 7.106 7.106 0 0 1 3.63-.9 1 1 0 0 1 1 1z" fill="#2fa8cc"/><path d="m34 37v11a1 1 0 0 1 -1 1h-6a1 1 0 0 1 -1-1v-11z" fill="#a56a43"/><path d="m26 7v-5a1 1 0 0 1 1-1h6a1 1 0 0 1 1 1v5z" fill="#a56a43"/><rect fill="#cb8252" height="32" rx="1" width="50" x="5" y="6"/><g fill="#ecf0f1"><path d="m15 33a6.006 6.006 0 0 1 -6-6 1 1 0 0 1 2 0 4 4 0 1 0 4-4 6 6 0 1 1 6-6 1 1 0 0 1 -2 0 4 4 0 1 0 -4 4 6 6 0 0 1 0 12z"/><path d="m45 33a6.006 6.006 0 0 1 -6-6 1 1 0 0 1 2 0 4 4 0 1 0 4-4 6 6 0 1 1 6-6 1 1 0 0 1 -2 0 4 4 0 1 0 -4 4 6 6 0 0 1 0 12z"/><path d="m30 33a6.006 6.006 0 0 1 -6-6v-10a6 6 0 0 1 12 0v10a6.006 6.006 0 0 1 -6 6zm0-20a4 4 0 0 0 -4 4v10a4 4 0 0 0 8 0v-10a4 4 0 0 0 -4-4z"/></g></g></svg>