<?xml version="1.0" encoding="UTF-8"?>
<svg width="140px" height="200px" viewBox="0 0 140 200" version="1.1" xmlns="http://www.w3.org/2000/svg" xmlns:xlink="http://www.w3.org/1999/xlink">
    <!-- Generator: Sketch 55.2 (78181) - https://sketchapp.com -->
    <title>Group 6</title>
    <desc>Created with Sketch.</desc>
    <g id="Page-1" stroke="none" stroke-width="1" fill="none" fill-rule="evenodd">
        <g id="2105_m10_i006_n016" transform="translate(-26.000000, -235.000000)">
            <g id="Group-6" transform="translate(26.856073, 235.328438)">
                <path d="M88.0179271,148.142562 C86.7679271,147.816562 87.2989271,145.925562 88.5499271,146.213562 C89.2879271,146.383562 90.0339271,146.497562 90.7819271,146.604562 C90.7429271,143.718562 90.6709271,140.829562 90.5619271,137.938562 C88.3749271,137.741562 86.1969271,137.452562 84.0179271,137.142562 C83.1739271,137.022562 83.0449271,135.661562 83.7789271,135.314562 C85.8989271,134.311562 88.1219271,133.667562 90.3519271,133.017562 C88.2969271,91.5105624 80.3629271,49.5495624 84.4869271,7.75156239 C84.7579271,5.00756239 82.3989271,2.84656239 82.6049271,0.096562389 C80.0029271,-0.493437611 74.0769271,1.77556239 71.5609271,2.69656239 C71.3039271,5.88356239 74.4669271,8.90056239 74.2109271,12.0865624 C74.1869271,11.2675624 73.2469271,7.36056239 73.2229271,6.54056239 C70.9039271,7.44256239 64.7719271,12.0435624 62.4689271,11.0965624 C56.1609271,33.4575624 63.5909271,58.5205624 65.8929271,81.7805624 C66.7789271,82.0625624 67.6519271,82.4015624 68.5499271,82.7135624 C69.2919271,82.9725624 69.6259271,84.1425624 68.7889271,84.5415624 C67.9579271,84.9385624 67.0999271,85.2435624 66.2329271,85.5195624 C69.6099271,123.058562 67.7999271,160.906562 65.9719271,198.579562 L85.9839271,198.579562 C89.6939271,182.163562 90.9089271,165.620562 90.8079271,148.992562 C89.8849271,148.688562 88.9589271,148.388562 88.0179271,148.142562" id="Fill-499" fill="#A55100"></path>
                <path d="M84.5999271,148.310562 C83.3489271,147.984562 83.8809271,146.093562 85.1309271,146.381562 C85.8689271,146.551562 86.6159271,146.665562 87.3639271,146.771562 C87.3249271,143.886562 87.2519271,140.997562 87.1429271,138.107562 C84.9569271,137.909562 82.7789271,137.620562 80.5999271,137.310562 C79.7559271,137.189562 79.6269271,135.829562 80.3609271,135.482562 C82.4809271,134.479562 84.7029271,133.834562 86.9339271,133.185562 C84.8789271,91.6785624 76.9449271,49.7175624 81.0689271,7.91956239 C81.3399271,5.17556239 79.2219271,4.93756239 79.4289271,2.18656239 C76.8269271,1.59756239 74.0769271,1.77556239 71.5609271,2.69656239 C71.3039271,5.88356239 71.0489271,9.06956239 70.7929271,12.2545624 C70.7689271,11.4355624 70.7449271,10.6145624 70.7209271,9.79456239 C68.4019271,10.6965624 64.7219271,13.3455624 62.4189271,12.3985624 C56.1109271,34.7595624 60.1729271,58.6885624 62.4749271,81.9485624 C63.3609271,82.2305624 64.2329271,82.5685624 65.1309271,82.8815624 C65.8739271,83.1405624 66.2069271,84.3105624 65.3699271,84.7095624 C64.5399271,85.1065624 63.6819271,85.4115624 62.8149271,85.6875624 C66.1909271,123.226562 64.3809271,161.074562 62.5539271,198.747562 L82.5659271,198.747562 C86.2759271,182.331562 87.4909271,165.788562 87.3899271,149.160562 C86.4659271,148.856562 85.5409271,148.556562 84.5999271,148.310562" id="Fill-500" fill="#D58952"></path>
                <path d="M66.1809271,198.747562 C66.4079271,193.012562 66.7369271,187.281562 66.6189271,181.538562 C66.5579271,178.567562 66.5209271,175.660562 66.5389271,172.775562 C67.4509271,169.334562 70.1099271,165.985562 70.8129271,162.632562 C71.7729271,158.050562 72.6729271,153.354562 73.4059271,148.726562 C74.8839271,139.399562 72.4009271,130.400562 73.5579271,121.099562 C74.7419271,111.575562 77.2269271,102.979562 76.0029271,93.2755624 C74.9799271,85.1645624 70.5449271,76.5465624 72.6349271,68.3455624 C72.8329271,67.5655624 71.6279271,67.2335624 71.4299271,68.0135624 C69.6239271,75.0995624 72.6139271,82.0795624 74.0249271,88.9655624 C75.2869271,95.1185624 75.6369271,101.550562 74.6699271,107.775562 C73.9319271,112.525562 72.7289271,117.176562 72.1859271,121.963562 C71.6389271,126.788562 72.0549271,131.282562 72.6089271,136.060562 C73.3019271,142.029562 72.4029271,147.871562 71.1909271,153.726562 C70.1789271,158.617562 69.7309271,163.489562 67.4309271,167.968562 C67.1379271,168.538562 66.8559271,169.075562 66.5879271,169.603562 C66.7009271,164.854562 67.0139271,160.126562 67.7299271,155.249562 C68.5829271,149.441562 69.0899271,143.005562 66.4679271,137.538562 C65.9969271,136.554562 65.3409271,135.622562 64.7009271,134.679562 C64.6979271,135.403562 64.6899271,136.128562 64.6849271,136.854562 C66.2759271,139.613562 66.9349271,142.649562 67.1189271,145.797562 C67.4189271,150.925562 66.2209271,155.907562 65.5619271,160.954562 C65.0159271,165.144562 65.0169271,169.358562 65.1219271,173.570562 C64.9769271,174.427562 64.9409271,175.329562 65.0959271,176.345562 C65.1109271,176.443562 65.1429271,176.522562 65.1859271,176.586562 C65.3239271,183.995562 65.0419271,191.359562 64.8639271,198.747562 L66.1809271,198.747562" id="Fill-501" fill="#CD7433"></path>
                <path d="M61.6569271,54.8465624 C61.7329271,50.9165624 65.6279271,25.1115624 60.3979271,21.5905624 C60.3149271,22.0985624 60.2319271,22.6055624 60.1579271,23.1145624 C63.1339271,27.4705624 60.4689271,51.6125624 60.4069271,54.8465624 C60.3919271,55.6505624 61.6419271,55.6505624 61.6569271,54.8465624" id="Fill-502" fill="#CD7433"></path>
                <path d="M64.9109271,22.8175624 C66.3119271,25.0385624 65.7459271,27.6305624 66.1629271,30.0685624 C66.5239271,32.1845624 67.6159271,33.9005624 68.4929271,35.8275624 C68.6039271,36.0735624 68.8009271,36.1555624 68.9999271,36.1415624 C69.0109271,43.5715624 70.4199271,51.1505624 69.7489271,58.5225624 C69.1329271,65.2675624 66.2499271,72.4335624 68.1399271,79.2175624 C69.3659271,83.6165624 71.1389271,86.8565624 70.6539271,91.6675624 C70.2819271,95.3585624 67.9589271,98.0805624 66.8659271,101.462562 C66.4059271,98.8875624 67.6989271,96.7025624 67.6569271,94.1705624 C67.6179271,91.7425624 66.4359271,89.4845624 66.1609271,87.0905624 C65.8149271,84.0775624 66.6469271,81.1525624 66.6109271,78.1365624 C66.5749271,75.0745624 64.5929271,71.6165624 65.3019271,68.6785624 C65.4899271,67.8975624 64.2849271,67.5635624 64.0959271,68.3465624 C63.5219271,70.7255624 64.1969271,72.0375624 64.7939271,74.3585624 C65.5559271,77.3185624 65.1199271,80.0005624 64.8779271,82.7905624 L65.1309271,82.8815624 C65.8739271,83.1405624 66.2079271,84.3105624 65.3699271,84.7095624 C65.1679271,84.8065624 64.9589271,84.8835624 64.7539271,84.9705624 C64.7459271,85.4615624 64.7519271,85.9585624 64.7829271,86.4635624 C64.9729271,89.5645624 66.5219271,92.2935624 66.2289271,95.4415624 C65.9899271,98.0235624 65.0569271,99.7905624 65.7629271,102.345562 C65.8689271,102.729562 66.2189271,102.840562 66.5179271,102.762562 C65.7389271,106.546562 66.4369271,110.419562 66.2359271,114.235562 C66.1099271,116.624562 65.4329271,118.540562 64.6049271,120.382562 C64.6239271,121.449562 64.6349271,122.517562 64.6479271,123.584562 C65.3809271,122.311562 66.1299271,121.054562 66.5749271,119.784562 C69.0029271,112.848562 65.9059271,105.462562 69.3919271,98.6775624 C71.6119271,94.3575624 72.6739271,90.4645624 71.6649271,85.4865624 C71.0199271,82.3115624 69.1979271,79.5755624 68.8799271,76.3065624 C68.5159271,72.5675624 69.3219271,68.7695624 69.9859271,65.1085624 C71.1589271,58.6505624 71.2139271,52.4425624 70.8969271,45.8885624 C70.6839271,41.4495624 70.4179271,36.9305624 70.5549271,32.4875624 C70.6619271,29.0355624 72.4689271,26.1545624 72.6329271,22.8385624 C72.6729271,22.0285624 72.5479271,21.2445624 72.3229271,20.4785624 C72.4449271,17.5615624 73.1609271,14.6875624 72.9509271,11.7575624 C72.7389271,8.80056239 70.6279271,4.48856239 73.5969271,2.12656239 C72.9069271,2.26556239 72.2249271,2.45356239 71.5609271,2.69656239 C71.4119271,4.55056239 71.2629271,6.40456239 71.1139271,8.25856239 C71.3949271,10.0555624 71.7679271,11.7895624 71.7279271,13.6475624 C71.6939271,15.1745624 71.4699271,16.6485624 71.2879271,18.1275624 C69.9879271,15.9035624 67.9899271,13.8505624 66.3399271,11.8835624 C65.9059271,12.0675624 65.4739271,12.2265624 65.0519271,12.3495624 C66.6429271,14.3675624 68.4449271,16.2265624 69.8229271,18.4015624 C72.5059271,22.6415624 70.0309271,25.5565624 69.4039271,29.8455624 C69.2039271,31.2155624 69.0949271,32.5965624 69.0399271,33.9825624 C68.0289271,31.5895624 67.4049271,29.4565624 67.2169271,26.6835624 C67.1089271,25.0945624 66.8639271,23.5575624 65.9899271,22.1875624 C65.1259271,20.8335624 63.8079271,19.9885624 62.6539271,18.9175624 C62.1079271,18.4095624 61.6339271,17.8805624 61.2019271,17.3315624 C61.0859271,17.8715624 60.9719271,18.4115624 60.8659271,18.9525624 C62.2259271,20.2345624 63.9069271,21.2285624 64.9109271,22.8175624" id="Fill-503" fill="#CD7433"></path>
                <path d="M79.2169271,137.646562 C79.5369271,135.417562 81.4239271,125.988562 84.5329271,126.448562 C85.3199271,126.564562 85.6589271,125.360562 84.8649271,125.243562 C79.4389271,124.441562 77.2629271,137.771562 77.8709271,141.474562 C78.2179271,143.587562 79.2219271,145.358562 80.4259271,147.030562 C79.4859271,150.567562 81.4539271,154.375562 81.2579271,158.101562 C80.9799271,163.387562 77.9389271,167.734562 77.2309271,172.880562 C76.6159271,177.346562 77.7999271,182.006562 78.1849271,186.457562 C78.5379271,190.524562 78.5079271,194.643562 78.4559271,198.747562 L79.7079271,198.747562 C79.7559271,194.932562 79.7879271,191.105562 79.5129271,187.321562 C79.1229271,181.949562 77.5239271,176.319562 78.8899271,170.990562 C79.8399271,167.284562 81.8409271,163.966562 82.3389271,160.123562 C82.6049271,158.067562 82.6079271,155.911562 82.3979271,153.846562 C82.2179271,152.081562 81.4319271,150.232562 81.4909271,148.440562 C83.0819271,150.468562 84.7789271,152.454562 85.7449271,154.850562 C85.2289271,158.512562 86.0989271,162.144562 84.8869271,165.738562 C83.7129271,169.220562 81.5409271,172.106562 80.8739271,175.792562 C79.9229271,181.037562 82.6079271,185.221562 84.3589271,189.711562 C84.4919271,188.942562 84.6149271,188.173562 84.7379271,187.403562 C83.0119271,183.362562 81.1349271,179.428562 82.4589271,174.489562 C83.3849271,171.037562 85.7259271,168.113562 86.5509271,164.629562 C86.8269271,163.465562 86.8889271,162.290562 86.8829271,161.111562 C86.9619271,162.602562 86.9729271,164.105562 87.0129271,165.600562 C87.1859271,162.402562 87.2969271,159.200562 87.3519271,155.996562 C86.8909271,154.068562 86.1449271,152.215562 84.8969271,150.455562 C81.8769271,146.196562 78.3899271,143.410562 79.2169271,137.646562" id="Fill-504" fill="#CD7433"></path>
                <path d="M86.3859271,174.245562 C86.4869271,173.156562 86.5799271,172.067562 86.6649271,170.978562 C85.9429271,173.379562 83.7209271,175.116562 83.5049271,177.696562 C83.3369271,179.696562 84.3529271,181.611562 85.3469271,183.334562 C85.4469271,182.610562 85.5369271,181.886562 85.6279271,181.161562 C84.8069271,179.378562 84.4469271,177.561562 85.5809271,175.553562 C85.8389271,175.094562 86.1139271,174.667562 86.3859271,174.245562" id="Fill-505" fill="#CD7433"></path>
                <path d="M77.9039271,151.203562 C79.1679271,152.776562 78.8519271,156.202562 78.7269271,157.876562 C78.5789271,159.869562 78.3269271,162.726562 77.0239271,164.460562 C74.7219271,161.427562 76.6539271,154.975562 77.9039271,151.203562 M75.2279271,188.969562 C73.5009271,183.732562 72.9159271,178.354562 73.3239271,172.846562 C73.3369271,172.665562 73.2779271,172.531562 73.1879271,172.433562 C73.7309271,170.190562 74.1899271,167.919562 74.4309271,165.553562 C74.5699271,164.186562 74.6739271,162.816562 74.7599271,161.446562 C74.8929271,163.216562 75.4189271,164.784562 76.5909271,165.860562 C76.8439271,166.093562 77.2229271,166.103562 77.4759271,165.860562 C79.5959271,163.822562 79.8929271,159.960562 80.0169271,157.202562 C80.1139271,155.017562 80.2129271,151.493562 78.3149271,149.903562 C78.4209271,149.222562 77.3369271,148.958562 77.0959271,149.679562 C76.4379271,151.653562 75.4009271,154.719562 74.9489271,157.749562 C75.1049271,153.719562 75.1339271,149.683562 75.2419271,145.653562 C75.4049271,139.529562 76.0809271,133.415562 74.9679271,127.346562 C74.8229271,126.556562 73.6189271,126.891562 73.7629271,127.678562 C75.0079271,134.468562 74.0769271,141.504562 73.9289271,148.358562 C73.7689271,155.807562 73.7999271,163.350562 72.4879271,170.709562 C71.5199271,176.137562 68.9629271,181.281562 68.7279271,186.833562 C68.5609271,190.767562 69.3109271,194.815562 70.2289271,198.747562 L71.5169271,198.747562 C70.3089271,193.550562 69.4029271,188.152562 70.5109271,182.975562 C70.9299271,181.020562 71.4329271,179.116562 71.9419271,177.223562 C71.9879271,180.952562 72.4679271,184.712562 73.6029271,188.225562 C74.7259271,191.700562 74.7389271,195.238562 74.9429271,198.747562 L76.3219271,198.747562 C76.2129271,195.468562 76.2829271,192.164562 75.2279271,188.969562" id="Fill-506" fill="#CD7433"></path>
                <path d="M76.4029271,1.84856239 C76.3779271,8.10056239 75.8409271,13.7925624 74.9309271,19.9975624 C74.1409271,25.3845624 76.4729271,29.6955624 76.8519271,34.9835624 C77.1429271,39.0265624 74.7039271,49.7185624 80.3769271,51.3315624 C80.3539271,50.8685624 80.3339271,50.4055624 80.3119271,49.9425624 C77.4449271,48.5415624 77.9749271,43.3395624 78.0649271,40.7025624 C78.2079271,36.5005624 78.0599271,32.7385624 76.9059271,28.6855624 C75.3969271,23.3845624 76.5989271,19.1115624 77.3559271,13.8375624 C77.9249271,9.87656239 77.6819271,5.89556239 77.6609271,1.91156239 C77.2429271,1.87256239 76.8229271,1.84956239 76.4029271,1.84856239" id="Fill-507" fill="#CD7433"></path>
                <path d="M65.0779271,18.0445624 C65.8659271,18.6895624 66.7199271,19.2205624 67.0149271,19.3665624 C67.4799271,19.5985624 68.0989271,19.2135624 67.9329271,18.6605624 C67.3959271,16.8775624 66.2209271,15.4935624 64.7929271,14.3395624 C64.3989271,14.0215624 63.9389271,14.1605624 63.7479271,14.6145624 C63.5699271,15.0385624 63.5289271,15.4445624 63.5769271,15.8305624 C63.4599271,16.2655624 63.7939271,16.8065624 64.3049271,17.3385624 C64.5319271,17.5995624 64.7909271,17.8375624 65.0779271,18.0445624" id="Fill-508" fill="#CD7433"></path>
                <path d="M84.1679271,140.570562 C83.8219271,139.611562 83.7069271,138.671562 83.7109271,137.730562 C83.2949271,137.677562 82.8799271,137.617562 82.4649271,137.562562 C82.4269271,141.665562 84.9999271,144.045562 87.3629271,146.723562 C87.3559271,146.220562 87.3329271,145.717562 87.3249271,145.215562 C86.0339271,143.817562 84.8219271,142.378562 84.1679271,140.570562" id="Fill-509" fill="#CD7433"></path>
                <path d="M84.5329271,128.243562 C83.2699271,128.673562 82.8009271,131.997562 82.6049271,134.562562 C83.1069271,134.377562 83.6119271,134.201562 84.1199271,134.038562 L84.1339271,133.952562 C84.1789271,133.667562 84.7559271,129.485562 84.8649271,129.448562 C85.6229271,129.190562 85.2969271,127.983562 84.5329271,128.243562" id="Fill-510" fill="#CD7433"></path>
                <path d="M79.5899271,30.6205624 C79.6919271,30.7065624 79.8019271,30.7415624 79.9109271,30.7585624 C79.9149271,30.2415624 79.9229271,29.7265624 79.9299271,29.2095624 C77.3239271,26.3115624 78.6499271,21.2525624 79.3899271,17.8415624 C79.9299271,15.3555624 80.1379271,12.5365624 80.8839271,9.98056239 C80.9449271,9.29256239 81.0009271,8.60656239 81.0689271,7.91956239 C81.1229271,7.37256239 81.0799271,6.92856239 80.9809271,6.54056239 C78.8509271,10.2525624 78.5279271,15.2715624 77.7309271,19.2975624 C77.0149271,22.9165624 76.4349271,27.9865624 79.5899271,30.6205624" id="Fill-511" fill="#CD7433"></path>
                <path d="M80.6349271,78.3455624 C80.9049271,77.5855624 79.6969271,77.2595624 79.4299271,78.0135624 C78.9659271,79.3185624 78.7959271,80.5565624 78.8419271,81.7425624 C78.3019271,80.4405624 77.8269271,79.1225624 77.6999271,77.6625624 C77.4549271,74.8625624 78.1839271,71.9805624 78.3239271,69.1795624 C78.3639271,68.3755624 77.1139271,68.3775624 77.0739271,69.1795624 C76.8319271,74.0405624 75.9449271,77.8185624 77.7429271,82.4465624 C79.9569271,88.1465624 80.2459271,93.7615624 81.4299271,99.6785624 C81.5869271,100.466562 82.7919271,100.133562 82.6349271,99.3465624 C81.8859271,95.6015624 81.7519271,91.7495624 80.9679271,88.0275624 C81.7249271,89.3115624 82.6059271,90.5675624 83.4929271,91.8275624 L83.6219271,91.9505624 C83.5439271,91.1385624 83.4669271,90.3245624 83.3899271,89.5115624 C81.0539271,86.1315624 79.0969271,82.6775624 80.6349271,78.3455624" id="Fill-512" fill="#CD7433"></path>
                <path d="M71.6499271,11.3935624 C72.3179271,9.16356239 71.6659271,7.11356239 72.0549271,4.93356239 C72.3489271,3.29156239 72.0159271,3.61656239 73.8849271,3.38156239 C75.4249271,3.18756239 77.0429271,3.23356239 78.6009271,3.22256239 C79.2519271,4.59356239 79.7719271,5.95356239 80.9239271,7.03756239 L81.0759271,7.13256239 C80.9139271,5.10256239 79.2439271,4.64656239 79.4289271,2.18656239 C79.0619271,2.10356239 78.6909271,2.03956239 78.3189271,1.98656239 C76.6849271,2.01656239 75.0519271,2.08456239 73.4189271,2.16256239 C72.7899271,2.29756239 72.1679271,2.47456239 71.5609271,2.69656239 C71.3169271,5.72356239 71.0749271,8.74956239 70.8319271,11.7755624 C71.1369271,11.9155624 71.5189271,11.8295624 71.6499271,11.3935624" id="Fill-513" fill="#E3AF8A"></path>
                <path d="M70.4159271,11.1905624 C70.4539271,11.4685624 70.5989271,11.6505624 70.7779271,11.7515624 C70.7589271,11.0995624 70.7399271,10.4465624 70.7209271,9.79456239 C68.4019271,10.6965624 64.7219271,13.3455624 62.4189271,12.3985624 C62.3289271,12.7175624 62.2479271,13.0375624 62.1619271,13.3585624 C65.0149271,13.0075624 67.6539271,12.0135624 70.4159271,11.1905624" id="Fill-514" fill="#E3AF8A"></path>
                <path d="M79.7409271,29.3465624 C79.7349271,29.5465624 79.8089271,29.6965624 79.9229271,29.7975624 C79.9989271,22.8725624 80.3219271,15.9485624 80.9689271,9.02956239 C79.5699271,15.6905624 79.9259271,22.5615624 79.7409271,29.3465624" id="Fill-515" fill="#E3AF8A"></path>
                <path d="M64.7009271,133.941562 C64.7069271,132.047562 64.7079271,130.153562 64.6979271,128.261562 C64.6989271,128.261562 64.6989271,128.261562 64.6989271,128.261562 C64.7089271,130.154562 64.7109271,132.047562 64.7049271,133.941562 C64.7039271,133.941562 64.7019271,133.941562 64.7009271,133.941562" id="Fill-516" fill="#F0D5C1"></path>
                <path d="M64.7049271,133.941562 C64.7109271,132.047562 64.7089271,130.154562 64.6989271,128.261562 C65.7639271,128.000562 66.7989271,127.726562 67.7159271,127.591562 C69.1189271,127.385562 70.5229271,127.263562 71.9319271,127.188562 C71.9539271,129.231562 72.1029271,131.255562 72.3079271,133.310562 C69.7779271,133.566562 67.2449271,133.796562 64.7049271,133.941562 M73.4929271,133.188562 C73.3669271,131.173562 73.2559271,129.156562 73.2409271,127.132562 C73.4709271,127.124562 73.7009271,127.117562 73.9299271,127.111562 C73.7969271,127.248562 73.7199271,127.443562 73.7629271,127.678562 C74.0919271,129.470562 74.2689271,131.280562 74.3489271,133.099562 C74.0629271,133.129562 73.7779271,133.159562 73.4929271,133.188562" id="Fill-517" fill="#C8723E"></path>
                <path d="M72.3079271,133.310562 C72.1029271,131.255562 71.9539271,129.231562 71.9319271,127.188562 C72.3679271,127.165562 72.8039271,127.147562 73.2409271,127.132562 C73.2559271,129.156562 73.3669271,131.173562 73.4929271,133.188562 C73.0979271,133.229562 72.7029271,133.270562 72.3079271,133.310562" id="Fill-518" fill="#C16127"></path>
                <path d="M75.5549271,132.972562 C75.4849271,131.093562 75.3109271,129.217562 74.9679271,127.346562 C74.9489271,127.242562 74.9119271,127.158562 74.8619271,127.092562 C77.0219271,127.051562 79.1839271,127.017562 81.3449271,126.986562 C80.2489271,128.385562 79.4139271,130.456562 78.8269271,132.630562 C77.7359271,132.741562 76.6459271,132.856562 75.5549271,132.972562 M80.3689271,132.477562 C81.0249271,130.242562 81.9389271,127.966562 83.0829271,126.963562 C84.2479271,126.947562 85.4129271,126.933562 86.5779271,126.920562 C86.6839271,128.604562 86.7809271,130.286562 86.8689271,131.969562 C86.0439271,132.013562 85.2209271,132.067562 84.3979271,132.129562 C84.5809271,130.887562 84.8019271,129.470562 84.8649271,129.448562 C85.5499271,129.215562 85.3499271,128.207562 84.7409271,128.207562 C84.6759271,128.207562 84.6059271,128.218562 84.5329271,128.243562 C83.6319271,128.550562 83.1359271,130.327562 82.8539271,132.251562 C82.0259271,132.321562 81.1969271,132.397562 80.3689271,132.477562" id="Fill-519" fill="#C8723E"></path>
                <path d="M78.8269271,132.630562 C79.4139271,130.456562 80.2489271,128.385562 81.3449271,126.986562 C81.9239271,126.978562 82.5029271,126.970562 83.0829271,126.963562 C81.9389271,127.966562 81.0249271,130.242562 80.3689271,132.477562 C79.8549271,132.527562 79.3409271,132.578562 78.8269271,132.630562" id="Fill-520" fill="#C16127"></path>
                <path d="M74.3489271,133.099562 C74.2689271,131.280562 74.0919271,129.470562 73.7629271,127.678562 C73.7199271,127.443562 73.7969271,127.248562 73.9299271,127.111562 C74.1679271,127.105562 74.4059271,127.100562 74.6439271,127.096562 C74.7169271,127.094562 74.7889271,127.093562 74.8619271,127.092562 C74.9119271,127.158562 74.9489271,127.242562 74.9679271,127.346562 C75.3109271,129.217562 75.4849271,131.093562 75.5549271,132.972562 C75.1529271,133.014562 74.7509271,133.057562 74.3489271,133.099562" id="Fill-521" fill="#C16127"></path>
                <path d="M82.8539271,132.251562 C83.1359271,130.327562 83.6319271,128.550562 84.5329271,128.243562 C84.6059271,128.218562 84.6759271,128.207562 84.7409271,128.207562 C85.3499271,128.207562 85.5499271,129.215562 84.8649271,129.448562 C84.8019271,129.470562 84.5809271,130.887562 84.3979271,132.129562 C83.8829271,132.167562 83.3679271,132.208562 82.8539271,132.251562" id="Fill-522" fill="#C16127"></path>
                <path d="M69.3399271,76.4135624 C67.9939271,76.4375624 66.5459271,76.4365624 65.0889271,76.5175624 C64.0049271,76.4575624 62.9329271,76.3345624 61.8719271,76.1485624 C62.0799271,78.0845624 62.2839271,80.0195624 62.4749271,81.9485624 C63.3609271,82.2305624 64.2329271,82.5685624 65.1309271,82.8815624 C65.8739271,83.1405624 66.2079271,84.3105624 65.3699271,84.7095624 C64.5399271,85.1065624 63.6819271,85.4115624 62.8149271,85.6875624 C63.1239271,89.1185624 63.3749271,92.5545624 63.6019271,95.9905624 C65.5619271,95.7645624 67.5059271,95.2815624 69.1789271,94.8825624 C74.0139271,93.7295624 78.7449271,92.5265624 83.5889271,91.6095624 C83.0599271,86.0505624 82.5309271,80.4865624 82.0459271,74.9205624 C78.4749271,75.3835624 74.8509271,76.0185624 71.2699271,76.3515624 C70.6279271,76.3775624 69.9849271,76.4025624 69.3399271,76.4135624" id="Fill-523" fill="#CD7433"></path>
                <path d="M59.1659271,33.9555624 C59.0839271,35.9135624 59.0489271,37.8795624 59.0529271,39.8495624 C61.7619271,39.1705624 64.4549271,38.4025624 67.2059271,37.8235624 C67.7359271,37.7115624 68.2649271,37.5855624 68.7929271,37.4545624 C68.9179271,37.4365624 69.0459271,37.4145624 69.1689271,37.3975624 C72.8179271,36.8935624 76.3279271,35.4995624 79.9049271,34.6145624 C79.8949271,32.3955624 79.9069271,30.1765624 79.9449271,27.9575624 C76.8839271,28.4245624 73.7569271,30.1405624 71.1529271,31.2155624 C70.6119271,31.4395624 70.0689271,31.6345624 69.5249271,31.8175624 C68.9039271,32.0065624 68.2829271,32.1955624 67.6609271,32.3885624 C67.0929271,32.5415624 66.5199271,32.6765624 65.9459271,32.8055624 C64.9729271,32.9175624 63.9999271,33.0265624 63.0319271,33.1525624 C61.9279271,33.2955624 60.5449271,33.6725624 59.1659271,33.9555624" id="Fill-524" fill="#CD7433"></path>
                <path d="M94.6509271,73.4945624 C94.3809271,73.5695624 94.3189271,72.9095624 94.6059271,72.8445624 C100.837927,71.4235624 107.106927,69.9975624 113.451927,68.9395624 C113.302927,66.6535624 113.152927,64.3725624 113.003927,62.0945624 C110.093927,62.0805624 107.181927,61.9535624 104.275927,62.1165624 C103.937927,62.1355624 103.836927,61.5675624 104.150927,61.4375624 C106.940927,60.2865624 109.839927,59.3535624 112.789927,58.8225624 C112.484927,54.1815624 112.180927,49.5555624 111.875927,44.9435624 C107.798927,45.2195624 103.721927,45.4545624 99.6519271,45.1815624 C99.3629271,45.1625624 99.3279271,44.6165624 99.6059271,44.5245624 C103.596927,43.1965624 107.558927,41.6885624 111.573927,40.3725624 C111.402927,37.7935624 111.231927,35.2185624 111.060927,32.6495624 C83.0239271,37.4225624 54.9869271,41.4685624 26.9489271,44.7845624 C26.9489271,45.0435624 6.33292705,55.2105624 0.0199270513,58.5085624 C0.0199270513,58.5075624 0.195927051,61.6165624 0.356927051,61.6145624 C9.49792705,65.8485624 18.6399271,70.7115624 27.7809271,76.2055624 C56.5429271,77.5925624 85.3049271,78.3175624 114.066927,78.3825624 C113.923927,76.1835624 113.780927,73.9855624 113.637927,71.7925624 C107.276927,72.3015624 100.075927,71.9665624 94.6509271,73.4945624" id="Fill-525" fill="#A55100"></path>
                <path d="M113.706927,72.8575624 C108.126927,72.9795624 102.578927,73.1105624 96.9889271,72.9665624 C96.1809271,73.1135624 95.3979271,73.2855624 94.6509271,73.4945624 C94.4079271,73.5625624 94.3349271,73.0375624 94.5329271,72.8835624 C94.2099271,72.8705624 93.8869271,72.8625624 93.5629271,72.8475624 C85.8609271,72.4865624 78.1709271,72.4955624 70.4909271,72.5235624 C56.2839271,72.5855624 42.0859271,72.7035624 27.8889271,72.2145624 L27.8139271,72.2175624 C27.7799271,71.8405624 27.7229271,71.4695624 27.6029271,71.1185624 C27.5019271,70.8255624 27.0929271,70.7965624 26.8779271,70.9485624 C26.5949271,71.1505624 26.4329271,71.4375624 26.3349271,71.7585624 C25.5859271,71.3295624 24.7489271,70.9845624 24.0299271,70.6585624 C21.1459271,69.3575624 18.6819271,67.6645624 16.1449271,66.0335624 C13.9379271,64.6135624 11.7619271,63.3465624 9.29392705,62.3265624 C6.24492705,61.0705624 3.18592705,60.0005624 0.533927051,58.3695624 L0.376927051,58.3075624 C0.256927051,58.3745624 0.130927051,58.4435624 0.0199270513,58.5085624 C0.0199270513,58.5085624 0.0359270513,58.7985624 0.0629270513,59.1995624 C3.82892705,62.3085624 9.37192705,63.9425624 13.8109271,66.8145624 C17.8849271,69.4595624 22.0119271,71.8595624 26.3999271,74.3405624 C26.4429271,74.6755624 26.4779271,75.0585624 26.5249271,75.4545624 C26.9429271,75.7035624 27.3619271,75.9535624 27.7809271,76.2055624 C27.9939271,76.2155624 28.2079271,76.2265624 28.4209271,76.2355624 C28.3029271,75.7075624 28.1259271,75.1775624 28.0229271,74.7165624 C28.2089271,74.5805624 28.3289271,74.3685624 28.3449271,74.1395624 C33.5289271,76.1465624 40.2229271,75.2695624 45.4639271,75.3775624 C53.5059271,75.5875624 61.5439271,75.6915624 69.5839271,75.7635624 C84.3719271,75.8665624 99.1839271,76.9645624 113.956927,76.6785624 C113.872927,75.4035624 113.789927,74.1305624 113.706927,72.8575624" id="Fill-526" fill="#914000"></path>
                <path d="M102.296927,66.2765624 C99.8009271,66.7925624 97.3179271,67.3705624 94.8489271,67.9675624 C93.8189271,68.2155624 94.2619271,69.9295624 95.2269271,69.9645624 C96.0389271,69.9915624 96.7889271,69.8745624 97.5249271,69.7035624 C99.6139271,69.7235624 101.685927,69.1835624 103.747927,68.4445624 C104.586927,68.3545624 105.427927,68.2655624 106.260927,68.1215624 C108.598927,67.7205624 110.955927,67.0645624 113.284927,66.3855624 C113.209927,65.2345624 113.133927,64.0835624 113.058927,62.9345624 C109.387927,63.5795624 105.842927,64.9665624 102.296927,66.2765624" id="Fill-527" fill="#914000"></path>
                <path d="M106.138927,35.1845624 C103.966927,36.1765624 101.953927,37.4995624 99.7139271,38.0545624 C99.3259271,38.1305624 98.9389271,38.2095624 98.5499271,38.2735624 C97.2939271,38.4805624 97.4499271,40.6165624 98.7039271,40.4975624 C98.9839271,40.4705624 99.2599271,40.4285624 99.5329271,40.3785624 C99.4099271,40.7545624 99.5829271,41.2125624 100.054927,41.1865624 C102.438927,41.0535624 104.669927,40.1855624 106.999927,39.5725624 C108.521927,39.1725624 109.984927,38.8205624 111.431927,38.2325624 C111.323927,36.6075624 111.216927,34.9845624 111.108927,33.3635624 C109.413927,33.8075624 107.709927,34.4685624 106.138927,35.1845624" id="Fill-528" fill="#914000"></path>
                <path d="M108.052927,53.5945624 C105.642927,54.3085624 103.046927,54.9795624 100.851927,56.3235624 C100.524927,56.5235624 100.604927,56.9125624 100.817927,57.1475624 L100.696927,57.2235624 C100.291927,57.5075624 100.492927,58.1745624 100.893927,58.3035624 C102.651927,58.8705624 104.570927,57.9095624 106.261927,57.3315624 C106.480927,57.2575624 106.697927,57.1835624 106.915927,57.1105624 C108.808927,56.9915624 110.756927,56.2545624 112.594927,55.8535624 C112.522927,54.7715624 112.451927,53.6885624 112.380927,52.6075624 C110.925927,52.7345624 109.478927,53.1725624 108.052927,53.5945624" id="Fill-529" fill="#914000"></path>
                <path d="M94.3139271,68.6715624 C94.0339271,68.6095624 93.9809271,68.0935624 94.2689271,68.0235624 C100.500927,66.4915624 106.769927,64.9545624 113.114927,63.7825624 C112.964927,61.5035624 112.815927,59.2275624 112.666927,56.9545624 C109.756927,56.9935624 106.843927,56.9195624 103.938927,57.1345624 C103.600927,57.1595624 103.499927,56.5935624 103.813927,56.4585624 C106.603927,55.2585624 109.502927,54.2745624 112.452927,53.6915624 C112.147927,49.0605624 111.842927,44.4445624 111.538927,39.8455624 C107.461927,40.1925624 103.384927,40.5035624 99.3139271,40.3045624 C99.0259271,40.2895624 98.9909271,39.7455624 99.2689271,39.6485624 C103.259927,38.2505624 107.221927,36.6705624 111.236927,35.2845624 C111.065927,32.7115624 110.894927,30.1435624 110.724927,27.5795624 C82.6869271,32.8585624 54.6489271,37.4065624 26.6119271,41.2275624 C26.6119271,41.9545624 -0.843072949,59.2545624 0.0199270513,58.5085624 C9.16092705,62.5685624 18.3019271,67.2595624 27.4439271,72.5805624 C56.2059271,73.4485624 84.9679271,73.6565624 113.729927,73.2045624 C113.633927,71.7265624 113.536927,70.2485624 113.440927,68.7735624 C107.079927,69.3735624 100.685927,70.1225624 94.3139271,68.6715624" id="Fill-530" fill="#D58952"></path>
                <path d="M21.3979271,68.5575624 C25.1209271,68.0815624 28.8589271,67.9235624 32.6549271,67.7915624 C35.0079271,67.7095624 37.3369271,67.4525624 39.6959271,67.3845624 C41.1149271,67.3435624 42.5429271,67.3405624 43.9689271,67.5135624 C45.2419271,67.6675624 47.7129271,67.8485624 46.6199271,69.3105624 C45.2659271,71.1125624 41.4009271,71.2915624 39.2359271,71.4035624 C36.9589271,71.5235624 34.6599271,71.4145624 32.3649271,71.3335624 C29.9719271,71.2465624 27.4989271,71.1565624 25.0529271,71.2025624 C25.4209271,71.4135624 25.7899271,71.6245624 26.1579271,71.8365624 C29.4869271,71.8425624 32.8689271,72.0675624 36.1839271,72.1175624 C40.0979271,72.1715624 46.1659271,72.3435624 48.0229271,68.5785624 C48.0859271,68.4505624 48.0639271,68.2545624 47.9289271,68.1555624 C44.2399271,65.4785624 38.0629271,66.8335624 33.9869271,67.0675624 C30.4309271,67.2915624 26.8949271,67.3535624 23.3749271,67.7625624 C22.1889271,67.9005624 21.0169271,68.0995624 19.8459271,68.3035624 C19.9509271,68.3595624 20.0559271,68.4175624 20.1609271,68.4745624 C20.2859271,68.5435624 20.4119271,68.6115624 20.5369271,68.6805624 C20.8239271,68.6375624 21.1099271,68.5935624 21.3979271,68.5575624" id="Fill-531" fill="#CD7433"></path>
                <path d="M46.8139271,38.3485624 C45.9169271,38.4825624 45.0189271,38.6145624 44.1219271,38.7465624 C40.9609271,39.9925624 37.9669271,40.3305624 34.7409271,40.0995624 C33.9829271,40.2065624 33.2259271,40.3135624 32.4689271,40.4185624 C37.2739271,41.3855624 42.3999271,41.0935624 46.8139271,38.3485624" id="Fill-532" fill="#CD7433"></path>
                <path d="M38.5919271,42.6195624 C36.1929271,42.9295624 33.8079271,42.6895624 31.4469271,42.5285624 C29.6249271,42.4055624 27.3089271,42.4975624 25.2649271,42.1925624 C25.0939271,42.3155624 24.9039271,42.4505624 24.7049271,42.5915624 L24.6409271,42.6375624 C26.0439271,42.9115624 27.5809271,42.9615624 28.9799271,43.0485624 C33.4029271,43.3145624 37.5619271,44.0055624 41.9889271,42.7055624 C43.0289271,42.3995624 44.0539271,42.0445624 45.0729271,41.6715624 C50.8639271,41.5275624 56.5519271,39.7935624 61.9659271,37.4525624 C63.6779271,36.7145624 65.3789271,35.9285624 67.1039271,35.2025624 C66.2449271,35.3415624 65.3869271,35.4805624 64.5279271,35.6165624 C64.1209271,35.7995624 63.7139271,35.9815624 63.3079271,36.1635624 C57.6839271,38.6805624 52.0919271,40.3725624 46.1649271,41.2675624 C50.0439271,39.7795624 53.8399271,37.9645624 57.8309271,36.6745624 C56.3559271,36.9015624 54.8649271,37.1315624 53.3739271,37.3595624 C50.9219271,38.3495624 48.5039271,39.4175624 46.0609271,40.3715624 C43.6419271,41.3185624 41.1649271,42.2875624 38.5919271,42.6195624" id="Fill-533" fill="#CD7433"></path>
                <path d="M15.6339271,62.5005624 C15.3839271,61.7455624 13.4289271,61.8365624 12.7659271,61.8225624 C11.0909271,61.7885624 9.39592705,61.9165624 7.72392705,62.0795624 C7.97192705,62.1995624 8.21892705,62.3195624 8.46692705,62.4405624 C10.1119271,62.3395624 11.7529271,62.1835624 13.4189271,62.2905624 C14.1589271,62.3385624 15.3939271,62.4585624 14.5279271,63.0205624 C14.1199271,63.2825624 13.3949271,63.3845624 12.8769271,63.4845624 C12.2809271,63.5985624 11.6739271,63.6675624 11.0629271,63.7205624 C11.3289271,63.8545624 11.5959271,63.9875624 11.8629271,64.1215624 C13.9449271,63.9595624 15.9699271,63.5195624 15.6339271,62.5005624" id="Fill-534" fill="#CD7433"></path>
                <path d="M20.4849271,63.4505624 C21.1799271,63.2475624 25.2419271,62.4735624 24.6599271,61.2305624 C24.2499271,60.3625624 20.6489271,60.6205624 19.9399271,60.6305624 C14.7339271,60.7245624 9.58692705,60.8945624 4.37092705,60.4885624 C4.58592705,60.5895624 4.80292705,60.6915624 5.01892705,60.7925624 C10.7559271,61.3675624 16.3789271,60.7575624 22.1089271,61.1245624 C22.7009271,61.1645624 23.3559271,61.0965624 23.6779271,61.5125624 C24.1189271,62.0845624 21.9429271,62.4685624 21.3129271,62.6775624 C19.6269271,63.2435624 17.8749271,63.7315624 16.0879271,64.0485624 C14.9159271,64.2555624 13.6939271,64.3395624 12.4759271,64.4325624 C12.6699271,64.5295624 12.8629271,64.6285624 13.0569271,64.7275624 C15.5609271,64.4295624 18.0979271,64.1735624 20.4849271,63.4505624" id="Fill-535" fill="#CD7433"></path>
                <path d="M86.5399271,71.6385624 C80.2239271,71.8125624 73.9229271,71.4265624 67.5919271,70.6455624 C64.7729271,70.2955624 61.9109271,69.6515624 59.0849271,69.5415624 C57.1639271,69.4705624 54.8039271,70.4855624 52.8429271,70.3195624 C54.0629271,69.5365624 54.6129271,68.5995624 54.0139271,67.5355624 C53.2159271,66.1205624 50.6489271,65.9385624 49.2909271,65.7975624 C46.3909271,65.4995624 43.3459271,65.4785624 40.4509271,65.4935624 C35.6319271,65.5235624 30.7309271,65.8505624 25.9659271,66.2285624 C23.1899271,66.4485624 20.4549271,66.8205624 17.7159271,67.1565624 C17.8319271,67.2185624 17.9479271,67.2805624 18.0639271,67.3425624 C18.2439271,67.4385624 18.4229271,67.5335624 18.6019271,67.6305624 C19.4719271,67.5185624 20.3409271,67.3975624 21.2089271,67.2795624 C25.3439271,66.7195624 29.5189271,66.5885624 33.7339271,66.3785624 C39.1169271,66.1185624 45.3569271,65.6135624 50.7989271,66.7565624 C51.9559271,66.9985624 53.8479271,67.5655624 53.2089271,68.8905624 C52.9149271,69.4955624 51.8379271,69.8825624 51.2389271,70.1425624 C49.4169271,70.9325624 47.4069271,71.3665624 45.4349271,71.7485624 C42.8849271,72.2415624 40.2529271,72.6475624 37.6129271,72.8595624 C39.4549271,72.9055624 41.2979271,72.9485624 43.1399271,72.9885624 C46.3819271,72.5695624 49.8279271,71.8525624 52.0099271,70.7885624 C53.4679271,71.2095624 54.9069271,70.6355624 56.3129271,70.4065624 C59.7459271,69.8475624 63.4639271,70.8575624 66.9399271,71.3325624 C73.1259271,72.1655624 79.2959271,72.6565624 85.4779271,72.5745624 C91.8639271,72.4935624 98.2149271,71.9555624 104.597927,71.7425624 C107.605927,71.6445624 110.621927,71.7125624 113.637927,71.7925624 C113.612927,71.4155624 113.588927,71.0395624 113.563927,70.6635624 C110.918927,70.6095624 108.273927,70.5705624 105.633927,70.6565624 C99.2559271,70.8695624 92.9149271,71.4655624 86.5399271,71.6385624" id="Fill-536" fill="#CD7433"></path>
                <path d="M85.6249271,35.0675624 C87.4109271,33.9235624 89.1119271,32.5515624 90.8259271,31.2025624 C90.2779271,31.2995624 89.7299271,31.3955624 89.1829271,31.4905624 C87.0349271,33.1175624 84.8759271,34.6745624 82.5649271,35.8835624 C77.7879271,37.1615624 73.0209271,38.4225624 68.2569271,39.5215624 C65.1139271,40.2465624 61.9989271,41.1055624 58.8899271,41.9535624 C57.7349271,42.1455624 56.6409271,42.4555624 55.5889271,42.8445624 C48.4309271,44.7575624 41.2679271,46.3165624 33.8409271,46.2755624 C29.5429271,46.2555624 25.4789271,45.3995624 21.3359271,44.9475624 L21.1839271,45.0525624 C20.9509271,45.2125624 20.7129271,45.3765624 20.4709271,45.5415624 L20.3269271,45.6405624 C24.8509271,46.1345624 29.1579271,47.0875624 33.8529271,47.1385624 C34.8629271,47.1485624 35.8669271,47.1265624 36.8679271,47.0825624 C33.1939271,47.5135624 29.5809271,47.9265624 26.0129271,48.9005624 C21.6009271,50.1375624 14.9639271,52.8315624 9.40892705,52.7455624 C9.12992705,52.9185624 8.85392705,53.0895624 8.58092705,53.2585624 C12.7549271,53.4845624 17.5959271,52.0705624 21.0089271,51.0665624 C26.0259271,49.6085624 30.7909271,48.4705624 36.0689271,47.8905624 C40.8899271,47.3685624 45.5399271,46.0665624 50.3359271,45.4455624 C48.2249271,46.6895624 46.1659271,48.0255624 43.9679271,49.1255624 C41.5349271,49.7575624 39.1109271,50.4265624 36.6889271,51.1165624 C30.9489271,52.7575624 25.2069271,54.3215624 19.2739271,55.0955624 C14.8059271,55.6925624 9.19392705,56.3835624 4.47892705,55.7425624 C4.23592705,55.8885624 4.00192705,56.0265624 3.77692705,56.1605624 C7.36392705,56.7815624 11.3219271,56.5175624 14.8979271,56.2705624 C20.1959271,55.9135624 25.3579271,54.9765624 30.4639271,53.6905624 C33.7679271,52.8595624 37.0419271,51.9785624 40.3179271,51.1085624 C41.3929271,50.9755624 42.4149271,50.6925624 43.3949271,50.3035624 C43.9319271,50.1635624 44.4689271,50.0175624 45.0069271,49.8805624 C45.0909271,49.9615624 45.2119271,50.0095624 45.3749271,49.9855624 C47.8479271,49.6255624 50.4579271,50.2245624 52.9419271,50.2435624 C56.1399271,50.2685624 59.3419271,49.5845624 62.5129271,49.1825624 C69.3709271,48.3035624 75.4829271,49.7435624 82.1239271,51.1735624 C88.0369271,52.4375624 94.0689271,52.5715624 100.078927,52.0605624 C103.257927,51.7885624 106.486927,51.5665624 109.619927,50.8135624 C110.550927,50.5895624 111.394927,50.2715624 112.202927,49.8975624 C112.179927,49.5545624 112.157927,49.2125624 112.134927,48.8705624 C110.996927,49.3965624 109.816927,49.8275624 108.515927,50.0875624 C105.358927,50.7155624 102.104927,50.9405624 98.9169271,51.1725624 C92.2259271,51.6585624 85.7999271,51.0505624 79.2819271,49.5625624 C73.5929271,48.2585624 68.2859271,47.5395624 62.4419271,48.2975624 C58.9849271,48.7475624 55.5049271,49.5015624 52.0189271,49.3575624 C50.8029271,49.3075624 49.5799271,49.1425624 48.3569271,49.0565624 C53.5159271,47.8255624 58.7389271,46.7865624 64.1479271,46.3175624 C75.1499271,45.3005624 85.7509271,48.1445624 96.6869271,48.0255624 C101.804927,47.9455624 106.863927,46.7495624 111.943927,45.9725624 C111.921927,45.6375624 111.898927,45.3025624 111.876927,44.9675624 C107.549927,45.6975624 103.221927,46.4205624 98.8589271,46.7635624 C88.2969271,47.5285624 77.9269271,44.4565624 67.3489271,45.0985624 C60.4349271,45.4745624 53.7149271,46.7345624 47.0739271,48.3465624 C47.5139271,48.0645624 47.9479271,47.7725624 48.3769271,47.4795624 C49.8149271,46.4945624 51.2059271,45.4175624 52.7429271,44.5445624 C53.5399271,44.3505624 54.3359271,44.1605624 55.1319271,43.9545624 C55.1279271,44.0465624 55.1959271,44.1335624 55.3089271,44.0825624 C55.6769271,43.9175624 56.0509271,43.7665624 56.4269271,43.6175624 C58.7959271,42.9945624 61.1659271,42.3475624 63.5469271,41.7305624 C68.2109271,40.9495624 73.0639271,40.8255624 77.5409271,40.2675624 C85.3689271,39.2965624 93.1189271,37.2355624 100.933927,35.8865624 C104.362927,35.2995624 107.793927,35.0655624 111.220927,35.0495624 C111.200927,34.7495624 111.180927,34.4495624 111.160927,34.1505624 C106.253927,34.2705624 101.433927,34.7345624 96.4089271,35.7005624 C89.1529271,37.1055624 81.9699271,38.8835624 74.6759271,39.7365624 C72.9999271,39.9345624 71.2769271,40.0945624 69.5419271,40.2795624 C80.8879271,37.6775624 92.2389271,34.1355624 103.699927,31.9845624 C106.115927,31.5365624 108.531927,31.2045624 110.948927,30.9595624 C110.921927,30.5455624 110.893927,30.1315624 110.866927,29.7185624 C108.639927,29.9535624 106.414927,30.2635624 104.188927,30.6735624 C97.9739271,31.8205624 91.7909271,33.4285624 85.6249271,35.0675624" id="Fill-537" fill="#CD7433"></path>
                <path d="M20.5579271,53.5675624 C20.6269271,53.6145624 20.7139271,53.6455624 20.8129271,53.6425624 C21.0059271,53.6365624 21.2029271,53.6245624 21.3969271,53.6155624 C21.6999271,53.6245624 22.0079271,53.6265624 22.3209271,53.6225624 C22.8719271,53.6635624 23.5159271,53.6125624 24.1799271,53.5035624 C26.3439271,53.2565624 28.4909271,52.6165624 29.9149271,51.4265624 C30.1489271,51.2315624 29.9489271,50.9255624 29.6859271,50.8735624 C27.7399271,50.4855624 25.2419271,50.6045624 23.1649271,51.2485624 C21.7159271,51.5685624 20.3529271,52.0875624 19.8209271,53.1125624 C19.7349271,53.2785624 19.8369271,53.4975624 20.0769271,53.5245624 C20.2339271,53.5415624 20.3949271,53.5555624 20.5579271,53.5675624" id="Fill-538" fill="#CD7433"></path>
                <path d="M101.122927,42.3885624 C97.3369271,42.6735624 93.5309271,42.8235624 89.7509271,43.2545624 C87.2949271,43.5405624 83.5529271,44.5245624 81.2689271,43.1235624 C86.8339271,40.5995624 92.9829271,40.6195624 98.8379271,39.8425624 C98.9299271,39.8295624 99.0209271,39.8195624 99.1119271,39.8085624 L99.1699271,39.7165624 L99.2689271,39.6485624 C100.468927,39.2275624 101.664927,38.7905624 102.861927,38.3485624 C101.497927,38.5185624 100.133927,38.6915624 98.7719271,38.8805624 C92.5809271,39.7215624 86.0859271,39.7005624 80.2549271,42.6225624 C79.9589271,42.7705624 79.8829271,43.1695624 80.1249271,43.3955624 C81.9389271,45.0875624 84.9429271,44.7115624 87.2119271,44.4895624 C91.1029271,44.1175624 94.9849271,43.7935624 98.8819271,43.5235624 C103.165927,43.2265624 107.427927,42.8165624 111.689927,42.1385624 C111.668927,41.8175624 111.647927,41.4975624 111.626927,41.1785624 C108.130927,41.7315624 104.622927,42.1225624 101.122927,42.3885624" id="Fill-539" fill="#CD7433"></path>
                <path d="M99.4349271,59.2785624 C96.4649271,59.3985624 91.6709271,59.3725624 90.0209271,62.6735624 C89.8869271,62.9425624 90.0619271,63.3315624 90.3379271,63.3865624 C96.1509271,64.5285624 101.968927,63.8605624 107.769927,63.4005624 C109.534927,63.2635624 111.298927,63.1355624 113.061927,62.9875624 C113.040927,62.6585624 113.018927,62.3295624 112.997927,61.9995624 C103.515927,62.8725624 91.5039271,63.3795624 91.4679271,62.6025624 C91.3519271,60.1035624 99.6899271,60.2905624 101.325927,60.2335624 C105.174927,60.1015624 108.956927,59.1945624 112.804927,59.0535624 C112.784927,58.7445624 112.763927,58.4365624 112.743927,58.1275624 C108.356927,57.8545624 103.813927,59.1045624 99.4349271,59.2785624" id="Fill-540" fill="#CD7433"></path>
                <path d="M88.5149271,59.2295624 C76.6999271,62.4485624 64.5469271,61.3165624 52.5829271,59.2435624 C46.8309271,58.2465624 41.7009271,59.0855624 35.9959271,59.5985624 C30.8299271,60.0535624 25.8339271,58.6995624 20.6639271,58.8405624 C17.5819271,58.9135624 14.5129271,58.8455624 11.4409271,58.7605624 C13.2799271,58.6905624 15.1169271,58.5675624 16.9129271,58.4895624 C23.7259271,58.1955624 30.5129271,57.3495624 37.0759271,55.6745624 L37.0119271,55.8385624 C36.2089271,59.2525624 49.9479271,56.6005624 51.5019271,56.5235624 C56.7489271,56.4425624 61.9319271,57.4845624 67.1429271,58.0205624 C71.4659271,58.4555624 75.8239271,58.4435624 80.1209271,57.8415624 C81.1219271,57.7005624 83.6599271,57.7355624 84.6189271,56.6595624 C90.3509271,56.3705624 96.0779271,56.8885624 101.794927,56.2155624 C97.3159271,57.0195624 92.9339271,58.0155624 88.5149271,59.2295624 Z M53.4839271,55.5085624 C53.1859271,55.4965624 49.4169271,55.4165624 50.4739271,54.7115624 C54.8359271,54.8075624 59.2089271,54.0235624 63.5739271,53.8595624 C66.6229271,53.7595624 70.7889271,53.0015624 73.4859271,54.7805624 C74.9319271,55.7395624 74.1609271,55.8375624 72.5329271,56.0055624 C71.0999271,56.1535624 69.6409271,55.9545624 68.2199271,55.7525624 C66.1799271,55.4585624 64.1489271,54.9905624 62.0859271,54.9375624 C60.3839271,54.8925624 58.7159271,55.1715624 57.0299271,55.3375624 C55.8559271,55.4535624 54.6659271,55.5515624 53.4839271,55.5085624 Z M40.0729271,54.7635624 C41.7429271,54.2375624 43.4009271,53.6705624 45.1189271,53.2565624 C49.3569271,52.2325624 53.7549271,51.9775624 58.0999271,51.6515624 C62.5929271,51.3115624 67.0499271,51.3085624 71.4959271,52.0855624 C74.3179271,52.5745624 77.1889271,53.6625624 80.0809271,53.6745624 C80.1239271,53.7415624 80.1949271,53.7935624 80.2999271,53.8075624 C81.1299271,53.9075624 85.1029271,54.5435624 83.4979271,56.3975624 C82.8599271,57.1295624 79.2139271,57.1385624 78.4969271,57.2185624 C74.1989271,57.6915624 69.8959271,57.5685624 65.5959271,57.0795624 C62.0699271,56.6765624 58.5559271,56.1165624 55.0159271,55.9005624 C57.3409271,55.8105624 59.6879271,55.4245624 62.0329271,55.5105624 C66.3749271,55.6515624 70.7309271,57.6325624 75.0189271,56.1505624 C75.2529271,56.0675624 75.2869271,55.8015624 75.1859271,55.6015624 C73.7109271,52.6365624 69.1459271,52.9825624 66.4709271,53.0385624 C61.1169271,53.1735624 55.8689271,54.0445624 50.5479271,54.3635624 C50.4899271,54.2775624 50.3839271,54.2245624 50.2619271,54.2755624 C50.1329271,54.3275624 50.0409271,54.3655624 49.9629271,54.4005624 C49.8239271,54.4075624 49.6839271,54.4195624 49.5449271,54.4255624 C49.3979271,54.4335624 49.3889271,54.5825624 49.4749271,54.6535624 L49.3879271,54.7025624 C49.2029271,54.8075624 49.2239271,55.1105624 49.4289271,55.1865624 C50.3559271,55.5255624 51.2899271,55.7185624 52.2299271,55.8215624 C48.2989271,55.8765624 44.5049271,56.7645624 40.5789271,56.8435624 C40.2519271,56.8515624 38.9459271,57.0215624 38.7139271,56.8105624 C37.1599271,55.3985624 39.3739271,54.9865624 40.0729271,54.7635624 Z M84.9659271,55.9535624 L84.9839271,55.8855624 C85.1949271,54.2915624 83.4389271,53.5945624 81.9489271,53.2925624 C81.9369271,53.1915624 81.8659271,53.0955624 81.7349271,53.0955624 C77.2009271,53.0895624 72.9079271,51.4855624 68.4239271,51.0365624 C64.0449271,50.5915624 59.7179271,50.9075624 55.3319271,51.2565624 C51.1119271,51.5925624 46.8929271,52.0725624 42.8349271,53.2485624 C41.8919271,53.5225624 39.5589271,53.9225624 38.1409271,54.6845624 C31.1739271,56.5405624 24.0619271,57.5345624 16.8519271,57.8745624 C13.7449271,58.0235624 10.6009271,58.2335624 7.48692705,58.2285624 C5.37692705,58.2245624 3.61192705,57.7855624 1.83392705,57.3185624 C1.59992705,57.4585624 1.38692705,57.5865624 1.19592705,57.7025624 C2.37192705,58.0555624 3.54092705,58.3915624 4.83992705,58.5865624 C3.63092705,58.5715624 2.21692705,58.6335624 1.31792705,59.0895624 C1.54592705,59.1925624 1.77492705,59.2955624 2.00292705,59.4005624 L2.12692705,59.4555624 C4.53592705,58.6745624 11.1359271,59.4975624 12.6579271,59.5525624 C15.3539271,59.6285624 18.0449271,59.6505624 20.7379271,59.6035624 C23.8179271,59.5475624 26.6689271,59.9735624 29.7099271,60.3505624 C34.8729271,61.0055624 39.7819271,59.7735624 44.8999271,59.5485624 C48.3619271,59.4055624 51.7659271,60.0185624 55.1699271,60.6905624 C53.4789271,61.3215624 51.9609271,62.1995624 50.2729271,62.8445624 C47.8849271,63.7545624 45.3219271,63.9005624 42.7339271,63.7775624 C38.2409271,63.5535624 33.7819271,62.4895624 29.2809271,62.6795624 C24.8059271,62.8695624 20.7649271,64.5615624 16.3619271,64.9845624 C15.6149271,65.0585624 14.7859271,65.1255624 13.9169271,65.1675624 C14.0229271,65.2225624 14.1299271,65.2765624 14.2369271,65.3315624 C14.4909271,65.4625624 14.7439271,65.5945624 14.9979271,65.7265624 C18.8049271,65.4855624 22.2929271,64.5175624 26.0669271,63.7835624 C31.5639271,62.6955624 37.2289271,64.2595624 42.8039271,64.5815624 C44.6829271,64.6815624 46.5919271,64.6425624 48.4149271,64.2715624 C48.4029271,64.3535624 48.4449271,64.4465624 48.5549271,64.4835624 C55.5719271,66.8205624 62.3009271,66.9355624 69.4889271,66.3555624 C73.4819271,66.0415624 77.2629271,65.9765624 81.2719271,66.7955624 C84.7259271,67.5015624 88.1139271,68.3025624 91.6139271,68.4845624 C92.4589271,68.5275624 93.3039271,68.5465624 94.1479271,68.5535624 L94.0929271,68.4205624 L94.0829271,68.2425624 L94.1349271,68.1205624 L94.2689271,68.0235624 C94.9899271,67.8455624 95.7119271,67.6685624 96.4349271,67.4915624 C95.1829271,67.5285624 93.9299271,67.5485624 92.6749271,67.5235624 C85.5439271,67.3405624 78.7589271,64.7735624 71.6129271,65.3405624 C67.9759271,65.6135624 64.3549271,66.0605624 60.6879271,65.9805624 C56.6539271,65.8935624 52.7709271,65.0415624 48.8289271,64.1865624 C49.1249271,64.1175624 49.4189271,64.0395624 49.7089271,63.9495624 C52.0299271,63.2395624 54.0389271,61.8945624 56.3979271,61.1965624 C56.5319271,61.1565624 56.6129271,61.0775624 56.6539271,60.9835624 C58.5289271,61.3495624 60.4059271,61.6985624 62.2959271,61.8925624 C67.5399271,62.4305624 72.8909271,62.4375624 78.1319271,62.2065624 C83.3039271,61.9875624 88.1199271,60.5005624 93.1209271,59.1965624 C96.6799271,58.2725624 100.289927,57.6965624 103.907927,57.1305624 C103.751927,57.1235624 103.652927,56.9915624 103.630927,56.8405624 L103.627927,56.7295624 L103.641927,56.6755624 L103.655927,56.6205624 L103.696927,56.5555624 L103.813927,56.4585624 C106.603927,55.2585624 109.502927,54.2745624 112.451927,53.6915624 C112.438927,53.4925624 112.425927,53.2955624 112.413927,53.0975624 C108.764927,53.8515624 105.120927,54.8615624 101.480927,55.3135624 C95.9889271,55.9875624 90.4659271,55.5245624 84.9659271,55.9535624 L84.9659271,55.9535624 Z" id="Fill-541" fill="#CD7433"></path>
                <path d="M29.5489271,42.2655624 C31.6959271,42.1185624 33.8359271,41.7665624 35.9879271,41.3805624 C39.8669271,40.6865624 43.7539271,40.1595624 47.6469271,39.5495624 C55.5079271,38.3135624 63.3789271,37.1285624 71.2349271,35.6965624 C77.7189271,34.5145624 84.1999271,33.1775624 90.6969271,32.0265624 C91.8389271,31.8465624 92.9799271,31.6495624 94.1209271,31.4415624 L94.2549271,31.4175624 C97.8239271,30.8335624 101.424927,30.5025624 104.978927,29.6985624 C106.541927,29.3455624 108.124927,28.8305624 109.708927,28.4945624 C109.478927,29.4495624 109.627927,30.8845624 109.661927,31.5385624 C109.720927,32.7045624 109.743927,34.5515624 110.291927,35.6235624 C110.606927,35.5125624 110.920927,35.3935624 111.236927,35.2845624 C111.065927,32.7115624 110.894927,30.1435624 110.724927,27.5795624 C86.8399271,32.0755624 62.9559271,36.0435624 39.0719271,39.4825624 C38.9349271,39.5105624 38.7969271,39.5375624 38.6599271,39.5665624 C38.0249271,39.6325624 37.3729271,39.7255624 36.7209271,39.8185624 C36.4159271,39.9375624 36.1089271,40.0495624 35.7999271,40.1505624 C35.0269271,40.3085624 34.2529271,40.4635624 33.4799271,40.6155624 C32.2269271,40.8615624 30.9549271,41.1655624 29.6779271,41.4335624 L29.4509271,41.4575624 C29.7969271,41.3815624 30.1439271,41.3045624 30.4889271,41.2245624 C31.4239271,41.0675624 32.3619271,40.8345624 33.2949271,40.5925624 C33.8949271,40.4625624 34.4969271,40.3355624 35.1039271,40.2245624 L35.2709271,40.1035624 C35.5949271,40.0305624 35.9159271,39.9645624 36.2369271,39.9095624 L36.3299271,39.8745624 C33.0909271,40.3345624 29.8519271,40.7855624 26.6119271,41.2275624 C26.6119271,41.9545624 -0.843072949,59.2545624 0.0199270513,58.5085624 C0.156927051,58.5685624 0.292927051,58.6305624 0.429927051,58.6915624 C2.46392705,57.5545624 4.68892705,56.6055624 6.90492705,55.5665624 C9.61092705,54.2955624 11.9279271,52.6855624 14.3969271,51.0545624 C18.2829271,48.4865624 22.3019271,45.9005624 25.9339271,42.8075624 C27.1429271,42.7115624 28.3469271,42.5005624 29.5489271,42.2655624" id="Fill-542" fill="#E3AF8A"></path>
                <path d="M94.3639271,68.6825624 C96.1749271,70.6935624 99.5189271,70.0745624 101.701927,69.8995624 C103.743927,69.7405624 105.792927,69.6495624 107.837927,69.4975624 C108.881927,69.4205624 110.079927,69.0975624 111.114927,69.2655624 C111.733927,69.3655624 112.142927,69.5025624 112.423927,69.7065624 C112.400927,70.8815624 112.485927,72.0455624 112.666927,73.2215624 C113.021927,73.2155624 113.375927,73.2105624 113.729927,73.2045624 C113.633927,71.7265624 113.536927,70.2485624 113.440927,68.7735624 C107.095927,69.3725624 100.718927,70.1175624 94.3639271,68.6825624" id="Fill-543" fill="#E3AF8A"></path>
                <path d="M98.5579271,40.5235624 C100.973927,40.9795624 103.507927,41.0855624 105.974927,41.1125624 C107.131927,41.1265624 108.616927,40.9625624 109.886927,41.1655624 C110.662927,43.0065624 110.399927,45.4175624 110.593927,47.4325624 C110.803927,49.6075624 111.161927,51.7535624 111.397927,53.9365624 C111.746927,53.8555624 112.092927,53.7625624 112.441927,53.6925624 L112.442927,53.5515624 C112.146927,49.0455624 111.850927,44.5545624 111.553927,40.0765624 L111.515927,40.1375624 L111.397927,40.1225624 L111.314927,39.8635624 C111.016927,39.8885624 110.717927,39.9135624 110.419927,39.9385624 L110.466927,40.0975624 L110.247927,40.0735624 C110.145927,40.0365624 110.046927,40.0445624 109.958927,40.0815624 C109.701927,40.0455624 109.429927,40.0365624 109.160927,40.0385624 C105.876927,40.2945624 102.593927,40.4645624 99.3139271,40.3045624 C99.1739271,40.2975624 99.0949271,40.1645624 99.0819271,40.0205624 C98.9139271,40.0415624 98.7449271,40.0565624 98.5789271,40.0845624 C98.3629271,40.1205624 98.3419271,40.4835624 98.5579271,40.5235624" id="Fill-544" fill="#E3AF8A"></path>
                <path d="M112.666927,56.9545624 C109.756927,56.9935624 106.843927,56.9195624 103.938927,57.1345624 C103.801927,57.1455624 103.705927,57.0555624 103.658927,56.9395624 C103.604927,57.0855624 103.631927,57.2525624 103.804927,57.3235624 C106.309927,58.3515624 109.153927,58.1015624 111.787927,57.8755624 C111.764927,58.4505624 111.796927,59.0265624 111.862927,59.6035624 C111.928927,61.0615624 112.061927,62.5245624 112.237927,63.9465624 C112.482927,63.9055624 112.726927,63.8565624 112.970927,63.8105624 C113.043927,63.7345624 113.096927,63.6225624 113.093927,63.4715624 C112.972927,61.6135624 112.850927,59.7595624 112.728927,57.9065624 L112.713927,57.7565624 C112.701927,57.4865624 112.684927,57.2205624 112.666927,56.9545624" id="Fill-545" fill="#E3AF8A"></path>
                <path d="M47.3449271,125.567562 C47.6269271,125.616562 47.5729271,125.129562 47.2759271,125.089562 C40.8399271,124.206562 34.3889271,123.467562 27.9399271,123.022562 C27.7159271,121.607562 27.4909271,120.197562 27.2679271,118.794562 C30.1329271,118.583562 32.9819271,118.277562 35.8729271,118.149562 C36.2099271,118.133562 36.2129271,117.748562 35.8819271,117.689562 C32.9389271,117.166562 29.9329271,116.843562 26.9449271,116.780562 C26.4879271,113.926562 26.0299271,111.094562 25.5729271,108.284562 C29.5949271,107.776562 33.6129271,107.229562 37.5369271,106.289562 C37.8149271,106.222562 37.7549271,105.851562 37.4679271,105.842562 C33.3509271,105.717562 29.2409271,105.525562 25.1189271,105.504562 C24.8629271,103.937562 24.6059271,102.377562 24.3499271,100.824562 C52.2859271,97.1505624 80.2219271,92.3915624 108.157927,86.5465624 C108.157927,86.3645624 130.684927,93.1505624 137.901927,97.8805624 C137.900927,97.8765624 138.567927,102.970562 138.407927,102.998562 C130.493927,111.618562 122.580927,119.538562 114.666927,126.761562 C86.0659271,128.712562 57.4649271,129.420562 28.8639271,128.885562 C28.6489271,127.515562 28.4339271,126.150562 28.2199271,124.789562 C34.6079271,125.024562 41.6909271,124.586562 47.3449271,125.567562" id="Fill-546" fill="#A55100"></path>
                <path d="M28.3239271,125.450562 C33.8769271,125.463562 39.4059271,125.468562 44.9319271,125.236562 C45.7589271,125.322562 46.5659271,125.429562 47.3449271,125.567562 C47.5989271,125.611562 47.5789271,125.224562 47.3549271,125.115562 C47.6739271,125.098562 47.9929271,125.083562 48.3119271,125.064562 C55.8979271,124.589562 63.5409271,124.292562 71.1889271,123.995562 C85.3359271,123.431562 99.5309271,122.897562 113.628927,121.569562 L113.704927,121.569562 C113.650927,121.079562 113.621927,120.596562 113.660927,120.133562 C113.692927,119.747562 114.094927,119.681562 114.345927,119.866562 C114.675927,120.111562 114.904927,120.476562 115.077927,120.893562 C115.726927,120.288562 116.482927,119.778562 117.123927,119.296562 C119.697927,117.361562 121.747927,114.804562 123.868927,112.170562 C125.714927,109.879562 127.555927,107.697562 129.739927,105.736562 C132.438927,103.314562 135.182927,101.036562 137.356927,97.7775624 L137.494927,97.6385624 C137.631927,97.7195624 137.773927,97.8025624 137.901927,97.8805624 C137.901927,97.8805624 137.963927,98.3545624 138.044927,99.0125624 C135.166927,104.901562 130.091927,108.325562 126.388927,113.017562 C122.989927,117.320562 119.439927,120.905562 115.617927,124.292562 C115.652927,124.734562 115.707927,125.241562 115.753927,125.764562 C115.391927,126.098562 115.028927,126.430562 114.666927,126.761562 C114.454927,126.775562 114.241927,126.789562 114.029927,126.804562 C114.026927,126.117562 114.080927,125.423562 114.076927,124.822562 C113.858927,124.650562 113.688927,124.378562 113.619927,124.082562 C108.879927,126.780562 101.957927,125.723562 96.7409271,126.013562 C88.7349271,126.424562 80.7229271,126.692562 72.7139271,126.902562 C57.9849271,127.316562 43.4299271,128.204562 28.6979271,127.824562 C28.5729271,127.031562 28.4479271,126.239562 28.3239271,125.450562" id="Fill-547" fill="#914000"></path>
                <path d="M38.5289271,120.792562 C41.0829271,120.993562 43.6379271,121.252562 46.1869271,121.546562 C47.2489271,121.667562 47.1099271,122.948562 46.1589271,123.013562 C45.3589271,123.067562 44.5959271,123.014562 43.8359271,122.924562 C41.7699271,123.026562 39.6239271,122.732562 37.4599271,122.329562 C36.6139271,122.306562 35.7679271,122.283562 34.9189271,122.227562 C32.5399271,122.066562 30.0999271,121.750562 27.6889271,121.442562 C27.5759271,120.731562 27.4629271,120.021562 27.3499271,119.312562 C31.0749271,119.463562 34.8019271,120.109562 38.5289271,120.792562" id="Fill-548" fill="#914000"></path>
                <path d="M29.5399271,101.221562 C31.8109271,101.333562 33.9879271,101.724562 36.2569271,101.581562 C36.6459271,101.542562 37.0359271,101.507562 37.4249271,101.460562 C38.6789271,101.306562 38.8969271,102.785562 37.6569271,102.976562 C37.3789271,103.018562 37.1039271,103.050562 36.8299271,103.074562 C37.0149271,103.297562 36.9239271,103.638562 36.4609271,103.719562 C34.1189271,104.126562 31.8019271,104.023562 29.4349271,104.120562 C27.8889271,104.183562 26.4089271,104.263562 24.9059271,104.204562 C24.7449271,103.219562 24.5829271,102.236562 24.4209271,101.257562 C26.1369271,101.132562 27.8969271,101.138562 29.5399271,101.221562" id="Fill-549" fill="#914000"></path>
                <path d="M30.7369271,113.041562 C33.2189271,113.193562 35.8779271,113.300562 38.2629271,113.941562 C38.6179271,114.036562 38.6049271,114.310562 38.4359271,114.492562 L38.5689271,114.529562 C39.0149271,114.676562 38.9319271,115.151562 38.5579271,115.281562 C36.9249271,115.849562 34.8749271,115.401562 33.1169271,115.214562 C32.8899271,115.189562 32.6639271,115.165562 32.4379271,115.141562 C30.5579271,115.264562 28.5219271,115.005562 26.6519271,114.956562 C26.5449271,114.291562 26.4379271,113.628562 26.3319271,112.966562 C27.7789271,112.864562 29.2679271,112.952562 30.7369271,113.041562" id="Fill-550" fill="#914000"></path>
                <path d="M46.8379271,122.029562 C47.1049271,121.969562 47.0669271,121.589562 46.7699271,121.554562 C40.3339271,120.788562 33.8829271,120.165562 27.4339271,119.835562 C27.2089271,118.429562 26.9849271,117.027562 26.7609271,115.632562 C29.6259271,115.371562 32.4759271,115.015562 35.3669271,114.835562 C35.7039271,114.814562 35.7059271,114.430562 35.3759271,114.377562 C32.4329271,113.907562 29.4269271,113.638562 26.4389271,113.629562 C25.9809271,110.792562 25.5239271,107.977562 25.0659271,105.183562 C29.0889271,104.605562 33.1069271,103.986562 37.0299271,102.979562 C37.3089271,102.907562 37.2489271,102.537562 36.9619271,102.533562 C32.8449271,102.483562 28.7339271,102.364562 24.6129271,102.419562 C24.3559271,100.861562 24.0999271,99.3115624 23.8439271,97.7675624 C51.7799271,93.5995624 79.7149271,88.3455624 107.650927,82.0055624 C107.650927,81.3925624 138.760927,97.1265624 137.901927,97.8805624 C129.987927,106.627562 122.073927,114.675562 114.160927,122.024562 C85.5599271,124.482562 56.9589271,125.695562 28.3579271,125.665562 C28.2129271,124.748562 28.0679271,123.832562 27.9229271,122.919562 C34.3129271,123.058562 40.7789271,123.398562 46.8379271,122.029562" id="Fill-551" fill="#D58952"></path>
                <path d="M119.250927,116.249562 C115.422927,115.945562 111.663927,116.125562 107.855927,116.335562 C105.494927,116.466562 103.122927,116.394562 100.762927,116.554562 C99.3439271,116.650562 97.9239271,116.793562 96.5459271,117.126562 C95.3139271,117.429562 92.8969271,117.849562 94.2939271,119.351562 C96.0239271,121.217562 99.9189271,121.209562 102.104927,121.206562 C104.403927,121.207562 106.676927,120.944562 108.950927,120.701562 C111.321927,120.447562 113.771927,120.175562 116.229927,120.085562 C115.911927,120.387562 115.591927,120.687562 115.272927,120.985562 C111.942927,121.177562 108.612927,121.646562 105.310927,121.880562 C101.413927,122.176562 95.3839271,122.581562 92.7439271,118.669562 C92.6539271,118.536562 92.6339271,118.324562 92.7479271,118.203562 C95.8429271,114.943562 102.255927,115.685562 106.366927,115.584562 C109.953927,115.484562 113.485927,115.180562 117.089927,115.366562 C118.303927,115.431562 119.519927,115.583562 120.737927,115.755562 C120.646927,115.843562 120.556927,115.932562 120.465927,116.021562 C120.356927,116.127562 120.247927,116.233562 120.139927,116.339562 C119.843927,116.306562 119.546927,116.273562 119.250927,116.249562" id="Fill-552" fill="#CD7433"></path>
                <path d="M87.5219271,86.3855624 C88.4159271,86.1985624 89.3109271,86.0115624 90.2049271,85.8225624 C93.5219271,85.9885624 96.4919271,85.3105624 99.5519271,83.8135624 C100.306927,83.6475624 101.060927,83.4815624 101.815927,83.3145624 C97.4019271,86.3135624 92.3639271,87.6415624 87.5219271,86.3855624" id="Fill-553" fill="#CD7433"></path>
                <path d="M96.3919271,88.0755624 C98.7829271,87.5965624 101.037927,86.4855624 103.283927,85.4265624 C105.015927,84.6095624 107.275927,83.8575624 109.177927,82.6815624 C109.371927,82.7685624 109.586927,82.8645624 109.812927,82.9665624 L109.885927,82.9985624 C108.594927,83.8875624 107.120927,84.5235624 105.787927,85.1465624 C101.574927,87.1195624 97.6949271,89.2765624 93.1229271,89.3275624 C92.0489271,89.3425624 90.9799271,89.3065624 89.9139271,89.2555624 C84.2769271,91.0385624 78.4029271,91.0705624 72.7089271,90.7205624 C70.9089271,90.6085624 69.1109271,90.4685624 67.3059271,90.4055624 C68.1619271,90.2435624 69.0169271,90.0805624 69.8729271,89.9165624 C70.3019271,89.9425624 70.7299271,89.9705624 71.1579271,89.9985624 C77.0829271,90.3865624 82.8449271,90.2595624 88.7709271,89.1975624 C84.6989271,88.9425624 80.6569271,88.4525624 76.5459271,88.6175624 C78.0149271,88.3245624 79.4999271,88.0265624 80.9859271,87.7265624 C83.5569271,87.8335624 86.1149271,88.0695624 88.6809271,88.2255624 C91.2199271,88.3755624 93.8279271,88.5885624 96.3919271,88.0755624" id="Fill-554" fill="#CD7433"></path>
                <path d="M123.501927,107.077562 C123.562927,105.966562 125.519927,105.744562 126.172927,105.606562 C127.821927,105.256562 129.532927,105.135562 131.231927,105.087562 C131.017927,105.313562 130.802927,105.538562 130.588927,105.764562 C128.931927,105.894562 127.266927,105.955562 125.643927,106.400562 C124.923927,106.597562 123.728927,106.976562 124.726927,107.635562 C125.197927,107.946562 125.942927,107.979562 126.480927,108.042562 C127.100927,108.115562 127.720927,108.123562 128.340927,108.107562 C128.110927,108.346562 127.879927,108.584562 127.648927,108.821562 C125.539927,108.887562 123.420927,108.571562 123.501927,107.077562" id="Fill-555" fill="#CD7433"></path>
                <path d="M118.926927,109.179562 C118.187927,108.996562 113.980927,108.614562 114.264927,106.906562 C114.463927,105.704562 118.080927,105.363562 118.783927,105.245562 C123.948927,104.385562 129.081927,103.673562 134.134927,101.990562 C133.947927,102.192562 133.760927,102.393562 133.573927,102.594562 C128.045927,104.590562 122.331927,104.752562 116.760927,106.311562 C116.185927,106.470562 115.521927,106.498562 115.301927,107.104562 C115.000927,107.931562 117.245927,108.077562 117.919927,108.261562 C119.726927,108.751562 121.582927,109.158562 123.435927,109.344562 C124.649927,109.464562 125.884927,109.408562 127.117927,109.366562 C126.949927,109.538562 126.782927,109.710562 126.614927,109.881562 C124.051927,109.804562 121.468927,109.799562 118.926927,109.179562" id="Fill-556" fill="#CD7433"></path>
                <path d="M55.0719271,123.913562 C61.3749271,123.802562 67.5689271,123.231562 73.7099271,122.142562 C76.4439271,121.660562 79.1609271,120.853562 81.9469271,120.537562 C83.8409271,120.319562 86.3949271,121.186562 88.3129271,120.889562 C86.9359271,120.154562 86.1989271,119.249562 86.5749271,118.105562 C87.0759271,116.583562 89.5819271,116.109562 90.8979271,115.809562 C93.7109271,115.169562 96.7239271,114.782562 99.5999271,114.456562 C104.384927,113.911562 109.320927,113.694562 114.147927,113.624562 C116.959927,113.582562 119.768927,113.765562 122.581927,113.941562 C122.480927,114.039562 122.380927,114.139562 122.279927,114.238562 C122.124927,114.392562 121.969927,114.545562 121.814927,114.697562 C120.919927,114.630562 120.024927,114.555562 119.132927,114.489562 C114.878927,114.176562 110.697927,114.499562 106.462927,114.719562 C101.053927,114.993562 94.7619271,115.214562 89.6039271,116.984562 C88.5069271,117.361562 86.7459271,118.119562 87.6539271,119.431562 C88.0709271,120.034562 89.2219271,120.359562 89.8729271,120.592562 C91.8499271,121.298562 93.9459271,121.651562 95.9949271,121.963562 C98.6439271,122.365562 101.360927,122.707562 104.047927,122.841562 C102.215927,122.980562 100.383927,123.112562 98.5519271,123.241562 C95.2219271,122.908562 91.6319271,122.297562 89.2399271,121.323562 C87.8739271,121.856562 86.3239271,121.345562 84.8779271,121.210562 C81.3509271,120.886562 77.8569271,122.128562 74.4919271,122.739562 C68.5009271,123.841562 62.4539271,124.470562 56.2959271,124.612562 C49.9349271,124.756562 43.5369271,124.549562 37.1729271,124.570562 C34.1729271,124.579562 31.1959271,124.691562 28.2199271,124.789562 C28.1829271,124.556562 28.1459271,124.322562 28.1089271,124.089562 C30.7199271,123.996562 33.3329271,123.898562 35.9629271,123.875562 C42.3179271,123.817562 48.7109271,124.021562 55.0719271,123.913562" id="Fill-557" fill="#CD7433"></path>
                <path d="M49.3859271,95.9265624 C47.4519271,95.5795624 45.5629271,95.0735624 43.6699271,94.6265624 C44.2159271,94.5355624 44.7619271,94.4435624 45.3079271,94.3515624 C47.6689271,94.8785624 50.0379271,95.4095624 52.4939271,95.6775624 C57.3489271,95.2985624 62.2009271,94.9495624 67.0289271,94.5025624 C70.2129271,94.2055624 73.4009271,94.0525624 76.5869271,93.9215624 C77.7459271,93.7575624 78.8689271,93.7235624 79.9689271,93.7845624 C87.3009271,93.4725624 94.6079271,93.0935624 101.814927,90.6835624 C105.985927,89.2855624 109.730927,86.8505624 113.631927,84.7195624 L113.804927,84.8005624 C114.068927,84.9245624 114.338927,85.0515624 114.613927,85.1815624 L114.776927,85.2585624 C110.514927,87.5715624 106.552927,90.1815624 101.997927,91.6995624 C101.018927,92.0265624 100.037927,92.3135624 99.0549271,92.5685624 C102.722927,91.9415624 106.329927,91.2825624 110.031927,91.3925624 C114.608927,91.5025624 121.751927,93.2415624 127.167927,91.5135624 C127.484927,91.6835624 127.799927,91.8535624 128.109927,92.0215624 C124.082927,93.5715624 118.992927,92.9425624 115.423927,92.6605624 C110.175927,92.2305624 105.277927,92.3375624 100.010927,93.2565624 C95.2019271,94.0855624 90.3969271,94.0455624 85.6079271,94.8205624 C87.9189271,95.4725624 90.2069271,96.2995624 92.5879271,96.8945624 C95.0959271,96.9175624 97.6079271,97.0105624 100.126927,97.1615624 C106.098927,97.5155624 112.087927,98.0325624 118.095927,97.5785624 C122.620927,97.2265624 128.313927,96.8735624 132.776927,94.6265624 C133.052927,94.7845624 133.318927,94.9405624 133.575927,95.0895624 C130.216927,97.0005624 126.253927,97.5575624 122.679927,98.1045624 C117.386927,98.9075624 112.092927,98.8945624 106.797927,98.6095624 C103.371927,98.4235624 99.9719271,98.2315624 96.5809271,98.1095624 C95.5009271,98.2375624 94.4409271,98.1885624 93.4009271,98.0215624 C92.8459271,98.0095624 92.2899271,97.9915624 91.7359271,97.9855624 C91.6719271,98.0945624 91.5639271,98.1785624 91.3999271,98.1945624 C88.9099271,98.4615624 86.4879271,99.7505624 84.0649271,100.366562 C80.9469271,101.162562 77.6799271,101.250562 74.5049271,101.623562 C67.6399271,102.436562 61.9549271,105.072562 55.7159271,107.382562 C50.1609271,109.445562 44.2679271,110.432562 38.2939271,110.968562 C35.1329271,111.251562 31.9339271,111.551562 28.7419271,111.512562 C27.7929271,111.501562 26.9149271,111.421562 26.0639271,111.308562 C26.0299271,111.098562 25.9959271,110.889562 25.9619271,110.680562 C27.1609271,110.833562 28.3869271,110.932562 29.7019271,110.908562 C32.8959271,110.851562 36.1189271,110.526562 39.2799271,110.194562 C45.9139271,109.501562 52.1039271,108.048562 58.1989271,105.564562 C63.5189271,103.398562 68.5489271,101.502562 74.3989271,100.789562 C77.8599271,100.366562 81.4109271,100.264562 84.7839271,99.2435624 C85.9589271,98.8875624 87.1179271,98.4045624 88.2929271,97.9925624 C83.0009271,98.0615624 77.7049271,98.4565624 72.3449271,99.3985624 C61.4429271,101.366562 51.6339271,105.942562 40.9179271,107.678562 C35.9049271,108.510562 30.7609271,108.561562 25.6749271,108.911562 C25.6419271,108.707562 25.6089271,108.503562 25.5759271,108.299562 C29.9159271,108.023562 34.2629271,107.751562 38.5809271,107.204562 C49.0339271,105.936562 58.5859271,101.367562 68.9909271,99.1185624 C75.7909271,97.6875624 82.5789271,97.0105624 89.3939271,96.9055624 C88.9049271,96.7285624 88.4199271,96.5425624 87.9399271,96.3565624 C86.3319271,95.7315624 84.7549271,95.0325624 83.0809271,94.6135624 C82.2679271,94.6525624 81.4549271,94.6975624 80.6399271,94.7305624 C80.6619271,94.8175624 80.6139271,94.9225624 80.4939271,94.9055624 C80.1019271,94.8515624 79.7079271,94.8135624 79.3129271,94.7795624 C76.8859271,94.8685624 74.4569271,94.9535624 72.0259271,95.0835624 C67.3479271,95.7345624 62.6179271,96.9845624 58.1689271,97.7185624 C50.3919271,98.9975624 42.5079271,99.4485624 34.7039271,100.450562 C31.2799271,100.886562 27.9159271,101.538562 24.5889271,102.276562 C24.5589271,102.095562 24.5299271,101.913562 24.4989271,101.732562 C29.2759271,100.709562 34.0219271,99.8285624 39.0579271,99.2265624 C46.3289271,98.3485624 53.6149271,97.8125624 60.8489271,96.5125624 C62.5109271,96.2125624 64.2109271,95.8625624 65.9299271,95.5265624 C54.4259271,96.4905624 42.8099271,97.0585624 31.3649271,98.6405624 C28.9519271,98.9695624 26.5599271,99.3685624 24.1819271,99.8055624 C24.1399271,99.5555624 24.0989271,99.3055624 24.0579271,99.0565624 C26.2489271,98.6445624 28.4519271,98.2655624 30.6709271,97.9445624 C36.8709271,97.0475624 43.1249271,96.4375624 49.3859271,95.9265624" id="Fill-558" fill="#CD7433"></path>
                <path d="M116.467927,95.8605624 C116.411927,95.9425624 116.333927,96.0075624 116.235927,96.0295624 C116.044927,96.0735624 115.850927,96.1115624 115.656927,96.1505624 C115.363927,96.2455624 115.061927,96.3295624 114.754927,96.4075624 C114.224927,96.6095624 113.582927,96.7145624 112.906927,96.7475624 C110.729927,97.0025624 108.477927,96.7515624 106.813927,95.6885624 C106.539927,95.5135624 106.664927,95.0825624 106.909927,94.9445624 C108.719927,93.9185624 111.181927,93.3095624 113.363927,93.5385624 C114.853927,93.5305624 116.309927,93.8175624 117.078927,95.0485624 C117.202927,95.2485624 117.156927,95.5705624 116.927927,95.6715624 C116.778927,95.7375624 116.622927,95.7995624 116.467927,95.8605624" id="Fill-559" fill="#CD7433"></path>
                <path d="M35.6269271,104.728562 C39.3609271,104.159562 43.0919271,103.460562 46.8469271,102.944562 C49.2869271,102.605562 53.1099271,102.537562 55.0769271,100.909562 C49.2029271,100.299562 43.2399271,101.830562 37.4139271,102.568562 C37.3229271,102.579562 37.2319271,102.593562 37.1419271,102.606562 L37.0699271,102.558562 L36.9619271,102.533562 C35.7249271,102.519562 34.4869271,102.497562 33.2499271,102.476562 C34.6039271,102.286562 35.9579271,102.095562 37.3129271,101.914562 C43.4739271,101.114562 49.7669271,99.4385624 55.9699271,100.275562 C56.2839271,100.317562 56.4319271,100.615562 56.2379271,100.850562 C54.7859271,102.612562 51.7889271,102.967562 49.5389271,103.298562 C45.6829271,103.862562 41.8449271,104.442562 38.0019271,105.032562 C33.7779271,105.683562 29.5569271,106.215562 25.2939271,106.576562 C25.2629271,106.382562 25.2309271,106.188562 25.1989271,105.993562 C28.6929271,105.676562 32.1739271,105.254562 35.6269271,104.728562" id="Fill-560" fill="#CD7433"></path>
                <path d="M40.1599271,115.790562 C43.1039271,115.578562 47.8139271,114.975562 50.0269271,117.284562 C50.2059271,117.473562 50.1029271,117.780562 49.8399271,117.846562 C44.3029271,119.205562 38.4389271,119.123562 32.6429271,119.247562 C30.8789271,119.282562 29.1179271,119.321562 27.3549271,119.345562 C27.3229271,119.142562 27.2899271,118.939562 27.2579271,118.735562 C36.7429271,118.617562 48.6889271,117.966562 48.5869271,117.367562 C48.2589271,115.504562 40.0819271,116.530562 38.4619271,116.629562 C34.6479271,116.900562 30.7759271,116.666562 26.9679271,116.922562 C26.9369271,116.732562 26.9069271,116.542562 26.8759271,116.353562 C31.1439271,115.769562 35.8189271,116.111562 40.1599271,115.790562" id="Fill-561" fill="#CD7433"></path>
                <path d="M37.3169271,113.981562 C43.0489271,113.767562 48.5859271,112.668562 54.2679271,112.066562 C55.4049271,112.766562 57.8949271,112.398562 58.9059271,112.367562 C63.2409271,112.253562 67.5359271,111.666562 71.7029271,110.595562 C76.7259271,109.311562 81.6079271,107.372562 86.7779271,106.436562 C88.3099271,106.155562 102.408927,106.539562 100.861927,102.715562 L100.762927,102.539562 C107.577927,103.038562 114.462927,102.757562 121.247927,101.685562 C123.035927,101.402562 124.877927,101.176562 126.706927,100.874562 C123.700927,101.674562 120.691927,102.420562 117.636927,102.964562 C112.512927,103.895562 107.898927,106.553562 102.700927,106.918562 C96.9589271,107.328562 91.7359271,107.421562 86.2799271,109.420562 C74.9289271,113.580562 63.1059271,115.602562 50.8979271,114.536562 C46.3339271,114.150562 41.8539271,113.986562 37.3169271,113.981562 Z M81.1059271,106.308562 C79.4179271,106.469562 77.7259271,106.525562 76.0649271,106.888562 C74.0519271,107.329562 72.1509271,108.128562 70.2039271,108.738562 C68.8489271,109.166562 67.4539271,109.578562 66.0179271,109.686562 C64.3879271,109.807562 63.6129271,109.858562 64.8499271,108.799562 C67.1579271,106.817562 71.3829271,106.656562 74.3929271,106.171562 C78.7019271,105.462562 83.1499271,105.359562 87.4099271,104.362562 C88.5939271,104.880562 84.9119271,105.722562 84.6219271,105.786562 C83.4699271,106.063562 82.2819271,106.194562 81.1059271,106.308562 Z M99.4049271,104.200562 C99.2249271,104.491562 97.9029271,104.565562 97.5809271,104.622562 C93.7029271,105.319562 89.7869271,105.129562 85.9169271,105.858562 C86.8179271,105.568562 87.6949271,105.184562 88.5339271,104.639562 C88.7199271,104.518562 88.6759271,104.196562 88.4729271,104.125562 L88.3769271,104.092562 C88.4459271,103.999562 88.4059271,103.846562 88.2609271,103.869562 C88.1229271,103.893562 87.9829271,103.910562 87.8449271,103.932562 C87.7609271,103.913562 87.6639271,103.893562 87.5259271,103.865562 C87.3949271,103.838562 87.3039271,103.917562 87.2639271,104.019562 C81.9789271,104.801562 76.6629271,105.047562 71.3929271,105.988562 C68.7599271,106.455562 64.2279271,107.057562 63.3359271,109.775562 C63.2759271,109.961562 63.3579271,110.179562 63.6039271,110.210562 C68.0979271,110.813562 72.0009271,108.386562 76.2309271,107.416562 C78.5149271,106.901562 80.8959271,106.827562 83.1979271,106.477562 C79.7669271,107.372562 76.4279271,108.540562 73.0399271,109.491562 C68.9099271,110.654562 64.6989271,111.386562 60.3869271,111.628562 C59.6669271,111.672562 56.0809271,112.184562 55.3219271,111.700562 C53.4099271,110.504562 57.1919271,109.385562 57.9859271,109.150562 C58.0869271,109.122562 58.1459271,109.068562 58.1769271,109.007562 C61.0089271,108.518562 63.6199271,107.109562 66.2879271,106.130562 C70.4919271,104.594562 74.8479271,103.615562 79.3119271,102.949562 C83.6279271,102.309562 87.9809271,101.528562 92.3499271,101.649562 C94.1199271,101.697562 95.8689271,101.944562 97.6219271,102.162562 C98.3549271,102.251562 100.619927,102.242562 99.4049271,104.200562 Z M37.4729271,113.339562 C33.8229271,113.486562 30.0789271,113.281562 26.3799271,113.266562 C26.3999271,113.387562 26.4189271,113.508562 26.4389271,113.629562 C29.4269271,113.638562 32.4329271,113.907562 35.3759271,114.377562 L35.4829271,114.410562 L35.5589271,114.466562 L35.6169271,114.592562 C35.6239271,114.709562 35.5489271,114.807562 35.3969271,114.828562 C39.0469271,114.803562 42.6959271,114.782562 46.3599271,115.047562 C51.5089271,115.413562 56.5269271,116.071562 61.6719271,115.687562 C66.8849271,115.287562 72.1689271,114.673562 77.2379271,113.474562 C79.0649271,113.041562 80.8489271,112.445562 82.6229271,111.807562 C82.6819271,111.895562 82.7789271,111.963562 82.9189271,111.983562 C85.3889271,112.329562 87.6509271,113.435562 90.0969271,113.898562 C90.4029271,113.954562 90.7099271,113.999562 91.0179271,114.036562 C87.2959271,115.448562 83.6219271,116.714562 79.6419271,117.197562 C76.0249271,117.638562 72.3529271,117.569562 68.7029271,117.682562 C61.5309271,117.929562 55.2919271,120.579562 48.2599271,121.094562 C47.0229271,121.190562 45.7799271,121.249562 44.5339271,121.295562 C45.2799271,121.380562 46.0249271,121.466562 46.7699271,121.554562 L46.8949271,121.601562 L46.9919271,121.703562 L47.0139271,121.809562 L46.9819271,121.934562 C47.8169271,121.884562 48.6499271,121.825562 49.4799271,121.745562 C52.9149271,121.417562 56.1269271,120.587562 59.4159271,119.745562 C63.2339271,118.769562 66.9839271,118.462562 70.9989271,118.387562 C78.2269271,118.234562 84.8939271,117.658562 91.3519271,114.319562 C91.4519271,114.267562 91.4749271,114.161562 91.4449271,114.076562 C93.3279271,114.244562 95.2279271,114.060562 97.0679271,113.709562 C102.525927,112.693562 107.774927,109.908562 113.473927,110.458562 C117.385927,110.849562 121.086927,111.718562 124.934927,111.587562 C125.153927,111.365562 125.373927,111.143562 125.593927,110.920562 C125.685927,110.826562 125.777927,110.734562 125.870927,110.639562 C124.996927,110.696562 124.154927,110.713562 123.393927,110.710562 C118.910927,110.680562 114.502927,109.044562 110.032927,109.534562 C105.536927,110.023562 101.364927,111.961562 96.9629271,112.797562 C94.4279271,113.284562 91.8589271,113.439562 89.3079271,112.805562 C87.5039271,112.357562 85.8239271,111.675562 84.0269271,111.295562 C87.2479271,110.113562 90.4709271,108.890562 93.9129271,108.442562 C99.0009271,107.771562 104.122927,108.405562 109.071927,106.687562 C111.985927,105.666562 114.696927,104.552562 117.747927,104.007562 C120.415927,103.533562 123.065927,102.961562 125.707927,102.288562 C127.198927,101.930562 133.492927,99.2025624 136.076927,99.8845624 L136.184927,99.7675624 C136.381927,99.5515624 136.579927,99.3345624 136.777927,99.1175624 C135.768927,98.5895624 134.357927,98.8285624 133.169927,99.1275624 C134.398927,98.5255624 135.461927,97.7225624 136.525927,96.8655624 C136.305927,96.7265624 136.061927,96.5755624 135.796927,96.4125624 C134.169927,97.6025624 132.545927,98.6955624 130.467927,99.1895624 C127.400927,99.9155624 124.250927,100.318562 121.156927,100.815562 C113.973927,101.963562 106.740927,102.173562 99.5379271,101.629562 C97.9379271,101.083562 95.5669271,101.189562 94.5849271,101.109562 C90.3569271,100.773562 86.1339271,101.304562 81.9379271,101.940562 C77.5779271,102.599562 73.2889271,103.291562 69.0929271,104.599562 C64.7959271,105.943562 60.8929271,108.069562 56.4479271,108.826562 C56.3209271,108.849562 56.2679271,108.936562 56.2749271,109.019562 C54.8709271,109.512562 53.2739271,110.325562 53.7699271,111.519562 L53.7989271,111.568562 C48.3229271,112.054562 42.9799271,113.122562 37.4729271,113.339562 L37.4729271,113.339562 Z" id="Fill-562" fill="#CD7433"></path>
                <path d="M105.056927,84.4055624 C102.948927,85.0325624 100.799927,85.4015624 98.6349271,85.7485624 C94.7319271,86.3735624 90.8629271,87.1955624 86.9729271,87.9215624 C79.1179271,89.3925624 71.2749271,90.8915624 63.4129271,92.1525624 C56.9229271,93.1925624 50.4179271,94.1185624 43.9409271,95.1685624 C42.8049271,95.3685624 41.6679271,95.5545624 40.5299271,95.7325624 L40.3969271,95.7535624 C36.8479271,96.3595624 33.3119271,97.1145624 29.7439271,97.5455624 C28.1749271,97.7355624 26.5599271,97.8355624 24.9749271,98.0435624 C25.3539271,98.5505624 25.4469271,99.4415624 25.5229271,99.8375624 C25.6579271,100.545562 25.9399271,101.654562 25.5839271,102.414562 C25.2599271,102.417562 24.9369271,102.415562 24.6129271,102.419562 C24.3559271,100.861562 24.0999271,99.3115624 23.8439271,97.7675624 C47.6409271,94.2165624 71.4379271,89.8775624 95.2359271,84.7515624 C95.3749271,84.7315624 95.5139271,84.7105624 95.6529271,84.6905624 C96.2789271,84.5255624 96.9289271,84.3855624 97.5789271,84.2435624 C97.8999271,84.2625624 98.2209271,84.2745624 98.5409271,84.2745624 C99.3229271,84.1605624 100.103927,84.0475624 100.884927,83.9315624 C102.149927,83.7415624 103.445927,83.6155624 104.739927,83.4485624 L104.965927,83.3925624 C104.613927,83.4325624 104.261927,83.4725624 103.909927,83.5095624 C102.970927,83.6795624 102.012927,83.7595624 101.057927,83.8325624 C100.448927,83.9095624 99.8399271,83.9925624 99.2299271,84.0945624 L99.0409271,84.0195624 C98.7129271,84.0595624 98.3869271,84.1055624 98.0659271,84.1645624 L97.9689271,84.1585624 C101.195927,83.4555624 104.423927,82.7375624 107.650927,82.0055624 C107.650927,81.3925624 138.760927,97.1265624 137.901927,97.8805624 C137.782927,98.0115624 137.664927,98.1425624 137.545927,98.2735624 C135.233927,96.9095624 132.792927,95.9895624 130.348927,95.0095624 C127.362927,93.8125624 124.685927,92.1325624 121.870927,90.6165624 C117.439927,88.2345624 112.912927,86.1975624 108.675927,83.7085624 C107.485927,84.0475624 106.272927,84.2405624 105.056927,84.4055624" id="Fill-563" fill="#E3AF8A"></path>
                <path d="M46.7909271,122.039562 C45.3479271,123.596562 41.9229271,123.259562 39.7319271,123.230562 C37.6819271,123.200562 35.6369271,123.213562 33.5879271,123.187562 C32.5409271,123.172562 31.3029271,123.008562 30.3049271,123.149562 C29.7089271,123.232562 29.3269271,123.329562 29.0819271,123.466562 C29.2959271,124.197562 29.4029271,124.929562 29.4149271,125.666562 C29.0619271,125.666562 28.7099271,125.666562 28.3579271,125.665562 C28.2129271,124.748562 28.0679271,123.832562 27.9229271,122.919562 C34.2959271,123.057562 40.7449271,123.396562 46.7909271,122.039562" id="Fill-564" fill="#E3AF8A"></path>
                <path d="M37.8029271,102.960562 C35.5329271,103.787562 33.0849271,104.369562 30.6889271,104.873562 C29.5649271,105.109562 28.0939271,105.298562 26.8909271,105.660562 C26.4389271,106.916562 27.0909271,108.322562 27.2319271,109.582562 C27.3849271,110.938562 27.3869271,112.295562 27.5129271,113.655562 C27.1579271,113.648562 26.8029271,113.631562 26.4489271,113.630562 L26.4249271,113.544562 C25.9799271,110.783562 25.5349271,108.043562 25.0899271,105.324562 L25.1369271,105.353562 L25.2489271,105.321562 L25.2879271,105.151562 C25.5819271,105.109562 25.8759271,105.067562 26.1699271,105.023562 L26.1509271,105.127562 L26.3599271,105.071562 C26.4529271,105.028562 26.5509271,105.014562 26.6419271,105.020562 C26.8869271,104.948562 27.1499271,104.889562 27.4109271,104.838562 C30.6469271,104.348562 33.8699271,103.791562 37.0299271,102.979562 C37.1659271,102.943562 37.2189271,102.839562 37.2079271,102.739562 C37.3739271,102.718562 37.5409271,102.691562 37.7079271,102.673562 C37.9229271,102.650562 38.0059271,102.887562 37.8029271,102.960562" id="Fill-565" fill="#E3AF8A"></path>
                <path d="M26.7609271,115.632562 C29.6259271,115.371562 32.4759271,115.015562 35.3669271,114.835562 C35.5039271,114.826562 35.5829271,114.757562 35.6089271,114.675562 C35.6869271,114.766562 35.6889271,114.878562 35.5309271,114.944562 C33.2419271,115.890562 30.4009271,115.994562 27.7759271,116.109562 C27.8929271,116.460562 27.9549271,116.817562 27.9839271,117.178562 C28.1579271,118.080562 28.2659271,118.993562 28.3249271,119.883562 C28.0759271,119.871562 27.8279271,119.857562 27.5799271,119.844562 C27.4939271,119.801562 27.4249271,119.735562 27.4029271,119.643562 C27.2199271,118.497562 27.0379271,117.356562 26.8549271,116.217562 L26.8449271,116.124562 C26.8129271,115.958562 26.7869271,115.795562 26.7609271,115.632562" id="Fill-566" fill="#E3AF8A"></path>
            </g>
        </g>
    </g>
</svg>