<?xml version="1.0" encoding="UTF-8"?>
<svg width="123px" height="190px" viewBox="0 0 123 190" version="1.1" xmlns="http://www.w3.org/2000/svg" xmlns:xlink="http://www.w3.org/1999/xlink">
    <!-- Generator: Sketch 55.2 (78181) - https://sketchapp.com -->
    <title>Group 3</title>
    <desc>Created with Sketch.</desc>
    <g id="Page-1" stroke="none" stroke-width="1" fill="none" fill-rule="evenodd">
        <g id="2105_m10_i006_n016" transform="translate(-148.000000, -23.000000)">
            <g id="Group-3" transform="translate(148.684015, 23.472000)">
                <path d="M92.9229852,0.991 C92.8019852,2.087 92.7299852,3.223 92.7299852,4.398 L92.7299852,189.061 L106.422985,189.061 L106.422985,4.398 C106.422985,3.223 106.350985,2.087 106.229985,0.991 L92.9229852,0.991" id="Fill-76" fill="#D58952"></path>
                <path d="M94.7659852,114.734 C94.6699852,114.042 94.2709852,107.652 94.2579852,104.924 L94.3499852,104.948 L94.5449852,104.96 C94.7999852,104.975 95.0969852,104.757 95.1479852,104.501 C95.2499852,103.983 95.2519852,103.764 94.8399852,103.401 C94.5629852,103.157 94.2379852,103.182 93.9559852,103.401 C92.0359852,104.897 93.0399852,109.846 93.1979852,111.953 C93.5299852,116.345 94.5179852,120.61 95.9889852,124.756 C96.1339852,125.167 96.5549852,125.25 96.8679852,125.124 C96.8239852,124.452 96.7929852,123.78 96.7579852,123.107 C95.8579852,120.371 95.1639852,117.606 94.7659852,114.734" id="Fill-77" fill="#CD7433"></path>
                <path d="M106.422985,128.539 C105.172985,131.321 103.836985,134.084 103.344985,137.155 C102.938985,139.686 103.316985,142.035 103.675985,144.531 C104.407985,149.625 104.279985,153.777 101.954985,158.453 C101.597985,159.172 102.675985,159.805 103.034985,159.084 C103.252985,158.645 103.455985,158.204 103.650985,157.76 C105.757985,168.106 103.096985,178.715 105.178985,189.061 L106.422985,189.061 L106.422985,188.911 C104.207985,178.199 107.163985,167.191 104.664985,156.48 C104.613985,156.261 104.480985,156.137 104.321985,156.077 C104.847985,154.604 105.221985,153.087 105.377985,151.481 C105.773985,147.401 104.296985,143.562 104.404985,139.514 C104.479985,136.706 105.364985,134.135 106.422985,131.614 L106.422985,128.539" id="Fill-78" fill="#CD7433"></path>
                <path d="M95.0779852,135.841 C94.4039852,133.871 93.5369852,131.98 92.7309852,130.074 L92.7309852,133.293 C93.1449852,134.245 93.5389852,135.202 93.8729852,136.174 C95.2949852,140.32 96.1639852,144.637 97.0429852,148.923 C97.0799852,149.103 97.1749852,149.218 97.2929852,149.289 C97.4489852,148.132 97.5729852,146.967 97.6689852,145.795 C96.9619852,142.437 96.1889852,139.089 95.0779852,135.841" id="Fill-79" fill="#CD7433"></path>
                <path d="M102.023985,168.546 C102.301985,160.736 101.309985,153.017 101.223985,145.222 C101.136985,137.442 102.380985,129.744 102.797985,121.99 C103.173985,114.978 102.750985,108.011 101.704985,101.074 C101.584985,100.281 100.379985,100.618 100.498985,101.406 C101.676985,109.217 101.946985,117.025 101.356985,124.901 C100.801985,132.301 99.7779852,139.64 100.015985,147.08 C100.245985,154.254 101.031985,161.355 100.773985,168.546 C100.527985,175.414 99.7249852,182.245 98.8779852,189.061 L100.126985,189.061 C100.974985,182.245 101.779985,175.414 102.023985,168.546" id="Fill-80" fill="#CD7433"></path>
                <path d="M97.0159852,1.655 C95.5869852,6.271 96.6699852,9.111 98.0369852,13.498 C99.4079852,17.901 98.3199852,22.388 100.078985,26.778 C100.327985,27.4 101.296985,27.364 101.306985,26.611 C101.412985,18.072 101.519985,9.531 101.626985,0.991 L100.376985,0.991 C100.299985,7.151 100.222985,13.31 100.145985,19.469 C100.105985,18.437 100.064985,17.389 99.9489852,16.305 C99.3919852,11.103 96.4849852,7.595 98.2209852,1.988 C98.4599852,1.218 97.2539852,0.888 97.0159852,1.655" id="Fill-81" fill="#CD7433"></path>
                <path d="M98.8929852,172.236 C99.5449852,169.35 99.6289852,166.473 99.1719852,163.549 C99.0789852,162.955 98.0559852,162.951 97.9669852,163.549 C97.9029852,163.983 97.8529852,164.415 97.8079852,164.847 C97.7389852,164.94 97.6879852,165.051 97.6879852,165.198 C97.6859852,165.623 97.6849852,166.047 97.6839852,166.47 C97.6489852,167.207 97.6499852,167.945 97.6759852,168.686 C97.6719852,169.814 97.6689852,170.942 97.6649852,172.07 C97.6629852,172.762 98.7339852,172.937 98.8929852,172.236" id="Fill-82" fill="#CD7433"></path>
                <path d="M93.0739852,189.061 L94.4669852,189.061 C97.3389852,183.407 95.9309852,177.459 95.6909852,171.325 C95.3889852,163.573 98.1029852,156.239 98.8439852,148.596 C99.6559852,140.214 98.4659852,131.82 98.0279852,123.455 C97.5979852,115.248 99.3189852,107.912 100.210985,99.865 C101.117985,91.682 99.9919852,82.995 99.7049852,74.785 C99.3859852,65.656 99.0659852,56.527 98.7469852,47.397 C98.4559852,39.077 98.3389852,30.729 97.8509852,22.419 C97.4709852,15.968 93.4329852,7.366 95.5859852,0.991 L94.2199852,0.991 C92.9239852,5.269 94.4699852,9.775 95.4709852,14.258 C97.3019852,22.459 96.9299852,31.205 97.2229852,39.572 C97.8389852,57.177 98.5679852,74.783 99.0709852,92.391 C99.2929852,100.155 96.9829852,107.396 96.6629852,115.099 C96.5519852,117.773 96.6199852,120.441 96.7579852,123.107 C96.9029852,123.546 97.0389852,123.986 97.1939852,124.424 C97.3169852,124.771 97.1289852,125.019 96.8679852,125.124 C97.2139852,130.472 97.7849852,135.814 97.8559852,141.173 C97.8769852,142.737 97.7939852,144.272 97.6689852,145.795 C97.8649852,146.726 97.2639852,147.043 97.4559852,147.974 C97.5799852,148.581 96.8679852,148.069 97.2929852,149.289 C96.6089852,154.352 95.4629852,159.303 94.7809852,164.472 C93.7279852,172.456 97.2139852,181.69 93.0899852,189.012 L93.0739852,189.061" id="Fill-83" fill="#CD7433"></path>
                <path d="M102.678985,0.991 C102.553985,7.901 102.721985,14.798 103.221985,21.696 C103.278985,22.494 104.529985,22.5 104.471985,21.696 C103.971985,14.798 103.803985,7.901 103.928985,0.991 L102.678985,0.991" id="Fill-84" fill="#CD7433"></path>
                <path d="M18.7039852,0.991 C18.5819852,2.087 18.5099852,3.223 18.5099852,4.398 L18.5099852,189.061 L32.2029852,189.061 L32.2029852,4.398 C32.2029852,3.223 32.1309852,2.087 32.0099852,0.991 L18.7039852,0.991" id="Fill-85" fill="#D58952"></path>
                <path d="M27.0289852,159.403 C26.8219852,159.024 26.6169852,158.642 26.4119852,158.26 C27.0389852,168.512 27.2899852,178.789 27.4979852,189.061 L28.7489852,189.061 C28.5499852,179.257 28.3159852,169.447 27.7529852,159.658 C27.4979852,159.757 27.1979852,159.714 27.0289852,159.403" id="Fill-86" fill="#CD7433"></path>
                <path d="M25.8519852,138.146 C24.8429852,130.131 24.0659852,122.472 24.9689852,114.4 C25.8419852,106.594 28.1649852,98.069 27.0139852,90.195 C26.6829852,87.929 25.9039852,86.664 24.5559852,84.899 C22.8529852,82.668 21.0639852,81.001 21.0779852,78.023 C21.0899852,75.637 21.9319852,73.285 22.6549852,71.047 C24.9359852,63.981 25.8599852,57.25 25.8709852,49.827 C25.8819852,41.783 25.5899852,33.731 25.4319852,25.689 C25.3639852,22.224 25.6969852,18.383 24.8879852,14.971 C24.5289852,13.459 23.9309852,12.109 23.3119852,10.802 C22.9999852,10.801 22.6879852,10.6 22.6879852,10.199 C22.6879852,9.962 22.6879852,9.725 22.6879852,9.488 C21.4999852,6.967 20.5129852,4.463 21.3669852,1.107 L21.3729852,0.991 L20.1119852,0.991 C19.5419852,3.336 19.4509852,5.527 20.2649852,7.839 C21.0069852,9.943 22.3969852,11.704 23.1399852,13.814 C24.0779852,16.48 24.0499852,19.181 24.1089852,21.974 C24.2789852,30.02 24.4629852,38.067 24.5819852,46.113 C24.7179852,55.297 23.6129852,63.378 20.9829852,72.149 C19.3559852,77.576 19.5449852,80.902 23.1129852,85.248 C28.8209852,92.2 24.9529852,104.507 23.9409852,112.583 C22.8899852,120.981 23.4099852,128.868 24.4829852,137.233 C25.2469852,143.185 25.7879852,149.153 26.2009852,155.129 C26.6669852,156.071 27.4369852,162.172 27.9369852,163.102 C27.5289852,156.491 26.6799852,144.724 25.8519852,138.146" id="Fill-87" fill="#CD7433"></path>
                <path d="M23.9379852,10.198 C23.9379852,7.13 23.9379852,4.061 23.9379852,0.991 L22.6879852,0.991 C22.6879852,3.823 22.6879852,6.656 22.6879852,9.488 C22.8929852,9.924 23.1029852,10.361 23.3119852,10.8020037 C23.6249852,10.803 23.9379852,10.602 23.9379852,10.198" id="Fill-88" fill="#CD7433"></path>
                <path d="M32.2029852,179.2 L32.2029852,173.577 C31.1419852,168.415 30.3899852,163.198 30.0179852,157.922 C29.5019852,150.617 30.1849852,143.403 30.0609852,136.107 C29.9509852,129.714 26.4449852,122.277 28.3059852,116.087 C29.1249852,113.362 30.8109852,111.149 32.2029852,108.818 L32.2029852,106.343 C30.5799852,110.11 27.3669852,113.249 26.7159852,117.495 C25.6869852,124.204 28.8699852,131.222 28.8059852,138.01 C28.6739852,152.165 28.8849852,165.458 32.2029852,179.2" id="Fill-89" fill="#CD7433"></path>
                <path d="M27.0389852,24.69 C27.0599852,25.492 28.3099852,25.495 28.2889852,24.69 C28.0839852,16.79 27.8789852,8.891 27.6729852,0.991 L26.4229852,0.991 C26.6289852,8.891 26.8339852,16.79 27.0389852,24.69" id="Fill-90" fill="#CD7433"></path>
                <path d="M32.2029852,118.546 L32.2029852,116.007 C31.1549852,118.273 29.7489852,120.38 29.6729852,123.021 C29.5879852,125.973 30.8379852,128.811 32.2029852,131.425 L32.2029852,128.541 C31.1309852,126.044 30.4829852,123.384 31.2969852,120.708 C31.5299852,119.944 31.8539852,119.236 32.2029852,118.546" id="Fill-91" fill="#CD7433"></path>
                <path d="M30.6529852,20.699 C30.6539852,21.503 31.9039852,21.505 31.9029852,20.699 C31.8949852,15.563 32.0019852,10.432 32.2029852,5.304 L32.2029852,4.398 C32.2029852,3.223 32.1309852,2.087 32.0099852,0.991 L31.1479852,0.991 C30.8149852,7.556 30.6429852,14.123 30.6529852,20.699" id="Fill-92" fill="#CD7433"></path>
                <path d="M26.2009852,155.13 C24.3299852,151.352 22.8309852,147.457 22.4739852,143.159 C22.1229852,138.937 22.6439852,134.728 22.0169852,130.514 C21.0779852,124.195 19.6589852,118.052 18.5099852,111.834 L18.5099852,119.943 C19.4979852,124.104 20.6159852,128.265 21.0169852,132.479 C21.4439852,136.956 20.7869852,141.476 21.5729852,145.927 C21.8009852,147.218 22.1369852,148.475 22.5419852,149.707 C22.9509852,158.374 22.9939852,166.71 20.7419852,175.165 C19.4839852,179.888 18.9089852,184.416 18.7439852,189.061 L19.8559852,189.061 C19.8719852,187.73 19.9139852,186.4 20.0299852,185.072 C20.4239852,180.554 21.8699852,176.453 22.8329852,172.072 C24.1899852,165.895 24.1889852,159.593 23.9459852,153.309 C24.6959852,154.992 26.4839852,159.143 27.3569852,160.767 C27.2929852,159.722 26.2729852,156.173 26.2009852,155.13" id="Fill-93" fill="#CD7433"></path>
                <path d="M18.5099852,172.43 C21.2449852,166.733 23.0789852,159.708 22.2619852,153.683 C21.4649852,147.811 19.9859852,141.937 18.5099852,136.107 L18.5099852,142.195 C19.1389852,144.949 19.7579852,147.704 20.3419852,150.466 C21.6449852,156.627 20.8149852,163.265 18.5099852,169.249 L18.5099852,172.43" id="Fill-94" fill="#CD7433"></path>
                <path d="M106.422985,1.109 C106.422985,1.721 103.357985,2.218 99.5769852,2.218 C95.7949852,2.218 92.7309852,1.721 92.7309852,1.109 C92.7309852,0.496 95.7949852,0 99.5769852,0 C103.357985,0 106.422985,0.496 106.422985,1.109" id="Fill-95" fill="#A55100"></path>
                <path d="M32.2029852,1.109 C32.2029852,1.721 29.1379852,2.218 25.3569852,2.218 C21.5759852,2.218 18.5099852,1.721 18.5099852,1.109 C18.5099852,0.496 21.5759852,0 25.3569852,0 C29.1379852,0 32.2029852,0.496 32.2029852,1.109" id="Fill-96" fill="#A55100"></path>
                <path d="M92.7309852,23.157 C97.2949852,22.907 101.857985,22.656 106.422985,22.406 L106.422985,8.294 C101.857985,8.636 97.2949852,8.979 92.7309852,9.322 L92.7309852,23.157" id="Fill-97" fill="#CD7433"></path>
                <path d="M18.5099852,13.123 L18.5099852,24.707 C23.0599852,25.197 27.6259852,25.474 32.2029852,25.591 L32.2029852,13.63 C30.0769852,13.71 27.9499852,13.764 25.8219852,13.78 C24.3769852,13.79 21.2539852,13.284 18.5099852,13.123" id="Fill-98" fill="#CD7433"></path>
                <path d="M106.422985,107.478 C105.106985,107.429 103.790985,107.383 102.474985,107.34 C102.276985,105.248 102.018985,103.16 101.704985,101.074 C101.656985,100.758 101.436985,100.621 101.196985,100.621 C100.834985,100.621 100.427985,100.932 100.498985,101.406 C100.794985,103.37 101.033985,105.334 101.215985,107.299 C100.551985,107.278 99.8879852,107.258 99.2249852,107.238 C99.5739852,104.817 99.9329852,102.376 100.210985,99.865 C100.330985,98.786 100.414985,97.698 100.469985,96.604 C102.454985,96.448 104.439985,96.281 106.422985,96.103 L106.422985,107.478 M97.5289852,107.189 C96.4569852,107.159 95.3849852,107.13 94.3129852,107.104 C94.2819852,106.27 94.2609852,105.512 94.2579852,104.924 L94.3499852,104.948 L94.5449852,104.96 C94.5529852,104.96 94.5619852,104.96 94.5699852,104.96 C94.8189852,104.96 95.0989852,104.748 95.1479852,104.501 C95.2499852,103.983 95.2519852,103.764 94.8399852,103.401 C94.7049852,103.283 94.5589852,103.227 94.4119852,103.227 C94.2569852,103.227 94.1009852,103.289 93.9559852,103.401 C93.0679852,104.093 92.8059852,105.522 92.7949852,107.067 C92.7739852,107.067 92.7519852,107.066 92.7299852,107.066 L92.7299852,97.154 C94.8069852,97.022 96.8829852,96.878 98.9579852,96.721 C98.6929852,100.25 98.0659852,103.707 97.5289852,107.189" id="Fill-99" fill="#C8723E"></path>
                <path d="M94.3129852,107.104 C93.8069852,107.091 93.3009852,107.079 92.7949852,107.067 C92.8059852,105.522 93.0679852,104.093 93.9559852,103.401 C94.1009852,103.289 94.2569852,103.227 94.4119852,103.227 C94.5589852,103.227 94.7049852,103.283 94.8399852,103.401 C95.2519852,103.764 95.2499852,103.983 95.1479852,104.501 C95.0989852,104.748 94.8189852,104.96 94.5699852,104.96 C94.5619852,104.96 94.5529852,104.96 94.5449852,104.96 L94.3499852,104.948 L94.2579852,104.924 C94.2609852,105.512 94.2819852,106.27 94.3129852,107.104" id="Fill-100" fill="#C16127"></path>
                <path d="M102.474985,107.34 C102.054985,107.326 101.635985,107.312 101.215985,107.299 C101.033985,105.334 100.794985,103.37 100.498985,101.406 C100.427985,100.932 100.834985,100.621 101.196985,100.621 C101.436985,100.621 101.656985,100.758 101.704985,101.074 C102.018985,103.16 102.276985,105.248 102.474985,107.34" id="Fill-101" fill="#C16127"></path>
                <path d="M99.2249852,107.238 C98.6589852,107.221 98.0939852,107.205 97.5289852,107.189 C98.0659852,103.707 98.6929852,100.25 98.9579852,96.721 C99.4619852,96.683 99.9659852,96.644 100.469985,96.604 C100.414985,97.698 100.330985,98.786 100.210985,99.865 C99.9329852,102.376 99.5739852,104.817 99.2249852,107.238" id="Fill-102" fill="#C16127"></path>
                <path d="M20.9649852,108.194 C20.1129852,108.194 19.2869852,108.142 18.5099852,108.007 L18.5099852,96.58 C21.0489852,96.78 23.5889852,96.961 26.1299852,97.123 C25.9729852,100.761 25.2789852,104.535 24.6749852,107.963 C23.4289852,108.089 22.1709852,108.194 20.9649852,108.194 M25.9139852,107.834 C26.4789852,104.314 27.0609852,100.731 27.2579852,97.194 C28.9059852,97.296 30.5539852,97.39 32.2029852,97.477 L32.2029852,106.343 C32.0379852,106.726 31.8559852,107.103 31.6629852,107.474 C30.8449852,107.501 30.0269852,107.524 29.2089852,107.557 C28.1739852,107.598 27.0579852,107.712 25.9139852,107.834" id="Fill-103" fill="#C8723E"></path>
                <path d="M24.6749852,107.963 C25.2789852,104.535 25.9729852,100.761 26.1299852,97.123 C26.5059852,97.147 26.8819852,97.171 27.2579852,97.194 C27.0609852,100.731 26.4789852,104.314 25.9139852,107.834 C25.5039852,107.877 25.0909852,107.921 24.6749852,107.963" id="Fill-104" fill="#C16127"></path>
                <path d="M31.6629852,107.474 C31.8559852,107.103 32.0379852,106.726 32.2029852,106.343 L32.2029852,107.456 C32.0229852,107.462 31.8429852,107.468 31.6629852,107.474" id="Fill-105" fill="#C16127"></path>
                <path d="M98.3819852,80.889 C100.419985,80.843 102.458985,80.798 104.497985,80.752 C102.426985,80.947 100.378985,81.043 98.3819852,80.889 Z M105.962985,45.24 C106.888985,44.795 107.904985,44.415 108.975985,44.093 C107.988985,44.583 106.997985,45.031 105.962985,45.24 Z M13.3659852,85.293 C14.6599852,85.027 15.9449852,84.783 17.2109852,84.585 C15.8679852,85.007 14.5989852,85.205 13.3659852,85.293 Z M120.120985,45.521 C119.258985,45.474 117.240985,43.711 115.810985,42.822 C117.644985,42.652 119.431985,42.604 121.023985,42.656 C121.023985,41.637 121.412985,41.432 121.412985,40.413 L121.412985,16.705 C120.439985,16.699 117.930985,13.723 116.956985,13.7201716 C79.3999852,13.665 44.1679852,16.46 6.67098519,18.496 C6.01398519,18.532 4.20298519,21.65 3.54498519,21.685 C3.86298519,26.023 4.18098519,30.361 4.49798519,34.699 C10.3909852,34.597 16.3009852,35.647 21.7799852,37.766 C16.5799852,38.809 12.5349852,36.243 7.33498519,37.286 C6.69298519,37.415 4.48798519,39.285 3.84698519,39.413 C1.32198519,54.159 0.621985186,72.864 1.18298519,87.804 L1.25998519,87.791 C0.663985186,92.033 -0.220014814,99.118 0.0499851859,102.324 C40.3639852,104.86 81.9299852,105.552 122.146985,101.815 C122.418985,95.319 120.742985,56.796 120.120985,45.521 L120.120985,45.521 Z" id="Fill-106" fill="#A55100"></path>
                <path d="M12.5349852,37.236 C12.3879852,37.2 12.2089852,37.176 12.0279852,37.156 C12.1669852,37.262 12.3389852,37.313 12.5349852,37.236" id="Fill-107" fill="#853900"></path>
                <path d="M11.9369852,31.189 L12.0749852,31.252 C12.3679852,31.322 12.6599852,31.393 12.9509852,31.465 C12.6589852,31.474 12.3639852,31.475 12.0739852,31.494 C11.8349852,31.481 11.5959852,31.468 11.3569852,31.455 C11.5499852,31.368 11.7439852,31.278 11.9369852,31.189 Z M4.49798519,34.699 C5.37898519,34.684 6.26098519,34.703 7.14198519,34.739 C8.49898519,34.368 9.74298519,33.748 11.1769852,33.31 C11.3829852,33.247 11.5939852,33.202 11.8029852,33.149 C13.3779852,33.259 14.9409852,33.354 16.4929852,33.504 C16.8499852,33.553 17.2069852,33.603 17.5629852,33.655 C16.2889852,34.355 14.9279852,34.904 13.5709852,35.456 C14.5839852,35.642 15.5879852,35.869 16.5869852,36.123 C18.1199852,35.606 19.6139852,34.912 21.0459852,34.21 C21.8229852,34.387 22.5969852,34.591 23.3649852,34.852 C24.0889852,35.098 24.4019852,34.017 23.7609852,33.706 C23.7559852,33.445 23.6189852,33.179 23.3279852,33.082 C23.1729852,33.03 23.0169852,32.986 22.8609852,32.938 C22.7649852,32.786 22.6029852,32.673 22.3489852,32.671 C22.2199852,32.669 22.0939852,32.676 21.9669852,32.681 C21.6939852,32.609 21.4209852,32.541 21.1479852,32.479 C21.1769852,32.338 21.1429852,32.197 21.0669852,32.072 C21.0199852,31.83 20.8429852,31.619 20.5169852,31.615 C20.0909852,31.61 19.6679852,31.599 19.2459852,31.586 C19.0509852,31.568 18.8549852,31.553 18.6589852,31.537 C17.6299852,30.839 16.4669852,30.227 15.2729852,29.825 C15.8319852,29.564 15.7149852,28.568 15.0179852,28.624 C14.1649852,28.692 13.3779852,28.873 12.6319852,29.129 C12.5399852,28.91 12.2919852,28.766 12.0149852,28.917 C11.9079852,28.975 11.8069852,29.04 11.7019852,29.1 C11.5499852,28.88 11.2629852,28.75 10.9929852,28.921 C9.83298519,29.658 8.71298519,30.443 7.61698519,31.257 C7.62198519,31.077 7.62798519,30.896 7.63098519,30.716 C7.81698519,27.268 8.26698519,23.745 7.58398519,20.371 C7.58398519,19.729 7.58298519,19.087 7.58498519,18.446 C7.27898519,18.462 6.97698519,18.48 6.67098519,18.496 C6.54698519,18.503 6.38198519,18.619 6.19198519,18.803 L6.15298519,18.981 L6.02198519,19.091 L6.01798519,19.014 C5.79298519,19.228 5.54898519,19.53 5.29998519,19.845 C5.27198519,21.601 5.40298519,23.35 5.61698519,25.094 C5.65198519,26.365 5.76098519,27.638 5.91398519,28.904 C5.91398519,30.123 5.91398519,31.343 5.91498519,32.562 C5.41498519,32.957 4.92298519,33.363 4.42998519,33.767 C4.45298519,34.078 4.47498519,34.389 4.49798519,34.699 L4.49798519,34.699 Z" id="Fill-108" fill="#853900"></path>
                <path d="M114.840985,42.629 C114.768985,42.444 114.773985,42.238 114.837985,42.055 C114.793985,41.888 114.792985,41.71 114.846985,41.551 C114.543985,41.445 114.265985,41.275 114.052985,41.033 C116.084985,41.035 117.818985,39.38 118.561985,37.488 C119.303985,35.597 119.262985,33.503 119.211985,31.471 C119.091985,26.724 118.971985,21.978 118.851985,17.231 C118.830985,16.402 118.801985,15.538 118.411985,14.805 C118.021985,14.073 117.154985,13.523 116.364985,13.776 C115.344985,21 115.431985,28.38 116.620985,35.578 C111.030985,37.719 105.440985,39.86 99.8509852,42.001 C104.272985,44.519 110.170985,40.78 114.840985,42.629" id="Fill-109" fill="#853900"></path>
                <path d="M102.978985,76.153 C104.576985,76.16 106.175985,76.158 107.772985,76.123 C108.198985,76.114 108.622985,76.089 109.044985,76.055 C109.010985,76.218 109.036985,76.392 109.146985,76.512 C107.098985,76.469 105.032985,76.272 102.978985,76.153 Z M122.123985,99.959 C121.382985,98.069 120.628985,96.185 119.862985,94.306 C118.743985,91.561 119.340985,87.049 119.321985,84.161 C119.305985,81.665 119.262985,79.168 119.224985,76.672 C119.794985,77.069 120.378985,77.447 120.988985,77.711 C121.111985,77.764 121.242985,77.703 121.290985,77.6 C121.582985,77.596 121.745985,77.173 121.455985,76.956 C120.958985,76.583 120.464985,76.197 119.926985,75.882 C119.736985,75.772 119.467985,75.596 119.210985,75.539 C119.133985,70.896 119.034985,66.253 118.889985,61.611 C118.800985,58.77 119.965985,47.613 117.415985,44.001 C116.683985,43.731 116.018985,43.311 115.284985,43.051 C115.153985,43.006 115.058985,42.93 114.980985,42.845 C114.095985,43.115 113.935985,44.511 114.083985,45.531 C115.450985,54.928 116.278985,64.374 117.559985,73.738 C115.144985,73.778 112.791985,74.278 110.409985,74.572 C106.110985,74.384 101.775985,74.731 97.4639852,74.77 C96.5929852,74.778 96.5909852,76.124 97.4639852,76.125 C97.7679852,76.125 98.0709852,76.128 98.3749852,76.129 C97.8349852,76.171 97.8459852,76.912 98.3789852,76.966 C102.498985,77.381 107.102985,78.133 111.461985,77.856 C112.985985,78.038 114.478985,78.349 115.973985,78.894 C117.244985,79.361 116.666985,84.277 116.674985,85.256 C116.694985,87.707 118.557985,92.471 116.746985,94.64 C115.325985,96.341 111.627985,95.641 109.683985,95.731 C103.415985,96.022 97.1429852,95.394 90.8739852,95.72 C80.5839852,96.254 70.2919852,96.739 59.9959852,97.165 C50.5389852,97.556 41.2439852,97.897 31.8049852,96.986 C27.6289852,96.583 23.5149852,96.007 19.3309852,95.942 C19.2259852,95.296 18.8049852,94.718 18.0139852,94.536 C14.8069852,93.799 7.66198519,92.187 3.71898519,94.054 C3.82098519,91.621 3.80798519,89.189 3.78198519,86.756 C3.90798519,86.065 4.05198519,85.376 4.20298519,84.687 C6.64298519,85.217 9.75398519,84.062 12.5659852,82.663 C13.1449852,82.475 13.7169852,82.271 14.2689852,82.031 C14.4369852,81.959 14.5129852,81.803 14.5219852,81.637 C15.6629852,81.011 16.7029852,80.403 17.5569852,79.935 C18.1419852,79.614 17.8729852,78.688 17.2199852,78.692 C13.7789852,78.712 8.95098519,79.128 5.22098519,80.634 C5.27098519,80.418 5.31598519,80.196 5.34298519,79.97 C5.38798519,79.597 5.42398519,79.223 5.45298519,78.848 C5.78998519,76.92 5.98798519,74.971 5.83998519,72.977 C5.81998519,72.705 5.63198519,72.499 5.40698519,72.413 C5.38698519,72.093 5.36698519,71.772 5.34498519,71.453 C5.29398519,70.7 5.24798519,69.953 5.20498519,69.21 C5.77398519,58.825 6.73498519,48.484 7.21298519,38.07 C7.22298519,37.856 7.10798519,37.722 6.95598519,37.668 L6.96398519,37.446 C6.61298519,37.637 6.13698519,37.967 5.64898519,38.309 C3.51098519,49.11 3.40398519,60.099 3.52398519,71.08 C3.56698519,75.114 1.93798519,79.668 1.79698519,83.907 C1.65398519,88.259 1.01698519,92.602 0.963985186,96.995 C0.961985186,97.137 1.01798519,97.249 1.09198519,97.347 C1.04498519,97.587 1.01398519,97.841 0.996985186,98.108 C0.816985186,98.611 0.676985186,99.124 0.603985186,99.659 C0.412985186,100.423 0.230985186,101.189 0.0669851859,101.961 C0.0339851859,102.117 0.0789851859,102.235 0.148985186,102.33 C0.907985186,102.378 1.67098519,102.42 2.43198519,102.466 C2.95598519,101.816 3.39398519,101.077 3.79998519,100.407 L3.83598519,100.351 C3.94198519,100.41 4.06098519,100.454 4.20198519,100.457 C7.48598519,100.525 10.7099852,100.052 13.9529852,99.678 C15.1119852,99.632 16.2719852,99.6 17.4319852,99.592 C22.2819852,99.559 27.0029852,100.355 31.8049852,100.892 C36.3979852,101.405 40.9779852,101.556 45.5599852,101.537 C50.3139852,101.776 55.0769852,101.839 59.9139852,101.778 C69.1079852,101.664 78.3249852,102.516 87.5069852,102.16 C97.1379852,101.786 106.673985,100.713 116.334985,100.678 C116.592985,100.677 116.817985,100.627 117.015985,100.545 C117.230985,100.578 117.447985,100.594 117.670985,100.57 C117.794985,100.557 117.919985,100.513 118.021985,100.44 L118.094985,100.466 C118.353985,100.531 118.647985,100.564 118.913985,100.581 C119.158985,100.596 119.413985,100.598 119.651985,100.55 C120.077985,100.989 120.478985,101.451 120.865985,101.925 C121.292985,101.887 121.720985,101.855 122.146985,101.815 C122.165985,101.365 122.173985,100.757 122.175985,100.02 L122.123985,99.959 L122.123985,99.959 Z" id="Fill-110" fill="#853900"></path>
                <path d="M116.956985,13.721 L116.956985,36.453 C116.956985,37.43 116.591985,37.627 116.591985,38.605 C111.957985,38.446 105.551985,39.215 101.565985,41.583 C101.346985,41.713 101.033985,41.422 101.148985,41.195 C105.563985,41.438 110.267985,42.076 114.682985,42.32 C115.263985,53.132 116.503985,64.076 118.418985,74.732 C110.747985,74.909 103.077985,75.086 95.4079852,75.262 C102.910985,75.854 111.273985,76.827 118.490985,78.964 C118.236985,85.193 117.897985,89.097 117.642985,95.327 C80.0139852,98.909 41.1219852,98.245 3.39998519,95.814 C3.10798519,92.258 3.11598519,88.045 3.62498519,84.514 C8.91898519,82.81 14.1629852,80.509 19.4569852,78.806 C14.5599852,79.591 9.35798519,81.107 4.45998519,81.893 C3.93598519,67.568 4.97298519,51.424 7.33498519,37.286 C12.8009852,36.163 18.2669852,35.039 23.7329852,33.916 C18.6069852,31.883 13.0759852,30.878 7.56298519,30.975 C7.26498519,26.816 6.96798519,22.656 6.67098519,18.496 C43.2669852,16.491 80.3069852,13.508 116.956985,13.721" id="Fill-111" fill="#D58952"></path>
                <path d="M116.257985,17.348 C116.640985,17.289 116.563985,17.321 116.874985,17.085 L116.956985,16.989 L116.956985,16.501 L116.874985,16.423 C113.553985,14.768 109.923985,15.018 106.315985,14.75 C103.972985,14.575 100.824985,14.026 98.9229852,15.778 C98.6959852,15.986 98.6889852,16.413 98.9229852,16.621 C101.585985,18.985 105.234985,19.164 108.637985,19.289 C111.433985,19.392 114.194985,19.743 116.956985,20.079 L116.956985,18.635 C115.537985,18.443 114.117985,18.269 112.690985,18.167 C109.527985,17.941 106.234985,18.293 103.135985,17.478 C101.069985,16.934 100.092985,15.885 102.864985,15.758 C104.152985,15.699 105.442985,15.836 106.726985,15.92 C108.244985,16.019 116.342985,16.681 116.063985,17.095 C115.970985,17.234 116.123985,17.368 116.257985,17.348" id="Fill-112" fill="#CD7433"></path>
                <path d="M8.17598519,20.075 C17.6969852,21.691 27.4089852,19.575 36.9539852,19.189 C41.4939852,19.006 46.1329852,18.102 50.6739852,18.41 C54.7909852,18.69 58.1259852,21.915 62.2109852,21.74 C65.6269852,21.594 68.0729852,19.207 70.9749852,17.75 C75.2809852,15.586 80.2519852,17.304 84.8579852,16.476 C88.0219852,15.908 91.1009852,14.915 94.1849852,13.968 C92.4719852,14.011 90.7599852,14.055 89.0459852,14.108 C88.3839852,14.285 87.7189852,14.46 87.0499852,14.63 C84.5939852,15.254 82.1069852,15.637 79.5679852,15.523 C77.6749852,15.438 75.7959852,15.099 73.9009852,15.391 C69.8619852,16.013 67.1309852,19.574 63.1719852,20.261 C59.2469852,20.943 55.7199852,17.743 51.8109852,17.293 C47.3469852,16.78 42.8019852,17.773 38.3469852,17.999 C28.2909852,18.509 18.3219852,20.244 8.23298519,19.656 C7.99698519,19.643 7.93798519,20.034 8.17598519,20.075" id="Fill-113" fill="#CD7433"></path>
                <path d="M105.687985,87.3 C105.455985,87.459 105.326985,87.779 105.493985,88.038 C107.979985,91.88 112.928985,91.727 117.833985,91.283 C117.858985,90.794 117.884985,90.313 117.911985,89.841 C115.884985,90.04 113.867985,90.235 111.937985,90.073 C110.899985,89.986 107.476985,89.665 107.114985,88.404 C106.609985,86.646 111.441985,86.364 112.571985,86.243 C114.448985,86.043 116.297985,85.903 118.145985,85.803 C118.166985,85.442 118.186985,85.078 118.207985,84.712 C116.881985,84.806 115.552985,84.937 114.215985,85.054 C111.163985,85.321 108.285985,85.524 105.687985,87.3" id="Fill-114" fill="#CD7433"></path>
                <path d="M8.23898519,52.427 C12.5579852,52.176 16.6949852,50.891 21.0039852,50.64 C24.9299852,50.412 28.9279852,50.71 32.8369852,50.318 C34.7179852,50.129 37.1539852,49.84 38.1489852,48.009 C38.3089852,47.713 38.1569852,47.398 37.8549852,47.288 C34.5629852,46.091 31.2689852,46.661 27.8679852,47.006 C23.9179852,47.405 19.8329852,47.707 15.8639852,47.874 C12.5339852,48.014 9.19598519,47.604 5.86798519,47.769 C5.82198519,48.163 5.77898519,48.558 5.73598519,48.953 C6.34798519,48.878 6.93698519,48.828 7.48998519,48.825 C11.6339852,48.798 15.6489852,49.038 19.7889852,48.628 C23.6759852,48.243 27.5789852,47.968 31.4709852,47.634 C32.3039852,47.563 37.5489852,47.198 36.3099852,48.51 C35.4269852,49.445 32.7979852,49.366 31.6519852,49.428 C28.1129852,49.62 24.5499852,49.514 21.0039852,49.685 C17.2119852,49.867 13.6119852,51.024 9.84898519,51.429 C8.56698519,51.567 6.98298519,51.833 5.43298519,51.892 C5.41098519,52.122 5.38898519,52.353 5.36698519,52.583 C6.36298519,52.569 7.35298519,52.479 8.23898519,52.427" id="Fill-115" fill="#CD7433"></path>
                <path d="M55.3499852,96.032 C52.6329852,94.557 49.0989852,94.093 46.0419852,93.903 C39.3619852,93.486 32.6559852,95.037 26.2609852,97.041 C27.1519852,97.079 28.0439852,97.113 28.9349852,97.149 C34.5529852,95.769 40.2249852,94.567 46.0419852,94.954 C49.5479852,95.188 52.9619852,95.911 55.8609852,97.798 C56.5459852,97.803 57.2319852,97.806 57.9159852,97.81 C57.1129852,97.163 56.2839852,96.541 55.3499852,96.032" id="Fill-116" fill="#CD7433"></path>
                <path d="M117.775985,92.407 C115.275985,92.442 112.787985,92.48 110.277985,92.721 C103.307985,93.39 96.2799852,93.911 89.3979852,95.245 C85.1779852,96.062 81.6269852,96.441 77.3969852,95.425 C74.6279852,94.76 72.5379852,94.34 69.7299852,95.13 C66.1299852,96.143 62.6789852,97.53 59.1039852,95.425 C57.0319852,94.206 55.9229852,92.069 53.6629852,91.217 C54.4649852,90.82 55.1909852,90.32 55.7909852,89.685 C57.7799852,87.578 57.2179852,85.897 55.4109852,84.57 C56.7769852,84.746 58.1409852,84.698 59.6379852,84.556 C63.3219852,84.207 65.7969852,84.233 69.0069852,86.336 C77.5059852,91.905 87.7429852,91.105 96.9669852,87.957 C102.494985,86.071 107.868985,83.858 113.504985,82.285 C115.130985,81.831 116.758985,81.44 118.396985,81.105 C118.413985,80.75 118.429985,80.388 118.445985,80.019 C116.676985,80.306 114.916985,80.649 113.188985,81.137 C107.942985,82.62 102.922985,84.621 97.8009852,86.46 C92.1749852,88.48 86.3649852,89.994 80.3479852,89.199 C77.3579852,88.804 74.1009852,88.098 71.4169852,86.65 C69.3969852,85.56 67.8109852,83.899 65.4999852,83.395 C63.1699852,82.887 60.8079852,83.478 58.4789852,83.635 C55.2739852,83.853 52.7139852,82.91 49.8939852,81.464 C47.7249852,80.351 45.6529852,79.091 43.2769852,78.465 C42.6749852,78.306 42.0689852,78.195 41.4599852,78.108 C42.2089852,77.906 42.9639852,77.714 43.7479852,77.602 C48.9829852,76.857 55.3189852,79.629 60.5039852,80.598 C64.2569852,81.299 68.1059852,81.808 71.9359852,81.7 C75.3059852,82.641 77.5469852,85.821 80.9129852,86.962 C83.9369852,87.987 87.2379852,87.876 90.3409852,87.308 C98.8469852,85.752 106.826985,80.888 115.479985,80.196 C116.079985,80.149 116.096985,79.228 115.479985,79.248 C111.702985,79.372 108.156985,80.894 104.559985,81.935 C100.705985,83.05 96.9859852,84.581 93.1249852,85.669 C88.5709852,86.952 83.5199852,87.66 79.1459852,85.352 C76.9759852,84.207 75.3499852,82.443 73.1299852,81.652 C73.6749852,81.617 74.2199852,81.573 74.7629852,81.509 C76.8999852,81.259 78.9939852,80.77 81.0609852,80.18 C83.6279852,79.448 86.4829852,77.661 89.0949852,77.499 C89.2709852,77.488 89.3889852,77.396 89.4619852,77.277 C90.9729852,77.067 92.5059852,76.925 94.0859852,76.928 C98.7589852,76.936 103.457985,76.941 108.128985,76.777 C108.237985,76.774 108.346985,76.765 108.455985,76.76 C105.812985,76.334 103.147985,75.996 100.522985,75.727 C98.3729852,75.733 96.2239852,75.723 94.0859852,75.721 C89.3879852,75.715 85.1629852,76.68 80.5979852,77.671 C77.3819852,78.368 74.5179852,78.738 71.2879852,77.946 C68.9909852,77.383 66.8299852,76.391 64.5539852,75.76 C59.5009852,74.359 54.2299852,74.413 49.1779852,72.833 C44.3809852,71.332 39.6459852,69.321 34.6369852,68.626 C29.7039852,67.941 24.9959852,69.078 20.1189852,69.594 C16.3229852,69.996 12.3009852,69.359 8.66398519,70.719 C8.40698519,70.815 8.50798519,71.22 8.77898519,71.136 C12.9299852,69.856 17.8289852,70.861 22.1449852,70.333 C27.4609852,69.682 32.3919852,69.034 37.6689852,70.364 C42.5749852,71.601 47.2349852,73.66 52.1439852,74.882 C57.1469852,76.128 62.2339852,76.17 67.1489852,77.877 C70.7629852,79.132 73.9579852,79.945 77.8029852,79.417 C79.7539852,79.149 81.6489852,78.759 83.5339852,78.367 C81.4589852,79.161 79.3149852,79.779 77.1319852,80.207 C71.2439852,81.36 65.2899852,80.611 59.4549852,79.509 C55.0849852,78.684 50.5299852,76.973 46.1009852,76.67 C44.2219852,76.541 42.5639852,77.037 40.7769852,77.534 C40.1799852,77.7 39.5969852,77.804 39.0189852,77.883 C37.7499852,77.814 36.4739852,77.789 35.2069852,77.689 C29.4259852,77.235 24.4329852,74.091 18.7239852,73.511 C13.8199852,73.013 9.18998519,75.275 4.33298519,75.421 C4.33298519,75.542 4.33298519,75.664 4.33498519,75.784 C9.93798519,75.87 15.2199852,73.329 20.8889852,74.644 C24.9779852,75.592 28.5959852,77.192 32.5559852,78.067 C34.0969852,78.523 35.6619852,78.884 37.2829852,78.88 C37.6899852,78.879 38.0859852,78.84 38.4779852,78.786 C41.3739852,79.037 44.0199852,79.511 46.7629852,80.889 C47.3439852,81.181 47.9159852,81.494 48.4859852,81.81 C44.4019852,80.796 40.1469852,80.319 38.9529852,80.209 C32.7489852,79.639 26.5649852,78.923 20.3649852,78.339 C15.0819852,77.841 9.65798519,78.912 4.37198519,78.695 C4.37598519,78.888 4.37898519,79.083 4.38298519,79.275 C7.50298519,79.372 10.6169852,79.012 13.7849852,78.898 C15.3159852,78.842 16.8369852,78.895 18.3539852,79.001 C18.7219852,78.934 19.0919852,78.864 19.4579852,78.806 C19.2329852,78.878 19.0089852,78.957 18.7849852,79.031 C22.1139852,79.287 25.4209852,79.807 28.7499852,80.168 C34.0219852,80.739 39.3469852,80.861 44.5869852,81.716 C46.8729852,82.088 49.2339852,82.559 51.4269852,83.359 C51.8469852,83.555 52.2719852,83.741 52.7079852,83.903 L52.9479852,83.983 C55.0859852,85.039 57.7079852,87.109 54.2149852,89.894 C53.4289852,90.521 51.8959852,90.889 50.9009852,91.137 C42.1239852,93.326 32.7729852,91.303 23.8629852,92.676 C18.6829852,93.475 13.4549852,94.791 8.33198519,95.922 C8.10698519,95.971 7.88198519,96.023 7.65798519,96.075 C8.74598519,96.141 9.83298519,96.21 10.9229852,96.273 C16.0699852,95.04 21.3739852,93.818 26.5369852,93.319 C32.8269852,92.711 39.1519852,93.294 45.4469852,92.862 C47.8019852,92.701 50.7339852,92.475 53.1209852,91.464 C53.1159852,91.566 53.1579852,91.665 53.2719852,91.716 C55.8569852,92.861 57.1649852,95.671 59.8319852,96.802 C61.5059852,97.513 63.4129852,97.68 65.2049852,97.439 C66.8739852,97.214 68.3739852,96.494 69.9919852,96.08 C72.5509852,95.425 74.6119852,95.762 77.1289852,96.398 C80.1509852,97.162 82.8759852,97.399 85.9969852,96.956 C93.6299852,95.871 101.169985,94.778 108.857985,94.036 C111.829985,93.749 114.756985,93.634 117.718985,93.589 C117.737985,93.187 117.756985,92.793 117.775985,92.407" id="Fill-117" fill="#CD7433"></path>
                <path d="M35.0729852,26.449 C36.5949852,26.725 38.4769852,26.442 39.6779852,26.462 C40.1719852,26.469 40.2729852,25.843 39.9139852,25.591 C38.8829852,24.864 37.7369852,24.406 36.5419852,24.16 C34.7969852,23.583 32.9039852,23.433 31.1439852,24.021 C30.9499852,24.086 30.8209852,24.238 30.7659852,24.41 C30.3199852,24.526 30.1869852,25.184 30.6079852,25.384 C31.9339852,26.01 33.5269852,26.458 35.0729852,26.449" id="Fill-118" fill="#CD7433"></path>
                <path d="M16.8249852,28.109 C13.6209852,28.3 10.4979852,28.273 7.36098519,28.158 C7.40798519,28.809 7.45398519,29.46 7.50098519,30.111 C15.1369852,30.68 23.2809852,28.78 30.7829852,29.683 C32.0039852,29.83 33.2179852,30.018 34.4299852,30.222 C32.1289852,30.856 29.5959852,30.606 27.2409852,31.13 C24.6609852,31.704 22.3309852,32.337 19.6609852,32.208 C19.1639852,32.184 18.6799852,32.171 18.2009852,32.166 C19.4549852,32.47 20.6949852,32.828 21.9149852,33.247 C24.9959852,32.968 27.8839852,31.991 31.0469852,31.765 C32.7499852,31.643 34.8729852,31.671 36.1999852,30.53 C39.1469852,31.053 42.0889852,31.607 45.0749852,31.848 C49.6639852,32.218 53.9259852,31.433 58.3729852,30.372 C68.8249852,27.879 78.6839852,25.181 89.5249852,25.111 C94.1549852,25.08 98.8879852,25.289 103.477985,24.564 C105.896985,24.182 108.193985,23.368 110.554985,22.754 C112.754985,22.182 114.791985,22.078 116.956985,22.113 L116.956985,20.561 C115.390985,20.454 113.826985,20.388 112.308985,20.271 C106.841985,19.851 101.285985,19.546 95.8079852,19.849 C84.9449852,20.448 74.1199852,22.072 63.3869852,23.757 C57.7669852,24.638 51.3609852,25.65 45.8989852,23.572 C41.3459852,21.841 37.7949852,21.126 32.8559852,21.239 C27.6879852,21.359 22.6059852,22.176 17.4209852,22.172 C14.5899852,22.169 9.33298519,22.96 6.84998519,21.005 C6.86998519,21.276 6.88898519,21.548 6.90798519,21.819 C8.35098519,22.745 10.3589852,22.83 12.0169852,22.907 C16.2809852,23.106 20.6469852,23.162 24.8959852,22.766 C30.4529852,22.248 36.6459852,21.198 42.0729852,22.985 C44.3839852,23.746 46.4529852,24.947 48.8789852,25.357 C51.2599852,25.759 53.7739852,25.694 56.1739852,25.545 C61.3759852,25.224 66.4899852,24.159 71.6339852,23.391 C77.7509852,22.477 83.9829852,21.977 90.1389852,21.374 C96.2189852,20.778 102.189985,20.835 108.280985,21.164 C109.412985,21.225 110.590985,21.266 111.786985,21.31 C110.133985,21.577 108.475985,21.961 106.669985,22.42 C101.518985,23.728 96.1909852,23.585 90.9139852,23.597 C80.6089852,23.622 71.2629852,25.521 61.3159852,28.057 C56.1779852,29.367 51.0649852,30.707 45.7189852,30.349 C40.7549852,30.017 35.9159852,28.754 30.9869852,28.15 C26.2669852,27.572 21.5569852,27.827 16.8249852,28.109" id="Fill-119" fill="#CD7433"></path>
                <path d="M82.4499852,28.469 C79.3729852,28.489 60.1469852,27.723 59.4779852,34.241 C54.5459852,34.36 49.8239852,34.111 44.9319852,35.023 C39.1999852,36.091 33.3969852,37.819 27.5079852,37.291 C22.4889852,36.841 18.3949852,35.53 13.2629852,36.382 C11.1839852,36.728 9.18898519,37.376 7.20898519,38.073 C7.16498519,38.343 7.12198519,38.614 7.07898519,38.886 C8.18098519,38.495 9.29198519,38.121 10.4269852,37.82 C13.4589852,37.018 16.6819852,36.593 19.8209852,36.824 C22.4349852,37.016 24.9029852,37.936 27.5079852,38.191 C32.3799852,38.666 37.2009852,37.614 41.9459852,36.655 C47.9329852,35.446 53.5019852,35.455 59.5359852,35.313 L59.5729852,35.555 C60.1539852,37.968 63.7909852,38.57 65.7769852,38.86 C71.2219852,39.655 76.6809852,38.06 82.1219852,37.895 C89.2709852,37.678 96.2349852,40.008 103.438985,39.965 C104.130985,39.961 104.817985,39.943 105.504985,39.926 C109.089985,38.853 113.289985,38.491 116.591985,38.605 C116.591985,38.322 116.623985,38.108 116.667985,37.918 C113.407985,38.244 110.146985,38.515 106.816985,38.59 C100.224985,38.737 94.1579852,37.791 87.6619852,36.89 C82.3059852,36.147 77.1219852,37.143 71.7949852,37.605 C69.0609852,37.842 64.0009852,38.322 61.7549852,36.281 C57.0219852,31.981 71.8059852,30.197 73.8649852,30.055 C80.0449852,29.628 86.2469852,29.66 92.4329852,29.932 C100.629985,30.292 108.846985,31.061 116.956985,30.21 L116.956985,29.032 C105.466985,29.842 94.1109852,28.397 82.4499852,28.469" id="Fill-120" fill="#CD7433"></path>
                <path d="M52.2359852,55.478 C52.0889852,54.604 52.6509852,53.742 54.3429852,53.253 C57.4609852,52.351 62.8889852,53.578 65.6319852,55.238 C67.0729852,56.11 67.6939852,57.856 65.6919852,58.336 C64.4849852,58.625 63.1639852,58.588 61.9269852,58.546 C59.6529852,58.468 57.1509852,58.755 54.9579852,58.01 C53.5349852,57.527 52.4069852,56.494 52.2359852,55.478 Z M51.0759852,56.064 C51.3219852,56.598 51.8229852,57.152 52.6439852,57.701 C55.8979852,59.877 60.8299852,59.948 64.5769852,59.613 C67.6359852,59.339 70.1139852,57.364 66.9509852,54.738 C64.3649852,52.591 58.9489852,52.191 55.7679852,52.22 C52.9579852,52.246 50.1269852,54.006 51.0759852,56.064 L51.0759852,56.064 Z" id="Fill-121" fill="#CD7433"></path>
                <path d="M16.7059852,87.164 C12.6489852,84.862 7.84798519,86.429 3.31898519,87.534 C3.29898519,87.838 3.28198519,88.143 3.26798519,88.45 C4.69298519,88.176 6.10698519,87.786 7.50698519,87.489 C9.50498519,87.065 11.9359852,86.427 13.9709852,86.985 C17.3469852,87.909 13.2339852,89.272 11.6769852,89.71 C9.01798519,90.459 6.03698519,90.512 3.21098519,90.945 C3.20998519,91.288 3.21198519,91.63 3.21698519,91.971 C7.99898519,91.153 13.1629852,91.424 16.7929852,87.837 C16.9869852,87.644 16.9449852,87.299 16.7059852,87.164" id="Fill-122" fill="#CD7433"></path>
                <path d="M15.2439852,42.408 C17.7509852,42.463 20.2299852,42.829 22.7409852,42.71 C25.3119852,42.588 27.8509852,42.132 30.4129852,41.912 C33.1849852,41.673 35.8669852,41.741 38.5699852,42.497 C40.4659852,43.028 42.2619852,43.63 44.2419852,43.759 C49.1859852,44.084 53.9969852,42.458 58.9689852,42.863 C64.0029852,43.273 68.8839852,44.723 73.9499852,45.082 C79.1919852,45.453 84.4499852,45.313 89.6959852,45.111 C98.0039852,44.791 106.475985,44.863 114.791985,44.093 C114.758985,43.555 114.721985,43.016 114.691985,42.479 C111.285985,42.629 107.785985,43.129 104.512985,43.206 C99.3419852,43.327 94.1759852,43.647 89.0079852,43.861 C83.7659852,44.077 78.5059852,44.215 73.2689852,43.817 C68.2189852,43.433 63.3409852,41.92 58.3009852,41.633 C53.5619852,41.364 48.9559852,42.934 44.2419852,42.624 C41.4769852,42.442 39.0039852,41.242 36.2869852,40.859 C34.3319852,40.584 32.3749852,40.64 30.4129852,40.819 C25.4629852,41.268 20.9199852,41.57 15.9519852,41.403 C12.8529852,41.299 9.74998519,41.488 6.64898519,41.731 C6.60198519,42.059 6.55198519,42.383 6.50598519,42.713 C9.41698519,42.547 12.3259852,42.344 15.2439852,42.408" id="Fill-123" fill="#CD7433"></path>
                <path d="M89.7639852,83.563 C88.3709852,83.724 86.7999852,83.793 85.3469852,83.522 C85.4259852,83.294 85.3529852,83.015 85.0609852,82.956 C83.6559852,82.674 85.1559852,82.206 85.8139852,81.874 C86.5589852,81.498 87.3469852,81.134 88.1499852,80.9 C89.2989852,80.564 96.1709852,79.513 95.9719852,81.042 C95.7489852,82.748 91.0229852,83.419 89.7639852,83.563 Z M85.3079852,81.007 C84.3879852,81.474 83.3489852,82.396 83.3089852,83.06 L83.3379852,83.281 C83.4149852,83.499 83.6439852,83.67 84.0819852,83.76 C87.7919852,85.709 96.1709852,84.694 97.3089852,80.438 C97.3789852,80.174 97.2209852,79.921 96.9679852,79.839 C93.2579852,78.63 88.7649852,79.254 85.3079852,81.007 L85.3079852,81.007 Z" id="Fill-124" fill="#CD7433"></path>
                <path d="M20.5799852,91.377 C23.8419852,91.13 30.4459852,90.503 32.2519852,87.236 C35.0349852,82.201 25.9049852,82.474 23.5989852,82.638 C19.3029852,82.944 14.9309852,82.9 10.6579852,83.401 C8.53198519,83.65 6.16498519,84.195 3.81498519,84.45 L3.62498519,84.514 C3.59098519,84.748 3.56598519,84.993 3.53598519,85.233 C6.76298519,85.005 10.0979852,84.155 13.0449852,84.047 C16.8369852,83.907 20.6129852,83.689 24.3989852,83.431 C25.9979852,83.322 28.0039852,83.049 29.5539852,83.576 C32.8639852,84.702 31.7819852,87.125 29.5839852,88.292 C24.5539852,90.964 18.4879852,90.398 13.0379852,90.825 C9.59798519,91.095 6.44598519,91.967 3.23998519,93.02 C3.24998519,93.317 3.26598519,93.608 3.27998519,93.901 C3.56498519,93.801 3.84898519,93.701 4.13298519,93.602 C9.59398519,91.699 14.9109852,91.806 20.5799852,91.377" id="Fill-125" fill="#CD7433"></path>
                <path d="M60.3259852,56.184 C59.9199852,55.651 59.3719852,55.15 58.7989852,54.923 C57.3579852,54.35 56.7049852,54.973 55.6409852,55.024 C54.0949852,55.098 56.1009852,56.515 56.4269852,56.719 C57.5229852,57.401 59.7899852,57.486 60.7629852,56.873 C60.6499852,56.651 60.5019852,56.414 60.3259852,56.184" id="Fill-126" fill="#CD7433"></path>
                <path d="M107.470985,32.493 C103.555985,32.41 99.6419852,31.866 95.7439852,31.52 C93.9319852,31.359 81.8599852,29.684 82.2029852,33.202 C82.6459852,37.739 93.9679852,36.582 96.4199852,36.637 C100.526985,36.73 104.644985,36.73 108.748985,36.884 C111.433985,36.986 114.121985,37.256 116.809985,37.412 C116.887985,37.153 116.956985,36.878 116.956985,36.453 L116.956985,36.162 C111.955985,35.898 106.958985,35.697 101.942985,35.602 C100.284985,35.571 82.5629852,35.956 83.9229852,32.68 C84.3749852,31.592 92.6739852,32.312 93.7709852,32.383 C96.8289852,32.583 99.8759852,32.937 102.929985,33.186 C107.320985,33.544 112.354985,33.801 116.956985,33.259 L116.956985,32.373 C113.818985,32.661 110.461985,32.556 107.470985,32.493" id="Fill-127" fill="#CD7433"></path>
                <path d="M11.5329852,53.874 C15.0949852,53.513 18.6359852,52.58 22.2089852,52.46 C25.0059852,52.366 27.7809852,52.743 30.5469852,53.146 L30.6589852,53.273 C32.2729852,53.873 34.0129852,54.375 35.4519852,55.341 C37.1539852,56.482 38.0789852,58.281 39.3169852,59.841 C40.7639852,61.664 42.6679852,63.017 44.7789852,63.981 C45.5569852,64.336 46.3549852,64.62 47.1649852,64.856 C47.0099852,64.832 46.8579852,64.802 46.7019852,64.782 C43.6979852,64.394 40.6659852,64.812 37.6809852,65.159 C34.9609852,65.476 32.1159852,65.913 29.3639852,65.784 C29.1539852,65.775 28.9559852,65.757 28.7619852,65.737 L28.8509852,65.651 C28.9709852,65.521 28.7799852,65.329 28.6559852,65.456 C28.5699852,65.545 28.4639852,65.617 28.3469852,65.679 C25.4669852,65.227 24.4159852,63.514 22.0069852,61.919 C18.7369852,59.754 14.3589852,60.755 10.8149852,61.575 C8.74598519,62.054 6.67698519,62.529 4.61798519,63.034 C4.59898519,63.412 4.58198519,63.79 4.56498519,64.168 C6.40198519,63.745 8.24298519,63.333 10.0859852,62.904 C12.9039852,62.248 16.1229852,61.34 19.0379852,61.965 C21.3619852,62.463 22.5149852,64.24 24.1929852,65.529 C22.7549852,65.236 21.3369852,64.896 20.4919852,64.968 C17.7469852,65.2 15.3499852,66.479 12.8699852,67.55 C10.0979852,68.748 7.28598519,69.223 4.38798519,69.44 C4.37898519,69.805 4.36998519,70.173 4.36298519,70.537 C7.02098519,70.365 9.62698519,69.988 12.1619852,68.986 C16.1589852,67.407 19.3439852,65.402 23.8269852,66.164 C24.6279852,66.3 25.3789852,66.507 26.0889852,66.589 C29.9149852,68.044 35.1859852,66.673 38.9719852,66.263 C42.3809852,65.894 45.5719852,65.712 48.9479852,66.528 C51.3779852,67.116 53.7089852,68.132 56.2319852,68.287 C59.3059852,68.476 62.2829852,67.445 65.3229852,67.219 C68.5739852,66.978 71.9949852,67.355 75.0759852,68.421 C77.9409852,69.411 80.4529852,70.689 83.4609852,71.321 C86.3589852,71.93 89.3319852,72.46 92.2639852,72.868 C97.6279852,73.613 102.967985,72.482 108.208985,71.441 C110.936985,70.899 113.592985,70.245 116.268985,69.489 C116.686985,69.371 117.091985,69.266 117.491985,69.17 C117.424985,68.74 117.357985,68.312 117.292985,67.882 C114.780985,68.487 112.326985,69.319 109.787985,69.834 C102.488985,71.317 96.1729852,72.241 88.7829852,70.963 C85.8879852,70.462 82.9459852,70.095 80.1559852,69.132 C77.3179852,68.153 74.8509852,66.803 71.8419852,66.296 C65.8169852,65.28 59.7789852,67.934 53.9289852,66.631 C52.4609852,66.303 51.0419852,65.817 49.6009852,65.411 C53.7339852,66.11 58.1119852,65.757 62.2279852,65.661 C65.9939852,65.574 69.3489852,64.927 72.5829852,63.702 C72.7619852,63.802 72.9419852,63.903 73.1219852,64.003 C73.3179852,64.113 73.4709852,63.871 73.3469852,63.712 C73.1879852,63.508 77.1609852,63.842 77.5499852,63.948 C78.8119852,64.293 79.9979852,64.869 81.2009852,65.37 C82.7539852,66.017 84.2849852,66.65 85.9619852,66.919 C89.7879852,67.532 93.6739852,66.634 97.5109852,66.578 C104.082985,66.482 110.684985,67.401 117.266985,67.716 C117.189985,67.201 117.110985,66.685 117.035985,66.169 C110.088985,65.64 103.032985,65.246 96.2079852,65.541 C91.5089852,65.745 87.2149852,66.641 82.6529852,64.914 C80.0179852,63.917 77.6359852,62.742 74.9899852,62.67 C76.1979852,62.094 77.3999852,61.443 78.6089852,60.696 C81.9489852,58.633 85.5219852,58.716 89.3309852,58.611 C93.0019852,58.511 100.665985,57.614 104.315985,57.566 C104.654985,57.561 100.820985,57.718 100.798985,57.465 C106.010985,58.523 111.178985,60.132 116.367985,61.169 C116.327985,60.851 116.288985,60.533 116.250985,60.215 C114.799985,59.924 113.375985,59.612 112.013985,59.353 C108.243985,58.638 104.571985,57.575 100.833985,56.724 C97.1199852,55.879 93.5709852,55.715 89.7849852,55.551 C83.8219852,55.292 78.4679852,53.869 73.0929852,52.007 C80.2649852,52.776 87.4989852,53.577 94.7169852,53.074 C98.4309852,52.816 101.920985,51.449 105.563985,50.799 C108.792985,50.221 112.017985,50.379 115.251985,50.551 C115.218985,50.156 115.190985,49.763 115.159985,49.368 C112.336985,49.218 109.507985,49.12 106.708985,49.493 C102.836985,50.009 99.1729852,51.517 95.2819852,51.911 C90.9989852,52.344 86.5389852,51.885 82.2299852,51.877 C78.3589852,51.869 74.4579852,51.075 70.6029852,51.117 C69.3209852,50.646 68.0329852,50.158 66.7299852,49.659 C63.9899852,48.611 60.9309852,47.551 57.9899852,48.327 C55.0249852,49.109 51.9379852,50.887 49.2069852,52.245 C49.0729852,52.312 49.1669852,52.543 49.3099852,52.49 C52.7019852,51.254 57.2459852,48.669 60.7619852,48.888 C63.6789852,49.071 66.4199852,50.271 69.1169852,51.457 C69.1449852,51.533 69.1999852,51.6 69.3069852,51.611 L69.5149852,51.632 C70.4279852,52.032 71.3369852,52.426 72.2449852,52.772 C79.8059852,55.646 87.0799852,55.844 94.9829852,56.575 C95.9739852,56.667 96.9619852,56.796 97.9499852,56.95 C95.3169852,57.012 92.6319852,57.402 90.0199852,57.462 C87.2859852,57.526 84.2599852,57.333 81.5869852,58.029 C78.9929852,58.703 76.9179852,60.587 74.5629852,61.791 C71.0649852,63.58 67.3809852,64.387 63.4749852,64.619 C56.8159852,65.015 49.0549852,65.917 43.1229852,62.241 C40.2649852,60.471 39.1569852,57.485 36.6539852,55.461 C35.3909852,54.439 33.8239852,53.889 32.2699852,53.396 C32.7069852,53.459 33.1429852,53.52 33.5789852,53.578 C39.0239852,54.297 44.3029852,54.393 49.4089852,52.108 C51.0109852,51.391 53.9479852,49.988 52.8139852,47.778 C51.0109852,44.266 43.3389852,44.904 40.2569852,44.733 C32.7739852,44.318 25.4789852,44.77 18.0159852,45.356 C16.0259852,45.513 10.8929852,46.486 5.97998519,46.831 C5.94498519,47.122 5.90898519,47.412 5.87598519,47.704 C6.64098519,47.631 7.31498519,47.555 7.83998519,47.506 C18.2649852,46.535 28.6899852,45.258 39.1769852,45.868 C42.1009852,46.038 45.2239852,45.894 48.0829852,46.595 C50.1709852,47.108 52.8539852,48.295 50.3839852,50.3 C49.7179852,50.841 48.3199852,51.308 47.5979852,51.579 C41.3179852,53.938 35.0329852,52.529 28.6159852,51.733 C22.2159852,50.94 16.4919852,52.318 10.1509852,52.866 C8.53998519,53.005 6.92598519,53.102 5.31198519,53.175 C5.27698519,53.554 5.24298519,53.933 5.20998519,54.313 C7.32098519,54.219 9.42898519,54.086 11.5329852,53.874" id="Fill-128" fill="#CD7433"></path>
                <path d="M22.6459852,33.403 C22.5179852,33.387 22.3929852,33.385 22.2649852,33.376 C22.5069852,33.461 22.7479852,33.551 22.9879852,33.641 C22.9359852,33.523 22.8239852,33.425 22.6459852,33.403" id="Fill-129" fill="#E8BFA1"></path>
                <path d="M4.45998519,81.893 C4.71498519,81.852 4.97398519,81.801 5.23098519,81.757 C5.29698519,75.853 5.09498519,69.991 5.57998519,64.086 C5.77898519,61.672 5.98898519,59.26 6.18898519,56.849 L6.24198519,56.721 C7.51198519,50.654 8.20498519,44.272 7.63498519,38.081 C7.71998519,38.097 7.81298519,38.097 7.91398519,38.075 C10.4579852,37.509 13.0269852,37.033 15.4939852,36.174 C17.2149852,35.574 18.8599852,34.969 20.5939852,34.561 C16.1749852,35.469 11.7549852,36.378 7.33498519,37.286 C6.33998519,43.239 5.58398519,49.549 5.07698519,55.926 L5.12198519,56.189 C5.02398519,57.346 4.91198519,58.503 4.80698519,59.66 C4.32498519,67.207 4.19998519,74.774 4.45998519,81.893" id="Fill-130" fill="#E8BFA1"></path>
                <path d="M3.79498519,95.839 C3.86898519,93.513 4.03898519,91.169 3.94998519,88.843 C4.01698519,87.534 4.00598519,86.227 3.80498519,84.929 C6.09598519,85.02 7.86598519,83.911 9.86598519,82.904 C12.9879852,81.331 16.3689852,80.845 19.5559852,79.545 C19.8689852,79.418 19.8649852,78.902 19.4699852,78.9108837 C19.3359852,78.914 19.2009852,78.929 19.0659852,78.937 C13.9049852,80.627 8.78898519,82.852 3.62498519,84.514 C3.11598519,88.045 3.10798519,92.258 3.39998519,95.814 C3.53198519,95.823 3.66398519,95.83 3.79498519,95.839" id="Fill-131" fill="#E8BFA1"></path>
                <path d="M105.386985,76.577 C109.016985,77.257 112.568985,78.46 116.199985,79.119 C116.132985,83.185 115.485985,87.486 116.047985,91.565 C115.933985,92.875 115.805985,94.18 115.753985,95.493 C116.070985,95.464 116.388985,95.439 116.706985,95.409 C116.719985,95.153 116.727985,94.896 116.746985,94.64 C116.828985,94.889 116.924985,95.135 117.020985,95.382 C117.227985,95.362 117.435985,95.346 117.642985,95.327 C117.739985,92.962 117.848985,90.932 117.960985,88.984 C117.769985,85.716 117.628985,82.452 118.378985,79.247 L118.487985,79.034 L118.490985,78.964 C114.311985,77.726 109.748985,76.887 105.189985,76.279 C105.159985,76.408 105.210985,76.544 105.386985,76.577" id="Fill-132" fill="#E8BFA1"></path>
                <path d="M112.487985,42.16 C110.523985,42.007 108.533985,41.818 106.543985,41.629 C106.533985,41.754 106.586985,41.876 106.736985,41.941 C108.781985,42.839 111.170985,43.186 113.448985,43.51 C113.411985,44.63 113.473985,45.738 113.594985,46.839 C113.684985,48.425 113.809985,50.008 113.956985,51.588 C114.063985,53.524 114.274985,55.457 114.549985,57.386 C114.661985,58.441 114.773985,59.497 114.876985,60.554 C115.345985,65.345 115.733985,70.114 116.978985,74.765 C117.458985,74.754 117.938985,74.743 118.418985,74.732 C116.524985,64.195 115.294985,53.376 114.704985,42.683 C113.985985,42.466 113.243985,42.298 112.487985,42.16" id="Fill-133" fill="#E8BFA1"></path>
                <path d="M22.8689852,34.093 C22.5109852,34.167 22.1529852,34.24 21.7949852,34.314 C22.0759852,34.265 22.3589852,34.221 22.6459852,34.186 C22.7399852,34.174 22.8099852,34.138 22.8689852,34.093" id="Fill-134" fill="#E8BFA1"></path>
                <path d="M115.967985,14.81 L116.142985,14.775 C115.892985,22.699 116.088985,30.665 116.114985,38.594 C116.273985,38.598 116.436985,38.599 116.591985,38.605 C116.591985,37.627 116.956985,37.43 116.956985,36.453 L116.956985,13.721 C94.3659852,13.59 71.6269852,14.674 48.9349852,15.994 C48.6609852,16.044 48.3899852,16.095 48.1119852,16.145 C48.0169852,16.162 47.9199852,16.174 47.8239852,16.191 C47.9219852,16.143 48.0159852,16.09 48.1129852,16.041 C34.2659852,16.85 20.4369852,17.742 6.67098519,18.496 C6.96798519,22.656 7.26598519,26.816 7.56298519,30.975 C7.82598519,30.97 8.08898519,30.98 8.35298519,30.981 C8.21798519,29.113 7.90798519,27.254 7.62698519,25.394 C7.68798519,23.14 7.84998519,20.875 7.29398519,18.669 C16.1029852,18.687 24.8809852,18.809 33.6939852,18.671 C38.0279852,18.603 42.3909852,18.531 46.6899852,17.928 C51.2119852,17.295 55.4069852,16.192 60.0249852,16.291 C78.6829852,16.691 97.2909852,14.766 115.967985,14.81" id="Fill-135" fill="#E8BFA1"></path>
                <path d="M15.7969852,79.497 C16.7089852,79.305 17.6129852,79.132 18.5099852,78.973 C17.6039852,79.065 16.6959852,79.254 15.7969852,79.497" id="Fill-136" fill="#E8BFA1"></path>
                <path d="M110.819985,41.509 C103.685985,41.039 95.4139852,41.683 88.3069852,42.532 C84.9779852,42.929 81.7159852,43.781 78.3769852,44.104 C74.6559852,44.465 70.8039852,44.343 67.0799852,44.102 C60.0579852,43.647 53.7129852,40.256 46.6799852,40.831 C39.3819852,41.428 32.1509852,40.389 24.8449852,40.628 C24.5219852,40.639 24.5229852,41.115 24.8449852,41.13 C31.8819852,41.457 38.9799852,42.346 46.0139852,41.803 C53.2589852,41.244 59.8619852,44.509 67.0799852,45.093 C73.7989852,45.635 79.9719852,44.884 86.5789852,43.896 C94.4619852,42.718 102.432985,44.041 110.348985,43.566 C110.977985,43.528 111.446985,41.55 110.819985,41.509" id="Fill-137" fill="#E8BFA1"></path>
                <path d="M108.739985,41.684 C107.838985,41.299 106.652985,41.59 105.707985,41.671 C105.468985,41.691 105.468985,42.021 105.707985,42.042 C106.652985,42.122 107.838985,42.414 108.739985,42.029 C108.869985,41.972 108.869985,41.74 108.739985,41.684" id="Fill-138" fill="#E8BFA1"></path>
                <path d="M110.898985,77.462 C107.461985,74.676 99.3409852,77.141 95.4819852,77.565 C87.2829852,78.464 78.9829852,80.113 70.9749852,82.074 C66.7979852,83.097 62.6549852,84.37 58.3719852,84.873 C53.9759852,85.389 50.1139852,83.993 46.0269852,82.557 C38.7619852,80.005 31.1859852,79.697 23.6239852,78.722 C23.3259852,78.683 23.2559852,79.191 23.5519852,79.248 C30.9549852,80.672 38.5749852,81.083 45.7349852,83.618 C48.7129852,84.673 51.7329852,85.881 54.9119852,86.143 C58.3719852,86.427 61.9659852,85.533 65.3059852,84.738 C73.1449852,82.874 80.9689852,81.154 88.9189852,79.803 C92.9149852,79.124 96.9299852,78.75 100.944985,78.226 C104.191985,77.802 107.254985,77.352 110.478985,78.186 C110.866985,78.286 111.252985,77.748 110.898985,77.462" id="Fill-139" fill="#E8BFA1"></path>
                <path d="M108.321985,76.253 C107.960985,76.077 107.580985,75.978 107.191985,75.917 L107.079985,75.8 C105.529985,74.885 103.352985,74.396 101.553985,74.421 L101.424985,74.488 C99.8769852,74.216 98.4019852,74.762 96.6649852,75.15 C96.1769852,75.258 95.6859852,75.352 95.1929852,75.436 L95.1429852,75.445 C91.6549852,76.033 88.0659852,76.093 84.5729852,76.829 C76.0159852,78.632 67.3679852,80.286 58.6079852,80.592 C44.3789852,81.089 28.8109852,74.353 15.0109852,79.986 C14.7409852,80.096 14.8369852,80.518 15.1349852,80.436 C21.2199852,78.771 27.2949852,78.887 33.3759852,79.538 C33.3919852,79.635 33.4529852,79.721 33.5659852,79.743 C43.2089852,81.658 53.4659852,86.193 63.4069852,84.452 C68.6849852,83.528 73.7129852,81.501 78.9659852,80.406 C83.9999852,79.358 89.4719852,78.503 94.3759852,76.779 C96.8979852,76.301 99.7129852,75.589 101.951985,75.953 C102.703985,76.411 103.591985,76.539 104.466985,76.624 C105.669985,76.741 106.943985,76.886 108.149985,76.887 C108.471985,76.887 108.634985,76.405 108.321985,76.253" id="Fill-140" fill="#A55100"></path>
                <path d="M113.184985,76.007 C106.679985,73.931 99.1699852,75.375 92.6029852,76.54 C84.9699852,77.895 77.4989852,79.982 69.8919852,81.459 C65.8489852,82.245 62.0139852,83.657 57.8369852,83.696 C53.7659852,83.734 49.8759852,82.53 46.0179852,81.365 C42.9189852,80.429 39.8209852,79.551 36.5829852,79.279 C33.3029852,79.004 30.0459852,79.07 26.7879852,78.751 C25.2439852,77.93 22.6589852,78.157 21.1399852,78.599 C20.9989852,78.641 20.9939852,78.852 21.1399852,78.891 C22.0179852,79.123 22.9259852,78.995 23.8239852,78.988 C23.9559852,78.987 24.0799852,78.999 24.2079852,79.003 L24.2749852,79.04 C27.2719852,80.035 30.3639852,80.12 33.4929852,80.253 C37.7549852,80.434 41.6349852,81.272 45.6939852,82.54 C52.6959852,84.727 58.6419852,85.725 65.8549852,83.918 C73.0759852,82.109 80.4439852,80.57 87.7309852,79.005 C96.3039852,77.163 104.317985,76.427 113.036985,77.107 C113.688985,77.157 113.763985,76.191 113.184985,76.007" id="Fill-141" fill="#853900"></path>
                <path d="M111.081985,38.454 C109.835985,38.523 108.636985,38.934 107.418985,39.187 C105.873985,39.508 104.349985,39.651 102.775985,39.682 C102.664985,39.684 102.593985,39.77 102.570985,39.864 C89.3009852,41.191 75.7819852,40.697 62.4739852,40.383 C48.3249852,40.049 34.1989852,39.665 20.0739852,40.827 C19.4089852,40.882 19.4179852,40.606 20.0739852,40.827 C22.9069852,41.778 28.4969852,41.434 31.4409852,41.293 C34.9119852,41.127 35.4989852,42.139 38.9709852,42.012 C42.9939852,41.866 46.9929852,41.625 50.9909852,41.54 C55.5869852,42.127 60.1329852,43.104 64.7419852,43.614 C69.8849852,44.184 75.1219852,44.389 80.2619852,43.684 C83.5819852,43.229 87.0029852,42.921 90.3579852,42.443 C95.8009852,42.578 101.307985,42.83 106.616985,42.08 L106.791985,42.057 C107.306985,41.982 107.357985,41.492 107.148985,41.136 C107.995985,40.909 108.885985,40.732 109.687985,40.405 C109.870985,40.33 109.902985,40.155 109.829985,40.025 C109.959985,39.968 110.096985,39.923 110.220985,39.856 C110.415985,39.751 110.334985,39.41 110.104985,39.427 C109.902985,39.443 109.698985,39.466 109.496985,39.484 C110.098985,39.301 110.676985,39.098 111.195985,38.876 C111.405985,38.787 111.295985,38.442 111.081985,38.454" id="Fill-142" fill="#A55100"></path>
                <path d="M121.171985,41.446 C120.474985,40.839 119.707985,40.324 118.985985,39.752 C118.625985,39.403 118.280985,39.036 117.924985,38.672 C117.538985,38.277 117.044985,38.661 117.069985,39.093 C116.719985,38.941 116.363985,38.799 115.993985,38.676 C115.409985,38.485 115.001985,39.414 115.569985,39.681 C115.674985,39.731 115.773985,39.785 115.876985,39.836 C115.909985,39.973 115.982985,40.102 116.111985,40.186 L116.350985,40.35 C115.925985,40.221 115.502985,40.085 115.070985,39.959 C114.391985,39.76 114.145985,40.712 114.727985,41 C114.462985,41.03 114.201985,41.067 113.944985,41.119 L113.842985,41.185 C113.965985,41.096 114.052985,41.033 114.052985,41.033 C114.090985,40.987 110.282985,41.399 108.348985,41.579 C102.932985,41.164 107.252985,41.423 107.247985,41.399 L112.791985,39.966 C112.198985,40.035 109.018985,40.677 109.687985,40.405 C109.870985,40.33 109.902985,40.155 109.829985,40.025 C109.959985,39.968 110.096985,39.923 110.220985,39.856 C110.415985,39.751 110.334985,39.41 110.104985,39.427 C109.902985,39.443 109.698985,39.466 109.496985,39.484 C110.098985,39.301 110.676985,39.098 111.195985,38.876 C111.405985,38.787 116.591985,38.605 111.081985,38.454 C109.833985,38.42 108.636985,38.934 107.418985,39.187 C106.983985,39.277 106.550985,39.35 106.117985,39.414 L106.031985,39.425 C105.615985,39.484 105.198985,39.532 104.780985,39.57 L104.616985,39.604 C103.956985,39.642 103.296985,39.691 102.636985,39.744 L102.570985,39.864 C101.670985,39.954 100.768985,40.034 99.8659852,40.108 C99.6699852,40.124 99.4729852,40.137 99.2769852,40.153 C98.5429852,40.21 97.8079852,40.264 97.0729852,40.311 C96.9189852,40.321 96.7639852,40.33 96.6089852,40.34 C95.8039852,40.389 94.9979852,40.434 94.1909852,40.473 L93.9759852,40.484 C93.0739852,40.527 92.1719852,40.564 91.2689852,40.594 C91.1699852,40.611 91.0689852,40.627 90.9699852,40.645 C88.4949852,40.686 86.0239852,40.725 83.5539852,40.734 C80.2159852,41.504 76.8749852,42.716 73.6429852,43.064 C66.8039852,43.801 60.1699852,42.03 53.5039852,40.848 C53.1409852,40.784 53.0069852,41.269 53.3519852,41.398 C54.2309852,41.729 55.1389852,42.026 56.0589852,42.305 C56.9049852,42.446 57.7499852,42.587 58.5959852,42.727 C59.0519852,42.802 59.5079852,42.876 59.9649852,42.949 C60.2119852,42.988 60.4579852,43.026 60.7049852,43.065 C61.1619852,43.135 61.6189852,43.203 62.0769852,43.268 C62.2959852,43.3 62.5159852,43.332 62.7349852,43.363 C63.4029852,43.454 64.0719852,43.54 64.7419852,43.614 C65.5299852,43.701 66.3199852,43.777 67.1109852,43.844 C67.2749852,43.859 67.4389852,43.87 67.6029852,43.883 C68.3179852,43.941 69.0349852,43.99 69.7519852,44.028 L69.9849852,44.041 C71.6879852,44.124 73.3949852,44.15 75.0969852,44.098 C75.2279852,44.078 75.3569852,44.075 75.4849852,44.084 C77.0819852,44.024 78.6769852,43.901 80.2619852,43.684 C83.5819852,43.229 87.0029852,42.921 90.3579852,42.443 C95.8009852,42.578 101.307985,42.83 106.616985,42.08 L102.932985,41.164 L106.921985,42.021 C107.017985,41.988 112.433985,42.223 112.487985,42.16 C112.489985,42.159 113.360985,41.531 113.802985,41.214 L113.781985,41.457 L113.672985,41.577 C113.322985,41.651 113.407985,42.152 113.693985,42.253 C114.265985,42.416 114.771985,42.698 115.212985,43.1 L115.256985,43.056 C115.080985,42.913 114.934985,42.751 114.795985,42.585 C116.208985,42.672 117.618985,42.64 119.032985,42.628 C119.134985,42.627 119.217985,42.598 119.287985,42.557 C119.477985,42.58 119.666985,42.606 119.854985,42.643 C120.187985,42.708 120.512985,42.847 120.853985,42.826 C121.044985,42.815 121.184985,42.567 121.021985,42.422 L120.936985,42.363 C121.120985,42.314 121.234985,42.178 121.277985,42.016 C121.364985,41.83 121.352985,41.604 121.171985,41.446" id="Fill-143" fill="#853900"></path>
            </g>
        </g>
    </g>
</svg>