<?xml version="1.0" encoding="UTF-8"?>
<svg width="146px" height="198px" viewBox="0 0 146 198" version="1.1" xmlns="http://www.w3.org/2000/svg" xmlns:xlink="http://www.w3.org/1999/xlink">
    <!-- Generator: Sketch 55.2 (78181) - https://sketchapp.com -->
    <title>Group</title>
    <desc>Created with Sketch.</desc>
    <g id="Page-1" stroke="none" stroke-width="1" fill="none" fill-rule="evenodd">
        <g id="2105_m10_i006_n016" transform="translate(-296.000000, -15.000000)">
            <g id="Group" transform="translate(296.457000, 15.924000)">
                <path d="M107.356,196.609 L78.423,196.609 L78.423,14.466 C78.423,6.476 84.9,0 92.889,0 C100.878,0 107.356,6.476 107.356,14.466 L107.356,196.609" id="Fill-4" fill="#A55100"></path>
                <path d="M104.231,196.609 L75.299,196.609 L75.299,14.466 C75.299,6.476 81.776,0 89.765,0 C97.754,0 104.231,6.476 104.231,14.466 L104.231,196.609" id="Fill-5" fill="#D58952"></path>
                <path d="M103.35,27.787 C103.451,28.222 104.036,28.219 104.231,27.901 L104.231,14.665 C102.842,18.903 102.341,23.441 103.35,27.787" id="Fill-6" fill="#CD7433"></path>
                <path d="M93.443,193.204 C92.913,189.576 91.479,186.207 90.816,182.623 C89.364,174.769 92.998,166.852 91.401,158.861 C91.338,158.542 90.873,158.635 90.857,158.934 C90.682,162.49 90.837,166.037 90.446,169.586 C90.014,173.503 88.947,177.412 89.384,181.382 C89.751,184.722 91.122,187.863 91.793,191.143 C92.168,192.968 92.385,194.788 92.48,196.609 L93.771,196.609 C93.712,195.475 93.609,194.341 93.443,193.204" id="Fill-7" fill="#CD7433"></path>
                <path d="M104.231,117.025 L104.231,110.628 C103.229,107.752 102.018,104.883 101.9,101.791 C101.725,97.184 103.161,92.995 104.231,88.692 L104.231,84.733 C101.758,89.527 100.508,95.67 100.419,100.988 C100.322,106.762 103.04,111.549 104.231,117.025" id="Fill-8" fill="#CD7433"></path>
                <path d="M104.231,166.722 L104.231,161.555 C103.137,164.826 102.119,168.112 101.397,171.427 C99.762,178.929 101.389,186.008 104.105,193.052 L104.231,193.189 L104.231,191.691 C102.148,183.72 101.222,176.364 103.725,168.258 C103.883,167.746 104.054,167.234 104.231,166.722" id="Fill-9" fill="#CD7433"></path>
                <path d="M75.299,28.517 L75.299,29.608 L75.411,29.53 C78.101,26.415 78.305,22.821 78.052,18.836 C77.817,15.122 77.671,11.155 77.201,7.313 C76.762,8.083 76.396,8.897 76.103,9.746 C77.093,16.3 78.487,23.405 75.299,28.517" id="Fill-10" fill="#CD7433"></path>
                <path d="M97.335,135.623 C96.939,130.679 95.655,126.153 94.42,121.37 C91.914,111.666 95.944,99.814 90.431,91.019 C90.34,90.873 90.173,90.842 90.034,90.885 C88.231,76.626 85.709,62.209 85.889,47.94 C86.09,31.964 92.374,16.65 91.593,0.625 C92.969,5.973 92.352,12.324 92.839,17.591 C93.291,22.48 93.21,28.093 95.58,32.51 L95.744,32.673 C95.692,39.959 97.215,47.093 98.389,54.318 C99.221,59.437 99.886,64.687 99.439,69.881 C98.995,75.046 97.404,79.923 95.941,84.863 C93.763,92.218 92.49,99.554 94.709,107.062 C96.096,111.757 98.529,115.935 101.759,119.473 C101.675,119.501 101.599,119.553 101.568,119.667 C99.862,126.078 99.871,133.211 99.223,139.809 C98.995,142.13 98.767,144.451 98.538,146.771 C97.84,143.123 97.638,139.407 97.335,135.623 M90.287,92.908 C91.546,97.677 91.701,102.531 91.815,107.394 C91.538,104.707 91.258,102.032 91,99.377 C90.791,97.225 90.549,95.069 90.287,92.908 M89.818,114.862 C89.271,111.357 89.785,104.205 86.195,102.22 C85.761,101.98 85.351,102.296 85.294,102.738 C84.741,107.068 84.286,111.386 84.323,115.757 C84.324,115.869 84.36,115.954 84.407,116.026 C83.468,120.811 79.765,124.33 78.444,129.162 C78.537,126.908 78.841,124.674 79.533,122.479 C80.641,118.971 82.106,115.723 82.603,112.038 C83.158,107.91 82.927,103.725 82.811,99.577 C82.34,82.597 81.88,65.53 84.221,48.664 C84.113,65.539 87.704,82.61 89.337,99.377 C90.252,108.766 91.499,118.481 91.934,128.158 C91.335,123.713 90.507,119.282 89.818,114.862 M84.602,122.313 C90.593,123.482 85.699,149.03 84.095,148.861 C80.556,148.487 82.711,125.447 84.602,122.313 M91.535,139.205 C91.201,144.589 89.636,149.811 87.854,154.869 C87.509,155.85 87.151,156.826 86.791,157.801 C86.521,158.53 86.25,159.259 85.975,159.986 C84.502,160.056 83.028,160.127 81.555,160.197 C80.353,159.264 80.707,154.088 80.545,152.514 C80.012,147.329 79.342,142.124 79.012,136.923 C78.649,131.203 80.251,127.217 83.07,122.384 C83.19,122.18 83.306,121.975 83.42,121.771 C83.437,121.947 83.526,122.106 83.67,122.198 C80.936,124.896 81.364,134.052 81.293,137.006 C81.218,140.14 79.91,149.892 83.942,151.125 C84.295,151.233 84.595,150.994 84.719,150.684 C86.155,147.089 93.534,118.879 83.818,121.158 L83.734,121.197 C84.848,119.102 85.618,116.984 85.4,114.682 C85.617,112.326 85.787,109.967 85.993,107.609 C86.018,107.321 86.158,104.391 86.309,104.359 C87.281,104.156 87.451,106.445 87.531,106.9 C88.395,111.825 89.07,116.791 89.834,121.732 C90.725,127.502 91.898,133.34 91.535,139.205 M98.043,181.881 C95.767,167.949 99.131,154.38 100.501,140.681 C101.159,133.931 102.585,126.728 102.183,119.951 C102.834,120.637 103.521,121.294 104.231,121.929 L104.231,119.676 C99.005,114.587 95.638,107.755 95.108,100.39 C94.504,91.997 98.15,84.273 99.97,76.264 C103.35,61.391 97.224,46.872 96.983,32.025 C99.294,27.379 99.773,21.14 100.885,16.133 C101.508,13.323 102.145,10.541 102.566,7.74 C102.219,7.08 101.815,6.456 101.374,5.861 C100.997,9.174 100.254,12.452 99.521,15.757 C98.688,19.513 98.25,24.114 97.062,28.095 C97.106,27.373 96.07,27.399 95.998,28.068 C95.939,28.607 95.892,29.145 95.855,29.683 C94.839,26.663 94.737,23.329 94.401,20.187 C94.033,16.728 93.696,13.265 93.495,9.792 C93.313,6.656 93.53,3.287 92.64,0.288 C91.711,0.1 90.75,0 89.765,0 C89.425,0 89.091,0.028 88.757,0.051 C88.489,5.546 87.936,11.32 86.139,16.307 C85.043,19.351 85.484,15.896 85.372,14.298 C85.25,12.554 85.225,10.796 85.178,9.05 C85.105,6.296 85.135,3.54 85.093,0.786 C84.758,0.9 84.423,1.015 84.099,1.154 C83.88,5.524 83.985,9.938 84.136,14.298 C84.203,16.242 83.718,19.02 85.607,20.201 C85.965,20.425 86.452,20.207 86.561,19.813 C88.28,13.62 89.403,7.36 89.959,1 C90.267,12.273 87.375,23.173 85.576,34.215 C85.459,31.775 85.053,29.326 84.192,26.811 C81.236,18.176 79.99,10.45 82.962,1.701 C82.354,2.027 81.778,2.402 81.226,2.808 C79.282,8.489 78.868,14.468 80.297,20.415 C81.19,24.131 83.005,27.578 83.708,31.344 C84.639,36.321 83.561,41.325 82.796,46.243 C80.094,63.627 80.464,81.204 80.958,98.732 C81.095,103.596 81.502,108.616 80.574,113.427 C79.814,117.36 77.861,120.929 77.081,124.851 C75.532,132.642 77.898,140.993 77.573,148.91 C77.229,157.294 76.876,165.416 78.047,173.768 C79.129,181.489 80.981,189.067 82.931,196.609 L84.639,196.609 C82.528,188.457 80.501,180.257 79.465,171.891 C78.593,164.855 78.927,157.964 79.194,150.961 C79.591,156.837 80.788,166.044 85.292,162.901 C86.504,162.055 86.998,160.034 87.473,158.793 C88.587,155.886 89.649,152.944 90.526,149.955 C90.907,148.659 91.234,147.363 91.517,146.065 C91.333,147.781 91.112,149.491 90.82,151.188 C89.482,158.985 86.86,166.446 86.304,174.388 C85.786,181.77 86.289,189.256 87.185,196.609 L88.085,196.609 C87.62,189.203 86.956,181.811 87.59,174.388 C88.35,165.499 91.65,157.163 92.801,148.346 C93.939,139.632 93.773,130.73 93.137,121.849 C93.246,122.313 93.351,122.777 93.48,123.24 C95.039,128.847 95.854,134.234 96.329,140.031 C96.615,143.528 97.047,146.948 98.201,150.207 C97.827,154.009 97.453,157.811 97.08,161.613 C96.456,167.957 95.62,174.348 96.464,180.712 C97.173,186.066 98.63,191.357 100.021,196.609 L101.462,196.609 C100.186,191.732 98.852,186.836 98.043,181.881" id="Fill-11" fill="#CD7433"></path>
                <path d="M75.299,184.736 L75.299,187.532 C75.695,188.271 76.092,189.012 76.479,189.758 C77.69,192.1 78.581,194.327 79.172,196.609 L80.811,196.609 C79.76,192.539 77.448,188.502 75.299,184.736" id="Fill-12" fill="#CD7433"></path>
                <path d="M79.099,105.599 C80.529,101.149 80.264,96.81 79.957,92.206 C79.598,86.811 79.495,81.329 78.729,75.974 C78.631,75.296 77.566,75.482 77.56,76.132 C77.479,84.548 79.831,93.38 78.569,101.734 C78.096,104.865 76.964,108.557 75.299,112.039 L75.299,114.925 C77.001,111.746 78.236,108.285 79.099,105.599" id="Fill-13" fill="#CD7433"></path>
                <path d="M103.431,76.79 C103.739,77.21 104.002,77.64 104.231,78.078 L104.231,75.575 C103.599,75.545 102.963,76.153 103.431,76.79" id="Fill-14" fill="#CD7433"></path>
                <path d="M75.299,85.944 L75.299,29.608 L75.411,29.53 C78.097,26.42 78.304,22.831 78.053,18.854 L79.964,18.854 C80.061,19.374 80.172,19.895 80.297,20.415 C81.19,24.131 83.005,27.578 83.708,31.344 C84.639,36.321 83.561,41.325 82.796,46.243 C80.76,59.344 80.468,72.557 80.66,85.774 C80.305,85.788 79.951,85.802 79.596,85.815 C79.414,82.519 79.194,79.223 78.729,75.974 C78.686,75.678 78.459,75.547 78.217,75.547 C77.903,75.547 77.564,75.765 77.56,76.132 C77.529,79.332 77.85,82.592 78.19,85.864 C77.225,85.895 76.261,85.922 75.299,85.944 M82.485,85.698 C82.297,73.322 82.518,60.939 84.221,48.664 C84.143,60.886 86.005,73.212 87.659,85.45 C85.933,85.539 84.207,85.623 82.485,85.698 M89.309,85.365 C87.626,72.912 85.732,60.37 85.889,47.94 C86.013,38.1 88.444,28.512 90.111,18.854 L92.945,18.854 C93.295,23.427 93.411,28.468 95.58,32.51 L95.744,32.673 C95.692,39.959 97.215,47.093 98.389,54.318 C99.221,59.437 99.886,64.687 99.439,69.881 C98.995,75.046 97.404,79.923 95.941,84.863 C95.926,84.913 95.911,84.964 95.897,85.015 C93.703,85.129 91.506,85.249 89.309,85.365 M97.554,84.93 C98.406,82.048 99.309,79.175 99.97,76.264 C103.35,61.391 97.224,46.872 96.983,32.025 C98.891,28.19 99.55,23.27 100.347,18.854 L103.183,18.854 C102.676,21.818 102.668,24.846 103.35,27.787 C103.404,28.021 103.598,28.128 103.795,28.128 C103.966,28.128 104.14,28.048 104.231,27.901 L104.231,75.575 C104.216,75.574 104.201,75.574 104.186,75.574 C103.57,75.574 102.974,76.168 103.431,76.79 C103.739,77.21 104.002,77.64 104.231,78.078 L104.231,84.631 C102.012,84.714 99.786,84.817 97.554,84.93 M85.576,34.215 C85.459,31.775 85.053,29.326 84.192,26.811 C83.26,24.088 82.498,21.456 81.985,18.854 L84.501,18.854 C84.721,19.396 85.067,19.864 85.607,20.201 C85.706,20.263 85.815,20.291 85.923,20.291 C86.205,20.291 86.482,20.099 86.561,19.813 C86.65,19.493 86.737,19.174 86.823,18.854 L88.363,18.854 C87.485,23.978 86.412,29.081 85.576,34.215 M95.855,29.683 C94.839,26.663 94.737,23.329 94.401,20.187 C94.354,19.743 94.307,19.298 94.261,18.854 L98.927,18.854 C98.407,21.879 97.939,25.156 97.062,28.095 C97.084,27.734 96.836,27.56 96.573,27.56 C96.311,27.56 96.034,27.734 95.998,28.068 C95.939,28.607 95.892,29.145 95.855,29.683 M75.299,28.517 L75.299,18.854 L77.239,18.854 C77.409,22.39 77.027,25.746 75.299,28.517" id="Fill-15" fill="#C8723E"></path>
                <path d="M103.795,28.128 C103.598,28.128 103.404,28.021 103.35,27.787 C102.668,24.846 102.676,21.818 103.183,18.854 L104.231,18.854 L104.231,27.901 C104.14,28.048 103.966,28.128 103.795,28.128" id="Fill-16" fill="#C16127"></path>
                <path d="M75.299,29.608 L75.299,28.517 C77.027,25.746 77.409,22.39 77.239,18.854 L78.053,18.854 C78.304,22.831 78.097,26.42 75.411,29.53 L75.299,29.608" id="Fill-17" fill="#C16127"></path>
                <path d="M80.66,85.774 C80.468,72.557 80.76,59.344 82.796,46.243 C83.561,41.325 84.639,36.321 83.708,31.344 C83.005,27.578 81.19,24.131 80.297,20.415 C80.172,19.895 80.061,19.374 79.964,18.854 L81.985,18.854 C82.498,21.456 83.26,24.088 84.192,26.811 C85.053,29.326 85.459,31.775 85.576,34.215 C86.412,29.081 87.485,23.978 88.363,18.854 L90.111,18.854 C88.444,28.512 86.013,38.1 85.889,47.94 C85.732,60.37 87.626,72.912 89.309,85.365 C88.758,85.394 88.209,85.422 87.659,85.45 C86.005,73.212 84.143,60.886 84.221,48.664 C82.518,60.939 82.297,73.322 82.485,85.698 C81.876,85.725 81.268,85.75 80.66,85.774 M95.897,85.015 C95.911,84.964 95.926,84.913 95.941,84.863 C97.404,79.923 98.995,75.046 99.439,69.881 C99.886,64.687 99.221,59.437 98.389,54.318 C97.215,47.093 95.692,39.959 95.744,32.673 L95.58,32.51 C93.411,28.468 93.295,23.427 92.945,18.854 L94.261,18.854 C94.307,19.298 94.354,19.743 94.401,20.187 C94.737,23.329 94.839,26.663 95.855,29.683 C95.892,29.145 95.939,28.607 95.998,28.068 C96.034,27.734 96.311,27.56 96.573,27.56 C96.836,27.56 97.084,27.734 97.062,28.095 C97.939,25.156 98.407,21.879 98.927,18.854 L100.347,18.854 C99.55,23.27 98.891,28.19 96.983,32.025 C97.224,46.872 103.35,61.391 99.97,76.264 C99.309,79.175 98.406,82.048 97.554,84.93 C97.002,84.958 96.449,84.986 95.897,85.015 M85.923,20.291 C85.815,20.291 85.706,20.263 85.607,20.201 C85.067,19.864 84.721,19.396 84.501,18.854 L86.823,18.854 C86.737,19.174 86.65,19.493 86.561,19.813 C86.482,20.099 86.205,20.291 85.923,20.291" id="Fill-18" fill="#C16127"></path>
                <path d="M78.19,85.864 C77.85,82.592 77.529,79.332 77.56,76.132 C77.564,75.765 77.903,75.547 78.217,75.547 C78.459,75.547 78.686,75.678 78.729,75.974 C79.194,79.223 79.414,82.519 79.596,85.815 C79.127,85.832 78.659,85.848 78.19,85.864" id="Fill-19" fill="#C16127"></path>
                <path d="M104.231,78.078 L104.231,78.078 C104.002,77.64 103.739,77.21 103.431,76.79 C102.974,76.168 103.57,75.574 104.186,75.574 C104.201,75.574 104.216,75.574 104.231,75.575 L104.231,78.078" id="Fill-20" fill="#C16127"></path>
                <path d="M120.087,74.021 C119.732,74.105 119.712,73.321 120.087,73.25 C128.233,71.707 136.416,70.32 144.655,69.451 L144.655,61.851 C140.924,61.622 137.198,61.264 133.458,61.239 C133.022,61.236 132.942,60.578 133.356,60.453 C137.035,59.347 140.83,58.542 144.655,58.21 L144.655,42.702 C139.424,42.431 134.194,42.132 129.018,41.23 C128.65,41.166 128.654,40.526 129.018,40.459 C134.232,39.502 139.421,38.395 144.655,37.572 L144.655,28.879 L36.289,28.879 C36.289,28.879 8.703,42.369 0.092,48.666 C0.092,48.666 -0.115,54.389 0.092,54.389 L33.576,78.736 L144.655,79.898 L144.655,72.613 C136.434,72.957 127.203,72.33 120.087,74.021" id="Fill-21" fill="#A55100"></path>
                <path d="M144.655,73.791 C137.469,73.744 130.321,73.747 123.142,73.45 C122.09,73.603 121.066,73.788 120.087,74.021 C119.768,74.097 119.722,73.473 119.99,73.295 C119.575,73.272 119.161,73.255 118.746,73.23 C108.868,72.63 98.971,72.497 89.078,72.467 C70.778,72.412 52.461,72.738 34.195,72.419 L34.098,72.427 C34.1,71.83 34.07,71.246 33.957,70.693 C33.863,70.232 33.338,70.193 33.043,70.441 C32.653,70.767 32.409,71.227 32.244,71.743 C31.329,71.08 30.291,70.547 29.404,70.041 C25.843,68.01 22.877,65.255 19.818,62.493 C17.157,60.09 14.522,57.865 11.484,55.997 C7.731,53.689 3.946,51.626 0.771,48.448 L0.579,48.321 C0.415,48.436 0.244,48.555 0.092,48.666 C0.092,48.666 0.073,49.2 0.052,49.939 C4.453,55.879 11.363,58.911 16.711,63.805 C21.619,68.296 26.647,72.116 32.016,75.854 C32.031,76.384 32.03,76.993 32.043,77.621 L33.576,78.736 L34.4,78.745 C34.311,77.919 34.146,77.09 34.068,76.368 C34.325,76.145 34.504,75.804 34.553,75.442 C41.012,78.33 49.767,76.624 56.517,76.654 C66.874,76.699 77.231,76.677 87.589,76.695 C106.639,76.728 125.616,78.105 144.655,78.016 L144.655,73.791" id="Fill-22" fill="#914000"></path>
                <path d="M130.555,65.883 C127.305,66.341 124.064,66.891 120.837,67.487 C119.492,67.735 119.906,69.79 121.145,69.863 C122.186,69.925 123.16,69.813 124.122,69.64 C126.806,69.741 129.517,69.193 132.23,68.444 C133.316,68.379 134.404,68.316 135.487,68.194 C138.524,67.85 141.608,67.235 144.655,66.619 L144.655,62.784 C139.891,63.238 135.223,64.565 130.555,65.883" id="Fill-23" fill="#914000"></path>
                <path d="M138.166,30.814 C135.314,31.54 132.631,32.705 129.726,32.96 C129.225,32.981 128.724,33.005 128.223,33.012 C126.604,33.033 126.611,35.568 128.223,35.633 C128.582,35.647 128.938,35.643 129.29,35.63 C129.1,36.047 129.28,36.608 129.885,36.653 C132.939,36.88 135.862,36.243 138.888,35.935 C140.863,35.733 142.76,35.579 144.655,35.166 L144.655,29.685 C142.458,29.862 140.231,30.287 138.166,30.814" id="Fill-24" fill="#914000"></path>
                <path d="M139.031,51.909 C135.885,52.455 132.503,52.949 129.572,54.291 C129.137,54.491 129.205,54.95 129.457,55.241 L129.295,55.317 C128.752,55.61 128.95,56.4 129.454,56.585 C131.657,57.392 134.2,56.451 136.417,55.956 C136.703,55.891 136.988,55.828 137.273,55.766 C139.71,55.806 142.269,55.163 144.655,54.9 L144.655,51.277 C142.782,51.257 140.895,51.586 139.031,51.909" id="Fill-25" fill="#914000"></path>
                <path d="M120.087,68.299 C119.732,68.212 119.712,67.598 120.087,67.527 C128.233,65.985 136.416,64.597 144.655,63.728 L144.655,56.128 C140.924,55.899 137.198,55.541 133.458,55.516 C133.022,55.514 132.942,54.855 133.356,54.731 C137.035,53.624 140.83,52.819 144.655,52.487 L144.655,36.979 C139.424,36.708 134.194,36.409 129.018,35.508 C128.65,35.444 128.654,34.803 129.018,34.736 C134.232,33.78 139.421,32.672 144.655,31.849 L144.655,23.156 L36.289,23.156 C36.289,23.156 -1.019,48.666 0.092,48.666 L33.576,73.013 L144.655,74.175 L144.655,69.267 C136.434,69.612 128.147,70.264 120.087,68.299" id="Fill-26" fill="#D58952"></path>
                <path d="M26.268,66.672 C31.126,65.864 35.96,65.632 40.863,65.457 C43.904,65.349 46.931,64.991 49.975,64.931 C51.806,64.894 53.645,64.919 55.459,65.201 C57.08,65.453 60.241,65.759 58.673,67.85 C56.733,70.438 51.731,70.741 48.927,70.936 C45.978,71.141 43.024,71.016 40.074,70.931 C36.998,70.843 33.819,70.752 30.657,70.891 L32.007,71.872 C36.302,71.783 40.639,72.051 44.91,72.059 C49.95,72.069 57.76,72.18 60.56,66.814 C60.655,66.632 60.648,66.35 60.485,66.205 C56.031,62.264 47.939,64.02 42.664,64.358 C38.059,64.653 33.499,64.713 28.914,65.371 C27.37,65.593 25.834,65.921 24.299,66.267 L24.684,66.547 L25.144,66.881 C25.518,66.808 25.892,66.735 26.268,66.672" id="Fill-27" fill="#CD7433"></path>
                <path d="M62.317,23.156 L58.848,23.156 C54.689,24.299 50.838,24.206 46.762,23.156 L43.835,23.156 C49.832,25.694 56.401,26.175 62.317,23.156" id="Fill-28" fill="#CD7433"></path>
                <path d="M51.375,27.76 C48.284,27.763 45.273,26.938 42.286,26.212 C39.981,25.652 37.023,25.326 34.459,24.409 C34.226,24.569 33.967,24.746 33.697,24.932 L33.609,24.992 C35.362,25.724 37.314,26.113 39.084,26.53 C44.682,27.847 49.904,29.633 55.691,28.54 C57.05,28.284 58.395,27.962 59.734,27.617 C67.126,28.521 74.562,27.124 81.691,25.085 C83.945,24.44 86.19,23.747 88.457,23.156 L85.138,23.156 C84.602,23.313 84.065,23.472 83.531,23.629 C76.119,25.818 68.816,27.108 61.169,27.243 C66.274,25.844 71.298,24.075 76.51,23.16 L70.768,23.156 C67.543,24.018 64.351,25.035 61.135,25.925 C57.953,26.805 54.69,27.757 51.375,27.76" id="Fill-29" fill="#CD7433"></path>
                <path d="M19.612,56.537 C19.387,55.256 16.863,55.319 16.013,55.266 C13.866,55.134 11.67,55.281 9.499,55.506 L10.406,56.165 C12.535,56.046 14.665,55.843 16.792,56.093 C17.736,56.204 19.31,56.456 18.124,57.373 C17.564,57.805 16.618,57.956 15.94,58.112 C15.159,58.29 14.369,58.395 13.576,58.47 L14.553,59.18 C17.252,58.941 19.914,58.261 19.612,56.537" id="Fill-30" fill="#CD7433"></path>
                <path d="M25.729,58.295 C26.648,57.973 31.963,56.889 31.366,54.875 C30.946,53.459 26.292,53.653 25.38,53.632 C18.684,53.477 12.051,53.519 5.404,52.528 L6.196,53.104 C13.49,54.389 20.792,53.626 28.103,54.563 C28.858,54.66 29.708,54.587 30.07,55.276 C30.568,56.22 27.725,56.74 26.889,57.059 C24.651,57.914 22.337,58.668 19.998,59.155 C18.464,59.474 16.88,59.591 15.302,59.725 L16.01,60.24 C19.272,59.778 22.569,59.403 25.729,58.295" id="Fill-31" fill="#CD7433"></path>
                <path d="M109.82,71.614 C101.677,71.679 93.602,71.108 85.532,69.971 C81.939,69.465 78.321,68.547 74.696,68.345 C72.231,68.207 69.086,69.585 66.578,69.343 C68.233,68.251 69.04,66.964 68.381,65.463 C67.505,63.466 64.225,63.111 62.495,62.865 C58.797,62.339 54.885,62.199 51.159,62.134 C44.959,62.025 38.618,62.391 32.439,62.925 C28.838,63.235 25.271,63.816 21.699,64.377 L22.125,64.686 L22.78,65.163 C23.917,64.974 25.05,64.774 26.183,64.584 C31.579,63.68 36.969,63.539 42.418,63.298 C49.376,62.99 57.454,62.484 64.329,64.277 C65.791,64.658 68.165,65.5 67.201,67.341 C66.759,68.185 65.331,68.717 64.531,69.08 C62.101,70.183 59.463,70.814 56.878,71.383 C53.538,72.119 50.098,72.766 46.667,73.15 L53.783,73.224 C58.011,72.546 62.531,71.484 65.455,69.998 C67.288,70.595 69.202,69.795 71.037,69.496 C75.515,68.767 80.196,70.206 84.625,70.868 C92.505,72.048 100.402,72.725 108.366,72.739 C116.592,72.752 124.811,72.277 133.036,72.246 C136.914,72.231 140.785,72.414 144.655,72.613 L144.655,71.362 C141.26,71.196 137.863,71.046 134.463,71.046 C126.246,71.044 118.037,71.549 109.82,71.614" id="Fill-32" fill="#CD7433"></path>
                <path d="M112.043,26.781 C114.424,25.731 116.715,24.412 119.019,23.156 L116.902,23.156 C114.021,24.667 111.127,26.137 108.07,27.184 C101.866,27.832 95.673,28.528 89.493,29.076 C85.417,29.438 81.36,30.01 77.309,30.606 C75.816,30.659 74.39,30.888 73.007,31.239 C63.683,32.601 54.366,33.751 44.898,32.443 C39.418,31.686 34.339,29.618 29.118,28.076 L28.911,28.219 C28.594,28.436 28.271,28.659 27.941,28.886 L27.746,29.02 C33.448,30.689 38.827,32.929 44.812,33.768 C46.1,33.949 47.383,34.08 48.665,34.175 C43.929,34.233 39.27,34.275 34.597,35.272 C28.819,36.506 19.995,40.113 12.899,39.305 C12.521,39.57 12.144,39.833 11.772,40.093 C17.082,40.988 23.457,39.18 27.94,38.033 C34.533,36.348 40.749,35.321 47.554,35.272 C53.768,35.227 59.847,34.066 66.031,33.989 C63.205,35.405 60.43,37.013 57.499,38.304 C54.322,38.876 51.148,39.532 47.974,40.254 C40.448,41.965 32.913,43.789 25.219,44.447 C19.425,44.942 12.142,45.636 6.189,44.031 C5.859,44.266 5.54,44.494 5.233,44.713 C9.743,46.167 14.853,46.038 19.466,45.971 C26.299,45.87 33.026,44.847 39.712,43.433 C44.038,42.519 48.328,41.584 52.613,40.724 C54.003,40.668 55.34,40.385 56.636,39.949 C57.339,39.817 58.041,39.678 58.744,39.554 C58.841,39.683 58.991,39.77 59.202,39.758 C62.401,39.582 65.672,40.8 68.846,41.156 C72.93,41.613 77.095,41.096 81.189,40.992 C90.041,40.768 97.707,43.529 106.068,46.093 C113.512,48.375 121.224,49.173 128.958,49.27 C133.051,49.322 137.201,49.434 141.274,48.96 C142.484,48.819 143.591,48.565 144.655,48.248 L144.655,47.099 C143.156,47.54 141.609,47.879 139.924,48.013 C135.831,48.337 131.649,48.212 127.551,48.104 C118.947,47.878 110.777,46.439 102.585,43.722 C95.436,41.35 88.731,39.608 81.189,39.791 C76.726,39.9 72.199,40.467 67.76,39.78 C66.212,39.541 64.667,39.134 63.114,38.836 C69.838,37.807 76.615,37.183 83.569,37.385 C97.712,37.795 110.981,42.911 124.979,44.143 C131.527,44.72 138.099,44.016 144.655,43.854 L144.655,42.728 C139.065,42.929 133.471,43.157 127.865,42.959 C114.295,42.479 101.337,37.18 87.778,36.263 C78.916,35.662 70.21,36.286 61.553,37.627 C62.145,37.286 62.731,36.933 63.312,36.577 C65.254,35.388 67.145,34.084 69.199,33.12 C70.235,32.98 71.272,32.851 72.308,32.703 C72.293,32.828 72.371,32.962 72.521,32.911 C73.007,32.744 73.501,32.598 73.995,32.458 C77.082,32.006 80.171,31.543 83.268,31.143 C89.293,30.939 95.49,31.653 101.253,31.736 C111.326,31.883 121.395,30.782 131.472,30.666 C135.894,30.615 140.286,30.984 144.655,31.584 L144.655,30.571 C138.392,29.804 132.211,29.415 125.722,29.612 C116.353,29.896 107.031,30.772 97.651,30.545 C95.497,30.493 93.285,30.385 91.055,30.309 C105.775,28.957 120.558,26.876 135.337,26.703 C138.452,26.667 141.557,26.772 144.655,26.974 L144.655,25.573 C141.801,25.386 138.941,25.284 136.073,25.302 C128.063,25.35 120.048,25.987 112.043,26.781" id="Fill-33" fill="#CD7433"></path>
                <path d="M27.054,42.076 C27.135,42.161 27.243,42.222 27.37,42.228 C27.618,42.241 27.871,42.245 28.121,42.253 C28.506,42.305 28.901,42.344 29.302,42.373 C30.002,42.506 30.832,42.499 31.695,42.4 C34.493,42.26 37.317,41.498 39.279,39.828 C39.601,39.553 39.382,39.048 39.052,38.93 C36.611,38.055 33.407,37.871 30.673,38.629 C28.782,38.949 26.976,39.613 26.168,41.238 C26.037,41.502 26.139,41.875 26.443,41.947 C26.642,41.994 26.847,42.036 27.054,42.076" id="Fill-34" fill="#CD7433"></path>
                <path d="M131.143,38.214 C126.285,37.957 121.412,37.537 116.549,37.463 C113.388,37.414 108.518,38.061 105.734,35.954 C113.073,33.725 120.911,34.838 128.451,34.891 C128.569,34.891 128.687,34.895 128.804,34.896 L128.885,34.8 L129.018,34.736 C130.585,34.449 132.15,34.147 133.715,33.845 C131.961,33.805 130.206,33.771 128.451,33.759 C120.48,33.702 112.204,32.489 104.489,35.163 C104.098,35.299 103.963,35.789 104.25,36.109 C106.403,38.516 110.275,38.488 113.193,38.569 C118.196,38.706 123.182,38.911 128.182,39.187 C133.679,39.489 139.156,39.661 144.655,39.555 L144.655,38.476 C140.147,38.547 135.634,38.451 131.143,38.214" id="Fill-35" fill="#CD7433"></path>
                <path d="M127.497,57.591 C123.679,57.488 117.537,57.032 115.118,60.9 C114.921,61.214 115.11,61.696 115.46,61.778 C122.817,63.51 130.348,63.056 137.83,62.941 C140.106,62.906 142.381,62.884 144.655,62.845 L144.655,61.746 C132.421,61.997 116.956,61.849 116.981,60.911 C117.06,57.893 127.735,58.788 129.837,58.851 C134.785,58.999 139.711,58.289 144.655,58.467 L144.655,57.435 C139.058,56.73 133.127,57.743 127.497,57.591" id="Fill-36" fill="#CD7433"></path>
                <path d="M113.502,56.625 C98.055,59.58 82.545,57.639 67.425,53.764 C60.156,51.901 53.489,52.658 46.11,53.046 C39.429,53.397 33.179,50.919 26.532,50.738 C22.57,50.631 18.641,50.299 14.711,49.931 C17.079,49.943 19.452,49.87 21.765,49.876 C30.541,49.902 39.348,49.068 47.946,47.194 L47.845,47.434 C46.425,52.505 64.338,49.719 66.331,49.836 C73.062,50.23 79.593,52.147 86.219,53.292 C91.717,54.242 97.307,54.572 102.871,54.2 C104.168,54.113 107.417,54.378 108.746,53.144 C116.116,53.342 123.407,54.491 130.791,54.258 C124.983,54.752 119.278,55.52 113.502,56.625 Z M68.979,48.601 C68.598,48.556 63.78,48.06 65.209,47.167 C70.784,47.755 76.465,47.139 82.068,47.408 C85.982,47.596 91.388,47.099 94.667,49.677 C96.424,51.058 95.428,51.1 93.326,51.159 C91.476,51.211 89.626,50.813 87.826,50.405 C85.243,49.819 82.69,48.986 80.053,48.697 C77.879,48.459 75.714,48.664 73.538,48.724 C72.022,48.765 70.488,48.781 68.979,48.601 Z M51.887,46.136 C54.085,45.532 56.271,44.882 58.514,44.48 C64.049,43.489 69.701,43.688 75.291,43.773 C81.074,43.861 86.772,44.437 92.384,45.974 C95.946,46.95 99.516,48.652 103.215,48.976 C103.265,49.066 103.35,49.138 103.484,49.166 C104.536,49.391 109.564,50.592 107.335,52.714 C106.449,53.557 101.776,53.236 100.849,53.269 C95.296,53.474 89.793,52.954 84.331,51.909 C79.854,51.052 75.41,49.953 70.899,49.301 C73.887,49.402 76.933,49.111 79.927,49.465 C85.47,50.121 90.857,53.093 96.497,51.586 C96.805,51.504 96.873,51.168 96.764,50.901 C95.162,46.969 89.289,46.86 85.859,46.639 C78.995,46.197 72.189,46.794 65.342,46.681 C65.276,46.553 65.147,46.464 64.984,46.523 C64.814,46.584 64.693,46.629 64.589,46.669 C64.41,46.665 64.23,46.666 64.05,46.661 C63.861,46.655 63.834,46.867 63.937,46.978 L63.82,47.039 C63.572,47.169 63.565,47.605 63.82,47.733 C64.971,48.312 66.147,48.678 67.339,48.916 C62.299,48.597 57.341,49.515 52.3,49.282 C51.88,49.263 50.188,49.398 49.915,49.06 C48.085,46.79 50.967,46.388 51.887,46.136 Z M109.258,52.309 L109.286,52.227 C109.705,50.295 107.522,49.249 105.644,48.706 C105.638,48.578 105.556,48.452 105.389,48.437 C99.584,47.935 94.247,45.395 88.558,44.232 C83.002,43.096 77.439,42.949 71.793,42.881 C66.361,42.815 60.915,42.951 55.592,44.204 C54.356,44.495 51.326,44.817 49.423,45.812 L49.372,45.812 C40.291,47.856 31.053,48.859 21.765,48.843 C17.763,48.836 13.703,48.955 9.709,48.711 C7.004,48.546 4.799,47.631 2.585,46.631 C2.265,46.866 1.975,47.082 1.713,47.279 C3.172,48.017 4.626,48.709 6.266,49.151 C4.717,49.039 2.894,49.044 1.677,49.818 L2.514,50.427 L2.666,50.537 C5.864,49.283 14.221,51.203 16.169,51.375 C19.62,51.68 23.07,51.889 26.532,51.994 C30.491,52.113 34.097,52.996 37.956,53.78 C44.506,55.11 50.951,53.543 57.538,53.62 C61.994,53.671 66.293,54.81 70.59,55.976 C68.354,56.738 66.313,57.877 64.075,58.702 C60.909,59.87 57.599,59.977 54.288,59.681 C48.537,59.167 42.933,57.332 37.127,57.408 C31.356,57.484 25.954,60.08 20.231,60.734 C19.26,60.845 18.184,60.945 17.061,61.004 L18.38,61.964 C23.314,61.589 27.923,60.059 32.864,59.026 C40.06,57.522 47.155,60.215 54.288,60.867 C56.691,61.087 59.15,61.1 61.533,60.648 C61.509,60.764 61.553,60.9 61.69,60.957 C70.456,64.585 79.105,64.839 88.399,64.395 C93.564,64.148 98.425,64.261 103.499,65.463 C107.871,66.498 112.151,67.607 116.633,67.965 C117.716,68.052 118.8,68.107 119.884,68.151 L119.825,67.991 C119.814,67.892 119.814,67.834 119.828,67.779 L119.906,67.637 L120.087,67.527 C121.03,67.349 121.974,67.173 122.918,66.999 C121.306,66.983 119.694,66.949 118.084,66.861 C108.935,66.362 100.462,62.819 91.229,63.168 C86.529,63.346 81.832,63.788 77.126,63.54 C71.949,63.267 67.046,61.947 62.074,60.544 C62.462,60.458 62.848,60.361 63.231,60.247 C66.29,59.341 69.012,57.565 72.113,56.761 C72.289,56.716 72.402,56.611 72.464,56.482 C74.832,57.116 77.205,57.713 79.611,58.094 C86.287,59.15 93.156,59.474 99.903,59.533 C106.563,59.591 112.881,58.097 119.409,56.968 C124.056,56.165 128.733,55.822 133.418,55.508 C133.219,55.486 133.104,55.326 133.089,55.151 L133.095,55.023 L133.116,54.962 L133.14,54.902 L133.198,54.831 L133.356,54.731 C137.035,53.624 140.83,52.819 144.655,52.487 L144.655,51.825 C139.922,52.261 135.169,53.028 130.468,53.185 C123.374,53.423 116.341,52.331 109.258,52.309 L109.258,52.309 Z" id="Fill-37" fill="#CD7433"></path>
                <path d="M39.901,25.415 C42.652,25.625 45.417,25.514 48.2,25.371 C53.217,25.113 58.223,25.139 63.245,25.062 C73.384,24.906 83.525,24.908 93.664,24.668 C102.032,24.471 110.407,24.15 118.779,24.12 C120.25,24.14 121.721,24.14 123.19,24.13 L123.363,24.131 C127.958,24.18 132.569,24.536 137.163,24.351 C139.183,24.269 141.241,24.015 143.285,23.968 C142.912,24.99 142.98,26.63 142.967,27.369 C142.943,28.687 142.815,30.761 143.424,32.058 C143.834,31.99 144.244,31.914 144.655,31.849 L144.655,23.156 L52.342,23.156 C52.164,23.169 51.986,23.18 51.808,23.194 L49.313,23.156 C48.911,23.269 48.508,23.374 48.103,23.462 C47.101,23.535 46.1,23.608 45.097,23.677 C43.474,23.788 41.821,23.988 40.165,24.137 C40.067,24.134 39.968,24.132 39.872,24.128 C40.322,24.081 40.772,24.034 41.221,23.983 C42.43,23.937 43.649,23.774 44.865,23.601 C45.644,23.53 46.424,23.465 47.209,23.425 C47.311,23.42 47.388,23.357 47.436,23.276 C47.856,23.236 48.273,23.204 48.687,23.191 L48.809,23.156 L36.289,23.156 C36.289,23.156 -1.019,48.666 0.092,48.666 L0.593,49.03 C3.361,47.086 6.343,45.573 9.32,43.962 C12.956,41.993 16.131,39.489 19.495,37.077 C24.79,33.281 30.237,29.728 35.235,25.532 C36.786,25.625 38.343,25.538 39.901,25.415" id="Fill-38" fill="#E3AF8A"></path>
                <path d="M120.149,68.312 C122.297,70.766 126.652,70.138 129.474,70.027 C132.113,69.924 134.754,69.904 137.395,69.822 C138.744,69.779 140.31,69.471 141.626,69.705 C142.412,69.845 142.926,70.015 143.271,70.254 C143.143,71.557 143.153,72.853 143.288,74.161 L144.655,74.175 L144.655,69.267 C136.455,69.611 128.19,70.259 120.149,68.312" id="Fill-39" fill="#E3AF8A"></path>
                <path d="M128.033,35.638 C131.075,36.567 134.301,37.091 137.446,37.514 C138.923,37.713 140.831,37.765 142.436,38.191 C143.27,40.371 142.73,43.022 142.808,45.3 C142.892,47.756 143.167,50.193 143.285,52.648 C143.738,52.595 144.189,52.528 144.643,52.489 L144.655,52.332 L144.655,37.24 L144.602,37.301 L144.452,37.265 C144.427,37.164 144.395,37.065 144.368,36.964 C143.985,36.944 143.603,36.924 143.221,36.903 L143.267,37.088 C143.174,37.068 143.082,37.047 142.989,37.027 C142.862,36.969 142.734,36.962 142.62,36.988 C142.294,36.907 141.947,36.853 141.605,36.812 C137.393,36.568 133.188,36.234 129.018,35.508 C128.84,35.476 128.75,35.309 128.746,35.138 C128.53,35.136 128.314,35.125 128.1,35.13 C127.82,35.136 127.762,35.555 128.033,35.638" id="Fill-40" fill="#E3AF8A"></path>
                <path d="M144.655,56.128 C140.924,55.899 137.198,55.541 133.458,55.516 C133.28,55.515 133.166,55.404 133.115,55.266 C133.035,55.429 133.054,55.623 133.27,55.72 C136.39,57.123 140.058,57.08 143.451,57.07 C143.373,57.708 143.366,58.351 143.402,58.998 C143.363,60.623 143.411,62.261 143.517,63.851 C143.835,63.822 144.151,63.783 144.469,63.749 C144.57,63.669 144.646,63.55 144.655,63.382 L144.655,57.19 L144.648,57.022 L144.655,56.128" id="Fill-41" fill="#E3AF8A"></path>
            </g>
        </g>
    </g>
</svg>