<?xml version="1.0" encoding="UTF-8"?>
<svg width="94px" height="198px" viewBox="0 0 94 198" version="1.1" xmlns="http://www.w3.org/2000/svg" xmlns:xlink="http://www.w3.org/1999/xlink">
    <!-- Generator: Sketch 55.2 (78181) - https://sketchapp.com -->
    <title>Group 5</title>
    <desc>Created with Sketch.</desc>
    <g id="Page-1" stroke="none" stroke-width="1" fill="none" fill-rule="evenodd">
        <g id="2105_m10_i006_n016" transform="translate(-30.000000, -15.000000)">
            <g id="Group-5" transform="translate(30.041719, 15.923872)">
                <path d="M39.9732808,6.20812846 L38.3972808,196.609128 L56.1892808,196.609128 L56.1892808,1.35112846 C56.1892808,0.510128455 55.2172808,-0.228871545 54.2432808,0.0661284554 C47.2912808,2.17212846 37.9172808,7.03412846 39.9732808,6.20812846" id="Fill-42" fill="#A55100"></path>
                <path d="M39.4852808,7.24312846 L39.4852808,196.609128 L53.5602808,196.609128 L53.5602808,2.83612846 C53.5602808,2.00112846 52.8132808,1.38612846 52.0202808,1.56112846 C47.1152808,2.64012846 40.7452808,3.15312846 39.4852808,7.24312846" id="Fill-43" fill="#D58952"></path>
                <path d="M49.7872808,122.993128 L49.9742808,123.175128 L49.9692808,123.296128 C49.9502808,123.695128 50.5602808,123.873128 50.7392808,123.504128 C51.6142808,121.709128 51.7492808,119.541128 51.1482808,117.640128 C51.0662808,117.383128 50.8192808,117.274128 50.5772808,117.340128 L50.5712808,117.217128 C50.5552808,116.993128 50.2402808,116.993128 50.2242808,117.217128 C50.2172808,117.321128 50.2162808,117.427128 50.2092808,117.532128 C48.6282808,118.633128 48.9792808,121.537128 49.7872808,122.993128" id="Fill-44" fill="#CD7433"></path>
                <path d="M53.0592808,117.538128 C52.9172808,119.941128 52.5912808,122.347128 52.5412808,124.754128 C52.3952808,131.683128 53.7292808,138.389128 52.7702808,145.239128 C52.5122808,144.373128 52.1922808,143.521128 51.8282808,142.617128 C50.3382808,138.926128 49.7422808,135.741128 49.6232808,131.733128 C49.5282808,128.501128 48.7952808,125.329128 48.7432808,122.104128 C48.7022808,119.547128 49.0852808,116.998128 49.3142808,114.445128 C50.6632808,114.379128 51.9992808,114.253128 53.3162808,114.059128 C53.2792808,115.368128 53.1112808,116.664128 53.0592808,117.538128 Z M46.8822808,139.091128 C48.2862808,144.421128 49.0382808,149.231128 48.9422808,154.752128 C48.8662808,159.200128 48.5942808,163.585128 48.4002808,168.015128 C48.1232808,165.797128 47.7572808,163.559128 47.2322808,161.246128 C45.3382808,152.890128 45.6802808,145.158128 45.4982808,136.718128 C45.4282808,133.428128 44.8912808,130.528128 44.2182808,127.334128 C43.2222808,122.604128 44.6882808,119.211128 45.6482808,114.721128 L45.6512808,114.489128 C46.1422808,114.502128 46.6332808,114.505128 47.1222808,114.501128 C45.7352808,122.530128 44.8082808,131.213128 46.8822808,139.091128 Z M47.1282808,195.472128 C46.4752808,192.524128 47.1242808,188.626128 46.8902808,185.827128 C46.6532808,182.993128 46.2002808,180.218128 45.7022808,177.421128 C44.3952808,170.086128 43.4462808,162.698128 42.7872808,155.277128 C41.5722808,141.606128 41.3402808,127.902128 41.1742808,114.187128 C42.3022808,114.311128 43.4342808,114.400128 44.5662808,114.453128 C43.9162808,117.546128 42.6012808,120.201128 42.6262808,123.441128 C42.6542808,126.917128 43.9952808,130.164128 44.2802808,133.631128 C44.8752808,140.841128 43.7282808,147.996128 44.8672808,155.198128 C45.5062808,159.238128 46.6532808,163.159128 47.4262808,167.169128 C48.2212808,171.290128 48.1232808,175.381128 48.0912808,179.557128 C48.0632808,183.109128 48.2512808,186.648128 48.3572808,190.197128 C48.4232808,192.378128 47.7712808,193.829128 47.1282808,195.472128 Z M50.8842808,15.3251285 C51.2992808,14.2531285 51.4642808,13.1851285 51.9932808,12.0121285 C52.4372808,11.0281285 53.1512808,10.1741285 53.5432808,9.15912846 L53.5602808,9.10812846 L53.5602808,2.83612846 C53.5602808,2.44512846 53.3922808,2.10612846 53.1362808,1.87012846 C53.1432808,2.31812846 53.1522808,2.67612846 53.1412808,2.85112846 C53.0432808,4.40912846 53.1092808,6.11312846 52.7722808,7.64412846 C52.3772808,9.43612846 51.1192808,10.7261285 50.5572808,12.4251285 C50.2632808,13.3151285 50.1482808,14.3441285 49.9602808,15.2931285 C49.4662808,15.2751285 48.9732808,15.2501285 48.4792808,15.2431285 C46.6742808,13.5681285 47.8552808,8.48012846 47.6572808,6.48112846 C47.5262808,5.15112846 47.1652808,3.88512846 46.7542808,2.63412846 C46.2752808,2.74412846 45.8012808,2.85812846 45.3412808,2.98612846 C45.9802808,5.25912846 46.5832808,7.55112846 46.4932808,10.0031285 C46.4322808,11.6761285 46.2822808,13.7711285 47.0972808,15.2411285 C46.6622808,15.2451285 46.2262808,15.2501285 45.7912808,15.2631285 C45.8642808,12.1951285 45.5782808,9.09512846 45.3632808,6.03912846 C45.2942808,5.04412846 45.1792808,4.05512846 45.0632808,3.06812846 C44.7112808,3.17012846 44.3692808,3.28112846 44.0352808,3.39812846 C44.0842808,3.83812846 44.1322808,4.28012846 44.1742808,4.72512846 C44.5002808,8.23712846 44.6852808,11.7671285 44.9642808,15.2841285 C44.0852808,15.3221285 43.2072808,15.3741285 42.3302808,15.4491285 C42.3222808,14.7571285 41.8842808,14.0991285 41.6132808,13.4511285 C40.9112808,11.7681285 40.1192808,9.99012846 39.8992808,8.16312846 C39.8192808,7.49512846 39.8722808,6.84712846 39.9732808,6.20812846 C39.7742808,6.52812846 39.6022808,6.86512846 39.4852808,7.24312846 L39.4852808,11.5431285 C39.9652808,13.0951285 40.6442808,14.7211285 41.4622808,15.5261285 C40.8022808,15.5921285 40.1432808,15.6651285 39.4852808,15.7521285 L39.4852808,113.977128 C39.7362808,114.013128 39.9892808,114.039128 40.2402808,114.071128 C40.1002808,128.889128 40.5742808,143.764128 42.0482808,158.512128 C42.1232808,159.260128 42.2182808,160.003128 42.3012808,160.749128 C42.1342808,160.666128 41.8982808,160.733128 41.8842808,160.982128 C41.6412808,165.585128 41.9232808,170.207128 42.0712808,174.811128 C42.1512808,177.304128 42.4142808,180.002128 42.4592808,182.664128 C42.3842808,182.343128 42.3062808,182.022128 42.2292808,181.701128 C41.0672808,176.815128 40.6242808,171.835128 39.8282808,166.885128 C39.6992808,166.086128 39.5882808,165.287128 39.4852808,164.489128 L39.4852808,172.133128 C39.6202808,173.000128 39.7552808,173.866128 39.8802808,174.733128 C40.4492808,178.671128 43.1112808,184.685128 41.6852808,188.538128 C41.6192808,188.715128 41.8092808,188.817128 41.9522808,188.766128 C41.4862808,190.766128 40.2652808,192.784128 39.4852808,194.806128 L39.4852808,196.609128 L40.0702808,196.609128 C40.4022808,194.725128 41.4872808,192.887128 42.2142808,191.073128 C43.1012808,188.861128 43.2362808,186.725128 43.2342808,184.351128 C43.2282808,177.371128 42.9922808,170.317128 42.5932808,163.333128 C43.2532808,168.657128 44.0932808,173.942128 44.9802808,179.245128 C45.6562808,183.286128 46.1292808,187.347128 45.9952808,191.448128 C45.9352808,193.287128 45.8252808,194.923128 46.3682808,196.609128 L47.9862808,196.609128 C48.3892808,196.201128 48.9382808,196.028128 49.2072808,195.456128 C49.5942808,194.632128 49.4912808,193.746128 49.5162808,192.876128 C49.6102808,189.493128 49.2842808,186.090128 49.2252808,182.708128 C49.1452808,178.162128 49.0372808,173.937128 48.5962808,169.676128 C48.9322808,169.876128 49.4932808,169.725128 49.5112808,169.206128 C49.8222808,160.451128 51.2742808,151.221128 48.9992808,142.621128 C47.6882808,137.664128 46.6412808,132.993128 46.7612808,127.815128 C46.8662808,123.345128 47.5512808,118.930128 47.9012808,114.484128 C48.1592808,114.478128 48.4172808,114.476128 48.6752808,114.467128 C48.3662808,116.732128 47.9942808,119.004128 47.9542808,121.279128 C47.8932808,124.784128 48.7382808,128.234128 48.8382808,131.733128 C48.9062808,134.074128 48.9012808,136.387128 49.4182808,138.681128 C50.0502808,141.483128 51.4532808,143.957128 52.0622808,146.745128 C51.5382808,155.808128 49.3482808,164.843128 50.0212808,173.936128 C50.5812808,181.500128 51.6372808,189.047128 52.4252808,196.609128 L53.5602808,196.609128 L53.5602808,195.432128 C52.9712808,188.238128 51.5322808,181.139128 50.9902808,173.936128 C50.3462808,165.388128 52.5032808,157.012128 52.7742808,148.508128 C53.0102808,148.554128 53.2552808,148.451128 53.3302808,148.131128 C53.4172808,147.753128 53.4882808,147.375128 53.5602808,146.997128 L53.5602808,15.5251285 C52.6692808,15.4351285 51.7772808,15.3711285 50.8842808,15.3251285 L50.8842808,15.3251285 Z" id="Fill-45" fill="#CD7433"></path>
                <path d="M49.1722808,8.88612846 C49.2302808,9.12212846 49.5292808,9.31812846 49.7692808,9.22412846 C51.6432808,8.50012846 51.7452808,6.09812846 51.8072808,4.37212846 C51.8392808,3.48212846 51.7912808,2.55612846 51.7342808,1.62112846 C51.4002808,1.69312846 51.0602808,1.76312846 50.7162808,1.83012846 C50.7542808,2.31912846 50.7862808,2.79412846 50.7892808,3.23112846 C50.7962808,4.19812846 51.0672808,7.32712846 50.0352808,7.74612846 C49.8142808,7.83612846 49.5692808,4.63012846 49.3972808,2.08812846 C49.0882808,2.14712846 48.7792808,2.20812846 48.4702808,2.26912846 C48.4412808,4.50112846 48.6552808,6.75412846 49.1722808,8.88612846" id="Fill-46" fill="#CD7433"></path>
                <path d="M86.2032808,74.2101285 C85.6882808,73.8431285 85.6972808,72.9591285 86.3872808,72.7841285 C87.8072808,72.4241285 89.0942808,71.7951285 90.3462808,71.0911285 C91.6792808,70.3431285 92.5912808,68.9931285 92.7472808,67.4611285 C93.4402808,60.6331285 92.4722808,54.4571285 90.2422808,49.0331285 C90.1202808,48.7361285 89.9772808,48.4511285 89.8472808,48.1581285 C86.3472808,47.5711285 82.8222808,47.2431285 79.2602808,47.2121285 C78.4042808,47.2041285 78.1912808,45.8711285 79.0552808,45.6801285 C81.1952808,45.2051285 83.3982808,44.9301285 85.5072808,44.3501285 C86.5222808,44.0711285 87.9742808,41.1681285 87.3642808,40.3031285 C74.3712808,21.8401285 43.8582808,17.3751285 22.2092808,29.6431285 C16.9892808,32.6011285 11.4952808,33.7941285 7.86728083,38.3111285 C7.28028083,39.0411285 8.49728083,42.8411285 9.39028083,43.1041285 C9.87928083,43.2481285 10.3992808,43.3231285 10.9542808,43.3121285 C11.6832808,43.2981285 12.0542808,44.4321285 11.3442808,44.7661285 C10.1522808,45.3241285 8.88828083,45.4581285 7.61428083,45.5041285 C6.30628083,45.5511285 5.11428083,46.2921285 4.49128083,47.4571285 C1.35728083,53.3171285 -0.290719169,59.9011285 0.0422808314,66.8131285 C0.0892808314,67.7801285 0.496280831,68.7031285 1.17428083,69.3871285 C2.54428083,70.7701285 4.40028083,71.6521285 6.52828083,72.3941285 C7.12528083,72.6021285 7.33228083,73.4821285 6.71328083,73.8201285 C5.52028083,74.4711285 3.60228083,71.8041285 2.56028083,72.6111285 C1.66628083,73.3061285 2.12428083,75.8321285 2.22928083,76.7581285 C2.57528083,79.8081285 4.39028083,82.7641285 6.02528083,85.3181285 C7.67328083,87.8941285 9.60928083,90.2871285 11.7642808,92.4691285 C16.0762808,96.8341285 21.2592808,100.365128 26.8932808,102.867128 C29.8822808,104.194128 33.0062808,105.233128 36.2082808,105.931128 C47.1912808,108.325128 58.9702808,106.916128 69.0012808,101.874128 C74.6142808,99.0531285 79.7112808,95.0831285 83.7042808,90.2731285 C87.1162808,86.1621285 91.3032808,79.8781285 90.4962808,74.2571285 C90.4382808,73.8551285 90.3972808,73.2571285 90.0182808,73.0021285 C89.0642808,72.3611285 87.1582808,74.8911285 86.2032808,74.2101285" id="Fill-47" fill="#A55100"></path>
                <path d="M86.2032808,73.2621285 C85.6882808,72.8991285 85.6972808,72.0251285 86.3872808,71.8511285 C87.8072808,71.4951285 89.0942808,70.8721285 90.3462808,70.1761285 C91.6792808,69.4351285 92.5912808,68.1001285 92.7472808,66.5841285 C93.4402808,59.8281285 92.4722808,53.7161285 90.2422808,48.3491285 C90.1202808,48.0551285 89.9772808,47.7731285 89.8472808,47.4831285 C86.3472808,46.9021285 82.1542808,46.1461285 78.5922808,46.1151285 C77.7362808,46.1081285 78.1912808,45.2201285 79.0552808,45.0311285 C81.1952808,44.5621285 83.3982808,44.2881285 85.5072808,43.7151285 C86.5222808,43.4391285 86.9632808,42.2451285 86.3542808,41.3881285 C73.3602808,23.1191285 43.8582808,17.0231285 22.2092808,29.1621285 C16.9892808,32.0901285 12.4062808,35.9151285 8.77728083,40.3851285 C8.19128083,41.1071285 8.49728083,42.2221285 9.39028083,42.4821285 C9.87928083,42.6241285 11.7482808,43.3491285 12.2442808,43.5981285 C14.4312808,44.6911285 12.0542808,43.7961285 11.3442808,44.1261285 C10.1522808,44.6791285 8.88828083,44.8111285 7.61428083,44.8571285 C6.30628083,44.9041285 5.11428083,45.6371285 4.49128083,46.7891285 C1.35728083,52.5881285 -0.290719169,59.1031285 0.0422808314,65.9431285 C0.0892808314,66.8991285 0.496280831,67.8131285 1.17428083,68.4901285 C2.54428083,69.8581285 4.40028083,70.7311285 6.52828083,71.4661285 C7.12528083,71.6711285 7.33228083,72.5421285 6.71328083,72.8761285 C5.52028083,73.5201285 4.34528083,74.2021285 3.30328083,75.0001285 C2.50128083,75.6151285 2.20528083,76.6741285 2.57928083,77.6131285 C8.09628083,91.4311285 21.8512808,101.555128 36.2082808,104.651128 C58.1262808,109.379128 81.8542808,99.0181285 89.9932808,78.1071285 C90.4072808,77.0431285 90.0312808,75.8311285 89.0812808,75.1991285 C88.1272808,74.5641285 87.1582808,73.9361285 86.2032808,73.2621285" id="Fill-48" fill="#853900"></path>
                <path d="M86.2032808,70.5971285 C85.6882808,70.2341285 85.6972808,69.3591285 86.3872808,69.1861285 C87.8072808,68.8301285 89.0942808,68.2071285 90.3462808,67.5111285 C91.6792808,66.7701285 92.5912808,65.4351285 92.7472808,63.9191285 C93.4402808,57.1621285 92.4722808,51.0511285 90.2422808,45.6841285 C90.1202808,45.3901285 89.9772808,45.1081285 89.8472808,44.8181285 C86.3472808,44.2371285 82.1542808,43.4811285 78.5922808,43.4501285 C77.7362808,43.4421285 78.1912808,42.5551285 79.0552808,42.3651285 C81.1952808,41.8961285 83.3982808,41.6231285 85.5072808,41.0501285 C86.5222808,40.7741285 86.9632808,39.5791285 86.3542808,38.7221285 C73.3602808,20.4531285 43.8582808,14.3571285 22.2092808,26.4971285 C16.9892808,29.4241285 12.4062808,33.2501285 8.77728083,37.7201285 C8.19128083,38.4421285 8.49728083,39.5561285 9.39028083,39.8171285 C9.87928083,39.9591285 11.7482808,40.6841285 12.2442808,40.9321285 C14.4312808,42.0261285 12.0542808,41.1311285 11.3442808,41.4611285 C10.1522808,42.0141285 8.88828083,42.1461285 7.61428083,42.1911285 C6.30628083,42.2381285 5.11428083,42.9721285 4.49128083,44.1241285 C1.35728083,49.9231285 -0.290719169,56.4381285 0.0422808314,63.2771285 C0.0892808314,64.2341285 0.496280831,65.1481285 1.17428083,65.8251285 C2.54428083,67.1931285 4.40028083,68.0651285 6.52828083,68.8001285 C7.12528083,69.0061285 7.33228083,69.8771285 6.71328083,70.2111285 C5.52028083,70.8551285 4.34528083,71.5361285 3.30328083,72.3341285 C2.50128083,72.9491285 2.20528083,74.0091285 2.57928083,74.9481285 C8.09628083,88.7661285 21.8512808,98.8891285 36.2082808,101.986128 C58.1262808,106.714128 81.8542808,96.3531285 89.9932808,75.4421285 C90.4072808,74.3781285 90.0312808,73.1661285 89.0812808,72.5341285 C88.1272808,71.8991285 87.1582808,71.2701285 86.2032808,70.5971285" id="Fill-49" fill="#D58952"></path>
                <path d="M92.9612808,59.0361285 C91.6902808,59.3371285 90.4252808,59.7321285 89.1832808,60.0251285 C84.0412808,61.2351285 78.3432808,62.2811285 73.0472808,61.9611285 C64.4432808,61.4411285 56.6442808,53.8191285 47.7722808,55.9451285 C44.1882808,56.8041285 42.5092808,59.9741285 39.5662808,61.8791285 C35.5862808,64.4541285 30.5152808,64.7311285 25.9142808,64.6351285 C17.2742808,64.4541285 8.74128083,63.7631285 0.113280831,63.7741285 C0.168280831,64.0741285 0.245280831,64.3691285 0.368280831,64.6461285 C8.51428083,65.0061285 16.6532808,65.4881285 24.7962808,65.8021285 C28.6302808,65.9491285 32.6332808,65.8741285 36.3232808,64.6951285 C39.4822808,63.6861285 41.5772808,61.8491285 43.9482808,59.6341285 C51.7502808,52.3451285 62.1752808,61.4981285 70.5712808,62.9471285 C74.6382808,63.6491285 78.8362808,63.0751285 82.8822808,62.4721285 C86.0832808,61.9951285 89.5412808,60.8491285 92.9452808,60.2291285 C92.9512808,59.8311285 92.9672808,59.4291285 92.9612808,59.0361285" id="Fill-50" fill="#CD7433"></path>
                <path d="M48.7772808,80.0521285 C48.8892808,80.0521285 48.8892808,79.8791285 48.7772808,79.8791285 C48.6652808,79.8791285 48.6652808,80.0521285 48.7772808,80.0521285" id="Fill-51" fill="#CD7433"></path>
                <path d="M38.6322808,84.3991285 C38.8632808,84.2471285 39.0132808,83.8951285 38.8312808,83.6421285 C36.4412808,80.3381285 29.5972808,81.3751285 26.1732808,81.5411285 C19.5972808,81.8581285 13.0112808,81.9851285 6.42828083,82.1961285 L6.47028083,82.2601285 C6.54828083,82.3761285 6.62928083,82.4901285 6.70928083,82.6051285 C6.81228083,82.7541285 6.91628083,82.9021285 7.02128083,83.0491285 C12.2042808,83.0751285 17.4042808,82.9381285 22.5642808,82.7771285 C26.3302808,82.6591285 32.1812808,81.3591285 35.6892808,83.0021285 C37.3092808,83.7601285 37.4742808,83.5891285 35.8992808,84.7431285 C34.2722808,85.9361285 31.0622808,86.2861285 29.1392808,86.4551285 C25.8452808,86.7451285 22.5312808,86.4531285 19.2352808,86.3701285 C15.7862808,86.2831285 12.2792808,86.4311285 8.92228083,85.5341285 C9.30928083,86.0021285 9.70628083,86.4631285 10.1132808,86.9161285 C10.4032808,87.0001285 10.6662808,87.0661285 10.9372808,87.1081285 C14.0852808,87.5941285 17.2972808,87.4361285 20.4712808,87.5391285 C26.8472808,87.7451285 33.0842808,88.0391285 38.6322808,84.3991285" id="Fill-52" fill="#CD7433"></path>
                <path d="M3.58528083,59.8051285 C10.2722808,59.0421285 17.0182808,59.2761285 23.7242808,58.8531285 C27.6542808,58.6061285 32.2372808,58.3841285 35.6772808,56.2511285 C37.2652808,55.2671285 39.5932808,52.9231285 38.2272808,50.9121285 C36.3782808,48.1911285 29.4792808,49.1621285 27.0222808,49.2031285 C18.5452808,49.3461285 10.1012808,50.1401285 1.65128083,50.8381285 C1.56728083,51.1061285 1.48828083,51.3761285 1.40928083,51.6461285 C1.37328083,51.7731285 1.33328083,51.8991285 1.29828083,52.0271285 C6.38128083,51.6741285 11.4602808,51.2121285 16.5452808,50.8881285 C21.5282808,50.5711285 26.5262808,50.3621285 31.5192808,50.4901285 C32.4922808,50.5151285 34.0732808,50.3291285 34.9722808,50.7411285 C36.1012808,50.7081285 36.4122808,51.3591285 35.9042808,52.6941285 C36.4682808,54.0851285 36.0412808,54.9751285 34.6232808,55.3661285 C32.9342808,56.2911285 30.9212808,56.7131285 29.0392808,57.0201285 C20.1132808,58.4781285 10.9372808,57.4291285 1.97628083,58.6841285 C1.35828083,58.7701285 0.730280831,58.8781285 0.0962808314,58.9961285 L0.0912808314,59.0691285 C0.0622808314,59.4721285 0.0422808314,59.8761285 0.0272808314,60.2821285 L0.0232808314,60.3791285 C1.23628083,60.1411285 2.42728083,59.9371285 3.58528083,59.8051285" id="Fill-53" fill="#CD7433"></path>
                <path d="M76.1722808,67.0451285 C72.5972808,67.4741285 68.9222808,67.7711285 65.3082808,67.4811285 C65.2592808,67.3601285 65.1532808,67.2601285 64.9862808,67.2471285 C64.3502808,67.1981285 63.6442808,67.1771285 62.9062808,67.1861285 C62.6332808,67.1421285 62.3592808,67.1081285 62.0872808,67.0551285 C59.5742808,66.5711285 57.5062808,65.6091285 55.3302808,64.3041285 C54.2112808,63.6341285 53.2162808,62.9791285 51.9072808,62.8191285 C48.2292808,62.3711285 44.8102808,65.4251285 41.8032808,67.0381285 C36.4462808,69.9111285 29.9822808,70.7881285 23.9652808,70.5771285 C17.1102808,70.3351285 9.70628083,67.0311285 2.64628083,67.0001285 C3.24528083,67.3911285 3.89528083,67.7341285 4.59128083,68.0431285 C11.4822808,68.7261285 18.5532808,71.7211285 25.3412808,71.7901285 C29.9032808,71.8371285 34.6992808,71.2171285 39.0032808,69.6651285 C43.1092808,68.1841285 48.0292808,63.0971285 52.5012808,64.3281285 C54.4632808,64.8681285 56.0562808,66.3651285 57.9362808,67.1571285 C58.3082808,67.3131285 58.6862808,67.4531285 59.0682808,67.5811285 C56.9912808,68.0071285 55.0182808,68.8241285 53.7282808,70.2491285 C50.8012808,69.0741285 48.2892808,68.1111285 45.3442808,69.9681285 C44.0872808,70.7601285 43.1702808,71.9511285 41.6982808,72.4331285 C40.4022808,72.8581285 38.7832808,72.6941285 37.4442808,72.6871285 C35.1892808,72.6741285 33.1892808,72.9301285 30.9772808,73.3401285 C21.4572808,75.1011285 12.4292808,73.1791285 3.08328083,72.5331285 C2.84628083,72.7691285 2.67128083,73.0501285 2.56128083,73.3531285 C10.8892808,74.3061285 19.1722808,76.3041285 27.5662808,75.1441285 C30.2022808,74.7811285 32.8122808,74.0661285 35.4742808,73.9131285 C37.4512808,73.8001285 39.4742808,74.1581285 41.4282808,73.7281285 C42.7782808,73.4321285 43.5762808,72.8251285 44.6942808,72.0461285 C46.8532808,70.5421285 47.6502808,69.6151285 50.7242808,70.3731285 C51.4792808,70.5601285 52.2552808,70.9111285 53.0112808,71.2491285 C52.8772808,71.4811285 52.7492808,71.7171285 52.6482808,71.9741285 C52.5732808,72.1631285 52.5212808,72.3451285 52.4742808,72.5241285 C48.2922808,72.7841285 44.9972808,75.6211285 41.0582808,76.8041285 C37.3782808,77.9081285 33.7472808,77.6891285 30.2862808,78.8851285 C28.1052808,79.1661285 25.9502808,79.4521285 23.8792808,79.6011285 C17.3062808,80.0731285 10.7862808,80.0421285 4.37028083,78.7831285 C4.56728083,79.1511285 4.75728083,79.4901285 4.95028083,79.8261285 C12.3462808,81.3561285 19.8772808,81.0161285 27.4372808,80.3991285 L27.6202808,80.4671285 L27.8372808,80.3671285 C29.3752808,80.2401285 30.9132808,80.1031285 32.4522808,79.9691285 C37.1422808,79.5591285 42.0632808,78.6951285 46.5792808,80.4301285 C49.0532808,81.3811285 53.0392808,83.9951285 49.4622808,86.4031285 C47.0262808,88.0421285 43.4862808,88.5451285 40.6432808,88.8301285 C32.3012808,89.6681285 23.9272808,88.3361285 15.5582808,89.0951285 C14.6622808,89.1761285 13.6372808,89.2961285 12.5432808,89.4201285 L12.6662808,89.5391285 C12.9292808,89.7891285 13.1962808,90.0341285 13.4652808,90.2781285 L13.6742808,90.4681285 C14.3472808,90.3911285 14.9802808,90.3231285 15.5582808,90.2701285 C26.0592808,89.3181285 37.8652808,92.3611285 47.8742808,88.4201285 C56.7572808,84.9231285 49.4272808,79.3571285 43.4562808,78.4191285 C42.2482808,78.2291285 41.0092808,78.1421285 39.7532808,78.1251285 C40.2752808,78.0211285 40.7972808,77.9001285 41.3182808,77.7471285 C45.1042808,76.6361285 48.3552808,73.8721285 52.3472808,73.5711285 C52.4022808,76.1491285 55.3762808,77.6001285 57.7512808,78.4441285 C59.6952808,79.1341285 61.6252808,79.6411285 63.5042808,80.3871285 C60.7442808,80.9331285 59.3592808,82.9321285 57.9442808,86.0071285 C54.9572808,92.5021285 48.4142808,94.1961285 41.8092808,95.1751285 C35.7412808,96.0751285 29.5032808,96.7731285 23.3382808,97.2191285 C23.9502808,97.5471285 24.5682808,97.8601285 25.1912808,98.1621285 C29.2332808,97.8191285 33.2872808,97.3581285 37.3002808,96.8441285 C41.6382808,97.1061285 46.1222808,96.9961285 50.3382808,95.9481285 C55.2002808,94.7381285 59.5482808,91.8011285 64.5942808,91.3381285 C69.1032808,90.9241285 73.7892808,91.6131285 78.3702808,91.7781285 C78.8112808,91.3991285 79.2422808,91.0081285 79.6682808,90.6111285 C79.2222808,90.6161285 78.7762808,90.6231285 78.3292808,90.6221285 C73.7552808,90.6151285 68.9802808,89.8031285 64.4342808,90.2711285 C60.2672808,90.7001285 56.5942808,92.8541285 52.7082808,94.2291285 C49.9372808,95.2081285 47.1172808,95.6321285 44.2682808,95.8691285 C48.2902808,95.1741285 52.4432808,94.0211285 55.5092808,91.4301285 C59.6982808,87.8891285 58.9742808,81.4111285 65.3062808,81.2011285 L65.4452808,81.2681285 C68.1832808,82.7021285 70.8882808,84.1321285 73.9112808,84.8631285 C77.1512808,85.6451285 80.5482808,85.7571285 83.8852808,86.0621285 C84.1722808,85.7021285 84.4452808,85.3291285 84.7212808,84.9581285 C84.2082808,84.8941285 83.6972808,84.8291285 83.1832808,84.7711285 C80.0182808,84.4161285 76.7962808,84.4721285 73.6982808,83.6511285 C71.1462808,82.9761285 68.8662808,81.7701285 66.5512808,80.5731285 C66.4902808,80.4171285 66.3562808,80.2871285 66.1432808,80.2701285 L65.9422808,80.2611285 C65.7782808,80.1771285 65.6152808,80.0921285 65.4502808,80.0091285 C62.2842808,78.4061285 58.4812808,78.1191285 55.4512808,76.2671285 C53.1922808,74.8861285 53.1542808,73.1581285 54.1242808,71.7021285 C54.5632808,71.7931285 54.8142808,71.3531285 54.7282808,70.9591285 C55.4712808,70.1871285 56.4742808,69.5381285 57.5172808,69.1371285 C58.7442808,68.6651285 60.0392808,68.3671285 61.3522808,68.1911285 C61.8552808,68.2971285 62.3612808,68.3931285 62.8692808,68.4731285 C66.9182808,69.1001285 71.0612808,68.9331285 75.1212808,68.4971285 C80.2352808,67.9471285 85.2932808,67.3301285 90.4442808,67.1811285 C90.5882808,67.1771285 90.7452808,67.1591285 90.8912808,67.1531285 C91.3672808,66.7961285 91.7662808,66.3561285 92.0752808,65.8581285 C86.7452808,66.0891285 81.4872808,66.4061285 76.1722808,67.0451285" id="Fill-54" fill="#CD7433"></path>
                <path d="M62.4132808,74.2241285 C63.1362808,79.1761285 72.8782808,79.1551285 76.2212808,79.0891285 C80.3112808,79.0071285 84.3952808,78.9171285 88.4792808,78.8401285 C88.7282808,78.3421285 88.9742808,77.8411285 89.2032808,77.3281285 C87.2062808,77.3501285 85.2122808,77.4001285 83.2242808,77.5051285 C77.8052808,77.7901285 70.9072808,79.0681285 65.9122808,76.3411285 C58.8972808,72.5111285 70.8532808,71.1541285 73.3032808,70.9671285 C77.7502808,70.6281285 82.1772808,70.5451285 86.5962808,70.8651285 C86.4652808,70.7751285 86.3332808,70.6891285 86.2032808,70.5971285 C85.9872808,70.4441285 85.8692808,70.2021285 85.8502808,69.9581285 C76.7062808,69.2641285 61.6592808,69.0541285 62.4132808,74.2241285" id="Fill-55" fill="#CD7433"></path>
                <path d="M67.3152808,94.0991285 C63.3222808,93.9091285 61.7182808,95.1011285 58.2982808,96.7651285 C55.2372808,98.2561285 52.1542808,97.5141285 48.9362808,98.0041285 C46.5882808,98.3611285 44.3392808,99.1411285 42.0652808,99.7991285 C39.0462808,100.672128 36.0102808,101.011128 32.9522808,101.156128 L33.0312808,101.179128 C33.4872808,101.311128 33.9452808,101.436128 34.4032808,101.555128 L34.6482808,101.619128 C35.1462808,101.745128 35.6452808,101.863128 36.1452808,101.972128 L36.2082808,101.986128 L36.4542808,102.034128 C36.6082808,102.063128 36.7632808,102.092128 36.9172808,102.123128 C37.6202808,102.051128 38.3212808,101.958128 39.0202808,101.829128 C41.5382808,101.366128 43.9322808,100.467128 46.4152808,99.8731285 C49.6142808,99.1081285 52.7162808,99.5121285 55.9002808,99.0231285 C59.7812808,98.4281285 62.0732808,95.3711285 66.2792808,95.4111285 C68.2932808,95.4311285 70.2702808,95.8051285 72.2402808,96.1881285 C72.4592808,96.0571285 72.6762808,95.9221285 72.8932808,95.7861285 C73.1972808,95.5971285 73.5002808,95.4061285 73.8002808,95.2101285 C73.9732808,95.0971285 74.1412808,94.9791285 74.3122808,94.8641285 C71.9722808,94.4091285 69.5222808,94.2031285 67.3152808,94.0991285" id="Fill-56" fill="#CD7433"></path>
                <path d="M74.1312808,47.0831285 C71.9352808,48.8111285 65.9382808,47.3281285 63.3372808,47.1501285 C62.1582808,47.0691285 61.0392808,47.1241285 59.8602808,47.1951285 C59.1032808,47.2401285 58.0572808,47.4251285 57.3062808,47.2811285 C54.8452808,46.8101285 55.5092808,45.3321285 57.2662808,44.5261285 C58.9982808,43.7311285 61.6612808,43.9041285 63.5002808,43.8601285 C64.6652808,43.8321285 65.8252808,43.8621285 66.9842808,43.9151285 C67.0492808,44.0081285 67.1512808,44.0801285 67.3012808,44.0991285 C68.7342808,44.2711285 77.2582808,44.6201285 74.1312808,47.0831285 Z M68.3772808,43.2111285 C65.3402808,42.8911285 62.2452808,42.9161285 59.2472808,43.2911285 C57.6732808,43.4881285 54.9362808,43.6981285 54.2322808,45.4451285 C52.5882808,49.5211285 61.5312808,47.9971285 63.3372808,48.1271285 C65.6882808,48.2951285 75.4272808,50.3831285 76.1292808,46.3811285 C76.6422808,43.4551285 71.1492808,43.1151285 68.3772808,43.2111285 L68.3772808,43.2111285 Z" id="Fill-57" fill="#CD7433"></path>
                <path d="M6.87628083,54.0291285 C9.27628083,53.6221285 11.7172808,52.8181285 14.1742808,53.0391285 C15.2102808,53.0811285 16.1542808,53.3951285 17.0052808,53.9821285 C16.5732808,54.1511285 16.1412808,54.3201285 15.7082808,54.4891285 C14.3862808,55.0881285 12.6612808,55.1251285 11.2472808,55.2601285 C7.77728083,55.5901285 4.13328083,55.6781285 0.466280831,55.8341285 C0.405280831,56.2031285 0.349280831,56.5741285 0.300280831,56.9461285 C1.21628083,56.8701285 2.13328083,56.8101285 3.05428083,56.7731285 C7.89128083,56.5761285 13.8342808,57.1901285 18.1822808,54.6271285 C18.5012808,54.4381285 18.5612808,53.9851285 18.2982808,53.7221285 C15.2602808,50.6721285 10.7222808,52.1741285 7.01228083,52.8701285 C5.07528083,53.2341285 3.00028083,53.3371285 0.927280831,53.4911285 C0.872280831,53.7281285 0.821280831,53.9661285 0.770280831,54.2041285 C0.743280831,54.3391285 0.712280831,54.4721285 0.686280831,54.6061285 C2.75728083,54.4791285 4.84328083,54.3741285 6.87628083,54.0291285" id="Fill-58" fill="#CD7433"></path>
                <path d="M73.2462808,59.1991285 C73.4002808,59.2761285 73.5542808,59.3231285 73.7082808,59.3811285 C75.8802808,61.4901285 80.8962808,59.4341285 83.0402808,58.1971285 C83.6042808,57.8721285 83.3172808,57.0801285 82.7252808,57.0361285 C82.5372808,57.0231285 82.3462808,57.0091285 82.1552808,56.9951285 C79.4112808,56.0351285 75.9722808,56.2461285 73.3222808,57.3541285 C73.0402808,57.4721285 72.8062808,57.7421285 72.9132808,58.0741285 C72.9442808,58.1701285 72.9912808,58.2461285 73.0282808,58.3351285 C72.8652808,58.6231285 72.9212808,59.0371285 73.2462808,59.1991285" id="Fill-59" fill="#CD7433"></path>
                <path d="M11.3002808,34.8881285 L11.1872808,35.0071285 C12.0972808,35.5891285 13.1232808,35.9481285 14.3462808,36.1441285 C20.4352808,37.1231285 26.6402808,34.6631285 32.5942808,33.8371285 C35.5122808,33.4321285 38.4172808,33.1911285 41.3252808,32.6881285 C45.5782808,31.9521285 48.7662808,32.3121285 52.9532808,33.1421285 C58.9132808,34.3231285 65.1322808,34.3141285 71.1822808,34.6671285 C74.0942808,34.8371285 78.7872808,35.1071285 82.0522808,33.6891285 C81.7102808,33.3521285 81.3622808,33.0211285 81.0092808,32.6961285 C78.4552808,33.6761285 74.4772808,33.4481285 72.4352808,33.3681285 C69.4872808,33.2541285 66.5442808,32.9811285 63.5972808,32.8391285 C59.9292808,32.6621285 56.2592808,32.4741285 52.6572808,31.7071285 C49.7492808,31.0871285 47.2592808,30.5781285 44.2532808,30.9021285 C38.4582808,31.5241285 32.5622808,32.3981285 26.8542808,33.6081285 C23.4912808,34.3211285 20.0892808,35.0981285 16.6302808,35.0691285 C14.8752808,35.0551285 13.4252808,34.7541285 12.1362808,34.0451285 L12.0232808,34.1541285 C11.7792808,34.3961285 11.5382808,34.6411285 11.3002808,34.8881285" id="Fill-60" fill="#CD7433"></path>
                <path d="M34.8212808,21.6211285 C34.3112808,21.7421285 33.8032808,21.8731285 33.2962808,22.0101285 C34.3602808,22.4371285 35.4512808,22.8051285 36.3412808,23.2841285 C39.6072808,25.0401285 42.5272808,27.2351285 46.4252808,27.2001285 C50.2052808,27.1661285 52.7392808,25.0641285 55.6972808,23.0091285 C56.6642808,22.3381285 57.6572808,21.8401285 58.6722808,21.4551285 C58.5052808,21.4191285 58.3392808,21.3811285 58.1722808,21.3471285 C57.8242808,21.2731285 57.4742808,21.2031285 57.1242808,21.1361285 C56.9482808,21.1031285 56.7712808,21.0751285 56.5952808,21.0441285 C55.0472808,21.9601285 53.6372808,23.0981285 52.0632808,24.1371285 C47.2902808,27.2861285 42.5952808,25.6751285 38.0682808,23.0601285 C37.0702808,22.4831285 35.9492808,22.0501285 34.8212808,21.6211285" id="Fill-61" fill="#CD7433"></path>
                <path d="M3.28128083,46.5751285 C5.24128083,46.5761285 7.20028083,46.5731285 9.16028083,46.5791285 C15.3042808,46.5981285 21.4832808,47.4251285 27.6382808,47.4051285 C27.5302808,47.6461285 27.6972808,47.9771285 28.0312808,47.8871285 C34.5492808,46.1391285 40.7812808,49.5141285 46.5042808,52.2541285 C51.4902808,54.6421285 56.2582808,56.6491285 61.8862808,56.6081285 C69.0452808,56.5551285 75.8502808,53.9661285 82.9262808,53.2431285 C86.0582808,52.9241285 89.2092808,52.9261285 92.3132808,52.6951285 C92.2852808,52.5411285 92.2632808,52.3831285 92.2322808,52.2301285 C92.2042808,52.0901285 92.1742808,51.9511285 92.1452808,51.8111285 C92.1042808,51.6241285 92.0542808,51.4411285 92.0112808,51.2551285 C88.0622808,51.5651285 84.0472808,51.5011285 80.1132808,52.1281285 C72.5092808,53.3401285 64.8222808,56.2391285 57.0332808,54.7911285 C50.3112808,53.5411285 43.3772808,48.1521285 36.3192808,46.6511285 C36.5502808,46.6111285 36.7812808,46.5751285 37.0122808,46.5331285 C37.0502808,46.5901285 37.1072808,46.6351285 37.2002808,46.6371285 C42.0632808,46.7711285 45.5282808,50.9581285 50.3222808,51.7621285 C55.6672808,52.6571285 61.2292808,52.5881285 66.6222808,52.3101285 C70.7102808,52.0991285 74.5262808,51.2981285 78.1292808,49.3021285 C80.5832808,47.9411285 82.7332808,46.0981285 85.3942808,45.1231285 C86.1022808,44.8641285 86.8232808,44.6591285 87.5512808,44.4801285 C86.8162808,44.3821285 86.0792808,44.3011285 85.3412808,44.2271285 C83.6962808,44.8451285 82.0962808,45.6131285 80.5342808,46.6251285 C75.6322808,49.8011285 71.1032808,51.1591285 65.2362808,51.4141285 C59.6162808,51.6591285 52.6112808,52.2111285 47.2982808,50.1221285 C44.2542808,48.9261285 41.9282808,46.6371285 38.7612808,46.2041285 C44.0902808,45.0981285 49.3242808,43.4301285 54.5862808,42.1151285 C58.7942808,41.0641285 63.0382808,40.1441285 67.3892808,40.0091285 C70.5762808,39.9111285 73.8792808,40.8561285 77.0052808,40.2271285 C77.8702808,40.4111285 78.7372808,40.5891285 79.5972808,40.7931285 C80.7862808,41.0761285 81.9672808,41.3361285 83.1462808,41.5801285 C83.9402808,41.4261285 84.7302808,41.2611285 85.5072808,41.0501285 C85.6252808,41.0171285 85.7322808,40.9711285 85.8342808,40.9161285 C81.6772808,40.0761285 77.5802808,38.9081285 73.3942808,38.1981285 C63.2542808,36.4751285 52.8582808,35.9871285 42.6002808,36.7191285 C37.8152808,37.0601285 33.3492808,38.5261285 28.6412808,39.2861285 C24.1092808,40.0171285 20.1912808,39.0731285 15.8572808,37.9811285 C14.3142808,37.5921285 12.1832808,36.8981285 9.93528083,36.3641285 C9.68628083,36.6461285 9.44428083,36.9321285 9.20428083,37.2201285 L8.99428083,37.4661285 C9.56128083,37.6041285 10.0962808,37.7381285 10.5732808,37.8451285 C13.8052808,38.5701285 16.9782808,39.5341285 20.2092808,40.2571285 C23.8242808,41.0661285 27.3372808,40.8351285 30.9452808,40.0791285 C36.4292808,38.9321285 41.6242808,37.9111285 47.2522808,37.7271285 C56.1862808,37.4361285 65.2152808,38.0191285 74.0272808,39.6391285 C71.1682808,39.5011285 68.1762808,38.8801285 65.3962808,39.0771285 C62.1152808,39.3091285 58.8902808,39.9591285 55.6942808,40.7161285 C47.8472808,42.5751285 40.0732808,45.4241285 31.9932808,46.1071285 C24.1522808,46.7701285 16.2422808,45.4561285 8.39228083,45.4301285 C6.87028083,45.4261285 5.34728083,45.4281285 3.82428083,45.4261285 C3.63728083,45.8061285 3.45628083,46.1891285 3.28128083,46.5751285" id="Fill-62" fill="#CD7433"></path>
                <path d="M49.2732808,29.9661285 C56.2752808,29.5901285 63.2182808,28.3901285 70.2382808,28.3151285 C72.0392808,28.2961285 73.8442808,28.3481285 75.6412808,28.4991285 C74.8122808,27.9511285 73.9582808,27.4371285 73.0892808,26.9411285 C72.0892808,26.9321285 71.1242808,26.9431285 70.2382808,26.9531285 C63.4542808,27.0331285 56.7412808,28.1461285 49.9782808,28.5631285 C40.3692808,29.1561285 29.3872808,26.4321285 19.5852808,28.0921285 C19.4772808,28.1631285 19.3682808,28.2341285 19.2602808,28.3051285 C18.8382808,28.5831285 18.4182808,28.8641285 18.0062808,29.1551285 C17.9022808,29.2281285 17.8012808,29.3031285 17.6972808,29.3781285 C17.2372808,29.7081285 16.7802808,30.0421285 16.3332808,30.3871285 C26.9922808,27.6121285 38.2772808,30.5551285 49.2732808,29.9661285" id="Fill-63" fill="#CD7433"></path>
                <path d="M89.8472808,44.8181285 C89.1462808,44.7011285 88.4132808,44.5781285 87.6672808,44.4551285 C90.1972808,49.6611285 91.1342808,55.1081285 91.2372808,60.8481285 C91.2552808,61.8741285 91.2512808,62.9001285 91.2242808,63.9251285 C91.2112808,64.4011285 91.4052808,66.7301285 91.0652808,67.0111285 C91.7242808,66.4671285 92.2292808,65.7611285 92.5102808,64.9601285 C92.7002808,61.4691285 93.2522808,58.7211285 92.9622808,55.5711285 C92.7842808,53.6361285 91.8872808,51.1141285 91.5162808,49.3411285 C91.1512808,48.0891285 90.7332808,46.8651285 90.2422808,45.6841285 C90.1202808,45.3901285 89.9772808,45.1081285 89.8472808,44.8181285" id="Fill-64" fill="#E3AF8A"></path>
                <path d="M85.6462808,40.9931285 C86.5562808,40.6471285 86.9332808,39.5371285 86.3542808,38.7221285 C73.3602808,20.4531285 43.8582808,14.3571285 22.2092808,26.4971285 C16.9892808,29.4241285 12.4062808,33.2501285 8.77728083,37.7201285 C8.20928083,38.4191285 8.48328083,39.4791285 9.31128083,39.7821285 C16.3562808,31.3261285 26.7922808,24.9671285 37.6232808,23.3561285 C48.9002808,21.6791285 62.5432808,23.4761285 72.4072808,29.3861285 C77.6722808,32.5411285 82.3942808,36.2891285 85.6462808,40.9931285" id="Fill-65" fill="#E3AF8A"></path>
                <path d="M1.87928083,66.4461285 C1.34628083,63.5401285 0.891280831,60.6301285 1.18728083,57.5611285 C1.72128083,52.0401285 4.18328083,46.7041285 7.42028083,42.2111285 C6.18928083,42.3201285 5.08328083,43.0291285 4.49228083,44.1241285 C1.35728083,49.9231285 -0.290719169,56.4381285 0.0422808314,63.2771285 C0.0892808314,64.2341285 0.496280831,65.1481285 1.17428083,65.8251285 C1.39528083,66.0461285 1.63328083,66.2501285 1.87928083,66.4461285" id="Fill-66" fill="#E3AF8A"></path>
                <path d="M2.98728083,73.8451285 C2.96428083,73.4771285 2.93328083,73.1121285 2.89728083,72.7481285 C2.41628083,73.3651285 2.27828083,74.1931285 2.57928083,74.9481285 C3.39228083,76.9831285 4.38828083,78.9361285 5.53428083,80.8011285 C4.83128083,78.4381285 3.87328083,76.1511285 2.98728083,73.8451285" id="Fill-67" fill="#E3AF8A"></path>
                <path d="M90.5472808,73.4681285 L90.4012808,73.3641285 L90.2472808,73.2541285 C89.7502808,72.8811285 89.2422808,72.5621285 88.7262808,72.2951285 C87.4772808,71.5361285 86.2372808,70.7871285 85.1902808,69.7121285 C84.5852808,69.0901285 76.0912808,72.0501285 71.8452808,72.5421285 C69.9412808,72.7631285 68.0572808,73.1011285 66.1542808,73.3341285 C63.0562808,73.7131285 60.5562808,73.1201285 57.6062808,72.3011285 C53.3562808,71.1211285 48.8952808,70.6731285 44.4912808,70.8271285 C40.0322808,70.9811285 35.6822808,72.0161285 31.2172808,72.1191285 C27.3642808,72.2071285 23.5312808,71.8761285 19.6832808,71.7741285 C17.3612808,71.7131285 15.0412808,71.7171285 12.7202808,71.5881285 C11.6092808,71.5261285 9.36328083,71.6401285 7.67128083,71.2661285 C7.51028083,71.3641285 7.34228083,71.4531285 7.16628083,71.5291285 C7.03528083,71.7271285 6.84328083,71.8461285 6.62428083,71.9071285 C8.58128083,72.9741285 12.7542808,72.8841285 13.9362808,72.9521285 C20.5442808,73.3311285 27.3342808,73.9011285 33.9332808,73.4451285 C38.7042808,73.1161285 43.3212808,72.0971285 48.1382808,72.3121285 C53.0252808,72.5311285 57.3732808,74.3961285 62.1292808,74.9421285 C66.1722808,75.4061285 70.7472808,74.2911285 74.7202808,73.6241285 C79.1492808,72.8811285 83.9402808,71.3831285 88.0492808,73.4971285 C88.6012808,73.8411285 89.1552808,74.1891285 89.6992808,74.5681285 L89.9182808,74.6591285 C89.7132808,75.5371285 89.4862808,76.4071285 89.2292808,77.2661285 C89.4972808,76.6661285 89.7532808,76.0591285 89.9932808,75.4421285 C90.0932808,75.1851285 90.1422808,74.9211285 90.1502808,74.6581285 C90.6462808,74.5571285 91.0272808,73.8521285 90.5472808,73.4681285" id="Fill-68" fill="#E3AF8A"></path>
                <path d="M84.7152808,43.6571285 C78.1452808,42.9551285 71.9142808,44.9171285 65.4492808,45.4251285 C59.0962808,45.9241285 53.1662808,43.2121285 46.8782808,42.9711285 C40.4232808,42.7231285 33.6472808,44.7781285 27.3312808,43.6151285 C22.2112808,42.6721285 17.1822808,42.1291285 12.0572808,41.5361285 C12.0032808,41.7901285 11.8332808,42.0231285 11.5332808,42.1171285 C11.2672808,42.2011285 10.9712808,42.2531285 10.6722808,42.2791285 C12.9142808,42.6421285 15.1682808,42.8761285 17.4282808,43.1391285 C21.1652808,43.5731285 24.7312808,44.5451285 28.4302808,45.1361285 C30.8082808,45.5161285 32.8552808,45.2351285 35.2022808,44.9071285 C38.7802808,44.4081285 42.5432808,44.2471285 46.1582808,44.3351285 C52.7062808,44.4951285 58.8412808,47.3131285 65.4492808,46.8261285 C68.6582808,46.5891285 71.7982808,45.7361285 75.0012808,45.3911285 C78.2312808,45.0441285 81.4972808,45.1341285 84.7152808,44.7491285 C85.4122808,44.6661285 85.4212808,43.7321285 84.7152808,43.6571285" id="Fill-69" fill="#E3AF8A"></path>
                <path d="M8.63928083,42.1751285 C11.7242808,42.4521285 14.8282808,42.3141285 17.9212808,42.4521285 C21.4832808,42.6101285 24.9032808,43.2781285 28.4152808,43.7811285 C34.6052808,44.6671285 40.8712808,44.3921285 47.1012808,44.6141285 C53.5662808,44.8451285 59.9202808,46.1181285 66.4112808,45.6471285 C69.3822808,45.4311285 72.1272808,44.5091285 75.0272808,43.9171285 C76.2112808,43.6761285 77.4022808,43.5561285 78.5922808,43.4501285 C78.3962808,43.0451285 78.5152808,42.4841285 79.0552808,42.3651285 C80.8172808,41.9791285 82.6202808,41.7171285 84.3802808,41.3191285 C84.2772808,41.2571285 84.1592808,41.2141285 84.0072808,41.2241285 C78.1572808,41.6541285 72.4512808,41.7941285 66.7442808,43.0861285 C60.8102808,44.4301285 54.1132808,42.7381285 48.1022808,42.4581285 C41.7982808,42.1651285 35.4922808,41.9301285 29.1922808,41.6541285 C25.8262808,41.5061285 22.6322808,41.5171285 19.2622808,41.1021285 C16.7232808,40.7891285 11.9322808,39.8211285 9.39028083,39.8171285 C9.50928083,40.1481285 11.7182808,41.2871285 11.3442808,41.4611285 C10.4322808,41.8841285 9.47728083,42.0591285 8.50728083,42.1401285 L8.63928083,42.1751285" id="Fill-70" fill="#A55100"></path>
                <path d="M86.2792808,69.2321285 C81.0022808,69.6621285 75.8212808,71.2491285 70.4592808,71.1991285 C66.5672808,71.1621285 62.6992808,70.6981285 58.8212808,70.4251285 C55.0102808,70.1571285 51.2092808,70.2311285 47.4162808,69.7331285 C40.1322808,68.7761285 33.2502808,68.7591285 25.9062808,69.0941285 C21.9282808,69.2751285 17.9582808,69.3151285 13.9772808,69.3491285 C11.9952808,69.3651285 8.83628083,68.9151285 6.52828083,68.8001285 C5.98528083,67.8831285 6.92828083,70.0951285 6.71328083,70.2111285 C5.94128083,70.6281285 5.18028083,71.0641285 4.45528083,71.5341285 C10.3982808,72.1451285 16.7322808,71.4801285 22.5612808,71.8621285 C30.3342808,72.3721285 37.9382808,71.6391285 45.6532808,71.1311285 C46.1322808,71.0991285 46.6102808,71.0831285 47.0872808,71.0801285 C49.5032808,71.4031285 51.9482808,71.6511285 54.4062808,71.8401285 C59.0382808,72.6811285 63.6392808,73.8961285 68.3992808,73.7361285 C72.4262808,73.6001285 76.2922808,72.2961285 80.1732808,71.3371285 C82.1682808,71.0051285 84.1612808,70.7031285 86.1572808,70.5541285 C85.7232808,70.1941285 85.7272808,69.4611285 86.2792808,69.2321285" id="Fill-71" fill="#A55100"></path>
                <path d="M35.4472808,43.9161285 C30.5092808,43.3121285 25.6382808,42.3411285 20.7062808,41.7141285 C20.3732808,41.6711285 20.0242808,41.6471285 19.6672808,41.6351285 C19.2892808,41.5581285 18.8862808,41.5471285 18.4852808,41.5481285 C18.0232808,41.3561285 17.4882808,41.4161285 16.9962808,41.4431285 L16.7402808,41.4631285 C16.6992808,41.3941285 16.6322808,41.3401285 16.5372808,41.3141285 C14.2392808,40.6901285 11.7252808,40.2511285 9.35228083,40.0361285 C9.12728083,40.0161285 9.01628083,40.1651285 9.00228083,40.3341285 C8.91728083,40.4491285 8.89428083,40.6071285 9.01928083,40.7141285 C9.17128083,40.8441285 9.33328083,40.9571285 9.50028083,41.0561285 C9.12928083,41.1801285 9.01328083,41.6831285 9.36728083,41.8751285 L9.59028083,41.9721285 C9.63328083,42.1471285 9.76628083,42.2961285 9.99928083,42.2991285 C10.6942808,42.2941285 11.3802808,42.2661285 12.0632808,42.2061285 C14.4552808,42.9061285 17.7462808,42.2861285 19.9972808,42.5231285 C25.2082808,43.0711285 30.1952808,44.3951285 35.4472808,44.0391285 L35.4472808,43.9161285" id="Fill-72" fill="#853900"></path>
                <path d="M81.7382808,42.8241285 C81.2362808,42.6761285 80.6402808,42.6921285 80.0542808,42.7181285 C79.8672808,42.6901285 79.6752808,42.6821285 79.4802808,42.6941285 L79.3212808,42.5551285 C74.3122808,41.6911285 69.0602808,44.4931285 63.9352808,44.2581285 C58.0052808,43.9861285 51.7892808,43.2131285 45.8662808,43.7931285 C45.6752808,43.8121285 45.5982808,44.1101285 45.8172808,44.1561285 C51.4402808,45.3441285 57.5342808,45.0261285 63.2662808,45.3621285 C67.5482808,45.6131285 71.5412808,44.5761285 75.6392808,43.7401285 C76.4392808,43.7251285 77.2322808,43.6571285 78.0312808,43.5681285 C78.2262808,43.5471285 78.4322808,43.5311285 78.6422808,43.5131285 C78.9912808,43.5561285 79.3382808,43.6011285 79.6742808,43.6321285 C80.4382808,43.7031285 81.2392808,43.8131285 81.8692808,43.3191285 C82.0542808,43.1751285 81.9322808,42.8801285 81.7382808,42.8241285" id="Fill-73" fill="#853900"></path>
                <path d="M33.9292808,69.8861285 C26.1002808,69.1561285 17.7492808,70.4931285 9.86628083,69.6641285 C8.38728083,69.2671285 6.90128083,68.9131285 5.40328083,68.5871285 L5.21128083,68.5891285 C5.12028083,68.5641285 5.02928083,68.5441285 4.93828083,68.5191285 C4.34428083,68.3591285 4.09128083,69.2771285 4.68428083,69.4411285 C4.77728083,69.4661285 4.86628083,69.4891285 4.95728083,69.5121285 C4.99428083,69.5871285 5.05828083,69.6521285 5.15728083,69.6861285 C5.31428083,69.7411285 5.46928083,69.7861285 5.62328083,69.8311285 L5.57228083,69.8621285 C5.32728083,69.8481285 5.13928083,70.0531285 5.09728083,70.2811285 C4.92528083,70.4921285 4.90328083,70.8081285 5.21928083,70.9601285 L5.33428083,71.0081285 C9.01128083,72.6901285 13.9302808,71.3501285 17.8182808,71.2011285 C23.1992808,70.9941285 28.5482808,70.8771285 33.9292808,70.9391285 C34.6182808,70.9481285 34.5932808,69.9481285 33.9292808,69.8861285" id="Fill-74" fill="#853900"></path>
                <path d="M87.6792808,69.4761285 C87.2752808,69.3331285 86.4982808,69.2721285 86.5262808,69.2721285 C84.9612808,69.2781285 83.2302808,69.6841285 81.6672808,69.8861285 C80.5202808,70.0341285 79.3822808,70.2461285 78.2502808,70.4831285 C76.0522808,70.9441285 73.8782808,71.5171285 71.6762808,71.9611285 C69.6182808,72.3761285 67.3782808,72.8371285 65.2782808,72.6411285 C62.0532808,72.3401285 58.9282808,71.4461285 55.7392808,70.9221285 C52.5852808,70.4041285 49.3332808,70.3421285 46.1562808,70.6751285 C45.8732808,70.7041285 45.8722808,71.0861285 46.1562808,71.1161285 C49.0042808,71.4131285 51.8732808,71.4421285 54.7192808,71.7591285 C58.2602808,72.1541285 61.6862808,73.4061285 65.2472808,73.5431285 C69.2452808,73.6981285 72.9652808,72.7891285 76.8602808,72.0931285 C80.3232808,71.4731285 83.7722808,70.9581285 87.2462808,70.4411285 C87.5222808,70.4001285 87.5302808,70.1341285 87.4042808,69.9561285 L87.8422808,69.7681285 C87.9992808,69.6471285 87.8892808,69.5511285 87.6792808,69.4761285" id="Fill-75" fill="#853900"></path>
            </g>
        </g>
    </g>
</svg>