<?xml version="1.0" encoding="UTF-8"?>
<svg width="1728px" height="464px" viewBox="0 0 1728 464" version="1.1" xmlns="http://www.w3.org/2000/svg" xmlns:xlink="http://www.w3.org/1999/xlink">
    <!-- Generator: Sketch 55.2 (78181) - https://sketchapp.com -->
    <title>Group 2</title>
    <desc>Created with Sketch.</desc>
    <defs>
        <polyline id="path-1" points="33.8952 0.445714286 85.5952 14.1942857 20.0418 14.1942857 0.0636 0.445714286 33.8952 0.445714286"></polyline>
        <polyline id="path-3" points="33.8952 0.445714286 85.5952 14.1942857 20.0418 14.1942857 0.0636 0.445714286 33.8952 0.445714286"></polyline>
        <polyline id="path-5" points="33.8952 0.445714286 85.5952 14.1942857 20.0418 14.1942857 0.0636 0.445714286 33.8952 0.445714286"></polyline>
        <polyline id="path-7" points="33.8952 0.445714286 85.5952 14.1942857 20.0418 14.1942857 0.0636 0.445714286 33.8952 0.445714286"></polyline>
        <polyline id="path-9" points="33.8952 0.445714286 85.5952 14.1942857 20.0418 14.1942857 0.0636 0.445714286 33.8952 0.445714286"></polyline>
        <polyline id="path-11" points="33.8952 0.445714286 85.5952 14.1942857 20.0418 14.1942857 0.0636 0.445714286 33.8952 0.445714286"></polyline>
        <polyline id="path-13" points="33.8952 0.445714286 85.5952 14.1942857 20.0418 14.1942857 0.0636 0.445714286 33.8952 0.445714286"></polyline>
        <polyline id="path-15" points="33.8952 0.445714286 85.5952 14.1942857 20.0418 14.1942857 0.0636 0.445714286 33.8952 0.445714286"></polyline>
        <polyline id="path-17" points="31.6133478 0.1352 0.68073913 10.7744 13.3065652 20.0804 50.7804783 13.5728 31.6133478 0.1352"></polyline>
        <polyline id="path-19" points="31.6133478 0.1352 0.68073913 10.7744 13.3065652 20.0804 50.7804783 13.5728 31.6133478 0.1352"></polyline>
        <polyline id="path-21" points="31.6133478 0.1352 0.68073913 10.7744 13.3065652 20.0804 50.7804783 13.5728 31.6133478 0.1352"></polyline>
        <polyline id="path-23" points="31.6133478 0.1352 0.68073913 10.7744 13.3065652 20.0804 50.7804783 13.5728 31.6133478 0.1352"></polyline>
    </defs>
    <g id="Page-1" stroke="none" stroke-width="1" fill="none" fill-rule="evenodd">
        <g id="Group-2" transform="translate(-1.000000, 0.000000)">
            <g id="boat24-(1)" transform="translate(190.000000, 0.000000)" fill-rule="nonzero">
                <g id="Group-2" transform="translate(769.520000, 177.013000) scale(-1, 1) translate(-769.520000, -177.013000) translate(0.020000, 0.013000)">
                    <polyline id="Fill-185" fill="#7AA4C1" points="1011.24 12.872 1014.46 0 1053.07 0 1059.51 12.872 1011.24 12.872"></polyline>
                    <polyline id="Fill-186" fill="#D7DFEC" points="999.17 8.849 986.3 103.779 1084.9 103.016 1069.22 10.098 999.17 8.849"></polyline>
                    <polyline id="Fill-187" fill="#9FADBA" points="543.83 45.856 535.79 84.471 553.49 84.471 543.83 45.856"></polyline>
                    <polyline id="Fill-188" fill="#9FADBA" points="893.78 69.99 885.74 108.606 903.44 108.606 893.78 69.99"></polyline>
                    <polyline id="Fill-189" fill="#9FADBA" points="1224.43 65.163 1216.38 103.779 1234.08 103.779 1224.43 65.163"></polyline>
                    <path d="M0,226.06 L12.87,235.714 L252.69,253.896 L458.56,269.503 L1528.52,275.938 L1538.18,267.893 C1538.18,267.893 1475.43,174.573 1462.56,172.964 L1467.38,156.874 C1467.38,156.874 1472.21,150.439 1462.56,147.221 C1452.9,144.003 1375.67,147.221 1375.67,147.221 L1370.84,134.349 C1370.84,134.349 1377.28,131.131 1370.84,126.304 C1364.41,121.477 1306.48,123.086 1306.48,123.086 L1306.48,108.606 L1288.79,108.606 L1288.79,86.08 L1209.95,87.689 L1199.49,77.231 L1090.88,77.231 L1090.88,98.952 L960.56,98.952 L947.69,108.606 L931.6,108.606 L931.6,94.125 L846.32,94.125 L846.32,116.65 L651.98,115.888 L621.41,90.145 L320.19,81.253 L293.64,107.801 L293.58,119.911 L284.74,124.335 C278.7,125.139 277.5,125.944 271.86,125.5 L259.05,125.5 L240.14,144.405 L251.1,145.674 L252.7,157.664 L238.48,177.833 L209.17,176.182 L170.55,224.451 L0,226.06" id="Fill-190" fill="#A8D2EE"></path>
                    <path d="M508.44,143.198 L471.43,143.198 C467.45,143.198 464.19,139.94 464.19,135.958 C464.19,131.975 467.45,128.717 471.43,128.717 L508.44,128.717 C512.42,128.717 515.68,131.975 515.68,135.958 C515.68,139.94 512.42,143.198 508.44,143.198" id="Fill-191" fill="#4C5D6A"></path>
                    <path d="M320.19,81.253 L296.4,108.648 L289.16,122.324 L258.19,125.139 L240.14,144.405 L251.75,157.319 L238.48,177.833 L170.55,224.451 L316.97,233.3 L355.58,183.423 L382.88,183.423 C382.88,183.423 414.26,179.442 417.07,160.939 L405.01,148.568 L415.46,128.358 L419.89,118.704 L433.36,110.86 L439.25,96.538 L320.19,81.253" id="Fill-192" fill="#C7DBE5"></path>
                    <path d="M613.42,142.394 L540.21,142.394 C536.23,142.394 532.97,139.135 532.97,135.153 C532.97,131.171 536.23,127.913 540.21,127.913 L613.42,127.913 C617.4,127.913 620.66,131.171 620.66,135.153 C620.66,139.135 617.4,142.394 613.42,142.394" id="Fill-193" fill="#4C5D6A"></path>
                    <path d="M1354.35,142.394 L648.82,142.394 C644.84,142.394 641.58,139.135 641.58,135.153 C641.58,131.172 644.84,127.913 648.82,127.913 L1354.35,127.913 C1358.33,127.913 1361.59,131.172 1361.59,135.153 C1361.59,139.135 1358.33,142.394 1354.35,142.394" id="Fill-194" fill="#4C5D6A"></path>
                    <path d="M549.5,150.92 L1467.38,156.874 L1466.58,177.389 L537.4,167.735 L537.4,162.939 C537.4,156.27 542.83,150.876 549.5,150.92" id="Fill-195" fill="#33658E"></path>
                    <path d="M1458.82,192.942 L423.09,185.919434 C416.26,185.874 410.69,191.403 410.69,198.238 C410.69,204.726 415.94,209.994 422.42,210.023 L1493.52,214.783036 C1494.8,214.789 1495.5,213.299 1494.68,212.318 L1491.34,208.307 C1483.29,198.648 1471.39,193.027 1458.82,192.942" id="Fill-196" fill="#254461"></path>
                    <path d="M1110.59,265.48 L487.92,265.48 C477.97,265.48 469.82,257.335 469.82,247.379 C469.82,237.424 477.97,229.278 487.92,229.278 L1110.59,229.278 C1120.55,229.278 1128.69,237.424 1128.69,247.379 C1128.69,257.335 1120.55,265.48 1110.59,265.48" id="Fill-197" fill="#33658E"></path>
                    <polygon id="Fill-198" fill="#A8D2EE" points="531.36 265.48 537.4 265.48 537.4 222.038 531.36 222.038"></polygon>
                    <polygon id="Fill-199" fill="#A8D2EE" points="623.07 265.48 629.11 265.48 629.11 222.038 623.07 222.038"></polygon>
                    <polygon id="Fill-200" fill="#A8D2EE" points="709.96 265.48 715.99 265.48 715.99 222.038 709.96 222.038"></polygon>
                    <polygon id="Fill-201" fill="#A8D2EE" points="799.26 265.48 805.29 265.48 805.29 222.038 799.26 222.038"></polygon>
                    <polygon id="Fill-202" fill="#A8D2EE" points="886.14 265.48 892.18 265.48 892.18 222.038 886.14 222.038"></polygon>
                    <polygon id="Fill-203" fill="#A8D2EE" points="973.03 265.48 979.06 265.48 979.06 222.038 973.03 222.038"></polygon>
                    <polygon id="Fill-204" fill="#A8D2EE" points="1055.08 265.48 1061.12 265.48 1061.12 222.038 1055.08 222.038"></polygon>
                    <polygon id="Fill-205" fill="#A8D2EE" points="455.09 215.704 457.87 215.704 457.87 183.731 455.09 183.731"></polygon>
                    <polygon id="Fill-206" fill="#A8D2EE" points="497.39 215.704 500.17 215.704 500.17 183.731 497.39 183.731"></polygon>
                    <polygon id="Fill-207" fill="#A8D2EE" points="537.47 215.704 540.25 215.704 540.25 183.731 537.47 183.731"></polygon>
                    <polygon id="Fill-208" fill="#A8D2EE" points="578.66 215.704 581.44 215.704 581.44 183.731 578.66 183.731"></polygon>
                    <polygon id="Fill-209" fill="#A8D2EE" points="618.74 215.704 621.52 215.704 621.52 183.731 618.74 183.731"></polygon>
                    <polygon id="Fill-210" fill="#A8D2EE" points="658.81 215.704 661.6 215.704 661.6 183.731 658.81 183.731"></polygon>
                    <polygon id="Fill-211" fill="#A8D2EE" points="696.66 218.862 699.45 218.862 699.45 175.42 696.66 175.42"></polygon>
                    <polygon id="Fill-212" fill="#A8D2EE" points="696.43 215.704 699.21 215.704 699.21 183.731 696.43 183.731"></polygon>
                    <polygon id="Fill-213" fill="#A8D2EE" points="738.74 215.704 741.52 215.704 741.52 183.731 738.74 183.731"></polygon>
                    <polygon id="Fill-214" fill="#A8D2EE" points="778.81 215.704 781.6 215.704 781.6 183.731 778.81 183.731"></polygon>
                    <polygon id="Fill-215" fill="#A8D2EE" points="820 215.704 822.79 215.704 822.79 183.731 820 183.731"></polygon>
                    <polygon id="Fill-216" fill="#A8D2EE" points="860.08 215.704 862.86 215.704 862.86 183.731 860.08 183.731"></polygon>
                    <polygon id="Fill-217" fill="#A8D2EE" points="900.16 215.704 902.94 215.704 902.94 183.731 900.16 183.731"></polygon>
                    <polygon id="Fill-218" fill="#A8D2EE" points="938.01 218.862 940.79 218.862 940.79 175.42 938.01 175.42"></polygon>
                    <polygon id="Fill-219" fill="#A8D2EE" points="937.78 215.704 940.56 215.704 940.56 183.731 937.78 183.731"></polygon>
                    <polygon id="Fill-220" fill="#A8D2EE" points="980.08 215.704 982.86 215.704 982.86 183.731 980.08 183.731"></polygon>
                    <polygon id="Fill-221" fill="#A8D2EE" points="1020.16 215.704 1022.94 215.704 1022.94 183.731 1020.16 183.731"></polygon>
                    <polygon id="Fill-222" fill="#A8D2EE" points="1061.35 215.704 1064.13 215.704 1064.13 183.731 1061.35 183.731"></polygon>
                    <polygon id="Fill-223" fill="#A8D2EE" points="1101.43 215.704 1104.21 215.704 1104.21 183.731 1101.43 183.731"></polygon>
                    <polygon id="Fill-224" fill="#A8D2EE" points="1141.5 215.704 1144.29 215.704 1144.29 183.731 1141.5 183.731"></polygon>
                    <polygon id="Fill-225" fill="#A8D2EE" points="1179.36 218.862 1182.14 218.862 1182.14 175.42 1179.36 175.42"></polygon>
                    <polygon id="Fill-226" fill="#A8D2EE" points="1179.12 215.704 1181.91 215.704 1181.91 183.731 1179.12 183.731"></polygon>
                    <polygon id="Fill-227" fill="#A8D2EE" points="1221.43 215.704 1224.21 215.704 1224.21 183.731 1221.43 183.731"></polygon>
                    <polygon id="Fill-228" fill="#A8D2EE" points="1261.5 215.704 1264.29 215.704 1264.29 183.731 1261.5 183.731"></polygon>
                    <polygon id="Fill-229" fill="#A8D2EE" points="1302.69 215.704 1305.48 215.704 1305.48 183.731 1302.69 183.731"></polygon>
                    <polygon id="Fill-230" fill="#A8D2EE" points="1342.77 215.704 1345.56 215.704 1345.56 183.731 1342.77 183.731"></polygon>
                    <polygon id="Fill-231" fill="#A8D2EE" points="1382.85 215.704 1385.63 215.704 1385.63 183.731 1382.85 183.731"></polygon>
                    <polygon id="Fill-232" fill="#A8D2EE" points="1420.7 215.704 1423.48 215.704 1423.48 183.731 1420.7 183.731"></polygon>
                    <polygon id="Fill-233" fill="#A8D2EE" points="572.74 179.04 575.21 179.04 575.21 146.459 572.74 146.459"></polygon>
                    <polygon id="Fill-234" fill="#A8D2EE" points="610.33 179.04 612.8 179.04 612.8 146.459 610.33 146.459"></polygon>
                    <polygon id="Fill-235" fill="#A8D2EE" points="645.94 179.04 648.41 179.04 648.41 146.459 645.94 146.459"></polygon>
                    <polygon id="Fill-236" fill="#A8D2EE" points="682.53 179.04 685.01 179.04 685.01 146.459 682.53 146.459"></polygon>
                    <polygon id="Fill-237" fill="#A8D2EE" points="718.14 179.04 720.61 179.04 720.61 146.459 718.14 146.459"></polygon>
                    <polygon id="Fill-238" fill="#A8D2EE" points="753.75 179.04 756.22 179.04 756.22 146.459 753.75 146.459"></polygon>
                    <polygon id="Fill-239" fill="#A8D2EE" points="787.38 179.04 789.85 179.04 789.85 146.459 787.38 146.459"></polygon>
                    <polygon id="Fill-240" fill="#A8D2EE" points="787.17 179.04 789.64 179.04 789.64 146.459 787.17 146.459"></polygon>
                    <polygon id="Fill-241" fill="#A8D2EE" points="824.76 179.04 827.23 179.04 827.23 146.459 824.76 146.459"></polygon>
                    <polygon id="Fill-242" fill="#A8D2EE" points="860.36 179.04 862.84 179.04 862.84 146.459 860.36 146.459"></polygon>
                    <polygon id="Fill-243" fill="#A8D2EE" points="896.96 179.04 899.44 179.04 899.44 146.459 896.96 146.459"></polygon>
                    <polygon id="Fill-244" fill="#A8D2EE" points="932.57 179.04 935.04 179.04 935.04 146.459 932.57 146.459"></polygon>
                    <polygon id="Fill-245" fill="#A8D2EE" points="968.18 179.04 970.65 179.04 970.65 146.459 968.18 146.459"></polygon>
                    <polygon id="Fill-246" fill="#A8D2EE" points="1001.81 179.04 1004.28 179.04 1004.28 146.459 1001.81 146.459"></polygon>
                    <polygon id="Fill-247" fill="#A8D2EE" points="1001.6 179.04 1004.07 179.04 1004.07 146.459 1001.6 146.459"></polygon>
                    <polygon id="Fill-248" fill="#A8D2EE" points="1039.19 179.04 1041.66 179.04 1041.66 146.459 1039.19 146.459"></polygon>
                    <polygon id="Fill-249" fill="#A8D2EE" points="1074.79 179.04 1077.27 179.04 1077.27 146.459 1074.79 146.459"></polygon>
                    <polygon id="Fill-250" fill="#A8D2EE" points="1111.39 179.04 1113.86 179.04 1113.86 146.459 1111.39 146.459"></polygon>
                    <polygon id="Fill-251" fill="#A8D2EE" points="1147 179.04 1149.47 179.04 1149.47 146.459 1147 146.459"></polygon>
                    <polygon id="Fill-252" fill="#A8D2EE" points="1182.61 179.04 1185.08 179.04 1185.08 146.459 1182.61 146.459"></polygon>
                    <polygon id="Fill-253" fill="#A8D2EE" points="1216.24 179.04 1218.71 179.04 1218.71 146.459 1216.24 146.459"></polygon>
                    <polygon id="Fill-254" fill="#A8D2EE" points="1216.03 179.04 1218.5 179.04 1218.5 146.459 1216.03 146.459"></polygon>
                    <polygon id="Fill-255" fill="#A8D2EE" points="1253.61 179.04 1256.09 179.04 1256.09 146.459 1253.61 146.459"></polygon>
                    <polygon id="Fill-256" fill="#A8D2EE" points="1289.22 179.04 1291.7 179.04 1291.7 146.459 1289.22 146.459"></polygon>
                    <polygon id="Fill-257" fill="#A8D2EE" points="1325.82 179.04 1328.29 179.04 1328.29 146.459 1325.82 146.459"></polygon>
                    <polygon id="Fill-258" fill="#A8D2EE" points="1361.43 179.04 1363.9 179.04 1363.9 146.459 1361.43 146.459"></polygon>
                    <polygon id="Fill-259" fill="#A8D2EE" points="1397.04 179.04 1399.51 179.04 1399.51 146.459 1397.04 146.459"></polygon>
                    <polygon id="Fill-260" fill="#A8D2EE" points="1430.67 179.04 1433.14 179.04 1433.14 146.459 1430.67 146.459"></polygon>
                    <polygon id="Fill-261" fill="#A8D2EE" points="670.47 146.459 672.36 146.459 672.36 121.117 670.47 121.117"></polygon>
                    <polygon id="Fill-262" fill="#A8D2EE" points="699.19 146.459 701.08 146.459 701.08 121.117 699.19 121.117"></polygon>
                    <polygon id="Fill-263" fill="#A8D2EE" points="726.4 146.459 728.28 146.459 728.28 121.117 726.4 121.117"></polygon>
                    <polygon id="Fill-264" fill="#A8D2EE" points="754.36 146.459 756.25 146.459 756.25 121.117 754.36 121.117"></polygon>
                    <polygon id="Fill-265" fill="#A8D2EE" points="781.57 146.459 783.46 146.459 783.46 121.117 781.57 121.117"></polygon>
                    <polygon id="Fill-266" fill="#A8D2EE" points="808.78 146.459 810.67 146.459 810.67 121.117 808.78 121.117"></polygon>
                    <polygon id="Fill-267" fill="#A8D2EE" points="834.48 146.459 836.37 146.459 836.37 121.117 834.48 121.117"></polygon>
                    <polygon id="Fill-268" fill="#A8D2EE" points="834.32 146.459 836.21 146.459 836.21 121.117 834.32 121.117"></polygon>
                    <polygon id="Fill-269" fill="#A8D2EE" points="863.04 146.459 864.93 146.459 864.93 121.117 863.04 121.117"></polygon>
                    <polygon id="Fill-270" fill="#A8D2EE" points="890.25 146.459 892.14 146.459 892.14 121.117 890.25 121.117"></polygon>
                    <polygon id="Fill-271" fill="#A8D2EE" points="918.21 146.459 920.1 146.459 920.1 121.117 918.21 121.117"></polygon>
                    <polygon id="Fill-272" fill="#A8D2EE" points="945.42 146.459 947.31 146.459 947.31 121.117 945.42 121.117"></polygon>
                    <polygon id="Fill-273" fill="#A8D2EE" points="972.63 146.459 974.52 146.459 974.52 121.117 972.63 121.117"></polygon>
                    <polygon id="Fill-274" fill="#A8D2EE" points="998.33 146.459 1000.22 146.459 1000.22 121.117 998.33 121.117"></polygon>
                    <polygon id="Fill-275" fill="#A8D2EE" points="998.17 146.459 1000.06 146.459 1000.06 121.117 998.17 121.117"></polygon>
                    <polygon id="Fill-276" fill="#A8D2EE" points="1026.89 146.459 1028.78 146.459 1028.78 121.117 1026.89 121.117"></polygon>
                    <polygon id="Fill-277" fill="#A8D2EE" points="1054.1 146.459 1055.99 146.459 1055.99 121.117 1054.1 121.117"></polygon>
                    <polygon id="Fill-278" fill="#A8D2EE" points="1082.07 146.459 1083.96 146.459 1083.96 121.117 1082.07 121.117"></polygon>
                    <polygon id="Fill-279" fill="#A8D2EE" points="1109.28 146.459 1111.17 146.459 1111.17 121.117 1109.28 121.117"></polygon>
                    <polygon id="Fill-280" fill="#A8D2EE" points="1136.49 146.459 1138.38 146.459 1138.38 121.117 1136.49 121.117"></polygon>
                    <polygon id="Fill-281" fill="#A8D2EE" points="1162.18 146.459 1164.07 146.459 1164.07 121.117 1162.18 121.117"></polygon>
                    <polygon id="Fill-282" fill="#A8D2EE" points="1162.03 146.459 1163.92 146.459 1163.92 121.117 1162.03 121.117"></polygon>
                    <polygon id="Fill-283" fill="#A8D2EE" points="1190.75 146.459 1192.64 146.459 1192.64 121.117 1190.75 121.117"></polygon>
                    <polygon id="Fill-284" fill="#A8D2EE" points="1217.96 146.459 1219.85 146.459 1219.85 121.117 1217.96 121.117"></polygon>
                    <polygon id="Fill-285" fill="#A8D2EE" points="1245.92 146.459 1247.81 146.459 1247.81 121.117 1245.92 121.117"></polygon>
                    <polygon id="Fill-286" fill="#A8D2EE" points="1273.13 146.459 1275.02 146.459 1275.02 121.117 1273.13 121.117"></polygon>
                    <polygon id="Fill-287" fill="#A8D2EE" points="1300.34 146.459 1302.23 146.459 1302.23 121.117 1300.34 121.117"></polygon>
                    <polygon id="Fill-288" fill="#A8D2EE" points="1326.04 146.459 1327.93 146.459 1327.93 123.692 1326.04 123.692"></polygon>
                    <path d="M1419.38,240.065 L1360.95,240.065 C1357.99,240.065 1355.56,237.638 1355.56,234.672 C1355.56,231.705 1357.99,229.278 1360.95,229.278 L1419.38,229.278 C1422.35,229.278 1424.78,231.705 1424.78,234.672 C1424.78,237.638 1422.35,240.065 1419.38,240.065" id="Fill-289" fill="#33658E"></path>
                    <polyline id="Fill-290" fill="#C7DBE5" points="439.25 96.538 433.36 110.86 336.22 108.447 300.62 103.016 301.63 99.396 309.27 92.558 358.55 90.345 439.25 96.538"></polyline>
                    <path d="M1448.6,252.651 L1358.7,252.651 C1356.97,252.651 1355.56,251.235 1355.56,249.505 C1355.56,247.774 1356.97,246.358 1358.7,246.358 L1448.6,246.358 C1450.33,246.358 1451.75,247.774 1451.75,249.505 C1451.75,251.235 1450.33,252.651 1448.6,252.651" id="Fill-291" fill="#AAB1CC"></path>
                    <path d="M1303.79,252.651 L1213.9,252.651 C1212.17,252.651 1210.75,251.235 1210.75,249.505 C1210.75,247.774 1212.17,246.358 1213.9,246.358 L1303.79,246.358 C1305.52,246.358 1306.94,247.774 1306.94,249.505 C1306.94,251.235 1305.52,252.651 1303.79,252.651" id="Fill-292" fill="#33658E"></path>
                    <path d="M422.15,238.932 L382.33,238.932 C378.68,238.932 375.7,235.945 375.7,232.295 C375.7,228.644 378.68,225.658 382.33,225.658 L422.15,225.658 C425.81,225.658 428.79,228.644 428.79,232.295 C428.79,235.945 425.81,238.932 422.15,238.932" id="Fill-293" fill="#4C5D6A"></path>
                    <path d="M387.16,208.764 L379.92,208.764 C376.93,208.764 374.49,206.32 374.49,203.334 C374.49,200.346 376.93,197.903 379.92,197.903 L387.16,197.903 C390.15,197.903 392.59,200.346 392.59,203.334 C392.59,206.32 390.15,208.764 387.16,208.764" id="Fill-294" fill="#4C5D6A"></path>
                    <path d="M544.64,116.65 L544.26,116.015 C541.72,111.698 537.11,109.028 532.1,108.98 C491.89,108.6 314.46,106.526 301.63,99.396 L293.64,107.801 C293.64,107.801 338.65,112.692 374.84,113.877 C413,115.126 544.64,116.65 544.64,116.65" id="Fill-295" fill="#F45656"></path>
                    <path d="M309.27,92.558 L320.19,81.253 L447.24,81.899 L439.25,96.538 C439.25,96.538 343.06,97.385 309.27,92.558" id="Fill-296" fill="#7F898E"></path>
                    <path d="M629.71,85.302 L671.69,116.29 L625.89,115.084 L625.61,109.69 C625.31,104.095 620.74,99.681 615.14,99.584 L439.25,96.538 L447.24,81.899 L610.2,79.075 C617.21,78.95 624.07,81.138 629.71,85.302" id="Fill-297" fill="#4C5D6A"></path>
                    <path d="M143.2,353.169 L1507.61,353.169 C1507.61,353.169 1530.13,335.47 1538.18,267.893 C1538.18,267.893 482.69,261.458 442.47,261.458 C402.24,261.458 12.87,235.714 12.87,235.714 C12.87,235.714 90.1,292.028 143.2,353.169" id="Fill-298" fill="#192E41"></path>
                    <path d="M606.94,255.064 L554.63,255.064 C549.99,255.064 546.19,251.267 546.19,246.627 L546.19,245.802 C546.19,241.162 549.99,237.365 554.63,237.365 L606.94,237.365 C611.58,237.365 615.38,241.162 615.38,245.802 L615.38,246.627 C615.38,251.267 611.58,255.064 606.94,255.064" id="Fill-299" fill="#A8D2EE"></path>
                    <path d="M615.34,245.41 C615.13,240.953 611.45,237.365 606.94,237.365 L554.63,237.365 C550.12,237.365 546.44,240.954 546.23,245.41 L615.34,245.41" id="Fill-300" fill="#F45656"></path>
                    <path d="M696.24,255.064 L643.93,255.064 C639.29,255.064 635.49,251.267 635.49,246.627 L635.49,245.802 C635.49,241.162 639.29,237.365 643.93,237.365 L696.24,237.365 C700.88,237.365 704.68,241.162 704.68,245.802 L704.68,246.627 C704.68,251.267 700.88,255.064 696.24,255.064" id="Fill-301" fill="#A8D2EE"></path>
                    <path d="M704.64,245.41 C704.43,240.953 700.75,237.365 696.24,237.365 L643.93,237.365 C639.42,237.365 635.74,240.954 635.53,245.41 L704.64,245.41" id="Fill-302" fill="#F45656"></path>
                    <path d="M783.12,255.064 L730.81,255.064 C726.17,255.064 722.37,251.267 722.37,246.627 L722.37,245.802 C722.37,241.162 726.17,237.365 730.81,237.365 L783.12,237.365 C787.76,237.365 791.56,241.162 791.56,245.802 L791.56,246.627 C791.56,251.267 787.76,255.064 783.12,255.064" id="Fill-303" fill="#A8D2EE"></path>
                    <path d="M791.52,245.41 C791.31,240.953 787.63,237.365 783.12,237.365 L730.81,237.365 C726.31,237.365 722.62,240.954 722.41,245.41 L791.52,245.41" id="Fill-304" fill="#F45656"></path>
                    <path d="M527.74,45.856 C527.74,36.969 534.95,29.766 543.83,29.766 C552.72,29.766 559.92,36.969 559.92,45.856 C559.92,54.741 552.72,61.945 543.83,61.945 C534.95,61.945 527.74,54.741 527.74,45.856" id="Fill-305" fill="#A8D2EE"></path>
                    <path d="M240.14,144.405 L405.01,148.568 C411.72,148.737 417.07,154.226 417.07,160.939 L251.75,157.319 L240.14,144.405" id="Fill-306" fill="#4C5D6A"></path>
                    <polyline id="Fill-307" fill="#D7DFEC" points="170.55 224.451 316.97 233.3 355.58 183.423 209.17 176.182 170.55 224.451"></polyline>
                    <path d="M293.18,113.475 C293.18,113.475 287.95,122.726 289.16,122.324 C290.37,121.922 415.46,128.358 415.46,128.358 L421.5,118.704 L293.18,113.475" id="Fill-308" fill="#4C5D6A"></path>
                    <path d="M432.36,115.486 L293.64,107.801 C293.64,107.801 286.75,111.464 293.18,113.475 C293.18,113.475 416.27,122.324 433.16,120.313 C433.16,120.313 438.39,117.094 432.36,115.486" id="Fill-309" fill="#C7DBE5"></path>
                    <path d="M267.66,170.508 L258.62,170.242 C256.79,170.188 255.34,168.652 255.4,166.827 C255.45,165.003 256.99,163.554 258.81,163.608 L267.86,163.875 C269.68,163.928 271.13,165.466 271.08,167.29 C271.02,169.114 269.49,170.563 267.66,170.508" id="Fill-310" fill="#4C5D6A"></path>
                    <path d="M291.79,171.22 L282.74,170.954 C280.92,170.9 279.47,169.363 279.52,167.539 C279.57,165.714 281.11,164.265 282.94,164.32 L291.98,164.586 C293.81,164.64 295.26,166.176 295.2,168.001 C295.15,169.826 293.61,171.274 291.79,171.22" id="Fill-311" fill="#4C5D6A"></path>
                    <path d="M315.91,171.932 L306.86,171.665 C305.04,171.611 303.59,170.074 303.64,168.25 C303.7,166.425 305.24,164.977 307.06,165.031 L316.11,165.298 C317.93,165.351 319.38,166.888 319.33,168.713 C319.27,170.537 317.73,171.986 315.91,171.932" id="Fill-312" fill="#4C5D6A"></path>
                    <path d="M340.03,172.643 L330.99,172.377 C329.16,172.323 327.71,170.786 327.77,168.962 C327.82,167.137 329.36,165.688 331.18,165.742 L340.23,166.009 C342.05,166.063 343.5,167.6 343.45,169.424 C343.4,171.248 341.86,172.697 340.03,172.643" id="Fill-313" fill="#4C5D6A"></path>
                    <path d="M364.16,173.355 L355.11,173.088 C353.29,173.034 351.84,171.498 351.89,169.673 C351.95,167.848 353.48,166.4 355.31,166.454 L364.35,166.72 C366.18,166.774 367.63,168.311 367.57,170.135 C367.52,171.96 365.98,173.408 364.16,173.355" id="Fill-314" fill="#4C5D6A"></path>
                    <path d="M875.28,69.186 C875.28,59.411 883.2,51.487 892.98,51.487 C902.75,51.487 910.68,59.411 910.68,69.186 C910.68,78.96 902.75,86.884 892.98,86.884 C883.2,86.884 875.28,78.96 875.28,69.186" id="Fill-315" fill="#D7DFEC"></path>
                    <path d="M1206.73,61.945 C1206.73,52.171 1214.65,44.247 1224.43,44.247 C1234.2,44.247 1242.13,52.171 1242.13,61.945 C1242.13,71.72 1234.2,79.644 1224.43,79.644 C1214.65,79.644 1206.73,71.72 1206.73,61.945" id="Fill-316" fill="#D7DFEC"></path>
                    <path d="M531.67,320.86 C429.35,282.492 12.87,235.714 12.87,235.714 C12.87,235.714 90.1,292.028 143.2,353.169 L608.13,353.169 C584.81,342.412 559.18,331.176 531.67,320.86" id="Fill-317" fill="#254461"></path>
                </g>
            </g>
            <g id="boat23-(1)" transform="translate(0.000000, 71.000000)" fill-rule="nonzero">
                <g id="Group" transform="translate(517.208000, 197.050000) scale(-1, 1) translate(-517.208000, -197.050000) translate(0.708000, 0.550000)">
                    <polyline id="Fill-318" fill="#254461" points="794.072 219.98 794.072 202.07 834.142 202.07 834.142 222.54 794.072 219.98"></polyline>
                    <polygon id="Fill-319" fill="#192E41" points="781.708 221.68 785.119 221.68 785.119 202.5 781.708 202.5"></polygon>
                    <polygon id="Fill-320" fill="#192E41" points="875.492 221.68 878.902 221.68 878.902 202.5 875.492 202.5"></polygon>
                    <polygon id="Fill-321" fill="#192E41" points="860.152 221.68 863.562 221.68 863.562 202.5 860.152 202.5"></polygon>
                    <polygon id="Fill-322" fill="#192E41" points="844.802 221.68 848.212 221.68 848.212 202.5 844.802 202.5"></polygon>
                    <polyline id="Fill-323" fill="#192E41" points="892.972 219.13 889.562 219.13 889.562 203.35 767.64 203.35 767.64 199.94 892.972 199.94 892.972 219.13"></polyline>
                    <polyline id="Fill-324" fill="#A8D2EE" points="677.263 134.72 737.799 1.13686838e-13 742.062 1.13686838e-13 707.957 133.86 677.263 134.72"></polyline>
                    <path d="M649.98,80.15 C652.537,79.3 708.81,80.15 708.81,80.15 L699.432,97.2 L654.952,86.47 C652.035,85.76 649.98,83.15 649.98,80.15" id="Fill-325" fill="#A8D2EE"></path>
                    <path d="M693.463,42.63 L724.157,42.63 L718.188,55.42 L701.974,51.22 C697.779,50.13 694.514,46.84 693.463,42.63" id="Fill-326" fill="#A8D2EE"></path>
                    <polyline id="Fill-327" fill="#A8D2EE" points="657.653 68.21 655.095 81.85 675.558 81.85 670.442 67.36 657.653 68.21"></polyline>
                    <path d="M647.422,116.81 L689.2,116.81 L683.231,131.31 L653.283,123.27 C650.232,122.45 647.941,119.93 647.422,116.81" id="Fill-328" fill="#A8D2EE"></path>
                    <path d="M602.232,123.63 C602.232,113.74 610.249,105.73 620.138,105.73 C630.026,105.73 638.043,113.74 638.043,123.63 C638.043,133.52 630.026,144.66 620.138,144.66 C610.249,144.66 602.232,133.52 602.232,123.63" id="Fill-329" fill="#CDC5BB"></path>
                    <polyline id="Fill-330" fill="#778FB1" points="525.497 139.78 525.497 159.44 528.908 159.44 528.908 143.3 539.992 143.66 539.992 162 543.402 162 543.402 143.78 557.044 144.23 557.044 162 560.454 162 560.454 144.34 574.096 144.79 574.096 162 577.507 162 577.507 144.9 591.148 145.35 591.148 162 594.559 162 594.559 145.46 603.085 145.75 603.085 163.71 606.496 163.71 606.496 142.45 525.497 139.78"></polyline>
                    <polyline id="Fill-331" fill="#778FB1" points="411.246 296.71 411.246 270.28 493.382 263.46 471.782 297.57 411.246 296.71"></polyline>
                    <polyline id="Fill-332" fill="#778FB1" points="215.997 259.2 256.07 100.61 245.838 96.35 245.838 86.12 317.459 92.09 314.9 99.76 300.406 104.02 293.585 256.64 268.006 255.79 286.764 103.17 268.006 101.46 245.838 259.2 215.997 259.2"></polyline>
                    <path d="M281.549,44.65 L271.945,88 C271.662,89.27 272.544,90.51 273.842,90.67 L283.446,91.8 C284.759,91.95 285.911,90.92 285.911,89.6 L285.911,45.13 C285.911,43.91 284.923,42.92 283.705,42.92 C282.669,42.92 281.773,43.64 281.549,44.65" id="Fill-333" fill="#778FB1"></path>
                    <path d="M308.932,252.38 C311.49,249.82 489.687,105.73 489.687,105.73 L493.95,109.99 L314.048,257.49 L308.932,252.38" id="Fill-334" fill="#CDC5BB"></path>
                    <polyline id="Fill-335" fill="#CDC5BB" points="258.627 251.53 352.416 28.99 356.679 30.7 268.006 255.79 258.627 251.53"></polyline>
                    <path d="M237.312,260.05 C237.312,260.05 239.018,219.13 251.807,218.27 C264.596,217.42 278.238,214.01 284.206,219.13 C290.175,224.24 294.438,261.76 294.438,261.76 L237.312,260.05" id="Fill-336" fill="#254461"></path>
                    <path d="M324.279,293.3 C324.279,293.3 320.869,274.55 335.363,274.55 C349.857,274.55 371.173,274.55 382.257,274.55 C393.342,274.55 405.278,298.42 405.278,298.42 L324.279,293.3" id="Fill-337" fill="#A8D2EE"></path>
                    <path d="M237.201,258.95 C237.201,258.95 279.905,242.97 297.811,247.24 C315.715,251.5 335.326,274.52 335.326,274.52 L324.241,293.28 L276.495,289.02 L243.243,272.82 L237.201,258.95" id="Fill-338" fill="#D8806F"></path>
                    <polyline id="Fill-339" fill="#778FB1" points="250.669 62.81 250.669 88.39 254.08 88.39 254.08 66.22 259.765 66.22 259.765 88.96 263.176 88.96 263.176 66.22 269.997 66.22 269.997 88.96 273.407 88.96 273.407 66.22 288.754 66.22 288.754 92.37 292.165 92.37 292.165 66.22 298.985 66.22 298.985 92.37 302.396 92.37 302.396 66.22 307.512 66.22 307.512 92.94 310.922 92.94 310.922 62.81 250.669 62.81"></polyline>
                    <polyline id="Fill-340" fill="#CDC5BB" points="9.663 219.7 9.663 249.32 13.073 249.32 13.073 223.24 26.116 223.74 23.873 223.74 23.873 252.16 27.283 252.16 27.283 223.79 40.925 224.32 40.925 252.16 44.335 252.16 44.335 224.45 57.978 224.97 57.978 252.16 61.388 252.16 61.388 225.1 75.03 225.63 75.03 252.16 78.44 252.16 78.44 225.76 92.082 226.29 92.082 252.16 95.493 252.16 95.493 226.42 109.135 226.95 109.135 252.16 112.545 252.16 112.545 227.08 126.187 227.6 126.187 253.87 129.598 253.87 129.598 227.74 143.239 228.26 143.239 255.58 146.65 255.58 146.65 228.39 160.292 228.92 160.292 255.58 163.702 255.58 163.702 229.05 177.344 229.58 177.344 257.28 180.754 257.28 180.754 229.71 196.102 230.3 196.102 257.28 199.512 257.28 199.512 230.43 213.154 230.96 213.154 257.28 216.564 257.28 216.564 231.09 230.776 231.64 230.776 258.99 234.187 258.99 234.187 228.36 9.663 219.7"></polyline>
                    <polyline id="Fill-341" fill="#778FB1" points="783.84 222.54 746.325 147.51 728.42 144.95 768.493 225.95 783.84 222.54"></polyline>
                    <polyline id="Fill-342" fill="#CDC5BB" points="667.884 153.47 673.853 144.95 728.42 144.95 767.641 222.54 665.327 223.39 667.884 153.47"></polyline>
                    <path d="M0,258.91 C0,258.91 37.515,287.34 52.294,304.39 C67.073,321.44 93.22,355.54 93.22,369.19 C93.22,382.83 81.852,391.92 81.852,391.92 L1023.142,391.92 C1023.142,391.92 1022.002,381.69 1026.552,372.6 C1031.102,363.5 1032.042,300.23 1032.042,300.23 L988.472,300.09 L982.212,277.1 L1002.682,277.1 L1002.942,268.81 L493.382,263.46 L471.782,297.57 C471.782,297.57 281.044,292.64 263.743,281.65 C262.019,280.56 258.999,278.78 258.999,278.78 C258.999,278.78 254.933,278.4 253.581,277.27 C242.409,267.96 238.696,259.37 234.042,258.44 C228.357,257.3 9.663,247.55 9.663,247.55 L0,258.91" id="Fill-343" fill="#CDC5BB"></path>
                    <polyline id="Fill-344" fill="#EAE7E2" points="500.771 264.32 500.771 222.54 491.393 190.14 669.021 192.98 669.589 219.13 896.382 219.13 896.152 267.7 500.771 264.32"></polyline>
                    <polyline id="Fill-345" fill="#778FB1" points="606.496 163.63 606.496 142.39 636.337 142.39 636.337 164.56 606.496 163.63"></polyline>
                    <polyline id="Fill-346" fill="#254461" points="659.358 133.01 673.853 144.95 746.325 147.51 776.167 127.9 659.358 133.01"></polyline>
                    <path d="M426.594,198.66 L465.813,198.66 C465.813,198.66 465.813,238.74 446.204,239.59 C429.167,240.33 426.594,198.66 426.594,198.66" id="Fill-347" fill="#D8806F"></path>
                    <path d="M0,258.91 L9.663,247.55 L242.144,257.21 C242.144,257.21 243.849,265.17 247.828,269.71 C251.807,274.26 259.094,278.83 259.094,278.83 L0,258.91" id="Fill-348" fill="#EAE7E2"></path>
                    <path d="M553.065,299.84 L553.065,299.84 C549.313,299.84 546.244,296.77 546.244,293.02 L546.244,283.92 C546.244,280.17 549.313,277.1 553.065,277.1 C556.817,277.1 559.886,280.17 559.886,283.92 L559.886,293.02 C559.886,296.77 556.817,299.84 553.065,299.84" id="Fill-349" fill="#254461"></path>
                    <path d="M587.17,299.84 L587.17,299.84 C583.418,299.84 580.349,296.77 580.349,293.02 L580.349,283.92 C580.349,280.17 583.418,277.1 587.17,277.1 C590.921,277.1 593.991,280.17 593.991,283.92 L593.991,293.02 C593.991,296.77 590.921,299.84 587.17,299.84" id="Fill-350" fill="#254461"></path>
                    <path d="M621.274,299.84 L621.274,299.84 C617.523,299.84 614.454,296.77 614.454,293.02 L614.454,283.92 C614.454,280.17 617.523,277.1 621.274,277.1 C625.026,277.1 628.096,280.17 628.096,283.92 L628.096,293.02 C628.096,296.77 625.026,299.84 621.274,299.84" id="Fill-351" fill="#254461"></path>
                    <path d="M698.01,299.84 L698.01,299.84 C694.259,299.84 691.189,296.77 691.189,293.02 L691.189,283.92 C691.189,280.17 694.259,277.1 698.01,277.1 C701.762,277.1 704.831,280.17 704.831,283.92 L704.831,293.02 C704.831,296.77 701.762,299.84 698.01,299.84" id="Fill-352" fill="#254461"></path>
                    <path d="M732.115,299.84 L732.115,299.84 C728.363,299.84 725.294,296.77 725.294,293.02 L725.294,283.92 C725.294,280.17 728.363,277.1 732.115,277.1 C735.866,277.1 738.936,280.17 738.936,283.92 L738.936,293.02 C738.936,296.77 735.866,299.84 732.115,299.84" id="Fill-353" fill="#254461"></path>
                    <path d="M865.412,295.1 L865.412,295.1 C862.442,295.1 860.012,292.67 860.012,289.7 L860.012,282.5 C860.012,279.53 862.442,277.1 865.412,277.1 C868.382,277.1 870.812,279.53 870.812,282.5 L870.812,289.7 C870.812,292.67 868.382,295.1 865.412,295.1" id="Fill-354" fill="#192E41"></path>
                    <path d="M508.729,287.9 C508.729,285.08 511.02,282.79 513.845,282.79 C516.67,282.79 518.96,285.08 518.96,287.9 C518.96,290.73 516.67,293.02 513.845,293.02 C511.02,293.02 508.729,290.73 508.729,287.9" id="Fill-355" fill="#254461"></path>
                    <polygon id="Fill-356" fill="#778FB1" points="688.845 217.31 705.471 217.31 705.471 175.11 688.845 175.11"></polygon>
                    <polygon id="Fill-357" fill="#778FB1" points="517.823 249.25 528.055 249.25 528.055 227.65 517.823 227.65"></polygon>
                    <polygon id="Fill-358" fill="#778FB1" points="534.876 249.25 545.107 249.25 545.107 227.65 534.876 227.65"></polygon>
                    <polygon id="Fill-359" fill="#778FB1" points="575.233 263.46 590.58 263.46 590.58 228.22 575.233 228.22"></polygon>
                    <polygon id="Fill-360" fill="#778FB1" points="602.517 242.43 611.043 242.43 611.043 228.22 602.517 228.22"></polygon>
                    <polygon id="Fill-361" fill="#778FB1" points="673.284 242.43 681.811 242.43 681.811 228.22 673.284 228.22"></polygon>
                    <polygon id="Fill-362" fill="#778FB1" points="757.409 242.43 765.936 242.43 765.936 228.22 757.409 228.22"></polygon>
                    <path d="M628.664,66.08 L628.664,66.08 C628.664,68.2 630.382,69.92 632.501,69.92 L690.479,69.92 C692.598,69.92 694.315,68.2 694.315,66.08 C694.315,63.96 692.598,62.24 690.479,62.24 L632.501,62.24 C630.382,62.24 628.664,63.96 628.664,66.08" id="Fill-363" fill="#A8D2EE"></path>
                    <polyline id="Fill-364" fill="#192E41" points="669.103 194.44 669.589 173.94 482.866 170.53 491.393 190.14 669.103 194.44"></polyline>
                    <polyline id="Fill-365" fill="#778FB1" points="488.873 174.56 493.76 187.17 505.474 187.03 500.587 174.42 488.873 174.56"></polyline>
                    <polyline id="Fill-366" fill="#778FB1" points="504.755 174.66 509.642 187.26 519.936 187.3 516.472 174.78 504.755 174.66"></polyline>
                    <polyline id="Fill-367" fill="#778FB1" points="520.637 174.75 523.936 187.35 534.501 187.39 532.352 174.61 520.637 174.75"></polyline>
                    <polyline id="Fill-368" fill="#778FB1" points="536.632 174.6 538.429 187.44 549.155 187.48 548.234 174.71 536.632 174.6"></polyline>
                    <polyline id="Fill-369" fill="#778FB1" points="552.401 174.95 552.723 187.53 563.01 187.57 563.277 175.22 552.401 174.95"></polyline>
                    <polygon id="Fill-370" fill="#778FB1" points="587.738 189.71 597.543 189.71 597.543 175.86 587.738 175.86"></polygon>
                    <polygon id="Fill-371" fill="#778FB1" points="601.807 189.71 611.611 189.71 611.611 175.86 601.807 175.86"></polygon>
                    <polygon id="Fill-372" fill="#778FB1" points="615.448 189.71 625.253 189.71 625.253 175.86 615.448 175.86"></polygon>
                    <polygon id="Fill-373" fill="#778FB1" points="629.09 189.71 638.896 189.71 638.896 175.86 629.09 175.86"></polygon>
                    <polygon id="Fill-374" fill="#778FB1" points="642.732 189.71 652.537 189.71 652.537 175.86 642.732 175.86"></polygon>
                    <polygon id="Fill-375" fill="#778FB1" points="656.374 189.71 666.179 189.71 666.179 175.86 656.374 175.86"></polygon>
                    <polygon id="Fill-376" fill="#EAE7E2" points="567.702 192.48 581.77 192.48 581.77 172.02 567.702 172.02"></polygon>
                    <path d="M1031.632,319.83 L1031.102,319.74 C1031.102,319.74 384.815,312.91 325.132,311.21 C269.896,309.63 68.629,293.45 38.937,291.05 C44.118,295.78 48.833,300.39 52.294,304.39 C67.073,321.44 93.22,355.54 93.22,369.19 C93.22,382.83 81.851,391.92 81.851,391.92 L1023.142,391.92 C1023.142,391.92 1020.562,380.06 1025.112,370.97 C1027.942,365.3 1029.912,339.53 1031.632,319.83" id="Fill-377" fill="#0B5989"></path>
                    <path d="M479.914,336.22 L517.537,336.22 C521.159,336.22 524.122,339.18 524.122,342.8 C524.122,346.42 521.159,349.39 517.537,349.39 L479.914,349.39 C476.292,349.39 473.33,346.42 473.33,342.8 C473.33,339.18 476.292,336.22 479.914,336.22" id="Fill-378" fill="#192E41"></path>
                    <path d="M52.294,304.39 C67.073,321.44 93.22,355.54 93.22,369.19 C93.22,382.83 81.851,391.92 81.851,391.92 L1023.142,391.92 C1023.142,391.92 1022.002,381.69 1026.552,372.6 C1027.092,371.52 1027.582,369.66 1028.022,367.23 C1028.012,367.23 965.132,366.44 585.747,366.44 C206.332,366.44 38.937,291.05 38.937,291.05 C44.118,295.78 48.833,300.39 52.294,304.39" id="Fill-379" fill="#254461"></path>
                    <path d="M394.652,336.22 L432.275,336.22 C435.897,336.22 438.86,339.18 438.86,342.8 C438.86,346.42 435.897,349.39 432.275,349.39 L394.652,349.39 C391.031,349.39 388.068,346.42 388.068,342.8 C388.068,339.18 391.031,336.22 394.652,336.22" id="Fill-380" fill="#192E41"></path>
                    <path d="M309.39,336.22 L347.014,336.22 C350.635,336.22 353.598,339.18 353.598,342.8 C353.598,346.42 350.635,349.39 347.014,349.39 L309.39,349.39 C305.769,349.39 302.807,346.42 302.807,342.8 C302.807,339.18 305.769,336.22 309.39,336.22" id="Fill-381" fill="#192E41"></path>
                    <path d="M1023.082,386.9 C1023.152,385.34 1023.342,383.55 1023.692,381.59 C1023.252,383.53 1023.092,385.33 1023.082,386.9" id="Fill-382" fill="#0B5989"></path>
                    <path d="M1026.592,372.51 C1027.112,371.42 1027.592,369.61 1028.022,367.23 C1027.552,369.19 1027.072,370.94 1026.592,372.51" id="Fill-383" fill="#0B5989"></path>
                    <path d="M989.302,299.5 L982.482,277.9 L1002.942,277.9 L1002.942,268.81 L948.662,268.52 C948.662,268.52 955.002,295.82 956.682,319.49 C1002.472,319.99 1031.502,320.21 1031.502,320.21 L1032.502,299.5 L989.302,299.5" id="Fill-384" fill="#778FB1"></path>
                    <path d="M1023.692,381.59 C1023.852,380.87 1024.032,380.16 1024.282,379.42 C1024.962,377.38 1025.762,375.17 1026.592,372.51 C1026.572,372.53 1026.562,372.57 1026.552,372.6 C1025.042,375.62 1024.192,378.73 1023.692,381.59" id="Fill-385" fill="#778FB1"></path>
                    <path d="M1023.142,391.92 L951.392,391.92 C951.382,391.95 951.382,391.99 951.382,391.99 L1023.642,392.21 C1023.642,392.21 1023.072,390.06 1023.082,386.9 C1022.942,389.88 1023.142,391.92 1023.142,391.92" id="Fill-386" fill="#778FB1"></path>
                    <path d="M1031.632,319.83 L1028.972,319.81 C1028.972,319.81 1002.382,319.43 956.592,318.94 C956.732,320.94 956.852,322.92 956.922,324.85 C957.762,349.13 951.612,390.43 951.392,391.92 L1023.142,391.92 C1023.142,391.92 1022.942,389.88 1023.082,386.9 C1023.092,385.33 1023.252,383.53 1023.692,381.59 C1024.192,378.73 1025.042,375.62 1026.552,372.6 C1026.562,372.57 1026.572,372.53 1026.592,372.51 C1027.072,370.94 1027.552,369.19 1028.022,367.23 C1029.932,356.84 1031.032,335.86 1031.632,319.83" id="Fill-387" fill="#38495A"></path>
                    <path d="M358.667,32.58 L447.773,169.72 L493.002,110.18 L358.667,32.58 Z M427.882,198.02 L464.636,198.02 L447.691,171.95 L427.882,198.02 Z M464.096,199.3 L427.694,199.3 C426.713,199.3 426.157,198.18 426.75,197.4 L446.951,170.81 L354.689,28.81 L494.897,109.8 L494.459,110.38 L448.513,170.86 L465.413,196.87 C466.093,197.92 465.342,199.3 464.096,199.3 L464.096,199.3 Z" id="Fill-388" fill="#778FB1"></path>
                    <path d="M185.017,340.86 C185.017,331.44 192.651,323.81 202.069,323.81 C211.486,323.81 219.121,331.44 219.121,340.86 C219.121,350.28 211.486,357.91 202.069,357.91 C192.651,357.91 185.017,350.28 185.017,340.86" id="Fill-389" fill="#192E41"></path>
                    <polyline id="Fill-390" fill="#EAE7E2" points="476.662 171.69 493.098 153.47 525.353 154.71 525.497 159.44 659.358 163.71 659.358 153.47 677.263 153.47 677.002 174.02 476.662 171.69"></polyline>
                </g>
            </g>
            <g id="boat11-(1)" transform="translate(1143.000000, 361.000000)">
                <path d="M55.1166281,51.1939036 L57.5022491,58 L73.5457171,55.7146939 L98,52.0148809 C97.190712,49.0970541 94.5071663,47.0435279 91.4056366,46.9655459 L61.2352013,45.0008325 C58.5205291,44.9358475 54.2384172,48.6898147 55.1166281,51.1939036" id="Fill-221" fill="#005994" fill-rule="nonzero"></path>
                <path d="M58.2123641,50.0955835 L60.5948776,57 L76.6003107,54.6824182 L101,50.9303522 C100.192519,47.9691198 97.5171823,45.8865914 94.4203584,45.8097048 L61.9924414,45.0012971 C59.2838297,44.9331976 57.3361138,47.5583257 58.2123641,50.0955835" id="Fill-222" fill="#0070BA" fill-rule="nonzero"></path>
                <polyline id="Fill-223" fill="#C9C8C8" fill-rule="nonzero" points="79 5 72.8861386 14.5684088 35.9166951 40.0385598 41.455787 57.1694541 14 62 28.5223626 31.7191638 79 5"></polyline>
                <path d="M158.482374,38 L133,19.4514044 L172.822398,19 C173.071082,18.9979489 173.317565,19.0296908 173.555245,19.0931745 L223.685911,32.563069 L240,36.9026378 L158.482374,38" id="Fill-224" fill="#201600" fill-rule="nonzero"></path>
                <path d="M115.461969,45 L158,36.9559345 L132.257978,19 C132.257978,19 113.943548,24.5595138 98.50367,30.7006585 C97.8811839,30.9486747 97.8344975,31.8112443 98.3702801,32.2128989 L115.461969,45" id="Fill-225" fill="#201600" fill-rule="nonzero"></path>
                <polyline id="Fill-226" fill="#374F6B" fill-rule="nonzero" points="173.016873 21 225 35 159.087607 35 139 21 173.016873 21"></polyline>
                <polyline id="Fill-227" fill="#374F6B" fill-rule="nonzero" points="134.871028 21 104 31.6684315 117.457113 41 154 34.4745202 134.871028 21"></polyline>
                <g id="Group-237" transform="translate(139.000000, 20.000000)">
                    <g id="Fill-228-Clipped">
                        <mask id="mask-2" fill="white">
                            <use xlink:href="#path-1"></use>
                        </mask>
                        <g id="path-1"></g>
                        <polyline id="Fill-228" fill="#4C6D94" fill-rule="nonzero" mask="url(#mask-2)" points="45.2538 -0.216428571 30.4214 21.3857143 34.3528 21.3857143 49.1852 -0.216428571 45.2538 -0.216428571"></polyline>
                    </g>
                    <g id="Fill-230-Clipped">
                        <mask id="mask-4" fill="white">
                            <use xlink:href="#path-3"></use>
                        </mask>
                        <g id="path-1"></g>
                        <polyline id="Fill-230" fill="#4C6D94" fill-rule="nonzero" mask="url(#mask-4)" points="67.4342 -0.216428571 52.6018 21.3857143 54.606 21.3857143 69.4384 -0.216428571 67.4342 -0.216428571"></polyline>
                    </g>
                    <g id="Fill-231-Clipped">
                        <mask id="mask-6" fill="white">
                            <use xlink:href="#path-5"></use>
                        </mask>
                        <g id="path-1"></g>
                        <polyline id="Fill-231" fill="#4C6D94" fill-rule="nonzero" mask="url(#mask-6)" points="70.4042 -0.216428571 55.574 21.3857143 60.0048 21.3857143 74.835 -0.216428571 70.4042 -0.216428571"></polyline>
                    </g>
                    <g id="Fill-232-Clipped">
                        <mask id="mask-8" fill="white">
                            <use xlink:href="#path-7"></use>
                        </mask>
                        <g id="path-1"></g>
                        <polyline id="Fill-232" fill="#4C6D94" fill-rule="nonzero" mask="url(#mask-8)" points="51.328 -0.216428571 36.5 21.3857143 45.7972 21.3857143 60.6274 -0.216428571 51.328 -0.216428571"></polyline>
                    </g>
                    <g id="Fill-233-Clipped">
                        <mask id="mask-10" fill="white">
                            <use xlink:href="#path-9"></use>
                        </mask>
                        <g id="path-1"></g>
                        <polyline id="Fill-233" fill="#4C6D94" fill-rule="nonzero" mask="url(#mask-10)" points="4.1424 -0.747857143 -10.6878 20.8564286 -6.7564 20.8564286 8.0738 -0.747857143 4.1424 -0.747857143"></polyline>
                    </g>
                    <g id="Fill-234-Clipped">
                        <mask id="mask-12" fill="white">
                            <use xlink:href="#path-11"></use>
                        </mask>
                        <g id="path-1"></g>
                        <polyline id="Fill-234" fill="#4C6D94" fill-rule="nonzero" mask="url(#mask-12)" points="26.3228 -0.747857143 11.4926 20.8564286 13.4968 20.8564286 28.327 -0.747857143 26.3228 -0.747857143"></polyline>
                    </g>
                    <g id="Fill-235-Clipped">
                        <mask id="mask-14" fill="white">
                            <use xlink:href="#path-13"></use>
                        </mask>
                        <g id="path-1"></g>
                        <polyline id="Fill-235" fill="#4C6D94" fill-rule="nonzero" mask="url(#mask-14)" points="29.295 -0.747857143 14.4626 20.8564286 18.8934 20.8564286 33.7236 -0.747857143 29.295 -0.747857143"></polyline>
                    </g>
                    <g id="Fill-236-Clipped">
                        <mask id="mask-16" fill="white">
                            <use xlink:href="#path-15"></use>
                        </mask>
                        <g id="path-1"></g>
                        <polyline id="Fill-236" fill="#4C6D94" fill-rule="nonzero" mask="url(#mask-16)" points="10.221 -0.747857143 -4.6114 20.8564286 4.6858 20.8564286 19.516 -0.747857143 10.221 -0.747857143"></polyline>
                    </g>
                </g>
                <g id="Group-243" transform="translate(103.000000, 21.000000)">
                    <g id="Fill-238-Clipped">
                        <mask id="mask-18" fill="white">
                            <use xlink:href="#path-17"></use>
                        </mask>
                        <g id="path-3"></g>
                        <polyline id="Fill-238" fill="#4C6D94" fill-rule="nonzero" mask="url(#mask-18)" points="39.4518261 -1.7678 24.5043913 20.4126 28.4668696 20.4126 43.4143043 -1.7678 39.4518261 -1.7678"></polyline>
                    </g>
                    <g id="Fill-240-Clipped">
                        <mask id="mask-20" fill="white">
                            <use xlink:href="#path-19"></use>
                        </mask>
                        <g id="path-3"></g>
                        <polyline id="Fill-240" fill="#4C6D94" fill-rule="nonzero" mask="url(#mask-20)" points="45.5784783 -1.7678 30.6288261 20.4126 39.9995217 20.4126 54.9469565 -1.7678 45.5784783 -1.7678"></polyline>
                    </g>
                    <g id="Fill-241-Clipped">
                        <mask id="mask-22" fill="white">
                            <use xlink:href="#path-21"></use>
                        </mask>
                        <g id="path-3"></g>
                        <polyline id="Fill-241" fill="#4C6D94" fill-rule="nonzero" mask="url(#mask-22)" points="8.0846087 5.1732 -6.86504348 27.3514 -4.84278261 27.3514 10.1068696 5.1732 8.0846087 5.1732"></polyline>
                    </g>
                    <g id="Fill-242-Clipped">
                        <mask id="mask-24" fill="white">
                            <use xlink:href="#path-23"></use>
                        </mask>
                        <g id="path-3"></g>
                        <polyline id="Fill-242" fill="#4C6D94" fill-rule="nonzero" mask="url(#mask-24)" points="11.078087 5.1732 -3.86934783 27.3514 0.596478261 27.3514 15.543913 5.1732 11.078087 5.1732"></polyline>
                    </g>
                </g>
                <path d="M53,55 C53,55 16.032624,59.2346217 3.80182304,61.1769665 C-8.43117772,63.1193113 12.7703438,86 12.7703438,86 L53,55" id="Fill-244" fill="#E2E2E2" fill-rule="nonzero"></path>
                <polyline id="Fill-245" fill="#E2E2E2" fill-rule="nonzero" points="340 44.0141297 236.939466 36 158.401815 36.2052665 53.1767188 55.1225434 20 70 340 44.0141297"></polyline>
                <path d="M3,73.0000157 C3,73.0000157 99.7689922,56.3995832 182.236551,49.9558781 C264.701904,43.512173 340,44.0088615 340,44.0088615 L285.50018,81.1810268 L226.697801,102 L33.7949455,102 L12.9988744,86.136874 L3,73.0000157" id="Fill-246" fill="#0070BA" fill-rule="nonzero"></path>
                <polyline id="Fill-247" fill="#004A7A" fill-rule="nonzero" points="286 81 34 102 227.128759 102 286 81"></polyline>
                <path d="M13,86.3887814 C13,86.3887814 124.36221,69.6726306 184.409226,66.1257253 C244.458451,62.5809961 315,62 315,62 L310.853875,64.7852998 C310.853875,64.7852998 238.998025,65.2944874 183.728882,69.6160542 C118.192724,74.7405706 16.4746158,89 16.4746158,89 L13,86.3887814" id="Fill-248" fill="#E2E2E2" fill-rule="nonzero"></path>
                <path d="M80,0 L26.934349,27.9009993 L4,62 L23.9711578,59.3173824 L31.4863058,35.0250367 L76.3385474,8.13890182 C78.6101064,6.77760665 80,4.31928078 80,1.66331172 L80,0" id="Fill-249" fill="#E2E2E2" fill-rule="nonzero"></path>
            </g>
        </g>
    </g>
</svg>