<svg id="Capa_1" enable-background="new 0 0 512 512" height="512" viewBox="0 0 512 512" width="512" xmlns="http://www.w3.org/2000/svg"><g><g><path d="m169.126 80.232v21.213h-58.589v-21.213c0-5.579-4.523-10.102-10.102-10.102h-20.203c-5.579 0-10.102 4.523-10.102 10.102v78.793h139.402v-78.793c0-5.579-4.523-10.102-10.102-10.102h-20.203c-5.578 0-10.101 4.523-10.101 10.102z" fill="#a2f4c1"/></g><g><path d="m199.431 70.13h-18.183c5.579 0 10.102 4.523 10.102 10.102v78.793h18.183v-78.793c0-5.579-4.523-10.102-10.102-10.102z" fill="#86f1a7"/></g><g><path d="m430.347 363.349-184.636-169.866c-1.092-1.005-2.423-1.68-3.854-1.971l-32.325-.071v80.722h17.909c5.041 0 9.9 1.884 13.622 5.283l168.51 153.857c7.445 6.798 17.163 10.567 27.245 10.567h67.682v-64.65h-38.588c-13.21 0-25.839-4.926-35.565-13.871z" fill="#df75a5"/></g><g><path d="m241.858 191.512c1.43.291 2.762.966 3.854 1.971l184.636 169.865c9.725 8.945 22.355 13.871 35.565 13.871h38.587v-32.325h-38.588c-5.067 0-9.95-1.904-13.679-5.335l-184.635-169.865c-7.458-6.862-17.223-10.67-27.358-10.67h-30.708v32.416z" fill="#ac80dd"/></g><g><path d="m478.236 377.22h26.264v64.65h-26.264z" fill="#dd5790"/></g><g><path d="m478.236 344.894h26.264v32.325h-26.264z" fill="#9d66d5"/></g><g><path d="m209.533 421.667v-262.643h-139.403l-60.766 193.08c-1.235 3.925-1.864 8.016-1.864 12.13v57.432c0 11.158 9.045 20.203 20.203 20.203h161.626c11.158.001 20.204-9.044 20.204-20.202z" fill="#ffe07d"/></g><g><path d="m47.906 381.26v-13.921c0-2.057.314-4.103.932-6.065l46.486-147.705c2.648-8.415 10.45-14.138 19.271-14.138h34.327c11.158 0 20.203 9.045 20.203 20.203v161.626c0 11.158-9.045 20.203-20.203 20.203h-80.812c-11.158 0-20.204-9.045-20.204-20.203z" fill="#ffd064"/></g><g><path d="m191.35 159.024v253.551c0 5.579-4.523 10.102-10.102 10.102h-173.693c.53 10.685 9.331 19.193 20.148 19.193h161.626c11.158 0 20.203-9.045 20.203-20.203v-262.643z" fill="#ffd064"/></g><g><path d="m504.5 337.39h-38.59c-3.198 0-6.254-1.19-8.602-3.35l-184.631-169.871c-8.871-8.157-20.39-12.649-32.437-12.649h-23.21v-71.29c0-9.705-7.895-17.6-17.6-17.6h-20.2c-9.705 0-17.6 7.896-17.6 17.6v13.72h-43.59v-13.72c0-9.705-7.9-17.6-17.61-17.6h-20.2c-9.705 0-17.6 7.896-17.6 17.6v11.63c0 4.142 3.358 7.5 7.5 7.5s7.5-3.358 7.5-7.5v-11.63c0-1.434 1.167-2.6 2.6-2.6h20.2c1.439 0 2.61 1.167 2.61 2.6v21.22c0 4.142 3.358 7.5 7.5 7.5h58.59c4.142 0 7.5-3.358 7.5-7.5v-21.22c0-1.434 1.167-2.6 2.6-2.6h20.2c1.434 0 2.6 1.167 2.6 2.6v71.29h-124.4v-24.66c0-4.142-3.358-7.5-7.5-7.5s-7.5 3.358-7.5 7.5v24.665h-12.784c-4.142 0-7.5 3.358-7.5 7.5s3.358 7.5 7.5 7.5h10.06l-5.532 17.578h-15.559c-4.142 0-7.5 3.358-7.5 7.5s3.358 7.5 7.5 7.5h10.837l-5.532 17.577h-15.407c-4.142 0-7.5 3.358-7.5 7.5s3.358 7.5 7.5 7.5h10.685l-5.533 17.578h-15.253c-4.142 0-7.5 3.358-7.5 7.5s3.358 7.5 7.5 7.5h10.533l-5.532 17.578h-15.103c-4.142 0-7.5 3.358-7.5 7.5s3.358 7.5 7.5 7.5h10.381l-16.689 53.024c-1.461 4.669-2.202 9.503-2.202 14.37v57.44c0 15.274 12.426 27.7 27.7 27.7h161.63c15.273 0 27.7-12.426 27.7-27.7v-48.59c0-4.142-3.358-7.5-7.5-7.5s-7.5 3.358-7.5 7.5v48.59c0 7.003-5.697 12.7-12.7 12.7h-161.63c-7.003 0-12.7-5.697-12.7-12.7v-57.44c0-3.345.511-6.673 1.514-9.878l59.118-187.832h126.398v171.56c0 4.142 3.358 7.5 7.5 7.5s7.5-3.358 7.5-7.5v-58.42h10.41c3.173 0 6.213 1.181 8.563 3.329l51.45 46.97c1.438 1.313 3.249 1.961 5.055 1.961 2.034 0 4.062-.823 5.541-2.443 2.792-3.059 2.577-7.803-.482-10.596l-51.446-46.967c-5.118-4.678-11.752-7.254-18.68-7.254h-10.41v-65.703l23.61.052 184.63 169.859c11.113 10.222 25.547 15.851 40.642 15.851h31.087v49.65h-60.18c-8.229 0-16.111-3.058-22.193-8.609l-91.23-83.3c-3.059-2.792-7.802-2.577-10.596.481-2.793 3.059-2.578 7.803.481 10.596l91.231 83.301c8.853 8.081 20.326 12.531 32.306 12.531h67.68c4.142 0 7.5-3.358 7.5-7.5v-96.98c.001-4.141-3.357-7.499-7.499-7.499zm-38.588 32.33c-11.323 0-22.151-4.223-30.487-11.891l-184.633-169.863c-2.089-1.923-4.661-3.239-7.438-3.804-.487-.099-.982-.149-1.479-.15l-24.845-.054v-17.438h23.21c8.275 0 16.189 3.086 22.282 8.689l184.631 169.871c5.125 4.714 11.787 7.31 18.757 7.31h31.09v17.33z"/><path d="m114.595 191.931c-12.156 0-22.776 7.791-26.426 19.387l-46.484 147.704c-.848 2.695-1.278 5.493-1.278 8.317v13.921c0 15.275 12.428 27.703 27.704 27.703h80.813c15.275 0 27.703-12.428 27.703-27.703v-161.626c0-15.276-12.428-27.704-27.703-27.704h-34.329zm47.031 27.703v161.626c0 7.004-5.699 12.703-12.703 12.703h-80.813c-7.005 0-12.704-5.699-12.704-12.703v-13.921c0-1.294.197-2.578.586-3.813l46.485-147.705c1.674-5.317 6.543-8.89 12.118-8.89h34.328c7.004 0 12.703 5.698 12.703 12.703z"/></g></g></svg>