<svg id="Capa_1" enable-background="new 0 0 512 512" height="512" viewBox="0 0 512 512" width="512" xmlns="http://www.w3.org/2000/svg"><g><g><g><path d="m276.49 7.5h145.181v497h-145.181z" fill="#766d78"/><path d="m389.761 7.5h31.911v497h-31.911z" fill="#655e67"/><path d="m421.671 347.255c-3.715.23-7.762 1.927-12.086 5.625-20.402 17.449-41.827 32.739-76.158 40.761-2.709-13.34-6.219-27.587-9.088-42.414 32.975-9.023 68.441-27.246 97.332-60.037v-82.391c-21.137 1.283-45.469 39.134-99.875 66.621 2.953-14.979 8.599-29.982 18.205-44.723-10.71 0-35.133 0-63.511 0v260.52h8.097c12.862 0 94.972-3.197 137.084-46.099z" fill="#655e67"/><path d="m405.585 332.88c-20.402 17.449-41.827 32.739-76.158 40.761-2.709-13.34-6.219-27.587-9.088-42.414 36.535-9.997 76.129-31.281 106.449-71.166 20.778-27.333 16.903-53.722 8.481-62.704-27.465-29.29-47.829 22.877-117.474 58.063 2.953-14.979 8.599-29.982 18.205-44.723-33.831 0-204.471 0-204.471 0-27.482 79.926-38.278 260.52 95.858 260.52h53.2c17.423 0 161.928-5.848 161.928-108.334 0-15.867-14.882-48.861-36.93-30.003z" fill="#e29576"/><path d="m425.374 328.965c1.515 4.678 2.322 9.298 2.322 12.991 0 102.486-144.505 108.334-161.928 108.334s-53.2 0-53.2 0c-34.635 0-59.606-12.042-77.124-31.281 17.095 31.042 46.026 52.207 91.943 52.207h53.2c17.423 0 161.928-5.848 161.928-108.334 0-10.443-6.447-28.302-17.141-33.917z" fill="#dc805a"/><path d="m438.698 202.558c-1.177 10.447-5.52 22.599-14.909 34.949-46.466 61.124-114.709 78.572-160.343 78.636-6.212.009-11.234 5.05-11.234 11.262 0 6.158 4.937 11.17 11.094 11.271 45.596.744 115.941-16.077 163.482-78.616 17.645-23.21 17.509-45.734 11.91-57.502z" fill="#dc805a"/><path d="m227.388 52.527c-37.054-27.076-157.903 6.149-157.903 143.777 0 37.464 28.889 81.046 63.186 98.092 2.064 1.026 4.53.85 6.427-.46 10.972-7.571 18.222-13.972 18.279-14.021 0 0 33.497 23.765 70.011 29.149 36.514-5.384 70.012-29.149 70.012-29.149.011.009 7.273 6.426 18.278 14.021 1.897 1.309 4.363 1.486 6.427.46 34.297-17.046 63.186-60.628 63.186-98.092 0-137.628-120.849-170.853-157.903-143.777z" fill="#e29576"/><path d="m355.291 184.529c0 48.342-57.264 75.532-127.903 75.532s-127.903-27.189-127.903-75.532 57.264-100.531 127.903-100.531 127.903 52.189 127.903 100.531z" fill="#ffdcce"/><ellipse cx="227.388" cy="171.411" fill="#e29576" rx="20.426" ry="17.022"/><g fill="#766d78"><path d="m331.875 129.666c-5.933-1.958-12.268-3.033-18.858-3.033h-16.418c-14.515 0-26.234 11.965-25.834 26.57.386 14.077 12.29 25.118 26.372 25.118h13.169c14.225 0 27.237 8.014 33.639 20.718l5.419 10.754c3.847-7.628 5.928-16.061 5.928-25.264-.001-18.805-8.669-38.192-23.417-54.863z"/><path d="m122.901 129.666c5.933-1.958 12.268-3.033 18.858-3.033h16.418c14.515 0 26.234 11.965 25.834 26.57-.386 14.077-12.29 25.118-26.372 25.118h-13.169c-14.225 0-27.237 8.014-33.639 20.718l-5.419 10.754c-3.847-7.628-5.928-16.061-5.928-25.264.001-18.805 8.669-38.192 23.417-54.863z"/></g></g></g><g><path d="m450.018 362.88c0-12.501-7.236-32.987-20.85-40.389v-53.316c1.207-1.499 2.406-3.017 3.591-4.576 23.422-30.807 18.767-60.865 7.979-72.369-3.887-4.146-7.743-6.959-11.57-8.696v-176.034c0-4.142-3.357-7.5-7.5-7.5s-7.5 3.358-7.5 7.5v174.241c-7.242 1.331-14.382 5.482-21.432 10.685-1.1-65.454-30.014-117.27-79.746-142.524-9.493-4.821-19.329-8.365-29.002-10.62v-31.782c0-4.142-3.357-7.5-7.5-7.5s-7.5 3.358-7.5 7.5v29.306c-15.934-1.522-30.632.723-41.604 6.839-12.749-7.096-30.854-9.147-50.669-5.6-23.545 4.215-46.748 15.914-65.333 32.941-3.055 2.798-3.262 7.542-.464 10.596s7.542 3.262 10.597.463c24.744-22.67 75.309-42.563 101.446-23.463 2.635 1.926 6.215 1.926 8.85 0 16.667-12.178 48.855-8.27 74.388 4.694 20.229 10.272 37.346 26.221 49.502 46.121 14.656 23.994 22.088 53.233 22.088 86.907 0 33.997-26.148 74.69-58.415 91.07-10.023-6.963-16.732-12.836-17.018-13.087-.066-.058-.141-.121-.209-.177-2.608-2.135-6.329-2.264-9.085-.315-.318.225-31.858 22.323-65.676 27.682-33.818-5.359-65.357-27.457-65.672-27.679-2.792-1.981-6.574-1.82-9.188.395-.03.025-.081.069-.111.096-.729.638-7.296 6.333-17.017 13.084-4.907-2.491-9.669-5.551-14.222-9.057-.272-.245-.559-.473-.866-.676-24.949-19.644-43.327-52.839-43.327-81.336 0-34.782 7.913-64.792 23.519-89.196 2.231-3.49 1.212-8.127-2.277-10.359-3.49-2.231-8.129-1.212-10.359 2.278-17.174 26.856-25.882 59.585-25.882 97.277 0 19.413 7.083 41.001 19.943 60.79 7.538 11.599 16.561 21.816 26.4 30.077-2.703 29.631-1.773 58.222 2.732 82.92 5.706 31.291 16.933 56.384 33.367 74.581 20.404 22.593 48.317 34.049 82.963 34.049h41.6v25.78c0 4.142 3.357 7.5 7.5 7.5s7.5-3.358 7.5-7.5v-25.834c6.05-.161 19.314-.802 35.854-3.333 4.095-.626 6.906-4.453 6.28-8.548-.627-4.096-4.466-6.905-8.548-6.279-20.421 3.124-35.352 3.214-36.986 3.214h-53.2c-30.224 0-54.391-9.792-71.831-29.103-25.199-27.903-37.009-77.458-33.002-137.226 2.237 1.344 4.497 2.588 6.776 3.721 4.507 2.24 9.883 1.855 14.024-1.003 6.18-4.264 11.188-8.144 14.535-10.851 10.87 6.919 38.416 22.804 68.402 27.226.362.053.729.08 1.094.08s.731-.027 1.094-.08c29.985-4.421 57.532-20.307 68.402-27.227 3.333 2.696 8.359 6.59 14.535 10.852 4.142 2.857 9.514 3.243 14.023 1.002 17.905-8.899 34.74-24.531 47.405-44.018 9.291-14.296 15.547-29.53 18.314-44.207 14.724-12.236 22.502-17.235 28.688-16.599 2.368.592 4.572.468 9.949 6.201 5.846 6.235 9.369 28.898-8.979 53.032-41.943 55.181-110.831 80.053-167.965 75.126-4.115-.354-7.762 2.701-8.117 6.828s2.701 7.761 6.828 8.117c20.825 1.796 42.95-.498 62.978-5.19 1.196 5.731 5.259 24.01 6.006 27.465-12.776 2.459-26.791 3.837-42.298 4.163-4.141.087-7.428 3.515-7.34 7.656.086 4.088 3.426 7.342 7.495 7.342.053 0 .107 0 .161-.001 63.454-1.336 97.074-18.668 131.887-48.447 4.363-3.732 7.351-4.101 9.205-3.78.213.059.429.111.65.151.487.141.874.314 1.153.443 5.459 2.515 13.558 15.164 13.558 27.486 0 49.407-36.647 76.544-83.897 90.31-3.977 1.159-6.262 5.322-5.103 9.298.954 3.277 3.948 5.404 7.197 5.404.694 0 1.4-.097 2.101-.301 24.122-7.028 43.795-16.82 58.853-29.122v66.031c0 4.142 3.357 7.5 7.5 7.5s7.5-3.358 7.5-7.5v-80.936c13.772-16.895 20.848-37.25 20.848-60.684zm-49.316-35.699c-20.549 17.578-39.01 29.81-65.481 37.232-.022.006-.045.012-.067.018-.738-3.406-4.879-21.996-6.107-27.926 29.476-9.105 60.963-26.647 85.121-50.661v34.345c-5.763 1.196-10.501 4.457-13.466 6.992z"/><path d="m190.483 199.425c-3.848-1.534-8.21.344-9.742 4.193-1.532 3.848.345 8.21 4.193 9.742 14.085 5.608 28.269 8.413 42.451 8.413 14.184 0 28.367-2.804 42.451-8.413 3.849-1.532 5.726-5.894 4.193-9.742-1.532-3.849-5.895-5.724-9.742-4.193-24.83 9.887-48.971 9.887-73.804 0z"/><path d="m227.386 195.932c15.398 0 27.926-11 27.926-24.521s-12.527-24.521-27.926-24.521-27.927 11-27.927 24.521 12.528 24.521 27.927 24.521zm0-34.043c7.007 0 12.926 4.36 12.926 9.521s-5.919 9.521-12.926 9.521-12.927-4.36-12.927-9.521 5.92-9.521 12.927-9.521z"/><path d="m311.203 144.977h-9.988c-4.143 0-7.5 3.358-7.5 7.5s3.357 7.5 7.5 7.5h9.988c4.143 0 7.5-3.358 7.5-7.5s-3.357-7.5-7.5-7.5z"/><path d="m143.567 159.977h9.988c4.143 0 7.5-3.358 7.5-7.5s-3.357-7.5-7.5-7.5h-9.988c-4.143 0-7.5 3.358-7.5 7.5s3.358 7.5 7.5 7.5z"/><path d="m98.714 213.171c21.012 41.67 81.799 54.39 128.672 54.39 47.034 0 107.711-12.794 128.672-54.391 18.17-36.03-1.925-76.812-33.459-102.82-26.467-21.83-60.281-33.852-95.213-33.852-34.933 0-68.746 12.022-95.214 33.851-31.414 25.91-51.637 66.784-33.458 102.822zm28.487-76.985c4.735-1.362 9.621-2.053 14.554-2.053h16.418c4.995 0 9.665 1.972 13.149 5.553 3.482 3.58 5.324 8.307 5.188 13.312-.27 9.828-8.736 17.823-18.874 17.823h-13.169c-15.051 0-28.789 7.323-37.149 19.463-2.236-19.48 7.089-39.038 19.883-54.098zm183.102 34.635h-13.168c-10.139 0-18.605-7.996-18.875-17.824-.137-5.005 1.705-9.732 5.188-13.312 3.484-3.581 8.154-5.553 13.149-5.553 13.312.35 20.201-1.046 30.973 2.053 12.626 14.862 21.959 34.245 19.934 53.649-.016.151-.034.3-.051.449-8.361-12.139-22.1-19.462-37.15-19.462zm-.744-51.688h-12.962c-9.08 0-17.567 3.584-23.9 10.093-6.33 6.506-9.68 15.095-9.431 24.183.489 17.873 15.684 32.413 33.869 32.413h13.168c11.461 0 21.784 6.358 26.941 16.593l3.619 7.182c-6.719 11.176-17.25 19.041-26.675 24.27-21.733 12.056-52.561 18.696-86.803 18.696-39.188 0-93.613-9.921-113.478-42.964l3.619-7.183c5.157-10.234 15.48-16.592 26.941-16.593h13.169c18.186 0 33.379-14.54 33.868-32.412.249-9.088-3.101-17.676-9.431-24.183-6.333-6.509-14.82-10.093-23.9-10.093h-12.962c21.323-16.398 50.037-27.635 82.174-27.635 32.137-.002 60.851 11.235 82.174 27.633z"/></g></g></svg>