<svg id="icons" height="512" viewBox="0 0 500 500" width="512" xmlns="http://www.w3.org/2000/svg"><path d="m123.672 477.887c-7.157-8.47-12.93-23.922-5.221-51.366a2.075 2.075 0 0 1 3.858-.353c3.428 6.944 10.842 18.932 22.275 21.981 0 0-21.081-49.77 11.568-71.14 22.5-14.725 26.545-31.629 27.164-39.158a2.072 2.072 0 0 1 3.455-1.393c4.351 4.008 10.7 12.844 5.43 27.627a8.622 8.622 0 0 0 2.087 9.256c2.76 2.522 7.736 3.885 16.6-.75 14.566-7.619 10.528-42.5 8.628-54.679a28.333 28.333 0 0 1 1.378-14.28c3.824-10.248 14.582-26.243 44.794-37.916 16.281-6.291 23.648-17.54 26.276-29.659a2.072 2.072 0 0 1 4.055.094c1.5 7.736.985 20.644-10.7 37.2-19.63 27.809-17.344 37.079-5.673 47.985 10.952 10.233 24.14 32.1 18.367 55.379a11.5 11.5 0 0 0 5.575 13.109c3.231 1.656 7.753 1.974 13.9-1.419 13.779-7.6 18.449-27.21 14.373-41.87a2.066 2.066 0 0 1 3.286-2.176c8.084 6.614 21.51 21.847 17.239 47.863-2.782 16.946-8.5 29.009-13.839 37.073 0 0-10.7 15.274 6.75 16.365 12.447.778 18.323-8.988 20.669-14.651a2.066 2.066 0 0 1 3.7-.224c4.439 7.717 12.267 26.53-2.288 45.868a27.531 27.531 0 0 1 -22.041 10.791h-50.61s-29.169-36.192-81.453 0h-68.574a27.469 27.469 0 0 1 -21.028-9.557z" fill="#ffb464"/><path d="m155.061 21.28c4.084 8.646 7.841 21.843 2.237 35.245a18.462 18.462 0 0 1 -9.935 9.881c-9.709 4.049-28.553 14.349-25.038 32.278 2.716 13.85 18.619 20.322 31.555 23.317 17.006 3.938 30.263 17.539 32.954 34.786a89.928 89.928 0 0 1 -.148 26.928c-6.107 41.811-49.328 54.965-75.636 49.8-22.15-4.35-38.3-11.366-43.139-40.111a15.8 15.8 0 0 1 15.88-18.336l3.7.059a15.393 15.393 0 0 1 11.419 5.133c3.095 3.566 9.057 6.879 19.657 1.579 12.083-6.039 12.333-17.897 6.133-27.839a29.49 29.49 0 0 0 -19.5-13.094c-16.2-3.169-55.09-15.845-45.356-63.832 9.374-46.219 56.938-60.234 78.548-64.253a15.329 15.329 0 0 1 16.669 8.459z" fill="#a88e8e"/><path d="m326.682 110.9c-1.409-44.629-35.234-56.844-55.905-54.965 0 0-52.616 3.289-59.193 54.026s34.765 66.24 59.193 64.83 57.314-19.263 55.905-63.891zm-57.233 25.244c-7.976.461-21.475-4.6-19.327-21.168s19.327-17.64 19.327-17.64c6.749-.613 17.794 3.375 18.254 17.947s-10.277 20.399-18.254 20.859z" fill="#a88e8e"/><path d="m406.032 41.34c-13.97 6.792-35.863 25.7-38.509 50.175-1.824 16.871 10.4 29.649 23.474 38.332 8.339 5.54 6.608 18.44-3.054 21.063q-.559.153-1.159.268c-3.4.654-6.413 1.125-8.991 1.466a12.089 12.089 0 0 0 -10.276 14.34c1.54 7.713 6.147 16.661 18.594 20.8a12.078 12.078 0 0 0 6.814.255c9.811-2.524 38.559-12.762 48.01-47.537a21.615 21.615 0 0 0 -7.293-22.555c-4.452-3.578-12.712-7.208-16.941-13.135-5.9-8.262-7.045-17.092-.385-24.751 0 0 6.959-8.081 8.237-9.373 6.44-6.512 7.007-14.979 1.194-22.057 0-.004-7.924-13.024-19.715-7.291z" fill="#a88e8e"/><circle cx="223.162" cy="212.868" fill="#ffb464" r="15.161"/><circle cx="325.883" cy="193.242" fill="#ffb464" r="12.109"/><path d="m279.642 487.443-8.38-22.5-2.457-58.662h18.912l2.4 29.75 12.99-9.637 8.38 14.246s-18.017 12.745-16.76 46.808z" fill="#e57e62"/><ellipse cx="179.295" cy="289.534" fill="#a88e8e" rx="16.903" ry="14.177" transform="matrix(.128 -.992 .992 .128 -130.837 430.227)"/><path d="m269.749 428.822 1.513 36.116 8.38 22.5h15.085a81.261 81.261 0 0 1 .859-15.575c-5.219-17.924-20.045-36.326-25.837-43.041z" fill="#9b4036"/><path d="m225.523 487.443h31.077s8.31-40.632-5.446-58.515h-20.469s-7.863 35.872-5.162 58.515z" fill="#9b4036"/><path d="m279.642 487.443h-23.042c-.215-21.8-6.289-35.543-12.146-43.756-3.769-10.009-.988-19.628 5.443-29.031-.004 0 27.231 21.544 29.745 72.787z" fill="#e57e62"/><path d="m233.55 433.093s5.349 2.829 10.893 10.6a79.142 79.142 0 0 1 5.45-29.036c-13.826 2.932-16.343 18.436-16.343 18.436z" fill="#9b4036"/><path d="m213.274 487.443h12.249a9.568 9.568 0 0 0 9.579-9.816c-.394-14.3-4.328-41.5 14.791-62.971l-18.5-16.908s-27.012 33.931-18.119 89.695z" fill="#e57e62"/><g fill="#31313f"><path d="m366.107 421.758a5.518 5.518 0 0 0 -4.18 4.1c-.148.617-3.773 15.1-16.287 14.313-3.524-.221-4.648-1.1-4.756-1.316-.459-.944.641-4.185 2.167-6.4l.082-.12c7.273-10.994 12.212-24.188 14.679-39.217 3.419-20.823-3.7-35.341-10.276-43.854a53.084 53.084 0 0 0 -15.484-13.7 5.5 5.5 0 0 0 -7.452 7.4c6.4 12.337 3.145 33.512-9.77 40.638-3.628 2-6.567 2.454-8.737 1.34a6.043 6.043 0 0 1 -2.745-6.891c6.688-26.969-9.394-50.857-19.951-60.722-7.83-7.317-13.488-12.6 6.411-40.794 21.579-30.57 8.364-50.746 7.791-51.589a5.5 5.5 0 0 0 -10.04 2.753c-1 16.323-8.8 27.084-23.856 32.9-31.5 12.171-43.47 29.081-47.965 41.124a33.92 33.92 0 0 0 -1.659 17.052c3.963 25.412 1.655 45.087-5.744 48.957-2.3 1.2-7.92 3.768-10.338 1.562a3.176 3.176 0 0 1 -.615-3.348c7.238-20.309-4.293-33.007-11.4-36.884a5.48 5.48 0 0 0 -8.1 5.427c.083.833 1.727 20.608-24.74 37.932-15.134 9.906-22.222 26.717-20.5 48.617a98.645 98.645 0 0 0 2.255 14.365 56.792 56.792 0 0 1 -9.625-16.125 5.5 5.5 0 0 0 -5.176-3.643h-.079a5.5 5.5 0 0 0 -5.149 3.79c-11.022 33.716-3.58 52.339 4.6 62.025a32.868 32.868 0 0 0 25.228 11.5 5.5 5.5 0 1 0 0-11 21.894 21.894 0 0 1 -16.826-7.605c-7.269-8.6-9.318-21.618-6.1-38.082 4.648 6.989 11.717 14.629 21.393 17.209a5.5 5.5 0 0 0 6.482-7.46c-.193-.455-18.96-45.755 9.515-64.394 18.315-11.987 25.442-25.5 28.152-35.195 1.575 3.727 2.167 8.914-.3 15.824a14.052 14.052 0 0 0 3.558 15.163c3.817 3.486 10.88 6.327 22.856.062 16.839-8.809 14.442-41.622 11.514-60.4a22.891 22.891 0 0 1 1.1-11.51c3.706-9.93 13.935-24.012 41.623-34.708 8.722-3.37 15.69-8.3 20.794-14.644a63.684 63.684 0 0 1 -7.639 13.975c-19.25 27.271-20.45 40.678-4.935 55.176 8.8 8.225 22.244 28.019 16.784 50.037a16.908 16.908 0 0 0 8.405 19.327c3.868 1.982 10.315 3.332 19.067-1.5 13.031-7.19 19.086-22.8 18.622-37.4 5.76 7.425 10.9 19 8.192 35.506-2.21 13.461-6.57 25.194-12.962 34.874-1.23 1.775-6.536 10.123-3.023 17.42 2.19 4.55 6.9 7.081 13.981 7.524 11.01.7 18.362-5.209 22.783-11.759 3.151 8.151 5.076 20.893-4.754 33.955a22.1 22.1 0 0 1 -17.647 8.6 5.5 5.5 0 0 0 0 11 33.153 33.153 0 0 0 26.435-12.983c17.021-22.613 7.337-46.672-.161-56.233a5.494 5.494 0 0 0 -5.498-1.971z"/><path d="m122.616 240.1c15.358 0 31.625-4.911 44.01-13.677a60.9 60.9 0 0 0 25.5-41.909 95.879 95.879 0 0 0 .14-28.571c-3.018-19.344-17.6-34.769-37.147-39.3-11.312-2.62-25.247-8.044-27.4-19.018-2.689-13.725 12.481-22.271 21.761-26.143a24.11 24.11 0 0 0 12.892-12.835c6.373-15.242 2.246-30.01-2.338-39.715a20.815 20.815 0 0 0 -22.647-11.518c-21.568 4.011-72.823 18.72-82.934 68.566-3.58 17.652-1.337 32.681 6.667 44.668 11.52 17.251 31.9 23.479 43.029 25.656a24.051 24.051 0 0 1 15.879 10.607c2.788 4.47 3.8 9.121 2.774 12.76-.849 3.012-3.1 5.449-6.7 7.246-8.935 4.467-12.028.905-13.043-.264a20.877 20.877 0 0 0 -15.485-7.028l-3.7-.06a21.3 21.3 0 0 0 -21.391 24.749c5.659 33.652 26.57 40.483 47.5 44.6a65.619 65.619 0 0 0 12.633 1.186zm-49.282-47.611a10.141 10.141 0 0 1 2.332-8.309 10.354 10.354 0 0 1 7.87-3.617h.164l3.7.059a9.874 9.874 0 0 1 7.351 3.24c2.917 3.36 11.316 10.368 26.27 2.892 6.388-3.193 10.663-8.069 12.363-14.1 1.892-6.71.461-14.369-4.027-21.565a35.083 35.083 0 0 0 -23.1-15.581c-9.448-1.849-26.685-7.03-35.992-20.969-6.317-9.461-8.012-21.7-5.035-36.373 8.779-43.283 54.789-56.336 74.164-59.938a9.824 9.824 0 0 1 10.69 5.4c3.63 7.686 6.948 19.266 2.136 30.774a13.03 13.03 0 0 1 -6.978 6.927c-21.061 8.783-31.383 22.783-28.318 38.412 2.6 13.26 14.949 22.81 35.712 27.617 15.149 3.509 26.438 15.393 28.76 30.276a84.951 84.951 0 0 1 -.156 25.285c-2.127 14.562-9.184 26.177-20.973 34.52-15.379 10.889-35.267 13.207-48.157 10.677-22.487-4.416-34.658-11.14-38.776-35.627z"/><path d="m269.766 141.634c12.04-.7 23.955-10.031 23.434-26.527-.3-9.4-4.313-14.872-7.631-17.807a22.447 22.447 0 0 0 -16.54-5.45c-7.532.5-22.209 5.812-24.362 22.418-1.3 10.046 2.3 16.313 5.543 19.8 5.243 5.63 12.616 7.6 18.236 7.6.454.003.893-.01 1.32-.034zm-11.5-15.062c-2.386-2.562-3.289-6.226-2.684-10.89 1.5-11.562 12.95-12.762 14.215-12.859l.155-.011c.258-.024.534-.037.824-.037a11.631 11.631 0 0 1 7.51 2.764c2.465 2.181 3.786 5.518 3.925 9.916.442 14.011-11.69 15.116-13.074 15.2-3.349.191-8.004-.998-10.876-4.083z"/><path d="m312.63 64.326a57.213 57.213 0 0 0 -42.285-13.876 82.172 82.172 0 0 0 -29.207 8.575c-13.925 7.139-31.3 21.647-35.008 50.227-4.9 37.78 15.432 55.283 27.987 62.354a5.5 5.5 0 0 0 5.4-9.584c-12.386-6.977-26.34-21.549-22.476-51.356 5.9-45.517 52.127-49.113 54.081-49.243.052 0 .1-.007.155-.012a46.758 46.758 0 0 1 34.067 11.153c9.984 8.834 15.315 21.79 15.843 38.508 1.378 43.663-32.577 57.179-50.725 58.226a53.359 53.359 0 0 1 -9.977-.406 5.5 5.5 0 0 0 -1.43 10.906 66.485 66.485 0 0 0 8.645.579q1.719 0 3.4-.1a67.217 67.217 0 0 0 41.05-17.182c9.615-8.852 20.9-25.123 20.035-52.373-.625-19.584-7.385-35.629-19.555-46.396z"/><path d="m437.087 113.655a63.288 63.288 0 0 0 -5.822-3.966c-3.688-2.328-7.868-4.965-10.087-8.075-7.354-10.308-2.354-16.059-.694-17.968 2.838-3.3 7.19-8.3 7.979-9.095 8.438-8.53 9.116-19.924 1.772-29.121-3.815-6-13.962-15.184-26.608-9.036-13.025 6.332-38.475 25.878-41.573 54.531-1.735 16.051 7.221 31.1 25.9 43.5a6.4 6.4 0 0 1 2.8 6.411 5.732 5.732 0 0 1 -4.254 4.764c-.239.064-.487.122-.754.173-2.964.571-5.881 1.046-8.671 1.413a17.591 17.591 0 0 0 -14.95 20.871c1.712 8.572 6.962 19.858 22.253 24.939a17.708 17.708 0 0 0 5.589.909 17.3 17.3 0 0 0 4.331-.548c9.577-2.463 41.628-13.455 51.947-51.421a27.136 27.136 0 0 0 -9.158-28.281zm-1.459 25.4c-8.523 31.357-33.661 40.973-44.074 43.653a6.578 6.578 0 0 1 -3.709-.148c-8.251-2.742-13.276-8.345-14.934-16.655a6.588 6.588 0 0 1 5.6-7.809c3-.4 6.135-.907 9.3-1.516.543-.1 1.068-.225 1.571-.363a16.709 16.709 0 0 0 12.23-13.617 17.265 17.265 0 0 0 -7.572-17.333c-15.251-10.133-22.333-21.289-21.049-33.161 2.393-22.137 22.508-39.53 35.445-45.82 6.977-3.391 12.071 4.336 12.613 5.2a5.47 5.47 0 0 0 .448.632c3.945 4.8 3.634 10.16-.855 14.7-1.343 1.358-7.311 8.279-8.476 9.632-7.838 9.015-7.817 20.517.058 31.555 3.474 4.87 8.851 8.263 13.17 10.988a56.447 56.447 0 0 1 4.8 3.239 16.138 16.138 0 0 1 5.434 16.824z"/><path d="m223.162 233.529a20.662 20.662 0 1 0 -20.662-20.661 20.684 20.684 0 0 0 20.662 20.661zm0-30.323a9.662 9.662 0 1 1 -9.662 9.662 9.672 9.672 0 0 1 9.662-9.662z"/><path d="m308.273 193.242a17.61 17.61 0 1 0 17.61-17.609 17.63 17.63 0 0 0 -17.61 17.609zm17.61-6.609a6.61 6.61 0 1 1 -6.61 6.609 6.617 6.617 0 0 1 6.61-6.609z"/><path d="m307.848 423.6a5.5 5.5 0 0 0 -8.019-1.628l-5.029 3.728-1.6-19.869a5.5 5.5 0 0 0 -5.482-5.058h-18.913a5.5 5.5 0 0 0 -5.5 5.731l.652 15.572a65.807 65.807 0 0 0 -10.479-11.592l-18.378-16.8a5.5 5.5 0 0 0 -8.013.633c-1.165 1.463-28.419 36.491-19.249 93.987a5.5 5.5 0 0 0 5.431 4.633h81.452a5.5 5.5 0 0 0 5.5-5.7c-1.119-30.311 13.843-41.675 14.44-42.114a5.5 5.5 0 0 0 1.565-7.279zm-67.483 48.452c-.34-6.764-.761-15.142.462-23.921 4.516 6.8 9.07 17.552 10.069 33.811h-10.839a15.085 15.085 0 0 0 .543-4.466c-.045-1.65-.136-3.467-.235-5.424zm-7.941-65.912 9.924 9.07c-14.857 19.9-13.687 43.129-12.969 57.4.094 1.867.181 3.6.225 5.173a4.008 4.008 0 0 1 -1.144 2.926 4.062 4.062 0 0 1 -2.937 1.238h-7.477c-4.792-38.238 8.054-65.219 14.378-75.807zm29.495 75.8c-1.44-25.8-11.056-40.213-17.765-47.227a52 52 0 0 1 6.259-11.877c6.814 7.507 20.375 26.268 23.335 59.1zm27.268 0h-4.4a128.752 128.752 0 0 0 -9.014-38.6 5.5 5.5 0 0 0 .05-.973l-1.281-30.59h8.1l1.992 24.694a5.5 5.5 0 0 0 8.76 3.974l8.074-5.991 3.032 5.146c-5.44 5.724-14.777 18.92-15.313 42.342z"/><path d="m167.16 272.35a24.055 24.055 0 0 0 -7.379 14.661c-1.583 12.251 5.882 23.349 16.642 24.741a17.807 17.807 0 0 0 2.287.147 18.7 18.7 0 0 0 12.721-5.181 24.772 24.772 0 0 0 3.969-30.718 18.112 18.112 0 0 0 -28.242-3.651zm18.977 9.581a13.793 13.793 0 0 1 -2.159 16.7 7.63 7.63 0 0 1 -6.145 2.215c-4.664-.6-7.935-6.291-7.143-12.421a13.063 13.063 0 0 1 3.922-7.981 7.908 7.908 0 0 1 5.318-2.268 6.223 6.223 0 0 1 .828.054 7.641 7.641 0 0 1 5.379 3.701z"/><path d="m381.938 382.7a5.5 5.5 0 0 0 -6.655 4.026l-1.568 6.364a5.5 5.5 0 1 0 10.681 2.631l1.567-6.364a5.5 5.5 0 0 0 -4.025-6.657z"/></g></svg>