<svg id="Layer_1" enable-background="new 0 0 52 52" height="512" viewBox="0 0 52 52" width="512" xmlns="http://www.w3.org/2000/svg"><g><g><g><g><path d="m27.4243011 26.7852955c.0102348 4.4920101-3.1639118 9.9839573-7.066206 12.2401981-1.9691105 1.1332664-3.7587299 1.240963-5.0458269.4871521l-2.8920889-1.6768188c1.2870979.7486801 3.0767155.6461143 5.0457954-.4922562 3.9074268-2.2562675 7.0764408-7.7481861 7.066206-12.2401962-.0102654-2.2357712-.7999458-3.8099957-2.0716763-4.5484085l2.8869877 1.681921c1.2768327.7384128 2.0665437 2.3126697 2.076809 4.5484085z" fill="#4c5c75"/></g><g><path d="m27.7588291 24.7883205-.8099976.460022-1.5999756-.9299927-.0400391-15.5c0-.0599976 0-.1199951-.0199585-.1699829-.1176014.0469542-.0943642.0455742-11.5700083 6.6699829-.9899902.5700073-1.7900391 1.9500122-1.7800293 3.0800171l.0300293 15.4999981-.8099976.4699707-.0300293-15.4999981c-.0100098-1.6400146 1.1500244-3.6499634 2.5800171-4.4799805 2.3040953-1.3307705-5.9203167 3.4193821 11.4099741-6.5900269 1.4300537-.8200073 2.6000366-.1599731 2.6100464 1.4899902z" fill="#c9cee2"/></g><g><path d="m26.9537735 25.2491055-1.604702-.9299812-.036478-15.5031043c-.0045624-.5607491-.2005863-.9573617-.5242424-1.1442595l1.6092358.9345455c.3191204.1869259.5197086.5835381.5197086 1.1442595z" fill="#b0b8cf"/></g><g><path d="m25.122633 7.800137c1.4291191-.8251033 2.5971565-.1594658 2.6018219 1.4860463l.0355949 15.4990377-.8062382.4654827-.0355949-15.4990386c-.0032139-1.1337986-.8091583-1.5897388-1.7929478-1.0217476l-11.4096756 6.5873795c-.9866915.5696669-1.7845192 1.9515438-1.7813044 3.0853424l.035594 15.4990368-.8091393.4671593-.0355949-15.4990387c-.0046654-1.6455116 1.1557865-3.6555023 2.5878086-4.4822807z" fill="#c9cee2"/></g><g><path d="m25.122633 7.800137c1.4291191-.8251033 2.5971565-.1594658 2.6018219 1.4860463l.0355949 15.4990377-.8062382.4654827-.0355949-15.4990386c-.0032139-1.1337986-.8091583-1.5897388-1.7929478-1.0217476l-11.4096756 6.5873795c-.9866915.5696669-1.7845192 1.9515438-1.7813044 3.0853424l.035594 15.4990368-.8091393.4671593-.0355949-15.4990387c-.0046654-1.6455116 1.1557865-3.6555023 2.5878086-4.4822807z" fill="#c9cee2"/></g><g><path d="m20.3070965 21.4705219c4.5082474-2.6028366 8.1903152-.5045376 8.2050228 4.6833076.014698 5.184082-3.6434479 11.5240269-8.1516953 14.1268635-4.5147953 2.606617-8.1968746.5045547-8.2115717-4.6795273-.0147075-5.1878452 3.6434498-11.5240249 8.1582442-14.1306438zm.0497646 17.5536518c3.905838-2.2550392 7.077755-7.7490253 7.0650196-12.2408943-.0127449-4.4956303-3.2053947-6.3150253-7.1112328-4.059988-3.9123859 2.2588158-7.0843105 7.7528-7.0715656 12.2484303.0127344 4.491867 3.2053929 6.3112678 7.1177788 4.052452" fill="#1d2943"/></g><g><g><path d="m31.3887978 27.123312c-1.1396503-.6610146-2.7180748-.5641556-4.4617386.4387417-.0569668.0341892-.1139717.0683765-.1709404.1025639-.1709404.1025658-.3362103.2108326-.5014477.3362122-.7122803.4957447-1.3903732 1.111166-2.0114975 1.8120384-.1196404.1310482-.2393169.2735043-.3589916.4159603-.5356369.6610165-1.0313816 1.3790016-1.4587498 2.1368446-.085453.153862-.1709404.3134308-.2563934.4786682-.4045887.7806549-.7408009 1.589798-.9915237 2.4046402-.0569687.1766472-.1082687.3589935-.1481266.5413437-.2336464.8832207-.3589916 1.7664757-.3589916 2.6098061 0 .0569687 0 .1139717.005703.1709404 0 .2279434.0170765.4444771.0398579.6496086.1709747 1.5442352.826252 2.6382904 1.789257 3.1967049l-17.1427002-9.972126c-.9630051-.5584507-1.6126134-1.6582088-1.7835538-3.196743-.0228152-.2108307-.039892-.4273682-.0455956-.6552773v-.1709404c0-.8433628.1196756-1.7265854.3475847-2.6098061.0512993-.1823483.0968604-.3589916.1538637-.5413399.2507243-.814846.5811977-1.6239872.9914894-2.404644.0797839-.1595669.1652365-.3190994.2564278-.4729633.4216647-.7578773.9174094-1.4815311 1.4587498-2.1425476.1139722-.1424561.233613-.2792072.3589926-.4159603.6153855-.6952038 1.2934785-1.3105888 2.0057588-1.8120384.1652718-.1196747.3419161-.2279434.5128565-.3362122.0569687-.0341873.1082678-.0626717.1652365-.096859 1.7379932-1.0086021 3.3220873-1.0997581 4.4617367-.4387779z" fill="#4c5c75"/></g></g><g><g><path d="m37.4470863 29.3142185c-1.2839622-.7447205-3.0622635-.6355934-5.0267258.4942989-.0641823.038517-.1284027.077034-.192585.1155529-.1925888.115551-.3787861.2375298-.5649471.3787861-.8024769.5585194-1.5664349 1.2518711-2.2662125 2.0414963-.1347904.1476402-.2696209.308136-.4044514.4686317-.6034641.7447205-1.1619835 1.5536232-1.6434689 2.4074287-.0962753.1733475-.1925869.3531227-.2888603.5392838-.455822.879509-.8346081 1.791111-1.1170807 2.7091408-.0641823.1990128-.1219788.4044495-.1668816.60989-.2632351.9950638-.4044514 1.9901657-.4044514 2.9402847 0 .0641823 0 .1284027.0064259.192585 0 .2568092.0192394.5007629.0449028.7318687.192627 1.7397842.9308815 2.972374 2.015831 3.6015053l-19.3134689-11.23489c-1.0849495-.6291695-1.8168173-1.868187-2.0094037-3.6015453-.0257044-.2375298-.0449433-.4814854-.0513697-.7382545v-.1925869c0-.9501591.1348305-1.9452209.3915992-2.9402847.0577955-.2054386.1091261-.4044514.1733475-.60989.2824731-.9180279.6547942-1.8296299 1.1170411-2.7091408.0898867-.1797733.1861601-.3595085.2888989-.532856.4750605-.8538456 1.0335808-1.669136 1.6434708-2.4138546.1284037-.1604958.263195-.3145657.4044514-.4686337.6933107-.7832375 1.4572697-1.4765491 2.2597466-2.0414963.1861992-.1348305.3852119-.2568073.5777988-.3787861.0641823-.038517.1219778-.0706081.1861601-.1091251 1.9580736-1.1363201 3.7427607-1.2390194 5.0267229-.494339z" fill="#e3e7f0"/></g></g><g><g><path d="m33.5233574 29.2729778c-.1840019.0696297-.3729782.1541634-.5619545.2536297l-19.3152332-11.2390671c.1889772-.0944881.3779545-.1790218.5619545-.2486515z" fill="#c9cee2"/></g><g><path d="m30.4798641 31.2472572c-.1243248.1144009-.2536297.2337475-.3779545.3580742l-19.3152332-11.2390671c.1243258-.1193485.2486515-.2386951.3729773-.3530655z" fill="#c9cee2"/></g><g><path d="m28.3016758 33.7238464c-.0994682.1342506-.1939564.2685318-.2834682.4077911l-19.3152314-11.2340869c.0895109-.1392288.1790218-.2735119.2834663-.407793z" fill="#c9cee2"/></g><g><path d="m26.6854401 36.528614c-.0696297.1492119-.1392288.3033752-.1989021.4575386l-19.3152638-11.2390651c.0596738-.1541634.1293035-.3083267.2039113-.4575119z" fill="#c9cee2"/></g><g><path d="m25.636137 39.6566696c-.0348148.1740417-.0696297.3431396-.0994663.5171814l-19.3102846-11.2340565c.0248895-.1740742.0597043-.3481197.0944891-.5221939z" fill="#c9cee2"/></g><g><path d="m25.6112785 43.9583206-19.3053069-11.2290802c-.0546961-.208889-.1044445-.4277039-.1392593-.6564445l19.3003287 11.2291107c.039793.2287407.0845642.4475555.1442375.656414z" fill="#c9cee2"/></g></g><g><g><g enable-background="new"><g><path d="m26.1218052 20.9087887s-3.5248146-.0445366-5.7913189 1.2681942c-4.5125418 2.6049614-7.6370077 8.2965565-7.6216402 13.4808121.0102663 2.5793304 1.458334 3.90625 1.8291416 5.1880836l-2.8921204-1.6819229c-1.4665604-.8512115-2.3793344-2.6664925-2.3895998-5.2406883-.0153675-5.1893921 3.6459322-11.5274182 8.1584416-14.1323796 2.2665062-1.3075981 4.3279152-1.4306602 5.8149757-.5640526z" fill="#4c5c75"/></g></g></g><g><path d="m14.9024267 39.2332382c-1.0320005-.8207474-1.6577358-2.280056-1.6633415-4.261528-.0127411-4.4956226 3.1591654-9.9896126 7.0715628-12.2484131 1.8489971-1.067524 3.532814-1.2121696 4.8004742-.6018429h2.3052654c-1.4192581-2.0173244-4.0742512-2.403204-7.1092758-.6509457-4.5148115 2.606636-8.1729641 8.9428043-8.1582451 14.1306572.007884 2.7783203 1.0752888 4.6601143 2.7535601 5.417572v-1.7854995z" fill="#1d2943"/></g></g><g><path d="m39.5088348 25.2590542c-.2099609-.1099854-13.9400024 23.669981-13.7399902 23.7899761l-1.9199829-1.1300049c-.2000122-.1199951-.3300171-.3599854-.3300171-.7199707l-.039978-14c0-.710022.5-1.5900249 1.1300049-1.9500103l12.1799927-7.0299683c.3099976-.1800537.5899658-.2000122.7999878-.0800171z" fill="#1d2943"/></g><g><path d="m38.7037888 25.3411808c.6223373-.3593044 1.1319771-.0724945 1.1340065.642601l.0396843 13.9990788c.0020409.7187462-.5043144 1.5921402-1.1266479 1.9514427l-12.179718 7.0319633c-.6223125.3592949-1.1319752.0724983-1.1340141-.6462479l-.0396862-13.9990807c-.0020275-.7150955.5043468-1.588501 1.1266594-1.9477921z" fill="#4c5c75"/></g><g><path d="m38.6903419 33.6591949c.0099564 3.8341866-2.6953735 8.5237808-6.0322876 10.4483414-2.0787239 1.2034645-3.9137726 1.0542793-5.0078449-.1492157-.6713467-.7310219-1.0592575-1.8549309-1.0642357-3.307045-.0099258-3.8441429 2.6904259-8.528759 6.0322895-10.4582996 1.1487656-.6613903 2.2279358-.91502 3.1429558-.7956715 1.7505188.2138367 2.9241448 1.7455387 2.9291229 4.2618904z" fill="#1d2943"/></g><g><path d="m36.8254547 32.70438c.0099564 3.8341866-2.6953735 8.5287285-6.0322876 10.453289-1.1487675.6664009-2.2279072.9150505-3.1429577.8006516-.6713467-.7310219-1.0592575-1.8549309-1.0642357-3.307045-.0099258-3.8441429 2.6904259-8.528759 6.0322895-10.4582996 1.1487656-.6613903 2.2279358-.91502 3.1429558-.7956715.6713791.73102 1.0592575 1.8549309 1.0642357 3.3070755z" fill="#ffd06c"/></g></g><path d="m26.9388275 18.6090298.0100098-.8025627-1.5999756-.9299927-.0400391-8.0574226c0-.0599976-.0099487-.1099854-.0099487-.1699829-.0599976.0299683-.1200562.0499878-.1700439.0799561l-11.4099741 6.5900269c-.9899902.5700073-1.7900391 1.9500122-1.7800293 3.0800171l.0300293 15.4999981-.8099976.4699707-1.6099854-.9299928-.0300292-15.4999981c-.0100098-1.6500244 1.1599731-3.6599731 2.5900269-4.4899902l11.4099741-6.5800171c.7200317-.4199829 1.3699951-.460022 1.8400269-.1799927l1.5999756.9299927c.4699707.2700195.7600098.8500366.7700195 1.6699829l.0199585 9.3200073z" fill="#c9cee2"/><g><path d="m26.9537735 17.8065281-1.604702-.9299812-.036478-8.0605269c-.0045624-.5607491-.2005863-.9573617-.5242424-1.1442595l1.6092358.9345455c.3191204.1869259.5197086.5835381.5197086 1.1442595z" fill="#b0b8cf"/></g><g><g enable-background="new"><g><path d="m26.9674358 7.6216207c-.4741039-.2735438-1.1260071-.2370658-1.846302.1777711l-11.4060917 6.587451c-1.4360008.8297024-2.5939503 2.8355789-2.5893869 4.4812946l.036478 15.498539-1.6092644-.9299812-.0364503-15.498541c-.0045633-1.6457424 1.1579218-3.6561546 2.5893869-4.485857l11.4106264-6.5874505c.720295-.4148374 1.3721981-.4513154 1.8417664-.1777997z" fill="#b0b8cf"/></g><g><path d="m26.9182072 9.7516479.0203362 8.8534451h.8072987l-.0214005-9.3189077c-.0046425-1.645525-1.1726856-2.3111658-2.6017952-1.4860506l-11.4096804 6.5873832c-1.432023.8267841-2.5924778 2.8367577-2.5878029 4.4822826l.035574 15.4990158.8091488-.4671326-.0356035-15.4990444c-.0032177-1.1338062.79461-2.5156851 1.7813244-3.0853491l11.4096507-6.5873832c.983799-.567995 1.789732-.1120634 1.7929497 1.0217409z" fill="#c9cee2"/></g></g></g><g><g enable-background="new"><g><path d="m10.9088583 32.6690254c0 .1600342-.0599976.2800293-.1500244.3400269l-.25.1499634-.75-1.2799664.2600098-.1400146c.0900269-.0599976.2200317-.0499878.3599854.0300293.2999877.1699829.5300292.5700054.5300292.8999614z" fill="#1d2943"/></g><g><path d="m10.1359148 31.9183693c.2927942.1690445.5218458.5657158.5209064.897007-.0009394.3312874-.2315016.4677849-.5242958.2987404-.2883339-.1664696-.5173092-.5682793-.5163708-.8995705.0009394-.3312893.2314263-.4626465.5197602-.2961769z" fill="#4c5c75"/></g></g></g><g><g><g enable-background="new"><g><path d="m19.4388275 9.6690273v.9500122c0 .1500244-.0899658.289978-.2799683.4000244-.3900146.2299805-1.0100098.2299805-1.3900146 0-.1900024-.1100464-.289978-.25-.289978-.4000244v-.960022z" fill="#1d2943"/></g><g><path d="m19.154541 9.260808c.3837681.2215681.3835926.5840158.0023212.8055868-.3834743.2228508-1.0047932.2215757-1.3885593.0000076-.3837681-.2215681-.3880157-.5814629-.0045395-.8043146.3812695-.22157 1.0070114-.2228479 1.3907776-.0012798z" fill="#4c5c75"/><g><path d="m19.0588226 2.34902v7.2900391c0 .0899658-.0599976.1799927-.1799927.2399902-.2299805.1400146-.6199951.1400146-.8499756 0-.1199951-.0700073-.1799927-.1599731-.1799927-.25v-7.2800293z" fill="#1d2943"/></g><g><path d="m18.8816929 2.1020408c.2365608.1365786.2364521.3599982.0014305.4965782-.2363815.1373696-.6193733.1365833-.8559341.000005-.2365608-.1365786-.2391796-.3584247-.0027981-.4957943.2350216-.1365799.6207409-.1373674.8573017-.0007889z" fill="#4c5c75"/></g></g></g></g></g></g><g opacity=".3"><g><path d="m47.1424026 37.154911-7.8416824 12.276268-10.5359612-4.7071075-.1467857-.0629616c-.3668976-.1572151-.691885-.3983154-.964468-.7023811-.6709633-.73386-1.0588493-1.855545-1.0693436-3.3022804-.0104942-3.8475151 2.6942825-8.5336342 6.038538-10.462635 1.1426735-.6604691 2.2225113-.9120655 3.1345749-.7967606.6604691.0733929 1.2265587.345974 1.6878357.7758369l.0314827.0209236z" fill="#febc1f"/></g><g><path d="m48.4666061 40.3512268c.0089798 3.2743759-2.3055077 7.2932892-5.1672058 8.9349632-1.7762032 1.0316696-3.3460999.9060631-4.2790451-.1256027-.5741463-.6279678-.9060631-1.5877991-.9150429-2.825779-.0089798-3.2923317 2.3055077-7.302269 5.1672058-8.9529228.9777908-.5651665 1.9018097-.7804604 2.6822701-.6817932 1.4981117.1794281 2.502842 1.498169 2.5118179 3.6511345z" fill="#ffd06c"/></g></g></g></svg>