<svg id="Capa_1" enable-background="new 0 0 512 512" height="512" viewBox="0 0 512 512" width="512" xmlns="http://www.w3.org/2000/svg"><g><path d="m175.881 250.052c0 19.642 15.923 35.564 35.564 35.564h206.988c19.641 0 35.564-15.922 35.564-35.564v-206.988c0-19.641-15.923-35.564-35.564-35.564h-206.988c-19.641 0-35.564 15.923-35.564 35.564z" fill="#e7889d"/><path d="m452.527 196.384h-120.503v-5.528c0-36.152-29.411-65.564-65.564-65.564h-90.578v124.76c0 19.642 15.922 35.564 35.564 35.564h206.988c19.641 0 35.564-15.922 35.564-35.564v-53.63c-.491-.011-.978-.038-1.471-.038z" fill="#e16e7e"/><path d="m23.908 397.844c0 19.642 15.923 35.564 35.564 35.564h206.988c19.642 0 35.564-15.922 35.564-35.564v-206.988c0-19.642-15.922-35.564-35.564-35.564h-206.988c-19.641 0-35.564 15.922-35.564 35.564z" fill="#88d37f"/><path d="m245.54 196.384c-36.152 0-65.564 29.412-65.564 65.564v171.459h86.484c19.642 0 35.564-15.922 35.564-35.564v-201.459z" fill="#5ec682"/><path d="m245.54 504.5h143.157c54.894 0 99.394-44.5 99.394-99.394v-143.158c0-19.641-15.923-35.564-35.564-35.564h-206.987c-19.641 0-35.564 15.923-35.564 35.564v206.988c0 19.642 15.922 35.564 35.564 35.564z" fill="#f6ee86"/><path d="m388.697 504.5c54.894 0 99.394-44.5 99.394-99.394v-39.663c0 40.545-22.444 54.933-48.557 54.934-19.609.001-35.566 15.958-35.567 35.567-.001 26.113-14.389 48.557-54.934 48.557h39.664z" fill="#f2d98d"/><g><g fill="#fff"><ellipse cx="236.563" cy="123.528" rx="28.919" ry="23.03"/><ellipse cx="393.316" cy="123.528" rx="28.92" ry="23.03"/></g></g><path d="m425.973 364.477h-153.879c-4.142 0-7.5 3.358-7.5 7.5s3.358 7.5 7.5 7.5h153.879c4.142 0 7.5-3.358 7.5-7.5s-3.358-7.5-7.5-7.5zm-102.087-254.849c-2.259 2.593-5.521 4.08-8.947 4.08-3.427 0-6.688-1.487-8.947-4.08-2.723-3.123-7.459-3.447-10.582-.727-3.123 2.722-3.448 7.459-.727 10.582 5.109 5.862 12.492 9.224 20.256 9.224s15.146-3.362 20.255-9.224c2.721-3.123 2.396-7.86-.727-10.582-3.122-2.72-7.86-2.396-10.581.727zm-186.117 120.322c4.142 0 7.5-3.358 7.5-7.5s-3.358-7.5-7.5-7.5h-59.433c-4.142 0-7.5 3.358-7.5 7.5s3.358 7.5 7.5 7.5zm288.204 69.521h-153.879c-4.142 0-7.5 3.358-7.5 7.5s3.358 7.5 7.5 7.5h153.879c4.142 0 7.5-3.358 7.5-7.5s-3.358-7.5-7.5-7.5zm-193.821-201.004c0 4.142 3.358 7.5 7.5 7.5s7.5-3.358 7.5-7.5c0-3.455 2.811-6.265 6.265-6.265s6.265 2.811 6.265 6.265c0 4.142 3.358 7.5 7.5 7.5s7.5-3.358 7.5-7.5c0-11.726-9.539-21.265-21.265-21.265s-21.265 9.539-21.265 21.265zm144.309-21.265c-11.726 0-21.265 9.54-21.265 21.265 0 4.142 3.358 7.5 7.5 7.5s7.5-3.358 7.5-7.5c0-3.455 2.81-6.265 6.265-6.265s6.265 2.811 6.265 6.265c0 4.142 3.358 7.5 7.5 7.5s7.5-3.358 7.5-7.5c.001-11.726-9.539-21.265-21.265-21.265zm85.036 142.629v-176.767c0-18.55-11.812-34.965-29.393-40.847-3.927-1.312-8.177.806-9.492 4.733-1.314 3.928.805 8.178 4.733 9.492 11.455 3.833 19.152 14.531 19.152 26.622v175.82h-136.973v-28.028c0-23.746-19.318-43.064-43.064-43.064h-83.079v-104.728c0-15.475 12.589-28.064 28.064-28.064h183.182c4.142 0 7.5-3.358 7.5-7.5s-3.358-7.5-7.5-7.5h-183.182c-23.746 0-43.064 19.318-43.064 43.064v104.728h-108.908c-23.746 0-43.064 19.318-43.064 43.064v206.988c0 18.095 11.431 34.378 28.445 40.517 3.888 1.404 8.192-.606 9.601-4.509 1.406-3.897-.613-8.195-4.509-9.601-11.087-4.001-18.537-14.613-18.537-26.408v-206.987c0-15.475 12.589-28.064 28.064-28.064h206.987c15.475 0 28.064 12.589 28.064 28.064v28.028h-48.984c-23.746 0-43.064 19.318-43.064 43.064v62.352c-40.079 71.001-82.642 42.747-60.644 5.866 34.352-57.591-28.309-89.544-64.552-42.386-2.524 3.285-1.908 7.993 1.376 10.517 3.285 2.523 7.993 1.908 10.517-1.376 24.587-31.994 64.616-16.085 39.776 25.561-28.592 47.932 24.466 92.88 73.526 29.096v74.331h-119.248c-4.142 0-7.5 3.358-7.5 7.5s3.358 7.5 7.5 7.5h119.249v28.028c0 23.746 19.318 43.064 43.064 43.064h143.157c58.941 0 106.894-47.953 106.894-106.895v-143.158c0-20.67-14.64-37.979-34.094-42.117zm-65.976 276.916c11.25-10.522 15.946-25.21 15.947-40.801.001-15.477 12.593-28.069 28.069-28.07 15.585-.001 30.278-4.693 40.801-15.946-3.337 45.242-39.575 81.479-84.817 84.817zm85.07-131.305c0 39.203-22.326 47.433-41.055 47.434-23.746.002-43.066 19.322-43.068 43.069-.003 33.932-25.797 41.055-47.434 41.055h-103.494c-15.475 0-28.064-12.589-28.064-28.064 0-242.802 0-155.237 0-206.988 0-15.475 12.589-28.064 28.064-28.064h206.987c15.475 0 28.064 12.589 28.064 28.064z"/></g></svg>