<svg width="934px" height="538px" viewBox="0 0 934 538" version="1.1" xmlns="http://www.w3.org/2000/svg" xmlns:xlink="http://www.w3.org/1999/xlink"><title>Group 3</title><desc>Created with Sketch.</desc><g id="Page-1" stroke="none" stroke-width="1" fill="none" fill-rule="evenodd"><g id="702" transform="translate(-1030.000000, -581.000000)"><g id="Group-3" transform="translate(1030.574534, 581.337922)"><path d="M219.805466,87.0370783 C219.805466,87.0370783 267.225466,50.5570783 296.415466,35.9660783 C325.595466,21.3730783 387.985466,-3.61192171 431.595466,6.64907829 C475.215466,16.9130783 498.305466,40.0030783 536.785466,70.7870783 C575.265466,101.571078 616.305466,119.530078 629.135466,124.662078 C641.965466,129.794078 654.795466,217.016078 641.965466,234.975078 C641.965466,258.062078 621.435466,332.464078 577.825466,358.115078 C534.215466,383.770078 488.035466,381.204078 441.855466,376.073078 C395.685466,370.942078 362.335466,363.239078 339.245466,352.988078 C308.455466,376.073078 277.675466,399.163078 241.755466,404.288078 C205.835466,409.427078 177.615466,376.065078 139.135466,370.942078 C100.655466,365.818078 87.8354664,365.818078 80.1354664,358.115078 C72.4454664,350.423078 67.3054664,355.548078 67.3054664,309.375078 C67.3054664,263.195078 43.7054664,238.507078 68.3354664,207.236078 C92.9654664,175.968078 101.175466,184.192078 101.175466,184.192078 C92.9654664,155.446078 100.665466,127.224078 118.615466,114.400078 C136.575466,101.571078 220.945466,75.0650783 219.805466,87.0370783" id="Fill-207" fill="#A59B87"></path><path d="M541.325466,76.8520783 C541.225466,76.5020783 541.125466,76.1490783 541.015466,75.8010783 C531.465466,44.8220783 478.055466,25.8040783 451.455466,16.1110783 C402.815466,-1.60992171 355.775466,6.20707829 310.655466,30.1120783 C274.645466,49.1940783 244.305466,79.4510783 203.155466,86.9590783 C183.095466,90.6250783 162.395466,91.1720783 143.635466,100.041078 C123.595466,109.515078 91.6754664,140.055078 94.2454664,158.008078 C101.115466,147.901078 156.305466,150.793078 163.515466,158.008078 C150.685466,158.008078 140.425466,160.574078 128.555466,166.187078 C117.555466,171.386078 107.875466,178.986078 97.5554664,185.436078 C74.4254664,199.904078 64.4454664,211.707078 61.6754664,232.849078 C72.8354664,262.574078 69.9254664,319.616078 112.925466,318.510078 C122.485466,318.255078 136.805466,312.538078 145.915466,317.982078 C153.585466,322.567078 155.835466,329.176078 158.735466,337.341078 C164.655466,353.966078 176.675466,355.887078 189.175466,365.550078 C189.955466,366.156078 190.655466,366.812078 191.355466,367.464078 C189.405466,351.929078 182.915466,338.350078 173.355466,324.513078 C167.795466,316.445078 162.005466,308.474078 157.025466,300.022078 C153.085466,293.361078 151.245466,285.268078 146.675466,279.016078 C140.615466,270.737078 130.915466,284.910078 124.405466,286.114078 C119.445466,287.032078 113.345466,285.016078 109.065466,282.590078 C98.9954664,276.880078 89.6954664,268.024078 87.2354664,256.492078 C86.5854664,256.024078 85.9554664,255.554078 85.2954664,255.079078 C82.7154664,253.223078 85.1954664,248.905078 87.7954664,250.788078 C87.8054664,250.790078 87.8154664,250.800078 87.8254664,250.808078 C89.2454664,250.153078 91.4254664,250.850078 91.5954664,252.933078 C91.6254664,253.203078 91.7254664,253.473078 91.7654664,253.744078 C99.5854664,259.707078 108.255466,266.448078 118.295466,265.777078 C125.635466,265.289078 133.685466,264.188078 138.895466,258.490078 C140.015466,257.273078 140.975466,256.309078 142.425466,255.541078 C153.035466,249.943078 173.275466,278.828078 176.455466,285.938078 C182.275466,298.981078 185.405466,311.015078 197.005466,320.228078 C203.325466,325.248078 208.475466,330.641078 210.075466,338.845078 C210.425466,340.650078 210.645466,342.479078 210.805466,344.302078 C211.405466,344.550078 211.905466,345.044078 212.085466,345.905078 C215.215466,361.025078 228.015466,378.920078 242.485466,376.086078 C258.255466,364.463078 271.415466,346.607078 284.915466,334.678078 C321.755466,302.126078 365.085466,284.362078 409.765466,266.291078 C431.465466,257.515078 442.725466,237.770078 456.855466,220.194078 C476.275466,196.044078 497.045466,181.764078 527.575466,175.779078 C529.595466,156.283078 532.185466,136.995078 536.435466,117.844078 C539.295466,104.979078 544.955466,90.1040783 541.325466,76.8520783" id="Fill-208" fill="#BAB4A5"></path><path d="M334.465466,218.444078 C320.105466,217.073078 292.575466,220.228078 285.505466,203.213078 C280.915466,192.162078 275.535466,185.702078 263.455466,182.916078 C256.945466,181.411078 249.385466,183.052078 242.885466,183.834078 C229.095466,185.501078 220.125466,177.486078 210.095466,170.058078 C200.725466,163.117078 187.325466,164.685078 175.245466,167.228078 C145.685466,163.328078 113.875466,173.702078 90.8754664,192.469078 C77.0854664,203.726078 56.8354664,225.848078 75.7554664,241.867078 C102.605466,264.611078 157.395466,237.781078 186.605466,236.494078 C213.565466,235.314078 240.775466,250.448078 266.145466,257.625078 C282.555466,262.268078 300.385466,263.316078 317.335466,263.049078 C333.295466,262.802078 370.825466,260.202078 373.725466,238.474078 C376.165466,220.170078 346.085466,219.551078 334.465466,218.444078" id="Fill-209" fill="#E3DBCB"></path><path d="M466.835466,38.1460783 C444.345466,5.62707829 396.605466,-2.46692171 363.885466,18.3970783 C346.545466,22.3310783 329.375466,29.7020783 313.565466,36.4850783 C297.685466,43.2980783 283.455466,52.3940783 269.635466,62.1940783 C263.535466,64.1950783 257.645466,66.6940783 252.415466,70.7450783 C242.735466,78.2330783 234.115466,86.5880783 223.715466,93.1830783 C213.715466,99.5300783 202.135466,101.668078 191.785466,107.073078 C190.505466,107.744078 189.275466,108.447078 188.015466,109.138078 C178.265466,112.504078 168.385466,115.604078 158.595466,118.879078 C167.375466,110.146078 177.765466,103.706078 190.525466,100.093078 C195.925466,98.5560783 195.055466,89.5510783 189.165466,90.0420783 C155.345466,92.8680783 102.315466,110.281078 93.0954664,147.655078 C92.1054664,151.718078 96.7954664,156.290078 100.705466,153.503078 C105.485466,150.084078 111.405466,148.342078 117.525466,147.215078 C118.945466,147.550078 120.445466,147.459078 121.675466,146.554078 C121.675466,146.545078 121.695466,146.538078 121.705466,146.528078 C126.245466,145.876078 130.775466,145.433078 134.935466,144.796078 C149.675466,142.537078 161.915466,136.807078 174.665466,129.260078 C185.455466,122.871078 196.685466,118.014078 207.845466,112.830078 C210.705466,111.690078 213.545466,110.502078 216.355466,109.243078 C237.535466,99.7540783 255.385466,84.9090783 273.925466,71.1590783 C284.275466,67.3200783 296.075466,65.4960783 306.005466,61.2570783 C324.015466,53.5600783 339.065466,41.1870783 357.795466,34.5790783 C368.535466,30.7890783 383.685466,28.9400783 399.475466,28.9750783 C405.845466,29.5490783 412.205466,30.4560783 418.575466,31.5040783 C428.675466,34.2070783 438.975466,37.5030783 450.105466,40.3350783 C453.975466,42.4570783 458.205466,43.4090783 463.665466,43.6750783 C466.335466,43.8060783 468.405466,40.4090783 466.835466,38.1460783" id="Fill-210" fill="#E3DBCB"></path><path d="M477.955466,103.714078 C472.125466,98.1790783 468.935466,91.4710783 468.395466,83.5930783 C468.085466,81.5810783 465.955466,79.8740783 464.155466,80.0080783 C440.985466,81.7160783 423.485466,56.8940783 399.245466,57.1420783 C387.195466,57.2650783 374.955466,62.2340783 363.355466,65.2230783 C347.645466,69.2730783 331.925466,65.5250783 316.345466,70.2170783 C307.685466,72.8290783 299.695466,78.9970783 291.915466,83.7040783 C281.165466,90.2080783 269.435466,92.3960783 258.585466,97.9570783 C249.675466,102.521078 242.035466,109.593078 236.435466,118.216078 C228.335466,127.007078 223.955466,139.541078 228.025466,152.382078 C237.595466,182.603078 278.205466,160.893078 294.475466,155.488078 C313.275466,149.244078 334.645466,157.031078 353.555466,158.035078 C366.755466,158.739078 376.295466,146.366078 384.605466,136.992078 C393.535466,126.941078 402.905466,121.483078 414.585466,116.238078 C432.745466,108.093078 429.805466,120.953078 441.015466,124.382078 C453.545466,128.211078 468.155466,120.102078 477.955466,112.257078 C480.505466,110.203078 481.135466,105.614078 477.955466,103.714078" id="Fill-211" fill="#E3DBCB"></path><path d="M640.865466,126.329078 C640.755466,123.730078 639.205466,121.631078 636.705466,120.859078 C581.585466,103.857078 542.995466,68.1670783 499.505466,32.5790783 C473.605466,11.3780783 447.925466,0.973078293 414.445466,0.0690782933 C317.085466,-2.55092171 247.955466,69.9760783 167.315466,112.303078 C165.695466,113.149078 166.835466,115.943078 168.575466,115.282078 C269.075466,77.0030783 382.175466,-45.4959217 491.375466,40.7160783 C514.355466,58.8680783 534.675466,79.3670783 558.995466,95.9460783 C572.775466,105.334078 587.525466,113.168078 602.605466,120.235078 C615.265466,126.160078 628.795466,126.022078 630.885466,141.852078 C635.045466,173.343078 656.595466,201.312078 636.665466,232.216078 C620.675466,257.026078 589.635466,268.544078 576.375466,295.562078 C575.155466,298.051078 577.975466,300.010078 580.035466,298.389078 C605.695466,278.215078 637.455466,256.674078 652.675466,227.000078 C668.485466,196.173078 642.275466,157.409078 640.865466,126.329078" id="Fill-212" fill="#877758"></path><path d="M648.975466,221.003078 C648.875466,219.694078 647.115466,219.414078 646.685466,220.697078 C635.185466,255.099078 627.995466,288.028078 607.815466,319.199078 C587.425466,350.684078 558.355466,366.866078 521.925466,370.987078 C493.045466,374.263078 463.545466,373.431078 434.635466,371.183078 C408.135466,369.125078 371.115466,366.631078 349.475466,348.933078 C343.015466,343.652078 333.725466,352.834078 340.245466,358.160078 C361.105466,375.213078 390.685466,378.926078 416.505466,382.350078 C454.195466,387.350078 493.525466,387.898078 531.245466,382.903078 C601.645466,373.585078 654.645466,289.618078 648.975466,221.003078" id="Fill-213" fill="#877758"></path><path d="M397.215466,269.281078 C358.455466,294.019078 346.515466,344.139078 307.495466,370.154078 C285.995466,384.486078 258.765466,397.802078 232.795466,400.212078 C205.395466,402.758078 176.575466,384.871078 155.475466,369.366078 C142.435466,359.794078 124.755466,351.172078 108.165466,354.304078 C65.1354664,362.425078 74.6554664,324.989078 72.9654664,299.898078 C71.7954664,282.630078 66.5354664,265.620078 63.5154664,248.633078 C58.0854664,217.969078 77.0554664,199.696078 101.175466,184.192078 C102.965466,183.040078 104.105466,180.818078 103.415466,178.683078 C81.8154664,111.196078 173.465466,97.9510783 218.935466,83.2730783 C220.365466,82.8140783 219.785466,80.6880783 218.315466,81.0270783 C175.155466,91.0550783 98.3854664,96.9800783 90.4354664,153.076078 C89.8654664,157.045078 89.9254664,161.167078 90.4654664,165.136078 C92.3954664,179.437078 88.4654664,180.117078 77.0454664,188.855078 C65.8354664,197.431078 57.6854664,208.292078 53.2454664,221.647078 C43.2954664,251.621078 62.6654664,288.413078 61.7254664,318.999078 C61.0454664,340.884078 69.0554664,371.906078 98.7254664,367.523078 C144.635466,360.745078 176.535466,405.395078 221.885466,411.399078 C255.615466,415.859078 301.695466,391.753078 325.995466,370.714078 C356.395466,344.382078 378.075466,305.597078 400.725466,272.791078 C402.195466,270.658078 399.325466,267.936078 397.215466,269.281078" id="Fill-214" fill="#877758"></path><path d="M534.435466,120.084078 C534.515466,119.792078 534.085466,119.683078 533.985466,119.960078 C530.195466,129.936078 528.245466,139.639078 526.945466,150.162078 C526.005466,157.794078 530.115466,173.812078 520.595466,173.832078 C505.655466,173.867078 491.275466,184.857078 480.115466,193.393078 C454.745466,212.805078 422.565466,242.798078 412.715466,274.216078 C412.225466,275.763078 414.335466,276.997078 415.445466,275.806078 C430.575466,259.415078 443.075466,240.949078 458.135466,224.429078 C474.685466,206.293078 500.995466,177.648078 527.895466,179.322078 C529.215466,179.407078 530.435466,178.123078 530.395466,176.827078 C529.675466,157.559078 528.945466,138.821078 534.435466,120.084078" id="Fill-215" fill="#877758"></path><path d="M205.335466,113.519078 C202.145466,126.049078 198.795466,160.983078 181.765466,156.777078 C167.755466,153.319078 151.875466,156.843078 138.245466,160.340078 C113.645466,166.657078 79.1054664,181.926078 65.1454664,204.052078 C63.7754664,206.227078 66.3654664,208.097078 68.3354664,207.236078 C84.5554664,200.172078 98.4554664,187.464078 114.305466,179.204078 C138.605466,166.555078 165.605466,160.652078 192.425466,167.665078 C194.365466,168.173078 196.285466,167.049078 196.855466,165.158078 C201.915466,148.365078 204.265466,131.225078 206.685466,113.897078 C206.805466,113.031078 205.565466,112.622078 205.335466,113.519078" id="Fill-216" fill="#877758"></path><path d="M160.585466,294.019078 C157.895466,287.870078 148.485466,270.447078 138.955466,274.278078 C133.145466,276.620078 129.105466,280.006078 124.045466,283.806078 C112.645466,292.365078 88.3554664,256.446078 86.7654664,252.376078 C86.4454664,251.556078 85.1454664,251.868078 85.4154664,252.748078 C89.5354664,266.162078 109.475466,296.351078 126.875466,288.646078 C129.315466,287.109078 131.735466,285.528078 134.125466,283.906078 C145.635466,286.282078 152.745466,292.202078 155.445466,301.664078 C158.185466,308.600078 163.115466,313.365078 168.135466,318.666078 C176.355466,327.359078 183.865466,336.586078 188.355466,347.760078 C192.145466,357.171078 189.845466,368.827078 191.055466,378.788078 C191.305466,380.924078 194.155466,382.187078 195.395466,379.960078 C216.185466,342.739078 173.235466,323.016078 160.585466,294.019078" id="Fill-217" fill="#877758"></path><path d="M372.275466,255.276078 C344.985466,260.291078 322.355466,266.903078 293.975466,264.241078 C266.585466,261.668078 239.755466,254.432078 212.325466,251.627078 C211.245466,251.520078 211.085466,253.184078 212.075466,253.458078 C257.625466,266.237078 334.255466,300.966078 375.895466,261.512078 C378.805466,258.751078 375.715466,254.642078 372.275466,255.276078" id="Fill-218" fill="#877758"></path><path d="M406.985466,37.5280783 C382.885466,46.9250783 357.915466,41.5490783 334.085466,49.3990783 C311.195466,56.9400783 294.155466,72.5720783 269.125466,74.9070783 C267.945466,75.0150783 267.905466,76.8030783 269.125466,76.7720783 C291.345466,76.2110783 309.155466,66.2970783 329.285466,58.0790783 C355.705466,47.2950783 384.145466,58.7010783 409.865466,44.3460783 C413.475466,42.3280783 410.985466,35.9720783 406.985466,37.5280783" id="Fill-219" fill="#877758"></path><path d="M632.215466,197.065078 C621.955466,194.501078 570.645466,186.803078 542.425466,189.369078 C514.205466,191.934078 485.985466,189.369078 457.765466,250.937078 C429.545466,312.513078 421.845466,368.949078 429.545466,386.909078 C437.245466,404.862078 488.555466,440.782078 524.465466,466.432078 C560.385466,492.092078 573.205466,502.352078 611.685466,502.352078 C650.175466,502.352078 709.175466,484.392078 757.925466,456.172078 C804.105466,443.352078 842.585466,427.962078 850.275466,402.302078 C857.975466,376.641078 852.845466,363.817078 842.585466,322.774078 C832.315466,281.725078 845.145466,204.760078 804.105466,176.542078 C763.045466,148.322078 775.875466,171.410078 750.225466,156.019078 C724.565466,140.629078 701.475466,138.056078 680.955466,158.582078 C660.435466,179.106078 632.215466,197.065078 632.215466,197.065078" id="Fill-220" fill="#A59B87"></path><path d="M729.585466,147.589078 C727.965466,146.353078 726.195466,148.033078 726.175466,149.712078 C720.785466,147.833078 714.805466,147.134078 707.955466,148.038078 C686.485466,150.871078 670.895466,170.302078 653.685466,182.460078 C653.865466,183.186078 653.785466,183.990078 653.215466,184.712078 C645.105466,194.813078 632.475466,198.082078 620.645466,193.251078 C613.045466,193.570078 605.165466,192.970078 597.355466,192.117078 C592.505466,191.726078 587.645466,191.238078 582.805466,190.482078 C582.605466,190.450078 582.465466,190.354078 582.285466,190.287078 C575.925466,189.492078 569.745466,188.782078 563.975466,188.555078 C538.035466,187.533078 508.995466,187.984078 486.415466,202.210078 C460.105466,218.783078 447.655466,262.612078 443.985466,291.954078 C440.865466,316.843078 451.175466,330.725078 471.345466,324.273078 C466.925466,338.520078 444.575466,346.236078 447.345466,364.990078 C448.785466,374.758078 461.225466,382.578078 468.585466,387.090078 C484.205466,396.676078 490.705466,415.215078 505.795466,425.492078 C514.155466,431.192078 523.685466,438.022078 534.235466,436.402078 C537.735466,435.852078 542.015466,431.762078 544.865466,430.012078 C556.165466,423.092078 564.495466,430.772078 577.055466,431.802078 C585.535466,432.492078 605.485466,435.042078 612.965466,434.362078 C647.035466,426.402078 669.415466,382.154078 666.925466,347.142078 C666.875466,346.497078 667.075466,346.014078 667.375466,345.631078 C667.145466,341.001078 666.965466,336.372078 666.925466,331.747078 C666.895466,328.544078 671.865466,328.544078 671.895466,331.747078 C672.125466,357.802078 676.065466,384.068078 672.855466,408.963078 C675.995466,404.882078 679.015466,400.642078 681.955466,396.266078 C690.675466,383.308078 695.255466,368.753078 697.095466,353.366078 C698.205466,344.127078 696.545466,334.587078 695.925466,325.367078 C694.965466,311.099078 708.175466,314.687078 718.155466,315.182078 C722.595466,315.403078 725.705466,311.457078 725.955466,307.375078 C726.935466,291.551078 725.145466,272.338078 744.075466,266.029078 C751.395466,263.590078 759.705466,265.601078 767.195466,263.870078 C781.335466,260.595078 786.935466,251.367078 789.595466,237.555078 C796.815466,199.912078 755.285466,167.177078 729.585466,147.589078" id="Fill-221" fill="#BAB4A5"></path><path d="M620.845466,200.237078 C578.315466,190.851078 529.915466,174.932078 491.395466,202.959078 C466.565466,221.028078 437.295466,256.668078 447.515466,289.542078 C448.695466,293.329078 453.475466,294.754078 456.375466,291.884078 C468.125466,280.227078 479.965466,256.960078 496.495466,251.895078 C507.435466,248.538078 513.195466,241.971078 521.645466,234.007078 C536.235466,220.242078 573.845466,204.091078 593.835466,210.310078 C596.325466,211.085078 598.375466,209.366078 599.135466,207.269078 C601.805466,207.117078 604.495466,206.873078 607.365466,206.397078 C609.265466,206.078078 609.865466,204.091078 609.355466,202.509078 C613.255466,202.440078 617.095466,202.164078 620.845466,201.584078 C621.545466,201.481078 621.495466,200.379078 620.845466,200.237078" id="Fill-222" fill="#E3DBCB"></path><path d="M728.055466,170.244078 C724.365466,167.789078 719.815466,166.598078 714.825466,166.326078 C709.395466,165.556078 704.115466,165.986078 699.245466,167.764078 C696.965466,168.230078 694.695466,168.785078 692.495466,169.405078 C680.405466,172.796078 668.825466,178.843078 659.185466,186.842078 C637.155466,205.134078 613.075466,211.958078 585.835466,218.649078 C547.935466,227.967078 530.375466,251.556078 521.925466,288.516078 C513.675466,324.663078 546.575466,341.508078 575.125466,323.108078 C579.745466,320.125078 582.515466,315.722078 585.565466,311.333078 C587.595466,307.675078 589.645466,304.027078 591.735466,300.400078 C602.675466,281.218078 615.035466,293.453078 627.085466,293.472078 C639.215466,293.478078 652.535466,291.538078 659.315466,280.012078 C662.325466,274.913078 664.235466,269.522078 666.265466,263.974078 C671.095466,250.696078 674.775466,253.867078 685.515466,256.312078 C702.425466,260.164078 716.885466,250.917078 733.265466,247.796078 C791.645466,236.657078 762.565466,185.485078 728.055466,170.244078" id="Fill-223" fill="#E3DBCB"></path><path d="M636.165466,364.600078 C634.425466,362.332078 632.235466,361.142078 629.315466,361.819078 C610.175466,366.254078 593.005466,357.755078 575.035466,352.481078 C558.225466,347.558078 543.885466,351.466078 527.075466,353.491078 C502.135466,356.492078 482.175466,338.916078 464.925466,364.040078 C464.295466,364.958078 464.625466,365.916078 465.295466,366.534078 C461.895466,371.984078 462.195466,379.134078 469.765466,383.568078 C473.085466,385.509078 476.925466,385.600078 480.615466,385.880078 C491.365466,386.675078 497.355466,391.101078 504.055466,398.800078 C512.195466,408.143078 519.065466,415.490078 531.035466,419.292078 C546.015466,424.052078 557.295466,410.683078 571.275466,408.951078 C586.155466,407.107078 598.745466,410.794078 613.505466,406.132078 C632.905466,400.004078 651.355466,384.518078 636.165466,364.600078" id="Fill-224" fill="#E3DBCB"></path><path d="M772.535466,158.517078 C752.635466,150.148078 715.735466,133.393078 694.235466,144.092078 C664.765466,158.764078 650.715466,189.538078 618.325466,200.497078 C596.115466,208.013078 572.165466,209.170078 551.145466,220.164078 C530.205466,231.105078 523.845466,253.523078 522.665466,275.493078 C522.465466,279.137078 527.925466,279.029078 528.255466,275.493078 C533.995466,214.210078 588.065466,223.672078 631.605466,204.847078 C653.535466,195.366078 666.865466,176.542078 684.275466,160.983078 C712.215466,136.015078 741.555466,164.904078 771.605466,165.384078 C775.875466,165.452078 775.935466,159.943078 772.535466,158.517078" id="Fill-225" fill="#877758"></path><path d="M849.125466,325.301078 C835.555466,280.344078 845.845466,230.179078 823.865466,187.415078 C802.735466,146.307078 762.165466,166.811078 728.365466,147.655078 C726.575466,146.642078 724.405466,149.232078 726.105466,150.584078 C736.325466,158.700078 746.485466,164.019078 759.475466,166.181078 C775.305466,168.818078 789.635466,165.764078 802.955466,177.205078 C833.885466,203.766078 827.325466,264.155078 831.455466,300.479078 C835.525466,336.372078 864.035466,379.850078 837.715466,412.703078 C812.075466,444.702078 756.605466,445.452078 720.065466,454.702078 C715.585466,455.832078 716.765466,462.272078 721.115466,462.492078 C757.575466,464.312078 807.105466,455.602078 836.155466,431.562078 C871.895466,401.989078 860.985466,364.600078 849.125466,325.301078" id="Fill-226" fill="#877758"></path><path d="M645.375466,192.977078 C590.605466,199.496078 534.055466,165.412078 484.555466,201.953078 C450.175466,227.339078 443.025466,277.746078 429.605466,315.325078 C416.545466,351.869078 409.665466,381.491078 438.275466,411.888078 C456.685466,431.442078 480.715466,447.352078 502.115466,463.502078 C527.565466,482.712078 553.085466,499.232078 584.605466,505.632078 C587.795466,506.282078 590.205466,501.662078 586.945466,500.092078 C539.485466,477.152078 497.975466,445.432078 456.785466,412.949078 C418.895466,383.067078 428.265466,351.653078 442.265466,311.633078 C455.915466,272.595078 462.115466,227.216078 499.965466,203.389078 C542.475466,176.629078 599.055466,208.911078 645.505466,193.894078 C645.975466,193.738078 645.925466,192.912078 645.375466,192.977078" id="Fill-227" fill="#877758"></path><path d="M669.725466,325.743078 C656.635466,365.335078 663.685466,415.163078 616.365466,430.762078 C601.815466,435.562078 590.975466,432.082078 577.175466,429.142078 C572.275466,428.102078 562.925466,428.422078 559.125466,432.232078 C553.465466,437.932078 551.515466,444.162078 549.285466,451.812078 C540.075466,483.422078 503.285466,449.012078 491.925466,440.732078 C490.065466,439.382078 487.405466,442.052078 488.745466,443.922078 C502.275466,462.922078 521.145466,486.222078 547.425466,473.172078 C557.105466,468.372078 559.405466,459.832078 562.255466,449.952078 C565.695466,438.022078 602.095466,446.062078 613.015466,443.782078 C672.755466,431.312078 662.635466,373.052078 671.525466,326.238078 C671.745466,325.060078 670.105466,324.592078 669.725466,325.743078" id="Fill-228" fill="#877758"></path><path d="M777.235466,449.742078 C745.005466,454.522078 713.605466,472.932078 683.005466,483.622078 C664.575466,490.062078 645.565466,495.032078 626.145466,497.242078 C608.275466,499.272078 593.065466,492.622078 575.955466,491.962078 C571.855466,491.802078 570.405466,496.792078 572.815466,499.532078 C593.065466,522.382078 641.915466,509.182078 666.625466,502.392078 C704.125466,492.052078 746.645466,476.132078 779.215466,454.432078 C781.755466,452.732078 780.055466,449.332078 777.235466,449.742078" id="Fill-229" fill="#877758"></path><path d="M848.465466,386.948078 C860.615466,403.963078 882.485466,408.815078 901.925466,418.536078 C921.365466,428.262078 931.085466,457.422078 928.665466,472.002078 C926.225466,486.582078 920.015466,497.792078 904.895466,490.972078 C889.775466,484.152078 882.485466,484.152078 882.485466,484.152078 C882.485466,484.152078 884.755466,502.252078 856.895466,515.082078 C829.025466,527.892078 812.015466,540.042078 770.705466,527.892078 C729.385466,515.742078 700.015466,492.332078 702.555466,459.082078 C705.095466,425.832078 712.375466,406.385078 719.675466,377.226078 C726.955466,348.060078 763.415466,318.907078 795.005466,323.764078 C826.595466,328.622078 824.165466,357.782078 848.465466,386.948078" id="Fill-230" fill="#A59B87"></path><path d="M889.775466,428.262078 C901.935466,433.112078 916.505466,454.992078 906.785466,464.712078 C897.075466,474.432078 899.505466,462.272078 892.205466,447.702078 C884.915466,433.112078 880.055466,425.832078 875.195466,418.536078 C880.055466,423.402078 889.775466,428.262078 889.775466,428.262078" id="Fill-231" fill="#BAB4A5"></path><path d="M712.375466,416.107078 C712.375466,416.107078 719.675466,396.671078 729.385466,382.083078 C724.525466,403.963078 722.105466,425.832078 707.525466,440.412078 C692.945466,454.992078 702.665466,484.152078 714.815466,496.302078 C726.955466,508.452078 746.395466,515.742078 770.705466,515.742078 C795.005466,515.742078 775.565466,486.582078 785.275466,496.302078 C795.005466,506.022078 797.425466,508.452078 814.445466,508.452078 C831.455466,508.452078 841.175466,479.292078 829.025466,452.562078 C816.875466,425.832078 836.315466,435.542078 826.595466,401.521078 C816.875466,367.504078 809.585466,323.764078 773.135466,323.764078 C743.965466,333.486078 717.235466,355.352078 712.375466,416.107078" id="Fill-232" fill="#BAB4A5"></path><path d="M875.065466,422.472078 C836.985466,398.657078 843.605466,325.763078 792.105466,318.875078 C762.445466,314.902078 734.105466,341.065078 721.175466,364.976078 C713.265466,379.621078 709.545466,396.364078 706.495466,412.585078 C703.345466,429.402078 699.685466,446.902078 700.035466,464.012078 C700.075466,465.582078 702.515466,466.542078 703.225466,464.882078 C714.645466,437.942078 713.075466,406.640078 723.435466,378.887078 C733.895466,350.879078 766.035466,319.017078 798.615466,328.570078 C819.095466,334.581078 829.095466,362.704078 837.245466,379.975078 C845.615466,397.668078 854.505466,416.946078 873.185466,425.682078 C875.335466,426.692078 877.125466,423.762078 875.065466,422.472078" id="Fill-233" fill="#877758"></path><path d="M929.725466,449.482078 C924.485466,431.322078 914.395466,420.292078 897.195466,412.656078 C883.725466,406.679078 869.955466,403.214078 858.745466,393.114078 C847.675466,383.152078 840.635466,368.819078 833.415466,356.025078 C832.405466,354.232078 829.965466,355.809078 830.735466,357.586078 C837.535466,373.416078 843.895466,389.565078 856.705466,401.554078 C871.295466,415.215078 893.215466,417.058078 908.845466,429.292078 C918.355466,436.722078 922.475466,454.012078 923.725466,465.292078 C924.385466,471.052078 923.985466,477.092078 921.165466,482.222078 C916.975466,489.862078 905.795466,484.112078 899.345466,483.882078 C896.555466,483.782078 894.965466,487.532078 897.045466,489.452078 C905.105466,496.842078 920.785466,498.282078 927.905466,488.542078 C936.025466,477.432078 933.255466,461.742078 929.725466,449.482078" id="Fill-234" fill="#877758"></path><path d="M857.845466,419.562078 C857.375466,418.902078 856.445466,419.452078 856.765466,420.192078 C865.535466,439.862078 881.705466,465.892078 876.245466,488.092078 C870.495466,511.502078 839.165466,524.632078 817.365466,523.122078 C815.355466,522.982078 815.035466,525.612078 816.425466,526.592078 C837.935466,541.722078 870.825466,516.052078 881.535466,497.952078 C896.315466,472.972078 871.795466,439.082078 857.845466,419.562078" id="Fill-235" fill="#877758"></path><path d="M917.335466,489.332078 C911.265466,485.812078 903.425466,486.342078 896.665466,485.122078 C893.555466,484.562078 890.505466,483.752078 887.455466,482.922078 C883.845466,481.942078 881.925466,482.092078 878.325466,481.692078 C876.955466,481.542078 876.835466,483.372078 877.695466,484.012078 C887.045466,491.012078 905.815466,499.502078 917.335466,493.362078 C918.895466,492.532078 918.805466,490.182078 917.335466,489.332078" id="Fill-236" fill="#877758"></path><path d="M904.895466,490.972078 C903.405466,487.172078 898.875466,484.702078 896.495466,481.242078 C893.435466,476.792078 892.205466,471.422078 891.875466,466.122078 C891.795466,464.922078 890.035466,464.912078 890.005466,466.122078 C889.875466,471.612078 890.765466,476.702078 893.015466,481.722078 C894.845466,485.832078 898.765466,492.122078 903.545466,492.742078 C904.405466,492.862078 905.205466,491.762078 904.895466,490.972078" id="Fill-237" fill="#877758"></path><path d="M856.895466,515.082078 C839.895466,519.542078 826.095466,527.052078 807.995466,528.622078 C787.555466,530.392078 766.385466,526.472078 747.935466,517.622078 C726.955466,507.562078 705.465466,484.592078 704.915466,460.532078 C704.465466,440.632078 724.605466,426.762078 723.545466,407.263078 C723.505466,406.541078 722.455466,406.126078 722.095466,406.867078 C713.585466,424.382078 694.625466,445.492078 697.685466,466.382078 C701.215466,490.392078 720.315466,509.982078 740.325466,522.292078 C758.815466,533.652078 782.035466,537.042078 803.345466,536.832078 C821.025466,536.652078 847.505466,532.732078 858.645466,517.352078 C859.485466,516.192078 858.115466,514.762078 856.895466,515.082078" id="Fill-238" fill="#877758"></path><path d="M812.245466,488.332078 C809.465466,480.612078 804.845466,475.792078 798.315466,470.912078 C786.905466,462.362078 782.485466,463.222078 785.975466,446.302078 C786.685466,442.882078 783.905466,439.952078 780.425466,440.752078 C773.455466,442.332078 766.765466,440.842078 759.875466,439.932078 C759.965466,439.952078 759.325466,428.752078 759.165466,427.962078 C756.985466,417.878078 753.405466,411.562078 743.945466,406.990078 C743.655466,406.848078 743.275466,407.244078 743.565466,407.478078 C754.975466,416.523078 755.515466,428.992078 753.345466,442.152078 C753.085466,443.672078 753.725466,445.792078 755.555466,446.062078 C762.185466,447.002078 768.355466,448.702078 774.835466,449.362078 C766.685466,472.492078 790.505466,477.462078 806.535466,491.662078 C808.895466,493.742078 813.495466,491.782078 812.245466,488.332078" id="Fill-239" fill="#877758"></path><path d="M800.765466,355.606078 C785.215466,324.572078 747.375466,345.461078 737.975466,370.761078 C735.925466,371.384078 734.255466,373.287078 734.925466,375.957078 C735.175466,376.971078 735.555466,377.968078 735.995466,378.951078 C735.965466,379.184078 735.925466,379.420078 735.905466,379.655078 C735.855466,380.203078 736.265466,380.404078 736.675466,380.359078 C741.155466,388.784078 751.465466,395.960078 757.955466,401.554078 C762.115466,405.129078 765.195466,406.719078 770.785466,407.766078 C777.755466,409.080078 784.175466,407.068078 786.675466,417.559078 C787.835466,422.412078 787.945466,427.072078 789.715466,431.812078 C790.695466,434.442078 793.335466,435.652078 795.915466,434.342078 C820.935466,421.532078 810.495466,375.017078 800.765466,355.606078" id="Fill-240" fill="#E3DBCB"></path><path d="M769.135466,483.442078 C767.185466,479.432078 765.325466,477.112078 761.615466,474.662078 C756.555466,471.332078 748.225466,474.692078 745.325466,467.272078 C742.015466,458.772078 747.695466,448.962078 745.625466,440.222078 C743.215466,430.002078 739.575466,414.784078 731.815466,420.962078 C716.585466,433.112078 707.385466,466.982078 715.075466,482.072078 C724.645466,500.852078 748.415466,508.862078 767.145466,498.502078 C772.195466,495.702078 771.205466,487.662078 769.135466,483.442078" id="Fill-241" fill="#E3DBCB"></path><path d="M4.75546644,386.912078 C-0.144533558,403.732078 32.6054664,427.232078 64.2954664,427.232078 C95.9754664,427.232078 138.225466,414.753078 166.075466,412.828078 C193.925466,410.905078 216.975466,418.600078 248.655466,423.392078 C280.345466,428.192078 304.345466,424.352078 315.875466,410.905078 C327.395466,397.466078 334.115466,378.266078 321.635466,363.864078 C309.155466,349.464078 260.185466,340.817078 232.335466,342.731078 C204.485466,344.654078 155.505466,346.579078 123.825466,352.340078 C92.1454664,358.093078 11.4754664,363.864078 4.75546644,386.912078" id="Fill-242" fill="#A59B87"></path><path d="M11.4854664,378.266078 C3.72546644,383.906078 -5.79453356,402.257078 28.7654664,405.143078 C63.3354664,408.028078 111.355466,402.257078 150.715466,396.505078 C190.085466,390.741078 217.935466,397.466078 240.025466,402.257078 C262.105466,407.066078 344.945466,385.961078 305.315466,357.131078 C284.195466,341.768078 228.505466,342.731078 199.695466,342.731078 C170.885466,342.731078 119.035466,356.169078 91.1854664,359.056078 C63.3354664,361.932078 32.6154664,362.903078 11.4854664,378.266078" id="Fill-243" fill="#BAB4A5"></path><path d="M43.1754664,366.740078 C26.8054664,370.327078 -3.87453356,379.226078 13.4054664,385.950078 C30.6954664,392.665078 77.7454664,389.790078 119.035466,380.188078 C160.325466,370.580078 204.505466,366.740078 219.865466,366.740078 C235.225466,366.740078 277.475466,344.654078 216.015466,344.654078 C154.565466,344.654078 139.195466,348.502078 117.115466,355.218078 C95.0254664,361.940078 73.9054664,360.016078 43.1754664,366.740078" id="Fill-244" fill="#E3DBCB"></path><path d="M276.505466,423.372078 C237.295466,426.832078 203.085466,403.302078 163.785466,407.040078 C146.315466,408.691078 129.795466,415.864078 112.645466,419.202078 C94.4154664,422.772078 73.2154664,424.522078 54.8354664,421.122078 C42.5554664,418.852078 30.7154664,413.779078 20.1254664,407.299078 C15.2354664,404.310078 11.0054664,400.502078 7.93546644,395.653078 C0.555466442,384.074078 20.7254664,376.492078 27.8554664,373.754078 C58.2654664,362.053078 94.4554664,366.796078 124.805466,355.927078 C159.715466,350.940078 194.735466,347.287078 230.385466,347.502078 C254.325466,347.652078 279.075466,348.960078 301.925466,356.637078 C314.235466,360.774078 323.945466,367.946078 325.035466,381.617078 C326.985466,406.302078 296.625466,421.582078 276.505466,423.372078 Z M329.075466,371.157078 C322.165466,351.407078 291.435466,346.718078 274.105466,344.543078 C221.375466,337.958078 166.365466,341.620078 113.145466,351.369078 C98.5054664,353.295078 83.7954664,356.112078 69.3754664,358.121078 C48.7354664,360.978078 26.1254664,364.191078 8.53546644,376.248078 C-12.0445336,390.350078 9.29546644,409.044078 23.2454664,416.705078 C54.9754664,434.152078 93.1054664,430.602078 127.095466,422.592078 C157.505466,415.450078 181.435466,408.877078 212.535466,418.712078 C236.375466,426.252078 258.345466,431.052078 283.495466,428.762078 C309.135466,426.452078 338.555466,398.298078 329.075466,371.157078 L329.075466,371.157078 Z" id="Fill-245" fill="#877758"></path><path d="M209.805466,392.701078 C184.745466,398.964078 135.225466,413.708078 136.675466,425.392078 C138.115466,437.082078 170.545466,437.082078 192.735466,437.082078 C214.915466,437.082078 238.825466,435.372078 261.015466,437.082078 C283.215466,438.782078 299.295466,430.742078 303.685466,423.422078 C308.805466,414.889078 308.815466,411.473078 286.625466,402.939078 C264.435466,394.403078 223.465466,389.285078 209.805466,392.701078" id="Fill-277" fill="#A59B87"></path><path d="M154.325466,408.060078 C142.395466,413.180078 132.125466,423.422078 154.325466,423.422078 C176.525466,423.422078 219.195466,423.432078 249.915466,418.307078 C280.645466,413.180078 289.315466,404.415078 273.035466,399.406078 C256.745466,394.403078 224.315466,387.584078 202.135466,392.701078 C179.935466,397.817078 164.575466,402.939078 154.325466,408.060078" id="Fill-278" fill="#BAB4A5"></path><path d="M174.735466,402.804078 C152.335466,410.939078 170.665466,417.052078 197.125466,415.019078 C223.595466,412.977078 262.265466,394.656078 235.795466,392.624078 C209.345466,390.587078 195.085466,392.624078 174.735466,402.804078" id="Fill-279" fill="#E3DBCB"></path><path d="M286.475466,430.962078 C270.285466,435.532078 252.105466,432.602078 235.545466,432.272078 C214.665466,431.832078 193.945466,435.412078 172.975466,434.442078 C169.765466,434.282078 136.935466,432.282078 138.375466,423.682078 C139.395466,417.664078 151.295466,412.958078 156.005466,410.627078 C169.255466,404.079078 183.195466,400.522078 197.655466,397.951078 C198.095466,397.869078 198.575466,397.787078 199.025466,397.708078 C213.075466,395.599078 227.085466,393.354078 241.235466,395.283078 C248.665466,396.304078 256.065466,397.661078 263.395466,399.286078 C264.885466,399.912078 266.355466,400.587078 267.785466,401.349078 C267.925466,401.433078 268.055466,401.213078 267.915466,401.115078 C267.235466,400.680078 266.535466,400.263078 265.835466,399.850078 C270.405466,400.904078 274.945466,402.035078 279.455466,403.327078 C286.075466,405.230078 292.565466,407.681078 298.435466,411.324078 C311.555466,419.432078 294.525466,428.692078 286.475466,430.962078 Z M305.005466,409.502078 C293.805466,397.554078 270.225466,394.928078 255.135466,392.315078 C250.885466,391.589078 246.675466,391.128078 242.505466,390.873078 C209.695466,383.860078 169.695466,394.316078 143.395466,410.526078 C134.355466,416.091078 127.095466,425.832078 138.405466,433.122078 C149.095466,440.012078 165.765466,440.112078 178.015466,440.642078 C195.545466,441.392078 213.235466,439.372078 230.685466,438.132078 C251.845466,436.632078 273.115466,441.952078 293.695466,434.562078 C304.345466,430.732078 314.415466,419.552078 305.005466,409.502078 L305.005466,409.502078 Z" id="Fill-280" fill="#877758"></path><path d="M275.295466,422.352078 C282.685466,436.002078 301.395466,441.942078 330.305466,450.332078 C359.215466,458.722078 392.765466,459.652078 421.675466,454.062078 C450.585466,448.462078 478.555466,439.132078 487.885466,424.222078 C497.205466,409.311078 506.525466,391.591078 497.205466,370.147078 C487.885466,348.698078 444.065466,333.785078 402.105466,333.785078 C360.145466,333.785078 317.255466,343.101078 301.405466,357.088078 C285.555466,371.073078 263.175466,399.979078 275.295466,422.352078" id="Fill-281" fill="#A59B87"></path><path d="M322.855466,344.970078 C304.215466,352.426078 284.615466,369.213078 276.235466,391.591078 C267.845466,413.967078 283.675466,428.762078 352.695466,427.952078 C431.935466,427.022078 517.725466,389.713078 485.095466,357.088078 C452.455466,324.454078 368.535466,331.909078 322.855466,344.970078" id="Fill-282" fill="#BAB4A5"></path><path d="M287.425466,390.663078 C293.945466,399.979078 362.955466,399.044078 401.185466,383.199078 C439.415466,367.346078 447.795466,340.316078 416.105466,335.653078 C384.395466,330.992078 334.985466,339.373078 314.465466,350.567078 C293.945466,361.759078 280.905466,381.340078 287.425466,390.663078" id="Fill-283" fill="#E3DBCB"></path><path d="M282.715466,383.266078 C303.905466,339.757078 364.095466,337.188078 406.305466,337.396078 C430.345466,337.497078 454.615466,341.534078 475.695466,353.492078 C506.815466,371.148078 505.815466,412.373078 473.215466,427.572078 C470.325466,428.912078 472.835466,433.192078 475.715466,431.852078 C478.015466,430.772078 480.165466,429.542078 482.205466,428.202078 C464.125466,441.862078 435.005466,448.512078 418.005466,451.822078 C387.245466,457.812078 356.345466,456.242078 326.365466,447.252078 C313.355466,443.352078 300.765466,437.022078 288.385466,431.392078 C267.045466,421.702078 274.855466,399.413078 282.715466,383.266078 Z M285.885466,435.672078 C320.395466,453.952078 357.585466,462.092078 396.485466,459.132078 C423.505466,457.102078 491.025466,444.762078 498.615466,410.270078 C503.645466,400.539078 505.195466,389.046078 502.455466,377.220078 C496.525466,351.749078 463.225466,340.383078 441.215466,335.763078 C412.115466,329.657078 380.945466,332.126078 351.775466,336.396078 C321.005466,340.891078 293.935466,352.883078 278.435466,380.765078 C267.245466,400.881078 263.235466,423.692078 285.885466,435.672078 L285.885466,435.672078 Z" id="Fill-284" fill="#877758"></path><path d="M381.615466,468.162078 C394.115466,464.952078 430.875466,454.752078 425.625466,435.912078 C420.365466,417.069078 392.635466,407.652078 348.115466,408.203078 C303.565466,408.753078 250.615466,413.058078 246.175466,443.002078 C249.275466,460.032078 270.005466,473.802078 304.705466,477.652078 C339.415466,481.492078 354.165466,475.222078 381.615466,468.162078" id="Fill-285" fill="#A59B87"></path><path d="M277.485466,415.291078 C259.175466,421.612078 240.405466,435.742078 250.345466,451.062078 C260.285466,466.382078 298.715466,469.212078 344.415466,456.862078 C390.115466,444.512078 427.515466,425.882078 398.245466,414.407078 C368.975466,402.932078 309.805466,404.133078 277.485466,415.291078" id="Fill-286" fill="#BAB4A5"></path><path d="M278.175466,415.207078 C259.395466,422.072078 242.295466,434.252078 260.325466,442.932078 C278.345466,451.592078 322.975466,441.252078 335.155466,433.432078 C347.335466,425.612078 365.925466,405.818078 329.755466,407.618078 C293.595466,409.420078 291.595466,410.304078 278.175466,415.207078" id="Fill-287" fill="#E3DBCB"></path><path d="M265.445466,422.882078 C280.765466,414.058078 302.255466,411.080078 320.265466,410.129078 C346.935466,408.704078 409.335466,407.086078 422.265466,432.602078 C428.715466,445.342078 415.875466,454.752078 397.565466,461.412078 C402.705466,458.222078 407.435466,454.702078 411.565466,450.842078 C411.955466,450.472078 411.335466,449.972078 410.915466,450.302078 C403.025466,456.512078 394.055466,461.542078 384.475466,465.492078 C362.205466,471.492078 337.045466,474.222078 327.785466,474.392078 C326.905466,474.392078 326.945466,475.502078 327.795466,475.552078 C332.635466,475.782078 340.065466,475.632078 348.725466,474.972078 C327.015466,477.962078 304.415466,476.642078 284.125466,471.342078 C256.525466,464.152078 233.405466,441.342078 265.445466,422.882078 Z M259.015466,465.612078 C290.775466,486.012078 340.455466,485.852078 378.145466,471.052078 C406.085466,465.592078 432.845466,454.552078 427.335466,434.282078 C418.305466,401.106078 339.385466,404.199078 310.205466,407.017078 C288.575466,409.112078 263.275466,414.750078 249.425466,430.302078 C238.225466,442.872078 246.225466,457.412078 259.015466,465.612078 L259.015466,465.612078 Z" id="Fill-288" fill="#877758"></path></g></g></g></svg>