<svg width="139px" height="141px" viewBox="0 0 139 141" version="1.1" xmlns="http://www.w3.org/2000/svg" xmlns:xlink="http://www.w3.org/1999/xlink"><title>Group 4</title><desc>Created with Sketch.</desc><g id="Page-1" stroke="none" stroke-width="1" fill="none" fill-rule="evenodd"><g id="3990232" transform="translate(-518.000000, -220.000000)"><g id="Group-4" transform="translate(518.000000, 220.296448)"><g id="Group-13" transform="translate(12.000000, 16.703552)" fill="#F5BC3C"><path d="M0.561,13.993 C0.561,13.993 8.662,4.334 12.101,1.206 C15.542,-1.922 120.436,22.938 120.436,22.938 C120.436,22.938 123.059,28.199 125.969,41.419 C127.811,49.791 52.537,123.559 52.537,123.559 C52.537,123.559 40.879,121.33 34.588,119.679 C28.298,118.027 0.561,13.993 0.561,13.993" id="Fill-12"></path></g><path d="M129.424,35.4045518 L96.46,6.04255178 C90.152,0.423551784 77.532,-1.64744822 68.272,1.41655178 L30.855,13.7955518 C21.596,16.8585518 19.202,23.8965518 25.51,29.5155518 L58.474,58.8785518 C64.781,64.4975518 77.401,66.5675518 86.661,63.5045518 L124.077,51.1255518 C133.338,48.0615518 135.731,41.0235518 129.424,35.4045518" id="Fill-14" fill="#EFA536"></path><g id="Group-18" transform="translate(0.000000, 27.703552)"><path d="M56.928,32.888 L23.964,3.524 C17.656,-2.094 10.94,1.094 8.964,10.645 L0.976,49.238 C-1.001,58.79 2.51,71.087 8.817,76.706 L41.781,106.068 C48.089,111.687 54.805,108.499 56.781,98.947 L64.769,60.354 C66.746,50.804 63.235,38.506 56.928,32.888" id="Fill-15" fill="#ED9C38"></path><path d="M126.893,24.972 L84.982,38.838 C76.963,41.491 68.859,51.385 66.883,60.937 L58.895,99.529 C56.918,109.08 61.817,114.673 69.837,112.02 L111.747,98.153 C119.766,95.5 127.871,85.606 129.848,76.055 L137.835,37.462 C139.811,27.911 134.913,22.318 126.893,24.972" id="Fill-17" fill="#EB8F38"></path></g></g></g></g></svg>