<svg clip-rule="evenodd" fill-rule="evenodd" height="512" stroke-linejoin="round" stroke-miterlimit="2" viewBox="0 0 32 32" width="512" xmlns="http://www.w3.org/2000/svg"><g><path d="m28.568 30s5.517-5.538 2.562-10.977c-1.427-2.626-7.439-5.577-10.132-9.023-2.495-3.193-2.415-5.962.422-8h-5.513s-4.071 1.521-2 7c1.583 4.191.437 7.332-3 10s-6.957 5.013-7.081 11z" fill="#0d9ddb"/><path d="m19.565 21.829s.884 1.352-1.808 3.427c-3.543 2.731-2.423 4.952-2.423 4.952.115.251.413.362.663.246.251-.115.361-.412.246-.662 0 0-.641-1.612 2.125-3.744 1.744-1.344 2.235-2.508 2.326-3.311.108-.953-.324-1.502-.324-1.502-.164-.222-.478-.269-.7-.105s-.269.477-.105.699zm-10.062 2.236s-3.272 2.123-2.717 6.006c.039.273.293.463.566.424s.463-.293.424-.566c-.465-3.248 2.272-5.026 2.272-5.026.231-.15.297-.46.147-.691-.15-.232-.46-.298-.692-.147zm-.449-5.749v-1.365c0-.276-.224-.5-.5-.5s-.5.224-.5.5v2.148c-.15.116-.299.231-.448.347v-3.446c0-.276-.224-.5-.5-.5s-.5.224-.5.5v4.237c-.082.067-.164.135-.246.202v-.775c0-.276-.224-.5-.5-.5s-.5.224-.5.5v1.398c0 .074.016.145.046.208-2.199 2.024-3.899 4.503-3.987 8.72-.006.276.214.504.49.51s.504-.214.51-.49c.12-5.791 3.563-8.034 6.888-10.615 1.81-1.405 3.007-2.943 3.553-4.674.548-1.738.446-3.68-.392-5.898-.763-2.019-.647-3.454-.202-4.45.634-1.418 1.909-1.905 1.909-1.905.258-.096.39-.384.293-.643-.096-.258-.384-.39-.643-.293 0 0-1.656.608-2.472 2.433-.521 1.166-.714 2.848.179 5.212.746 1.972.862 3.697.374 5.244-.454 1.437-1.423 2.713-2.852 3.895zm15.542-4.145v-.001-3.947c0-.275-.224-.5-.5-.5s-.5.225-.5.5v3.202c-.108-.081-.216-.163-.324-.246.056-.08.088-.178.088-.283v-1.399c0-.275-.224-.5-.5-.5s-.5.225-.5.5v.969c-.127-.102-.253-.205-.378-.309.016-.049.025-.102.025-.157v-2.368c0-.276-.224-.5-.5-.5s-.5.224-.5.5v1.677c-.572-.526-1.09-1.065-1.522-1.617-1.377-1.762-1.945-3.37-1.58-4.791.238-.929.876-1.76 1.9-2.495.224-.161.276-.473.115-.698-.161-.224-.474-.275-.698-.114-1.566 1.124-2.35 2.464-2.419 3.95-.067 1.443.556 3.052 1.894 4.764 1.64 2.097 4.485 4.021 6.816 5.795 1.465 1.114 2.725 2.154 3.27 3.158 1.388 2.555.766 5.132-.182 7.07-.971 1.984-2.294 3.316-2.294 3.316-.195.196-.195.512.001.707.195.195.512.194.707-.001 0 0 2.067-2.073 3.055-4.954.675-1.966.85-4.298-.408-6.615-.596-1.097-1.944-2.261-3.544-3.477-.489-.372-1.002-.751-1.522-1.136zm-4.061 2.276s2.648 1.323 4.529 3.326c1.062 1.131 1.896 2.478 1.745 3.937-.1.966-.639 1.965-1.784 2.98-.207.183-.226.5-.043.706.183.207.5.226.706.043 1.384-1.227 1.995-2.458 2.116-3.626.18-1.74-.745-3.376-2.011-4.725-1.999-2.128-4.811-3.535-4.811-3.535-.247-.124-.548-.023-.671.223-.123.247-.023.548.224.671zm-5.685-4.38s1.864 4.11-2.133 8.108c-.196.195-.196.512 0 .707.195.195.512.195.707 0 4.542-4.542 2.333-9.235 2.333-9.235-.116-.25-.413-.359-.663-.244-.251.116-.36.414-.244.664z" fill="#231f1b"/></g></svg>