<svg width="129px" height="95px" viewBox="0 0 129 95" version="1.1" xmlns="http://www.w3.org/2000/svg" xmlns:xlink="http://www.w3.org/1999/xlink"><title>Group 4</title><desc>Created with Sketch.</desc><g id="Page-1" stroke="none" stroke-width="1" fill="none" fill-rule="evenodd"><g id="25224" transform="translate(-40.000000, -321.000000)"><g id="Group-4" transform="translate(40.755336, 321.598892)"><path d="M127.840664,43.2161075 L127.865664,44.2291075 L121.269664,48.5861075 C116.184664,51.9461075 108.909664,51.6841075 103.446664,50.4381075 L85.7156638,46.3941075 C75.6316638,44.0941075 70.4806638,51.1901075 62.7026638,50.2521075 C61.6186638,50.4901075 60.6516638,50.3781075 59.8456638,49.8181075 C59.5816638,49.6351075 59.3366638,49.4531075 59.1026638,49.2731075 C57.6466638,48.6611075 56.0846638,47.7551075 54.3836638,46.4691075 L54.3596638,45.4571075 C54.8436638,45.2671075 55.3436638,45.0651075 55.8546638,44.8541075 C54.7536638,39.9791075 60.4036638,35.0381075 53.0846638,25.3641075 C41.3086638,9.80010752 43.8466638,5.57010752 52.1646638,2.15010752 C83.6956638,19.8331075 96.0476638,25.9551075 127.840664,43.2161075" id="Fill-614" fill="#9BAEBE"></path><path d="M127.840664,43.2161075 L121.245664,47.5741075 C116.160664,50.9341075 108.885664,50.6711075 103.421664,49.4261075 L85.6916638,45.3821075 C72.4476638,42.3621075 67.7106638,55.5511075 54.3596638,45.4571075 C55.1766638,45.1111075 56.0356638,44.7331075 56.9266638,44.3301075 C54.9156638,39.1791075 61.6316638,34.2401075 53.9086638,24.0321075 C42.1326638,8.46810752 44.6706638,4.23810752 52.9886638,0.818107521 C82.4336638,17.3311075 98.2026638,26.3111075 127.840664,43.2161075" id="Fill-615" fill="#D3DFE8"></path><path d="M47.5876638,26.0551075 C42.6626638,22.9631075 39.0546638,16.6681075 39.0546638,10.4801075 C39.0546638,9.92410752 39.0846638,9.38610752 39.1416638,8.86410752 L36.8866638,4.96710752 L43.5456638,1.18110752 C43.6746638,1.10210752 43.8066638,1.02810752 43.9396638,0.957107521 L43.9636638,0.943107521 L43.9636638,0.944107521 C45.0486638,0.370107521 46.2716638,0.0451075211 47.5876638,0.00410752107 L47.5876638,7.03910752 C46.4936638,6.28610752 45.3206638,5.70510752 44.1016638,5.34110752 C43.2866638,5.09810752 42.4926638,4.96510752 41.7286638,4.93310752 C40.7686638,6.50910752 40.2156638,8.51710752 40.2156638,10.8381075 C40.2156638,16.3341075 43.3026638,21.9211075 47.5876638,24.8711075 L47.5876638,26.0551075 Z M50.8306638,0.452107521 C57.3366638,2.39510752 62.6116638,10.0361075 62.6116638,17.5141075 C62.6116638,21.7561075 60.9156638,25.0361075 58.2626638,26.7281075 L58.2636638,26.7291075 L58.2396638,26.7421075 C58.0226638,26.8791075 57.7996638,27.0061075 57.5706638,27.1221075 L51.6476638,30.4831075 L49.7216638,27.1541075 C48.9886638,26.8561075 48.2756638,26.4861075 47.5876638,26.0551075 L47.5876638,24.8711075 C48.6816638,25.6231075 49.8516638,26.2041075 51.0696638,26.5681075 C51.8866638,26.8121075 52.6816638,26.9451075 53.4466638,26.9771075 C54.4066638,25.4001075 54.9596638,23.3911075 54.9596638,21.0681075 C54.9596638,15.5771075 51.8746638,9.98910752 47.5876638,7.03910752 L47.5876638,0.00410752107 C48.6186638,-0.0268924789 49.7056638,0.117107521 50.8306638,0.452107521 L50.8306638,0.452107521 Z" id="Fill-616" fill="#C86E34"></path><path d="M51.1446638,26.5901075 L51.1446638,27.7141075 L50.7626638,27.9251075 L49.6776638,26.0501075 C50.1336638,26.2531075 50.5986638,26.4271075 51.0696638,26.5681075 L51.1446638,26.5901075 Z M50.8306638,0.452107521 C50.9356638,0.484107521 51.0406638,0.516107521 51.1446638,0.551107521 L51.1446638,10.4271075 C49.2486638,8.00110752 46.7896638,6.14410752 44.1016638,5.34110752 C43.2866638,5.09810752 42.4926638,4.96510752 41.7286638,4.93310752 C40.7686638,6.50910752 40.2156638,8.51710752 40.2156638,10.8381075 C40.2156638,12.0761075 40.3736638,13.3171075 40.6646638,14.5331075 C39.9796638,12.7831075 39.5946638,11.2111075 39.5946638,10.1851075 C39.5946638,6.81110752 39.6216638,9.21410752 39.6716638,8.75210752 L37.6716638,5.29510752 L47.1766638,0.0271075211 C48.3276638,-0.0608924789 49.5556638,0.0721075211 50.8306638,0.452107521 Z M51.1446638,27.7141075 L51.1446638,26.5901075 C51.6426638,26.7341075 52.1316638,26.8381075 52.6116638,26.9031075 L51.1446638,27.7141075 Z M51.1446638,0.551107521 C57.5056638,2.64210752 62.6116638,10.1571075 62.6116638,17.5141075 C62.6116638,19.0241075 62.3956638,20.4111075 61.9996638,21.6481075 C61.8706638,21.7441075 61.7376638,21.8361075 61.6016638,21.9221075 L61.6016638,21.9231075 L61.5806638,21.9351075 C61.3886638,22.0571075 61.1906638,22.1691075 60.9876638,22.2721075 L53.8636638,26.2101075 C54.5656638,24.7681075 54.9596638,23.0301075 54.9596638,21.0681075 C54.9596638,17.2641075 53.4796638,13.4151075 51.1446638,10.4271075 L51.1446638,0.551107521 L51.1446638,0.551107521 Z" id="Fill-617" fill="#E8A137"></path><path d="M50.8306638,0.452107521 C56.7456638,2.21910752 61.6416638,8.69410752 62.4826638,15.4751075 L54.8946638,19.6891075 C54.3056638,13.2601075 49.6986638,7.01310752 44.1016638,5.34110752 C43.2866638,5.09810752 42.4926638,4.96510752 41.7286638,4.93310752 C41.0576638,6.03410752 40.5856638,7.34610752 40.3626638,8.82810752 L38.6286638,5.83110752 L48.7576638,0.217107521 C48.8406638,0.166107521 48.9266638,0.118107521 49.0126638,0.0701075211 C49.6056638,0.142107521 50.2126638,0.268107521 50.8306638,0.452107521" id="Fill-618" fill="#F8C537"></path><path d="M44.1016638,4.28110752 C45.3146638,4.64310752 46.4866638,5.20410752 47.5876638,5.92510752 L47.5876638,7.03910752 C46.4936638,6.28610752 45.3206638,5.70510752 44.1016638,5.34110752 C43.2866638,5.09810752 42.4926638,4.96510752 41.7286638,4.93310752 C40.7686638,6.50910752 40.2156638,8.51710752 40.2156638,10.8381075 C40.2156638,16.3341075 43.3026638,21.9211075 47.5876638,24.8711075 L47.5876638,31.8111075 C46.4866638,31.8741075 45.3146638,31.7361075 44.1016638,31.3741075 C37.5996638,29.4321075 32.3256638,21.7911075 32.3256638,14.3081075 C32.3256638,6.83010752 37.5996638,2.33910752 44.1016638,4.28110752 Z M47.5876638,5.92510752 C52.3916638,9.06810752 55.8816638,15.2601075 55.8816638,21.3431075 C55.8816638,27.4301075 52.3916638,31.5361075 47.5876638,31.8111075 L47.5876638,24.8711075 C48.6816638,25.6231075 49.8516638,26.2041075 51.0696638,26.5681075 C51.8866638,26.8121075 52.6816638,26.9451075 53.4466638,26.9771075 C54.4066638,25.4001075 54.9596638,23.3911075 54.9596638,21.0681075 C54.9596638,15.5771075 51.8746638,9.98910752 47.5876638,7.03910752 L47.5876638,5.92510752 L47.5876638,5.92510752 Z" id="Fill-619" fill="#C86E34"></path><path d="M41.8006638,4.93710752 L41.9076638,4.94310752 L41.8006638,4.93710752 Z M41.9076638,18.0381075 L41.9076638,29.4031075 C36.9666638,26.7591075 33.2476638,20.6161075 33.2476638,14.5841075 C33.2476638,8.62910752 36.8766638,4.73010752 41.7286638,4.93310752 C40.7686638,6.50910752 40.2156638,8.51710752 40.2156638,10.8381075 C40.2156638,13.3021075 40.8366638,15.7831075 41.9076638,18.0381075 Z M41.9076638,4.94310752 L42.0146638,4.95010752 L41.9076638,4.94310752 Z M42.1806638,18.5881075 L42.1806638,29.5441075 C42.0886638,29.4981075 41.9986638,29.4511075 41.9076638,29.4031075 L41.9076638,18.0381075 C41.9956638,18.2231075 42.0866638,18.4061075 42.1806638,18.5881075 Z M42.4416638,19.0771075 L42.4416638,29.6721075 C42.3546638,29.6301075 42.2666638,29.5881075 42.1806638,29.5441075 L42.1806638,18.5881075 C42.2646638,18.7531075 42.3526638,18.9151075 42.4416638,19.0771075 Z M42.7106638,19.5461075 L42.7106638,29.7951075 C42.6206638,29.7551075 42.5306638,29.7141075 42.4416638,29.6721075 L42.4416638,19.0771075 C42.5296638,19.2351075 42.6186638,19.3911075 42.7106638,19.5461075 Z M54.4306638,24.7681075 C54.4056638,24.8471075 54.3806638,24.9261075 54.3546638,25.0041075 C54.3806638,24.9261075 54.4056638,24.8471075 54.4306638,24.7681075 Z M54.4956638,24.5491075 C54.4756638,24.6181075 54.4556638,24.6851075 54.4356638,24.7521075 C54.4556638,24.6851075 54.4756638,24.6181075 54.4956638,24.5491075 Z M54.5586638,24.3201075 C54.5486638,24.3571075 54.5386638,24.3941075 54.5286638,24.4311075 C54.5386638,24.3941075 54.5486638,24.3571075 54.5586638,24.3201075 Z M54.6326638,24.0181075 C54.6226638,24.0641075 54.6116638,24.1091075 54.6006638,24.1551075 C54.6116638,24.1091075 54.6226638,24.0641075 54.6326638,24.0181075 Z M54.6936638,23.7441075 C54.6846638,23.7861075 54.6756638,23.8281075 54.6666638,23.8701075 C54.6756638,23.8281075 54.6846638,23.7861075 54.6936638,23.7441075 Z M42.7106638,29.7951075 L42.7106638,19.5461075 C44.7016638,22.9051075 47.7076638,25.5641075 51.0696638,26.5681075 C51.8866638,26.8121075 52.6816638,26.9451075 53.4466638,26.9771075 C53.8026638,26.3921075 54.1026638,25.7481075 54.3396638,25.0501075 C52.8476638,29.4521075 48.8276638,31.7251075 44.1016638,30.3141075 C43.6296638,30.1731075 43.1656638,29.9991075 42.7106638,29.7951075 Z M54.7506638,23.4491075 C54.7426638,23.4941075 54.7346638,23.5391075 54.7266638,23.5831075 C54.7346638,23.5391075 54.7426638,23.4941075 54.7506638,23.4491075 L54.7506638,23.4491075 Z" id="Fill-620" fill="#1F3858"></path><path d="M52.9806638,27.6651075 C52.8686638,27.8111075 52.7066638,28.0111075 52.5366638,28.2071075 L41.0226638,4.93310752 C41.2686638,4.92610752 41.4886638,4.92610752 41.7016638,4.93210752 L52.9806638,27.6651075" id="Fill-621" fill="#494C49"></path><path d="M45.9986638,16.7921075 C45.0486638,15.1261075 44.9286638,13.3261075 45.6026638,12.3241075 L45.5156638,12.1711075 L46.0166638,11.8861075 C46.0716638,11.8451075 46.1276638,11.8081075 46.1876638,11.7741075 C47.4586638,11.0501075 49.4356638,12.1221075 50.6016638,14.1691075 C51.7686638,16.2151075 51.6836638,18.4631075 50.4126638,19.1871075 L49.7346638,19.5741075 L49.6406638,19.4101075 C48.4346638,19.4801075 46.9476638,18.4591075 45.9986638,16.7921075" id="Fill-622" fill="#494C49"></path><path d="M44.9666638,17.3801075 C43.9406638,15.5801075 43.8106638,13.6371075 44.5396638,12.5551075 L44.4456638,12.3901075 L44.9866638,12.0811075 C45.0456638,12.0381075 45.1066638,11.9971075 45.1716638,11.9611075 C46.5436638,11.1781075 48.6786638,12.3361075 49.9386638,14.5471075 C51.1976638,16.7571075 51.1066638,19.1841075 49.7336638,19.9671075 L49.0016638,20.3841075 L48.9006638,20.2071075 C47.5986638,20.2821075 45.9926638,19.1801075 44.9666638,17.3801075" id="Fill-623" fill="#545755"></path><path d="M44.0416638,17.9071075 C42.7826638,15.6971075 42.8736638,13.2701075 44.2466638,12.4871075 C45.6196638,11.7051075 47.7546638,12.8631075 49.0136638,15.0741075 C50.2736638,17.2841075 50.1826638,19.7111075 48.8096638,20.4941075 C47.4366638,21.2761075 45.3016638,20.1181075 44.0416638,17.9071075" id="Fill-624" fill="#757976"></path><path d="M44.9786638,17.3601075 C44.1326638,15.8761075 44.1936638,14.2471075 45.1156638,13.7221075 C46.0366638,13.1971075 47.4696638,13.9741075 48.3156638,15.4581075 C49.1606638,16.9421075 49.0996638,18.5711075 48.1786638,19.0961075 C47.2566638,19.6211075 45.8236638,18.8441075 44.9786638,17.3601075" id="Fill-625" fill="#494C49"></path><path d="M44.7196638,17.5221075 C43.8736638,16.0381075 43.9346638,14.4091075 44.8566638,13.8841075 C45.7776638,13.3581075 47.2106638,14.1361075 48.0566638,15.6201075 C48.9016638,17.1031075 48.8406638,18.7321075 47.9186638,19.2581075 C46.9976638,19.7831075 45.5646638,19.0051075 44.7196638,17.5221075" id="Fill-626" fill="#000000"></path><path d="M37.5696638,12.2011075 L45.8086638,17.0421075 L45.8116638,17.0441075 L46.0186638,17.1661075 L46.0276638,17.1641075 C46.5926638,17.4811075 47.0376638,17.7381075 47.6376638,18.0711075 C47.7546638,18.5971075 47.8726638,19.1231075 47.9896638,19.6491075 C48.0736638,20.0221075 48.3116638,20.3071075 48.6646638,20.4551075 C50.5886638,21.2611075 52.8966638,21.7251075 54.8936638,22.4661075 C54.9326638,22.0821075 54.9546638,21.6911075 54.9596638,21.2941075 L46.9786638,16.6041075 L46.9706638,16.6061075 C46.4006638,16.2871075 45.9656638,16.0351075 45.3606638,15.6981075 C45.2426638,15.1721075 45.1256638,14.6471075 45.0076638,14.1211075 C44.9246638,13.7471075 44.6866638,13.4631075 44.3336638,13.3151075 C42.2066638,12.4241075 39.6086638,11.9501075 37.4816638,11.0591075 C37.3616638,11.4571075 37.3986638,11.8281075 37.5696638,12.2011075" id="Fill-627" fill="#A42A30"></path><path d="M37.4696638,12.2881075 L45.7086638,17.1291075 L45.7116638,17.1311075 L45.9186638,17.2521075 L45.9276638,17.2511075 C46.4926638,17.5681075 46.9376638,17.8251075 47.5376638,18.1581075 C47.6546638,18.6841075 47.7726638,19.2101075 47.8896638,19.7361075 C47.9736638,20.1101075 48.2116638,20.3941075 48.5646638,20.5421075 C50.5166638,21.3591075 52.8636638,21.8261075 54.8806638,22.5861075 C54.9236638,22.2101075 54.9486638,21.8271075 54.9576638,21.4381075 L46.8786638,16.6911075 L46.8706638,16.6931075 C46.3006638,16.3741075 45.8656638,16.1221075 45.2606638,15.7851075 C45.1426638,15.2591075 45.0246638,14.7341075 44.9076638,14.2081075 C44.8236638,13.8341075 44.5866638,13.5501075 44.2326638,13.4021075 C42.1056638,12.5111075 39.5086638,12.0371075 37.3816638,11.1461075 C37.2616638,11.5441075 37.2986638,11.9161075 37.4696638,12.2881075" id="Fill-628" fill="#D8242C"></path><path d="M45.8626638,16.8701075 C45.7936638,16.7491075 45.7986638,16.6161075 45.8736638,16.5741075 C45.9486638,16.5311075 46.0656638,16.5941075 46.1336638,16.7151075 C46.2026638,16.8361075 46.1976638,16.9681075 46.1226638,17.0111075 C46.0476638,17.0541075 45.9316638,16.9901075 45.8626638,16.8701075" id="Fill-629" fill="#494C49"></path><path d="M0.0676638267,51.2251075 C0.294663827,49.3971075 2.92966383,47.9641075 5.95166383,48.0251075 C8.97366383,48.0861075 11.2406638,49.6181075 11.0136638,51.4461075 C10.7866638,53.2731075 8.15066383,54.7061075 5.12866383,54.6451075 C2.10666383,54.5841075 -0.160336173,53.0521075 0.0676638267,51.2251075" id="Fill-630" fill="#B1693A"></path><path d="M0.0156638267,50.6411075 C0.243663827,48.8131075 2.87866383,47.3801075 5.90066383,47.4411075 C8.92266383,47.5021075 11.1896638,49.0341075 10.9626638,50.8621075 C10.7356638,52.6891075 8.09966383,54.1221075 5.07766383,54.0611075 C2.05566383,54.0001075 -0.211336173,52.4681075 0.0156638267,50.6411075" id="Fill-631" fill="#E8A137"></path><path d="M7.23266383,46.0621075 L7.28166383,52.1351075 L28.6636638,51.3111075 C27.5806638,51.0561075 26.9286638,50.8241075 26.1186638,49.2741075 L24.2766638,45.7491075 L7.23266383,46.0621075" id="Fill-632" fill="#C86E34"></path><path d="M7.16066383,45.7921075 L6.91266383,51.3501075 L28.2946638,50.5261075 C27.2116638,50.2711075 26.8566638,50.5541075 26.0466638,49.0051075 L24.2046638,45.4791075 L7.16066383,45.7921075" id="Fill-633" fill="#EFBC35"></path><path d="M52.4296638,80.8651075 C52.6576638,79.0371075 55.2926638,77.6041075 58.3146638,77.6651075 C61.3366638,77.7261075 63.6036638,79.2581075 63.3766638,81.0861075 C63.1496638,82.9131075 60.5146638,84.3461075 57.4916638,84.2851075 C54.4696638,84.2241075 52.2026638,82.6921075 52.4296638,80.8651075" id="Fill-634" fill="#B1693A"></path><path d="M52.3786638,80.2811075 C52.6056638,78.4531075 55.2416638,77.0201075 58.2636638,77.0821075 C61.2856638,77.1431075 63.5526638,78.6741075 63.3256638,80.5021075 C63.0976638,82.3291075 60.4626638,83.7621075 57.4406638,83.7011075 C54.4186638,83.6401075 52.1516638,82.1081075 52.3786638,80.2811075" id="Fill-635" fill="#E8A137"></path><path d="M33.3416638,91.2431075 L40.7736638,84.8841075 L43.4146638,84.1721075 L43.4146638,81.4931075 L41.1236638,82.1111075 L41.0356638,81.7561075 L43.4146638,81.1141075 L43.4146638,78.6121075 L39.1386638,79.5891075 C38.4466638,79.7471075 38.0416638,80.4871075 38.2276638,81.1741075 C38.2566638,81.2821075 38.2986638,81.3831075 38.3516638,81.4751075 L33.0126638,90.2801075 L33.3416638,91.2431075 L34.3446638,91.6301075 L43.4146638,92.8461075 L43.4146638,88.3971075 L42.7346638,88.9071075 L33.3416638,91.2431075 Z M46.4926638,86.0881075 L43.4146638,88.3971075 L43.4146638,92.8461075 L43.9266638,92.9151075 C43.9676638,93.0141075 44.0216638,93.1091075 44.0886638,93.1981075 C44.5156638,93.7671075 45.3296638,93.8831075 45.8986638,93.4561075 L46.4926638,93.0111075 L46.4926638,89.7771075 L45.3596638,90.6271075 L45.1356638,90.3401075 L46.4926638,89.3211075 L46.4926638,86.0881075 Z M43.4146638,84.1721075 L46.4926638,83.3411075 L46.4926638,77.7481075 L45.8766638,78.0491075 L43.4146638,78.6121075 L43.4146638,81.1141075 L45.6306638,80.5161075 L45.7936638,80.8511075 L43.4146638,81.4931075 L43.4146638,84.1721075 Z M46.4926638,83.3411075 L46.9476638,83.2191075 L47.8496638,85.0691075 L46.4926638,86.0881075 L46.4926638,89.3211075 L49.0046638,87.4371075 L49.1666638,87.7711075 L46.4926638,89.7771075 L46.4926638,93.0111075 L51.4916638,89.2601075 C51.9966638,88.8811075 52.1446638,88.1971075 51.8726638,87.6501075 L52.5096638,87.3391075 L48.1416638,78.3111075 L46.6396638,77.6771075 L46.4926638,77.7481075 L46.4926638,83.3411075 L46.4926638,83.3411075 Z" id="Fill-636" fill="#617A8B"></path><polyline id="Fill-637" fill="#7D95A5" points="44.0476638 78.9401075 46.6396638 77.6771075 51.2206638 87.0741075 48.6286638 88.3381075 44.0476638 78.9401075"></polyline><polyline id="Fill-638" fill="#7D95A5" points="33.0126638 90.2811075 42.8406638 88.2971075 45.4576638 91.6521075 44.0666638 92.6811075 33.3416638 91.2431075 33.0126638 90.2811075"></polyline><path d="M44.8966638,93.0691075 L50.4886638,88.8731075 C51.0576638,88.4461075 51.1736638,87.6311075 50.7466638,87.0631075 C50.3196638,86.4941075 49.5056638,86.3781075 48.9366638,86.8051075 L43.3436638,91.0011075 C42.7756638,91.4281075 42.6586638,92.2421075 43.0856638,92.8111075 C43.5126638,93.3801075 44.3276638,93.4961075 44.8966638,93.0691075" id="Fill-639" fill="#A3B6BF"></path><path d="M43.1766638,90.6691075 L48.7696638,86.4731075 C49.3386638,86.0461075 49.4546638,85.2321075 49.0276638,84.6631075 C48.6006638,84.0941075 47.7866638,83.9771075 47.2176638,84.4041075 L41.6246638,88.6011075 C41.0556638,89.0281075 40.9396638,89.8421075 41.3666638,90.4111075 C41.7936638,90.9801075 42.6086638,91.0961075 43.1766638,90.6691075" id="Fill-640" fill="#A3B6BF"></path><polyline id="Fill-641" fill="#7D95A5" points="50.3506638 85.1571075 54.0626638 76.8271075 55.2616638 77.2701075 60.6896638 81.3291075 51.7006638 85.5271075 50.3506638 85.1571075"></polyline><polyline id="Fill-642" fill="#A3B6BF" points="47.7816638 79.8891075 54.0626638 76.8271075 59.1686638 80.9671075 50.3506638 85.1571075 47.7816638 79.8891075"></polyline><polyline id="Fill-643" fill="#7D95A5" points="33.0126638 90.2821075 40.6296638 83.7611075 39.5986638 79.6331075 37.9306638 80.0951075 32.4576638 89.4301075 33.0126638 90.2821075"></polyline><path d="M38.1356638,79.2021075 L44.8866638,77.3821075 C45.5736638,77.1961075 46.2866638,77.6061075 46.4716638,78.2931075 C46.6566638,78.9801075 46.2466638,79.6931075 45.5596638,79.8781075 L38.8096638,81.6991075 C38.1226638,81.8841075 37.4096638,81.4741075 37.2246638,80.7881075 C37.0386638,80.1011075 37.4496638,79.3881075 38.1356638,79.2021075" id="Fill-644" fill="#A3B6BF"></path><path d="M38.9676638,82.0351075 L45.7186638,80.2141075 C46.4046638,80.0291075 47.1186638,80.4391075 47.3036638,81.1261075 C47.4886638,81.8121075 47.0786638,82.5261075 46.3916638,82.7111075 L39.6416638,84.5321075 C38.9546638,84.7171075 38.2416638,84.3071075 38.0556638,83.6201075 C37.8706638,82.9341075 38.2806638,82.2201075 38.9676638,82.0351075" id="Fill-645" fill="#A3B6BF"></path><path d="M38.9906638,82.6181075 C39.3486638,82.4441075 39.7786638,82.5931075 39.9526638,82.9501075 C40.1266638,83.3071075 39.9786638,83.7381075 39.6216638,83.9121075 C39.2646638,84.0861075 38.8336638,83.9381075 38.6596638,83.5801075 C38.4856638,83.2231075 38.6336638,82.7931075 38.9906638,82.6181075 Z M42.7316638,90.2921075 C43.0886638,90.1171075 43.2376638,89.6871075 43.0636638,89.3301075 C42.8896638,88.9721075 42.4586638,88.8241075 42.1006638,88.9981075 C41.7436638,89.1721075 41.5956638,89.6031075 41.7696638,89.9601075 C41.9436638,90.3171075 42.3746638,90.4661075 42.7316638,90.2921075 Z M44.4026638,92.6711075 C44.7606638,92.4961075 44.9086638,92.0661075 44.7346638,91.7081075 C44.5606638,91.3511075 44.1296638,91.2031075 43.7726638,91.3771075 C43.4156638,91.5511075 43.2666638,91.9821075 43.4416638,92.3391075 C43.6146638,92.6961075 44.0466638,92.8441075 44.4026638,92.6711075 Z M49.9446638,88.5151075 C50.3016638,88.3401075 50.4496638,87.9101075 50.2756638,87.5521075 C50.1016638,87.1951075 49.6706638,87.0471075 49.3136638,87.2211075 C48.9566638,87.3951075 48.8086638,87.8261075 48.9826638,88.1831075 C49.1566638,88.5401075 49.5866638,88.6891075 49.9446638,88.5151075 Z M48.2726638,86.1361075 C48.6306638,85.9611075 48.7786638,85.5311075 48.6046638,85.1741075 C48.4306638,84.8171075 47.9996638,84.6681075 47.6426638,84.8421075 C47.2856638,85.0171075 47.1366638,85.4471075 47.3106638,85.8051075 C47.4846638,86.1611075 47.9156638,86.3101075 48.2726638,86.1361075 Z M45.6776638,80.8131075 C46.0356638,80.6391075 46.4656638,80.7881075 46.6406638,81.1451075 C46.8146638,81.5021075 46.6656638,81.9331075 46.3086638,82.1071075 C45.9516638,82.2811075 45.5206638,82.1321075 45.3466638,81.7751075 C45.1726638,81.4181075 45.3206638,80.9871075 45.6776638,80.8131075 Z M44.8336638,78.0311075 C45.1906638,77.8571075 45.6216638,78.0051075 45.7956638,78.3631075 C45.9696638,78.7201075 45.8216638,79.1511075 45.4646638,79.3251075 C45.1076638,79.4991075 44.6766638,79.3511075 44.5026638,78.9931075 C44.3276638,78.6361075 44.4766638,78.2051075 44.8336638,78.0311075 Z M38.1466638,79.8361075 C38.5036638,79.6621075 38.9346638,79.8111075 39.1086638,80.1681075 C39.2826638,80.5251075 39.1346638,80.9561075 38.7776638,81.1301075 C38.4196638,81.3041075 37.9896638,81.1561075 37.8156638,80.7981075 C37.6406638,80.4411075 37.7896638,80.0111075 38.1466638,79.8361075 L38.1466638,79.8361075 Z" id="Fill-646" fill="#C9D5D8"></path><path d="M38.9266638,82.8401075 C39.2846638,82.6661075 39.7146638,82.8151075 39.8896638,83.1721075 C39.9526638,83.3011075 39.9726638,83.4381075 39.9566638,83.5711075 C39.8896638,83.7141075 39.7746638,83.8371075 39.6216638,83.9121075 C39.2646638,84.0861075 38.8336638,83.9381075 38.6596638,83.5801075 C38.5976638,83.4521075 38.5756638,83.3121075 38.5916638,83.1811075 C38.6586638,83.0371075 38.7736638,82.9151075 38.9266638,82.8401075 Z M43.0666638,89.9511075 C43.0826638,89.8181075 43.0626638,89.6811075 42.9996638,89.5521075 C42.8246638,89.1941075 42.3946638,89.0461075 42.0376638,89.2201075 C41.8836638,89.2951075 41.7686638,89.4161075 41.7016638,89.5601075 C41.6856638,89.6921075 41.7076638,89.8321075 41.7696638,89.9601075 C41.9436638,90.3171075 42.3746638,90.4661075 42.7316638,90.2921075 C42.8846638,90.2171075 42.9996638,90.0941075 43.0666638,89.9511075 Z M44.7386638,92.3301075 C44.7546638,92.1971075 44.7336638,92.0601075 44.6706638,91.9301075 C44.4966638,91.5731075 44.0656638,91.4251075 43.7086638,91.5991075 C43.5546638,91.6741075 43.4406638,91.7951075 43.3726638,91.9381075 C43.3576638,92.0711075 43.3786638,92.2101075 43.4416638,92.3391075 C43.6146638,92.6961075 44.0466638,92.8441075 44.4026638,92.6711075 C44.5556638,92.5961075 44.6716638,92.4721075 44.7386638,92.3301075 Z M50.2786638,88.1751075 C50.2946638,88.0431075 50.2746638,87.9041075 50.2116638,87.7741075 C50.0376638,87.4181075 49.6066638,87.2691075 49.2496638,87.4431075 C49.0956638,87.5181075 48.9796638,87.6401075 48.9126638,87.7841075 C48.8966638,87.9161075 48.9196638,88.0551075 48.9826638,88.1831075 C49.1566638,88.5401075 49.5866638,88.6891075 49.9446638,88.5151075 C50.0976638,88.4401075 50.2106638,88.3181075 50.2786638,88.1751075 Z M48.6066638,85.7961075 C48.6226638,85.6641075 48.6036638,85.5251075 48.5406638,85.3961075 C48.3666638,85.0391075 47.9356638,84.8901075 47.5786638,85.0641075 C47.4246638,85.1391075 47.3086638,85.2621075 47.2416638,85.4051075 C47.2266638,85.5381075 47.2476638,85.6761075 47.3106638,85.8051075 C47.4846638,86.1611075 47.9156638,86.3101075 48.2726638,86.1361075 C48.4256638,86.0611075 48.5396638,85.9391075 48.6066638,85.7961075 Z M45.6146638,81.0351075 C45.9716638,80.8611075 46.4026638,81.0101075 46.5766638,81.3671075 C46.6396638,81.4961075 46.6586638,81.6351075 46.6426638,81.7671075 C46.5756638,81.9101075 46.4616638,82.0321075 46.3086638,82.1071075 C45.9516638,82.2811075 45.5206638,82.1321075 45.3466638,81.7751075 C45.2836638,81.6471075 45.2616638,81.5081075 45.2766638,81.3761075 C45.3446638,81.2321075 45.4606638,81.1101075 45.6146638,81.0351075 Z M44.7696638,78.2531075 C45.1266638,78.0791075 45.5576638,78.2281075 45.7326638,78.5851075 C45.7956638,78.7141075 45.8146638,78.8531075 45.7986638,78.9851075 C45.7306638,79.1281075 45.6176638,79.2501075 45.4646638,79.3251075 C45.1076638,79.4991075 44.6766638,79.3511075 44.5026638,78.9931075 C44.4396638,78.8651075 44.4166638,78.7261075 44.4326638,78.5941075 C44.5006638,78.4511075 44.6166638,78.3281075 44.7696638,78.2531075 Z M39.1116638,80.7911075 C39.0446638,80.9331075 38.9306638,81.0561075 38.7776638,81.1301075 C38.4196638,81.3041075 37.9896638,81.1561075 37.8156638,80.7981075 C37.7526638,80.6701075 37.7316638,80.5301075 37.7466638,80.3981075 C37.8146638,80.2551075 37.9296638,80.1331075 38.0826638,80.0581075 C38.4396638,79.8841075 38.8706638,80.0331075 39.0446638,80.3901075 C39.1076638,80.5191075 39.1276638,80.6581075 39.1116638,80.7911075 L39.1116638,80.7911075 Z" id="Fill-647" fill="#7D95A5"></path><path d="M41.0106638,62.2761075 C41.2386638,60.4481075 43.8736638,59.0161075 46.8956638,59.0771075 C49.9186638,59.1381075 52.1846638,60.6691075 51.9576638,62.4971075 C51.7306638,64.3241075 49.0956638,65.7571075 46.0726638,65.6961075 C43.0506638,65.6351075 40.7836638,64.1041075 41.0106638,62.2761075" id="Fill-648" fill="#B1693A"></path><path d="M40.9596638,61.6921075 C41.1866638,59.8651075 43.8216638,58.4321075 46.8446638,58.4931075 C49.8666638,58.5541075 52.1336638,60.0861075 51.9066638,61.9131075 C51.6796638,63.7411075 49.0446638,65.1741075 46.0216638,65.1131075 C42.9996638,65.0521075 40.7326638,63.5201075 40.9596638,61.6921075" id="Fill-649" fill="#E8A137"></path><path d="M60.8846638,61.1971075 C61.0936638,59.5161075 63.5176638,58.1981075 66.2976638,58.2541075 C69.0786638,58.3101075 71.1636638,59.7191075 70.9546638,61.4001075 C70.7456638,63.0821075 68.3216638,64.4001075 65.5406638,64.3441075 C62.7606638,64.2881075 60.6756638,62.8781075 60.8846638,61.1971075" id="Fill-650" fill="#C86E34"></path><path d="M60.8376638,60.6601075 C61.0466638,58.9791075 63.4706638,57.6611075 66.2506638,57.7171075 C69.0316638,57.7731075 71.1166638,59.1821075 70.9076638,60.8631075 C70.6986638,62.5451075 68.2746638,63.8631075 65.4936638,63.8071075 C62.7136638,63.7511075 60.6286638,62.3411075 60.8376638,60.6601075" id="Fill-651" fill="#E8A137"></path><path d="M55.9706638,77.7961075 L61.5996638,80.0761075 L69.0206638,60.0051075 C68.3706638,60.9091075 67.9076638,61.4221075 66.1656638,61.5771075 L62.2036638,61.9301075 L55.9706638,77.7961075" id="Fill-652" fill="#C86E34"></path><path d="M65.6786638,62.6011075 L47.3576638,64.1131075 C42.4346638,64.5191075 42.9656638,61.0091075 46.4636638,59.1251075 L65.1596638,57.0351075 C70.6496638,56.4211075 69.7496638,62.3071075 65.6786638,62.6011075" id="Fill-653" fill="#C86E34"></path><path d="M65.8026638,61.9331075 L58.3856638,62.5121075 L58.3346638,61.9751075 L65.8726638,61.3871075 C67.7676638,61.2391075 68.8376638,60.0491075 69.1286638,58.7861075 C69.0936638,60.2241075 67.8476638,61.7731075 65.8026638,61.9331075" id="Fill-654" fill="#355075"></path><path d="M55.6936638,77.7601075 L61.3226638,80.0391075 L68.7436638,59.9681075 C68.0936638,60.8721075 67.6306638,61.3851075 65.8886638,61.5411075 L61.9266638,61.8941075 L55.6936638,77.7601075" id="Fill-655" fill="#F8C537"></path><polyline id="Fill-656" fill="#F8C537" points="47.0616638 62.0951075 46.2926638 57.3801075 64.9736638 55.6611075 65.4316638 60.5731075 47.0616638 62.0951075"></polyline><path d="M60.6236638,57.8831075 C60.8326638,56.1961075 63.2646638,54.8731075 66.0546638,54.9291075 C68.8446638,54.9861075 70.9376638,56.4001075 70.7276638,58.0871075 C70.5176638,59.7741075 68.0856638,61.0961075 65.2956638,61.0401075 C62.5056638,60.9841075 60.4136638,59.5701075 60.6236638,57.8831075" id="Fill-657" fill="#C86E34"></path><path d="M60.5756638,57.3441075 C60.7856638,55.6571075 63.2176638,54.3341075 66.0076638,54.3911075 C68.7976638,54.4471075 70.8896638,55.8611075 70.6806638,57.5481075 C70.4706638,59.2351075 68.0386638,60.5571075 65.2486638,60.5011075 C62.4586638,60.4451075 60.3656638,59.0311075 60.5756638,57.3441075" id="Fill-658" fill="#F8C537"></path><path d="M62.1826638,57.3761075 C62.3256638,56.2261075 63.9846638,55.3241075 65.8876638,55.3621075 C67.7896638,55.4011075 69.2166638,56.3651075 69.0736638,57.5151075 C68.9306638,58.6661075 67.2716638,59.5681075 65.3696638,59.5301075 C63.4666638,59.4911075 62.0396638,58.5271075 62.1826638,57.3761075" id="Fill-659" fill="#B1693A"></path><path d="M62.1416638,56.8391075 C62.2836638,55.6891075 63.9426638,54.7861075 65.8456638,54.8251075 C67.7486638,54.8631075 69.1756638,55.8281075 69.0326638,56.9781075 C68.8896638,58.1291075 67.2306638,59.0311075 65.3276638,58.9921075 C63.4256638,58.9541075 61.9976638,57.9901075 62.1416638,56.8391075" id="Fill-660" fill="#F8C537"></path><path d="M69.0236638,56.6071075 C69.0446638,56.7281075 69.0486638,56.8521075 69.0326638,56.9781075 C68.8896638,58.1291075 67.2306638,59.0311075 65.3276638,58.9921075 C64.6596638,58.9791075 64.0496638,58.8511075 63.5456638,58.6411075 C63.9386638,58.7341075 64.3676638,58.7891075 64.8196638,58.7981075 C66.9296638,58.8411075 68.7766638,57.8681075 69.0236638,56.6071075" id="Fill-661" fill="#FFFFFE"></path><path d="M52.4656638,78.6901075 C52.6926638,76.8621075 55.3276638,75.4291075 58.3506638,75.4901075 C61.3726638,75.5511075 63.6396638,77.0831075 63.4126638,78.9111075 C63.1846638,80.7381075 60.5496638,82.1711075 57.5276638,82.1101075 C54.5056638,82.0491075 52.2386638,80.5171075 52.4656638,78.6901075" id="Fill-662" fill="#B1693A"></path><path d="M52.4146638,78.1061075 C52.6416638,76.2781075 55.2766638,74.8461075 58.2986638,74.9071075 C61.3216638,74.9681075 63.5886638,76.4991075 63.3606638,78.3271075 C63.1336638,80.1551075 60.4986638,81.5871075 57.4766638,81.5261075 C54.4536638,81.4651075 52.1876638,79.9341075 52.4146638,78.1061075" id="Fill-663" fill="#EFBC35"></path><path d="M54.1546638,78.1411075 C54.3096638,76.8951075 56.1066638,75.9171075 58.1686638,75.9591075 C60.2296638,76.0011075 61.7756638,77.0461075 61.6206638,78.2921075 C61.4656638,79.5381075 59.6686638,80.5161075 57.6076638,80.4741075 C55.5456638,80.4321075 53.9996638,79.3881075 54.1546638,78.1411075" id="Fill-664" fill="#B36C38"></path><path d="M54.1106638,77.5591075 C54.2656638,76.3131075 56.0626638,75.3361075 58.1236638,75.3771075 C60.1846638,75.4191075 61.7306638,76.4641075 61.5756638,77.7101075 C61.4206638,78.9561075 59.6236638,79.9341075 57.5626638,79.8921075 C55.5016638,79.8501075 53.9556638,78.8061075 54.1106638,77.5591075" id="Fill-665" fill="#EFBC35"></path><path d="M61.5666638,77.3081075 C61.5886638,77.4391075 61.5926638,77.5731075 61.5756638,77.7101075 C61.4206638,78.9561075 59.6236638,79.9341075 57.5626638,79.8921075 C56.8376638,79.8771075 56.1776638,79.7391075 55.6316638,79.5111075 C56.0576638,79.6121075 56.5226638,79.6721075 57.0116638,79.6821075 C59.2986638,79.7281075 61.2986638,78.6741075 61.5666638,77.3081075" id="Fill-666" fill="#FFFFFE"></path><path d="M41.0466638,60.1011075 C41.2736638,58.2741075 43.9096638,56.8411075 46.9316638,56.9021075 C49.9536638,56.9631075 52.2206638,58.4941075 51.9936638,60.3221075 C51.7656638,62.1501075 49.1306638,63.5831075 46.1086638,63.5221075 C43.0866638,63.4611075 40.8196638,61.9291075 41.0466638,60.1011075" id="Fill-667" fill="#B1693A"></path><path d="M40.9956638,59.5171075 C41.2226638,57.6901075 43.8576638,56.2571075 46.8806638,56.3181075 C49.9026638,56.3791075 52.1686638,57.9111075 51.9416638,59.7381075 C51.7146638,61.5661075 49.0796638,62.9991075 46.0576638,62.9381075 C43.0346638,62.8771075 40.7686638,61.3451075 40.9956638,59.5171075" id="Fill-668" fill="#F8C537"></path><path d="M42.7366638,59.5531075 C42.8906638,58.3061075 44.6886638,57.3291075 46.7496638,57.3711075 C48.8106638,57.4121075 50.3566638,58.4571075 50.2016638,59.7031075 C50.0466638,60.9501075 48.2496638,61.9271075 46.1886638,61.8851075 C44.1266638,61.8441075 42.5816638,60.7991075 42.7366638,59.5531075" id="Fill-669" fill="#B1693A"></path><path d="M42.6916638,58.9711075 C42.8466638,57.7241075 44.6436638,56.7471075 46.7046638,56.7891075 C48.7656638,56.8301075 50.3116638,57.8751075 50.1566638,59.1211075 C50.0016638,60.3681075 48.2046638,61.3451075 46.1436638,61.3031075 C44.0826638,61.2621075 42.5366638,60.2171075 42.6916638,58.9711075" id="Fill-670" fill="#F8C537"></path><path d="M50.1476638,58.7191075 C50.1696638,58.8501075 50.1736638,58.9851075 50.1566638,59.1211075 C50.0016638,60.3681075 48.2046638,61.3451075 46.1436638,61.3031075 C45.4196638,61.2891075 44.7586638,61.1501075 44.2126638,60.9221075 C44.6396638,61.0231075 45.1036638,61.0831075 45.5926638,61.0931075 C47.8796638,61.1401075 49.8796638,60.0861075 50.1476638,58.7191075" id="Fill-671" fill="#FFFFFE"></path><path d="M52.6636638,56.9041075 L88.4086638,36.0761075 C89.7606638,35.2891075 90.6416638,34.1261075 91.0346638,32.6121075 C91.4266638,31.0981075 91.2216638,29.6531075 90.4226638,28.3081075 L85.0246638,19.2191075 L55.1526638,38.4281075 L52.6636638,56.9041075" id="Fill-672" fill="#7C92A7"></path><path d="M32.1376638,62.3191075 L38.4886638,65.9401075 C46.2686638,59.5921075 49.7256638,52.8181075 54.5306638,50.0771075 C54.7906638,45.2121075 54.8926638,43.2941075 55.1526638,38.4281075 C65.0906638,32.4661075 71.0496638,28.8901075 80.9876638,22.9271075 C81.1946638,21.8511075 86.0546638,19.0361075 86.2226638,17.6261075 L82.0766638,15.1361075 C75.6266638,11.0221075 36.1406638,15.9371075 24.6076638,52.1891075 L31.3906638,61.2071075 C31.6826638,61.5951075 31.7156638,62.0781075 32.1376638,62.3191075" id="Fill-673" fill="#ECEFF2"></path><path d="M26.0856638,58.8221075 L38.4886638,65.9401075 C39.9316638,64.7631075 41.2256638,63.5701075 42.4076638,62.3921075 L24.6076638,52.1891075 L25.3386638,57.7101075 C25.4026638,58.1921075 25.6636638,58.5811075 26.0856638,58.8221075" id="Fill-674" fill="#9BAEBE"></path><path d="M39.9386638,65.9041075 C44.6716638,63.1871075 51.1216638,59.4411075 55.9756638,56.6521075 C57.6406638,55.6951075 58.6776638,54.1791075 58.9656638,52.2791075 L59.9366638,45.8671075 C60.4016638,42.8021075 60.9246638,39.9431075 63.5846638,38.3521075 C71.1976638,33.8011075 80.1316638,28.4521075 87.8286638,23.8421075 C89.0626638,23.1031075 89.9946638,21.0371075 88.6236638,19.7971075 L86.2226638,17.6261075 C77.1896638,12.2241075 48.8756638,24.2361075 37.0776638,59.3331075 C37.4596638,62.8521075 37.4566638,62.8301075 37.6656638,64.7461075 C37.7216638,65.2731075 38.0166638,65.6991075 38.4886638,65.9401075 C38.9616638,66.1811075 39.4796638,66.1671075 39.9386638,65.9041075" id="Fill-675" fill="#C4CDDB"></path><path d="M43.1026638,27.7411075 C36.7796638,32.6381075 30.9376638,40.0761075 27.3936638,50.2971075 L36.4036638,55.4561075 C39.9196638,45.3621075 45.0076638,37.3791075 50.6606638,32.1541075 L43.1026638,27.7411075" id="Fill-676" fill="#9BAEBE"></path><path d="M27.8676638,50.5681075 L36.4036638,55.4561075 C39.6196638,46.2231075 44.1496638,38.7571075 49.2256638,33.5521075 L43.1546638,30.1711075 C37.0766638,34.6611075 31.4436638,41.3931075 27.8676638,50.5681075" id="Fill-677" fill="#D3DFE8"></path><path d="M39.9386638,65.9041075 C44.6716638,63.1871075 51.1216638,59.4411075 55.9756638,56.6521075 C57.6406638,55.6951075 58.6776638,54.1791075 58.9656638,52.2791075 L59.9366638,45.8671075 C60.4016638,42.8021075 60.9246638,39.9431075 63.5846638,38.3521075 C71.1976638,33.8011075 80.1316638,28.4521075 87.8286638,23.8421075 C89.0626638,23.1031075 89.9946638,21.0371075 88.6236638,19.7971075 L86.2226638,17.6261075 C77.1896638,12.2241075 48.8756638,24.2361075 37.0776638,59.3331075 C37.4596638,62.8521075 37.4566638,62.8301075 37.6656638,64.7461075 C37.7216638,65.2731075 38.0166638,65.6991075 38.4886638,65.9401075 C38.9616638,66.1811075 39.4796638,66.1671075 39.9386638,65.9041075" id="Fill-678" fill="#9BAEBE"></path><path d="M35.5906638,57.6171075 C35.8976638,56.5491075 36.8516638,56.1401075 37.3356638,56.6531075 L32.7616638,51.8091075 L31.0156638,52.7731075 L35.5906638,57.6171075" id="Fill-679" fill="#E8A137"></path><path d="M35.5917,53.5061075 L35.5756638,57.5901075 C31.7366638,55.8501075 28.2626638,54.0251075 25.6856638,51.9911075 L25.6856638,47.8251075 C25.6856638,47.3381075 25.9256638,46.9201075 26.3456638,46.6751075 C26.7666638,46.4301075 27.2496638,46.4271075 27.6726638,46.6671075 L33.5686638,50.0161075 C34.8576638,50.7491075 35.5976638,52.0231075 35.5917,53.5061075" id="Fill-680" fill="#C86E34"></path><path d="M39.4267041,51.1221075 L39.4066638,56.1221075 L37.6606638,57.0861075 L34.0906638,53.1131075 L25.6726638,48.3481075 L25.6726638,43.7441075 L24.7976638,42.7701075 L26.5436638,41.8061075 C27.0436638,41.5411075 27.6086638,41.5481075 28.1066638,41.8311075 L36.9486638,46.8511075 C38.5276638,47.7471075 39.4336638,49.3071075 39.4267041,51.1221075" id="Fill-681" fill="#F8C537"></path><path d="M37.6807041,52.0861075 C37.6736638,53.7531075 37.6676638,55.4201075 37.6606638,57.0861075 C32.4286638,55.2611075 27.6446638,52.9101075 23.9276638,49.3121075 L23.9276638,44.2121075 C23.9276638,43.6161075 24.2216638,43.1041075 24.7366638,42.8041075 C25.2516638,42.5041075 25.8426638,42.5001075 26.3606638,42.7951075 L35.2026638,47.8151075 C36.7816638,48.7111075 37.6876638,50.2711075 37.6807041,52.0861075" id="Fill-682" fill="#E8A137"></path><path d="M26.5356638,50.4721075 C25.4766638,49.8631075 24.6176638,48.0161075 24.6176638,46.3451075 C24.6176638,44.6751075 25.4766638,43.8151075 26.5356638,44.4231075 C27.5946638,45.0321075 28.4536638,46.8801075 28.4536638,48.5501075 C28.4536638,50.2201075 27.5946638,51.0811075 26.5356638,50.4721075" id="Fill-683" fill="#1F3858"></path><path d="M26.5356638,49.5901075 C25.7856638,49.1591075 25.1776638,47.8501075 25.1776638,46.6671075 C25.1776638,45.4841075 25.7856638,44.8741075 26.5356638,45.3061075 C27.2856638,45.7371075 27.8946638,47.0461075 27.8946638,48.2291075 C27.8946638,49.4111075 27.2856638,50.0211075 26.5356638,49.5901075" id="Fill-684" fill="#FFFFFE"></path><path d="M25.3336638,46.3171075 C25.6676638,44.2351075 27.5336638,46.1251075 27.5336638,47.4231075 C26.8476638,48.8771075 25.2566638,47.4361075 25.3336638,46.3171075" id="Fill-685" fill="#1F3858"></path><path d="M26.5736638,45.7511075 C26.7036638,45.6831075 26.9176638,45.8381075 27.0536638,46.0971075 C27.1896638,46.3551075 27.1946638,46.6191075 27.0656638,46.6871075 C26.9366638,46.7551075 26.7216638,46.6001075 26.5866638,46.3421075 C26.4506638,46.0831075 26.4446638,45.8191075 26.5736638,45.7511075" id="Fill-686" fill="#FFFFFE"></path><path d="M26.5356638,49.2071075 C26.2476638,49.0411075 25.9856638,48.7191075 25.7876638,48.3231075 C25.9616638,48.5661075 26.1576638,48.7601075 26.3666638,48.8801075 C27.0566638,49.2761075 27.6146638,48.7161075 27.6146638,47.6301075 L27.6146638,47.6241075 C27.6386638,47.7801075 27.6516638,47.9351075 27.6516638,48.0891075 C27.6516638,49.0601075 27.1516638,49.5611075 26.5356638,49.2071075" id="Fill-687" fill="#2480B7"></path><path d="M30.5506638,52.7381075 C29.4916638,52.1301075 28.6326638,50.2821075 28.6326638,48.6111075 C28.6326638,46.9411075 29.4916638,46.0811075 30.5506638,46.6891075 C31.6096638,47.2981075 32.4686638,49.1461075 32.4686638,50.8161075 C32.4686638,52.4861075 31.6096638,53.3471075 30.5506638,52.7381075" id="Fill-688" fill="#1F3858"></path><path d="M30.5506638,51.8561075 C29.7996638,51.4251075 29.1916638,50.1161075 29.1916638,48.9331075 C29.1916638,47.7501075 29.7996638,47.1401075 30.5506638,47.5721075 C31.3006638,48.0031075 31.9086638,49.3111075 31.9086638,50.4951075 C31.9086638,51.6771075 31.3006638,52.2871075 30.5506638,51.8561075" id="Fill-689" fill="#FFFFFE"></path><path d="M29.3476638,48.5831075 C29.6816638,46.5011075 31.5476638,48.3911075 31.5476638,49.6891075 C30.8626638,51.1431075 29.2716638,49.7021075 29.3476638,48.5831075" id="Fill-690" fill="#1F3858"></path><path d="M30.5886638,48.0171075 C30.7176638,47.9501075 30.9316638,48.1041075 31.0676638,48.3631075 C31.2036638,48.6211075 31.2086638,48.8851075 31.0796638,48.9531075 C30.9506638,49.0211075 30.7366638,48.8661075 30.6006638,48.6081075 C30.4646638,48.3491075 30.4596638,48.0851075 30.5886638,48.0171075" id="Fill-691" fill="#FFFFFE"></path><path d="M30.5506638,51.4731075 C30.2626638,51.3071075 29.9996638,50.9851075 29.8026638,50.5891075 C29.9756638,50.8321075 30.1726638,51.0261075 30.3816638,51.1461075 C31.0706638,51.5421075 31.6296638,50.9821075 31.6296638,49.8961075 L31.6296638,49.8901075 C31.6526638,50.0461075 31.6656638,50.2011075 31.6656638,50.3551075 C31.6656638,51.3261075 31.1656638,51.8271075 30.5506638,51.4731075" id="Fill-692" fill="#2480B7"></path><path d="M34.5646638,55.0041075 C33.5056638,54.3961075 32.6466638,52.5481075 32.6466638,50.8781075 C32.6466638,49.2071075 33.5056638,48.3471075 34.5646638,48.9551075 C35.6236638,49.5641075 36.4826638,51.4121075 36.4826638,53.0821075 C36.4826638,54.7521075 35.6236638,55.6131075 34.5646638,55.0041075" id="Fill-693" fill="#1F3858"></path><path d="M34.5646638,54.1221075 C33.8146638,53.6911075 33.2056638,52.3821075 33.2056638,51.1991075 C33.2056638,50.0161075 33.8146638,49.4061075 34.5646638,49.8381075 C35.3146638,50.2691075 35.9226638,51.5781075 35.9226638,52.7611075 C35.9226638,53.9441075 35.3146638,54.5531075 34.5646638,54.1221075" id="Fill-694" fill="#FFFFFE"></path><path d="M33.3616638,50.8491075 C33.6966638,48.7671075 35.5626638,50.6571075 35.5626638,51.9551075 C34.8766638,53.4091075 33.2856638,51.9681075 33.3616638,50.8491075" id="Fill-695" fill="#1F3858"></path><path d="M34.6026638,50.2831075 C34.7316638,50.2161075 34.9466638,50.3701075 35.0816638,50.6291075 C35.2176638,50.8871075 35.2226638,51.1511075 35.0936638,51.2191075 C34.9646638,51.2871075 34.7506638,51.1321075 34.6146638,50.8741075 C34.4786638,50.6151075 34.4736638,50.3511075 34.6026638,50.2831075" id="Fill-696" fill="#FFFFFE"></path><path d="M34.5646638,53.7391075 C34.2766638,53.5731075 34.0146638,53.2511075 33.8166638,52.8551075 C33.9896638,53.0981075 34.1866638,53.2921075 34.3956638,53.4121075 C35.0846638,53.8081075 35.6436638,53.2481075 35.6436638,52.1621075 L35.6436638,52.1561075 C35.6666638,52.3121075 35.6796638,52.4671075 35.6796638,52.6211075 C35.6796638,53.5921075 35.1806638,54.0931075 34.5646638,53.7391075" id="Fill-697" fill="#2480B7"></path><path d="M4.77366383,60.0031075 L4.77366383,63.7111075 L4.74066383,63.3411075 L4.38366383,63.4421075 L4.77366383,67.8911075 L4.77366383,71.2461075 L4.05266383,70.7781075 C3.95266383,70.8141075 3.84466383,70.8371075 3.73466383,70.8461075 C3.02566383,70.9091075 2.39466383,70.3801075 2.33366383,69.6711075 L1.72266383,62.7061075 C1.66766383,62.0771075 2.07866383,61.5101075 2.66666383,61.3471075 L2.47266383,60.6661075 L4.77366383,60.0031075 Z M12.1236638,67.7371075 L9.25366383,62.0551075 L7.27366383,62.6191075 L7.83166383,68.9891075 L12.1236638,74.9951075 L12.1236638,75.6091075 L11.7476638,75.7691075 L4.77366383,71.2461075 L4.77366383,67.8911075 L4.79866383,68.1841075 L5.16266383,68.1591075 L4.77366383,63.7111075 L4.77366383,60.0031075 L12.1106638,57.8891075 L12.1236638,57.8951075 L12.1236638,61.2371075 L11.7866638,61.3331075 L12.1236638,62.0011075 L12.1236638,67.7371075 Z M12.4606638,75.4661075 L12.1366638,67.7631075 L12.1236638,67.7371075 L12.1236638,62.0011075 L13.9676638,65.6511075 L14.2906638,65.4801075 L12.1446638,61.2311075 L12.1236638,61.2371075 L12.1236638,57.8951075 L13.5856638,58.5841075 L13.8176638,59.4011075 L17.1696638,65.4451075 C17.5146638,66.0661075 17.2336638,66.8611075 16.5986638,67.1821075 C16.4996638,67.2321075 16.3956638,67.2681075 16.2916638,67.2901075 L13.4056638,75.2601075 L12.4606638,75.4661075 L12.1236638,75.6091075 L12.1236638,74.9951075 L12.4606638,75.4661075 L12.4606638,75.4661075 Z" id="Fill-698" fill="#617A8B"></path><polyline id="Fill-699" fill="#7D95A5" points="13.7576638 59.5851075 12.9676638 56.8111075 2.91266383 59.6761075 3.70266383 62.4491075 13.7576638 59.5851075"></polyline><polyline id="Fill-700" fill="#7D95A5" points="12.6836638 75.3711075 7.59866383 66.7301075 3.35266383 67.0221075 3.51566383 68.7451075 11.7476638 75.7691075 12.6836638 75.3711075"></polyline><path d="M2.67266383,68.3871075 L2.06266383,61.4221075 C2.00066383,60.7131075 2.52966383,60.0831075 3.23766383,60.0211075 C3.94666383,59.9591075 4.57666383,60.4871075 4.63866383,61.1961075 L5.24966383,68.1611075 C5.31166383,68.8701075 4.78266383,69.5001075 4.07366383,69.5621075 C3.36566383,69.6241075 2.73566383,69.0951075 2.67266383,68.3871075" id="Fill-701" fill="#A3B6BF"></path><path d="M5.60766383,68.0641075 L4.99766383,61.0991075 C4.93466383,60.3901075 5.46366383,59.7601075 6.17266383,59.6981075 C6.88066383,59.6361075 7.51166383,60.1651075 7.57366383,60.8731075 L8.18366383,67.8381075 C8.24566383,68.5471075 7.71666383,69.1771075 7.00866383,69.2391075 C6.29966383,69.3011075 5.66966383,68.7731075 5.60766383,68.0641075" id="Fill-702" fill="#A3B6BF"></path><polyline id="Fill-703" fill="#7D95A5" points="4.92166383 59.0441075 8.64466383 50.7181075 7.51366383 50.1211075 0.866663827 48.7911075 3.95866383 59.3781075 4.92166383 59.0441075"></polyline><polyline id="Fill-704" fill="#A3B6BF" points="10.5586638 57.4381075 8.64466383 50.7181075 2.15266383 49.6811075 4.92166383 59.0441075 10.5586638 57.4381075"></polyline><polyline id="Fill-705" fill="#7D95A5" points="12.6826638 75.3721075 12.4506638 65.3481075 16.2126638 63.3591075 16.9826638 64.9091075 13.6876638 75.2161075 12.6826638 75.3721075"></polyline><path d="M17.5096638,64.1601075 L14.3576638,57.9191075 C14.0376638,57.2841075 13.2556638,57.0271075 12.6206638,57.3481075 C11.9856638,57.6681075 11.7286638,58.4501075 12.0496638,59.0851075 L15.2016638,65.3261075 C15.5216638,65.9611075 16.3036638,66.2181075 16.9386638,65.8971075 C17.5736638,65.5771075 17.8306638,64.7951075 17.5096638,64.1601075" id="Fill-706" fill="#A3B6BF"></path><path d="M14.8456638,65.4321075 L11.6936638,59.1911075 C11.3736638,58.5561075 10.5916638,58.2991075 9.95666383,58.6201075 C9.32166383,58.9411075 9.06466383,59.7221075 9.38566383,60.3571075 L12.5376638,66.5981075 C12.8576638,67.2331075 13.6396638,67.4901075 14.2746638,67.1701075 C14.9096638,66.8491075 15.1666638,66.0671075 14.8456638,65.4321075" id="Fill-707" fill="#A3B6BF"></path><path d="M14.3956638,65.8051075 C14.2866638,65.4221075 13.8886638,65.2011075 13.5066638,65.3101075 C13.1246638,65.4191075 12.9036638,65.8171075 13.0116638,66.1991075 C13.1206638,66.5811075 13.5186638,66.8031075 13.9016638,66.6941075 C14.2836638,66.5851075 14.5046638,66.1871075 14.3956638,65.8051075 Z M6.18566383,68.1441075 C6.07766383,67.7611075 6.29866383,67.3631075 6.68066383,67.2541075 C7.06266383,67.1451075 7.46066383,67.3671075 7.57066383,67.7491075 C7.67866383,68.1311075 7.45766383,68.5291075 7.07466383,68.6381075 C6.69266383,68.7471075 6.29466383,68.5261075 6.18566383,68.1441075 Z M3.29966383,68.4881075 C3.19066383,68.1051075 3.41166383,67.7071075 3.79366383,67.5981075 C4.17666383,67.4901075 4.57466383,67.7111075 4.68366383,68.0931075 C4.79266383,68.4751075 4.57066383,68.8731075 4.18866383,68.9821075 C3.80666383,69.0911075 3.40766383,68.8701075 3.29966383,68.4881075 Z M2.69266383,61.5881075 C2.58466383,61.2051075 2.80566383,60.8071075 3.18766383,60.6981075 C3.56966383,60.5901075 3.96866383,60.8111075 4.07766383,61.1931075 C4.18666383,61.5751075 3.96466383,61.9741075 3.58266383,62.0831075 C3.20066383,62.1911075 2.80166383,61.9701075 2.69266383,61.5881075 Z M5.57966383,61.2441075 C5.47066383,60.8611075 5.69266383,60.4631075 6.07466383,60.3541075 C6.45666383,60.2451075 6.85466383,60.4671075 6.96466383,60.8491075 C7.07266383,61.2321075 6.85166383,61.6291075 6.46866383,61.7381075 C6.08666383,61.8471075 5.68866383,61.6261075 5.57966383,61.2441075 Z M11.2746638,59.6211075 C11.1666638,59.2391075 10.7676638,59.0171075 10.3856638,59.1261075 C10.0036638,59.2351075 9.78166383,59.6331075 9.89066383,60.0151075 C9.99966383,60.3971075 10.3976638,60.6191075 10.7796638,60.5101075 C11.1616638,60.4011075 11.3836638,60.0041075 11.2746638,59.6211075 Z M13.9096638,58.3921075 C13.8006638,58.0101075 13.4026638,57.7881075 13.0206638,57.8971075 C12.6386638,58.0061075 12.4166638,58.4051075 12.5256638,58.7871075 C12.6346638,59.1691075 13.0326638,59.3911075 13.4146638,59.2811075 C13.7966638,59.1731075 14.0186638,58.7741075 13.9096638,58.3921075 Z M17.0306638,64.5761075 C16.9216638,64.1931075 16.5236638,63.9721075 16.1416638,64.0811075 C15.7596638,64.1901075 15.5376638,64.5881075 15.6466638,64.9701075 C15.7556638,65.3521075 16.1536638,65.5741075 16.5356638,65.4651075 C16.9176638,65.3561075 17.1396638,64.9581075 17.0306638,64.5761075 L17.0306638,64.5761075 Z" id="Fill-708" fill="#C9D5D8"></path><path d="M14.2736638,66.0011075 C14.1646638,65.6181075 13.7666638,65.3971075 13.3846638,65.5051075 C13.2456638,65.5451075 13.1296638,65.6211075 13.0416638,65.7221075 C12.9806638,65.8671075 12.9656638,66.0351075 13.0116638,66.1991075 C13.1206638,66.5811075 13.5186638,66.8031075 13.9016638,66.6941075 C14.0386638,66.6541075 14.1566638,66.5771075 14.2446638,66.4781075 C14.3066638,66.3321075 14.3206638,66.1651075 14.2736638,66.0011075 Z M6.21566383,67.6661075 C6.30466383,67.5661075 6.41966383,67.4891075 6.55766383,67.4501075 C6.94066383,67.3411075 7.33866383,67.5631075 7.44766383,67.9451075 C7.49466383,68.1091075 7.48066383,68.2761075 7.41866383,68.4221075 C7.33066383,68.5221075 7.21266383,68.5991075 7.07466383,68.6381075 C6.69266383,68.7471075 6.29466383,68.5261075 6.18566383,68.1441075 C6.13966383,67.9801075 6.15466383,67.8121075 6.21566383,67.6661075 Z M3.32866383,68.0101075 C3.41666383,67.9101075 3.53366383,67.8331075 3.67166383,67.7941075 C4.05366383,67.6851075 4.45166383,67.9071075 4.56066383,68.2891075 C4.60766383,68.4531075 4.59366383,68.6201075 4.53166383,68.7651075 C4.44366383,68.8661075 4.32566383,68.9431075 4.18866383,68.9821075 C3.80666383,69.0911075 3.40766383,68.8701075 3.29966383,68.4881075 C3.25266383,68.3241075 3.26766383,68.1561075 3.32866383,68.0101075 Z M2.72266383,61.1121075 C2.81066383,61.0121075 2.92666383,60.9331075 3.06566383,60.8941075 C3.44766383,60.7851075 3.84566383,61.0071075 3.95466383,61.3891075 C4.00166383,61.5531075 3.98766383,61.7221075 3.92566383,61.8681075 C3.83766383,61.9671075 3.71966383,62.0441075 3.58266383,62.0831075 C3.20066383,62.1911075 2.80166383,61.9701075 2.69266383,61.5881075 C2.64666383,61.4241075 2.66166383,61.2581075 2.72266383,61.1121075 Z M5.60966383,60.7681075 C5.69766383,60.6681075 5.81366383,60.5901075 5.95266383,60.5501075 C6.33466383,60.4411075 6.73266383,60.6631075 6.84166383,61.0451075 C6.88866383,61.2091075 6.87466383,61.3771075 6.81266383,61.5241075 C6.72366383,61.6231075 6.60666383,61.6991075 6.46866383,61.7381075 C6.08666383,61.8471075 5.68866383,61.6261075 5.57966383,61.2441075 C5.53366383,61.0801075 5.54866383,60.9141075 5.60966383,60.7681075 Z M11.1526638,59.8171075 C11.0436638,59.4351075 10.6456638,59.2131075 10.2636638,59.3221075 C10.1246638,59.3621075 10.0086638,59.4401075 9.92066383,59.5401075 C9.85966383,59.6861075 9.84466383,59.8521075 9.89066383,60.0151075 C9.99966383,60.3971075 10.3976638,60.6191075 10.7796638,60.5101075 C10.9176638,60.4711075 11.0356638,60.3961075 11.1236638,60.2961075 C11.1856638,60.1501075 11.1996638,59.9811075 11.1526638,59.8171075 Z M13.7866638,58.5881075 C13.6786638,58.2061075 13.2796638,57.9841075 12.8976638,58.0931075 C12.7596638,58.1321075 12.6436638,58.2101075 12.5556638,58.3111075 C12.4936638,58.4571075 12.4786638,58.6231075 12.5256638,58.7871075 C12.6346638,59.1691075 13.0326638,59.3911075 13.4146638,59.2811075 C13.5516638,59.2421075 13.6706638,59.1671075 13.7576638,59.0671075 C13.8206638,58.9201075 13.8336638,58.7521075 13.7866638,58.5881075 Z M15.6756638,64.4951075 C15.6146638,64.6401075 15.5996638,64.8061075 15.6466638,64.9701075 C15.7556638,65.3521075 16.1536638,65.5741075 16.5356638,65.4651075 C16.6736638,65.4261075 16.7916638,65.3481075 16.8796638,65.2481075 C16.9416638,65.1031075 16.9546638,64.9361075 16.9086638,64.7711075 C16.7986638,64.3891075 16.4016638,64.1681075 16.0186638,64.2771075 C15.8806638,64.3161075 15.7646638,64.3941075 15.6756638,64.4951075 L15.6756638,64.4951075 Z" id="Fill-709" fill="#7D95A5"></path><path d="M0.102663827,49.0501075 C0.329663827,47.2221075 2.96466383,45.7891075 5.98766383,45.8501075 C9.00966383,45.9111075 11.2766638,47.4431075 11.0486638,49.2711075 C10.8216638,51.0981075 8.18666383,52.5311075 5.16466383,52.4701075 C2.14266383,52.4091075 -0.124336173,50.8771075 0.102663827,49.0501075" id="Fill-710" fill="#B1693A"></path><path d="M0.0516638267,48.4661075 C0.278663827,46.6381075 2.91366383,45.2061075 5.93666383,45.2671075 C8.95866383,45.3281075 11.2256638,46.8591075 10.9976638,48.6871075 C10.7706638,50.5151075 8.13566383,51.9471075 5.11366383,51.8861075 C2.09066383,51.8251075 -0.175336173,50.2941075 0.0516638267,48.4661075" id="Fill-711" fill="#EFBC35"></path><path d="M1.79166383,48.5011075 C1.94666383,47.2551075 3.74466383,46.2781075 5.80566383,46.3191075 C7.86666383,46.3611075 9.41266383,47.4051075 9.25766383,48.6521075 C9.10266383,49.8981075 7.30566383,50.8751075 5.24466383,50.8341075 C3.18266383,50.7921075 1.63766383,49.7481075 1.79166383,48.5011075" id="Fill-712" fill="#B36C38"></path><path d="M1.74766383,47.9191075 C1.90266383,46.6731075 3.69966383,45.6961075 5.76066383,45.7371075 C7.82166383,45.7791075 9.36766383,46.8241075 9.21266383,48.0701075 C9.05766383,49.3161075 7.26066383,50.2941075 5.19966383,50.2521075 C3.13866383,50.2101075 1.59266383,49.1661075 1.74766383,47.9191075" id="Fill-713" fill="#EFBC35"></path><path d="M9.20366383,47.6681075 C9.22566383,47.7991075 9.22966383,47.9331075 9.21266383,48.0701075 C9.05766383,49.3161075 7.26066383,50.2941075 5.19966383,50.2521075 C4.47566383,50.2381075 3.81466383,50.0991075 3.26866383,49.8711075 C3.69566383,49.9721075 4.15966383,50.0321075 4.64866383,50.0421075 C6.93566383,50.0881075 8.93566383,49.0341075 9.20366383,47.6681075" id="Fill-714" fill="#FFFFFE"></path><path d="M85.1506638,47.7641075 C80.2256638,44.6731075 76.6176638,38.3781075 76.6176638,32.1901075 C76.6176638,31.6341075 76.6476638,31.0951075 76.7046638,30.5741075 L74.4496638,26.6761075 L81.1086638,22.8911075 C81.2376638,22.8121075 81.3686638,22.7381075 81.5026638,22.6671075 L81.5266638,22.6531075 L81.5266638,22.6541075 C82.6116638,22.0801075 83.8346638,21.7541075 85.1506638,21.7141075 L85.1506638,28.7491075 C84.0566638,27.9961075 82.8836638,27.4151075 81.6646638,27.0511075 C80.8496638,26.8081075 80.0556638,26.6751075 79.2916638,26.6431075 C78.3316638,28.2191075 77.7786638,30.2271075 77.7786638,32.5481075 C77.7786638,38.0431075 80.8656638,43.6311075 85.1506638,46.5801075 L85.1506638,47.7641075 Z M88.3936638,22.1621075 C94.8996638,24.1051075 100.173664,31.7461075 100.173664,39.2241075 C100.173664,43.4661075 98.4786638,46.7451075 95.8256638,48.4371075 L95.8266638,48.4381075 L95.8026638,48.4521075 C95.5856638,48.5891075 95.3626638,48.7161075 95.1336638,48.8321075 L89.2106638,52.1931075 L87.2846638,48.8641075 C86.5516638,48.5661075 85.8386638,48.1961075 85.1506638,47.7641075 L85.1506638,46.5801075 C86.2436638,47.3331075 87.4146638,47.9141075 88.6326638,48.2781075 C89.4496638,48.5221075 90.2446638,48.6541075 91.0096638,48.6861075 C91.9696638,47.1101075 92.5226638,45.1011075 92.5226638,42.7771075 C92.5226638,37.2861075 89.4376638,31.6991075 85.1506638,28.7491075 L85.1506638,21.7141075 C86.1806638,21.6821075 87.2686638,21.8261075 88.3936638,22.1621075 L88.3936638,22.1621075 Z" id="Fill-715" fill="#C86E34"></path><path d="M88.7076638,48.2991075 L88.7076638,49.4231075 L88.3256638,49.6351075 L87.2406638,47.7601075 C87.6966638,47.9631075 88.1616638,48.1371075 88.6326638,48.2781075 L88.7076638,48.2991075 Z M88.3936638,22.1621075 C88.4986638,22.1941075 88.6036638,22.2261075 88.7076638,22.2611075 L88.7076638,32.1371075 C86.8116638,29.7111075 84.3526638,27.8541075 81.6646638,27.0511075 C80.8496638,26.8081075 80.0556638,26.6751075 79.2916638,26.6431075 C78.3316638,28.2191075 77.7786638,30.2271075 77.7786638,32.5481075 C77.7786638,33.7851075 77.9366638,35.0271075 78.2276638,36.2421075 C77.5426638,34.4921075 77.1576638,32.9211075 77.1576638,31.8951075 C77.1576638,28.5211075 77.1846638,30.9241075 77.2346638,30.4621075 L75.2346638,27.0051075 L84.7396638,21.7371075 C85.8896638,21.6481075 87.1186638,21.7811075 88.3936638,22.1621075 Z M88.7076638,49.4231075 L88.7076638,48.2991075 C89.2056638,48.4441075 89.6946638,48.5481075 90.1746638,48.6121075 L88.7076638,49.4231075 Z M88.7076638,22.2611075 C95.0686638,24.3511075 100.173664,31.8671075 100.173664,39.2241075 C100.173664,40.7331075 99.9586638,42.1211075 99.5626638,43.3581075 C99.4326638,43.4541075 99.3006638,43.5451075 99.1646638,43.6321075 L99.1646638,43.6331075 L99.1436638,43.6451075 C98.9516638,43.7671075 98.7536638,43.8791075 98.5506638,43.9821075 L91.4266638,47.9201075 C92.1286638,46.4771075 92.5226638,44.7401075 92.5226638,42.7771075 C92.5226638,38.9741075 91.0426638,35.1241075 88.7076638,32.1371075 L88.7076638,22.2611075 L88.7076638,22.2611075 Z" id="Fill-716" fill="#E8A137"></path><path d="M88.3936638,22.1621075 C94.3086638,23.9281075 99.2046638,30.4041075 100.045664,37.1851075 L92.4586638,41.3991075 C91.8686638,34.9701075 87.2616638,28.7231075 81.6646638,27.0511075 C80.8496638,26.8081075 80.0556638,26.6751075 79.2916638,26.6431075 C78.6206638,27.7441075 78.1486638,29.0561075 77.9256638,30.5381075 L76.1916638,27.5411075 L86.3196638,21.9271075 C86.4036638,21.8761075 86.4896638,21.8271075 86.5756638,21.7801075 C87.1686638,21.8511075 87.7756638,21.9781075 88.3936638,22.1621075" id="Fill-717" fill="#F8C537"></path><path d="M81.6646638,25.9901075 C82.8776638,26.3531075 84.0486638,26.9141075 85.1506638,27.6351075 L85.1506638,28.7491075 C84.0566638,27.9961075 82.8836638,27.4151075 81.6646638,27.0511075 C80.8496638,26.8081075 80.0556638,26.6751075 79.2916638,26.6431075 C78.3316638,28.2191075 77.7786638,30.2271075 77.7786638,32.5481075 C77.7786638,38.0431075 80.8656638,43.6311075 85.1506638,46.5801075 L85.1506638,53.5211075 C84.0486638,53.5841075 82.8776638,53.4461075 81.6646638,53.0841075 C75.1626638,51.1421075 69.8886638,43.5011075 69.8886638,36.0181075 C69.8886638,28.5401075 75.1626638,24.0491075 81.6646638,25.9901075 Z M85.1506638,27.6351075 C89.9546638,30.7791075 93.4446638,36.9701075 93.4446638,43.0531075 C93.4446638,49.1401075 89.9546638,53.2461075 85.1506638,53.5211075 L85.1506638,46.5801075 C86.2436638,47.3331075 87.4146638,47.9141075 88.6326638,48.2781075 C89.4496638,48.5221075 90.2446638,48.6541075 91.0096638,48.6861075 C91.9696638,47.1101075 92.5226638,45.1011075 92.5226638,42.7771075 C92.5226638,37.2861075 89.4376638,31.6991075 85.1506638,28.7491075 L85.1506638,27.6351075 L85.1506638,27.6351075 Z" id="Fill-718" fill="#C86E34"></path><path d="M79.3636638,26.6471075 L79.4706638,26.6521075 L79.3636638,26.6471075 Z M79.4706638,39.7481075 L79.4706638,51.1121075 C74.5286638,48.4691075 70.8106638,42.3261075 70.8106638,36.2941075 C70.8106638,30.3391075 74.4396638,26.4401075 79.2916638,26.6431075 C78.3316638,28.2191075 77.7786638,30.2271075 77.7786638,32.5481075 C77.7786638,35.0121075 78.3996638,37.4941075 79.4706638,39.7481075 Z M79.4706638,26.6521075 L79.5776638,26.6601075 L79.4706638,26.6521075 Z M79.7436638,40.2981075 L79.7436638,51.2531075 C79.6516638,51.2071075 79.5616638,51.1611075 79.4706638,51.1121075 L79.4706638,39.7481075 C79.5586638,39.9331075 79.6496638,40.1171075 79.7436638,40.2981075 Z M80.0046638,40.7871075 L80.0046638,51.3821075 C79.9176638,51.3401075 79.8306638,51.2971075 79.7436638,51.2531075 L79.7436638,40.2981075 C79.8276638,40.4631075 79.9156638,40.6261075 80.0046638,40.7871075 Z M80.2736638,41.2561075 L80.2736638,51.5051075 C80.1836638,51.4651075 80.0936638,51.4241075 80.0046638,51.3821075 L80.0046638,40.7871075 C80.0926638,40.9451075 80.1816638,41.1021075 80.2736638,41.2561075 Z M91.9936638,46.4781075 C91.9686638,46.5571075 91.9436638,46.6361075 91.9176638,46.7131075 C91.9436638,46.6361075 91.9686638,46.5571075 91.9936638,46.4781075 Z M92.0586638,46.2591075 C92.0386638,46.3281075 92.0186638,46.3951075 91.9976638,46.4621075 C92.0186638,46.3951075 92.0386638,46.3281075 92.0586638,46.2591075 Z M92.1216638,46.0301075 C92.1116638,46.0671075 92.1016638,46.1041075 92.0916638,46.1411075 C92.1016638,46.1041075 92.1116638,46.0671075 92.1216638,46.0301075 Z M92.1956638,45.7271075 C92.1856638,45.7731075 92.1746638,45.8191075 92.1636638,45.8641075 C92.1746638,45.8191075 92.1856638,45.7731075 92.1956638,45.7271075 Z M92.2566638,45.4531075 C92.2476638,45.4961075 92.2386638,45.5381075 92.2296638,45.5801075 C92.2386638,45.5381075 92.2476638,45.4961075 92.2566638,45.4531075 Z M80.2736638,51.5051075 L80.2736638,41.2561075 C82.2646638,44.6151075 85.2706638,47.2741075 88.6326638,48.2781075 C89.4496638,48.5221075 90.2446638,48.6541075 91.0096638,48.6861075 C91.3656638,48.1021075 91.6656638,47.4581075 91.9016638,46.7601075 C90.4096638,51.1621075 86.3906638,53.4351075 81.6646638,52.0231075 C81.1926638,51.8821075 80.7286638,51.7081075 80.2736638,51.5051075 Z M92.3136638,45.1591075 C92.3056638,45.2041075 92.2976638,45.2481075 92.2886638,45.2931075 C92.2976638,45.2481075 92.3056638,45.2041075 92.3136638,45.1591075 L92.3136638,45.1591075 Z" id="Fill-719" fill="#1F3858"></path><path d="M90.5436638,49.3751075 C90.4316638,49.5201075 90.2696638,49.7211075 90.0996638,49.9171075 L78.5856638,26.6431075 C78.8316638,26.6361075 79.0516638,26.6361075 79.2646638,26.6421075 L90.5436638,49.3751075" id="Fill-720" fill="#494C49"></path><path d="M83.5616638,38.5021075 C82.6116638,36.8351075 82.4916638,35.0361075 83.1656638,34.0341075 L83.0786638,33.8811075 L83.5796638,33.5961075 C83.6336638,33.5551075 83.6906638,33.5181075 83.7506638,33.4841075 C85.0216638,32.7591075 86.9986638,33.8321075 88.1646638,35.8791075 C89.3316638,37.9251075 89.2466638,40.1731075 87.9756638,40.8971075 L87.2976638,41.2831075 L87.2036638,41.1201075 C85.9976638,41.1891075 84.5106638,40.1691075 83.5616638,38.5021075" id="Fill-721" fill="#494C49"></path><path d="M82.5296638,39.0901075 C81.5036638,37.2901075 81.3736638,35.3471075 82.1026638,34.2651075 L82.0086638,34.0991075 L82.5496638,33.7911075 C82.6076638,33.7481075 82.6696638,33.7071075 82.7336638,33.6701075 C84.1066638,32.8881075 86.2416638,34.0461075 87.5016638,36.2571075 C88.7616638,38.4671075 88.6696638,40.8941075 87.2966638,41.6771075 L86.5646638,42.0941075 L86.4636638,41.9171075 C85.1606638,41.9921075 83.5556638,40.8901075 82.5296638,39.0901075" id="Fill-722" fill="#545755"></path><path d="M81.6046638,39.6171075 C80.3456638,37.4071075 80.4366638,34.9801075 81.8096638,34.1971075 C83.1826638,33.4151075 85.3176638,34.5731075 86.5766638,36.7841075 C87.8366638,38.9941075 87.7446638,41.4211075 86.3726638,42.2041075 C84.9996638,42.9861075 82.8646638,41.8281075 81.6046638,39.6171075" id="Fill-723" fill="#757976"></path><path d="M82.5406638,39.0701075 C81.6956638,37.5861075 81.7576638,35.9571075 82.6786638,35.4321075 C83.5996638,34.9071075 85.0326638,35.6841075 85.8786638,37.1681075 C86.7236638,38.6521075 86.6626638,40.2811075 85.7406638,40.8061075 C84.8196638,41.3311075 83.3866638,40.5541075 82.5406638,39.0701075" id="Fill-724" fill="#494C49"></path><path d="M82.2816638,39.2311075 C81.4366638,37.7481075 81.4976638,36.1181075 82.4196638,35.5931075 C83.3406638,35.0681075 84.7736638,35.8461075 85.6196638,37.3291075 C86.4646638,38.8131075 86.4036638,40.4421075 85.4816638,40.9671075 C84.5606638,41.4921075 83.1276638,40.7151075 82.2816638,39.2311075" id="Fill-725" fill="#000000"></path><path d="M75.1326638,33.9111075 L83.3716638,38.7521075 L83.3746638,38.7531075 L83.5816638,38.8751075 L83.5906638,38.8741075 C84.1556638,39.1901075 84.6006638,39.4481075 85.2006638,39.7811075 C85.3176638,40.3071075 85.4356638,40.8331075 85.5526638,41.3591075 C85.6366638,41.7321075 85.8746638,42.0171075 86.2276638,42.1641075 C88.1516638,42.9711075 90.4596638,43.4351075 92.4566638,44.1761075 C92.4956638,43.7921075 92.5176638,43.4011075 92.5226638,43.0031075 L84.5416638,38.3141075 L84.5336638,38.3151075 C83.9636638,37.9961075 83.5286638,37.7451075 82.9236638,37.4081075 C82.8056638,36.8821075 82.6886638,36.3561075 82.5706638,35.8311075 C82.4866638,35.4571075 82.2496638,35.1731075 81.8956638,35.0251075 C79.7696638,34.1341075 77.1716638,33.6591075 75.0446638,32.7681075 C74.9246638,33.1671075 74.9616638,33.5381075 75.1326638,33.9111075" id="Fill-726" fill="#A42A30"></path><path d="M75.0326638,33.9971075 L83.2716638,38.8391075 L83.2736638,38.8401075 L83.4816638,38.9621075 L83.4896638,38.9611075 C84.0556638,39.2771075 84.5006638,39.5351075 85.0996638,39.8681075 C85.2176638,40.3941075 85.3356638,40.9201075 85.4526638,41.4461075 C85.5366638,41.8191075 85.7746638,42.1031075 86.1276638,42.2521075 C88.0796638,43.0691075 90.4266638,43.5361075 92.4436638,44.2961075 C92.4856638,43.9201075 92.5116638,43.5371075 92.5206638,43.1481075 L84.4416638,38.4011075 L84.4336638,38.4021075 C83.8636638,38.0831075 83.4286638,37.8321075 82.8236638,37.4951075 C82.7056638,36.9691075 82.5876638,36.4431075 82.4706638,35.9181075 C82.3866638,35.5441075 82.1496638,35.2601075 81.7956638,35.1121075 C79.6686638,34.2211075 77.0716638,33.7471075 74.9446638,32.8561075 C74.8236638,33.2541075 74.8616638,33.6251075 75.0326638,33.9971075" id="Fill-727" fill="#D8242C"></path><path d="M83.4256638,38.5801075 C83.3566638,38.4591075 83.3616638,38.3261075 83.4366638,38.2841075 C83.5116638,38.2411075 83.6276638,38.3041075 83.6966638,38.4251075 C83.7656638,38.5461075 83.7606638,38.6781075 83.6856638,38.7211075 C83.6106638,38.7631075 83.4946638,38.7001075 83.4256638,38.5801075" id="Fill-728" fill="#494C49"></path><path d="M47.7666638,48.4491075 L47.7586638,48.3831075 L47.7476638,48.3891075 L47.4686638,51.2611075 L47.7666638,51.0971075 L47.7666638,51.7581075 L47.4006638,51.9591075 L47.3016638,52.9791075 L46.6336638,53.3481075 L47.2846638,47.5781075 L47.7666638,47.3121075 L47.7666638,48.4491075 Z M48.0646638,50.9331075 L47.7666638,48.4491075 L47.7666638,47.3121075 L48.2016638,47.0731075 L48.8936638,52.1031075 L48.2456638,52.4601075 L48.1366638,51.5541075 L47.7666638,51.7581075 L47.7666638,51.0971075 L48.0646638,50.9331075 L48.0646638,50.9331075 Z" id="Fill-729" fill="#FFFFFE"></path><path d="M50.3996638,51.2741075 L49.3956638,51.8261075 L49.3956638,46.4151075 L50.3826638,45.8721075 L50.3996638,45.8621075 L50.3996638,46.5131075 C50.3766638,46.5231075 50.3506638,46.5351075 50.3236638,46.5501075 L50.0896638,46.6781075 L50.0896638,48.2221075 L50.3466638,48.0811075 C50.3646638,48.0711075 50.3836638,48.0591075 50.3996638,48.0481075 L50.3996638,48.6701075 L50.3826638,48.6791075 L50.0896638,48.8401075 L50.0896638,50.8051075 L50.3366638,50.6691075 C50.3586638,50.6571075 50.3796638,50.6441075 50.3996638,50.6301075 L50.3996638,51.2741075 Z M51.3216638,46.7441075 C51.3216638,47.3271075 51.1876638,47.7571075 50.9226638,48.0371075 C51.2476638,47.9871075 51.4086638,48.3241075 51.4086638,49.0451075 L51.4086638,49.1841075 C51.4056638,49.7291075 51.3256638,50.1641075 51.1696638,50.4901075 C51.0136638,50.8161075 50.7576638,51.0761075 50.4046638,51.2711075 L50.3996638,51.2741075 L50.3996638,50.6301075 C50.5046638,50.5571075 50.5796638,50.4601075 50.6266638,50.3391075 C50.6816638,50.1971075 50.7096638,49.9801075 50.7096638,49.6881075 L50.7096638,49.2521075 C50.7096638,48.9781075 50.6876638,48.7961075 50.6416638,48.7061075 C50.5986638,48.6221075 50.5186638,48.6091075 50.3996638,48.6701075 L50.3996638,48.0481075 C50.4896638,47.9871075 50.5496638,47.9101075 50.5806638,47.8161075 C50.6186638,47.7061075 50.6366638,47.5101075 50.6366638,47.2281075 L50.6366638,46.9031075 C50.6346638,46.6951075 50.6116638,46.5681075 50.5636638,46.5231075 C50.5296638,46.4891075 50.4746638,46.4851075 50.3996638,46.5131075 L50.3996638,45.8621075 C50.7316638,45.6831075 50.9666638,45.6471075 51.1066638,45.7551075 C51.2476638,45.8641075 51.3196638,46.1391075 51.3216638,46.5781075 L51.3216638,46.7441075 L51.3216638,46.7441075 Z" id="Fill-730" fill="#FFFFFE"></path><polyline id="Fill-731" fill="#FFFFFE" points="52.3966638 50.1741075 52.3966638 48.0121075 51.6316638 45.1841075 52.2956638 44.8181075 52.7466638 46.5921075 52.7566638 46.5871075 53.1586638 44.3431075 53.8196638 43.9791075 53.0916638 47.6291075 53.0916638 49.7911075 52.3966638 50.1741075"></polyline><path d="M54.0936638,47.7181075 L54.0936638,47.2351075 L54.7516638,46.8731075 L54.7516638,47.4161075 C54.7516638,47.7191075 54.7736638,47.9171075 54.8176638,48.0151075 C54.8596638,48.1151075 54.9416638,48.1311075 55.0606638,48.0651075 C55.1796638,47.9991075 55.2586638,47.9061075 55.2976638,47.7841075 C55.3366638,47.6611075 55.3556638,47.4871075 55.3556638,47.2591075 C55.3556638,47.0321075 55.3216638,46.8531075 55.2526638,46.7211075 C55.1836638,46.5901075 55.0736638,46.4741075 54.9236638,46.3721075 L54.5866638,46.1461075 C54.4286638,46.0381075 54.3066638,45.9041075 54.2196638,45.7421075 C54.1326638,45.5811075 54.0886638,45.3641075 54.0886638,45.0891075 C54.0886638,44.6421075 54.1606638,44.2701075 54.3056638,43.9731075 C54.4506638,43.6761075 54.7016638,43.4291075 55.0556638,43.2341075 C55.4096638,43.0391075 55.6486638,43.0341075 55.7746638,43.2181075 C55.8996638,43.4021075 55.9616638,43.7371075 55.9616638,44.2231075 L55.9616638,44.5591075 L55.3226638,44.9111075 L55.3226638,44.5221075 C55.3226638,44.2601075 55.3026638,44.0831075 55.2646638,43.9911075 C55.2266638,43.8971075 55.1546638,43.8801075 55.0466638,43.9401075 C54.9386638,43.9991075 54.8606638,44.0851075 54.8126638,44.1971075 C54.7656638,44.3101075 54.7426638,44.4521075 54.7426638,44.6241075 C54.7426638,44.7961075 54.7656638,44.9201075 54.8146638,44.9961075 C54.8626638,45.0731075 54.9496638,45.1561075 55.0766638,45.2461075 L55.4516638,45.5221075 C55.6396638,45.6601075 55.7826638,45.8271075 55.8776638,46.0221075 C55.9746638,46.2171075 56.0216638,46.4611075 56.0216638,46.7551075 C56.0216638,47.2611075 55.9506638,47.6741075 55.8076638,47.9951075 C55.6636638,48.3151075 55.4126638,48.5751075 55.0546638,48.7731075 C54.6956638,48.9701075 54.4456638,48.9721075 54.3056638,48.7801075 C54.1646638,48.5881075 54.0936638,48.2341075 54.0936638,47.7181075" id="Fill-732" fill="#FFFFFE"></path><path d="M56.4386638,46.4271075 L56.4386638,45.9441075 L57.0966638,45.5821075 L57.0966638,46.1251075 C57.0966638,46.4281075 57.1186638,46.6261075 57.1626638,46.7241075 C57.2046638,46.8241075 57.2856638,46.8401075 57.4056638,46.7741075 C57.5246638,46.7081075 57.6036638,46.6141075 57.6426638,46.4921075 C57.6816638,46.3701075 57.7006638,46.1961075 57.7006638,45.9681075 C57.7006638,45.7411075 57.6666638,45.5621075 57.5976638,45.4301075 C57.5286638,45.2991075 57.4186638,45.1831075 57.2686638,45.0811075 L56.9316638,44.8551075 C56.7736638,44.7471075 56.6516638,44.6121075 56.5646638,44.4511075 C56.4776638,44.2901075 56.4336638,44.0731075 56.4336638,43.7981075 C56.4336638,43.3501075 56.5056638,42.9791075 56.6506638,42.6821075 C56.7956638,42.3851075 57.0466638,42.1381075 57.4006638,41.9431075 C57.7536638,41.7481075 57.9936638,41.7431075 58.1186638,41.9271075 C58.2446638,42.1101075 58.3066638,42.4461075 58.3066638,42.9321075 L58.3066638,43.2681075 L57.6676638,43.6201075 L57.6676638,43.2311075 C57.6676638,42.9691075 57.6476638,42.7921075 57.6096638,42.7001075 C57.5716638,42.6061075 57.4996638,42.5891075 57.3916638,42.6491075 C57.2836638,42.7081075 57.2056638,42.7941075 57.1576638,42.9061075 C57.1096638,43.0191075 57.0866638,43.1601075 57.0866638,43.3331075 C57.0866638,43.5051075 57.1106638,43.6291075 57.1596638,43.7051075 C57.2076638,43.7821075 57.2946638,43.8651075 57.4216638,43.9541075 L57.7966638,44.2311075 C57.9846638,44.3691075 58.1276638,44.5361075 58.2226638,44.7311075 C58.3196638,44.9251075 58.3666638,45.1701075 58.3666638,45.4641075 C58.3666638,45.9701075 58.2956638,46.3821075 58.1526638,46.7041075 C58.0086638,47.0241075 57.7576638,47.2841075 57.3986638,47.4821075 C57.0396638,47.6791075 56.7906638,47.6811075 56.6496638,47.4891075 C56.5096638,47.2971075 56.4386638,46.9431075 56.4386638,46.4271075" id="Fill-733" fill="#FFFFFE"></path></g></g></g></svg>