<?xml version="1.0" encoding="iso-8859-1"?>
<!-- Generator: Adobe Illustrator 19.0.0, SVG Export Plug-In . SVG Version: 6.00 Build 0)  -->
<svg version="1.1" id="Capa_1" xmlns="http://www.w3.org/2000/svg" xmlns:xlink="http://www.w3.org/1999/xlink" x="0px" y="0px"
	 viewBox="0 0 512 512" style="enable-background:new 0 0 512 512;" xml:space="preserve">
<path style="fill:#F7931E;" d="M200.53,142.166c-28.283,0-55.174,5.931-79.444,16.579c0,0-0.001,0-0.001,0.001
	c-0.788,0.346-1.57,0.703-2.352,1.058l-10.557,5.655C45.781,198.879,7.021,262.779,7.021,332.223v17.05
	c0,29.587,24.637,53.657,54.921,53.657h314.037c10.539,0,19.113-8.574,19.113-19.113v-51.594
	C395.09,227.425,307.812,142.166,200.53,142.166z"/>
<path style="fill:#E0770E;" d="M47.097,295.154c0,16.204,5.179,31.522,14.979,44.298l0.314,0.409l0.33,0.332l0.227,0.37l0.331,0.409
	c6.407,7.906,14.25,14.264,23.312,18.896l11.676,5.969l17.014,3.813l41.431-133.484l-9.751-9.751l-12.889-2.565
	c-4.712-0.938-9.51-1.413-14.262-1.413C79.716,222.441,47.097,255.06,47.097,295.154z"/>
<path style="fill:#7AAB02;" d="M52.153,361.809c-13.55,0-24.572-11.023-24.572-24.572c0-8.274,4.099-15.895,10.988-20.471
	c-1.303-3.052-1.962-6.285-1.962-9.617c0-12.976,10.155-23.742,23.118-24.508l6.99-0.413l1.355,6.87
	c1.719,8.713,4.994,16.923,9.734,24.405l3.743,5.908l-5.342,4.514c-6.043,5.108-9.509,12.519-9.509,20.334
	c0,1.928,0.205,3.843,0.609,5.691l1.234,5.647l-4.964,2.96c-0.581,0.346-1.205,0.763-1.963,1.313l-2.219,1.608l-2.703-0.083
	C55.2,361.669,53.676,361.809,52.153,361.809z"/>
<g>
	<path style="fill:#5F8E03;" d="M68.069,289.097l-1.355-6.87l-6.99,0.413c-4.476,0.265-8.616,1.722-12.12,4.05
		c-0.324,2.778-0.508,5.598-0.508,8.463c0,16.204,5.179,31.522,14.979,44.298l0.314,0.409l0.33,0.332l0.227,0.37l0.331,0.409
		c1.098,1.355,2.254,2.648,3.435,3.91c-0.005-0.209-0.017-0.416-0.017-0.625c0-7.815,3.466-15.227,9.509-20.334l5.342-4.514
		l-3.743-5.908C73.063,306.021,69.788,297.81,68.069,289.097z"/>
	<path style="fill:#5F8E03;" d="M57.782,400.933c-4.705-4.91-7.738-11.286-8.097-18.078c-0.647-12.209,6.712-23.211,17.999-27.366
		c0.188-0.069,0.277-0.275,0.199-0.459c-1.453-3.413-2.189-7.034-2.189-10.773c0-7.808,3.351-15.297,9.194-20.547l5.576-5.011
		c0.143-0.129,0.364-0.119,0.496,0.021l5.135,5.461c7.23,7.689,15.88,13.569,25.708,17.478l4.835,1.923
		c0.135,0.054,0.224,0.185,0.224,0.33v5.36c0,14.124-5.589,27.463-15.739,37.561c-10.073,10.021-23.51,15.727-37.839,16.066
		l-3.38,0.08c-0.099,0.002-0.196-0.037-0.265-0.109L57.782,400.933z"/>
</g>
<path style="fill:#7AAB02;" d="M327.681,143.499l-5.586-11.744c-5.686-11.952-17.949-19.676-31.242-19.676
	c-8.273,0-16.253,2.961-22.524,8.344c-6.558-7.222-15.865-11.353-25.617-11.353c-11.367,0-21.963,5.558-28.442,14.894
	c-5.34-3.184-11.447-4.864-17.693-4.864c-14.974,0-28.1,9.475-32.822,23.633c-3.34-1.041-6.804-1.569-10.304-1.569
	c-19.079,0-34.601,15.522-34.601,34.601c0,9.691,4.114,19.006,11.286,25.555l2.42,2.209l36.2,40.41l177.419-80.012L327.681,143.499z
	"/>
<path style="fill:#5F8E03;" d="M187.385,203.529l-2.42-2.209c-7.172-6.549-11.286-15.863-11.286-25.555
	c0-19.079,15.522-34.601,34.601-34.601c3.5,0,6.964,0.528,10.304,1.569c4.722-14.158,17.848-23.633,32.822-23.633
	c6.246,0,12.352,1.68,17.693,4.864c2.928-4.219,6.702-7.656,11.003-10.169c-4.289,1.403-8.295,3.641-11.775,6.628
	c-6.558-7.222-15.865-11.353-25.617-11.353c-11.367,0-21.963,5.558-28.442,14.894c-5.34-3.184-11.447-4.864-17.693-4.864
	c-14.974,0-28.1,9.475-32.822,23.633c-3.34-1.041-6.804-1.569-10.304-1.569c-19.079,0-34.601,15.522-34.601,34.601
	c0,9.691,4.114,19.006,11.286,25.555l2.42,2.209l36.2,40.41l39.053-17.613L187.385,203.529z"/>
<path style="fill:#E23B3B;" d="M165.555,206.319l-12.889-2.565c-4.712-0.938-9.51-1.413-14.262-1.413
	c-40.094,0-72.713,32.619-72.713,72.713c0,16.204,5.179,31.522,14.979,44.298l0.314,0.409l0.33,0.332l0.227,0.37l0.331,0.409
	c6.407,7.906,14.25,14.264,23.312,18.896l11.676,5.969l17.014,3.813l41.431-133.484L165.555,206.319z"/>
<path style="fill:#537206;" d="M116.861,349.273v-5.36c0-0.145-0.089-0.276-0.224-0.33l-4.835-1.923
	c-9.829-3.908-18.478-9.79-25.708-17.478l-5.135-5.461c-0.132-0.14-0.353-0.149-0.496-0.021l-5.576,5.011
	c-5.733,5.15-9.058,12.457-9.182,20.104c5.926,6.598,12.936,11.99,20.885,16.054l11.676,5.969l14.7,3.295
	C115.516,362.891,116.861,356.177,116.861,349.273z"/>
<path style="fill:#BF1616;" d="M140.523,328.135l29.926-96.415c-6.876-3.438-14.629-5.384-22.84-5.384
	c-28.25,0-51.15,22.9-51.15,51.15C96.459,303.328,115.629,324.683,140.523,328.135z"/>
<path style="fill:#FCC062;" d="M81.061,402.93l16.434-14.11c11.67-10.02,18.363-24.434,18.363-39.547v-17.05
	c0-104.798,87.28-190.057,194.561-190.057s194.56,85.259,194.56,190.057v51.594c0,10.539-8.574,19.113-19.113,19.113H81.061z"/>
<path style="fill:#F9B52B;" d="M168.25,349.273v-17.05c0-96.121,73.428-175.791,168.365-188.328
	c-8.571-1.132-17.313-1.729-26.196-1.729c-107.281,0-194.561,85.259-194.561,190.057v17.05c0,15.112-6.693,29.527-18.363,39.547
	l-16.434,14.11h52.391l16.434-14.11C161.557,378.799,168.25,364.385,168.25,349.273z"/>
<g>
	<circle style="fill:#F7931E;" cx="221.649" cy="240.955" r="12.537"/>
	<circle style="fill:#F7931E;" cx="322.946" cy="240.955" r="12.537"/>
	<circle style="fill:#F7931E;" cx="371.087" cy="292.105" r="12.537"/>
	<circle style="fill:#F7931E;" cx="274.805" cy="292.105" r="12.537"/>
	<circle style="fill:#F7931E;" cx="407.193" cy="240.955" r="12.537"/>
	<circle style="fill:#F7931E;" cx="221.649" cy="338.24" r="12.537"/>
	<circle style="fill:#F7931E;" cx="322.946" cy="338.24" r="12.537"/>
	<circle style="fill:#F7931E;" cx="407.193" cy="338.24" r="12.537"/>
</g>
<path style="fill:#FCC062;" d="M121.088,158.745l-0.002,0.001L121.088,158.745z"/>
<path d="M450.926,201.976L450.926,201.976c-2.811,2.811-2.97,7.344-0.311,10.299c28.834,32.056,46.341,74.043,46.341,119.947v51.594
	c0,6.124-4.965,11.089-11.089,11.089H102.723c12.963-11.131,21.159-27.46,21.159-45.634v-17.05
	c0-100.374,83.681-182.033,186.538-182.033c40.505,0,78.029,12.672,108.645,34.156c2.999,2.104,7.066,1.776,9.656-0.814l0,0
	c3.3-3.3,2.836-8.788-0.983-11.47c-27.78-19.507-60.815-32.293-96.599-35.881c-4.665-18.119-21.002-31.123-40.286-31.123
	c-7.812,0-15.405,2.193-21.959,6.268c-7.36-5.956-16.593-9.277-26.182-9.277c-11.606,0-22.543,4.815-30.349,13.135
	c-4.984-2.044-10.342-3.106-15.786-3.106c-15.837,0-29.956,8.813-36.995,22.518c-2.026-0.301-4.073-0.453-6.131-0.453
	c-14.337,0-27.004,7.286-34.493,18.351c-0.331,0.095-0.659,0.207-0.982,0.351c-34.68,15.473-64.091,40.165-85.056,71.405
	C11.383,256.341,0,293.678,0,332.223v17.05c0,32.766,26.653,59.531,59.834,60.626c0.112,0.005,0.224,0.028,0.335,0.028
	c0.082,0,0.164-0.011,0.247-0.013c0.508,0.012,1.014,0.038,1.524,0.038h423.926c14.433,0,26.134-11.7,26.134-26.134v-51.595
	c0-49.728-18.937-95.211-50.13-129.923C458.977,199.081,453.987,198.915,450.926,201.976z M153.45,149.187
	c2.818,0,5.605,0.445,8.284,1.323c1.908,0.626,3.986,0.462,5.771-0.452c1.786-0.915,3.133-2.505,3.74-4.417
	c3.52-11.076,13.699-18.518,25.331-18.518c4.92,0,9.726,1.356,13.897,3.922c3.435,2.112,7.925,1.142,10.179-2.203
	c4.958-7.357,13.204-11.748,22.059-11.748c7.616,0,14.882,3.284,19.932,9.009c1.32,1.497,3.181,2.408,5.174,2.531
	c1.996,0.123,3.952-0.55,5.448-1.871c4.86-4.296,11.106-6.661,17.587-6.661c10.547,0,19.71,6.089,23.996,15.099
	c-1.473-0.031-2.949-0.055-4.43-0.055c-58.615,0-111.459,24.593-148.326,63.77c-7.642-2.377-15.589-3.594-23.686-3.594
	c-0.96,0-1.91,0.039-2.86,0.072c-5.514-5.035-8.673-12.155-8.673-19.63C126.872,161.109,138.795,149.187,153.45,149.187z
	 M138.405,210.366c4.299,0,8.54,0.432,12.696,1.259c-26.477,33.356-42.264,75.205-42.264,120.598v0.403
	c-8.125-4.153-15.144-9.911-20.731-16.804c-0.307-0.499-0.67-0.949-1.07-1.351c-8.448-11.015-13.321-24.744-13.321-39.415
	C73.716,239.386,102.736,210.366,138.405,210.366z M44.136,391.48c-17.053-6.836-29.092-23.176-29.092-42.208v-17.05
	c0-66.622,37.627-127.932,96.921-159.691c-0.082,1.068-0.137,2.144-0.137,3.232c0,7.918,2.27,15.578,6.402,22.15
	c-34.227,8.958-59.557,40.145-59.557,77.141c0,0.204,0.01,0.406,0.011,0.609c-16.257,1.279-29.096,14.906-29.096,31.485
	c0,2.437,0.274,4.834,0.819,7.17c-6.247,5.907-9.846,14.124-9.846,22.918c0,15.057,10.591,27.68,24.713,30.829
	c-1.714,4.125-2.649,8.626-2.649,13.3C42.625,384.845,43.15,388.244,44.136,391.48z M55.264,353.495
	c-1.015,0.193-2.062,0.291-3.111,0.291c-9.125,0-16.548-7.424-16.548-16.548c0-5.668,2.859-10.882,7.648-13.947
	c3.136-2.007,4.332-6.006,2.813-9.405c-0.952-2.13-1.435-4.397-1.435-6.737c0-8.794,6.9-15.987,15.567-16.498
	c1.926,9.763,5.631,18.943,10.828,27.146c-7.683,6.493-12.353,16.161-12.353,26.462c0,2.516,0.267,4.991,0.794,7.405
	c-0.887,0.529-1.733,1.107-2.562,1.708C56.364,353.354,55.816,353.391,55.264,353.495z M63.093,394.878
	c-3.47-3.623-5.424-8.425-5.424-13.512c0-8.449,5.388-15.91,13.407-18.564c2.037-0.675,3.69-2.187,4.54-4.158
	c0.851-1.97,0.82-4.209-0.084-6.156c-1.206-2.592-1.817-5.361-1.817-8.231c0-5.62,2.455-10.915,6.533-14.579
	c7.837,8.333,17.519,15.034,28.589,19.436v0.156C108.838,374.059,88.42,394.28,63.093,394.878z"/>
<g>
</g>
<g>
</g>
<g>
</g>
<g>
</g>
<g>
</g>
<g>
</g>
<g>
</g>
<g>
</g>
<g>
</g>
<g>
</g>
<g>
</g>
<g>
</g>
<g>
</g>
<g>
</g>
<g>
</g>
</svg>
