<svg id="Capa_1" enable-background="new 0 0 512 512" height="512" viewBox="0 0 512 512" width="512" xmlns="http://www.w3.org/2000/svg"><g><g><path d="m172.428 28.279h-55.221c-33.461 0-60.586 27.125-60.586 60.586 0 33.461 27.125 60.586 60.586 60.586 4.29 0 8.24 2.335 10.308 6.094l6.995 12.715c4.47 8.126 16.146 8.126 20.616 0l6.995-12.715c2.068-3.759 6.018-6.094 10.308-6.094 33.461 0 60.586-27.125 60.586-60.586 0-33.461-27.126-60.586-60.587-60.586z" fill="#50e1cd"/><path d="m339.572 28.279h55.221c33.461 0 60.586 27.125 60.586 60.586 0 33.461-27.125 60.586-60.586 60.586-4.29 0-8.24 2.335-10.308 6.094l-6.995 12.715c-4.47 8.126-16.146 8.126-20.616 0l-6.995-12.715c-2.068-3.759-6.018-6.094-10.308-6.094-33.461 0-60.586-27.125-60.586-60.586 0-33.461 27.126-60.586 60.587-60.586z" fill="#50e1cd"/><path d="m299.229 483.721c0-37.3 31.415-64.042 31.415-64.042h79.365s31.415 26.742 31.415 64.042z" fill="#93bbe7"/><path d="m286.169 264.759c-12.763.009-19.444-15.266-10.687-24.561 23.323-24.749 56.282-40.332 92.812-40.682 71.813-.701 130.581 58.836 130.581 130.649z" fill="#e8a882"/><path d="m236.518 240.198c-23.323-24.749-56.282-40.332-92.812-40.682-71.813-.701-130.581 58.836-130.581 130.649v54.343c0 31.267 25.347 56.614 56.614 56.614h32.251v-21.443l123.84-154.92c12.764.009 19.445-15.266 10.688-24.561z" fill="#6a647f"/><path d="m70.512 320.316c0-59.773 40.205-109.399 93.005-119.086-6.457-1.063-13.072-1.649-19.81-1.714-71.813-.701-130.581 58.836-130.581 130.649v54.343c0 31.267 25.347 56.614 56.614 56.614h32.251v-21.443l6.744-8.436c-23.426-22.144-38.223-54.668-38.223-90.927z" fill="#5c586f"/><path d="m212.771 483.721c0-37.3-31.415-64.042-31.415-64.042h-79.365s-31.415 26.742-31.415 64.042z" fill="#fdd89f"/><path d="m241.832 328.807c0 55.154-44.911 99.817-100.159 99.407-14.139-.103-27.56-3.144-39.682-8.535-34.804-15.446-58.964-50.284-58.964-90.872 0-11.51 1.957-22.561 5.556-32.84 6.571-18.769 24.458-31.207 44.344-31.207h132.905c14.59 17.299 16 39.648 16 64.047z" fill="#da9d81"/><circle cx="470.68" cy="330.518" fill="#ffcabd" r="33.82"/><path d="m388.929 201c-6.726-1.038-13.617-1.552-20.635-1.483-36.53.35-69.489 15.933-92.812 40.682-8.757 9.295-2.076 24.57 10.688 24.561l14.14 4.348c16.676-34.062 49.238-59.645 88.619-68.108z" fill="#e3986d"/><path d="m270.168 328.807c0 55.154 44.911 99.817 100.159 99.407 14.139-.103 27.56-3.144 39.682-8.535 34.804-15.446 58.964-50.284 58.964-90.872 0-11.51-1.957-22.561-5.556-32.84-6.571-18.769-24.458-31.207-44.344-31.207h-132.904c-14.591 17.299-16.001 39.648-16.001 64.047z" fill="#ffdcce"/><path d="m70.512 320.316c0-19.563 4.312-38.038 11.957-54.384-15.482 3.501-28.495 14.633-33.887 30.034-.176.502-.329 1.015-.497 1.521-2.03-.512-4.273-.789-6.765-.789-18.678 0-33.82 15.142-33.82 33.82s15.141 33.82 33.82 33.82c2.932 0 5.529-.374 7.826-1.075 9.276 25.204 28.435 45.583 52.845 56.416 8.978 3.992 18.669 6.692 28.835 7.868-35.837-20.134-60.314-60.594-60.314-107.231z" fill="#c7856a"/><path d="m288.259 321.049c0-20.284 5.156-39.42 14.283-56.29h-16.373c-14.592 17.3-16.001 39.648-16.001 64.047 0 48.445 34.651 88.792 80.521 97.613-37.418-21.561-62.43-60.683-62.43-105.37z" fill="#ffcabd"/><path d="m88.321 76.031c0-17.375 6.317-33.458 17.048-46.588-27.792 5.507-48.748 30.014-48.748 59.422 0 33.461 27.125 60.587 60.586 60.587 4.29 0 8.24 2.335 10.308 6.094l6.995 12.715c4.47 8.125 16.146 8.125 20.616 0l5.343-9.711c-39.198-12.249-72.148-46.934-72.148-82.519z" fill="#00d1b3"/></g><g><path d="m105.531 313.522c-4.142 0-7.5 3.358-7.5 7.5v10.251c0 4.142 3.358 7.5 7.5 7.5s7.5-3.358 7.5-7.5v-10.251c0-4.142-3.358-7.5-7.5-7.5z"/><path d="m212.226 313.522c-4.142 0-7.5 3.358-7.5 7.5v10.251c0 4.142 3.358 7.5 7.5 7.5s7.5-3.358 7.5-7.5v-10.251c0-4.142-3.358-7.5-7.5-7.5z"/><path d="m177.871 325.314c-3.122-2.721-7.859-2.396-10.581.727-2.124 2.437-5.19 3.835-8.411 3.835s-6.287-1.398-8.411-3.835c-2.722-3.122-7.459-3.448-10.581-.727-3.123 2.721-3.448 7.459-.727 10.581 4.973 5.707 12.161 8.98 19.719 8.98s14.745-3.273 19.719-8.98c2.721-3.122 2.395-7.86-.727-10.581z"/><path d="m406.449 313.522c-4.142 0-7.5 3.358-7.5 7.5v10.251c0 4.142 3.358 7.5 7.5 7.5s7.5-3.358 7.5-7.5v-10.251c0-4.142-3.358-7.5-7.5-7.5z"/><path d="m299.754 313.522c-4.142 0-7.5 3.358-7.5 7.5v10.251c0 4.142 3.358 7.5 7.5 7.5s7.5-3.358 7.5-7.5v-10.251c0-4.142-3.358-7.5-7.5-7.5z"/><path d="m372.093 325.314c-3.122-2.721-7.859-2.396-10.581.727-2.124 2.437-5.19 3.835-8.411 3.835s-6.287-1.398-8.411-3.835c-2.722-3.122-7.459-3.448-10.581-.727-3.123 2.721-3.448 7.459-.727 10.581 4.973 5.707 12.16 8.98 19.719 8.98 7.558 0 14.745-3.273 19.719-8.98 2.721-3.122 2.396-7.86-.727-10.581z"/><path d="m144.814 81.291c-4.188 0-7.583 3.395-7.583 7.583s3.395 7.583 7.583 7.583 7.583-3.395 7.583-7.583-3.395-7.583-7.583-7.583z"/><path d="m112.938 81.291c-4.188 0-7.583 3.395-7.583 7.583s3.395 7.583 7.583 7.583 7.583-3.395 7.583-7.583-3.395-7.583-7.583-7.583z"/><path d="m176.69 81.291c-4.188 0-7.583 3.395-7.583 7.583s3.395 7.583 7.583 7.583 7.583-3.395 7.583-7.583-3.395-7.583-7.583-7.583z"/><path d="m172.423 20.791h-55.218c-37.541 0-68.083 30.542-68.083 68.083s30.542 68.083 68.083 68.083c1.555 0 2.987.847 3.736 2.209l6.994 12.715c7.309 13.286 26.448 13.286 33.757 0l6.994-12.714c.749-1.363 2.182-2.209 3.737-2.209 37.541 0 68.083-30.542 68.083-68.083s-30.542-68.084-68.083-68.084zm0 121.167c-7.025 0-13.492 3.824-16.879 9.979l-6.994 12.714c-1.623 2.951-5.853 2.945-7.473 0l-6.994-12.715c-3.386-6.155-9.853-9.978-16.879-9.978-29.27 0-53.084-23.813-53.084-53.084s23.814-53.084 53.085-53.084h55.218c29.27 0 53.084 23.813 53.084 53.084s-23.813 53.084-53.084 53.084z"/><path d="m367.166 96.457c4.188 0 7.583-3.395 7.583-7.583s-3.395-7.583-7.583-7.583-7.583 3.395-7.583 7.583 3.395 7.583 7.583 7.583z"/><path d="m399.042 96.457c4.188 0 7.583-3.395 7.583-7.583s-3.395-7.583-7.583-7.583-7.583 3.395-7.583 7.583 3.395 7.583 7.583 7.583z"/><path d="m335.291 96.457c4.188 0 7.583-3.395 7.583-7.583s-3.395-7.583-7.583-7.583-7.583 3.395-7.583 7.583 3.395 7.583 7.583 7.583z"/><path d="m339.557 156.957c1.555 0 2.987.847 3.736 2.209l6.994 12.715c7.31 13.285 26.448 13.287 33.757 0l6.994-12.714c.749-1.363 2.182-2.209 3.737-2.209 37.541 0 68.083-30.542 68.083-68.083s-30.542-68.083-68.083-68.083h-55.218c-37.541 0-68.083 30.542-68.083 68.083s30.542 68.082 68.083 68.082zm0-121.167h55.218c29.27 0 53.084 23.813 53.084 53.084s-23.813 53.084-53.084 53.084c-7.025 0-13.492 3.824-16.879 9.979l-6.994 12.714c-1.623 2.951-5.852 2.945-7.473 0l-6.994-12.715c-3.386-6.155-9.853-9.978-16.878-9.978-29.27 0-53.084-23.813-53.084-53.084s23.814-53.084 53.084-53.084z"/><path d="m69.739 448.612h1.569c-4.74 10.07-8.232 21.936-8.232 35.097 0 4.142 3.358 7.5 7.5 7.5h142.188c4.142 0 7.5-3.358 7.5-7.5 0-27.949-15.613-50.034-25.803-61.469 32.971-18.431 54.863-53.418 54.863-93.437 0-21.504-.998-42.3-11.487-60.027 10.884-7.012 14.177-23.058 4.132-33.72-44.294-47.003-111.694-54.767-163.394-26.898-3.646 1.965-5.009 6.514-3.043 10.16s6.517 5.009 10.16 3.043c46.429-25.027 106.264-17.507 145.36 23.981 2.931 3.111 1.751 6.609 1.32 7.607-1.97 4.555-6.646 4.365-6.546 4.311-6.341 0-132.713-.002-132.995.002-21.299.031-40.894 12.507-49.632 31.978-5.15-.232-10.947.527-16.423 2.582 6.787-20.607 18.992-39.323 35.418-53.97 3.092-2.756 3.363-7.497.607-10.588-2.757-3.092-7.498-3.363-10.589-.606-23.451 20.91-39.216 49.236-44.542 79.931-9.498 13.319-10.168 30.793-2.04 44.702v33.213c-.001 35.349 28.759 64.108 64.109 64.108zm-31.385-144.25c-1.816 7.713-2.826 16.086-2.826 24.44.042.547-.315 13.108 3.682 27.935-21.052-1.675-31.581-26.363-18.371-42.727 4.212-5.21 10.071-8.665 17.515-9.648zm31.385 129.251c-27.08 0-49.111-22.031-49.111-49.111v-18.217c6.892 3.988 15.215 6.077 23.841 5.425 8.999 20.542 24.714 38.496 44.919 49.973-2.821 3.131-6.121 7.143-9.421 11.93zm135.05 42.597h-19.482v-15.57c0-4.142-3.358-7.5-7.5-7.5s-7.5 3.358-7.5 7.5v15.57h-57.277v-15.57c0-4.142-3.358-7.5-7.5-7.5s-7.5 3.358-7.5 7.5v15.57h-19.478c2.903-22.909 18.28-40.821 25.071-47.735 23.149 9.158 51.148 9.962 76.513.417 6.954 7.143 21.814 24.764 24.653 47.318zm-99.755-63.393c-.001 0-.002-.001-.003-.001-43.514-19.31-65.171-69.182-49.37-114.373 5.483-15.661 20.458-26.184 37.263-26.184h129.257c11.171 15.304 12.141 35.481 12.141 56.544.001 65.686-66.763 110.862-129.288 84.014z"/><path d="m317.52 422.24c-10.19 11.436-25.803 33.52-25.803 61.469 0 4.142 3.358 7.5 7.5 7.5h142.187c4.142 0 7.5-3.358 7.5-7.5 0-28.435-16.252-50.863-26.315-62.029 20.166-11.504 35.776-29.171 44.881-49.989 35.049 2.738 56.985-36.856 36.84-65.105-5.514-31.797-22.103-60.844-46.866-81.957-3.152-2.687-7.885-2.311-10.573.841-2.687 3.152-2.311 7.885.841 10.573 17.506 14.926 30.438 34.287 37.502 55.782-5.298-1.989-11.039-2.829-16.433-2.586-8.651-19.263-28.108-31.98-49.726-31.98h-132.897c-.001 0-.001 0-.002 0h-.003c-.002 0-.003 0-.005 0-6.207 0-9.446-7.429-5.219-11.917 38.194-40.529 96.519-48.872 142.816-25.313 3.691 1.878 8.207.409 10.085-3.283 1.879-3.691.409-8.207-3.283-10.085-52.444-26.689-117.933-16.813-160.535 28.395-10.029 10.645-6.764 26.698 4.133 33.72-10.489 17.727-11.487 38.522-11.487 60.026 0 39.892 21.814 74.963 54.862 93.438zm96.429 53.97v-15.57c0-4.142-3.358-7.5-7.5-7.5s-7.5 3.358-7.5 7.5v15.57h-57.277v-15.57c0-4.142-3.358-7.5-7.5-7.5s-7.5 3.358-7.5 7.5v15.57h-19.482c2.839-22.553 17.699-40.173 24.652-47.318 25.076 9.436 52.839 8.867 76.527-.423 6.802 6.89 22.173 24.734 25.062 47.741zm-43.693-55.505c-51.044.362-92.599-40.816-92.599-91.902 0-21.063.97-41.24 12.142-56.544 135.208 1.413 134.197-3.673 149.775 5.687 14.475 8.706 17.726 23.522 17.171 21.806 19.777 59.342-24.324 120.502-86.489 120.953zm102.512-63.956c2.537-9.41 3.588-18.429 3.684-27.946 0-7.952-.931-16.4-2.826-24.44 14.561 2.018 23.351 13.743 23.351 26.152.001 13.801-10.679 25.156-24.209 26.234z"/></g></g></svg>