<?xml version="1.0" encoding="UTF-8"?>
<svg width="464px" height="365px" viewBox="0 0 464 365" version="1.1" xmlns="http://www.w3.org/2000/svg" xmlns:xlink="http://www.w3.org/1999/xlink">
    <!-- Generator: Sketch 55.2 (78181) - https://sketchapp.com -->
    <title>Group 4</title>
    <desc>Created with Sketch.</desc>
    <g id="Page-1" stroke="none" stroke-width="1" fill="none" fill-rule="evenodd">
        <g id="Group-4" transform="translate(232.000000, 182.500000) scale(1, -1) translate(-232.000000, -182.500000) translate(-0.000000, 0.000000)" fill-rule="nonzero">
            <path d="M42.6968916,309.72007 C41.0702249,312.00007 31.0435585,305.84007 29.0168919,303.906737 C16.2168922,291.760071 4.27022587,295.226737 0.590225957,286.746737 C-4.86310724,274.186738 29.0168919,289.520071 38.6968917,299.213404 C41.4702249,301.986737 44.5768915,307.066737 42.6968916,309.72007" id="path874" fill="#573A0C"></path>
            <path d="M287.016885,305.426737 C286.536885,324.413403 254.95022,339.733403 216.030221,339.733403 C177.110222,339.733403 145.523556,324.413403 145.043556,305.426737 L217.603554,274.040071 L287.016885,305.426737" id="path876" fill="#FDD089"></path>
            <path d="M421.736882,216.000073 C429.376882,227.266739 433.870215,241.053405 432.110215,254.533405 C431.296882,260.866742 428.016882,269.400071 423.670215,274.040071 C426.843549,272.013405 429.736882,269.533405 432.190215,266.600071 C447.670215,248.026738 440.803548,218.786739 425.510215,200.053406 C410.230216,181.30674 388.430216,169.200074 370.416883,153.053408 C361.48355,145.053408 352.656884,134.680075 345.763551,124.866742 C345.816884,130.400075 343.243551,166.546741 343.243551,166.546741 C359.816884,169.66674 378.64355,178.080074 392.470216,187.866742 C403.563549,195.733406 414.110216,204.720073 421.736882,216.000073" id="path878" fill="#AE7418"></path>
            <path d="M339.910217,253.160072 C337.683551,244.333405 341.763551,234.253405 349.576884,229.506739 C354.550217,226.466739 357.230217,220.053406 355.88355,214.360073 C354.52355,208.680073 349.270217,204.14674 343.430217,203.680073 L343.243551,203.653406 C340.096884,222.840072 334.136884,240.973405 323.123551,255.786738 C331.110218,276.693404 348.563551,285.213404 369.550217,293.000071 C396.136883,302.84007 429.576882,302.76007 448.976881,282.120071 C464.736881,265.400071 466.843548,239.066739 459.083548,217.453406 C451.323548,195.840073 435.256882,178.240074 418.016882,163.106741 C400.750216,147.946741 381.870216,134.560075 366.04355,117.946742 C364.710217,116.546742 363.310217,114.946742 363.24355,113.026742 C363.176884,109.613409 366.976883,107.720075 369.736883,105.733409 C379.416883,98.8667422 378.750217,82.1734093 369.056883,75.2667428 C362.390217,70.5334096 353.123551,70.8934096 346.043551,74.9467428 C346.216884,92.9467423 346.376884,108.493409 346.550217,126.253408 C353.456884,136.080075 361.48355,145.053408 370.416883,153.053408 C388.430216,169.200074 410.230216,181.30674 425.510215,200.053406 C440.803548,218.786739 447.670215,248.026738 432.190215,266.600071 C429.736882,269.533405 426.843549,272.013405 423.670215,274.040071 L423.643549,274.066738 C413.176882,280.813404 399.443549,282.720071 386.950216,280.680071 C377.336883,279.093404 370.96355,277.173404 364.44355,274.066738 L364.416884,274.066738 C356.030217,271.386738 342.150217,262.013405 339.910217,253.160072" id="path880" fill="#FBB03B"></path>
            <path d="M346.550217,126.253408 C346.456884,126.120075 346.350217,125.973408 346.243551,125.840075 C346.376884,108.053409 345.910217,80.6667426 345.910217,60.5200765 C345.910217,30.4800772 322.723551,10.3200777 295.150219,5.57341119 C250.47022,-2.15992195 221.55022,0.106744661 177.750222,1.0534113 C150.723556,1.64007796 115.070223,8.90674444 98.1768902,30.0134106 C89.6568904,40.600077 86.3768905,54.0400766 84.6302239,67.7200763 C84.6302239,107.293409 91.8302237,182.173407 93.5902236,192.093407 C94.8168903,216.573406 101.910223,253.160072 118.870223,270.706738 C125.53689,277.586738 134.656889,284.773404 144.056889,286.773404 C157.923555,286.053404 240.39022,286.053404 286.816885,286.053404 C347.616884,267.613405 347.110217,185.200073 346.550217,126.253408" id="path882" fill="#FFBCD2"></path>
            <path d="M143.096889,286.546738 C143.110222,286.560071 143.136889,286.560071 143.150222,286.573404 C143.136889,286.560071 143.110222,286.560071 143.096889,286.546738 M143.203556,286.573404 C143.230222,286.586737 143.243556,286.586737 143.270222,286.600071 L143.270222,286.600071 C143.243556,286.586737 143.230222,286.586737 143.203556,286.573404" id="path886" fill="#FFBCD2"></path>
            <path d="M228.203554,7.79970265e-05 C225.016887,7.79970265e-05 221.816887,0.026744663 218.590221,0.080077995 C218.510221,0.080077995 218.430221,0.080077995 218.336887,0.080077995 C218.310221,0.080077995 218.283554,0.080077995 218.256887,0.080077995 C213.963554,0.14674466 209.616887,0.240077991 205.176888,0.346744655 C220.15022,0.94674464 235.67022,2.44007794 253.79022,5.57341119 C281.363552,10.3200777 304.536885,30.4800772 304.536885,60.5200765 C304.536885,80.6667426 305.016885,108.053409 304.883552,125.840075 C304.990218,125.973408 305.083552,126.120075 305.190218,126.253408 C305.550218,164.813407 305.896885,213.426739 289.070219,247.586738 C289.123552,247.733405 289.176888,247.880072 289.216885,248.026738 C291.936885,255.880072 295.016885,264.786738 299.016885,265.773405 C299.243552,265.826738 299.483552,265.853405 299.736885,265.853405 C303.403552,265.853405 309.443552,260.133405 314.803551,255.040072 C321.296885,248.880072 327.456884,243.013405 332.550218,243.013405 C345.016884,214.293406 346.656884,176.800074 346.656884,143.560074 C346.656884,137.640075 346.603551,131.840075 346.550217,126.253408 L346.550217,126.253408 L346.550217,126.253408 C346.456884,126.120075 346.350217,125.973408 346.243551,125.840075 L346.243551,125.840075 L346.243551,125.840075 C346.270217,123.613408 346.270217,121.240075 346.270217,118.746742 C346.270217,101.320075 345.910217,78.1467427 345.910217,60.5200765 C345.910217,30.4800772 322.723551,10.3200777 295.150219,5.57341119 L295.150219,5.57341119 C291.683552,4.97341121 288.310219,4.44007789 285.016886,3.94674457 C264.043553,0.866744642 246.336886,7.79970265e-05 228.203554,7.79970265e-05 M331.776884,244.760072 C331.616884,245.106739 331.456884,245.453405 331.296884,245.786739 C327.270218,246.800072 321.656885,252.120072 316.603551,256.920072 C310.376885,262.840071 304.483552,268.453405 299.723552,268.453405 C299.270218,268.453405 298.830219,268.400071 298.403552,268.293405 C293.376885,267.066738 290.403552,259.360072 287.416885,250.786738 C283.816886,257.453405 279.510219,263.520071 274.336886,268.760072 C274.496886,268.800071 274.656886,268.826738 274.816886,268.853405 C284.496886,270.853405 286.443552,273.906738 286.816885,281.546738 C286.870219,282.800071 286.910219,284.333404 286.936885,286.013404 C308.976885,279.293404 322.950218,264.146738 331.776884,244.760072 M143.256889,286.226738 C142.803556,286.226738 142.363556,286.226738 141.910222,286.226738 C142.310222,286.346738 142.696889,286.453404 143.096889,286.546738 C143.110222,286.560071 143.136889,286.560071 143.150222,286.573404 C143.163556,286.573404 143.190222,286.573404 143.203556,286.573404 C143.230222,286.586737 143.243556,286.586737 143.270222,286.600071 C143.270222,286.466738 143.256889,286.346738 143.256889,286.226738" id="path888" fill="#FF8BAD"></path>
            <path d="M331.296884,245.786739 C327.270218,246.800072 321.656885,252.120072 316.603551,256.920072 C309.790218,263.400071 303.363552,269.506738 298.403552,268.293405 C293.016885,266.973405 289.976885,258.186738 286.763552,248.880072 C284.136886,241.293405 281.163552,232.680072 277.523552,232.066739 C273.363552,231.346739 267.430219,238.920072 262.176886,245.586739 C256.39022,252.933405 250.883553,259.853405 245.896886,259.400072 C240.323553,258.880072 235.976887,250.626738 231.376887,241.866739 C227.656887,234.800072 223.443554,226.786739 219.79022,226.746739 L219.75022,226.746739 C215.483554,226.746739 210.776887,235.200072 206.616887,242.653405 C202.110221,250.746738 197.856888,258.386738 192.896888,258.733405 C187.110221,259.213405 181.470221,251.613405 175.416888,243.653405 C170.643555,237.386739 165.230222,230.346739 161.776889,230.840072 C157.283557,231.546739 154.016889,241.000072 151.136889,249.333405 C148.070222,258.186738 145.430222,265.840071 140.870222,267.000071 C134.750223,268.573405 126.936889,261.560071 119.41689,254.786738 C113.990223,249.906738 107.81689,244.373405 105.09689,245.373405 C104.77689,245.493405 104.483557,245.626739 104.190223,245.760072 C103.883557,244.946739 103.57689,244.133406 103.283557,243.306739 C103.57689,243.173405 103.883557,243.053405 104.203557,242.933405 C108.430223,241.386739 114.323556,246.693405 121.150223,252.853405 C127.843556,258.880072 135.416889,265.680071 140.230222,264.480071 C143.430222,263.666738 146.216889,255.600072 148.670222,248.480072 C151.950222,239.013405 155.336889,229.226739 161.363555,228.266739 C166.363555,227.480072 171.776888,234.560072 177.483555,242.066739 C182.603555,248.800072 188.510221,256.426738 192.723554,256.133406 C196.270221,255.880072 200.563554,248.186738 204.336888,241.386739 C209.283557,232.520072 213.950221,224.133406 219.736887,224.133406 L219.83022,224.133406 C225.016887,224.200072 229.23022,232.200072 233.683553,240.666739 C237.563553,248.053405 241.976887,256.413405 246.123553,256.813405 C249.803553,257.186738 255.27022,250.146738 260.136886,243.973405 C266.390219,236.040072 272.296886,228.533406 277.963552,229.506739 C283.123552,230.386739 286.083552,238.946739 289.216885,248.026738 C291.936885,255.880072 295.016885,264.786738 299.016885,265.773405 C302.563552,266.640071 309.083552,260.480071 314.803551,255.040072 C321.296885,248.880072 327.456884,243.013405 332.550218,243.013405 C332.150218,243.946739 331.723551,244.866739 331.296884,245.786739" id="path890" fill="#000000"></path>
            <path d="M345.990217,78.400076 C344.296884,74.5067428 343.056884,69.5334096 341.790217,64.4267431 C339.790217,56.3867433 337.510218,47.2667435 333.536884,46.0000768 C329.110218,44.6000769 321.643551,51.0400767 315.056885,56.7334099 C307.750218,63.0667431 300.816885,69.0400763 295.390219,67.706743 C289.456885,66.2534097 285.910219,57.3600766 282.163552,47.9467435 C279.096886,40.2667437 275.630219,31.5600772 271.550219,30.8667439 C266.950219,30.0667439 260.416886,37.5600771 254.696886,44.1734102 C248.39022,51.45341 242.416887,58.3067432 236.91022,57.8000766 C230.79022,57.2267432 225.923554,48.9467434 220.776887,40.1734103 C216.403554,32.7334105 211.883554,25.026744 207.790221,24.9734107 L207.736887,24.9734107 C202.950221,24.9734107 197.710221,33.4534105 193.070221,40.920077 C188.056888,49.0267434 183.323555,56.6667432 177.870222,57.0534099 C171.523555,57.4667432 165.056889,49.6934101 158.750222,42.1467436 C153.283555,35.6267438 147.603556,28.8934106 143.750222,29.5067439 C138.710223,30.2934106 134.896889,39.8667437 131.536889,48.3067435 C128.110223,56.8800766 124.883556,64.986743 119.870223,66.266743 C113.09689,67.986743 104.77689,61.1734098 96.7235569,54.57341 C93.9768903,52.3200767 91.1902237,50.0400767 88.6702238,48.3067435 C88.9768904,47.3467435 89.2968904,46.4134102 89.6302237,45.4800769 C92.3768903,47.2800768 95.3768903,49.7334101 98.5502235,52.33341 C105.69689,58.2000765 113.81689,64.826743 119.163556,63.4667431 C122.750223,62.5600764 125.843556,54.77341 128.856889,47.2267435 C132.683556,37.6267437 136.630223,27.706744 143.296889,26.6534107 C148.843556,25.8000774 154.710222,32.8267438 160.963555,40.2934103 C166.536888,46.9467435 172.896888,54.5067433 177.670224,54.17341 C181.643555,53.89341 186.203555,46.5200768 190.616888,39.400077 C195.896888,30.8934106 201.350221,22.0934108 207.736887,22.0934108 L207.830221,22.0934108 C213.550221,22.1600774 218.270221,30.2000772 223.256887,38.7067437 C227.603554,46.1067435 232.523553,54.49341 237.176887,54.9200766 C241.203553,55.2534099 246.963553,48.6800768 252.51022,42.2800769 C259.336886,34.4000771 265.803553,26.9600773 272.030219,28.0134106 C277.710219,28.9867439 281.176886,37.6800771 284.843552,46.8800768 C288.003552,54.81341 291.590219,63.8134097 296.070219,64.906743 C300.070218,65.8800764 306.723552,60.1200765 313.163551,54.5467433 C321.016885,47.7600768 328.430218,41.3467436 334.403551,43.2534102 C339.923551,45.0000769 342.190217,54.0934108 344.590217,63.7200764 C345.016884,65.4534097 345.456884,67.2134097 345.923551,68.9600763 C345.950217,72.0267429 345.963551,75.1867428 345.990217,78.400076" id="path892" fill="#000000"></path>
            <path d="M162.136889,228.213406 C161.883555,228.213406 161.616889,228.226739 161.363555,228.266739 C155.336889,229.226739 151.950222,239.013405 148.670222,248.480072 C146.216889,255.600072 143.430222,263.666738 140.230222,264.480071 C140.096889,264.506738 139.963556,264.533405 139.830222,264.560071 C140.590222,265.226738 141.376889,265.866738 142.163556,266.466738 C145.963556,264.306738 148.376889,257.306738 151.136889,249.333405 C154.016889,241.000072 157.283555,231.546739 161.776889,230.840072 C161.883555,230.826739 162.003555,230.813406 162.123555,230.813406 C165.590222,230.813406 170.803555,237.600072 175.416888,243.653405 C181.283555,251.373405 186.763555,258.746738 192.376888,258.746738 C192.550221,258.746738 192.723554,258.746738 192.896888,258.733405 C197.856888,258.386738 202.110221,250.746738 206.616887,242.653405 C208.016887,240.146739 209.483554,237.520072 210.963554,235.146739 C211.163554,233.373405 211.323554,231.600072 211.443554,229.800072 C209.030221,232.973406 206.723554,237.120072 204.336888,241.386739 C200.563554,248.186738 196.270221,255.880072 192.723554,256.133405 C192.643554,256.133405 192.563554,256.146738 192.483554,256.146738 C188.283555,256.146738 182.510221,248.680072 177.483555,242.066739 C172.056888,234.946739 166.910222,228.213406 162.136889,228.213406" id="path896" fill="#3D2D32"></path>
            <path d="M346.243551,125.840075 C346.350217,125.973408 346.456884,126.120075 346.550217,126.253408 C346.376884,108.493409 346.216884,92.9467428 346.043551,74.9467428 C342.830217,76.7467427 340.070217,79.3067427 338.203551,82.4800759 C330.230218,95.8667423 337.310218,113.106742 346.243551,125.840075" id="path898" fill="#FBB03B"></path>
            <path d="M145.203556,308.266737 L145.203556,308.08007 C186.163555,286.773404 244.776887,289.306737 286.910219,308.266737 C286.990219,308.213404 287.150219,289.506737 286.816885,281.546738 C286.443552,273.906738 284.496886,270.853405 274.816886,268.853405 C238.176887,261.546738 174.950222,256.386738 143.430222,278.866738 C142.550222,280.613404 144.003556,300.893404 145.203556,308.266737" id="path900" fill="#AE7418"></path>
            <path d="M33.4035585,256.800072 C28.3235586,271.333405 16.3102256,277.773404 1.5768926,282.293404 L10.763559,285.826738 C23.4168921,290.693404 34.4702251,298.960071 42.6968916,309.72007 C77.8568907,276.333404 60.2302245,199.733406 109.963557,181.520073 C117.923556,178.680074 123.870223,174.38674 126.430223,164.560074 C135.030223,130.840075 141.683556,86.6267425 116.403556,62.8667431 C111.190223,59.7467432 104.270223,60.1067432 98.2702235,61.7734098 C24.6435587,81.9600759 49.7235581,209.786739 33.4035585,256.800072" id="path902" fill="#FDD089"></path>
            <path d="M228.563554,331.653403 C220.203554,330.32007 211.856887,330.32007 203.496888,331.653403 C201.576888,341.960069 197.256888,351.973403 198.110221,360.973402 C210.536887,365.560069 221.51022,365.560069 233.95022,360.973402 C234.803553,351.973403 230.483554,341.960069 228.563554,331.653403" id="path904" fill="#DBBEC5"></path>
            <path d="M89.4835571,89.0400758 C89.2168904,89.0400758 88.9502237,89.0667424 88.6702238,89.0934091 C63.9102244,91.7200757 54.8435579,153.893407 54.8435579,153.893407 C57.5502245,162.306741 61.0835578,165.773407 64.936891,165.773407 C74.0035575,165.773407 84.8835572,146.586741 91.123557,127.413408 C97.3635569,108.226742 98.9635568,89.0400758 89.4835571,89.0400758" id="path906" fill="#FEDA99"></path>
            <path d="M192.816888,308.226737 C179.843555,308.226737 166.190222,311.00007 164.190222,316.28007 C160.283555,326.626736 184.510221,330.653403 192.696888,330.653403 C192.750221,330.653403 192.803554,330.653403 192.856888,330.653403 C199.950221,330.60007 217.323554,327.346736 217.323554,316.28007 C217.323554,310.826737 205.390221,308.226737 192.816888,308.226737" id="path908" fill="#FEDA99"></path>
        </g>
    </g>
</svg>