<svg id="Layer_1" enable-background="new 0 0 511.995 511.995" height="512" viewBox="0 0 511.995 511.995" width="512" xmlns="http://www.w3.org/2000/svg"><g><g><g><g><path d="m446.364 468.134c19.891 0 33.578-20.194 25.973-38.573-6.882-16.631-17.214-28.755-4.601-57.023 22.288-49.951 10.291-76.443-9.43-108.515-33.432-54.371-8.989-82.141-21.99-129.241-46.81-169.598-313.825-169.609-360.639 0-13 47.101 11.443 74.87-21.99 129.241-19.721 32.072-31.718 58.564-9.43 108.515 12.613 28.269 2.281 40.393-4.601 57.023-7.605 18.379 6.082 38.573 25.973 38.573z" fill="#735351"/><path d="m467.736 372.537c22.288-49.951 10.291-76.443-9.43-108.515-33.432-54.372-8.989-82.141-21.99-129.241-24.898-90.209-112.097-132.439-195.321-126.684 73.243 5.065 143.409 47.294 165.322 126.685 13 47.101-11.443 74.87 21.99 129.241 19.721 32.072 31.718 58.563 9.43 108.515-12.613 28.269-2.281 40.393 4.601 57.023 7.605 18.379-6.082 38.573-25.973 38.573h30c19.891 0 33.578-20.194 25.973-38.573-6.883-16.631-17.216-28.755-4.602-57.024z" fill="#664442"/><g><g><ellipse cx="392.224" cy="270.686" fill="#fac8a2" rx="30.381" ry="30.523"/></g><g><ellipse cx="119.771" cy="270.686" fill="#fac8a2" rx="30.381" ry="30.523"/></g></g><g><path d="m115.762 504.579v-22.559c0-77.332 62.69-140.022 140.022-140.022h.426c77.332 0 140.022 62.69 140.022 140.022v22.559z" fill="#ff80b3"/><path d="m256.21 341.997h-.426c-4.994 0-9.928.262-14.787.772 70.381 7.387 125.235 66.912 125.235 139.25v22.559h30v-22.559c0-77.331-62.69-140.022-140.022-140.022z" fill="#ff6ba7"/><path d="m256.051 448.79h-.108c-19.618 0-35.521-15.904-35.521-35.521v-57.491h71.151v57.491c0 19.617-15.904 35.521-35.522 35.521z" fill="#ffd8ba"/></g><g><path d="m183.529 105.075c-4.497 45.751-27.728 50.849-42.074 55.825-6.878 2.386-11.472 8.911-11.472 16.221v86.505c0 69.919 56.419 126.6 126.014 126.6 69.596 0 126.014-56.681 126.014-126.6v-80.477c0-9.743-8.053-17.454-17.747-17.169-15.173.445-40.366.56-59.885-18.765-24.882-24.636-39.273-15.864-65.241-16.457-32.465-.741-45.9-15.867-51.345-26.497-1.038-2.027-4.042-1.454-4.264.814z" fill="#ffd8ba"/></g></g><g><g><g><ellipse cx="203.274" cy="249.921" fill="#fff" rx="35.303" ry="35.467"/></g></g><g><g><g><ellipse cx="308.72" cy="249.921" fill="#fff" rx="35.303" ry="35.467"/></g></g></g></g></g><g><path d="m188.269 351.386 31.43 21.984c.447-5.891.084-12.523 1.656-18.253 2.769-10.09 12.286-7.048 17.628 5.191 6.077 13.922 16.886 35.416 9.63 50.422l18.383 20.598-27.54 24.827-19.265-21.576c-6.156.366-12.56-1.193-18.064-4.276-18.665-8.521-31.428-22.727-16.691-44.584 2.783-4.127-15.545-18.828-19.165-26.741-5.238-11.456 7.097-21.149 21.998-7.592z" fill="#ffe6d4"/><path d="m266.664 504.579-39.18-45.182 45.015-38.979 73.165 84.161z" fill="#ffa3c7"/></g></g><g><path d="m475.807 418.955c-5.866-12.61-10.5-22.57-1.222-43.362 23.813-53.369 10.278-82.7-9.89-115.5-31.808-51.302-7.747-77.103-21.148-127.309-8.167-29.588-22.998-55.317-44.082-76.474-2.924-2.935-7.673-2.942-10.606-.019-2.934 2.924-2.942 7.673-.019 10.606 30.254 29.84 48.316 74.776 43.745 116.963-1.057 24.162-2.152 49.147 19.333 84.088 54.331 81.948-20.137 98.735 10.289 157.332 4.067 8.741 7.222 17.311 1.29 26.184-3.894 5.826-10.139 9.167-17.133 9.167h-44.172c-5.58-38.44-26.076-73.121-57.474-96.652 17.003-15.138 30.145-34.557 37.735-56.558 23.701 6.334 47.653-12.254 47.653-36.737 0-21.556-18.796-39.334-40.342-37.943v-49.594c0-13.647-11.803-25.08-25.467-24.666-12.768.37-36.54 1.072-54.388-16.599-21.585-21.37-37.684-20.298-54.727-19.164-4.919.327-10.008.666-15.62.538-27.896-.637-39.782-12.543-44.841-22.42-4.276-8.343-17.47-6.007-18.403 3.502-3.765 38.292-20.774 43.998-34.442 48.582-10.901 3.659-19.14 12.035-19.14 24.198v55.639c-21.636-1.538-40.594 16.263-40.594 37.926 0 24.569 24.117 43.18 47.872 36.678 5.805 16.915 15.116 33.577 27.534 46.564.072 5.07 2.339 9.715 5.354 13.68-8.451 6.886-16.123 14.689-22.876 23.274-5.858 7.447 5.883 16.782 11.79 9.273 6.178-7.854 13.214-14.981 20.971-21.252 1.72 1.907 3.515 3.958 4.628 5.468-13.321 22.681-3.228 41.433 21.328 52.63 5.604 3.082 11.915 4.844 18.133 5.098l8.385 9.301c-4.425 2.887-6.958 7.992-3.442 12.909l39.18 45.182c6.217 7.169 17.58-2.622 11.333-9.827l-34.263-39.511c11.512-9.08 22.498-19.482 33.682-29.166l68.254 78.512c6.157 7.083 17.759-2.436 11.32-9.842l-57.377-66c3.368-6.231 5.126-13.176 5.126-20.39v-22.616c11.997-4.091 23.233-9.852 33.433-17.005 35.302 24.868 56.227 65.009 56.227 108.372v22.559c0 9.385 15 9.813 15 0 0-9.634.275-19.316-.136-28.945h42.768c11.911 0 22.977-5.918 29.604-15.832 8.899-13.313 6.144-27.284-.163-40.842zm-60.701-148.27c0 14.717-14.238 25.985-28.566 22.303 3.341-14.964 3.224-29.987 3.224-45.195 16.233.001 25.342 10.198 25.342 22.892zm-295.083 23.023c-12.617 0-22.881-10.328-22.881-23.023 0-13.536 12.122-24.457 25.594-22.863 0 15.166-.106 30.182 3.21 45.104-1.923.516-3.916.782-5.923.782zm17.712-30.082v-86.505c0-5.664 4.146-8.379 8.91-9.976 13.431-4.505 35.008-11.741 42.616-48.14 14.652 15.82 36.713 18.948 49.958 19.25 6.286.144 11.956-.234 16.959-.567 50.306-6.242 35.121 38.945 108.559 35.789 5.408-.156 10.027 4.242 10.027 9.672v80.477c0 64.666-53.997 119.251-118.827 119.1-3.645-12.59-12.108-42.399-29.46-41.135-9.192.662-12.665 10.139-13.523 17.908-11.956-8.363-32.812-29.133-47.829-19.718-17.7-21.364-27.39-48.206-27.39-76.155zm88.028 165.933c-1.526-1.693-3.734-2.6-6.015-2.465-10.961.649-29.574-8.652-32.743-19.896-1.369-4.861.195-10.676 4.651-17.285 4.898-7.266-1.995-14.799-9.978-23.521-1.017-1.111-11.892-11.498-8.74-13.799 5.26-3.852 37.948 23.766 42.461 26.923 4.679 3.272 11.345.116 11.777-5.578.407-5.352-.011-11.086 1.283-16.346 9.156 9.081 17.616 37.206 13.401 49.874-.963 2.893-.86 6.021 1.182 8.287l10.252 11.372-16.694 14.456zm58.31-16.291c0 2.668-.369 5.279-1.089 7.78l-4.826-5.551c-3.906-4.494-10.219-2.042-13.521 1.806l-7.403-8.212c1.057-3.687 1.428-7.512 1.297-11.385 8.742-.148 17.281-1.144 25.541-2.909v18.471z"/><path d="m129.21 422.129c-3.7-1.512-8.436.207-9.994 4.011-4.557 11.125-7.705 22.666-9.42 34.494h-44.165c-6.994 0-13.239-3.341-17.133-9.167-5.932-8.873-2.777-17.442 1.29-26.184 6.272-13.484 13.382-28.767 1.32-55.801-20.917-46.876-10.028-70.635 8.969-101.531 21.485-34.94 20.39-59.925 19.332-84.088-6.604-66.682 37.706-129.867 101.105-154.454 27.672-11.142 58.636-15.936 89.545-13.859 31.18 2.093 60.982 11.111 86.184 26.08 3.563 2.116 8.164.942 10.278-2.618 2.115-3.562.943-8.163-2.618-10.278-55.293-32.842-127.711-37.914-188.991-13.239-69.091 26.381-117.69 96.954-110.488 169.025 1.003 22.911 1.951 44.552-17.124 75.574-20.168 32.8-33.703 62.131-9.89 115.5 9.277 20.792 4.644 30.752-1.222 43.362-6.307 13.557-9.062 27.529-.16 40.847 6.626 9.913 17.693 15.832 29.604 15.832h42.766c-.407 9.629-.135 19.31-.135 28.945 0 9.829 15.252 9.829 15.252 0 0-11.989-.186-23.945.66-35.908 1.26-12.65 4.318-24.967 9.139-36.761 1.568-3.836-.27-8.215-4.104-9.782z"/><path d="m203.274 292.888c23.602 0 42.803-19.275 42.803-42.967-2.353-57.002-83.261-56.986-85.606 0 0 23.692 19.202 42.967 42.803 42.967zm0-70.934c15.331 0 27.803 12.546 27.803 27.967-1.529 37.103-54.082 37.092-55.606 0 0-15.422 12.473-27.967 27.803-27.967z"/><path d="m203.529 247.421c9.992 0 10.008-15 0-15-9.991 0-10.008 15 0 15z"/><path d="m308.72 292.888c23.602 0 42.803-19.275 42.803-42.967-2.353-57.002-83.261-56.986-85.606 0 .001 23.692 19.202 42.967 42.803 42.967zm0-70.934c15.331 0 27.803 12.546 27.803 27.967-1.529 37.103-54.082 37.092-55.606 0 .001-15.422 12.473-27.967 27.803-27.967z"/><path d="m308.976 247.421c9.992 0 10.008-15 0-15-9.992 0-10.009 15 0 15z"/><path d="m221.282 312.895c-4.096.524-6.982 4.259-6.476 8.357.507 4.099 4.251 7.011 8.348 6.526 1.056-.128 26.063-2.846 39.38 18.227 2.112 3.342 6.989 4.456 10.347 2.334 3.501-2.213 4.546-6.845 2.334-10.347-18.494-29.267-52.496-25.281-53.933-25.097z"/><path d="m175.065 195.489c3.181 2.501 8.087 1.847 10.531-1.263.08-.102 8.146-10.071 23.019-3.319 3.771 1.713 8.217.042 9.929-3.729s.043-8.217-3.729-9.929c-20.378-9.252-35.74.998-41.013 7.71-2.56 3.256-1.994 7.971 1.263 10.53z"/><path d="m293.232 198.458 33.424-7.581c4.04-.917 6.572-4.934 5.656-8.973-.917-4.04-4.937-6.572-8.973-5.656l-33.424 7.581c-4.04.917-6.577 4.935-5.656 8.973 1.488 6.527 8.415 5.783 8.973 5.656z"/></g></g></svg>