<svg id="Capa_1" enable-background="new 0 0 511.999 511.999" height="512" viewBox="0 0 511.999 511.999" width="512" xmlns="http://www.w3.org/2000/svg"><g><g><circle cx="89.282" cy="412.298" fill="#fee55a" r="81.544"/><circle cx="256.237" cy="99.802" fill="#ff656f" r="81.544"/><circle cx="89.282" cy="256.05" fill="#fee55a" r="25.544"/><circle cx="256.237" cy="256.05" fill="#ff656f" r="25.544"/><circle cx="423.193" cy="256.05" fill="#60b8fe" r="25.544"/><path d="m89.282 256.05c0-9.453 5.139-17.701 12.772-22.118-3.758-2.175-8.117-3.426-12.772-3.426-14.107 0-25.544 11.436-25.544 25.544s11.437 25.544 25.544 25.544c4.654 0 9.014-1.251 12.772-3.426-7.633-4.417-12.772-12.665-12.772-22.118z" fill="#ffd301"/><path d="m256.237 256.05c0-9.453 5.139-17.701 12.772-22.118-3.758-2.175-8.118-3.426-12.772-3.426-14.107 0-25.543 11.436-25.543 25.544s11.436 25.544 25.543 25.544c4.654 0 9.014-1.251 12.772-3.426-7.632-4.417-12.772-12.665-12.772-22.118z" fill="#ff4756"/><path d="m423.193 256.05c0-9.453 5.139-17.701 12.772-22.118-3.758-2.175-8.117-3.426-12.772-3.426-14.107 0-25.544 11.436-25.544 25.544s11.437 25.544 25.544 25.544c4.654 0 9.014-1.251 12.772-3.426-7.633-4.417-12.772-12.665-12.772-22.118z" fill="#23a8fe"/><circle cx="423.193" cy="412.298" fill="#60b8fe" r="81.544"/><path d="m51.74 412.298c0-37.409 25.199-68.911 59.542-78.516-7.002-1.958-14.375-3.028-22.001-3.028-45.035 0-81.544 36.508-81.544 81.544 0 45.035 36.508 81.544 81.544 81.544 7.626 0 14.999-1.07 22.001-3.028-34.342-9.605-59.542-41.108-59.542-78.516z" fill="#ffd301"/><path d="m218.696 99.802c0-37.409 25.199-68.911 59.542-78.516-7.002-1.958-14.374-3.028-22.001-3.028-45.035 0-81.543 36.508-81.543 81.544s36.508 81.544 81.543 81.544c7.627 0 15-1.07 22.001-3.028-34.342-9.605-59.542-41.107-59.542-78.516z" fill="#ff4756"/><path d="m385.652 412.298c0-37.409 25.199-68.911 59.542-78.516-7.002-1.958-14.374-3.028-22.001-3.028-45.035 0-81.544 36.508-81.544 81.544 0 45.035 36.508 81.544 81.544 81.544 7.627 0 14.999-1.07 22.001-3.028-34.343-9.605-59.542-41.108-59.542-78.516z" fill="#23a8fe"/></g><g><path d="m455.13 263.5h49.369c4.143 0 7.5-3.358 7.5-7.5s-3.357-7.5-7.5-7.5h-49.369c-3.407-14.618-16.534-25.543-32.175-25.543s-28.768 10.926-32.175 25.543h-102.606c-2.845-12.206-12.469-21.83-24.675-24.674v-35.351c17.767-1.512 34.824-8.355 48.688-19.653 15.576-12.692 26.507-30.438 30.779-49.966.885-4.046-1.678-8.044-5.725-8.929-4.047-.884-8.043 1.679-8.93 5.724-7.369 33.692-37.782 58.146-72.313 58.146-40.827 0-74.043-33.216-74.043-74.043 0-40.828 33.216-74.044 74.043-74.044 34.531 0 64.944 24.454 72.313 58.146.887 4.046 4.883 6.613 8.93 5.724 4.047-.885 6.609-4.883 5.725-8.929-4.272-19.529-15.203-37.274-30.779-49.967-15.807-12.881-35.762-19.975-56.188-19.975-49.099 0-89.043 39.945-89.043 89.044 0 46.572 35.941 84.903 81.543 88.725v35.348c-12.207 2.845-21.83 12.468-24.675 24.674h-102.606c-3.407-14.618-16.534-25.543-32.175-25.543-15.64 0-28.767 10.926-32.174 25.543h-49.369c-4.143 0-7.5 3.358-7.5 7.5s3.357 7.5 7.5 7.5h49.369c2.845 12.206 12.468 21.83 24.674 24.675v35.348c-45.602 3.821-81.543 42.152-81.543 88.724 0 49.099 39.944 89.044 89.043 89.044s89.044-39.945 89.044-89.044c0-46.572-35.942-84.903-81.544-88.725v-35.348c12.207-2.845 21.83-12.468 24.675-24.675h102.606c3.407 14.618 16.534 25.544 32.175 25.544s28.768-10.926 32.175-25.544h102.606c2.845 12.207 12.469 21.83 24.675 24.675v35.348c-45.602 3.822-81.544 42.152-81.544 88.725 0 20.427 7.094 40.382 19.975 56.188 12.692 15.576 30.438 26.507 49.967 30.779 4.056.89 8.045-1.678 8.93-5.724s-1.678-8.044-5.725-8.93c-33.692-7.371-58.146-37.784-58.146-72.314 0-40.828 33.216-74.043 74.044-74.043s74.044 33.216 74.044 74.043c0 34.531-24.454 64.943-58.146 72.314-4.047.885-6.609 4.883-5.725 8.93.886 4.047 4.885 6.609 8.93 5.724 19.529-4.272 37.274-15.203 49.967-30.779 12.881-15.807 19.975-35.762 19.975-56.188 0-46.572-35.942-84.903-81.544-88.725v-35.348c12.205-2.844 21.828-12.468 24.673-24.674zm-292.043 148.747c0 40.828-33.216 74.044-74.044 74.044-40.827 0-74.043-33.216-74.043-74.044s33.216-74.043 74.043-74.043c40.828 0 74.044 33.215 74.044 74.043zm-74.044-138.204c-9.949 0-18.043-8.094-18.043-18.043s8.094-18.043 18.043-18.043 18.044 8.094 18.044 18.043-8.095 18.043-18.044 18.043zm166.956 0c-9.949 0-18.044-8.094-18.044-18.044 0-9.949 8.095-18.043 18.044-18.043s18.044 8.094 18.044 18.043c0 9.95-8.095 18.044-18.044 18.044zm166.956 0c-9.949 0-18.044-8.094-18.044-18.044 0-9.949 8.095-18.043 18.044-18.043s18.044 8.094 18.044 18.043c0 9.95-8.095 18.044-18.044 18.044z"/><path d="m67.67 383.292c0 4.142 3.357 7.5 7.5 7.5h27.747c4.143 0 7.5-3.358 7.5-7.5s-3.357-7.5-7.5-7.5h-27.747c-4.143 0-7.5 3.358-7.5 7.5z"/><path d="m51.502 412.247c0 4.142 3.357 7.5 7.5 7.5h60.083c4.143 0 7.5-3.358 7.5-7.5s-3.357-7.5-7.5-7.5h-60.083c-4.143 0-7.5 3.358-7.5 7.5z"/><path d="m119.085 433.702h-60.083c-4.143 0-7.5 3.358-7.5 7.5s3.357 7.5 7.5 7.5h60.083c4.143 0 7.5-3.358 7.5-7.5s-3.357-7.5-7.5-7.5z"/><path d="m269.872 78.297c4.143 0 7.5-3.358 7.5-7.5s-3.357-7.5-7.5-7.5h-27.746c-4.143 0-7.5 3.358-7.5 7.5s3.357 7.5 7.5 7.5z"/><path d="m286.041 92.252h-60.083c-4.143 0-7.5 3.358-7.5 7.5s3.357 7.5 7.5 7.5h60.083c4.143 0 7.5-3.358 7.5-7.5s-3.357-7.5-7.5-7.5z"/><path d="m286.041 121.207h-60.083c-4.143 0-7.5 3.358-7.5 7.5s3.357 7.5 7.5 7.5h60.083c4.143 0 7.5-3.358 7.5-7.5s-3.357-7.5-7.5-7.5z"/><path d="m436.828 390.792c4.143 0 7.5-3.358 7.5-7.5s-3.357-7.5-7.5-7.5h-27.746c-4.143 0-7.5 3.358-7.5 7.5s3.357 7.5 7.5 7.5z"/><path d="m385.413 412.247c0 4.142 3.357 7.5 7.5 7.5h60.084c4.143 0 7.5-3.358 7.5-7.5s-3.357-7.5-7.5-7.5h-60.084c-4.142 0-7.5 3.358-7.5 7.5z"/><path d="m392.913 448.702h60.084c4.143 0 7.5-3.358 7.5-7.5s-3.357-7.5-7.5-7.5h-60.084c-4.143 0-7.5 3.358-7.5 7.5s3.358 7.5 7.5 7.5z"/></g></g></svg>