<svg id="Capa_1" enable-background="new 0 0 511.997 511.997" height="512" viewBox="0 0 511.997 511.997" width="512" xmlns="http://www.w3.org/2000/svg"><g><g><path d="m388.24 201.438c-8.326 0-15.076 6.75-15.076 15.076v97.513l-41.772-35.196c-6.367-5.366-15.878-4.553-21.244 1.815-5.365 6.367-4.552 15.879 1.815 21.244l61.201 51.566v84.258c0 8.326 6.75 15.076 15.076 15.076s15.076-6.75 15.076-15.076v-221.2c0-8.326-6.75-15.076-15.076-15.076z" fill="#a77d73"/><path d="m395.054 451.161c-2.05 1.045-4.362 1.628-6.815 1.628-8.322 0-15.076-6.744-15.076-15.076v-84.257l-61.2-51.561c-6.372-5.367-7.176-14.875-1.819-21.248 5.367-6.362 14.875-7.176 21.248-1.809l41.772 35.188v-97.514c0-8.322 6.754-15.076 15.076-15.076 2.452 0 4.764.583 6.815 1.628-4.905 2.483-8.272 7.578-8.272 13.448v221.201c-.001 5.879 3.366 10.965 8.271 13.448z" fill="#98695e"/><g><path d="m51.461 153.261h324.987v156.004h-324.987z" fill="#98695e" transform="matrix(.707 -.707 .707 .707 -100.862 219.024)"/><path d="m370.235 157.743-229.8 229.8c-7.55 7.55-7.55 19.792 0 27.342l17.165 17.165c7.55 7.55 19.792 7.55 27.342 0l229.8-229.8c7.55-7.55 7.55-19.792 0-27.342l-17.165-17.165c-7.551-7.55-19.792-7.55-27.342 0z" fill="#a77d73"/><path d="m242.967 30.475-229.8 229.8c-7.55 7.55-7.55 19.792 0 27.342l17.165 17.165c7.55 7.55 19.792 7.55 27.342 0l229.8-229.8c7.55-7.55 7.55-19.792 0-27.342l-17.165-17.165c-7.551-7.55-19.792-7.55-27.342 0z" fill="#a77d73"/><path d="m306.601 94.109-229.801 229.801c-7.55 7.55-7.55 19.792 0 27.342l17.165 17.165c7.55 7.55 19.792 7.55 27.342 0l229.8-229.8c7.55-7.55 7.55-19.792 0-27.342l-17.165-17.165c-7.55-7.551-19.791-7.551-27.341-.001z" fill="#a77d73"/><g fill="#98695e"><path d="m218.49 398.502-33.545 33.545c-7.555 7.555-19.793 7.555-27.348 0l-17.164-17.164c-7.548-7.548-7.555-19.793 0-27.348l33.545-33.545c-7.555 7.555-7.548 19.8 0 27.348l17.164 17.164c7.555 7.555 19.793 7.555 27.348 0z"/><path d="m91.223 271.236-33.545 33.545c-7.555 7.555-19.8 7.548-27.348 0l-17.164-17.164c-7.555-7.555-7.555-19.793 0-27.348l33.545-33.545c-7.555 7.555-7.555 19.793 0 27.348l17.164 17.164c7.548 7.547 19.793 7.554 27.348 0z"/><path d="m154.853 334.865-33.545 33.545c-7.555 7.555-19.793 7.555-27.341.007l-17.171-17.171c-7.548-7.548-7.548-19.786.007-27.341l33.545-33.545c-7.555 7.555-7.555 19.793-.007 27.341l17.171 17.171c7.548 7.548 19.786 7.548 27.341-.007z"/></g></g><path d="m479.763 437.714h-447.529c-13.66 0-24.734 11.074-24.734 24.734 0 13.66 11.074 24.734 24.734 24.734h447.529c13.66 0 24.734-11.074 24.734-24.734 0-13.66-11.074-24.734-24.734-24.734z" fill="#b3e59f"/><path d="m69.575 479.936c4.473 4.483 10.654 7.247 17.489 7.247h-54.829c-6.825 0-13.016-2.764-17.489-7.247-4.473-4.473-7.247-10.654-7.247-17.489 0-13.659 11.076-24.735 24.735-24.735h54.828c-13.659 0-24.735 11.076-24.735 24.735.001 6.835 2.765 13.017 7.248 17.489z" fill="#95d6a4"/></g><path d="m479.763 430.214h-68.945v-25.276c0-4.142-3.358-7.5-7.5-7.5s-7.5 3.358-7.5 7.5v25.276h-15.155v-76.76c0-2.212-.977-4.311-2.668-5.736l-53.254-44.861 10.753-10.753 32.837 27.657c2.238 1.887 5.366 2.289 7.995 1.064 2.645-1.23 4.336-3.883 4.336-6.8v-67.089l15.155-15.155v143.157c0 4.142 3.358 7.5 7.5 7.5s7.5-3.358 7.5-7.5v-158.158l9.227-9.227c10.462-10.462 10.462-27.486 0-37.948l-17.164-17.165c-8.623-8.623-21.7-10.132-31.89-4.541l-10.038-10.038c5.591-10.19 4.082-23.267-4.541-31.89l-17.166-17.165c-8.622-8.623-21.7-10.132-31.89-4.541l-10.037-10.037c5.594-10.19 4.086-23.27-4.539-31.896l-17.168-17.158c-5.068-5.068-11.807-7.859-18.973-7.859-7.167 0-13.905 2.791-18.973 7.859l-185.65 185.65c-2.929 2.929-2.929 7.677 0 10.606s7.678 2.929 10.606 0l185.65-185.65c2.235-2.235 5.206-3.466 8.367-3.466 3.16 0 6.132 1.231 8.368 3.468l17.168 17.158c4.608 4.608 4.612 12.103.014 16.717-.008.008-.017.014-.025.022l-87.538 87.538-142.264 142.261c-2.234 2.238-5.204 3.47-8.363 3.47s-6.128-1.232-8.367-3.473l-17.16-17.16c-4.613-4.614-4.613-12.12 0-16.734l22.94-22.94c2.929-2.929 2.929-7.677 0-10.606s-7.678-2.929-10.606 0l-22.94 22.94c-10.462 10.462-10.462 27.485 0 37.947l17.157 17.156c5.068 5.075 11.808 7.87 18.977 7.87 4.595 0 9.012-1.154 12.926-3.314l10.032 10.032c-5.591 10.19-4.082 23.267 4.541 31.89l17.165 17.165c5.068 5.068 11.807 7.86 18.975 7.86 4.594 0 9.009-1.152 12.923-3.31l10.03 10.03c-5.591 10.19-4.082 23.267 4.541 31.889l10.025 10.025h-112.923c-17.774-.001-32.234 14.459-32.234 32.233s14.46 32.234 32.234 32.234h447.529c17.774 0 32.234-14.46 32.234-32.234s-14.46-32.234-32.234-32.234zm-114.1-132.312-19.523-16.443 19.523-19.523zm-14.559-148.675 8.52 8.52-219.187 219.186-8.52-8.52zm-274.3 164.073-8.522-8.522 130.245-130.245 88.944-88.94 8.521 8.52zm30.833 53.28c-3.161 0-6.132-1.231-8.368-3.466l-17.166-17.165c-4.614-4.614-4.614-12.121 0-16.735l229.8-229.8c2.235-2.235 5.207-3.466 8.368-3.466s6.132 1.231 8.368 3.466l17.166 17.165c4.614 4.614 4.614 12.121 0 16.735l-229.801 229.8c-2.235 2.235-5.207 3.466-8.367 3.466zm38.101 26.267 229.8-229.8c2.307-2.307 5.337-3.46 8.368-3.46 3.03 0 6.061 1.154 8.368 3.46l17.165 17.165c2.235 2.235 3.466 5.207 3.466 8.368s-1.231 6.133-3.466 8.368l-229.8 229.8c-2.235 2.235-5.207 3.466-8.368 3.466s-6.132-1.231-8.368-3.466l-17.165-17.165c-4.614-4.615-4.614-12.122 0-16.736zm168.358-79.344 51.567 43.44v73.271h-168.278zm165.667 166.179h-447.529c-9.503 0-17.234-7.731-17.234-17.234s7.731-17.234 17.234-17.234h447.529c9.503 0 17.234 7.731 17.234 17.234s-7.731 17.234-17.234 17.234z"/></g></svg>