<svg id="Слой_1" enable-background="new 0 0 4000 4000" height="512" viewBox="0 0 4000 4000" width="512" xmlns="http://www.w3.org/2000/svg"><g><g><path d="m2583.79 1601.495c-34.656 0-62.755-28.099-62.755-62.756v-106.806c0-92.341 52.444-177.557 133.616-217.132 58.266-28.39 93.98-88.633 90.977-153.488-3.784-82.627-71.489-150.331-154.1-154.131-44.692-2.038-87.315 13.804-119.628 44.661-32.343 30.872-50.146 72.5-50.146 117.192 0 34.656-28.099 62.755-62.756 62.755s-62.756-28.099-62.756-62.755c0-79.318 31.592-153.166 88.97-207.954 57.347-54.773 132.682-82.78 212.076-79.287 146.762 6.757 266.987 126.997 273.728 273.744 5.301 114.924-58.052 221.744-161.378 272.089-38.318 18.677-63.093 59.63-63.093 104.307v106.806c0 34.656-28.099 62.755-62.755 62.755z" fill="#fff"/><circle cx="2583.783" cy="1815.979" fill="#fff" r="82.351"/><path d="m2583.79 1601.495c-34.656 0-62.755-28.099-62.755-62.756v-106.806c0-92.341 52.444-177.557 133.616-217.132 58.266-28.39 93.98-88.633 90.977-153.488-3.784-82.627-71.489-150.331-154.1-154.131-44.692-2.038-87.315 13.804-119.628 44.661-32.343 30.872-50.146 72.5-50.146 117.192 0 34.656-28.099 62.755-62.756 62.755s-62.756-28.099-62.756-62.755c0-79.318 31.592-153.166 88.97-207.954 57.347-54.773 132.682-82.78 212.076-79.287 146.762 6.757 266.987 126.997 273.728 273.744 5.301 114.924-58.052 221.744-161.378 272.089-38.318 18.677-63.093 59.63-63.093 104.307v106.806c0 34.656-28.099 62.755-62.755 62.755z" fill="#ff8a8a"/><circle cx="2583.783" cy="1815.979" fill="#ff8a8a" r="82.351"/><g><path d="m2583.79 1622.999c-46.46 0-84.258-37.798-84.258-84.26v-106.806c0-100.494 57.19-193.309 145.698-236.46 50.548-24.632 81.525-76.901 78.921-133.166-3.286-71.65-61.971-130.349-133.609-133.644-38.97-1.762-75.781 11.982-103.791 38.731-28.051 26.774-43.496 62.869-43.496 101.642 0 46.46-37.798 84.258-84.258 84.258s-84.258-37.798-84.258-84.258c0-85.25 33.962-164.626 95.625-223.505 61.471-58.713 142.481-88.964 227.87-85.219 157.782 7.266 287.016 136.51 294.265 294.24 5.698 123.516-62.381 238.292-173.44 292.404-30.988 15.104-51.01 48.46-51.01 84.977v106.806c-.001 46.462-37.799 84.26-84.259 84.26zm.01-737.496c2.894 0 5.796.067 8.708.2 93.62 4.305 170.312 81.01 174.603 174.625 3.398 73.421-37.046 141.646-103.042 173.803-73.825 35.994-121.531 113.637-121.531 197.803v106.806c0 22.747 18.507 41.254 41.252 41.254s41.252-18.507 41.252-41.254v-106.806c0-52.847 29.507-101.377 75.176-123.636 95.615-46.588 154.226-145.412 149.32-251.768-6.237-135.763-117.471-247.003-253.24-253.255-73.552-3.229-143.31 22.812-196.231 73.358-53.089 50.69-82.323 119.018-82.323 192.404 0 22.747 18.507 41.252 41.252 41.252s41.252-18.505 41.252-41.252c0-50.641 20.173-97.783 56.805-132.746 34.481-32.933 79.209-50.788 126.747-50.788z" fill="#661751"/></g><g><path d="m2583.782 1919.832c-57.264 0-103.854-46.588-103.854-103.854s46.59-103.854 103.854-103.854 103.854 46.588 103.854 103.854-46.589 103.854-103.854 103.854zm0-164.701c-33.552 0-60.848 27.297-60.848 60.848s27.295 60.848 60.848 60.848 60.848-27.297 60.848-60.848-27.295-60.848-60.848-60.848z" fill="#661751"/></g></g><g><g fill="#fff"><path d="m2149.274 2211.698c-13.334 14.335-8.603 37.557 9.317 45.585l82.427 36.843c9.464 4.3 15.914 13.187 16.771 23.508l10.751 117.979c1.148 12.33-5.733 23.941-17.058 28.958l-275.954 120.56c-11.899 5.161-18.78 17.632-16.915 30.391l30.963 209.009c2.009 13.618-5.876 26.662-18.78 31.25l-324.979 114.969c-12.757 4.445-20.642 17.489-18.78 30.963l24.947 177.185c-42.292.287-84.58 2.149-126.868 5.589l-330.141 26.522c-50.03 4.014-92.892-35.551-92.892-85.725v-470.914c0-91.601 3.727-183.347 11.182-274.662l26.948-327.705c6.594-78.413 10.177-157.114 11.038-235.671l146.362-69.956c21.076-10.177 46.302-1.577 56.914 19.352l54.615 107.658c10.608 20.785 35.838 29.388 56.911 19.354l129.878-62.073c17.632-8.457 38.561-3.871 51.178 10.895l103.931 121.563c19.637 23.081 56.337 19.067 70.528-7.598l82.571-154.247h161.558c5.306 3.012 11.469 4.732 18.063 5.162l120.271 6.594c11.469.574 22.077 5.734 29.675 14.335l137.189 158.118c-9.464 1.433-18.35 6.02-25.087 13.331z"/><path d="m2381.505 1997.672-10.608-12.185z"/><path d="m2887.109 2641.899 10.895 180.05h-323.978c-40.136 0-72.537 32.541-72.537 72.679v323.834h-74.256c-36.555 0-73.108-1.148-109.663-3.297l-539.15-33.115c-42.145-2.579-84.29-3.584-126.434-3.153l-24.947-177.185c-1.862-13.474 6.023-26.518 18.78-30.963l324.979-114.969c12.904-4.588 20.789-17.632 18.78-31.25l-30.963-209.009c-1.865-12.759 5.015-25.23 16.915-30.391l275.954-120.56c11.325-5.017 18.206-16.628 17.058-28.958l-10.751-117.979c-.857-10.321-7.308-19.209-16.771-23.508l-82.427-36.843c-17.919-8.029-22.651-31.25-9.317-45.585l196.536-212.88c6.737-7.311 15.623-11.898 25.087-13.331 7.885-1.291 16.057-.287 23.652 3.01l219.043 95.186c13.044 5.734 28.096 4.586 40.139-3.012l178.33-112.244c28.67-18.061 65.944 2.581 65.944 36.412l-8.459 118.553c-12.186 172.596-12.903 345.911-2.439 518.508z"/><path d="m1652.127 3179.47-.143-.573z"/><path d="m1946.285 1415.517c39.996 29.96 105.796 79.705 138.337 105.794 13.618 10.893 19.351 28.956 14.335 45.729l-54.044 184.351c-6.023 20.213 3.584 40.57 20.785 49.886h-161.558l-82.571 154.247c-14.192 26.665-50.891 30.679-70.528 7.598l-103.931-121.563c-12.617-14.766-33.546-19.352-51.178-10.895l-129.878 62.073c-21.073 10.034-46.303 1.431-56.911-19.354l-54.615-107.658c-10.611-20.929-35.838-29.53-56.914-19.352l-146.362 69.956c1.005-81.567-1.001-162.992-6.02-244.417l-43.149-704.433c0-47.451 38.418-86.012 86.012-86.012h827.861c23.795 0 43.006 19.352 43.006 43.006v50.317c0 11.611-4.732 22.793-12.904 30.819l-81.423 79.561c-19.924 19.496-16.197 52.609 7.455 67.232l117.692 72.968c15.053 9.316 22.794 26.948 19.641 44.295l-17.345 95.33c-2.439 12.9-10.464 23.939-21.933 30.104-29.818 16.342-85.438 50.604-121.849 73.253-17.06 10.753-18.065 34.979-2.011 47.165z"/><path d="m2898.004 2821.949-174.606 146.22c-28.096 23.508-54.184 49.599-77.839 77.839l-144.07 172.454v-323.834c0-40.138 32.401-72.679 72.537-72.679z"/></g><path d="m2381.505 1997.672-10.608-12.185z" fill="#ffe494"/><path d="m2887.109 2641.899 10.895 180.05h-323.978c-40.136 0-72.537 32.541-72.537 72.679v323.834h-74.256c-36.555 0-73.108-1.148-109.663-3.297l-539.15-33.115c-42.145-2.579-84.29-3.584-126.434-3.153l-24.947-177.185c-1.862-13.474 6.023-26.518 18.78-30.963l324.979-114.969c12.904-4.588 20.789-17.632 18.78-31.25l-30.963-209.009c-1.865-12.759 5.015-25.23 16.915-30.391l275.954-120.56c11.325-5.017 18.206-16.628 17.058-28.958l-10.751-117.979c-.857-10.321-7.308-19.209-16.771-23.508l-82.427-36.843c-17.919-8.029-22.651-31.25-9.317-45.585l196.536-212.88c6.737-7.311 15.623-11.898 25.087-13.331 7.885-1.291 16.057-.287 23.652 3.01l219.043 95.186c13.044 5.734 28.096 4.586 40.139-3.012l178.33-112.244c28.67-18.061 65.944 2.581 65.944 36.412l-8.459 118.553c-12.186 172.596-12.903 345.911-2.439 518.508z" fill="#ffe494"/><path d="m2887.15 2641.899 10.895 180.05h-323.978c-40.136 0-72.534 32.541-72.534 72.679v323.834h-74.256c-36.556 0-73.111-1.148-109.667-3.297l-508.041-31.252c452.992-155.394 802.2-592.475 897.532-1136.784l124.999-78.702c28.671-18.061 65.944 2.581 65.944 36.412l-8.456 118.553c-12.185 172.595-12.902 345.91-2.438 518.507z" fill="#ffcd70"/><path d="m1652.127 3179.47-.143-.573z" fill="#ffe494"/><path d="m2149.315 2211.698c-13.331 14.335-8.602 37.557 9.317 45.585l82.428 36.843c9.463 4.3 15.914 13.187 16.775 23.508l10.751 117.979c1.144 12.33-5.736 23.941-17.062 28.958l-275.953 120.56c-11.896 5.161-18.776 17.632-16.915 30.391l30.966 209.009c2.005 13.618-5.88 26.662-18.78 31.25l-324.982 114.969c-12.757 4.445-20.642 17.489-18.777 30.963l24.943 177.185c-42.288.287-84.577 2.149-126.868 5.589l-232.23 18.636c-29.101-13.618-49.599-43.149-49.599-77.839v-470.914c0-91.601 3.727-183.347 11.182-274.662l26.949-327.705c4.453-52.954 7.533-106.038 9.329-159.121 1.603-47.377 29.593-89.84 72.385-110.237l46.016 90.742c10.608 20.785 35.838 29.388 56.911 19.354l75.691-36.269 54.184-25.804c17.632-8.457 38.565-3.871 51.178 10.895l19.497 22.794 84.433 98.768c19.641 23.081 56.337 19.067 70.532-7.598l24.656-46.159 57.911-108.088h161.559c5.306 3.012 11.469 4.732 18.063 5.162l120.275 6.594c11.469.574 22.077 5.734 29.675 14.335l137.186 158.118c-9.46 1.433-18.35 6.02-25.087 13.331z" fill="#ffe494"/><path d="m1946.329 1415.517c39.992 29.96 105.792 79.705 138.334 105.794 13.618 10.893 19.354 28.956 14.335 45.729l-54.044 184.351c-6.02 20.213 3.584 40.57 20.786 49.886h-161.559l-57.911 108.088-24.656 46.159c-14.195 26.665-50.891 30.679-70.532 7.598l-84.433-98.768-19.497-22.794c-12.613-14.766-33.546-19.352-51.178-10.895l-54.184 25.804-75.691 36.269c-21.073 10.034-46.303 1.431-56.911-19.354l-46.016-90.742-8.603-16.916c-10.608-20.929-35.838-29.53-56.911-19.352l-5.162 2.438c-.287-59.061-2.436-117.979-6.02-176.898l-43.149-704.433c0-47.451 38.417-86.012 86.011-86.012h686.657c23.799 0 43.006 19.352 43.006 43.006v50.317c0 11.611-4.728 22.793-12.9 30.819l-81.423 79.561c-19.928 19.496-16.201 52.609 7.455 67.232l117.692 72.968c15.049 9.316 22.791 26.948 19.637 44.295l-17.345 95.33c-2.436 12.9-10.465 23.939-21.933 30.104-29.819 16.342-85.438 50.604-121.85 73.253-17.057 10.751-18.062 34.977-2.005 47.163z" fill="#ffe494"/><path d="m2898.004 2821.949-174.606 146.22c-28.096 23.508-54.184 49.599-77.839 77.839l-144.07 172.454v-323.834c0-40.138 32.401-72.679 72.537-72.679z" fill="#fff"/><g><path d="m2501.432 3239.998h-74.151c-36.853 0-74.199-1.143-111.007-3.397l-539.192-33.036c-83.1-5.092-167.316-4.291-250.307 2.376l-330.11 26.522c-29.818 2.399-59.539-7.866-81.525-28.156-21.989-20.292-34.599-49.09-34.599-79.012v-470.862c0-91.912 3.815-184.951 11.343-276.533l26.921-327.641c12.991-158.129 14.657-318.601 4.949-476.959l-43.174-704.47c-.039-60.599 48.192-108.83 107.476-108.83h827.899c35.569 0 64.509 28.938 64.509 64.509v50.354c0 17.252-7.073 34.062-19.406 46.121l-81.329 79.54c-4.756 4.653-7.07 11.114-6.342 17.727s4.389 12.417 10.044 15.924l117.723 72.987c22.703 14.082 34.267 40.157 29.461 66.432l-17.436 95.339c-3.528 19.27-15.445 35.707-32.702 45.099-30.294 16.486-88.668 52.569-120.768 72.611-2.733 1.706-3.241 4.261-3.3 5.631-.059 1.393.231 4.023 2.859 5.997 37.616 28.282 105.674 79.701 138.873 106.319 20.478 16.418 28.919 43.305 21.514 68.5l-54.163 184.304c-1.865 6.338-.745 13.07 3.066 18.467 3.815 5.398 9.785 8.702 16.383 9.066l120.275 6.62c17.013.938 33.269 8.769 44.609 21.485l137.634 158.248c7.794 8.961 6.846 22.542-2.114 30.337-8.967 7.796-22.546 6.842-30.336-2.114l-137.459-158.048c-3.605-4.042-9.03-6.655-14.699-6.968l-120.274-6.618c-19.792-1.09-37.707-11.004-49.145-27.195-11.437-16.192-14.79-36.388-9.201-55.406l54.163-184.306c2.471-8.4-.336-17.356-7.154-22.819-32.744-26.254-100.399-77.365-137.812-105.495-13.226-9.941-20.694-25.731-19.98-42.234.71-16.467 9.491-31.514 23.487-40.251 39.709-24.791 93.277-57.736 122.987-73.906 5.789-3.15 9.782-8.639 10.955-15.062l17.436-95.337c1.603-8.758-2.254-17.452-9.821-22.145l-117.723-72.987c-16.964-10.519-27.943-27.93-30.126-47.769-2.184-19.84 4.749-39.222 19.018-53.178l81.332-79.542c4.112-4.02 6.468-9.623 6.468-15.373v-50.354c0-11.857-9.646-21.503-21.503-21.503h-827.899c-35.569 0-64.509 28.938-64.509 64.509l43.132 703.155c9.834 160.402 8.148 322.944-5.015 483.111l-26.921 327.641c-7.43 90.416-11.196 182.271-11.196 273.012v470.862c0 18.217 7.374 35.052 20.761 47.407 13.383 12.354 30.749 18.351 48.913 16.896l330.11-26.522c85.007-6.832 171.274-7.649 256.383-2.436l539.192 33.037c35.933 2.199 72.394 3.316 108.375 3.316h74.151c11.875 0 21.503 9.628 21.503 21.503s-9.631 21.5-21.506 21.5z" fill="#661751"/></g><g><path d="m1651.61 3195.843c-10.531 0-19.732-7.743-21.261-18.472l-24.593-172.557c-3.356-23.575 10.503-46.446 32.951-54.384l324.948-114.869c3.227-1.141 5.204-4.427 4.704-7.812l-30.966-209.023c-3.311-22.352 8.837-44.281 29.542-53.33l275.915-120.567c2.831-1.237 4.546-4.138 4.266-7.22l-10.723-117.959c-.235-2.578-1.848-4.835-4.21-5.892l-82.344-36.837c-14.71-6.582-25.423-19.935-28.66-35.721-3.237-15.784 1.354-32.277 12.288-44.117l196.578-212.899c18.598-20.138 47.972-26.32 73.107-15.399l219.054 95.221c6.52 2.833 14.013 2.266 20.03-1.524l178.351-112.266c20.18-12.701 44.682-13.401 65.544-1.879 20.87 11.523 33.329 32.632 33.329 56.471 0 .504-.018 1.008-.052 1.512l-8.361 118.62c-12.057 171.045-12.907 344.56-2.534 515.728l10.909 180.004c.717 11.854-8.309 22.045-20.163 22.765-11.945.679-22.049-8.309-22.766-20.164l-10.909-180.004c-10.485-173.032-9.625-348.44 2.562-521.352l8.302-117.748c-.283-11.019-7.826-16.374-11.101-18.183-3.343-1.846-12.155-5.479-21.849.626l-178.351 112.265c-18.052 11.366-40.51 13.077-60.078 4.571l-219.057-95.223c-8.389-3.64-18.171-1.578-24.369 5.133l-196.578 212.901c-2.17 2.352-2.033 4.959-1.757 6.303.276 1.346 1.176 3.797 4.095 5.103l82.344 36.837c16.543 7.4 27.837 23.209 29.479 41.258l10.724 117.96c1.956 21.553-10.052 41.854-29.878 50.52l-275.915 120.567c-2.957 1.292-4.693 4.426-4.217 7.619l30.966 209.025c3.507 23.692-10.335 46.679-32.912 54.66l-324.948 114.867c-3.206 1.134-5.187 4.405-4.707 7.773l24.593 172.553c1.673 11.758-6.499 22.647-18.255 24.322-1.034.145-2.056.217-3.067.217z" fill="#661751"/></g><g><path d="m1783.665 1999.758c-18.763 0-36.713-8.179-49.047-22.631l-103.791-121.61c-6.317-7.393-16.852-9.637-25.629-5.444l-129.917 62.06c-31.88 15.224-69.356 2.473-85.336-29.027l-54.629-107.695c-5.236-10.335-18.014-14.659-28.457-9.672l-146.31 69.986c-10.706 5.12-23.547.595-28.677-10.12-5.124-10.713-.591-23.552 10.122-28.676l146.31-69.986c31.344-15 69.646-1.986 85.368 29.013l54.625 107.693c5.334 10.501 17.828 14.75 28.45 9.677l129.917-62.06c26.326-12.568 57.936-5.855 76.873 16.33l103.791 121.612c4.686 5.493 11.507 8.195 18.668 7.418 7.178-.777 13.247-4.874 16.652-11.24l82.473-154.251c3.741-6.996 11.028-11.364 18.962-11.364h161.597c11.875 0 21.503 9.628 21.503 21.503s-9.628 21.503-21.503 21.503h-148.711l-76.397 142.887c-10.062 18.818-28.734 31.423-49.949 33.719-2.324.25-4.648.375-6.958.375z" fill="#661751"/></g><g><path d="m2501.428 3240c-2.457 0-4.935-.422-7.332-1.292-8.505-3.087-14.167-11.166-14.167-20.213v-323.871c0-51.918 42.24-94.156 94.156-94.156h323.87c9.044 0 17.121 5.659 20.211 14.158 3.087 8.499.529 18.024-6.405 23.83l-174.522 146.142c-27.148 22.733-52.431 48.037-75.145 75.211l-144.165 172.476c-4.164 4.985-10.253 7.715-16.501 7.715zm72.656-396.526c-28.205 0-51.15 22.947-51.15 51.15v264.616l106.163-127.012c24.341-29.12 51.433-56.239 80.527-80.601l129.157-108.153z" fill="#661751"/></g><g><path d="m1480.437 1746.761c-9.022 0-17.425-5.722-20.411-14.757l-45.011-136.103c-3.731-11.275 2.387-23.438 13.663-27.167 11.273-3.729 23.438 2.389 27.166 13.665l45.011 136.103c3.731 11.275-2.387 23.438-13.663 27.167-2.24.74-4.518 1.092-6.755 1.092zm-52.98-277.268c-1.631 0-3.286-.187-4.945-.578-11.56-2.721-18.724-14.298-16.005-25.858 12.008-50.992 38.253-97.137 75.901-133.445 8.55-8.242 22.164-7.997 30.406.551s7.994 22.161-.553 30.405c-31.691 30.56-53.782 69.408-63.889 112.344-2.334 9.904-11.164 16.581-20.915 16.581zm194.814-189.898c-9.047 0-17.468-5.754-20.432-14.82-3.696-11.287 2.46-23.431 13.747-27.124l136.241-44.588c11.287-3.699 23.431 2.46 27.124 13.747 3.696 11.287-2.46 23.431-13.747 27.124l-136.241 44.588c-2.223.728-4.477 1.073-6.692 1.073zm272.482-89.175c-9.047 0-17.464-5.754-20.432-14.82-3.696-11.287 2.46-23.431 13.747-27.124l64.04-20.959c11.294-3.699 23.428 2.46 27.124 13.747s-2.46 23.431-13.747 27.124l-64.04 20.959c-2.223.728-4.477 1.073-6.692 1.073z" fill="#661751"/></g><g><path d="m1625.141 2778.733c-10.783 0-21.625-.768-32.226-2.285-11.756-1.682-19.924-12.575-18.241-24.331 1.68-11.758 12.575-19.931 24.331-18.241 8.589 1.229 17.384 1.851 26.137 1.851l113.79-1.386c11.612-.306 21.618 9.358 21.765 21.237.143 11.875-9.365 21.62-21.24 21.765l-112.88 1.384c-.089.002-1.349.006-1.436.006zm-152.778-68.644c-5.929 0-11.829-2.436-16.078-7.215-35.401-39.815-55.626-91.07-56.949-144.322-.297-11.873 9.089-21.736 20.96-22.031 11.812-.369 21.737 9.087 22.031 20.96 1.071 43.104 17.443 84.589 46.099 116.817 7.889 8.875 7.091 22.467-1.785 30.357-4.093 3.642-9.196 5.434-14.278 5.434zm-46.103-273.409c-1.956 0-3.944-.268-5.918-.833-11.42-3.262-18.031-15.165-14.769-26.583 15.413-53.934 56.669-95.846 110.36-112.116 11.374-3.435 23.725 2.865 27.169 14.22 3.451 11.359-2.597 23.253-13.954 26.71-40.384 12.239-70.847 43.184-82.221 83.002-2.699 9.444-11.308 15.6-20.667 15.6zm192.242-196.317c-1.89 0-3.815-.252-5.726-.779-11.448-3.157-18.171-14.997-15.014-26.445 2.884-10.461 4.347-21.249 4.347-32.063 0-12.904-2.079-25.729-6.177-38.122l-18.668-56.45c-3.731-11.275 2.387-23.438 13.663-27.167 11.266-3.733 23.438 2.388 27.166 13.665l18.668 56.448c5.544 16.755 8.354 34.125 8.354 51.626 0 14.677-1.984 29.309-5.894 43.494-2.629 9.535-11.284 15.793-20.719 15.793z" fill="#661751"/></g><g><path d="m2204.865 2775.284c-11.434 0-20.95-9.009-21.465-20.548-.528-11.863 8.662-21.909 20.527-22.437 44.08-1.962 86.74-16.031 123.369-40.687 9.862-6.632 23.214-4.018 29.846 5.831 6.632 9.852 4.021 23.214-5.831 29.846-43.191 29.071-93.494 45.66-145.473 47.974-.326.014-.651.021-.973.021zm231.785-148.387c-4.823 0-9.674-1.613-13.681-4.922-9.159-7.562-10.45-21.115-2.891-30.272l91.275-110.538c7.57-9.161 21.128-10.445 30.273-2.889 9.159 7.561 10.451 21.114 2.891 30.272l-91.275 110.538c-4.251 5.149-10.4 7.811-16.592 7.811z" fill="#661751"/></g><circle cx="2626.451" cy="2360.151" fill="#ff8a8a" r="63.594"/><g><path d="m2626.452 2445.248c-46.922 0-85.098-38.174-85.098-85.096s38.176-85.096 85.098-85.096 85.094 38.174 85.094 85.096c.001 46.921-38.171 85.096-85.094 85.096zm0-127.187c-23.211 0-42.092 18.881-42.092 42.091 0 23.209 18.882 42.091 42.092 42.091 23.207 0 42.089-18.882 42.089-42.091 0-23.21-18.881-42.091-42.089-42.091z" fill="#661751"/></g></g></g></svg>