<svg id="Capa_1" enable-background="new 0 0 512 512" height="512" viewBox="0 0 512 512" width="512" xmlns="http://www.w3.org/2000/svg"><g><g><path d="m403.745 504.5c0-66.976-60.808-95.703-60.808-95.703h-173.873s-60.808 28.726-60.808 95.703z" fill="#ff9db0"/><path d="m88.803 184.74s-15.696-27.524-49.351-36.37c-10.802-2.839-21.326 5.514-21.326 16.682v26.363c0 52.209 31.202 99.363 79.255 119.775z" fill="#f9496e"/><path d="m423.197 184.74s15.696-27.524 49.351-36.37c10.802-2.839 21.326 5.514 21.326 16.682v26.363c0 52.209-31.202 99.363-79.255 119.775z" fill="#f9496e"/><circle cx="256" cy="238.011" fill="#ff9db0" r="178.328"/><path d="m129.386 246.603c0-86.404 61.552-159.736 146.972-185.757-6.682-.759-13.472-1.164-20.358-1.164-98.488 0-178.328 79.84-178.328 178.328 0 91.367 68.716 166.673 157.285 177.086-63.205-34.139-105.571-96.814-105.571-168.493z" fill="#ff748f"/><path d="m147.664 219.782h-18.009c-11.819 0-21.4 9.581-21.4 21.4v39.598h60.808v-39.598c.001-11.819-9.58-21.4-21.399-21.4z" fill="#f9ed80"/><path d="m129.386 246.603c0-9.1.691-18.052 2.012-26.821h-1.743c-11.819 0-21.4 9.581-21.4 21.399v39.598h24.407c-2.148-11.098-3.276-22.516-3.276-34.176z" fill="#fbc072"/><path d="m364.336 219.782h18.009c11.819 0 21.4 9.581 21.4 21.4v39.598h-60.808v-39.598c-.001-11.819 9.58-21.4 21.399-21.4z" fill="#f9ed80"/><path d="m417.242 259.82h-322.484c-17.092 0-29.282 16.567-24.214 32.89 24.553 79.076 98.408 136.661 185.456 136.661s160.903-57.585 185.455-136.661c5.069-16.322-7.122-32.89-24.213-32.89z" fill="#ff748f"/><path d="m269.704 18.312c-1.433-6.36-7.185-10.812-13.704-10.812s-12.271 4.452-13.704 10.812c-5.542 24.587-27.454 46.148-27.454 46.148s16.222 1.911 29.065 16.474c6.393 7.25 17.794 7.25 24.188 0 12.843-14.563 29.065-16.474 29.065-16.474s-21.914-21.562-27.456-46.148z" fill="#423e4f"/><path d="m129.885 259.82h-35.127c-17.092 0-29.282 16.567-24.214 32.891 24.553 79.075 98.408 136.66 185.456 136.66 3.498 0 6.972-.103 10.424-.287-75.924-26.988-130.873-91.994-136.539-169.264z" fill="#fd5f7e"/></g><g><path d="m150.509 178.012 13.459 3.606c-1.263 1.342-2.042 3.145-2.042 5.133v14.374c0 4.142 3.358 7.5 7.5 7.5s7.5-3.358 7.5-7.5v-14.374c0-.592-.076-1.165-.205-1.717 0 0 7.157 1.918 7.157 1.918 3.947 1.059 8.128-1.356 9.185-5.303 1.072-4.001-1.302-8.114-5.304-9.186l-33.368-8.941c-3.996-1.071-8.113 1.302-9.186 5.304-1.071 4.001 1.303 8.113 5.304 9.186z"/><path d="m326.208 187.191c.648.011 1.302-.066 1.945-.238l7.157-1.918c-.129.552-.205 1.125-.205 1.717v14.374c0 4.142 3.358 7.5 7.5 7.5s7.5-3.358 7.5-7.5v-14.374c0-1.989-.779-3.792-2.042-5.134l13.458-3.606c4.001-1.072 6.375-5.185 5.304-9.186-1.072-4.001-5.187-6.375-9.186-5.304l-33.368 8.941c-4.001 1.072-6.375 5.184-5.304 9.185.868 3.24 3.981 5.489 7.241 5.543z"/><path d="m23.093 232.572c5.349-.268 8.675-5.912 6.394-10.709-5.659-22.063-3.287-36.559-3.846-56.812 0-6.314 5.926-11.003 11.919-9.429 21.28 5.595 34.667 19.377 40.916 27.378-7.831 25.292-10.169 52.276-6.776 78.791-4.955 4.924-8.021 10.95-9.222 17.224-9.292-9.119-17.154-19.722-23.14-31.296-1.903-3.679-6.427-5.12-10.107-3.216-3.679 1.903-5.119 6.428-3.216 10.107 9.459 18.289 23.098 34.406 39.516 46.769 15.186 43.508 45.912 82.595 88.399 107.705-31.989 21.646-53.159 55.18-53.159 95.417 0 4.142 3.358 7.5 7.5 7.5h295.489c4.142 0 7.5-3.358 7.5-7.5 0-39.475-20.455-73.303-53.193-95.441 11.283-6.642 21.978-14.402 31.903-23.24 3.093-2.754 3.368-7.495.613-10.589s-7.496-3.368-10.589-.613c-65.905 58.686-164.366 63.472-235.646 10.075-31.423-23.539-55.069-57.002-66.625-94.205-2.241-7.222.342-15.138 6.442-19.676 3.234-2.406 7.014-3.49 10.608-3.49 7.259 0 322.522-.06 324.147.083 3.395.312 6.402 1.516 8.944 3.407 6.106 4.541 8.681 12.46 6.442 19.677-1.339 3.162-8.797 32.978-35.293 64.55-2.663 3.173-2.25 7.903.923 10.566s7.904 2.249 10.566-.924c15.882-18.925 27.964-40.196 35.995-63.302 34.41-25.898 54.89-66.813 54.89-109.963v-26.364c0-16.161-15.232-28.01-30.732-23.936-20.043 5.269-34.215 16.562-42.989 25.793-23.234-56.176-71.61-95.492-126.59-109.205-4.633-4.94-19.801-22.229-24.041-41.042-2.175-9.655-11.016-16.662-21.02-16.662s-18.844 7.007-21.021 16.663c-4.222 18.732-19.418 36.093-24.047 41.043-54.9 13.694-103.32 52.952-126.584 109.203-8.774-9.231-22.947-20.524-42.99-25.792-15.508-4.077-30.732 7.782-30.732 23.936.624 19.893-2.085 36.683 4.694 61.979.911 3.394 4.092 5.777 7.758 5.54zm319.719 184.649c11.213 6.384 49.498 31.595 53.165 79.779h-39.18v-25.988c0-4.142-3.358-7.5-7.5-7.5s-7.5 3.358-7.5 7.5v25.988h-171.563v-25.988c0-4.142-3.358-7.5-7.5-7.5s-7.5 3.358-7.5 7.5v25.988h-39.188c1.669-22.494 10.924-42.579 27.575-59.795 10.201-10.547 20.556-17.11 25.57-19.965 54.325 26.078 118.758 26.278 173.621-.019zm-227.041-164.901v-11.139c0-7.664 6.235-13.899 13.9-13.899h18.009c7.664 0 13.899 6.235 13.899 13.899v11.139zm234.681 0v-11.139c0-7.664 6.235-13.899 13.9-13.899h18.008c7.665 0 13.9 6.235 13.9 13.899v11.139zm83.103-69.32c6.249-8 19.636-21.783 40.915-27.376 5.987-1.574 11.919 3.109 11.919 9.429v26.364c0 33.097-13.515 64.724-36.835 87.605-1.276-6.67-4.561-12.596-9.223-17.231 3.364-26.279 1.108-53.329-6.776-78.791zm-183.927-163.039c.648-2.875 3.334-4.961 6.388-4.961s5.74 2.086 6.388 4.961c3.733 16.561 13.995 31.565 21.376 40.695-8.11 3.441-15.273 8.549-21.295 15.317-1.928 2.186-4.661 3.133-7.404 2.85-5.038-.521-5.185-3.653-12.591-9.616-4.937-4.002-9.926-6.722-14.238-8.551 7.381-9.13 17.643-24.134 21.376-40.695zm-34.521 52.158c5.476 1.164 9.913 3.361 14.622 6.304 9.703 6.457 9.84 11.839 20.069 14.618 2.007.545 4.096.829 6.218.829 11.603 0 17.612-7.9 17.721-7.979 6.293-7.136 15.098-12.055 23.188-13.772 79.301 19.502 136.987 94.468 129.216 181.407-6.606-1.848-12.257-.997-14.88-1.206v-11.139c0-15.935-12.964-28.899-28.9-28.899h-18.008c-15.936 0-28.9 12.964-28.9 28.899v11.139h-158.874v-11.139c0-15.935-12.964-28.899-28.899-28.899h-18.009c-15.936 0-28.9 12.964-28.9 28.899v11.139c-3.475.183-8.509-.576-14.88 1.206-7.696-85.262 48.47-161.55 129.216-181.407z"/></g></g></svg>