<svg id="Capa_1" enable-background="new 0 0 497 497" height="512" viewBox="0 0 497 497" width="512" xmlns="http://www.w3.org/2000/svg"><g><path d="m234.509 348.712h-62.462c-13.688 0-24.785-11.096-24.785-24.785v-175.956c0-11.403 7.781-21.335 18.853-24.064l95.216-23.471 14.08 103.06-14.08 118.392c.001 14.815-12.008 26.824-26.822 26.824z" fill="#f4ddb2"></path><path d="m236 106.681v215.208c0 14.814-12.009 26.823-26.823 26.823h25.332c14.814 0 26.823-12.009 26.823-26.823l14.08-118.392-14.08-103.06z" fill="#fccd81"></path><g><path d="m169.585 206.893c-3.915 0-7.211-3.038-7.476-7-.276-4.129 2.845-7.701 6.972-7.982.274-.02 27.662-2.1 47.267-17.789 3.235-2.589 7.955-2.064 10.542 1.169 2.588 3.234 2.065 7.954-1.169 10.542-23.355 18.691-54.321 20.956-55.628 21.043-.171.011-.34.017-.508.017z" fill="#fccd81"></path></g><g><path d="m169.585 283.044c-3.915 0-7.211-3.038-7.476-7-.276-4.129 2.845-7.701 6.972-7.982.274-.02 27.662-2.1 47.266-17.789 3.236-2.589 7.954-2.064 10.542 1.169 2.588 3.234 2.065 7.954-1.169 10.542-23.355 18.691-54.321 20.957-55.628 21.044-.17.011-.339.016-.507.016z" fill="#fccd81"></path></g><g><path d="m301.767 292.97h-17.809c-4.143 0-7.5-3.358-7.5-7.5s3.357-7.5 7.5-7.5h17.809c11.421 0 20.712-9.291 20.712-20.711v-212.764c0-4.142 3.357-7.5 7.5-7.5s7.5 3.358 7.5 7.5v212.763c0 19.692-16.021 35.712-35.712 35.712z" fill="#eaf6ff"></path></g><path d="m337.19 399.26v97.74h-261.06c-8.24 0-14.93-6.69-14.93-14.93v-14.43c0-5.05 2.55-9.76 6.78-12.51l35.76-23.29 126.82-47.53h91.68c8.25 0 14.95 6.69 14.95 14.95z" fill="#b289c9"></path><path d="m337.19 399.26v97.74h-24.62c-20.435 0-37.546-16.723-37.153-37.155.342-17.784 13.422-32.45 30.487-35.252 3.453-.567 5.946-3.621 5.946-7.12v-18.213c0-8.26-6.69-14.95-14.95-14.95h25.34c8.25 0 14.95 6.69 14.95 14.95z" fill="#a274bf"></path><circle cx="337.186" cy="460.555" fill="#2b4d66" r="36.441"></circle><path d="m337.186 424.114c-4.454 0-8.72.802-12.666 2.265 13.881 5.147 23.775 18.505 23.775 34.176s-9.894 29.03-23.775 34.176c3.946 1.463 8.212 2.265 12.666 2.265 20.126 0 36.442-16.315 36.442-36.441s-16.316-36.441-36.442-36.441z" fill="#234459"></path><path d="m230.56 384.308v24.603c0 12.662-10.264 22.926-22.926 22.926h-103.895l66.377-43.232c4.306-2.804 9.334-4.297 14.472-4.297z" fill="#fccd81"></path><path d="m205.228 384.308v24.603c0 12.662-10.264 22.926-22.926 22.926h25.332c12.662 0 22.926-10.264 22.926-22.926v-24.603z" fill="#e9b665"></path><g><path d="m360.779 14.37v30.12h-26.356c-2.837 0-5.549 1.164-7.504 3.219l-32.608 34.293c-1.83 1.925-2.851 4.479-2.851 7.135v295.283h-30.13v-305.44c0-3.86 1.49-7.58 4.15-10.38l47.12-49.55c2.84-2.99 6.79-4.68 10.92-4.68h37.259z" fill="#365e7d"></path></g><path d="m337.479 14.37h23.3v30.123h-23.3z" fill="#2b4d66"></path><path d="m423.836 56.024h-56.479c-6.608 0-11.964-5.357-11.964-11.964v-32.096c-.001-6.607 5.356-11.964 11.964-11.964h56.479c6.608 0 11.964 5.357 11.964 11.964v32.096c0 6.608-5.357 11.964-11.964 11.964z" fill="#a274bf"></path><path d="m423.836 0h-25.332c6.608 0 11.964 5.357 11.964 11.964v32.096c0 6.608-5.357 11.964-11.964 11.964h25.332c6.608 0 11.964-5.357 11.964-11.964v-32.096c0-6.607-5.357-11.964-11.964-11.964z" fill="#925cb4"></path><g><g><path d="m137.78 469.46v27.54h-15v-27.54c0-4.14 3.35-7.5 7.5-7.5 4.14 0 7.5 3.36 7.5 7.5z" fill="#a274bf"></path></g><g><path d="m174.65 469.46v27.54h-15v-27.54c0-4.14 3.36-7.5 7.5-7.5s7.5 3.36 7.5 7.5z" fill="#a274bf"></path></g><g><path d="m211.52 469.46v27.54h-15v-27.54c0-4.14 3.36-7.5 7.5-7.5 4.15 0 7.5 3.36 7.5 7.5z" fill="#a274bf"></path></g><g><path d="m248.4 469.46v27.54h-15v-27.54c0-4.14 3.35-7.5 7.5-7.5 4.14 0 7.5 3.36 7.5 7.5z" fill="#a274bf"></path></g></g><circle cx="337.19" cy="460.555" fill="#eaf6ff" r="7.338"></circle></g></svg>