<?xml version="1.0" encoding="UTF-8"?>
<svg width="96px" height="97px" viewBox="0 0 96 97" version="1.1" xmlns="http://www.w3.org/2000/svg" xmlns:xlink="http://www.w3.org/1999/xlink">
    <!-- Generator: Sketch 55.2 (78181) - https://sketchapp.com -->
    <title>Group 3</title>
    <desc>Created with Sketch.</desc>
    <defs>
        <polygon id="path-1" points="0.235 0.290056933 95.5361602 0.290056933 95.5361602 97 0.235 97"></polygon>
    </defs>
    <g id="Page-1" stroke="none" stroke-width="1" fill="none" fill-rule="evenodd">
        <g id="1779" transform="translate(-402.000000, -261.000000)">
            <g id="Group-3" transform="translate(402.000000, 261.000000)">
                <path d="M58.03,12.351 C56.964,10.437 54.799,9.218 52.485,9.587 C51.919,6.222 48.047,4.251 44.756,5.8 C44.203,5.553 43.621,5.41 43.008,5.382 C41.198,4.976 40.078,5.642 38.87,6.152 C37.896,6.729 37.119,7.505 36.543,8.48 L35.889,10.03 C35.618,10.892 35.579,11.755 35.773,12.618 C35.793,13.079 35.881,13.521 36.026,13.948 C34.773,14.394 33.703,15.387 33.011,16.595 C30.447,16.718 28.21,18.957 28.21,21.617 C28.21,24.802 31.423,27.401 34.561,26.455 C35.417,26.196 35.393,26.208 35.642,26.116 C35.778,27.131 36.387,28.153 37.111,28.883 C37.485,29.172 37.859,29.461 38.233,29.749 C41.152,31.442 44.478,30.061 45.733,27.898 C46.197,28.023 46.688,28.055 47.159,27.989 C47.627,28.795 48.301,29.481 49.184,29.939 C50.428,30.584 51.66,31.193 53.123,31.112 C54.753,31.02 56.294,30.488 57.471,29.31 C58.538,28.244 59.341,26.494 59.273,24.962 C59.164,22.546 58.643,24.059 59.647,22.706 C63.367,23.695 66.994,20.599 66.841,17.158 C66.636,12.587 61.89,9.878 58.03,12.351" id="Fill-231" fill="#383B3C"></path>
                <path d="M82.771,26.074 C82.454,25.54 82.082,25.367 81.742,25.211 C82.808,22.798 80.994,19.532 77.959,19.532 C76.564,19.532 75.206,20.334 74.459,21.504 C73.685,19.679 70.721,20.12 70.795,22.447 C68.806,21.515 65.744,22.779 65.894,25.654 C65.883,26.773 66.411,27.746 67.515,28.36 C68.8,29.125 70.004,29.051 71.199,28.379 C71.297,28.611 71.396,28.844 71.493,29.076 C71.903,29.767 72.452,30.317 73.144,30.725 C73.509,30.88 73.875,31.035 74.241,31.189 C75.589,31.552 77.229,31.309 78.262,30.363 C78.958,29.912 79.224,29.437 79.486,29.007 C80.178,29.4 81.009,29.396 81.696,28.998 C81.996,28.861 82.418,28.709 82.771,28.113 C83.139,27.479 83.139,26.709 82.771,26.074" id="Fill-232" fill="#434749"></path>
                <g id="Group-237">
                    <mask id="mask-2" fill="white">
                        <use xlink:href="#path-1"></use>
                    </mask>
                    <g id="Clip-234"></g>
                    <path d="M69.507,7.315 C69.868,4.215 67.466,0.899 63.883,0.899 C62.469,0.899 61.083,1.495 60.037,2.45 C59.495,1.666 58.911,1.26 58.209,0.928 C55.092,-0.88 51.203,1.373 51.203,4.948 C51.203,6.297 51.562,5.409 50.771,6.267 C47.208,3.745 42.439,6.755 42.61,10.564 C42.755,13.821 45.523,16.214 48.583,15.73 C49.095,16.795 49.66,17.122 50.371,17.671 C50.856,17.952 51.366,18.135 51.904,18.223 C52.161,18.826 52.527,19.366 53,19.843 C53.349,20.113 53.698,20.383 54.048,20.652 C55.378,21.424 57.257,21.649 58.656,20.914 C59.159,20.75 59.608,20.492 60.004,20.146 C61.634,21.862 65.256,21.224 65.436,17.997 C65.859,17.706 66.232,17.345 66.529,16.931 C67.306,16.618 68.012,16.119 68.571,15.493 C70.818,15.562 72.932,13.618 72.83,11.367 C72.742,9.397 71.405,7.697 69.507,7.315" id="Fill-233" fill="#565B5C" mask="url(#mask-2)"></path>
                    <path d="M2.369,94.077 C3.363,94.138 3.989,93.588 4.786,93.07 C5.814,92.402 6.852,91.835 7.821,91.068 C11.131,88.451 13.899,85.174 16.877,82.195 C19.819,79.254 23.333,76.698 25.535,73.13 C26.848,71.004 27.824,68.792 29.236,66.706 C30.669,64.587 32.576,62.814 34.305,60.941 C35.491,59.656 36.51,58.06 37.516,56.644 C37.95,56.033 38.096,55.207 38.501,54.6 C38.995,53.86 39.349,53.609 39.668,52.805 C40.14,51.617 41.034,50.753 42.05,49.988 C42.501,49.649 42.498,49.582 43.027,49.388 C43.595,49.181 44.26,49.081 44.865,48.917 C46.586,48.45 48.172,47.972 49.936,47.669 C54.108,46.951 55.19,46.472 58.235,45.262 C59.431,44.788 60.429,43.827 61.759,43.743 C62.129,43.72 63.082,43.585 63.398,43.723 C64.001,43.99 63.778,44.552 63.771,45.188 C63.754,46.599 63.363,48.564 63.91,49.946 C64.157,50.567 64.775,50.893 65.18,51.387 C66.055,52.45 67.1,55.447 67.875,56.634 C68.215,57.152 68.715,57.495 69.024,58.042 C69.265,58.469 69.293,58.934 69.496,59.362 C69.811,60.024 70.51,60.569 70.83,61.248 C71.057,61.725 70.937,62.191 71.096,62.68 C71.238,63.119 71.595,63.349 71.825,63.712 C72.28,64.427 72.191,65.195 72.628,65.89 C72.984,66.454 73.332,67.072 73.724,67.612 C74.554,68.755 75.56,69.351 76.053,70.719 C76.322,71.465 76.433,72.355 76.743,73.146 C76.95,73.675 77.361,73.765 77.624,74.163 C77.93,74.623 78.012,75.4 78.162,75.967 C79.389,80.6 80.129,80.259 81.987,83.505 C82.572,84.528 83.451,85.381 84.008,86.42 C84.761,87.823 86.042,89.626 87.275,90.491 C89.428,92.003 88.852,93.671 89.918,93.928 C90.129,93.978 90.535,93.763 90.857,93.833 C91.36,93.94 91.85,94.334 92.359,94.481 C92.863,94.628 93.924,94.664 93.534,95.609 C92.44,95.976 90.507,95.737 89.361,95.709 C87.226,95.657 85.199,94.923 83.04,94.821 C78.593,94.61 74.092,94.456 69.671,94.045 C67.502,93.844 65.491,93.028 63.27,92.892 C61.031,92.756 58.738,92.803 56.497,92.842 C46.618,93.012 48.459,94.938 35.206,94.878 C30.668,94.856 25.761,94.352 21.339,95.463 C19.238,95.99 17.42,96.531 15.25,96.493 C13.601,96.466 12.225,96.786 10.617,96.907 C8.545,97.064 6.39,96.887 4.309,96.887 C3.49,96.887 0.405,97.416 0.235,96.19 C1.93,94.227 4.171,94.053 2.369,94.077" id="Fill-235" fill="#3F3B3E" mask="url(#mask-2)"></path>
                    <path d="M7.82,96.484 C8.452,96.484 9.2,96.579 9.832,96.492 C10.612,96.385 10.997,96.129 11.735,95.776 C16.326,93.582 17.412,90.057 20.69,86.825 C22.024,85.509 23.029,83.669 25.068,84.046 C25.397,85.102 25.128,86.618 25.128,87.739 C25.128,88.608 24.827,90.204 25.502,90.878 C27.391,92.763 29.216,89.047 30.671,88.576 C31.544,89.409 30.957,92.011 32.979,91.652 C33.658,91.532 34.587,90.265 35.055,89.793 C39.204,85.593 39.16,83.423 41.499,79.891 C42.729,78.036 44.732,76.203 45.516,74.115 C45.725,73.559 45.769,71.566 46.461,71.472 C47.221,71.37 46.864,73.791 46.864,74.176 C46.866,75.689 46.806,77.214 46.851,78.725 C46.894,80.166 47.428,81.367 47.625,82.757 C48.036,85.65 48.105,89.503 50.095,89.678 C51.068,89.763 51.417,88.695 51.715,87.904 C52.54,85.707 51.942,83.211 52.078,80.935 C52.133,80.027 53.405,72.229 55.238,73.152 C55.775,75.225 55.5,77.562 57,79.295 C58.601,81.145 60.636,82.085 62.471,83.601 C63.234,84.232 64.288,85.303 65.386,85.262 C66.873,85.205 66.276,82.424 66.175,81.619 C66.025,80.405 66.19,79.176 66.187,77.959 C66.185,77.448 65.947,76.207 66.407,75.953 C67.094,75.575 67.659,77.001 67.983,77.365 C70.057,79.709 73.019,84.599 76.258,84.426 C77.105,84.38 77.259,84.052 76.973,83.198 C76.635,82.187 76.263,81.044 75.858,80.057 C75.018,78.014 74.272,75.841 72.718,74.225 C71.245,72.695 70.562,70.761 71.032,70.135 C71.964,68.897 74.229,71.157 74.93,71.776 C75.36,71.234 74.365,68.123 73.876,67.427 C73.284,66.582 72.427,66.056 71.966,65.104 C71.56,64.263 71.411,63.32 71.067,62.455 C70.541,61.131 69.695,60.454 68.512,59.563 C67.371,58.703 66.364,57.952 65.196,57.236 C63.988,56.498 62.798,56.28 61.669,55.525 C60.485,54.734 58.768,53.792 57.35,53.807 C55.808,53.825 53.64,54.832 52.099,54.157 C51.412,53.856 50.625,52.66 50.317,52.009 C49.931,51.193 50.162,50.236 49.62,49.42 C48.49,49.357 46.427,50.39 45.479,50.812 C43.606,51.646 41.979,52.913 40.021,53.601 C37.79,54.385 38.592,52.911 39.016,51.601 C39.386,50.459 40.285,49.733 41.024,48.784 C41.823,47.756 42.749,46.927 43.655,45.966 C45.05,44.486 44.788,43.64 48.364,38.811 C48.662,38.41 49.019,38.152 49.27,37.734 C49.585,37.207 49.775,36.253 50.467,36.068 C51.686,35.742 53.115,37.74 52.871,38.811 C53.293,37.886 53.477,36.907 54.513,36.893 C55.603,36.88 55.318,37.605 56.104,38.047 C56.817,38.447 57.854,37.773 58.559,38.185 C58.998,38.442 58.838,38.78 59.322,38.951 C59.624,39.057 60.2,38.95 60.483,38.852 C60.476,38.102 61.172,37.977 61.466,37.363 C62.26,37.656 62.778,38.556 63.065,39.315 C64.212,42.342 63.252,43.79 63.594,45.211 C64.172,47.616 65.805,50.456 67.295,52.4 C68.746,54.292 69.231,56.438 70.41,58.463 C71.239,59.887 71.62,61.426 72.404,62.862 C72.884,63.743 73.455,64.399 73.745,65.37 C74.109,66.583 74.487,67.762 75.088,68.881 C76.226,70.995 77.447,72.948 78.372,75.17 C78.725,76.017 79.127,77.142 79.618,77.951 C80.309,79.09 81.474,79.792 82.259,80.839 C82.968,81.786 83.555,82.463 84.411,83.289 C85.113,83.965 85.526,84.875 86.223,85.556 C87.213,86.524 88.307,87.303 89.242,88.345 C89.764,88.927 90.44,89.375 90.86,90.038 C91.27,90.688 91.62,91.415 92.141,91.991 C92.57,92.466 93.103,92.804 93.457,93.352 C93.977,94.154 94.177,94.318 94.932,94.874 C96.82,96.263 93.748,95.914 92.996,95.796 C91.484,95.558 91.009,96.974 88.358,96.381 C84.862,95.598 81.312,95.662 77.751,95.679 C75.316,95.691 73.411,95.408 71.067,94.873 C70.072,94.646 68.911,94.549 67.986,94.109 C67.107,93.692 66.421,92.921 65.58,92.43 C63.591,91.269 61.82,91.839 59.651,92.056 C58.589,92.163 57.546,92.422 56.488,92.47 C55.551,92.512 54.688,92.465 53.756,92.645 C52.615,92.865 51.54,93.233 50.366,93.283 C49.54,93.319 48.708,93.199 47.883,93.245 C43.632,93.481 39.498,95.316 35.203,95.28 C29.104,95.23 30.381,95.347 26.876,95.679 C24.215,95.93 21.559,96.1 18.913,96.434 C14.227,97.026 16.649,96.854 11.845,96.887113 C10.768,96.894 10.097,96.574 9.059,96.386 C9.125,96.048 9.427,95.968 7.82,96.484" id="Fill-236" fill="#312E31" mask="url(#mask-2)"></path>
                </g>
                <path d="M10.235,88.433 C10.277,87.587 11.061,87.364 11.679,86.99 C12.424,86.54 12.983,85.97 13.66,85.449 C15.047,84.382 16.613,83.631 17.682,82.197 C18.437,81.185 19.355,80.398 20.208,79.469 C20.873,78.745 21.695,78.21 22.331,77.486 C23.029,76.695 23.366,75.676 24.157,74.949 C25.041,74.137 25.797,73.278 26.648,72.422 C27.777,71.284 28.275,70.332 29.753,69.727 C30.69,69.345 32.307,68.322 32.39,69.911 C32.455,71.166 31.071,73.257 30.46,74.356 C29.848,75.461 28.726,76.749 28.39,77.895 C29.577,78.357 31.179,76.889 31.792,76.043 C32.296,75.347 33.044,73.807 33.903,73.581 C34.288,74.363 33.614,75.173 33.572,75.955 C33.529,76.754 33.589,77.57 33.581,78.37 C33.574,79.08 33.314,80.396 34.377,80.44 C36.041,80.51 37.67,75.095 40.022,72.116 C43.559,67.637 44.688,65.637 46.416,63.996 C47.293,63.163 48.234,62.478 49.043,61.562 C49.632,60.894 50.054,60.64 50.809,60.297 C51.431,62.37 50.463,64.887 50.04,66.908 C49.659,68.727 48.357,70.793 48.939,72.703 C49.532,72.82 50.184,71.968 50.388,71.497 C50.857,70.409 51.158,69.225 51.661,68.121 C52.078,67.203 52.419,64.916 53.718,65.057 C54.95,65.192 55.951,66.756 56.126,67.911 C56.215,68.503 56.095,69.108 56.159,69.703 C56.344,71.421 57.13,73.553 58.125,74.967 C58.626,75.678 59.613,76.322 60.35,76.764 C61.879,77.68 61.762,76.66 61.759,75.268 C61.754,73.039 61.818,70.921 61.405,68.729 C60.956,66.348 59.647,64.159 59.335,61.877 C59.158,60.577 60.222,60.173 60.962,61.054 C61.256,61.406 61.563,63.925 62.436,63.491 C62.704,63.357 62.6,62.321 62.63,62.044 C62.701,61.405 62.835,59.785 63.773,59.797 C64.592,59.806 64.47,60.647 64.868,61.09 C65.479,61.767 65.733,61.22 66.509,61.101 C67.172,62.089 67.656,63.141 68.401,64.085 C68.928,64.753 70.572,66.86 71.367,66.674 C71.643,65.426 71.333,64.21 70.926,63.034 C70.555,61.962 70.434,60.881 70.122,59.802 C69.843,58.836 69.243,57.998 68.905,57.048 C67.223,52.316 66.427,53.177 64.979,50.026 C64.655,49.322 64.092,48.92 63.663,48.29 C62.703,46.883 63.077,43.7 60.414,45.234 C59.055,46.017 59.241,47.835 59.036,49.182 C58.894,50.113 58.169,54.013 56.567,53.178 C55.531,52.638 55.773,50.7 54.524,50.276 C53.753,50.014 52.865,50.49 52.098,50.682 C51.85,50.866 51.574,50.985 51.272,51.04 C51.051,51.005 50.894,50.886 50.801,50.683 C50.292,50.601 49.821,50.603 49.291,50.596 C48.813,50.592 48.343,50.508 47.876,50.666 C47.611,50.946 47.297,51.159 46.935,51.303 C46.231,51.428 45.536,51.591 44.85,51.792 C43.21,52.309 41.037,52.769 39.63,53.778 C38.779,54.387 38.122,55.384 37.458,56.175 C36.564,57.24 35.626,58.272 34.759,59.362 C33.326,61.161 32.393,63.231 30.864,64.985 C29.4,66.668 28.04,68.432 26.586,70.122 C25.875,70.948 25.249,71.285 24.392,71.918 C23.383,72.663 21.476,76.179 19.716,78.066 C19.093,78.735 18.309,79.137 17.661,79.764 C16.995,80.411 16.691,81.207 16.271,82.016 C15.777,82.969 15.017,83.793 14.34,84.621 C13.768,85.321 13.809,85.626 13.388,86.329 C12.725,87.433 11.085,87.988 10.235,88.433" id="Fill-238" fill="#4E4E4E"></path>
                <path d="M37.504,56.197 C36.585,55.268 35.089,60.979 34.398,62.248 C34.134,62.732 33.666,63.071 33.322,63.514 C34.443,63.605 35.561,61.881 36.399,61.263 C37.345,60.566 38.358,59.416 39.479,59.081 C38.645,61.715 37.006,64.196 35.796,66.681 C35.123,68.063 34.584,69.515 33.98,70.926 C33.678,71.632 33.155,72.641 33.142,73.417 C33.365,72.91 33.688,72.688 34.067,72.27 C34.699,71.573 35.05,70.765 35.653,70.056 C37.113,68.338 38.209,66.402 39.665,64.68 C40.996,63.107 42.51,61.6 43.695,59.915 C44.228,59.155 44.598,58.228 45.275,57.581 C45.211,58.602 45.263,59.104 44.658,60.012 C43.804,61.298 40.988,67.158 40.537,67.999 C40.198,68.634 39.319,71.258 38.544,71.522 C38.675,71.477 41.994,65.982 47.717,60.262 C48.897,59.082 50.271,57.585 51.831,56.904 C53.075,56.363 53.352,57.176 52.968,58.332 C52.597,59.447 52.163,60.806 52.455,62.04 C52.76,63.323 53.456,62.041 53.686,61.359 C54.038,60.307 54.035,58.427 54.994,57.925 C55.731,57.538 55.917,57.902 56.126,58.423 C56.76,60.002 56.736,62.002 56.962,63.681 C57.207,65.494 58.562,67.181 58.548,69.02 C58.488,67.637 58.583,66.247 58.553,64.863 C58.486,61.693 57.558,56.954 58.64,55.094 C58.937,54.583 59.49,53.621 60.049,53.456 C60.524,54.119 60.64,54.945 61.145,55.593 C61.5,56.051 62.245,57.214 62.749,57.422 C64.653,58.208 63.966,56.116 64.234,55.145 C65.272,55.756 65.332,56.943 66.539,57.317 C66.844,56.458 66.056,55.108 65.782,54.309 C64.123,49.462 62.244,50.609 62.216,47.987 C62.185,45.143 61.441,44.451 61.332,41.724 C61.315,41.278 61.107,39.815 61.385,39.468 C60.678,40.352 58.317,39.406 57.312,39.708 C56.165,40.052 55.777,43.356 54.483,43.005 C53.116,42.634 55.043,39.705 54.3,39.326 C53,38.663 51.098,42.297 50.479,42.875 C49.962,43.358 49.322,43.688 49.296,42.764 C49.279,42.126 49.964,41.522 50.105,40.957 C50.206,40.549 50.133,39.529 49.592,39.376 C49.094,39.236 48.455,40.334 48.263,40.722 C47.914,41.43 47.76,41.873 47.276,42.536 C46.632,43.415 45.824,44.078 45.164,44.951 C43.463,47.197 40.7,48.456 39.177,50.792 C38.217,52.264 37.954,54.56 37.504,56.197" id="Fill-239" fill="#606060"></path>
                <path d="M48.14,40.526 C48.048,41.255 46.978,41.207 46.33,41.553 C45.904,41.781 45.644,42.222 45.379,42.626 C44.079,44.603 42.21,45.617 40.423,47.048 C37.841,49.117 37.653,52.705 36.267,55.49 C34.449,59.144 31.747,62.466 29.443,65.829 C28.931,66.576 28.418,67.324 27.848,68.029 C25.959,70.363 21.468,74.462 21.014,75.497 C20.518,76.628 20.271,78.367 19.958,79.593 C24.301,77.32 25.874,71.59 30.128,69.153 C28.183,73.068 26.237,76.983 24.291,80.898 C27.589,79.002 28.165,74.569 30.151,71.325 C31.053,69.85 32.274,68.601 33.348,67.246 C38.155,61.186 36.425,59.364 38.697,56.995 C39.307,56.359 39.163,56.334 39.217,55.529 C39.282,54.535 40.15,53.655 41.143,53.574 C39.761,57.887 39.189,59.461 38.983,61.232 C38.744,63.277 38.521,65.138 37.129,66.779 C36.213,67.858 35.793,68.082 36.059,70.113 C36.173,70.981 36.738,71.469 37.294,70.604 C43.889,60.341 43.547,60.154 46.588,49.534 C47.066,47.864 48.303,45.801 49.953,46.344 C51.9,51.587 48.489,57.416 49.353,62.941 C51.32,62.384 51.515,59.75 51.72,57.716 C51.975,55.172 52.874,52.694 54.311,50.579 C54.226,52.948 54.142,55.318 54.057,57.687 C55.232,57.56 55.946,56.275 56.058,55.098 C56.17,53.922 55.889,52.729 56.043,51.557 C56.198,50.386 57.025,49.139 58.207,49.141 C58.205,55.899 60.206,62.255 60.52,68.845 C60.549,69.472 60.883,70.335 61.485,70.15 C61.984,69.997 61.962,69.302 61.973,68.779 C61.986,68.208 62.35,67.876 62.865,67.922 C64.099,70.93 66.957,73.771 68.769,76.52 C69.845,76.08 69.239,74.46 68.518,73.548 C64.697,68.722 61.765,63.194 59.915,57.323 C58.917,54.154 58.334,50.383 60.387,47.77 C60.387,48.405 61.993,49.557 62.319,50.138 C63.285,51.867 63.006,54.261 64.21,55.825 C64.326,55.977 64.478,56.13 64.669,56.137 C64.956,56.15 65.147,55.833 65.19,55.548 C65.432,53.932 63.841,52.623 64.086,50.888 C68.428,55.128 71.72,61.018 74.072,66.565 C74.73,65.244 74.336,63.626 73.617,62.338 C72.899,61.049 71.88,59.945 71.181,58.646 C70.396,57.188 70.037,55.53 69.241,54.078 C68.28,52.326 66.731,50.961 65.713,49.241 C63.596,45.663 64.079,41.239 61.846,39.137 C60.791,38.143 58.914,37.884 57.956,38.97 C58.319,38.077 57.264,37.132 56.302,37.206 C55.34,37.28 54.557,37.977 53.854,38.638 C54.255,37.956 53.192,37.235 52.435,37.469 C51.678,37.703 51.139,38.382 50.413,38.698 C49.921,38.912 49.363,38.951 48.881,39.189 C48.154,39.549 47.689,40.381 47.765,41.189 C50.796,36.377 47.98,40.77 48.14,40.526" id="Fill-240" fill="#F9520B"></path>
                <path d="M41.803,56.246 C41.955,54.279 41.383,52.17 42.261,50.403 C42.783,49.352 43.814,48.368 43.541,47.227 C41.955,48.306 41.399,50.35 41.002,52.227 C40.404,55.064 38.989,59.087 39.634,61.949 C40.805,60.497 41.655,58.168 41.803,56.246" id="Fill-241" fill="#F9A80B"></path>
                <path d="M37.403,67.283 C36.66,67.752 36.276,68.72 36.493,69.571 C37.113,68.972 37.504,68.141 37.569,67.281 L37.403,67.283" id="Fill-242" fill="#F9A80B"></path>
                <path d="M25.571,78.143 C24.956,79.083 24.342,80.023 23.728,80.963 C24.247,81.267 24.953,80.938 25.268,80.425 C25.806,79.544 25.565,78.089 25.571,78.143" id="Fill-243" fill="#F9A80B"></path>
                <path d="M30.131,67.155 C30.438,66.599 31.021,66.269 31.509,65.864 C32.552,64.997 33.19,63.749 33.799,62.537 C34.437,61.268 34.655,60.872 34.802,60.42 C34.963,59.925 35.059,59.336 35.505,59.068 C35.911,62.883 32.699,65.72 29.728,70.025 C29.427,69.207 29.689,67.954 30.131,67.155" id="Fill-244" fill="#F9A80B"></path>
                <path d="M23.817,73.234 C23.044,73.802 22.178,74.262 21.539,74.976 C20.9,75.69 20.532,76.768 20.977,77.618 C21.399,77.703 21.417,77.499 25.474,72.509 C26.021,71.837 26.495,71.22 26.569,70.355 C25.685,71.296 24.921,72.425 23.817,73.234" id="Fill-245" fill="#F9A80B"></path>
                <path d="M37.032,52.573 C37.173,51.796 37.667,48.994 38.35,48.325 C38.581,48.097 38.694,48.079 41.131,47.013 C40.339,48.576 39.548,50.139 38.756,51.702 C38.117,52.964 37.438,55.659 36.444,56.305 C36.491,55.074 36.81,53.803 37.032,52.573" id="Fill-246" fill="#F9A80B"></path>
                <path d="M45.455,44.359 C45.84,44.454 45.99,44.965 45.848,45.335 C45.706,45.706 45.372,45.962 45.054,46.199 C45.022,46.053 44.989,45.909 44.957,45.763 C44.501,45.676 44.018,45.735 43.596,45.931 C44.207,45.352 43.805,45.695 45.455,44.359" id="Fill-247" fill="#F9A80B"></path>
                <path d="M44.033,55.672 C43.182,53.885 44.153,51.668 44.843,49.7 C45.308,51.49 44.911,53.484 43.797,54.961 L44.033,55.672" id="Fill-248" fill="#F9A80B"></path>
                <path d="M47.146,46.312 C47.503,45.181 48.447,44.254 49.583,43.916 C50.431,45.038 50.851,46.476 50.74,47.879 C50.6,46.939 49.696,46.177 48.746,46.197 C47.796,46.219 46.926,47.019 46.826,47.965 C46.422,47.158 46.672,46.08 47.39,45.534 L47.146,46.312" id="Fill-249" fill="#F9A80B"></path>
                <path d="M49.947,58.872 C49.988,60.34 50.13,62.109 48.932,62.958 C48.655,61.271 48.718,59.543 48.938,57.847 C49.087,56.691 49.305,55.439 50.057,54.553 C50.615,55.629 49.909,57.582 49.947,58.872" id="Fill-250" fill="#F9A80B"></path>
                <path d="M54.214,52.314 C53.921,56.915 53.829,57 54.143,57.251 C54.386,57.444 54.774,57.303 54.943,57.042 C55.113,56.781 55.122,56.452 55.119,56.14 C55.106,54.463 54.898,52.785 54.501,51.154 C54.376,50.643 53.988,50.003 53.502,50.202 C52.966,50.841 52.675,51.68 52.703,52.514 C53.193,52.03 54.013,51.539 54.484,52.043 L54.214,52.314" id="Fill-251" fill="#F9A80B"></path>
                <path d="M60.518,64.108 C60.996,65.221 61.39,66.37 61.697,67.543 C61.777,67.848 61.849,68.181 61.727,68.473 C61.605,68.766 61.201,68.955 60.959,68.751 C60.746,68.571 60.796,68.524 60.21,64.488 L60.518,64.108" id="Fill-252" fill="#F9A80B"></path>
                <path d="M62.341,67.487 C62.261,67.039 63.016,66.762 63.245,67.155 C63.961,68.789 64.678,70.424 65.394,72.058 C63.669,71.154 63.604,68.568 62.074,67.363 L62.341,67.487" id="Fill-253" fill="#F9A80B"></path>
                <path d="M67.56,73.652 C68.576,74.035 69.192,75.258 68.894,76.303 C67.771,75.949 66.924,74.851 66.866,73.676 L67.56,73.652" id="Fill-254" fill="#F9A80B"></path>
                <path d="M59.089,50.074 C59.918,48.347 60.012,47.995 60.395,47.95 C60.776,47.906 61.912,48.629 62.335,49.85 C62.765,51.09 62.402,53.321 64.609,55.746 C64.748,55.232 64.888,54.683 64.726,54.176 C64.564,53.668 63.968,53.263 63.492,53.503 C63.23,51.327 62.812,48.884 61.004,47.644 C60.748,47.47 60.46,47.321 60.152,47.307 C59.402,47.274 58.405,48.08 58.904,49.943 L59.089,50.074" id="Fill-255" fill="#F9A80B"></path>
                <path d="M64.028,51.925 C63.962,51.578 64.396,51.306 64.739,51.387 C65.233,51.501 65.225,51.626 69.019,56.317 C68.21,53.971 66.759,51.852 64.865,50.25 C64.703,50.112 64.519,49.972 64.307,49.978 C63.963,49.989 63.75,50.403 63.816,50.741 C63.881,51.079 64.13,51.346 64.369,51.594 L64.028,51.925" id="Fill-256" fill="#F9A80B"></path>
                <path d="M72.533,62.868 C73.342,63.724 73.857,64.853 73.973,66.026 C73.536,66.401 72.947,65.789 72.703,65.267 C72.325,64.457 71.938,63.564 72.158,62.697 L72.533,62.868" id="Fill-257" fill="#F9A80B"></path>
                <path d="M53.104,43.308 C52.757,44.758 51.69,46.044 51.75,47.532 C52.055,47.551 52.279,47.264 52.446,47.01 C53.433,45.499 54.452,43.896 54.556,42.094 C54.618,41.017 55.155,39.638 54.588,38.738 C52.974,39.314 53.437,41.916 53.104,43.308" id="Fill-258" fill="#F9A80B"></path>
                <path d="M57.174,41.292 C57.168,42.005 57.462,42.71 57.363,43.417 C57.263,44.123 56.788,44.711 56.332,45.259 C55.09,46.752 54.772,46.571 54.22,47.248 C53.519,48.107 54.054,49.094 54.508,48.776 C55.187,48.302 54.875,46.898 55.684,46.716 C56.018,46.639 56.211,46.827 56.633,46.393 C58.181,44.805 57.804,41.508 58.105,39.47 C57.525,39.86 57.181,40.546 57.174,41.292" id="Fill-259" fill="#F9A80B"></path>
                <path d="M58.144,46.733 C58.667,46.699 58.815,46.017 58.92,45.503 C59.025,44.988 59.569,44.392 59.965,44.736 C59.464,43.609 59.105,42.421 58.898,41.206 C58.741,41.695 58.7,42.221 58.778,42.729 C58.985,41.975 58.958,41.894 58.144,46.733" id="Fill-260" fill="#F9A80B"></path>
                <path d="M60.693,40.117 C60.199,42.272 63.207,44.213 62.456,46.293 C62.322,46.289 62.188,46.286 62.053,46.283 C61.459,44.667 60.866,43.051 60.273,41.434 C60.137,41.063 60.035,40.566 60.36,40.339 L60.693,40.117" id="Fill-261" fill="#F9A80B"></path>
                <path d="M60.061,39.327 C59.525,39.171 58.919,39.712 59.013,40.262 C58.916,39.78 58.852,39.27 59.012,38.805 C59.172,38.341 59.618,37.94 60.108,37.988 C60.597,38.035 60.966,38.676 60.661,39.061 L60.061,39.327" id="Fill-262" fill="#F9A80B"></path>
                <path d="M56.803,37.634 C54.916,37.142 54.619,38.799 55.311,39.144 C55.713,39.345 56.203,39.058 56.464,38.691 C56.726,38.324 56.863,37.875 57.158,37.534 L56.803,37.634" id="Fill-263" fill="#F9A80B"></path>
                <path d="M52.555,37.98 C51.863,37.74 51.181,38.42 50.921,39.106 C50.66,39.792 50.586,40.581 50.095,41.127 C49.791,41.465 49.306,41.813 49.452,42.244 C49.572,42.595 50.084,42.666 50.391,42.456 C51.439,41.736 50.709,38.469 52.772,37.753 L52.555,37.98" id="Fill-264" fill="#F9A80B"></path>
                <path d="M49.506,39.038 C48.947,39.468 48.414,39.93 47.911,40.425 C47.727,41.32 46.52,41.571 46.026,42.342 C45.776,42.731 45.738,43.25 45.93,43.673 C47.521,42.715 48.78,41.219 49.455,39.488 L49.506,39.038" id="Fill-265" fill="#F9A80B"></path>
                <path d="M64.208,46.456 C64.686,45.641 64.63,44.598 64.279,43.722 C63.927,42.846 63.314,42.103 62.693,41.393 C62.787,42.517 63.608,45.016 64.208,46.456" id="Fill-266" fill="#F9A80B"></path>
                <path d="M49.245,37.198 C48.721,37.74 48.197,38.283 47.673,38.825 C47.404,39.139 47.929,39.615 48.315,39.468 C49.092,39.171 48.964,37.786 49.802,37.596 L49.245,37.198" id="Fill-267" fill="#F9520B"></path>
                <path d="M52.026,36.744 C52.016,36.36 52.657,36.295 52.877,36.609 C53.098,36.925 53.015,37.351 52.924,37.724 C52.403,37.818 51.882,37.262 52.01,36.748 L52.026,36.744" id="Fill-268" fill="#F9A80B"></path>
                <path d="M48.053,38.135 C48.109,38.469 48.62,38.526 48.865,38.293 C49.111,38.059 49.155,37.69 49.185,37.352 C48.932,37.355 48.678,37.358 48.424,37.361 C48.346,37.687 48.269,38.014 48.192,38.342 L48.053,38.135" id="Fill-269" fill="#F9A80B"></path>
            </g>
        </g>
    </g>
</svg>