<svg id="Capa_1" enable-background="new 0 0 512 512" height="512" viewBox="0 0 512 512" width="512" xmlns="http://www.w3.org/2000/svg"><g><path d="m363.683 246.95v19.583c0 4.978 2.627 9.332 6.561 11.785l-28.121 77.568 35.513 12.875 32.025-88.336h10.9c12.525 0 22.678-10.153 22.678-22.678v-10.797z" fill="#ffcdbe"/><path d="m486.468 215.792h-171.301c-2.433 0-4.405 1.972-4.405 4.405v9.093c0 9.753 7.907 17.66 17.66 17.66h144.791c9.753 0 17.66-7.906 17.66-17.66v-9.093c0-2.433-1.972-4.405-4.405-4.405z" fill="#aa3584"/><path d="m486.468 215.792h-23.992c2.433 0 4.404 1.972 4.404 4.404v9.093c0 9.753-7.906 17.66-17.66 17.66h23.992c9.753 0 17.66-7.907 17.66-17.66v-9.093c.001-2.432-1.971-4.404-4.404-4.404z" fill="#902d72"/><path d="m400.818 162.557c-20.235 0-36.638-16.403-36.638-36.638v-49.249c0-1.698 1.376-3.074 3.074-3.074h67.128c1.698 0 3.074 1.376 3.074 3.074v49.249c-.001 20.234-16.404 36.638-36.638 36.638z" fill="#75cff9"/><path d="m434.381 73.596h-21.472c1.698 0 3.074 1.376 3.074 3.074v49.249c0 16.498-10.905 30.447-25.901 35.036 3.396 1.039 6.999 1.602 10.735 1.602 20.235 0 36.638-16.403 36.638-36.638v-49.249c0-1.698-1.376-3.074-3.074-3.074z" fill="#5fa7ee"/><path d="m364.18 116.715v9.204c0 20.235 16.403 36.638 36.638 36.638s36.638-16.403 36.638-36.638v-9.204z" fill="#744c9e"/><path d="m415.983 116.715v9.204c0 16.498-10.906 30.447-25.901 35.036 3.579 1.095 7.248 1.6 10.725 1.601h.01c13.941 0 26.062-7.788 32.254-19.249 2.795-5.174 4.384-11.096 4.384-17.389v-9.204h-21.472z" fill="#644187"/><path d="m349.211 302.159-27.047 74.606-18.371-54.128c-8.024-23.641-26.012-42.574-49.212-51.797l-41.666-16.564v-57.407h-57.543v57.407c-60.298 0-104.992 87.127-127.662 123.598-4.12 6.629-6.582 14.145-6.582 21.95 0 22.028 17.857 39.885 39.885 39.885h31.663v35.244h182.936v-59.918l11.913 31.601c6.651 17.644 24.801 28.171 43.419 25.184 13.037 0 24.679-8.163 29.122-20.419l46.56-128.429c.941-2.596-.4-5.464-2.996-6.405l-48.014-17.406c-2.596-.94-5.464.401-6.405 2.998z" fill="#ddebfd"/><path d="m388.139 310.953-48.583 134.009c-4.579 12.631-16.577 21.044-30.013 21.044-1.856.298-3.708.462-5.545.505 7.846 4.784 17.33 6.853 26.945 5.31 13.037 0 24.679-8.163 29.122-20.419l46.56-128.429c.941-2.596-.4-5.464-2.996-6.405z" fill="#bed9fd"/><path d="m145.456 262.624c25.795 26.15 51.586 26.15 77.374 0v-4.406l-9.916-3.942v-57.407h-57.543v57.407c-3.355 0-6.658.284-9.916.8v7.548z" fill="#ffcdbe"/><path d="m155.372 196.869v38.493c11.367 8.595 25.882 15.514 35.623 15.514 6.086 0 14.038-2.707 21.921-6.83v-47.177z" fill="#ebae9d"/><path d="m275.615 398.972v100.404c0 2.83-2.294 5.124-5.124 5.124h-172.689c-2.83 0-5.124-2.294-5.124-5.124v-100.404l14.982-11.436c15.125-11.539 22.575-30.527 19.316-49.27l-12.276-70.81c11.077-7.163 22.934-11.928 35.497-12.953l29.274 75.619c1.651 4.264 7.686 4.258 9.329-.009l28.518-74.083 35.784 14.223-11.795 68.012c-3.248 18.743 4.201 37.731 19.316 49.27z" fill="#26447e"/><path d="m211.232 387.028h-8.06v-7.959c0-4.395-3.563-7.957-7.957-7.957h-13.263c-4.702 0-8.514 3.812-8.514 8.514v58.005h37.794c12.629 0 22.867-10.238 22.867-22.867v-4.87c0-12.628-10.238-22.866-22.867-22.866z" fill="#ffcdbe"/><path d="m67.398 504.5h103.99c1.132 0 2.049-.918 2.049-2.049v-120.496h-87.13c-11.575 0-20.959 9.384-20.959 20.959v99.536c0 1.132.918 2.05 2.05 2.05z" fill="#75cff9"/><path d="m282.556 85.132c-2.25-16.402-21.406-25.981-30.6-27.705-12.697-19.871-56.145-48.227-96.224-49.925-2.114-.09-3.454 2.254-2.346 4.057 6.508 10.588 8.655 15.357 9.927 18.556.846 2.129-1.214 4.245-3.372 3.477-19.518-6.953-51.824-12.92-80.516-2.815-1.775.625-2.359 2.853-1.123 4.272 11.297 12.97 24.238 24.677 24.238 24.677s-33.906 48.273 6.321 98.844l151.714 4.271s25.015-55.587 21.981-77.709z" fill="#26447e"/><path d="m282.556 85.132c-2.25-16.402-21.406-25.981-30.6-27.705-12.697-19.871-56.145-48.227-96.224-49.925-1.875-.079-3.132 1.754-2.621 3.428 32.78 8.416 63.626 30.279 73.987 46.497 9.195 1.724 28.35 11.302 30.6 27.705 2.837 20.678-18.832 70.589-21.673 77.018l24.549.691c.001 0 25.016-55.587 21.982-77.709z" fill="#20396b"/><g fill="#ebae9d"><path d="m257.242 176.434h-37.372v-36.739h37.372c10.145 0 18.369 8.224 18.369 18.369s-8.224 18.37-18.369 18.37z"/><path d="m111.045 176.434h37.372v-36.739h-37.372c-10.145 0-18.369 8.224-18.369 18.369s8.224 18.37 18.369 18.37z"/></g><path d="m235.36 196.14c-7.2 14.03-35.46 32.13-51.22 32.13-15.75 0-44.02-18.1-51.21-32.13-5.44-10.59-6.13-43.48-5.17-70.79 28.27-4.52 55.08-17.98 75.65-37.88h22.81c6.64 0 12.19 5.06 12.77 11.67 2.37 26.68 3.78 82.57-3.63 97z" fill="#ffcdbe"/><path d="m486.466 208.294h-78.15v-38.885c20.776-3.573 36.638-21.707 36.638-43.487v-49.249c0-5.831-4.744-10.574-10.574-10.574h-67.127c-5.831 0-10.574 4.744-10.574 10.574v49.248c0 21.78 15.862 39.914 36.638 43.487v38.885h-78.15c-6.564 0-11.904 5.34-11.904 11.905v9.093c0 13.873 11.287 25.16 25.16 25.16h27.758v12.08c0 5.263 1.9 10.209 5.261 14.05l-4.09 11.275c-2.905-.834-5.974-.607-8.736.683-3.028 1.417-5.322 3.928-6.456 7.065l-19.766 54.51-11.5-33.883c-8.743-25.769-28.258-46.311-53.542-56.36l-36.93-14.68v-27.608c9.548-6.546 17.761-14.513 21.612-22.016 1.862-3.626 3.219-9.085 4.189-15.636h11.019c14.265 0 25.87-11.605 25.87-25.87 0-6.199-2.195-11.894-5.847-16.353 10.01-26.781 14.297-46.152 12.727-57.596-1.263-9.207-6.668-17.623-15.631-24.338-6.181-4.631-12.803-7.521-17.851-8.958-15.325-20.874-58.827-49.04-100.462-50.806-3.75-.165-7.252 1.756-9.153 4.999-1.912 3.26-1.87 7.28.102 10.478 1.86 3.03 3.343 5.55 4.541 7.677-16.833-4.488-46.393-9.395-74.599.541-3.173 1.112-5.584 3.719-6.45 6.974-.868 3.264-.068 6.735 2.155 9.301 7.445 8.545 15.48 16.463 20.346 21.098-6.877 12.684-20.171 44.99-2.808 81.721-3.142 4.281-5.003 9.558-5.003 15.264 0 14.265 11.601 25.87 25.86 25.87h11.013c.966 6.48 2.321 11.969 4.202 15.63 3.848 7.508 12.063 15.48 21.614 22.028v25.583c-27.456 2.882-54.218 21.669-81.572 57.191-2.527 3.282-1.916 7.991 1.367 10.518 1.363 1.05 2.973 1.558 4.57 1.558 2.248 0 4.471-1.006 5.948-2.925 10.606-13.773 20.968-24.735 31.175-32.967l10.233 59.003c2.15 12.396-1.264 25.213-9.148 34.903h-10.264v-21.463c0-4.142-3.358-7.5-7.5-7.5s-7.5 3.358-7.5 7.5v21.492c-15.17.596-27.33 13.117-27.33 28.43v29.139c-16.376-1.595-29.218-15.441-29.218-32.234 0-6.032 1.885-12.253 5.449-17.989 2.496-4.014 18.175-30.267 24.031-39.433 2.23-3.49 1.208-8.128-2.283-10.358-3.49-2.23-8.128-1.209-10.358 2.283-5.978 9.356-11.329 18.316-16.05 26.221-2.907 4.868-5.653 9.466-8.08 13.368-5.044 8.116-7.71 17.075-7.71 25.908 0 25.067 19.563 45.639 44.218 47.273v8.852c0 4.142 3.358 7.5 7.5 7.5s7.5-3.358 7.5-7.5v-53.03c0-7.421 6.038-13.459 13.459-13.459h79.629v107.545h-21.963v-36.563c0-4.142-3.358-7.5-7.5-7.5s-7.5 3.358-7.5 7.5v36.563h-19.162v-14.532c0-4.142-3.358-7.5-7.5-7.5s-7.5 3.358-7.5 7.5v14.532h-21.961v-6.055c0-4.142-3.358-7.5-7.5-7.5s-7.5 3.358-7.5 7.5v11.505c0 5.266 4.284 9.549 9.549 9.549h203.091c6.964 0 12.63-5.661 12.63-12.62v-44.382c8.225 15.245 24.323 24.821 41.592 24.821 2.456 0 4.937-.194 7.419-.592 16.913-2.714 31.046-14.403 36.884-30.506l24.628-67.933c1.412-3.894-.601-8.195-4.495-9.607-3.895-1.414-8.196.6-9.607 4.495l-24.628 67.933c-3.982 10.984-13.623 18.957-25.158 20.808-15.036 2.414-29.843-6.178-35.213-20.425l-11.422-30.299v-14.722c0-.051-.008-.1-.009-.151v-45.827c0-4.142-3.358-7.5-7.5-7.5s-7.5 3.358-7.5 7.5v30.827l-2.939-2.24c-12.942-9.885-19.254-25.989-16.473-42.028l10.143-58.516c17.757 9.187 31.351 24.873 37.846 44.016l17.526 51.635-6.404 17.665c-1.412 3.894.601 8.195 4.495 9.607.844.306 1.707.451 2.556.451 3.067 0 5.946-1.896 7.051-4.946l27.262-75.198c.004-.01.006-.02.009-.029l6.227-17.174 43.314 15.707-7.254 19.993c-1.413 3.894.598 8.195 4.492 9.608 3.893 1.414 8.196-.598 9.608-4.492l8.109-22.35c1.139-3.138.986-6.532-.43-9.558-1.295-2.767-3.512-4.909-6.278-6.124l7.948-21.927h5.641c16.642 0 30.18-13.534 30.18-30.169v-3.3h22.473c13.873 0 25.16-11.287 25.16-25.16v-9.093c-.001-6.563-5.341-11.903-11.905-11.903zm-56.513-127.195v28.119h-58.275v-28.119zm-58.275 44.822v-1.704h58.275v1.704c0 16.066-13.071 29.138-29.138 29.138-16.066 0-29.137-13.071-29.137-29.138zm-114.439 43.011h-9.52c.437-6.946.623-14.364.643-21.73h8.876c5.994 0 10.87 4.872 10.87 10.86 0 5.994-4.876 10.87-10.869 10.87zm-168.246-133.211c29.432-7.461 59.417 1.729 68.428 4.937 3.762 1.341 7.981.35 10.747-2.527 2.758-2.868 3.583-7.106 2.112-10.774-1.023-2.578-2.51-5.926-5.641-11.493 35.141 5.04 70.497 29.177 81 45.608 1.115 1.746 2.903 2.952 4.939 3.333 7.496 1.403 22.903 9.346 24.55 21.348 1.126 8.208-2.757 25.134-10.723 47.067-2.277-.658-4.68-1.017-7.167-1.017h-9.045c-.356-14.711-1.188-27.573-1.734-33.715-.926-10.555-9.628-18.514-20.241-18.514h-22.81c-1.946 0-3.816.756-5.215 2.11-19.495 18.86-44.93 31.597-71.619 35.864-3.541.566-6.186 3.559-6.312 7.142-.078 2.212-.15 4.601-.21 7.113h-9.014c-2.99 0-5.859.516-8.533 1.453-15.818-37.156 5.224-68.247 6.17-69.612 2.176-3.097 1.702-7.331-1.104-9.871-.106-.097-9.202-8.355-18.578-18.452zm22.047 133.211c-5.988 0-10.86-4.876-10.86-10.87 0-3.316 1.498-6.285 3.848-8.278.008-.007.015-.014.023-.021 1.891-1.595 4.328-2.56 6.989-2.56h8.85c.022 7.165.204 14.635.653 21.73h-9.503zm28.561 23.783c-1.481-2.884-2.643-8.63-3.443-16.527-.011-.335-.044-.663-.097-.986-.888-9.313-1.291-21.453-1.138-35.357.001-.048.007-.095.007-.143 0-.028-.004-.055-.004-.084.03-2.601.078-5.261.147-7.977 26.446-5.415 51.474-18.265 71.324-36.668h19.823c2.779 0 5.057 2.075 5.299 4.833 1.223 13.767 1.812 26.893 1.937 38.754-.057.373-.096.753-.096 1.142 0 .436.045.861.117 1.277.141 26.691-2.1 46.502-4.789 51.738-3.025 5.894-10.982 12.902-19.768 18.438-.069.044-.142.084-.21.13-8.744 5.479-18.275 9.487-24.57 9.487-12.685 0-38.49-16.254-44.539-28.057zm44.538 43.057c6.133 0 13.656-2.157 21.28-5.651v24.161c0 2.131.916 4.098 2.421 5.491l-3.163 8.218c-14.023 9.067-27.235 9.025-41.269-.132l-3.081-7.96c1.556-1.374 2.543-3.379 2.543-5.618v-24.155c7.619 3.491 15.138 5.646 21.269 5.646zm12.89 52.087-12.903 33.519-12.99-33.555c4.323 1.232 8.667 1.858 13.011 1.858 4.301-.001 8.601-.615 12.882-1.822zm6.142 106.67h8.06c8.473 0 15.367 6.894 15.367 15.367v4.87c0 8.473-6.894 15.367-15.367 15.367h-30.294v-50.505c0-.559.455-1.014 1.014-1.014h13.263c.252 0 .457.205.457.457v7.958c0 4.142 3.358 7.5 7.5 7.5zm52.902-1.023 12.037 9.172v12.358c0 .054.007.107.008.161 0 .023 0 .045.001.068v81.735h-87.182v-51.868h30.294c16.744 0 30.367-13.623 30.367-30.367v-4.87c0-16.745-13.623-30.367-30.367-30.367h-.56v-.458c0-8.523-6.934-15.457-15.457-15.457h-13.263c-7.019 0-12.983 4.546-15.141 10.843h-38.478c6.024-11.363 8.272-24.582 6.037-37.467l-11.418-65.838c7.509-4.315 14.954-7.127 22.372-8.459l27.152 70.139c1.879 4.853 6.453 7.987 11.656 7.987h.012c5.208-.005 9.782-3.148 11.654-8.009l25.795-67.009 23.076 9.173-10.75 62.016c-3.739 21.568 4.747 43.222 22.155 56.517zm179.665-135.754c0 8.364-6.81 15.169-15.18 15.169h-10.9c-3.157 0-5.976 1.977-7.051 4.944l-9.724 26.828-21.417-7.766 5.822-16.048c1.206-3.324-.074-7.039-3.071-8.915-1.903-1.191-3.039-3.223-3.039-5.433v-12.08h64.56zm47.632-28.46c0 5.602-4.558 10.16-10.16 10.16h-144.79c-5.602 0-10.16-4.558-10.16-10.16v-5.998h165.11z"/></g></svg>