<svg id="Layer_5" enable-background="new 0 0 64 64" height="512" viewBox="0 0 64 64" width="512" xmlns="http://www.w3.org/2000/svg"><g><g><g><path d="m62 11.64c0 .24-.02.48-.07.71l-1.34 6.72c-.35 1.71-1.84 2.93-3.57 2.93h-2.02l-3.59 3.59c-.26.26-.62.41-1 .41-.78 0-1.41-.63-1.41-1.41v-2.59h-2.02c-1.73 0-3.22-1.22-3.57-2.93l-1.34-6.72c-.05-.23-.07-.47-.07-.71 0-1 .41-1.92 1.07-2.57.65-.66 1.57-1.07 2.57-1.07h12.72c2.01 0 3.64 1.63 3.64 3.64z" fill="#e6e9ed"></path></g><g><path d="m9.88 24.12c.54.54 1.29.88 2.12.88h1.05.01c.27 2.86 1.76 5.36 3.94 7h-4.34c-3.12 0-5.66-2.54-5.66-5.66 0-.88.2-1.75.6-2.54l1.4-2.8.16.06c-.11.29-.16.61-.16.94 0 .83.34 1.58.88 2.12z" fill="#fcd770"></path></g><g><path d="m37 16v5l-.16.06c-.39-1.2-1.51-2.06-2.84-2.06h-1v-4h-2c-1.99 0-3.84-.92-5.06-2.43l-.11 2.42c-1.93-.04-3.71-.95-4.89-2.42l-.11 2.42c-1.59-.03-3.09-.66-4.22-1.71l-.39.08c-1.87.37-3.22 2.01-3.22 3.92v1.72h-1c-1.33 0-2.45.86-2.84 2.06l-.16-.06v-5c0-7.73 6.27-14 14-14 3.86 0 7.36 1.57 9.9 4.1 2.53 2.54 4.1 6.04 4.1 9.9z" fill="#fcd770"></path></g><g><path d="m38.4 23.8c.4.79.6 1.66.6 2.54 0 1.56-.64 2.98-1.66 4s-2.44 1.66-4 1.66h-4.34c2.18-1.64 3.66-4.14 3.94-7h.01 1.05c.83 0 1.58-.34 2.12-.88s.88-1.29.88-2.12c0-.33-.05-.65-.16-.94l.16-.06z" fill="#fcd770"></path></g><g><path d="m36 62h-24.14c1.61 0 3.17-.39 4.56-1.12 1.39-.72 2.6-1.77 3.53-3.09 2.63-3.77 4.05-8.26 4.05-12.86v-5.93l.94-.94c.56-.56.92-1.29 1.02-2.07l.04.01 2.89.16c8.48.47 15.11 7.48 15.11 15.98v9.86z" fill="#ff826e"></path></g><g><path d="m18.37 39h5.63v5.93c0 4.6-1.42 9.09-4.05 12.86-.93 1.32-2.14 2.37-3.53 3.09-1.39.73-2.95 1.12-4.56 1.12-2.72 0-5.18-1.1-6.97-2.89s-2.89-4.25-2.89-6.97c0-4.25 1.66-8.13 4.38-11 2.71-2.88 6.49-4.74 10.73-4.98l1.63-.09z" fill="#ff826e"></path></g><g><path d="m36.12 24.12c-.54.54-1.29.88-2.12.88h-1.05-.01c.04-.32.06-.66.06-1v-5h1c1.33 0 2.45.86 2.84 2.06.11.29.16.61.16.94 0 .83-.34 1.58-.88 2.12z" fill="#f0d0b4"></path></g><g><path d="m18.74 36.07.36-2.87.67-5.34c.13-1.06 1.03-1.86 2.11-1.86.58 0 1.12.24 1.5.62s.62.92.62 1.5v3.88c.73.36 1.29.95 1.63 1.65.24.49.37 1.03.37 1.59v.26c0 .16-.01.33-.04.49-.1.78-.46 1.51-1.02 2.07l-.94.94h-5.63z" fill="#f0d0b4"></path></g><g><path d="m25.94 12.57c1.22 1.51 3.07 2.43 5.06 2.43h2v4 5c0 .34-.02.68-.06 1-.28 2.86-1.76 5.36-3.94 7-1 .75-2.14 1.31-3.37 1.65-.34-.7-.9-1.29-1.63-1.65v-3.88c0-.58-.24-1.12-.62-1.5s-.92-.62-1.5-.62c-1.08 0-1.98.8-2.11 1.86l-.67 5.34c-.75-.31-1.46-.72-2.1-1.2-2.18-1.64-3.67-4.14-3.94-7-.04-.33-.06-.66-.06-1v-5-1.72c0-1.91 1.35-3.55 3.22-3.92l.39-.08c1.13 1.05 2.63 1.68 4.22 1.71l.11-2.42c1.18 1.47 2.96 2.38 4.89 2.42z" fill="#f0d0b4"></path></g><g><path d="m13 24c0 .34.02.67.06 1h-.01-1.05c-.83 0-1.58-.34-2.12-.88s-.88-1.29-.88-2.12c0-.33.05-.65.16-.94.39-1.2 1.51-2.06 2.84-2.06h1z" fill="#f0d0b4"></path></g></g><g><path d="m22 19h-2c0 .551-.449 1-1 1s-1-.449-1-1h-2c0 1.654 1.346 3 3 3s3-1.346 3-3z"></path><path d="m27 22c1.654 0 3-1.346 3-3h-2c0 .551-.449 1-1 1s-1-.449-1-1h-2c0 1.654 1.346 3 3 3z"></path><path d="m28.943 35.162-1.954-.109c-.01-.261-.042-.518-.094-.768.869-.329 1.679-.763 2.421-1.285h4.021c3.674 0 6.663-2.989 6.663-6.663 0-1.029-.243-2.059-.703-2.98l-1.297-2.593v-4.764c0-8.271-6.729-15-15-15s-15 6.729-15 15v4.764l-1.297 2.594c-.46.92-.703 1.95-.703 2.979 0 3.674 2.989 6.663 6.663 6.663h4.012c.424.298.871.569 1.341.807l-.164 1.31-.795.044c-9.004.501-16.057 7.957-16.057 16.975 0 5.99 4.874 10.864 10.864 10.864h33.136v-10.864c0-9.018-7.053-16.474-16.057-16.974zm4.394-4.162h-1.867c1.176-1.426 1.996-3.14 2.341-5h.189c1.45 0 2.71-.783 3.412-1.941l.096.192c.322.645.492 1.366.492 2.086 0 2.571-2.092 4.663-4.663 4.663zm.663-11c1.103 0 2 .897 2 2s-.897 2-2 2zm-11-17c7.168 0 13 5.832 13 13v2.556c-.591-.344-1.268-.556-2-.556v-4h-3c-2.086 0-3.961-1.159-4.895-3.024l-.211-.422-1.789.894.211.423c.41.82.964 1.526 1.607 2.125-2.055-.028-3.896-1.177-4.818-3.019l-.211-.422-1.789.894.211.423c.41.82.964 1.526 1.607 2.125-2.055-.028-3.896-1.177-4.818-3.019l-.211-.422-1.789.894.211.423c.16.32.341.625.54.913-1.702.813-2.856 2.539-2.856 4.493v.721c-.732 0-1.409.212-2 .556v-2.556c0-7.168 5.832-13 13-13zm-13 19c0-1.103.897-2 2-2v4c-1.103 0-2-.897-2-2zm-2 4.337c0-.72.17-1.441.492-2.085l.096-.193c.702 1.158 1.962 1.941 3.412 1.941h.189c.341 1.857 1.15 3.572 2.328 5h-1.854c-2.571 0-4.663-2.092-4.663-4.663zm6-2.337v-6.721c0-1.397.977-2.607 2.331-2.918 1.298 1.042 2.928 1.639 4.669 1.639v-1.932c1.346 1.219 3.105 1.932 5 1.932v-1.932c1.346 1.219 3.105 1.932 5 1.932h1v8c0 3.804-2.404 7.184-5.93 8.462-.297-.394-.653-.746-1.07-1.032v-3.306c0-1.722-1.402-3.124-3.125-3.124-1.572 0-2.905 1.177-3.1 2.737l-.491 3.93c-2.639-1.621-4.284-4.502-4.284-7.667zm9.586 14h-4.078l1.252-10.015c.07-.562.55-.985 1.115-.985.621 0 1.125.504 1.125 1.125v4.494l.553.276c.892.446 1.447 1.343 1.447 2.341v.266c0 .689-.279 1.364-.767 1.851zm-20.586 14.136c0-7.957 6.224-14.536 14.168-14.977l.432-.024-.638 5.104c-.503 4.025-2.172 7.848-4.74 10.97l-2.328-4.656-1.789.895 2.678 5.355-1.49 1.49 1.414 1.414 1.558-1.558c3.666-3.666 6.039-8.518 6.682-13.662l.311-2.487h3.742v4.929c0 4.42-1.339 8.669-3.874 12.29-1.657 2.367-4.372 3.781-7.262 3.781-4.887 0-8.864-3.977-8.864-8.864zm40 8.864h-6v-15h-2v15h-16.872c1.01-.713 1.909-1.595 2.636-2.634 2.771-3.958 4.236-8.605 4.236-13.437v-5.515l.647-.647c.494-.494.846-1.086 1.072-1.725l2.112.117c7.946.441 14.169 7.02 14.169 14.977z"></path><path d="m27 46h6v2h-6z"></path><path d="m58.36 7h-12.72c-2.558 0-4.64 2.082-4.64 4.64 0 .306.03.613.09.91l1.344 6.72c.432 2.161 2.345 3.73 4.549 3.73h1.017v1.586c0 1.331 1.083 2.414 2.414 2.414.645 0 1.251-.251 1.707-.707l3.293-3.293h1.602c2.205 0 4.118-1.569 4.549-3.729l1.344-6.72c.061-.299.091-.605.091-.911 0-2.558-2.082-4.64-4.64-4.64zm2.589 5.157-1.344 6.721c-.246 1.23-1.335 2.122-2.589 2.122h-2.43l-3.879 3.879c-.238.238-.707.045-.707-.293v-3.586h-3.016c-1.254 0-2.343-.892-2.588-2.122l-1.344-6.722c-.035-.168-.052-.342-.052-.516 0-1.456 1.184-2.64 2.64-2.64h12.72c1.456 0 2.64 1.184 2.64 2.64 0 .174-.017.348-.051.517z"></path><path d="m46 11h12v2h-12z"></path><path d="m46 15h12v2h-12z"></path></g></g></svg>